<svg xmlns="http://www.w3.org/2000/svg">
<defs>
<font id="GTAmerica-ExtendedBold" horiz-adv-x="697" >
  <font-face 
    font-family="GT America Extended Bold"
    font-weight="700"
    font-stretch="expanded"
    units-per-em="1000"
    panose-1="0 0 8 5 0 0 0 0 0 0"
    ascent="800"
    descent="-200"
    x-height="500"
    cap-height="710"
    bbox="-512 -243 1459.02 979"
    underline-thickness="50"
    underline-position="-200"
    unicode-range="U+000D-FB02"
  />
<missing-glyph horiz-adv-x="1018" 
d="M998 663h-552v-47h552v-48h-552v-47h552v-48h-552v-47h552v-47h-552v-48h552v-47h-978v426h978v-47zM67 667l13 9h-16l-5 15l-4 -15h-16l13 -9l-5 -15l12 9l13 -9zM142 676h-16l13 -9l-5 -15l12 10l13 -10l-5 15l12 9h-15l-5 15zM229 676h-16l13 -9l-5 -15l12 10l13 -10
l-5 15l12 9h-15l-5 15zM315 676h-15l13 -9l-5 -15l12 10l13 -10l-5 15l12 9h-15l-5 15zM415 667l12 9h-15l-5 15l-5 -15h-15l12 -9l-4 -15l12 10l13 -10zM98 632h-15l12 -9l-4 -14l12 9l12 -9l-4 14l12 9h-15l-5 15zM371 623l13 9h-16l-4 15l-5 -15h-15l12 -9l-5 -14l13 9
l12 -9zM273 364v93h94v80h-94v94h-80v-94h-93v-80h93v-93h80zM67 580l13 9h-16l-5 14l-4 -14h-16l13 -9l-5 -15l12 9l13 -9zM142 589h-16l13 -9l-5 -15l12 9l13 -9l-5 15l12 9h-15l-5 14zM315 589h-15l13 -9l-5 -15l12 9l13 -9l-5 15l12 9h-15l-5 14zM415 580l12 9h-15
l-5 14l-5 -14h-15l12 -9l-4 -15l12 9l13 -9zM67 492l13 10h-16l-5 14l-4 -14h-16l13 -10l-5 -14l12 9l13 -9zM415 492l12 10h-15l-5 14l-5 -14h-15l12 -10l-4 -14l12 9l13 -9zM67 405l13 9h-16l-5 15l-4 -15h-16l13 -9l-5 -14l12 9l13 -9zM154 405l12 9h-15l-5 15l-4 -15
h-16l13 -9l-5 -14l12 9l13 -9zM328 405l12 9h-15l-5 15l-5 -15h-15l13 -9l-5 -14l12 9l13 -9zM415 405l12 9h-15l-5 15l-5 -15h-15l12 -9l-4 -14l12 9l13 -9zM115 347l-4 15l12 9h-15l-5 14l-5 -14h-15l12 -9l-4 -15l12 9zM376 347l-5 15l13 9h-16l-4 14l-5 -14h-15l12 -9
l-5 -15l13 9zM72 303l-5 15l13 9h-16l-5 15l-4 -15h-16l13 -9l-5 -15l12 9zM159 303l-5 15l12 9h-15l-5 15l-4 -15h-16l13 -9l-5 -15l12 9zM246 303l-5 15l12 9h-15l-5 15l-4 -15h-16l13 -9l-5 -15l12 9zM333 303l-5 15l12 9h-15l-5 15l-5 -15h-15l13 -9l-5 -15l12 9z

<glyph glyph-name="fi" unicode="fi" horiz-adv-x="794" 
d="M458 500v-112h-160v-388h-171v388h-110v112h110v34q0 199 232 199q52 0 99 -11v-120q-36 7 -73 7q-46 0 -66.5 -18.5t-20.5 -58.5v-32h160zM545 572v149h180v-149h-180zM549 0v500h171v-500h-171z" />
    <glyph glyph-name="fl" unicode="fl" horiz-adv-x="804" 
d="M458 500v-112h-160v-388h-171v388h-110v112h110v34q0 199 232 199q52 0 99 -11v-120q-36 7 -73 7q-46 0 -66.5 -18.5t-20.5 -58.5v-32h160zM725 725v-725h-171v725h171z" />
    <glyph glyph-name="g_g.liga" unicode="gg" horiz-adv-x="1327" 
d="M476 494q27 94 149 94q17 0 31 -3v-111q-24 6 -52 6q-43 0 -64 -17q63 -45 63 -118q0 -80 -73.5 -126.5t-199.5 -46.5q-75 0 -132 17q-20 -11 -20 -28q0 -39 67 -39h190q199 0 199 -151q0 -181 -324 -181q-283 0 -283 119q0 64 90 90q-75 28 -75 95q0 43 28 72t77 43
q-90 48 -90 136q0 79 73 124.5t200 45.5q86 0 146 -21zM1308 475q-27 5 -52 5q-44 0 -68 -17q63 -45 63 -118q0 -80 -73.5 -126.5t-199.5 -46.5q-68 0 -122 14q-15 -9 -15 -25q0 -39 69 -39h190q198 -1 198 -151q0 -89 -83 -135t-242 -46q-281 0 -281 119q0 63 88 90
q-75 26 -75 95q0 80 95 112q-95 48 -95 139q0 79 72.5 124.5t200.5 45.5q84 0 146 -20q28 93 153 93q17 0 31 -3v-110zM330 258q49 0 77.5 23.5t28.5 63.5t-28 62.5t-78 22.5q-49 0 -77.5 -22.5t-28.5 -62.5t28.5 -63.5t77.5 -23.5zM978 258q49 0 77.5 23.5t28.5 63.5
t-28.5 62.5t-77.5 22.5q-50 0 -78 -22.5t-28 -62.5t28.5 -63.5t77.5 -23.5zM412 -16l-208 2q-11 0 -31 2q-21 -18 -21 -45q0 -66 169 -66q87 0 126 14t39 46q0 47 -74 47zM1077 -16l-207 1q-22 0 -32 1q-21 -17 -21 -43q0 -66 167 -66q88 0 127.5 14t39.5 46q0 47 -74 47z
" />
    <glyph glyph-name=".notdef" horiz-adv-x="1018" 
d="M998 663h-552v-47h552v-48h-552v-47h552v-48h-552v-47h552v-47h-552v-48h552v-47h-978v426h978v-47zM67 667l13 9h-16l-5 15l-4 -15h-16l13 -9l-5 -15l12 9l13 -9zM142 676h-16l13 -9l-5 -15l12 10l13 -10l-5 15l12 9h-15l-5 15zM229 676h-16l13 -9l-5 -15l12 10l13 -10
l-5 15l12 9h-15l-5 15zM315 676h-15l13 -9l-5 -15l12 10l13 -10l-5 15l12 9h-15l-5 15zM415 667l12 9h-15l-5 15l-5 -15h-15l12 -9l-4 -15l12 10l13 -10zM98 632h-15l12 -9l-4 -14l12 9l12 -9l-4 14l12 9h-15l-5 15zM371 623l13 9h-16l-4 15l-5 -15h-15l12 -9l-5 -14l13 9
l12 -9zM273 364v93h94v80h-94v94h-80v-94h-93v-80h93v-93h80zM67 580l13 9h-16l-5 14l-4 -14h-16l13 -9l-5 -15l12 9l13 -9zM142 589h-16l13 -9l-5 -15l12 9l13 -9l-5 15l12 9h-15l-5 14zM315 589h-15l13 -9l-5 -15l12 9l13 -9l-5 15l12 9h-15l-5 14zM415 580l12 9h-15
l-5 14l-5 -14h-15l12 -9l-4 -15l12 9l13 -9zM67 492l13 10h-16l-5 14l-4 -14h-16l13 -10l-5 -14l12 9l13 -9zM415 492l12 10h-15l-5 14l-5 -14h-15l12 -10l-4 -14l12 9l13 -9zM67 405l13 9h-16l-5 15l-4 -15h-16l13 -9l-5 -14l12 9l13 -9zM154 405l12 9h-15l-5 15l-4 -15
h-16l13 -9l-5 -14l12 9l13 -9zM328 405l12 9h-15l-5 15l-5 -15h-15l13 -9l-5 -14l12 9l13 -9zM415 405l12 9h-15l-5 15l-5 -15h-15l12 -9l-4 -14l12 9l13 -9zM115 347l-4 15l12 9h-15l-5 14l-5 -14h-15l12 -9l-4 -15l12 9zM376 347l-5 15l13 9h-16l-4 14l-5 -14h-15l12 -9
l-5 -15l13 9zM72 303l-5 15l13 9h-16l-5 15l-4 -15h-16l13 -9l-5 -15l12 9zM159 303l-5 15l12 9h-15l-5 15l-4 -15h-16l13 -9l-5 -15l12 9zM246 303l-5 15l12 9h-15l-5 15l-4 -15h-16l13 -9l-5 -15l12 9zM333 303l-5 15l12 9h-15l-5 15l-5 -15h-15l13 -9l-5 -15l12 9z
M420 303l-5 15l12 9h-15l-5 15l-5 -15h-15l12 -9l-4 -15l12 9zM20 189v48h977v-48h-977zM20 95v47h978v-47h-978zM20 0v47h978v-47h-978z" />
    <glyph glyph-name=".null" horiz-adv-x="0" 
 />
    <glyph glyph-name=".null" horiz-adv-x="0" 
 />
    <glyph glyph-name="nonmarkingreturn" horiz-adv-x="333" 
 />
    <glyph glyph-name="CR" unicode="&#xd;" horiz-adv-x="0" 
 />
    <glyph glyph-name="space" unicode=" " horiz-adv-x="312" 
 />
    <glyph glyph-name="exclam" unicode="!" horiz-adv-x="362" 
d="M110 235l-26 490h194l-27 -490h-141zM276 154v-154h-191v154h191z" />
    <glyph glyph-name="quotedbl" unicode="&#x22;" horiz-adv-x="503" 
d="M85 396l-23 314h162l-23 -314h-116zM303 396l-23 314h162l-23 -314h-116z" />
    <glyph glyph-name="numbersign" unicode="#" horiz-adv-x="741" 
d="M727 411h-143l-24 -128h133v-109h-154l-33 -174h-130l33 174h-148l-33 -174h-129l33 174h-118v109h139l24 128h-123v109h143l33 172h130l-33 -172h148l33 172h129l-33 -172h123v-109zM430 283l24 128h-148l-24 -128h148z" />
    <glyph glyph-name="dollar" unicode="$" horiz-adv-x="729" 
d="M703 204q0 -97 -81.5 -156t-224.5 -65v-89h-68v89q-117 5 -202.5 46.5t-126.5 112.5l128 86q62 -106 201 -121v191l-65 10q-221 36 -221 201q0 91 75.5 144.5t210.5 58.5v87h68v-87q197 -11 293 -132l-115 -92q-53 91 -178 104v-170l73 -10q121 -20 177 -69.5t56 -138.5z
M202 518q0 -35 28.5 -54.5t98.5 -31.5v163q-127 -5 -127 -77zM397 105q143 6 143 89q0 40 -29 60.5t-97 31.5l-17 2v-183z" />
    <glyph glyph-name="percent" unicode="%" horiz-adv-x="999" 
d="M152 -16l576 740h121l-576 -740h-121zM238 338q-102 0 -163 52.5t-60 139.5q-1 86 60 138t162 52q100 0 161.5 -52.5t60.5 -139.5q1 -86 -60.5 -138t-160.5 -52zM238 431q43 0 68 25t25 72q0 48 -25 73.5t-69 25.5t-69.5 -25t-25.5 -72q0 -48 25.5 -73.5t70.5 -25.5z
M763 -15q-102 0 -163 52.5t-60 139.5q-1 86 60 138t162 52q100 0 161.5 -52.5t60.5 -139.5q1 -86 -60.5 -138t-160.5 -52zM763 78q43 0 68 25t25 72q0 48 -25 73.5t-69 25.5t-69.5 -25t-25.5 -72q0 -48 25.5 -73.5t70.5 -25.5z" />
    <glyph glyph-name="ampersand" unicode="&#x26;" horiz-adv-x="792" 
d="M735 115q25 0 43 5v-120q-39 -13 -76 -13q-87 0 -162 62q-105 -69 -242 -69q-136 0 -211 57t-75 149q0 64 37.5 110t121.5 85q-46 47 -67 86.5t-21 85.5q0 86 64 135t169 49q107 0 170.5 -47t63.5 -126q0 -61 -41.5 -110t-113.5 -82l-7 -3l153 -139q46 73 62 179l131 -26
q-21 -141 -94 -238q45 -30 95 -30zM318 638q-38 0 -59.5 -20.5t-21.5 -58.5q0 -27 15.5 -53t57.5 -67l11 5q80 35 80 114q0 37 -21.5 58.5t-61.5 21.5zM185 200q0 -45 39.5 -74t99.5 -29q67 0 123 35l-194 174q-68 -41 -68 -106z" />
    <glyph glyph-name="quotesingle" unicode="'" horiz-adv-x="286" 
d="M85 396l-23 314h162l-23 -314h-116z" />
    <glyph glyph-name="parenleft" unicode="(" horiz-adv-x="384" 
d="M252 -141q-93 94 -144.5 215.5t-51.5 250.5q0 131 51.5 249t145.5 209l127 -51q-163 -180 -163 -408q0 -230 164 -413z" />
    <glyph glyph-name="parenright" unicode=")" horiz-adv-x="384" 
d="M132 -141l-129 52q164 183 164 413q0 228 -163 408l127 51q94 -91 145.5 -209t51.5 -249q0 -129 -51.5 -250.5t-144.5 -215.5z" />
    <glyph glyph-name="asterisk" unicode="*" horiz-adv-x="405" 
d="M396 542l-140 -16l108 -95l-101 -72l-60 130l-61 -130l-100 72l108 95l-140 16l38 117l122 -72l-30 135h126l-30 -135l121 72z" />
    <glyph glyph-name="plus" unicode="+" horiz-adv-x="620" 
d="M575 383v-108h-206v-192h-119v192h-205v108h205v181h119v-181h206z" />
    <glyph glyph-name="comma" unicode="," horiz-adv-x="305" 
d="M100 -158l-28 69q44 12 61 32t17 54v3h-88v170h181v-159q0 -138 -143 -169z" />
    <glyph glyph-name="hyphen" unicode="-" horiz-adv-x="502" 
d="M45 346h412v-135h-412v135z" />
    <glyph glyph-name="period" unicode="." horiz-adv-x="309" 
d="M247 163v-163h-185v163h185z" />
    <glyph glyph-name="slash" unicode="/" horiz-adv-x="598" 
d="M198 -117h-156l358 877h156z" />
    <glyph glyph-name="zero" unicode="0" horiz-adv-x="763" 
d="M381 -19q-158 0 -251 97.5t-93 268.5t92.5 269t251.5 98t252 -98t93 -269t-93 -268.5t-252 -97.5zM381 111q78 0 122.5 60.5t44.5 175.5q0 116 -44.5 176.5t-122.5 60.5q-77 0 -121.5 -61t-44.5 -176t44.5 -175.5t121.5 -60.5z" />
    <glyph glyph-name="one" unicode="1" horiz-adv-x="475" 
d="M199 0v473q-46 -46 -143 -46h-35v150h22q139 3 185 118h143v-695h-172z" />
    <glyph glyph-name="two" unicode="2" horiz-adv-x="695" 
d="M31 0v123q218 102 325 180q57 42 81 81.5t24 88.5q0 51 -31 80.5t-91 29.5t-94 -31t-34 -86q0 -18 5 -46l-177 17q-4 20 -4 47q0 104 84.5 167t224.5 63q143 0 222 -60.5t79 -167.5q0 -135 -138 -235q-92 -65 -228 -117h377v-134h-625z" />
    <glyph glyph-name="three" unicode="3" horiz-adv-x="703" 
d="M347 -19q-146 0 -231 62.5t-89 171.5l175 16q4 -59 41.5 -90.5t104.5 -31.5q66 0 100.5 25t34.5 71q0 91 -141 91h-57v111h56q128 0 128 90q0 43 -32.5 67t-94.5 24q-65 0 -100 -33.5t-37 -93.5l-172 21q2 105 85.5 168.5t228.5 63.5q144 0 222 -52.5t78 -146.5
q0 -63 -43.5 -104t-111.5 -52q83 -11 128 -52.5t45 -113.5q0 -96 -84.5 -154t-233.5 -58z" />
    <glyph glyph-name="four" unicode="4" horiz-adv-x="709" 
d="M700 152h-124v-152h-171v152h-394v113l373 430h192v-421h124v-122zM410 473q0 60 3 82h-3q-14 -30 -53 -74l-125 -147q-35 -41 -58 -60h236v199z" />
    <glyph glyph-name="five" unicode="5" horiz-adv-x="690" 
d="M342 -19q-127 0 -209.5 54t-99.5 149l170 25q10 -46 46.5 -72.5t92.5 -26.5q66 0 102.5 32.5t36.5 91.5t-35.5 92t-97.5 33q-104 0 -139 -86l-155 14l45 408h514v-131h-384l-21 -162q55 77 192 77q120 0 188 -64t68 -177q0 -119 -84 -188t-230 -69z" />
    <glyph glyph-name="six" unicode="6" horiz-adv-x="709" 
d="M414 472q124 0 192.5 -62.5t68.5 -174.5q0 -113 -85 -183.5t-221 -70.5q-158 0 -245.5 93.5t-87.5 262.5q0 177 89 277t247 100q122 0 198 -49.5t95 -141.5l-169 -24q-24 89 -128 89q-76 0 -119 -53.5t-47 -151.5q66 89 212 89zM366 107q64 0 101.5 33.5t37.5 89.5
q0 57 -36.5 89.5t-100.5 32.5q-56 0 -98 -27.5t-62 -77.5q13 -68 53.5 -104t104.5 -36z" />
    <glyph glyph-name="seven" unicode="7" horiz-adv-x="615" 
d="M147 0v14q0 151 73.5 290t208.5 253h-412v138h586v-129q-266 -227 -266 -535v-31h-190z" />
    <glyph glyph-name="eight" unicode="8" horiz-adv-x="717" 
d="M530 383q82 -28 120 -73.5t38 -116.5q0 -98 -88.5 -155t-240.5 -57t-240.5 53.5t-88.5 145.5q0 129 152 166q-132 51 -132 171q0 89 83 143t221 54q139 0 222.5 -50t83.5 -133q0 -112 -130 -148zM355 602q-63 0 -98.5 -22.5t-35.5 -62.5q0 -35 30.5 -57t98.5 -36l64 -13
q76 33 76 99q0 44 -35.5 68t-99.5 24zM361 102q69 0 109.5 25.5t40.5 69.5q0 40 -33 64t-107 39l-70 15q-94 -35 -94 -112q0 -47 41 -74t113 -27z" />
    <glyph glyph-name="nine" unicode="9" horiz-adv-x="709" 
d="M342 714q160 0 245.5 -91t85.5 -264q0 -180 -85 -279t-249 -99q-121 0 -199 51.5t-97 144.5l169 27q27 -94 134 -94q79 0 120 56t42 158q-63 -80 -202 -80q-126 0 -199 61t-73 168q0 109 84 175t224 66zM341 365q58 0 101.5 26.5t60.5 71.5q-10 60 -50 95t-108 35
q-65 0 -103 -31.5t-38 -85.5q0 -51 37 -81t100 -30z" />
    <glyph glyph-name="colon" unicode=":" horiz-adv-x="309" 
d="M247 500v-163h-185v163h185zM247 163v-163h-185v163h185z" />
    <glyph glyph-name="semicolon" unicode=";" horiz-adv-x="309" 
d="M247 500v-163h-185v163h185zM100 -158l-28 69q44 12 61 32t17 54v3h-88v170h181v-159q0 -138 -143 -169z" />
    <glyph glyph-name="less" unicode="&#x3c;" 
d="M584 71l-511 200v110l511 200v-121l-373 -133l373 -133v-123z" />
    <glyph glyph-name="equal" unicode="=" horiz-adv-x="614" 
d="M45 372v106h524v-106h-524zM45 180v106h524v-106h-524z" />
    <glyph glyph-name="greater" unicode="&#x3e;" 
d="M113 71v123l373 133l-373 133v121l511 -200v-110z" />
    <glyph glyph-name="question" unicode="?" horiz-adv-x="643" 
d="M226 209v42q0 80 80 125l68 37q37 21 54.5 45t17.5 60q0 42 -32.5 69t-90.5 27q-63 0 -100 -29.5t-37 -84.5q0 -30 6 -49l-170 14q-6 24 -6 54q0 99 82.5 158.5t224.5 59.5q139 0 219 -54.5t80 -149.5q0 -111 -115 -181l-63 -36q-29 -18 -40.5 -35.5t-11.5 -44.5v-27
h-166zM216 0v154h188v-154h-188z" />
    <glyph glyph-name="at" unicode="@" horiz-adv-x="916" 
d="M456 -104q-200 0 -315.5 102t-115.5 278q0 171 122 278.5t319 107.5q194 0 309.5 -100t115.5 -266q0 -107 -52.5 -169t-141.5 -62q-117 0 -143 83q-52 -88 -176 -88q-73 0 -116.5 34.5t-43.5 92.5q0 59 41.5 91t133.5 44l153 17v14q0 74 -86 74q-80 0 -85 -66h-144
q4 70 67.5 113.5t163.5 43.5q220 0 220 -175v-131q0 -38 12 -54.5t40 -16.5q38 0 59.5 41t21.5 112q0 142 -92 221.5t-258 79.5q-167 0 -264 -86t-97 -233q0 -143 98 -227t265 -84q113 0 203 40l28 -61q-100 -48 -242 -48zM433 152q50 0 82 26t32 68v25l-108 -12
q-77 -10 -77 -57q0 -23 19.5 -36.5t51.5 -13.5z" />
    <glyph glyph-name="A" unicode="A" horiz-adv-x="841" 
d="M642 0l-59 155h-325l-60 -155h-186l302 710h213l301 -710h-186zM305 277h231l-68 178q-36 83 -47 132h-2q-10 -49 -46 -132z" />
    <glyph glyph-name="B" unicode="B" horiz-adv-x="793" 
d="M605 371q74 -11 112.5 -55.5t38.5 -114.5q0 -89 -64 -145t-188 -56h-422v710h414q120 0 181 -50t61 -131q0 -58 -34.5 -100.5t-98.5 -57.5zM447 587h-186v-167h186q104 0 104 86q0 36 -25 58.5t-79 22.5zM457 123q56 0 84 25t28 67t-28 65.5t-82 23.5h-198v-181h196z" />
    <glyph glyph-name="C" unicode="C" horiz-adv-x="822" 
d="M423 -20q-186 0 -292 100.5t-106 272.5q0 170 110 273.5t292 103.5q151 0 248.5 -69.5t120.5 -191.5l-184 -32q-14 73 -62.5 112.5t-126.5 39.5q-99 0 -155.5 -63t-56.5 -171q0 -106 58 -169.5t158 -63.5q76 0 124 37.5t64 108.5l183 -39q-34 -118 -131 -183.5
t-244 -65.5z" />
    <glyph glyph-name="D" unicode="D" horiz-adv-x="844" 
d="M82 0v710h353q176 0 280 -93.5t104 -253.5q0 -163 -106.5 -263t-280.5 -100h-350zM261 129h158q100 0 156.5 64.5t56.5 168.5q0 101 -56.5 160t-156.5 59h-158v-452z" />
    <glyph glyph-name="E" unicode="E" horiz-adv-x="726" 
d="M261 131h410v-131h-589v710h582v-130h-403v-155h386v-126h-386v-168z" />
    <glyph glyph-name="F" unicode="F" horiz-adv-x="696" 
d="M664 576h-403v-158h385v-131h-385v-287h-179v710h582v-134z" />
    <glyph glyph-name="G" unicode="G" horiz-adv-x="847" 
d="M386 -20q-167 0 -264 101.5t-97 269.5q0 170 109.5 274.5t294.5 104.5q147 0 242.5 -61t120.5 -163l-185 -34q-15 57 -61 91t-120 34q-101 0 -158 -65t-57 -178q0 -112 57 -176.5t159 -64.5q90 0 144 45t56 104v11h-216v123h381v-396h-131l-8 111q-32 -60 -100.5 -95.5
t-166.5 -35.5z" />
    <glyph glyph-name="H" unicode="H" horiz-adv-x="868" 
d="M786 710v-710h-180v293h-345v-293h-179v710h179v-283h345v283h180z" />
    <glyph glyph-name="I" unicode="I" horiz-adv-x="343" 
d="M261 0h-179v710h179v-710z" />
    <glyph glyph-name="J" unicode="J" horiz-adv-x="462" 
d="M398 232q0 -245 -263 -245q-75 0 -119 10v143q48 -6 79 -6q61 0 92.5 30t31.5 101v445h179v-478z" />
    <glyph glyph-name="K" unicode="K" horiz-adv-x="818" 
d="M595 0l-213 313l-121 -120v-193h-179v710h179v-319l312 319h213l-276 -281l292 -429h-207z" />
    <glyph glyph-name="L" unicode="L" horiz-adv-x="654" 
d="M82 0v710h179v-566h372v-144h-551z" />
    <glyph glyph-name="M" unicode="M" horiz-adv-x="1034" 
d="M82 0v710h256l157 -435q16 -49 20 -82h2q4 29 21 83l154 434h260v-710h-164v475q0 43 5 93h-3q-8 -38 -25 -82l-174 -486h-158l-175 486q-16 41 -23 81h-4q5 -33 5 -92v-475h-154z" />
    <glyph glyph-name="N" unicode="N" horiz-adv-x="869" 
d="M82 0v710h196l295 -407q31 -45 48 -86h2v94v399h164v-710h-186l-306 412q-37 58 -47 83h-3q1 -30 1 -95v-400h-164z" />
    <glyph glyph-name="O" unicode="O" horiz-adv-x="858" 
d="M429 -20q-184 0 -294 102t-110 273t110 273t294 102t294 -102t110 -273t-110 -273t-294 -102zM429 118q100 0 158.5 64t58.5 173t-58.5 173t-158.5 64t-158.5 -64t-58.5 -173t58.5 -173t158.5 -64z" />
    <glyph glyph-name="P" unicode="P" horiz-adv-x="755" 
d="M469 710q125 0 198 -61.5t73 -166.5q0 -109 -74.5 -173t-202.5 -64h-202v-245h-179v710h387zM425 369q60 0 93 28t33 80q0 51 -32.5 79t-93.5 28h-164v-215h164z" />
    <glyph glyph-name="Q" unicode="Q" horiz-adv-x="858" 
d="M610 12q47 -39 129 -39q27 0 67 7v-139q-39 -6 -76 -6q-192 0 -261 146q-13 -1 -40 -1q-184 0 -294 102t-110 273t110 273t294 102t294 -102t110 -273q0 -123 -59 -212.5t-164 -130.5zM212 355q0 -109 58.5 -173t158.5 -64t158.5 64t58.5 173t-58.5 173t-158.5 64
t-158.5 -64t-58.5 -173z" />
    <glyph glyph-name="R" unicode="R" horiz-adv-x="791" 
d="M563 0l-150 265h-152v-265h-179v710h386q140 0 206 -61t66 -159q0 -68 -37 -122.5t-112 -78.5l170 -289h-198zM261 586v-201h168q64 0 93.5 28t29.5 75q0 45 -30 71.5t-93 26.5h-168z" />
    <glyph glyph-name="S" unicode="S" horiz-adv-x="735" 
d="M369 -20q-132 0 -228 45.5t-141 127.5l132 92q75 -130 245 -130q152 0 152 83q0 36 -25 54t-86 27l-147 22q-221 35 -221 213q0 101 84.5 158.5t234.5 57.5q238 0 337 -144l-117 -98q-69 112 -230 112q-65 0 -101.5 -19.5t-36.5 -55.5q0 -34 25 -51.5t89 -28.5l143 -21
q119 -19 173.5 -68t54.5 -142q0 -110 -88.5 -172t-248.5 -62z" />
    <glyph glyph-name="T" unicode="T" horiz-adv-x="687" 
d="M679 710v-142h-246v-568h-179v568h-246v142h671z" />
    <glyph glyph-name="U" unicode="U" horiz-adv-x="826" 
d="M63 710h180v-420q0 -76 45 -121.5t125 -45.5t125 45.5t45 121.5v420h180v-432q0 -137 -92.5 -217.5t-257.5 -80.5q-164 0 -257 81t-93 218v431z" />
    <glyph glyph-name="V" unicode="V" horiz-adv-x="786" 
d="M287 0l-287 710h196l172 -468q18 -54 23 -86h4q6 37 22 86l173 468h196l-287 -710h-212z" />
    <glyph glyph-name="W" unicode="W" horiz-adv-x="1125" 
d="M220 0l-201 710h182l114 -461q7 -33 9 -63h4q1 23 12 63l131 461h183l131 -461q11 -40 12 -63h4q1 19 9 63l114 461h183l-202 -710h-203l-128 473q-8 29 -9 57h-5q-2 -28 -9 -57l-128 -473h-203z" />
    <glyph glyph-name="X" unicode="X" horiz-adv-x="807" 
d="M7 0l282 367l-269 343h208l147 -201q20 -28 27 -45h2q7 17 27 45l149 201h204l-266 -349l283 -361h-211l-157 211q-25 33 -33 51h-2q-6 -15 -31 -50l-155 -212h-205z" />
    <glyph glyph-name="Y" unicode="Y" horiz-adv-x="745" 
d="M282 0v249l-287 461h197l161 -275q15 -27 19 -47h2q4 20 19 47l165 275h192l-288 -461v-249h-180z" />
    <glyph glyph-name="Z" unicode="Z" horiz-adv-x="723" 
d="M43 124l413 452h-398v134h618v-124l-412 -453h430v-133h-651v124z" />
    <glyph glyph-name="bracketleft" unicode="[" horiz-adv-x="390" 
d="M82 -117v877h293v-115h-137v-647h137v-115h-293z" />
    <glyph glyph-name="backslash" unicode="\" horiz-adv-x="598" 
d="M400 -117l-358 877h156l358 -877h-156z" />
    <glyph glyph-name="bracketright" unicode="]" horiz-adv-x="390" 
d="M308 -117h-293v115h137v647h-137v115h293v-877z" />
    <glyph glyph-name="asciicircum" unicode="^" horiz-adv-x="521" 
d="M194 709h133l174 -265h-136l-104 166l-105 -166h-136z" />
    <glyph glyph-name="underscore" unicode="_" horiz-adv-x="556" 
d="M0 -85h556v-94h-556v94z" />
    <glyph glyph-name="grave" unicode="`" horiz-adv-x="600" 
d="M282 569h-137l-163 157h167z" />
    <glyph glyph-name="a" unicode="a" horiz-adv-x="683" 
d="M238 -15q-95 0 -150 41t-55 111t54 109q52 36 174 48l186 17v15q0 83 -106 83t-117 -77h-175q10 85 88 134t205 49q142 0 209.5 -52.5t67.5 -161.5v-155q0 -94 12 -146h-169q-7 42 -7 85q-25 -48 -81.5 -74t-135.5 -26zM303 89q66 0 107 30t41 79v32l-138 -14
q-57 -7 -81 -23t-24 -45q0 -28 25.5 -43.5t69.5 -15.5z" />
    <glyph glyph-name="b" unicode="b" horiz-adv-x="727" 
d="M441 -15q-67 0 -118 25.5t-79 69.5l-11 -80h-154v725h171v-299q63 89 198 89q113 0 181.5 -72t68.5 -191q0 -121 -70.5 -194t-186.5 -73zM384 100q64 0 100.5 40t36.5 111q0 70 -36 109.5t-100 39.5q-63 -1 -101.5 -37t-38.5 -96v-31q0 -63 37.5 -99.5t101.5 -36.5z" />
    <glyph glyph-name="c" unicode="c" horiz-adv-x="660" 
d="M340 -15q-143 0 -228 72.5t-85 193.5q0 123 85 193.5t231 70.5q121 0 197 -48t95 -136l-169 -29q-21 92 -128 92q-64 0 -100 -37t-36 -103q0 -69 36.5 -107.5t100.5 -38.5q105 0 128 93l168 -32q-19 -85 -98 -134.5t-197 -49.5z" />
    <glyph glyph-name="d" unicode="d" horiz-adv-x="727" 
d="M278 -15q-111 0 -180 73.5t-69 191.5q0 119 71 192t186 73q132 0 191 -86v296h171v-725h-164v91q-28 -50 -82 -78t-124 -28zM344 100q61 0 98.5 36.5t37.5 95.5v33q0 63 -38 99t-101 36q-64 0 -99.5 -39t-35.5 -109t37 -111t101 -41z" />
    <glyph glyph-name="e" unicode="e" horiz-adv-x="661" 
d="M629 252v-40h-438q4 -52 44.5 -81t108.5 -29q101 0 147 73l128 -58q-39 -63 -111 -97.5t-168 -34.5q-147 0 -230 69t-83 192q0 125 82 197t221 72q142 0 220.5 -69.5t78.5 -193.5zM461 305v2q0 51 -36 80.5t-97 29.5t-97.5 -29.5t-40.5 -82.5h271z" />
    <glyph glyph-name="f" unicode="f" horiz-adv-x="475" 
d="M458 500v-112h-160v-388h-171v388h-110v112h110v34q0 199 232 199q52 0 99 -11v-120q-36 7 -73 7q-46 0 -66.5 -18.5t-20.5 -58.5v-32h160z" />
    <glyph glyph-name="g" unicode="g" horiz-adv-x="680" 
d="M661 474q-26 6 -51 6q-43 0 -69 -17q63 -45 63 -118q0 -79 -73.5 -126t-199.5 -47q-74 0 -133 17q-20 -11 -20 -28q0 -39 67 -39h215q197 -1 197 -147q0 -185 -342 -185q-288 0 -288 120q0 65 88 90q-73 28 -73 94q0 85 105 115q-90 48 -90 136q0 80 73 125t201 45
q83 0 146 -20q26 93 153 93q14 0 31 -3v-111zM331 258q49 0 77.5 23.5t28.5 63.5t-28 62.5t-78 22.5t-78.5 -22.5t-28.5 -62.5t29 -63.5t78 -23.5zM442 -16l-233 1q-12 0 -34 2q-21 -18 -21 -45q0 -65 171 -65q101 0 144.5 15t43.5 46q0 46 -71 46z" />
    <glyph glyph-name="h" unicode="h" horiz-adv-x="729" 
d="M79 0v725h171v-322q58 113 202 113q105 0 160 -62t55 -180v-274h-171v256q0 133 -117 133q-61 0 -95 -37.5t-34 -105.5v-246h-171z" />
    <glyph glyph-name="i" unicode="i" horiz-adv-x="319" 
d="M70 572v149h180v-149h-180zM74 0v500h171v-500h-171z" />
    <glyph glyph-name="j" unicode="j" horiz-adv-x="328" 
d="M77 572v149h180v-149h-180zM42 -204q-49 0 -80 7v123q26 -3 52 -3q37 0 53 20.5t16 72.5v484h171v-500q0 -101 -48 -152.5t-164 -51.5z" />
    <glyph glyph-name="k" unicode="k" horiz-adv-x="698" 
d="M491 0l-146 217l-95 -81v-136h-171v725h171v-428l216 203h210l-205 -190l212 -310h-192z" />
    <glyph glyph-name="l" unicode="l" horiz-adv-x="329" 
d="M250 725v-725h-171v725h171z" />
    <glyph glyph-name="m" unicode="m" horiz-adv-x="1055" 
d="M74 500h166v-100q51 115 185 115q132 0 177 -116q62 116 196 116q94 0 144.5 -56.5t50.5 -162.5v-296h-171v265q0 122 -96 122q-50 0 -78.5 -33t-28.5 -92v-262h-171v265q0 122 -96 122q-50 0 -78.5 -33.5t-28.5 -94.5v-259h-171v500z" />
    <glyph glyph-name="n" unicode="n" horiz-adv-x="724" 
d="M74 0v500h166v-105q60 120 209 120q105 0 159 -59.5t54 -175.5v-280h-171v254q0 134 -115 134q-62 0 -96.5 -37.5t-34.5 -104.5v-246h-171z" />
    <glyph glyph-name="o" unicode="o" horiz-adv-x="679" 
d="M339 -15q-139 0 -225.5 71t-86.5 195t86 194t226 70t226.5 -70t86.5 -194t-86.5 -195t-226.5 -71zM339 100q65 0 102 39.5t37 111.5t-37 110.5t-102 38.5t-102 -38.5t-37 -110.5t37 -111.5t102 -39.5z" />
    <glyph glyph-name="p" unicode="p" horiz-adv-x="722" 
d="M74 -195v695h166v-84q30 48 83.5 73.5t120.5 25.5q113 0 181 -72t68 -191q0 -120 -71 -193.5t-185 -73.5q-125 0 -192 85v-265h-171zM379 100q64 0 100.5 40.5t36.5 111.5q0 70 -35.5 109t-100.5 39q-64 0 -101.5 -37t-37.5 -103v-21q0 -63 38 -101t100 -38z" />
    <glyph glyph-name="q" unicode="q" horiz-adv-x="722" 
d="M477 -195v275q-28 -44 -79.5 -70t-117.5 -26q-112 0 -181.5 73.5t-69.5 192.5q0 121 70 193.5t186 72.5q141 0 198 -96l10 80h155v-695h-171zM343 100q63 0 99 37t36 98v34q0 59 -37 95.5t-101 36.5q-63 0 -99.5 -38.5t-36.5 -109.5q0 -72 37.5 -112.5t101.5 -40.5z" />
    <glyph glyph-name="r" unicode="r" horiz-adv-x="473" 
d="M230 362q21 72 70.5 111.5t122.5 39.5q18 0 33 -3v-156q-23 4 -51 4q-75 0 -115 -38q-45 -42 -45 -132v-188h-171v500h156v-138z" />
    <glyph glyph-name="s" unicode="s" horiz-adv-x="612" 
d="M322 -15q-211 0 -306 119l92 78q72 -86 222 -86q101 0 101 46q0 21 -15 31t-57 14l-133 13q-180 22 -180 154q0 77 68 119t194 42q188 0 275 -95l-80 -82q-75 68 -204 68q-97 0 -97 -42q0 -34 64 -41l147 -15q90 -10 131 -48t41 -105q0 -81 -67 -125.5t-196 -44.5z" />
    <glyph glyph-name="t" unicode="t" horiz-adv-x="484" 
d="M5 388v112h113v119l171 64v-183h165v-112h-165v-175q0 -88 94 -88q33 0 71 8v-130q-54 -14 -116 -14q-220 0 -220 186v213h-113z" />
    <glyph glyph-name="u" unicode="u" horiz-adv-x="716" 
d="M274 -15q-105 0 -158.5 55t-53.5 159v301h171v-267q0 -122 108 -122q62 0 96 37.5t34 94.5v257h171v-500h-165v103q-25 -56 -79 -87t-124 -31z" />
    <glyph glyph-name="v" unicode="v" horiz-adv-x="638" 
d="M224 0l-224 500h181l119 -301q1 -4 18 -62h3q8 35 18 62l118 301h182l-225 -500h-190z" />
    <glyph glyph-name="w" unicode="w" horiz-adv-x="930" 
d="M179 0l-165 500h166l86 -308q5 -22 9 -49h2q3 23 10 49l100 308h156l100 -308q7 -26 10 -49h2q1 14 9 49l85 308h167l-165 -500h-175l-99 295q-9 25 -11 47h-3q-2 -26 -10 -47l-99 -295h-175z" />
    <glyph glyph-name="x" unicode="x" horiz-adv-x="660" 
d="M7 0l217 258l-206 242h198l86 -107q20 -24 29 -49h2q8 21 29 49l86 107h189l-204 -239l221 -261h-201l-99 118q-22 27 -30 49h-2q-9 -19 -32 -49l-99 -118h-184z" />
    <glyph glyph-name="y" unicode="y" horiz-adv-x="635" 
d="M126 -205q-46 0 -85 7v127q35 -6 68 -6q95 0 125 63l4 15l-238 499h189l120 -306q10 -24 16 -56h3q3 20 15 55l115 307h177l-226 -523q-42 -97 -108.5 -139.5t-174.5 -42.5z" />
    <glyph glyph-name="z" unicode="z" horiz-adv-x="592" 
d="M32 104l309 282h-295v114h505v-101l-305 -283h320v-116h-534v104z" />
    <glyph glyph-name="braceleft" unicode="{" horiz-adv-x="400" 
d="M300 -117q-97 0 -142.5 37t-45.5 119v143q0 50 -17 71.5t-71 22.5v106q55 1 71 20.5t16 69.5v133q0 76 49 116.5t140 40.5h83v-116h-38q-41 0 -59.5 -18.5t-18.5 -58.5v-94q0 -61 -21.5 -96.5t-77.5 -48.5q56 -15 77.5 -53t21.5 -99v-109q0 -38 18 -54t56 -16h44v-116
h-85z" />
    <glyph glyph-name="bar" unicode="|" horiz-adv-x="262" 
d="M79 -117v877h104v-877h-104z" />
    <glyph glyph-name="braceright" unicode="}" horiz-adv-x="400" 
d="M100 -117h-85v116h44q38 0 56 16t18 54v109q0 61 21.5 99t77.5 53q-56 13 -77.5 48.5t-21.5 96.5v94q0 40 -18.5 58.5t-59.5 18.5h-38v116h83q91 0 140 -40.5t49 -116.5v-133q0 -50 16 -69.5t71 -20.5v-106q-54 -1 -71 -22.5t-17 -71.5v-143q0 -82 -45.5 -119t-142.5 -37
z" />
    <glyph glyph-name="asciitilde" unicode="~" 
d="M455 207q-43 0 -81 19t-68.5 38t-57.5 19q-63 0 -79 -70l-98 24q14 70 59.5 108t110.5 38q44 0 82.5 -19t69.5 -38t57 -19q61 0 78 71l97 -22q-14 -73 -60 -111t-110 -38z" />
    <glyph glyph-name="uni00A0" unicode="&#xa0;" horiz-adv-x="312" 
 />
    <glyph glyph-name="exclamdown" unicode="&#xa1;" horiz-adv-x="362" 
d="M276 426h-191v154h191v-154zM110 345h141l27 -490h-194z" />
    <glyph glyph-name="cent" unicode="&#xa2;" horiz-adv-x="663" 
d="M374 97q94 13 116 102l148 -28q-17 -80 -87.5 -129t-176.5 -56v-89h-64v89q-131 8 -207 78.5t-76 185.5q0 116 75 186t208 78v79h64v-79q109 -6 178 -54.5t87 -131.5l-150 -23q-21 89 -115 102v-310zM179 250q0 -65 34 -105.5t97 -47.5v310q-62 -7 -96.5 -48.5
t-34.5 -108.5z" />
    <glyph glyph-name="sterling" unicode="&#xa3;" horiz-adv-x="740" 
d="M574 202l159 -22q-14 -92 -74 -144.5t-151 -52.5q-50 0 -132 14t-145 14q-87 0 -190 -19l-32 92q143 40 143 166q0 36 -6 66h-105v81h87q-11 50 -11 86q0 108 75 169t207 61q250 0 290 -185l-163 -33q-9 47 -41 72t-82 25q-120 0 -120 -108q0 -38 11 -87h210v-81h-192
q3 -21 3 -46q0 -107 -100 -148q41 9 84 9q33 0 88 -8t89 -8q40 0 66 23t32 64z" />
    <glyph glyph-name="currency" unicode="&#xa4;" horiz-adv-x="624" 
d="M583 303q0 -82 -47 -143l59 -58l-72 -68l-66 63q-63 -30 -141 -30q-84 0 -149 34l-68 -66l-72 68l64 63q-43 57 -43 137q0 78 43 137l-64 64l72 68l70 -66q64 33 147 33q78 0 141 -30l68 64l72 -68l-61 -60q47 -60 47 -142zM316 180q62 0 99.5 33.5t37.5 89.5
q0 55 -37.5 88.5t-99.5 33.5t-100.5 -33.5t-38.5 -88.5q0 -56 38.5 -89.5t100.5 -33.5z" />
    <glyph glyph-name="yen" unicode="&#xa5;" horiz-adv-x="739" 
d="M744 695l-274 -386h203v-70h-218v-57h218v-70h-218v-112h-172v112h-215v70h215v57h-215v70h200l-273 386h194l125 -187q36 -59 55 -101h3q19 42 55 101l127 187h190z" />
    <glyph glyph-name="brokenbar" unicode="&#xa6;" horiz-adv-x="262" 
d="M183 760v-375h-104v375h104zM183 264v-381h-104v381h104z" />
    <glyph glyph-name="section" unicode="&#xa7;" horiz-adv-x="590" 
d="M499 192q52 -39 52 -116q0 -87 -72.5 -134t-201.5 -47q-200 0 -277 115l92 78q61 -82 196 -82q104 0 104 55q0 23 -16 35.5t-58 22.5l-144 32q-85 19 -123.5 55.5t-38.5 97.5q0 83 83 120q-62 40 -62 118q0 82 69.5 127.5t190.5 45.5q174 0 256 -94l-89 -81
q-64 67 -173 67q-96 0 -96 -51q0 -22 14.5 -33.5t53.5 -20.5l145 -29q84 -17 122 -54.5t38 -101.5q0 -80 -65 -125zM250 264l144 -29q1 0 3 -0.5t3 -0.5q23 17 23 48q0 27 -19 42t-69 28l-141 33q-37 -18 -37 -53q0 -26 20 -40.5t73 -27.5z" />
    <glyph glyph-name="dieresis" unicode="&#xa8;" horiz-adv-x="600" 
d="M48 575v137h155v-137h-155zM314 575v137h156v-137h-156z" />
    <glyph glyph-name="copyright" unicode="&#xa9;" horiz-adv-x="854" 
d="M427 -20q-175 0 -288.5 102t-113.5 273t113 273t289 102t289 -101.5t113 -273.5q0 -171 -113 -273t-289 -102zM427 40q144 0 238.5 86t94.5 229q0 144 -94.5 229.5t-238.5 85.5t-238.5 -85.5t-94.5 -229.5q0 -143 94.5 -229t238.5 -86zM436 141q-106 0 -166 58t-60 157
q0 98 60 155.5t166 57.5q90 0 145.5 -39t65.5 -107l-118 -19q-5 35 -30 55.5t-65 20.5q-49 0 -78.5 -34t-29.5 -90q0 -57 29.5 -91t79.5 -34q38 0 63.5 20.5t31.5 54.5l118 -21q-15 -67 -70.5 -105.5t-141.5 -38.5z" />
    <glyph glyph-name="ordfeminine" unicode="&#xaa;" horiz-adv-x="536" 
d="M185 299q-71 0 -112 29.5t-41 81.5q0 56 41.5 81t120.5 33l140 14v13q0 53 -67 53t-75 -51h-149q8 63 67.5 98t156.5 35q111 0 162.5 -38.5t51.5 -119.5v-120q0 -63 8 -98h-143q-4 24 -6 60q-16 -33 -57.5 -52t-97.5 -19zM243 378q42 0 68.5 19.5t26.5 50.5v33l-86 -8
q-41 -5 -59 -17t-18 -34q0 -20 18.5 -32t49.5 -12z" />
    <glyph glyph-name="guillemotleft" unicode="&#xab;" horiz-adv-x="655" 
d="M215 67l-195 209l199 206h154l-196 -205l194 -210h-156zM480 67l-195 209l199 206h154l-196 -205l194 -210h-156z" />
    <glyph glyph-name="logicalnot" unicode="&#xac;" 
d="M85 386h513v-264h-111v158h-402v106z" />
    <glyph glyph-name="registered" unicode="&#xae;" horiz-adv-x="854" 
d="M427 730q176 0 289 -101.5t113 -273.5q0 -171 -113 -273t-289 -102q-175 0 -288.5 102t-113.5 273t113 273t289 102zM427 40q144 0 238.5 86t94.5 229q0 144 -94.5 229.5t-238.5 85.5t-238.5 -85.5t-94.5 -229.5q0 -143 94.5 -229t238.5 -86zM637 432q0 -42 -24 -72.5
t-66 -43.5l98 -160h-125l-84 147h-71v-147h-113v406h229q75 0 115.5 -34t40.5 -96zM365 484v-107h89q66 0 66 54q0 53 -66 53h-89z" />
    <glyph glyph-name="macron" unicode="&#xaf;" horiz-adv-x="600" 
d="M52 592v98h408v-98h-408z" />
    <glyph glyph-name="degree" unicode="&#xb0;" horiz-adv-x="456" 
d="M228 313q-90 0 -149.5 56t-59.5 147q0 90 59.5 145.5t149.5 55.5t150 -55.5t60 -145.5q0 -91 -60 -147t-150 -56zM228 403q48 0 79 31t31 82q0 50 -31 80.5t-79 30.5t-78.5 -30.5t-30.5 -80.5q0 -51 30.5 -82t78.5 -31z" />
    <glyph glyph-name="plusminus" unicode="&#xb1;" 
d="M407 396h207v-109h-207v-147h-119v147h-206v109h206v153h119v-153zM82 0v107h532v-107h-532z" />
    <glyph glyph-name="acute" unicode="&#xb4;" horiz-adv-x="600" 
d="M48 569l133 157h167l-163 -157h-137z" />
    <glyph glyph-name="uni00B5" unicode="&#xb5;" horiz-adv-x="728" 
d="M483 500h171v-500h-165v103q-25 -56 -79 -87t-124 -31q-28 0 -58 5v-185h-154v695h171v-267q0 -122 108 -122q62 0 96 37.5t34 94.5v257z" />
    <glyph glyph-name="paragraph" unicode="&#xb6;" horiz-adv-x="793" 
d="M322 340q-264 0 -264 189q0 98 73 144.5t201 46.5h385v-80h-94v-739h-90v739h-121v-739h-90v439z" />
    <glyph glyph-name="periodcentered" unicode="&#xb7;" horiz-adv-x="309" 
d="M247 418v-163h-185v163h185z" />
    <glyph glyph-name="cedilla" unicode="&#xb8;" horiz-adv-x="600" 
d="M130 6h81l-38 -56q24 15 63 15q50 0 78.5 -22.5t28.5 -65.5q0 -46 -39.5 -70.5t-108.5 -24.5q-105 0 -139 61l87 25q16 -25 50 -25q21 0 33.5 10t12.5 27q0 16 -12 25.5t-32 9.5q-27 0 -42 -16l-72 16z" />
    <glyph glyph-name="ordmasculine" unicode="&#xba;" horiz-adv-x="532" 
d="M266 299q-107 0 -173 51t-66 143t66 142.5t173 50.5t172.5 -50.5t65.5 -142.5t-66 -143t-172 -51zM266 392q42 0 66.5 26t24.5 75t-24.5 74.5t-66.5 25.5q-43 0 -67.5 -25.5t-24.5 -74.5t24.5 -75t67.5 -26z" />
    <glyph glyph-name="guillemotright" unicode="&#xbb;" horiz-adv-x="655" 
d="M175 67h-156l194 210l-196 205h154l199 -206zM440 67h-156l194 210l-196 205h154l199 -206z" />
    <glyph glyph-name="onequarter" unicode="&#xbc;" horiz-adv-x="925" 
d="M106 -17l504 744h126l-504 -744h-126zM128 318v255q-24 -18 -80 -18h-24v92h15q80 0 106 63h88v-392h-105zM913 83h-75v-83h-103v83h-236v69l219 240h120v-234h75v-75zM735 306l-133 -148h133v148z" />
    <glyph glyph-name="onehalf" unicode="&#xbd;" horiz-adv-x="971" 
d="M106 -17l504 744h126l-504 -744h-126zM128 318v255q-24 -18 -80 -18h-24v92h15q80 0 106 63h88v-392h-105zM564 0v77q51 22 80 36t66.5 34.5t57.5 37t34 38t14 43.5q0 55 -70 55q-32 0 -52 -15.5t-20 -43.5q0 -8 4 -26l-109 10q-3 15 -3 26q0 60 51 95.5t132 35.5
q84 0 132.5 -33.5t48.5 -96.5q0 -67 -55.5 -111.5t-141.5 -76.5h202v-85h-371z" />
    <glyph glyph-name="threequarters" unicode="&#xbe;" horiz-adv-x="1059" 
d="M240 -17l504 744h126l-504 -744h-126zM217 307q-87 0 -138.5 35.5t-53.5 97.5l107 10q4 -63 86 -63q78 0 78 48q0 24 -19 34t-65 10h-36v74h37q73 0 73 45q0 44 -72 44q-77 0 -80 -68l-104 14q2 62 52 97.5t137 35.5q82 0 129 -29t47 -82q0 -35 -24 -58t-65 -30
q101 -16 101 -92q0 -57 -52 -90t-138 -33zM1047 83h-75v-83h-103v83h-236v69l219 240h120v-234h75v-75zM869 306l-133 -148h133v148z" />
    <glyph glyph-name="questiondown" unicode="&#xbf;" horiz-adv-x="643" 
d="M427 580v-154h-188v154h188zM417 371v-42q0 -80 -80 -125l-68 -37q-37 -21 -54.5 -45t-17.5 -60q0 -42 32.5 -69t90.5 -27q63 0 100 29.5t37 84.5q0 30 -6 49l170 -14q6 -24 6 -54q0 -99 -82.5 -158.5t-224.5 -59.5q-139 0 -219 54.5t-80 149.5q0 111 115 181l63 36
q29 18 40.5 35.5t11.5 44.5v27h166z" />
    <glyph glyph-name="Agrave" unicode="&#xc0;" horiz-adv-x="841" 
d="M482 756h-138l-143 118h160zM642 0l-59 155h-325l-60 -155h-186l302 710h213l301 -710h-186zM305 277h231l-68 178q-36 83 -47 132h-2q-10 -49 -46 -132z" />
    <glyph glyph-name="Aacute" unicode="&#xc1;" horiz-adv-x="841" 
d="M632 874l-143 -118h-138l121 118h160zM642 0l-59 155h-325l-60 -155h-186l302 710h213l301 -710h-186zM305 277h231l-68 178q-36 83 -47 132h-2q-10 -49 -46 -132z" />
    <glyph glyph-name="Acircumflex" unicode="&#xc2;" horiz-adv-x="841" 
d="M420 827l-77 -71h-139l127 118h179l127 -118h-139zM642 0l-59 155h-325l-60 -155h-186l302 710h213l301 -710h-186zM305 277h231l-68 178q-36 83 -47 132h-2q-10 -49 -46 -132z" />
    <glyph glyph-name="Atilde" unicode="&#xc3;" horiz-adv-x="841" 
d="M338 805q-41 0 -57 -55l-85 32q26 115 140 115q46 0 95 -29t72 -29q42 0 56 54l85 -31q-26 -115 -139 -115q-36 0 -66.5 14.5t-55 29t-45.5 14.5zM642 0l-59 155h-325l-60 -155h-186l302 710h213l301 -710h-186zM305 277h231l-68 178q-36 83 -47 132h-2q-10 -49 -46 -132
z" />
    <glyph glyph-name="Adieresis" unicode="&#xc4;" horiz-adv-x="841" 
d="M361 873v-117h-151v117h151zM629 873v-117h-151v117h151zM642 0l-59 155h-325l-60 -155h-186l302 710h213l301 -710h-186zM305 277h231l-68 178q-36 83 -47 132h-2q-10 -49 -46 -132z" />
    <glyph glyph-name="Aring" unicode="&#xc5;" horiz-adv-x="841" 
d="M420 744q-60 0 -97 32.5t-37 84.5q0 53 37 85.5t97 32.5t97 -32.5t37 -85.5q0 -52 -37 -84.5t-97 -32.5zM420 915q-25 0 -40 -15t-15 -39q0 -23 15 -38t40 -15q24 0 39 15t15 38q0 24 -15 39t-39 15zM642 0l-59 155h-325l-60 -155h-186l302 710h213l301 -710h-186z
M305 277h231l-68 178q-36 83 -47 132h-2q-10 -49 -46 -132z" />
    <glyph glyph-name="AE" unicode="&#xc6;" horiz-adv-x="1210" 
d="M745 131h410v-131h-589v150h-287l-97 -150h-190l494 710h662v-130h-403v-155h386v-126h-386v-168zM358 272h208v322z" />
    <glyph glyph-name="Ccedilla" unicode="&#xc7;" horiz-adv-x="822" 
d="M798 229q-32 -111 -120 -176t-221 -72l-21 -31q24 15 63 15q50 0 78.5 -22.5t28.5 -65.5q0 -46 -39.5 -70.5t-108.5 -24.5q-105 0 -139 61l87 25q16 -25 50 -25q21 0 33.5 10t12.5 27q0 16 -12 25.5t-32 9.5q-27 0 -42 -16l-72 16l36 67q-167 12 -261 111t-94 260
q0 170 110 273.5t292 103.5q151 0 248.5 -69.5t120.5 -191.5l-184 -32q-14 73 -62.5 112.5t-126.5 39.5q-99 0 -155.5 -63t-56.5 -171q0 -106 58 -169.5t158 -63.5q76 0 124 37.5t64 108.5z" />
    <glyph glyph-name="Egrave" unicode="&#xc8;" horiz-adv-x="726" 
d="M443 756h-138l-143 118h160zM261 131h410v-131h-589v710h582v-130h-403v-155h386v-126h-386v-168z" />
    <glyph glyph-name="Eacute" unicode="&#xc9;" horiz-adv-x="726" 
d="M593 874l-143 -118h-138l121 118h160zM261 131h410v-131h-589v710h582v-130h-403v-155h386v-126h-386v-168z" />
    <glyph glyph-name="Ecircumflex" unicode="&#xca;" horiz-adv-x="726" 
d="M381 827l-77 -71h-139l127 118h179l127 -118h-139zM261 131h410v-131h-589v710h582v-130h-403v-155h386v-126h-386v-168z" />
    <glyph glyph-name="Edieresis" unicode="&#xcb;" horiz-adv-x="726" 
d="M322 873v-117h-151v117h151zM590 873v-117h-151v117h151zM261 131h410v-131h-589v710h582v-130h-403v-155h386v-126h-386v-168z" />
    <glyph glyph-name="Igrave" unicode="&#xcc;" horiz-adv-x="343" 
d="M239 756h-136l-107 118h153zM261 0h-179v710h179v-710z" />
    <glyph glyph-name="Iacute" unicode="&#xcd;" horiz-adv-x="343" 
d="M104 756l90 118h153l-107 -118h-136zM261 0h-179v710h179v-710z" />
    <glyph glyph-name="Icircumflex" unicode="&#xce;" horiz-adv-x="343" 
d="M333 756h-117l-43 74l-43 -74h-118l76 118h169zM261 0h-179v710h179v-710z" />
    <glyph glyph-name="Idieresis" unicode="&#xcf;" horiz-adv-x="343" 
d="M15 756v117h136v-117h-136zM194 756v117h135v-117h-135zM261 0h-179v710h179v-710z" />
    <glyph glyph-name="Eth" unicode="&#xd0;" horiz-adv-x="844" 
d="M435 710q176 0 280 -93.5t104 -253.5q0 -163 -106.5 -263t-280.5 -100h-350v317h-78v101h78v292h353zM419 129q100 0 156.5 64.5t56.5 168.5q0 101 -56.5 160t-156.5 59h-158v-163h190v-101h-190v-188h158z" />
    <glyph glyph-name="Ntilde" unicode="&#xd1;" horiz-adv-x="869" 
d="M521 747q-36 0 -66.5 14.5t-55 29t-45.5 14.5q-41 0 -57 -55l-85 32q26 115 140 115q46 0 95 -29t72 -29q42 0 56 54l85 -31q-26 -115 -139 -115zM82 0v710h196l295 -407q31 -45 48 -86h2v94v399h164v-710h-186l-306 412q-37 58 -47 83h-3q1 -30 1 -95v-400h-164z" />
    <glyph glyph-name="Ograve" unicode="&#xd2;" horiz-adv-x="858" 
d="M491 756h-138l-143 118h160zM429 -20q-184 0 -294 102t-110 273t110 273t294 102t294 -102t110 -273t-110 -273t-294 -102zM429 118q100 0 158.5 64t58.5 173t-58.5 173t-158.5 64t-158.5 -64t-58.5 -173t58.5 -173t158.5 -64z" />
    <glyph glyph-name="Oacute" unicode="&#xd3;" horiz-adv-x="858" 
d="M360 756l121 118h160l-143 -118h-138zM429 -20q-184 0 -294 102t-110 273t110 273t294 102t294 -102t110 -273t-110 -273t-294 -102zM429 118q100 0 158.5 64t58.5 173t-58.5 173t-158.5 64t-158.5 -64t-58.5 -173t58.5 -173t158.5 -64z" />
    <glyph glyph-name="Ocircumflex" unicode="&#xd4;" horiz-adv-x="858" 
d="M646 756h-139l-78 71l-77 -71h-139l127 118h179zM429 -20q-184 0 -294 102t-110 273t110 273t294 102t294 -102t110 -273t-110 -273t-294 -102zM429 118q100 0 158.5 64t58.5 173t-58.5 173t-158.5 64t-158.5 -64t-58.5 -173t58.5 -173t158.5 -64z" />
    <glyph glyph-name="Otilde" unicode="&#xd5;" horiz-adv-x="858" 
d="M514 747q-47 0 -95.5 29t-71.5 29q-41 0 -57 -55l-85 32q26 115 140 115q46 0 95 -29t72 -29q42 0 56 54l85 -31q-26 -115 -139 -115zM429 -20q-184 0 -294 102t-110 273t110 273t294 102t294 -102t110 -273t-110 -273t-294 -102zM429 118q100 0 158.5 64t58.5 173
t-58.5 173t-158.5 64t-158.5 -64t-58.5 -173t58.5 -173t158.5 -64z" />
    <glyph glyph-name="Odieresis" unicode="&#xd6;" horiz-adv-x="858" 
d="M219 756v117h151v-117h-151zM487 756v117h151v-117h-151zM429 -20q-184 0 -294 102t-110 273t110 273t294 102t294 -102t110 -273t-110 -273t-294 -102zM429 118q100 0 158.5 64t58.5 173t-58.5 173t-158.5 64t-158.5 -64t-58.5 -173t58.5 -173t158.5 -64z" />
    <glyph glyph-name="multiply" unicode="&#xd7;" 
d="M622 504l-190 -177l189 -177l-81 -81l-192 180l-192 -179l-81 79l190 177l-190 178l82 79l191 -178l191 178z" />
    <glyph glyph-name="Oslash" unicode="&#xd8;" horiz-adv-x="858" 
d="M730 622q103 -101 103 -267q0 -171 -110 -273t-294 -102q-143 0 -243 63l-63 -67l-57 45l63 67q-104 101 -104 267q0 171 110 273t294 102q144 0 244 -63l63 67l57 -45zM212 355q0 -83 35 -141l316 336q-54 42 -134 42q-100 0 -158.5 -64t-58.5 -173zM429 118
q100 0 158.5 64t58.5 173q0 83 -35 141l-316 -337q57 -41 134 -41z" />
    <glyph glyph-name="Ugrave" unicode="&#xd9;" horiz-adv-x="826" 
d="M475 756h-138l-143 118h160zM63 710h180v-420q0 -76 45 -121.5t125 -45.5t125 45.5t45 121.5v420h180v-432q0 -137 -92.5 -217.5t-257.5 -80.5q-164 0 -257 81t-93 218v431z" />
    <glyph glyph-name="Uacute" unicode="&#xda;" horiz-adv-x="826" 
d="M344 756l121 118h160l-143 -118h-138zM63 710h180v-420q0 -76 45 -121.5t125 -45.5t125 45.5t45 121.5v420h180v-432q0 -137 -92.5 -217.5t-257.5 -80.5q-164 0 -257 81t-93 218v431z" />
    <glyph glyph-name="Ucircumflex" unicode="&#xdb;" horiz-adv-x="826" 
d="M630 756h-139l-78 71l-77 -71h-139l127 118h179zM63 710h180v-420q0 -76 45 -121.5t125 -45.5t125 45.5t45 121.5v420h180v-432q0 -137 -92.5 -217.5t-257.5 -80.5q-164 0 -257 81t-93 218v431z" />
    <glyph glyph-name="Udieresis" unicode="&#xdc;" horiz-adv-x="826" 
d="M203 756v117h151v-117h-151zM471 756v117h151v-117h-151zM63 710h180v-420q0 -76 45 -121.5t125 -45.5t125 45.5t45 121.5v420h180v-432q0 -137 -92.5 -217.5t-257.5 -80.5q-164 0 -257 81t-93 218v431z" />
    <glyph glyph-name="Yacute" unicode="&#xdd;" horiz-adv-x="745" 
d="M305 756l121 118h160l-143 -118h-138zM282 0v249l-287 461h197l161 -275q15 -27 19 -47h2q4 20 19 47l165 275h192l-288 -461v-249h-180z" />
    <glyph glyph-name="Thorn" unicode="&#xde;" horiz-adv-x="716" 
d="M436 600q122 0 193.5 -61t71.5 -167q0 -109 -71.5 -170.5t-196.5 -61.5h-172v-140h-179v710h179v-110h175zM391 264q58 0 89.5 27t31.5 77q0 51 -31 78t-90 27h-130v-209h130z" />
    <glyph glyph-name="germandbls" unicode="&#xdf;" horiz-adv-x="745" 
d="M75 479q0 258 306 258q136 0 211.5 -48.5t75.5 -138.5q0 -64 -42.5 -106.5t-116.5 -52.5q98 -8 150 -55.5t52 -127.5q0 -106 -76.5 -163t-217.5 -57q-45 0 -101 9v116q34 -7 73 -7q148 0 148 112q0 106 -162 108h-59v110h55q122 2 122 98q0 43 -30.5 66.5t-86.5 23.5
q-66 0 -98 -31.5t-32 -98.5v-494h-171v479z" />
    <glyph glyph-name="agrave" unicode="&#xe0;" horiz-adv-x="683" 
d="M414 569h-137l-163 157h167zM238 -15q-95 0 -150 41t-55 111t54 109q52 36 174 48l186 17v15q0 83 -106 83t-117 -77h-175q10 85 88 134t205 49q142 0 209.5 -52.5t67.5 -161.5v-155q0 -94 12 -146h-169q-7 42 -7 85q-25 -48 -81.5 -74t-135.5 -26zM303 89q66 0 107 30
t41 79v32l-138 -14q-57 -7 -81 -23t-24 -45q0 -28 25.5 -43.5t69.5 -15.5z" />
    <glyph glyph-name="aacute" unicode="&#xe1;" horiz-adv-x="683" 
d="M275 569l133 157h167l-163 -157h-137zM238 -15q-95 0 -150 41t-55 111t54 109q52 36 174 48l186 17v15q0 83 -106 83t-117 -77h-175q10 85 88 134t205 49q142 0 209.5 -52.5t67.5 -161.5v-155q0 -94 12 -146h-169q-7 42 -7 85q-25 -48 -81.5 -74t-135.5 -26zM303 89
q66 0 107 30t41 79v32l-138 -14q-57 -7 -81 -23t-24 -45q0 -28 25.5 -43.5t69.5 -15.5z" />
    <glyph glyph-name="acircumflex" unicode="&#xe2;" horiz-adv-x="683" 
d="M560 569h-130l-85 105l-84 -105h-131l128 157h174zM238 -15q-95 0 -150 41t-55 111t54 109q52 36 174 48l186 17v15q0 83 -106 83t-117 -77h-175q10 85 88 134t205 49q142 0 209.5 -52.5t67.5 -161.5v-155q0 -94 12 -146h-169q-7 42 -7 85q-25 -48 -81.5 -74t-135.5 -26z
M303 89q66 0 107 30t41 79v32l-138 -14q-57 -7 -81 -23t-24 -45q0 -28 25.5 -43.5t69.5 -15.5z" />
    <glyph glyph-name="atilde" unicode="&#xe3;" horiz-adv-x="683" 
d="M437 574q-38 0 -69.5 16t-57.5 32t-48 16q-44 0 -59 -59l-86 31q11 60 47 93t93 33q38 0 69.5 -16t57.5 -32.5t48 -16.5q44 0 59 60l86 -31q-11 -60 -47 -93t-93 -33zM238 -15q-95 0 -150 41t-55 111t54 109q52 36 174 48l186 17v15q0 83 -106 83t-117 -77h-175
q10 85 88 134t205 49q142 0 209.5 -52.5t67.5 -161.5v-155q0 -94 12 -146h-169q-7 42 -7 85q-25 -48 -81.5 -74t-135.5 -26zM303 89q66 0 107 30t41 79v32l-138 -14q-57 -7 -81 -23t-24 -45q0 -28 25.5 -43.5t69.5 -15.5z" />
    <glyph glyph-name="adieresis" unicode="&#xe4;" horiz-adv-x="683" 
d="M134 575v137h155v-137h-155zM400 575v137h156v-137h-156zM238 -15q-95 0 -150 41t-55 111t54 109q52 36 174 48l186 17v15q0 83 -106 83t-117 -77h-175q10 85 88 134t205 49q142 0 209.5 -52.5t67.5 -161.5v-155q0 -94 12 -146h-169q-7 42 -7 85q-25 -48 -81.5 -74
t-135.5 -26zM303 89q66 0 107 30t41 79v32l-138 -14q-57 -7 -81 -23t-24 -45q0 -28 25.5 -43.5t69.5 -15.5z" />
    <glyph glyph-name="aring" unicode="&#xe5;" horiz-adv-x="683" 
d="M345 551q-69 0 -109.5 32t-40.5 86t40.5 86.5t109.5 32.5t110 -32.5t41 -86.5t-41 -86t-110 -32zM345 615q32 0 50 15t18 39q0 25 -18 40t-50 15t-50 -15t-18 -40q0 -24 18 -39t50 -15zM238 -15q-95 0 -150 41t-55 111t54 109q52 36 174 48l186 17v15q0 83 -106 83
t-117 -77h-175q10 85 88 134t205 49q142 0 209.5 -52.5t67.5 -161.5v-155q0 -94 12 -146h-169q-7 42 -7 85q-25 -48 -81.5 -74t-135.5 -26zM303 89q66 0 107 30t41 79v32l-138 -14q-57 -7 -81 -23t-24 -45q0 -28 25.5 -43.5t69.5 -15.5z" />
    <glyph glyph-name="ae" unicode="&#xe6;" horiz-adv-x="1048" 
d="M1016 251v-37h-412q4 -52 41 -82t99 -30q91 0 134 73l128 -58q-38 -63 -107 -97.5t-159 -34.5q-168 0 -245 102q-73 -102 -245 -102q-102 0 -159.5 40.5t-57.5 112.5q0 133 213 151l190 15v16q0 88 -103 88q-105 0 -113 -77h-173q9 85 85.5 134.5t199.5 49.5
q136 0 199 -65q76 65 201 65q135 0 209.5 -69.5t74.5 -194.5zM604 307h244q-1 51 -33.5 80.5t-85.5 29.5q-57 0 -90 -28.5t-35 -81.5zM440 196v29l-134 -10q-98 -10 -98 -68q0 -27 24.5 -42.5t67.5 -15.5q61 0 100.5 28.5t39.5 78.5z" />
    <glyph glyph-name="ccedilla" unicode="&#xe7;" horiz-adv-x="660" 
d="M339 108q105 0 128 93l168 -32q-17 -79 -88 -127.5t-177 -55.5l-24 -36q24 15 63 15q50 0 78.5 -22.5t28.5 -65.5q0 -46 -39.5 -70.5t-108.5 -24.5q-105 0 -139 61l87 25q16 -25 50 -25q21 0 33.5 10t12.5 27q0 16 -12 25.5t-32 9.5q-27 0 -42 -16l-72 16l39 72
q-123 12 -194.5 82.5t-71.5 181.5q0 123 85 193.5t231 70.5q121 0 197 -48t95 -136l-169 -29q-21 92 -128 92q-64 0 -100 -37t-36 -103q0 -69 36.5 -107.5t100.5 -38.5z" />
    <glyph glyph-name="egrave" unicode="&#xe8;" horiz-adv-x="661" 
d="M399 569h-137l-163 157h167zM629 252v-40h-438q4 -52 44.5 -81t108.5 -29q101 0 147 73l128 -58q-39 -63 -111 -97.5t-168 -34.5q-147 0 -230 69t-83 192q0 125 82 197t221 72q142 0 220.5 -69.5t78.5 -193.5zM461 305v2q0 51 -36 80.5t-97 29.5t-97.5 -29.5t-40.5 -82.5
h271z" />
    <glyph glyph-name="eacute" unicode="&#xe9;" horiz-adv-x="661" 
d="M560 726l-163 -157h-137l133 157h167zM629 252v-40h-438q4 -52 44.5 -81t108.5 -29q101 0 147 73l128 -58q-39 -63 -111 -97.5t-168 -34.5q-147 0 -230 69t-83 192q0 125 82 197t221 72q142 0 220.5 -69.5t78.5 -193.5zM461 305v2q0 51 -36 80.5t-97 29.5t-97.5 -29.5
t-40.5 -82.5h271z" />
    <glyph glyph-name="ecircumflex" unicode="&#xea;" horiz-adv-x="661" 
d="M330 674l-84 -105h-131l128 157h174l128 -157h-130zM629 252v-40h-438q4 -52 44.5 -81t108.5 -29q101 0 147 73l128 -58q-39 -63 -111 -97.5t-168 -34.5q-147 0 -230 69t-83 192q0 125 82 197t221 72q142 0 220.5 -69.5t78.5 -193.5zM461 305v2q0 51 -36 80.5t-97 29.5
t-97.5 -29.5t-40.5 -82.5h271z" />
    <glyph glyph-name="edieresis" unicode="&#xeb;" horiz-adv-x="661" 
d="M274 712v-137h-155v137h155zM541 712v-137h-156v137h156zM629 252v-40h-438q4 -52 44.5 -81t108.5 -29q101 0 147 73l128 -58q-39 -63 -111 -97.5t-168 -34.5q-147 0 -230 69t-83 192q0 125 82 197t221 72q142 0 220.5 -69.5t78.5 -193.5zM461 305v2q0 51 -36 80.5
t-97 29.5t-97.5 -29.5t-40.5 -82.5h271z" />
    <glyph glyph-name="igrave" unicode="&#xec;" horiz-adv-x="319" 
d="M225 569h-135l-112 157h154zM74 0v500h171v-500h-171z" />
    <glyph glyph-name="iacute" unicode="&#xed;" horiz-adv-x="319" 
d="M92 569l93 157h154l-112 -157h-135zM74 0v500h171v-500h-171z" />
    <glyph glyph-name="icircumflex" unicode="&#xee;" horiz-adv-x="319" 
d="M317 569h-112l-45 107l-44 -107h-113l77 157h160zM74 0v500h171v-500h-171z" />
    <glyph glyph-name="idieresis" unicode="&#xef;" horiz-adv-x="319" 
d="M-1 575v137h138v-137h-138zM184 575v137h138v-137h-138zM74 0v500h171v-500h-171z" />
    <glyph glyph-name="eth" unicode="&#xf0;" 
d="M536 628q124 -136 124 -338q0 -142 -86.5 -223.5t-238.5 -81.5q-150 0 -228 68.5t-78 191.5q0 119 71 190t192 71q125 0 185 -93h2q-20 91 -104 168l-124 -37l-17 46l96 28q-39 28 -84 54l149 67q57 -32 101 -72l91 27l17 -46zM343 102q69 0 107 38.5t38 107.5
q0 67 -38.5 106.5t-104.5 39.5q-69 0 -105 -38t-36 -108q0 -67 36.5 -106.5t102.5 -39.5z" />
    <glyph glyph-name="ntilde" unicode="&#xf1;" horiz-adv-x="724" 
d="M487 574q-38 0 -69.5 16t-57.5 32t-48 16q-44 0 -59 -59l-86 31q11 60 47 93t93 33q38 0 69.5 -16t57.5 -32.5t48 -16.5q44 0 59 60l86 -31q-11 -60 -47 -93t-93 -33zM74 0v500h166v-105q60 120 209 120q105 0 159 -59.5t54 -175.5v-280h-171v254q0 134 -115 134
q-62 0 -96.5 -37.5t-34.5 -104.5v-246h-171z" />
    <glyph glyph-name="ograve" unicode="&#xf2;" horiz-adv-x="679" 
d="M408 569h-137l-163 157h167zM339 -15q-139 0 -225.5 71t-86.5 195t86 194t226 70t226.5 -70t86.5 -194t-86.5 -195t-226.5 -71zM339 100q65 0 102 39.5t37 111.5t-37 110.5t-102 38.5t-102 -38.5t-37 -110.5t37 -111.5t102 -39.5z" />
    <glyph glyph-name="oacute" unicode="&#xf3;" horiz-adv-x="679" 
d="M269 569l133 157h167l-163 -157h-137zM339 -15q-139 0 -225.5 71t-86.5 195t86 194t226 70t226.5 -70t86.5 -194t-86.5 -195t-226.5 -71zM339 100q65 0 102 39.5t37 111.5t-37 110.5t-102 38.5t-102 -38.5t-37 -110.5t37 -111.5t102 -39.5z" />
    <glyph glyph-name="ocircumflex" unicode="&#xf4;" horiz-adv-x="679" 
d="M554 569h-130l-85 105l-84 -105h-131l128 157h174zM339 -15q-139 0 -225.5 71t-86.5 195t86 194t226 70t226.5 -70t86.5 -194t-86.5 -195t-226.5 -71zM339 100q65 0 102 39.5t37 111.5t-37 110.5t-102 38.5t-102 -38.5t-37 -110.5t37 -111.5t102 -39.5z" />
    <glyph glyph-name="otilde" unicode="&#xf5;" horiz-adv-x="679" 
d="M431 574q-38 0 -69.5 16t-57.5 32t-48 16q-44 0 -59 -59l-86 31q11 60 47 93t93 33q38 0 69.5 -16t57.5 -32.5t48 -16.5q44 0 59 60l86 -31q-11 -60 -47 -93t-93 -33zM339 -15q-139 0 -225.5 71t-86.5 195t86 194t226 70t226.5 -70t86.5 -194t-86.5 -195t-226.5 -71z
M339 100q65 0 102 39.5t37 111.5t-37 110.5t-102 38.5t-102 -38.5t-37 -110.5t37 -111.5t102 -39.5z" />
    <glyph glyph-name="odieresis" unicode="&#xf6;" horiz-adv-x="679" 
d="M128 575v137h155v-137h-155zM394 575v137h156v-137h-156zM339 -15q-139 0 -225.5 71t-86.5 195t86 194t226 70t226.5 -70t86.5 -194t-86.5 -195t-226.5 -71zM339 100q65 0 102 39.5t37 111.5t-37 110.5t-102 38.5t-102 -38.5t-37 -110.5t37 -111.5t102 -39.5z" />
    <glyph glyph-name="divide" unicode="&#xf7;" horiz-adv-x="620" 
d="M308 438q-31 0 -51 20t-20 51q0 32 20 52t51 20t51.5 -20t20.5 -52q0 -31 -20.5 -51t-51.5 -20zM45 273v109h530v-109h-530zM308 71q-31 0 -51 20t-20 52t20 51.5t51 19.5t51.5 -19.5t20.5 -51.5q0 -31 -20.5 -51.5t-51.5 -20.5z" />
    <glyph glyph-name="oslash" unicode="&#xf8;" horiz-adv-x="679" 
d="M574 437q78 -70 78 -186q0 -124 -86.5 -195t-226.5 -71q-110 0 -190 46l-56 -54l-41 34l54 52q-79 71 -79 188q0 124 86 194t226 70q110 0 191 -45l55 53l41 -36zM200 251q0 -48 17 -82l212 204q-35 27 -90 27q-65 0 -102 -38.5t-37 -110.5zM339 100q65 0 102 39.5
t37 111.5q0 48 -16 79l-212 -203q34 -27 89 -27z" />
    <glyph glyph-name="ugrave" unicode="&#xf9;" horiz-adv-x="716" 
d="M419 569h-137l-163 157h167zM274 -15q-105 0 -158.5 55t-53.5 159v301h171v-267q0 -122 108 -122q62 0 96 37.5t34 94.5v257h171v-500h-165v103q-25 -56 -79 -87t-124 -31z" />
    <glyph glyph-name="uacute" unicode="&#xfa;" horiz-adv-x="716" 
d="M280 569l133 157h167l-163 -157h-137zM274 -15q-105 0 -158.5 55t-53.5 159v301h171v-267q0 -122 108 -122q62 0 96 37.5t34 94.5v257h171v-500h-165v103q-25 -56 -79 -87t-124 -31z" />
    <glyph glyph-name="ucircumflex" unicode="&#xfb;" horiz-adv-x="716" 
d="M565 569h-130l-85 105l-84 -105h-131l128 157h174zM274 -15q-105 0 -158.5 55t-53.5 159v301h171v-267q0 -122 108 -122q62 0 96 37.5t34 94.5v257h171v-500h-165v103q-25 -56 -79 -87t-124 -31z" />
    <glyph glyph-name="udieresis" unicode="&#xfc;" horiz-adv-x="716" 
d="M139 575v137h155v-137h-155zM405 575v137h156v-137h-156zM274 -15q-105 0 -158.5 55t-53.5 159v301h171v-267q0 -122 108 -122q62 0 96 37.5t34 94.5v257h171v-500h-165v103q-25 -56 -79 -87t-124 -31z" />
    <glyph glyph-name="yacute" unicode="&#xfd;" horiz-adv-x="635" 
d="M252 569l133 157h167l-163 -157h-137zM126 -205q-46 0 -85 7v127q35 -6 68 -6q95 0 125 63l4 15l-238 499h189l120 -306q10 -24 16 -56h3q3 20 15 55l115 307h177l-226 -523q-42 -97 -108.5 -139.5t-174.5 -42.5z" />
    <glyph glyph-name="thorn" unicode="&#xfe;" horiz-adv-x="727" 
d="M79 -195v920h171v-300q64 90 201 90q111 0 179 -72.5t68 -190.5q0 -119 -70.5 -193t-184.5 -74q-131 0 -193 87v-267h-171zM385 100q63 0 99.5 41.5t36.5 110.5t-36 108.5t-100 39.5t-101.5 -37.5t-37.5 -101.5v-22q0 -63 38 -101t101 -38z" />
    <glyph glyph-name="ydieresis" unicode="&#xff;" horiz-adv-x="635" 
d="M111 575v137h155v-137h-155zM377 575v137h156v-137h-156zM126 -205q-46 0 -85 7v127q35 -6 68 -6q95 0 125 63l4 15l-238 499h189l120 -306q10 -24 16 -56h3q3 20 15 55l115 307h177l-226 -523q-42 -97 -108.5 -139.5t-174.5 -42.5z" />
    <glyph glyph-name="Amacron" unicode="&#x100;" horiz-adv-x="841" 
d="M627 857v-98h-414v98h414zM642 0l-59 155h-325l-60 -155h-186l302 710h213l301 -710h-186zM305 277h231l-68 178q-36 83 -47 132h-2q-10 -49 -46 -132z" />
    <glyph glyph-name="amacron" unicode="&#x101;" horiz-adv-x="683" 
d="M141 592v98h408v-98h-408zM238 -15q-95 0 -150 41t-55 111t54 109q52 36 174 48l186 17v15q0 83 -106 83t-117 -77h-175q10 85 88 134t205 49q142 0 209.5 -52.5t67.5 -161.5v-155q0 -94 12 -146h-169q-7 42 -7 85q-25 -48 -81.5 -74t-135.5 -26zM303 89q66 0 107 30
t41 79v32l-138 -14q-57 -7 -81 -23t-24 -45q0 -28 25.5 -43.5t69.5 -15.5z" />
    <glyph glyph-name="Abreve" unicode="&#x102;" horiz-adv-x="841" 
d="M420 751q-84 0 -134.5 32t-57.5 91h109q10 -47 83 -47q74 0 84 47h108q-7 -59 -57.5 -91t-134.5 -32zM642 0l-59 155h-325l-60 -155h-186l302 710h213l301 -710h-186zM305 277h231l-68 178q-36 83 -47 132h-2q-10 -49 -46 -132z" />
    <glyph glyph-name="abreve" unicode="&#x103;" horiz-adv-x="683" 
d="M262 726q6 -81 83 -81t83 81h111q-6 -82 -57 -122t-137 -40t-137 40t-56 122h110zM238 -15q-95 0 -150 41t-55 111t54 109q52 36 174 48l186 17v15q0 83 -106 83t-117 -77h-175q10 85 88 134t205 49q142 0 209.5 -52.5t67.5 -161.5v-155q0 -94 12 -146h-169q-7 42 -7 85
q-25 -48 -81.5 -74t-135.5 -26zM303 89q66 0 107 30t41 79v32l-138 -14q-57 -7 -81 -23t-24 -45q0 -28 25.5 -43.5t69.5 -15.5z" />
    <glyph glyph-name="Aogonek" unicode="&#x104;" horiz-adv-x="841" 
d="M685 -132q37 0 56 42l84 -29q-33 -85 -151 -85q-64 0 -100.5 25.5t-36.5 70.5q0 74 104 111l-58 152h-325l-60 -155h-186l302 710h213l301 -710h-56q-66 -11 -97.5 -36.5t-31.5 -56.5q0 -18 11.5 -28.5t30.5 -10.5zM305 277h231l-68 178q-36 83 -47 132h-2
q-10 -49 -46 -132z" />
    <glyph glyph-name="aogonek" unicode="&#x105;" horiz-adv-x="683" 
d="M561 -90l84 -29q-33 -85 -151 -85q-64 0 -100.5 25.5t-36.5 70.5q0 75 105 111q-7 40 -7 82q-25 -48 -81.5 -74t-135.5 -26q-95 0 -150 41t-55 111t54 109q52 36 174 48l186 17v15q0 83 -106 83t-117 -77h-175q10 85 88 134t205 49q142 0 209.5 -52.5t67.5 -161.5v-155
q0 -94 12 -146h-39q-66 -11 -97.5 -36.5t-31.5 -56.5q0 -18 11.5 -28.5t30.5 -10.5q37 0 56 42zM451 198v32l-138 -14q-57 -7 -81 -23t-24 -45q0 -28 25.5 -43.5t69.5 -15.5q66 0 107 30t41 79z" />
    <glyph glyph-name="Cacute" unicode="&#x106;" horiz-adv-x="822" 
d="M351 756l121 118h160l-143 -118h-138zM423 -20q-186 0 -292 100.5t-106 272.5q0 170 110 273.5t292 103.5q151 0 248.5 -69.5t120.5 -191.5l-184 -32q-14 73 -62.5 112.5t-126.5 39.5q-99 0 -155.5 -63t-56.5 -171q0 -106 58 -169.5t158 -63.5q76 0 124 37.5t64 108.5
l183 -39q-34 -118 -131 -183.5t-244 -65.5z" />
    <glyph glyph-name="cacute" unicode="&#x107;" horiz-adv-x="660" 
d="M267 569l133 157h167l-163 -157h-137zM340 -15q-143 0 -228 72.5t-85 193.5q0 123 85 193.5t231 70.5q121 0 197 -48t95 -136l-169 -29q-21 92 -128 92q-64 0 -100 -37t-36 -103q0 -69 36.5 -107.5t100.5 -38.5q105 0 128 93l168 -32q-19 -85 -98 -134.5t-197 -49.5z" />
    <glyph glyph-name="Ccircumflex" unicode="&#x108;" horiz-adv-x="822" 
d="M637 756h-139l-78 71l-77 -71h-139l127 118h179zM423 -20q-186 0 -292 100.5t-106 272.5q0 170 110 273.5t292 103.5q151 0 248.5 -69.5t120.5 -191.5l-184 -32q-14 73 -62.5 112.5t-126.5 39.5q-99 0 -155.5 -63t-56.5 -171q0 -106 58 -169.5t158 -63.5q76 0 124 37.5
t64 108.5l183 -39q-34 -118 -131 -183.5t-244 -65.5z" />
    <glyph glyph-name="ccircumflex" unicode="&#x109;" horiz-adv-x="660" 
d="M552 569h-130l-85 105l-84 -105h-131l128 157h174zM340 -15q-143 0 -228 72.5t-85 193.5q0 123 85 193.5t231 70.5q121 0 197 -48t95 -136l-169 -29q-21 92 -128 92q-64 0 -100 -37t-36 -103q0 -69 36.5 -107.5t100.5 -38.5q105 0 128 93l168 -32q-19 -85 -98 -134.5
t-197 -49.5z" />
    <glyph glyph-name="Cdotaccent" unicode="&#x10a;" horiz-adv-x="822" 
d="M331 756v118h177v-118h-177zM423 -20q-186 0 -292 100.5t-106 272.5q0 170 110 273.5t292 103.5q151 0 248.5 -69.5t120.5 -191.5l-184 -32q-14 73 -62.5 112.5t-126.5 39.5q-99 0 -155.5 -63t-56.5 -171q0 -106 58 -169.5t158 -63.5q76 0 124 37.5t64 108.5l183 -39
q-34 -118 -131 -183.5t-244 -65.5z" />
    <glyph glyph-name="cdotaccent" unicode="&#x10b;" horiz-adv-x="660" 
d="M247 572v149h180v-149h-180zM340 -15q-143 0 -228 72.5t-85 193.5q0 123 85 193.5t231 70.5q121 0 197 -48t95 -136l-169 -29q-21 92 -128 92q-64 0 -100 -37t-36 -103q0 -69 36.5 -107.5t100.5 -38.5q105 0 128 93l168 -32q-19 -85 -98 -134.5t-197 -49.5z" />
    <glyph glyph-name="Ccaron" unicode="&#x10c;" horiz-adv-x="822" 
d="M637 869l-127 -118h-179l-127 118h139l77 -71l78 71h139zM423 -20q-186 0 -292 100.5t-106 272.5q0 170 110 273.5t292 103.5q151 0 248.5 -69.5t120.5 -191.5l-184 -32q-14 73 -62.5 112.5t-126.5 39.5q-99 0 -155.5 -63t-56.5 -171q0 -106 58 -169.5t158 -63.5
q76 0 124 37.5t64 108.5l183 -39q-34 -118 -131 -183.5t-244 -65.5z" />
    <glyph glyph-name="ccaron" unicode="&#x10d;" horiz-adv-x="660" 
d="M122 721h130l85 -105l84 105h131l-128 -157h-174zM340 -15q-143 0 -228 72.5t-85 193.5q0 123 85 193.5t231 70.5q121 0 197 -48t95 -136l-169 -29q-21 92 -128 92q-64 0 -100 -37t-36 -103q0 -69 36.5 -107.5t100.5 -38.5q105 0 128 93l168 -32q-19 -85 -98 -134.5
t-197 -49.5z" />
    <glyph glyph-name="Dcaron" unicode="&#x10e;" horiz-adv-x="844" 
d="M630 869l-127 -118h-179l-127 118h139l77 -71l78 71h139zM82 0v710h353q176 0 280 -93.5t104 -253.5q0 -163 -106.5 -263t-280.5 -100h-350zM261 129h158q100 0 156.5 64.5t56.5 168.5q0 101 -56.5 160t-156.5 59h-158v-452z" />
    <glyph glyph-name="dcaron" unicode="&#x10f;" horiz-adv-x="727" 
d="M278 -15q-111 0 -180 73.5t-69 191.5q0 119 71 192t186 73q132 0 191 -86v296h171v-725h-164v91q-28 -50 -82 -78t-124 -28zM739 521l-25 49q53 9 54 39h-75v101h149v-81q0 -93 -103 -108zM344 100q61 0 98.5 36.5t37.5 95.5v33q0 63 -38 99t-101 36q-64 0 -99.5 -39
t-35.5 -109t37 -111t101 -41z" />
    <glyph glyph-name="Dcroat" unicode="&#x110;" horiz-adv-x="844" 
d="M435 710q176 0 280 -93.5t104 -253.5q0 -163 -106.5 -263t-280.5 -100h-350v317h-78v101h78v292h353zM419 129q100 0 156.5 64.5t56.5 168.5q0 101 -56.5 160t-156.5 59h-158v-163h190v-101h-190v-188h158z" />
    <glyph glyph-name="dcroat" unicode="&#x111;" horiz-adv-x="727" 
d="M734 644v-68h-86v-576h-164v91q-28 -50 -82 -78t-124 -28q-111 0 -180 73.5t-69 191.5q0 119 71 192t186 73q132 0 191 -86v147h-195v68h195v81h171v-81h86zM480 232v33q0 63 -38 99t-101 36q-64 0 -99.5 -39t-35.5 -109t37 -111t101 -41q61 0 98.5 36.5t37.5 95.5z" />
    <glyph glyph-name="Emacron" unicode="&#x112;" horiz-adv-x="726" 
d="M588 857v-98h-414v98h414zM261 131h410v-131h-589v710h582v-130h-403v-155h386v-126h-386v-168z" />
    <glyph glyph-name="emacron" unicode="&#x113;" horiz-adv-x="661" 
d="M534 690v-98h-408v98h408zM629 252v-40h-438q4 -52 44.5 -81t108.5 -29q101 0 147 73l128 -58q-39 -63 -111 -97.5t-168 -34.5q-147 0 -230 69t-83 192q0 125 82 197t221 72q142 0 220.5 -69.5t78.5 -193.5zM461 305v2q0 51 -36 80.5t-97 29.5t-97.5 -29.5t-40.5 -82.5
h271z" />
    <glyph glyph-name="Ebreve" unicode="&#x114;" horiz-adv-x="726" 
d="M381 751q-84 0 -134.5 32t-57.5 91h109q10 -47 83 -47q74 0 84 47h108q-7 -59 -57.5 -91t-134.5 -32zM261 131h410v-131h-589v710h582v-130h-403v-155h386v-126h-386v-168z" />
    <glyph glyph-name="ebreve" unicode="&#x115;" horiz-adv-x="661" 
d="M330 564q-86 0 -137 40t-56 122h110q6 -81 83 -81t83 81h111q-6 -82 -57 -122t-137 -40zM629 252v-40h-438q4 -52 44.5 -81t108.5 -29q101 0 147 73l128 -58q-39 -63 -111 -97.5t-168 -34.5q-147 0 -230 69t-83 192q0 125 82 197t221 72q142 0 220.5 -69.5t78.5 -193.5z
M461 305v2q0 51 -36 80.5t-97 29.5t-97.5 -29.5t-40.5 -82.5h271z" />
    <glyph glyph-name="Edotaccent" unicode="&#x116;" horiz-adv-x="726" 
d="M469 874v-118h-177v118h177zM261 131h410v-131h-589v710h582v-130h-403v-155h386v-126h-386v-168z" />
    <glyph glyph-name="edotaccent" unicode="&#x117;" horiz-adv-x="661" 
d="M420 721v-149h-180v149h180zM629 252v-40h-438q4 -52 44.5 -81t108.5 -29q101 0 147 73l128 -58q-39 -63 -111 -97.5t-168 -34.5q-147 0 -230 69t-83 192q0 125 82 197t221 72q142 0 220.5 -69.5t78.5 -193.5zM461 305v2q0 51 -36 80.5t-97 29.5t-97.5 -29.5t-40.5 -82.5
h271z" />
    <glyph glyph-name="Eogonek" unicode="&#x118;" horiz-adv-x="726" 
d="M640 -90l84 -29q-33 -85 -151 -85q-64 0 -100.5 25.5t-36.5 70.5q0 72 97 108h-451v710h582v-130h-403v-155h386v-126h-386v-168h410v-131q-66 -11 -97.5 -36.5t-31.5 -56.5q0 -18 11.5 -28.5t30.5 -10.5q37 0 56 42z" />
    <glyph glyph-name="eogonek" unicode="&#x119;" horiz-adv-x="661" 
d="M629 252v-40h-438q4 -52 44.5 -81t108.5 -29q101 0 147 73l128 -58q-51 -83 -156 -115h1q-2 0 -3 -1l-39 -9q-45 -13 -66 -35.5t-21 -47.5q0 -18 11.5 -28.5t30.5 -10.5q37 0 56 42l84 -29q-33 -85 -151 -85q-64 0 -100.5 25.5t-36.5 70.5q0 58 64 93q-126 11 -196 79
t-70 180q0 125 82 197t221 72q142 0 220.5 -69.5t78.5 -193.5zM461 305v2q0 51 -36 80.5t-97 29.5t-97.5 -29.5t-40.5 -82.5h271z" />
    <glyph glyph-name="Ecaron" unicode="&#x11a;" horiz-adv-x="726" 
d="M471 751h-179l-127 118h139l77 -71l78 71h139zM261 131h410v-131h-589v710h582v-130h-403v-155h386v-126h-386v-168z" />
    <glyph glyph-name="ecaron" unicode="&#x11b;" horiz-adv-x="661" 
d="M417 564h-174l-128 157h130l85 -105l84 105h131zM629 252v-40h-438q4 -52 44.5 -81t108.5 -29q101 0 147 73l128 -58q-39 -63 -111 -97.5t-168 -34.5q-147 0 -230 69t-83 192q0 125 82 197t221 72q142 0 220.5 -69.5t78.5 -193.5zM461 305v2q0 51 -36 80.5t-97 29.5
t-97.5 -29.5t-40.5 -82.5h271z" />
    <glyph glyph-name="Gcircumflex" unicode="&#x11c;" horiz-adv-x="847" 
d="M645 756h-139l-78 71l-77 -71h-139l127 118h179zM386 -20q-167 0 -264 101.5t-97 269.5q0 170 109.5 274.5t294.5 104.5q147 0 242.5 -61t120.5 -163l-185 -34q-15 57 -61 91t-120 34q-101 0 -158 -65t-57 -178q0 -112 57 -176.5t159 -64.5q90 0 144 45t56 104v11h-216
v123h381v-396h-131l-8 111q-32 -60 -100.5 -95.5t-166.5 -35.5z" />
    <glyph glyph-name="gcircumflex" unicode="&#x11d;" horiz-adv-x="680" 
d="M333 681l-84 -87h-131l128 132h174l128 -132h-130zM661 474q-26 6 -51 6q-43 0 -69 -17q63 -45 63 -118q0 -79 -73.5 -126t-199.5 -47q-74 0 -133 17q-20 -11 -20 -28q0 -39 67 -39h215q197 -1 197 -147q0 -185 -342 -185q-288 0 -288 120q0 65 88 90q-73 28 -73 94
q0 85 105 115q-90 48 -90 136q0 80 73 125t201 45q83 0 146 -20q26 93 153 93q14 0 31 -3v-111zM331 258q49 0 77.5 23.5t28.5 63.5t-28 62.5t-78 22.5t-78.5 -22.5t-28.5 -62.5t29 -63.5t78 -23.5zM442 -16l-233 1q-12 0 -34 2q-21 -18 -21 -45q0 -65 171 -65
q101 0 144.5 15t43.5 46q0 46 -71 46z" />
    <glyph glyph-name="Gbreve" unicode="&#x11e;" horiz-adv-x="847" 
d="M345 874q10 -47 83 -47q74 0 84 47h108q-7 -59 -57.5 -91t-134.5 -32t-134.5 32t-57.5 91h109zM386 -20q-167 0 -264 101.5t-97 269.5q0 170 109.5 274.5t294.5 104.5q147 0 242.5 -61t120.5 -163l-185 -34q-15 57 -61 91t-120 34q-101 0 -158 -65t-57 -178
q0 -112 57 -176.5t159 -64.5q90 0 144 45t56 104v11h-216v123h381v-396h-131l-8 111q-32 -60 -100.5 -95.5t-166.5 -35.5z" />
    <glyph glyph-name="gbreve" unicode="&#x11f;" horiz-adv-x="680" 
d="M333 564q-86 0 -137 40t-56 122h110q6 -81 83 -81t83 81h111q-6 -82 -57 -122t-137 -40zM661 474q-26 6 -51 6q-43 0 -69 -17q63 -45 63 -118q0 -79 -73.5 -126t-199.5 -47q-74 0 -133 17q-20 -11 -20 -28q0 -39 67 -39h215q197 -1 197 -147q0 -185 -342 -185
q-288 0 -288 120q0 65 88 90q-73 28 -73 94q0 85 105 115q-90 48 -90 136q0 80 73 125t201 45q83 0 146 -20q26 93 153 93q14 0 31 -3v-111zM331 258q49 0 77.5 23.5t28.5 63.5t-28 62.5t-78 22.5t-78.5 -22.5t-28.5 -62.5t29 -63.5t78 -23.5zM442 -16l-233 1q-12 0 -34 2
q-21 -18 -21 -45q0 -65 171 -65q101 0 144.5 15t43.5 46q0 46 -71 46z" />
    <glyph glyph-name="Gdotaccent" unicode="&#x120;" horiz-adv-x="847" 
d="M339 756v118h177v-118h-177zM386 -20q-167 0 -264 101.5t-97 269.5q0 170 109.5 274.5t294.5 104.5q147 0 242.5 -61t120.5 -163l-185 -34q-15 57 -61 91t-120 34q-101 0 -158 -65t-57 -178q0 -112 57 -176.5t159 -64.5q90 0 144 45t56 104v11h-216v123h381v-396h-131
l-8 111q-32 -60 -100.5 -95.5t-166.5 -35.5z" />
    <glyph glyph-name="gdotaccent" unicode="&#x121;" horiz-adv-x="680" 
d="M423 721v-149h-180v149h180zM661 474q-26 6 -51 6q-43 0 -69 -17q63 -45 63 -118q0 -79 -73.5 -126t-199.5 -47q-74 0 -133 17q-20 -11 -20 -28q0 -39 67 -39h215q197 -1 197 -147q0 -185 -342 -185q-288 0 -288 120q0 65 88 90q-73 28 -73 94q0 85 105 115
q-90 48 -90 136q0 80 73 125t201 45q83 0 146 -20q26 93 153 93q14 0 31 -3v-111zM331 258q49 0 77.5 23.5t28.5 63.5t-28 62.5t-78 22.5t-78.5 -22.5t-28.5 -62.5t29 -63.5t78 -23.5zM442 -16l-233 1q-12 0 -34 2q-21 -18 -21 -45q0 -65 171 -65q101 0 144.5 15t43.5 46
q0 46 -71 46z" />
    <glyph glyph-name="Gcommaaccent" unicode="&#x122;" horiz-adv-x="847" 
d="M386 -20q-167 0 -264 101.5t-97 269.5q0 170 109.5 274.5t294.5 104.5q147 0 242.5 -61t120.5 -163l-185 -34q-15 57 -61 91t-120 34q-101 0 -158 -65t-57 -178q0 -112 57 -176.5t159 -64.5q90 0 144 45t56 104v11h-216v123h381v-396h-131l-8 111q-32 -60 -100.5 -95.5
t-166.5 -35.5zM399 -243l-26 51q31 7 43 17.5t13 30.5h-77v101h151v-84q0 -97 -104 -116z" />
    <glyph glyph-name="gcommaaccent" unicode="&#x123;" horiz-adv-x="680" 
d="M409 670v-101h-151v84q0 97 104 116l26 -51q-31 -7 -43 -17.5t-13 -30.5h77zM661 474q-26 6 -51 6q-43 0 -69 -17q63 -45 63 -118q0 -79 -73.5 -126t-199.5 -47q-74 0 -133 17q-20 -11 -20 -28q0 -39 67 -39h215q197 -1 197 -147q0 -185 -342 -185q-288 0 -288 120
q0 65 88 90q-73 28 -73 94q0 85 105 115q-90 48 -90 136q0 80 73 125t201 45q83 0 146 -20q26 93 153 93q14 0 31 -3v-111zM331 258q49 0 77.5 23.5t28.5 63.5t-28 62.5t-78 22.5t-78.5 -22.5t-28.5 -62.5t29 -63.5t78 -23.5zM442 -16l-233 1q-12 0 -34 2q-21 -18 -21 -45
q0 -65 171 -65q101 0 144.5 15t43.5 46q0 46 -71 46z" />
    <glyph glyph-name="Hcircumflex" unicode="&#x124;" horiz-adv-x="868" 
d="M651 756h-139l-78 71l-77 -71h-139l127 118h179zM786 710v-710h-180v293h-345v-293h-179v710h179v-283h345v283h180z" />
    <glyph glyph-name="hcircumflex" unicode="&#x125;" horiz-adv-x="729" 
d="M382 756h-139l-78 71l-77 -71h-139l127 118h179zM79 0v725h171v-322q58 113 202 113q105 0 160 -62t55 -180v-274h-171v256q0 133 -117 133q-61 0 -95 -37.5t-34 -105.5v-246h-171z" />
    <glyph glyph-name="Hbar" unicode="&#x126;" horiz-adv-x="868" 
d="M864 600v-75h-78v-525h-180v293h-345v-293h-179v525h-79v75h79v110h179v-110h345v110h180v-110h78zM606 427v98h-345v-98h345z" />
    <glyph glyph-name="hbar" unicode="&#x127;" horiz-adv-x="714" 
d="M452 516q105 0 160 -62t55 -180v-274h-171v256q0 133 -117 133q-61 0 -95 -37.5t-34 -105.5v-246h-171v576h-82v68h82v81h171v-81h233v-68h-233v-173q58 113 202 113z" />
    <glyph glyph-name="Itilde" unicode="&#x128;" horiz-adv-x="343" 
d="M246 751q-38 0 -79 31t-56 31q-30 0 -33 -49l-74 28q3 49 28 79t68 30q29 0 54.5 -15.5t45.5 -31t35 -15.5q29 0 32 49l75 -27q-3 -50 -28 -80t-68 -30zM261 0h-179v710h179v-710z" />
    <glyph glyph-name="itilde" unicode="&#x129;" horiz-adv-x="319" 
d="M224 573q-27 0 -50 16.5t-40.5 33.5t-29.5 17q-21 0 -28 -56l-78 27q8 60 34.5 93t67.5 33q27 0 50 -17t40 -34t29 -17q22 0 29 56l77 -27q-8 -59 -34.5 -92t-66.5 -33zM74 0v500h171v-500h-171z" />
    <glyph glyph-name="Imacron" unicode="&#x12a;" horiz-adv-x="343" 
d="M26 759v99h289v-99h-289zM261 0h-179v710h179v-710z" />
    <glyph glyph-name="imacron" unicode="&#x12b;" horiz-adv-x="319" 
d="M27 593v97h265v-97h-265zM74 0v500h171v-500h-171z" />
    <glyph glyph-name="Ibreve" unicode="&#x12c;" horiz-adv-x="343" 
d="M119 874q1 -22 15 -35t39 -13q24 0 38 13t15 35h101q-4 -60 -44 -91.5t-110 -31.5t-110.5 31.5t-44.5 91.5h101zM261 0h-179v710h179v-710z" />
    <glyph glyph-name="ibreve" unicode="&#x12d;" horiz-adv-x="319" 
d="M120 726q-1 -81 40 -81q40 0 40 81h100q-3 -162 -140 -162t-140 162h100zM74 0v500h171v-500h-171z" />
    <glyph glyph-name="Iogonek" unicode="&#x12e;" horiz-adv-x="343" 
d="M181 -90l84 -29q-33 -85 -151 -85q-64 0 -100.5 25.5t-36.5 70.5q0 75 105 111v707h179v-710h-49q-66 -11 -97.5 -36.5t-31.5 -56.5q0 -18 11.5 -28.5t30.5 -10.5q37 0 56 42z" />
    <glyph glyph-name="iogonek" unicode="&#x12f;" horiz-adv-x="319" 
d="M250 721v-149h-180v149h180zM173 -90l84 -29q-33 -85 -151 -85q-64 0 -100.5 25.5t-36.5 70.5q0 75 105 111v497h171v-500h-41q-66 -11 -97.5 -36.5t-31.5 -56.5q0 -18 11.5 -28.5t30.5 -10.5q37 0 56 42z" />
    <glyph glyph-name="Idotaccent" unicode="&#x130;" horiz-adv-x="343" 
d="M83 756v118h177v-118h-177zM261 0h-179v710h179v-710z" />
    <glyph glyph-name="dotlessi" unicode="&#x131;" horiz-adv-x="319" 
d="M74 0v500h171v-500h-171z" />
    <glyph glyph-name="IJ" unicode="&#x132;" horiz-adv-x="805" 
d="M261 0h-179v710h179v-710zM741 232q0 -245 -263 -245q-75 0 -119 10v143q48 -6 79 -6q61 0 92.5 30t31.5 101v445h179v-478z" />
    <glyph glyph-name="ij" unicode="&#x133;" horiz-adv-x="651" 
d="M70 572v149h180v-149h-180zM400 572v149h180v-149h-180zM74 0v500h171v-500h-171zM365 -204q-49 0 -80 7v123q25 -3 52 -3q37 0 53 20.5t16 72.5v484h171v-500q0 -101 -48 -152.5t-164 -51.5z" />
    <glyph glyph-name="Jcircumflex" unicode="&#x134;" horiz-adv-x="462" 
d="M470 756h-117l-43 74l-43 -74h-118l76 118h169zM398 232q0 -245 -263 -245q-75 0 -119 10v143q48 -6 79 -6q61 0 92.5 30t31.5 101v445h179v-478z" />
    <glyph glyph-name="jcircumflex" unicode="&#x135;" horiz-adv-x="328" 
d="M324 569h-112l-45 107l-44 -107h-113l77 157h160zM42 -204q-49 0 -80 7v123q26 -3 52 -3q37 0 53 20.5t16 72.5v484h171v-500q0 -101 -48 -152.5t-164 -51.5z" />
    <glyph glyph-name="Kcommaaccent" unicode="&#x136;" horiz-adv-x="818" 
d="M510 429l292 -429h-207l-213 313l-121 -120v-193h-179v710h179v-319l312 319h213zM336 -144v101h151v-84q0 -97 -104 -116l-26 51q31 7 43 17.5t13 30.5h-77z" />
    <glyph glyph-name="kcommaaccent" unicode="&#x137;" horiz-adv-x="698" 
d="M471 310l212 -310h-192l-146 217l-95 -81v-136h-171v725h171v-428l216 203h210zM282 -144v101h151v-84q0 -97 -104 -116l-26 51q31 7 43 17.5t13 30.5h-77z" />
    <glyph glyph-name="kgreenlandic" unicode="&#x138;" horiz-adv-x="693" 
d="M486 0l-146 217l-95 -81v-136h-171v500h171v-203l216 203h210l-205 -190l212 -310h-192z" />
    <glyph glyph-name="Lacute" unicode="&#x139;" horiz-adv-x="654" 
d="M103 756l121 118h160l-143 -118h-138zM82 0v710h179v-566h372v-144h-551z" />
    <glyph glyph-name="lacute" unicode="&#x13a;" horiz-adv-x="329" 
d="M96 756l121 118h160l-143 -118h-138zM250 725v-725h-171v725h171z" />
    <glyph glyph-name="Lcommaaccent" unicode="&#x13b;" horiz-adv-x="654" 
d="M82 0v710h179v-566h372v-144h-551zM338 -243l-26 51q31 7 43 17.5t13 30.5h-77v101h151v-84q0 -97 -104 -116z" />
    <glyph glyph-name="lcommaaccent" unicode="&#x13c;" horiz-adv-x="329" 
d="M250 725v-725h-171v725h171zM136 -243l-26 51q31 7 43 17.5t13 30.5h-77v101h151v-84q0 -97 -104 -116z" />
    <glyph glyph-name="Lcaron" unicode="&#x13d;" horiz-adv-x="654" 
d="M82 0v710h179v-566h372v-144h-551zM373 521l-25 49q53 9 54 39h-75v101h149v-81q0 -93 -103 -108z" />
    <glyph glyph-name="lcaron" unicode="&#x13e;" horiz-adv-x="329" 
d="M250 725v-725h-171v725h171zM341 521l-25 49q53 9 54 39h-75v101h149v-81q0 -93 -103 -108z" />
    <glyph glyph-name="Ldot" unicode="&#x13f;" horiz-adv-x="654" 
d="M82 0v710h179v-566h372v-144h-551zM545 500v-163h-185v163h185z" />
    <glyph glyph-name="ldot" unicode="&#x140;" horiz-adv-x="485" 
d="M250 725v-725h-171v725h171zM500 500v-163h-185v163h185z" />
    <glyph glyph-name="Lslash" unicode="&#x141;" horiz-adv-x="654" 
d="M261 144h372v-144h-551v246l-91 -44v103l91 44v361h179v-273l222 108v-103l-222 -108v-190z" />
    <glyph glyph-name="lslash" unicode="&#x142;" horiz-adv-x="329" 
d="M309 556v-86l-59 -50v-420h-171v274l-59 -50v86l59 50v365h171v-219z" />
    <glyph glyph-name="Nacute" unicode="&#x143;" horiz-adv-x="869" 
d="M367 756l121 118h160l-143 -118h-138zM82 0v710h196l295 -407q31 -45 48 -86h2v94v399h164v-710h-186l-306 412q-37 58 -47 83h-3q1 -30 1 -95v-400h-164z" />
    <glyph glyph-name="nacute" unicode="&#x144;" horiz-adv-x="724" 
d="M325 569l133 157h167l-163 -157h-137zM74 0v500h166v-105q60 120 209 120q105 0 159 -59.5t54 -175.5v-280h-171v254q0 134 -115 134q-62 0 -96.5 -37.5t-34.5 -104.5v-246h-171z" />
    <glyph glyph-name="Ncommaaccent" unicode="&#x145;" horiz-adv-x="869" 
d="M82 0v710h196l295 -407q31 -45 48 -86h2v94v399h164v-710h-186l-306 412q-37 58 -47 83h-3q1 -30 1 -95v-400h-164zM407 -243l-26 51q31 7 43 17.5t13 30.5h-77v101h151v-84q0 -97 -104 -116z" />
    <glyph glyph-name="ncommaaccent" unicode="&#x146;" horiz-adv-x="724" 
d="M74 0v500h166v-105q60 120 209 120q105 0 159 -59.5t54 -175.5v-280h-171v254q0 134 -115 134q-62 0 -96.5 -37.5t-34.5 -104.5v-246h-171zM333 -243l-26 51q31 7 43 17.5t13 30.5h-77v101h151v-84q0 -97 -104 -116z" />
    <glyph glyph-name="Ncaron" unicode="&#x147;" horiz-adv-x="869" 
d="M653 869l-127 -118h-179l-127 118h139l77 -71l78 71h139zM82 0v710h196l295 -407q31 -45 48 -86h2v94v399h164v-710h-186l-306 412q-37 58 -47 83h-3q1 -30 1 -95v-400h-164z" />
    <glyph glyph-name="ncaron" unicode="&#x148;" horiz-adv-x="724" 
d="M180 721h130l85 -105l84 105h131l-128 -157h-174zM74 0v500h166v-105q60 120 209 120q105 0 159 -59.5t54 -175.5v-280h-171v254q0 134 -115 134q-62 0 -96.5 -37.5t-34.5 -104.5v-246h-171z" />
    <glyph glyph-name="napostrophe" unicode="&#x149;" horiz-adv-x="724" 
d="M41 521l-25 49q53 9 54 39h-75v101h149v-81q0 -93 -103 -108zM74 0v500h166v-105q60 120 209 120q105 0 159 -59.5t54 -175.5v-280h-171v254q0 134 -115 134q-62 0 -96.5 -37.5t-34.5 -104.5v-246h-171z" />
    <glyph glyph-name="Eng" unicode="&#x14a;" horiz-adv-x="869" 
d="M623 710h164v-716q0 -109 -62.5 -157t-167.5 -48q-69 0 -122 9v136q38 -6 98 -6q82 0 88 72h-20l-306 412q-37 58 -47 83h-3q1 -30 1 -95v-400h-164v710h196l295 -407q31 -45 48 -86h2v94v399z" />
    <glyph glyph-name="eng" unicode="&#x14b;" horiz-adv-x="724" 
d="M662 168h1v-170q0 -100 -48 -149.5t-165 -49.5q-56 0 -85 7v121q28 -4 53 -4q37 0 55 17t19 60h-1v254q0 134 -115 134q-62 0 -96.5 -37.5t-34.5 -104.5v-246h-171v500h166v-105q60 120 209 120q105 0 159 -59.5t54 -175.5v-112z" />
    <glyph glyph-name="Omacron" unicode="&#x14c;" horiz-adv-x="858" 
d="M222 759v98h414v-98h-414zM429 -20q-184 0 -294 102t-110 273t110 273t294 102t294 -102t110 -273t-110 -273t-294 -102zM429 118q100 0 158.5 64t58.5 173t-58.5 173t-158.5 64t-158.5 -64t-58.5 -173t58.5 -173t158.5 -64z" />
    <glyph glyph-name="omacron" unicode="&#x14d;" horiz-adv-x="679" 
d="M135 592v98h408v-98h-408zM339 -15q-139 0 -225.5 71t-86.5 195t86 194t226 70t226.5 -70t86.5 -194t-86.5 -195t-226.5 -71zM339 100q65 0 102 39.5t37 111.5t-37 110.5t-102 38.5t-102 -38.5t-37 -110.5t37 -111.5t102 -39.5z" />
    <glyph glyph-name="Obreve" unicode="&#x14e;" horiz-adv-x="858" 
d="M346 874q10 -47 83 -47q74 0 84 47h108q-7 -59 -57.5 -91t-134.5 -32t-134.5 32t-57.5 91h109zM429 -20q-184 0 -294 102t-110 273t110 273t294 102t294 -102t110 -273t-110 -273t-294 -102zM429 118q100 0 158.5 64t58.5 173t-58.5 173t-158.5 64t-158.5 -64t-58.5 -173
t58.5 -173t158.5 -64z" />
    <glyph glyph-name="obreve" unicode="&#x14f;" horiz-adv-x="679" 
d="M256 726q6 -81 83 -81t83 81h111q-6 -82 -57 -122t-137 -40t-137 40t-56 122h110zM339 -15q-139 0 -225.5 71t-86.5 195t86 194t226 70t226.5 -70t86.5 -194t-86.5 -195t-226.5 -71zM339 100q65 0 102 39.5t37 111.5t-37 110.5t-102 38.5t-102 -38.5t-37 -110.5
t37 -111.5t102 -39.5z" />
    <glyph glyph-name="Ohungarumlaut" unicode="&#x150;" horiz-adv-x="858" 
d="M259 757l117 117h142l-125 -117h-134zM464 757l118 117h141l-125 -117h-134zM429 -20q-184 0 -294 102t-110 273t110 273t294 102t294 -102t110 -273t-110 -273t-294 -102zM429 118q100 0 158.5 64t58.5 173t-58.5 173t-158.5 64t-158.5 -64t-58.5 -173t58.5 -173
t158.5 -64z" />
    <glyph glyph-name="ohungarumlaut" unicode="&#x151;" horiz-adv-x="679" 
d="M181 569l115 157h129l-122 -157h-122zM376 569l115 157h129l-123 -157h-121zM339 -15q-139 0 -225.5 71t-86.5 195t86 194t226 70t226.5 -70t86.5 -194t-86.5 -195t-226.5 -71zM339 100q65 0 102 39.5t37 111.5t-37 110.5t-102 38.5t-102 -38.5t-37 -110.5t37 -111.5
t102 -39.5z" />
    <glyph glyph-name="OE" unicode="&#x152;" horiz-adv-x="1201" 
d="M736 131h410v-131h-743q-173 0 -275.5 97.5t-102.5 263.5q0 163 105.5 256t280.5 93h728v-130h-403v-155h386v-126h-386v-168zM427 129h130v452h-129q-102 0 -159.5 -58.5t-57.5 -163.5q0 -107 58 -168.5t158 -61.5z" />
    <glyph glyph-name="oe" unicode="&#x153;" horiz-adv-x="1116" 
d="M1084 252v-40h-438q4 -52 44.5 -81t108.5 -29q101 0 147 73l128 -58q-39 -63 -111 -97.5t-168 -34.5q-152 0 -235 74q-82 -74 -219 -74q-142 0 -228 73t-86 192q0 121 85.5 193t228.5 72q135 0 220 -75q83 75 224 75q142 0 220.5 -69.5t78.5 -193.5zM916 305v2
q0 51 -36 80.5t-97 29.5t-97.5 -29.5t-40.5 -82.5h271zM341 101q67 0 104 40t37 109t-37 109t-104 40t-104 -40t-37 -109t37 -109t104 -40z" />
    <glyph glyph-name="Racute" unicode="&#x154;" horiz-adv-x="791" 
d="M581 874l-143 -118h-138l121 118h160zM563 0l-150 265h-152v-265h-179v710h386q140 0 206 -61t66 -159q0 -68 -37 -122.5t-112 -78.5l170 -289h-198zM261 586v-201h168q64 0 93.5 28t29.5 75q0 45 -30 71.5t-93 26.5h-168z" />
    <glyph glyph-name="racute" unicode="&#x155;" horiz-adv-x="473" 
d="M176 569l133 157h167l-163 -157h-137zM230 362q21 72 70.5 111.5t122.5 39.5q18 0 33 -3v-156q-23 4 -51 4q-75 0 -115 -38q-45 -42 -45 -132v-188h-171v500h156v-138z" />
    <glyph glyph-name="Rcommaaccent" unicode="&#x156;" horiz-adv-x="791" 
d="M591 289l170 -289h-198l-150 265h-152v-265h-179v710h386q140 0 206 -61t66 -159q0 -68 -37 -122.5t-112 -78.5zM261 586v-201h168q64 0 93.5 28t29.5 75q0 45 -30 71.5t-93 26.5h-168zM317 -144v101h151v-84q0 -97 -104 -116l-26 51q31 7 43 17.5t13 30.5h-77z" />
    <glyph glyph-name="rcommaaccent" unicode="&#x157;" horiz-adv-x="473" 
d="M230 362q21 72 70.5 111.5t122.5 39.5q18 0 33 -3v-156q-23 4 -51 4q-75 0 -115 -38q-45 -42 -45 -132v-188h-171v500h156v-138zM131 -243l-26 51q31 7 43 17.5t13 30.5h-77v101h151v-84q0 -97 -104 -116z" />
    <glyph glyph-name="Rcaron" unicode="&#x158;" horiz-adv-x="791" 
d="M459 751h-179l-127 118h139l77 -71l78 71h139zM563 0l-150 265h-152v-265h-179v710h386q140 0 206 -61t66 -159q0 -68 -37 -122.5t-112 -78.5l170 -289h-198zM261 586v-201h168q64 0 93.5 28t29.5 75q0 45 -30 71.5t-93 26.5h-168z" />
    <glyph glyph-name="rcaron" unicode="&#x159;" horiz-adv-x="473" 
d="M31 721h130l85 -105l84 105h131l-128 -157h-174zM230 362q21 72 70.5 111.5t122.5 39.5q18 0 33 -3v-156q-23 4 -51 4q-75 0 -115 -38q-45 -42 -45 -132v-188h-171v500h156v-138z" />
    <glyph glyph-name="Sacute" unicode="&#x15a;" horiz-adv-x="735" 
d="M300 756l121 118h160l-143 -118h-138zM369 -20q-132 0 -228 45.5t-141 127.5l132 92q75 -130 245 -130q152 0 152 83q0 36 -25 54t-86 27l-147 22q-221 35 -221 213q0 101 84.5 158.5t234.5 57.5q238 0 337 -144l-117 -98q-69 112 -230 112q-65 0 -101.5 -19.5
t-36.5 -55.5q0 -34 25 -51.5t89 -28.5l143 -21q119 -19 173.5 -68t54.5 -142q0 -110 -88.5 -172t-248.5 -62z" />
    <glyph glyph-name="sacute" unicode="&#x15b;" horiz-adv-x="612" 
d="M234 569l133 157h167l-163 -157h-137zM322 -15q-211 0 -306 119l92 78q72 -86 222 -86q101 0 101 46q0 21 -15 31t-57 14l-133 13q-180 22 -180 154q0 77 68 119t194 42q188 0 275 -95l-80 -82q-75 68 -204 68q-97 0 -97 -42q0 -34 64 -41l147 -15q90 -10 131 -48
t41 -105q0 -81 -67 -125.5t-196 -44.5z" />
    <glyph glyph-name="Scircumflex" unicode="&#x15c;" horiz-adv-x="735" 
d="M586 756h-139l-78 71l-77 -71h-139l127 118h179zM369 -20q-132 0 -228 45.5t-141 127.5l132 92q75 -130 245 -130q152 0 152 83q0 36 -25 54t-86 27l-147 22q-221 35 -221 213q0 101 84.5 158.5t234.5 57.5q238 0 337 -144l-117 -98q-69 112 -230 112q-65 0 -101.5 -19.5
t-36.5 -55.5q0 -34 25 -51.5t89 -28.5l143 -21q119 -19 173.5 -68t54.5 -142q0 -110 -88.5 -172t-248.5 -62z" />
    <glyph glyph-name="scircumflex" unicode="&#x15d;" horiz-adv-x="612" 
d="M519 569h-130l-85 105l-84 -105h-131l128 157h174zM322 -15q-211 0 -306 119l92 78q72 -86 222 -86q101 0 101 46q0 21 -15 31t-57 14l-133 13q-180 22 -180 154q0 77 68 119t194 42q188 0 275 -95l-80 -82q-75 68 -204 68q-97 0 -97 -42q0 -34 64 -41l147 -15
q90 -10 131 -48t41 -105q0 -81 -67 -125.5t-196 -44.5z" />
    <glyph glyph-name="Scedilla" unicode="&#x15e;" horiz-adv-x="735" 
d="M478 424q119 -19 173.5 -68t54.5 -142q0 -102 -77.5 -163.5t-218.5 -69.5l-21 -31q24 15 63 15q50 0 78.5 -22.5t28.5 -65.5q0 -46 -39.5 -70.5t-108.5 -24.5q-105 0 -139 61l87 25q16 -25 50 -25q21 0 33.5 10t12.5 27q0 16 -12 25.5t-32 9.5q-27 0 -42 -16l-72 16
l36 66q-119 6 -205 51t-128 121l132 92q75 -130 245 -130q152 0 152 83q0 36 -25 54t-86 27l-147 22q-221 35 -221 213q0 101 84.5 158.5t234.5 57.5q238 0 337 -144l-117 -98q-69 112 -230 112q-65 0 -101.5 -19.5t-36.5 -55.5q0 -34 25 -51.5t89 -28.5z" />
    <glyph glyph-name="scedilla" unicode="&#x15f;" horiz-adv-x="612" 
d="M585 155q0 -77 -60.5 -121t-176.5 -48l-24 -36q24 15 63 15q50 0 78.5 -22.5t28.5 -65.5q0 -46 -39.5 -70.5t-108.5 -24.5q-105 0 -139 61l87 25q16 -25 50 -25q21 0 33.5 10t12.5 27q0 16 -12 25.5t-32 9.5q-27 0 -42 -16l-72 16l39 72q-173 14 -255 117l92 78
q72 -86 222 -86q101 0 101 46q0 21 -15 31t-57 14l-133 13q-180 22 -180 154q0 77 68 119t194 42q188 0 275 -95l-80 -82q-75 68 -204 68q-97 0 -97 -42q0 -34 64 -41l147 -15q90 -10 131 -48t41 -105z" />
    <glyph glyph-name="Scaron" unicode="&#x160;" horiz-adv-x="735" 
d="M586 869l-127 -118h-179l-127 118h139l77 -71l78 71h139zM369 -20q-132 0 -228 45.5t-141 127.5l132 92q75 -130 245 -130q152 0 152 83q0 36 -25 54t-86 27l-147 22q-221 35 -221 213q0 101 84.5 158.5t234.5 57.5q238 0 337 -144l-117 -98q-69 112 -230 112
q-65 0 -101.5 -19.5t-36.5 -55.5q0 -34 25 -51.5t89 -28.5l143 -21q119 -19 173.5 -68t54.5 -142q0 -110 -88.5 -172t-248.5 -62z" />
    <glyph glyph-name="scaron" unicode="&#x161;" horiz-adv-x="612" 
d="M89 721h130l85 -105l84 105h131l-128 -157h-174zM322 -15q-211 0 -306 119l92 78q72 -86 222 -86q101 0 101 46q0 21 -15 31t-57 14l-133 13q-180 22 -180 154q0 77 68 119t194 42q188 0 275 -95l-80 -82q-75 68 -204 68q-97 0 -97 -42q0 -34 64 -41l147 -15
q90 -10 131 -48t41 -105q0 -81 -67 -125.5t-196 -44.5z" />
    <glyph glyph-name="uni0162" unicode="&#x162;" horiz-adv-x="687" 
d="M433 0h-51l-34 -50q24 15 63 15q50 0 78.5 -22.5t28.5 -65.5q0 -46 -39.5 -70.5t-108.5 -24.5q-105 0 -139 61l87 25q16 -25 50 -25q21 0 33.5 10t12.5 27q0 16 -12 25.5t-32 9.5q-27 0 -42 -16l-72 16l46 85h-48v568h-246v142h671v-142h-246v-568z" />
    <glyph glyph-name="uni0163" unicode="&#x163;" horiz-adv-x="484" 
d="M378 -35q50 0 78.5 -22.5t28.5 -65.5q0 -46 -39.5 -70.5t-108.5 -24.5q-105 0 -139 61l87 25q16 -25 50 -25q21 0 33.5 10t12.5 27q0 16 -12 25.5t-32 9.5q-27 0 -42 -16l-72 16l43 80q-148 26 -148 180v213h-113v112h113v119l171 64v-183h165v-112h-165v-175
q0 -88 94 -88q33 0 71 8v-130q-53 -14 -113 -14l-26 -39q24 15 63 15z" />
    <glyph glyph-name="Tcaron" unicode="&#x164;" horiz-adv-x="687" 
d="M434 751h-179l-127 118h139l77 -71l78 71h139zM679 710v-142h-246v-568h-179v568h-246v142h671z" />
    <glyph glyph-name="tcaron" unicode="&#x165;" horiz-adv-x="484" 
d="M376 521l-25 49q53 9 54 39h-75v101h149v-81q0 -93 -103 -108zM5 388v112h113v119l171 64v-183h165v-112h-165v-175q0 -88 94 -88q33 0 71 8v-130q-54 -14 -116 -14q-220 0 -220 186v213h-113z" />
    <glyph glyph-name="Tbar" unicode="&#x166;" horiz-adv-x="687" 
d="M679 568h-246v-124h195v-77h-195v-367h-179v367h-194v77h194v124h-246v142h671v-142z" />
    <glyph glyph-name="tbar" unicode="&#x167;" horiz-adv-x="485" 
d="M454 388h-165v-74h157v-84h-157v-17q0 -88 94 -88q33 0 71 8v-130q-54 -14 -116 -14q-220 0 -220 186v55h-103v84h103v74h-113v112h113v119l171 64v-183h165v-112z" />
    <glyph glyph-name="Utilde" unicode="&#x168;" horiz-adv-x="826" 
d="M498 747q-46 0 -95 29t-72 29q-41 0 -57 -55l-85 32q26 115 140 115q46 0 95 -29t72 -29q42 0 56 54l85 -31q-26 -115 -139 -115zM63 710h180v-420q0 -76 45 -121.5t125 -45.5t125 45.5t45 121.5v420h180v-432q0 -137 -92.5 -217.5t-257.5 -80.5q-164 0 -257 81t-93 218
v431z" />
    <glyph glyph-name="utilde" unicode="&#x169;" horiz-adv-x="716" 
d="M442 574q-38 0 -69.5 16t-57.5 32t-48 16q-44 0 -59 -59l-86 31q11 60 47 93t93 33q38 0 69.5 -16t57.5 -32.5t48 -16.5q44 0 59 60l86 -31q-11 -60 -47 -93t-93 -33zM274 -15q-105 0 -158.5 55t-53.5 159v301h171v-267q0 -122 108 -122q62 0 96 37.5t34 94.5v257h171
v-500h-165v103q-25 -56 -79 -87t-124 -31z" />
    <glyph glyph-name="Umacron" unicode="&#x16a;" horiz-adv-x="826" 
d="M206 759v98h414v-98h-414zM63 710h180v-420q0 -76 45 -121.5t125 -45.5t125 45.5t45 121.5v420h180v-432q0 -137 -92.5 -217.5t-257.5 -80.5q-164 0 -257 81t-93 218v431z" />
    <glyph glyph-name="umacron" unicode="&#x16b;" horiz-adv-x="716" 
d="M146 592v98h408v-98h-408zM274 -15q-105 0 -158.5 55t-53.5 159v301h171v-267q0 -122 108 -122q62 0 96 37.5t34 94.5v257h171v-500h-165v103q-25 -56 -79 -87t-124 -31z" />
    <glyph glyph-name="Ubreve" unicode="&#x16c;" horiz-adv-x="826" 
d="M330 874q10 -47 83 -47q74 0 84 47h108q-7 -59 -57.5 -91t-134.5 -32t-134.5 32t-57.5 91h109zM63 710h180v-420q0 -76 45 -121.5t125 -45.5t125 45.5t45 121.5v420h180v-432q0 -137 -92.5 -217.5t-257.5 -80.5q-164 0 -257 81t-93 218v431z" />
    <glyph glyph-name="ubreve" unicode="&#x16d;" horiz-adv-x="716" 
d="M267 726q6 -81 83 -81t83 81h111q-6 -82 -57 -122t-137 -40t-137 40t-56 122h110zM274 -15q-105 0 -158.5 55t-53.5 159v301h171v-267q0 -122 108 -122q62 0 96 37.5t34 94.5v257h171v-500h-165v103q-25 -56 -79 -87t-124 -31z" />
    <glyph glyph-name="Uring" unicode="&#x16e;" horiz-adv-x="826" 
d="M413 744q-60 0 -97 32.5t-37 84.5q0 53 37 85.5t97 32.5t97 -32.5t37 -85.5q0 -52 -37 -84.5t-97 -32.5zM413 808q24 0 39 15t15 38q0 24 -15 39t-39 15q-25 0 -40 -15t-15 -39q0 -23 15 -38t40 -15zM63 710h180v-420q0 -76 45 -121.5t125 -45.5t125 45.5t45 121.5v420
h180v-432q0 -137 -92.5 -217.5t-257.5 -80.5q-164 0 -257 81t-93 218v431z" />
    <glyph glyph-name="uring" unicode="&#x16f;" horiz-adv-x="716" 
d="M350 551q-69 0 -109.5 32t-40.5 86t40.5 86.5t109.5 32.5t110 -32.5t41 -86.5t-41 -86t-110 -32zM350 615q32 0 50 15t18 39q0 25 -18 40t-50 15t-50 -15t-18 -40q0 -24 18 -39t50 -15zM274 -15q-105 0 -158.5 55t-53.5 159v301h171v-267q0 -122 108 -122q62 0 96 37.5
t34 94.5v257h171v-500h-165v103q-25 -56 -79 -87t-124 -31z" />
    <glyph glyph-name="Uhungarumlaut" unicode="&#x170;" horiz-adv-x="826" 
d="M243 757l117 117h142l-125 -117h-134zM448 757l118 117h141l-125 -117h-134zM63 710h180v-420q0 -76 45 -121.5t125 -45.5t125 45.5t45 121.5v420h180v-432q0 -137 -92.5 -217.5t-257.5 -80.5q-164 0 -257 81t-93 218v431z" />
    <glyph glyph-name="uhungarumlaut" unicode="&#x171;" horiz-adv-x="716" 
d="M192 569l115 157h129l-122 -157h-122zM387 569l115 157h129l-123 -157h-121zM274 -15q-105 0 -158.5 55t-53.5 159v301h171v-267q0 -122 108 -122q62 0 96 37.5t34 94.5v257h171v-500h-165v103q-25 -56 -79 -87t-124 -31z" />
    <glyph glyph-name="Uogonek" unicode="&#x172;" horiz-adv-x="826" 
d="M583 710h180v-432q0 -117 -68.5 -194t-193.5 -97q-77 -28 -77 -80q0 -18 11.5 -28.5t30.5 -10.5q37 0 56 42l84 -29q-33 -85 -151 -85q-64 0 -100.5 25.5t-36.5 70.5q0 55 57 89q-148 10 -230 90t-82 208v431h180v-420q0 -76 45 -121.5t125 -45.5t125 45.5t45 121.5v420z
" />
    <glyph glyph-name="uogonek" unicode="&#x173;" horiz-adv-x="716" 
d="M576 -90l84 -29q-33 -85 -151 -85q-64 0 -100.5 25.5t-36.5 70.5q0 75 105 111v100q-25 -56 -79 -87t-124 -31q-105 0 -158.5 55t-53.5 159v301h171v-267q0 -122 108 -122q62 0 96 37.5t34 94.5v257h171v-500h-35q-66 -11 -97.5 -36.5t-31.5 -56.5q0 -18 11.5 -28.5
t30.5 -10.5q37 0 56 42z" />
    <glyph glyph-name="Wcircumflex" unicode="&#x174;" horiz-adv-x="1125" 
d="M780 756h-139l-78 71l-77 -71h-139l127 118h179zM220 0l-201 710h182l114 -461q7 -33 9 -63h4q1 23 12 63l131 461h183l131 -461q11 -40 12 -63h4q1 19 9 63l114 461h183l-202 -710h-203l-128 473q-8 29 -9 57h-5q-2 -28 -9 -57l-128 -473h-203z" />
    <glyph glyph-name="wcircumflex" unicode="&#x175;" horiz-adv-x="930" 
d="M680 569h-130l-85 105l-84 -105h-131l128 157h174zM179 0l-165 500h166l86 -308q5 -22 9 -49h2q3 23 10 49l100 308h156l100 -308q7 -26 10 -49h2q1 14 9 49l85 308h167l-165 -500h-175l-99 295q-9 25 -11 47h-3q-2 -26 -10 -47l-99 -295h-175z" />
    <glyph glyph-name="Ycircumflex" unicode="&#x176;" horiz-adv-x="745" 
d="M591 756h-139l-78 71l-77 -71h-139l127 118h179zM282 0v249l-287 461h197l161 -275q15 -27 19 -47h2q4 20 19 47l165 275h192l-288 -461v-249h-180z" />
    <glyph glyph-name="ycircumflex" unicode="&#x177;" horiz-adv-x="635" 
d="M537 569h-130l-85 105l-84 -105h-131l128 157h174zM126 -205q-46 0 -85 7v127q35 -6 68 -6q95 0 125 63l4 15l-238 499h189l120 -306q10 -24 16 -56h3q3 20 15 55l115 307h177l-226 -523q-42 -97 -108.5 -139.5t-174.5 -42.5z" />
    <glyph glyph-name="Ydieresis" unicode="&#x178;" horiz-adv-x="745" 
d="M164 756v117h151v-117h-151zM432 756v117h151v-117h-151zM282 0v249l-287 461h197l161 -275q15 -27 19 -47h2q4 20 19 47l165 275h192l-288 -461v-249h-180z" />
    <glyph glyph-name="Zacute" unicode="&#x179;" horiz-adv-x="723" 
d="M296 756l121 118h160l-143 -118h-138zM43 124l413 452h-398v134h618v-124l-412 -453h430v-133h-651v124z" />
    <glyph glyph-name="zacute" unicode="&#x17a;" horiz-adv-x="592" 
d="M230 569l133 157h167l-163 -157h-137zM32 104l309 282h-295v114h505v-101l-305 -283h320v-116h-534v104z" />
    <glyph glyph-name="Zdotaccent" unicode="&#x17b;" horiz-adv-x="723" 
d="M276 756v118h177v-118h-177zM43 124l413 452h-398v134h618v-124l-412 -453h430v-133h-651v124z" />
    <glyph glyph-name="zdotaccent" unicode="&#x17c;" horiz-adv-x="592" 
d="M210 572v149h180v-149h-180zM32 104l309 282h-295v114h505v-101l-305 -283h320v-116h-534v104z" />
    <glyph glyph-name="Zcaron" unicode="&#x17d;" horiz-adv-x="723" 
d="M582 869l-127 -118h-179l-127 118h139l77 -71l78 71h139zM43 124l413 452h-398v134h618v-124l-412 -453h430v-133h-651v124z" />
    <glyph glyph-name="zcaron" unicode="&#x17e;" horiz-adv-x="592" 
d="M85 721h130l85 -105l84 105h131l-128 -157h-174zM32 104l309 282h-295v114h505v-101l-305 -283h320v-116h-534v104z" />
    <glyph glyph-name="florin" unicode="&#x192;" horiz-adv-x="545" 
d="M472 586q-54 0 -79 -25t-34 -85l-7 -48h143v-113h-158l-65 -465h-180l65 465h-128v113h144l6 40q19 131 84.5 188.5t191.5 57.5q45 0 79 -10v-126q-32 8 -62 8z" />
    <glyph glyph-name="AEacute" unicode="&#x1fc;" horiz-adv-x="1210" 
d="M1043 874l-143 -118h-138l121 118h160zM745 131h410v-131h-589v150h-287l-97 -150h-190l494 710h662v-130h-403v-155h386v-126h-386v-168zM358 272h208v322z" />
    <glyph glyph-name="aeacute" unicode="&#x1fd;" horiz-adv-x="1048" 
d="M753 726l-163 -157h-137l133 157h167zM1016 251v-37h-412q4 -52 41 -82t99 -30q91 0 134 73l128 -58q-38 -63 -107 -97.5t-159 -34.5q-168 0 -245 102q-73 -102 -245 -102q-102 0 -159.5 40.5t-57.5 112.5q0 133 213 151l190 15v16q0 88 -103 88q-105 0 -113 -77h-173
q9 85 85.5 134.5t199.5 49.5q136 0 199 -65q76 65 201 65q135 0 209.5 -69.5t74.5 -194.5zM604 307h244q-1 51 -33.5 80.5t-85.5 29.5q-57 0 -90 -28.5t-35 -81.5zM440 196v29l-134 -10q-98 -10 -98 -68q0 -27 24.5 -42.5t67.5 -15.5q61 0 100.5 28.5t39.5 78.5z" />
    <glyph glyph-name="Oslashacute" unicode="&#x1fe;" horiz-adv-x="858" 
d="M644 874l-143 -118h-138l121 118h160zM730 622q103 -101 103 -267q0 -171 -110 -273t-294 -102q-143 0 -243 63l-63 -67l-57 45l63 67q-104 101 -104 267q0 171 110 273t294 102q144 0 244 -63l63 67l57 -45zM212 355q0 -83 35 -141l316 336q-54 42 -134 42
q-100 0 -158.5 -64t-58.5 -173zM429 118q100 0 158.5 64t58.5 173q0 83 -35 141l-316 -337q57 -41 134 -41z" />
    <glyph glyph-name="oslashacute" unicode="&#x1ff;" horiz-adv-x="679" 
d="M575 726l-163 -157h-137l133 157h167zM574 437q78 -70 78 -186q0 -124 -86.5 -195t-226.5 -71q-110 0 -190 46l-56 -54l-41 34l54 52q-79 71 -79 188q0 124 86 194t226 70q110 0 191 -45l55 53l41 -36zM200 251q0 -48 17 -82l212 204q-35 27 -90 27q-65 0 -102 -38.5
t-37 -110.5zM339 100q65 0 102 39.5t37 111.5q0 48 -16 79l-212 -203q34 -27 89 -27z" />
    <glyph glyph-name="Scommaaccent" unicode="&#x218;" horiz-adv-x="735" 
d="M369 -20q-132 0 -228 45.5t-141 127.5l132 92q75 -130 245 -130q152 0 152 83q0 36 -25 54t-86 27l-147 22q-221 35 -221 213q0 101 84.5 158.5t234.5 57.5q238 0 337 -144l-117 -98q-69 112 -230 112q-65 0 -101.5 -19.5t-36.5 -55.5q0 -34 25 -51.5t89 -28.5l143 -21
q119 -19 173.5 -68t54.5 -142q0 -110 -88.5 -172t-248.5 -62zM356 -243l-26 51q31 7 43 17.5t13 30.5h-77v101h151v-84q0 -97 -104 -116z" />
    <glyph glyph-name="scommaaccent" unicode="&#x219;" horiz-adv-x="612" 
d="M322 -15q-211 0 -306 119l92 78q72 -86 222 -86q101 0 101 46q0 21 -15 31t-57 14l-133 13q-180 22 -180 154q0 77 68 119t194 42q188 0 275 -95l-80 -82q-75 68 -204 68q-97 0 -97 -42q0 -34 64 -41l147 -15q90 -10 131 -48t41 -105q0 -81 -67 -125.5t-196 -44.5z
M291 -243l-26 51q31 7 43 17.5t13 30.5h-77v101h151v-84q0 -97 -104 -116z" />
    <glyph glyph-name="uni021A" unicode="&#x21a;" horiz-adv-x="687" 
d="M679 710v-142h-246v-568h-179v568h-246v142h671zM268 -144v101h151v-84q0 -97 -104 -116l-26 51q31 7 43 17.5t13 30.5h-77z" />
    <glyph glyph-name="uni021B" unicode="&#x21b;" horiz-adv-x="484" 
d="M5 388v112h113v119l171 64v-183h165v-112h-165v-175q0 -88 94 -88q33 0 71 8v-130q-54 -14 -116 -14q-220 0 -220 186v213h-113zM282 -243l-26 51q31 7 43 17.5t13 30.5h-77v101h151v-84q0 -97 -104 -116z" />
    <glyph glyph-name="uni0237" unicode="&#x237;" horiz-adv-x="328" 
d="M42 -204q-49 0 -80 7v123q26 -3 52 -3q37 0 53 20.5t16 72.5v484h171v-500q0 -101 -48 -152.5t-164 -51.5z" />
    <glyph glyph-name="uni0243" unicode="&#x243;" horiz-adv-x="782" 
d="M745 198q0 -87 -61.5 -140.5t-174.5 -57.5v-106h-66v106h-117v-106h-66v106h-178v695h178v92h66v-92h117v92h66v-92q107 -4 162.5 -50t55.5 -127q0 -58 -34.5 -99t-97.5 -56q72 -11 111 -53.5t39 -111.5zM439 577h-186v-170h187q106 0 106 87q0 83 -107 83zM451 118
q55 0 84 24.5t29 68.5q0 42 -29 66t-83 24h-199v-183h198z" />
    <glyph glyph-name="circumflex" unicode="&#x2c6;" horiz-adv-x="600" 
d="M467 569h-130l-85 105l-84 -105h-131l128 157h174z" />
    <glyph glyph-name="caron" unicode="&#x2c7;" horiz-adv-x="600" 
d="M37 721h130l85 -105l84 105h131l-128 -157h-174z" />
    <glyph glyph-name="breve" unicode="&#x2d8;" horiz-adv-x="600" 
d="M163 726q6 -81 83 -81t83 81h111q-6 -82 -57 -122t-137 -40t-137 40t-56 122h110z" />
    <glyph glyph-name="dotaccent" unicode="&#x2d9;" horiz-adv-x="600" 
d="M50 572v149h180v-149h-180z" />
    <glyph glyph-name="ring" unicode="&#x2da;" horiz-adv-x="600" 
d="M185 551q-69 0 -109.5 32t-40.5 86t40.5 86.5t109.5 32.5t110 -32.5t41 -86.5t-41 -86t-110 -32zM185 615q32 0 50 15t18 39q0 25 -18 40t-50 15t-50 -15t-18 -40q0 -24 18 -39t50 -15z" />
    <glyph glyph-name="ogonek" unicode="&#x2db;" horiz-adv-x="600" 
d="M338 -119q-33 -85 -151 -85q-64 0 -100.5 25.5t-36.5 70.5q0 75 105 111l130 -3q-66 -11 -97.5 -36.5t-31.5 -56.5q0 -18 11.5 -28.5t30.5 -10.5q37 0 56 42z" />
    <glyph glyph-name="tilde" unicode="&#x2dc;" horiz-adv-x="600" 
d="M373 574q-38 0 -69.5 16t-57.5 32t-48 16q-44 0 -59 -59l-86 31q11 60 47 93t93 33q38 0 69.5 -16t57.5 -32.5t48 -16.5q44 0 59 60l86 -31q-11 -60 -47 -93t-93 -33z" />
    <glyph glyph-name="hungarumlaut" unicode="&#x2dd;" horiz-adv-x="600" 
d="M75 569l115 157h129l-122 -157h-122zM270 569l115 157h129l-123 -157h-121z" />
    <glyph glyph-name="gravecomb" unicode="&#x300;" horiz-adv-x="0" 
d="M-18 569h-137l-163 157h167z" />
    <glyph glyph-name="acutecomb" unicode="&#x301;" horiz-adv-x="0" 
d="M-314 569l133 157h167l-163 -157h-137z" />
    <glyph glyph-name="uni0302" unicode="&#x302;" horiz-adv-x="0" 
d="M-37 569h-130l-85 105l-84 -105h-131l128 157h174z" />
    <glyph glyph-name="tildecomb" unicode="&#x303;" horiz-adv-x="0" 
d="M-192 574q-38 0 -69.5 16t-57.5 32t-48 16q-44 0 -59 -59l-86 31q11 60 47 93t93 33q38 0 69.5 -16t57.5 -32.5t48 -16.5q44 0 59 60l86 -31q-11 -60 -47 -93t-93 -33z" />
    <glyph glyph-name="uni0304" unicode="&#x304;" horiz-adv-x="0" 
d="M-459 592v98h408v-98h-408z" />
    <glyph glyph-name="uni0306" unicode="&#x306;" horiz-adv-x="0" 
d="M-329 726q6 -81 83 -81t83 81h111q-6 -82 -57 -122t-137 -40t-137 40t-56 122h110z" />
    <glyph glyph-name="uni0307" unicode="&#x307;" horiz-adv-x="0" 
d="M-230 572v149h180v-149h-180z" />
    <glyph glyph-name="uni0308" unicode="&#x308;" horiz-adv-x="0" 
d="M-467 575v137h155v-137h-155zM-201 575v137h156v-137h-156z" />
    <glyph glyph-name="uni030A" unicode="&#x30a;" horiz-adv-x="0" 
d="M-185 551q-69 0 -109.5 32t-40.5 86t40.5 86.5t109.5 32.5t110 -32.5t41 -86.5t-41 -86t-110 -32zM-185 615q32 0 50 15t18 39q0 25 -18 40t-50 15t-50 -15t-18 -40q0 -24 18 -39t50 -15z" />
    <glyph glyph-name="uni030B" unicode="&#x30b;" horiz-adv-x="0" 
d="M-498 569l115 157h129l-122 -157h-122zM-303 569l115 157h129l-123 -157h-121z" />
    <glyph glyph-name="uni030C" unicode="&#x30c;" horiz-adv-x="0" 
d="M-467 721h130l85 -105l84 105h131l-128 -157h-174z" />
    <glyph glyph-name="uni0312" unicode="&#x312;" horiz-adv-x="0" 
d="M-97 769l26 -51q-31 -7 -43 -17.5t-13 -30.5h77v-101h-151v84q0 97 104 116z" />
    <glyph glyph-name="uni0326" unicode="&#x326;" horiz-adv-x="0" 
d="M-154 -243l-26 51q31 7 43 17.5t13 30.5h-77v101h151v-84q0 -97 -104 -116z" />
    <glyph glyph-name="uni0327" unicode="&#x327;" horiz-adv-x="0" 
d="M-266 6h81l-38 -56q24 15 63 15q50 0 78.5 -22.5t28.5 -65.5q0 -46 -39.5 -70.5t-108.5 -24.5q-105 0 -139 61l87 25q16 -25 50 -25q21 0 33.5 10t12.5 27q0 16 -12 25.5t-32 9.5q-27 0 -42 -16l-72 16z" />
    <glyph glyph-name="uni0328" unicode="&#x328;" horiz-adv-x="0" 
d="M-59 -119q-33 -85 -151 -85q-64 0 -100.5 25.5t-36.5 70.5q0 75 105 111l130 -3q-66 -11 -97.5 -36.5t-31.5 -56.5q0 -18 11.5 -28.5t30.5 -10.5q37 0 56 42z" />
    <glyph glyph-name="uni0394" unicode="&#x394;" horiz-adv-x="802" 
d="M14 0l299 707h179l296 -707h-774zM400 543l-169 -416h336z" />
    <glyph glyph-name="uni03A9" unicode="&#x3a9;" horiz-adv-x="800" 
d="M750 0h-294l-19 268q149 20 149 164q0 74 -49.5 118.5t-136.5 44.5t-136.5 -44.5t-49.5 -118.5q0 -70 38 -112t111 -52l-19 -268h-293v134h170l5 50q-89 26 -137.5 90.5t-48.5 160.5q0 132 99 212t261 80q163 0 261.5 -80t98.5 -212q0 -96 -48.5 -160.5t-137.5 -90.5
l5 -50h171v-134z" />
    <glyph glyph-name="uni03BC" unicode="&#x3bc;" horiz-adv-x="728" 
d="M483 500h171v-500h-165v103q-25 -56 -79 -87t-124 -31q-28 0 -58 5v-185h-154v695h171v-267q0 -122 108 -122q62 0 96 37.5t34 94.5v257z" />
    <glyph glyph-name="pi" unicode="&#x3c0;" horiz-adv-x="766" 
d="M742 4q-50 -12 -91 -12q-94 0 -133 39.5t-39 118.5v239h-190v-389h-169v389h-97v111h720v-111h-94v-225q0 -53 55 -53q2 0 38 4v-111z" />
    <glyph glyph-name="uni0E3F" unicode="&#xe3f;" horiz-adv-x="782" 
d="M593 362q74 -11 113 -53t39 -111q0 -95 -66.5 -146.5t-183.5 -51.5h-71v-106h-63v106h-279v695h279v92h63v-92h61q116 0 179 -45.5t63 -135.5q0 -57 -35 -97t-99 -55zM245 582v-180h116v180h-116zM447 582h-23v-180h23q106 0 106 93q0 87 -106 87zM245 113h116v191h-116
v-191zM459 113q54 0 83 25t29 72q0 46 -29 70t-82 24h-36v-191h35z" />
    <glyph glyph-name="Wgrave" unicode="&#x1e80;" horiz-adv-x="1125" 
d="M625 756h-138l-143 118h160zM220 0l-201 710h182l114 -461q7 -33 9 -63h4q1 23 12 63l131 461h183l131 -461q11 -40 12 -63h4q1 19 9 63l114 461h183l-202 -710h-203l-128 473q-8 29 -9 57h-5q-2 -28 -9 -57l-128 -473h-203z" />
    <glyph glyph-name="wgrave" unicode="&#x1e81;" horiz-adv-x="930" 
d="M534 569h-137l-163 157h167zM179 0l-165 500h166l86 -308q5 -22 9 -49h2q3 23 10 49l100 308h156l100 -308q7 -26 10 -49h2q1 14 9 49l85 308h167l-165 -500h-175l-99 295q-9 25 -11 47h-3q-2 -26 -10 -47l-99 -295h-175z" />
    <glyph glyph-name="Wacute" unicode="&#x1e82;" horiz-adv-x="1125" 
d="M494 756l121 118h160l-143 -118h-138zM220 0l-201 710h182l114 -461q7 -33 9 -63h4q1 23 12 63l131 461h183l131 -461q11 -40 12 -63h4q1 19 9 63l114 461h183l-202 -710h-203l-128 473q-8 29 -9 57h-5q-2 -28 -9 -57l-128 -473h-203z" />
    <glyph glyph-name="wacute" unicode="&#x1e83;" horiz-adv-x="930" 
d="M395 569l133 157h167l-163 -157h-137zM179 0l-165 500h166l86 -308q5 -22 9 -49h2q3 23 10 49l100 308h156l100 -308q7 -26 10 -49h2q1 14 9 49l85 308h167l-165 -500h-175l-99 295q-9 25 -11 47h-3q-2 -26 -10 -47l-99 -295h-175z" />
    <glyph glyph-name="Wdieresis" unicode="&#x1e84;" horiz-adv-x="1125" 
d="M353 756v117h151v-117h-151zM621 756v117h151v-117h-151zM220 0l-201 710h182l114 -461q7 -33 9 -63h4q1 23 12 63l131 461h183l131 -461q11 -40 12 -63h4q1 19 9 63l114 461h183l-202 -710h-203l-128 473q-8 29 -9 57h-5q-2 -28 -9 -57l-128 -473h-203z" />
    <glyph glyph-name="wdieresis" unicode="&#x1e85;" horiz-adv-x="930" 
d="M254 575v137h155v-137h-155zM520 575v137h156v-137h-156zM179 0l-165 500h166l86 -308q5 -22 9 -49h2q3 23 10 49l100 308h156l100 -308q7 -26 10 -49h2q1 14 9 49l85 308h167l-165 -500h-175l-99 295q-9 25 -11 47h-3q-2 -26 -10 -47l-99 -295h-175z" />
    <glyph glyph-name="Ygrave" unicode="&#x1ef2;" horiz-adv-x="745" 
d="M436 756h-138l-143 118h160zM282 0v249l-287 461h197l161 -275q15 -27 19 -47h2q4 20 19 47l165 275h192l-288 -461v-249h-180z" />
    <glyph glyph-name="ygrave" unicode="&#x1ef3;" horiz-adv-x="635" 
d="M391 569h-137l-163 157h167zM126 -205q-46 0 -85 7v127q35 -6 68 -6q95 0 125 63l4 15l-238 499h189l120 -306q10 -24 16 -56h3q3 20 15 55l115 307h177l-226 -523q-42 -97 -108.5 -139.5t-174.5 -42.5z" />
    <glyph glyph-name="uni2002" unicode="&#x2002;" horiz-adv-x="500" 
 />
    <glyph glyph-name="uni2003" unicode="&#x2003;" horiz-adv-x="1000" 
 />
    <glyph glyph-name="uni2004" unicode="&#x2004;" horiz-adv-x="0" 
 />
    <glyph glyph-name="uni2005" unicode="&#x2005;" horiz-adv-x="250" 
 />
    <glyph glyph-name="uni2009" unicode="&#x2009;" horiz-adv-x="135" 
 />
    <glyph glyph-name="uni200A" unicode="&#x200a;" horiz-adv-x="75" 
 />
    <glyph glyph-name="endash" unicode="&#x2013;" horiz-adv-x="701" 
d="M45 343h611v-131h-611v131z" />
    <glyph glyph-name="emdash" unicode="&#x2014;" horiz-adv-x="952" 
d="M45 344h861v-133h-861v133z" />
    <glyph glyph-name="quoteleft" unicode="&#x2018;" horiz-adv-x="305" 
d="M205 736l28 -69q-44 -12 -61 -32t-17 -54v-3h88v-170h-181v159q0 138 143 169z" />
    <glyph glyph-name="quoteright" unicode="&#x2019;" horiz-adv-x="305" 
d="M100 382l-28 69q44 12 61 32t17 54v3h-88v170h181v-159q0 -138 -143 -169z" />
    <glyph glyph-name="quotesinglbase" unicode="&#x201a;" horiz-adv-x="305" 
d="M100 -158l-28 69q44 12 61 32t17 54v3h-88v170h181v-159q0 -138 -143 -169z" />
    <glyph glyph-name="quotedblleft" unicode="&#x201c;" horiz-adv-x="539" 
d="M205 736l28 -69q-44 -12 -61 -32t-17 -54v-3h88v-170h-181v159q0 138 143 169zM439 736l28 -69q-44 -12 -61 -32t-17 -54v-3h88v-170h-181v159q0 138 143 169z" />
    <glyph glyph-name="quotedblright" unicode="&#x201d;" horiz-adv-x="539" 
d="M100 383l-28 69q44 12 61 32t17 54v3h-88v170h181v-159q0 -138 -143 -169zM334 383l-28 69q44 12 61 32t17 54v3h-88v170h181v-159q0 -138 -143 -169z" />
    <glyph glyph-name="quotedblbase" unicode="&#x201e;" horiz-adv-x="539" 
d="M100 -157l-28 69q44 12 61 32t17 54v3h-88v170h181v-159q0 -138 -143 -169zM334 -157l-28 69q44 12 61 32t17 54v3h-88v170h181v-159q0 -138 -143 -169z" />
    <glyph glyph-name="dagger" unicode="&#x2020;" horiz-adv-x="563" 
d="M340 402v-492h-118v492h-176v98h176v220h118v-220h177v-98h-177z" />
    <glyph glyph-name="daggerdbl" unicode="&#x2021;" horiz-adv-x="563" 
d="M517 402h-177v-172h176v-97h-176v-223h-118v223h-175v97h175v172h-176v98h176v220h118v-220h177v-98z" />
    <glyph glyph-name="bullet" unicode="&#x2022;" horiz-adv-x="384" 
d="M191 212q-56 0 -92.5 35.5t-36.5 91.5q0 57 36.5 93t92.5 36q58 0 94 -35t36 -94q0 -57 -36.5 -92t-93.5 -35z" />
    <glyph glyph-name="ellipsis" unicode="&#x2026;" horiz-adv-x="949" 
d="M247 160v-160h-185v160h185zM567 160v-160h-185v160h185zM886 160v-160h-185v160h185z" />
    <glyph glyph-name="perthousand" unicode="&#x2030;" horiz-adv-x="1475" 
d="M152 -16l576 740h121l-576 -740h-121zM238 338q-102 0 -163 52.5t-60 139.5q-1 86 60 138t162 52q100 0 161.5 -52.5t60.5 -139.5q1 -86 -60.5 -138t-160.5 -52zM238 431q43 0 68 25t25 72q0 48 -25 73.5t-69 25.5t-69.5 -25t-25.5 -72q0 -48 25.5 -73.5t70.5 -25.5z
M763 -15q-102 0 -163 52.5t-60 139.5q-1 86 60 138t162 52q100 0 161.5 -52.5t60.5 -139.5q1 -86 -60.5 -138t-160.5 -52zM1238 -15q-102 0 -163 52.5t-60 139.5q-1 86 60 138t162 52q100 0 161.5 -52.5t60.5 -139.5q1 -86 -60.5 -138t-160.5 -52zM763 78q43 0 68 25t25 72
q0 48 -25 73.5t-69 25.5t-69.5 -25t-25.5 -72q0 -48 25.5 -73.5t70.5 -25.5zM1238 78q43 0 68 25t25 72q0 48 -25 73.5t-69 25.5t-69.5 -25t-25.5 -72q0 -48 25.5 -73.5t70.5 -25.5z" />
    <glyph glyph-name="guilsinglleft" unicode="&#x2039;" horiz-adv-x="390" 
d="M215 67l-195 209l199 206h154l-196 -205l194 -210h-156z" />
    <glyph glyph-name="guilsinglright" unicode="&#x203a;" horiz-adv-x="390" 
d="M175 67h-156l194 210l-196 205h154l199 -206z" />
    <glyph glyph-name="fraction" unicode="&#x2044;" horiz-adv-x="231" 
d="M-199 -17l504 744h126l-504 -744h-126z" />
    <glyph glyph-name="uni20A9" unicode="&#x20a9;" horiz-adv-x="1126" 
d="M1103 391h-93l-20 -73h113v-61h-131l-72 -257h-188l-67 257h-164l-67 -257h-188l-72 257h-131v61h114l-21 73h-93v60h76l-68 244h161l54 -244h167l65 244h170l65 -244h167l54 244h162l-69 -244h76v-60zM537 475l-6 -24h64l-6 24q-16 58 -24 129h-4q-8 -71 -24 -129z
M259 391l16 -73h102l19 73h-137zM496 318h134l-19 73h-96zM851 318l16 73h-137l19 -73h102zM349 214l12 43h-73l9 -40q15 -67 21 -122h4q6 48 27 119zM829 217l9 40h-73l12 -43q21 -71 27 -119h4q6 55 21 122z" />
    <glyph glyph-name="Euro" unicode="&#x20ac;" horiz-adv-x="816" 
d="M634 219l161 -49q-43 -91 -131 -140t-213 -49q-152 0 -247 73.5t-122 198.5h-77v66h67q-1 12 -1 36q0 17 1 25h-67v65h75q27 124 125 196t253 72q125 0 213 -48t123 -133l-164 -48q-45 97 -175 97q-156 0 -195 -136h290v-65h-301q-1 -8 -1 -25q0 -12 2 -36h300v-66h-287
q21 -66 70 -102.5t124 -36.5q128 0 177 105z" />
    <glyph glyph-name="uni20B9" unicode="&#x20b9;" horiz-adv-x="707" 
d="M685 594h-201q33 -39 42 -94h159v-65h-157q-9 -76 -67.5 -125.5t-165.5 -58.5h-14l247 -251h-200l-259 268v75h132q127 0 144 92h-276v65h276q-19 94 -134 94h-142v101h616v-101z" />
    <glyph glyph-name="uni20BA" unicode="&#x20ba;" horiz-adv-x="687" 
d="M528 257l155 -22q-12 -50 -32 -88.5t-54 -73.5t-89 -54t-128 -19h-271v263l-90 -22v68l90 22v76l-90 -22v68l90 22v220h174v-178l252 62v-68l-252 -62v-76l252 62v-68l-252 -62v-178h73q135 0 172 130z" />
    <glyph glyph-name="uni20BD" unicode="&#x20bd;" horiz-adv-x="738" 
d="M448 252h-171v-72h193v-66h-193v-114h-174v114h-100v66h100v72h-100v114h100v329h352q122 0 195 -59t73 -159q0 -105 -73.5 -165t-201.5 -60zM277 573v-207h142q55 0 86 27.5t31 76.5t-31 76t-86 27h-142z" />
    <glyph glyph-name="uni2105" unicode="&#x2105;" horiz-adv-x="1007" 
d="M263 -13h-141l615 746h142zM9 541q0 86 58.5 138.5t161.5 52.5q86 0 141 -38t66 -102l-130 -18q-6 29 -26.5 45t-51.5 16q-41 0 -64.5 -25.5t-23.5 -68.5q0 -44 23.5 -70.5t65.5 -26.5q31 0 51.5 16t26.5 45l129 -18q-12 -63 -66.5 -101.5t-141.5 -38.5q-103 0 -161 54
t-58 140zM775 -12q-99 0 -159 53t-60 141q0 87 59.5 139t158.5 52t159 -52.5t60 -140.5q0 -87 -60 -139.5t-158 -52.5zM861 180q0 45 -23.5 71t-63.5 26t-63.5 -25t-23.5 -70q0 -47 23.5 -72t64.5 -25q40 0 63 25t23 70z" />
    <glyph glyph-name="uni2113" unicode="&#x2113;" horiz-adv-x="605" 
d="M291 212q7 -53 36.5 -75.5t90.5 -22.5q41 0 88 10v-124q-57 -15 -125 -15q-121 0 -182 42.5t-74 128.5q-52 -13 -97 -24l-35 116q84 21 128 35v225q0 115 62 172t166 57q108 0 165.5 -53t57.5 -148q0 -204 -281 -324zM288 546v-201q64 34 94 78t30 108q0 94 -63 94
q-29 0 -45 -20.5t-16 -58.5z" />
    <glyph glyph-name="uni2116" unicode="&#x2116;" horiz-adv-x="1441" 
d="M82 0v710h196l295 -407q31 -45 48 -86h2v94v399h164v-710h-186l-306 412q-37 58 -47 83h-3q1 -30 1 -95v-400h-164zM1117 185q-126 0 -200.5 65.5t-74.5 172.5t74.5 172t200.5 65q127 0 201 -65t74 -172q0 -108 -74.5 -173t-200.5 -65zM1117 299q57 0 89 33.5t32 90.5
q0 56 -32 89t-89 33q-56 0 -88.5 -33t-32.5 -89t32.5 -89.5t88.5 -34.5zM844 0v109h546v-109h-546z" />
    <glyph glyph-name="trademark" unicode="&#x2122;" horiz-adv-x="995" 
d="M146 306v319h-141v87h396v-87h-146v-319h-109zM446 306v406h155l76 -231q14 -43 17 -74h3q6 40 17 74l76 231h155v-406h-97v234q0 56 2 88h-1q-5 -21 -22 -74l-84 -248h-95l-84 248q-11 34 -21 74h-2q2 -32 2 -88v-234h-97z" />
    <glyph glyph-name="uni2126" unicode="&#x2126;" horiz-adv-x="800" 
d="M750 0h-294l-19 268q149 20 149 164q0 74 -49.5 118.5t-136.5 44.5t-136.5 -44.5t-49.5 -118.5q0 -70 38 -112t111 -52l-19 -268h-293v134h170l5 50q-89 26 -137.5 90.5t-48.5 160.5q0 132 99 212t261 80q163 0 261.5 -80t98.5 -212q0 -96 -48.5 -160.5t-137.5 -90.5
l5 -50h171v-134z" />
    <glyph glyph-name="estimated" unicode="&#x212e;" horiz-adv-x="799" 
d="M773 346h-542v-242q74 -46 186 -46q94 0 160 30.5t120 98.5l56 -44q-112 -159 -336 -159q-80 0 -148.5 21.5t-124 64t-87.5 115t-32 166.5q0 175 111.5 271.5t274.5 96.5q166 0 264 -91t98 -242v-40zM582 606q-69 45 -176 45q-101 0 -175 -48v-190h351v193z" />
    <glyph glyph-name="uni2153" unicode="&#x2153;" horiz-adv-x="975" 
d="M106 -17l504 744h126l-504 -744h-126zM128 318v255q-24 -18 -80 -18h-24v92h15q80 0 106 63h88v-392h-105zM753 -11q-87 0 -138.5 35.5t-53.5 97.5l107 10q4 -63 86 -63q78 0 78 48q0 24 -19 34t-65 10h-36v74h37q73 0 73 45q0 44 -72 44q-77 0 -80 -68l-104 14
q2 62 52 97.5t137 35.5q82 0 129 -29t47 -82q0 -35 -24 -58t-65 -30q101 -16 101 -92q0 -57 -52 -90t-138 -33z" />
    <glyph glyph-name="uni2154" unicode="&#x2154;" horiz-adv-x="1105" 
d="M236 -17l504 744h126l-504 -744h-126zM28 318v77q51 22 80 36t66.5 34.5t57.5 37t34 38t14 43.5q0 55 -70 55q-32 0 -52 -15.5t-20 -43.5q0 -8 4 -26l-109 10q-3 15 -3 26q0 60 51 95.5t132 35.5q84 0 132.5 -33.5t48.5 -96.5q0 -67 -55.5 -111.5t-141.5 -76.5h202v-85
h-371zM883 -11q-87 0 -138.5 35.5t-53.5 97.5l107 10q4 -63 86 -63q78 0 78 48q0 24 -19 34t-65 10h-36v74h37q73 0 73 45q0 44 -72 44q-77 0 -80 -68l-104 14q2 62 52 97.5t137 35.5q82 0 129 -29t47 -82q0 -35 -24 -58t-65 -30q101 -16 101 -92q0 -57 -52 -90t-138 -33z
" />
    <glyph glyph-name="oneeighth" unicode="&#x215b;" horiz-adv-x="986" 
d="M610 727h126l-504 -744h-126zM128 318v255q-24 -18 -80 -18h-24v92h15q80 0 106 63h88v-392h-105zM873 216q85 -31 85 -105q0 -56 -53.5 -89t-143.5 -33t-143.5 31t-53.5 82q0 72 83 95q-69 30 -69 93q0 51 49.5 82t132.5 31t132 -28.5t49 -76.5q0 -60 -68 -82zM759 333
q-76 0 -76 -42q0 -33 74 -48l37 -8q42 20 42 52q0 46 -77 46zM763 64q39 0 62.5 13.5t23.5 35.5q0 36 -78 52l-46 10q-52 -18 -52 -58q0 -23 24.5 -38t65.5 -15z" />
    <glyph glyph-name="threeeighths" unicode="&#x215c;" horiz-adv-x="1120" 
d="M744 727h126l-504 -744h-126zM407 430q0 -57 -52 -90t-138 -33q-87 0 -138.5 35.5t-53.5 97.5l107 10q4 -63 86 -63q78 0 78 48q0 24 -19 34t-65 10h-36v74h37q73 0 73 45q0 44 -72 44q-77 0 -80 -68l-104 14q2 62 52 97.5t137 35.5q82 0 129 -29t47 -82q0 -35 -24 -58
t-65 -30q101 -16 101 -92zM1007 216q85 -31 85 -105q0 -56 -53.5 -89t-143.5 -33t-143.5 31t-53.5 82q0 72 83 95q-69 30 -69 93q0 51 49.5 82t132.5 31t132 -28.5t49 -76.5q0 -60 -68 -82zM893 333q-76 0 -76 -42q0 -33 74 -48l37 -8q42 20 42 52q0 46 -77 46zM897 64
q39 0 62.5 13.5t23.5 35.5q0 36 -78 52l-46 10q-52 -18 -52 -58q0 -23 24.5 -38t65.5 -15z" />
    <glyph glyph-name="fiveeighths" unicode="&#x215d;" horiz-adv-x="1113" 
d="M737 727h126l-504 -744h-126zM402 452q0 -67 -50 -106t-137 -39q-76 0 -125 30.5t-59 83.5l105 15q13 -48 81 -48q37 0 57 16t20 45q0 31 -19.5 48.5t-56.5 17.5q-60 0 -78 -41l-97 8l27 228h306v-77h-226l-12 -82q33 39 112 39q72 0 112 -36.5t40 -101.5zM1000 216
q85 -31 85 -105q0 -56 -53.5 -89t-143.5 -33t-143.5 31t-53.5 82q0 72 83 95q-69 30 -69 93q0 51 49.5 82t132.5 31t132 -28.5t49 -76.5q0 -60 -68 -82zM886 333q-76 0 -76 -42q0 -33 74 -48l37 -8q42 20 42 52q0 46 -77 46zM890 64q39 0 62.5 13.5t23.5 35.5q0 36 -78 52
l-46 10q-52 -18 -52 -58q0 -23 24.5 -38t65.5 -15z" />
    <glyph glyph-name="seveneighths" unicode="&#x215e;" horiz-adv-x="1015" 
d="M639 727h126l-504 -744h-126zM91 320q3 82 47 163.5t119 139.5h-239v87h349v-78q-72 -57 -113.5 -136.5t-44.5 -171.5v-6h-118v2zM902 216q85 -31 85 -105q0 -56 -53.5 -89t-143.5 -33t-143.5 31t-53.5 82q0 72 83 95q-69 30 -69 93q0 51 49.5 82t132.5 31t132 -28.5
t49 -76.5q0 -60 -68 -82zM788 333q-76 0 -76 -42q0 -33 74 -48l37 -8q42 20 42 52q0 46 -77 46zM792 64q39 0 62.5 13.5t23.5 35.5q0 36 -78 52l-46 10q-52 -18 -52 -58q0 -23 24.5 -38t65.5 -15z" />
    <glyph glyph-name="arrowleft" unicode="&#x2190;" horiz-adv-x="1116" 
d="M1034 287h-753v-107l-199 150l199 150v-107h753v-86z" />
    <glyph glyph-name="arrowup" unicode="&#x2191;" horiz-adv-x="463" 
d="M185 -35v586h-103l149 199l150 -199h-104v-586h-92z" />
    <glyph glyph-name="arrowright" unicode="&#x2192;" horiz-adv-x="1116" 
d="M82 373h753v107l199 -150l-199 -150v107h-753v86z" />
    <glyph glyph-name="arrowdown" unicode="&#x2193;" horiz-adv-x="463" 
d="M278 745v-586h103l-149 -199l-150 199h104v586h92z" />
    <glyph glyph-name="arrowboth" unicode="&#x2194;" horiz-adv-x="1074" 
d="M793 287h-512v-107l-199 150l199 150v-107h512v107l200 -150l-200 -150v107z" />
    <glyph glyph-name="arrowupdn" unicode="&#x2195;" horiz-adv-x="463" 
d="M82 160h103v391h-103l149 199l150 -199h-104v-391h104l-150 -199z" />
    <glyph glyph-name="uni2196" unicode="&#x2196;" horiz-adv-x="893" 
d="M175 553l-93 -100v257h243l-88 -92l575 -574l-62 -66z" />
    <glyph glyph-name="uni2197" unicode="&#x2197;" horiz-adv-x="893" 
d="M718 554l-575 -575l-62 66l575 574l-88 92h243v-257z" />
    <glyph glyph-name="uni2198" unicode="&#x2198;" horiz-adv-x="893" 
d="M718 168l93 100v-257h-243l88 92l-575 574l62 66z" />
    <glyph glyph-name="uni2199" unicode="&#x2199;" horiz-adv-x="893" 
d="M175 168l575 575l62 -66l-575 -574l88 -92h-243v257z" />
    <glyph glyph-name="uni21A9" unicode="&#x21a9;" horiz-adv-x="1085" 
d="M281 180l-199 150l199 150v-107h469q77 0 117 31.5t40 89.5q0 119 -157 119h-313v86h320q119 0 182.5 -53t63.5 -151q0 -99 -65 -153.5t-189 -54.5h-468v-107z" />
    <glyph glyph-name="uni21AA" unicode="&#x21aa;" horiz-adv-x="1085" 
d="M804 180v107h-468q-124 0 -189 54.5t-65 153.5q0 98 63.5 151t182.5 53h320v-86h-313q-157 0 -157 -119q0 -58 40 -89.5t117 -31.5h469v107l199 -150z" />
    <glyph glyph-name="uni21B0" unicode="&#x21b0;" horiz-adv-x="993" 
d="M819 0v557h-538v-107l-199 150l199 150v-107h630v-643h-92z" />
    <glyph glyph-name="uni21B1" unicode="&#x21b1;" horiz-adv-x="993" 
d="M174 0h-92v643h630v107l199 -150l-199 -150v107h-538v-557z" />
    <glyph glyph-name="uni21B2" unicode="&#x21b2;" horiz-adv-x="993" 
d="M819 710h92v-643h-630v-107l-199 150l199 150v-107h538v557z" />
    <glyph glyph-name="uni21B3" unicode="&#x21b3;" horiz-adv-x="993" 
d="M174 710v-557h538v107l199 -150l-199 -150v107h-630v643h92z" />
    <glyph glyph-name="uni21B4" unicode="&#x21b4;" horiz-adv-x="1084" 
d="M899 726v-557h103l-149 -199l-150 199h104v471h-725v86h817z" />
    <glyph glyph-name="uni21BB" unicode="&#x21bb;" horiz-adv-x="1106" 
d="M874 188l-150 199h105q-13 118 -104 189.5t-222 71.5q-140 0 -232.5 -81t-92.5 -213q0 -131 92.5 -213.5t232.5 -82.5q157 0 259 102l60 -68q-128 -122 -319 -122q-180 0 -300.5 107.5t-120.5 275.5t120 275.5t301 107.5q171 0 288 -97t130 -252h103z" />
    <glyph glyph-name="uni21C4" unicode="&#x21c4;" horiz-adv-x="1163" 
d="M1005 407h-724v-107l-199 150l199 150v-107h724v-86zM882 252v107l199 -150l-199 -149v106h-723v86h723z" />
    <glyph glyph-name="uni21C5" unicode="&#x21c5;" horiz-adv-x="721" 
d="M443 15v538h-104l150 199l150 -199h-104v-538h-92zM231 -40l-149 199h103v542h92v-542h104z" />
    <glyph glyph-name="partialdiff" unicode="&#x2202;" horiz-adv-x="721" 
d="M304 721q180 0 274.5 -98.5t94.5 -284.5q0 -170 -88 -262.5t-252 -92.5q-136 0 -217 66t-81 178q0 106 72 169.5t196 63.5q131 0 203 -77q-8 202 -206 202q-70 0 -142 -32l-59 120q89 48 205 48zM343 102q71 0 115.5 43.5t47.5 120.5q-54 77 -161 77q-67 0 -103.5 -31.5
t-36.5 -85.5q0 -55 38 -89.5t100 -34.5z" />
    <glyph glyph-name="emptyset" unicode="&#x2205;" horiz-adv-x="598" 
d="M571 517l-61 -58q56 -62 56 -154q0 -107 -73.5 -172t-193.5 -65q-92 0 -161 41l-65 -61l-46 44l62 58q-57 63 -57 154q0 107 74 172.5t193 65.5q94 0 161 -42l65 61zM161 305q0 -39 19 -69l190 179q-30 15 -71 15q-62 0 -100 -34t-38 -91zM437 304q0 39 -19 69l-190 -179
q30 -15 71 -15q62 0 100 34t38 91z" />
    <glyph glyph-name="uni2206" unicode="&#x2206;" horiz-adv-x="802" 
d="M14 0l299 707h179l296 -707h-774zM400 543l-169 -416h336z" />
    <glyph glyph-name="product" unicode="&#x220f;" horiz-adv-x="795" 
d="M552 -88v653h-309v-653h-164v793h637v-793h-164z" />
    <glyph glyph-name="summation" unicode="&#x2211;" horiz-adv-x="695" 
d="M50 -88v129l292 285l-279 251v128h572v-129h-370l274 -249l-297 -286h405v-129h-597z" />
    <glyph glyph-name="minus" unicode="&#x2212;" horiz-adv-x="620" 
d="M45 273v111h530v-111h-530z" />
    <glyph glyph-name="radical" unicode="&#x221a;" horiz-adv-x="705" 
d="M24 363h194l93 -285l213 656h159l-288 -828h-166l-117 325h-88v132z" />
    <glyph glyph-name="infinity" unicode="&#x221e;" horiz-adv-x="701" 
d="M507 494q73 0 118.5 -44.5t45.5 -120.5q0 -74 -46.5 -120.5t-117.5 -46.5q-94 0 -158 84q-65 -84 -155 -84q-72 0 -118 44.5t-46 120.5q0 74 46.5 120.5t117.5 46.5q94 0 158 -84q65 84 155 84zM206 261q28 0 49 16.5t42 48.5q-42 69 -91 69q-30 0 -48 -17.5t-18 -49.5
t18.5 -49.5t47.5 -17.5zM496 261q29 0 47 17.5t18 49.5t-18.5 49.5t-47.5 17.5q-28 0 -48.5 -16t-41.5 -49q41 -69 91 -69z" />
    <glyph glyph-name="integral" unicode="&#x222b;" horiz-adv-x="599" 
d="M138 -115q-34 0 -73 6v121q30 -3 56 -3q50 0 72.5 25.5t22.5 85.5v378q0 107 61 164t176 57q32 0 78 -6v-122q-24 4 -55 4q-50 0 -73 -26.5t-23 -85.5v-380q0 -106 -62.5 -162t-179.5 -56z" />
    <glyph glyph-name="approxequal" unicode="&#x2248;" 
d="M479 345q-46 0 -134 31.5t-124 31.5q-37 0 -74 -13.5t-61 -34.5v112q22 20 60 33t74 13q55 0 138 -32t119 -32q38 0 74.5 13.5t59.5 34.5v-111q-20 -20 -57.5 -33t-74.5 -13zM479 150q-46 0 -134 32t-124 32q-37 0 -74 -13.5t-61 -34.5v111q22 20 60 33.5t74 13.5
q55 0 138 -32t119 -32q38 0 74.5 13.5t59.5 34.5v-112q-20 -20 -57.5 -33t-74.5 -13z" />
    <glyph glyph-name="notequal" unicode="&#x2260;" 
d="M592 372h-188l-38 -86h226v-106h-274l-52 -117h-85l52 117h-165v106h213l38 86h-251v106h298l51 113h85l-51 -113h141v-106z" />
    <glyph glyph-name="lessequal" unicode="&#x2264;" 
d="M595 137l-511 200v110l511 200v-121l-373 -133l373 -133v-123zM86 104h510v-104h-510v104z" />
    <glyph glyph-name="greaterequal" unicode="&#x2265;" 
d="M102 137v123l373 133l-373 133v121l511 -200v-110zM611 104v-104h-510v104h510z" />
    <glyph glyph-name="uni2460" unicode="&#x2460;" horiz-adv-x="854" 
d="M427 -20q-175 0 -288.5 102t-113.5 273t113 273t289 102t289 -101.5t113 -273.5q0 -171 -113 -273t-289 -102zM427 40q144 0 238.5 86t94.5 229q0 144 -94.5 229.5t-238.5 85.5t-238.5 -85.5t-94.5 -229.5q0 -143 94.5 -229t238.5 -86zM392 158v255q-24 -18 -80 -18h-24
v92h15q80 0 106 63h88v-392h-105z" />
    <glyph glyph-name="uni2461" unicode="&#x2461;" horiz-adv-x="854" 
d="M427 -20q-175 0 -288.5 102t-113.5 273t113 273t289 102t289 -101.5t113 -273.5q0 -171 -113 -273t-289 -102zM427 40q144 0 238.5 86t94.5 229q0 144 -94.5 229.5t-238.5 85.5t-238.5 -85.5t-94.5 -229.5q0 -143 94.5 -229t238.5 -86zM242 168v77q51 22 80 36t66.5 34.5
t57.5 37t34 38t14 43.5q0 55 -70 55q-32 0 -52 -15.5t-20 -43.5q0 -8 4 -26l-109 10q-3 15 -3 26q0 60 51 95.5t132 35.5q84 0 132.5 -33.5t48.5 -96.5q0 -67 -55.5 -111.5t-141.5 -76.5h202v-85h-371z" />
    <glyph glyph-name="uni2462" unicode="&#x2462;" horiz-adv-x="854" 
d="M427 -20q-175 0 -288.5 102t-113.5 273t113 273t289 102t289 -101.5t113 -273.5q0 -171 -113 -273t-289 -102zM427 40q144 0 238.5 86t94.5 229q0 144 -94.5 229.5t-238.5 85.5t-238.5 -85.5t-94.5 -229.5q0 -143 94.5 -229t238.5 -86zM429 148q-87 0 -138.5 35.5
t-53.5 97.5l107 10q4 -63 86 -63q78 0 78 48q0 24 -19 34t-65 10h-36v74h37q73 0 73 45q0 44 -72 44q-77 0 -80 -68l-104 14q2 62 52 97.5t137 35.5q82 0 129 -29t47 -82q0 -35 -24 -58t-65 -30q101 -16 101 -92q0 -57 -52 -90t-138 -33z" />
    <glyph glyph-name="uni2463" unicode="&#x2463;" horiz-adv-x="854" 
d="M427 -20q-175 0 -288.5 102t-113.5 273t113 273t289 102t289 -101.5t113 -273.5q0 -171 -113 -273t-289 -102zM427 40q144 0 238.5 86t94.5 229q0 144 -94.5 229.5t-238.5 85.5t-238.5 -85.5t-94.5 -229.5q0 -143 94.5 -229t238.5 -86zM618 247h-75v-83h-103v83h-236v69
l219 240h120v-234h75v-75zM440 470l-133 -148h133v148z" />
    <glyph glyph-name="uni2464" unicode="&#x2464;" horiz-adv-x="854" 
d="M427 -20q-175 0 -288.5 102t-113.5 273t113 273t289 102t289 -101.5t113 -273.5q0 -171 -113 -273t-289 -102zM427 40q144 0 238.5 86t94.5 229q0 144 -94.5 229.5t-238.5 85.5t-238.5 -85.5t-94.5 -229.5q0 -143 94.5 -229t238.5 -86zM424 154q-76 0 -125 30.5t-59 83.5
l105 15q13 -48 81 -48q37 0 57 16t20 45q0 31 -19.5 48.5t-56.5 17.5q-60 0 -78 -41l-97 8l27 228h306v-77h-226l-12 -82q33 39 112 39q72 0 112 -36.5t40 -101.5q0 -67 -50 -106t-137 -39z" />
    <glyph glyph-name="uni2465" unicode="&#x2465;" horiz-adv-x="854" 
d="M427 730q176 0 289 -101.5t113 -273.5q0 -171 -113 -273t-289 -102q-175 0 -288.5 102t-113.5 273t113 273t289 102zM427 40q144 0 238.5 86t94.5 229q0 144 -94.5 229.5t-238.5 85.5t-238.5 -85.5t-94.5 -229.5q0 -143 94.5 -229t238.5 -86zM454 425q73 0 114.5 -35
t41.5 -98q0 -65 -50.5 -104.5t-131.5 -39.5q-95 0 -146 53t-51 146q0 102 53 158.5t148 56.5q72 0 117.5 -25.5t56.5 -73.5l-105 -17q-16 40 -71 40q-87 0 -97 -103q39 42 121 42zM427 227q36 0 57 16.5t21 45.5q0 28 -20.5 44t-56.5 16q-64 0 -91 -47q18 -75 90 -75z" />
    <glyph glyph-name="uni2466" unicode="&#x2466;" horiz-adv-x="854" 
d="M427 -20q-175 0 -288.5 102t-113.5 273t113 273t289 102t289 -101.5t113 -273.5q0 -171 -113 -273t-289 -102zM427 40q144 0 238.5 86t94.5 229q0 144 -94.5 229.5t-238.5 85.5t-238.5 -85.5t-94.5 -229.5q0 -143 94.5 -229t238.5 -86zM254 464v87h349v-78
q-72 -57 -113.5 -136.5t-44.5 -171.5v-6h-118v2q3 82 47 163.5t119 139.5h-239z" />
    <glyph glyph-name="uni2467" unicode="&#x2467;" horiz-adv-x="854" 
d="M427 730q176 0 289 -101.5t113 -273.5q0 -171 -113 -273t-289 -102q-175 0 -288.5 102t-113.5 273t113 273t289 102zM427 40q144 0 238.5 86t94.5 229q0 144 -94.5 229.5t-238.5 85.5t-238.5 -85.5t-94.5 -229.5q0 -143 94.5 -229t238.5 -86zM539 375q85 -31 85 -105
q0 -56 -53.5 -89t-143.5 -33t-143.5 31t-53.5 82q0 72 83 95q-69 30 -69 93q0 51 49.5 82t132.5 31t132 -28.5t49 -76.5q0 -60 -68 -82zM425 492q-76 0 -76 -42q0 -33 74 -48l37 -8q42 20 42 52q0 46 -77 46zM429 223q39 0 62.5 13.5t23.5 35.5q0 36 -78 52l-46 10
q-52 -18 -52 -58q0 -24 24.5 -38.5t65.5 -14.5z" />
    <glyph glyph-name="uni2468" unicode="&#x2468;" horiz-adv-x="854" 
d="M427 730q176 0 289 -101.5t113 -273.5q0 -171 -113 -273t-289 -102q-175 0 -288.5 102t-113.5 273t113 273t289 102zM427 40q144 0 238.5 86t94.5 229q0 144 -94.5 229.5t-238.5 85.5t-238.5 -85.5t-94.5 -229.5q0 -143 94.5 -229t238.5 -86zM421 562q96 0 146 -51.5
t50 -147.5q0 -101 -50.5 -158t-147.5 -57q-72 0 -119 28.5t-59 79.5l105 18q16 -46 77 -46q81 0 90 102q-41 -33 -113 -33q-76 0 -119.5 34t-43.5 95q0 62 50.5 99t133.5 37zM420 373q61 0 90 36q-15 77 -88 77q-36 0 -57.5 -15.5t-21.5 -43.5q0 -25 20.5 -39.5t56.5 -14.5z
" />
    <glyph glyph-name="uni24EA" unicode="&#x24ea;" horiz-adv-x="854" 
d="M427 -20q-175 0 -288.5 102t-113.5 273t113 273t289 102t289 -101.5t113 -273.5q0 -171 -113 -273t-289 -102zM427 40q144 0 238.5 86t94.5 229q0 144 -94.5 229.5t-238.5 85.5t-238.5 -85.5t-94.5 -229.5q0 -143 94.5 -229t238.5 -86zM427 148q-96 0 -152.5 55.5
t-56.5 151.5q0 97 56 152t153 55t153.5 -55t56.5 -152q0 -96 -56.5 -151.5t-153.5 -55.5zM427 229q47 0 73.5 32.5t26.5 93.5q0 62 -26.5 94t-73.5 32t-73.5 -32.5t-26.5 -93.5t26.5 -93.5t73.5 -32.5z" />
    <glyph glyph-name="uni24FF" unicode="&#x24ff;" horiz-adv-x="854" 
d="M427 -20q-175 0 -288.5 102t-113.5 273t113.5 273t288.5 102q176 0 289 -102t113 -273t-113 -273t-289 -102zM427 148q97 0 153.5 55.5t56.5 151.5q0 97 -56 152t-153 55t-153.5 -55t-56.5 -152q0 -96 56.5 -151.5t152.5 -55.5zM427 231q-46 0 -72 31.5t-26 92.5t26 93
t73 32q46 0 72 -31.5t26 -93.5q0 -61 -26 -92.5t-73 -31.5z" />
    <glyph glyph-name="lozenge" unicode="&#x25ca;" horiz-adv-x="649" 
d="M394 -17h-141l-226 372l226 372h141l228 -372zM323 599l-144 -244l144 -244l147 244z" />
    <glyph glyph-name="circle" unicode="&#x25cb;" horiz-adv-x="854" 
d="M427 -20q-175 0 -288.5 102t-113.5 273t113 273t289 102t289 -101.5t113 -273.5q0 -171 -113 -273t-289 -102zM427 40q144 0 238.5 86t94.5 229q0 144 -94.5 229.5t-238.5 85.5t-238.5 -85.5t-94.5 -229.5q0 -143 94.5 -229t238.5 -86z" />
    <glyph glyph-name="uni2776" unicode="&#x2776;" horiz-adv-x="854" 
d="M427 -20q-175 0 -288.5 102t-113.5 273t113.5 273t288.5 102q176 0 289 -102t113 -273t-113 -273t-289 -102zM391 158h107v392h-89q-26 -63 -107 -63h-14v-94h24q56 0 79 19v-254z" />
    <glyph glyph-name="uni2777" unicode="&#x2777;" horiz-adv-x="854" 
d="M427 -20q-175 0 -288.5 102t-113.5 273t113.5 273t288.5 102q176 0 289 -102t113 -273t-113 -273t-289 -102zM242 166h371v86h-201q196 74 196 188q0 63 -48 96t-133 33q-82 0 -133 -35t-51 -95q0 -11 3 -26l111 -10q-3 13 -3 25q0 28 19.5 43t50.5 15q33 0 51 -14
t18 -40q0 -27 -18 -51.5t-58.5 -49.5t-75.5 -42t-99 -46v-77z" />
    <glyph glyph-name="uni2778" unicode="&#x2778;" horiz-adv-x="854" 
d="M427 -20q-175 0 -288.5 102t-113.5 273t113.5 273t288.5 102q176 0 289 -102t113 -273t-113 -273t-289 -102zM429 148q86 0 138 32.5t52 88.5q0 78 -101 94q41 7 65.5 30t24.5 57q0 54 -47.5 83t-130.5 29q-87 0 -137.5 -35.5t-51.5 -97.5l107 -14q2 67 78 67
q70 0 70 -45q0 -44 -69 -44h-35v-71h35q79 0 79 -45q0 -48 -76 -48q-80 0 -85 63l-109 -11q2 -62 54 -97.5t139 -35.5z" />
    <glyph glyph-name="uni2779" unicode="&#x2779;" horiz-adv-x="854" 
d="M427 -20q-175 0 -288.5 102t-113.5 273t113.5 273t288.5 102q176 0 289 -102t113 -273t-113 -273t-289 -102zM447 161h105v82h75v77h-75v233h-121l-219 -240v-70h235v-82zM316 320l131 146v-146h-131z" />
    <glyph glyph-name="uni277A" unicode="&#x277a;" horiz-adv-x="854" 
d="M427 -20q-175 0 -288.5 102t-113.5 273t113.5 273t288.5 102q176 0 289 -102t113 -273t-113 -273t-289 -102zM424 154q87 0 137 39t50 105q0 65 -40 101.5t-112 36.5q-79 0 -111 -38l12 80h226v79h-308l-26 -228l97 -9q18 40 77 40q37 0 56.5 -17t19.5 -47q0 -29 -20 -45
t-57 -16q-66 0 -79 48l-107 -16q10 -53 59.5 -83t125.5 -30z" />
    <glyph glyph-name="uni277B" unicode="&#x277b;" horiz-adv-x="854" 
d="M427 -20q-175 0 -288.5 102t-113.5 273t113.5 273t288.5 102q176 0 289 -102t113 -273t-113 -273t-289 -102zM428 148q81 0 132 39.5t51 104.5q0 63 -41.5 98t-114.5 35q-85 0 -119 -43q7 103 94 103q55 0 70 -39l107 17q-12 48 -57 73.5t-117 25.5q-96 0 -149 -56
t-53 -159q0 -93 51 -146t146 -53zM427 228q-71 0 -88 76q27 44 89 44q35 0 55.5 -15.5t20.5 -42.5q0 -29 -21 -45.5t-56 -16.5z" />
    <glyph glyph-name="uni277C" unicode="&#x277c;" horiz-adv-x="854" 
d="M427 -20q-175 0 -288.5 102t-113.5 273t113.5 273t288.5 102q176 0 289 -102t113 -273t-113 -273t-289 -102zM327 159h120q5 194 156 313v79h-350v-88h239q-76 -59 -119 -140t-46 -164z" />
    <glyph glyph-name="uni277D" unicode="&#x277d;" horiz-adv-x="854" 
d="M427 -20q-176 0 -289 102t-113 273t113 273t289 102t289 -102t113 -273t-113 -273t-289 -102zM428 148q90 0 143.5 33t53.5 89q0 80 -92 106q75 22 75 81q0 49 -49 77t-133 28q-83 0 -133 -31t-50 -82q0 -66 79 -94q-92 -18 -92 -94q0 -51 54 -82t144 -31zM460 396l-36 6
q-73 14 -73 48q0 41 75 41t75 -46q0 -34 -41 -49zM429 224q-40 0 -64 15t-24 39q0 39 52 55l43 -9q78 -16 78 -51q0 -22 -23.5 -35.5t-61.5 -13.5z" />
    <glyph glyph-name="uni277E" unicode="&#x277e;" horiz-adv-x="854" 
d="M427 -20q-175 0 -288.5 102t-113.5 273t113.5 273t288.5 102q176 0 289 -102t113 -273t-113 -273t-289 -102zM423 148q98 0 148.5 56.5t50.5 158.5q0 96 -50 147.5t-147 51.5q-83 0 -133.5 -37t-50.5 -99q0 -61 43.5 -95t119.5 -34q71 0 112 32q-7 -100 -89 -100
q-61 0 -75 45l-107 -18q12 -52 59 -80t119 -28zM424 373q-34 0 -55 15t-21 39q0 27 21.5 42.5t57.5 15.5q38 0 58 -19t27 -60q-30 -33 -88 -33z" />
    <glyph glyph-name="uniE000" unicode="&#xe000;" horiz-adv-x="1084" 
d="M185 726h817v-86h-725v-471h104l-150 -199l-149 199h103v557z" />
    <glyph glyph-name="i.loclTRK" horiz-adv-x="319" 
d="M70 572v149h180v-149h-180zM74 0v500h171v-500h-171z" />
    <glyph glyph-name="dollar.tf" 
d="M662 199q0 -101 -71.5 -156.5t-203.5 -60.5v-88h-55v89q-116 6 -194 54.5t-109 131.5l142 59q43 -106 161 -121v180l-63 12q-207 44 -207 211q0 93 71 146t199 57v86h55v-87q104 -6 172 -49.5t93 -119.5l-132 -57q-27 92 -133 107v-176l80 -16q101 -21 148 -69t47 -133z
M321 431l11 -2v166q-111 -5 -111 -79q0 -36 23.5 -55t76.5 -30zM387 104q115 3 115 82q0 36 -22 56t-73 31l-20 4v-173z" />
    <glyph glyph-name="cent.tf" 
d="M384 95q92 15 111 106l148 -29q-18 -77 -84 -129.5t-175 -58.5v-85h-59v85q-131 8 -202.5 82.5t-71.5 184.5q0 112 70 184t204 81v78h59v-78q108 -5 175 -54t85 -132l-150 -24q-20 88 -110 103v-314zM204 254q0 -64 31.5 -107t89.5 -52v314q-58 -8 -89.5 -50t-31.5 -105z
" />
    <glyph glyph-name="sterling.tf" 
d="M510 202l159 -22q-13 -94 -71 -145.5t-144 -51.5q-41 0 -107.5 14t-118.5 14q-82 0 -172 -19l-32 94q129 39 129 168q0 34 -6 63h-96v80h76q-15 54 -15 95q0 104 70 162.5t191 58.5q229 0 264 -185l-158 -33q-15 100 -105 100q-100 0 -100 -100q0 -40 14 -98h162v-80
h-143q3 -21 3 -46q0 -54 -27.5 -93t-77.5 -58q30 6 73 6q28 0 72.5 -7t71.5 -7q36 0 59.5 23t28.5 67z" />
    <glyph glyph-name="florin.tf" 
d="M541 591q-52 0 -76.5 -25t-33.5 -85l-7 -52h140v-112h-155l-63 -467h-179l63 467h-126v112h141l6 41q18 131 82 188t193 57q40 0 81 -9v-122q-40 7 -66 7z" />
    <glyph glyph-name="yen.tf" 
d="M681 695l-231 -381h170v-69h-186v-60h186v-69h-186v-116h-172v116h-185v69h185v60h-185v69h169l-230 381h187l120 -231q16 -30 24 -62h2q9 33 25 62l120 231h187z" />
    <glyph glyph-name="Euro.tf" 
d="M394 109q87 0 123 103l153 -49q-29 -87 -102.5 -134.5t-177.5 -47.5q-132 0 -209.5 74t-95.5 201h-63v65h58v12v48v1h-58v65h63q18 124 99.5 195.5t213.5 71.5q103 0 175 -45t98 -132l-156 -48q-33 101 -121 101q-116 0 -136 -143h196v-65h-199v-55v-6h199v-65h-194
q20 -147 134 -147z" />
    <glyph glyph-name="perthousand.tf" 
d="M171 414q-67 0 -106.5 40t-39.5 110q0 71 39.5 111t106.5 40q66 0 105.5 -40t39.5 -111q0 -70 -39.5 -110t-105.5 -40zM120 572v-15q0 -67 51 -67q24 0 37.5 17.5t13.5 49.5v15q0 32 -13.5 49.5t-37.5 17.5q-51 0 -51 -67zM623 590v-82l-570 -302v84zM526 287
q66 0 105.5 -40t39.5 -111t-39.5 -111t-105.5 -40q-58 0 -94 34q-37 -34 -94 -34q-67 0 -106 40t-39 111t39 111t106 40q57 0 94 -34q36 34 94 34zM389 129v14q0 67 -51 67t-51 -67v-14q0 -68 51 -68q24 0 37.5 18t13.5 50zM577 129v14q0 67 -51 67q-52 0 -52 -67v-14
q0 -32 13.5 -50t38.5 -18q24 0 37.5 18t13.5 50z" />
    <glyph glyph-name="zero.zero" horiz-adv-x="763" 
d="M381 714q159 0 252 -98t93 -269t-93 -268.5t-252 -97.5q-158 0 -251 97.5t-93 268.5t92.5 269t251.5 98zM381 584q-77 0 -121.5 -61t-44.5 -176q0 -68 17 -119l268 300q-44 56 -119 56zM381 111q78 0 122.5 60.5t44.5 175.5q0 66 -15 114l-267 -298q43 -52 115 -52z" />
    <glyph glyph-name="zero.tf" 
d="M348 -19q-148 0 -231 92t-83 274q0 183 83 275t231 92q149 0 231.5 -92t83.5 -275q-1 -182 -84 -274t-231 -92zM348 103q72 0 106.5 59t34.5 185t-35 185.5t-106 59.5t-105.5 -59.5t-34.5 -185.5t34.5 -185t105.5 -59z" />
    <glyph glyph-name="one.tf" 
d="M457 135h194v-135h-577v135h211v340q-55 -52 -169 -52h-37v150h26q154 0 209 122h143v-560z" />
    <glyph glyph-name="two.tf" 
d="M52 0v120q176 97 298 202q51 43 72 80.5t21 83.5q0 45 -26.5 71.5t-76.5 26.5t-80 -28t-31 -79q0 -11 2 -39l-171 17q-3 23 -2 37q2 101 82.5 161.5t202.5 60.5q132 0 204 -57.5t72 -161.5q0 -62 -26 -112t-85 -102q-79 -70 -232 -148h359v-133h-583z" />
    <glyph glyph-name="three.tf" 
d="M351 -19q-138 0 -218 61.5t-83 167.5l174 16q4 -57 36 -88t91 -31q56 0 86 25.5t30 72.5q0 46 -32.5 69.5t-91.5 23.5h-44l1 108h39q53 0 83 25.5t30 69.5q0 41 -26.5 64t-78.5 23q-57 0 -87 -31t-31 -90l-173 20q0 101 77.5 164t218.5 63q130 0 202.5 -52t72.5 -143
q0 -62 -41.5 -104.5t-103.5 -54.5q76 -12 119.5 -55.5t43.5 -116.5q0 -94 -79 -150.5t-215 -56.5z" />
    <glyph glyph-name="four.tf" 
d="M395 0v153h-368v109l338 433h190v-421h114v-121h-114v-153h-160zM176 274h219v209q0 51 3 82h-2q-14 -37 -43 -75l-128 -164q-26 -33 -49 -52z" />
    <glyph glyph-name="five.tf" 
d="M341 -19q-120 0 -197 54.5t-89 145.5l164 22q9 -43 42.5 -68t84.5 -25q57 0 89 33t32 90q0 58 -30 91.5t-88 33.5q-45 0 -77 -21t-45 -58l-148 13l43 403h470v-130h-348l-20 -164q57 73 175 73q110 0 174 -64t64 -175q0 -115 -80.5 -184.5t-215.5 -69.5z" />
    <glyph glyph-name="six.tf" 
d="M399 472q116 0 182 -63t66 -174q0 -114 -78.5 -184t-208.5 -70q-150 0 -232 93t-82 263q0 179 83 278t234 99q114 0 186.5 -49t89.5 -138l-168 -25q-21 86 -114 86q-67 0 -104 -52t-40 -148q61 84 186 84zM359 107q55 0 87.5 34t32.5 89q0 58 -31 90t-86 32
q-51 0 -88.5 -28.5t-54.5 -78.5q10 -67 46 -102.5t94 -35.5z" />
    <glyph glyph-name="seven.tf" 
d="M190 0v14q0 151 71.5 290t202.5 253h-403v138h577v-129q-258 -227 -258 -535v-31h-190z" />
    <glyph glyph-name="eight.tf" 
d="M510 384q75 -25 113 -70.5t38 -120.5q0 -98 -84 -155t-228 -57q-145 0 -229 53.5t-84 145.5q0 129 148 165q-63 24 -95.5 65t-32.5 107q0 88 81 142.5t210 54.5t207.5 -49t78.5 -134q0 -111 -123 -147zM345 602q-56 0 -87 -22.5t-31 -63.5q0 -36 28.5 -57.5t83.5 -34.5
l59 -13q70 32 70 99q0 43 -32 67.5t-91 24.5zM352 102q63 0 100 25.5t37 69.5q0 41 -32 64.5t-96 38.5l-65 14q-87 -35 -87 -111q0 -47 38 -74t105 -27z" />
    <glyph glyph-name="nine.tf" 
d="M337 714q150 0 231.5 -91t81.5 -264q0 -181 -79 -279.5t-233 -98.5q-116 0 -190.5 49.5t-92.5 141.5l168 27q25 -89 123 -89q67 0 101.5 53t35.5 154q-59 -73 -177 -73q-121 0 -191 61t-70 168q0 109 79 175t213 66zM338 365q53 0 91.5 26t51.5 69q-9 61 -44.5 96.5
t-96.5 35.5q-58 0 -92.5 -31.5t-34.5 -85.5q0 -50 34.5 -80t90.5 -30z" />
    <glyph glyph-name="gcommaaccent.ss01" horiz-adv-x="722" 
d="M392 769l26 -51q-31 -7 -43 -17.5t-13 -30.5h77v-101h-151v84q0 97 104 116zM338 -210q-136 0 -209.5 45t-87.5 139h173q19 -77 130 -77q134 1 134 120v82q-53 -97 -192 -97q-114 0 -185.5 72t-71.5 187t72 184.5t189 69.5q138 0 196 -95l12 80h150v-473
q0 -237 -310 -237zM342 111q63 0 100.5 36t37.5 96v31q0 56 -38.5 91.5t-99.5 35.5q-64 0 -100 -37t-36 -106q0 -67 37 -107t99 -40z" />
    <glyph glyph-name="gdotaccent.ss01" horiz-adv-x="722" 
d="M273 572v149h180v-149h-180zM338 -210q-136 0 -209.5 45t-87.5 139h173q19 -77 130 -77q134 1 134 120v82q-53 -97 -192 -97q-114 0 -185.5 72t-71.5 187t72 184.5t189 69.5q138 0 196 -95l12 80h150v-473q0 -237 -310 -237zM342 111q63 0 100.5 36t37.5 96v31
q0 56 -38.5 91.5t-99.5 35.5q-64 0 -100 -37t-36 -106q0 -67 37 -107t99 -40z" />
    <glyph glyph-name="Iacute_J.loclNLD" horiz-adv-x="805" 
d="M104 756l90 118h153l-107 -118h-136zM584 756l90 118h153l-107 -118h-136zM261 0h-179v710h179v-710zM741 232q0 -245 -263 -245q-75 0 -119 10v143q48 -6 79 -6q61 0 92.5 30t31.5 101v445h179v-478z" />
    <glyph glyph-name="iacute_j.loclNLD" horiz-adv-x="647" 
d="M92 569l93 157h154l-112 -157h-135zM418 569l93 157h154l-112 -157h-135zM74 0v500h171v-500h-171zM361 -204q-49 0 -80 7v123q25 -3 52 -3q37 0 53 20.5t16 72.5v484h171v-500q0 -101 -48 -152.5t-164 -51.5z" />
    <glyph glyph-name="g.ss01" horiz-adv-x="722" 
d="M338 -210q-136 0 -209.5 45t-87.5 139h173q19 -77 130 -77q134 1 134 120v82q-53 -97 -192 -97q-114 0 -185.5 72t-71.5 187t72 184.5t189 69.5q138 0 196 -95l12 80h150v-473q0 -237 -310 -237zM342 111q63 0 100.5 36t37.5 96v31q0 56 -38.5 91.5t-99.5 35.5
q-64 0 -100 -37t-36 -106q0 -67 37 -107t99 -40z" />
    <glyph glyph-name="gbreve.ss01" horiz-adv-x="722" 
d="M280 726q6 -81 83 -81t83 81h111q-6 -82 -57 -122t-137 -40t-137 40t-56 122h110zM338 -210q-136 0 -209.5 45t-87.5 139h173q19 -77 130 -77q134 1 134 120v82q-53 -97 -192 -97q-114 0 -185.5 72t-71.5 187t72 184.5t189 69.5q138 0 196 -95l12 80h150v-473
q0 -237 -310 -237zM342 111q63 0 100.5 36t37.5 96v31q0 56 -38.5 91.5t-99.5 35.5q-64 0 -100 -37t-36 -106q0 -67 37 -107t99 -40z" />
    <glyph glyph-name="gcircumflex.ss01" horiz-adv-x="722" 
d="M578 569h-130l-85 105l-84 -105h-131l128 157h174zM338 -210q-136 0 -209.5 45t-87.5 139h173q19 -77 130 -77q134 1 134 120v82q-53 -97 -192 -97q-114 0 -185.5 72t-71.5 187t72 184.5t189 69.5q138 0 196 -95l12 80h150v-473q0 -237 -310 -237zM342 111q63 0 100.5 36
t37.5 96v31q0 56 -38.5 91.5t-99.5 35.5q-64 0 -100 -37t-36 -106q0 -67 37 -107t99 -40z" />
    <glyph glyph-name="g.sups.ss01" horiz-adv-x="564" 
d="M264 157q-107 0 -162.5 32.5t-63.5 101.5h142q9 -53 89 -53q89 1 89 82v62q-38 -67 -140 -67q-84 0 -136 51.5t-52 134.5q0 84 52.5 134.5t140.5 50.5q101 0 142 -68l8 57h131v-344q0 -174 -240 -174zM269 402q41 0 66 23t25 61v25q0 38 -24.5 61.5t-64.5 23.5
q-43 0 -66.5 -25t-23.5 -72q0 -44 24 -70.5t64 -26.5z" />
    <glyph glyph-name="a.sups" horiz-adv-x="536" 
d="M185 299q-71 0 -112 29.5t-41 81.5q0 56 41.5 81t120.5 33l140 14v13q0 53 -67 53t-75 -51h-149q8 63 67.5 98t156.5 35q111 0 162.5 -38.5t51.5 -119.5v-120q0 -63 8 -98h-143q-4 24 -6 60q-16 -33 -57.5 -52t-97.5 -19zM243 378q42 0 68.5 19.5t26.5 50.5v33l-86 -8
q-41 -5 -59 -17t-18 -34q0 -20 18.5 -32t49.5 -12z" />
    <glyph glyph-name="b.sups" horiz-adv-x="568" 
d="M349 299q-102 0 -143 68l-7 -57h-134v529h146v-213q44 60 144 60q83 0 133 -52t50 -140q0 -89 -51 -142t-138 -53zM297 391q43 0 67 26.5t24 75.5q0 48 -24 74.5t-67 25.5q-41 0 -65.5 -24t-24.5 -64v-24q0 -41 24 -65.5t66 -24.5z" />
    <glyph glyph-name="c.sups" horiz-adv-x="521" 
d="M269 299q-110 0 -176 53t-66 141q0 90 65 141.5t178 51.5q92 0 151.5 -35t72.5 -99l-143 -26q-13 61 -85 61q-41 0 -65 -24.5t-24 -65.5q0 -46 24 -72t65 -26q36 0 58 16.5t27 46.5l144 -27q-13 -62 -74 -99t-152 -37z" />
    <glyph glyph-name="d.sups" horiz-adv-x="568" 
d="M213 299q-83 0 -133 53.5t-50 140.5t51 140t137 53q97 0 139 -61v214h146v-529h-140v66q-19 -35 -58.5 -56t-91.5 -21zM272 392q40 0 64 24t24 63v26q0 41 -24.5 65t-65.5 24q-43 0 -66 -26.5t-23 -73.5t24.5 -74.5t66.5 -27.5z" />
    <glyph glyph-name="e.sups" horiz-adv-x="517" 
d="M486 486v-18h-321q4 -34 32.5 -54.5t75.5 -20.5q79 0 126 47l74 -62q-65 -79 -204 -79q-114 0 -178 51t-64 141q0 89 63 142t170 53q108 0 167 -53t59 -147zM165 534h182q0 35 -23 56.5t-65 21.5t-67 -20.5t-27 -57.5z" />
    <glyph glyph-name="f.sups" horiz-adv-x="388" 
d="M365 675v-91h-116v-274h-146v274h-80v91h80v20q0 150 186 150q38 0 76 -8v-97q-25 4 -52 4q-64 0 -64 -50v-19h116z" />
    <glyph glyph-name="g.sups" horiz-adv-x="539" 
d="M516 650q-22 4 -40 4q-28 0 -45 -7q45 -33 45 -83q0 -58 -57.5 -91.5t-157.5 -33.5q-54 0 -100 11q-10 -7 -10 -18q0 -29 45 -29l169 -1q150 -1 150 -103q0 -142 -269 -142q-219 0 -219 82q0 43 67 61q-58 20 -58 73q0 66 87 89q-78 33 -78 102q0 58 57 90t159 32
q65 0 115 -14q21 69 120 69q12 0 20 -2v-89zM261 500q34 0 54.5 17.5t20.5 45.5q0 30 -20 46t-55 16t-55 -16t-20 -45t20.5 -46.5t54.5 -17.5zM341 289l-187 2h-15q-9 -11 -9 -24q0 -53 130 -53q69 0 98 10.5t29 35.5q0 29 -46 29z" />
    <glyph glyph-name="h.sups" horiz-adv-x="571" 
d="M65 310v529h146v-232q42 80 149 80q77 0 117.5 -44.5t40.5 -129.5v-203h-147v188q0 84 -76 84q-40 0 -62 -23.5t-22 -67.5v-181h-146z" />
    <glyph glyph-name="i.sups" horiz-adv-x="269" 
d="M59 720v123h151v-123h-151zM61 310v365h147v-365h-147z" />
    <glyph glyph-name="j.sups" horiz-adv-x="275" 
d="M65 720v123h150v-123h-150zM42 162q-44 0 -62 5v100q18 -2 34 -2q29 0 41 15t12 50v345h147v-357q0 -81 -39.5 -118.5t-132.5 -37.5z" />
    <glyph glyph-name="k.sups" horiz-adv-x="546" 
d="M372 310l-101 149l-60 -52v-97h-146v529h146v-303l145 139h176l-154 -143l155 -222h-161z" />
    <glyph glyph-name="l.sups" horiz-adv-x="276" 
d="M211 839v-529h-146v529h146z" />
    <glyph glyph-name="m.sups" horiz-adv-x="818" 
d="M60 675h142v-72q40 83 140 83q98 0 131 -83q45 83 147 83q70 0 107.5 -42t37.5 -119v-215h-146v185q0 84 -65 84q-68 0 -68 -81v-188h-146v186q0 83 -65 83q-68 0 -68 -82v-187h-147v365z" />
    <glyph glyph-name="n.sups" horiz-adv-x="566" 
d="M60 310v365h142v-75q45 86 154 86q77 0 117 -44t40 -129v-203h-146v181q0 89 -76 89q-84 0 -84 -90v-180h-147z" />
    <glyph glyph-name="o.sups" horiz-adv-x="532" 
d="M266 299q-107 0 -173 51t-66 143t66 142.5t173 50.5t172.5 -50.5t65.5 -142.5t-66 -143t-172 -51zM266 392q42 0 66.5 26t24.5 75t-24.5 74.5t-66.5 25.5q-43 0 -67.5 -25.5t-24.5 -74.5t24.5 -75t67.5 -26z" />
    <glyph glyph-name="p.sups" horiz-adv-x="563" 
d="M60 168v507h142v-57q47 68 149 68q83 0 133 -52.5t50 -138.5q0 -89 -51.5 -142.5t-136.5 -53.5q-88 0 -139 59v-190h-147zM294 392q41 0 65 28t24 75t-23 73t-66 26q-42 0 -66 -25t-24 -70v-13q0 -42 24.5 -68t65.5 -26z" />
    <glyph glyph-name="q.sups" horiz-adv-x="563" 
d="M357 168v200q-45 -69 -146 -69q-82 0 -131.5 53.5t-49.5 140.5q0 89 51.5 141.5t137.5 52.5q103 0 145 -69l8 57h131v-507h-146zM270 391q41 0 65.5 25t24.5 66v26q0 40 -25 63.5t-67 23.5q-41 0 -64 -26t-23 -74t23.5 -76t65.5 -28z" />
    <glyph glyph-name="r.sups" horiz-adv-x="389" 
d="M194 568q31 116 148 116q8 0 24 -2v-132q-24 3 -46 3q-53 0 -79 -23q-34 -29 -34 -87v-133h-147v365h134v-107z" />
    <glyph glyph-name="s.sups" horiz-adv-x="469" 
d="M244 299q-156 0 -231 69l61 73q76 -56 177 -56q67 0 67 31q0 14 -12 20.5t-46 10.5l-95 11q-64 9 -95 35.5t-31 74.5q0 56 49 87t147 31q129 0 209 -51l-56 -74q-68 45 -159 45q-60 0 -60 -28q0 -22 49 -28l101 -12q67 -9 96.5 -35t29.5 -78q0 -60 -50.5 -93t-150.5 -33z
" />
    <glyph glyph-name="t.sups" horiz-adv-x="389" 
d="M11 584v91h83v84l146 52v-136h118v-91h-118v-108q0 -63 69 -63q30 0 48 5v-105q-50 -12 -89 -12q-174 0 -174 137v146h-83z" />
    <glyph glyph-name="u.sups" horiz-adv-x="562" 
d="M361 382q-18 -40 -57.5 -61.5t-93.5 -21.5q-76 0 -116.5 40t-40.5 113v223h147v-190q0 -81 73 -81q40 0 61.5 21.5t21.5 58.5v191h146v-365h-141v72z" />
    <glyph glyph-name="v.sups" horiz-adv-x="512" 
d="M175 310l-165 365h153l77 -202q5 -15 15 -49h2q9 31 16 49l77 202h153l-165 -365h-163z" />
    <glyph glyph-name="w.sups" horiz-adv-x="724" 
d="M141 310l-121 365h140l55 -207q6 -31 7 -37h2q1 13 8 37l66 207h128l66 -207q6 -18 8 -37h2q1 6 7 37l55 207h140l-121 -365h-146l-66 195q-7 20 -8 34h-2q-1 -16 -9 -34l-66 -195h-145z" />
    <glyph glyph-name="x.sups" horiz-adv-x="532" 
d="M16 310l159 189l-152 176h168l54 -65q16 -21 22 -38h2q7 21 23 38l54 65h156l-149 -172l163 -193h-169l-64 76q-18 22 -23 37h-2q-8 -19 -24 -37l-64 -76h-154z" />
    <glyph glyph-name="y.sups" horiz-adv-x="508" 
d="M111 159q-38 0 -72 7v104q38 -6 57 -6q66 0 87 38l3 7l-176 366h160l75 -203q8 -20 15 -49h2q4 17 16 48l71 204h150l-164 -379q-31 -72 -83 -104.5t-141 -32.5z" />
    <glyph glyph-name="z.sups" horiz-adv-x="465" 
d="M31 393l218 189h-208v93h386v-81l-214 -190h223v-94h-405v83z" />
    <glyph glyph-name="g_g.liga.ss01" horiz-adv-x="1444" 
d="M338 -210q-136 0 -209.5 45t-87.5 139h173q19 -77 130 -77q134 1 134 120v82q-53 -97 -192 -97q-114 0 -185.5 72t-71.5 187t72 184.5t189 69.5q138 0 196 -95l12 80h150v-473q0 -237 -310 -237zM1060 -210q-136 0 -209.5 45t-87.5 139h173q19 -77 130 -77q134 1 134 120
v82q-53 -97 -192 -97q-114 0 -185.5 72t-71.5 187t72 184.5t189 69.5q138 0 196 -95l12 80h150v-473q0 -237 -310 -237zM342 111q63 0 100.5 36t37.5 96v31q0 56 -38.5 91.5t-99.5 35.5q-64 0 -100 -37t-36 -106q0 -67 37 -107t99 -40zM1064 111q63 0 100.5 36t37.5 96v31
q0 56 -38.5 91.5t-99.5 35.5q-64 0 -100 -37t-36 -106q0 -67 37 -107t99 -40z" />
    <glyph glyph-name="zero.case" horiz-adv-x="763" 
d="M381 -19q-158 0 -251 100t-93 275q0 174 93 274t251 100q159 0 252 -100t93 -274t-93.5 -274.5t-251.5 -100.5zM381 111q78 0 122.5 63t44.5 182t-44.5 182t-122.5 63q-77 0 -121.5 -63t-44.5 -182t44.5 -182t121.5 -63z" />
    <glyph glyph-name="one.case" horiz-adv-x="475" 
d="M199 0v487q-45 -47 -143 -47h-35v149h22q138 0 185 121h143v-710h-172z" />
    <glyph glyph-name="two.case" horiz-adv-x="695" 
d="M31 0v123q221 105 325 185q58 44 81.5 85t23.5 92q0 53 -31 83.5t-91 30.5t-94 -32t-34 -89q0 -19 5 -47l-177 16q-4 21 -4 49q0 106 84.5 170t224.5 64q142 0 221.5 -61.5t79.5 -170.5q0 -138 -138 -243q-86 -63 -228 -121h377v-134h-625z" />
    <glyph glyph-name="three.case" horiz-adv-x="703" 
d="M347 -19q-146 0 -231 64t-89 175l175 17q4 -62 41.5 -95.5t104.5 -33.5q66 0 100.5 26.5t34.5 75.5q0 95 -141 95h-57v111h56q128 0 128 94q0 45 -32.5 69.5t-94.5 24.5q-65 0 -100 -34t-37 -97l-172 21q2 107 85.5 171.5t228.5 64.5q144 0 222 -53.5t78 -148.5
q0 -64 -43.5 -106t-111.5 -54q173 -24 173 -171q0 -98 -84.5 -157t-233.5 -59z" />
    <glyph glyph-name="four.case" horiz-adv-x="709" 
d="M700 158h-124v-158h-171v158h-394v112l373 440h192v-430h124v-122zM410 486q0 62 3 84h-3q-12 -27 -53 -75l-125 -154q-33 -41 -58 -61h236v206z" />
    <glyph glyph-name="five.case" horiz-adv-x="690" 
d="M342 -19q-127 0 -209.5 55.5t-99.5 152.5l170 24q10 -48 46.5 -75.5t92.5 -27.5q66 0 102.5 34t36.5 95t-35.5 95.5t-97.5 34.5q-104 0 -139 -89l-155 14l45 416h514v-131h-384l-21 -169q55 79 192 79q120 0 188 -65.5t68 -180.5q0 -121 -84 -191.5t-230 -70.5z" />
    <glyph glyph-name="six.case" horiz-adv-x="709" 
d="M414 483q123 0 192 -64.5t69 -178.5q0 -115 -85 -187t-221 -72q-158 0 -245.5 95.5t-87.5 269.5q0 181 89 282.5t247 101.5q122 0 198 -50.5t95 -144.5l-169 -25q-24 95 -128 95q-76 0 -119.5 -56t-46.5 -158q67 92 212 92zM366 107q64 0 101.5 34.5t37.5 93.5
t-36.5 93.5t-100.5 34.5q-56 0 -98 -29t-62 -80q13 -71 53.5 -109t104.5 -38z" />
    <glyph glyph-name="seven.case" horiz-adv-x="615" 
d="M147 0v14q0 154 73.5 298t208.5 260h-412v138h586v-129q-266 -232 -266 -550v-31h-190z" />
    <glyph glyph-name="eight.case" horiz-adv-x="717" 
d="M529 391q83 -28 121 -75t38 -120q0 -99 -88.5 -157t-240.5 -58t-240.5 54.5t-88.5 147.5q0 133 154 172q-69 27 -101.5 69.5t-32.5 105.5q0 91 83 145.5t221 54.5q140 0 223 -50.5t83 -135.5q0 -114 -131 -153zM355 619q-63 0 -98.5 -23.5t-35.5 -65.5q0 -36 30.5 -59.5
t98.5 -37.5l63 -13q77 34 77 103q0 45 -35.5 70.5t-99.5 25.5zM361 102q69 0 109.5 26.5t40.5 72.5q0 41 -33 66.5t-107 40.5l-69 15q-95 -36 -95 -117q0 -49 41 -76.5t113 -27.5z" />
    <glyph glyph-name="nine.case" horiz-adv-x="709" 
d="M342 730q160 0 245.5 -92.5t85.5 -269.5q0 -185 -84.5 -286t-250.5 -101q-120 0 -198 52.5t-97 148.5l169 27q25 -99 133 -99q80 0 121 58t42 165q-63 -82 -202 -82q-126 0 -199 62.5t-73 171.5q0 111 84 178t224 67zM341 372q58 0 101.5 27.5t60.5 73.5q-10 63 -50 99.5
t-108 36.5q-65 0 -103 -32.5t-38 -88.5q0 -53 37 -84.5t100 -31.5z" />
    <glyph glyph-name="one.ss02.case" horiz-adv-x="641" 
d="M430 135h193v-135h-576v135h210v355q-54 -52 -168 -52h-38v150h27q155 0 208 122h144v-575z" />
    <glyph glyph-name="zero.tf.case" 
d="M348 -19q-148 0 -231 94t-83 280q0 187 83 281.5t231 94.5q149 0 231.5 -94t83.5 -281q-1 -187 -84 -281t-231 -94zM348 103q72 0 106.5 61.5t34.5 191.5t-35 191t-106 61t-105.5 -61t-34.5 -191q0 -131 34.5 -192t105.5 -61z" />
    <glyph glyph-name="one.tf.case" 
d="M457 135h194v-135h-577v135h211v354q-55 -53 -169 -53h-37v149h26q154 0 209 125h143v-575z" />
    <glyph glyph-name="two.tf.case" 
d="M52 0v119q181 104 298 207q51 46 72 85t21 86q0 48 -26.5 76t-76.5 28t-80 -29.5t-31 -82.5q0 -12 2 -40l-171 17q-3 23 -2 37q2 104 82.5 166t202.5 62q132 0 204 -59t72 -166q0 -63 -26 -115t-85 -106q-82 -74 -232 -152h359v-133h-583z" />
    <glyph glyph-name="three.tf.case" 
d="M351 -19q-138 0 -218 63t-83 171l174 16q4 -59 36 -91.5t91 -32.5q56 0 86 26.5t30 75.5t-32.5 73.5t-91.5 24.5h-44l1 108h39q52 0 82.5 26.5t30.5 72.5q0 43 -26.5 67t-78.5 24q-116 0 -118 -127l-173 21q0 103 77.5 167t218.5 64q130 0 202.5 -53t72.5 -145
q0 -64 -41.5 -107t-103.5 -56q76 -12 119.5 -57t43.5 -119q0 -97 -79 -154.5t-215 -57.5z" />
    <glyph glyph-name="four.tf.case" 
d="M395 0v158h-368v109l338 443h190v-431h114v-121h-114v-158h-160zM176 279h219v219q0 52 3 83h-2q-12 -32 -43 -76l-128 -172q-21 -30 -49 -54z" />
    <glyph glyph-name="five.tf.case" 
d="M341 -19q-120 0 -197 55.5t-89 149.5l164 21q9 -45 42.5 -71.5t84.5 -26.5q57 0 89 34.5t32 94.5q0 61 -30 95.5t-88 34.5q-45 0 -77 -22t-45 -61l-148 14l43 411h470v-130h-348l-20 -171q58 75 175 75q111 0 174.5 -65.5t63.5 -178.5q0 -118 -80 -188.5t-216 -70.5z" />
    <glyph glyph-name="six.tf.case" 
d="M399 483q116 0 182 -64.5t66 -178.5q0 -117 -78.5 -188t-208.5 -71q-150 0 -232 95.5t-82 269.5q0 182 83 283.5t234 101.5q114 0 186.5 -50.5t89.5 -141.5l-168 -25q-21 91 -114 91q-67 0 -104 -54.5t-40 -154.5q61 87 186 87zM359 107q55 0 87.5 35.5t32.5 93.5
q0 60 -31.5 93.5t-85.5 33.5q-51 0 -89 -30t-55 -82q11 -70 47 -107t94 -37z" />
    <glyph glyph-name="seven.tf.case" 
d="M190 0v14q0 154 71.5 298t202.5 260h-403v138h577v-129q-258 -232 -258 -550v-31h-190z" />
    <glyph glyph-name="eight.tf.case" 
d="M509 392q75 -26 113.5 -72t38.5 -122q0 -100 -84 -158.5t-228 -58.5q-145 0 -229 55t-84 149q0 132 148 169q-128 50 -128 175q0 90 81 146t210 56t207.5 -51t78.5 -138q0 -113 -124 -150zM345 619q-56 0 -87 -24.5t-31 -66.5q0 -69 112 -95l59 -13q70 34 70 102
q0 45 -32 71t-91 26zM352 102q63 0 100 27t37 73q0 43 -32 67.5t-96 38.5l-64 15q-88 -36 -88 -115q0 -50 38 -78t105 -28z" />
    <glyph glyph-name="nine.tf.case" 
d="M337 730q150 0 231.5 -93t81.5 -269q0 -184 -79 -285.5t-233 -101.5q-116 0 -190.5 50.5t-92.5 144.5l168 28q24 -94 123 -94q133 0 138 217q-59 -76 -178 -76q-121 0 -191 62t-70 170q0 112 79 179.5t213 67.5zM338 371q53 0 91.5 28t51.5 73q-9 64 -45 100t-96 36
q-58 0 -92.5 -33t-34.5 -89q0 -52 34.5 -83.5t90.5 -31.5z" />
    <glyph glyph-name="zero.zero.case" horiz-adv-x="763" 
d="M381 730q159 0 252 -100t93 -274t-93.5 -274.5t-251.5 -100.5t-251 100t-93 275q0 174 93 274t251 100zM381 601q-77 0 -121.5 -63t-44.5 -182q0 -71 17 -124l271 306q-43 63 -122 63zM381 111q78 0 122.5 63t44.5 182q0 63 -14 113l-268 -304q42 -54 115 -54z" />
    <glyph glyph-name="zero.tf.zero.case" 
d="M348 731q149 0 231.5 -94t83.5 -281q-1 -187 -84 -281t-231 -94t-231 94t-83 280q0 187 83 281.5t231 94.5zM348 608q-71 0 -105.5 -61t-34.5 -191q0 -64 7 -106l247 281q-33 77 -114 77zM348 103q72 0 106.5 61.5t34.5 191.5q0 57 -6 99l-246 -279q34 -73 111 -73z" />
    <glyph glyph-name="zero.osf" horiz-adv-x="729" 
d="M365 -19q-151 0 -242.5 80t-91.5 211q0 127 92 204.5t242 77.5q149 0 241 -78.5t92 -206.5q0 -129 -91.5 -208.5t-241.5 -79.5zM365 107q73 0 116.5 43.5t43.5 116.5q0 74 -43 116.5t-117 42.5t-117.5 -41.5t-43.5 -114.5q0 -76 43.5 -119.5t117.5 -43.5z" />
    <glyph glyph-name="one.osf" horiz-adv-x="662" 
d="M436 129h197v-129h-576v129h211v216q-26 -22 -73.5 -37t-100.5 -16h-32v140h25q69 0 126 27t79 76h144v-406z" />
    <glyph glyph-name="two.osf" horiz-adv-x="690" 
d="M37 111q178 58 277 103q71 37 99 66.5t28 67.5q0 37 -27.5 58.5t-74.5 21.5q-53 0 -82 -24.5t-29 -68.5q0 -20 2 -30l-176 18q-2 24 -2 27q0 92 79.5 148t209.5 56q131 0 205 -51t74 -141q0 -77 -77 -132q-79 -54 -223 -101h328v-129h-611v111z" />
    <glyph glyph-name="three.osf" horiz-adv-x="706" 
d="M347 -169q-149 0 -233 60.5t-87 171.5l174 14q4 -60 42 -89.5t105 -29.5q66 0 103 25t37 71q0 88 -145 88h-57v109h56q128 0 128 88q0 42 -32.5 65t-93.5 23q-137 0 -138 -126l-171 20q1 109 85 171t226 62q145 0 223.5 -51t78.5 -147q0 -59 -40.5 -100t-104.5 -53
q78 -10 122 -53.5t44 -109.5q0 -97 -87 -153t-235 -56z" />
    <glyph glyph-name="four.osf" horiz-adv-x="715" 
d="M412 -150v156h-401v112l379 417h192v-408h125v-121h-125v-156h-170zM174 127h238v186q0 54 2 84h-3q-18 -35 -46 -64l-140 -156q-36 -40 -51 -50z" />
    <glyph glyph-name="five.osf" horiz-adv-x="701" 
d="M346 -169q-130 0 -214.5 53.5t-98.5 145.5l172 21q10 -45 47 -69.5t93 -24.5q67 0 105 33.5t38 92.5q0 54 -36 84.5t-100 30.5q-104 0 -142 -79l-155 13l45 403h514v-130h-383l-22 -169q55 82 199 82q120 0 189.5 -62t69.5 -170q0 -115 -88 -185t-233 -70z" />
    <glyph glyph-name="six.osf" horiz-adv-x="709" 
d="M414 472q124 0 192.5 -62.5t68.5 -174.5q0 -113 -85 -183.5t-221 -70.5q-158 0 -245.5 93.5t-87.5 262.5q0 177 89 277t247 100q122 0 198 -49.5t95 -141.5l-169 -24q-24 89 -128 89q-76 0 -119 -53.5t-47 -151.5q66 89 212 89zM366 107q64 0 101.5 33.5t37.5 89.5
q0 57 -36.5 89.5t-100.5 32.5q-56 0 -98 -27.5t-62 -77.5q13 -68 53.5 -104t104.5 -36z" />
    <glyph glyph-name="seven.osf" horiz-adv-x="616" 
d="M149 -150v14q0 147 73 283.5t209 249.5h-414v138h588v-129q-266 -220 -266 -525v-31h-190z" />
    <glyph glyph-name="eight.osf" horiz-adv-x="717" 
d="M530 383q82 -28 120 -73.5t38 -116.5q0 -98 -88.5 -155t-240.5 -57t-240.5 53.5t-88.5 145.5q0 129 152 166q-132 51 -132 171q0 89 83 143t221 54q139 0 222.5 -50t83.5 -133q0 -112 -130 -148zM355 602q-63 0 -98.5 -22.5t-35.5 -62.5q0 -35 30.5 -57t98.5 -36l64 -13
q76 33 76 99q0 44 -35.5 68t-99.5 24zM361 102q69 0 109.5 25.5t40.5 69.5q0 40 -33 64t-107 39l-70 15q-94 -35 -94 -112q0 -47 41 -74t113 -27z" />
    <glyph glyph-name="nine.osf" horiz-adv-x="713" 
d="M347 553q161 0 245.5 -91t84.5 -264q0 -180 -86 -273.5t-252 -93.5q-252 0 -298 177l165 26q24 -82 141 -82q162 0 165 211q-65 -79 -204 -79q-128 0 -201 61t-73 168q0 111 84.5 175.5t228.5 64.5zM344 204q58 0 102 26.5t62 70.5q-11 63 -53 97t-108 34t-104.5 -31.5
t-38.5 -84.5q0 -51 38 -81.5t102 -30.5z" />
    <glyph glyph-name="one.ss02" horiz-adv-x="641" 
d="M428 135h194v-135h-577v135h211v340q-55 -52 -169 -52h-37v150h26q154 0 209 122h143v-560z" />
    <glyph glyph-name="zero.tosf" 
d="M348 554q142 0 231 -78.5t89 -209.5q0 -130 -88.5 -207.5t-231.5 -77.5t-231.5 77.5t-88.5 208.5q0 130 89 208.5t231 78.5zM348 108q66 0 107 41.5t41 116.5q0 76 -41 118.5t-107 42.5t-106 -42t-40 -118t40 -117.5t106 -41.5zM28 267v1v-1zM668 267v-1v1z" />
    <glyph glyph-name="one.tosf" 
d="M454 124h183v-124h-553v124h202v228q-25 -24 -75.5 -40t-103.5 -17h-18v137h12q67 1 125.5 29t83.5 74h144v-411z" />
    <glyph glyph-name="two.tosf" 
d="M45 111q199 71 272 107q65 33 92.5 64t27.5 68q0 35 -26 57t-73 22q-51 0 -79 -23t-28 -66q0 -21 2 -31l-172 18q-2 22 -2 28q0 89 78 144t204 55q128 0 199.5 -50.5t71.5 -139.5q0 -80 -78 -137q-67 -49 -216 -98h322v-129h-595v111z" />
    <glyph glyph-name="three.tosf" 
d="M349 -169q-140 0 -218 59t-81 166l174 14q6 -115 124 -115q55 0 86.5 24.5t31.5 68.5q0 95 -125 95h-49l1 108h44q53 0 83.5 25t30.5 68q0 40 -27 62.5t-79 22.5q-115 0 -117 -121l-172 19q0 103 76.5 165t215.5 62q134 0 206.5 -52t72.5 -148q0 -59 -42 -98t-106 -51
q78 -11 122 -54t44 -114q0 -92 -80.5 -149t-215.5 -57z" />
    <glyph glyph-name="four.tosf" 
d="M394 -150v156h-367v109l338 420h189v-408h117v-121h-117v-156h-160zM179 127h215v199q0 45 3 75h-2q-21 -41 -43 -67l-117 -146q-29 -37 -56 -61z" />
    <glyph glyph-name="five.tosf" 
d="M340 -169q-118 0 -195.5 54.5t-89.5 144.5l164 19q8 -41 42 -65.5t83 -24.5q58 0 90.5 33t32.5 89q0 55 -31 86.5t-87 31.5q-42 1 -75 -19.5t-47 -55.5l-150 14l43 397h472v-130h-348l-19 -164q54 76 177 76q109 0 172 -63.5t63 -168.5q0 -115 -79 -184.5t-218 -69.5z
" />
    <glyph glyph-name="six.tosf" 
d="M399 472q116 0 182 -63t66 -174q0 -114 -78.5 -184t-208.5 -70q-150 0 -232 93t-82 263q0 179 83 278t234 99q114 0 186.5 -49t89.5 -138l-168 -25q-21 86 -114 86q-67 0 -104 -52t-40 -148q61 84 186 84zM359 107q55 0 87.5 34t32.5 89q0 58 -31 90t-86 32
q-51 0 -88.5 -28.5t-54.5 -78.5q10 -67 46 -102.5t94 -35.5z" />
    <glyph glyph-name="seven.tosf" 
d="M190 -150v14q0 297 274 533h-403v138h577v-129q-125 -109 -191.5 -236.5t-66.5 -288.5v-31h-190z" />
    <glyph glyph-name="eight.tosf" 
d="M510 384q75 -25 113 -70.5t38 -120.5q0 -98 -84 -155t-228 -57q-145 0 -229 53.5t-84 145.5q0 129 148 165q-63 24 -95.5 65t-32.5 107q0 88 81 142.5t210 54.5t207.5 -49t78.5 -134q0 -111 -123 -147zM345 602q-56 0 -87 -22.5t-31 -63.5q0 -36 28.5 -57.5t83.5 -34.5
l59 -13q70 32 70 99q0 43 -32 67.5t-91 24.5zM352 102q63 0 100 25.5t37 69.5q0 41 -32 64.5t-96 38.5l-65 14q-87 -35 -87 -111q0 -47 38 -74t105 -27z" />
    <glyph glyph-name="nine.tosf" 
d="M337 554q151 0 232 -91t81 -261q0 -178 -79.5 -274.5t-232.5 -96.5q-118 0 -191.5 48.5t-91.5 138.5l168 27q23 -85 123 -85q67 0 101.5 51.5t35.5 147.5q-60 -73 -177 -73q-119 0 -190 61t-71 168q0 109 79.5 174t212.5 65zM341 207q50 0 87 24t53 65q-15 136 -141 136
q-57 0 -92 -31t-35 -83q0 -51 35.5 -81t92.5 -30z" />
    <glyph glyph-name="zero.osf.zero" horiz-adv-x="729" 
d="M365 554q149 0 241 -78.5t92 -206.5q0 -129 -91.5 -208.5t-241.5 -79.5q-151 0 -242.5 80t-91.5 211q0 127 92 204.5t242 77.5zM365 426q-74 0 -117.5 -41.5t-43.5 -114.5q0 -57 26 -97l237 223q-41 30 -102 30zM365 107q73 0 116.5 43.5t43.5 116.5q0 55 -24 93
l-237 -224q41 -29 101 -29z" />
    <glyph glyph-name="zero.tf.zero" 
d="M348 714q149 0 231.5 -92t83.5 -275q-1 -182 -84 -274t-231 -92t-231 92t-83 274q0 183 83 275t231 92zM348 592q-71 0 -105.5 -59.5t-34.5 -185.5q0 -60 7 -101l245 276q-34 70 -112 70zM348 103q72 0 106.5 59t34.5 185q0 60 -7 101l-245 -276q34 -69 111 -69z" />
    <glyph glyph-name="zero.tosf.zero" 
d="M348 554q142 0 231 -78.5t89 -209.5q0 -130 -88.5 -207.5t-231.5 -77.5t-231.5 77.5t-88.5 208.5q0 130 89 208.5t231 78.5zM348 427q-66 0 -106 -42t-40 -118q0 -51 19 -87l226 213q-40 34 -99 34zM348 108q66 0 107 41.5t41 116.5q0 49 -19 87l-225 -213q38 -32 96 -32
zM28 267v1v-1zM668 267v-1v1z" />
    <glyph glyph-name="zero.subs" horiz-adv-x="594" 
d="M297 -154q-120 0 -191.5 70.5t-71.5 196.5q0 127 71.5 197.5t191.5 70.5t191.5 -70.5t71.5 -197.5q0 -126 -71.5 -196.5t-191.5 -70.5zM297 -46q50 0 80.5 40t30.5 119q0 80 -30.5 120t-80.5 40q-51 0 -81 -39.5t-30 -120.5q0 -80 30 -119.5t81 -39.5z" />
    <glyph glyph-name="one.subs" horiz-adv-x="386" 
d="M156 -140v329q-36 -34 -106 -34h-25v127h15q107 0 142 85h121v-507h-147z" />
    <glyph glyph-name="two.subs" horiz-adv-x="548" 
d="M34 -140v100q166 80 212 110q100 65 100 133q0 32 -20 51t-58 19q-39 0 -62 -19.5t-23 -56.5q0 -10 4 -30l-151 13q-2 22 -2 33q0 78 65.5 123t171.5 45q108 0 170 -42.5t62 -122.5q0 -83 -66.5 -140t-188.5 -106h262v-110h-476z" />
    <glyph glyph-name="three.subs" horiz-adv-x="549" 
d="M270 -154q-112 0 -176.5 46.5t-66.5 129.5l150 12q1 -39 26 -61t68 -22q42 0 65.5 16.5t23.5 46.5q0 57 -94 57h-42v88h41q86 0 86 58q0 28 -22 44t-61 16q-88 0 -90 -83l-148 14q1 79 65.5 126t175.5 47q110 0 171 -38.5t61 -109.5q0 -46 -33 -75.5t-86 -37.5
q64 -8 97.5 -38.5t33.5 -81.5q0 -70 -67 -112t-178 -42z" />
    <glyph glyph-name="four.subs" horiz-adv-x="567" 
d="M549 -35h-93v-105h-143v105h-294v95l277 307h160v-301h93v-101zM313 253l-162 -187h162v187z" />
    <glyph glyph-name="five.subs" horiz-adv-x="539" 
d="M266 -154q-98 0 -160.5 40t-73.5 110l142 20q6 -30 30.5 -47t60.5 -17q44 0 68.5 21t24.5 58t-24 58.5t-66 21.5q-72 0 -91 -53l-130 11l33 298h393v-105h-283l-13 -104q39 50 137 50q90 0 141.5 -46.5t51.5 -126.5q0 -88 -64.5 -138.5t-176.5 -50.5z" />
    <glyph glyph-name="six.subs" horiz-adv-x="555" 
d="M329 205q91 0 142.5 -45t51.5 -127q0 -83 -65 -135t-171 -52q-120 0 -186.5 68t-66.5 191q0 129 68 202.5t189 73.5q94 0 151 -34.5t71 -101.5l-142 -17q-16 57 -85 57q-98 0 -110 -136q50 56 153 56zM284 -50q44 0 69.5 21t25.5 57q0 37 -25 58.5t-67 21.5
q-74 0 -106 -61q17 -97 103 -97z" />
    <glyph glyph-name="seven.subs" horiz-adv-x="486" 
d="M120 -140v11q0 110 54 208.5t153 173.5h-306v114h446v-108q-91 -75 -139.5 -164.5t-48.5 -208.5v-26h-159z" />
    <glyph glyph-name="eight.subs" horiz-adv-x="562" 
d="M417 143q115 -39 115 -142q0 -71 -68 -113t-185 -42q-115 0 -182.5 39t-67.5 106q0 89 112 117q-98 37 -98 126q0 67 63.5 107t169.5 40q108 0 171.5 -36t63.5 -97q0 -77 -94 -105zM277 289q-42 0 -66 -15t-24 -41q0 -44 93 -61l47 -8q41 20 41 62q0 30 -24 46.5
t-67 16.5zM282 -55q45 0 72 17t27 45q0 26 -22.5 42t-74.5 26l-47 9q-56 -22 -56 -73q0 -31 27 -48.5t74 -17.5z" />
    <glyph glyph-name="nine.subs" horiz-adv-x="555" 
d="M268 381q122 0 187.5 -65.5t65.5 -191.5q0 -136 -65 -207t-192 -71q-91 0 -150 36.5t-73 102.5l142 19q16 -57 88 -57q98 0 108 134q-46 -46 -142 -46t-150.5 46t-54.5 123q0 81 63.5 129t172.5 48zM269 134q75 0 107 51q-16 98 -104 98q-44 0 -70 -20.5t-26 -56.5
q0 -32 25.5 -52t67.5 -20z" />
    <glyph glyph-name="zero.dnom" horiz-adv-x="482" 
d="M241 -11q-96 0 -152.5 55.5t-56.5 151.5q0 97 56 152t153 55t153.5 -55t56.5 -152q0 -96 -56.5 -151.5t-153.5 -55.5zM241 70q47 0 73.5 32.5t26.5 93.5q0 62 -26.5 94t-73.5 32t-73.5 -32.5t-26.5 -93.5t26.5 -93.5t73.5 -32.5z" />
    <glyph glyph-name="one.dnom" horiz-adv-x="305" 
d="M128 0v255q-24 -18 -80 -18h-24v92h15q80 0 106 63h88v-392h-105z" />
    <glyph glyph-name="two.dnom" horiz-adv-x="435" 
d="M28 0v77q51 22 80 36t66.5 34.5t57.5 37t34 38t14 43.5q0 55 -70 55q-32 0 -52 -15.5t-20 -43.5q0 -8 4 -26l-109 10q-3 15 -3 26q0 60 51 95.5t132 35.5q84 0 132.5 -33.5t48.5 -96.5q0 -67 -55.5 -111.5t-141.5 -76.5h202v-85h-371z" />
    <glyph glyph-name="three.dnom" horiz-adv-x="439" 
d="M217 -11q-87 0 -138.5 35.5t-53.5 97.5l107 10q4 -63 86 -63q78 0 78 48q0 24 -19 34t-65 10h-36v74h37q73 0 73 45q0 44 -72 44q-77 0 -80 -68l-104 14q2 62 52 97.5t137 35.5q82 0 129 -29t47 -82q0 -35 -24 -58t-65 -30q101 -16 101 -92q0 -57 -52 -90t-138 -33z" />
    <glyph glyph-name="four.dnom" horiz-adv-x="442" 
d="M430 83h-75v-83h-103v83h-236v69l219 240h120v-234h75v-75zM252 306l-133 -148h133v148z" />
    <glyph glyph-name="five.dnom" horiz-adv-x="432" 
d="M215 -11q-76 0 -125 30.5t-59 83.5l105 15q13 -48 81 -48q37 0 57 16t20 45q0 31 -19.5 48.5t-56.5 17.5q-60 0 -78 -41l-97 8l27 228h306v-77h-226l-12 -82q33 39 112 39q72 0 112 -36.5t40 -101.5q0 -67 -50 -106t-137 -39z" />
    <glyph glyph-name="six.dnom" horiz-adv-x="440" 
d="M254 266q73 0 114.5 -35t41.5 -98q0 -65 -50.5 -104.5t-131.5 -39.5q-95 0 -146 53t-51 146q0 102 53 158.5t148 56.5q72 0 117.5 -25.5t56.5 -73.5l-105 -17q-16 40 -71 40q-87 0 -97 -103q39 42 121 42zM227 68q36 0 57 16.5t21 45.5q0 28 -20.5 44t-56.5 16
q-64 0 -91 -47q18 -75 90 -75z" />
    <glyph glyph-name="seven.dnom" horiz-adv-x="382" 
d="M18 305v87h349v-78q-72 -57 -113.5 -136.5t-44.5 -171.5v-6h-118v2q3 82 47 163.5t119 139.5h-239z" />
    <glyph glyph-name="eight.dnom" horiz-adv-x="450" 
d="M337 216q85 -31 85 -105q0 -56 -53.5 -89t-143.5 -33t-143.5 31t-53.5 82q0 72 83 95q-69 30 -69 93q0 51 49.5 82t132.5 31t132 -28.5t49 -76.5q0 -60 -68 -82zM223 333q-76 0 -76 -42q0 -33 74 -48l37 -8q42 20 42 52q0 46 -77 46zM227 64q39 0 62.5 13.5t23.5 35.5
q0 36 -78 52l-46 10q-52 -18 -52 -58q0 -23 24.5 -38t65.5 -15z" />
    <glyph glyph-name="nine.dnom" horiz-adv-x="441" 
d="M214 403q96 0 146 -51.5t50 -147.5q0 -101 -50.5 -158t-147.5 -57q-72 0 -119 28.5t-59 79.5l105 18q16 -46 77 -46q81 0 90 102q-40 -33 -113 -33q-76 0 -119.5 34t-43.5 95q0 62 50.5 99t133.5 37zM213 214q61 0 90 36q-15 77 -88 77q-36 0 -57.5 -15.5t-21.5 -43.5
q0 -25 20.5 -39.5t56.5 -14.5z" />
    <glyph glyph-name="zero.numr" horiz-adv-x="482" 
d="M241 307q-96 0 -152.5 55.5t-56.5 151.5q0 97 56 152t153 55t153.5 -55t56.5 -152q0 -96 -56.5 -151.5t-153.5 -55.5zM241 388q47 0 73.5 32.5t26.5 93.5q0 62 -26.5 94t-73.5 32t-73.5 -32.5t-26.5 -93.5t26.5 -93.5t73.5 -32.5z" />
    <glyph glyph-name="one.numr" horiz-adv-x="305" 
d="M128 318v255q-24 -18 -80 -18h-24v92h15q80 0 106 63h88v-392h-105z" />
    <glyph glyph-name="two.numr" horiz-adv-x="435" 
d="M28 318v77q51 22 80 36t66.5 34.5t57.5 37t34 38t14 43.5q0 55 -70 55q-32 0 -52 -15.5t-20 -43.5q0 -8 4 -26l-109 10q-3 15 -3 26q0 60 51 95.5t132 35.5q84 0 132.5 -33.5t48.5 -96.5q0 -67 -55.5 -111.5t-141.5 -76.5h202v-85h-371z" />
    <glyph glyph-name="three.numr" horiz-adv-x="439" 
d="M217 307q-87 0 -138.5 35.5t-53.5 97.5l107 10q4 -63 86 -63q78 0 78 48q0 24 -19 34t-65 10h-36v74h37q73 0 73 45q0 44 -72 44q-77 0 -80 -68l-104 14q2 62 52 97.5t137 35.5q82 0 129 -29t47 -82q0 -35 -24 -58t-65 -30q101 -16 101 -92q0 -57 -52 -90t-138 -33z" />
    <glyph glyph-name="four.numr" horiz-adv-x="442" 
d="M430 401h-75v-83h-103v83h-236v69l219 240h120v-234h75v-75zM252 624l-133 -148h133v148z" />
    <glyph glyph-name="five.numr" horiz-adv-x="432" 
d="M215 307q-76 0 -125 30.5t-59 83.5l105 15q13 -48 81 -48q37 0 57 16t20 45q0 31 -19.5 48.5t-56.5 17.5q-60 0 -78 -41l-97 8l27 228h306v-77h-226l-12 -82q33 39 112 39q72 0 112 -36.5t40 -101.5q0 -67 -50 -106t-137 -39z" />
    <glyph glyph-name="six.numr" horiz-adv-x="440" 
d="M254 584q73 0 114.5 -35t41.5 -98q0 -65 -50.5 -104.5t-131.5 -39.5q-95 0 -146 53t-51 146q0 102 53 158.5t148 56.5q72 0 117.5 -25.5t56.5 -73.5l-105 -17q-16 40 -71 40q-87 0 -97 -103q39 42 121 42zM227 386q36 0 57 16.5t21 45.5q0 28 -20.5 44t-56.5 16
q-64 0 -91 -47q18 -75 90 -75z" />
    <glyph glyph-name="seven.numr" horiz-adv-x="382" 
d="M18 623v87h349v-78q-72 -57 -113.5 -136.5t-44.5 -171.5v-6h-118v2q3 82 47 163.5t119 139.5h-239z" />
    <glyph glyph-name="eight.numr" horiz-adv-x="450" 
d="M337 534q85 -31 85 -105q0 -56 -53.5 -89t-143.5 -33t-143.5 31t-53.5 82q0 72 83 95q-69 30 -69 93q0 51 49.5 82t132.5 31t132 -28.5t49 -76.5q0 -60 -68 -82zM223 651q-76 0 -76 -42q0 -33 74 -48l37 -8q42 20 42 52q0 46 -77 46zM227 382q39 0 62.5 13.5t23.5 35.5
q0 36 -78 52l-46 10q-52 -18 -52 -58q0 -23 24.5 -38t65.5 -15z" />
    <glyph glyph-name="nine.numr" horiz-adv-x="441" 
d="M214 721q96 0 146 -51.5t50 -147.5q0 -101 -50.5 -158t-147.5 -57q-72 0 -119 28.5t-59 79.5l105 18q16 -46 77 -46q81 0 90 102q-40 -33 -113 -33q-76 0 -119.5 34t-43.5 95q0 62 50.5 99t133.5 37zM213 532q61 0 90 36q-15 77 -88 77q-36 0 -57.5 -15.5t-21.5 -43.5
q0 -25 20.5 -39.5t56.5 -14.5z" />
    <glyph glyph-name="zero.sups" horiz-adv-x="594" 
d="M297 296q-120 0 -191.5 70.5t-71.5 196.5q0 127 71.5 197.5t191.5 70.5t191.5 -70.5t71.5 -197.5q0 -126 -71.5 -196.5t-191.5 -70.5zM297 404q50 0 80.5 40t30.5 119q0 80 -30.5 120t-80.5 40q-51 0 -81 -39.5t-30 -120.5q0 -80 30 -119.5t81 -39.5z" />
    <glyph glyph-name="one.sups" horiz-adv-x="386" 
d="M156 310v329q-36 -34 -106 -34h-25v127h15q107 0 142 85h121v-507h-147z" />
    <glyph glyph-name="two.sups" horiz-adv-x="548" 
d="M34 310v100q166 80 212 110q100 65 100 133q0 32 -20 51t-58 19q-39 0 -62 -19.5t-23 -56.5q0 -10 4 -30l-151 13q-2 22 -2 33q0 78 65.5 123t171.5 45q108 0 170 -42.5t62 -122.5q0 -83 -66.5 -140t-188.5 -106h262v-110h-476z" />
    <glyph glyph-name="three.sups" horiz-adv-x="549" 
d="M270 296q-112 0 -176.5 46.5t-66.5 129.5l150 12q1 -39 26 -61t68 -22q42 0 65.5 16.5t23.5 46.5q0 57 -94 57h-42v88h41q86 0 86 58q0 28 -22 44t-61 16q-88 0 -90 -83l-148 14q1 79 65.5 126t175.5 47q110 0 171 -38.5t61 -109.5q0 -46 -33 -75.5t-86 -37.5
q64 -8 97.5 -38.5t33.5 -81.5q0 -70 -67 -112t-178 -42z" />
    <glyph glyph-name="four.sups" horiz-adv-x="567" 
d="M549 415h-93v-105h-143v105h-294v95l277 307h160v-301h93v-101zM313 703l-162 -187h162v187z" />
    <glyph glyph-name="five.sups" horiz-adv-x="539" 
d="M266 296q-98 0 -160.5 40t-73.5 110l142 20q6 -30 30.5 -47t60.5 -17q44 0 68.5 21t24.5 58t-24 58.5t-66 21.5q-72 0 -91 -53l-130 11l33 298h393v-105h-283l-13 -104q39 50 137 50q90 0 141.5 -46.5t51.5 -126.5q0 -88 -64.5 -138.5t-176.5 -50.5z" />
    <glyph glyph-name="six.sups" horiz-adv-x="555" 
d="M329 655q91 0 142.5 -45t51.5 -127q0 -83 -65 -135t-171 -52q-120 0 -186.5 68t-66.5 191q0 129 68 202.5t189 73.5q94 0 151 -34.5t71 -101.5l-142 -17q-16 57 -85 57q-98 0 -110 -136q50 56 153 56zM284 400q44 0 69.5 21t25.5 57q0 37 -25 58.5t-67 21.5
q-74 0 -106 -61q17 -97 103 -97z" />
    <glyph glyph-name="seven.sups" horiz-adv-x="486" 
d="M120 310v11q0 110 54 208.5t153 173.5h-306v114h446v-108q-91 -75 -139.5 -164.5t-48.5 -208.5v-26h-159z" />
    <glyph glyph-name="eight.sups" horiz-adv-x="562" 
d="M417 593q115 -39 115 -142q0 -71 -68 -113t-185 -42q-115 0 -182.5 39t-67.5 106q0 89 112 117q-98 37 -98 126q0 67 63.5 107t169.5 40q108 0 171.5 -36t63.5 -97q0 -77 -94 -105zM277 739q-42 0 -66 -15t-24 -41q0 -44 93 -61l47 -8q41 20 41 62q0 30 -24 46.5
t-67 16.5zM282 395q45 0 72 17t27 45q0 26 -22.5 42t-74.5 26l-47 9q-56 -22 -56 -73q0 -31 27 -48.5t74 -17.5z" />
    <glyph glyph-name="nine.sups" horiz-adv-x="555" 
d="M268 831q122 0 187.5 -65.5t65.5 -191.5q0 -136 -65 -207t-192 -71q-91 0 -150 36.5t-73 102.5l142 19q16 -57 88 -57q98 0 108 134q-46 -46 -142 -46t-150.5 46t-54.5 123q0 81 63.5 129t172.5 48zM269 584q75 0 107 51q-16 98 -104 98q-44 0 -70 -20.5t-26 -56.5
q0 -32 25.5 -52t67.5 -20z" />
    <glyph glyph-name="backslash.case" horiz-adv-x="598" 
d="M400 -85l-358 877h156l358 -877h-156z" />
    <glyph glyph-name="periodcentered.case" horiz-adv-x="309" 
d="M247 449v-163h-185v163h185z" />
    <glyph glyph-name="bullet.case" horiz-adv-x="384" 
d="M191 242q-56 0 -92.5 35.5t-36.5 91.5q0 57 36.5 93t92.5 36q58 0 94 -35t36 -94q0 -57 -36.5 -92t-93.5 -35z" />
    <glyph glyph-name="colon.case" horiz-adv-x="309" 
d="M247 550v-163h-185v163h185zM247 163v-163h-185v163h185z" />
    <glyph glyph-name="exclamdown.case" horiz-adv-x="362" 
d="M276 571h-191v154h191v-154zM110 490h141l27 -490h-194z" />
    <glyph glyph-name="questiondown.case" horiz-adv-x="643" 
d="M427 716v-154h-188v154h188zM417 507v-42q0 -80 -80 -125l-68 -37q-37 -21 -54.5 -45t-17.5 -60q0 -42 32.5 -69t90.5 -27q63 0 100 29.5t37 84.5q0 30 -6 49l170 -14q6 -24 6 -54q0 -99 -82.5 -158.5t-224.5 -59.5q-139 0 -219 54.5t-80 149.5q0 111 115 181l63 36
q29 18 40.5 35.5t11.5 44.5v27h166z" />
    <glyph glyph-name="semicolon.case" horiz-adv-x="309" 
d="M247 550v-163h-185v163h185zM104 -158l-28 69q44 12 61 32t17 54v3h-88v170h181v-159q0 -138 -143 -169z" />
    <glyph glyph-name="slash.case" horiz-adv-x="598" 
d="M198 -85h-156l358 877h156z" />
    <glyph glyph-name="underscore.case" horiz-adv-x="556" 
d="M0 -20h556v-94h-556v94z" />
    <glyph glyph-name="asterisk.ss04" horiz-adv-x="274" 
d="M138 710l-31 -93h-97l79 -57l-30 -93l79 57l79 -57l-31 93l79 57h-97z" />
    <glyph glyph-name="braceleft.case" horiz-adv-x="400" 
d="M300 -84q-98 0 -143 37t-45 120v142q0 49 -17 71t-71 23v106q55 1 71 20.5t16 70.5v132q0 76 49 116.5t140 40.5h83v-115h-38q-41 0 -59.5 -19t-18.5 -59v-94q0 -61 -21.5 -96.5t-77.5 -48.5q56 -15 77.5 -53t21.5 -99v-108q0 -39 17.5 -55t56.5 -16h44v-116h-85z" />
    <glyph glyph-name="braceright.case" horiz-adv-x="400" 
d="M100 -84h-85v116h44q39 0 56.5 16t17.5 55v108q0 61 21.5 99t77.5 53q-56 13 -77.5 48.5t-21.5 96.5v94q0 40 -18.5 59t-59.5 19h-38v115h83q91 0 140 -40.5t49 -116.5v-132q0 -51 16 -70.5t71 -20.5v-106q-54 -1 -71 -23t-17 -71v-142q0 -83 -45 -120t-143 -37z" />
    <glyph glyph-name="bracketleft.case" horiz-adv-x="390" 
d="M82 -83v876h293v-114h-137v-647h137v-115h-293z" />
    <glyph glyph-name="bracketright.case" horiz-adv-x="390" 
d="M308 -83h-293v115h137v647h-137v114h293v-876z" />
    <glyph glyph-name="parenleft.case" horiz-adv-x="384" 
d="M252 -109q-93 94 -144.5 215.5t-51.5 250.5q0 131 51.5 249t145.5 209l127 -51q-163 -180 -163 -408q0 -230 164 -413z" />
    <glyph glyph-name="parenright.case" horiz-adv-x="384" 
d="M132 -109l-129 52q164 183 164 413q0 228 -163 408l127 51q94 -91 145.5 -209t51.5 -249q0 -129 -51.5 -250.5t-144.5 -215.5z" />
    <glyph glyph-name="parenleft.subs" horiz-adv-x="320" 
d="M207 -242q-67 69 -105 157t-38 183q0 191 145 334l110 -39q-120 -132 -120 -296t120 -301z" />
    <glyph glyph-name="parenright.subs" horiz-adv-x="320" 
d="M113 -242l-112 39q120 135 120 300q0 164 -120 296l110 39q145 -143 145 -334q0 -95 -38 -183t-105 -157z" />
    <glyph glyph-name="parenleft.sups" horiz-adv-x="320" 
d="M207 208q-67 69 -105 157t-38 183q0 191 145 334l110 -39q-120 -132 -120 -296q0 -165 120 -300z" />
    <glyph glyph-name="parenright.sups" horiz-adv-x="320" 
d="M113 208l-112 39q120 135 120 300q0 164 -120 296l110 39q145 -143 145 -334q0 -95 -38 -183t-105 -157z" />
    <glyph glyph-name="emdash.case" horiz-adv-x="952" 
d="M45 416h861v-133h-861v133z" />
    <glyph glyph-name="endash.case" horiz-adv-x="701" 
d="M45 415h611v-131h-611v131z" />
    <glyph glyph-name="hyphen.case" horiz-adv-x="502" 
d="M45 418h412v-136h-412v136z" />
    <glyph glyph-name="guillemotleft.case" horiz-adv-x="655" 
d="M215 139l-195 209l199 206h154l-196 -205l194 -210h-156zM480 139l-195 209l199 206h154l-196 -205l194 -210h-156z" />
    <glyph glyph-name="guillemotright.case" horiz-adv-x="655" 
d="M175 139h-156l194 210l-196 205h154l199 -206zM440 139h-156l194 210l-196 205h154l199 -206z" />
    <glyph glyph-name="guilsinglleft.case" horiz-adv-x="390" 
d="M215 139l-195 209l199 206h154l-196 -205l194 -210h-156z" />
    <glyph glyph-name="guilsinglright.case" horiz-adv-x="390" 
d="M175 139h-156l194 210l-196 205h154l199 -206z" />
    <glyph glyph-name="currency.case" horiz-adv-x="624" 
d="M583 353q0 -82 -47 -143l59 -58l-72 -68l-66 63q-63 -30 -141 -30q-84 0 -149 34l-68 -66l-72 68l64 63q-43 57 -43 137q0 78 43 137l-64 64l72 68l70 -66q64 33 147 33q78 0 141 -30l68 64l72 -68l-61 -60q47 -60 47 -142zM316 230q62 0 99.5 33.5t37.5 89.5
q0 55 -37.5 88.5t-99.5 33.5t-100.5 -33.5t-38.5 -88.5q0 -56 38.5 -89.5t100.5 -33.5z" />
    <glyph glyph-name="dollar.case" horiz-adv-x="729" 
d="M703 209q0 -100 -81.5 -160t-224.5 -66v-78h-68v78q-118 6 -203.5 49t-125.5 117l128 84q62 -110 201 -125v198l-65 10q-221 38 -221 205q0 92 75.5 147.5t210.5 60.5v75h68v-75q196 -10 293 -140l-115 -90q-53 94 -178 109v-178l73 -10q121 -20 177 -70t56 -141z
M202 530q0 -38 28.5 -58t98.5 -32v171q-127 -6 -127 -81zM397 105q143 6 143 94q0 41 -29 62.5t-97 32.5l-17 2v-191z" />
    <glyph glyph-name="Euro.case" horiz-adv-x="816" 
d="M634 224l161 -50q-43 -92 -131 -142.5t-213 -50.5q-151 0 -246 75t-123 202h-77v66h67q-1 13 -1 39q0 17 1 26h-67v67h75q27 127 125 200.5t253 73.5q125 0 213 -49t123 -135l-164 -49q-46 101 -175 101q-156 0 -196 -142h291v-67h-301q-1 -8 -1 -25q0 -14 2 -40h300v-66
h-287q44 -144 194 -144q128 0 177 110z" />
    <glyph glyph-name="sterling.case" horiz-adv-x="740" 
d="M574 204l159 -22q-14 -93 -74 -146t-151 -53q-50 0 -132 14t-145 14q-87 0 -190 -19l-32 92q143 41 143 170q0 38 -6 69h-105v82h87q-11 51 -11 91q0 110 75 172t207 62q250 0 290 -188l-163 -33q-9 48 -41 74t-82 26q-120 0 -120 -111q0 -45 12 -93h209v-82h-192
q3 -23 3 -49q0 -110 -100 -152q39 10 84 10q33 0 88 -8.5t89 -8.5q41 0 66.5 23t31.5 66z" />
    <glyph glyph-name="currency.tf.case" 
d="M619 353q0 -82 -47 -142l59 -59l-72 -68l-66 63q-63 -30 -141 -30q-85 0 -149 35l-67 -67l-73 68l65 64q-43 57 -43 136q0 78 43 137l-65 64l73 68l69 -67q63 34 147 34q80 0 142 -31l67 65l73 -68l-62 -60q47 -60 47 -142zM352 230q62 0 100 33.5t38 89.5q0 55 -38 88.5
t-100 33.5t-100 -33.5t-38 -88.5q0 -56 38 -89.5t100 -33.5z" />
    <glyph glyph-name="dollar.tf.case" 
d="M662 204q0 -104 -71.5 -160.5t-203.5 -61.5v-77h-55v78q-116 7 -194 56.5t-109 135.5l142 59q43 -112 161 -128v190l-63 12q-207 44 -207 213q0 95 71 149.5t199 58.5v75h55v-76q105 -7 172.5 -51t92.5 -123l-132 -57q-27 97 -133 110v-181l80 -17q101 -21 148 -70
t47 -135zM321 440l11 -2v172q-111 -6 -111 -83q0 -36 23.5 -56t76.5 -31zM387 103q115 3 115 88q0 38 -22 58.5t-73 31.5l-20 4v-182z" />
    <glyph glyph-name="Euro.tf.case" 
d="M394 108q86 0 123 108l153 -49q-29 -89 -102.5 -137.5t-177.5 -48.5q-131 0 -208.5 75t-95.5 205h-64v66h58v16v46v3h-58v65h63q18 127 99.5 200t213.5 73q103 0 175 -45.5t98 -133.5l-156 -49q-33 104 -121 104q-118 0 -136 -149h196v-65h-199v-56v-9h199v-66h-194
q20 -153 134 -153z" />
    <glyph glyph-name="sterling.tf.case" 
d="M510 204l159 -22q-13 -95 -71 -147t-144 -52q-41 0 -107.5 14t-118.5 14q-82 0 -172 -19l-32 94q129 41 129 172q0 35 -6 65h-96v82h76q-15 58 -15 100q0 105 70 165t191 60q229 0 264 -188l-158 -33q-7 50 -34 76.5t-71 26.5q-100 0 -100 -104q0 -45 15 -103h161v-82
h-143q3 -23 3 -48q0 -111 -105 -155q35 7 73 7q28 0 72.5 -7.5t71.5 -7.5q36 0 59.5 23.5t28.5 68.5z" />
    <glyph glyph-name="yen.tf.case" 
d="M681 710l-231 -387h170v-70h-186v-65h186v-70h-186v-118h-172v118h-185v70h185v65h-185v70h169l-230 387h187l120 -236q16 -32 24 -63h2q9 33 25 63l120 236h187z" />
    <glyph glyph-name="yen.case" horiz-adv-x="739" 
d="M744 710l-274 -393h203v-71h-218v-60h218v-71h-218v-115h-172v115h-215v71h215v60h-215v71h200l-273 393h194l125 -192q38 -63 55 -103h3q17 40 55 103l127 192h190z" />
    <glyph glyph-name="currency.tf" 
d="M619 303q0 -82 -47 -142l59 -59l-72 -68l-66 63q-63 -30 -141 -30q-85 0 -149 35l-67 -67l-73 68l65 64q-43 57 -43 136q0 78 43 137l-65 64l73 68l69 -67q63 34 147 34q80 0 142 -31l67 65l73 -68l-62 -60q47 -60 47 -142zM352 180q62 0 100 33.5t38 89.5q0 55 -38 88.5
t-100 33.5t-100 -33.5t-38 -88.5q0 -56 38 -89.5t100 -33.5z" />
    <glyph glyph-name="plus.case" horiz-adv-x="620" 
d="M575 433v-108h-206v-192h-119v192h-205v108h205v181h119v-181h206z" />
    <glyph glyph-name="minus.case" horiz-adv-x="620" 
d="M45 323v111h530v-111h-530z" />
    <glyph glyph-name="multiply.case" 
d="M622 554l-190 -177l189 -177l-81 -81l-192 180l-192 -179l-81 79l190 177l-190 178l82 79l191 -178l191 178z" />
    <glyph glyph-name="divide.case" horiz-adv-x="620" 
d="M308 488q-31 0 -51 20t-20 51q0 32 20 52t51 20t51.5 -20t20.5 -52q0 -31 -20.5 -51t-51.5 -20zM45 323v109h530v-109h-530zM308 121q-31 0 -51 20t-20 52t20 51.5t51 19.5t51.5 -19.5t20.5 -51.5q0 -31 -20.5 -51.5t-51.5 -20.5z" />
    <glyph glyph-name="equal.case" horiz-adv-x="614" 
d="M45 422v106h524v-106h-524zM45 230v106h524v-106h-524z" />
    <glyph glyph-name="notequal.case" 
d="M592 422h-188l-38 -86h226v-106h-274l-52 -117h-85l52 117h-165v106h213l38 86h-251v106h298l51 113h85l-51 -113h141v-106z" />
    <glyph glyph-name="greater.case" 
d="M113 121v123l373 133l-373 133v121l511 -200v-110z" />
    <glyph glyph-name="less.case" 
d="M584 121l-511 200v110l511 200v-121l-373 -133l373 -133v-123z" />
    <glyph glyph-name="greaterequal.case" 
d="M102 187v123l373 133l-373 133v121l511 -200v-110zM611 154v-104h-510v104h510z" />
    <glyph glyph-name="lessequal.case" 
d="M595 187l-511 200v110l511 200v-121l-373 -133l373 -133v-123zM86 154h510v-104h-510v104z" />
    <glyph glyph-name="plusminus.case" 
d="M407 446h207v-109h-207v-147h-119v147h-206v109h206v153h119v-153zM82 50v107h532v-107h-532z" />
    <glyph glyph-name="approxequal.case" 
d="M479 395q-46 0 -134 31.5t-124 31.5q-37 0 -74 -13.5t-61 -34.5v112q22 20 60 33t74 13q55 0 138 -32t119 -32q38 0 74.5 13.5t59.5 34.5v-111q-20 -20 -57.5 -33t-74.5 -13zM479 200q-46 0 -134 32t-124 32q-37 0 -74 -13.5t-61 -34.5v111q22 20 60 33.5t74 13.5
q55 0 138 -32t119 -32q38 0 74.5 13.5t59.5 34.5v-112q-20 -20 -57.5 -33t-74.5 -13z" />
    <glyph glyph-name="asciitilde.case" 
d="M455 257q-43 0 -81 19t-68.5 38t-57.5 19q-63 0 -79 -70l-98 24q14 70 59.5 108t110.5 38q44 0 82.5 -19t69.5 -38t57 -19q61 0 78 71l97 -22q-14 -73 -60 -111t-110 -38z" />
    <glyph glyph-name="logicalnot.case" 
d="M85 436h513v-264h-111v158h-402v106z" />
    <glyph glyph-name="infinity.case" horiz-adv-x="701" 
d="M507 544q73 0 118.5 -44.5t45.5 -120.5q0 -74 -46.5 -120.5t-117.5 -46.5q-94 0 -158 84q-65 -84 -155 -84q-72 0 -118 44.5t-46 120.5q0 74 46.5 120.5t117.5 46.5q94 0 158 -84q65 84 155 84zM206 311q28 0 49 16.5t42 48.5q-42 69 -91 69q-30 0 -48 -17.5t-18 -49.5
t18.5 -49.5t47.5 -17.5zM496 311q29 0 47 17.5t18 49.5t-18.5 49.5t-47.5 17.5q-28 0 -48.5 -16t-41.5 -49q41 -69 91 -69z" />
    <glyph glyph-name="emptyset.case" horiz-adv-x="598" 
d="M571 567l-61 -58q56 -62 56 -154q0 -107 -73.5 -172t-193.5 -65q-92 0 -161 41l-65 -61l-46 44l62 58q-57 63 -57 154q0 107 74 172.5t193 65.5q94 0 161 -42l65 61zM161 355q0 -39 19 -69l190 179q-30 15 -71 15q-62 0 -100 -34t-38 -91zM437 354q0 39 -19 69l-190 -179
q30 -15 71 -15q62 0 100 34t38 91z" />
    <glyph glyph-name="plus.tf.case" 
d="M613 433v-108h-206v-192h-119v192h-205v108h205v181h119v-181h206z" />
    <glyph glyph-name="minus.tf.case" 
d="M83 323v111h530v-111h-530z" />
    <glyph glyph-name="divide.tf.case" 
d="M337 488q-31 0 -51 20t-20 51q0 32 20 52t51 20t51.5 -20t20.5 -52q0 -31 -20.5 -51t-51.5 -20zM74 323v109h530v-109h-530zM337 121q-31 0 -51 20t-20 52t20 51.5t51 19.5t51.5 -19.5t20.5 -51.5q0 -31 -20.5 -51.5t-51.5 -20.5z" />
    <glyph glyph-name="equal.tf.case" 
d="M69 422v106h524v-106h-524zM69 230v106h524v-106h-524z" />
    <glyph glyph-name="emptyset.tf.case" 
d="M621 567l-61 -58q56 -62 56 -154q0 -107 -74 -172t-194 -65q-92 0 -160 41l-65 -61l-47 44l62 58q-57 63 -57 154q0 107 74 172.5t194 65.5q94 0 161 -42l65 61zM210 355q0 -39 19 -69l191 179q-30 15 -71 15q-63 0 -101 -34t-38 -91zM487 354q0 39 -19 69l-190 -179
q30 -15 70 -15q63 0 101 34t38 91z" />
    <glyph glyph-name="plus.subs" horiz-adv-x="486" 
d="M444 143v-87h-154v-138h-94v138h-154v87h154v131h94v-131h154z" />
    <glyph glyph-name="minus.subs" horiz-adv-x="486" 
d="M42 57v86h402v-86h-402z" />
    <glyph glyph-name="multiply.subs" horiz-adv-x="539" 
d="M477 227l-141 -129l140 -127l-64 -63l-142 130l-142 -130l-65 62l141 128l-141 129l65 61l142 -129l141 129z" />
    <glyph glyph-name="divide.subs" horiz-adv-x="486" 
d="M241 177q-25 0 -41 15.5t-16 40.5q0 26 16 41.5t41 15.5t41.5 -15.5t16.5 -41.5q0 -25 -16.5 -40.5t-41.5 -15.5zM42 57v86h402v-86h-402zM241 -93q-25 0 -41 15.5t-16 40.5q0 26 16 42t41 16t41.5 -16t16.5 -42q0 -25 -16.5 -40.5t-41.5 -15.5z" />
    <glyph glyph-name="plus.sups" horiz-adv-x="486" 
d="M444 593v-87h-154v-138h-94v138h-154v87h154v131h94v-131h154z" />
    <glyph glyph-name="minus.sups" horiz-adv-x="486" 
d="M42 507v86h402v-86h-402z" />
    <glyph glyph-name="multiply.sups" horiz-adv-x="539" 
d="M477 677l-141 -129l140 -127l-64 -63l-142 130l-142 -130l-65 62l141 128l-141 129l65 61l142 -129l141 129z" />
    <glyph glyph-name="divide.sups" horiz-adv-x="486" 
d="M241 627q-25 0 -41 15.5t-16 40.5q0 26 16 41.5t41 15.5t41.5 -15.5t16.5 -41.5q0 -25 -16.5 -40.5t-41.5 -15.5zM42 507v86h402v-86h-402zM241 357q-25 0 -41 15.5t-16 40.5q0 26 16 42t41 16t41.5 -16t16.5 -42q0 -25 -16.5 -40.5t-41.5 -15.5z" />
    <glyph glyph-name="plus.tf" 
d="M613 383v-108h-206v-192h-119v192h-205v108h205v181h119v-181h206z" />
    <glyph glyph-name="minus.tf" 
d="M83 273v111h530v-111h-530z" />
    <glyph glyph-name="divide.tf" 
d="M337 438q-31 0 -51 20t-20 51q0 32 20 52t51 20t51.5 -20t20.5 -52q0 -31 -20.5 -51t-51.5 -20zM74 273v109h530v-109h-530zM337 71q-31 0 -51 20t-20 52t20 51.5t51 19.5t51.5 -19.5t20.5 -51.5q0 -31 -20.5 -51.5t-51.5 -20.5z" />
    <glyph glyph-name="equal.tf" 
d="M69 372v106h524v-106h-524zM69 180v106h524v-106h-524z" />
    <glyph glyph-name="emptyset.tf" 
d="M621 517l-61 -58q56 -62 56 -154q0 -107 -74 -172t-194 -65q-92 0 -160 41l-65 -61l-47 44l62 58q-57 63 -57 154q0 107 74 172.5t194 65.5q94 0 161 -42l65 61zM210 305q0 -39 19 -69l191 179q-30 15 -71 15q-63 0 -101 -34t-38 -91zM487 304q0 39 -19 69l-190 -179
q30 -15 70 -15q63 0 101 34t38 91z" />
    <glyph glyph-name="percent.tf" 
d="M81 -15l444 745h91l-441 -745h-94zM182 379q-73 0 -116 46.5t-43 126.5q0 77 43 123.5t115 46.5q70 0 113.5 -47.5t43.5 -125.5q0 -77 -43.5 -123.5t-112.5 -46.5zM182 468q26 0 40.5 21t14.5 58v8q0 37 -14.5 58t-40.5 21q-27 0 -42 -20.5t-15 -56.5v-8q0 -39 15 -60
t42 -21zM519 -11q-73 0 -116 46.5t-43 126.5q0 77 43 123.5t115 46.5q70 0 113.5 -47.5t43.5 -125.5q0 -77 -43.5 -123.5t-112.5 -46.5zM519 78q26 0 40.5 21t14.5 58v8q0 37 -14.5 58t-40.5 21q-27 0 -42 -20.5t-15 -56.5v-8q0 -39 15 -60t42 -21z" />
    <glyph glyph-name="uni21BB.alt" horiz-adv-x="1082" 
d="M955 387h102l-149 -199l-150 199h105q-10 117 -95.5 189t-222.5 72q-151 0 -263 -99l-59 66q133 121 329 121q173 0 283.5 -97.5t119.5 -251.5zM535 58q153 0 264 100l59 -67q-133 -121 -329 -121q-172 0 -282.5 96.5t-120.5 249.5h-101l150 199l150 -199h-107
q10 -115 95.5 -186.5t221.5 -71.5z" />
    <glyph glyph-name="arrowup.ss03" horiz-adv-x="816" 
d="M339 507l-170 -188l-87 104l327 327l325 -327l-84 -104l-175 188v-542h-136v542z" />
    <glyph glyph-name="uni2197.ss03" horiz-adv-x="907" 
d="M698 488l-517 -528l-99 103l525 524l-249 -3v126h467v-469h-130z" />
    <glyph glyph-name="arrowright.ss03" horiz-adv-x="1121" 
d="M800 264h-718v129h718l-191 178l103 85l327 -326l-327 -327l-104 88z" />
    <glyph glyph-name="uni2198.ss03" horiz-adv-x="907" 
d="M698 210l-3 247h130v-469h-467v126l249 -3l-525 524l99 103z" />
    <glyph glyph-name="arrowdown.ss03" horiz-adv-x="816" 
d="M339 203v542h136v-542l175 188l84 -104l-325 -327l-327 327l87 104z" />
    <glyph glyph-name="uni2199.ss03" horiz-adv-x="907" 
d="M209 210l517 528l99 -103l-525 -524l249 3v-126h-467v469h130z" />
    <glyph glyph-name="arrowleft.ss03" horiz-adv-x="1121" 
d="M321 264l192 -173l-104 -88l-327 327l327 326l103 -85l-191 -178h718v-129h-718z" />
    <glyph glyph-name="uni2196.ss03" horiz-adv-x="907" 
d="M209 488l3 -247h-130v469h467v-126l-249 3l525 -524l-99 -103z" />
    <glyph glyph-name="circle.invert" horiz-adv-x="854" 
d="M427 -20q-175 0 -288.5 102t-113.5 273t113.5 273t288.5 102q176 0 289 -102t113 -273t-113 -273t-289 -102z" />
    <glyph glyph-name="at.case" horiz-adv-x="916" 
d="M456 -33q-200 0 -315.5 102t-115.5 278q0 171 122 278.5t319 107.5q194 0 309.5 -100t115.5 -266q0 -107 -52.5 -169t-141.5 -62q-117 0 -143 83q-52 -88 -176 -88q-73 0 -116.5 34.5t-43.5 92.5q0 59 41.5 91t133.5 44l153 17v14q0 74 -86 74q-80 0 -85 -66h-144
q4 70 67.5 113.5t163.5 43.5q220 0 220 -175v-131q0 -38 12 -54.5t40 -16.5q38 0 59.5 41t21.5 112q0 142 -92 221.5t-258 79.5q-167 0 -264 -86t-97 -233q0 -143 98 -227t265 -84q113 0 203 40l28 -61q-100 -48 -242 -48zM433 223q50 0 82 26t32 68v25l-108 -12
q-77 -10 -77 -57q0 -23 19.5 -36.5t51.5 -13.5z" />
    <glyph glyph-name="section.case" horiz-adv-x="577" 
d="M492 251q54 -36 54 -107q0 -77 -71 -120.5t-197 -43.5q-194 0 -275 112l93 78q63 -82 190 -82q100 0 100 46q0 22 -15.5 32.5t-59.5 20.5l-149 28q-156 31 -156 144q0 73 74 108q-58 39 -58 109q0 73 69 113.5t191 40.5q170 0 253 -88l-87 -82q-69 66 -174 66
q-95 0 -95 -46q0 -19 15.5 -30t51.5 -19l150 -28q83 -16 119 -50t36 -93q0 -71 -59 -109zM227 319l159 -30h1q24 15 24 45q0 25 -16 38.5t-58 23.5l-156 32q-30 -14 -30 -47q0 -25 18 -39.5t58 -22.5z" />
    <glyph glyph-name="bar.case" horiz-adv-x="262" 
d="M79 -85v877h104v-877h-104z" />
    <glyph glyph-name="brokenbar.case" horiz-adv-x="262" 
d="M183 800v-375h-104v375h104zM183 304v-381h-104v381h104z" />
    <glyph glyph-name="dagger.case" horiz-adv-x="563" 
d="M340 442v-492h-118v492h-176v98h176v220h118v-220h177v-98h-177z" />
    <glyph glyph-name="daggerdbl.case" horiz-adv-x="563" 
d="M517 442h-177v-172h176v-97h-176v-223h-118v223h-175v97h175v172h-176v98h176v220h118v-220h177v-98z" />
    <glyph glyph-name="registered.ss04" horiz-adv-x="549" 
d="M275 730q115 0 189.5 -67.5t74.5 -180.5t-74.5 -180.5t-189.5 -67.5q-116 0 -190.5 67.5t-74.5 180.5t74.5 180.5t190.5 67.5zM275 275q95 0 156.5 56t61.5 151t-62 151.5t-156 56.5q-95 0 -157 -56.5t-62 -151.5t62 -151t157 -56zM417 532q0 -60 -59 -77l62 -104h-88
l-52 94h-45v-94h-80v268h159q50 0 76.5 -22.5t26.5 -64.5zM235 566v-71h55q44 0 44 35q0 36 -42 36h-57z" />
    <glyph glyph-name="Bitcoin.case" horiz-adv-x="782" 
d="M745 201q0 -89 -61.5 -143t-174.5 -58v-88h-66v88h-117v-88h-66v88h-178v710h178v84h66v-84h117v84h66v-84q107 -4 162.5 -51.5t55.5 -129.5q0 -60 -34.5 -101.5t-97.5 -57.5q72 -11 111 -54.5t39 -114.5zM439 591h-186v-176h187q106 0 106 90q0 86 -107 86zM451 118
q55 0 84 26t29 71q0 44 -29 68.5t-83 24.5h-199v-190h198z" />
    <glyph glyph-name="Baht.case" horiz-adv-x="782" 
d="M593 369q74 -10 113 -52.5t39 -113.5q0 -98 -66.5 -150.5t-183.5 -52.5h-71v-90h-63v90h-279v709h279v85h63v-85h61q116 0 179 -47t63 -138q0 -58 -35 -98.5t-99 -56.5zM245 596v-186h116v186h-116zM447 596h-23v-186h23q106 0 106 96q0 90 -106 90zM245 113h116v199
h-116v-199zM459 113q54 0 83 26.5t29 75.5q0 47 -29 72t-82 25h-36v-199h35z" />
    <glyph glyph-name="Lira.case" horiz-adv-x="687" 
d="M528 259l155 -22q-12 -50 -32 -89t-54 -74.5t-89 -54.5t-128 -19h-271v265l-90 -22v69l90 22v77l-90 -22v68l90 22v231h174v-188l252 62v-68l-252 -62v-77l252 62v-68l-252 -63v-181h73q135 0 172 132z" />
    <glyph glyph-name="Ruble.case" horiz-adv-x="738" 
d="M448 259h-171v-75h193v-67h-193v-117h-174v117h-100v67h100v75h-100v114h100v337h352q122 0 195 -60t73 -162q0 -107 -73.5 -168t-201.5 -61zM277 588v-215h142q55 0 86 28.5t31 79.5t-30.5 79t-86.5 28h-142z" />
    <glyph glyph-name="Rupee.case" horiz-adv-x="707" 
d="M685 609h-203q37 -41 44 -99h159v-66h-157q-9 -78 -67.5 -128t-165.5 -59h-14l247 -257h-200l-259 275v74h132q127 0 144 95h-276v66h276q-16 99 -134 99h-142v101h616v-101z" />
    <glyph glyph-name="Won.case" horiz-adv-x="1126" 
d="M1103 398h-93l-21 -75h114v-61h-131l-72 -262h-188l-66 262h-166l-66 -262h-188l-72 262h-131v61h114l-20 75h-94v61h77l-69 251h161l54 -251h166l66 251h170l66 -251h166l54 251h162l-69 -251h76v-61zM537 488l-7 -29h66l-7 29q-16 60 -24 130h-4q-8 -70 -24 -130z
M259 398l16 -75h102l19 75h-137zM495 323h136l-19 75h-98zM851 323l16 75h-137l19 -75h102zM349 217l12 45h-73l9 -43q14 -65 21 -123h4q5 47 27 121zM829 219l9 43h-73l12 -45q22 -74 27 -121h4q7 58 21 123z" />
    <glyph glyph-name="caronaccentcomb" horiz-adv-x="251" 
d="M96 521l-25 49q53 9 54 39h-75v101h149v-81q0 -93 -103 -108z" />
    <glyph glyph-name="Won.tf" 
d="M668 392h-45l-9 -73h54v-59h-62l-33 -260h-158l-30 260h-73l-30 -260h-158l-33 260h-62v59h54l-9 73h-45v59h37l-31 244h120l18 -244h73l32 244h141l32 -244h73l18 244h120l-31 -244h37v-59zM342 527l-9 -76h31l-9 76q-2 29 -4 73h-5q-2 -44 -4 -73zM178 392l5 -73h46
l10 73h-61zM318 319h61l-9 73h-43zM514 319l5 73h-61l10 -73h46zM209 165l12 95h-33l7 -95q2 -33 4 -69h4zM502 165l7 95h-33l12 -95q2 -14 6 -69h4q2 36 4 69z" />
    <glyph glyph-name="Lira.tf" 
d="M513 257l153 -22q-52 -235 -294 -235h-248v263l-81 -21v67l81 21v77l-81 -21v67l81 21v221h170v-177l226 58v-68l-226 -58v-76l226 58v-68l-226 -58v-179h56q130 0 163 130z" />
    <glyph glyph-name="Ruble.tf" 
d="M415 252h-125v-73h164v-65h-164v-114h-170v114h-91v65h91v73h-91v112h91v331h293q130 0 195 -63.5t65 -155.5q0 -96 -64.5 -160t-193.5 -64zM290 576v-212h96q60 0 89 30t29 79q0 47 -29 75t-89 28h-96z" />
    <glyph glyph-name="Rupee.tf" 
d="M645 594h-175q32 -38 40 -95h135v-65h-135q-9 -78 -63.5 -128.5t-155.5 -54.5h-9l254 -251h-207l-253 261v80h117q119 0 135 93h-252v65h251q-16 95 -131 95h-120v101h569v-101z" />
    <glyph glyph-name="Baht.tf" 
d="M502 360q73 -11 112.5 -53t39.5 -110q0 -96 -66 -146.5t-183 -50.5h-32v-107h-64v107h-240v695h240v90h64v-90h25q114 0 177 -45.5t63 -135.5q0 -58 -36 -98.5t-100 -55.5zM309 588h-89v-187h89v187zM375 588h-2v-187q106 0 106 97q0 90 -104 90zM220 107h89v196h-89
v-196zM382 107q114 0 114 104q0 44 -29.5 68t-81.5 24h-12v-196h9z" />
    <glyph glyph-name="Bitcoin.tf" 
d="M658 197q0 -87 -56.5 -137t-157.5 -58v-109h-67v107h-90v-107h-67v107h-153v695h153v90h67v-90h90v90h67v-92q95 -8 146 -53t51 -126q0 -58 -36 -98.5t-100 -55.5q74 -11 113.5 -53.5t39.5 -109.5zM469 498q0 81 -96 81h-141v-175h139q98 0 98 94zM381 116q104 0 104 95
q0 43 -27 66.5t-75 23.5h-151v-185h149z" />
    <glyph glyph-name="percentzerotfcomb" 
d="M178 375q-73 0 -116 46.5t-43 126.5q0 77 43 123.5t115 46.5q70 0 113.5 -47.5t43.5 -125.5q0 -77 -43.5 -123.5t-112.5 -46.5zM178 464q26 0 40.5 21t14.5 58v8q0 37 -14.5 58t-40.5 21q-27 0 -42 -20.5t-15 -56.5v-8q0 -39 15 -60t42 -21z" />
    <glyph glyph-name="Won.tf.case" 
d="M668 400h-45l-9 -75h54v-60h-62l-33 -265h-158l-29 265h-75l-29 -265h-158l-33 265h-62v60h54l-9 75h-45v59h37l-31 251h120l18 -251h73l32 251h141l32 -251h73l18 251h120l-31 -251h37v-59zM342 541l-9 -82h31l-9 82q-2 30 -4 74h-5q-2 -44 -4 -74zM178 400l5 -75h46
l10 75h-61zM318 325h61l-8 75h-45zM514 325l5 75h-61l10 -75h46zM209 166l13 99h-34l7 -99q2 -33 4 -69h4q1 8 2 20.5t2 24t2 24.5zM502 166l7 99h-34l13 -99q2 -15 6 -69h4q2 36 4 69z" />
    <glyph glyph-name="Lira.tf.case" 
d="M513 261l153 -22q-52 -239 -294 -239h-248v267l-81 -21v69l81 21v78l-81 -21v69l81 21v227h170v-183l226 59v-69l-226 -59v-78l226 59v-69l-226 -59v-184h56q130 0 163 134z" />
    <glyph glyph-name="Ruble.tf.case" 
d="M415 259h-125v-76h164v-66h-164v-117h-170v117h-91v66h91v76h-91v112h91v339h293q127 0 193.5 -63t66.5 -159q0 -101 -66 -165t-192 -64zM290 591v-220h96q58 0 88 30.5t30 83.5q0 49 -30 77.5t-88 28.5h-96z" />
    <glyph glyph-name="Rupee.tf.case" 
d="M645 609h-176q33 -39 41 -100h135v-66h-135q-9 -79 -64 -130.5t-155 -55.5h-9l254 -257h-207l-253 267v80h117q119 0 135 96h-252v66h251q-14 100 -131 100h-120v101h569v-101z" />
    <glyph glyph-name="Baht.tf.case" 
d="M502 368q73 -11 112.5 -54t39.5 -112q0 -99 -66 -150.5t-183 -51.5h-32v-97h-64v97h-240v710h240v88h64v-88h25q114 0 177 -46.5t63 -139.5q0 -59 -36 -100t-100 -56zM309 602h-89v-193h89v193zM375 602h-2v-193q106 0 106 100q0 93 -104 93zM220 107h89v203h-89v-203z
M382 107q114 0 114 109q0 45 -29.5 69.5t-81.5 24.5h-12v-203h9z" />
    <glyph glyph-name="Bitcoin.tf.case" 
d="M658 202q0 -90 -56.5 -141t-157.5 -59v-99h-67v97h-90v-97h-67v97h-153v710h153v88h67v-88h90v88h67v-90q95 -9 146 -55t51 -129q0 -59 -36 -100t-100 -56q74 -11 113.5 -54t39.5 -112zM469 509q0 84 -96 84h-141v-182h139q98 0 98 98zM381 116q104 0 104 100
q0 45 -27 69t-75 24h-151v-193h149z" />
    </font>
</defs>
</svg>
