<svg xmlns="http://www.w3.org/2000/svg">
<defs>
<font id="GTAmerica-ExtendedBoldItalic" horiz-adv-x="697" >
  <font-face 
    font-family="GT America Extended Bold"
    font-weight="700"
    font-style="italic"
    font-stretch="expanded"
    units-per-em="1000"
    panose-1="0 0 8 5 0 0 0 0 0 0"
    ascent="800"
    descent="-200"
    x-height="500"
    cap-height="710"
    bbox="-528 -243 1507 979"
    underline-thickness="50"
    underline-position="-200"
    slope="-10"
    unicode-range="U+000D-FB02"
  />
<missing-glyph horiz-adv-x="1018" 
d="M1071 663h-552l-8 -47h552l-9 -48h-552l-8 -47h552l-9 -48h-552l-8 -47h552l-8 -47h-552l-9 -48h552l-8 -47h-978l75 426h978zM141 667l14 9h-16l-2 15l-7 -15h-16l12 -9l-8 -15l14 9l11 -9zM217 676h-16l12 -9l-8 -15l14 10l11 -10l-2 15l13 9h-15l-2 15zM304 676h-16
l12 -9l-8 -15l14 10l11 -10l-2 15l13 9h-15l-2 15zM390 676h-15l12 -9l-8 -15l14 10l11 -10l-2 15l13 9h-15l-2 15zM489 667l13 9h-15l-2 15l-8 -15h-15l11 -9l-7 -15l14 10l11 -10zM165 632h-15l11 -9l-7 -14l14 9l10 -9l-1 14l13 9h-15l-2 15zM437 623l14 9h-16l-1 15
l-8 -15h-15l11 -9l-8 -14l15 9l10 -9zM293 364l17 93h94l14 80h-94l16 94h-80l-16 -94h-93l-14 -80h93l-17 -93h80zM125 580l15 9h-16l-3 14l-6 -14h-16l11 -9l-7 -15l13 9l12 -9zM202 589h-16l11 -9l-7 -15l13 9l12 -9l-3 15l14 9h-15l-3 14zM375 589h-15l11 -9l-7 -15
l13 9l12 -9l-3 15l14 9h-15l-3 14zM473 580l14 9h-15l-3 14l-7 -14h-15l10 -9l-6 -15l13 9l12 -9zM110 492l15 10h-16l-3 14l-6 -14h-16l11 -10l-8 -14l14 9l11 -9zM458 492l14 10h-15l-3 14l-7 -14h-15l10 -10l-7 -14l14 9l11 -9zM94 405l15 9h-16l-2 15l-7 -15h-16l11 -9
l-7 -14l14 9l11 -9zM181 405l14 9h-15l-2 15l-7 -15h-16l11 -9l-7 -14l14 9l11 -9zM355 405l14 9h-15l-2 15l-8 -15h-15l11 -9l-7 -14l14 9l11 -9zM442 405l14 9h-15l-2 15l-8 -15h-15l10 -9l-6 -14l14 9l11 -9zM132 347l-1 15l13 9h-15l-2 14l-8 -14h-15l11 -9l-7 -15l14 9

<glyph glyph-name="fi" unicode="fi" horiz-adv-x="797" 
d="M502 500l-20 -112h-159l-69 -388h-171l68 388h-110l20 112h110l7 39q34 194 233 194q69 0 130 -19l-21 -118q-38 13 -82 13t-63.5 -18.5t-26.5 -57.5l-5 -33h159zM604 572l27 149h180l-27 -149h-180zM506 0l91 500h170l-91 -500h-170z" />
    <glyph glyph-name="fl" unicode="fl" horiz-adv-x="805" 
d="M502 500l-20 -112h-159l-69 -388h-171l68 388h-110l20 112h110l7 39q34 194 233 194q69 0 130 -19l-21 -118q-38 13 -82 13t-63.5 -18.5t-26.5 -57.5l-5 -33h159zM810 725l-128 -725h-171l128 725h171z" />
    <glyph glyph-name="g_g.liga" unicode="gg" horiz-adv-x="1332" 
d="M187 193q-26 -12 -26 -35q0 -19 16 -27t55 -9l153 -2q99 -2 150 -30.5t51 -107.5q0 -192 -340 -192q-278 0 -278 119q0 75 112 97q-64 26 -64 89q0 88 126 119q-67 39 -67 116q0 76 67.5 130.5t218.5 54.5q95 0 159 -23q35 96 145 96q28 0 58 -7l-20 -112q-28 11 -65 11
q-44 0 -63 -18q51 -39 51 -105q0 -76 -68 -130.5t-219 -54.5q-89 0 -152 21zM1313 588q30 0 58 -7l-19 -112q-28 11 -66 11q-42 0 -63 -18q51 -39 51 -105q0 -76 -68 -130.5t-218 -54.5q-89 0 -152 21q-27 -11 -27 -35q0 -19 16 -27t56 -9l177 -2q100 -2 152 -30.5
t52 -107.5q0 -192 -364 -192q-264 0 -264 119q0 74 98 96q-66 26 -66 90q0 88 125 119q-68 40 -68 116t68 130.5t218 54.5q96 0 159 -24q36 97 145 97zM356 430q-61 0 -87.5 -28t-26.5 -66q0 -42 29.5 -60t72.5 -18q61 0 87.5 27.5t26.5 66.5q0 42 -29.5 60t-72.5 18z
M993 258q61 0 87 27.5t26 66.5q0 78 -102 78q-61 0 -87 -27.5t-26 -66.5q0 -78 102 -78zM207 -14q-43 0 -76 6q-28 -18 -28 -47q0 -40 45 -54t125 -14q90 0 124 17t34 48q0 23 -16 32t-52 10zM855 -14q-34 0 -66 5q-20 -17 -20 -46q0 -21 12 -35t35 -21t48.5 -9.5t60.5 -2.5
q183 0 183 65q0 23 -17.5 32t-54.5 10z" />
    <glyph glyph-name=".notdef" horiz-adv-x="1018" 
d="M1071 663h-552l-8 -47h552l-9 -48h-552l-8 -47h552l-9 -48h-552l-8 -47h552l-8 -47h-552l-9 -48h552l-8 -47h-978l75 426h978zM141 667l14 9h-16l-2 15l-7 -15h-16l12 -9l-8 -15l14 9l11 -9zM217 676h-16l12 -9l-8 -15l14 10l11 -10l-2 15l13 9h-15l-2 15zM304 676h-16
l12 -9l-8 -15l14 10l11 -10l-2 15l13 9h-15l-2 15zM390 676h-15l12 -9l-8 -15l14 10l11 -10l-2 15l13 9h-15l-2 15zM489 667l13 9h-15l-2 15l-8 -15h-15l11 -9l-7 -15l14 10l11 -10zM165 632h-15l11 -9l-7 -14l14 9l10 -9l-1 14l13 9h-15l-2 15zM437 623l14 9h-16l-1 15
l-8 -15h-15l11 -9l-8 -14l15 9l10 -9zM293 364l17 93h94l14 80h-94l16 94h-80l-16 -94h-93l-14 -80h93l-17 -93h80zM125 580l15 9h-16l-3 14l-6 -14h-16l11 -9l-7 -15l13 9l12 -9zM202 589h-16l11 -9l-7 -15l13 9l12 -9l-3 15l14 9h-15l-3 14zM375 589h-15l11 -9l-7 -15
l13 9l12 -9l-3 15l14 9h-15l-3 14zM473 580l14 9h-15l-3 14l-7 -14h-15l10 -9l-6 -15l13 9l12 -9zM110 492l15 10h-16l-3 14l-6 -14h-16l11 -10l-8 -14l14 9l11 -9zM458 492l14 10h-15l-3 14l-7 -14h-15l10 -10l-7 -14l14 9l11 -9zM94 405l15 9h-16l-2 15l-7 -15h-16l11 -9
l-7 -14l14 9l11 -9zM181 405l14 9h-15l-2 15l-7 -15h-16l11 -9l-7 -14l14 9l11 -9zM355 405l14 9h-15l-2 15l-8 -15h-15l11 -9l-7 -14l14 9l11 -9zM442 405l14 9h-15l-2 15l-8 -15h-15l10 -9l-6 -14l14 9l11 -9zM132 347l-1 15l13 9h-15l-2 14l-8 -14h-15l11 -9l-7 -15l14 9
zM393 347l-2 15l14 9h-16l-1 14l-8 -14h-15l11 -9l-8 -15l15 9zM81 303l-2 15l15 9h-16l-3 15l-6 -15h-16l11 -9l-8 -15l14 9zM168 303l-2 15l14 9h-15l-3 15l-6 -15h-16l11 -9l-8 -15l14 9zM255 303l-2 15l14 9h-15l-3 15l-6 -15h-16l11 -9l-8 -15l14 9zM342 303l-2 15
l14 9h-15l-3 15l-7 -15h-15l11 -9l-8 -15l14 9zM429 303l-2 15l14 9h-15l-3 15l-7 -15h-15l10 -9l-7 -15l14 9zM9 189l9 48h977l-9 -48h-977zM-7 95l8 47h978l-8 -47h-978zM-24 0l8 47h978l-8 -47h-978z" />
    <glyph glyph-name=".null" horiz-adv-x="0" 
 />
    <glyph glyph-name=".null" horiz-adv-x="0" 
 />
    <glyph glyph-name="nonmarkingreturn" horiz-adv-x="333" 
 />
    <glyph glyph-name="CR" unicode="&#xd;" horiz-adv-x="0" 
 />
    <glyph glyph-name="space" unicode=" " horiz-adv-x="312" 
 />
    <glyph glyph-name="exclam" unicode="!" horiz-adv-x="362" 
d="M108 235l60 490h194l-113 -490h-141zM260 154l-28 -154h-191l28 154h191z" />
    <glyph glyph-name="quotedbl" unicode="&#x22;" horiz-adv-x="503" 
d="M111 396l32 314h162l-78 -314h-116zM329 396l32 314h162l-78 -314h-116z" />
    <glyph glyph-name="numbersign" unicode="#" horiz-adv-x="728" 
d="M735 411h-143l-24 -128h133v-109h-154l-33 -174h-130l33 174h-148l-33 -174h-129l33 174h-118v109h139l24 128h-123v109h143l33 172h129l-33 -172h148l33 172h130l-33 -172h123v-109zM438 283l24 128h-148l-24 -128h148z" />
    <glyph glyph-name="dollar" unicode="$" horiz-adv-x="724" 
d="M484 412q102 -18 153 -65t51 -129q0 -102 -81 -168.5t-259 -66.5h-4l-16 -89h-68l16 92q-108 10 -184.5 51.5t-109.5 111.5l135 78q49 -103 181 -119l33 189l-33 5q-216 35 -216 196q0 92 76.5 153.5t246.5 61.5l15 86h67l-16 -89q198 -17 263 -139l-123 -82
q-47 86 -160 103l-30 -170zM242 515q0 -33 25.5 -52t87.5 -31l29 164q-142 -3 -142 -81zM365 105q160 2 160 94q0 38 -26.5 57.5t-85.5 29.5l-16 2z" />
    <glyph glyph-name="percent" unicode="%" horiz-adv-x="1055" 
d="M132 -16l707 740h121l-707 -740h-121zM274 336q-39 0 -74 8t-67 26.5t-51 52.5t-19 81q0 40 14 77t42 68.5t75.5 50t108.5 18.5q39 0 74.5 -8.5t67 -26.5t50.5 -52.5t19 -80.5q0 -86 -61 -150t-179 -64zM276 429q54 0 82 36t28 81q0 42 -25 60.5t-60 18.5
q-54 0 -82 -35.5t-28 -80.5q0 -43 25 -61.5t60 -18.5zM786 -17q-39 0 -74 8t-67 26.5t-51 52.5t-19 81q0 40 14 77t42 68.5t75.5 50t108.5 18.5q39 0 74.5 -8.5t67 -26.5t50.5 -52.5t19 -80.5q0 -86 -61 -150t-179 -64zM788 76q54 0 82 36t28 81q0 42 -25 60.5t-60 18.5
q-54 0 -82 -35.5t-28 -80.5q0 -43 25 -61.5t60 -18.5z" />
    <glyph glyph-name="ampersand" unicode="&#x26;" horiz-adv-x="797" 
d="M636 132q32 -18 67 -18q33 0 57 8l-21 -119q-36 -16 -87 -16q-73 0 -131 50q-101 -57 -235 -57q-40 0 -76.5 4.5t-75.5 18t-67 35t-46 58t-18 83.5q0 140 191 209q-56 74 -56 153q0 35 12 67.5t38 62.5t75.5 48t116.5 18q41 0 79 -7.5t73.5 -24.5t57 -50t21.5 -79
q0 -142 -202 -213l139 -148q57 77 88 194l127 -26q-39 -150 -127 -251zM380 638q-49 0 -68 -26.5t-19 -61.5q0 -54 49 -113l3 1q116 40 116 120t-81 80zM180 201q0 -56 40.5 -80t97.5 -24q64 0 121 26l-177 188q-82 -39 -82 -110z" />
    <glyph glyph-name="quotesingle" unicode="'" horiz-adv-x="286" 
d="M111 396l32 314h162l-78 -314h-116z" />
    <glyph glyph-name="parenleft" unicode="(" horiz-adv-x="391" 
d="M193 -141q-126 186 -126 396q0 96 23.5 179t68 147t89 110t104.5 92l112 -80q-56 -48 -91.5 -86t-72 -92t-54.5 -119.5t-18 -144.5q0 -83 22 -162.5t78 -180.5z" />
    <glyph glyph-name="parenright" unicode=")" horiz-adv-x="391" 
d="M223 784q126 -186 126 -396q0 -96 -23.5 -179t-68 -147t-89 -110t-104.5 -92l-112 80q56 48 91.5 86t72 92t54.5 119.5t18 144.5q0 83 -22 162.5t-78 180.5z" />
    <glyph glyph-name="asterisk" unicode="*" horiz-adv-x="405" 
d="M447 543l-143 -17l91 -95l-111 -72l-38 131l-83 -131l-89 74l124 94l-137 17l59 115l110 -72l-8 135h126l-54 -136l134 73z" />
    <glyph glyph-name="plus" unicode="+" horiz-adv-x="621" 
d="M599 383l-19 -108h-206l-34 -192h-119l34 192h-205l19 108h205l32 181h119l-32 -181h206z" />
    <glyph glyph-name="comma" unicode="," horiz-adv-x="306" 
d="M28 -158l-15 69q81 13 93 79l2 10h-90l30 170h181l-30 -171q-8 -43 -27.5 -74t-46.5 -47.5t-50 -24.5t-47 -11z" />
    <glyph glyph-name="hyphen" unicode="-" horiz-adv-x="503" 
d="M62 346h412l-24 -135h-411z" />
    <glyph glyph-name="period" unicode="." horiz-adv-x="309" 
d="M232 163l-29 -163h-185l29 163h185z" />
    <glyph glyph-name="slash" unicode="/" horiz-adv-x="598" 
d="M133 -117h-156l513 877h156z" />
    <glyph glyph-name="zero" unicode="0" horiz-adv-x="778" 
d="M379 -19q-50 0 -94.5 9t-88 31.5t-74.5 57t-50 90t-19 126.5q0 56 11 111t39 111.5t70 99.5t109.5 70t151.5 27q50 0 94.5 -9t88 -31.5t74.5 -57t50 -90t19 -126.5q0 -56 -11 -111t-39 -111.5t-70 -99.5t-109.5 -70t-151.5 -27zM378 111q55 0 97 30t64 77t32.5 96
t10.5 96q0 93 -42 133.5t-106 40.5q-55 0 -97 -30t-63.5 -77.5t-32 -96t-10.5 -95.5q0 -93 42 -133.5t105 -40.5z" />
    <glyph glyph-name="one" unicode="1" horiz-adv-x="475" 
d="M155 0l83 471q-39 -44 -134 -44h-52l27 150h34q74 0 120 29.5t73 88.5h143l-122 -695h-172z" />
    <glyph glyph-name="two" unicode="2" horiz-adv-x="698" 
d="M-10 0l22 123q244 99 361 175q132 83 132 183q0 102 -119 102q-133 0 -137 -130q0 -15 2 -33l-174 16q-2 20 -2 37q1 42 17 81t50.5 77t101 60.5t156.5 22.5q44 0 83.5 -5.5t79 -20.5t67.5 -38t45.5 -60t17.5 -84q0 -83 -47.5 -145.5t-131.5 -116.5q-91 -58 -227 -110
h351l-24 -134h-624z" />
    <glyph glyph-name="three" unicode="3" horiz-adv-x="708" 
d="M351 -19q-64 0 -118.5 11t-104 36t-78.5 72.5t-30 114.5l178 16q9 -122 149 -122q66 0 98 28t32 72q0 87 -131 87h-53l20 111h67q68 0 101 26t33 70q0 85 -122 85q-134 0 -150 -127l-168 21q14 107 96 169.5t227 62.5q42 0 80 -4t79.5 -16.5t71.5 -32t49.5 -53.5
t19.5 -79q0 -76 -54.5 -123t-136.5 -56q152 -21 152 -149q0 -91 -77.5 -155.5t-229.5 -64.5z" />
    <glyph glyph-name="four" unicode="4" horiz-adv-x="709" 
d="M683 152h-124l-27 -152h-171l27 152h-394l20 113l455 430h185l-74 -421h125zM457 485q15 71 18 82h-3q-23 -34 -64 -73l-161 -160q-47 -44 -69 -60h236z" />
    <glyph glyph-name="five" unicode="5" horiz-adv-x="696" 
d="M332 -19q-42 0 -81 5.5t-79.5 20t-70.5 36.5t-52 58.5t-27 82.5l173 25q19 -99 138 -99q80 0 114 40t34 96q0 58 -34.5 85.5t-87.5 27.5q-101 0 -146 -86l-152 14l116 408h515l-24 -131h-390l-51 -167q28 40 79.5 61t111.5 21q42 0 80.5 -10t76.5 -32.5t61 -67t23 -106.5
q0 -40 -9.5 -78t-33 -75.5t-59.5 -65.5t-94 -45.5t-131 -17.5z" />
    <glyph glyph-name="six" unicode="6" horiz-adv-x="726" 
d="M432 472q51 0 95 -12t81 -37.5t58 -70t21 -104.5q0 -113 -84 -190t-235 -77q-48 0 -91 8.5t-85 30.5t-72 56t-48.5 89.5t-18.5 126.5q0 61 11.5 118t39.5 113.5t70.5 98t110 67t152.5 25.5q48 0 91.5 -9t86.5 -29t72 -59t36 -94l-171 -24q-20 91 -123 89
q-83 -1 -131.5 -55t-66.5 -139q71 78 201 78zM367 107q77 0 112 39.5t35 96.5q0 58 -36.5 83.5t-91.5 25.5q-111 0 -165 -84q10 -161 146 -161z" />
    <glyph glyph-name="seven" unicode="7" horiz-adv-x="615" 
d="M103 0l3 20q21 155 117.5 294.5t258.5 242.5h-411l24 138h587l-23 -129q-318 -199 -362 -531l-4 -35h-190z" />
    <glyph glyph-name="eight" unicode="8" horiz-adv-x="727" 
d="M558 377q128 -51 128 -168q0 -99 -82 -163.5t-257 -64.5q-62 0 -117.5 10.5t-104 32t-77.5 60.5t-29 91q0 65 45.5 112.5t137.5 64.5q-103 50 -103 154q0 86 74.5 147t233.5 61q56 0 107.5 -9t98.5 -29t75 -57t28 -87q0 -57 -38.5 -97.5t-119.5 -57.5zM409 602
q-77 0 -107.5 -26.5t-30.5 -62.5q0 -39 29 -58.5t80 -31.5l68 -16q94 31 94 102q0 37 -24 59t-50.5 28t-58.5 6zM355 102q82 0 117.5 29t35.5 70q0 40 -30.5 62.5t-91.5 37.5l-72 17q-58 -16 -85 -46.5t-27 -69.5q0 -53 43.5 -76.5t109.5 -23.5z" />
    <glyph glyph-name="nine" unicode="9" horiz-adv-x="730" 
d="M391 714q48 0 90 -7.5t85.5 -28.5t74 -54.5t50 -90t19.5 -130.5q0 -33 -3 -65t-12.5 -75.5t-25.5 -81t-45.5 -75.5t-67.5 -64.5t-95.5 -43.5t-127.5 -17q-52 0 -98.5 9.5t-90 30.5t-72 61t-35.5 95l172 25q5 -36 29 -58t50 -29t54 -7q86 0 132 58.5t61 148.5
q-81 -71 -192 -71q-49 0 -94.5 12.5t-85.5 37.5t-63.5 69.5t-23.5 101.5q0 45 16 86.5t50.5 79.5t98.5 60.5t150 22.5zM378 365q107 0 168 78q-10 150 -150 150q-80 0 -114 -36.5t-34 -86.5q0 -54 36.5 -79.5t93.5 -25.5z" />
    <glyph glyph-name="colon" unicode=":" horiz-adv-x="309" 
d="M291 500l-29 -163h-185l29 163h185zM232 163l-29 -163h-185l29 163h185z" />
    <glyph glyph-name="semicolon" unicode=";" horiz-adv-x="314" 
d="M291 500l-29 -163h-185l29 163h185zM35 -158l-15 69q81 13 93 79l2 10h-90l30 170h181l-30 -171q-8 -43 -27.5 -74t-46.5 -47.5t-50 -24.5t-47 -11z" />
    <glyph glyph-name="less" unicode="&#x3c;" horiz-adv-x="751" 
d="M631 71l-476 200l19 110l547 200l-22 -128l-394 -133l347 -133z" />
    <glyph glyph-name="equal" unicode="=" horiz-adv-x="614" 
d="M67 372l19 106h524l-20 -106h-523zM33 180l19 106h524l-20 -106h-523z" />
    <glyph glyph-name="greater" unicode="&#x3e;" horiz-adv-x="751" 
d="M147 581l476 -200l-19 -110l-547 -200l22 128l394 133l-347 133z" />
    <glyph glyph-name="question" unicode="?" horiz-adv-x="654" 
d="M223 209l6 40q8 49 31 79t73 52l82 35q84 37 84 107q0 49 -35.5 70.5t-87.5 21.5q-79 0 -112 -35.5t-33 -88.5q0 -24 3 -39l-165 14q-5 20 -5 42q0 44 16.5 82.5t52 73t101 54.5t152.5 20q43 0 82.5 -5t79 -19t68 -35.5t46.5 -57t18 -81.5q0 -67 -38.5 -112.5
t-113.5 -80.5l-69 -31q-34 -16 -47.5 -34t-18.5 -47l-4 -25h-166zM177 0l26 154h189l-27 -154h-188z" />
    <glyph glyph-name="at" unicode="@" horiz-adv-x="933" 
d="M438 -104q-81 0 -151.5 20t-128.5 60.5t-92 110t-34 161.5q0 79 26 150t79 131.5t146 96.5t216 36q83 0 153.5 -17.5t131.5 -55t96 -105t35 -159.5q0 -113 -54 -186.5t-161 -73.5q-59 0 -93.5 23.5t-40.5 64.5q-64 -93 -190 -93q-67 0 -114.5 30.5t-47.5 93.5q0 57 46 95
t150 45l161 9l3 20q4 40 -17 57t-60 17q-83 0 -94 -66h-142q12 64 68.5 110.5t168.5 46.5q46 0 83.5 -9.5t68.5 -31.5t44.5 -64.5t4.5 -101.5l-14 -99q-11 -71 46 -71q55 0 80 53t25 125q0 66 -20.5 116t-53 80t-77.5 48.5t-89 25t-93 6.5q-88 0 -157.5 -21t-112.5 -55
t-70.5 -80t-38.5 -91.5t-11 -93.5q0 -64 19 -114.5t50 -82.5t73.5 -53.5t86 -30t90.5 -8.5q110 0 206 32l17 -61q-95 -40 -217 -40zM428 152q49 0 85 25t43 66l4 24l-113 -6q-85 -5 -85 -61q0 -48 66 -48z" />
    <glyph glyph-name="A" unicode="A" horiz-adv-x="841" 
d="M607 0l-32 155h-325l-87 -155h-195l427 710h213l176 -710h-177zM318 277h231l-37 178q-16 62 -22 133h-2q-20 -48 -70 -133z" />
    <glyph glyph-name="B" unicode="B" horiz-adv-x="798" 
d="M619 365q60 -9 96 -48t36 -106q0 -91 -69 -151t-218 -60h-426l125 710h401q104 0 165 -41.5t61 -126.5q0 -74 -46.5 -119t-124.5 -58zM478 420q119 0 119 92q0 75 -93 75h-183l-30 -167h187zM435 123q129 0 129 99q0 44 -26 63t-80 19h-187l-32 -181h196z" />
    <glyph glyph-name="C" unicode="C" horiz-adv-x="831" 
d="M417 -20q-80 0 -145.5 18.5t-117.5 56.5t-81 103.5t-29 152.5q0 61 14.5 118.5t48 112.5t82.5 96.5t124.5 66.5t168.5 25q149 0 247 -64t114 -197l-187 -31q-20 151 -181 151q-67 0 -116.5 -25.5t-76 -67.5t-38.5 -87t-12 -92q0 -56 16 -96t44.5 -60.5t60 -29.5t69.5 -9
q157 0 203 146l178 -39q-95 -249 -386 -249z" />
    <glyph glyph-name="D" unicode="D" horiz-adv-x="852" 
d="M38 0l125 710h317q79 0 143.5 -17.5t115.5 -53.5t79 -97.5t28 -143.5q0 -79 -27 -148.5t-80 -126.5t-142.5 -90t-205.5 -33h-353zM240 129h150q74 0 128.5 23.5t83.5 62.5t42 82t13 91q0 103 -53 148t-133 45h-151z" />
    <glyph glyph-name="E" unicode="E" horiz-adv-x="726" 
d="M722 580h-402l-28 -155h386l-22 -126h-386l-30 -168h410l-23 -131h-589l125 710h582z" />
    <glyph glyph-name="F" unicode="F" horiz-adv-x="696" 
d="M722 576h-403l-28 -158h385l-23 -131h-385l-51 -287h-179l125 710h582z" />
    <glyph glyph-name="G" unicode="G" horiz-adv-x="853" 
d="M367 -20q-144 0 -234.5 80.5t-90.5 238.5q0 80 24.5 153.5t74.5 137t139 102t205 38.5q143 0 239 -57.5t118 -166.5l-187 -34q-24 125 -179 125q-66 0 -115 -26t-76.5 -69t-40.5 -91.5t-13 -101.5q0 -196 189 -196q91 0 147 42.5t68 103.5l3 14h-216l21 123h382l-70 -396
h-131l12 111q-35 -62 -103.5 -96.5t-165.5 -34.5z" />
    <glyph glyph-name="H" unicode="H" horiz-adv-x="868" 
d="M867 710l-125 -710h-180l52 293h-345l-52 -293h-179l125 710h179l-49 -283h344l50 283h180z" />
    <glyph glyph-name="I" unicode="I" horiz-adv-x="343" 
d="M217 0h-179l125 710h179z" />
    <glyph glyph-name="J" unicode="J" horiz-adv-x="462" 
d="M391 208q-20 -116 -90.5 -168.5t-187.5 -52.5q-81 0 -141 16l26 143q53 -12 92 -12q57 0 88 26.5t41 83.5l82 466h179z" />
    <glyph glyph-name="K" unicode="K" horiz-adv-x="818" 
d="M867 710l-325 -278l216 -432h-202l-155 318l-150 -126l-34 -192h-179l125 710h179l-55 -312l367 312h213z" />
    <glyph glyph-name="L" unicode="L" horiz-adv-x="654" 
d="M38 0l125 710h179l-99 -566h371l-25 -144h-551z" />
    <glyph glyph-name="M" unicode="M" horiz-adv-x="1034" 
d="M38 0l125 710h248l78 -443q7 -46 6 -82h2q11 34 35 83l232 442h269l-125 -710h-165l85 475q7 44 22 93h-4q-14 -35 -39 -82l-260 -486h-158l-90 486q-8 42 -8 81h-4q-2 -40 -11 -92l-83 -475h-155z" />
    <glyph glyph-name="N" unicode="N" horiz-adv-x="869" 
d="M38 0l125 710h192l221 -408q26 -49 38 -88h3q15 88 16 97l71 399h164l-125 -710h-181l-231 415q-27 51 -39 84h-3l-16 -98l-71 -401h-164z" />
    <glyph glyph-name="O" unicode="O" horiz-adv-x="872" 
d="M428 -20q-171 0 -278 82t-107 247q0 79 24.5 151t74.5 134t137.5 99t201.5 37q82 0 150.5 -19.5t121.5 -58t83 -103t30 -148.5q0 -79 -24.5 -151t-74.5 -134t-137.5 -99t-201.5 -37zM429 118q67 0 117 24t77.5 65t41 87.5t13.5 97.5q0 106 -56.5 153t-142.5 47
q-66 0 -116 -24t-78 -65t-41 -87.5t-13 -97.5q0 -106 56.5 -153t141.5 -47z" />
    <glyph glyph-name="P" unicode="P" horiz-adv-x="761" 
d="M506 710q55 0 101.5 -10t88.5 -32.5t66 -66t24 -103.5q0 -49 -16.5 -91.5t-51.5 -80t-99 -59.5t-151 -22h-207l-44 -245h-179l125 710h343zM439 369q85 0 120 35t35 86q0 94 -118 94h-155l-38 -215h156z" />
    <glyph glyph-name="Q" unicode="Q" horiz-adv-x="876" 
d="M613 10q40 -37 115 -37q35 0 74 7l-24 -139q-39 -6 -71 -6q-191 0 -240 146q-12 -1 -39 -1q-171 0 -278 82t-107 247q0 79 24.5 151t74.5 134t137.5 99t201.5 37q82 0 150.5 -19.5t121.5 -58t83 -103t30 -148.5q0 -82 -24.5 -155.5t-83 -138t-145.5 -97.5zM231 318
q0 -106 56.5 -153t141.5 -47q67 0 117 24t77.5 65t41 87.5t13.5 97.5q0 106 -56.5 153t-142.5 47q-66 0 -116 -24t-78 -65t-41 -87.5t-13 -97.5z" />
    <glyph glyph-name="R" unicode="R" horiz-adv-x="791" 
d="M786 508q0 -80 -44 -140t-142 -83l117 -285h-198l-104 265h-151l-47 -265h-179l125 710h360q54 0 99 -10t83 -32.5t59.5 -63t21.5 -96.5zM321 586l-36 -202h166q78 0 111.5 32.5t33.5 80.5q0 89 -109 89h-166z" />
    <glyph glyph-name="S" unicode="S" horiz-adv-x="736" 
d="M361 -20q-145 0 -243 44t-135 133l145 89q59 -131 243 -131q147 0 147 88q0 34 -22.5 49.5t-76.5 24.5l-117 18q-99 16 -156 66t-57 138q0 99 77.5 165t248.5 66q261 0 342 -150l-131 -93q-53 113 -219 113q-142 -1 -142 -82q0 -31 24.5 -48t80.5 -27l122 -20
q103 -18 155.5 -66.5t52.5 -137.5q0 -106 -80 -172.5t-259 -66.5z" />
    <glyph glyph-name="T" unicode="T" horiz-adv-x="687" 
d="M760 710l-25 -142h-246l-100 -568h-179l99 568h-245l25 142h671z" />
    <glyph glyph-name="U" unicode="U" horiz-adv-x="827" 
d="M145 710h180l-71 -400q-18 -98 25.5 -142.5t124.5 -44.5q158 0 188 170l73 417h180l-78 -442q-51 -288 -371 -288q-64 0 -117 11.5t-98 37t-71.5 65.5t-37 98t4.5 134z" />
    <glyph glyph-name="V" unicode="V" horiz-adv-x="786" 
d="M243 0l-162 710h189l90 -468q7 -50 7 -86h4q11 36 38 86l255 468h203l-412 -710h-212z" />
    <glyph glyph-name="W" unicode="W" horiz-adv-x="1125" 
d="M176 0l-76 710h179l32 -461q2 -36 -1 -63h3q6 23 24 63l212 461h183l50 -461q3 -38 1 -63h3q8 32 22 63l194 461h186l-327 -710h-200l-45 473q-2 24 1 57h-4q-9 -33 -20 -57l-211 -473h-206z" />
    <glyph glyph-name="X" unicode="X" horiz-adv-x="807" 
d="M-37 0l349 367l-211 343h203l114 -199q13 -24 19 -45h3q9 17 34 45l182 199h209l-329 -350l221 -360h-206l-121 209q-20 33 -23 51h-2q-12 -19 -41 -50l-189 -210h-212z" />
    <glyph glyph-name="Y" unicode="Y" horiz-adv-x="745" 
d="M238 0l43 249l-205 461h188l113 -275q11 -30 11 -47h2q9 22 28 47l213 275h200l-369 -461l-44 -249h-180z" />
    <glyph glyph-name="Z" unicode="Z" horiz-adv-x="723" 
d="M20 124l492 452h-396l23 134h618l-21 -124l-491 -453h428l-23 -133h-652z" />
    <glyph glyph-name="bracketleft" unicode="[" horiz-adv-x="391" 
d="M17 -117l155 877h293l-20 -115h-137l-115 -647h138l-21 -115h-293z" />
    <glyph glyph-name="backslash" unicode="\" horiz-adv-x="908" 
d="M645 -117l-513 877h156l513 -877h-156z" />
    <glyph glyph-name="bracketright" unicode="]" horiz-adv-x="391" 
d="M399 760l-155 -877h-293l20 115h137l115 647h-138l21 115h293z" />
    <glyph glyph-name="asciicircum" unicode="^" horiz-adv-x="521" 
d="M275 709h133l127 -265h-127l-75 166l-134 -166h-145z" />
    <glyph glyph-name="underscore" unicode="_" horiz-adv-x="556" 
d="M-59 -85h556l-17 -94h-556z" />
    <glyph glyph-name="grave" unicode="`" horiz-adv-x="600" 
d="M390 569h-137l-191 157h167z" />
    <glyph glyph-name="a" unicode="a" horiz-adv-x="687" 
d="M215 -15q-91 0 -145.5 36.5t-54.5 108.5q0 73 56 115q60 46 196 54l194 9l3 19q6 41 -19.5 61.5t-81.5 20.5q-107 0 -122 -77h-174q15 85 88.5 134t209.5 49q148 0 216 -58t48 -175l-24 -136q-15 -82 -15 -146h-168q0 39 8 85q-60 -100 -215 -100zM286 89q67 0 109.5 30
t50.5 80l5 30l-136 -6q-121 -7 -121 -74q0 -60 92 -60z" />
    <glyph glyph-name="b" unicode="b" horiz-adv-x="731" 
d="M417 -15q-152 0 -204 96l-24 -81h-154l128 725h171l-53 -298q69 88 194 88q41 0 79 -11t73 -35t56 -69.5t21 -106.5q0 -42 -9 -83t-31 -82t-54 -72.5t-82 -51t-111 -19.5zM366 100q56 0 94 31.5t51.5 70.5t13.5 80q0 64 -35.5 91t-86.5 27q-59 0 -100.5 -32.5
t-52.5 -81.5l-8 -38q-13 -62 21.5 -105t102.5 -43z" />
    <glyph glyph-name="c" unicode="c" horiz-adv-x="666" 
d="M322 -15q-42 0 -81 6t-79 22.5t-69 42.5t-47.5 69t-18.5 98q0 53 17.5 102t54 93t104.5 70.5t158 26.5q74 0 133.5 -16.5t104.5 -59.5t55 -108l-173 -29q-16 92 -121 92q-44 0 -76 -15.5t-48.5 -41t-24 -52.5t-7.5 -56q0 -65 35 -93t90 -28q103 0 134 94l163 -33
q-28 -83 -104.5 -133.5t-199.5 -50.5z" />
    <glyph glyph-name="d" unicode="d" horiz-adv-x="732" 
d="M259 -15q-43 0 -81.5 11.5t-73.5 36.5t-55.5 71t-20.5 108q0 44 10 86t33 81.5t55.5 69.5t81.5 48t107 18q146 0 197 -92l53 302h171l-127 -725h-164l15 90q-29 -48 -80.5 -76.5t-120.5 -28.5zM330 100q63 0 101.5 35.5t47.5 85.5l6 35q14 73 -25 108.5t-102 35.5
q-40 0 -70.5 -16.5t-47.5 -44t-25 -57t-8 -60.5q0 -66 35 -94t88 -28z" />
    <glyph glyph-name="e" unicode="e" horiz-adv-x="668" 
d="M640 299q0 -45 -12 -87h-437q5 -59 46.5 -84.5t100.5 -25.5q100 0 146 73l118 -59q-81 -131 -273 -131q-53 0 -101.5 10.5t-96 35t-76 73.5t-28.5 118q0 54 18 104t55 93.5t103.5 69.5t153.5 26q56 0 104 -11t89.5 -35t65.5 -67.5t24 -102.5zM478 305q3 7 3 22
q0 45 -37.5 68t-92.5 23q-66 0 -105 -31t-49 -82h281z" />
    <glyph glyph-name="f" unicode="f" horiz-adv-x="476" 
d="M502 500l-20 -112h-159l-69 -388h-171l68 388h-110l20 112h110l7 39q34 194 233 194q69 0 130 -19l-21 -118q-38 13 -82 13t-63.5 -18.5t-26.5 -57.5l-5 -33h159z" />
    <glyph glyph-name="g" unicode="g" horiz-adv-x="684" 
d="M665 588q28 0 58 -7l-20 -112q-28 11 -65 11q-44 0 -63 -18q51 -39 51 -105q0 -76 -68 -130.5t-219 -54.5q-89 0 -152 21q-26 -12 -26 -35q0 -19 16 -27t55 -9l177 -2q101 -2 153 -30.5t52 -107.5q0 -192 -366 -192q-280 0 -280 119q0 75 112 97q-64 26 -64 89
q0 88 126 119q-67 39 -67 116q0 76 67.5 130.5t218.5 54.5q95 0 159 -23q35 96 145 96zM344 258q61 0 87.5 27.5t26.5 66.5q0 42 -29.5 60t-72.5 18q-61 0 -87.5 -28t-26.5 -66q0 -42 29.5 -60t72.5 -18zM207 -14q-43 0 -76 6q-28 -18 -28 -47q0 -40 46 -54t128 -14
q182 0 182 65q0 23 -17 32t-55 10z" />
    <glyph glyph-name="h" unicode="h" horiz-adv-x="729" 
d="M35 0l128 725h171l-56 -318q67 109 204 109q29 0 55 -5t51.5 -18.5t44 -34.5t30 -54.5t11.5 -76.5q0 -37 -9 -89l-42 -238h-171l43 242q5 22 5 48q0 99 -103 99q-124 0 -150 -156l-41 -233h-171z" />
    <glyph glyph-name="i" unicode="i" horiz-adv-x="321" 
d="M128 572l27 149h180l-27 -149h-180zM30 0l91 500h170l-91 -500h-170z" />
    <glyph glyph-name="j" unicode="j" horiz-adv-x="331" 
d="M138 572l27 149h180l-27 -149h-180zM-15 -204q-57 0 -101 14l22 122q31 -9 56 -9q38 0 55.5 20.5t25.5 66.5l88 490h171l-91 -510q-17 -93 -67.5 -143.5t-158.5 -50.5z" />
    <glyph glyph-name="k" unicode="k" horiz-adv-x="698" 
d="M720 500l-249 -198l168 -302h-181l-116 219l-112 -84l-24 -135h-171l128 725h171l-74 -418l254 193h206z" />
    <glyph glyph-name="l" unicode="l" horiz-adv-x="329" 
d="M334 725l-128 -725h-171l128 725h171z" />
    <glyph glyph-name="m" unicode="m" horiz-adv-x="1055" 
d="M30 0l88 500h166l-17 -100q57 115 186 115q63 0 110.5 -29.5t60.5 -89.5q66 119 198 119q32 0 60 -7.5t57 -25.5t46 -55.5t17 -91.5q0 -35 -7 -74l-46 -261h-171l44 248q5 22 5 47q0 92 -84 92q-57 0 -85 -41.5t-41 -110.5l-42 -235h-171l43 244q5 24 5 49q0 94 -84 94
q-98 0 -125 -151l-42 -236h-171z" />
    <glyph glyph-name="n" unicode="n" horiz-adv-x="724" 
d="M30 0l88 500h166l-18 -102q72 117 210 117q36 0 66.5 -8t61 -27.5t48 -59.5t17.5 -98q0 -38 -9 -86l-42 -236h-171l40 224q7 33 7 60q0 104 -104 104q-69 0 -103 -44t-47 -118l-39 -226h-171z" />
    <glyph glyph-name="o" unicode="o" horiz-adv-x="689" 
d="M326 -15q-55 0 -104 11t-95 36t-73 73.5t-27 116.5q0 56 19.5 107t58 93.5t105.5 67.5t153 25q55 0 104 -11t95 -36t73 -73.5t27 -116.5q0 -56 -19.5 -107t-58 -93.5t-105.5 -67.5t-153 -25zM331 100q54 0 91.5 30t51.5 68.5t14 80.5q0 64 -37 92.5t-93 28.5
q-54 0 -91.5 -30t-51.5 -68.5t-14 -80.5q0 -64 37 -92.5t93 -28.5z" />
    <glyph glyph-name="p" unicode="p" horiz-adv-x="727" 
d="M-4 -195l123 695h166l-15 -84q61 99 203 99q40 0 77.5 -11t72.5 -35t56 -70t21 -108q0 -52 -16 -103t-48 -98t-90 -76t-134 -29q-151 0 -198 88l-47 -268h-171zM362 100q56 0 94 31.5t51.5 70.5t13.5 80q0 64 -35.5 91t-86.5 27q-60 0 -101.5 -34t-51.5 -85l-8 -37
q-13 -59 20.5 -101.5t103.5 -42.5z" />
    <glyph glyph-name="q" unicode="q" horiz-adv-x="727" 
d="M403 -195l49 277q-25 -44 -76 -70.5t-117 -26.5q-43 0 -81.5 11.5t-73.5 36.5t-55.5 71t-20.5 108q0 55 17 107.5t50.5 97t90.5 71.5t130 27t125.5 -25t77.5 -71l27 81h151l-123 -695h-171zM330 100q64 0 103.5 37t46.5 88l5 34q12 72 -26 106.5t-100 34.5
q-77 0 -114.5 -54.5t-37.5 -123.5q0 -66 35 -94t88 -28z" />
    <glyph glyph-name="r" unicode="r" horiz-adv-x="475" 
d="M248 352q58 161 196 161q32 0 58 -8l-27 -157q-35 10 -72 10q-64 0 -100 -28q-51 -38 -68 -139l-34 -191h-171l88 500h157z" />
    <glyph glyph-name="s" unicode="s" horiz-adv-x="605" 
d="M288 -15q-230 0 -298 124l104 78q59 -87 214 -87q99 0 99 48q0 18 -12.5 25.5t-45.5 12.5l-124 16q-165 24 -165 142q0 78 65 124.5t197 46.5q194 0 281 -100l-99 -83q-59 72 -198 72q-92 0 -92 -42q0 -17 13 -26.5t45 -13.5l131 -18q83 -13 120.5 -47t37.5 -94
q0 -79 -64.5 -128.5t-208.5 -49.5z" />
    <glyph glyph-name="t" unicode="t" horiz-adv-x="486" 
d="M30 388l20 112h112l21 119l182 64l-32 -183h165l-20 -112h-165l-28 -165q-10 -56 13 -77t71 -21q31 0 65 6l-23 -129q-54 -14 -115 -13q-38 0 -67.5 6t-57.5 21.5t-42 41.5t-21 66.5t5 97.5l29 166h-112z" />
    <glyph glyph-name="u" unicode="u" horiz-adv-x="716" 
d="M242 -15q-36 0 -66.5 7t-60.5 24t-47 52t-17 85q0 37 13 111l42 236h171l-40 -224q-9 -65 -9 -76q0 -89 94 -89q74 0 106.5 42t46.5 121l40 226h171l-88 -500h-165l18 102q-60 -117 -209 -117z" />
    <glyph glyph-name="v" unicode="v" horiz-adv-x="638" 
d="M180 0l-136 500h175l66 -301q5 -27 7 -62h3q15 35 29 62l172 301h187l-313 -500h-190z" />
    <glyph glyph-name="w" unicode="w" horiz-adv-x="930" 
d="M135 0l-77 500h162l30 -309q2 -29 1 -49h2q4 13 19 49l155 309h158l44 -309q3 -36 2 -49h2q7 27 17 49l141 309h169l-253 -500h-172l-47 293q-5 26 -2 50h-3q-6 -19 -19 -48l-152 -295h-177z" />
    <glyph glyph-name="x" unicode="x" horiz-adv-x="660" 
d="M-37 0l263 259l-164 241h192l68 -107q16 -29 20 -49h2q10 20 37 49l103 107h197l-248 -241l177 -259h-191l-80 117q-17 28 -22 49h-2q-8 -16 -40 -49l-117 -117h-195z" />
    <glyph glyph-name="y" unicode="y" horiz-adv-x="634" 
d="M77 -205q-62 0 -116 17l22 125q40 -14 91 -14q74 0 110 60l9 18l-149 499h183l67 -306q6 -40 6 -57h3q10 27 24 56l168 307h183l-326 -539q-61 -102 -123 -134t-152 -32z" />
    <glyph glyph-name="z" unicode="z" horiz-adv-x="592" 
d="M6 104l363 282h-300l21 114h505l-18 -101l-359 -283h324l-20 -116h-534z" />
    <glyph glyph-name="braceleft" unicode="{" horiz-adv-x="401" 
d="M266 -117q-48 0 -82 7t-63 26t-39.5 58t-0.5 97l19 111q9 50 -4 71.5t-67 22.5l19 106q55 1 74.5 20.5t28.5 69.5l23 131q12 70 58 114.5t151 44.5h91l-21 -116h-38q-45 0 -65 -21t-26 -56l-16 -94q-11 -62 -39 -97t-87 -48q54 -16 68.5 -53.5t3.5 -98.5l-18 -105
q-8 -45 10 -59.5t53 -14.5h42l-20 -116h-55z" />
    <glyph glyph-name="bar" unicode="|" horiz-adv-x="262" 
d="M14 -117l155 877h104l-155 -877h-104z" />
    <glyph glyph-name="braceright" unicode="}" horiz-adv-x="400" 
d="M160 762q48 0 82 -7t63 -26t39.5 -58t0.5 -97l-19 -111q-9 -50 4 -71.5t67 -22.5l-19 -106q-55 -1 -74.5 -20.5t-28.5 -69.5l-23 -131q-12 -70 -58 -114.5t-151 -44.5h-91l21 116h38q45 0 65 21t26 56l16 94q11 62 39 97t87 48q-54 16 -68.5 53.5t-3.5 98.5l18 105
q8 45 -10 59.5t-53 14.5h-42l20 116h55z" />
    <glyph glyph-name="asciitilde" unicode="~" 
d="M458 207q-46 0 -81.5 19t-64.5 38t-60 19q-63 0 -90 -71l-94 23q23 72 73 110t112 38q46 0 81.5 -19t65 -38t59.5 -19q65 0 91 70l94 -22q-23 -72 -73.5 -110t-112.5 -38z" />
    <glyph glyph-name="uni00A0" unicode="&#xa0;" horiz-adv-x="312" 
 />
    <glyph glyph-name="exclamdown" unicode="&#xa1;" horiz-adv-x="362" 
d="M116 426l28 154h191l-28 -154h-191zM268 345l-60 -490h-194l113 490h141z" />
    <glyph glyph-name="cent" unicode="&#xa2;" horiz-adv-x="669" 
d="M351 96q103 7 134 103l145 -28q-28 -83 -103 -133.5t-195 -52.5l-16 -88h-63l16 91q-48 5 -88 18.5t-76.5 39.5t-57 70.5t-20.5 103.5q0 54 18 103.5t55 93.5t104.5 70.5t157.5 27.5l14 78h63l-14 -81q94 -10 156 -54.5t74 -128.5l-151 -24q-15 85 -98 101zM182 232
q0 -116 107 -134l55 311q-46 -3 -79.5 -20t-50.5 -43.5t-24.5 -54.5t-7.5 -59z" />
    <glyph glyph-name="sterling" unicode="&#xa3;" horiz-adv-x="741" 
d="M459 115q88 0 107 87l155 -22q-16 -85 -80.5 -141t-170.5 -56q-44 0 -123 14t-152 14q-82 0 -199 -19l-16 92q88 23 132.5 73.5t44.5 142.5v16h-105l15 81h87q-1 11 -1 31q0 55 15 102.5t47.5 90t93.5 67.5t145 25q127 0 201 -47.5t83 -137.5l-169 -33q-12 97 -118 97
q-42 0 -70 -14t-40.5 -40.5t-16.5 -51.5t-4 -59q0 -20 1 -30h209l-15 -81h-192q0 -147 -135 -197q48 12 101 12q38 0 90 -8t80 -8z" />
    <glyph glyph-name="currency" unicode="&#xa4;" horiz-adv-x="634" 
d="M557 436q29 -47 29 -112q0 -99 -58 -169l51 -67l-85 -68l-54 70q-54 -23 -125 -23q-91 0 -158 38l-70 -62l-59 69l63 57q-29 47 -29 113q0 103 61 174l-49 64l85 68l54 -70q51 21 119 21q94 0 159 -39l74 65l60 -68zM186 292q0 -56 38.5 -83.5t90.5 -27.5
q75 0 110.5 40.5t35.5 92.5q0 56 -38 83.5t-90 27.5q-76 0 -111.5 -40.5t-35.5 -92.5z" />
    <glyph glyph-name="yen" unicode="&#xa5;" horiz-adv-x="739" 
d="M822 695l-342 -386h203l-13 -70h-218l-9 -57h217l-12 -70h-218l-19 -112h-172l19 112h-214l12 70h215l9 57h-214l12 70h200l-205 386h187l93 -187q24 -54 36 -101h3q27 42 74 101l160 187h196z" />
    <glyph glyph-name="brokenbar" unicode="&#xa6;" horiz-adv-x="262" 
d="M273 760l-67 -375h-103l66 375h104zM185 264l-67 -381h-104l68 381h103z" />
    <glyph glyph-name="section" unicode="&#xa7;" horiz-adv-x="593" 
d="M437 475q142 -34 142 -142q0 -97 -93 -146q38 -38 38 -105q0 -36 -12.5 -66.5t-42 -59t-88 -45t-141.5 -16.5q-219 0 -283 115l107 78q48 -82 185 -82q111 0 111 59q0 20 -14.5 32t-50.5 22l-133 31q-143 38 -143 139q0 97 110 139q-47 38 -47 104q0 75 63 129t205 54
q192 0 265 -94l-103 -81q-48 67 -164 67q-104 0 -104 -56q0 -19 13.5 -30t46.5 -19zM254 264l137 -29q1 -1 3 -1t3 -1q34 21 34 56q0 24 -16.5 37.5t-60.5 25.5l-135 34q-48 -20 -48 -60q0 -23 18 -36.5t65 -25.5z" />
    <glyph glyph-name="dieresis" unicode="&#xa8;" horiz-adv-x="600" 
d="M48 575l24 137h155l-24 -137h-155zM314 575l24 137h155l-23 -137h-156z" />
    <glyph glyph-name="copyright" unicode="&#xa9;" horiz-adv-x="870" 
d="M440 -21q-69 0 -135 18.5t-126 57t-97 108.5t-37 162q0 55 12.5 109t43.5 108.5t77.5 95.5t121.5 67t168 26q69 0 134.5 -18.5t125.5 -57t97 -108.5t37 -162q0 -55 -12.5 -109t-43.5 -108.5t-77.5 -95.5t-121 -67t-167.5 -26zM437 38q79 0 142.5 22.5t102.5 58t65.5 82.5
t36.5 92t10 90q0 73 -29.5 131t-77.5 91t-103.5 50t-113.5 17q-79 0 -142.5 -22.5t-102.5 -58t-65.5 -82.5t-36.5 -92t-10 -90q0 -73 29.5 -131t77.5 -91t103.5 -50t113.5 -17zM436 142q-40 0 -75 8.5t-68.5 28.5t-53.5 59.5t-20 94.5q0 43 13 83t40 75.5t77.5 57
t117.5 21.5q85 0 144.5 -36t69.5 -111l-122 -24q-11 78 -94 78q-46 0 -75 -23t-39 -52.5t-9 -63.5q0 -102 99 -102q83 0 104 79l114 -26q-21 -67 -77 -107t-146 -40z" />
    <glyph glyph-name="ordfeminine" unicode="&#xaa;" horiz-adv-x="539" 
d="M220 299q-66 0 -107 26.5t-41 79.5q0 114 199 124l126 6l2 14q4 26 -13 39t-51 13q-67 0 -75 -47h-150q11 59 65.5 95.5t160.5 36.5q235 0 206 -174l-18 -103q-11 -71 -10 -99h-145q0 28 6 61q-18 -34 -59 -53t-96 -19zM288 383q39 0 65.5 17t32.5 49l4 25l-81 -3
q-83 -4 -83 -50q0 -38 62 -38z" />
    <glyph glyph-name="guillemotleft" unicode="&#xab;" horiz-adv-x="662" 
d="M183 67l-158 209l235 206h161l-239 -211l155 -204h-154zM448 67l-158 209l235 206h161l-239 -211l155 -204h-154z" />
    <glyph glyph-name="logicalnot" unicode="&#xac;" horiz-adv-x="743" 
d="M139 386h513l-47 -264h-111l28 158h-401z" />
    <glyph glyph-name="registered" unicode="&#xae;" horiz-adv-x="870" 
d="M468 731q69 0 134.5 -18.5t125.5 -57t97 -108.5t37 -162q0 -55 -12.5 -109t-43.5 -108.5t-77.5 -95.5t-121 -67t-167.5 -26q-69 0 -135 18.5t-126 57t-97 108.5t-37 162q0 55 12.5 109t43.5 108.5t77.5 95.5t121.5 67t168 26zM437 38q79 0 142.5 22.5t102.5 58t65.5 82.5
t36.5 92t10 90q0 73 -29.5 131t-77.5 91t-103.5 50t-113.5 17q-79 0 -142.5 -22.5t-102.5 -58t-65.5 -82.5t-36.5 -92t-10 -90q0 -73 29.5 -131t77.5 -91t103.5 -50t113.5 -17zM514 562q69 0 114.5 -28t45.5 -93q0 -43 -27.5 -79t-89.5 -49l71 -157h-120l-58 147h-72
l-26 -147h-112l72 406h202zM480 377q41 0 59 17.5t18 41.5q0 28 -16 38t-47 10h-84l-19 -107h89z" />
    <glyph glyph-name="macron" unicode="&#xaf;" horiz-adv-x="600" 
d="M52 592l18 98h408l-18 -98h-408z" />
    <glyph glyph-name="degree" unicode="&#xb0;" horiz-adv-x="464" 
d="M265 313q-85 0 -142.5 47t-57.5 130q0 87 59.5 157t167.5 70q85 0 142.5 -46.5t57.5 -130.5q0 -87 -59 -157t-168 -70zM266 403q60 0 92.5 40.5t32.5 91.5q0 47 -28 69.5t-71 22.5q-61 0 -93.5 -40t-32.5 -91q0 -47 28.5 -70t71.5 -23z" />
    <glyph glyph-name="plusminus" unicode="&#xb1;" horiz-adv-x="766" 
d="M467 396h208l-19 -109h-208l-26 -147h-119l26 147h-206l20 109h205l27 153h119zM73 0l18 107h532l-18 -107h-532z" />
    <glyph glyph-name="acute" unicode="&#xb4;" horiz-adv-x="600" 
d="M48 569l161 157h167l-191 -157h-137z" />
    <glyph glyph-name="uni00B5" unicode="&#xb5;" horiz-adv-x="730" 
d="M528 500h171l-88 -500h-165l18 102q-60 -117 -209 -117q-39 0 -71 8l-33 -188h-155l76 431q1 4 2.5 13.5t2.5 14.5l42 236h171l-40 -224q-9 -65 -9 -76q0 -89 94 -89q74 0 106.5 42t46.5 121z" />
    <glyph glyph-name="paragraph" unicode="&#xb6;" horiz-adv-x="798" 
d="M342 340q-39 0 -75 7t-74.5 24t-61.5 52.5t-23 85.5q0 211 308 211h388l-14 -80h-93l-131 -739h-90l130 739h-121l-130 -739h-90z" />
    <glyph glyph-name="periodcentered" unicode="&#xb7;" horiz-adv-x="309" 
d="M277 418l-29 -163h-185l29 163h185z" />
    <glyph glyph-name="cedilla" unicode="&#xb8;" horiz-adv-x="600" 
d="M161 6h79l-48 -56q21 15 60 15q98 0 98 -71q0 -57 -42.5 -84.5t-111.5 -27.5q-113 0 -140 61l92 25q10 -25 48 -25q50 0 50 42q0 30 -41 30q-27 0 -42 -16l-69 16z" />
    <glyph glyph-name="ordmasculine" unicode="&#xba;" horiz-adv-x="559" 
d="M308 299q-32 0 -62 4.5t-61 16t-54 30.5t-37.5 50.5t-14.5 72.5q0 88 64 150.5t192 62.5q33 0 62.5 -4.5t61 -16t54.5 -30.5t37.5 -50.5t14.5 -72.5q0 -89 -64 -151t-193 -62zM312 393q51 0 77 37.5t26 83.5q0 78 -83 78q-51 0 -77.5 -38t-26.5 -83q0 -41 24 -59.5
t60 -18.5z" />
    <glyph glyph-name="guillemotright" unicode="&#xbb;" horiz-adv-x="662" 
d="M223 482l158 -209l-235 -206h-161l239 211l-155 204h154zM488 482l158 -209l-235 -206h-161l239 211l-155 204h154z" />
    <glyph glyph-name="onequarter" unicode="&#xbc;" horiz-adv-x="922" 
d="M59 -17l635 744h123l-634 -744h-124zM140 318l46 254q-20 -18 -75 -18h-33l15 93h20q82 0 113 63h88l-68 -392h-106zM877 82h-75l-15 -82h-105l15 82h-235l12 70l267 240h115l-42 -234h76zM746 314l-168 -156h133z" />
    <glyph glyph-name="onehalf" unicode="&#xbd;" horiz-adv-x="971" 
d="M59 -17l635 744h123l-634 -744h-124zM140 318l46 254q-20 -18 -75 -18h-33l15 93h20q82 0 113 63h88l-68 -392h-106zM519 0l13 77q50 19 76.5 29.5t66 28t60.5 31t43 30.5t31.5 35t9.5 38q0 52 -67 52q-43 0 -62.5 -23.5t-13.5 -62.5l-108 12q-6 74 45.5 115t146.5 41
q45 0 81.5 -9.5t65 -37.5t28.5 -73q0 -113 -223 -198h191l-13 -85h-371z" />
    <glyph glyph-name="threequarters" unicode="&#xbe;" horiz-adv-x="1059" 
d="M196 -17l635 744h123l-634 -744h-124zM258 307q-38 0 -70.5 6t-62.5 20.5t-48 41.5t-19 65l110 10q9 -63 88 -63q73 0 73 49q0 46 -77 46h-30l12 70h42q72 0 72 48q0 42 -69 42q-76 0 -86 -68l-103 14q7 61 56 97t135 36q180 0 180 -105q0 -42 -31 -68.5t-78 -31.5
q89 -15 89 -83q0 -52 -46.5 -89t-136.5 -37zM1014 82h-75l-15 -82h-105l15 82h-235l12 70l267 240h115l-42 -234h76zM883 314l-168 -156h133z" />
    <glyph glyph-name="questiondown" unicode="&#xbf;" horiz-adv-x="654" 
d="M491 580l-26 -154h-189l27 154h188zM445 371l-6 -40q-8 -49 -31 -79t-73 -52l-82 -35q-84 -37 -84 -107q0 -49 35.5 -70.5t87.5 -21.5q79 0 112 35.5t33 88.5q0 24 -3 39l165 -14q5 -20 5 -42q0 -44 -16.5 -82.5t-52 -73t-101 -54.5t-152.5 -20q-43 0 -82.5 5t-79 19
t-68 35.5t-46.5 57t-18 81.5q0 67 38.5 112.5t113.5 80.5l69 31q34 16 47.5 34t18.5 47l4 25h166z" />
    <glyph glyph-name="Agrave" unicode="&#xc0;" horiz-adv-x="841" 
d="M590 756h-138l-164 118h160zM607 0l-32 155h-325l-87 -155h-195l427 710h213l176 -710h-177zM318 277h231l-37 178q-16 62 -22 133h-2q-20 -48 -70 -133z" />
    <glyph glyph-name="Aacute" unicode="&#xc1;" horiz-adv-x="841" 
d="M742 874l-164 -118h-138l142 118h160zM607 0l-32 155h-325l-87 -155h-195l427 710h213l176 -710h-177zM318 277h231l-37 178q-16 62 -22 133h-2q-20 -48 -70 -133z" />
    <glyph glyph-name="Acircumflex" unicode="&#xc2;" horiz-adv-x="841" 
d="M526 827l-90 -71h-143l147 118h180l106 -118h-135zM607 0l-32 155h-325l-87 -155h-195l427 710h213l176 -710h-177zM318 277h231l-37 178q-16 62 -22 133h-2q-20 -48 -70 -133z" />
    <glyph glyph-name="Atilde" unicode="&#xc3;" horiz-adv-x="841" 
d="M438 805q-25 0 -40.5 -11.5t-27.5 -43.5l-80 32q43 115 147 115q49 0 96 -29t73 -29q48 0 67 54l79 -31q-41 -115 -146 -115q-50 0 -96.5 29t-71.5 29zM607 0l-32 155h-325l-87 -155h-195l427 710h213l176 -710h-177zM318 277h231l-37 178q-16 62 -22 133h-2
q-20 -48 -70 -133z" />
    <glyph glyph-name="Adieresis" unicode="&#xc4;" horiz-adv-x="841" 
d="M471 873l-20 -117h-151l21 117h150zM740 873l-21 -117h-151l21 117h151zM607 0l-32 155h-325l-87 -155h-195l427 710h213l176 -710h-177zM318 277h231l-37 178q-16 62 -22 133h-2q-20 -48 -70 -133z" />
    <glyph glyph-name="Aring" unicode="&#xc5;" horiz-adv-x="841" 
d="M520 744q-60 0 -94.5 29.5t-34.5 78.5q0 56 41 91.5t103 35.5q59 0 93.5 -30t34.5 -79q0 -55 -41 -90.5t-102 -35.5zM535 915q-63 0 -63 -63q0 -44 48 -44q63 0 63 62q0 21 -13 33t-35 12zM607 0l-32 155h-325l-87 -155h-195l427 710h213l176 -710h-177zM318 277h231
l-37 178q-16 62 -22 133h-2q-20 -48 -70 -133z" />
    <glyph glyph-name="AE" unicode="&#xc6;" horiz-adv-x="1254" 
d="M1250 580h-402l-28 -155h386l-23 -126h-385l-30 -168h410l-23 -131h-589l26 150h-287l-123 -150h-190l619 710h662zM406 272h208l57 322z" />
    <glyph glyph-name="Ccedilla" unicode="&#xc7;" horiz-adv-x="831" 
d="M422 122q157 0 203 146l178 -39q-95 -249 -386 -249h-3l-26 -30q21 15 60 15q98 0 98 -71q0 -57 -42.5 -84.5t-111.5 -27.5q-113 0 -140 61l92 25q10 -25 48 -25q50 0 50 42q0 30 -41 30q-27 0 -42 -16l-69 16l51 69q-136 17 -216.5 97t-80.5 230q0 61 14.5 118.5
t48 112.5t82.5 96.5t124.5 66.5t168.5 25q149 0 247 -64t114 -197l-187 -31q-20 151 -181 151q-67 0 -116.5 -25.5t-76 -67.5t-38.5 -87t-12 -92q0 -56 16 -96t44.5 -60.5t60 -29.5t69.5 -9z" />
    <glyph glyph-name="Egrave" unicode="&#xc8;" horiz-adv-x="726" 
d="M558 756h-138l-164 118h160zM722 580h-402l-28 -155h386l-22 -126h-386l-30 -168h410l-23 -131h-589l125 710h582z" />
    <glyph glyph-name="Eacute" unicode="&#xc9;" horiz-adv-x="726" 
d="M710 874l-164 -118h-138l142 118h160zM722 580h-402l-28 -155h386l-22 -126h-386l-30 -168h410l-23 -131h-589l125 710h582z" />
    <glyph glyph-name="Ecircumflex" unicode="&#xca;" horiz-adv-x="726" 
d="M494 827l-90 -71h-143l147 118h180l106 -118h-135zM722 580h-402l-28 -155h386l-22 -126h-386l-30 -168h410l-23 -131h-589l125 710h582z" />
    <glyph glyph-name="Edieresis" unicode="&#xcb;" horiz-adv-x="726" 
d="M439 873l-20 -117h-151l21 117h150zM708 873l-21 -117h-151l21 117h151zM722 580h-402l-28 -155h386l-22 -126h-386l-30 -168h410l-23 -131h-589l125 710h582z" />
    <glyph glyph-name="Igrave" unicode="&#xcc;" horiz-adv-x="343" 
d="M325 756h-136l-128 118h153zM217 0h-179l125 710h179z" />
    <glyph glyph-name="Iacute" unicode="&#xcd;" horiz-adv-x="343" 
d="M193 756l111 118h153l-128 -118h-136zM217 0h-179l125 710h179z" />
    <glyph glyph-name="Icircumflex" unicode="&#xce;" horiz-adv-x="343" 
d="M422 756h-113l-30 74l-56 -74h-122l97 118h169zM217 0h-179l125 710h179z" />
    <glyph glyph-name="Idieresis" unicode="&#xcf;" horiz-adv-x="343" 
d="M104 756l21 117h136l-21 -117h-136zM283 756l20 117h136l-21 -117h-135zM217 0h-179l125 710h179z" />
    <glyph glyph-name="Eth" unicode="&#xd0;" horiz-adv-x="852" 
d="M480 710q79 0 143.5 -17.5t115.5 -53.5t79 -97.5t28 -143.5q0 -79 -27 -148.5t-80 -126.5t-142.5 -90t-205.5 -33h-353l56 317h-82l18 101h82l51 292h317zM390 129q74 0 128.5 23.5t83.5 62.5t42 82t13 91q0 103 -53 148t-133 45h-151l-29 -163h186l-18 -101h-186
l-33 -188h150z" />
    <glyph glyph-name="Ntilde" unicode="&#xd1;" horiz-adv-x="869" 
d="M622 747q-50 0 -96.5 29t-71.5 29t-40.5 -11.5t-27.5 -43.5l-80 32q43 115 147 115q50 0 96.5 -29t72.5 -29q48 0 67 54l79 -31q-41 -115 -146 -115zM38 0l125 710h192l221 -408q26 -49 38 -88h3q15 88 16 97l71 399h164l-125 -710h-181l-231 415q-27 51 -39 84h-3
l-16 -98l-71 -401h-164z" />
    <glyph glyph-name="Ograve" unicode="&#xd2;" horiz-adv-x="872" 
d="M583 756h-138l-164 118h160zM428 -20q-171 0 -278 82t-107 247q0 79 24.5 151t74.5 134t137.5 99t201.5 37q82 0 150.5 -19.5t121.5 -58t83 -103t30 -148.5q0 -79 -24.5 -151t-74.5 -134t-137.5 -99t-201.5 -37zM429 118q67 0 117 24t77.5 65t41 87.5t13.5 97.5
q0 106 -56.5 153t-142.5 47q-66 0 -116 -24t-78 -65t-41 -87.5t-13 -97.5q0 -106 56.5 -153t141.5 -47z" />
    <glyph glyph-name="Oacute" unicode="&#xd3;" horiz-adv-x="872" 
d="M433 756l142 118h160l-164 -118h-138zM428 -20q-171 0 -278 82t-107 247q0 79 24.5 151t74.5 134t137.5 99t201.5 37q82 0 150.5 -19.5t121.5 -58t83 -103t30 -148.5q0 -79 -24.5 -151t-74.5 -134t-137.5 -99t-201.5 -37zM429 118q67 0 117 24t77.5 65t41 87.5t13.5 97.5
q0 106 -56.5 153t-142.5 47q-66 0 -116 -24t-78 -65t-41 -87.5t-13 -97.5q0 -106 56.5 -153t141.5 -47z" />
    <glyph glyph-name="Ocircumflex" unicode="&#xd4;" horiz-adv-x="872" 
d="M719 756h-135l-65 71l-90 -71h-143l147 118h180zM428 -20q-171 0 -278 82t-107 247q0 79 24.5 151t74.5 134t137.5 99t201.5 37q82 0 150.5 -19.5t121.5 -58t83 -103t30 -148.5q0 -79 -24.5 -151t-74.5 -134t-137.5 -99t-201.5 -37zM429 118q67 0 117 24t77.5 65t41 87.5
t13.5 97.5q0 106 -56.5 153t-142.5 47q-66 0 -116 -24t-78 -65t-41 -87.5t-13 -97.5q0 -106 56.5 -153t141.5 -47z" />
    <glyph glyph-name="Otilde" unicode="&#xd5;" horiz-adv-x="872" 
d="M599 747q-50 0 -96.5 29t-71.5 29t-40.5 -11.5t-27.5 -43.5l-80 32q43 115 147 115q39 0 68.5 -14.5t53 -29t47.5 -14.5q48 0 67 54l79 -31q-41 -115 -146 -115zM428 -20q-171 0 -278 82t-107 247q0 79 24.5 151t74.5 134t137.5 99t201.5 37q82 0 150.5 -19.5t121.5 -58
t83 -103t30 -148.5q0 -79 -24.5 -151t-74.5 -134t-137.5 -99t-201.5 -37zM429 118q67 0 117 24t77.5 65t41 87.5t13.5 97.5q0 106 -56.5 153t-142.5 47q-66 0 -116 -24t-78 -65t-41 -87.5t-13 -97.5q0 -106 56.5 -153t141.5 -47z" />
    <glyph glyph-name="Odieresis" unicode="&#xd6;" horiz-adv-x="872" 
d="M293 756l21 117h150l-20 -117h-151zM561 756l21 117h151l-21 -117h-151zM428 -20q-171 0 -278 82t-107 247q0 79 24.5 151t74.5 134t137.5 99t201.5 37q82 0 150.5 -19.5t121.5 -58t83 -103t30 -148.5q0 -79 -24.5 -151t-74.5 -134t-137.5 -99t-201.5 -37zM429 118
q67 0 117 24t77.5 65t41 87.5t13.5 97.5q0 106 -56.5 153t-142.5 47q-66 0 -116 -24t-78 -65t-41 -87.5t-13 -97.5q0 -106 56.5 -153t141.5 -47z" />
    <glyph glyph-name="multiply" unicode="&#xd7;" horiz-adv-x="759" 
d="M697 504l-222 -177l159 -177l-94 -81l-161 180l-224 -179l-68 79l222 178l-158 177l94 79l160 -179l223 179z" />
    <glyph glyph-name="Oslash" unicode="&#xd8;" horiz-adv-x="872" 
d="M876 689l-83 -74q73 -83 73 -214q0 -79 -24.5 -151t-74.5 -134t-137.5 -99t-201.5 -37q-164 0 -263 71l-84 -75l-49 45l83 74q-72 83 -72 214q0 79 24.5 151t74.5 134t137.5 99t201.5 37q163 0 263 -71l83 75zM231 318q0 -58 19 -101l369 330q-52 45 -140 45
q-66 0 -116 -24t-78 -65t-41 -87.5t-13 -97.5zM678 392q0 60 -20 102l-368 -331q50 -45 139 -45q67 0 117 24t77.5 65t41 87.5t13.5 97.5z" />
    <glyph glyph-name="Ugrave" unicode="&#xd9;" horiz-adv-x="827" 
d="M584 756h-138l-164 118h160zM145 710h180l-71 -400q-18 -98 25.5 -142.5t124.5 -44.5q158 0 188 170l73 417h180l-78 -442q-51 -288 -371 -288q-64 0 -117 11.5t-98 37t-71.5 65.5t-37 98t4.5 134z" />
    <glyph glyph-name="Uacute" unicode="&#xda;" horiz-adv-x="827" 
d="M434 756l142 118h160l-164 -118h-138zM145 710h180l-71 -400q-18 -98 25.5 -142.5t124.5 -44.5q158 0 188 170l73 417h180l-78 -442q-51 -288 -371 -288q-64 0 -117 11.5t-98 37t-71.5 65.5t-37 98t4.5 134z" />
    <glyph glyph-name="Ucircumflex" unicode="&#xdb;" horiz-adv-x="827" 
d="M720 756h-135l-65 71l-90 -71h-143l147 118h180zM145 710h180l-71 -400q-18 -98 25.5 -142.5t124.5 -44.5q158 0 188 170l73 417h180l-78 -442q-51 -288 -371 -288q-64 0 -117 11.5t-98 37t-71.5 65.5t-37 98t4.5 134z" />
    <glyph glyph-name="Udieresis" unicode="&#xdc;" horiz-adv-x="827" 
d="M294 756l21 117h150l-20 -117h-151zM562 756l21 117h151l-21 -117h-151zM145 710h180l-71 -400q-18 -98 25.5 -142.5t124.5 -44.5q158 0 188 170l73 417h180l-78 -442q-51 -288 -371 -288q-64 0 -117 11.5t-98 37t-71.5 65.5t-37 98t4.5 134z" />
    <glyph glyph-name="Yacute" unicode="&#xdd;" horiz-adv-x="745" 
d="M394 756l142 118h160l-164 -118h-138zM238 0l43 249l-205 461h188l113 -275q11 -30 11 -47h2q9 22 28 47l213 275h200l-369 -461l-44 -249h-180z" />
    <glyph glyph-name="Thorn" unicode="&#xde;" horiz-adv-x="718" 
d="M456 600q41 0 77.5 -5.5t72.5 -20t61 -37t41 -59t16 -84.5q0 -112 -79 -183t-239 -71h-164l-25 -140h-179l125 710h179l-19 -110h133zM377 264q86 0 121.5 31.5t35.5 88.5q0 89 -116 89h-118l-37 -209h114z" />
    <glyph glyph-name="germandbls" unicode="&#xdf;" horiz-adv-x="751" 
d="M407 -12q-82 0 -135 16l20 116q37 -14 98 -14q144 0 144 118q0 51 -38 76.5t-106 25.5h-60l19 110h55q141 0 141 110q0 78 -111 78q-59 0 -95.5 -28.5t-49.5 -101.5l-87 -494h-171l85 477q25 140 105.5 200t223.5 60q279 0 279 -180q0 -66 -50.5 -116t-149.5 -56
q83 -7 133 -50.5t50 -118.5q0 -111 -80 -169.5t-220 -58.5z" />
    <glyph glyph-name="agrave" unicode="&#xe0;" horiz-adv-x="687" 
d="M464 569h-137l-191 157h167zM215 -15q-91 0 -145.5 36.5t-54.5 108.5q0 73 56 115q60 46 196 54l194 9l3 19q6 41 -19.5 61.5t-81.5 20.5q-107 0 -122 -77h-174q15 85 88.5 134t209.5 49q148 0 216 -58t48 -175l-24 -136q-15 -82 -15 -146h-168q0 39 8 85
q-60 -100 -215 -100zM286 89q67 0 109.5 30t50.5 80l5 30l-136 -6q-121 -7 -121 -74q0 -60 92 -60z" />
    <glyph glyph-name="aacute" unicode="&#xe1;" horiz-adv-x="687" 
d="M317 569l161 157h167l-191 -157h-137zM215 -15q-91 0 -145.5 36.5t-54.5 108.5q0 73 56 115q60 46 196 54l194 9l3 19q6 41 -19.5 61.5t-81.5 20.5q-107 0 -122 -77h-174q15 85 88.5 134t209.5 49q148 0 216 -58t48 -175l-24 -136q-15 -82 -15 -146h-168q0 39 8 85
q-60 -100 -215 -100zM286 89q67 0 109.5 30t50.5 80l5 30l-136 -6q-121 -7 -121 -74q0 -60 92 -60z" />
    <glyph glyph-name="acircumflex" unicode="&#xe2;" horiz-adv-x="687" 
d="M602 569h-126l-66 105l-103 -105h-135l156 157h174zM215 -15q-91 0 -145.5 36.5t-54.5 108.5q0 73 56 115q60 46 196 54l194 9l3 19q6 41 -19.5 61.5t-81.5 20.5q-107 0 -122 -77h-174q15 85 88.5 134t209.5 49q148 0 216 -58t48 -175l-24 -136q-15 -82 -15 -146h-168
q0 39 8 85q-60 -100 -215 -100zM286 89q67 0 109.5 30t50.5 80l5 30l-136 -6q-121 -7 -121 -74q0 -60 92 -60z" />
    <glyph glyph-name="atilde" unicode="&#xe3;" horiz-adv-x="687" 
d="M492 574q-42 0 -74.5 16t-58 32t-50.5 16q-49 0 -70 -58l-79 30q46 126 149 126q38 0 70 -16t57.5 -32.5t48.5 -16.5q49 0 73 59l78 -30q-20 -60 -57.5 -93t-86.5 -33zM215 -15q-91 0 -145.5 36.5t-54.5 108.5q0 73 56 115q60 46 196 54l194 9l3 19q6 41 -19.5 61.5
t-81.5 20.5q-107 0 -122 -77h-174q15 85 88.5 134t209.5 49q148 0 216 -58t48 -175l-24 -136q-15 -82 -15 -146h-168q0 39 8 85q-60 -100 -215 -100zM286 89q67 0 109.5 30t50.5 80l5 30l-136 -6q-121 -7 -121 -74q0 -60 92 -60z" />
    <glyph glyph-name="adieresis" unicode="&#xe4;" horiz-adv-x="687" 
d="M178 575l24 137h155l-24 -137h-155zM444 575l24 137h155l-23 -137h-156zM215 -15q-91 0 -145.5 36.5t-54.5 108.5q0 73 56 115q60 46 196 54l194 9l3 19q6 41 -19.5 61.5t-81.5 20.5q-107 0 -122 -77h-174q15 85 88.5 134t209.5 49q148 0 216 -58t48 -175l-24 -136
q-15 -82 -15 -146h-168q0 39 8 85q-60 -100 -215 -100zM286 89q67 0 109.5 30t50.5 80l5 30l-136 -6q-121 -7 -121 -74q0 -60 92 -60z" />
    <glyph glyph-name="aring" unicode="&#xe5;" horiz-adv-x="687" 
d="M381 551q-66 0 -105 30t-39 80q0 57 44.5 92t116.5 35q66 0 105 -30t39 -80q0 -57 -44.5 -92t-116.5 -35zM381 615q38 0 58 16.5t20 46.5q0 21 -16 33.5t-45 12.5q-38 0 -58 -16.5t-20 -46.5q0 -21 16 -33.5t45 -12.5zM215 -15q-91 0 -145.5 36.5t-54.5 108.5
q0 73 56 115q60 46 196 54l194 9l3 19q6 41 -19.5 61.5t-81.5 20.5q-107 0 -122 -77h-174q15 85 88.5 134t209.5 49q148 0 216 -58t48 -175l-24 -136q-15 -82 -15 -146h-168q0 39 8 85q-60 -100 -215 -100zM286 89q67 0 109.5 30t50.5 80l5 30l-136 -6q-121 -7 -121 -74
q0 -60 92 -60z" />
    <glyph glyph-name="ae" unicode="&#xe6;" horiz-adv-x="1051" 
d="M1011 212h-409q-1 -56 35 -83t91 -27q93 0 139 73l119 -58q-85 -132 -270 -132q-170 0 -237 103q-87 -103 -264 -103q-93 0 -147 36t-54 104q0 75 57 117q61 43 200 51l181 8l2 25q7 42 -17 62.5t-79 20.5q-107 0 -118 -79h-174q14 84 87.5 134.5t208.5 50.5
q142 0 196 -62q82 62 198 62q74 0 132 -19.5t97 -69t39 -124.5q0 -45 -13 -90zM752 418q-57 0 -91.5 -30.5t-47.5 -82.5h248q3 9 3 27q0 43 -31 64.5t-81 21.5zM436 194l5 30l-130 -6q-118 -5 -118 -74q0 -55 88 -55q61 0 103.5 28t51.5 77z" />
    <glyph glyph-name="ccedilla" unicode="&#xe7;" horiz-adv-x="666" 
d="M329 108q103 0 134 94l163 -33q-27 -80 -99 -130t-188 -54l-30 -35q21 15 60 15q98 0 98 -71q0 -57 -42.5 -84.5t-111.5 -27.5q-113 0 -140 61l92 25q10 -25 48 -25q50 0 50 42q0 30 -41 30q-27 0 -42 -16l-69 16l54 73q-102 11 -170 66.5t-68 168.5q0 53 17.5 102t54 93
t104.5 70.5t158 26.5q74 0 133.5 -16.5t104.5 -59.5t55 -108l-173 -29q-16 92 -121 92q-44 0 -76 -15.5t-48.5 -41t-24 -52.5t-7.5 -56q0 -65 35 -93t90 -28z" />
    <glyph glyph-name="egrave" unicode="&#xe8;" horiz-adv-x="668" 
d="M469 569h-137l-191 157h167zM640 299q0 -45 -12 -87h-437q5 -59 46.5 -84.5t100.5 -25.5q100 0 146 73l118 -59q-81 -131 -273 -131q-53 0 -101.5 10.5t-96 35t-76 73.5t-28.5 118q0 54 18 104t55 93.5t103.5 69.5t153.5 26q56 0 104 -11t89.5 -35t65.5 -67.5t24 -102.5z
M478 305q3 7 3 22q0 45 -37.5 68t-92.5 23q-66 0 -105 -31t-49 -82h281z" />
    <glyph glyph-name="eacute" unicode="&#xe9;" horiz-adv-x="668" 
d="M650 726l-191 -157h-137l161 157h167zM357 515q56 0 104 -11t89.5 -35t65.5 -67.5t24 -102.5q0 -45 -12 -87h-437q5 -59 46.5 -84.5t100.5 -25.5q100 0 146 73l118 -59q-81 -131 -273 -131q-53 0 -101.5 10.5t-96 35t-76 73.5t-28.5 118q0 54 18 104t55 93.5t103.5 69.5
t153.5 26zM478 305q3 7 3 22q0 45 -37.5 68t-92.5 23q-66 0 -105 -31t-49 -82h281z" />
    <glyph glyph-name="ecircumflex" unicode="&#xea;" horiz-adv-x="668" 
d="M415 674l-103 -105h-135l156 157h174l100 -157h-126zM640 299q0 -45 -12 -87h-437q5 -59 46.5 -84.5t100.5 -25.5q100 0 146 73l118 -59q-81 -131 -273 -131q-53 0 -101.5 10.5t-96 35t-76 73.5t-28.5 118q0 54 18 104t55 93.5t103.5 69.5t153.5 26q56 0 104 -11
t89.5 -35t65.5 -67.5t24 -102.5zM478 305q3 7 3 22q0 45 -37.5 68t-92.5 23q-66 0 -105 -31t-49 -82h281z" />
    <glyph glyph-name="edieresis" unicode="&#xeb;" horiz-adv-x="668" 
d="M362 712l-24 -137h-155l24 137h155zM628 712l-23 -137h-156l24 137h155zM640 299q0 -45 -12 -87h-437q5 -59 46.5 -84.5t100.5 -25.5q100 0 146 73l118 -59q-81 -131 -273 -131q-53 0 -101.5 10.5t-96 35t-76 73.5t-28.5 118q0 54 18 104t55 93.5t103.5 69.5t153.5 26
q56 0 104 -11t89.5 -35t65.5 -67.5t24 -102.5zM478 305q3 7 3 22q0 45 -37.5 68t-92.5 23q-66 0 -105 -31t-49 -82h281z" />
    <glyph glyph-name="igrave" unicode="&#xec;" horiz-adv-x="321" 
d="M280 569h-135l-140 157h154zM30 0l91 500h170l-91 -500h-170z" />
    <glyph glyph-name="iacute" unicode="&#xed;" horiz-adv-x="321" 
d="M151 569l121 157h154l-140 -157h-135zM30 0l91 500h170l-91 -500h-170z" />
    <glyph glyph-name="icircumflex" unicode="&#xee;" horiz-adv-x="321" 
d="M375 569h-108l-26 107l-63 -107h-117l105 157h160zM30 0l91 500h170l-91 -500h-170z" />
    <glyph glyph-name="idieresis" unicode="&#xef;" horiz-adv-x="321" 
d="M58 575l24 137h138l-24 -137h-138zM243 575l24 137h138l-24 -137h-138zM30 0l91 500h170l-91 -500h-170z" />
    <glyph glyph-name="eth" unicode="&#xf0;" horiz-adv-x="706" 
d="M609 628q74 -103 74 -246q0 -53 -9.5 -104t-35 -105.5t-66 -95t-108.5 -66.5t-155 -26q-55 0 -101.5 10.5t-88.5 35.5t-66 72t-24 113q0 40 9 79t30.5 78t53.5 68t83 47t114 18q143 0 193 -93h2q-4 89 -75 168l-130 -37l-9 46l101 28q-35 28 -75 54l161 67q52 -32 89 -72
l96 27l8 -46zM334 102q44 0 77 17.5t51 45t26.5 56.5t8.5 57q0 59 -35.5 87.5t-95.5 28.5q-46 0 -79 -16.5t-49.5 -44t-24 -54.5t-7.5 -56q0 -121 128 -121z" />
    <glyph glyph-name="ntilde" unicode="&#xf1;" horiz-adv-x="724" 
d="M552 574q-42 0 -74.5 16t-58 32t-50.5 16q-49 0 -70 -58l-79 30q46 126 149 126q38 0 70 -16t57.5 -32.5t48.5 -16.5q49 0 73 59l78 -30q-20 -60 -57.5 -93t-86.5 -33zM30 0l88 500h166l-18 -102q72 117 210 117q36 0 66.5 -8t61 -27.5t48 -59.5t17.5 -98q0 -38 -9 -86
l-42 -236h-171l40 224q7 33 7 60q0 104 -104 104q-69 0 -103 -44t-47 -118l-39 -226h-171z" />
    <glyph glyph-name="ograve" unicode="&#xf2;" horiz-adv-x="689" 
d="M474 569h-137l-191 157h167zM326 -15q-55 0 -104 11t-95 36t-73 73.5t-27 116.5q0 56 19.5 107t58 93.5t105.5 67.5t153 25q55 0 104 -11t95 -36t73 -73.5t27 -116.5q0 -56 -19.5 -107t-58 -93.5t-105.5 -67.5t-153 -25zM331 100q54 0 91.5 30t51.5 68.5t14 80.5
q0 64 -37 92.5t-93 28.5q-54 0 -91.5 -30t-51.5 -68.5t-14 -80.5q0 -64 37 -92.5t93 -28.5z" />
    <glyph glyph-name="oacute" unicode="&#xf3;" horiz-adv-x="689" 
d="M327 569l161 157h167l-191 -157h-137zM326 -15q-55 0 -104 11t-95 36t-73 73.5t-27 116.5q0 56 19.5 107t58 93.5t105.5 67.5t153 25q55 0 104 -11t95 -36t73 -73.5t27 -116.5q0 -56 -19.5 -107t-58 -93.5t-105.5 -67.5t-153 -25zM331 100q54 0 91.5 30t51.5 68.5
t14 80.5q0 64 -37 92.5t-93 28.5q-54 0 -91.5 -30t-51.5 -68.5t-14 -80.5q0 -64 37 -92.5t93 -28.5z" />
    <glyph glyph-name="ocircumflex" unicode="&#xf4;" horiz-adv-x="689" 
d="M612 569h-126l-66 105l-103 -105h-135l156 157h174zM326 -15q-55 0 -104 11t-95 36t-73 73.5t-27 116.5q0 56 19.5 107t58 93.5t105.5 67.5t153 25q55 0 104 -11t95 -36t73 -73.5t27 -116.5q0 -56 -19.5 -107t-58 -93.5t-105.5 -67.5t-153 -25zM331 100q54 0 91.5 30
t51.5 68.5t14 80.5q0 64 -37 92.5t-93 28.5q-54 0 -91.5 -30t-51.5 -68.5t-14 -80.5q0 -64 37 -92.5t93 -28.5z" />
    <glyph glyph-name="otilde" unicode="&#xf5;" horiz-adv-x="689" 
d="M502 574q-42 0 -74.5 16t-58 32t-50.5 16q-49 0 -70 -58l-79 30q46 126 149 126q38 0 70 -16t57.5 -32.5t48.5 -16.5q49 0 73 59l78 -30q-20 -60 -57.5 -93t-86.5 -33zM326 -15q-55 0 -104 11t-95 36t-73 73.5t-27 116.5q0 56 19.5 107t58 93.5t105.5 67.5t153 25
q55 0 104 -11t95 -36t73 -73.5t27 -116.5q0 -56 -19.5 -107t-58 -93.5t-105.5 -67.5t-153 -25zM331 100q54 0 91.5 30t51.5 68.5t14 80.5q0 64 -37 92.5t-93 28.5q-54 0 -91.5 -30t-51.5 -68.5t-14 -80.5q0 -64 37 -92.5t93 -28.5z" />
    <glyph glyph-name="odieresis" unicode="&#xf6;" horiz-adv-x="689" 
d="M188 575l24 137h155l-24 -137h-155zM454 575l24 137h155l-23 -137h-156zM326 -15q-55 0 -104 11t-95 36t-73 73.5t-27 116.5q0 56 19.5 107t58 93.5t105.5 67.5t153 25q55 0 104 -11t95 -36t73 -73.5t27 -116.5q0 -56 -19.5 -107t-58 -93.5t-105.5 -67.5t-153 -25z
M331 100q54 0 91.5 30t51.5 68.5t14 80.5q0 64 -37 92.5t-93 28.5q-54 0 -91.5 -30t-51.5 -68.5t-14 -80.5q0 -64 37 -92.5t93 -28.5z" />
    <glyph glyph-name="divide" unicode="&#xf7;" horiz-adv-x="620" 
d="M350 445q-31 0 -51.5 20t-20.5 51q0 32 20.5 52t51.5 20t51.5 -20t20.5 -52q0 -31 -20.5 -51t-51.5 -20zM49 273l20 109h530l-20 -109h-530zM290 71q-31 0 -51 20t-20 52t20 51.5t51 19.5t51.5 -19.5t20.5 -51.5q0 -31 -20.5 -51.5t-51.5 -20.5z" />
    <glyph glyph-name="oslash" unicode="&#xf8;" horiz-adv-x="689" 
d="M672 487l-66 -54q56 -59 56 -155q0 -56 -19.5 -107t-58 -93.5t-105.5 -67.5t-153 -25q-127 0 -205 51l-72 -59l-35 34l69 56q-56 59 -56 155q0 56 19.5 107t58 93.5t105.5 67.5t153 25q128 0 204 -50l71 58zM201 221q0 -28 8 -50l243 199q-34 30 -94 30q-54 0 -91.5 -30
t-51.5 -68.5t-14 -80.5zM488 279q0 27 -8 51l-244 -200q34 -30 95 -30q54 0 91.5 30t51.5 68.5t14 80.5z" />
    <glyph glyph-name="ugrave" unicode="&#xf9;" horiz-adv-x="716" 
d="M484 569h-137l-191 157h167zM242 -15q-36 0 -66.5 7t-60.5 24t-47 52t-17 85q0 37 13 111l42 236h171l-40 -224q-9 -65 -9 -76q0 -89 94 -89q74 0 106.5 42t46.5 121l40 226h171l-88 -500h-165l18 102q-60 -117 -209 -117z" />
    <glyph glyph-name="uacute" unicode="&#xfa;" horiz-adv-x="716" 
d="M337 569l161 157h167l-191 -157h-137zM242 -15q-36 0 -66.5 7t-60.5 24t-47 52t-17 85q0 37 13 111l42 236h171l-40 -224q-9 -65 -9 -76q0 -89 94 -89q74 0 106.5 42t46.5 121l40 226h171l-88 -500h-165l18 102q-60 -117 -209 -117z" />
    <glyph glyph-name="ucircumflex" unicode="&#xfb;" horiz-adv-x="716" 
d="M622 569h-126l-66 105l-103 -105h-135l156 157h174zM242 -15q-36 0 -66.5 7t-60.5 24t-47 52t-17 85q0 37 13 111l42 236h171l-40 -224q-9 -65 -9 -76q0 -89 94 -89q74 0 106.5 42t46.5 121l40 226h171l-88 -500h-165l18 102q-60 -117 -209 -117z" />
    <glyph glyph-name="udieresis" unicode="&#xfc;" horiz-adv-x="716" 
d="M198 575l24 137h155l-24 -137h-155zM464 575l24 137h155l-23 -137h-156zM242 -15q-36 0 -66.5 7t-60.5 24t-47 52t-17 85q0 37 13 111l42 236h171l-40 -224q-9 -65 -9 -76q0 -89 94 -89q74 0 106.5 42t46.5 121l40 226h171l-88 -500h-165l18 102q-60 -117 -209 -117z" />
    <glyph glyph-name="yacute" unicode="&#xfd;" horiz-adv-x="634" 
d="M308 569l161 157h167l-191 -157h-137zM77 -205q-62 0 -116 17l22 125q40 -14 91 -14q74 0 110 60l9 18l-149 499h183l67 -306q6 -40 6 -57h3q10 27 24 56l168 307h183l-326 -539q-61 -102 -123 -134t-152 -32z" />
    <glyph glyph-name="thorn" unicode="&#xfe;" horiz-adv-x="731" 
d="M475 515q41 0 79 -11t73 -35t56 -69.5t21 -106.5q0 -42 -9 -83t-31 -82t-54 -72.5t-82 -51t-111 -19.5q-143 0 -198 86l-47 -266h-171l34 195l128 725h171l-52 -297q69 87 193 87zM366 100q56 0 94 31.5t51.5 70.5t13.5 80q0 64 -35.5 91t-86.5 27q-59 0 -100.5 -32.5
t-52.5 -81.5l-8 -38q-13 -62 21.5 -105t102.5 -43z" />
    <glyph glyph-name="ydieresis" unicode="&#xff;" horiz-adv-x="634" 
d="M169 575l24 137h155l-24 -137h-155zM435 575l24 137h155l-23 -137h-156zM77 -205q-62 0 -116 17l22 125q40 -14 91 -14q74 0 110 60l9 18l-149 499h183l67 -306q6 -40 6 -57h3q10 27 24 56l168 307h183l-326 -539q-61 -102 -123 -134t-152 -32z" />
    <glyph glyph-name="Amacron" unicode="&#x100;" horiz-adv-x="841" 
d="M734 857l-17 -98h-414l17 98h414zM607 0l-32 155h-325l-87 -155h-195l427 710h213l176 -710h-177zM318 277h231l-37 178q-16 62 -22 133h-2q-20 -48 -70 -133z" />
    <glyph glyph-name="amacron" unicode="&#x101;" horiz-adv-x="687" 
d="M182 592l18 98h408l-18 -98h-408zM215 -15q-91 0 -145.5 36.5t-54.5 108.5q0 73 56 115q60 46 196 54l194 9l3 19q6 41 -19.5 61.5t-81.5 20.5q-107 0 -122 -77h-174q15 85 88.5 134t209.5 49q148 0 216 -58t48 -175l-24 -136q-15 -82 -15 -146h-168q0 39 8 85
q-60 -100 -215 -100zM286 89q67 0 109.5 30t50.5 80l5 30l-136 -6q-121 -7 -121 -74q0 -60 92 -60z" />
    <glyph glyph-name="Abreve" unicode="&#x102;" horiz-adv-x="841" 
d="M523 751q-89 0 -136.5 33t-48.5 90h109q7 -47 76 -47q74 0 91 47h108q-16 -60 -68 -91.5t-131 -31.5zM607 0l-32 155h-325l-87 -155h-195l427 710h213l176 -710h-177zM318 277h231l-37 178q-16 62 -22 133h-2q-20 -48 -70 -133z" />
    <glyph glyph-name="abreve" unicode="&#x103;" horiz-adv-x="687" 
d="M332 726q-3 -81 75 -81q75 0 91 81h111q-32 -162 -206 -162q-91 0 -139 40.5t-42 121.5h110zM215 -15q-91 0 -145.5 36.5t-54.5 108.5q0 73 56 115q60 46 196 54l194 9l3 19q6 41 -19.5 61.5t-81.5 20.5q-107 0 -122 -77h-174q15 85 88.5 134t209.5 49q148 0 216 -58
t48 -175l-24 -136q-15 -82 -15 -146h-168q0 39 8 85q-60 -100 -215 -100zM286 89q67 0 109.5 30t50.5 80l5 30l-136 -6q-121 -7 -121 -74q0 -60 92 -60z" />
    <glyph glyph-name="Aogonek" unicode="&#x104;" horiz-adv-x="841" 
d="M631 -132q39 0 60 42l79 -29q-42 -85 -147 -85q-68 0 -104.5 23t-36.5 66q0 40 28.5 68.5t95.5 50.5l-31 151h-325l-87 -155h-195l427 710h213l176 -710h-47q-83 -23 -114 -44.5t-31 -49.5q0 -38 39 -38zM318 277h231l-37 178q-16 62 -22 133h-2q-20 -48 -70 -133z" />
    <glyph glyph-name="aogonek" unicode="&#x105;" horiz-adv-x="687" 
d="M365 515q148 0 216 -58t48 -175l-24 -136q-15 -82 -15 -146h-41q-83 -23 -114 -44.5t-31 -49.5q0 -38 39 -38t60 42l79 -29q-42 -85 -147 -85q-68 0 -104.5 23t-36.5 66q0 40 29.5 69t98.5 51q0 37 8 80q-60 -100 -215 -100q-91 0 -145.5 36.5t-54.5 108.5q0 73 56 115
q60 46 196 54l194 9l3 19q6 41 -19.5 61.5t-81.5 20.5q-107 0 -122 -77h-174q15 85 88.5 134t209.5 49zM286 89q67 0 109.5 30t50.5 80l5 30l-136 -6q-121 -7 -121 -74q0 -60 92 -60z" />
    <glyph glyph-name="Cacute" unicode="&#x106;" horiz-adv-x="831" 
d="M432 756l142 118h160l-164 -118h-138zM417 -20q-80 0 -145.5 18.5t-117.5 56.5t-81 103.5t-29 152.5q0 61 14.5 118.5t48 112.5t82.5 96.5t124.5 66.5t168.5 25q149 0 247 -64t114 -197l-187 -31q-20 151 -181 151q-67 0 -116.5 -25.5t-76 -67.5t-38.5 -87t-12 -92
q0 -56 16 -96t44.5 -60.5t60 -29.5t69.5 -9q157 0 203 146l178 -39q-95 -249 -386 -249z" />
    <glyph glyph-name="cacute" unicode="&#x107;" horiz-adv-x="666" 
d="M319 569l161 157h167l-191 -157h-137zM322 -15q-42 0 -81 6t-79 22.5t-69 42.5t-47.5 69t-18.5 98q0 53 17.5 102t54 93t104.5 70.5t158 26.5q74 0 133.5 -16.5t104.5 -59.5t55 -108l-173 -29q-16 92 -121 92q-44 0 -76 -15.5t-48.5 -41t-24 -52.5t-7.5 -56q0 -65 35 -93
t90 -28q103 0 134 94l163 -33q-28 -83 -104.5 -133.5t-199.5 -50.5z" />
    <glyph glyph-name="Ccircumflex" unicode="&#x108;" horiz-adv-x="831" 
d="M718 756h-135l-65 71l-90 -71h-143l147 118h180zM417 -20q-80 0 -145.5 18.5t-117.5 56.5t-81 103.5t-29 152.5q0 61 14.5 118.5t48 112.5t82.5 96.5t124.5 66.5t168.5 25q149 0 247 -64t114 -197l-187 -31q-20 151 -181 151q-67 0 -116.5 -25.5t-76 -67.5t-38.5 -87
t-12 -92q0 -56 16 -96t44.5 -60.5t60 -29.5t69.5 -9q157 0 203 146l178 -39q-95 -249 -386 -249z" />
    <glyph glyph-name="ccircumflex" unicode="&#x109;" horiz-adv-x="666" 
d="M604 569h-126l-66 105l-103 -105h-135l156 157h174zM322 -15q-42 0 -81 6t-79 22.5t-69 42.5t-47.5 69t-18.5 98q0 53 17.5 102t54 93t104.5 70.5t158 26.5q74 0 133.5 -16.5t104.5 -59.5t55 -108l-173 -29q-16 92 -121 92q-44 0 -76 -15.5t-48.5 -41t-24 -52.5t-7.5 -56
q0 -65 35 -93t90 -28q103 0 134 94l163 -33q-28 -83 -104.5 -133.5t-199.5 -50.5z" />
    <glyph glyph-name="Cdotaccent" unicode="&#x10a;" horiz-adv-x="831" 
d="M413 756l21 118h177l-21 -118h-177zM417 -20q-80 0 -145.5 18.5t-117.5 56.5t-81 103.5t-29 152.5q0 61 14.5 118.5t48 112.5t82.5 96.5t124.5 66.5t168.5 25q149 0 247 -64t114 -197l-187 -31q-20 151 -181 151q-67 0 -116.5 -25.5t-76 -67.5t-38.5 -87t-12 -92
q0 -56 16 -96t44.5 -60.5t60 -29.5t69.5 -9q157 0 203 146l178 -39q-95 -249 -386 -249z" />
    <glyph glyph-name="cdotaccent" unicode="&#x10b;" horiz-adv-x="666" 
d="M299 572l27 149h180l-27 -149h-180zM322 -15q-42 0 -81 6t-79 22.5t-69 42.5t-47.5 69t-18.5 98q0 53 17.5 102t54 93t104.5 70.5t158 26.5q74 0 133.5 -16.5t104.5 -59.5t55 -108l-173 -29q-16 92 -121 92q-44 0 -76 -15.5t-48.5 -41t-24 -52.5t-7.5 -56q0 -65 35 -93
t90 -28q103 0 134 94l163 -33q-28 -83 -104.5 -133.5t-199.5 -50.5z" />
    <glyph glyph-name="Ccaron" unicode="&#x10c;" horiz-adv-x="831" 
d="M294 869h135l65 -71l90 71h143l-147 -118h-180zM417 -20q-80 0 -145.5 18.5t-117.5 56.5t-81 103.5t-29 152.5q0 61 14.5 118.5t48 112.5t82.5 96.5t124.5 66.5t168.5 25q149 0 247 -64t114 -197l-187 -31q-20 151 -181 151q-67 0 -116.5 -25.5t-76 -67.5t-38.5 -87
t-12 -92q0 -56 16 -96t44.5 -60.5t60 -29.5t69.5 -9q157 0 203 146l178 -39q-95 -249 -386 -249z" />
    <glyph glyph-name="ccaron" unicode="&#x10d;" horiz-adv-x="666" 
d="M187 721h126l66 -105l103 105h135l-156 -157h-174zM322 -15q-42 0 -81 6t-79 22.5t-69 42.5t-47.5 69t-18.5 98q0 53 17.5 102t54 93t104.5 70.5t158 26.5q74 0 133.5 -16.5t104.5 -59.5t55 -108l-173 -29q-16 92 -121 92q-44 0 -76 -15.5t-48.5 -41t-24 -52.5t-7.5 -56
q0 -65 35 -93t90 -28q103 0 134 94l163 -33q-28 -83 -104.5 -133.5t-199.5 -50.5z" />
    <glyph glyph-name="Dcaron" unicode="&#x10e;" horiz-adv-x="852" 
d="M295 869h135l65 -71l90 71h143l-147 -118h-180zM38 0l125 710h317q79 0 143.5 -17.5t115.5 -53.5t79 -97.5t28 -143.5q0 -79 -27 -148.5t-80 -126.5t-142.5 -90t-205.5 -33h-353zM240 129h150q74 0 128.5 23.5t83.5 62.5t42 82t13 91q0 103 -53 148t-133 45h-151z" />
    <glyph glyph-name="dcaron" unicode="&#x10f;" horiz-adv-x="732" 
d="M259 -15q-43 0 -81.5 11.5t-73.5 36.5t-55.5 71t-20.5 108q0 44 10 86t33 81.5t55.5 69.5t81.5 48t107 18q146 0 197 -92l53 302h171l-127 -725h-164l15 90q-29 -48 -80.5 -76.5t-120.5 -28.5zM791 521l-15 49q54 9 60 39h-75l18 101h150l-15 -81q-17 -93 -123 -108z
M330 100q63 0 101.5 35.5t47.5 85.5l6 35q14 73 -25 108.5t-102 35.5q-40 0 -70.5 -16.5t-47.5 -44t-25 -57t-8 -60.5q0 -66 35 -94t88 -28z" />
    <glyph glyph-name="Dcroat" unicode="&#x110;" horiz-adv-x="852" 
d="M480 710q79 0 143.5 -17.5t115.5 -53.5t79 -97.5t28 -143.5q0 -79 -27 -148.5t-80 -126.5t-142.5 -90t-205.5 -33h-353l56 317h-82l18 101h82l51 292h317zM390 129q74 0 128.5 23.5t83.5 62.5t42 82t13 91q0 103 -53 148t-133 45h-151l-29 -163h186l-18 -101h-186
l-33 -188h150z" />
    <glyph glyph-name="dcroat" unicode="&#x111;" horiz-adv-x="732" 
d="M779 644l-12 -68h-57l-101 -576h-164l15 90q-29 -48 -80.5 -76.5t-120.5 -28.5q-43 0 -81.5 11.5t-73.5 36.5t-55.5 71t-20.5 108q0 44 10 86t33 81.5t55.5 69.5t81.5 48t107 18q146 0 197 -92l27 153h-224l12 68h224l14 81h171l-14 -81h57zM485 256q14 73 -25 108.5
t-102 35.5q-40 0 -70.5 -16.5t-47.5 -44t-25 -57t-8 -60.5q0 -66 35 -94t88 -28q63 0 101.5 35.5t47.5 85.5z" />
    <glyph glyph-name="Emacron" unicode="&#x112;" horiz-adv-x="726" 
d="M702 857l-17 -98h-414l17 98h414zM722 580h-402l-28 -155h386l-22 -126h-386l-30 -168h410l-23 -131h-589l125 710h582z" />
    <glyph glyph-name="emacron" unicode="&#x113;" horiz-adv-x="668" 
d="M613 690l-18 -98h-408l18 98h408zM640 299q0 -45 -12 -87h-437q5 -59 46.5 -84.5t100.5 -25.5q100 0 146 73l118 -59q-81 -131 -273 -131q-53 0 -101.5 10.5t-96 35t-76 73.5t-28.5 118q0 54 18 104t55 93.5t103.5 69.5t153.5 26q56 0 104 -11t89.5 -35t65.5 -67.5
t24 -102.5zM478 305q3 7 3 22q0 45 -37.5 68t-92.5 23q-66 0 -105 -31t-49 -82h281z" />
    <glyph glyph-name="Ebreve" unicode="&#x114;" horiz-adv-x="726" 
d="M491 751q-89 0 -136.5 33t-48.5 90h109q7 -47 76 -47q74 0 91 47h108q-16 -60 -68 -91.5t-131 -31.5zM722 580h-402l-28 -155h386l-22 -126h-386l-30 -168h410l-23 -131h-589l125 710h582z" />
    <glyph glyph-name="ebreve" unicode="&#x115;" horiz-adv-x="668" 
d="M408 564q-91 0 -139 40.5t-42 121.5h110q-3 -81 75 -81q75 0 91 81h111q-32 -162 -206 -162zM640 299q0 -45 -12 -87h-437q5 -59 46.5 -84.5t100.5 -25.5q100 0 146 73l118 -59q-81 -131 -273 -131q-53 0 -101.5 10.5t-96 35t-76 73.5t-28.5 118q0 54 18 104t55 93.5
t103.5 69.5t153.5 26q56 0 104 -11t89.5 -35t65.5 -67.5t24 -102.5zM478 305q3 7 3 22q0 45 -37.5 68t-92.5 23q-66 0 -105 -31t-49 -82h281z" />
    <glyph glyph-name="Edotaccent" unicode="&#x116;" horiz-adv-x="726" 
d="M587 874l-21 -118h-177l21 118h177zM722 580h-402l-28 -155h386l-22 -126h-386l-30 -168h410l-23 -131h-589l125 710h582z" />
    <glyph glyph-name="edotaccent" unicode="&#x117;" horiz-adv-x="668" 
d="M509 721l-27 -149h-180l27 149h180zM640 299q0 -45 -12 -87h-437q5 -59 46.5 -84.5t100.5 -25.5q100 0 146 73l118 -59q-81 -131 -273 -131q-53 0 -101.5 10.5t-96 35t-76 73.5t-28.5 118q0 54 18 104t55 93.5t103.5 69.5t153.5 26q56 0 104 -11t89.5 -35t65.5 -67.5
t24 -102.5zM478 305q3 7 3 22q0 45 -37.5 68t-92.5 23q-66 0 -105 -31t-49 -82h281z" />
    <glyph glyph-name="Eogonek" unicode="&#x118;" horiz-adv-x="726" 
d="M722 580h-402l-28 -155h386l-22 -126h-386l-30 -168h410l-23 -131q-83 -23 -114 -44.5t-31 -49.5q0 -38 39 -38t60 42l79 -29q-42 -85 -147 -85q-68 0 -104.5 23t-36.5 66q0 38 26.5 66t87.5 49h-448l125 710h582z" />
    <glyph glyph-name="eogonek" unicode="&#x119;" horiz-adv-x="668" 
d="M640 299q0 -45 -12 -87h-437q5 -59 46.5 -84.5t100.5 -25.5q100 0 146 73l118 -59q-68 -111 -217 -128q-56 -18 -77.5 -37t-21.5 -43q0 -38 39 -38t60 42l79 -29q-42 -85 -147 -85q-68 0 -104.5 23t-36.5 66q0 66 83 103q-46 6 -84.5 20.5t-73 41t-54.5 70t-20 100.5
q0 54 18 104t55 93.5t103.5 69.5t153.5 26q56 0 104 -11t89.5 -35t65.5 -67.5t24 -102.5zM478 305q3 7 3 22q0 45 -37.5 68t-92.5 23q-66 0 -105 -31t-49 -82h281z" />
    <glyph glyph-name="Ecaron" unicode="&#x11a;" horiz-adv-x="726" 
d="M556 751h-180l-106 118h135l65 -71l90 71h143zM722 580h-402l-28 -155h386l-22 -126h-386l-30 -168h410l-23 -131h-589l125 710h582z" />
    <glyph glyph-name="ecaron" unicode="&#x11b;" horiz-adv-x="668" 
d="M464 564h-174l-100 157h126l66 -105l103 105h135zM640 299q0 -45 -12 -87h-437q5 -59 46.5 -84.5t100.5 -25.5q100 0 146 73l118 -59q-81 -131 -273 -131q-53 0 -101.5 10.5t-96 35t-76 73.5t-28.5 118q0 54 18 104t55 93.5t103.5 69.5t153.5 26q56 0 104 -11t89.5 -35
t65.5 -67.5t24 -102.5zM478 305q3 7 3 22q0 45 -37.5 68t-92.5 23q-66 0 -105 -31t-49 -82h281z" />
    <glyph glyph-name="Gcircumflex" unicode="&#x11c;" horiz-adv-x="853" 
d="M739 756h-135l-65 71l-90 -71h-143l147 118h180zM367 -20q-144 0 -234.5 80.5t-90.5 238.5q0 80 24.5 153.5t74.5 137t139 102t205 38.5q143 0 239 -57.5t118 -166.5l-187 -34q-24 125 -179 125q-66 0 -115 -26t-76.5 -69t-40.5 -91.5t-13 -101.5q0 -196 189 -196
q91 0 147 42.5t68 103.5l3 14h-216l21 123h382l-70 -396h-131l12 111q-35 -62 -103.5 -96.5t-165.5 -34.5z" />
    <glyph glyph-name="gcircumflex" unicode="&#x11d;" horiz-adv-x="684" 
d="M397 681l-99 -87h-135l151 132h174l105 -132h-126zM665 588q28 0 58 -7l-20 -112q-28 11 -65 11q-44 0 -63 -18q51 -39 51 -105q0 -76 -68 -130.5t-219 -54.5q-89 0 -152 21q-26 -12 -26 -35q0 -19 16 -27t55 -9l177 -2q101 -2 153 -30.5t52 -107.5q0 -192 -366 -192
q-280 0 -280 119q0 75 112 97q-64 26 -64 89q0 88 126 119q-67 39 -67 116q0 76 67.5 130.5t218.5 54.5q95 0 159 -23q35 96 145 96zM344 258q61 0 87.5 27.5t26.5 66.5q0 42 -29.5 60t-72.5 18q-61 0 -87.5 -28t-26.5 -66q0 -42 29.5 -60t72.5 -18zM207 -14q-43 0 -76 6
q-28 -18 -28 -47q0 -40 46 -54t128 -14q182 0 182 65q0 23 -17 32t-55 10z" />
    <glyph glyph-name="Gbreve" unicode="&#x11e;" horiz-adv-x="853" 
d="M460 874q7 -47 76 -47q74 0 91 47h108q-16 -60 -68 -91.5t-131 -31.5q-89 0 -136.5 33t-48.5 90h109zM367 -20q-144 0 -234.5 80.5t-90.5 238.5q0 80 24.5 153.5t74.5 137t139 102t205 38.5q143 0 239 -57.5t118 -166.5l-187 -34q-24 125 -179 125q-66 0 -115 -26
t-76.5 -69t-40.5 -91.5t-13 -101.5q0 -196 189 -196q91 0 147 42.5t68 103.5l3 14h-216l21 123h382l-70 -396h-131l12 111q-35 -62 -103.5 -96.5t-165.5 -34.5z" />
    <glyph glyph-name="gbreve" unicode="&#x11f;" horiz-adv-x="684" 
d="M390 564q-91 0 -139 40.5t-42 121.5h110q-3 -81 75 -81q75 0 91 81h111q-32 -162 -206 -162zM665 588q28 0 58 -7l-20 -112q-28 11 -65 11q-44 0 -63 -18q51 -39 51 -105q0 -76 -68 -130.5t-219 -54.5q-89 0 -152 21q-26 -12 -26 -35q0 -19 16 -27t55 -9l177 -2
q101 -2 153 -30.5t52 -107.5q0 -192 -366 -192q-280 0 -280 119q0 75 112 97q-64 26 -64 89q0 88 126 119q-67 39 -67 116q0 76 67.5 130.5t218.5 54.5q95 0 159 -23q35 96 145 96zM344 258q61 0 87.5 27.5t26.5 66.5q0 42 -29.5 60t-72.5 18q-61 0 -87.5 -28t-26.5 -66
q0 -42 29.5 -60t72.5 -18zM207 -14q-43 0 -76 6q-28 -18 -28 -47q0 -40 46 -54t128 -14q182 0 182 65q0 23 -17 32t-55 10z" />
    <glyph glyph-name="Gdotaccent" unicode="&#x120;" horiz-adv-x="853" 
d="M434 756l21 118h177l-21 -118h-177zM367 -20q-144 0 -234.5 80.5t-90.5 238.5q0 80 24.5 153.5t74.5 137t139 102t205 38.5q143 0 239 -57.5t118 -166.5l-187 -34q-24 125 -179 125q-66 0 -115 -26t-76.5 -69t-40.5 -91.5t-13 -101.5q0 -196 189 -196q91 0 147 42.5
t68 103.5l3 14h-216l21 123h382l-70 -396h-131l12 111q-35 -62 -103.5 -96.5t-165.5 -34.5z" />
    <glyph glyph-name="gdotaccent" unicode="&#x121;" horiz-adv-x="684" 
d="M491 721l-27 -149h-180l27 149h180zM665 588q28 0 58 -7l-20 -112q-28 11 -65 11q-44 0 -63 -18q51 -39 51 -105q0 -76 -68 -130.5t-219 -54.5q-89 0 -152 21q-26 -12 -26 -35q0 -19 16 -27t55 -9l177 -2q101 -2 153 -30.5t52 -107.5q0 -192 -366 -192q-280 0 -280 119
q0 75 112 97q-64 26 -64 89q0 88 126 119q-67 39 -67 116q0 76 67.5 130.5t218.5 54.5q95 0 159 -23q35 96 145 96zM344 258q61 0 87.5 27.5t26.5 66.5q0 42 -29.5 60t-72.5 18q-61 0 -87.5 -28t-26.5 -66q0 -42 29.5 -60t72.5 -18zM207 -14q-43 0 -76 6q-28 -18 -28 -47
q0 -40 46 -54t128 -14q182 0 182 65q0 23 -17 32t-55 10z" />
    <glyph glyph-name="Gcommaaccent" unicode="&#x122;" horiz-adv-x="853" 
d="M367 -20q-144 0 -234.5 80.5t-90.5 238.5q0 80 24.5 153.5t74.5 137t139 102t205 38.5q143 0 239 -57.5t118 -166.5l-187 -34q-24 125 -179 125q-66 0 -115 -26t-76.5 -69t-40.5 -91.5t-13 -101.5q0 -196 189 -196q91 0 147 42.5t68 103.5l3 14h-216l21 123h382l-70 -396
h-131l12 111q-35 -62 -103.5 -96.5t-165.5 -34.5zM319 -243l-17 51q33 7 47 17.5t18 30.5h-77l17 101h152l-15 -84q-17 -97 -125 -116z" />
    <glyph glyph-name="gcommaaccent" unicode="&#x123;" horiz-adv-x="684" 
d="M462 670l-17 -101h-152l15 84q17 97 125 116l17 -51q-33 -7 -47 -17.5t-18 -30.5h77zM665 588q28 0 58 -7l-20 -112q-28 11 -65 11q-44 0 -63 -18q51 -39 51 -105q0 -76 -68 -130.5t-219 -54.5q-89 0 -152 21q-26 -12 -26 -35q0 -19 16 -27t55 -9l177 -2
q101 -2 153 -30.5t52 -107.5q0 -192 -366 -192q-280 0 -280 119q0 75 112 97q-64 26 -64 89q0 88 126 119q-67 39 -67 116q0 76 67.5 130.5t218.5 54.5q95 0 159 -23q35 96 145 96zM344 258q61 0 87.5 27.5t26.5 66.5q0 42 -29.5 60t-72.5 18q-61 0 -87.5 -28t-26.5 -66
q0 -42 29.5 -60t72.5 -18zM207 -14q-43 0 -76 6q-28 -18 -28 -47q0 -40 46 -54t128 -14q182 0 182 65q0 23 -17 32t-55 10z" />
    <glyph glyph-name="Hcircumflex" unicode="&#x124;" horiz-adv-x="868" 
d="M740 756h-135l-65 71l-90 -71h-143l147 118h180zM867 710l-125 -710h-180l52 293h-345l-52 -293h-179l125 710h179l-49 -283h344l50 283h180z" />
    <glyph glyph-name="hcircumflex" unicode="&#x125;" horiz-adv-x="729" 
d="M471 756h-135l-65 71l-90 -71h-143l147 118h180zM35 0l128 725h171l-56 -318q67 109 204 109q29 0 55 -5t51.5 -18.5t44 -34.5t30 -54.5t11.5 -76.5q0 -37 -9 -89l-42 -238h-171l43 242q5 22 5 48q0 99 -103 99q-124 0 -150 -156l-41 -233h-171z" />
    <glyph glyph-name="Hbar" unicode="&#x126;" horiz-adv-x="868" 
d="M927 600l-13 -75h-80l-92 -525h-180l52 293h-345l-52 -293h-179l92 525h-77l13 75h78l19 110h179l-19 -110h345l19 110h180l-19 -110h79zM637 427l17 98h-344l-17 -98h344z" />
    <glyph glyph-name="hbar" unicode="&#x127;" horiz-adv-x="722" 
d="M482 516q29 0 55 -5t51.5 -18.5t44 -34.5t30 -54.5t11.5 -76.5q0 -37 -9 -89l-42 -238h-171l43 242q5 22 5 48q0 99 -103 99q-124 0 -150 -156l-41 -233h-171l102 576h-81l11 68h82l14 81h171l-14 -81h233l-12 -68h-233l-30 -169q67 109 204 109z" />
    <glyph glyph-name="Itilde" unicode="&#x128;" horiz-adv-x="343" 
d="M340 751q-33 0 -55 15.5t-38.5 31t-34.5 15.5q-35 0 -43 -49l-70 28q9 51 38 80t72 29q33 0 55.5 -15.5t39 -31t34.5 -15.5q32 0 41 49l70 -27q-11 -53 -39.5 -81.5t-69.5 -28.5zM217 0h-179l125 710h179z" />
    <glyph glyph-name="itilde" unicode="&#x129;" horiz-adv-x="321" 
d="M295 573q-23 0 -42 10.5t-29.5 23t-22.5 23t-24 10.5q-30 0 -41 -56l-73 27q12 61 42 93.5t69 32.5q30 0 53 -17t38.5 -34t28.5 -17q28 0 39 56l73 -27q-16 -60 -45 -92.5t-66 -32.5zM30 0l91 500h170l-91 -500h-170z" />
    <glyph glyph-name="Imacron" unicode="&#x12a;" horiz-adv-x="343" 
d="M116 759l18 99h289l-18 -99h-289zM217 0h-179l125 710h179z" />
    <glyph glyph-name="imacron" unicode="&#x12b;" horiz-adv-x="321" 
d="M90 593l18 97h265l-18 -97h-265zM30 0l91 500h170l-91 -500h-170z" />
    <glyph glyph-name="Ibreve" unicode="&#x12c;" horiz-adv-x="343" 
d="M229 874q-1 -21 11 -34.5t38 -13.5q52 0 58 48h101q-25 -123 -159 -123q-76 0 -114.5 33t-35.5 90h101zM217 0h-179l125 710h179z" />
    <glyph glyph-name="ibreve" unicode="&#x12d;" horiz-adv-x="321" 
d="M206 726q-12 -81 31 -81q20 0 33 17t16 64h100q-23 -162 -150 -162q-155 0 -130 162h100zM30 0l91 500h170l-91 -500h-170z" />
    <glyph glyph-name="Iogonek" unicode="&#x12e;" horiz-adv-x="343" 
d="M168 0q-83 -23 -114 -44.5t-31 -49.5q0 -38 39 -38t60 42l79 -29q-42 -85 -147 -85q-68 0 -104.5 23t-36.5 66q0 40 29 68.5t97 50.5l124 706h179l-125 -710h-49z" />
    <glyph glyph-name="iogonek" unicode="&#x12f;" horiz-adv-x="321" 
d="M155 721h180l-27 -149h-180zM31 5l90 495h170l-91 -500h-42q-83 -23 -114 -44.5t-31 -49.5q0 -38 39 -38t60 42l79 -29q-42 -85 -147 -85q-68 0 -104.5 23t-36.5 66q0 40 29.5 69t98.5 51z" />
    <glyph glyph-name="Idotaccent" unicode="&#x130;" horiz-adv-x="343" 
d="M173 756l21 118h177l-21 -118h-177zM217 0h-179l125 710h179z" />
    <glyph glyph-name="dotlessi" unicode="&#x131;" horiz-adv-x="321" 
d="M30 0l91 500h170l-91 -500h-170z" />
    <glyph glyph-name="IJ" unicode="&#x132;" horiz-adv-x="805" 
d="M217 0h-179l125 710h179zM734 208q-20 -116 -90.5 -168.5t-187.5 -52.5q-81 0 -141 16l26 143q53 -12 92 -12q57 0 88 26.5t41 83.5l82 466h179z" />
    <glyph glyph-name="ij" unicode="&#x133;" horiz-adv-x="656" 
d="M128 572l27 149h180l-27 -149h-180zM463 572l27 149h180l-27 -149h-180zM30 0l91 500h170l-91 -500h-170zM310 -204q-57 0 -101 14l22 122q31 -9 56 -9q38 0 55.5 20.5t25.5 66.5l88 490h171l-91 -510q-17 -93 -67.5 -143.5t-158.5 -50.5z" />
    <glyph glyph-name="Jcircumflex" unicode="&#x134;" horiz-adv-x="462" 
d="M560 756h-113l-30 74l-56 -74h-122l97 118h169zM391 208q-20 -116 -90.5 -168.5t-187.5 -52.5q-81 0 -141 16l26 143q53 -12 92 -12q57 0 88 26.5t41 83.5l82 466h179z" />
    <glyph glyph-name="jcircumflex" unicode="&#x135;" horiz-adv-x="331" 
d="M385 569h-108l-26 107l-63 -107h-117l105 157h160zM-15 -204q-57 0 -101 14l22 122q31 -9 56 -9q38 0 55.5 20.5t25.5 66.5l88 490h171l-91 -510q-17 -93 -67.5 -143.5t-158.5 -50.5z" />
    <glyph glyph-name="Kcommaaccent" unicode="&#x136;" horiz-adv-x="818" 
d="M867 710l-325 -278l216 -432h-202l-155 318l-150 -126l-34 -192h-179l125 710h179l-55 -312l367 312h213zM267 -144l17 101h152l-15 -84q-17 -97 -125 -116l-17 51q33 7 47 17.5t18 30.5h-77z" />
    <glyph glyph-name="kcommaaccent" unicode="&#x137;" horiz-adv-x="698" 
d="M720 500l-249 -198l168 -302h-181l-116 219l-112 -84l-24 -135h-171l128 725h171l-74 -418l254 193h206zM219 -144l17 101h152l-15 -84q-17 -97 -125 -116l-17 51q33 7 47 17.5t18 30.5h-77z" />
    <glyph glyph-name="kgreenlandic" unicode="&#x138;" horiz-adv-x="693" 
d="M715 500l-249 -198l168 -302h-181l-117 219l-111 -83l-24 -136h-171l88 500h171l-34 -193l254 193h206z" />
    <glyph glyph-name="Lacute" unicode="&#x139;" horiz-adv-x="654" 
d="M192 756l142 118h160l-164 -118h-138zM38 0l125 710h179l-99 -566h371l-25 -144h-551z" />
    <glyph glyph-name="lacute" unicode="&#x13a;" horiz-adv-x="329" 
d="M185 756l142 118h160l-164 -118h-138zM334 725l-128 -725h-171l128 725h171z" />
    <glyph glyph-name="Lcommaaccent" unicode="&#x13b;" horiz-adv-x="654" 
d="M38 0l125 710h179l-99 -566h371l-25 -144h-551zM251 -243l-17 51q33 7 47 17.5t18 30.5h-77l17 101h152l-15 -84q-17 -97 -125 -116z" />
    <glyph glyph-name="lcommaaccent" unicode="&#x13c;" horiz-adv-x="329" 
d="M334 725l-128 -725h-171l128 725h171zM49 -243l-17 51q33 7 47 17.5t18 30.5h-77l17 101h152l-15 -84q-17 -97 -125 -116z" />
    <glyph glyph-name="Lcaron" unicode="&#x13d;" horiz-adv-x="654" 
d="M38 0l125 710h179l-99 -566h371l-25 -144h-551zM420 521l-15 49q54 9 60 39h-75l18 101h150l-15 -81q-17 -93 -123 -108z" />
    <glyph glyph-name="lcaron" unicode="&#x13e;" horiz-adv-x="329" 
d="M334 725l-128 -725h-171l128 725h171zM388 521l-15 49q54 9 60 39h-75l18 101h150l-15 -81q-17 -93 -123 -108z" />
    <glyph glyph-name="Ldot" unicode="&#x13f;" horiz-adv-x="654" 
d="M38 0l125 710h179l-99 -566h371l-25 -144h-551zM589 500l-29 -163h-185l29 163h185z" />
    <glyph glyph-name="ldot" unicode="&#x140;" horiz-adv-x="485" 
d="M334 725l-128 -725h-171l128 725h171zM544 500l-29 -163h-185l29 163h185z" />
    <glyph glyph-name="Lslash" unicode="&#x141;" horiz-adv-x="654" 
d="M243 144h371l-25 -144h-551l43 246l-98 -44l18 103l98 44l64 361h179l-48 -273l242 108l-19 -103l-241 -108z" />
    <glyph glyph-name="lslash" unicode="&#x142;" horiz-adv-x="329" 
d="M362 556l-15 -86l-67 -49l-74 -421h-171l49 275l-69 -51l15 86l69 51l64 364h171l-39 -218z" />
    <glyph glyph-name="Nacute" unicode="&#x143;" horiz-adv-x="869" 
d="M456 756l142 118h160l-164 -118h-138zM38 0l125 710h192l221 -408q26 -49 38 -88h3q15 88 16 97l71 399h164l-125 -710h-181l-231 415q-27 51 -39 84h-3l-16 -98l-71 -401h-164z" />
    <glyph glyph-name="nacute" unicode="&#x144;" horiz-adv-x="724" 
d="M377 569l161 157h167l-191 -157h-137zM30 0l88 500h166l-18 -102q72 117 210 117q36 0 66.5 -8t61 -27.5t48 -59.5t17.5 -98q0 -38 -9 -86l-42 -236h-171l40 224q7 33 7 60q0 104 -104 104q-69 0 -103 -44t-47 -118l-39 -226h-171z" />
    <glyph glyph-name="Ncommaaccent" unicode="&#x145;" horiz-adv-x="869" 
d="M38 0l125 710h192l221 -408q26 -49 38 -88h3q15 88 16 97l71 399h164l-125 -710h-181l-231 415q-27 51 -39 84h-3l-16 -98l-71 -401h-164zM320 -243l-17 51q33 7 47 17.5t18 30.5h-77l17 101h152l-15 -84q-17 -97 -125 -116z" />
    <glyph glyph-name="ncommaaccent" unicode="&#x146;" horiz-adv-x="724" 
d="M30 0l88 500h166l-18 -102q72 117 210 117q36 0 66.5 -8t61 -27.5t48 -59.5t17.5 -98q0 -38 -9 -86l-42 -236h-171l40 224q7 33 7 60q0 104 -104 104q-69 0 -103 -44t-47 -118l-39 -226h-171zM246 -243l-17 51q33 7 47 17.5t18 30.5h-77l17 101h152l-15 -84
q-17 -97 -125 -116z" />
    <glyph glyph-name="Ncaron" unicode="&#x147;" horiz-adv-x="869" 
d="M318 869h135l65 -71l90 71h143l-147 -118h-180zM38 0l125 710h192l221 -408q26 -49 38 -88h3q15 88 16 97l71 399h164l-125 -710h-181l-231 415q-27 51 -39 84h-3l-16 -98l-71 -401h-164z" />
    <glyph glyph-name="ncaron" unicode="&#x148;" horiz-adv-x="724" 
d="M245 721h126l66 -105l103 105h135l-156 -157h-174zM30 0l88 500h166l-18 -102q72 117 210 117q36 0 66.5 -8t61 -27.5t48 -59.5t17.5 -98q0 -38 -9 -86l-42 -236h-171l40 224q7 33 7 60q0 104 -104 104q-69 0 -103 -44t-47 -118l-39 -226h-171z" />
    <glyph glyph-name="napostrophe" unicode="&#x149;" horiz-adv-x="724" 
d="M88 521l-15 49q54 9 60 39h-75l18 101h150l-15 -81q-17 -93 -123 -108zM30 0l88 500h166l-18 -102q72 117 210 117q36 0 66.5 -8t61 -27.5t48 -59.5t17.5 -98q0 -38 -9 -86l-42 -236h-171l40 224q7 33 7 60q0 104 -104 104q-69 0 -103 -44t-47 -118l-39 -226h-171z" />
    <glyph glyph-name="Eng" unicode="&#x14a;" horiz-adv-x="869" 
d="M868 710l-109 -620l-17 -96q-36 -205 -265 -205q-70 0 -121 9l24 136q37 -6 97 -6q82 0 101 72h-16l-231 415q-27 51 -39 84h-3l-16 -98l-71 -401h-164l125 710h192l221 -408q26 -49 38 -88h3q15 88 16 97l71 399h164z" />
    <glyph glyph-name="eng" unicode="&#x14b;" horiz-adv-x="724" 
d="M476 515q36 0 66.5 -8t61 -27.5t48 -59.5t17.5 -98q0 -38 -9 -86l-42 -236l-3 -21q-15 -86 -72.5 -133t-172.5 -47q-54 0 -84 6l21 119q32 -3 55 -3q71 0 82 60l3 19l40 224q7 33 7 60q0 104 -104 104q-69 0 -103 -44t-47 -118l-39 -226h-171l88 500h166l-18 -102
q72 117 210 117z" />
    <glyph glyph-name="Omacron" unicode="&#x14c;" horiz-adv-x="872" 
d="M296 759l17 98h414l-17 -98h-414zM428 -20q-171 0 -278 82t-107 247q0 79 24.5 151t74.5 134t137.5 99t201.5 37q82 0 150.5 -19.5t121.5 -58t83 -103t30 -148.5q0 -79 -24.5 -151t-74.5 -134t-137.5 -99t-201.5 -37zM429 118q67 0 117 24t77.5 65t41 87.5t13.5 97.5
q0 106 -56.5 153t-142.5 47q-66 0 -116 -24t-78 -65t-41 -87.5t-13 -97.5q0 -106 56.5 -153t141.5 -47z" />
    <glyph glyph-name="omacron" unicode="&#x14d;" horiz-adv-x="689" 
d="M192 592l18 98h408l-18 -98h-408zM326 -15q-55 0 -104 11t-95 36t-73 73.5t-27 116.5q0 56 19.5 107t58 93.5t105.5 67.5t153 25q55 0 104 -11t95 -36t73 -73.5t27 -116.5q0 -56 -19.5 -107t-58 -93.5t-105.5 -67.5t-153 -25zM331 100q54 0 91.5 30t51.5 68.5t14 80.5
q0 64 -37 92.5t-93 28.5q-54 0 -91.5 -30t-51.5 -68.5t-14 -80.5q0 -64 37 -92.5t93 -28.5z" />
    <glyph glyph-name="Obreve" unicode="&#x14e;" horiz-adv-x="872" 
d="M440 874q7 -47 76 -47q74 0 91 47h108q-16 -60 -68 -91.5t-131 -31.5q-89 0 -136.5 33t-48.5 90h109zM428 -20q-171 0 -278 82t-107 247q0 79 24.5 151t74.5 134t137.5 99t201.5 37q82 0 150.5 -19.5t121.5 -58t83 -103t30 -148.5q0 -79 -24.5 -151t-74.5 -134
t-137.5 -99t-201.5 -37zM429 118q67 0 117 24t77.5 65t41 87.5t13.5 97.5q0 106 -56.5 153t-142.5 47q-66 0 -116 -24t-78 -65t-41 -87.5t-13 -97.5q0 -106 56.5 -153t141.5 -47z" />
    <glyph glyph-name="obreve" unicode="&#x14f;" horiz-adv-x="689" 
d="M342 726q-3 -81 75 -81q75 0 91 81h111q-32 -162 -206 -162q-91 0 -139 40.5t-42 121.5h110zM326 -15q-55 0 -104 11t-95 36t-73 73.5t-27 116.5q0 56 19.5 107t58 93.5t105.5 67.5t153 25q55 0 104 -11t95 -36t73 -73.5t27 -116.5q0 -56 -19.5 -107t-58 -93.5
t-105.5 -67.5t-153 -25zM331 100q54 0 91.5 30t51.5 68.5t14 80.5q0 64 -37 92.5t-93 28.5q-54 0 -91.5 -30t-51.5 -68.5t-14 -80.5q0 -64 37 -92.5t93 -28.5z" />
    <glyph glyph-name="Ohungarumlaut" unicode="&#x150;" horiz-adv-x="872" 
d="M333 757l138 117h141l-145 -117h-134zM538 757l139 117h141l-146 -117h-134zM428 -20q-171 0 -278 82t-107 247q0 79 24.5 151t74.5 134t137.5 99t201.5 37q82 0 150.5 -19.5t121.5 -58t83 -103t30 -148.5q0 -79 -24.5 -151t-74.5 -134t-137.5 -99t-201.5 -37zM429 118
q67 0 117 24t77.5 65t41 87.5t13.5 97.5q0 106 -56.5 153t-142.5 47q-66 0 -116 -24t-78 -65t-41 -87.5t-13 -97.5q0 -106 56.5 -153t141.5 -47z" />
    <glyph glyph-name="ohungarumlaut" unicode="&#x151;" horiz-adv-x="689" 
d="M239 569l143 157h129l-150 -157h-122zM434 569l143 157h128l-150 -157h-121zM326 -15q-55 0 -104 11t-95 36t-73 73.5t-27 116.5q0 56 19.5 107t58 93.5t105.5 67.5t153 25q55 0 104 -11t95 -36t73 -73.5t27 -116.5q0 -56 -19.5 -107t-58 -93.5t-105.5 -67.5t-153 -25z
M331 100q54 0 91.5 30t51.5 68.5t14 80.5q0 64 -37 92.5t-93 28.5q-54 0 -91.5 -30t-51.5 -68.5t-14 -80.5q0 -64 37 -92.5t93 -28.5z" />
    <glyph glyph-name="OE" unicode="&#x152;" horiz-adv-x="1159" 
d="M1154 580h-402l-28 -155h386l-22 -126h-386l-30 -168h410l-23 -131h-632q-61 0 -114 8.5t-104 30t-87 55.5t-58 88.5t-22 125.5q0 55 13.5 108t47 107t84.5 95t133 66.5t185 25.5h672zM447 129h46l79 452h-64q-78 0 -135 -25.5t-87 -67t-43.5 -85.5t-13.5 -90
q0 -184 218 -184z" />
    <glyph glyph-name="oe" unicode="&#x153;" horiz-adv-x="1125" 
d="M1097 299q0 -45 -12 -87h-437q5 -59 46.5 -84.5t100.5 -25.5q100 0 146 73l118 -59q-81 -131 -272 -131q-161 0 -236 84q-81 -84 -227 -84q-55 0 -103 11t-94 36t-73 73.5t-27 116.5q0 56 19.5 107t58 93.5t105 67.5t151.5 25q151 0 220 -83q83 83 234 83q56 0 104 -11
t89 -35t65 -67.5t24 -102.5zM935 305q3 7 3 22q0 45 -37.5 68t-92.5 23q-66 0 -104.5 -31t-48.5 -82h280zM331 100q54 0 91 30t51 68.5t14 80.5q0 64 -36.5 92.5t-92.5 28.5q-54 0 -91.5 -30t-51.5 -68.5t-14 -80.5q0 -64 37 -92.5t93 -28.5z" />
    <glyph glyph-name="Racute" unicode="&#x154;" horiz-adv-x="791" 
d="M697 874l-164 -118h-138l142 118h160zM786 508q0 -80 -44 -140t-142 -83l117 -285h-198l-104 265h-151l-47 -265h-179l125 710h360q54 0 99 -10t83 -32.5t59.5 -63t21.5 -96.5zM321 586l-36 -202h166q78 0 111.5 32.5t33.5 80.5q0 89 -109 89h-166z" />
    <glyph glyph-name="racute" unicode="&#x155;" horiz-adv-x="475" 
d="M232 569l161 157h167l-191 -157h-137zM248 352q58 161 196 161q32 0 58 -8l-27 -157q-35 10 -72 10q-64 0 -100 -28q-51 -38 -68 -139l-34 -191h-171l88 500h157z" />
    <glyph glyph-name="Rcommaaccent" unicode="&#x156;" horiz-adv-x="791" 
d="M786 508q0 -80 -44 -140t-142 -83l117 -285h-198l-104 265h-151l-47 -265h-179l125 710h360q54 0 99 -10t83 -32.5t59.5 -63t21.5 -96.5zM321 586l-36 -202h166q78 0 111.5 32.5t33.5 80.5q0 89 -109 89h-166zM248 -144l17 101h152l-15 -84q-17 -97 -125 -116l-17 51
q33 7 47 17.5t18 30.5h-77z" />
    <glyph glyph-name="rcommaaccent" unicode="&#x157;" horiz-adv-x="475" 
d="M248 352q58 161 196 161q32 0 58 -8l-27 -157q-35 10 -72 10q-64 0 -100 -28q-51 -38 -68 -139l-34 -191h-171l88 500h157zM44 -243l-17 51q33 7 47 17.5t18 30.5h-77l17 101h152l-15 -84q-17 -97 -125 -116z" />
    <glyph glyph-name="Rcaron" unicode="&#x158;" horiz-adv-x="791" 
d="M543 751h-180l-106 118h135l65 -71l90 71h143zM786 508q0 -80 -44 -140t-142 -83l117 -285h-198l-104 265h-151l-47 -265h-179l125 710h360q54 0 99 -10t83 -32.5t59.5 -63t21.5 -96.5zM321 586l-36 -202h166q78 0 111.5 32.5t33.5 80.5q0 89 -109 89h-166z" />
    <glyph glyph-name="rcaron" unicode="&#x159;" horiz-adv-x="475" 
d="M100 721h126l66 -105l103 105h135l-156 -157h-174zM248 352q58 161 196 161q32 0 58 -8l-27 -157q-35 10 -72 10q-64 0 -100 -28q-51 -38 -68 -139l-34 -191h-171l88 500h157z" />
    <glyph glyph-name="Sacute" unicode="&#x15a;" horiz-adv-x="736" 
d="M384 756l142 118h160l-164 -118h-138zM361 -20q-145 0 -243 44t-135 133l145 89q59 -131 243 -131q147 0 147 88q0 34 -22.5 49.5t-76.5 24.5l-117 18q-99 16 -156 66t-57 138q0 99 77.5 165t248.5 66q261 0 342 -150l-131 -93q-53 113 -219 113q-142 -1 -142 -82
q0 -31 24.5 -48t80.5 -27l122 -20q103 -18 155.5 -66.5t52.5 -137.5q0 -106 -80 -172.5t-259 -66.5z" />
    <glyph glyph-name="sacute" unicode="&#x15b;" horiz-adv-x="605" 
d="M284 569l161 157h167l-191 -157h-137zM288 -15q-230 0 -298 124l104 78q59 -87 214 -87q99 0 99 48q0 18 -12.5 25.5t-45.5 12.5l-124 16q-165 24 -165 142q0 78 65 124.5t197 46.5q194 0 281 -100l-99 -83q-59 72 -198 72q-92 0 -92 -42q0 -17 13 -26.5t45 -13.5
l131 -18q83 -13 120.5 -47t37.5 -94q0 -79 -64.5 -128.5t-208.5 -49.5z" />
    <glyph glyph-name="Scircumflex" unicode="&#x15c;" horiz-adv-x="736" 
d="M670 756h-135l-65 71l-90 -71h-143l147 118h180zM361 -20q-145 0 -243 44t-135 133l145 89q59 -131 243 -131q147 0 147 88q0 34 -22.5 49.5t-76.5 24.5l-117 18q-99 16 -156 66t-57 138q0 99 77.5 165t248.5 66q261 0 342 -150l-131 -93q-53 113 -219 113
q-142 -1 -142 -82q0 -31 24.5 -48t80.5 -27l122 -20q103 -18 155.5 -66.5t52.5 -137.5q0 -106 -80 -172.5t-259 -66.5z" />
    <glyph glyph-name="scircumflex" unicode="&#x15d;" horiz-adv-x="605" 
d="M569 569h-126l-66 105l-103 -105h-135l156 157h174zM288 -15q-230 0 -298 124l104 78q59 -87 214 -87q99 0 99 48q0 18 -12.5 25.5t-45.5 12.5l-124 16q-165 24 -165 142q0 78 65 124.5t197 46.5q194 0 281 -100l-99 -83q-59 72 -198 72q-92 0 -92 -42q0 -17 13 -26.5
t45 -13.5l131 -18q83 -13 120.5 -47t37.5 -94q0 -79 -64.5 -128.5t-208.5 -49.5z" />
    <glyph glyph-name="Scedilla" unicode="&#x15e;" horiz-adv-x="736" 
d="M492 423q103 -18 155.5 -66.5t52.5 -137.5q0 -106 -80 -172.5t-259 -66.5h-3l-26 -30q21 15 60 15q98 0 98 -71q0 -57 -42.5 -84.5t-111.5 -27.5q-113 0 -140 61l92 25q10 -25 48 -25q50 0 50 42q0 30 -41 30q-27 0 -42 -16l-69 16l50 68q-238 22 -301 174l145 89
q59 -131 243 -131q147 0 147 88q0 34 -22.5 49.5t-76.5 24.5l-117 18q-99 16 -156 66t-57 138q0 99 77.5 165t248.5 66q261 0 342 -150l-131 -93q-53 113 -219 113q-142 -1 -142 -82q0 -31 24.5 -48t80.5 -27z" />
    <glyph glyph-name="scedilla" unicode="&#x15f;" horiz-adv-x="605" 
d="M403 304q83 -13 120.5 -47t37.5 -94q0 -78 -63 -127.5t-203 -50.5l-30 -35q21 15 60 15q98 0 98 -71q0 -57 -42.5 -84.5t-111.5 -27.5q-113 0 -140 61l92 25q10 -25 48 -25q50 0 50 42q0 30 -41 30q-27 0 -42 -16l-69 16l54 73q-175 18 -231 121l104 78q59 -87 214 -87
q99 0 99 48q0 18 -12.5 25.5t-45.5 12.5l-124 16q-165 24 -165 142q0 78 65 124.5t197 46.5q194 0 281 -100l-99 -83q-59 72 -198 72q-92 0 -92 -42q0 -17 13 -26.5t45 -13.5z" />
    <glyph glyph-name="Scaron" unicode="&#x160;" horiz-adv-x="736" 
d="M246 869h135l65 -71l90 71h143l-147 -118h-180zM361 -20q-145 0 -243 44t-135 133l145 89q59 -131 243 -131q147 0 147 88q0 34 -22.5 49.5t-76.5 24.5l-117 18q-99 16 -156 66t-57 138q0 99 77.5 165t248.5 66q261 0 342 -150l-131 -93q-53 113 -219 113
q-142 -1 -142 -82q0 -31 24.5 -48t80.5 -27l122 -20q103 -18 155.5 -66.5t52.5 -137.5q0 -106 -80 -172.5t-259 -66.5z" />
    <glyph glyph-name="scaron" unicode="&#x161;" horiz-adv-x="605" 
d="M152 721h126l66 -105l103 105h135l-156 -157h-174zM288 -15q-230 0 -298 124l104 78q59 -87 214 -87q99 0 99 48q0 18 -12.5 25.5t-45.5 12.5l-124 16q-165 24 -165 142q0 78 65 124.5t197 46.5q194 0 281 -100l-99 -83q-59 72 -198 72q-92 0 -92 -42q0 -17 13 -26.5
t45 -13.5l131 -18q83 -13 120.5 -47t37.5 -94q0 -79 -64.5 -128.5t-208.5 -49.5z" />
    <glyph glyph-name="uni0162" unicode="&#x162;" horiz-adv-x="687" 
d="M389 0h-51l-43 -50q21 15 60 15q98 0 98 -71q0 -57 -42.5 -84.5t-111.5 -27.5q-113 0 -140 61l92 25q10 -25 48 -25q50 0 50 42q0 30 -41 30q-27 0 -42 -16l-69 16l63 85h-50l99 568h-245l25 142h671l-25 -142h-246z" />
    <glyph glyph-name="uni0163" unicode="&#x163;" horiz-adv-x="486" 
d="M313 388l-28 -165q-10 -56 13 -77t71 -21q31 0 65 6l-23 -129q-54 -14 -115 -13h-1l-33 -39q21 15 60 15q98 0 98 -71q0 -57 -42.5 -84.5t-111.5 -27.5q-113 0 -140 61l92 25q10 -25 48 -25q50 0 50 42q0 30 -41 30q-27 0 -42 -16l-69 16l60 81q-145 34 -111 226l29 166
h-112l20 112h112l21 119l182 64l-32 -183h165l-20 -112h-165z" />
    <glyph glyph-name="Tcaron" unicode="&#x164;" horiz-adv-x="687" 
d="M512 751h-180l-106 118h135l65 -71l90 71h143zM760 710l-25 -142h-246l-100 -568h-179l99 568h-245l25 142h671z" />
    <glyph glyph-name="tcaron" unicode="&#x165;" horiz-adv-x="486" 
d="M424 521l-15 49q54 9 60 39h-75l18 101h150l-15 -81q-17 -93 -123 -108zM30 388l20 112h112l21 119l182 64l-32 -183h165l-20 -112h-165l-28 -165q-10 -56 13 -77t71 -21q31 0 65 6l-23 -129q-54 -14 -115 -13q-38 0 -67.5 6t-57.5 21.5t-42 41.5t-21 66.5t5 97.5l29 166
h-112z" />
    <glyph glyph-name="Tbar" unicode="&#x166;" horiz-adv-x="687" 
d="M735 568h-246l-23 -130h137l-12 -68h-137l-65 -370h-179l65 370h-136l12 68h136l22 130h-245l25 142h671z" />
    <glyph glyph-name="tbar" unicode="&#x167;" horiz-adv-x="502" 
d="M494 388h-165l-13 -74h131l-14 -84h-131l-1 -7q-10 -56 13 -77t71 -21q31 0 65 6l-23 -129q-54 -14 -115 -13q-38 0 -67.5 6t-57.5 21.5t-42 41.5t-21 66.5t5 97.5l1 8h-128l15 84h128l13 74h-112l20 112h112l21 119l182 64l-32 -183h165z" />
    <glyph glyph-name="Utilde" unicode="&#x168;" horiz-adv-x="827" 
d="M600 747q-50 0 -96.5 29t-71.5 29t-40.5 -11.5t-27.5 -43.5l-80 32q43 115 147 115q49 0 96 -29t73 -29q48 0 67 54l79 -31q-41 -115 -146 -115zM145 710h180l-71 -400q-18 -98 25.5 -142.5t124.5 -44.5q158 0 188 170l73 417h180l-78 -442q-51 -288 -371 -288
q-64 0 -117 11.5t-98 37t-71.5 65.5t-37 98t4.5 134z" />
    <glyph glyph-name="utilde" unicode="&#x169;" horiz-adv-x="716" 
d="M512 574q-42 0 -74.5 16t-58 32t-50.5 16q-49 0 -70 -58l-79 30q46 126 149 126q38 0 70 -16t57.5 -32.5t48.5 -16.5q49 0 73 59l78 -30q-20 -60 -57.5 -93t-86.5 -33zM242 -15q-36 0 -66.5 7t-60.5 24t-47 52t-17 85q0 37 13 111l42 236h171l-40 -224q-9 -65 -9 -76
q0 -89 94 -89q74 0 106.5 42t46.5 121l40 226h171l-88 -500h-165l18 102q-60 -117 -209 -117z" />
    <glyph glyph-name="Umacron" unicode="&#x16a;" horiz-adv-x="827" 
d="M297 759l17 98h414l-17 -98h-414zM145 710h180l-71 -400q-18 -98 25.5 -142.5t124.5 -44.5q158 0 188 170l73 417h180l-78 -442q-51 -288 -371 -288q-64 0 -117 11.5t-98 37t-71.5 65.5t-37 98t4.5 134z" />
    <glyph glyph-name="umacron" unicode="&#x16b;" horiz-adv-x="716" 
d="M202 592l18 98h408l-18 -98h-408zM242 -15q-36 0 -66.5 7t-60.5 24t-47 52t-17 85q0 37 13 111l42 236h171l-40 -224q-9 -65 -9 -76q0 -89 94 -89q74 0 106.5 42t46.5 121l40 226h171l-88 -500h-165l18 102q-60 -117 -209 -117z" />
    <glyph glyph-name="Ubreve" unicode="&#x16c;" horiz-adv-x="827" 
d="M441 874q7 -47 76 -47q74 0 91 47h108q-16 -60 -68 -91.5t-131 -31.5q-89 0 -136.5 33t-48.5 90h109zM145 710h180l-71 -400q-18 -98 25.5 -142.5t124.5 -44.5q158 0 188 170l73 417h180l-78 -442q-51 -288 -371 -288q-64 0 -117 11.5t-98 37t-71.5 65.5t-37 98t4.5 134z
" />
    <glyph glyph-name="ubreve" unicode="&#x16d;" horiz-adv-x="716" 
d="M352 726q-3 -81 75 -81q75 0 91 81h111q-32 -162 -206 -162q-91 0 -139 40.5t-42 121.5h110zM242 -15q-36 0 -66.5 7t-60.5 24t-47 52t-17 85q0 37 13 111l42 236h171l-40 -224q-9 -65 -9 -76q0 -89 94 -89q74 0 106.5 42t46.5 121l40 226h171l-88 -500h-165l18 102
q-60 -117 -209 -117z" />
    <glyph glyph-name="Uring" unicode="&#x16e;" horiz-adv-x="827" 
d="M514 744q-60 0 -94.5 29.5t-34.5 78.5q0 56 41 91.5t103 35.5q59 0 93.5 -30t34.5 -79q0 -55 -41 -90.5t-102 -35.5zM514 808q63 0 63 62q0 21 -13 33t-35 12q-63 0 -63 -63q0 -44 48 -44zM145 710h180l-71 -400q-18 -98 25.5 -142.5t124.5 -44.5q158 0 188 170l73 417
h180l-78 -442q-51 -288 -371 -288q-64 0 -117 11.5t-98 37t-71.5 65.5t-37 98t4.5 134z" />
    <glyph glyph-name="uring" unicode="&#x16f;" horiz-adv-x="716" 
d="M401 551q-66 0 -105 30t-39 80q0 57 44.5 92t116.5 35q66 0 105 -30t39 -80q0 -57 -44.5 -92t-116.5 -35zM401 615q38 0 58 16.5t20 46.5q0 21 -16 33.5t-45 12.5q-38 0 -58 -16.5t-20 -46.5q0 -21 16 -33.5t45 -12.5zM242 -15q-36 0 -66.5 7t-60.5 24t-47 52t-17 85
q0 37 13 111l42 236h171l-40 -224q-9 -65 -9 -76q0 -89 94 -89q74 0 106.5 42t46.5 121l40 226h171l-88 -500h-165l18 102q-60 -117 -209 -117z" />
    <glyph glyph-name="Uhungarumlaut" unicode="&#x170;" horiz-adv-x="827" 
d="M334 757l138 117h141l-145 -117h-134zM539 757l139 117h141l-146 -117h-134zM145 710h180l-71 -400q-18 -98 25.5 -142.5t124.5 -44.5q158 0 188 170l73 417h180l-78 -442q-51 -288 -371 -288q-64 0 -117 11.5t-98 37t-71.5 65.5t-37 98t4.5 134z" />
    <glyph glyph-name="uhungarumlaut" unicode="&#x171;" horiz-adv-x="716" 
d="M249 569l143 157h129l-150 -157h-122zM444 569l143 157h128l-150 -157h-121zM242 -15q-36 0 -66.5 7t-60.5 24t-47 52t-17 85q0 37 13 111l42 236h171l-40 -224q-9 -65 -9 -76q0 -89 94 -89q74 0 106.5 42t46.5 121l40 226h171l-88 -500h-165l18 102q-60 -117 -209 -117z
" />
    <glyph glyph-name="Uogonek" unicode="&#x172;" horiz-adv-x="827" 
d="M665 710h180l-78 -442q-44 -257 -305 -285q-51 -18 -71 -36t-20 -41q0 -38 39 -38t60 42l79 -29q-42 -85 -147 -85q-68 0 -104.5 23t-36.5 66q0 62 73 98q-142 15 -214 98t-43 245l68 384h180l-71 -400q-18 -98 25.5 -142.5t124.5 -44.5q158 0 188 170z" />
    <glyph glyph-name="uogonek" unicode="&#x173;" horiz-adv-x="716" 
d="M560 0q-83 -23 -114 -44.5t-31 -49.5q0 -38 39 -38t60 42l79 -29q-42 -85 -147 -85q-68 0 -104.5 23t-36.5 66q0 40 30 69t99 51l17 97q-60 -117 -209 -117q-36 0 -66.5 7t-60.5 24t-47 52t-17 85q0 37 13 111l42 236h171l-40 -224q-9 -65 -9 -76q0 -89 94 -89
q74 0 106.5 42t46.5 121l40 226h171l-88 -500h-38z" />
    <glyph glyph-name="Wcircumflex" unicode="&#x174;" horiz-adv-x="1125" 
d="M869 756h-135l-65 71l-90 -71h-143l147 118h180zM176 0l-76 710h179l32 -461q2 -36 -1 -63h3q6 23 24 63l212 461h183l50 -461q3 -38 1 -63h3q8 32 22 63l194 461h186l-327 -710h-200l-45 473q-2 24 1 57h-4q-9 -33 -20 -57l-211 -473h-206z" />
    <glyph glyph-name="wcircumflex" unicode="&#x175;" horiz-adv-x="930" 
d="M733 569h-126l-66 105l-103 -105h-135l156 157h174zM135 0l-77 500h162l30 -309q2 -29 1 -49h2q4 13 19 49l155 309h158l44 -309q3 -36 2 -49h2q7 27 17 49l141 309h169l-253 -500h-172l-47 293q-5 26 -2 50h-3q-6 -19 -19 -48l-152 -295h-177z" />
    <glyph glyph-name="Ycircumflex" unicode="&#x176;" horiz-adv-x="745" 
d="M680 756h-135l-65 71l-90 -71h-143l147 118h180zM238 0l43 249l-205 461h188l113 -275q11 -30 11 -47h2q9 22 28 47l213 275h200l-369 -461l-44 -249h-180z" />
    <glyph glyph-name="ycircumflex" unicode="&#x177;" horiz-adv-x="634" 
d="M593 569h-126l-66 105l-103 -105h-135l156 157h174zM77 -205q-62 0 -116 17l22 125q40 -14 91 -14q74 0 110 60l9 18l-149 499h183l67 -306q6 -40 6 -57h3q10 27 24 56l168 307h183l-326 -539q-61 -102 -123 -134t-152 -32z" />
    <glyph glyph-name="Ydieresis" unicode="&#x178;" horiz-adv-x="745" 
d="M254 756l21 117h150l-20 -117h-151zM522 756l21 117h151l-21 -117h-151zM238 0l43 249l-205 461h188l113 -275q11 -30 11 -47h2q9 22 28 47l213 275h200l-369 -461l-44 -249h-180z" />
    <glyph glyph-name="Zacute" unicode="&#x179;" horiz-adv-x="723" 
d="M385 756l142 118h160l-164 -118h-138zM20 124l492 452h-396l23 134h618l-21 -124l-491 -453h428l-23 -133h-652z" />
    <glyph glyph-name="zacute" unicode="&#x17a;" horiz-adv-x="592" 
d="M286 569l161 157h167l-191 -157h-137zM6 104l363 282h-300l21 114h505l-18 -101l-359 -283h324l-20 -116h-534z" />
    <glyph glyph-name="Zdotaccent" unicode="&#x17b;" horiz-adv-x="723" 
d="M366 756l21 118h177l-21 -118h-177zM20 124l492 452h-396l23 134h618l-21 -124l-491 -453h428l-23 -133h-652z" />
    <glyph glyph-name="zdotaccent" unicode="&#x17c;" horiz-adv-x="592" 
d="M266 572l27 149h180l-27 -149h-180zM6 104l363 282h-300l21 114h505l-18 -101l-359 -283h324l-20 -116h-534z" />
    <glyph glyph-name="Zcaron" unicode="&#x17d;" horiz-adv-x="723" 
d="M247 869h135l65 -71l90 71h143l-147 -118h-180zM20 124l492 452h-396l23 134h618l-21 -124l-491 -453h428l-23 -133h-652z" />
    <glyph glyph-name="zcaron" unicode="&#x17e;" horiz-adv-x="592" 
d="M154 721h126l66 -105l103 105h135l-156 -157h-174zM6 104l363 282h-300l21 114h505l-18 -101l-359 -283h324l-20 -116h-534z" />
    <glyph glyph-name="florin" unicode="&#x192;" horiz-adv-x="547" 
d="M523 587q-55 0 -81 -28t-42 -82l-15 -49h142l-20 -113h-158l-147 -465h-180l147 465h-129l21 113h144l13 41q15 46 29 78t38 66t54 55t75.5 34t103.5 13q52 0 97 -14l-22 -125q-35 11 -70 11z" />
    <glyph glyph-name="AEacute" unicode="&#x1fc;" horiz-adv-x="1254" 
d="M1197 874l-164 -118h-138l142 118h160zM1250 580h-402l-28 -155h386l-23 -126h-385l-30 -168h410l-23 -131h-589l26 150h-287l-123 -150h-190l619 710h662zM406 272h208l57 322z" />
    <glyph glyph-name="aeacute" unicode="&#x1fd;" horiz-adv-x="1051" 
d="M840 726l-191 -157h-137l161 157h167zM1011 212h-409q-1 -56 35 -83t91 -27q93 0 139 73l119 -58q-85 -132 -270 -132q-170 0 -237 103q-87 -103 -264 -103q-93 0 -147 36t-54 104q0 75 57 117q61 43 200 51l181 8l2 25q7 42 -17 62.5t-79 20.5q-107 0 -118 -79h-174
q14 84 87.5 134.5t208.5 50.5q142 0 196 -62q82 62 198 62q74 0 132 -19.5t97 -69t39 -124.5q0 -45 -13 -90zM752 418q-57 0 -91.5 -30.5t-47.5 -82.5h248q3 9 3 27q0 43 -31 64.5t-81 21.5zM436 194l5 30l-130 -6q-118 -5 -118 -74q0 -55 88 -55q61 0 103.5 28t51.5 77z
" />
    <glyph glyph-name="Oslashacute" unicode="&#x1fe;" horiz-adv-x="872" 
d="M673 874l-164 -118h-138l142 118h160zM876 689l-83 -74q73 -83 73 -214q0 -79 -24.5 -151t-74.5 -134t-137.5 -99t-201.5 -37q-164 0 -263 71l-84 -75l-49 45l83 74q-72 83 -72 214q0 79 24.5 151t74.5 134t137.5 99t201.5 37q163 0 263 -71l83 75zM231 318
q0 -58 19 -101l369 330q-52 45 -140 45q-66 0 -116 -24t-78 -65t-41 -87.5t-13 -97.5zM678 392q0 60 -20 102l-368 -331q50 -45 139 -45q67 0 117 24t77.5 65t41 87.5t13.5 97.5z" />
    <glyph glyph-name="oslashacute" unicode="&#x1ff;" horiz-adv-x="689" 
d="M615 726l-191 -157h-137l161 157h167zM672 487l-66 -54q56 -59 56 -155q0 -56 -19.5 -107t-58 -93.5t-105.5 -67.5t-153 -25q-127 0 -205 51l-72 -59l-35 34l69 56q-56 59 -56 155q0 56 19.5 107t58 93.5t105.5 67.5t153 25q128 0 204 -50l71 58zM201 221q0 -28 8 -50
l243 199q-34 30 -94 30q-54 0 -91.5 -30t-51.5 -68.5t-14 -80.5zM488 279q0 27 -8 51l-244 -200q34 -30 95 -30q54 0 91.5 30t51.5 68.5t14 80.5z" />
    <glyph glyph-name="Scommaaccent" unicode="&#x218;" horiz-adv-x="736" 
d="M361 -20q-145 0 -243 44t-135 133l145 89q59 -131 243 -131q147 0 147 88q0 34 -22.5 49.5t-76.5 24.5l-117 18q-99 16 -156 66t-57 138q0 99 77.5 165t248.5 66q261 0 342 -150l-131 -93q-53 113 -219 113q-142 -1 -142 -82q0 -31 24.5 -48t80.5 -27l122 -20
q103 -18 155.5 -66.5t52.5 -137.5q0 -106 -80 -172.5t-259 -66.5zM265 -243l-17 51q33 7 47 17.5t18 30.5h-77l17 101h152l-15 -84q-17 -97 -125 -116z" />
    <glyph glyph-name="scommaaccent" unicode="&#x219;" horiz-adv-x="605" 
d="M288 -15q-230 0 -298 124l104 78q59 -87 214 -87q99 0 99 48q0 18 -12.5 25.5t-45.5 12.5l-124 16q-165 24 -165 142q0 78 65 124.5t197 46.5q194 0 281 -100l-99 -83q-59 72 -198 72q-92 0 -92 -42q0 -17 13 -26.5t45 -13.5l131 -18q83 -13 120.5 -47t37.5 -94
q0 -79 -64.5 -128.5t-208.5 -49.5zM198 -243l-17 51q33 7 47 17.5t18 30.5h-77l17 101h152l-15 -84q-17 -97 -125 -116z" />
    <glyph glyph-name="uni021A" unicode="&#x21a;" horiz-adv-x="687" 
d="M760 710l-25 -142h-246l-100 -568h-179l99 568h-245l25 142h671zM199 -144l17 101h152l-15 -84q-17 -97 -125 -116l-17 51q33 7 47 17.5t18 30.5h-77z" />
    <glyph glyph-name="uni021B" unicode="&#x21b;" horiz-adv-x="486" 
d="M30 388l20 112h112l21 119l182 64l-32 -183h165l-20 -112h-165l-28 -165q-10 -56 13 -77t71 -21q31 0 65 6l-23 -129q-54 -14 -115 -13q-38 0 -67.5 6t-57.5 21.5t-42 41.5t-21 66.5t5 97.5l29 166h-112zM195 -243l-17 51q33 7 47 17.5t18 30.5h-77l17 101h152l-15 -84
q-17 -97 -125 -116z" />
    <glyph glyph-name="uni0237" unicode="&#x237;" horiz-adv-x="331" 
d="M-15 -204q-57 0 -101 14l22 122q31 -9 56 -9q38 0 55.5 20.5t25.5 66.5l88 490h171l-91 -510q-17 -93 -67.5 -143.5t-158.5 -50.5z" />
    <glyph glyph-name="uni0243" unicode="&#x243;" horiz-adv-x="784" 
d="M615 362q124 -22 124 -141q0 -39 -14.5 -75.5t-45 -69t-86 -53.5t-129.5 -23l-18 -106h-66l18 106h-116l-18 -106h-66l18 106h-178l123 695h178l16 92h66l-16 -92h116l16 92h66l-16 -93q189 -14 189 -154q0 -64 -40.5 -112t-120.5 -66zM467 407q64 0 94 29t30 69
q0 72 -96 72h-184l-30 -170h186zM426 118q70 0 101.5 32t31.5 73q0 78 -101 78h-196l-32 -183h196z" />
    <glyph glyph-name="circumflex" unicode="&#x2c6;" horiz-adv-x="600" 
d="M467 569h-126l-66 105l-103 -105h-135l156 157h174z" />
    <glyph glyph-name="caron" unicode="&#x2c7;" horiz-adv-x="600" 
d="M120 721h126l66 -105l103 105h135l-156 -157h-174z" />
    <glyph glyph-name="breve" unicode="&#x2d8;" horiz-adv-x="600" 
d="M163 726q-3 -81 75 -81q75 0 91 81h111q-32 -162 -206 -162q-91 0 -139 40.5t-42 121.5h110z" />
    <glyph glyph-name="dotaccent" unicode="&#x2d9;" horiz-adv-x="600" 
d="M119 572l27 149h180l-27 -149h-180z" />
    <glyph glyph-name="ring" unicode="&#x2da;" horiz-adv-x="600" 
d="M179 551q-66 0 -105 30t-39 80q0 57 44.5 92t116.5 35q66 0 105 -30t39 -80q0 -57 -44.5 -92t-116.5 -35zM179 615q38 0 58 16.5t20 46.5q0 21 -16 33.5t-45 12.5q-38 0 -58 -16.5t-20 -46.5q0 -21 16 -33.5t45 -12.5z" />
    <glyph glyph-name="ogonek" unicode="&#x2db;" horiz-adv-x="600" 
d="M338 -119q-42 -85 -147 -85q-68 0 -104.5 23t-36.5 66q0 41 30.5 70t101.5 51l123 -6q-83 -23 -114 -44.5t-31 -49.5q0 -38 39 -38t60 42z" />
    <glyph glyph-name="tilde" unicode="&#x2dc;" horiz-adv-x="600" 
d="M385 574q-42 0 -74.5 16t-58 32t-50.5 16q-49 0 -70 -58l-79 30q46 126 149 126q38 0 70 -16t57.5 -32.5t48.5 -16.5q49 0 73 59l78 -30q-20 -60 -57.5 -93t-86.5 -33z" />
    <glyph glyph-name="hungarumlaut" unicode="&#x2dd;" horiz-adv-x="600" 
d="M75 569l143 157h129l-150 -157h-122zM270 569l143 157h128l-150 -157h-121z" />
    <glyph glyph-name="gravecomb" unicode="&#x300;" horiz-adv-x="0" 
d="M90 569h-137l-191 157h167z" />
    <glyph glyph-name="acutecomb" unicode="&#x301;" horiz-adv-x="0" 
d="M-342 569l161 157h167l-191 -157h-137z" />
    <glyph glyph-name="uni0302" unicode="&#x302;" horiz-adv-x="0" 
d="M-37 569h-126l-66 105l-103 -105h-135l156 157h174z" />
    <glyph glyph-name="tildecomb" unicode="&#x303;" horiz-adv-x="0" 
d="M-196 574q-42 0 -74.5 16t-58 32t-50.5 16q-49 0 -70 -58l-79 30q46 126 149 126q38 0 70 -16t57.5 -32.5t48.5 -16.5q49 0 73 59l78 -30q-20 -60 -57.5 -93t-86.5 -33z" />
    <glyph glyph-name="uni0304" unicode="&#x304;" horiz-adv-x="0" 
d="M-476 592l18 98h408l-18 -98h-408z" />
    <glyph glyph-name="uni0306" unicode="&#x306;" horiz-adv-x="0" 
d="M-329 726q-3 -81 75 -81q75 0 91 81h111q-32 -162 -206 -162q-91 0 -139 40.5t-42 121.5h110z" />
    <glyph glyph-name="uni0307" unicode="&#x307;" horiz-adv-x="0" 
d="M-187 572l27 149h180l-27 -149h-180z" />
    <glyph glyph-name="uni0308" unicode="&#x308;" horiz-adv-x="0" 
d="M-490 575l24 137h155l-24 -137h-155zM-224 575l24 137h155l-23 -137h-156z" />
    <glyph glyph-name="uni030A" unicode="&#x30a;" horiz-adv-x="0" 
d="M-195 551q-66 0 -105 30t-39 80q0 57 44.5 92t116.5 35q66 0 105 -30t39 -80q0 -57 -44.5 -92t-116.5 -35zM-195 615q38 0 58 16.5t20 46.5q0 21 -16 33.5t-45 12.5q-38 0 -58 -16.5t-20 -46.5q0 -21 16 -33.5t45 -12.5z" />
    <glyph glyph-name="uni030B" unicode="&#x30b;" horiz-adv-x="0" 
d="M-526 569l143 157h129l-150 -157h-122zM-331 569l143 157h128l-150 -157h-121z" />
    <glyph glyph-name="uni030C" unicode="&#x30c;" horiz-adv-x="0" 
d="M-384 721h126l66 -105l103 105h135l-156 -157h-174z" />
    <glyph glyph-name="uni0312" unicode="&#x312;" horiz-adv-x="0" 
d="M11 769l17 -51q-33 -7 -47 -17.5t-18 -30.5h77l-17 -101h-152l15 84q17 97 125 116z" />
    <glyph glyph-name="uni0326" unicode="&#x326;" horiz-adv-x="0" 
d="M-190 -243l-17 51q33 7 47 17.5t18 30.5h-77l17 101h152l-15 -84q-17 -97 -125 -116z" />
    <glyph glyph-name="uni0327" unicode="&#x327;" horiz-adv-x="0" 
d="M-241 6h79l-48 -56q21 15 60 15q98 0 98 -71q0 -57 -42.5 -84.5t-111.5 -27.5q-113 0 -140 61l92 25q10 -25 48 -25q50 0 50 42q0 30 -41 30q-27 0 -42 -16l-69 16z" />
    <glyph glyph-name="uni0328" unicode="&#x328;" horiz-adv-x="0" 
d="M-58 -119q-42 -85 -147 -85q-68 0 -104.5 23t-36.5 66q0 41 30.5 70t101.5 51l123 -6q-83 -23 -114 -44.5t-31 -49.5q0 -38 39 -38t60 42z" />
    <glyph glyph-name="uni0394" unicode="&#x394;" horiz-adv-x="802" 
d="M-30 0l423 707h179l172 -707h-774zM453 543l-244 -416h337z" />
    <glyph glyph-name="uni03A9" unicode="&#x3a9;" horiz-adv-x="871" 
d="M741 0h-294l29 268q87 12 133.5 63t46.5 128q0 63 -42 99.5t-118 36.5q-99 0 -159 -54t-60 -141q0 -115 124 -132l-66 -268h-293l23 134h171l14 50q-71 22 -109.5 74.5t-38.5 128.5q0 151 117.5 245.5t299.5 94.5q145 0 229.5 -67.5t84.5 -181.5q0 -108 -62.5 -185.5
t-172.5 -108.5l-4 -50h170z" />
    <glyph glyph-name="uni03BC" unicode="&#x3bc;" horiz-adv-x="730" 
d="M528 500h171l-88 -500h-165l18 102q-60 -117 -209 -117q-39 0 -71 8l-33 -188h-155l76 431q1 4 2.5 13.5t2.5 14.5l42 236h171l-40 -224q-9 -65 -9 -76q0 -89 94 -89q74 0 106.5 42t46.5 121z" />
    <glyph glyph-name="pi" unicode="&#x3c0;" horiz-adv-x="852" 
d="M741 4q-53 -12 -93 -12q-94 0 -125.5 39.5t-18.5 118.5l43 239h-190l-69 -389h-169l68 389h-97l20 111h719l-19 -111h-94l-40 -225q-8 -53 45 -53l40 4z" />
    <glyph glyph-name="uni0E3F" unicode="&#xe3f;" horiz-adv-x="784" 
d="M615 362q124 -22 124 -141q0 -40 -15.5 -77t-47.5 -70.5t-90.5 -53.5t-136.5 -20h-69l-19 -106h-63l19 106h-279l123 695h279l16 92h63l-16 -92h46q43 0 79.5 -7t71.5 -23t55.5 -48t20.5 -77q0 -64 -40.5 -112t-120.5 -66zM419 579h-118l-30 -174h117zM477 405
q66 0 96 29.5t30 70.5q0 74 -99 74h-22l-31 -174h26zM220 115h117l33 188h-117zM436 115q71 0 102.5 33t31.5 75q0 80 -102 80h-35l-33 -188h36z" />
    <glyph glyph-name="Wgrave" unicode="&#x1e80;" horiz-adv-x="1125" 
d="M733 756h-138l-164 118h160zM176 0l-76 710h179l32 -461q2 -36 -1 -63h3q6 23 24 63l212 461h183l50 -461q3 -38 1 -63h3q8 32 22 63l194 461h186l-327 -710h-200l-45 473q-2 24 1 57h-4q-9 -33 -20 -57l-211 -473h-206z" />
    <glyph glyph-name="wgrave" unicode="&#x1e81;" horiz-adv-x="930" 
d="M595 569h-137l-191 157h167zM135 0l-77 500h162l30 -309q2 -29 1 -49h2q4 13 19 49l155 309h158l44 -309q3 -36 2 -49h2q7 27 17 49l141 309h169l-253 -500h-172l-47 293q-5 26 -2 50h-3q-6 -19 -19 -48l-152 -295h-177z" />
    <glyph glyph-name="Wacute" unicode="&#x1e82;" horiz-adv-x="1125" 
d="M583 756l142 118h160l-164 -118h-138zM176 0l-76 710h179l32 -461q2 -36 -1 -63h3q6 23 24 63l212 461h183l50 -461q3 -38 1 -63h3q8 32 22 63l194 461h186l-327 -710h-200l-45 473q-2 24 1 57h-4q-9 -33 -20 -57l-211 -473h-206z" />
    <glyph glyph-name="wacute" unicode="&#x1e83;" horiz-adv-x="930" 
d="M448 569l161 157h167l-191 -157h-137zM135 0l-77 500h162l30 -309q2 -29 1 -49h2q4 13 19 49l155 309h158l44 -309q3 -36 2 -49h2q7 27 17 49l141 309h169l-253 -500h-172l-47 293q-5 26 -2 50h-3q-6 -19 -19 -48l-152 -295h-177z" />
    <glyph glyph-name="Wdieresis" unicode="&#x1e84;" horiz-adv-x="1125" 
d="M443 756l21 117h150l-20 -117h-151zM711 756l21 117h151l-21 -117h-151zM176 0l-76 710h179l32 -461q2 -36 -1 -63h3q6 23 24 63l212 461h183l50 -461q3 -38 1 -63h3q8 32 22 63l194 461h186l-327 -710h-200l-45 473q-2 24 1 57h-4q-9 -33 -20 -57l-211 -473h-206z" />
    <glyph glyph-name="wdieresis" unicode="&#x1e85;" horiz-adv-x="930" 
d="M309 575l24 137h155l-24 -137h-155zM575 575l24 137h155l-23 -137h-156zM135 0l-77 500h162l30 -309q2 -29 1 -49h2q4 13 19 49l155 309h158l44 -309q3 -36 2 -49h2q7 27 17 49l141 309h169l-253 -500h-172l-47 293q-5 26 -2 50h-3q-6 -19 -19 -48l-152 -295h-177z" />
    <glyph glyph-name="Ygrave" unicode="&#x1ef2;" horiz-adv-x="745" 
d="M544 756h-138l-164 118h160zM238 0l43 249l-205 461h188l113 -275q11 -30 11 -47h2q9 22 28 47l213 275h200l-369 -461l-44 -249h-180z" />
    <glyph glyph-name="ygrave" unicode="&#x1ef3;" horiz-adv-x="634" 
d="M455 569h-137l-191 157h167zM77 -205q-62 0 -116 17l22 125q40 -14 91 -14q74 0 110 60l9 18l-149 499h183l67 -306q6 -40 6 -57h3q10 27 24 56l168 307h183l-326 -539q-61 -102 -123 -134t-152 -32z" />
    <glyph glyph-name="uni2002" unicode="&#x2002;" horiz-adv-x="500" 
 />
    <glyph glyph-name="uni2003" unicode="&#x2003;" horiz-adv-x="1000" 
 />
    <glyph glyph-name="uni2004" unicode="&#x2004;" horiz-adv-x="0" 
 />
    <glyph glyph-name="uni2005" unicode="&#x2005;" horiz-adv-x="250" 
 />
    <glyph glyph-name="uni2009" unicode="&#x2009;" horiz-adv-x="135" 
 />
    <glyph glyph-name="uni200A" unicode="&#x200a;" horiz-adv-x="75" 
 />
    <glyph glyph-name="endash" unicode="&#x2013;" horiz-adv-x="702" 
d="M62 343h611l-23 -131h-611z" />
    <glyph glyph-name="emdash" unicode="&#x2014;" horiz-adv-x="952" 
d="M62 344h861l-23 -133h-861z" />
    <glyph glyph-name="quoteleft" unicode="&#x2018;" horiz-adv-x="306" 
d="M292 736l15 -69q-81 -13 -93 -79l-2 -10h90l-30 -170h-181l30 171q8 43 27.5 74t46.5 47.5t50 24.5t47 11z" />
    <glyph glyph-name="quoteright" unicode="&#x2019;" horiz-adv-x="306" 
d="M123 382l-15 69q81 13 93 79l2 10h-90l30 170h181l-30 -171q-8 -43 -27.5 -74t-46.5 -47.5t-50 -24.5t-47 -11z" />
    <glyph glyph-name="quotesinglbase" unicode="&#x201a;" horiz-adv-x="306" 
d="M28 -158l-15 69q81 13 93 79l2 10h-90l30 170h181l-30 -171q-8 -43 -27.5 -74t-46.5 -47.5t-50 -24.5t-47 -11z" />
    <glyph glyph-name="quotedblleft" unicode="&#x201c;" horiz-adv-x="540" 
d="M292 736l15 -69q-81 -13 -93 -79l-2 -10h90l-30 -170h-181l30 171q8 43 27.5 74t46.5 47.5t50 24.5t47 11zM525 736l15 -69q-81 -13 -93 -79l-2 -10h90l-30 -170h-181l30 171q8 43 27.5 74t46.5 47.5t50 24.5t47 11z" />
    <glyph glyph-name="quotedblright" unicode="&#x201d;" horiz-adv-x="539" 
d="M124 383l-15 69q81 13 93 79l2 10h-90l30 170h181l-30 -171q-8 -43 -27.5 -74t-46.5 -47.5t-50 -24.5t-47 -11zM357 383l-15 69q81 13 93 79l2 10h-90l30 170h181l-30 -171q-8 -43 -27.5 -74t-46.5 -47.5t-50 -24.5t-47 -11z" />
    <glyph glyph-name="quotedblbase" unicode="&#x201e;" horiz-adv-x="539" 
d="M29 -157l-15 69q81 13 93 79l2 10h-90l30 170h181l-30 -171q-8 -43 -27.5 -74t-46.5 -47.5t-50 -24.5t-47 -11zM262 -157l-15 69q81 13 93 79l2 10h-90l30 170h181l-30 -171q-8 -43 -27.5 -74t-46.5 -47.5t-50 -24.5t-47 -11z" />
    <glyph glyph-name="dagger" unicode="&#x2020;" horiz-adv-x="563" 
d="M561 500l-18 -98h-176l-87 -492h-118l87 492h-176l17 98h176l39 220h118l-39 -220h177z" />
    <glyph glyph-name="daggerdbl" unicode="&#x2021;" horiz-adv-x="563" 
d="M543 402h-176l-31 -172h177l-17 -97h-177l-39 -223h-118l39 223h-175l17 97h175l31 172h-176l17 98h176l39 220h118l-39 -220h177z" />
    <glyph glyph-name="bullet" unicode="&#x2022;" horiz-adv-x="389" 
d="M210 212q-56 0 -92.5 35.5t-36.5 91.5q0 57 36.5 93t92.5 36q57 0 93.5 -35.5t36.5 -93.5q0 -57 -36.5 -92t-93.5 -35z" />
    <glyph glyph-name="ellipsis" unicode="&#x2026;" horiz-adv-x="949" 
d="M232 160l-29 -160h-185l29 160h185zM552 160l-29 -160h-185l29 160h185zM871 160l-29 -160h-185l29 160h185z" />
    <glyph glyph-name="perthousand" unicode="&#x2030;" horiz-adv-x="1535" 
d="M132 -16l707 740h121l-707 -740h-121zM274 336q-39 0 -74 8t-67 26.5t-51 52.5t-19 81q0 40 14 77t42 68.5t75.5 50t108.5 18.5q39 0 74.5 -8.5t67 -26.5t50.5 -52.5t19 -80.5q0 -86 -61 -150t-179 -64zM276 429q54 0 82 36t28 81q0 42 -25 60.5t-60 18.5
q-54 0 -82 -35.5t-28 -80.5q0 -43 25 -61.5t60 -18.5zM786 -17q-39 0 -74 8t-67 26.5t-51 52.5t-19 81q0 40 14 77t42 68.5t75.5 50t108.5 18.5q39 0 74.5 -8.5t67 -26.5t50.5 -52.5t19 -80.5q0 -86 -61 -150t-179 -64zM1267 -17q-39 0 -74 8t-67 26.5t-51 52.5t-19 81
q0 40 14 77t42 68.5t75.5 50t108.5 18.5q39 0 74.5 -8.5t67 -26.5t50.5 -52.5t19 -80.5q0 -86 -61 -150t-179 -64zM788 76q54 0 82 36t28 81q0 42 -25 60.5t-60 18.5q-54 0 -82 -35.5t-28 -80.5q0 -43 25 -61.5t60 -18.5zM1269 76q54 0 82 36t28 81q0 42 -25 60.5t-60 18.5
q-54 0 -82 -35.5t-28 -80.5q0 -43 25 -61.5t60 -18.5z" />
    <glyph glyph-name="guilsinglleft" unicode="&#x2039;" horiz-adv-x="397" 
d="M183 67l-158 209l235 206h161l-239 -211l155 -204h-154z" />
    <glyph glyph-name="guilsinglright" unicode="&#x203a;" horiz-adv-x="397" 
d="M223 482l158 -209l-235 -206h-161l239 211l-155 204h154z" />
    <glyph glyph-name="fraction" unicode="&#x2044;" horiz-adv-x="229" 
d="M-246 -17l635 744h123l-634 -744h-124z" />
    <glyph glyph-name="uni20A9" unicode="&#x20a9;" horiz-adv-x="1121" 
d="M1171 695l-112 -244h76l-10 -60h-93l-33 -73h113l-11 -61h-130l-118 -257h-188l-21 257h-165l-112 -257h-188l-27 257h-130l11 61h113l-8 73h-93l11 60h76l-26 244h151l13 -244h170l109 244h168l23 -244h169l98 244h164zM574 474l-10 -23h64l-2 23q-6 57 -1 128h-4
q-19 -67 -47 -128zM273 391l4 -73h103l33 73h-140zM506 318h133l-6 73h-95zM856 318l29 73h-140l7 -73h104zM334 214l19 43h-73l2 -41q5 -68 0 -122h4q13 47 48 120zM815 216l16 41h-73l4 -43q9 -77 7 -120h3q17 58 43 122z" />
    <glyph glyph-name="Euro" unicode="&#x20ac;" horiz-adv-x="820" 
d="M506 581q-104 0 -160.5 -52.5t-75.5 -132.5h304l-11 -66h-1l-5 -28h-296q6 -188 187 -188q126 0 184 104l155 -49q-117 -188 -348 -188q-54 0 -102 9t-96 31.5t-82.5 58t-56 92.5t-21.5 130h-67l11 66h1l5 28h59q13 64 43 119t79.5 100.5t125 71.5t170.5 26
q55 0 105.5 -9t98.5 -28.5t83 -56.5t49 -88v-1l-172 -46q-36 97 -166 97z" />
    <glyph glyph-name="uni20B9" unicode="&#x20b9;" horiz-adv-x="783" 
d="M742 594h-210q30 -37 34 -94h160l-12 -65h-151q-14 -74 -76.5 -125.5t-193.5 -58.5h-15l203 -251h-200l-212 268l13 75h130q145 0 168 92h-281l11 65h274q-11 94 -116 94h-141l18 101h615z" />
    <glyph glyph-name="uni20BA" unicode="&#x20ba;" horiz-adv-x="686" 
d="M535 257l147 -22q-32 -105 -116.5 -170t-226.5 -65h-273l47 263l-94 -22l12 68l94 22l13 76l-93 -22l11 68l94 22l39 220h174l-32 -178l264 62l-12 -68l-264 -62l-13 -76l263 62l-11 -68l-264 -62l-32 -178h78q151 0 195 130z" />
    <glyph glyph-name="uni20BD" unicode="&#x20bd;" horiz-adv-x="764" 
d="M477 252h-175l-13 -72h193l-12 -66h-192l-20 -114h-175l20 114h-100l11 66h101l12 72h-100l20 114h100l58 329h311q41 0 76.5 -5t72.5 -18.5t63.5 -35t43 -58t16.5 -84.5q0 -47 -16 -88t-50 -76.5t-97 -56.5t-148 -21zM358 573l-36 -207h126q82 0 116 34.5t34 83.5
q0 51 -30.5 70t-82.5 19h-127z" />
    <glyph glyph-name="uni2105" unicode="&#x2105;" horiz-adv-x="1007" 
d="M73 -13l748 746h141l-747 -746h-142zM265 349q-38 0 -72 8t-65 26.5t-49 53.5t-18 83q0 38 12 73t38 67.5t74.5 52t113.5 19.5q81 0 137 -32.5t63 -101.5l-131 -25q-2 31 -22 46t-51 15q-49 0 -74.5 -32.5t-25.5 -75.5q0 -40 21 -59t55 -19q67 0 86 64l123 -25
q-18 -62 -72 -100t-143 -38zM746 -10q-37 0 -70.5 8t-65 25.5t-50 52t-18.5 82.5q0 87 61 151t178 64q38 0 72 -8t65 -26t49.5 -52.5t18.5 -82.5q0 -87 -61 -150.5t-179 -63.5zM751 87q47 0 73 37t26 82q0 38 -21 54t-51 16q-48 0 -74.5 -37t-26.5 -82q0 -38 22 -54t52 -16z
" />
    <glyph glyph-name="uni2113" unicode="&#x2113;" horiz-adv-x="605" 
d="M645 566q0 -225 -342 -356q-1 -52 26 -74t88 -22q37 0 85 10l-21 -124q-60 -15 -126 -15q-120 0 -173.5 42.5t-52.5 128.5q-51 -14 -103 -24l-15 116q100 25 135 35l40 225q19 111 85.5 170t179.5 59q95 0 144.5 -43.5t49.5 -127.5zM358 541l-35 -197q80 38 120 88
t40 122q0 71 -48 71q-62 0 -77 -84z" />
    <glyph glyph-name="uni2116" unicode="&#x2116;" horiz-adv-x="1459" 
d="M38 0l125 710h192l221 -408q26 -49 38 -88h3q15 88 16 97l71 399h164l-125 -710h-181l-231 415q-27 51 -39 84h-3l-16 -98l-71 -401h-164zM1144 185q-49 0 -92 10.5t-82.5 33t-62.5 64.5t-23 100q0 107 74.5 186t221.5 79q49 0 92 -10.5t82.5 -33t63 -64.5t23.5 -100
q0 -50 -17 -95.5t-51 -84.5t-93 -62t-136 -23zM1147 297q73 0 107.5 45t34.5 103q0 55 -32.5 78t-78.5 23q-73 0 -108 -45t-35 -103q0 -55 32.5 -78t79.5 -23zM815 0l20 109h545l-19 -109h-546z" />
    <glyph glyph-name="trademark" unicode="&#x2122;" horiz-adv-x="995" 
d="M156 306l56 319h-141l16 87h396l-16 -87h-146l-57 -319h-108zM456 306l72 406h152l35 -231q7 -41 5 -74h2q15 43 31 74l117 231h156l-72 -406h-97l42 234q7 43 18 88h-2q-13 -28 -34 -74l-128 -248h-95l-40 248q-7 43 -9 74h-1q-5 -37 -14 -88l-41 -234h-97z" />
    <glyph glyph-name="uni2126" unicode="&#x2126;" horiz-adv-x="871" 
d="M741 0h-294l29 268q87 12 133.5 63t46.5 128q0 63 -42 99.5t-118 36.5q-99 0 -159 -54t-60 -141q0 -115 124 -132l-66 -268h-293l23 134h171l14 50q-71 22 -109.5 74.5t-38.5 128.5q0 151 117.5 245.5t299.5 94.5q145 0 229.5 -67.5t84.5 -181.5q0 -108 -62.5 -185.5
t-172.5 -108.5l-4 -50h170z" />
    <glyph glyph-name="estimated" unicode="&#x212e;" horiz-adv-x="802" 
d="M374 -16q-148 0 -242 74t-94 225q0 104 39 188.5t104 137.5t146.5 81.5t169.5 28.5q166 0 248 -91t56 -242l-7 -40h-543l-42 -239q64 -49 178 -49q94 0 165 30t137 99l49 -44q-139 -159 -364 -159zM263 413h352l33 191q-57 47 -167 47q-104 0 -184 -51z" />
    <glyph glyph-name="uni2153" unicode="&#x2153;" horiz-adv-x="976" 
d="M59 -17l635 744h123l-634 -744h-124zM140 318l46 254q-20 -18 -75 -18h-33l15 93h20q82 0 113 63h88l-68 -392h-106zM736 -11q-38 0 -70.5 6t-62.5 20.5t-48 41.5t-19 65l110 10q9 -63 88 -63q73 0 73 49q0 46 -77 46h-30l12 70h42q72 0 72 48q0 42 -69 42q-76 0 -86 -68
l-103 14q7 61 56 97t135 36q180 0 180 -105q0 -42 -31 -68.5t-78 -31.5q89 -15 89 -83q0 -52 -46.5 -89t-136.5 -37z" />
    <glyph glyph-name="uni2154" unicode="&#x2154;" horiz-adv-x="1108" 
d="M191 -17l635 744h123l-634 -744h-124zM41 318l13 77q50 19 76.5 29.5t66 28t60.5 31t43 30.5t31.5 35t9.5 38q0 52 -67 52q-43 0 -62.5 -23.5t-13.5 -62.5l-108 12q-6 74 45.5 115t146.5 41q45 0 81.5 -9.5t65 -37.5t28.5 -73q0 -113 -223 -198h191l-13 -85h-371z
M868 -11q-38 0 -70.5 6t-62.5 20.5t-48 41.5t-19 65l110 10q9 -63 88 -63q73 0 73 49q0 46 -77 46h-30l12 70h42q72 0 72 48q0 42 -69 42q-76 0 -86 -68l-103 14q7 61 56 97t135 36q180 0 180 -105q0 -42 -31 -68.5t-78 -31.5q89 -15 89 -83q0 -52 -46.5 -89t-136.5 -37z
" />
    <glyph glyph-name="oneeighth" unicode="&#x215b;" horiz-adv-x="990" 
d="M694 727h123l-634 -744h-124zM186 572q-20 -18 -75 -18h-33l15 93h20q82 0 113 63h88l-68 -392h-106zM856 215q81 -29 81 -95q0 -56 -49 -93.5t-154 -37.5q-50 0 -92.5 10.5t-73.5 36.5t-31 65q0 78 108 96q-61 31 -61 87q0 48 43.5 83.5t138.5 35.5q46 0 86 -9
t70.5 -33.5t30.5 -60.5q0 -68 -97 -85zM765 333q-73 0 -73 -45q0 -33 61 -46l45 -11q46 16 46 52q0 50 -79 50zM740 64q45 0 65.5 14.5t20.5 36.5q0 35 -67 51l-54 12q-54 -17 -54 -59q0 -55 89 -55z" />
    <glyph glyph-name="threeeighths" unicode="&#x215c;" horiz-adv-x="1127" 
d="M831 727h123l-634 -744h-124zM441 433q0 -52 -46.5 -89t-136.5 -37q-38 0 -70.5 6t-62.5 20.5t-48 41.5t-19 65l110 10q9 -63 88 -63q73 0 73 49q0 46 -77 46h-30l12 70h42q72 0 72 48q0 42 -69 42q-76 0 -86 -68l-103 14q7 61 56 97t135 36q180 0 180 -105
q0 -42 -31 -68.5t-78 -31.5q89 -15 89 -83zM993 215q81 -29 81 -95q0 -56 -49 -93.5t-154 -37.5q-50 0 -92.5 10.5t-73.5 36.5t-31 65q0 78 108 96q-61 31 -61 87q0 48 43.5 83.5t138.5 35.5q46 0 86 -9t70.5 -33.5t30.5 -60.5q0 -68 -97 -85zM902 333q-73 0 -73 -45
q0 -33 61 -46l45 -11q46 16 46 52q0 50 -79 50zM877 64q45 0 65.5 14.5t20.5 36.5q0 35 -67 51l-54 12q-54 -17 -54 -59q0 -55 89 -55z" />
    <glyph glyph-name="fiveeighths" unicode="&#x215d;" horiz-adv-x="1121" 
d="M825 727h123l-634 -744h-124zM440 467q0 -65 -46 -112.5t-147 -47.5q-70 0 -124 26t-62 88l108 15q12 -49 78 -49q83 0 83 69q0 59 -70 59q-54 0 -81 -42l-96 9l67 228h307l-13 -79h-234l-26 -84q36 42 112 42q25 0 47.5 -5t45.5 -17.5t37 -38t14 -61.5zM987 215
q81 -29 81 -95q0 -56 -49 -93.5t-154 -37.5q-50 0 -92.5 10.5t-73.5 36.5t-31 65q0 78 108 96q-61 31 -61 87q0 48 43.5 83.5t138.5 35.5q46 0 86 -9t70.5 -33.5t30.5 -60.5q0 -68 -97 -85zM896 333q-73 0 -73 -45q0 -33 61 -46l45 -11q46 16 46 52q0 50 -79 50zM871 64
q45 0 65.5 14.5t20.5 36.5q0 35 -67 51l-54 12q-54 -17 -54 -59q0 -55 89 -55z" />
    <glyph glyph-name="seveneighths" unicode="&#x215e;" horiz-adv-x="1015" 
d="M719 727h123l-634 -744h-124zM106 330q12 82 67 158.5t149 134.5h-238l15 87h349l-14 -79q-185 -112 -209 -292l-3 -21h-118zM881 215q81 -29 81 -95q0 -56 -49 -93.5t-154 -37.5q-50 0 -92.5 10.5t-73.5 36.5t-31 65q0 78 108 96q-61 31 -61 87q0 48 43.5 83.5
t138.5 35.5q46 0 86 -9t70.5 -33.5t30.5 -60.5q0 -68 -97 -85zM790 333q-73 0 -73 -45q0 -33 61 -46l45 -11q46 16 46 52q0 50 -79 50zM765 64q45 0 65.5 14.5t20.5 36.5q0 35 -67 51l-54 12q-54 -17 -54 -59q0 -55 89 -55z" />
    <glyph glyph-name="arrowleft" unicode="&#x2190;" horiz-adv-x="1116" 
d="M1041 287h-753l-19 -107l-173 150l226 150l-19 -107h753z" />
    <glyph glyph-name="arrowup" unicode="&#x2191;" horiz-adv-x="463" 
d="M135 -35l103 586h-104l185 199l115 -199h-104l-103 -586h-92z" />
    <glyph glyph-name="arrowright" unicode="&#x2192;" horiz-adv-x="1116" 
d="M103 373h753l19 107l173 -150l-226 -150l19 107h-753z" />
    <glyph glyph-name="arrowdown" unicode="&#x2193;" horiz-adv-x="463" 
d="M365 745l-103 -586h104l-185 -199l-115 199h104l103 586h92z" />
    <glyph glyph-name="arrowboth" unicode="&#x2194;" horiz-adv-x="1074" 
d="M800 287h-512l-19 -107l-173 150l226 150l-19 -107h512l19 107l173 -150l-226 -150z" />
    <glyph glyph-name="arrowupdn" unicode="&#x2195;" horiz-adv-x="463" 
d="M66 160h104l69 391h-104l184 199l115 -199h-103l-69 -391h104l-185 -199z" />
    <glyph glyph-name="uni2196" unicode="&#x2196;" horiz-adv-x="893" 
d="M228 553l-110 -100l45 257h243l-104 -92l473 -574l-73 -66z" />
    <glyph glyph-name="uni2197" unicode="&#x2197;" horiz-adv-x="749" 
d="M593 554l-474 -575l-73 66l473 574l-104 92h243l45 -257z" />
    <glyph glyph-name="uni2198" unicode="&#x2198;" horiz-adv-x="893" 
d="M704 168l110 100l-45 -257h-243l104 92l-473 574l73 66z" />
    <glyph glyph-name="uni2199" unicode="&#x2199;" horiz-adv-x="748" 
d="M195 168l474 575l73 -66l-473 -574l104 -92h-243l-45 257z" />
    <glyph glyph-name="uni21A9" unicode="&#x21a9;" horiz-adv-x="1088" 
d="M269 180l-173 150l226 150l-19 -107h469q88 0 134 37.5t46 104.5q0 98 -138 98h-313l15 86h320q105 0 160 -43.5t55 -124.5q0 -113 -77 -178.5t-218 -65.5h-468z" />
    <glyph glyph-name="uni21AA" unicode="&#x21aa;" horiz-adv-x="1087" 
d="M794 180l19 107h-469q-108 0 -164.5 44.5t-56.5 126.5q0 113 75 177t211 64h321l-15 -86h-314q-88 0 -134 -36.5t-46 -103.5q0 -48 35 -74t103 -26h469l19 107l173 -150z" />
    <glyph glyph-name="uni21B0" unicode="&#x21b0;" horiz-adv-x="993" 
d="M775 0l98 557h-538l-19 -107l-172 150l225 150l-19 -107h631l-114 -643h-92z" />
    <glyph glyph-name="uni21B1" unicode="&#x21b1;" horiz-adv-x="993" 
d="M130 0h-92l113 643h631l18 107l173 -150l-226 -150l19 107h-538z" />
    <glyph glyph-name="uni21B2" unicode="&#x21b2;" horiz-adv-x="993" 
d="M900 710h92l-113 -643h-630l-19 -107l-173 150l226 150l-19 -107h538z" />
    <glyph glyph-name="uni21B3" unicode="&#x21b3;" horiz-adv-x="993" 
d="M255 710l-98 -557h538l19 107l172 -150l-225 -150l19 107h-631l114 643h92z" />
    <glyph glyph-name="uni21B4" unicode="&#x21b4;" horiz-adv-x="1084" 
d="M983 726l-98 -557h103l-185 -199l-114 199h104l83 471h-725l15 86h817z" />
    <glyph glyph-name="uni21BB" unicode="&#x21bb;" horiz-adv-x="1108" 
d="M751 387h104q9 118 -70 189.5t-210 71.5q-158 0 -270 -95.5t-112 -243.5q0 -113 77 -182t201 -69q157 0 278 102l47 -68q-150 -122 -340 -122q-160 0 -260 90.5t-100 235.5q0 124 68 226t181 158t245 56q172 0 272.5 -97t84.5 -252h103l-185 -199z" />
    <glyph glyph-name="uni21C4" unicode="&#x21c4;" horiz-adv-x="1163" 
d="M1032 407h-723l-19 -107l-173 150l225 150l-18 -107h724zM882 252l19 107l173 -150l-226 -149l19 106h-723l16 86h722z" />
    <glyph glyph-name="uni21C5" unicode="&#x21c5;" horiz-adv-x="721" 
d="M402 15l95 538h-104l185 199l115 -199h-104l-95 -538h-92zM180 -40l-114 199h104l95 542h92l-95 -542h104z" />
    <glyph glyph-name="partialdiff" unicode="&#x2202;" horiz-adv-x="731" 
d="M403 721q150 0 228 -78.5t78 -231.5q0 -189 -109.5 -308.5t-298.5 -119.5q-127 0 -196 55t-69 155q0 116 87 191.5t227 75.5q127 0 191 -63q0 94 -39 141t-133 47q-70 0 -148 -32l-38 120q105 48 220 48zM329 102q71 0 123 47t74 129q-48 65 -152 65q-77 0 -121 -37.5
t-44 -97.5q0 -49 31 -77.5t89 -28.5z" />
    <glyph glyph-name="emptyset" unicode="&#x2205;" horiz-adv-x="601" 
d="M620 518l-85 -69q37 -50 37 -125q0 -49 -15.5 -93.5t-46.5 -82t-85 -59.5t-123 -22q-109 0 -177 51l-86 -70l-39 44l84 67q-36 51 -36 123q0 66 26.5 122.5t89.5 95.5t155 39q105 0 174 -49l89 72zM173 292q0 -29 11 -51l208 168q-32 16 -73 16q-75 0 -110.5 -40.5
t-35.5 -92.5zM448 314q0 31 -13 54l-209 -169q30 -18 75 -18q76 0 111.5 40.5t35.5 92.5z" />
    <glyph glyph-name="uni2206" unicode="&#x2206;" horiz-adv-x="802" 
d="M-30 0l423 707h179l172 -707h-774zM453 543l-244 -416h337z" />
    <glyph glyph-name="product" unicode="&#x220f;" horiz-adv-x="795" 
d="M492 -88l115 653h-308l-116 -653h-164l140 793h637l-140 -793h-164z" />
    <glyph glyph-name="summation" unicode="&#x2211;" horiz-adv-x="822" 
d="M52 -88l23 129l343 285l-235 251l22 128h572l-22 -129h-370l231 -249l-349 -286h405l-23 -129h-597z" />
    <glyph glyph-name="minus" unicode="&#x2212;" horiz-adv-x="620" 
d="M49 273l20 111h530l-20 -111h-530z" />
    <glyph glyph-name="radical" unicode="&#x221a;" horiz-adv-x="640" 
d="M10 363h194l43 -285l329 656h159l-434 -828h-166l-60 325h-88z" />
    <glyph glyph-name="infinity" unicode="&#x221e;" horiz-adv-x="707" 
d="M552 494q64 0 101.5 -38t37.5 -106q0 -29 -9.5 -59t-29.5 -60.5t-59 -49.5t-92 -19q-99 0 -150 83q-78 -83 -169 -83q-63 0 -101 38.5t-38 104.5q0 30 10.5 61t31.5 60.5t60 48.5t89 19q98 0 149 -83q80 83 169 83zM211 261q48 0 102 66q-31 68 -81 68q-32 0 -54.5 -21.5
t-22.5 -56.5q0 -28 15 -42t41 -14zM502 261q33 0 55.5 21.5t22.5 56.5q0 27 -15.5 41.5t-40.5 14.5q-28 0 -51.5 -16.5t-51.5 -49.5q31 -68 81 -68z" />
    <glyph glyph-name="integral" unicode="&#x222b;" horiz-adv-x="497" 
d="M24 -115q-34 0 -72 6l22 121q27 -3 54 -3q50 0 77.5 25.5t37.5 85.5l67 378q19 107 90 164t186 57q32 0 76 -6l-21 -122q-23 4 -54 4q-50 0 -78 -26.5t-38 -85.5l-67 -380q-19 -106 -91 -162t-189 -56z" />
    <glyph glyph-name="approxequal" unicode="&#x2248;" horiz-adv-x="745" 
d="M545 345q-46 0 -128 31.5t-118 31.5q-81 0 -144 -48l19 112q27 20 67 33t76 13q55 0 132.5 -32t113.5 -32q83 0 143 48l-20 -111q-24 -20 -63.5 -33t-77.5 -13zM511 150q-45 0 -127 32t-119 32q-82 0 -144 -48l20 111q26 20 66 33.5t77 13.5q54 0 131.5 -32t113.5 -32
q82 0 142 48l-19 -112q-24 -20 -64 -33t-77 -13z" />
    <glyph glyph-name="notequal" unicode="&#x2260;" horiz-adv-x="750" 
d="M658 372h-198l-54 -86h238l-20 -106h-284l-73 -117h-85l73 117h-154l19 106h201l54 86h-240l19 106h287l70 113h85l-70 -113h152z" />
    <glyph glyph-name="lessequal" unicode="&#x2264;" horiz-adv-x="752" 
d="M603 137l-476 200l19 110l547 200l-22 -128l-394 -133l347 -133zM94 104h509l-18 -104h-509z" />
    <glyph glyph-name="greaterequal" unicode="&#x2265;" horiz-adv-x="752" 
d="M199 647l476 -200l-19 -110l-547 -200l22 128l394 133l-347 133zM95 104h510l-18 -104h-510z" />
    <glyph glyph-name="uni2460" unicode="&#x2460;" horiz-adv-x="870" 
d="M440 -21q-69 0 -135 18.5t-126 57t-97 108.5t-37 162q0 55 12.5 109t43.5 108.5t77.5 95.5t121.5 67t168 26q69 0 134.5 -18.5t125.5 -57t97 -108.5t37 -162q0 -55 -12.5 -109t-43.5 -108.5t-77.5 -95.5t-121 -67t-167.5 -26zM437 38q79 0 142.5 22.5t102.5 58t65.5 82.5
t36.5 92t10 90q0 73 -29.5 131t-77.5 91t-103.5 50t-113.5 17q-79 0 -142.5 -22.5t-102.5 -58t-65.5 -82.5t-36.5 -92t-10 -90q0 -73 29.5 -131t77.5 -91t103.5 -50t113.5 -17zM386 158l46 254q-20 -18 -75 -18h-33l15 93h20q82 0 113 63h88l-68 -392h-106z" />
    <glyph glyph-name="uni2461" unicode="&#x2461;" horiz-adv-x="870" 
d="M440 -21q-69 0 -135 18.5t-126 57t-97 108.5t-37 162q0 55 12.5 109t43.5 108.5t77.5 95.5t121.5 67t168 26q69 0 134.5 -18.5t125.5 -57t97 -108.5t37 -162q0 -55 -12.5 -109t-43.5 -108.5t-77.5 -95.5t-121 -67t-167.5 -26zM437 38q79 0 142.5 22.5t102.5 58t65.5 82.5
t36.5 92t10 90q0 73 -29.5 131t-77.5 91t-103.5 50t-113.5 17q-79 0 -142.5 -22.5t-102.5 -58t-65.5 -82.5t-36.5 -92t-10 -90q0 -73 29.5 -131t77.5 -91t103.5 -50t113.5 -17zM242 169l13 77q50 19 76.5 29.5t66 28t60.5 31t43 30.5t31.5 35t9.5 38q0 52 -67 52
q-43 0 -62.5 -23.5t-13.5 -62.5l-108 12q-6 74 45.5 115t146.5 41q45 0 81.5 -9.5t65 -37.5t28.5 -73q0 -113 -223 -198h191l-13 -85h-371z" />
    <glyph glyph-name="uni2462" unicode="&#x2462;" horiz-adv-x="870" 
d="M440 -21q-69 0 -135 18.5t-126 57t-97 108.5t-37 162q0 55 12.5 109t43.5 108.5t77.5 95.5t121.5 67t168 26q69 0 134.5 -18.5t125.5 -57t97 -108.5t37 -162q0 -55 -12.5 -109t-43.5 -108.5t-77.5 -95.5t-121 -67t-167.5 -26zM437 38q79 0 142.5 22.5t102.5 58t65.5 82.5
t36.5 92t10 90q0 73 -29.5 131t-77.5 91t-103.5 50t-113.5 17q-79 0 -142.5 -22.5t-102.5 -58t-65.5 -82.5t-36.5 -92t-10 -90q0 -73 29.5 -131t77.5 -91t103.5 -50t113.5 -17zM447 148q-38 0 -70.5 6t-62.5 20.5t-48 41.5t-19 65l110 10q9 -63 88 -63q73 0 73 49
q0 46 -77 46h-30l12 70h42q72 0 72 48q0 42 -69 42q-76 0 -86 -68l-103 14q7 61 56 97t135 36q180 0 180 -105q0 -42 -31 -68.5t-78 -31.5q89 -15 89 -83q0 -52 -46.5 -89t-136.5 -37z" />
    <glyph glyph-name="uni2463" unicode="&#x2463;" horiz-adv-x="870" 
d="M440 -21q-69 0 -135 18.5t-126 57t-97 108.5t-37 162q0 55 12.5 109t43.5 108.5t77.5 95.5t121.5 67t168 26q69 0 134.5 -18.5t125.5 -57t97 -108.5t37 -162q0 -55 -12.5 -109t-43.5 -108.5t-77.5 -95.5t-121 -67t-167.5 -26zM437 38q79 0 142.5 22.5t102.5 58t65.5 82.5
t36.5 92t10 90q0 73 -29.5 131t-77.5 91t-103.5 50t-113.5 17q-79 0 -142.5 -22.5t-102.5 -58t-65.5 -82.5t-36.5 -92t-10 -90q0 -73 29.5 -131t77.5 -91t103.5 -50t113.5 -17zM631 246h-75l-15 -82h-105l15 82h-235l12 70l267 240h115l-42 -234h76zM500 478l-168 -156h133z
" />
    <glyph glyph-name="uni2464" unicode="&#x2464;" horiz-adv-x="870" 
d="M440 -21q-69 0 -135 18.5t-126 57t-97 108.5t-37 162q0 55 12.5 109t43.5 108.5t77.5 95.5t121.5 67t168 26q69 0 134.5 -18.5t125.5 -57t97 -108.5t37 -162q0 -55 -12.5 -109t-43.5 -108.5t-77.5 -95.5t-121 -67t-167.5 -26zM437 38q79 0 142.5 22.5t102.5 58t65.5 82.5
t36.5 92t10 90q0 73 -29.5 131t-77.5 91t-103.5 50t-113.5 17q-79 0 -142.5 -22.5t-102.5 -58t-65.5 -82.5t-36.5 -92t-10 -90q0 -73 29.5 -131t77.5 -91t103.5 -50t113.5 -17zM435 154q-70 0 -124 26t-62 88l108 15q12 -49 78 -49q83 0 83 69q0 59 -70 59q-54 0 -81 -42
l-96 9l67 228h307l-13 -79h-234l-26 -84q36 42 112 42q25 0 47.5 -5t45.5 -17.5t37 -38t14 -61.5q0 -65 -46 -112.5t-147 -47.5z" />
    <glyph glyph-name="uni2465" unicode="&#x2465;" horiz-adv-x="870" 
d="M468 731q69 0 134.5 -18.5t125.5 -57t97 -108.5t37 -162q0 -55 -12.5 -109t-43.5 -108.5t-77.5 -95.5t-121 -67t-167.5 -26q-69 0 -135 18.5t-126 57t-97 108.5t-37 162q0 55 12.5 109t43.5 108.5t77.5 95.5t121.5 67t168 26zM437 38q79 0 142.5 22.5t102.5 58t65.5 82.5
t36.5 92t10 90q0 73 -29.5 131t-77.5 91t-103.5 50t-113.5 17q-79 0 -142.5 -22.5t-102.5 -58t-65.5 -82.5t-36.5 -92t-10 -90q0 -73 29.5 -131t77.5 -91t103.5 -50t113.5 -17zM472 484q-86 0 -109 -93q38 34 113 34q65 0 108.5 -31.5t43.5 -94.5q0 -64 -49.5 -107.5
t-138.5 -43.5q-80 0 -135 40.5t-55 135.5q0 32 6 63t22 63.5t40.5 56.5t65.5 39.5t92 15.5q63 0 111.5 -23.5t60.5 -75.5l-105 -19q-12 40 -71 40zM519 296q0 54 -71 54q-61 0 -92 -37q6 -86 83 -86q43 0 61.5 20.5t18.5 48.5z" />
    <glyph glyph-name="uni2466" unicode="&#x2466;" horiz-adv-x="870" 
d="M440 -21q-69 0 -135 18.5t-126 57t-97 108.5t-37 162q0 55 12.5 109t43.5 108.5t77.5 95.5t121.5 67t168 26q69 0 134.5 -18.5t125.5 -57t97 -108.5t37 -162q0 -55 -12.5 -109t-43.5 -108.5t-77.5 -95.5t-121 -67t-167.5 -26zM437 38q79 0 142.5 22.5t102.5 58t65.5 82.5
t36.5 92t10 90q0 73 -29.5 131t-77.5 91t-103.5 50t-113.5 17q-79 0 -142.5 -22.5t-102.5 -58t-65.5 -82.5t-36.5 -92t-10 -90q0 -73 29.5 -131t77.5 -91t103.5 -50t113.5 -17zM313 159l2 12q12 82 67 158.5t149 134.5h-238l15 87h349l-14 -79q-185 -112 -209 -292l-3 -21
h-118z" />
    <glyph glyph-name="uni2467" unicode="&#x2467;" horiz-adv-x="870" 
d="M468 731q69 0 134.5 -18.5t125.5 -57t97 -108.5t37 -162q0 -55 -12.5 -109t-43.5 -108.5t-77.5 -95.5t-121 -67t-167.5 -26q-69 0 -135 18.5t-126 57t-97 108.5t-37 162q0 55 12.5 109t43.5 108.5t77.5 95.5t121.5 67t168 26zM437 38q79 0 142.5 22.5t102.5 58t65.5 82.5
t36.5 92t10 90q0 73 -29.5 131t-77.5 91t-103.5 50t-113.5 17q-79 0 -142.5 -22.5t-102.5 -58t-65.5 -82.5t-36.5 -92t-10 -90q0 -73 29.5 -131t77.5 -91t103.5 -50t113.5 -17zM661 459q0 -68 -97 -85q81 -29 81 -95q0 -56 -49 -93.5t-154 -37.5q-50 0 -92.5 10.5
t-73.5 36.5t-31 65q0 78 108 96q-61 31 -61 87q0 48 43.5 83.5t138.5 35.5q46 0 86 -9t70.5 -33.5t30.5 -60.5zM473 492q-73 0 -73 -45q0 -33 61 -46l45 -11q46 16 46 52q0 50 -79 50zM448 223q45 0 65.5 14.5t20.5 36.5q0 35 -67 51l-54 12q-54 -17 -54 -59q0 -55 89 -55z
" />
    <glyph glyph-name="uni2468" unicode="&#x2468;" horiz-adv-x="870" 
d="M468 731q69 0 134.5 -18.5t125.5 -57t97 -108.5t37 -162q0 -55 -12.5 -109t-43.5 -108.5t-77.5 -95.5t-121 -67t-167.5 -26q-69 0 -135 18.5t-126 57t-97 108.5t-37 162q0 55 12.5 109t43.5 108.5t77.5 95.5t121.5 67t168 26zM437 38q79 0 142.5 22.5t102.5 58t65.5 82.5
t36.5 92t10 90q0 73 -29.5 131t-77.5 91t-103.5 50t-113.5 17q-79 0 -142.5 -22.5t-102.5 -58t-65.5 -82.5t-36.5 -92t-10 -90q0 -73 29.5 -131t77.5 -91t103.5 -50t113.5 -17zM464 562q38 0 69.5 -8t60.5 -27t45.5 -55.5t16.5 -87.5q0 -27 -3.5 -52.5t-16.5 -61t-35.5 -61
t-65.5 -43.5t-100 -18q-68 0 -119.5 26.5t-59.5 82.5l107 16q11 -47 77 -47q86 0 107 103q-39 -31 -108 -31q-65 0 -112.5 31.5t-47.5 91.5q0 57 44 99t141 42zM386 425q0 -26 21.5 -39.5t54.5 -13.5q58 0 92 37q-6 78 -86 78q-44 0 -63 -18.5t-19 -43.5z" />
    <glyph glyph-name="uni24EA" unicode="&#x24ea;" horiz-adv-x="870" 
d="M440 -21q-69 0 -135 18.5t-126 57t-97 108.5t-37 162q0 55 12.5 109t43.5 108.5t77.5 95.5t121.5 67t168 26q69 0 134.5 -18.5t125.5 -57t97 -108.5t37 -162q0 -55 -12.5 -109t-43.5 -108.5t-77.5 -95.5t-121 -67t-167.5 -26zM437 38q79 0 142.5 22.5t102.5 58t65.5 82.5
t36.5 92t10 90q0 73 -29.5 131t-77.5 91t-103.5 50t-113.5 17q-79 0 -142.5 -22.5t-102.5 -58t-65.5 -82.5t-36.5 -92t-10 -90q0 -73 29.5 -131t77.5 -91t103.5 -50t113.5 -17zM439 148q-39 0 -72 9t-62.5 28.5t-46 56t-16.5 85.5q0 31 6.5 61.5t22.5 62.5t40.5 56t65 39.5
t91.5 15.5q84 0 140.5 -42t56.5 -137q0 -39 -11 -77t-35 -75.5t-70.5 -60t-109.5 -22.5zM438 230q43 0 71 28t37 61.5t9 69.5q0 48 -24.5 70t-61.5 22q-33 0 -57 -16t-36 -41.5t-17.5 -51t-5.5 -51.5q0 -48 24.5 -69.5t60.5 -21.5z" />
    <glyph glyph-name="uni24FF" unicode="&#x24ff;" horiz-adv-x="857" 
d="M421 -21q-105 0 -188.5 35.5t-136 113t-52.5 187.5q0 57 12.5 112.5t44 111.5t78 98t120.5 68t166 26q74 0 140.5 -19t122.5 -58t89 -105.5t33 -153.5q0 -59 -14 -115.5t-46.5 -111.5t-80.5 -96.5t-122.5 -67t-165.5 -25.5zM433 148q51 0 91.5 15.5t65.5 39.5t41 56.5
t22.5 62.5t6.5 61q0 49 -17 85.5t-46 56t-62.5 28.5t-72.5 9q-51 0 -91.5 -15.5t-65.5 -39.5t-41 -56t-22.5 -62.5t-6.5 -61.5q0 -49 17 -85.5t46 -56t62.5 -28.5t72.5 -9zM432 231q-36 0 -60.5 21t-24.5 69q0 36 9 69.5t36.5 61.5t70.5 28q36 0 60.5 -21.5t24.5 -69.5
q0 -36 -9 -69t-36.5 -61t-70.5 -28z" />
    <glyph glyph-name="lozenge" unicode="&#x25ca;" horiz-adv-x="775" 
d="M410 -17h-141l-160 372l291 372h141l163 -372zM448 599l-187 -244l101 -244l190 244z" />
    <glyph glyph-name="circle" unicode="&#x25cb;" horiz-adv-x="870" 
d="M440 -21q-69 0 -135 18.5t-126 57t-97 108.5t-37 162q0 55 12.5 109t43.5 108.5t77.5 95.5t121.5 67t168 26q69 0 134.5 -18.5t125.5 -57t97 -108.5t37 -162q0 -55 -12.5 -109t-43.5 -108.5t-77.5 -95.5t-121 -67t-167.5 -26zM437 38q79 0 142.5 22.5t102.5 58t65.5 82.5
t36.5 92t10 90q0 73 -29.5 131t-77.5 91t-103.5 50t-113.5 17q-79 0 -142.5 -22.5t-102.5 -58t-65.5 -82.5t-36.5 -92t-10 -90q0 -73 29.5 -131t77.5 -91t103.5 -50t113.5 -17z" />
    <glyph glyph-name="uni2776" unicode="&#x2776;" horiz-adv-x="857" 
d="M421 -21q-105 0 -188.5 35.5t-136 113t-52.5 187.5q0 57 12.5 112.5t44 111.5t78 98t120.5 68t166 26q74 0 140.5 -19t122.5 -58t89 -105.5t33 -153.5q0 -59 -14 -115.5t-46.5 -111.5t-80.5 -96.5t-122.5 -67t-165.5 -25.5zM385 158h107l69 392h-89q-31 -63 -113 -63h-20
l-15 -94h32q55 0 76 18z" />
    <glyph glyph-name="uni2777" unicode="&#x2777;" horiz-adv-x="857" 
d="M421 -21q-105 0 -188.5 35.5t-136 113t-52.5 187.5q0 57 12.5 112.5t44 111.5t78 98t120.5 68t166 26q74 0 140.5 -19t122.5 -58t89 -105.5t33 -153.5q0 -59 -14 -115.5t-46.5 -111.5t-80.5 -96.5t-122.5 -67t-165.5 -25.5zM239 169h371l14 86h-190q221 83 221 197
q0 45 -28.5 73t-64.5 37.5t-81 9.5q-95 0 -147 -41t-46 -115l109 -12q-6 39 13.5 62t61.5 23q67 0 67 -52q0 -19 -9.5 -37t-31.5 -35t-43 -30.5t-60.5 -31t-66 -28t-76.5 -29.5z" />
    <glyph glyph-name="uni2778" unicode="&#x2778;" horiz-adv-x="857" 
d="M421 -21q-105 0 -188.5 35.5t-136 113t-52.5 187.5q0 57 12.5 112.5t44 111.5t78 98t120.5 68t166 26q74 0 140.5 -19t122.5 -58t89 -105.5t33 -153.5q0 -59 -14 -115.5t-46.5 -111.5t-80.5 -96.5t-122.5 -67t-165.5 -25.5zM447 148q90 0 136.5 36.5t46.5 88.5
q0 70 -89 84q48 5 79 31.5t31 68.5q0 32 -17 54t-46 32.5t-57.5 14.5t-60.5 4q-85 0 -134.5 -36t-57.5 -97l105 -14q5 32 24 49.5t61 17.5q69 0 69 -42q0 -47 -72 -47h-42l-12 -71h30q76 0 76 -45q0 -21 -17.5 -34.5t-54.5 -13.5q-78 0 -87 63l-111 -11q1 -38 19 -65
t48 -41.5t62.5 -20.5t70.5 -6z" />
    <glyph glyph-name="uni2779" unicode="&#x2779;" horiz-adv-x="857" 
d="M421 -21q-105 0 -188.5 35.5t-136 113t-52.5 187.5q0 57 12.5 112.5t44 111.5t78 98t120.5 68t166 26q74 0 140.5 -19t122.5 -58t89 -105.5t33 -153.5q0 -59 -14 -115.5t-46.5 -111.5t-80.5 -96.5t-122.5 -67t-165.5 -25.5zM435 164h106l15 82h75l13 76h-76l43 234h-117
l-267 -240l-11 -70h234zM333 322l166 155l-34 -155h-132z" />
    <glyph glyph-name="uni277A" unicode="&#x277a;" horiz-adv-x="857" 
d="M421 -21q-105 0 -188.5 35.5t-136 113t-52.5 187.5q0 57 12.5 112.5t44 111.5t78 98t120.5 68t166 26q74 0 140.5 -19t122.5 -58t89 -105.5t33 -153.5q0 -59 -14 -115.5t-46.5 -111.5t-80.5 -96.5t-122.5 -67t-165.5 -25.5zM435 154q101 0 147 47.5t46 112.5
q0 36 -14 61.5t-37 38t-46 17.5t-47 5q-76 0 -112 -42l26 83h234l13 80h-307l-67 -229l96 -8q27 41 81 41q69 0 69 -58q0 -69 -83 -69q-27 0 -49 12t-28 37l-109 -16q4 -33 23 -56.5t47 -35t56.5 -16.5t60.5 -5z" />
    <glyph glyph-name="uni277B" unicode="&#x277b;" horiz-adv-x="857" 
d="M421 -21q-105 0 -188.5 35.5t-136 113t-52.5 187.5q0 57 12.5 112.5t44 111.5t78 98t120.5 68t166 26q74 0 140.5 -19t122.5 -58t89 -105.5t33 -153.5q0 -59 -14 -115.5t-46.5 -111.5t-80.5 -96.5t-122.5 -67t-165.5 -25.5zM432 148q90 0 139.5 43.5t49.5 107.5
q0 63 -43.5 94.5t-109.5 31.5q-73 0 -112 -36q21 94 108 95q59 0 71 -40l105 19q-11 52 -60 75.5t-112 23.5q-51 0 -92 -15.5t-65.5 -39.5t-40.5 -56.5t-22 -63.5t-6 -63q0 -50 16.5 -86t45 -55t60 -27t68.5 -8zM431 228q-75 0 -81 84q30 37 90 37q71 0 71 -53
q0 -27 -18.5 -47.5t-61.5 -20.5z" />
    <glyph glyph-name="uni277C" unicode="&#x277c;" horiz-adv-x="857" 
d="M421 -21q-105 0 -188.5 35.5t-136 113t-52.5 187.5q0 57 12.5 112.5t44 111.5t78 98t120.5 68t166 26q74 0 140.5 -19t122.5 -58t89 -105.5t33 -153.5q0 -59 -14 -115.5t-46.5 -111.5t-80.5 -96.5t-122.5 -67t-165.5 -25.5zM317 159h120l2 21q24 178 210 292l13 79h-350
l-15 -88h238q-93 -57 -148 -133t-68 -159z" />
    <glyph glyph-name="uni277D" unicode="&#x277d;" horiz-adv-x="857" 
d="M421 -21q-105 0 -188.5 35.5t-136 113t-52.5 187.5q0 57 12.5 112.5t44 111.5t78 98t120.5 68t166 26q74 0 140.5 -19t122.5 -58t89 -105.5t33 -153.5q0 -59 -14 -115.5t-46.5 -111.5t-80.5 -96.5t-122.5 -67t-165.5 -25.5zM437 148q105 0 154 37.5t49 93.5q0 66 -76 97
q92 17 92 83q0 36 -30.5 60.5t-71 33.5t-86.5 9q-95 0 -138.5 -35.5t-43.5 -83.5q0 -59 64 -86q-111 -19 -111 -97q0 -56 59 -84t139 -28zM501 392l-45 9q-61 14 -61 46q0 44 72 44q79 0 79 -49q0 -35 -45 -50zM443 224q-89 0 -89 54q0 43 56 58l51 -11q67 -16 67 -51
q0 -22 -20.5 -36t-64.5 -14z" />
    <glyph glyph-name="uni277E" unicode="&#x277e;" horiz-adv-x="857" 
d="M421 -21q-105 0 -188.5 35.5t-136 113t-52.5 187.5q0 57 12.5 112.5t44 111.5t78 98t120.5 68t166 26q74 0 140.5 -19t122.5 -58t89 -105.5t33 -153.5q0 -59 -14 -115.5t-46.5 -111.5t-80.5 -96.5t-122.5 -67t-165.5 -25.5zM434 148q57 0 100 18t65.5 43.5t36 61t17 61
t3.5 52.5q0 51 -16.5 87.5t-46 55.5t-61 27t-69.5 8q-97 0 -141.5 -42t-44.5 -99q0 -60 48 -91.5t113 -31.5q70 0 109 33q-18 -104 -108 -104q-66 0 -76 47l-108 -17q8 -56 59.5 -82.5t119.5 -26.5zM461 373q-33 0 -54 13.5t-21 38.5q0 24 18.5 42.5t61.5 18.5q79 0 85 -79
q-34 -34 -90 -34z" />
    <glyph glyph-name="uniE000" unicode="&#xe000;" horiz-adv-x="1091" 
d="M275 726h818l-16 -86h-725l-89 -471h103l-186 -199l-112 199h102z" />
    <glyph glyph-name="i.loclTRK" horiz-adv-x="321" 
d="M128 572l27 149h180l-27 -149h-180zM30 0l91 500h170l-91 -500h-170z" />
    <glyph glyph-name="dollar.tf" 
d="M472 413q189 -39 189 -195q0 -102 -73.5 -168.5t-238.5 -66.5h-3l-16 -89h-67l16 92q-106 11 -176 56.5t-92 125.5l149 58q26 -99 141 -117l33 188l-31 5q-195 37 -195 200q0 91 70 150.5t229 60.5l15 86h68l-16 -89q195 -21 233 -168l-138 -54q-22 84 -116 102l-30 -169
zM262 515q0 -34 23 -52.5t73 -29.5l28 163q-124 -3 -124 -81zM367 105q135 3 135 94q0 38 -23.5 57.5t-76.5 29.5h-3z" />
    <glyph glyph-name="cent.tf" 
d="M366 96q94 7 123 102l145 -29q-27 -82 -99 -132t-188 -52l-16 -88h-63l16 91q-47 5 -86.5 18.5t-75 39.5t-55.5 70.5t-20 103.5q0 54 17.5 103.5t54 93.5t103.5 70.5t155 27.5l14 78h63l-14 -81q199 -23 221 -182l-151 -24q-13 83 -89 100zM202 232q0 -114 102 -134
l55 311q-59 -4 -96 -33.5t-49 -65.5t-12 -78z" />
    <glyph glyph-name="sterling.tf" 
d="M409 115q45 0 65.5 24t28.5 63l154 -22q-6 -34 -20 -65t-40 -62.5t-71 -50.5t-104 -19q-37 0 -103 14t-122 14q-77 0 -186 -19l-16 92q84 23 124.5 73.5t40.5 144.5v14h-96l15 81h78q-1 12 -1 33q0 43 7 81t26.5 76t50.5 65t81.5 44t116.5 17q67 0 120.5 -16.5
t92.5 -59.5t45 -109l-164 -33q-12 97 -100 97q-38 0 -63 -14.5t-35 -41.5t-13 -49.5t-3 -55.5q0 -23 1 -34h160l-15 -81h-143q0 -147 -130 -197q45 12 84 12q31 0 73.5 -8t60.5 -8z" />
    <glyph glyph-name="florin.tf" 
d="M599 587q-55 0 -81 -28t-42 -82l-15 -49h142l-20 -113h-158l-147 -465h-180l147 465h-129l21 113h144l13 41q15 46 29 78t38 66t54 55t75.5 34t103.5 13q52 0 97 -14l-22 -125q-35 11 -70 11z" />
    <glyph glyph-name="yen.tf" 
d="M759 695l-299 -381h170l-12 -69h-186l-10 -60h186l-13 -69h-185l-21 -116h-171l21 116h-186l12 69h186l10 60h-185l12 69h170l-164 381h182l79 -231q10 -27 14 -62h2q15 35 35 62l161 231h192z" />
    <glyph glyph-name="Euro.tf" 
d="M391 110q84 0 128 108l144 -49q-82 -188 -280 -188q-56 0 -104.5 15t-93 49t-70 99t-25.5 156v2h-59l5 28l12 66h50q11 64 36.5 119t66.5 100.5t104.5 71.5t141.5 26q62 0 115 -14.5t99 -57.5t59 -111l-159 -46q-25 101 -120 101q-72 0 -113 -53.5t-56 -135.5h211
l-11 -66h-1l-5 -28h-202v-2q0 -190 127 -190z" />
    <glyph glyph-name="perthousand.tf" 
d="M223 414q-58 0 -100 30.5t-42 103.5q0 62 38 114.5t118 52.5q57 0 99 -30.5t42 -103.5q0 -38 -13 -73.5t-50 -64.5t-92 -29zM238 639q-31 0 -47 -32t-16 -66q0 -51 46 -51q32 0 47.5 32t15.5 66q0 51 -46 51zM63 294l605 263l-13 -77l-605 -264zM325 287q53 0 91.5 -30.5
t38.5 -103.5q0 -38 -12 -74t-46.5 -65t-85.5 -29q-57 0 -99 30.5t-42 103.5q0 38 13 74t50 65t92 29zM519 255q7 0 17.5 -10t20.5 -37t10 -63q0 -25 -2 -43.5t-7.5 -40.5t-19 -33.5t-34.5 -11.5q-6 0 -15.5 10t-18.5 37t-9 64q0 25 1.5 43t6.5 40t18 33.5t32 11.5zM310 61
q32 0 47.5 32.5t15.5 66.5q0 50 -46 50q-32 0 -47.5 -32t-15.5 -66q0 -51 46 -51z" />
    <glyph glyph-name="zero.zero" horiz-adv-x="778" 
d="M434 714q50 0 94.5 -9t88 -31.5t74.5 -57t50 -90t19 -126.5q0 -56 -11 -111t-39 -111.5t-70 -99.5t-109.5 -70t-151.5 -27q-50 0 -94.5 9t-88 31.5t-74.5 57t-50 90t-19 126.5q0 56 11 111t39 111.5t70 99.5t109.5 70t151.5 27zM434 584q-55 0 -97 -30t-63.5 -77.5
t-32 -96t-10.5 -95.5q0 -30 5 -58l310 309q-38 48 -112 48zM378 111q55 0 97 30t64 77t32.5 96t10.5 96q0 29 -5 57l-310 -308q38 -48 111 -48z" />
    <glyph glyph-name="zero.tf" 
d="M332 -19q-56 0 -104.5 15t-92.5 47.5t-69.5 95.5t-25.5 149q0 56 10 111.5t36 113.5t65.5 101.5t103.5 71.5t144 28q56 0 105 -14.5t92.5 -47.5t69 -95.5t25.5 -149.5q0 -56 -10 -111.5t-36 -113.5t-65.5 -101.5t-103.5 -71.5t-144 -28zM337 107q49 0 86 32t56.5 82
t28.5 100.5t9 99.5q0 90 -34.5 128.5t-87.5 38.5q-50 0 -87 -32t-57 -82.5t-29 -101t-9 -98.5q0 -90 35.5 -128.5t88.5 -38.5z" />
    <glyph glyph-name="one.tf" 
d="M432 135h197l-24 -135h-575l24 135h206l60 340q-63 -52 -178 -52h-37l26 150h26q156 0 231 122h143z" />
    <glyph glyph-name="two.tf" 
d="M8 0l22 123q210 91 322 170q137 90 137 195q0 95 -102 95q-60 0 -87 -34t-32 -83q-1 -8 -1 -27l-169 15q0 23 2 36q4 42 21 79t49.5 71t89.5 54t132 20q52 0 98 -10t87.5 -32.5t65.5 -64.5t24 -100q0 -85 -49.5 -147.5t-136.5 -118.5q-85 -56 -208 -107h343l-24 -134
h-584z" />
    <glyph glyph-name="three.tf" 
d="M347 -19q-57 0 -106.5 11t-95.5 35.5t-73 72t-28 113.5l169 16q7 -120 130 -120q63 0 91.5 28.5t28.5 71.5q0 87 -119 87h-43l20 111h59q61 0 90.5 26t29.5 70q0 85 -110 85q-119 0 -133 -125l-160 21q14 107 89 168.5t214 61.5q47 0 90 -7.5t87 -26t70.5 -57.5t26.5 -94
q0 -76 -49 -123t-124 -56q135 -23 135 -150q0 -91 -72 -155t-217 -64z" />
    <glyph glyph-name="four.tf" 
d="M351 0l26 153h-367l19 109l415 433h190l-75 -421h114l-21 -121h-114l-27 -153h-160zM180 274h219l36 207q14 67 19 84h-2q-22 -38 -53 -71l-162 -167q-27 -31 -57 -53z" />
    <glyph glyph-name="five.tf" 
d="M335 -19q-49 0 -94.5 9.5t-89 30.5t-73 62t-35.5 97l166 25q9 -50 43.5 -72.5t82.5 -22.5q38 0 65.5 12.5t41.5 33t20 43t6 47.5q0 58 -31 85.5t-80 27.5q-87 0 -126 -82l-147 14l116 404h470l-23 -131h-351l-49 -167q50 82 170 82q30 0 58.5 -5.5t59.5 -20.5t53.5 -38.5
t37.5 -62t15 -88.5q0 -52 -16 -99.5t-49.5 -90t-95.5 -68t-145 -25.5z" />
    <glyph glyph-name="six.tf" 
d="M414 472q45 0 85.5 -11.5t76 -36t56 -69.5t20.5 -105q0 -111 -76 -190t-220 -79q-46 0 -86.5 8.5t-80.5 30t-68.5 55.5t-46 89.5t-17.5 127.5q0 61 10.5 118t37 113.5t66.5 98t104 67t144 25.5q45 0 86 -9t80.5 -29.5t66 -59t33.5 -92.5l-170 -24q-16 88 -107 88
q-78 0 -120 -54.5t-55 -141.5q60 80 181 80zM356 107q65 0 94 40.5t29 95.5q0 58 -33 83.5t-81 25.5q-91 0 -139 -78q1 -89 37.5 -128t92.5 -39z" />
    <glyph glyph-name="seven.tf" 
d="M145 0l3 20q22 156 118 295t258 242h-409l25 138h579l-23 -129q-314 -199 -356 -531l-5 -35h-190z" />
    <glyph glyph-name="eight.tf" 
d="M536 377q119 -52 119 -168q0 -99 -78.5 -163.5t-244.5 -64.5q-59 0 -112 10.5t-99 32t-73.5 60.5t-27.5 91q0 65 43 112t131 65q-94 50 -94 153q0 87 71 148t221 61q53 0 101.5 -9t93.5 -29t71.5 -57t26.5 -87q0 -57 -36 -98t-113 -57zM395 602q-71 0 -98 -26.5
t-27 -62.5q0 -39 25 -58.5t70 -31.5l65 -15q83 30 83 100q0 53 -36 73.5t-82 20.5zM340 102q74 0 106 29t32 70q0 72 -107 100l-69 16q-101 -30 -101 -115q0 -53 40 -76.5t99 -23.5z" />
    <glyph glyph-name="nine.tf" 
d="M378 714q44 0 82.5 -7t79.5 -28t70 -54t47.5 -90t18.5 -132q0 -51 -7 -100.5t-30 -110.5t-60 -105.5t-104 -75t-155 -30.5q-48 0 -91.5 9t-84.5 29t-69 59.5t-35 93.5l171 24q13 -88 119 -88q139 0 166 204q-68 -68 -167 -68q-43 0 -85 12t-80 36.5t-61.5 69.5t-23.5 104
q0 45 15 86t47.5 79t93.5 60.5t143 22.5zM366 365q96 0 144 76q1 82 -36 117t-94 35q-71 0 -101 -36.5t-30 -86.5q0 -54 33 -79.5t84 -25.5z" />
    <glyph glyph-name="gcommaaccent.ss01" horiz-adv-x="728" 
d="M484 769l17 -51q-33 -7 -47 -17.5t-18 -30.5h77l-17 -101h-152l15 84q17 97 125 116zM285 -210q-269 0 -288 184h174q15 -77 122 -77q75 0 106.5 30t42.5 88l15 83q-58 -96 -191 -96q-44 0 -83.5 11.5t-75.5 35.5t-57 69t-21 106q0 49 16 97.5t48 93.5t90.5 72.5
t134.5 27.5q150 0 203 -96l27 81h150l-85 -478q-20 -114 -94.5 -173t-233.5 -59zM331 111q65 0 104 35.5t46 84.5l6 32q11 71 -26.5 104.5t-99.5 33.5q-43 0 -74.5 -16.5t-47.5 -44t-23 -55t-7 -56.5q0 -63 34.5 -90.5t87.5 -27.5z" />
    <glyph glyph-name="gdotaccent.ss01" horiz-adv-x="728" 
d="M335 572l27 149h180l-27 -149h-180zM285 -210q-269 0 -288 184h174q15 -77 122 -77q75 0 106.5 30t42.5 88l15 83q-58 -96 -191 -96q-44 0 -83.5 11.5t-75.5 35.5t-57 69t-21 106q0 49 16 97.5t48 93.5t90.5 72.5t134.5 27.5q150 0 203 -96l27 81h150l-85 -478
q-20 -114 -94.5 -173t-233.5 -59zM331 111q65 0 104 35.5t46 84.5l6 32q11 71 -26.5 104.5t-99.5 33.5q-43 0 -74.5 -16.5t-47.5 -44t-23 -55t-7 -56.5q0 -63 34.5 -90.5t87.5 -27.5z" />
    <glyph glyph-name="Iacute_J.loclNLD" horiz-adv-x="805" 
d="M193 756l111 118h153l-128 -118h-136zM674 756l111 118h153l-128 -118h-136zM217 0h-179l125 710h179zM734 208q-20 -116 -90.5 -168.5t-187.5 -52.5q-81 0 -141 16l26 143q53 -12 92 -12q57 0 88 26.5t41 83.5l82 466h179z" />
    <glyph glyph-name="iacute_j.loclNLD" horiz-adv-x="652" 
d="M151 569l121 157h154l-140 -157h-135zM482 569l121 157h154l-140 -157h-135zM30 0l91 500h170l-91 -500h-170zM306 -204q-57 0 -101 14l22 122q31 -9 56 -9q38 0 55.5 20.5t25.5 66.5l88 490h171l-91 -510q-17 -93 -67.5 -143.5t-158.5 -50.5z" />
    <glyph glyph-name="g.ss01" horiz-adv-x="728" 
d="M285 -210q-269 0 -288 184h174q15 -77 122 -77q75 0 106.5 30t42.5 88l15 83q-58 -96 -191 -96q-44 0 -83.5 11.5t-75.5 35.5t-57 69t-21 106q0 49 16 97.5t48 93.5t90.5 72.5t134.5 27.5q150 0 203 -96l27 81h150l-85 -478q-20 -114 -94.5 -173t-233.5 -59zM331 111
q65 0 104 35.5t46 84.5l6 32q11 71 -26.5 104.5t-99.5 33.5q-43 0 -74.5 -16.5t-47.5 -44t-23 -55t-7 -56.5q0 -63 34.5 -90.5t87.5 -27.5z" />
    <glyph glyph-name="gbreve.ss01" horiz-adv-x="728" 
d="M370 726q-3 -81 75 -81q75 0 91 81h111q-32 -162 -206 -162q-91 0 -139 40.5t-42 121.5h110zM285 -210q-269 0 -288 184h174q15 -77 122 -77q75 0 106.5 30t42.5 88l15 83q-58 -96 -191 -96q-44 0 -83.5 11.5t-75.5 35.5t-57 69t-21 106q0 49 16 97.5t48 93.5t90.5 72.5
t134.5 27.5q150 0 203 -96l27 81h150l-85 -478q-20 -114 -94.5 -173t-233.5 -59zM331 111q65 0 104 35.5t46 84.5l6 32q11 71 -26.5 104.5t-99.5 33.5q-43 0 -74.5 -16.5t-47.5 -44t-23 -55t-7 -56.5q0 -63 34.5 -90.5t87.5 -27.5z" />
    <glyph glyph-name="gcircumflex.ss01" horiz-adv-x="728" 
d="M640 569h-126l-66 105l-103 -105h-135l156 157h174zM285 -210q-269 0 -288 184h174q15 -77 122 -77q75 0 106.5 30t42.5 88l15 83q-58 -96 -191 -96q-44 0 -83.5 11.5t-75.5 35.5t-57 69t-21 106q0 49 16 97.5t48 93.5t90.5 72.5t134.5 27.5q150 0 203 -96l27 81h150
l-85 -478q-20 -114 -94.5 -173t-233.5 -59zM331 111q65 0 104 35.5t46 84.5l6 32q11 71 -26.5 104.5t-99.5 33.5q-43 0 -74.5 -16.5t-47.5 -44t-23 -55t-7 -56.5q0 -63 34.5 -90.5t87.5 -27.5z" />
    <glyph glyph-name="g.sups.ss01" horiz-adv-x="582" 
d="M278 157q-63 0 -107.5 10t-77.5 42t-37 85h147q9 -53 82 -53q45 0 66 18t28 58l12 60q-40 -61 -138 -61q-33 0 -61.5 7.5t-55 24.5t-42 49.5t-15.5 76.5q0 34 11 68.5t34 68t67 54.5t102 21q111 0 146 -72l18 61h133l-62 -348q-16 -88 -72 -129t-178 -41zM312 402
q43 0 69.5 25.5t28.5 58.5l3 23q6 42 -15.5 64t-62.5 22q-55 0 -78.5 -36t-23.5 -81q0 -76 79 -76z" />
    <glyph glyph-name="a.sups" horiz-adv-x="539" 
d="M220 299q-66 0 -107 26.5t-41 79.5q0 114 199 124l126 6l2 14q4 26 -13 39t-51 13q-67 0 -75 -47h-150q11 59 65.5 95.5t160.5 36.5q235 0 206 -174l-18 -103q-11 -71 -10 -99h-145q0 28 6 61q-18 -34 -59 -53t-96 -19zM288 383q39 0 65.5 17t32.5 49l4 25l-81 -3
q-83 -4 -83 -50q0 -38 62 -38z" />
    <glyph glyph-name="b.sups" horiz-adv-x="578" 
d="M374 299q-111 0 -147 68l-17 -57h-136l93 529h149l-38 -214q51 61 141 61q30 0 58 -8t53.5 -25t41 -50t15.5 -78q0 -30 -6.5 -60t-22.5 -60t-39.5 -53.5t-61 -38t-83.5 -14.5zM329 392q50 0 76.5 38.5t26.5 84.5q0 41 -23.5 59.5t-57.5 18.5q-38 0 -64.5 -22t-33.5 -55
l-5 -27q-8 -40 14.5 -68.5t66.5 -28.5z" />
    <glyph glyph-name="c.sups" horiz-adv-x="523" 
d="M306 299q-32 0 -61.5 4.5t-60.5 16.5t-53.5 30.5t-37 50.5t-14.5 73q0 40 13 75.5t41.5 67t80 50.5t120.5 19q90 0 153.5 -33t74.5 -101l-150 -26q-12 60 -80 60q-53 0 -76.5 -32t-23.5 -75q0 -78 81 -78q71 0 88 63l140 -29q-19 -61 -79 -98.5t-156 -37.5z" />
    <glyph glyph-name="d.sups" horiz-adv-x="578" 
d="M246 299q-68 0 -118 39t-50 125q0 41 12.5 79t36.5 71t66.5 53t96.5 20q107 0 142 -65l39 218h148l-93 -529h-143l12 66q-47 -77 -149 -77zM312 393q40 0 64.5 23.5t31.5 56.5l5 28q9 45 -14.5 68.5t-64.5 23.5q-51 0 -76 -36.5t-25 -83.5q0 -42 22 -61t57 -19z" />
    <glyph glyph-name="e.sups" horiz-adv-x="518" 
d="M545 525q0 -32 -9 -62h-319q14 -69 102 -69q65 0 98 48l100 -48q-64 -95 -207 -95q-41 0 -78.5 8t-73.5 26t-57.5 54t-21.5 86q0 39 13.5 75t41 68t78 51t117.5 19q91 0 153.5 -38t62.5 -123zM407 536q1 3 1 14q0 27 -22.5 43t-61.5 16q-84 0 -103 -73h186z" />
    <glyph glyph-name="f.sups" horiz-adv-x="389" 
d="M453 675l-16 -92h-116l-49 -273h-148l49 273h-80l16 92h80l4 21q25 149 184 149q55 0 104 -15l-17 -96q-28 9 -60 9q-31 0 -45.5 -12t-18.5 -38l-3 -18h116z" />
    <glyph glyph-name="g.sups" horiz-adv-x="541" 
d="M570 741q27 0 45 -6l-15 -90q-24 9 -54 9q-26 0 -40 -7q39 -28 39 -76q0 -54 -52 -93.5t-172 -39.5q-69 0 -118 14q-11 -6 -11 -20q0 -25 46 -25l141 -2q80 -2 119 -21.5t39 -79.5q0 -147 -289 -147q-212 0 -212 83q0 54 86 65q-54 20 -54 70q0 68 100 90q-57 30 -57 88
q0 54 52 93.5t172 39.5q76 0 124 -16q27 71 111 71zM324 505q41 0 58 18.5t17 44.5q0 52 -66 52q-41 0 -58.5 -19t-17.5 -45q0 -51 67 -51zM214 292q-22 0 -54 4q-12 -10 -12 -26q0 -28 33.5 -37.5t94.5 -9.5q130 0 130 41q0 15 -10.5 20t-35.5 6z" />
    <glyph glyph-name="h.sups" horiz-adv-x="559" 
d="M74 310l93 529h149l-40 -230q52 78 149 78q59 0 100 -30.5t41 -107.5q0 -31 -6 -66l-31 -173h-148l31 174q3 20 3 33q0 64 -67 64q-78 0 -95 -100l-30 -171h-149z" />
    <glyph glyph-name="i.sups" horiz-adv-x="270" 
d="M154 720l22 123h152l-21 -123h-153zM82 310l67 365h147l-67 -365h-147z" />
    <glyph glyph-name="j.sups" horiz-adv-x="300" 
d="M163 720l22 123h152l-22 -123h-152zM57 162q-49 0 -79 10l17 100q22 -6 40 -6q27 0 40 14.5t19 44.5l63 350h148l-66 -366q-26 -147 -182 -147z" />
    <glyph glyph-name="k.sups" horiz-adv-x="549" 
d="M607 675l-183 -148l122 -217h-153l-80 147l-74 -55l-16 -92h-149l93 529h149l-51 -292l169 128h173z" />
    <glyph glyph-name="l.sups" horiz-adv-x="275" 
d="M316 839l-94 -529h-148l93 529h149z" />
    <glyph glyph-name="m.sups" horiz-adv-x="815" 
d="M78 310l64 365h145l-13 -74q42 85 140 85q48 0 84 -21.5t46 -64.5q49 86 146 86q54 0 93.5 -29t39.5 -103q0 -20 -5 -52l-33 -192h-148l32 177q2 24 2 31q0 60 -55 60q-64 0 -80 -100l-30 -168h-148l32 178q3 18 3 31q0 59 -56 59q-35 0 -53.5 -26.5t-26.5 -74.5
l-30 -167h-149z" />
    <glyph glyph-name="n.sups" horiz-adv-x="563" 
d="M78 310l64 365h144l-12 -73q27 40 62.5 62t92.5 22q141 0 141 -140q0 -29 -6 -65l-31 -171h-148l28 157q6 33 6 45q0 68 -68 68q-45 0 -66 -28.5t-30 -78.5l-29 -163h-148z" />
    <glyph glyph-name="o.sups" horiz-adv-x="559" 
d="M308 299q-32 0 -62 4.5t-61 16t-54 30.5t-37.5 50.5t-14.5 72.5q0 88 64 150.5t192 62.5q33 0 62.5 -4.5t61 -16t54.5 -30.5t37.5 -50.5t14.5 -72.5q0 -89 -64 -151t-193 -62zM312 393q51 0 77 37.5t26 83.5q0 78 -83 78q-51 0 -77.5 -38t-26.5 -83q0 -41 24 -59.5
t60 -18.5z" />
    <glyph glyph-name="p.sups" horiz-adv-x="583" 
d="M53 168l90 507h144l-11 -59q45 70 151 70q65 0 114.5 -38t49.5 -125q0 -37 -11.5 -74t-34.5 -72t-66.5 -56.5t-100.5 -21.5q-110 0 -142 62l-34 -193h-149zM333 392q50 0 77 38.5t27 84.5q0 41 -23.5 59.5t-57.5 18.5q-38 0 -64.5 -22t-33.5 -53l-5 -29q-9 -39 14 -68
t66 -29z" />
    <glyph glyph-name="q.sups" horiz-adv-x="582" 
d="M353 168l35 200q-17 -30 -54.5 -49.5t-87.5 -19.5q-42 0 -77.5 14t-62.5 52.5t-27 98.5q0 88 53.5 155t158.5 67q111 0 147 -70l19 59h133l-89 -507h-148zM312 393q42 0 67.5 25t30.5 59l4 28q6 43 -16.5 65.5t-62.5 22.5q-51 0 -76.5 -36.5t-25.5 -83.5q0 -42 22 -61
t57 -19z" />
    <glyph glyph-name="r.sups" horiz-adv-x="387" 
d="M258 561q42 123 149 123q22 0 43 -7l-22 -134q-26 9 -59 9q-46 0 -74 -20q-34 -25 -45 -89l-24 -133h-148l64 365h136z" />
    <glyph glyph-name="s.sups" horiz-adv-x="483" 
d="M284 299q-77 0 -137.5 20t-91.5 54l73 73q56 -55 170 -55q65 0 65 30q0 20 -41 25l-84 10q-130 18 -130 101q0 129 198 129q136 0 213 -59l-65 -72q-49 42 -156 42q-58 0 -58 -25q0 -10 8 -15.5t30 -9.5l90 -12q68 -11 97 -34t29 -69q0 -58 -48 -95.5t-162 -37.5z" />
    <glyph glyph-name="t.sups" horiz-adv-x="390" 
d="M65 584l16 91h82l14 84l157 53l-24 -137h119l-16 -91h-119l-18 -102q-6 -37 10.5 -52t52.5 -15q23 0 44 3l-18 -107q-49 -10 -93 -9q-30 0 -52 4t-45 15t-33.5 30t-17 50t3.5 75l18 108h-81z" />
    <glyph glyph-name="u.sups" horiz-adv-x="558" 
d="M218 299q-143 0 -143 125q0 18 10 80l31 171h148l-28 -157q-6 -34 -6 -51q0 -62 62 -62q47 0 67 27t29 80l29 163h148l-64 -365h-144l13 74q-43 -85 -152 -85z" />
    <glyph glyph-name="v.sups" horiz-adv-x="526" 
d="M191 310l-100 365h151l39 -201q3 -17 7 -49h3q10 24 23 49l111 201h160l-228 -365h-166z" />
    <glyph glyph-name="w.sups" horiz-adv-x="742" 
d="M160 310l-57 365h140l17 -206q0 -4 0.5 -16t0.5 -20h1q5 17 15 36l102 206h130l28 -206q2 -18 2 -36h1q6 21 14 36l90 206h145l-185 -365h-145l-30 189q-5 18 -3 38l-2 1q-3 -15 -14 -36l-99 -192h-151z" />
    <glyph glyph-name="x.sups" horiz-adv-x="541" 
d="M31 310l193 190l-122 175h163l43 -65q12 -21 15 -37h2q11 19 29 37l64 65h165l-181 -173l130 -192h-163l-51 75q-12 17 -17 36h-1q-12 -18 -31 -37l-75 -74h-163z" />
    <glyph glyph-name="y.sups" horiz-adv-x="521" 
d="M128 159q-46 0 -98 15l18 104q34 -13 74 -13q50 0 75 36l5 8l-111 366h157l38 -202q7 -30 7 -50h3q9 25 22 49l106 203h156l-233 -386q-48 -80 -97 -105t-122 -25z" />
    <glyph glyph-name="z.sups" horiz-adv-x="465" 
d="M68 394l253 187h-210l16 94h386l-14 -82l-249 -188h226l-17 -95h-406z" />
    <glyph glyph-name="g_g.liga.ss01" horiz-adv-x="1456" 
d="M285 -210q-269 0 -288 184h174q15 -77 122 -77q75 0 106.5 30t42.5 88l15 83q-58 -96 -191 -96q-44 0 -83.5 11.5t-75.5 35.5t-57 69t-21 106q0 49 16 97.5t48 93.5t90.5 72.5t134.5 27.5q150 0 203 -96l27 81h150l-85 -478q-20 -114 -94.5 -173t-233.5 -59zM1013 -210
q-269 0 -288 184h174q15 -77 122 -77q75 0 106.5 30t42.5 88l15 83q-58 -96 -191 -96q-44 0 -83.5 11.5t-75.5 35.5t-57 69t-21 106q0 49 16 97.5t48 93.5t90.5 72.5t134.5 27.5q150 0 203 -96l27 81h150l-85 -478q-20 -114 -94.5 -173t-233.5 -59zM331 111q65 0 104 35.5
t46 84.5l6 32q11 71 -26.5 104.5t-99.5 33.5q-43 0 -74.5 -16.5t-47.5 -44t-23 -55t-7 -56.5q0 -63 34.5 -90.5t87.5 -27.5zM1059 111q65 0 104 35.5t46 84.5l6 32q11 71 -26.5 104.5t-99.5 33.5q-43 0 -74.5 -16.5t-47.5 -44t-23 -55t-7 -56.5q0 -63 34.5 -90.5t87.5 -27.5
z" />
    <glyph glyph-name="zero.case" horiz-adv-x="778" 
d="M379 -19q-63 0 -117.5 16t-103 50.5t-76.5 99.5t-28 154q0 57 11.5 114t39.5 114.5t70 101.5t110 71.5t152 27.5q63 0 117.5 -15.5t103 -50.5t76.5 -100t28 -154q0 -57 -11.5 -113.5t-39.5 -114.5t-70.5 -102t-110 -71.5t-151.5 -27.5zM379 111q55 0 97 30.5t64.5 79.5
t33 99.5t10.5 99.5q0 96 -42 138.5t-105 42.5q-55 0 -97 -31t-64.5 -79.5t-33 -99t-10.5 -99.5q0 -97 42 -139t105 -42z" />
    <glyph glyph-name="one.case" horiz-adv-x="475" 
d="M155 0l85 485q-39 -46 -135 -46h-51l27 150h34q74 0 120 30t73 91h144l-125 -710h-172z" />
    <glyph glyph-name="two.case" horiz-adv-x="698" 
d="M-10 0l23 123q237 98 361 180q133 87 133 191q0 105 -119 105q-133 0 -137 -135q0 -17 2 -33l-174 16q-2 18 -2 36q1 34 10.5 66t32.5 66t58.5 58.5t93.5 40.5t131 16q56 0 104.5 -10t92.5 -32.5t69.5 -66t25.5 -103.5q0 -85 -47.5 -148.5t-132.5 -120.5
q-88 -59 -228 -115h351l-24 -134h-624z" />
    <glyph glyph-name="three.case" horiz-adv-x="708" 
d="M351 -19q-51 0 -95.5 6.5t-88 23t-75 42.5t-51 68.5t-20.5 97.5l178 16q10 -127 148 -127q66 0 98.5 30t32.5 75q0 92 -131 92h-53l21 111h67q68 0 101 27t33 73q0 88 -122 88q-134 0 -150 -131l-168 20q14 109 96.5 173t227.5 64q54 0 101 -8t94.5 -27t75.5 -58.5
t28 -95.5q0 -77 -55 -125t-137 -57q152 -23 152 -154q0 -93 -78 -158.5t-230 -65.5z" />
    <glyph glyph-name="four.case" horiz-adv-x="709" 
d="M684 157h-125l-27 -157h-171l28 157h-394l20 112l456 441h185l-75 -432h125zM459 498q15 72 18 84h-3q-21 -34 -65 -76l-161 -165q-37 -38 -69 -63h236z" />
    <glyph glyph-name="five.case" horiz-adv-x="696" 
d="M332 -19q-54 0 -102.5 9.5t-94 31.5t-76 64.5t-36.5 100.5l173 25q18 -102 137 -102q80 0 114.5 42t34.5 100q0 60 -34.5 88.5t-87.5 28.5q-101 0 -146 -90l-152 14l117 417h515l-24 -131h-390l-52 -175q29 42 80.5 63.5t111.5 21.5q33 0 64 -5.5t63.5 -21t57 -39.5
t40 -63.5t15.5 -90.5q0 -53 -16.5 -100.5t-52 -91.5t-102.5 -70t-157 -26z" />
    <glyph glyph-name="six.case" horiz-adv-x="726" 
d="M434 483q51 0 95 -12.5t80.5 -38.5t57.5 -71.5t21 -106.5q0 -116 -84.5 -194.5t-235.5 -78.5q-61 0 -113.5 15t-99.5 49t-74 99t-27 155q0 62 11.5 120.5t40 116t71.5 99.5t110.5 68.5t152.5 26.5q48 0 91.5 -9t86 -29t71.5 -60t36 -96l-171 -25q-20 94 -123 94
q-85 -1 -134 -59t-67 -148q73 85 204 85zM367 107q77 0 112.5 41.5t35.5 100.5q0 60 -36.5 87t-91.5 27q-109 0 -165 -89q10 -167 145 -167z" />
    <glyph glyph-name="seven.case" horiz-adv-x="615" 
d="M103 0l3 20q22 159 119 302t259 250h-411l25 138h586l-23 -129q-320 -206 -364 -546l-4 -35h-190z" />
    <glyph glyph-name="eight.case" horiz-adv-x="727" 
d="M557 385q130 -51 130 -172q0 -100 -82.5 -166t-257.5 -66q-62 0 -117.5 10.5t-104 33t-77 62t-28.5 92.5q0 67 45.5 115.5t138.5 66.5q-103 50 -103 157q0 88 75 150t234 62q77 0 142.5 -15.5t115.5 -59t50 -110.5q0 -58 -39.5 -100.5t-121.5 -59.5zM412 619
q-78 0 -108.5 -28t-30.5 -66q0 -40 29 -60.5t79 -32.5l68 -16q95 30 95 106q0 29 -13 49.5t-34.5 30t-42 13.5t-42.5 4zM355 102q82 0 118 30t36 73q0 41 -31 65.5t-91 38.5l-71 17q-113 -32 -113 -120q0 -104 152 -104z" />
    <glyph glyph-name="nine.case" horiz-adv-x="730" 
d="M394 730q48 0 90 -7.5t85.5 -29t73.5 -55.5t49.5 -91.5t19.5 -133.5q0 -34 -3 -67t-13 -77.5t-26 -83t-45.5 -77t-68 -66t-96 -44.5t-127.5 -17q-52 0 -98.5 9.5t-89.5 31t-71.5 62.5t-34.5 97l171 25q5 -37 29 -60.5t50 -30.5t54 -7q87 0 133.5 62.5t61.5 155.5
q-82 -75 -194 -75q-49 0 -94.5 12.5t-85 38.5t-63 71t-23.5 103q0 36 9.5 70.5t32.5 68t58 59t90.5 41t125.5 15.5zM380 371q108 0 168 82q-9 156 -150 156q-79 0 -113.5 -38t-34.5 -90q0 -57 36 -83.5t94 -26.5z" />
    <glyph glyph-name="one.ss02.case" horiz-adv-x="640" 
d="M404 135h198l-24 -135h-575l24 135h206l63 355q-63 -52 -178 -52h-38l27 150h26q156 0 231 122h142z" />
    <glyph glyph-name="zero.tf.case" 
d="M332 -18q-56 0 -104.5 15t-92 49t-69 97.5t-25.5 151.5q0 58 10.5 115t37 116t66 103t104 72.5t144.5 28.5q44 0 83.5 -9t78 -31t66.5 -56.5t45 -90.5t17 -127q0 -57 -10.5 -114t-36.5 -116t-66 -103t-104 -72.5t-144 -28.5zM337 105q49 0 86.5 33t57 84.5t29 104.5
t9.5 103q0 95 -34.5 136t-86.5 41q-50 0 -87.5 -33t-57.5 -85t-29.5 -104.5t-9.5 -103.5q0 -93 35 -134.5t88 -41.5z" />
    <glyph glyph-name="one.tf.case" 
d="M432 135h198l-24 -135h-575l25 135h205l62 353q-66 -53 -179 -53h-37l27 150h26q155 0 231 125h143z" />
    <glyph glyph-name="two.tf.case" 
d="M11 0l23 123q206 93 322 175q138 93 138 203q0 98 -101 98q-104 0 -119 -121q-2 -20 -2 -28l-169 15q0 24 2 37q4 43 21 81t49.5 72.5t90 54.5t132.5 20q52 0 98 -10t87 -33t65 -66t24 -102q0 -87 -49.5 -151t-137.5 -123q-91 -60 -208 -111h342l-24 -134h-584z" />
    <glyph glyph-name="three.tf.case" 
d="M346 -19q-44 0 -84.5 6.5t-81 23t-70 42t-48 68t-18.5 96.5l169 16q7 -125 129 -125q64 0 92.5 30t28.5 75q0 92 -119 92h-43l21 111h59q120 0 120 100q0 88 -110 88q-119 0 -133 -129l-160 21q14 109 89.5 171.5t214.5 62.5q47 0 90 -8t87 -27t70 -58t26 -95
q0 -78 -49.5 -126t-124.5 -57q135 -25 135 -155q0 -93 -72.5 -158t-217.5 -65z" />
    <glyph glyph-name="four.tf.case" 
d="M350 0l28 157h-368l20 109l416 444h190l-76 -432h114l-21 -121h-114l-28 -157h-161zM181 278h218l38 216q8 48 19 86h-3q-20 -36 -52 -73l-163 -175q-30 -33 -57 -54z" />
    <glyph glyph-name="five.tf.case" 
d="M334 -19q-49 0 -94 9.5t-88.5 31t-72.5 63t-35 98.5l165 25q19 -98 126 -98q50 0 81.5 23t42 52.5t10.5 65.5q0 61 -31 89.5t-80 28.5q-86 0 -126 -86l-147 14l116 413h471l-23 -131h-351l-50 -175q51 85 170 85q30 0 59 -5.5t59.5 -21t53.5 -39.5t37.5 -63.5t14.5 -89.5
q0 -53 -16 -101.5t-50 -92t-96.5 -69.5t-145.5 -26z" />
    <glyph glyph-name="six.tf.case" 
d="M420 483q45 0 84.5 -12t74.5 -37t55.5 -71t20.5 -108q0 -113 -78 -193.5t-223 -80.5q-58 0 -106.5 14.5t-93.5 48.5t-70.5 99t-25.5 156q0 62 11 120.5t37.5 116t67 99.5t104 68.5t143.5 26.5q44 0 84.5 -9t80.5 -29t67 -60t34 -95l-170 -25q-17 93 -108 93
q-76 -1 -119 -58.5t-57 -148.5q67 85 187 85zM353 107q68 0 98 42t30 100q0 60 -32 87t-78 27q-97 0 -146 -86q8 -170 128 -170z" />
    <glyph glyph-name="seven.tf.case" 
d="M146 0l2 20q22 159 119 302t259 250h-409l25 138h580l-23 -129q-317 -207 -359 -546l-4 -35h-190z" />
    <glyph glyph-name="eight.tf.case" 
d="M536 385q120 -51 120 -172q0 -100 -79.5 -166t-245.5 -66q-59 0 -111.5 10.5t-98.5 33t-73 62t-27 92.5q0 67 43.5 115.5t131.5 66.5q-94 50 -94 156q0 89 71 151t221 62q42 0 81 -5.5t78.5 -19t68.5 -33.5t47 -53t18 -74q0 -126 -151 -160zM397 619q-70 0 -97.5 -28
t-27.5 -66q0 -41 25.5 -61.5t68.5 -31.5l65 -16q84 32 84 105q0 55 -36 76.5t-82 21.5zM340 102q75 0 107 30t32 73q0 77 -107 103l-69 17q-101 -31 -101 -119q0 -56 39 -80t99 -24z" />
    <glyph glyph-name="nine.tf.case" 
d="M380 730q45 0 83.5 -7t79 -28.5t69 -55.5t47 -92t18.5 -134q0 -53 -7 -104t-30.5 -113t-61 -107.5t-105.5 -76.5t-157 -31q-37 0 -71.5 5t-70 19t-62.5 35t-47 56t-25 79l172 25q13 -92 117 -92q52 0 90 33t56.5 78t27.5 104q-72 -72 -172 -72q-44 0 -85.5 12t-79.5 37
t-61.5 71t-23.5 106q0 46 15 88t47.5 80.5t93.5 61.5t143 23zM367 371q95 0 145 79q-5 159 -131 159q-69 0 -99 -38t-30 -90q0 -57 32.5 -83.5t82.5 -26.5z" />
    <glyph glyph-name="zero.zero.case" horiz-adv-x="779" 
d="M437 730q63 0 117.5 -15.5t103 -50.5t76.5 -100t28 -154q0 -57 -11.5 -113.5t-39.5 -114.5t-70.5 -102t-110 -71.5t-151.5 -27.5q-63 0 -117.5 16t-103 50.5t-76.5 99.5t-28 154q0 57 11.5 114t39.5 114.5t70 101.5t110 71.5t152 27.5zM437 601q-55 0 -97 -31
t-64.5 -79.5t-33 -99t-10.5 -99.5q0 -36 6 -64l316 314q-38 59 -117 59zM379 111q55 0 97 30.5t64.5 79.5t33 99.5t10.5 99.5q0 30 -4 51l-312 -311q39 -49 111 -49z" />
    <glyph glyph-name="zero.tf.zero.case" 
d="M404 730q44 0 83.5 -9t78 -31t66.5 -56.5t45 -90.5t17 -127q0 -57 -10.5 -114t-36.5 -116t-66 -103t-104 -72.5t-144 -28.5q-56 0 -104.5 15t-92 49t-69 97.5t-25.5 151.5q0 58 10.5 115t37 116t66 103t104 72.5t144.5 28.5zM399 607q-50 0 -87.5 -33t-57.5 -85
t-29.5 -104.5t-9.5 -103.5q0 -15 2 -39l292 276q-27 89 -110 89zM338 105q49 0 86.5 33t57 84.5t29 104.5t9.5 103v16l-287 -271q31 -70 105 -70z" />
    <glyph glyph-name="zero.osf" horiz-adv-x="738" 
d="M351 -19q-46 0 -88.5 6.5t-85 24.5t-73.5 46t-50.5 74t-19.5 105q0 61 20.5 115.5t62 100.5t113 73.5t163.5 27.5q46 0 88.5 -6.5t85 -24.5t73.5 -46t50.5 -74t19.5 -105q0 -61 -20.5 -115.5t-62 -100.5t-113 -73.5t-163.5 -27.5zM354 106q92 0 137 60t45 131t-42 101.5
t-105 30.5q-48 0 -85 -18.5t-57 -48t-30 -61.5t-10 -63q0 -71 42.5 -101.5t104.5 -30.5z" />
    <glyph glyph-name="one.osf" horiz-adv-x="652" 
d="M414 129h187l-23 -129h-565l23 129h211l38 216q-29 -23 -79.5 -38t-103.5 -15h-32l25 140h24q72 0 132.5 28.5t90.5 74.5h144z" />
    <glyph glyph-name="two.osf" horiz-adv-x="690" 
d="M13 111q205 61 308 108q77 35 108 66t31 68q0 75 -99 75q-61 0 -90.5 -28t-29.5 -68q0 -15 3 -27l-175 18q-1 8 -1 24q0 35 16.5 69.5t50 66.5t95.5 51.5t143 19.5q52 0 97.5 -8.5t86 -27.5t64 -54t23.5 -83q0 -99 -110 -163q-73 -45 -221 -89h314l-22 -129h-611z" />
    <glyph glyph-name="three.osf" horiz-adv-x="709" 
d="M318 -169q-62 0 -116 11t-104 35.5t-78.5 72.5t-26.5 114l178 16q4 -121 145 -121q68 0 101.5 26t33.5 66q0 88 -134 88h-49l20 109h64q68 0 100.5 25.5t32.5 69.5q0 85 -122 85q-131 0 -147 -127l-167 21q14 106 95 169t230 63q51 0 97 -7.5t93 -26t75.5 -57.5t28.5 -94
q0 -76 -54.5 -123t-136.5 -56q155 -21 155 -146q0 -89 -78.5 -151t-235.5 -62z" />
    <glyph glyph-name="four.osf" horiz-adv-x="716" 
d="M342 -150l27 156h-401l20 112l452 417h192l-72 -408h125l-21 -121h-125l-27 -156h-170zM151 127h239l33 186q10 57 17 84h-3q-19 -29 -57 -64l-167 -157q-39 -34 -62 -49z" />
    <glyph glyph-name="five.osf" horiz-adv-x="696" 
d="M304 -169q-54 0 -102 9.5t-94 30t-76.5 61t-37.5 96.5l174 24q18 -92 137 -92q81 0 115 38t34 91q0 58 -35 85.5t-88 27.5q-102 0 -145 -86l-153 14l117 405h514l-23 -131h-388l-50 -167q27 42 77.5 63.5t110.5 21.5q42 0 80.5 -10t76.5 -32.5t61 -67t23 -106.5
q0 -50 -16.5 -96t-51.5 -87.5t-102 -66.5t-158 -25z" />
    <glyph glyph-name="six.osf" horiz-adv-x="726" 
d="M432 472q51 0 95 -12t81 -37.5t58 -70t21 -104.5q0 -113 -84 -190t-235 -77q-48 0 -91 8.5t-85 30.5t-72 56t-48.5 89.5t-18.5 126.5q0 61 11.5 118t39.5 113.5t70.5 98t110 67t152.5 25.5q48 0 91.5 -9t86.5 -29t72 -59t36 -94l-171 -24q-20 91 -123 89
q-83 -1 -131.5 -55t-66.5 -139q71 78 201 78zM367 107q77 0 112 39.5t35 96.5q0 58 -36.5 83.5t-91.5 25.5q-111 0 -165 -84q10 -161 146 -161z" />
    <glyph glyph-name="seven.osf" horiz-adv-x="617" 
d="M79 -150l2 14q57 325 374 533h-412l24 138h588l-22 -129q-151 -100 -240 -225t-121 -308l-4 -23h-189z" />
    <glyph glyph-name="eight.osf" horiz-adv-x="727" 
d="M558 377q128 -51 128 -168q0 -99 -82 -163.5t-257 -64.5q-62 0 -117.5 10.5t-104 32t-77.5 60.5t-29 91q0 65 45.5 112.5t137.5 64.5q-103 50 -103 154q0 86 74.5 147t233.5 61q56 0 107.5 -9t98.5 -29t75 -57t28 -87q0 -57 -38.5 -97.5t-119.5 -57.5zM409 602
q-77 0 -107.5 -26.5t-30.5 -62.5q0 -39 29 -58.5t80 -31.5l68 -16q94 31 94 102q0 37 -24 59t-50.5 28t-58.5 6zM355 102q82 0 117.5 29t35.5 70q0 40 -30.5 62.5t-91.5 37.5l-72 17q-58 -16 -85 -46.5t-27 -69.5q0 -53 43.5 -76.5t109.5 -23.5z" />
    <glyph glyph-name="nine.osf" horiz-adv-x="728" 
d="M363 553q48 0 90 -7.5t85.5 -28.5t74 -54t50 -89.5t19.5 -130.5q0 -32 -3 -64t-13.5 -74.5t-27 -79t-46 -73.5t-68 -63t-96.5 -42t-128 -16q-49 0 -93 8.5t-87 27t-71.5 55.5t-35.5 88l167 24q17 -82 130 -82q165 0 192 203q-78 -71 -189 -71q-49 0 -94 12.5t-84.5 37.5
t-63.5 69.5t-24 101.5q0 45 16 86t50.5 79t99 60.5t150.5 22.5zM349 205q109 0 166 80q-1 147 -147 147q-80 0 -114.5 -36.5t-34.5 -86.5q0 -53 36.5 -78.5t93.5 -25.5z" />
    <glyph glyph-name="one.ss02" horiz-adv-x="640" 
d="M405 135h197l-24 -135h-575l24 135h206l60 340q-63 -52 -178 -52h-37l26 150h26q156 0 231 122h143z" />
    <glyph glyph-name="zero.tosf" 
d="M330 -19q-56 0 -105 12t-94.5 38.5t-72.5 79.5t-27 126q0 60 19.5 115t59 101t107 73.5t155.5 27.5q56 0 105 -12t94.5 -38.5t72.5 -79.5t27 -126q0 -60 -19.5 -115t-59 -101t-107 -73.5t-155.5 -27.5zM334 106q57 0 95.5 32.5t53 73.5t14.5 85q0 71 -37 101.5t-92 30.5
q-57 0 -95.5 -32.5t-53 -73.5t-14.5 -85q0 -71 37 -101.5t92 -30.5z" />
    <glyph glyph-name="one.tosf" 
d="M434 124h180l-23 -124h-553l22 124h207l40 228q-30 -25 -83.5 -41t-105.5 -16h-18l24 137h12q73 1 134 29t93 74h144z" />
    <glyph glyph-name="two.tosf" 
d="M21 111q196 61 296 108q78 36 108.5 67t30.5 68q0 75 -97 75q-59 0 -86.5 -28t-27.5 -68q0 -9 2 -27l-170 18q-1 9 -1 25q0 35 16 69t49 65.5t93 51t139 19.5q49 0 92 -8t83 -26.5t63.5 -54t23.5 -84.5q0 -100 -110 -164q-72 -44 -219 -88h313l-23 -129h-594z" />
    <glyph glyph-name="three.tosf" 
d="M314 -169q-56 0 -106 10.5t-96 35t-72 71t-24 110.5l178 16q1 -65 37 -90t86 -25q61 0 89 26.5t28 67.5q0 85 -112 85h-50l20 111h50q127 0 127 95q0 83 -102 83q-114 0 -128 -120l-166 21q14 103 89.5 164.5t216.5 61.5q47 0 89.5 -7.5t86.5 -26t70.5 -57.5t26.5 -94
q0 -76 -50.5 -123t-126.5 -56q140 -20 140 -145q0 -89 -75.5 -151.5t-225.5 -62.5z" />
    <glyph glyph-name="four.tosf" 
d="M324 -150l27 156h-367l19 109l412 420h190l-72 -408h116l-21 -121h-117l-27 -156h-160zM157 127h215l35 199q10 52 17 77h-2q-18 -29 -51 -65l-148 -149q-33 -37 -66 -62z" />
    <glyph glyph-name="five.tosf" 
d="M310 -169q-51 0 -96.5 9t-89.5 29.5t-73 60t-35 94.5l173 25q17 -89 121 -89q72 0 102.5 38t30.5 92q0 58 -30.5 85t-77.5 27q-88 0 -126 -80l-153 13l115 400h474l-24 -131h-346l-50 -164q26 41 73.5 61.5t103.5 20.5q30 0 58 -5.5t58 -20.5t52 -38.5t36 -62t14 -88.5
q0 -40 -9 -76.5t-31 -74t-56.5 -64.5t-89 -44t-124.5 -17z" />
    <glyph glyph-name="six.tosf" 
d="M414 472q45 0 85.5 -11.5t76 -36t56 -69.5t20.5 -105q0 -111 -76 -190t-220 -79q-46 0 -86.5 8.5t-80.5 30t-68.5 55.5t-46 89.5t-17.5 127.5q0 61 10.5 118t37 113.5t66.5 98t104 67t144 25.5q45 0 86 -9t80.5 -29.5t66 -59t33.5 -92.5l-170 -24q-16 88 -107 88
q-78 0 -120 -54.5t-55 -141.5q60 80 181 80zM356 107q65 0 94 40.5t29 95.5q0 58 -33 83.5t-81 25.5q-91 0 -139 -78q1 -89 37.5 -128t92.5 -39z" />
    <glyph glyph-name="seven.tosf" 
d="M118 -150l3 14q57 326 368 533h-402l25 138h577l-22 -129q-148 -100 -235.5 -225t-119.5 -306l-4 -25h-190z" />
    <glyph glyph-name="eight.tosf" 
d="M536 377q119 -52 119 -168q0 -99 -78.5 -163.5t-244.5 -64.5q-59 0 -112 10.5t-99 32t-73.5 60.5t-27.5 91q0 65 43 112t131 65q-94 50 -94 153q0 87 71 148t221 61q53 0 101.5 -9t93.5 -29t71.5 -57t26.5 -87q0 -57 -36 -98t-113 -57zM395 602q-71 0 -98 -26.5
t-27 -62.5q0 -39 25 -58.5t70 -31.5l65 -15q83 30 83 100q0 53 -36 73.5t-82 20.5zM340 102q74 0 106 29t32 70q0 72 -107 100l-69 16q-101 -30 -101 -115q0 -53 40 -76.5t99 -23.5z" />
    <glyph glyph-name="nine.tosf" 
d="M348 553q45 0 84 -7.5t80.5 -28t71 -54t48 -90t18.5 -130.5q0 -32 -3 -64t-12.5 -74.5t-25 -79t-43 -73.5t-64 -62.5t-91.5 -42t-121 -16.5q-48 0 -91 8.5t-84 28t-68.5 57.5t-33.5 90l171 24q15 -87 113 -87q151 0 178 202q-73 -70 -174 -70q-46 0 -89 12.5t-80 37.5
t-59.5 69.5t-22.5 101.5q0 45 15 86t47.5 79t93.5 60.5t142 22.5zM336 205q101 0 152 78q-1 80 -38 114.5t-95 34.5q-72 0 -102.5 -36.5t-30.5 -86.5q0 -54 31.5 -79t82.5 -25z" />
    <glyph glyph-name="zero.osf.zero" horiz-adv-x="738" 
d="M393 554q46 0 88.5 -6.5t85 -24.5t73.5 -46t50.5 -74t19.5 -105q0 -61 -20.5 -115.5t-62 -100.5t-113 -73.5t-163.5 -27.5q-46 0 -88.5 6.5t-85 24.5t-73.5 46t-50.5 74t-19.5 105q0 61 20.5 115.5t62 100.5t113 73.5t163.5 27.5zM389 429q-48 0 -85 -18.5t-57 -48
t-30 -61.5t-10 -63q0 -35 13 -64l275 223q-37 32 -106 32zM354 106q92 0 137 60t45 131q0 36 -13 64l-275 -223q37 -32 106 -32z" />
    <glyph glyph-name="zero.tf.zero" 
d="M399 714q56 0 105 -14.5t92.5 -47.5t69 -95.5t25.5 -149.5q0 -56 -10 -111.5t-36 -113.5t-65.5 -101.5t-103.5 -71.5t-144 -28q-56 0 -104.5 15t-92.5 47.5t-69.5 95.5t-25.5 149q0 56 10 111.5t36 113.5t65.5 101.5t103.5 71.5t144 28zM395 588q-50 0 -87 -32t-57 -82.5
t-29 -101t-9 -98.5q0 -20 1 -29l288 271q-29 72 -107 72zM337 107q49 0 86 32t56.5 82t28.5 100.5t9 99.5q0 19 -1 27l-287 -270q30 -71 108 -71z" />
    <glyph glyph-name="zero.tosf.zero" 
d="M372 554q56 0 105 -12t94.5 -38.5t72.5 -79.5t27 -126q0 -60 -19.5 -115t-59 -101t-107 -73.5t-155.5 -27.5q-56 0 -105 12t-94.5 38.5t-72.5 79.5t-27 126q0 60 19.5 115t59 101t107 73.5t155.5 27.5zM368 429q-57 0 -95.5 -32.5t-53 -73.5t-14.5 -85q0 -31 8 -55
l254 209q-34 37 -99 37zM334 106q57 0 95.5 32.5t53 73.5t14.5 85q0 30 -8 54l-253 -208q33 -37 98 -37z" />
    <glyph glyph-name="zero.subs" horiz-adv-x="606" 
d="M260 -154q-48 0 -89 11t-79 35.5t-60 72t-22 113.5q0 53 14.5 102.5t45.5 96.5t90 75.5t139 28.5q38 0 71.5 -6t67 -22.5t57.5 -41.5t39 -66.5t15 -94.5q0 -41 -8.5 -81t-29.5 -81.5t-52.5 -72t-83 -50t-115.5 -19.5zM259 -44q48 0 80.5 36t44 79t11.5 87q0 60 -27 87
t-68 27q-48 0 -80.5 -36.5t-44 -79.5t-11.5 -87q0 -60 27 -86.5t68 -26.5z" />
    <glyph glyph-name="one.subs" horiz-adv-x="386" 
d="M87 -140l58 325q-26 -31 -95 -31h-42l22 128h28q54 0 88 20.5t56 64.5h123l-89 -507h-149z" />
    <glyph glyph-name="two.subs" horiz-adv-x="550" 
d="M-34 -140l18 101q39 16 56 23t52 22t51.5 23t45.5 22t43.5 23.5t35.5 23.5t31.5 25.5t21.5 25.5t15.5 28t4.5 29q0 66 -77 66q-47 0 -70 -30.5t-17 -75.5l-149 13q-9 99 59.5 150.5t188.5 51.5q43 0 80 -7t71.5 -22.5t55 -47t20.5 -75.5q0 -84 -78.5 -145.5
t-212.5 -111.5h251l-19 -112h-478z" />
    <glyph glyph-name="three.subs" horiz-adv-x="553" 
d="M241 -154q-50 0 -91.5 8t-80 26.5t-60.5 54.5t-22 87l153 12q4 -82 96 -82q40 0 61 18t21 46q0 54 -93 54h-36l16 90h47q94 0 94 62q0 54 -78 54q-87 0 -98 -82l-147 14q11 80 74 126.5t175 46.5q32 0 60.5 -3t61 -11.5t56 -23t39 -40t15.5 -59.5q0 -58 -42.5 -91.5
t-103.5 -39.5q116 -15 116 -106q0 -68 -60 -114.5t-173 -46.5z" />
    <glyph glyph-name="four.subs" horiz-adv-x="567" 
d="M500 -36h-92l-19 -104h-148l19 104h-291l17 97l335 306h157l-53 -300h93zM321 257l-199 -190h159z" />
    <glyph glyph-name="five.subs" horiz-adv-x="543" 
d="M224 -154q-41 0 -78 7t-73 22.5t-59.5 46.5t-27.5 74l147 20q6 -32 30.5 -47.5t58.5 -15.5q51 0 74.5 26t23.5 61q0 33 -23.5 51.5t-59.5 18.5q-68 0 -93 -52l-129 11l85 298h394l-19 -109h-288l-32 -103q39 53 137 53q24 0 47 -4t48 -15t43 -27.5t30 -44.5t12 -64
t-11.5 -69.5t-37.5 -66t-77 -52t-122 -19.5z" />
    <glyph glyph-name="six.subs" horiz-adv-x="567" 
d="M305 205q84 0 138 -38.5t54 -123.5t-65.5 -141t-179.5 -56q-47 0 -87 10.5t-77 35t-58 71t-21 110.5q0 58 14.5 109.5t46.5 97.5t92 73.5t141 27.5q36 0 69 -6t66 -20.5t55.5 -43.5t27.5 -70l-147 -18q-12 55 -79 55q-52 -1 -84 -33.5t-47 -84.5q52 45 141 45zM248 -49
q51 0 75.5 25t24.5 63q0 68 -86 68q-71 0 -108 -48q6 -108 94 -108z" />
    <glyph glyph-name="seven.subs" horiz-adv-x="487" 
d="M50 -140l2 15q14 111 85.5 210t187.5 167h-303l20 115h447l-19 -109q-113 -69 -176 -158t-79 -213l-4 -27h-161z" />
    <glyph glyph-name="eight.subs" horiz-adv-x="568" 
d="M404 138q92 -36 92 -121q0 -74 -62.5 -122.5t-197.5 -48.5q-45 0 -87.5 7.5t-80.5 23.5t-60.5 44t-22.5 66q0 45 32.5 78.5t99.5 46.5q-76 37 -76 113q0 66 57.5 111t178.5 45q59 0 110 -11t90.5 -42.5t39.5 -79.5q0 -87 -113 -110zM278 288q-89 0 -89 -59
q0 -25 18.5 -37t57.5 -21l49 -10q53 20 53 66q0 61 -89 61zM242 -54q52 0 76 19t24 46q0 25 -21.5 39.5t-67.5 24.5l-46 10q-65 -22 -65 -74q0 -33 28 -49t72 -16z" />
    <glyph glyph-name="nine.subs" horiz-adv-x="569" 
d="M269 381q244 0 244 -225q0 -36 -5 -70.5t-23 -80t-47.5 -79t-84.5 -57t-128 -23.5q-88 0 -152.5 33.5t-73.5 110.5l147 18q4 -30 31 -43t58 -13q51 0 82.5 35t45.5 92q-55 -44 -134 -44q-50 0 -93.5 15t-76.5 53.5t-33 94.5q0 32 12 62t38 58.5t75.5 45.5t117.5 17z
M173 202q0 -34 25 -51t63 -17q70 0 112 47q-5 100 -101 100q-53 0 -76 -23.5t-23 -55.5z" />
    <glyph glyph-name="zero.dnom" horiz-adv-x="487" 
d="M219 -11q-39 0 -72 9t-62.5 28.5t-46 56t-16.5 85.5q0 31 6.5 61.5t22.5 62.5t40.5 56t65 39.5t91.5 15.5q84 0 140.5 -42t56.5 -137q0 -39 -11 -77t-35 -75.5t-70.5 -60t-109.5 -22.5zM218 71q43 0 71 28t37 61.5t9 69.5q0 48 -24.5 70t-61.5 22q-33 0 -57 -16
t-36 -41.5t-17.5 -51t-5.5 -51.5q0 -48 24.5 -69.5t60.5 -21.5z" />
    <glyph glyph-name="one.dnom" horiz-adv-x="305" 
d="M84 0l46 254q-20 -18 -75 -18h-33l15 93h20q82 0 113 63h88l-68 -392h-106z" />
    <glyph glyph-name="two.dnom" horiz-adv-x="437" 
d="M-15 0l13 77q50 19 76.5 29.5t66 28t60.5 31t43 30.5t31.5 35t9.5 38q0 52 -67 52q-43 0 -62.5 -23.5t-13.5 -62.5l-108 12q-6 74 45.5 115t146.5 41q45 0 81.5 -9.5t65 -37.5t28.5 -73q0 -113 -223 -198h191l-13 -85h-371z" />
    <glyph glyph-name="three.dnom" horiz-adv-x="442" 
d="M202 -11q-38 0 -70.5 6t-62.5 20.5t-48 41.5t-19 65l110 10q9 -63 88 -63q73 0 73 49q0 46 -77 46h-30l12 70h42q72 0 72 48q0 42 -69 42q-76 0 -86 -68l-103 14q7 61 56 97t135 36q180 0 180 -105q0 -42 -31 -68.5t-78 -31.5q89 -15 89 -83q0 -52 -46.5 -89t-136.5 -37z
" />
    <glyph glyph-name="four.dnom" horiz-adv-x="446" 
d="M401 82h-75l-15 -82h-105l15 82h-235l12 70l267 240h115l-42 -234h76zM270 314l-168 -156h133z" />
    <glyph glyph-name="five.dnom" horiz-adv-x="436" 
d="M191 -11q-70 0 -124 26t-62 88l108 15q12 -49 78 -49q83 0 83 69q0 59 -70 59q-54 0 -81 -42l-96 9l67 228h307l-13 -79h-234l-26 -84q36 42 112 42q25 0 47.5 -5t45.5 -17.5t37 -38t14 -61.5q0 -65 -46 -112.5t-147 -47.5z" />
    <glyph glyph-name="six.dnom" horiz-adv-x="450" 
d="M247 266q65 0 108.5 -31.5t43.5 -94.5q0 -64 -49.5 -107.5t-138.5 -43.5q-80 0 -135 40.5t-55 135.5q0 32 6 63t22 63.5t40.5 56.5t65.5 39.5t92 15.5q63 0 111.5 -23.5t60.5 -75.5l-105 -19q-12 40 -71 40q-86 0 -109 -93q38 34 113 34zM210 68q43 0 61.5 20.5
t18.5 48.5q0 54 -71 54q-61 0 -92 -37q6 -86 83 -86z" />
    <glyph glyph-name="seven.dnom" horiz-adv-x="383" 
d="M48 0l2 12q12 82 67 158.5t149 134.5h-238l15 87h349l-14 -79q-185 -112 -209 -292l-3 -21h-118z" />
    <glyph glyph-name="eight.dnom" horiz-adv-x="456" 
d="M322 215q81 -29 81 -95q0 -56 -49 -93.5t-154 -37.5q-50 0 -92.5 10.5t-73.5 36.5t-31 65q0 78 108 96q-61 31 -61 87q0 48 43.5 83.5t138.5 35.5q46 0 86 -9t70.5 -33.5t30.5 -60.5q0 -68 -97 -85zM231 333q-73 0 -73 -45q0 -33 61 -46l45 -11q46 16 46 52q0 50 -79 50z
M206 64q45 0 65.5 14.5t20.5 36.5q0 35 -67 51l-54 12q-54 -17 -54 -59q0 -55 89 -55z" />
    <glyph glyph-name="nine.dnom" horiz-adv-x="452" 
d="M219 403q38 0 69.5 -8t60.5 -27t45.5 -55.5t16.5 -87.5q0 -27 -3.5 -52.5t-16.5 -61t-35.5 -61t-65.5 -43.5t-100 -18q-68 0 -119.5 26.5t-59.5 82.5l107 16q11 -47 77 -47q86 0 107 103q-39 -31 -108 -31q-65 0 -112.5 31.5t-47.5 91.5q0 57 44 99t141 42zM141 266
q0 -26 21.5 -39.5t54.5 -13.5q58 0 92 37q-6 78 -86 78q-45 0 -63.5 -19t-18.5 -43z" />
    <glyph glyph-name="zero.numr" horiz-adv-x="487" 
d="M275 307q-39 0 -72 9t-62.5 28.5t-46 56t-16.5 85.5q0 31 6.5 61.5t22.5 62.5t40.5 56t65 39.5t91.5 15.5q84 0 140.5 -42t56.5 -137q0 -39 -11 -77t-35 -75.5t-70.5 -60t-109.5 -22.5zM274 389q43 0 71 28t37 61.5t9 69.5q0 48 -24.5 70t-61.5 22q-33 0 -57 -16
t-36 -41.5t-17.5 -51t-5.5 -51.5q0 -48 24.5 -69.5t60.5 -21.5z" />
    <glyph glyph-name="one.numr" horiz-adv-x="305" 
d="M140 318l46 254q-20 -18 -75 -18h-33l15 93h20q82 0 113 63h88l-68 -392h-106z" />
    <glyph glyph-name="two.numr" horiz-adv-x="437" 
d="M41 318l13 77q50 19 76.5 29.5t66 28t60.5 31t43 30.5t31.5 35t9.5 38q0 52 -67 52q-43 0 -62.5 -23.5t-13.5 -62.5l-108 12q-6 74 45.5 115t146.5 41q45 0 81.5 -9.5t65 -37.5t28.5 -73q0 -113 -223 -198h191l-13 -85h-371z" />
    <glyph glyph-name="three.numr" horiz-adv-x="442" 
d="M258 307q-38 0 -70.5 6t-62.5 20.5t-48 41.5t-19 65l110 10q9 -63 88 -63q73 0 73 49q0 46 -77 46h-30l12 70h42q72 0 72 48q0 42 -69 42q-76 0 -86 -68l-103 14q7 61 56 97t135 36q180 0 180 -105q0 -42 -31 -68.5t-78 -31.5q89 -15 89 -83q0 -52 -46.5 -89t-136.5 -37z
" />
    <glyph glyph-name="four.numr" horiz-adv-x="446" 
d="M457 400h-75l-15 -82h-105l15 82h-235l12 70l267 240h115l-42 -234h76zM326 632l-168 -156h133z" />
    <glyph glyph-name="five.numr" horiz-adv-x="436" 
d="M247 307q-70 0 -124 26t-62 88l108 15q12 -49 78 -49q83 0 83 69q0 59 -70 59q-54 0 -81 -42l-96 9l67 228h307l-13 -79h-234l-26 -84q36 42 112 42q25 0 47.5 -5t45.5 -17.5t37 -38t14 -61.5q0 -65 -46 -112.5t-147 -47.5z" />
    <glyph glyph-name="six.numr" horiz-adv-x="450" 
d="M303 584q65 0 108.5 -31.5t43.5 -94.5q0 -64 -49.5 -107.5t-138.5 -43.5q-80 0 -135 40.5t-55 135.5q0 32 6 63t22 63.5t40.5 56.5t65.5 39.5t92 15.5q63 0 111.5 -23.5t60.5 -75.5l-105 -19q-12 40 -71 40q-86 0 -109 -93q38 34 113 34zM266 386q43 0 61.5 20.5
t18.5 48.5q0 54 -71 54q-61 0 -92 -37q6 -86 83 -86z" />
    <glyph glyph-name="seven.numr" horiz-adv-x="383" 
d="M104 318l2 12q12 82 67 158.5t149 134.5h-238l15 87h349l-14 -79q-185 -112 -209 -292l-3 -21h-118z" />
    <glyph glyph-name="eight.numr" horiz-adv-x="456" 
d="M378 533q81 -29 81 -95q0 -56 -49 -93.5t-154 -37.5q-50 0 -92.5 10.5t-73.5 36.5t-31 65q0 78 108 96q-61 31 -61 87q0 48 43.5 83.5t138.5 35.5q46 0 86 -9t70.5 -33.5t30.5 -60.5q0 -68 -97 -85zM287 651q-73 0 -73 -45q0 -33 61 -46l45 -11q46 16 46 52q0 50 -79 50z
M262 382q45 0 65.5 14.5t20.5 36.5q0 35 -67 51l-54 12q-54 -17 -54 -59q0 -55 89 -55z" />
    <glyph glyph-name="nine.numr" horiz-adv-x="452" 
d="M275 721q38 0 69.5 -8t60.5 -27t45.5 -55.5t16.5 -87.5q0 -27 -3.5 -52.5t-16.5 -61t-35.5 -61t-65.5 -43.5t-100 -18q-68 0 -119.5 26.5t-59.5 82.5l107 16q11 -47 77 -47q86 0 107 103q-39 -31 -108 -31q-65 0 -112.5 31.5t-47.5 91.5q0 57 44 99t141 42zM197 584
q0 -26 21.5 -39.5t54.5 -13.5q58 0 92 37q-6 78 -86 78q-45 0 -63.5 -19t-18.5 -43z" />
    <glyph glyph-name="zero.sups" horiz-adv-x="606" 
d="M339 296q-48 0 -89 11t-79 35.5t-60 72t-22 113.5q0 53 14.5 102.5t45.5 96.5t90 75.5t139 28.5q38 0 71.5 -6t67 -22.5t57.5 -41.5t39 -66.5t15 -94.5q0 -41 -8.5 -81t-29.5 -81.5t-52.5 -72t-83 -50t-115.5 -19.5zM338 406q48 0 80.5 36t44 79t11.5 87q0 60 -27 87
t-68 27q-48 0 -80.5 -36.5t-44 -79.5t-11.5 -87q0 -60 27 -86.5t68 -26.5z" />
    <glyph glyph-name="one.sups" horiz-adv-x="386" 
d="M166 310l58 325q-26 -31 -95 -31h-42l22 128h28q54 0 88 20.5t56 64.5h123l-89 -507h-149z" />
    <glyph glyph-name="two.sups" horiz-adv-x="550" 
d="M45 310l18 101q39 16 56 23t52 22t51.5 23t45.5 22t43.5 23.5t35.5 23.5t31.5 25.5t21.5 25.5t15.5 28t4.5 29q0 66 -77 66q-47 0 -70 -30.5t-17 -75.5l-149 13q-9 99 59.5 150.5t188.5 51.5q43 0 80 -7t71.5 -22.5t55 -47t20.5 -75.5q0 -84 -78.5 -145.5t-212.5 -111.5
h251l-19 -112h-478z" />
    <glyph glyph-name="three.sups" horiz-adv-x="553" 
d="M320 296q-50 0 -91.5 8t-80 26.5t-60.5 54.5t-22 87l153 12q4 -82 96 -82q40 0 61 18t21 46q0 54 -93 54h-36l16 90h47q94 0 94 62q0 54 -78 54q-87 0 -98 -82l-147 14q11 80 74 126.5t175 46.5q32 0 60.5 -3t61 -11.5t56 -23t39 -40t15.5 -59.5q0 -58 -42.5 -91.5
t-103.5 -39.5q116 -15 116 -106q0 -68 -60 -114.5t-173 -46.5z" />
    <glyph glyph-name="four.sups" horiz-adv-x="567" 
d="M579 414h-92l-19 -104h-148l19 104h-291l17 97l335 306h157l-53 -300h93zM400 707l-199 -190h159z" />
    <glyph glyph-name="five.sups" horiz-adv-x="543" 
d="M303 296q-41 0 -78 7t-73 22.5t-59.5 46.5t-27.5 74l147 20q6 -32 30.5 -47.5t58.5 -15.5q51 0 74.5 26t23.5 61q0 33 -23.5 51.5t-59.5 18.5q-68 0 -93 -52l-129 11l85 298h394l-19 -109h-288l-32 -103q39 53 137 53q24 0 47 -4t48 -15t43 -27.5t30 -44.5t12 -64
t-11.5 -69.5t-37.5 -66t-77 -52t-122 -19.5z" />
    <glyph glyph-name="six.sups" horiz-adv-x="567" 
d="M384 655q84 0 138 -38.5t54 -123.5t-65.5 -141t-179.5 -56q-47 0 -87 10.5t-77 35t-58 71t-21 110.5q0 58 14.5 109.5t46.5 97.5t92 73.5t141 27.5q36 0 69 -6t66 -20.5t55.5 -43.5t27.5 -70l-147 -18q-12 55 -79 55q-52 -1 -84 -33.5t-47 -84.5q52 45 141 45zM327 401
q51 0 75.5 25t24.5 63q0 68 -86 68q-71 0 -108 -48q6 -108 94 -108z" />
    <glyph glyph-name="seven.sups" horiz-adv-x="487" 
d="M129 310l2 15q14 111 85.5 210t187.5 167h-303l20 115h447l-19 -109q-113 -69 -176 -158t-79 -213l-4 -27h-161z" />
    <glyph glyph-name="eight.sups" horiz-adv-x="568" 
d="M483 588q92 -36 92 -121q0 -74 -62.5 -122.5t-197.5 -48.5q-45 0 -87.5 7.5t-80.5 23.5t-60.5 44t-22.5 66q0 45 32.5 78.5t99.5 46.5q-76 37 -76 113q0 66 57.5 111t178.5 45q59 0 110 -11t90.5 -42.5t39.5 -79.5q0 -87 -113 -110zM357 738q-89 0 -89 -59
q0 -25 18.5 -37t57.5 -21l49 -10q53 20 53 66q0 61 -89 61zM321 396q52 0 76 19t24 46q0 25 -21.5 39.5t-67.5 24.5l-46 10q-65 -22 -65 -74q0 -33 28 -49t72 -16z" />
    <glyph glyph-name="nine.sups" horiz-adv-x="569" 
d="M348 831q244 0 244 -225q0 -36 -5 -70.5t-23 -80t-47.5 -79t-84.5 -57t-128 -23.5q-88 0 -152.5 33.5t-73.5 110.5l147 18q4 -30 31 -43t58 -13q51 0 82.5 35t45.5 92q-55 -44 -134 -44q-50 0 -93.5 15t-76.5 53.5t-33 94.5q0 32 12 62t38 58.5t75.5 45.5t117.5 17z
M252 652q0 -34 25 -51t63 -17q70 0 112 47q-5 100 -101 100q-53 0 -76 -23.5t-23 -55.5z" />
    <glyph glyph-name="backslash.case" horiz-adv-x="907" 
d="M650 -87l-513 877h156l513 -877h-156z" />
    <glyph glyph-name="periodcentered.case" horiz-adv-x="310" 
d="M281 439l-29 -163h-185l29 163h185z" />
    <glyph glyph-name="bullet.case" horiz-adv-x="388" 
d="M214 239q-56 0 -92.5 35t-36.5 91q0 58 36.5 93.5t92.5 35.5q57 0 93.5 -35.5t36.5 -93.5q0 -56 -36.5 -91t-93.5 -35z" />
    <glyph glyph-name="colon.case" horiz-adv-x="310" 
d="M295 520l-29 -163h-185l29 163h185zM232 163l-29 -163h-185l29 163h185z" />
    <glyph glyph-name="exclamdown.case" horiz-adv-x="362" 
d="M142 571l28 154h191l-28 -154h-191zM294 490l-60 -490h-194l113 490h141z" />
    <glyph glyph-name="questiondown.case" horiz-adv-x="653" 
d="M514 716l-26 -154h-189l27 154h188zM468 507l-6 -40q-8 -49 -31 -79t-73 -52l-82 -35q-84 -37 -84 -107q0 -49 35.5 -70.5t87.5 -21.5q79 0 112 35.5t33 88.5q0 24 -3 39l165 -14q5 -20 5 -42q0 -44 -16.5 -82.5t-52 -73t-101 -54.5t-152.5 -20q-43 0 -82.5 5t-79 19
t-68 35.5t-46.5 57t-18 81.5q0 67 38.5 112.5t113.5 80.5l69 31q34 16 47.5 34t18.5 47l4 25h166z" />
    <glyph glyph-name="semicolon.case" horiz-adv-x="314" 
d="M295 520l-29 -163h-185l29 163h185zM35 -158l-15 69q81 13 93 79l2 10h-90l30 170h181l-30 -171q-8 -43 -27.5 -74t-46.5 -47.5t-50 -24.5t-47 -11z" />
    <glyph glyph-name="slash.case" horiz-adv-x="599" 
d="M139 -87h-156l513 877h156z" />
    <glyph glyph-name="underscore.case" horiz-adv-x="556" 
d="M-48 -20h556l-16 -94h-556z" />
    <glyph glyph-name="asterisk.ss04" horiz-adv-x="274" 
d="M219 710l-47 -93h-97l69 -57l-47 -93l89 57l69 -57l-14 93l89 57h-97z" />
    <glyph glyph-name="braceleft.case" horiz-adv-x="401" 
d="M272 -83q-48 0 -82 7t-63.5 26t-40 58t-0.5 97l20 111q9 49 -4 71t-67 23l19 106q55 1 74.5 20.5t28.5 69.5l23 132q12 69 58 113.5t151 44.5h91l-21 -116h-38q-46 0 -65.5 -21t-25.5 -56l-17 -94q-10 -60 -38.5 -96t-86.5 -49q53 -15 68 -53t4 -99l-18 -105
q-8 -45 10 -59.5t53 -14.5h42l-21 -116h-54z" />
    <glyph glyph-name="braceright.case" horiz-adv-x="400" 
d="M166 796q48 0 82 -7t63.5 -26t40 -58t0.5 -97l-20 -111q-9 -49 4 -71t67 -23l-19 -106q-55 -1 -74.5 -20.5t-28.5 -69.5l-23 -132q-12 -69 -58 -113.5t-151 -44.5h-91l21 116h38q46 0 65.5 21t25.5 56l17 94q10 60 38.5 96t86.5 49q-53 15 -68 53t-4 99l18 105
q8 45 -10 59.5t-53 14.5h-42l21 116h54z" />
    <glyph glyph-name="bracketleft.case" horiz-adv-x="391" 
d="M23 -82l155 877h293l-20 -115h-137l-115 -647h138l-21 -115h-293z" />
    <glyph glyph-name="bracketright.case" horiz-adv-x="390" 
d="M405 795l-155 -877h-293l20 115h137l115 647h-138l21 115h293z" />
    <glyph glyph-name="parenleft.case" horiz-adv-x="391" 
d="M199 -106q-126 186 -126 396q0 96 23.5 178.5t68 147t89 110.5t104.5 92l112 -80q-56 -48 -91.5 -86t-72 -92t-54.5 -120t-18 -145q0 -82 22 -161.5t78 -180.5z" />
    <glyph glyph-name="parenright.case" horiz-adv-x="391" 
d="M229 818q126 -186 126 -396q0 -96 -23.5 -178.5t-68 -147t-89 -110.5t-104.5 -92l-112 80q56 48 91.5 86t72 92t54.5 120t18 145q0 82 -22 161.5t-78 180.5z" />
    <glyph glyph-name="parenleft.subs" horiz-adv-x="324" 
d="M119 -243q-91 141 -91 288q0 70 17.5 130.5t50 107.5t65 80.5t76.5 68.5l98 -67q-40 -34 -65.5 -60.5t-52.5 -65.5t-40 -86t-13 -103q0 -110 73 -246z" />
    <glyph glyph-name="parenright.subs" horiz-adv-x="324" 
d="M150 432q91 -141 91 -288q0 -70 -17.5 -130.5t-50.5 -107.5t-65.5 -80.5t-76.5 -68.5l-97 67q39 34 64.5 60.5t52.5 65.5t40 86t13 103q0 110 -72 246z" />
    <glyph glyph-name="parenleft.sups" horiz-adv-x="323" 
d="M198 207q-91 141 -91 288q0 70 17.5 130.5t50.5 107.5t65.5 80.5t76.5 68.5l97 -67q-39 -34 -64.5 -60.5t-52.5 -65.5t-40 -86t-13 -103q0 -110 72 -246z" />
    <glyph glyph-name="parenright.sups" horiz-adv-x="324" 
d="M229 882q91 -141 91 -288q0 -70 -17.5 -130.5t-50.5 -107.5t-65.5 -80.5t-76.5 -68.5l-97 67q39 34 64.5 60.5t52.5 65.5t40 86t13 103q0 110 -72 246z" />
    <glyph glyph-name="emdash.case" horiz-adv-x="952" 
d="M75 417h861l-23 -133h-861z" />
    <glyph glyph-name="endash.case" horiz-adv-x="701" 
d="M75 416h610l-22 -131h-611z" />
    <glyph glyph-name="hyphen.case" horiz-adv-x="502" 
d="M75 418h411l-23 -135h-412z" />
    <glyph glyph-name="guillemotleft.case" horiz-adv-x="662" 
d="M195 135l-158 209l235 206h161l-239 -211l155 -204h-154zM460 135l-158 209l235 206h161l-239 -211l155 -204h-154z" />
    <glyph glyph-name="guillemotright.case" horiz-adv-x="662" 
d="M234 550l158 -209l-235 -206h-161l239 211l-155 204h154zM499 550l158 -209l-235 -206h-161l239 211l-155 204h154z" />
    <glyph glyph-name="guilsinglleft.case" horiz-adv-x="397" 
d="M195 135l-158 210l235 205h161l-239 -211l155 -204h-154z" />
    <glyph glyph-name="guilsinglright.case" horiz-adv-x="397" 
d="M235 550l158 -209l-235 -206h-161l239 211l-155 204h154z" />
    <glyph glyph-name="currency.case" horiz-adv-x="634" 
d="M566 483q28 -48 28 -111q0 -99 -58 -169l51 -67l-84 -68l-55 70q-52 -23 -124 -23q-92 0 -158 38l-70 -62l-60 68l64 57q-30 47 -30 114q0 103 62 174l-49 64l85 68l54 -70q53 21 119 21q94 0 159 -39l74 65l60 -69zM323 229q76 0 111.5 40.5t35.5 92.5q0 56 -38.5 83.5
t-90.5 27.5q-75 0 -110.5 -40.5t-35.5 -92.5q0 -57 38 -84t90 -27z" />
    <glyph glyph-name="dollar.case" horiz-adv-x="724" 
d="M484 412q102 -18 153 -65t51 -129q0 -102 -81 -168.5t-259 -66.5h-4l-16 -89h-68l16 92q-108 10 -184.5 51.5t-109.5 111.5l135 78q49 -103 181 -119l33 189l-33 5q-216 35 -216 196q0 92 76.5 153.5t246.5 61.5l15 86h67l-16 -89q198 -17 263 -139l-123 -82
q-47 86 -160 103l-30 -170zM242 515q0 -33 25.5 -52t87.5 -31l29 164q-142 -3 -142 -81zM365 105q160 2 160 94q0 38 -26.5 57.5t-85.5 29.5l-16 2z" />
    <glyph glyph-name="Euro.case" horiz-adv-x="820" 
d="M506 581q-104 0 -160.5 -52.5t-75.5 -132.5h304l-11 -66h-1l-5 -28h-296q6 -188 187 -188q126 0 184 104l155 -49q-117 -188 -348 -188q-54 0 -102 9t-96 31.5t-82.5 58t-56 92.5t-21.5 130h-67l11 66h1l5 28h59q13 64 43 119t79.5 100.5t125 71.5t170.5 26
q55 0 105.5 -9t98.5 -28.5t83 -56.5t49 -88v-1l-172 -46q-36 97 -166 97z" />
    <glyph glyph-name="sterling.case" horiz-adv-x="741" 
d="M459 115q88 0 107 87l155 -22q-16 -85 -80.5 -141t-170.5 -56q-44 0 -123 14t-152 14q-82 0 -199 -19l-16 92q88 23 132.5 73.5t44.5 142.5v16h-105l15 81h87q-1 11 -1 31q0 55 15 102.5t47.5 90t93.5 67.5t145 25q127 0 201 -47.5t83 -137.5l-169 -33q-12 97 -118 97
q-42 0 -70 -14t-40.5 -40.5t-16.5 -51.5t-4 -59q0 -20 1 -30h209l-15 -81h-192q0 -147 -135 -197q48 12 101 12q38 0 90 -8t80 -8z" />
    <glyph glyph-name="currency.tf.case" 
d="M596 484q29 -47 29 -112q0 -99 -58 -169l51 -67l-85 -68l-54 70q-54 -23 -125 -23q-92 0 -158 38l-70 -62l-59 69l63 57q-29 47 -29 113q0 103 61 174l-49 64l85 68l54 -70q51 21 119 21q94 0 159 -39l74 65l60 -68zM225 340q0 -56 38.5 -83.5t90.5 -27.5
q75 0 110.5 40.5t35.5 92.5q0 56 -38 83.5t-90 27.5q-76 0 -111.5 -40.5t-35.5 -92.5z" />
    <glyph glyph-name="dollar.tf.case" 
d="M472 413q189 -39 189 -195q0 -102 -73.5 -168.5t-238.5 -66.5h-3l-16 -89h-67l16 92q-106 11 -176 56.5t-92 125.5l149 58q26 -99 141 -117l33 188l-31 5q-195 37 -195 200q0 91 70 150.5t229 60.5l15 86h68l-16 -89q195 -21 233 -168l-138 -54q-22 84 -116 102l-30 -169
zM262 515q0 -34 23 -52.5t73 -29.5l28 163q-124 -3 -124 -81zM367 105q135 3 135 94q0 38 -23.5 57.5t-76.5 29.5h-3z" />
    <glyph glyph-name="Euro.tf.case" 
d="M390 110q84 0 128 108l144 -49q-82 -188 -280 -188q-56 0 -104.5 15t-93 49t-70 99t-25.5 156v2h-59l11 66h1l5 28h50q11 64 36.5 119t66.5 100.5t104.5 71.5t141.5 26q62 0 115 -14.5t99 -57.5t59 -111l-159 -46q-26 101 -120 101q-73 0 -113.5 -53.5t-55.5 -135.5h211
l-5 -28l-12 -66h-202v-2q0 -190 127 -190z" />
    <glyph glyph-name="sterling.tf.case" 
d="M411 115q45 0 64.5 23.5t28.5 63.5l154 -22q-6 -34 -20 -65t-40 -62.5t-71 -50.5t-103 -19q-37 0 -103 14t-123 14q-77 0 -186 -19l-16 92q84 23 124.5 73.5t40.5 144.5v14h-96l15 81h78q-1 12 -1 33q0 43 7 81t26.5 76t50.5 65t81.5 44t116.5 17q105 0 177.5 -44
t80.5 -141l-164 -33q-10 97 -99 97q-38 0 -63 -14.5t-35.5 -41.5t-13.5 -49.5t-3 -55.5q0 -23 1 -34h160l-15 -81h-142q0 -147 -131 -197q45 12 84 12q31 0 73.5 -8t61.5 -8z" />
    <glyph glyph-name="yen.tf.case" 
d="M759 695l-299 -381h170l-12 -69h-186l-10 -60h186l-13 -69h-185l-21 -116h-171l21 116h-186l12 69h186l10 60h-185l12 69h170l-164 381h182l79 -231q10 -27 14 -62h2q15 35 35 62l161 231h192z" />
    <glyph glyph-name="yen.case" horiz-adv-x="739" 
d="M822 695l-342 -386h203l-13 -70h-218l-9 -57h217l-12 -70h-218l-19 -112h-172l19 112h-214l12 70h215l9 57h-214l12 70h200l-205 386h187l93 -187q24 -54 36 -101h3q27 42 74 101l160 187h196z" />
    <glyph glyph-name="currency.tf" 
d="M588 436q29 -47 29 -112q0 -99 -58 -169l51 -67l-85 -68l-54 70q-54 -23 -125 -23q-92 0 -158 38l-70 -62l-59 69l63 57q-29 47 -29 113q0 103 61 174l-49 64l85 68l54 -70q51 21 119 21q94 0 159 -39l74 65l60 -68zM217 292q0 -56 38.5 -83.5t90.5 -27.5
q75 0 110.5 40.5t35.5 92.5q0 56 -38 83.5t-90 27.5q-76 0 -111.5 -40.5t-35.5 -92.5z" />
    <glyph glyph-name="plus.case" horiz-adv-x="621" 
d="M605 417l-19 -108h-206l-34 -192h-119l34 192h-205l19 108h205l32 181h119l-32 -181h206z" />
    <glyph glyph-name="minus.case" horiz-adv-x="621" 
d="M55 307l20 111h530l-20 -111h-530z" />
    <glyph glyph-name="multiply.case" horiz-adv-x="759" 
d="M704 544l-222 -177l159 -177l-94 -81l-161 180l-224 -179l-68 79l222 178l-158 177l94 79l160 -179l223 179z" />
    <glyph glyph-name="divide.case" horiz-adv-x="621" 
d="M356 479q-31 0 -51.5 20t-20.5 51q0 32 20.5 52t51.5 20t51.5 -20t20.5 -52q0 -31 -20.5 -51t-51.5 -20zM55 307l20 109h530l-20 -109h-530zM296 105q-31 0 -51 20t-20 52t20 51.5t51 19.5t51.5 -19.5t20.5 -51.5q0 -31 -20.5 -51.5t-51.5 -20.5z" />
    <glyph glyph-name="equal.case" horiz-adv-x="614" 
d="M72 401l19 107h524l-19 -107h-524zM38 209l19 107h524l-19 -107h-524z" />
    <glyph glyph-name="notequal.case" horiz-adv-x="750" 
d="M663 402h-198l-54 -86h238l-20 -106h-284l-73 -117h-85l73 117h-154l19 106h201l54 86h-240l19 106h287l70 113h85l-70 -113h152z" />
    <glyph glyph-name="greater.case" horiz-adv-x="751" 
d="M153 615l476 -200l-19 -110l-547 -200l22 128l394 133l-347 133z" />
    <glyph glyph-name="less.case" horiz-adv-x="751" 
d="M605 103l-476 200l19 110l547 200l-22 -128l-394 -133l347 -133z" />
    <glyph glyph-name="greaterequal.case" horiz-adv-x="752" 
d="M197 684l476 -200l-19 -110l-547 -200l22 128l394 133l-347 133zM102 141h510l-19 -103h-509z" />
    <glyph glyph-name="lessequal.case" horiz-adv-x="752" 
d="M617 174l-476 200l19 110l547 200l-22 -128l-394 -133l347 -133zM102 141h510l-18 -103h-510z" />
    <glyph glyph-name="plusminus.case" horiz-adv-x="766" 
d="M477 450h207l-19 -109h-207l-26 -147h-119l26 147h-206l19 109h206l27 153h119zM83 54l18 107h532l-18 -107h-532z" />
    <glyph glyph-name="approxequal.case" horiz-adv-x="745" 
d="M524 372q-46 0 -128 32t-118 32q-82 0 -144 -48l19 111q26 20 66.5 33t76.5 13q54 0 132 -32t114 -32q37 0 76 14t66 35l-20 -112q-24 -20 -64 -33t-76 -13zM490 178q-46 0 -128 32t-118 32q-82 0 -145 -48l20 111q26 20 66 33t77 13q54 0 131.5 -32t114.5 -32t76 14
t66 35l-19 -112q-25 -20 -64.5 -33t-76.5 -13z" />
    <glyph glyph-name="asciitilde.case" 
d="M449 241q-36 0 -64.5 12t-43.5 26t-37 26t-47 12q-64 0 -103 -70l-90 22q36 72 92.5 110t118.5 38q36 0 65 -12t44 -26t37 -26t47 -12q63 0 103 70l90 -22q-36 -72 -93 -110t-119 -38z" />
    <glyph glyph-name="logicalnot.case" horiz-adv-x="743" 
d="M148 436h513l-47 -264h-111l28 158h-402z" />
    <glyph glyph-name="infinity.case" horiz-adv-x="707" 
d="M557 524q64 0 101.5 -38t37.5 -106q0 -29 -9.5 -59t-29.5 -60.5t-59 -49.5t-92 -19q-99 0 -150 83q-78 -83 -169 -83q-63 0 -101 38.5t-38 104.5q0 30 10.5 61t31.5 60.5t60 48.5t89 19q98 0 149 -83q80 83 169 83zM216 291q48 0 102 66q-31 68 -81 68q-32 0 -54.5 -21.5
t-22.5 -56.5q0 -28 15 -42t41 -14zM507 291q33 0 55.5 21.5t22.5 56.5q0 27 -15.5 41.5t-40.5 14.5q-28 0 -51.5 -16.5t-51.5 -49.5q31 -68 81 -68z" />
    <glyph glyph-name="emptyset.case" horiz-adv-x="601" 
d="M628 563l-85 -69q37 -50 37 -125q0 -49 -15.5 -93.5t-46.5 -82t-85 -59.5t-123 -22q-109 0 -177 51l-86 -70l-39 44l84 67q-36 51 -36 123q0 66 26.5 122.5t89.5 95.5t155 39q105 0 174 -49l89 72zM181 337q0 -29 11 -51l208 168q-32 16 -73 16q-75 0 -110.5 -40.5
t-35.5 -92.5zM456 359q0 31 -13 54l-209 -169q30 -18 75 -18q76 0 111.5 40.5t35.5 92.5z" />
    <glyph glyph-name="plus.tf.case" 
d="M639 417l-19 -108h-206l-34 -192h-119l34 192h-205l19 108h205l32 181h119l-32 -181h206z" />
    <glyph glyph-name="minus.tf.case" 
d="M89 307l20 111h530l-20 -111h-530z" />
    <glyph glyph-name="divide.tf.case" 
d="M390 479q-31 0 -51.5 20t-20.5 51q0 32 20.5 52t51.5 20t51.5 -20t20.5 -52q0 -31 -20.5 -51t-51.5 -20zM89 307l20 109h530l-20 -109h-530zM330 105q-31 0 -51 20t-20 52t20 51.5t51 19.5t51.5 -19.5t20.5 -51.5q0 -31 -20.5 -51.5t-51.5 -20.5z" />
    <glyph glyph-name="equal.tf.case" 
d="M93 406l19 106h524l-20 -106h-523zM59 214l19 106h524l-20 -106h-523z" />
    <glyph glyph-name="emptyset.tf.case" 
d="M679 567l-85 -69q37 -50 37 -125q0 -49 -15.5 -93.5t-46.5 -82t-85 -59.5t-123 -22q-109 0 -177 51l-86 -70l-39 44l84 67q-36 51 -36 123q0 66 26.5 122.5t89.5 95.5t155 39q105 0 174 -49l89 72zM232 341q0 -29 11 -51l208 168q-32 16 -73 16q-75 0 -110.5 -40.5
t-35.5 -92.5zM507 363q0 31 -13 54l-209 -169q30 -18 75 -18q76 0 111.5 40.5t35.5 92.5z" />
    <glyph glyph-name="plus.subs" horiz-adv-x="486" 
d="M426 143l-16 -87h-154l-24 -138h-95l24 138h-154l16 87h154l23 131h94l-23 -131h155z" />
    <glyph glyph-name="minus.subs" horiz-adv-x="486" 
d="M7 57l16 86h402l-15 -86h-403z" />
    </font>
</defs>
</svg>
