<svg xmlns="http://www.w3.org/2000/svg">
<defs>
<font id="GTAmerica-ExtendedLightItalic" horiz-adv-x="697" >
  <font-face 
    font-family="GT America Extended Light"
    font-weight="300"
    font-style="italic"
    font-stretch="expanded"
    units-per-em="1000"
    panose-1="0 0 4 5 0 0 0 0 0 0"
    ascent="800"
    descent="-200"
    x-height="500"
    cap-height="710"
    bbox="-473 -237 1365 937"
    underline-thickness="50"
    underline-position="-200"
    slope="-10"
    unicode-range="U+000D-FB02"
  />
<missing-glyph horiz-adv-x="1018" 
d="M1071 663h-552l-8 -47h552l-9 -48h-552l-8 -47h552l-9 -48h-552l-8 -47h552l-8 -47h-552l-9 -48h552l-8 -47h-978l75 426h978zM141 667l14 9h-16l-2 15l-7 -15h-16l12 -9l-8 -15l14 9l11 -9zM217 676h-16l12 -9l-8 -15l14 10l11 -10l-2 15l13 9h-15l-2 15zM304 676h-16
l12 -9l-8 -15l14 10l11 -10l-2 15l13 9h-15l-2 15zM390 676h-15l12 -9l-8 -15l14 10l11 -10l-2 15l13 9h-15l-2 15zM489 667l13 9h-15l-2 15l-8 -15h-15l11 -9l-7 -15l14 10l11 -10zM165 632h-15l11 -9l-7 -14l14 9l10 -9l-1 14l13 9h-15l-2 15zM437 623l14 9h-16l-1 15
l-8 -15h-15l11 -9l-8 -14l15 9l10 -9zM293 364l17 93h94l14 80h-94l16 94h-80l-16 -94h-93l-14 -80h93l-17 -93h80zM125 580l15 9h-16l-3 14l-6 -14h-16l11 -9l-7 -15l13 9l12 -9zM202 589h-16l11 -9l-7 -15l13 9l12 -9l-3 15l14 9h-15l-3 14zM375 589h-15l11 -9l-7 -15
l13 9l12 -9l-3 15l14 9h-15l-3 14zM473 580l14 9h-15l-3 14l-7 -14h-15l10 -9l-6 -15l13 9l12 -9zM110 492l15 10h-16l-3 14l-6 -14h-16l11 -10l-8 -14l14 9l11 -9zM458 492l14 10h-15l-3 14l-7 -14h-15l10 -10l-7 -14l14 9l11 -9zM94 405l15 9h-16l-2 15l-7 -15h-16l11 -9
l-7 -14l14 9l11 -9zM181 405l14 9h-15l-2 15l-7 -15h-16l11 -9l-7 -14l14 9l11 -9zM355 405l14 9h-15l-2 15l-8 -15h-15l11 -9l-7 -14l14 9l11 -9zM442 405l14 9h-15l-2 15l-8 -15h-15l10 -9l-6 -14l14 9l11 -9zM132 347l-1 15l13 9h-15l-2 14l-8 -14h-15l11 -9l-7 -15l14 9

<glyph glyph-name="fi" unicode="fi" horiz-adv-x="687" 
d="M433 500l-10 -59h-173l-78 -441h-72l78 441h-120l11 59h119l14 75q28 158 176 158q51 0 95 -16l-12 -62q-35 14 -80 14q-53 0 -76.5 -25t-33.5 -78l-11 -66h173zM566 590l19 112h83l-19 -112h-83zM470 0l88 500h71l-88 -500h-71z" />
    <glyph glyph-name="fl" unicode="fl" 
d="M433 500l-10 -59h-173l-78 -441h-72l78 441h-120l11 59h119l14 75q28 158 176 158q51 0 95 -16l-12 -62q-35 14 -80 14q-53 0 -76.5 -25t-33.5 -78l-11 -66h173zM674 725l-128 -725h-71l128 725h71z" />
    <glyph glyph-name="g_g.liga" unicode="gg" horiz-adv-x="1241" 
d="M187 196q-71 -16 -71 -63q0 -26 22.5 -36.5t73.5 -12.5l144 -3q80 -3 123.5 -30t43.5 -95q0 -166 -279 -166q-257 0 -257 131q0 85 110 118q-51 21 -51 73q0 76 108 104q-50 40 -50 110q0 78 60.5 134t182.5 56q86 0 140 -29q32 91 134 91q25 0 42 -5l-11 -63
q-18 6 -42 6q-69 0 -89 -54q41 -39 41 -102q0 -79 -60.5 -134.5t-182.5 -55.5q-77 0 -132 26zM1225 578q24 0 43 -5l-11 -63q-20 6 -43 6q-69 0 -89 -54q42 -39 42 -102q0 -79 -60.5 -134.5t-182.5 -55.5q-78 0 -133 26q-71 -16 -71 -63q0 -26 22.5 -37t74.5 -12l161 -3
q84 -3 130.5 -30t46.5 -95q0 -166 -302 -166q-245 0 -245 131q0 82 98 116q-55 23 -55 75q0 76 107 104q-49 41 -49 110q0 78 60 134t182 56q84 0 141 -30q32 92 133 92zM343 461q-89 0 -128.5 -38t-39.5 -91q0 -40 24 -65.5t55 -33.5t70 -8q88 0 128 38t40 91
q0 58 -44 82.5t-105 24.5zM928 225q88 0 128 38t40 91q0 58 -43.5 82.5t-105.5 24.5q-88 0 -128 -38t-40 -91q0 -40 24 -65.5t55 -33.5t70 -8zM349 18l-145 3q-31 0 -61 5q-85 -25 -85 -89q0 -50 50.5 -69t141.5 -19q200 0 200 102q0 38 -24 51.5t-77 15.5zM971 18l-162 3
q-21 0 -55 4q-75 -25 -75 -88q0 -50 47.5 -69t132.5 -19q223 0 223 102q0 37 -27 51t-84 16z" />
    <glyph glyph-name=".notdef" horiz-adv-x="1018" 
d="M1071 663h-552l-8 -47h552l-9 -48h-552l-8 -47h552l-9 -48h-552l-8 -47h552l-8 -47h-552l-9 -48h552l-8 -47h-978l75 426h978zM141 667l14 9h-16l-2 15l-7 -15h-16l12 -9l-8 -15l14 9l11 -9zM217 676h-16l12 -9l-8 -15l14 10l11 -10l-2 15l13 9h-15l-2 15zM304 676h-16
l12 -9l-8 -15l14 10l11 -10l-2 15l13 9h-15l-2 15zM390 676h-15l12 -9l-8 -15l14 10l11 -10l-2 15l13 9h-15l-2 15zM489 667l13 9h-15l-2 15l-8 -15h-15l11 -9l-7 -15l14 10l11 -10zM165 632h-15l11 -9l-7 -14l14 9l10 -9l-1 14l13 9h-15l-2 15zM437 623l14 9h-16l-1 15
l-8 -15h-15l11 -9l-8 -14l15 9l10 -9zM293 364l17 93h94l14 80h-94l16 94h-80l-16 -94h-93l-14 -80h93l-17 -93h80zM125 580l15 9h-16l-3 14l-6 -14h-16l11 -9l-7 -15l13 9l12 -9zM202 589h-16l11 -9l-7 -15l13 9l12 -9l-3 15l14 9h-15l-3 14zM375 589h-15l11 -9l-7 -15
l13 9l12 -9l-3 15l14 9h-15l-3 14zM473 580l14 9h-15l-3 14l-7 -14h-15l10 -9l-6 -15l13 9l12 -9zM110 492l15 10h-16l-3 14l-6 -14h-16l11 -10l-8 -14l14 9l11 -9zM458 492l14 10h-15l-3 14l-7 -14h-15l10 -10l-7 -14l14 9l11 -9zM94 405l15 9h-16l-2 15l-7 -15h-16l11 -9
l-7 -14l14 9l11 -9zM181 405l14 9h-15l-2 15l-7 -15h-16l11 -9l-7 -14l14 9l11 -9zM355 405l14 9h-15l-2 15l-8 -15h-15l11 -9l-7 -14l14 9l11 -9zM442 405l14 9h-15l-2 15l-8 -15h-15l10 -9l-6 -14l14 9l11 -9zM132 347l-1 15l13 9h-15l-2 14l-8 -14h-15l11 -9l-7 -15l14 9
zM393 347l-2 15l14 9h-16l-1 14l-8 -14h-15l11 -9l-8 -15l15 9zM81 303l-2 15l15 9h-16l-3 15l-6 -15h-16l11 -9l-8 -15l14 9zM168 303l-2 15l14 9h-15l-3 15l-6 -15h-16l11 -9l-8 -15l14 9zM255 303l-2 15l14 9h-15l-3 15l-6 -15h-16l11 -9l-8 -15l14 9zM342 303l-2 15
l14 9h-15l-3 15l-7 -15h-15l11 -9l-8 -15l14 9zM429 303l-2 15l14 9h-15l-3 15l-7 -15h-15l10 -9l-7 -15l14 9zM9 189l9 48h977l-9 -48h-977zM-7 95l8 47h978l-8 -47h-978zM-24 0l8 47h978l-8 -47h-978z" />
    <glyph glyph-name=".null" horiz-adv-x="0" 
 />
    <glyph glyph-name=".null" horiz-adv-x="0" 
 />
    <glyph glyph-name="nonmarkingreturn" horiz-adv-x="333" 
 />
    <glyph glyph-name="CR" unicode="&#xd;" horiz-adv-x="0" 
 />
    <glyph glyph-name="space" unicode=" " horiz-adv-x="335" 
 />
    <glyph glyph-name="exclam" unicode="!" horiz-adv-x="323" 
d="M124 189l75 536h93l-115 -536h-53zM184 104l-18 -104h-97l19 104h96z" />
    <glyph glyph-name="quotedbl" unicode="&#x22;" horiz-adv-x="397" 
d="M135 461l28 249h79l-58 -249h-49zM288 461l28 249h79l-58 -249h-49z" />
    <glyph glyph-name="numbersign" unicode="#" horiz-adv-x="650" 
d="M661 431h-144l-32 -166h142v-56h-152l-40 -209h-66l40 209h-194l-40 -209h-65l40 209h-132v56h142l32 166h-134v55h144l40 208h66l-40 -208h193l40 208h66l-40 -208h134v-55zM419 265l32 166h-193l-32 -166h193z" />
    <glyph glyph-name="dollar" unicode="$" horiz-adv-x="722" 
d="M461 382q100 -19 148 -64t48 -127q0 -95 -72.5 -152t-226.5 -57h-21l-15 -87h-52l16 91q-118 12 -185.5 65.5t-69.5 151.5l82 11q4 -145 184 -166l50 281l-32 5q-196 37 -196 184q0 86 70.5 140.5t216.5 54.5h9l15 85h51l-15 -88q226 -21 237 -195l-79 -16
q-8 131 -169 149l-46 -256zM347 403l13 -2l44 249h-2q-203 0 -203 -125q0 -51 36 -79t112 -43zM361 45q216 0 216 140q0 58 -36.5 87.5t-113.5 42.5l-30 5l-49 -275h13z" />
    <glyph glyph-name="percent" unicode="%" horiz-adv-x="901" 
d="M115 -17l634 733h73l-635 -733h-72zM251 354q-72 0 -123 38t-51 118q0 79 50.5 141t149.5 62q73 0 124.5 -38.5t51.5 -116.5q0 -79 -51.5 -141.5t-150.5 -62.5zM251 408q69 0 104.5 45t35.5 101q0 57 -33.5 81t-79.5 24q-69 0 -104 -44.5t-35 -100.5q0 -57 33 -81.5
t79 -24.5zM655 -21q-72 0 -123 38t-51 118q0 79 50.5 141t149.5 62q73 0 124.5 -38.5t51.5 -116.5q0 -79 -51.5 -141.5t-150.5 -62.5zM655 33q69 0 104.5 45t35.5 101q0 57 -33.5 81t-79.5 24q-69 0 -104 -44.5t-35 -100.5q0 -57 33 -81.5t79 -24.5z" />
    <glyph glyph-name="ampersand" unicode="&#x26;" horiz-adv-x="744" 
d="M644 57q24 0 53 8l-12 -66q-23 -8 -62 -8q-75 0 -131 56q-97 -68 -230 -68q-43 0 -81.5 8t-77.5 26.5t-62.5 57t-23.5 92.5q0 71 46 124.5t148 95.5l8 3q-68 96 -68 173q0 71 45.5 124.5t145.5 53.5q75 0 128 -34.5t53 -115.5q0 -141 -178 -213l-18 -7l181 -224
q82 89 120 249v1l66 -9q-38 -179 -144 -288q40 -39 94 -39zM227 566q0 -66 64 -153l16 6q141 58 141 158q0 101 -107 101q-35 0 -59 -11t-35 -29.5t-15.5 -35.5t-4.5 -36zM94 170q0 -40 18.5 -67t48.5 -39t55.5 -16.5t52.5 -4.5q104 0 182 52l-195 244l-12 -5
q-150 -62 -150 -164z" />
    <glyph glyph-name="quotesingle" unicode="'" horiz-adv-x="244" 
d="M135 461l28 249h79l-58 -249h-49z" />
    <glyph glyph-name="parenleft" unicode="(" horiz-adv-x="337" 
d="M206 -134q-131 175 -131 393q0 95 24 177t67.5 145t88.5 108t102 87l51 -36q-61 -50 -102 -92.5t-80 -100.5t-58 -130t-19 -159q0 -94 25 -178.5t87 -181.5z" />
    <glyph glyph-name="parenright" unicode=")" horiz-adv-x="337" 
d="M156 776q131 -175 131 -393q0 -95 -24 -177t-67.5 -145t-88.5 -108t-102 -87l-51 36q61 50 102 92.5t80 100.5t58 130t19 159q0 94 -25 178.5t-87 181.5z" />
    <glyph glyph-name="asterisk" unicode="*" horiz-adv-x="350" 
d="M385 596l-124 -26l69 -92l-57 -38l-44 110l-84 -110l-44 41l98 89l-112 28l30 57l102 -50l8 118h63l-33 -118l119 50z" />
    <glyph glyph-name="plus" unicode="+" horiz-adv-x="622" 
d="M585 360l-11 -61h-219l-37 -208h-71l37 208h-219l11 61h218l35 196h71l-35 -196h220z" />
    <glyph glyph-name="comma" unicode="," horiz-adv-x="268" 
d="M33 -133l-13 38q61 17 73 87l1 8h-55l20 115h103l-20 -111q-12 -67 -40 -96.5t-69 -40.5z" />
    <glyph glyph-name="hyphen" unicode="-" horiz-adv-x="491" 
d="M67 311h378l-12 -66h-377z" />
    <glyph glyph-name="period" unicode="." horiz-adv-x="267" 
d="M160 111l-20 -111h-102l20 111h102z" />
    <glyph glyph-name="slash" unicode="/" horiz-adv-x="522" 
d="M52 -117h-70l513 877h71z" />
    <glyph glyph-name="zero" unicode="0" horiz-adv-x="742" 
d="M357 -19q-58 0 -107 16t-90.5 49.5t-65.5 94t-24 141.5q0 57 10.5 113.5t37 115t65 103t99.5 72.5t137 28q58 0 107.5 -16t91 -49.5t65 -93.5t23.5 -142q0 -56 -10.5 -113t-37 -115.5t-65 -103t-99.5 -72.5t-137 -28zM357 44q61 0 109.5 24.5t78 62.5t49.5 89t28 99.5
t8 97.5q0 66 -18.5 114t-50.5 73t-67 36t-75 11q-61 0 -109.5 -24.5t-78 -62.5t-49.5 -89t-28 -99.5t-8 -97.5q0 -66 18.5 -114t50.5 -73t67 -36t75 -11z" />
    <glyph glyph-name="one" unicode="1" horiz-adv-x="422" 
d="M172 0l100 564q-46 -64 -160 -64h-35l12 68h24q74 0 123 34t69 93h64l-123 -695h-74z" />
    <glyph glyph-name="two" unicode="2" horiz-adv-x="649" 
d="M-4 0l12 66q228 100 377 205q78 56 120 112.5t42 125.5q0 141 -179 141q-195 0 -199 -179q0 -6 0.5 -18t0.5 -16l-75 8q-2 21 -1 37q0 43 15 82.5t46 74t87 55t130 20.5q51 0 94 -10t80.5 -32t59 -62t21.5 -94q0 -88 -52 -154.5t-149 -136.5q-121 -84 -284 -157h422
l-12 -68h-556z" />
    <glyph glyph-name="three" unicode="3" horiz-adv-x="680" 
d="M329 -19q-43 0 -81.5 6t-76.5 21t-66 39t-46.5 63t-20.5 89l76 9q15 -164 216 -164q106 0 154.5 43.5t48.5 109.5q0 132 -172 132h-66l11 62h74q91 0 138.5 37.5t47.5 101.5q0 121 -182 121q-194 0 -214 -172l-69 14q13 101 83.5 161t201.5 60q50 0 93 -8.5t81 -27.5
t60.5 -55t22.5 -85q0 -73 -49 -120.5t-134 -57.5q66 -9 107.5 -48t41.5 -114q0 -90 -68 -153.5t-212 -63.5z" />
    <glyph glyph-name="four" unicode="4" horiz-adv-x="647" 
d="M618 183h-137l-32 -183h-71l32 183h-408l9 52l479 460h82l-80 -453h136zM477 539q12 63 19 95h-2q-22 -35 -67 -77l-251 -242q-52 -51 -79 -73h323z" />
    <glyph glyph-name="five" unicode="5" horiz-adv-x="664" 
d="M312 -19q-105 0 -180.5 45.5t-90.5 148.5l79 11q24 -141 197 -141q63 0 108 18.5t67.5 50t32.5 65t10 71.5q0 48 -15.5 81.5t-42.5 50.5t-55 24t-61 7q-82 0 -130.5 -33t-80.5 -96l-72 7l113 404h461l-11 -65h-406l-77 -264q29 50 86 80t133 30q42 0 80.5 -10t75 -33
t58 -67.5t21.5 -106.5q0 -117 -75 -197.5t-225 -80.5z" />
    <glyph glyph-name="six" unicode="6" horiz-adv-x="693" 
d="M386 466q48 0 90.5 -12.5t79.5 -37.5t58.5 -69.5t21.5 -103.5q0 -109 -72 -185.5t-211 -76.5q-57 0 -105 15t-89.5 48t-65.5 95t-24 148q0 59 10.5 115.5t36 114t63.5 100.5t99.5 70t137.5 27q44 0 84 -9t78 -29t64 -58t32 -91l-75 -16q-25 140 -183 140
q-68 0 -119.5 -26t-82 -72t-47 -99.5t-22.5 -118.5q32 63 95.5 97t145.5 34zM356 44q107 0 155.5 58t48.5 138q0 48 -17 82t-46 50.5t-58.5 23.5t-62.5 7q-83 0 -143.5 -40t-88.5 -113q7 -112 66.5 -159t145.5 -47z" />
    <glyph glyph-name="seven" unicode="7" horiz-adv-x="581" 
d="M133 0l3 20q25 170 126 326t277 281h-447l12 68h537l-11 -59q-175 -118 -280.5 -276.5t-128.5 -331.5l-3 -28h-85z" />
    <glyph glyph-name="eight" unicode="8" horiz-adv-x="691" 
d="M473 368q155 -48 155 -176q0 -91 -72 -151t-227 -60q-58 0 -108 10t-92 31t-66.5 59t-24.5 90q0 73 51 125.5t158 69.5q-123 46 -123 156q0 36 13.5 68t42.5 61t85 46t132 17q49 0 93 -8.5t85 -27t65 -54t24 -83.5q0 -65 -47 -110.5t-144 -62.5zM201 529q0 -94 132 -125
l71 -17q103 20 143.5 55.5t40.5 88.5q0 38 -18 64.5t-48.5 39t-59.5 17.5t-61 5q-60 0 -102.5 -12t-62 -33t-27.5 -40.5t-8 -42.5zM334 43q120 0 168.5 41t48.5 102q0 105 -143 140l-83 18q-208 -29 -208 -164q0 -40 19.5 -68.5t52.5 -42.5t68.5 -20t76.5 -6z" />
    <glyph glyph-name="nine" unicode="9" horiz-adv-x="698" 
d="M375 714q56 0 103.5 -14t90.5 -46t67.5 -94.5t24.5 -150.5q0 -54 -6 -104t-27.5 -112t-57 -106.5t-100 -75t-151.5 -30.5q-45 0 -86 8.5t-81 28.5t-66.5 60t-31.5 95l76 17q4 -43 23.5 -73.5t48.5 -45.5t57 -21t58 -6q63 0 111.5 21.5t77 55t47 80.5t25.5 90t9 92
q-72 -127 -244 -127q-48 0 -90.5 12t-79 36t-58 66.5t-21.5 98.5q0 46 14.5 87.5t45.5 78t88 58t133 21.5zM354 319q87 0 145.5 39t85.5 105q-21 188 -207 188q-61 0 -104 -16.5t-64.5 -44t-30.5 -56t-9 -61.5q0 -84 54 -119t130 -35z" />
    <glyph glyph-name="colon" unicode=":" horiz-adv-x="267" 
d="M228 500l-20 -111h-102l20 111h102zM160 111l-20 -111h-102l20 111h102z" />
    <glyph glyph-name="semicolon" unicode=";" horiz-adv-x="278" 
d="M231 500l-20 -111h-102l20 111h102zM43 -133l-13 38q61 17 73 87l1 8h-55l20 115h103l-20 -111q-12 -67 -40 -96.5t-69 -40.5z" />
    <glyph glyph-name="less" unicode="&#x3c;" horiz-adv-x="744" 
d="M633 85l-466 211l11 60l540 211l-11 -72l-451 -174l389 -172z" />
    <glyph glyph-name="equal" unicode="=" horiz-adv-x="621" 
d="M81 388l12 67h508l-12 -67h-508zM48 203l12 67h508l-12 -67h-508z" />
    <glyph glyph-name="greater" unicode="&#x3e;" horiz-adv-x="745" 
d="M138 567l466 -211l-11 -60l-540 -211l11 72l451 174l-389 172z" />
    <glyph glyph-name="question" unicode="?" horiz-adv-x="585" 
d="M230 178l6 40q9 52 32 85.5t73 56.5l80 35q106 50 106 146q0 37 -15.5 64t-42.5 41t-56 20t-63 6q-60 0 -102 -15.5t-62.5 -42.5t-29 -54.5t-8.5 -59.5q0 -24 3 -42l-77 9q-3 18 -3 43q0 38 13.5 75t43 72.5t87 57t135.5 21.5q68 0 123 -16t94.5 -59t39.5 -110
q0 -136 -153 -206l-72 -33q-36 -18 -51.5 -42t-21.5 -61l-5 -31h-74zM189 0l18 106h95l-18 -106h-95z" />
    <glyph glyph-name="at" unicode="@" horiz-adv-x="942" 
d="M446 -105q-72 0 -138.5 19t-126 58.5t-95.5 111t-36 165.5q0 59 13 114.5t46 111t83 96.5t130 66.5t181 25.5q83 0 152.5 -17.5t127 -55t90.5 -104t33 -156.5q0 -111 -49 -184.5t-141 -73.5q-51 0 -79.5 23.5t-30.5 66.5q-27 -44 -79.5 -71.5t-118.5 -27.5q-38 0 -71.5 9
t-61 37.5t-27.5 73.5q0 123 189 133l185 8l2 16q7 62 -26.5 86.5t-91.5 24.5q-40 0 -68 -7.5t-42.5 -22t-20.5 -27.5t-11 -33h-66q26 144 208 144q40 0 72 -8t60.5 -27t40 -58t2.5 -94l-17 -102q-8 -46 5 -69t51 -23q43 0 73 32t41.5 76t11.5 95q0 81 -30 139t-81.5 88.5
t-108 43.5t-122.5 13q-89 0 -159.5 -23t-113 -59t-70.5 -84.5t-38.5 -95.5t-10.5 -96q0 -66 20.5 -119.5t54 -87t78 -56.5t89 -32.5t90.5 -9.5q106 0 208 33l14 -48q-98 -38 -220 -38zM415 116q74 0 128.5 36.5t64.5 95.5l5 30l-171 -8q-125 -7 -125 -83q0 -71 98 -71z" />
    <glyph glyph-name="A" unicode="A" horiz-adv-x="771" 
d="M626 0l-50 193h-391l-118 -193h-88l449 710h78l199 -710h-79zM225 260h334l-71 275q-20 59 -28 105h-2q-15 -30 -65 -105z" />
    <glyph glyph-name="B" unicode="B" horiz-adv-x="775" 
d="M573 364q126 -23 126 -155q0 -93 -65 -151t-198 -58h-368l124 710h335q101 0 156 -43.5t55 -123.5q0 -72 -41.5 -118.5t-123.5 -60.5zM521 643h-261l-43 -246h263q96 0 136.5 38t40.5 97q0 111 -136 111zM435 67q185 0 185 144q0 119 -147 119h-268l-46 -263h276z" />
    <glyph glyph-name="C" unicode="C" horiz-adv-x="809" 
d="M402 -21q-71 0 -130.5 17t-108 53t-76 99.5t-27.5 150.5q0 64 14 124t46.5 116.5t80 98.5t119 67.5t159.5 25.5q136 0 223.5 -62t98.5 -196l-82 -7q-9 101 -74 149t-170 48q-88 0 -155 -32.5t-104 -86.5t-54.5 -114t-17.5 -125q0 -74 22 -127t60.5 -80t81.5 -38.5
t95 -11.5q209 0 275 188l78 -13q-84 -244 -354 -244z" />
    <glyph glyph-name="D" unicode="D" horiz-adv-x="831" 
d="M67 0l125 710h275q72 0 131.5 -16.5t107.5 -51.5t75 -97t27 -145q0 -79 -25 -149t-75.5 -127t-137.5 -90.5t-200 -33.5h-303zM158 67h213q99 0 171 29t110 78t55 103.5t17 116.5q0 70 -21 120.5t-59 77.5t-82.5 39t-98.5 12h-204z" />
    <glyph glyph-name="E" unicode="E" horiz-adv-x="724" 
d="M713 643h-453l-43 -246h436l-12 -66h-436l-46 -264h459l-11 -67h-539l125 710h532z" />
    <glyph glyph-name="F" unicode="F" horiz-adv-x="691" 
d="M713 643h-453l-43 -246h436l-12 -67h-436l-58 -330h-79l125 710h532z" />
    <glyph glyph-name="G" unicode="G" horiz-adv-x="837" 
d="M382 -21q-65 0 -121 17t-102.5 53t-73 99t-26.5 147q0 64 14.5 124.5t47 117.5t80 99.5t120 68.5t160.5 26q132 0 216.5 -56.5t101.5 -167.5l-82 -13q-15 88 -79.5 129t-163.5 41q-72 0 -129.5 -22t-95 -58.5t-62.5 -85t-35.5 -99t-10.5 -103.5q0 -133 69 -191t181 -58
q89 0 157 35.5t102 85t44 106.5l5 27h-271l12 67h343l-65 -368h-60l14 131q-40 -73 -115 -112.5t-175 -39.5z" />
    <glyph glyph-name="H" unicode="H" horiz-adv-x="858" 
d="M827 710l-125 -710h-79l58 330h-476l-58 -330h-79l125 710h79l-55 -313h476l55 313h79z" />
    <glyph glyph-name="I" unicode="I" horiz-adv-x="303" 
d="M147 0h-79l125 710h79z" />
    <glyph glyph-name="J" unicode="J" horiz-adv-x="438" 
d="M336 193q-20 -114 -80.5 -161.5t-159.5 -47.5q-63 0 -119 17l14 73q53 -16 106 -16q67 0 108 33t55 113l89 506h79z" />
    <glyph glyph-name="K" unicode="K" horiz-adv-x="771" 
d="M800 710l-338 -273l237 -437h-93l-206 385l-215 -169l-38 -216h-79l125 710h79l-69 -395l492 395h105z" />
    <glyph glyph-name="L" unicode="L" horiz-adv-x="648" 
d="M68 0l125 710h79l-113 -642h430l-12 -68h-509z" />
    <glyph glyph-name="M" unicode="M" horiz-adv-x="1003" 
d="M68 0l125 710h113l151 -579q8 -33 8 -55h3q5 15 28 55l357 579h119l-125 -710h-73l102 575q6 39 14 66h-3q-25 -49 -35 -66l-358 -575h-76l-154 575q-6 26 -9 66h-4q-1 -25 -9 -66l-101 -575h-73z" />
    <glyph glyph-name="N" unicode="N" horiz-adv-x="853" 
d="M68 0l125 710h93l316 -550q28 -52 38 -76h2q4 34 13 86l96 540h71l-125 -710h-88l-320 555q-27 51 -37 76h-3q-3 -31 -12 -83l-97 -548h-72z" />
    <glyph glyph-name="O" unicode="O" horiz-adv-x="855" 
d="M414 -21q-57 0 -107 10t-96 34.5t-79 61t-52.5 92.5t-19.5 126q0 79 24 152t72 136.5t131 101.5t191 38q71 0 132 -17t112 -53.5t80.5 -101.5t29.5 -152q0 -79 -24 -152t-72 -136.5t-131 -101.5t-191 -38zM417 46q72 0 129.5 22t94.5 57.5t61.5 83t35 96t10.5 98.5
q0 74 -23.5 127t-64 81t-86 40.5t-99.5 12.5q-72 0 -129.5 -22t-94.5 -58t-61.5 -83.5t-35 -95.5t-10.5 -98q0 -74 23.5 -127t64 -81t86 -40.5t99.5 -12.5z" />
    <glyph glyph-name="P" unicode="P" horiz-adv-x="717" 
d="M498 710q104 0 171 -44.5t67 -145.5q0 -35 -9 -67.5t-30 -63t-53 -53t-82.5 -36t-113.5 -13.5h-251l-51 -287h-79l125 710h306zM443 354q61 0 104.5 14.5t65 39.5t30.5 51t9 57q0 127 -157 127h-235l-51 -289h234z" />
    <glyph glyph-name="Q" unicode="Q" horiz-adv-x="860" 
d="M565 2q35 -65 132 -65q33 0 65 6l-12 -71q-44 -6 -62 -6q-147 0 -195 119q-36 -6 -79 -6q-57 0 -107 10t-96 34.5t-79 61t-52.5 92.5t-19.5 126q0 79 24 152t72 136.5t131 101.5t191 38q71 0 132 -17t112 -53.5t80.5 -101.5t29.5 -152q0 -63 -15.5 -123.5t-46.5 -116
t-84 -99.5t-121 -66zM144 307q0 -74 23.5 -127t64 -81t86 -40.5t99.5 -12.5q72 0 129.5 22t94.5 57.5t61.5 83t35 96t10.5 98.5q0 74 -23.5 127t-64 81t-86 40.5t-99.5 12.5q-72 0 -129.5 -22t-94.5 -58t-61.5 -83.5t-35 -95.5t-10.5 -98z" />
    <glyph glyph-name="R" unicode="R" horiz-adv-x="762" 
d="M737 525q0 -83 -50.5 -142.5t-161.5 -76.5l143 -306h-93l-138 300h-238l-53 -300h-79l125 710h314q104 0 167.5 -44t63.5 -141zM447 367q112 0 159 44t47 112q0 120 -151 120h-242l-49 -276h236z" />
    <glyph glyph-name="S" unicode="S" horiz-adv-x="735" 
d="M366 -21q-155 0 -243 59t-89 181l83 12q6 -185 254 -185q107 0 160.5 37.5t53.5 106.5q0 57 -34 84t-110 40l-123 21q-201 39 -201 189q0 91 72.5 149t221.5 58q135 0 217 -51t88 -163l-81 -16q-6 89 -63 127t-160 38q-114 0 -162 -39t-48 -97q0 -52 37 -81.5t111 -42.5
l123 -22q99 -19 148 -62.5t49 -127.5q0 -96 -73 -155.5t-231 -59.5z" />
    <glyph glyph-name="T" unicode="T" horiz-adv-x="648" 
d="M719 710l-12 -67h-274l-113 -643h-80l114 643h-275l12 67h628z" />
    <glyph glyph-name="U" unicode="U" horiz-adv-x="816" 
d="M173 710h80l-74 -412q-23 -127 34.5 -188t177.5 -61q126 0 183 61.5t77 175.5l76 424h79l-79 -442q-24 -135 -103 -211.5t-239 -76.5q-161 0 -236.5 82.5t-46.5 244.5z" />
    <glyph glyph-name="V" unicode="V" horiz-adv-x="703" 
d="M264 0l-179 710h83l135 -552q12 -52 13 -82h3q17 38 43 82l330 552h88l-429 -710h-87z" />
    <glyph glyph-name="W" unicode="W" horiz-adv-x="1063" 
d="M191 0l-84 710h80l62 -592q2 -38 2 -40h3q5 16 18 40l299 592h80l90 -592q4 -23 4 -40h2q2 5 8 19l9 21l271 592h84l-335 -710h-96l-86 577q-4 30 -3 40h-3q-3 -12 -17 -40l-290 -577h-98z" />
    <glyph glyph-name="X" unicode="X" horiz-adv-x="732" 
d="M-29 0l368 372l-221 338h94l159 -250q18 -29 22 -40h2q9 13 35 39l246 251h98l-338 -342l237 -368h-96l-169 271q-23 40 -26 50h-2q-17 -22 -43 -50l-266 -271h-100z" />
    <glyph glyph-name="Y" unicode="Y" horiz-adv-x="682" 
d="M256 0l48 275l-221 435h89l161 -321q15 -29 19 -47h2q9 18 35 47l275 321h97l-377 -435l-48 -275h-80z" />
    <glyph glyph-name="Z" unicode="Z" horiz-adv-x="681" 
d="M13 70l594 573h-475l12 67h573l-12 -69l-596 -574h512l-11 -67h-609z" />
    <glyph glyph-name="bracketleft" unicode="[" horiz-adv-x="361" 
d="M47 -117l155 877h219l-11 -59h-153l-134 -759h153l-10 -59h-219z" />
    <glyph glyph-name="backslash" unicode="\" horiz-adv-x="832" 
d="M650 -117l-514 877h71l513 -877h-70z" />
    <glyph glyph-name="bracketright" unicode="]" horiz-adv-x="361" 
d="M339 760l-155 -877h-219l11 59h153l134 759h-153l10 59h219z" />
    <glyph glyph-name="asciicircum" unicode="^" horiz-adv-x="464" 
d="M284 709h57l136 -270h-64l-104 211l-178 -211h-78z" />
    <glyph glyph-name="underscore" unicode="_" horiz-adv-x="514" 
d="M-61 -97h514l-9 -52h-514z" />
    <glyph glyph-name="grave" unicode="`" horiz-adv-x="600" 
d="M353 580h-72l-169 146h91z" />
    <glyph glyph-name="a" unicode="a" horiz-adv-x="656" 
d="M234 -15q-92 0 -145 36.5t-53 107.5q0 64 47 105q56 50 186 57l239 12l3 19q12 69 -28 102t-127 33q-167 0 -190 -116h-75q15 84 83.5 129t182.5 45q125 0 183.5 -52t38.5 -164l-21 -123q-18 -102 -18 -176h-74q2 56 11 105q-78 -120 -243 -120zM246 43q105 0 169.5 50
t77.5 125l7 34l-213 -11q-174 -12 -174 -108q0 -90 133 -90z" />
    <glyph glyph-name="b" unicode="b" horiz-adv-x="708" 
d="M371 -15q-170 0 -223 119l-28 -104h-58l128 725h70l-58 -328q33 52 89.5 85t132.5 33q43 0 83 -11.5t76 -36t58 -70t22 -106.5q0 -43 -10 -84.5t-33 -82t-56 -71t-83 -49.5t-110 -19zM356 48q64 0 111.5 24t72 62t35.5 77t11 78t-11.5 69t-29 47.5t-42 28.5t-47 14.5
t-46.5 3.5q-88 0 -150 -47t-77 -119l-8 -37q-19 -90 30.5 -145.5t150.5 -55.5z" />
    <glyph glyph-name="c" unicode="c" horiz-adv-x="631" 
d="M304 -15q-51 0 -95 11.5t-82.5 36.5t-60.5 72t-22 111q0 53 15.5 103t49 95.5t95.5 73t144 27.5q99 0 169 -43.5t80 -140.5l-74 -9q-8 72 -57.5 101.5t-116.5 29.5q-53 0 -94.5 -15.5t-66 -39.5t-40.5 -56.5t-22 -62.5t-6 -61q0 -92 52.5 -131.5t133.5 -39.5
q143 0 192 129l71 -11q-61 -180 -265 -180z" />
    <glyph glyph-name="d" unicode="d" horiz-adv-x="708" 
d="M288 -15q-45 0 -85.5 12t-77 37t-58 71t-21.5 108q0 55 17 107t50.5 96.5t91 71.5t130.5 27q77 0 136 -30.5t86 -92.5l58 333h71l-128 -725h-68l18 103q-68 -118 -220 -118zM307 47q92 0 150 51t71 122l4 24q19 100 -40 154.5t-154 54.5q-57 0 -101 -22t-68 -58.5
t-35.5 -75.5t-11.5 -80q0 -49 16.5 -84t45 -53t58.5 -25.5t65 -7.5z" />
    <glyph glyph-name="e" unicode="e" horiz-adv-x="646" 
d="M587 232h-471v-9q0 -97 56 -136.5t140 -39.5q76 0 121 28t74 84l59 -27q-74 -147 -254 -147q-47 0 -89.5 10t-85 34t-68 71.5t-25.5 114.5q0 56 17 107t52 95.5t95.5 71t139.5 26.5q111 0 181 -50.5t70 -153.5q0 -41 -12 -79zM347 460q-95 0 -151 -47t-73 -124h402
q4 15 4 34q0 37 -16 65t-43 43t-57.5 22t-65.5 7z" />
    <glyph glyph-name="f" unicode="f" horiz-adv-x="412" 
d="M433 500l-10 -59h-173l-78 -441h-72l78 441h-120l11 59h119l14 75q28 158 176 158q51 0 95 -16l-12 -62q-35 14 -80 14q-53 0 -76.5 -25t-33.5 -78l-11 -66h173z" />
    <glyph glyph-name="g" unicode="g" horiz-adv-x="637" 
d="M622 578q24 0 42 -5l-11 -63q-18 6 -42 6q-69 0 -89 -54q41 -39 41 -102q0 -78 -60 -134t-183 -56q-81 0 -134 26q-70 -15 -70 -63q0 -25 22.5 -36t72.5 -13l163 -3q84 -3 130.5 -30t46.5 -94q0 -167 -302 -167q-262 0 -262 131q0 86 112 117q-53 23 -53 74q0 77 108 104
q-50 40 -50 110q0 78 60.5 133.5t182.5 55.5q86 0 140 -29q33 92 135 92zM324 225q89 0 128.5 37.5t39.5 90.5q0 59 -43.5 83t-105.5 24q-89 0 -128.5 -37.5t-39.5 -90.5q0 -59 43.5 -83t105.5 -24zM368 18l-164 3q-31 0 -59 5q-87 -25 -87 -89q0 -26 15 -44t43.5 -27.5
t61 -13t76.5 -3.5q224 0 224 102q0 38 -27.5 52t-82.5 15z" />
    <glyph glyph-name="h" unicode="h" horiz-adv-x="700" 
d="M63 0l128 725h71l-59 -338q27 56 82 92t139 36q87 0 143.5 -46t56.5 -145q0 -36 -9 -80l-43 -244h-71l44 249q6 30 6 64q0 75 -42 107t-108 32q-53 0 -94 -18t-67 -49.5t-41 -67.5t-23 -80l-42 -237h-71z" />
    <glyph glyph-name="i" unicode="i" horiz-adv-x="275" 
d="M154 590l19 112h83l-19 -112h-83zM58 0l88 500h71l-88 -500h-71z" />
    <glyph glyph-name="j" unicode="j" horiz-adv-x="281" 
d="M158 590l19 112h83l-19 -112h-83zM-32 -203q-41 0 -78 13l11 62q36 -11 62 -11q42 0 63 23t29 75l96 541h72l-98 -550q-13 -78 -48.5 -115.5t-108.5 -37.5z" />
    <glyph glyph-name="k" unicode="k" horiz-adv-x="633" 
d="M633 500l-252 -190l180 -310h-85l-150 269l-165 -116l-27 -153h-71l128 725h71l-86 -487l358 262h99z" />
    <glyph glyph-name="l" unicode="l" horiz-adv-x="285" 
d="M262 725l-128 -725h-71l128 725h71z" />
    <glyph glyph-name="m" unicode="m" horiz-adv-x="1011" 
d="M58 0l88 500h69l-19 -108q54 124 187 124q64 0 111 -32t57 -103q60 135 202 135q27 0 51 -4.5t49 -17.5t43 -32.5t29.5 -52.5t11.5 -75q0 -30 -8 -73l-47 -261h-71l47 261q5 28 5 60q0 71 -36.5 101.5t-90.5 30.5q-149 0 -186 -201l-45 -252h-71l47 259q5 29 5 62
q0 73 -36.5 102.5t-89.5 29.5q-150 0 -187 -203l-44 -250h-71z" />
    <glyph glyph-name="n" unicode="n" horiz-adv-x="695" 
d="M58 0l88 500h69l-22 -119q28 59 83 96.5t140 37.5q28 0 54 -4.5t53.5 -17.5t47.5 -34t33 -57t13 -83q0 -40 -8 -80l-42 -239h-71l44 244q6 34 6 63q0 80 -44 112.5t-110 32.5q-52 0 -93 -18.5t-66 -51t-40 -69t-23 -79.5l-41 -234h-71z" />
    <glyph glyph-name="o" unicode="o" horiz-adv-x="660" 
d="M312 -15q-53 0 -98.5 12t-84.5 37t-62 72t-23 110q0 55 17 106t51.5 95.5t95.5 71t140 26.5q53 0 98.5 -12t84.5 -37t62 -72t23 -110q0 -55 -17 -106t-51.5 -95.5t-95.5 -71t-140 -26.5zM316 47q61 0 106.5 22t70 57.5t36 74t11.5 79.5q0 48 -16.5 83t-45.5 54t-62 27.5
t-72 8.5q-61 0 -106.5 -22t-70 -57.5t-36 -74t-11.5 -79.5q0 -48 16.5 -83t45.5 -54t62 -27.5t72 -8.5z" />
    <glyph glyph-name="p" unicode="p" horiz-adv-x="703" 
d="M23 -195l123 695h69l-20 -110q29 53 85.5 89t137.5 36q44 0 84 -11.5t76.5 -36t58 -70t21.5 -106.5q0 -54 -17 -106t-50 -98t-91.5 -74t-132.5 -28q-174 0 -221 115l-52 -295h-71zM351 48q64 0 111.5 23.5t72 62t36 77.5t11.5 78t-11.5 69t-29 47.5t-42 28.5t-47 14.5
t-46.5 3.5q-92 0 -154 -52.5t-76 -126.5l-7 -34q-16 -85 31.5 -138t150.5 -53z" />
    <glyph glyph-name="q" unicode="q" horiz-adv-x="703" 
d="M453 -195l52 298q-29 -57 -85 -87.5t-131 -30.5q-46 0 -87.5 12t-77.5 37.5t-57.5 71t-21.5 106.5q0 55 17 107t51 96.5t91.5 72t130.5 27.5q79 0 138.5 -30t85.5 -89l32 104h56l-123 -695h-71zM306 47q91 0 149.5 50.5t72.5 122.5l4 24q19 100 -40 154.5t-154 54.5
q-57 0 -101 -22.5t-68 -59t-35.5 -76t-11.5 -79.5q0 -48 16.5 -83t44.5 -52.5t58.5 -25.5t64.5 -8z" />
    <glyph glyph-name="r" unicode="r" horiz-adv-x="414" 
d="M187 356q28 75 74.5 116t123.5 41q31 0 53 -6l-13 -70q-24 6 -51 6q-70 0 -115 -38q-67 -57 -91 -189l-39 -216h-71l88 500h67z" />
    <glyph glyph-name="s" unicode="s" horiz-adv-x="600" 
d="M286 -15q-236 0 -256 174l72 14q8 -73 58 -101t130 -28q163 0 163 96q0 33 -19.5 49.5t-65.5 24.5l-141 18q-143 23 -143 130q0 69 59.5 111t170.5 42q221 0 245 -155l-71 -18q-10 47 -38.5 74t-59.5 34t-75 7q-159 0 -159 -89q0 -32 21 -49.5t70 -24.5l145 -20
q134 -22 134 -131q0 -72 -59.5 -115t-180.5 -43z" />
    <glyph glyph-name="t" unicode="t" horiz-adv-x="432" 
d="M53 441l11 59h120l24 132l77 31l-29 -163h179l-11 -59h-178l-47 -262q-13 -72 13 -97t76 -25q36 0 71 7l-12 -63q-39 -11 -80 -11q-78 0 -117.5 46.5t-19.5 152.5l44 252h-121z" />
    <glyph glyph-name="u" unicode="u" horiz-adv-x="686" 
d="M268 -15q-35 0 -66.5 7.5t-61.5 25t-48 53.5t-18 86q0 27 11 104l42 239h71l-43 -244q-9 -61 -9 -84q0 -67 40.5 -96t102.5 -29q186 0 227 219l41 234h71l-88 -500h-68l21 119q-60 -134 -225 -134z" />
    <glyph glyph-name="v" unicode="v" horiz-adv-x="571" 
d="M203 0l-151 500h77l110 -373q7 -30 10 -59h3q13 29 32 59l241 373h82l-327 -500h-77z" />
    <glyph glyph-name="w" unicode="w" horiz-adv-x="888" 
d="M160 0l-93 500h70l65 -382q3 -28 5 -54h2q7 18 25 54l211 382h81l74 -382q6 -48 6 -54h3q10 27 23 54l201 382h76l-270 -500h-80l-76 385q-2 12 -5 51h-2q-10 -28 -23 -51l-210 -385h-83z" />
    <glyph glyph-name="x" unicode="x" horiz-adv-x="579" 
d="M-27 0l272 258l-170 242h87l106 -154q24 -36 29 -49h1q6 8 43 49l159 154h92l-255 -245l181 -255h-85l-117 165q-19 29 -28 50h-1q-11 -14 -47 -51l-169 -164h-98z" />
    <glyph glyph-name="y" unicode="y" horiz-adv-x="569" 
d="M35 -203q-39 0 -72 11l11 64q27 -11 65 -11q46 0 81.5 23.5t68.5 79.5l21 38l-158 498h78l113 -371q8 -30 13 -61h2q11 25 33 61l233 371h81l-353 -557q-56 -89 -103 -117.5t-114 -28.5z" />
    <glyph glyph-name="z" unicode="z" horiz-adv-x="573" 
d="M15 57l445 383h-364l11 60h455l-10 -55l-446 -384h394l-11 -61h-485z" />
    <glyph glyph-name="braceleft" unicode="{" horiz-adv-x="360" 
d="M229 -118q-170 0 -140 169l27 150q4 29 4.5 51t-16.5 35t-55 14l10 56q55 1 73 22.5t27 73.5l29 165q13 71 53.5 110.5t133.5 39.5h44l-10 -54h-27q-65 0 -92 -26.5t-36 -78.5l-27 -151q-9 -53 -30.5 -84.5t-65.5 -43.5q40 -14 50.5 -53t-1.5 -83l-26 -150
q-6 -34 -0.5 -57t21.5 -33.5t31.5 -14t36.5 -3.5h31l-9 -54h-36z" />
    <glyph glyph-name="bar" unicode="|" horiz-adv-x="275" 
d="M42 -117l155 877h61l-155 -877h-61z" />
    <glyph glyph-name="braceright" unicode="}" horiz-adv-x="360" 
d="M157 768q170 0 140 -169l-27 -150q-4 -29 -4.5 -51t16.5 -35t55 -14l-10 -56q-55 -1 -73 -22.5t-27 -73.5l-29 -165q-13 -71 -53.5 -110.5t-133.5 -39.5h-44l10 54h27q65 0 92 26.5t36 78.5l27 151q9 53 30.5 84.5t65.5 43.5q-40 14 -50.5 53t1.5 83l26 150q6 34 0.5 57
t-21.5 33.5t-31.5 14t-36.5 3.5h-31l9 54h36z" />
    <glyph glyph-name="asciitilde" unicode="~" 
d="M462 234q-36 0 -66 13.5t-47.5 29.5t-42.5 29.5t-51 13.5q-71 0 -98 -78l-56 8q17 63 59 95.5t95 32.5q35 0 65.5 -13.5t48 -29.5t42.5 -29.5t51 -13.5q35 0 59 17.5t39 60.5l56 -8q-17 -63 -59 -95.5t-95 -32.5z" />
    <glyph glyph-name="uni00A0" unicode="&#xa0;" horiz-adv-x="335" 
 />
    <glyph glyph-name="exclamdown" unicode="&#xa1;" horiz-adv-x="323" 
d="M153 476l18 104h97l-19 -104h-96zM213 391l-75 -536h-93l115 536h53z" />
    <glyph glyph-name="cent" unicode="&#xa2;" horiz-adv-x="650" 
d="M325 43q80 2 125 35t67 92l69 -12q-64 -172 -271 -173l-14 -78h-51l14 80q-97 10 -158.5 64t-61.5 163q0 53 16 103t50 96t97.5 74t148.5 28h1l14 78h51l-14 -81q83 -9 140 -51.5t66 -124.5l-71 -9q-15 113 -145 128zM118 218q0 -154 156 -173l73 412q-55 -1 -97 -18
t-66.5 -42t-40 -58t-20.5 -62t-5 -59z" />
    <glyph glyph-name="sterling" unicode="&#xa3;" horiz-adv-x="698" 
d="M451 52q63 0 96.5 26.5t46.5 84.5l65 -12q-16 -82 -71 -125.5t-138 -43.5q-44 0 -121.5 15.5t-139.5 15.5q-87 0 -195 -20l-7 53q96 26 144.5 81t48.5 164q0 8 -0.5 23t-0.5 22h-118l10 53h104q0 7 -0.5 19.5t-0.5 19.5q0 285 263 285q108 0 170 -41.5t71 -123.5l-77 -19
q-13 122 -164 122q-47 0 -81 -12.5t-53.5 -31.5t-31 -50t-15 -61.5t-3.5 -71.5q0 -6 0.5 -18t0.5 -17h241l-9 -53h-228q1 -10 1 -29q0 -103 -35.5 -158.5t-115.5 -86.5q50 13 106 13t126.5 -11.5t110.5 -11.5z" />
    <glyph glyph-name="currency" unicode="&#xa4;" horiz-adv-x="609" 
d="M565 321q0 -110 -73 -179l42 -56l-40 -32l-44 57q-60 -34 -141 -34q-107 0 -175 55l-66 -60l-29 31l66 59q-39 50 -39 123q0 109 72 178l-44 59l40 31l46 -59q60 35 142 35q105 0 172 -52l64 57l29 -31l-63 -57q41 -51 41 -125zM304 137q101 0 148 53t47 128
q0 79 -49.5 115t-122.5 36q-101 0 -148 -53t-47 -128q0 -78 49.5 -114.5t122.5 -36.5z" />
    <glyph glyph-name="yen" unicode="&#xa5;" horiz-adv-x="668" 
d="M744 695l-355 -378h226l-10 -51h-232l-11 -64h233l-10 -51h-232l-26 -151h-75l26 151h-231l9 51h231l11 64h-231l9 51h225l-221 378h83l134 -230q33 -54 51 -101h3q30 40 87 101l215 230h91z" />
    <glyph glyph-name="brokenbar" unicode="&#xa6;" horiz-adv-x="274" 
d="M257 760l-67 -378h-60l67 378h60zM169 261l-67 -378h-60l67 378h60z" />
    <glyph glyph-name="section" unicode="&#xa7;" horiz-adv-x="598" 
d="M418 437q134 -39 134 -140q0 -89 -90 -137q32 -37 32 -92q0 -75 -58.5 -122.5t-186.5 -47.5q-61 0 -112 12.5t-91 49.5t-41 96l69 12q6 -110 177 -110q170 0 170 104q0 64 -83 93l-143 40q-64 20 -100 51.5t-36 84.5q0 88 97 127q-41 35 -41 94q0 70 56.5 117.5
t173.5 47.5q60 0 109.5 -12.5t86 -46.5t37.5 -85l-73 -16q-5 102 -156 102q-161 0 -161 -97q0 -32 21.5 -53t72.5 -38zM424 192q56 36 56 93q0 36 -23.5 56t-82.5 41l-142 38q-5 1 -10 3t-11 4l-9 3q-71 -28 -71 -89q0 -32 25.5 -52.5t93.5 -42.5l125 -32q31 -10 49 -22z
" />
    <glyph glyph-name="dieresis" unicode="&#xa8;" horiz-adv-x="600" 
d="M51 594l19 108h86l-19 -108h-86zM301 594l19 108h85l-19 -108h-85z" />
    <glyph glyph-name="copyright" unicode="&#xa9;" horiz-adv-x="899" 
d="M448 -21q-53 0 -105 10.5t-103.5 35.5t-90.5 62.5t-63 97t-24 133.5q0 58 12.5 113t43 110.5t77 96.5t121 67t167.5 26q53 0 104.5 -10t103.5 -35t91 -62.5t63.5 -97.5t24.5 -134q0 -58 -12.5 -113.5t-43.5 -110.5t-78 -96.5t-121 -67t-167 -25.5zM445 20
q83 0 149.5 23.5t108.5 61t70.5 87t40 99t11.5 100.5q0 63 -21 114.5t-55 85t-79 56.5t-91 33t-94 10q-102 0 -179 -35t-118.5 -92t-61 -118.5t-19.5 -125.5q0 -77 31 -137t81.5 -94t108 -51t117.5 -17zM455 142q-85 0 -144 44.5t-59 143.5q0 43 12.5 83t38.5 76t74 58
t112 22q78 0 131.5 -35t60.5 -109l-58 -7q-6 54 -44 77.5t-89 23.5q-50 0 -86.5 -18t-55 -47t-26.5 -59.5t-8 -63.5q1 -74 41 -106t101 -32q112 0 147 99l55 -8q-44 -142 -203 -142z" />
    <glyph glyph-name="ordfeminine" unicode="&#xaa;" horiz-adv-x="515" 
d="M236 299q-65 0 -105 26t-40 79q0 110 188 119l155 7l1 11q9 52 -18.5 75.5t-87.5 23.5q-113 0 -128 -77h-70q23 123 199 123q96 0 140.5 -39.5t30.5 -122.5l-16 -91q-13 -74 -13 -123h-68q2 46 9 80q-49 -91 -177 -91zM258 344q67 0 112 33t54 88l5 29l-138 -6
q-128 -6 -128 -78q0 -66 95 -66z" />
    <glyph glyph-name="guillemotleft" unicode="&#xab;" horiz-adv-x="554" 
d="M202 67l-162 208l238 208h86l-240 -213l157 -203h-79zM407 67l-162 208l238 208h86l-240 -213l157 -203h-79z" />
    <glyph glyph-name="logicalnot" unicode="&#xac;" horiz-adv-x="738" 
d="M140 367h500l-42 -236h-67l30 170h-433z" />
    <glyph glyph-name="registered" unicode="&#xae;" horiz-adv-x="899" 
d="M483 731q53 0 104.5 -10t103.5 -35t91 -62.5t63.5 -97.5t24.5 -134q0 -58 -12.5 -113.5t-43.5 -110.5t-78 -96.5t-121 -67t-167 -25.5q-53 0 -105 10.5t-103.5 35.5t-90.5 62.5t-63 97t-24 133.5q0 58 12.5 113t43 110.5t77 96.5t121 67t167.5 26zM445 20
q83 0 149.5 23.5t108.5 61t70.5 87t40 99t11.5 100.5q0 63 -21 114.5t-55 85t-79 56.5t-91 33t-94 10q-102 0 -179 -35t-118.5 -92t-61 -118.5t-19.5 -125.5q0 -77 31 -137t81.5 -94t108 -51t117.5 -17zM527 562q143 0 143 -108q0 -43 -28.5 -78t-92.5 -47l80 -173h-62
l-73 171h-125l-31 -171h-57l72 406h174zM508 375q104 0 104 76q0 37 -23 50t-64 13h-123l-25 -139h131z" />
    <glyph glyph-name="macron" unicode="&#xaf;" horiz-adv-x="600" 
d="M50 617l10 55h358l-9 -55h-359z" />
    <glyph glyph-name="degree" unicode="&#xb0;" horiz-adv-x="450" 
d="M261 345q-80 0 -128.5 44.5t-48.5 118.5q0 37 12 72.5t35.5 66.5t64 50.5t92.5 19.5q78 0 127.5 -43t49.5 -120q0 -80 -51 -144.5t-153 -64.5zM261 406q64 0 100.5 43t36.5 102q0 53 -31 79t-79 26q-64 0 -100.5 -43t-36.5 -102q0 -53 31.5 -79t78.5 -26z" />
    <glyph glyph-name="plusminus" unicode="&#xb1;" horiz-adv-x="760" 
d="M434 360h219l-11 -61h-219l-30 -167h-71l30 167h-218l11 61h218l30 169h71zM82 0l11 67h509l-12 -67h-508z" />
    <glyph glyph-name="acute" unicode="&#xb4;" horiz-adv-x="600" 
d="M49 580l150 146h91l-169 -146h-72z" />
    <glyph glyph-name="uni00B5" unicode="&#xb5;" horiz-adv-x="705" 
d="M576 500h71l-88 -500h-68l21 119q-60 -134 -225 -134q-107 0 -157 59l-42 -239h-63l77 443q0 2 0.5 6.5t1.5 6.5l42 239h71l-43 -244q-9 -61 -9 -84q0 -67 40.5 -96t102.5 -29q186 0 227 219z" />
    <glyph glyph-name="paragraph" unicode="&#xb6;" horiz-adv-x="776" 
d="M348 361q-39 0 -76.5 7t-76 23.5t-62.5 49.5t-24 79q0 200 297 200h375l-8 -50h-119l-137 -770h-58l137 770h-135l-136 -770h-58z" />
    <glyph glyph-name="periodcentered" unicode="&#xb7;" horiz-adv-x="267" 
d="M210 398l-20 -111h-102l20 111h102z" />
    <glyph glyph-name="cedilla" unicode="&#xb8;" horiz-adv-x="600" 
d="M149 6h47l-52 -60q17 13 50 13q35 0 56 -18t21 -49q0 -40 -33 -65t-82 -25q-92 0 -107 62l52 8q9 -31 54 -31q26 0 42.5 12.5t16.5 36.5q0 37 -49 37q-27 0 -47 -16l-33 10z" />
    <glyph glyph-name="ordmasculine" unicode="&#xba;" horiz-adv-x="526" 
d="M292 299q-39 0 -73 8.5t-64.5 27t-48 53t-17.5 81.5q0 88 57.5 152.5t173.5 64.5q39 0 73 -8.5t64.5 -27t48 -53t17.5 -81.5q0 -87 -57.5 -152t-173.5 -65zM295 349q80 0 118.5 51t38.5 116q0 63 -38.5 91.5t-96.5 28.5q-80 0 -119 -51t-39 -116q0 -63 39 -91.5t97 -28.5
z" />
    <glyph glyph-name="guillemotright" unicode="&#xbb;" horiz-adv-x="555" 
d="M156 483l162 -208l-238 -208h-86l240 213l-157 203h79zM361 483l162 -208l-238 -208h-86l240 213l-157 203h79z" />
    <glyph glyph-name="onequarter" unicode="&#xbc;" horiz-adv-x="856" 
d="M55 -17l628 744h68l-628 -744h-68zM150 328l54 294q-12 -18 -39 -29t-56 -11h-23l9 56h18q87 0 116 72h53l-67 -382h-65zM800 93h-85l-17 -93h-64l17 93h-243l7 43l285 246h66l-44 -244h85zM699 333l-225 -195h186z" />
    <glyph glyph-name="onehalf" unicode="&#xbd;" horiz-adv-x="904" 
d="M55 -17l628 744h68l-628 -744h-68zM150 328l54 294q-12 -18 -39 -29t-56 -11h-23l9 56h18q87 0 116 72h53l-67 -382h-65zM477 0l7 43q168 80 219 114q89 59 89 117q0 71 -95 71q-56 0 -83.5 -26.5t-20.5 -73.5l-64 5q-5 67 39.5 105t133.5 38q41 0 73.5 -8.5t58.5 -34.5
t26 -69q0 -36 -23 -69t-68 -63.5t-86 -52t-102 -49.5h247l-7 -47h-344z" />
    <glyph glyph-name="threequarters" unicode="&#xbe;" horiz-adv-x="1003" 
d="M202 -17l628 744h68l-628 -744h-68zM255 318q-181 0 -183 126l66 4q3 -84 115 -84q51 0 77.5 20.5t26.5 54.5q0 30 -24 48t-71 18h-34l6 37h35q50 0 79 18t29 53q0 32 -28 47t-68 15q-105 0 -116 -84l-63 4q6 58 51 92t129 34q40 0 74 -7.5t61.5 -30.5t27.5 -60
q0 -45 -33 -70.5t-87 -30.5q45 -4 71.5 -26t26.5 -61q0 -52 -42.5 -84.5t-125.5 -32.5zM947 93h-85l-17 -93h-64l17 93h-243l7 43l285 246h66l-44 -244h85zM846 333l-225 -195h186z" />
    <glyph glyph-name="questiondown" unicode="&#xbf;" horiz-adv-x="582" 
d="M407 580l-18 -106h-95l18 106h95zM366 402l-6 -40q-9 -52 -32 -85.5t-73 -56.5l-80 -35q-106 -50 -106 -146q0 -37 15.5 -64t42.5 -41t56 -20t63 -6q60 0 102 15.5t62.5 42.5t29 54.5t8.5 59.5q0 24 -3 42l77 -9q3 -18 3 -43q0 -38 -13.5 -75t-43 -72.5t-87 -57
t-135.5 -21.5q-68 0 -123 16t-94.5 59t-39.5 110q0 136 153 206l72 33q36 18 51.5 42t21.5 61l5 31h74z" />
    <glyph glyph-name="Agrave" unicode="&#xc0;" horiz-adv-x="771" 
d="M516 756h-75l-148 104h87zM626 0l-50 193h-391l-118 -193h-88l449 710h78l199 -710h-79zM225 260h334l-71 275q-20 59 -28 105h-2q-15 -30 -65 -105z" />
    <glyph glyph-name="Aacute" unicode="&#xc1;" horiz-adv-x="771" 
d="M661 860l-148 -104h-75l136 104h87zM626 0l-50 193h-391l-118 -193h-88l449 710h78l199 -710h-79zM225 260h334l-71 275q-20 59 -28 105h-2q-15 -30 -65 -105z" />
    <glyph glyph-name="Acircumflex" unicode="&#xc2;" horiz-adv-x="771" 
d="M492 829l-99 -73h-83l140 104h88l103 -104h-76zM626 0l-50 193h-391l-118 -193h-88l449 710h78l199 -710h-79zM225 260h334l-71 275q-20 59 -28 105h-2q-15 -30 -65 -105z" />
    <glyph glyph-name="Atilde" unicode="&#xc3;" horiz-adv-x="771" 
d="M407 810q-52 0 -69 -54l-49 9q27 99 117 99q42 0 84 -29.5t72 -29.5q52 0 67 54l50 -9q-29 -99 -117 -99q-43 0 -84.5 29.5t-70.5 29.5zM626 0l-50 193h-391l-118 -193h-88l449 710h78l199 -710h-79zM225 260h334l-71 275q-20 59 -28 105h-2q-15 -30 -65 -105z" />
    <glyph glyph-name="Adieresis" unicode="&#xc4;" horiz-adv-x="771" 
d="M406 855l-17 -99h-86l17 99h86zM665 855l-17 -99h-86l17 99h86zM626 0l-50 193h-391l-118 -193h-88l449 710h78l199 -710h-79zM225 260h334l-71 275q-20 59 -28 105h-2q-15 -30 -65 -105z" />
    <glyph glyph-name="Aring" unicode="&#xc5;" horiz-adv-x="771" 
d="M480 738q-47 0 -73 24.5t-26 64.5q0 48 33.5 79t82.5 31q47 0 73.5 -24t26.5 -65q0 -48 -33.5 -79t-83.5 -31zM497 896q-32 0 -49 -18.5t-17 -50.5q0 -22 13 -35t37 -13q32 0 49 19t17 50q0 22 -13 35t-37 13zM626 0l-50 193h-391l-118 -193h-88l449 710h78l199 -710h-79
zM225 260h334l-71 275q-20 59 -28 105h-2q-15 -30 -65 -105z" />
    <glyph glyph-name="AE" unicode="&#xc6;" horiz-adv-x="1220" 
d="M1209 643h-458l-44 -246h441l-12 -66h-441l-46 -264h465l-12 -67h-544l30 171h-345l-157 -171h-89l665 710h558zM600 238l70 398l-365 -398h295z" />
    <glyph glyph-name="Ccedilla" unicode="&#xc7;" horiz-adv-x="809" 
d="M403 48q209 0 275 188l78 -13q-84 -244 -354 -244h-7l-29 -34q17 13 50 13q35 0 56 -18t21 -49q0 -40 -33 -65t-82 -25q-92 0 -107 62l52 8q9 -31 54 -31q26 0 42.5 12.5t16.5 36.5q0 37 -49 37q-27 0 -47 -16l-33 10l46 61q-132 11 -212.5 88t-80.5 230q0 64 14 124
t46.5 116.5t80 98.5t119 67.5t159.5 25.5q136 0 223.5 -62t98.5 -196l-82 -7q-9 101 -74 149t-170 48q-88 0 -155 -32.5t-104 -86.5t-54.5 -114t-17.5 -125q0 -74 22 -127t60.5 -80t81.5 -38.5t95 -11.5z" />
    <glyph glyph-name="Egrave" unicode="&#xc8;" horiz-adv-x="724" 
d="M518 756h-75l-148 104h87zM713 643h-453l-43 -246h436l-12 -66h-436l-46 -264h459l-11 -67h-539l125 710h532z" />
    <glyph glyph-name="Eacute" unicode="&#xc9;" horiz-adv-x="724" 
d="M663 860l-148 -104h-75l136 104h87zM713 643h-453l-43 -246h436l-12 -66h-436l-46 -264h459l-11 -67h-539l125 710h532z" />
    <glyph glyph-name="Ecircumflex" unicode="&#xca;" horiz-adv-x="724" 
d="M494 829l-99 -73h-83l140 104h88l103 -104h-76zM713 643h-453l-43 -246h436l-12 -66h-436l-46 -264h459l-11 -67h-539l125 710h532z" />
    <glyph glyph-name="Edieresis" unicode="&#xcb;" horiz-adv-x="724" 
d="M408 855l-17 -99h-86l17 99h86zM667 855l-17 -99h-86l17 99h86zM713 643h-453l-43 -246h436l-12 -66h-436l-46 -264h459l-11 -67h-539l125 710h532z" />
    <glyph glyph-name="Igrave" unicode="&#xcc;" horiz-adv-x="303" 
d="M273 756h-70l-101 104h79zM147 0h-79l125 710h79z" />
    <glyph glyph-name="Iacute" unicode="&#xcd;" horiz-adv-x="303" 
d="M207 756l92 104h79l-101 -104h-70zM147 0h-79l125 710h79z" />
    <glyph glyph-name="Icircumflex" unicode="&#xce;" horiz-adv-x="303" 
d="M366 756h-69l-39 72l-65 -72h-76l99 104h87zM147 0h-79l125 710h79z" />
    <glyph glyph-name="Idieresis" unicode="&#xcf;" horiz-adv-x="303" 
d="M122 756l17 99h86l-17 -99h-86zM275 756l17 99h86l-17 -99h-86zM147 0h-79l125 710h79z" />
    <glyph glyph-name="Eth" unicode="&#xd0;" horiz-adv-x="834" 
d="M467 710q72 0 131.5 -16.5t107.5 -51.5t75 -97t27 -145q0 -79 -25 -149t-75.5 -127t-137.5 -90.5t-200 -33.5h-303l60 339h-111l11 61h110l55 310h275zM371 67q99 0 171 29t110 78t55 103.5t17 116.5q0 70 -21 120.5t-59 77.5t-82.5 39t-98.5 12h-204l-43 -243h225
l-10 -61h-225l-48 -272h213z" />
    <glyph glyph-name="Ntilde" unicode="&#xd1;" horiz-adv-x="853" 
d="M603 751q-43 0 -84.5 29.5t-70.5 29.5q-52 0 -69 -54l-49 9q27 99 117 99q43 0 84 -29.5t72 -29.5q52 0 67 54l50 -9q-29 -99 -117 -99zM68 0l125 710h93l316 -550q28 -52 38 -76h2q4 34 13 86l96 540h71l-125 -710h-88l-320 555q-27 51 -37 76h-3q-3 -31 -12 -83
l-97 -548h-72z" />
    <glyph glyph-name="Ograve" unicode="&#xd2;" horiz-adv-x="855" 
d="M543 756h-75l-148 104h87zM414 -21q-57 0 -107 10t-96 34.5t-79 61t-52.5 92.5t-19.5 126q0 79 24 152t72 136.5t131 101.5t191 38q71 0 132 -17t112 -53.5t80.5 -101.5t29.5 -152q0 -79 -24 -152t-72 -136.5t-131 -101.5t-191 -38zM417 46q72 0 129.5 22t94.5 57.5
t61.5 83t35 96t10.5 98.5q0 74 -23.5 127t-64 81t-86 40.5t-99.5 12.5q-72 0 -129.5 -22t-94.5 -58t-61.5 -83.5t-35 -95.5t-10.5 -98q0 -74 23.5 -127t64 -81t86 -40.5t99.5 -12.5z" />
    <glyph glyph-name="Oacute" unicode="&#xd3;" horiz-adv-x="855" 
d="M465 756l136 104h87l-148 -104h-75zM414 -21q-57 0 -107 10t-96 34.5t-79 61t-52.5 92.5t-19.5 126q0 79 24 152t72 136.5t131 101.5t191 38q71 0 132 -17t112 -53.5t80.5 -101.5t29.5 -152q0 -79 -24 -152t-72 -136.5t-131 -101.5t-191 -38zM417 46q72 0 129.5 22
t94.5 57.5t61.5 83t35 96t10.5 98.5q0 74 -23.5 127t-64 81t-86 40.5t-99.5 12.5q-72 0 -129.5 -22t-94.5 -58t-61.5 -83.5t-35 -95.5t-10.5 -98q0 -74 23.5 -127t64 -81t86 -40.5t99.5 -12.5z" />
    <glyph glyph-name="Ocircumflex" unicode="&#xd4;" horiz-adv-x="855" 
d="M668 756h-76l-73 73l-99 -73h-83l140 104h88zM414 -21q-57 0 -107 10t-96 34.5t-79 61t-52.5 92.5t-19.5 126q0 79 24 152t72 136.5t131 101.5t191 38q71 0 132 -17t112 -53.5t80.5 -101.5t29.5 -152q0 -79 -24 -152t-72 -136.5t-131 -101.5t-191 -38zM417 46
q72 0 129.5 22t94.5 57.5t61.5 83t35 96t10.5 98.5q0 74 -23.5 127t-64 81t-86 40.5t-99.5 12.5q-72 0 -129.5 -22t-94.5 -58t-61.5 -83.5t-35 -95.5t-10.5 -98q0 -74 23.5 -127t64 -81t86 -40.5t99.5 -12.5z" />
    <glyph glyph-name="Otilde" unicode="&#xd5;" horiz-adv-x="855" 
d="M589 751q-43 0 -84.5 29.5t-70.5 29.5q-52 0 -69 -54l-49 9q27 99 117 99q43 0 84 -29.5t72 -29.5q52 0 67 54l50 -9q-29 -99 -117 -99zM414 -21q-57 0 -107 10t-96 34.5t-79 61t-52.5 92.5t-19.5 126q0 79 24 152t72 136.5t131 101.5t191 38q71 0 132 -17t112 -53.5
t80.5 -101.5t29.5 -152q0 -79 -24 -152t-72 -136.5t-131 -101.5t-191 -38zM417 46q72 0 129.5 22t94.5 57.5t61.5 83t35 96t10.5 98.5q0 74 -23.5 127t-64 81t-86 40.5t-99.5 12.5q-72 0 -129.5 -22t-94.5 -58t-61.5 -83.5t-35 -95.5t-10.5 -98q0 -74 23.5 -127t64 -81
t86 -40.5t99.5 -12.5z" />
    <glyph glyph-name="Odieresis" unicode="&#xd6;" horiz-adv-x="855" 
d="M330 756l17 99h86l-17 -99h-86zM589 756l17 99h86l-17 -99h-86zM414 -21q-57 0 -107 10t-96 34.5t-79 61t-52.5 92.5t-19.5 126q0 79 24 152t72 136.5t131 101.5t191 38q71 0 132 -17t112 -53.5t80.5 -101.5t29.5 -152q0 -79 -24 -152t-72 -136.5t-131 -101.5t-191 -38z
M417 46q72 0 129.5 22t94.5 57.5t61.5 83t35 96t10.5 98.5q0 74 -23.5 127t-64 81t-86 40.5t-99.5 12.5q-72 0 -129.5 -22t-94.5 -58t-61.5 -83.5t-35 -95.5t-10.5 -98q0 -74 23.5 -127t64 -81t86 -40.5t99.5 -12.5z" />
    <glyph glyph-name="multiply" unicode="&#xd7;" horiz-adv-x="764" 
d="M682 518l-238 -191l171 -191l-55 -47l-173 193l-240 -193l-39 47l238 191l-171 191l56 47l172 -192l239 192z" />
    <glyph glyph-name="Oslash" unicode="&#xd8;" horiz-adv-x="855" 
d="M853 685l-82 -74q61 -79 61 -204q0 -79 -24 -152t-72 -136.5t-131 -101.5t-191 -38q-163 0 -257 81l-81 -73l-38 38l82 74q-60 79 -60 204q0 79 24 152t72 136.5t131 101.5t191 38q162 0 256 -81l80 72zM144 307q0 -93 38 -153l494 444q-71 66 -201 66q-72 0 -129.5 -22
t-94.5 -58t-61.5 -83.5t-35 -95.5t-10.5 -98zM748 403q0 94 -38 154l-494 -445q70 -66 201 -66q72 0 129.5 22t94.5 57.5t61.5 83t35 96t10.5 98.5z" />
    <glyph glyph-name="Ugrave" unicode="&#xd9;" horiz-adv-x="816" 
d="M539 756h-75l-148 104h87zM173 710h80l-74 -412q-23 -127 34.5 -188t177.5 -61q126 0 183 61.5t77 175.5l76 424h79l-79 -442q-24 -135 -103 -211.5t-239 -76.5q-161 0 -236.5 82.5t-46.5 244.5z" />
    <glyph glyph-name="Uacute" unicode="&#xda;" horiz-adv-x="816" 
d="M461 756l136 104h87l-148 -104h-75zM173 710h80l-74 -412q-23 -127 34.5 -188t177.5 -61q126 0 183 61.5t77 175.5l76 424h79l-79 -442q-24 -135 -103 -211.5t-239 -76.5q-161 0 -236.5 82.5t-46.5 244.5z" />
    <glyph glyph-name="Ucircumflex" unicode="&#xdb;" horiz-adv-x="816" 
d="M664 756h-76l-73 73l-99 -73h-83l140 104h88zM173 710h80l-74 -412q-23 -127 34.5 -188t177.5 -61q126 0 183 61.5t77 175.5l76 424h79l-79 -442q-24 -135 -103 -211.5t-239 -76.5q-161 0 -236.5 82.5t-46.5 244.5z" />
    <glyph glyph-name="Udieresis" unicode="&#xdc;" horiz-adv-x="816" 
d="M326 756l17 99h86l-17 -99h-86zM585 756l17 99h86l-17 -99h-86zM173 710h80l-74 -412q-23 -127 34.5 -188t177.5 -61q126 0 183 61.5t77 175.5l76 424h79l-79 -442q-24 -135 -103 -211.5t-239 -76.5q-161 0 -236.5 82.5t-46.5 244.5z" />
    <glyph glyph-name="Yacute" unicode="&#xdd;" horiz-adv-x="682" 
d="M393 756l136 104h87l-148 -104h-75zM256 0l48 275l-221 435h89l161 -321q15 -29 19 -47h2q9 18 35 47l275 321h97l-377 -435l-48 -275h-80z" />
    <glyph glyph-name="Thorn" unicode="&#xde;" horiz-adv-x="668" 
d="M438 578q99 0 162.5 -44t63.5 -138q0 -109 -75 -168t-212 -59h-201l-30 -169h-79l125 710h79l-23 -132h190zM369 236q110 0 160.5 39t50.5 119q0 117 -152 117h-192l-48 -275h181z" />
    <glyph glyph-name="germandbls" unicode="&#xdf;" horiz-adv-x="700" 
d="M352 -9q-88 0 -139 17l10 59q47 -17 131 -17q210 0 210 165q0 73 -51.5 109t-144.5 36h-88l10 59h85q203 0 203 147q0 114 -153 114q-98 0 -146 -43.5t-64 -139.5l-88 -497h-72l89 502q20 115 86 175t195 60q110 0 170.5 -42t60.5 -129q0 -70 -51 -120t-141 -55
q83 -8 129 -52t46 -124q0 -103 -72.5 -163.5t-214.5 -60.5z" />
    <glyph glyph-name="agrave" unicode="&#xe0;" horiz-adv-x="656" 
d="M420 580h-72l-169 146h91zM234 -15q-92 0 -145 36.5t-53 107.5q0 64 47 105q56 50 186 57l239 12l3 19q12 69 -28 102t-127 33q-167 0 -190 -116h-75q15 84 83.5 129t182.5 45q125 0 183.5 -52t38.5 -164l-21 -123q-18 -102 -18 -176h-74q2 56 11 105q-78 -120 -243 -120
zM246 43q105 0 169.5 50t77.5 125l7 34l-213 -11q-174 -12 -174 -108q0 -90 133 -90z" />
    <glyph glyph-name="aacute" unicode="&#xe1;" horiz-adv-x="656" 
d="M341 580l150 146h91l-169 -146h-72zM234 -15q-92 0 -145 36.5t-53 107.5q0 64 47 105q56 50 186 57l239 12l3 19q12 69 -28 102t-127 33q-167 0 -190 -116h-75q15 84 83.5 129t182.5 45q125 0 183.5 -52t38.5 -164l-21 -123q-18 -102 -18 -176h-74q2 56 11 105
q-78 -120 -243 -120zM246 43q105 0 169.5 50t77.5 125l7 34l-213 -11q-174 -12 -174 -108q0 -90 133 -90z" />
    <glyph glyph-name="acircumflex" unicode="&#xe2;" horiz-adv-x="656" 
d="M550 580h-68l-83 111l-123 -111h-74l161 146h78zM234 -15q-92 0 -145 36.5t-53 107.5q0 64 47 105q56 50 186 57l239 12l3 19q12 69 -28 102t-127 33q-167 0 -190 -116h-75q15 84 83.5 129t182.5 45q125 0 183.5 -52t38.5 -164l-21 -123q-18 -102 -18 -176h-74
q2 56 11 105q-78 -120 -243 -120zM246 43q105 0 169.5 50t77.5 125l7 34l-213 -11q-174 -12 -174 -108q0 -90 133 -90z" />
    <glyph glyph-name="atilde" unicode="&#xe3;" horiz-adv-x="656" 
d="M471 587q-31 0 -56 11t-39.5 24.5t-34.5 24.5t-42 11q-57 0 -74 -63l-50 8q15 53 47.5 82t76.5 29q39 0 67.5 -18t52.5 -36t52 -18q57 0 75 63l49 -8q-15 -53 -47.5 -81.5t-76.5 -28.5zM234 -15q-92 0 -145 36.5t-53 107.5q0 64 47 105q56 50 186 57l239 12l3 19
q12 69 -28 102t-127 33q-167 0 -190 -116h-75q15 84 83.5 129t182.5 45q125 0 183.5 -52t38.5 -164l-21 -123q-18 -102 -18 -176h-74q2 56 11 105q-78 -120 -243 -120zM246 43q105 0 169.5 50t77.5 125l7 34l-213 -11q-174 -12 -174 -108q0 -90 133 -90z" />
    <glyph glyph-name="adieresis" unicode="&#xe4;" horiz-adv-x="656" 
d="M211 594l19 108h86l-19 -108h-86zM461 594l19 108h85l-19 -108h-85zM234 -15q-92 0 -145 36.5t-53 107.5q0 64 47 105q56 50 186 57l239 12l3 19q12 69 -28 102t-127 33q-167 0 -190 -116h-75q15 84 83.5 129t182.5 45q125 0 183.5 -52t38.5 -164l-21 -123
q-18 -102 -18 -176h-74q2 56 11 105q-78 -120 -243 -120zM246 43q105 0 169.5 50t77.5 125l7 34l-213 -11q-174 -12 -174 -108q0 -90 133 -90z" />
    <glyph glyph-name="aring" unicode="&#xe5;" horiz-adv-x="656" 
d="M370 559q-55 0 -86.5 24.5t-31.5 65.5q0 48 37 78.5t96 30.5q55 0 87 -25t32 -65q0 -48 -37 -78.5t-97 -30.5zM370 599q41 0 62.5 19t21.5 50q0 22 -18 36t-51 14q-40 0 -62 -19t-22 -50q0 -22 18.5 -36t50.5 -14zM234 -15q-92 0 -145 36.5t-53 107.5q0 64 47 105
q56 50 186 57l239 12l3 19q12 69 -28 102t-127 33q-167 0 -190 -116h-75q15 84 83.5 129t182.5 45q125 0 183.5 -52t38.5 -164l-21 -123q-18 -102 -18 -176h-74q2 56 11 105q-78 -120 -243 -120zM246 43q105 0 169.5 50t77.5 125l7 34l-213 -11q-174 -12 -174 -108
q0 -90 133 -90z" />
    <glyph glyph-name="ae" unicode="&#xe6;" horiz-adv-x="1050" 
d="M557 232l-2 -8q-6 -90 39.5 -133.5t130.5 -43.5q128 0 188 113l58 -27q-77 -148 -252 -148q-81 0 -141 33.5t-83 102.5q-39 -66 -109.5 -101t-162.5 -35q-87 0 -138 34.5t-51 97.5q0 69 48 108q56 46 193 53l217 10l5 31q11 70 -25.5 103.5t-123.5 33.5q-167 0 -186 -119
h-74q15 85 83 131.5t181 46.5q168 0 203 -98q81 98 223 98q105 0 166 -50.5t61 -145.5q0 -36 -12 -87h-436zM773 460q-82 0 -136.5 -46.5t-71.5 -123.5h365q4 15 4 36q0 66 -44.5 100t-116.5 34zM239 43q95 0 161 45t79 120l5 29l-208 -9q-91 -5 -128.5 -31.5t-37.5 -73.5
q0 -40 35 -60t94 -20z" />
    <glyph glyph-name="ccedilla" unicode="&#xe7;" horiz-adv-x="631" 
d="M306 47q143 0 192 129l71 -11q-60 -177 -260 -180l-34 -39q17 13 50 13q35 0 56 -18t21 -49q0 -40 -33 -65t-82 -25q-92 0 -107 62l52 8q9 -31 54 -31q26 0 42.5 12.5t16.5 36.5q0 37 -49 37q-27 0 -47 -16l-33 10l49 66q-45 4 -83 18t-70 39.5t-50 69.5t-18 102
q0 53 15.5 103t49 95.5t95.5 73t144 27.5q99 0 169 -43.5t80 -140.5l-74 -9q-8 72 -57.5 101.5t-116.5 29.5q-53 0 -94.5 -15.5t-66 -39.5t-40.5 -56.5t-22 -62.5t-6 -61q0 -92 52.5 -131.5t133.5 -39.5z" />
    <glyph glyph-name="egrave" unicode="&#xe8;" horiz-adv-x="646" 
d="M425 580h-72l-169 146h91zM587 232h-471v-9q0 -97 56 -136.5t140 -39.5q76 0 121 28t74 84l59 -27q-74 -147 -254 -147q-47 0 -89.5 10t-85 34t-68 71.5t-25.5 114.5q0 56 17 107t52 95.5t95.5 71t139.5 26.5q111 0 181 -50.5t70 -153.5q0 -41 -12 -79zM347 460
q-95 0 -151 -47t-73 -124h402q4 15 4 34q0 37 -16 65t-43 43t-57.5 22t-65.5 7z" />
    <glyph glyph-name="eacute" unicode="&#xe9;" horiz-adv-x="646" 
d="M587 726l-169 -146h-72l150 146h91zM587 232h-471v-9q0 -97 56 -136.5t140 -39.5q76 0 121 28t74 84l59 -27q-74 -147 -254 -147q-47 0 -89.5 10t-85 34t-68 71.5t-25.5 114.5q0 56 17 107t52 95.5t95.5 71t139.5 26.5q111 0 181 -50.5t70 -153.5q0 -41 -12 -79zM347 460
q-95 0 -151 -47t-73 -124h402q4 15 4 34q0 37 -16 65t-43 43t-57.5 22t-65.5 7z" />
    <glyph glyph-name="ecircumflex" unicode="&#xea;" horiz-adv-x="646" 
d="M404 691l-123 -111h-74l161 146h78l109 -146h-68zM587 232h-471v-9q0 -97 56 -136.5t140 -39.5q76 0 121 28t74 84l59 -27q-74 -147 -254 -147q-47 0 -89.5 10t-85 34t-68 71.5t-25.5 114.5q0 56 17 107t52 95.5t95.5 71t139.5 26.5q111 0 181 -50.5t70 -153.5
q0 -41 -12 -79zM347 460q-95 0 -151 -47t-73 -124h402q4 15 4 34q0 37 -16 65t-43 43t-57.5 22t-65.5 7z" />
    <glyph glyph-name="edieresis" unicode="&#xeb;" horiz-adv-x="646" 
d="M321 702l-19 -108h-86l19 108h86zM570 702l-19 -108h-85l19 108h85zM587 232h-471v-9q0 -97 56 -136.5t140 -39.5q76 0 121 28t74 84l59 -27q-74 -147 -254 -147q-47 0 -89.5 10t-85 34t-68 71.5t-25.5 114.5q0 56 17 107t52 95.5t95.5 71t139.5 26.5q111 0 181 -50.5
t70 -153.5q0 -41 -12 -79zM347 460q-95 0 -151 -47t-73 -124h402q4 15 4 34q0 37 -16 65t-43 43t-57.5 22t-65.5 7z" />
    <glyph glyph-name="igrave" unicode="&#xec;" horiz-adv-x="275" 
d="M225 580h-68l-111 146h78zM58 0l88 500h71l-88 -500h-71z" />
    <glyph glyph-name="iacute" unicode="&#xed;" horiz-adv-x="275" 
d="M163 580l101 146h78l-111 -146h-68zM58 0l88 500h71l-88 -500h-71z" />
    <glyph glyph-name="icircumflex" unicode="&#xee;" horiz-adv-x="275" 
d="M312 580h-60l-34 111l-73 -111h-65l105 147h74zM58 0l88 500h71l-88 -500h-71z" />
    <glyph glyph-name="idieresis" unicode="&#xef;" horiz-adv-x="275" 
d="M82 594l19 109h86l-19 -109h-86zM228 594l19 109h86l-19 -109h-86zM58 0l88 500h71l-88 -500h-71z" />
    <glyph glyph-name="eth" unicode="&#xf0;" horiz-adv-x="672" 
d="M630 632l-91 -23q84 -102 84 -259q0 -70 -18 -132.5t-54 -116t-100 -85t-147 -31.5q-52 0 -95.5 11.5t-81.5 36.5t-59.5 71.5t-21.5 110.5q0 54 16 104t49 93.5t93 70t138 26.5q158 0 206 -104h2q-3 110 -80 187l-190 -47l-8 40l161 40q-54 41 -129 62l48 47
q94 -32 155 -90l115 29zM311 48q62 0 109 22.5t72.5 59t38 75.5t12.5 79q0 82 -51.5 124t-142.5 42q-52 0 -92.5 -14.5t-65 -37.5t-40.5 -54t-22 -60.5t-6 -61.5q0 -95 53 -134.5t135 -39.5z" />
    <glyph glyph-name="ntilde" unicode="&#xf1;" horiz-adv-x="695" 
d="M531 587q-31 0 -56 11t-39.5 24.5t-34.5 24.5t-42 11q-57 0 -74 -63l-50 8q15 53 47.5 82t76.5 29q39 0 67.5 -18t52.5 -36t52 -18q57 0 75 63l49 -8q-15 -53 -47.5 -81.5t-76.5 -28.5zM58 0l88 500h69l-22 -119q28 59 83 96.5t140 37.5q28 0 54 -4.5t53.5 -17.5
t47.5 -34t33 -57t13 -83q0 -40 -8 -80l-42 -239h-71l44 244q6 34 6 63q0 80 -44 112.5t-110 32.5q-52 0 -93 -18.5t-66 -51t-40 -69t-23 -79.5l-41 -234h-71z" />
    <glyph glyph-name="ograve" unicode="&#xf2;" horiz-adv-x="660" 
d="M421 580h-72l-169 146h91zM312 -15q-53 0 -98.5 12t-84.5 37t-62 72t-23 110q0 55 17 106t51.5 95.5t95.5 71t140 26.5q53 0 98.5 -12t84.5 -37t62 -72t23 -110q0 -55 -17 -106t-51.5 -95.5t-95.5 -71t-140 -26.5zM316 47q61 0 106.5 22t70 57.5t36 74t11.5 79.5
q0 48 -16.5 83t-45.5 54t-62 27.5t-72 8.5q-61 0 -106.5 -22t-70 -57.5t-36 -74t-11.5 -79.5q0 -48 16.5 -83t45.5 -54t62 -27.5t72 -8.5z" />
    <glyph glyph-name="oacute" unicode="&#xf3;" horiz-adv-x="660" 
d="M342 580l150 146h91l-169 -146h-72zM312 -15q-53 0 -98.5 12t-84.5 37t-62 72t-23 110q0 55 17 106t51.5 95.5t95.5 71t140 26.5q53 0 98.5 -12t84.5 -37t62 -72t23 -110q0 -55 -17 -106t-51.5 -95.5t-95.5 -71t-140 -26.5zM316 47q61 0 106.5 22t70 57.5t36 74
t11.5 79.5q0 48 -16.5 83t-45.5 54t-62 27.5t-72 8.5q-61 0 -106.5 -22t-70 -57.5t-36 -74t-11.5 -79.5q0 -48 16.5 -83t45.5 -54t62 -27.5t72 -8.5z" />
    <glyph glyph-name="ocircumflex" unicode="&#xf4;" horiz-adv-x="660" 
d="M551 580h-68l-83 111l-123 -111h-74l161 146h78zM312 -15q-53 0 -98.5 12t-84.5 37t-62 72t-23 110q0 55 17 106t51.5 95.5t95.5 71t140 26.5q53 0 98.5 -12t84.5 -37t62 -72t23 -110q0 -55 -17 -106t-51.5 -95.5t-95.5 -71t-140 -26.5zM316 47q61 0 106.5 22t70 57.5
t36 74t11.5 79.5q0 48 -16.5 83t-45.5 54t-62 27.5t-72 8.5q-61 0 -106.5 -22t-70 -57.5t-36 -74t-11.5 -79.5q0 -48 16.5 -83t45.5 -54t62 -27.5t72 -8.5z" />
    <glyph glyph-name="otilde" unicode="&#xf5;" horiz-adv-x="660" 
d="M472 587q-31 0 -56 11t-39.5 24.5t-34.5 24.5t-42 11q-57 0 -74 -63l-50 8q15 53 47.5 82t76.5 29q39 0 67.5 -18t52.5 -36t52 -18q57 0 75 63l49 -8q-15 -53 -47.5 -81.5t-76.5 -28.5zM312 -15q-53 0 -98.5 12t-84.5 37t-62 72t-23 110q0 55 17 106t51.5 95.5t95.5 71
t140 26.5q53 0 98.5 -12t84.5 -37t62 -72t23 -110q0 -55 -17 -106t-51.5 -95.5t-95.5 -71t-140 -26.5zM316 47q61 0 106.5 22t70 57.5t36 74t11.5 79.5q0 48 -16.5 83t-45.5 54t-62 27.5t-72 8.5q-61 0 -106.5 -22t-70 -57.5t-36 -74t-11.5 -79.5q0 -48 16.5 -83t45.5 -54
t62 -27.5t72 -8.5z" />
    <glyph glyph-name="odieresis" unicode="&#xf6;" horiz-adv-x="660" 
d="M212 594l19 108h86l-19 -108h-86zM462 594l19 108h85l-19 -108h-85zM312 -15q-53 0 -98.5 12t-84.5 37t-62 72t-23 110q0 55 17 106t51.5 95.5t95.5 71t140 26.5q53 0 98.5 -12t84.5 -37t62 -72t23 -110q0 -55 -17 -106t-51.5 -95.5t-95.5 -71t-140 -26.5zM316 47
q61 0 106.5 22t70 57.5t36 74t11.5 79.5q0 48 -16.5 83t-45.5 54t-62 27.5t-72 8.5q-61 0 -106.5 -22t-70 -57.5t-36 -74t-11.5 -79.5q0 -48 16.5 -83t45.5 -54t62 -27.5t72 -8.5z" />
    <glyph glyph-name="divide" unicode="&#xf7;" horiz-adv-x="621" 
d="M350 466q-21 0 -34.5 13t-13.5 34t13.5 34t34.5 13q20 0 33.5 -13t13.5 -34t-13.5 -34t-33.5 -13zM65 295l10 63h509l-11 -63h-508zM291 93q-20 0 -33.5 13.5t-13.5 34.5t13.5 34t33.5 13t33.5 -13t13.5 -34t-13.5 -34.5t-33.5 -13.5z" />
    <glyph glyph-name="oslash" unicode="&#xf8;" horiz-adv-x="660" 
d="M644 486l-71 -60q43 -56 43 -142q0 -55 -17 -106t-51.5 -95.5t-95.5 -71t-140 -26.5q-122 0 -192 56l-68 -58l-31 31l68 58q-45 56 -45 144q0 55 17 106t51.5 95.5t95.5 71t140 26.5q125 0 195 -58l70 59zM120 220q0 -59 26 -100l341 289q-51 44 -143 44
q-61 0 -106.5 -22t-70 -57.5t-36 -74t-11.5 -79.5zM540 280q0 57 -24 97l-340 -289q51 -41 140 -41q61 0 106.5 22t70 57.5t36 74t11.5 79.5z" />
    <glyph glyph-name="ugrave" unicode="&#xf9;" horiz-adv-x="686" 
d="M437 580h-72l-169 146h91zM268 -15q-35 0 -66.5 7.5t-61.5 25t-48 53.5t-18 86q0 27 11 104l42 239h71l-43 -244q-9 -61 -9 -84q0 -67 40.5 -96t102.5 -29q186 0 227 219l41 234h71l-88 -500h-68l21 119q-60 -134 -225 -134z" />
    <glyph glyph-name="uacute" unicode="&#xfa;" horiz-adv-x="686" 
d="M358 580l150 146h91l-169 -146h-72zM268 -15q-35 0 -66.5 7.5t-61.5 25t-48 53.5t-18 86q0 27 11 104l42 239h71l-43 -244q-9 -61 -9 -84q0 -67 40.5 -96t102.5 -29q186 0 227 219l41 234h71l-88 -500h-68l21 119q-60 -134 -225 -134z" />
    <glyph glyph-name="ucircumflex" unicode="&#xfb;" horiz-adv-x="686" 
d="M567 580h-68l-83 111l-123 -111h-74l161 146h78zM268 -15q-35 0 -66.5 7.5t-61.5 25t-48 53.5t-18 86q0 27 11 104l42 239h71l-43 -244q-9 -61 -9 -84q0 -67 40.5 -96t102.5 -29q186 0 227 219l41 234h71l-88 -500h-68l21 119q-60 -134 -225 -134z" />
    <glyph glyph-name="udieresis" unicode="&#xfc;" horiz-adv-x="686" 
d="M228 594l19 108h86l-19 -108h-86zM478 594l19 108h85l-19 -108h-85zM268 -15q-35 0 -66.5 7.5t-61.5 25t-48 53.5t-18 86q0 27 11 104l42 239h71l-43 -244q-9 -61 -9 -84q0 -67 40.5 -96t102.5 -29q186 0 227 219l41 234h71l-88 -500h-68l21 119q-60 -134 -225 -134z" />
    <glyph glyph-name="yacute" unicode="&#xfd;" horiz-adv-x="569" 
d="M309 580l150 146h91l-169 -146h-72zM35 -203q-39 0 -72 11l11 64q27 -11 65 -11q46 0 81.5 23.5t68.5 79.5l21 38l-158 498h78l113 -371q8 -30 13 -61h2q11 25 33 61l233 371h81l-353 -557q-56 -89 -103 -117.5t-114 -28.5z" />
    <glyph glyph-name="thorn" unicode="&#xfe;" horiz-adv-x="708" 
d="M424 515q43 0 83 -11.5t76 -36t58 -70t22 -106.5q0 -43 -10 -84.5t-33 -82t-56 -71t-83 -49.5t-110 -19q-166 0 -220 114l-52 -294h-71l34 195l128 725h71l-57 -324q78 114 220 114zM356 48q64 0 111.5 24t72 62t35.5 77t11 78t-11.5 69t-29 47.5t-42 28.5t-47 14.5
t-46.5 3.5q-88 0 -150 -47t-77 -119l-8 -37q-19 -90 30.5 -145.5t150.5 -55.5z" />
    <glyph glyph-name="ydieresis" unicode="&#xff;" horiz-adv-x="569" 
d="M179 594l19 108h86l-19 -108h-86zM429 594l19 108h85l-19 -108h-85zM35 -203q-39 0 -72 11l11 64q27 -11 65 -11q46 0 81.5 23.5t68.5 79.5l21 38l-158 498h78l113 -371q8 -30 13 -61h2q11 25 33 61l233 371h81l-353 -557q-56 -89 -103 -117.5t-114 -28.5z" />
    <glyph glyph-name="Amacron" unicode="&#x100;" horiz-adv-x="771" 
d="M660 825l-9 -56h-346l10 56h345zM626 0l-50 193h-391l-118 -193h-88l449 710h78l199 -710h-79zM225 260h334l-71 275q-20 59 -28 105h-2q-15 -30 -65 -105z" />
    <glyph glyph-name="amacron" unicode="&#x101;" horiz-adv-x="656" 
d="M198 617l10 55h358l-9 -55h-359zM234 -15q-92 0 -145 36.5t-53 107.5q0 64 47 105q56 50 186 57l239 12l3 19q12 69 -28 102t-127 33q-167 0 -190 -116h-75q15 84 83.5 129t182.5 45q125 0 183.5 -52t38.5 -164l-21 -123q-18 -102 -18 -176h-74q2 56 11 105
q-78 -120 -243 -120zM246 43q105 0 169.5 50t77.5 125l7 34l-213 -11q-174 -12 -174 -108q0 -90 133 -90z" />
    <glyph glyph-name="Abreve" unicode="&#x102;" horiz-adv-x="771" 
d="M485 751q-144 0 -150 109h61q8 -59 89 -59q87 0 107 59h60q-14 -54 -57.5 -81.5t-109.5 -27.5zM626 0l-50 193h-391l-118 -193h-88l449 710h78l199 -710h-79zM225 260h334l-71 275q-20 59 -28 105h-2q-15 -30 -65 -105z" />
    <glyph glyph-name="abreve" unicode="&#x103;" horiz-adv-x="656" 
d="M298 726q-8 -101 94 -101q98 0 113 101h61q-24 -151 -177 -151q-78 0 -118.5 38t-33.5 113h61zM234 -15q-92 0 -145 36.5t-53 107.5q0 64 47 105q56 50 186 57l239 12l3 19q12 69 -28 102t-127 33q-167 0 -190 -116h-75q15 84 83.5 129t182.5 45q125 0 183.5 -52
t38.5 -164l-21 -123q-18 -102 -18 -176h-74q2 56 11 105q-78 -120 -243 -120zM246 43q105 0 169.5 50t77.5 125l7 34l-213 -11q-174 -12 -174 -108q0 -90 133 -90z" />
    <glyph glyph-name="Aogonek" unicode="&#x104;" horiz-adv-x="771" 
d="M590 -158q48 0 62 54l50 -8q-26 -90 -117 -90q-47 0 -73.5 20.5t-26.5 58.5q0 87 140 127l-49 189h-391l-118 -193h-88l449 710h78l199 -710h-8q-87 -25 -120.5 -52.5t-33.5 -60.5q0 -45 47 -45zM225 260h334l-71 275q-20 59 -28 105h-2q-15 -30 -65 -105z" />
    <glyph glyph-name="aogonek" unicode="&#x105;" horiz-adv-x="656" 
d="M357 515q125 0 183.5 -52t38.5 -164l-21 -123q-18 -102 -18 -176h-3q-87 -25 -120.5 -52.5t-33.5 -60.5q0 -45 47 -45q48 0 62 54l50 -8q-26 -90 -117 -90q-47 0 -73.5 20.5t-26.5 58.5q0 88 141 128q2 54 11 100q-78 -120 -243 -120q-92 0 -145 36.5t-53 107.5
q0 64 47 105q56 50 186 57l239 12l3 19q12 69 -28 102t-127 33q-167 0 -190 -116h-75q15 84 83.5 129t182.5 45zM246 43q105 0 169.5 50t77.5 125l7 34l-213 -11q-174 -12 -174 -108q0 -90 133 -90z" />
    <glyph glyph-name="Cacute" unicode="&#x106;" horiz-adv-x="809" 
d="M462 756l136 104h87l-148 -104h-75zM402 -21q-71 0 -130.5 17t-108 53t-76 99.5t-27.5 150.5q0 64 14 124t46.5 116.5t80 98.5t119 67.5t159.5 25.5q136 0 223.5 -62t98.5 -196l-82 -7q-9 101 -74 149t-170 48q-88 0 -155 -32.5t-104 -86.5t-54.5 -114t-17.5 -125
q0 -74 22 -127t60.5 -80t81.5 -38.5t95 -11.5q209 0 275 188l78 -13q-84 -244 -354 -244z" />
    <glyph glyph-name="cacute" unicode="&#x107;" horiz-adv-x="631" 
d="M338 580l150 146h91l-169 -146h-72zM304 -15q-51 0 -95 11.5t-82.5 36.5t-60.5 72t-22 111q0 53 15.5 103t49 95.5t95.5 73t144 27.5q99 0 169 -43.5t80 -140.5l-74 -9q-8 72 -57.5 101.5t-116.5 29.5q-53 0 -94.5 -15.5t-66 -39.5t-40.5 -56.5t-22 -62.5t-6 -61
q0 -92 52.5 -131.5t133.5 -39.5q143 0 192 129l71 -11q-61 -180 -265 -180z" />
    <glyph glyph-name="Ccircumflex" unicode="&#x108;" horiz-adv-x="809" 
d="M665 756h-76l-73 73l-99 -73h-83l140 104h88zM402 -21q-71 0 -130.5 17t-108 53t-76 99.5t-27.5 150.5q0 64 14 124t46.5 116.5t80 98.5t119 67.5t159.5 25.5q136 0 223.5 -62t98.5 -196l-82 -7q-9 101 -74 149t-170 48q-88 0 -155 -32.5t-104 -86.5t-54.5 -114
t-17.5 -125q0 -74 22 -127t60.5 -80t81.5 -38.5t95 -11.5q209 0 275 188l78 -13q-84 -244 -354 -244z" />
    <glyph glyph-name="ccircumflex" unicode="&#x109;" horiz-adv-x="631" 
d="M547 580h-68l-83 111l-123 -111h-74l161 146h78zM304 -15q-51 0 -95 11.5t-82.5 36.5t-60.5 72t-22 111q0 53 15.5 103t49 95.5t95.5 73t144 27.5q99 0 169 -43.5t80 -140.5l-74 -9q-8 72 -57.5 101.5t-116.5 29.5q-53 0 -94.5 -15.5t-66 -39.5t-40.5 -56.5t-22 -62.5
t-6 -61q0 -92 52.5 -131.5t133.5 -39.5q143 0 192 129l71 -11q-61 -180 -265 -180z" />
    <glyph glyph-name="Cdotaccent" unicode="&#x10a;" horiz-adv-x="809" 
d="M455 756l18 103h88l-18 -103h-88zM402 -21q-71 0 -130.5 17t-108 53t-76 99.5t-27.5 150.5q0 64 14 124t46.5 116.5t80 98.5t119 67.5t159.5 25.5q136 0 223.5 -62t98.5 -196l-82 -7q-9 101 -74 149t-170 48q-88 0 -155 -32.5t-104 -86.5t-54.5 -114t-17.5 -125
q0 -74 22 -127t60.5 -80t81.5 -38.5t95 -11.5q209 0 275 188l78 -13q-84 -244 -354 -244z" />
    <glyph glyph-name="cdotaccent" unicode="&#x10b;" horiz-adv-x="631" 
d="M331 590l19 112h83l-19 -112h-83zM304 -15q-51 0 -95 11.5t-82.5 36.5t-60.5 72t-22 111q0 53 15.5 103t49 95.5t95.5 73t144 27.5q99 0 169 -43.5t80 -140.5l-74 -9q-8 72 -57.5 101.5t-116.5 29.5q-53 0 -94.5 -15.5t-66 -39.5t-40.5 -56.5t-22 -62.5t-6 -61
q0 -92 52.5 -131.5t133.5 -39.5q143 0 192 129l71 -11q-61 -180 -265 -180z" />
    <glyph glyph-name="Ccaron" unicode="&#x10c;" horiz-adv-x="809" 
d="M342 855h76l73 -73l99 73h83l-140 -104h-88zM402 -21q-71 0 -130.5 17t-108 53t-76 99.5t-27.5 150.5q0 64 14 124t46.5 116.5t80 98.5t119 67.5t159.5 25.5q136 0 223.5 -62t98.5 -196l-82 -7q-9 101 -74 149t-170 48q-88 0 -155 -32.5t-104 -86.5t-54.5 -114
t-17.5 -125q0 -74 22 -127t60.5 -80t81.5 -38.5t95 -11.5q209 0 275 188l78 -13q-84 -244 -354 -244z" />
    <glyph glyph-name="ccaron" unicode="&#x10d;" horiz-adv-x="631" 
d="M211 720h68l83 -111l123 111h74l-161 -146h-78zM304 -15q-51 0 -95 11.5t-82.5 36.5t-60.5 72t-22 111q0 53 15.5 103t49 95.5t95.5 73t144 27.5q99 0 169 -43.5t80 -140.5l-74 -9q-8 72 -57.5 101.5t-116.5 29.5q-53 0 -94.5 -15.5t-66 -39.5t-40.5 -56.5t-22 -62.5
t-6 -61q0 -92 52.5 -131.5t133.5 -39.5q143 0 192 129l71 -11q-61 -180 -265 -180z" />
    <glyph glyph-name="Dcaron" unicode="&#x10e;" horiz-adv-x="831" 
d="M340 855h76l73 -73l99 73h83l-140 -104h-88zM67 0l125 710h275q72 0 131.5 -16.5t107.5 -51.5t75 -97t27 -145q0 -79 -25 -149t-75.5 -127t-137.5 -90.5t-200 -33.5h-303zM158 67h213q99 0 171 29t110 78t55 103.5t17 116.5q0 70 -21 120.5t-59 77.5t-82.5 39t-98.5 12
h-204z" />
    <glyph glyph-name="dcaron" unicode="&#x10f;" horiz-adv-x="708" 
d="M288 -15q-45 0 -85.5 12t-77 37t-58 71t-21.5 108q0 55 17 107t50.5 96.5t91 71.5t130.5 27q77 0 136 -30.5t86 -92.5l58 333h71l-128 -725h-68l18 103q-68 -118 -220 -118zM728 536l-12 28q28 11 39 25t15 38h-45l14 83h84l-13 -73q-7 -40 -25.5 -63.5t-56.5 -37.5z
M307 47q92 0 150 51t71 122l4 24q19 100 -40 154.5t-154 54.5q-57 0 -101 -22t-68 -58.5t-35.5 -75.5t-11.5 -80q0 -49 16.5 -84t45 -53t58.5 -25.5t65 -7.5z" />
    <glyph glyph-name="Dcroat" unicode="&#x110;" horiz-adv-x="834" 
d="M467 710q72 0 131.5 -16.5t107.5 -51.5t75 -97t27 -145q0 -79 -25 -149t-75.5 -127t-137.5 -90.5t-200 -33.5h-303l60 339h-111l11 61h110l55 310h275zM371 67q99 0 171 29t110 78t55 103.5t17 116.5q0 70 -21 120.5t-59 77.5t-82.5 39t-98.5 12h-204l-43 -243h225
l-10 -61h-225l-48 -272h213z" />
    <glyph glyph-name="dcroat" unicode="&#x111;" horiz-adv-x="708" 
d="M803 637l-8 -45h-132l-105 -592h-68l18 103q-68 -118 -220 -118q-45 0 -85.5 12t-77 37t-58 71t-21.5 108q0 55 17 107t50.5 96.5t91 71.5t130.5 27q77 0 136 -30.5t86 -92.5l35 200h-201l8 45h201l15 88h71l-16 -88h133zM532 244q19 100 -40 154.5t-154 54.5
q-57 0 -101 -22t-68 -58.5t-35.5 -75.5t-11.5 -80q0 -49 16.5 -84t45 -53t58.5 -25.5t65 -7.5q92 0 150 51t71 122z" />
    <glyph glyph-name="Emacron" unicode="&#x112;" horiz-adv-x="724" 
d="M662 825l-9 -56h-346l10 56h345zM713 643h-453l-43 -246h436l-12 -66h-436l-46 -264h459l-11 -67h-539l125 710h532z" />
    <glyph glyph-name="emacron" unicode="&#x113;" horiz-adv-x="646" 
d="M571 672l-9 -55h-359l10 55h358zM587 232h-471v-9q0 -97 56 -136.5t140 -39.5q76 0 121 28t74 84l59 -27q-74 -147 -254 -147q-47 0 -89.5 10t-85 34t-68 71.5t-25.5 114.5q0 56 17 107t52 95.5t95.5 71t139.5 26.5q111 0 181 -50.5t70 -153.5q0 -41 -12 -79zM347 460
q-95 0 -151 -47t-73 -124h402q4 15 4 34q0 37 -16 65t-43 43t-57.5 22t-65.5 7z" />
    <glyph glyph-name="Ebreve" unicode="&#x114;" horiz-adv-x="724" 
d="M487 751q-144 0 -150 109h61q8 -59 89 -59q87 0 107 59h60q-14 -54 -57.5 -81.5t-109.5 -27.5zM713 643h-453l-43 -246h436l-12 -66h-436l-46 -264h459l-11 -67h-539l125 710h532z" />
    <glyph glyph-name="ebreve" unicode="&#x115;" horiz-adv-x="646" 
d="M394 575q-78 0 -118.5 38t-33.5 113h61q-8 -101 94 -101q98 0 113 101h61q-24 -151 -177 -151zM587 232h-471v-9q0 -97 56 -136.5t140 -39.5q76 0 121 28t74 84l59 -27q-74 -147 -254 -147q-47 0 -89.5 10t-85 34t-68 71.5t-25.5 114.5q0 56 17 107t52 95.5t95.5 71
t139.5 26.5q111 0 181 -50.5t70 -153.5q0 -41 -12 -79zM347 460q-95 0 -151 -47t-73 -124h402q4 15 4 34q0 37 -16 65t-43 43t-57.5 22t-65.5 7z" />
    <glyph glyph-name="Edotaccent" unicode="&#x116;" horiz-adv-x="724" 
d="M539 859l-18 -103h-88l18 103h88zM713 643h-453l-43 -246h436l-12 -66h-436l-46 -264h459l-11 -67h-539l125 710h532z" />
    <glyph glyph-name="edotaccent" unicode="&#x117;" horiz-adv-x="646" 
d="M441 702l-19 -112h-83l19 112h83zM587 232h-471v-9q0 -97 56 -136.5t140 -39.5q76 0 121 28t74 84l59 -27q-74 -147 -254 -147q-47 0 -89.5 10t-85 34t-68 71.5t-25.5 114.5q0 56 17 107t52 95.5t95.5 71t139.5 26.5q111 0 181 -50.5t70 -153.5q0 -41 -12 -79zM347 460
q-95 0 -151 -47t-73 -124h402q4 15 4 34q0 37 -16 65t-43 43t-57.5 22t-65.5 7z" />
    <glyph glyph-name="Eogonek" unicode="&#x118;" horiz-adv-x="724" 
d="M713 643h-453l-43 -246h436l-12 -66h-436l-46 -264h459l-11 -67q-87 -25 -120.5 -52.5t-33.5 -60.5q0 -45 47 -45q48 0 62 54l50 -8q-26 -90 -117 -90q-47 0 -73.5 20.5t-26.5 58.5q0 83 126 123h-453l125 710h532z" />
    <glyph glyph-name="eogonek" unicode="&#x119;" horiz-adv-x="646" 
d="M587 232h-471v-9q0 -97 56 -136.5t140 -39.5q76 0 121 28t74 84l59 -27q-62 -122 -195 -143q-120 -40 -120 -102q0 -45 47 -45q48 0 62 54l50 -8q-26 -90 -117 -90q-47 0 -73.5 20.5t-26.5 58.5q0 69 89 109q-44 3 -83 15t-75.5 37t-58 70.5t-21.5 106.5q0 56 17 107
t52 95.5t95.5 71t139.5 26.5q111 0 181 -50.5t70 -153.5q0 -41 -12 -79zM347 460q-95 0 -151 -47t-73 -124h402q4 15 4 34q0 37 -16 65t-43 43t-57.5 22t-65.5 7z" />
    <glyph glyph-name="Ecaron" unicode="&#x11a;" horiz-adv-x="724" 
d="M511 751h-88l-103 104h76l73 -73l99 73h83zM713 643h-453l-43 -246h436l-12 -66h-436l-46 -264h459l-11 -67h-539l125 710h532z" />
    <glyph glyph-name="ecaron" unicode="&#x11b;" horiz-adv-x="646" 
d="M406 574h-78l-109 146h68l83 -111l123 111h74zM587 232h-471v-9q0 -97 56 -136.5t140 -39.5q76 0 121 28t74 84l59 -27q-74 -147 -254 -147q-47 0 -89.5 10t-85 34t-68 71.5t-25.5 114.5q0 56 17 107t52 95.5t95.5 71t139.5 26.5q111 0 181 -50.5t70 -153.5
q0 -41 -12 -79zM347 460q-95 0 -151 -47t-73 -124h402q4 15 4 34q0 37 -16 65t-43 43t-57.5 22t-65.5 7z" />
    <glyph glyph-name="Gcircumflex" unicode="&#x11c;" horiz-adv-x="837" 
d="M677 756h-76l-73 73l-99 -73h-83l140 104h88zM382 -21q-65 0 -121 17t-102.5 53t-73 99t-26.5 147q0 64 14.5 124.5t47 117.5t80 99.5t120 68.5t160.5 26q132 0 216.5 -56.5t101.5 -167.5l-82 -13q-15 88 -79.5 129t-163.5 41q-72 0 -129.5 -22t-95 -58.5t-62.5 -85
t-35.5 -99t-10.5 -103.5q0 -133 69 -191t181 -58q89 0 157 35.5t102 85t44 106.5l5 27h-271l12 67h343l-65 -368h-60l14 131q-40 -73 -115 -112.5t-175 -39.5z" />
    <glyph glyph-name="gcircumflex" unicode="&#x11d;" horiz-adv-x="637" 
d="M389 691l-121 -102h-74l159 137h78l111 -137h-68zM622 578q24 0 42 -5l-11 -63q-18 6 -42 6q-69 0 -89 -54q41 -39 41 -102q0 -78 -60 -134t-183 -56q-81 0 -134 26q-70 -15 -70 -63q0 -25 22.5 -36t72.5 -13l163 -3q84 -3 130.5 -30t46.5 -94q0 -167 -302 -167
q-262 0 -262 131q0 86 112 117q-53 23 -53 74q0 77 108 104q-50 40 -50 110q0 78 60.5 133.5t182.5 55.5q86 0 140 -29q33 92 135 92zM324 225q89 0 128.5 37.5t39.5 90.5q0 59 -43.5 83t-105.5 24q-89 0 -128.5 -37.5t-39.5 -90.5q0 -59 43.5 -83t105.5 -24zM368 18l-164 3
q-31 0 -59 5q-87 -25 -87 -89q0 -26 15 -44t43.5 -27.5t61 -13t76.5 -3.5q224 0 224 102q0 38 -27.5 52t-82.5 15z" />
    <glyph glyph-name="Gbreve" unicode="&#x11e;" horiz-adv-x="837" 
d="M432 860q8 -59 89 -59q87 0 107 59h60q-14 -54 -57.5 -81.5t-109.5 -27.5q-144 0 -150 109h61zM382 -21q-65 0 -121 17t-102.5 53t-73 99t-26.5 147q0 64 14.5 124.5t47 117.5t80 99.5t120 68.5t160.5 26q132 0 216.5 -56.5t101.5 -167.5l-82 -13q-15 88 -79.5 129
t-163.5 41q-72 0 -129.5 -22t-95 -58.5t-62.5 -85t-35.5 -99t-10.5 -103.5q0 -133 69 -191t181 -58q89 0 157 35.5t102 85t44 106.5l5 27h-271l12 67h343l-65 -368h-60l14 131q-40 -73 -115 -112.5t-175 -39.5z" />
    <glyph glyph-name="gbreve" unicode="&#x11f;" horiz-adv-x="637" 
d="M379 575q-78 0 -118.5 38t-33.5 113h61q-8 -101 94 -101q98 0 113 101h61q-24 -151 -177 -151zM622 578q24 0 42 -5l-11 -63q-18 6 -42 6q-69 0 -89 -54q41 -39 41 -102q0 -78 -60 -134t-183 -56q-81 0 -134 26q-70 -15 -70 -63q0 -25 22.5 -36t72.5 -13l163 -3
q84 -3 130.5 -30t46.5 -94q0 -167 -302 -167q-262 0 -262 131q0 86 112 117q-53 23 -53 74q0 77 108 104q-50 40 -50 110q0 78 60.5 133.5t182.5 55.5q86 0 140 -29q33 92 135 92zM324 225q89 0 128.5 37.5t39.5 90.5q0 59 -43.5 83t-105.5 24q-89 0 -128.5 -37.5
t-39.5 -90.5q0 -59 43.5 -83t105.5 -24zM368 18l-164 3q-31 0 -59 5q-87 -25 -87 -89q0 -26 15 -44t43.5 -27.5t61 -13t76.5 -3.5q224 0 224 102q0 38 -27.5 52t-82.5 15z" />
    <glyph glyph-name="Gdotaccent" unicode="&#x120;" horiz-adv-x="837" 
d="M467 756l18 103h88l-18 -103h-88zM382 -21q-65 0 -121 17t-102.5 53t-73 99t-26.5 147q0 64 14.5 124.5t47 117.5t80 99.5t120 68.5t160.5 26q132 0 216.5 -56.5t101.5 -167.5l-82 -13q-15 88 -79.5 129t-163.5 41q-72 0 -129.5 -22t-95 -58.5t-62.5 -85t-35.5 -99
t-10.5 -103.5q0 -133 69 -191t181 -58q89 0 157 35.5t102 85t44 106.5l5 27h-271l12 67h343l-65 -368h-60l14 131q-40 -73 -115 -112.5t-175 -39.5z" />
    <glyph glyph-name="gdotaccent" unicode="&#x121;" horiz-adv-x="637" 
d="M426 702l-19 -112h-83l19 112h83zM622 578q24 0 42 -5l-11 -63q-18 6 -42 6q-69 0 -89 -54q41 -39 41 -102q0 -78 -60 -134t-183 -56q-81 0 -134 26q-70 -15 -70 -63q0 -25 22.5 -36t72.5 -13l163 -3q84 -3 130.5 -30t46.5 -94q0 -167 -302 -167q-262 0 -262 131
q0 86 112 117q-53 23 -53 74q0 77 108 104q-50 40 -50 110q0 78 60.5 133.5t182.5 55.5q86 0 140 -29q33 92 135 92zM324 225q89 0 128.5 37.5t39.5 90.5q0 59 -43.5 83t-105.5 24q-89 0 -128.5 -37.5t-39.5 -90.5q0 -59 43.5 -83t105.5 -24zM368 18l-164 3q-31 0 -59 5
q-87 -25 -87 -89q0 -26 15 -44t43.5 -27.5t61 -13t76.5 -3.5q224 0 224 102q0 38 -27.5 52t-82.5 15z" />
    <glyph glyph-name="Gcommaaccent" unicode="&#x122;" horiz-adv-x="837" 
d="M382 -21q-65 0 -121 17t-102.5 53t-73 99t-26.5 147q0 64 14.5 124.5t47 117.5t80 99.5t120 68.5t160.5 26q132 0 216.5 -56.5t101.5 -167.5l-82 -13q-15 88 -79.5 129t-163.5 41q-72 0 -129.5 -22t-95 -58.5t-62.5 -85t-35.5 -99t-10.5 -103.5q0 -133 69 -191t181 -58
q89 0 157 35.5t102 85t44 106.5l5 27h-271l12 67h343l-65 -368h-60l14 131q-40 -73 -115 -112.5t-175 -39.5zM320 -232l-12 29q29 13 40 27.5t16 40.5h-45l14 83h84l-13 -73q-7 -41 -25.5 -66t-58.5 -41z" />
    <glyph glyph-name="gcommaaccent" unicode="&#x123;" horiz-adv-x="637" 
d="M414 663l-14 -83h-84l13 73q7 41 25.5 66t58.5 41l12 -29q-29 -13 -40 -27.5t-16 -40.5h45zM622 578q24 0 42 -5l-11 -63q-18 6 -42 6q-69 0 -89 -54q41 -39 41 -102q0 -78 -60 -134t-183 -56q-81 0 -134 26q-70 -15 -70 -63q0 -25 22.5 -36t72.5 -13l163 -3
q84 -3 130.5 -30t46.5 -94q0 -167 -302 -167q-262 0 -262 131q0 86 112 117q-53 23 -53 74q0 77 108 104q-50 40 -50 110q0 78 60.5 133.5t182.5 55.5q86 0 140 -29q33 92 135 92zM324 225q89 0 128.5 37.5t39.5 90.5q0 59 -43.5 83t-105.5 24q-89 0 -128.5 -37.5
t-39.5 -90.5q0 -59 43.5 -83t105.5 -24zM368 18l-164 3q-31 0 -59 5q-87 -25 -87 -89q0 -26 15 -44t43.5 -27.5t61 -13t76.5 -3.5q224 0 224 102q0 38 -27.5 52t-82.5 15z" />
    <glyph glyph-name="Hcircumflex" unicode="&#x124;" horiz-adv-x="858" 
d="M684 756h-76l-73 73l-99 -73h-83l140 104h88zM827 710l-125 -710h-79l58 330h-476l-58 -330h-79l125 710h79l-55 -313h476l55 313h79z" />
    <glyph glyph-name="hcircumflex" unicode="&#x125;" horiz-adv-x="700" 
d="M398 756h-76l-73 73l-99 -73h-83l140 104h88zM63 0l128 725h71l-59 -338q27 56 82 92t139 36q87 0 143.5 -46t56.5 -145q0 -36 -9 -80l-43 -244h-71l44 249q6 30 6 64q0 75 -42 107t-108 32q-53 0 -94 -18t-67 -49.5t-41 -67.5t-23 -80l-42 -237h-71z" />
    <glyph glyph-name="Hbar" unicode="&#x126;" horiz-adv-x="858" 
d="M889 573l-9 -51h-86l-92 -522h-79l58 330h-476l-58 -330h-79l92 522h-85l8 51h86l24 137h79l-24 -137h476l24 137h79l-24 -137h86zM693 397l22 125h-476l-22 -125h476z" />
    <glyph glyph-name="hbar" unicode="&#x127;" horiz-adv-x="686" 
d="M424 515q87 0 143.5 -46t56.5 -145q0 -36 -9 -80l-43 -244h-71l44 249q6 30 6 64q0 75 -42 107t-108 32q-53 0 -94 -18t-67 -49.5t-41 -67.5t-23 -80l-42 -237h-71l103 581h-99l7 45h100l17 99h71l-17 -99h273l-7 -45h-274l-34 -194q27 56 82 92t139 36z" />
    <glyph glyph-name="Itilde" unicode="&#x128;" horiz-adv-x="303" 
d="M306 754q-27 0 -45.5 13.5t-32.5 27t-31 13.5q-30 0 -37 -42l-48 8q7 42 30.5 65.5t54.5 23.5q34 0 62 -27t46 -27q29 0 36 42l48 -9q-7 -42 -30 -65t-53 -23zM147 0h-79l125 710h79z" />
    <glyph glyph-name="itilde" unicode="&#x129;" horiz-adv-x="275" 
d="M261 587q-25 0 -41.5 17.5t-28.5 35t-26 17.5q-31 0 -40 -56l-48 9q9 52 32.5 78t55.5 26q20 0 34.5 -11t22 -24t17.5 -24t22 -11q28 0 39 56l48 -8q-22 -105 -87 -105zM58 0l88 500h71l-88 -500h-71z" />
    <glyph glyph-name="Imacron" unicode="&#x12a;" horiz-adv-x="303" 
d="M130 769l10 58h225l-10 -58h-225zM147 0h-79l125 710h79z" />
    <glyph glyph-name="imacron" unicode="&#x12b;" horiz-adv-x="275" 
d="M91 617l10 55h223l-9 -55h-224zM58 0l88 500h71l-88 -500h-71z" />
    <glyph glyph-name="Ibreve" unicode="&#x12c;" horiz-adv-x="303" 
d="M196 860q-1 -25 13 -42t45 -17q60 0 70 59h61q-10 -54 -44.5 -81.5t-86.5 -27.5q-60 0 -90.5 29.5t-28.5 79.5h61zM147 0h-79l125 710h79z" />
    <glyph glyph-name="ibreve" unicode="&#x12d;" horiz-adv-x="275" 
d="M171 727q-9 -54 1 -77t39 -23q26 0 41.5 22.5t19.5 77.5h61q-16 -152 -124 -152q-124 0 -99 152h61zM58 0l88 500h71l-88 -500h-71z" />
    <glyph glyph-name="Iogonek" unicode="&#x12e;" horiz-adv-x="303" 
d="M139 0q-87 -25 -120.5 -52.5t-33.5 -60.5q0 -45 47 -45q48 0 62 54l50 -8q-25 -90 -117 -90q-47 0 -73.5 20.5t-26.5 58.5q0 88 142 128l124 705h79l-125 -710h-8z" />
    <glyph glyph-name="iogonek" unicode="&#x12f;" horiz-adv-x="275" 
d="M173 702h83l-19 -112h-83zM126 0q-87 -25 -120.5 -52.5t-33.5 -60.5q0 -45 47 -45q49 0 62 54l50 -8q-26 -90 -117 -90q-47 0 -73.5 20.5t-26.5 58.5q0 89 145 129l87 494h71l-88 -500h-3z" />
    <glyph glyph-name="Idotaccent" unicode="&#x130;" horiz-adv-x="303" 
d="M197 756l18 103h88l-18 -103h-88zM147 0h-79l125 710h79z" />
    <glyph glyph-name="dotlessi" unicode="&#x131;" horiz-adv-x="275" 
d="M58 0l88 500h71l-88 -500h-71z" />
    <glyph glyph-name="IJ" unicode="&#x132;" horiz-adv-x="741" 
d="M147 0h-79l125 710h79zM639 193q-20 -114 -80.5 -161.5t-159.5 -47.5q-63 0 -119 17l14 73q53 -16 106 -16q67 0 108 33t55 113l89 506h79z" />
    <glyph glyph-name="ij" unicode="&#x133;" horiz-adv-x="556" 
d="M154 590l19 112h83l-19 -112h-83zM433 590l19 112h83l-19 -112h-83zM58 0l88 500h71l-88 -500h-71zM243 -203q-41 0 -78 13l11 62q36 -11 62 -11q42 0 63 23t29 75l96 541h72l-98 -550q-13 -78 -48.5 -115.5t-108.5 -37.5z" />
    <glyph glyph-name="Jcircumflex" unicode="&#x134;" horiz-adv-x="438" 
d="M520 756h-69l-39 72l-65 -72h-76l99 104h87zM336 193q-20 -114 -80.5 -161.5t-159.5 -47.5q-63 0 -119 17l14 73q53 -16 106 -16q67 0 108 33t55 113l89 506h79z" />
    <glyph glyph-name="jcircumflex" unicode="&#x135;" horiz-adv-x="281" 
d="M316 580h-60l-34 111l-73 -111h-65l105 147h74zM-32 -203q-41 0 -78 13l11 62q36 -11 62 -11q42 0 63 23t29 75l96 541h72l-98 -550q-13 -78 -48.5 -115.5t-108.5 -37.5z" />
    <glyph glyph-name="Kcommaaccent" unicode="&#x136;" horiz-adv-x="771" 
d="M800 710l-338 -273l237 -437h-93l-206 385l-215 -169l-38 -216h-79l125 710h79l-69 -395l492 395h105zM287 -135l14 83h84l-13 -73q-7 -41 -25.5 -66t-58.5 -41l-12 29q29 13 40 27.5t16 40.5h-45z" />
    <glyph glyph-name="kcommaaccent" unicode="&#x137;" horiz-adv-x="633" 
d="M633 500l-252 -190l180 -310h-85l-150 269l-165 -116l-27 -153h-71l128 725h71l-86 -487l358 262h99zM226 -135l14 83h84l-13 -73q-7 -41 -25.5 -66t-58.5 -41l-12 29q29 13 40 27.5t16 40.5h-45z" />
    <glyph glyph-name="kgreenlandic" unicode="&#x138;" horiz-adv-x="628" 
d="M628 500l-252 -190l180 -310h-85l-151 269l-164 -116l-27 -153h-71l88 500h71l-46 -262l358 262h99z" />
    <glyph glyph-name="Lacute" unicode="&#x139;" horiz-adv-x="648" 
d="M204 756l136 104h87l-148 -104h-75zM68 0l125 710h79l-113 -642h430l-12 -68h-509z" />
    <glyph glyph-name="lacute" unicode="&#x13a;" horiz-adv-x="285" 
d="M195 756l136 104h87l-148 -104h-75zM262 725l-128 -725h-71l128 725h71z" />
    <glyph glyph-name="Lcommaaccent" unicode="&#x13b;" horiz-adv-x="648" 
d="M68 0l125 710h79l-113 -642h430l-12 -68h-509zM254 -232l-12 29q29 13 40 27.5t16 40.5h-45l14 83h84l-13 -73q-7 -41 -25.5 -66t-58.5 -41z" />
    <glyph glyph-name="lcommaaccent" unicode="&#x13c;" horiz-adv-x="285" 
d="M262 725l-128 -725h-71l128 725h71zM35 -232l-12 29q29 13 40 27.5t16 40.5h-45l14 83h84l-13 -73q-7 -41 -25.5 -66t-58.5 -41z" />
    <glyph glyph-name="Lcaron" unicode="&#x13d;" horiz-adv-x="648" 
d="M68 0l125 710h79l-113 -642h430l-12 -68h-509zM360 536l-12 28q28 11 39 25t15 38h-45l14 83h84l-13 -73q-7 -40 -25.5 -63.5t-56.5 -37.5z" />
    <glyph glyph-name="lcaron" unicode="&#x13e;" horiz-adv-x="285" 
d="M262 725l-128 -725h-71l128 725h71zM304 536l-12 28q28 11 39 25t15 38h-45l14 83h84l-13 -73q-7 -40 -25.5 -63.5t-56.5 -37.5z" />
    <glyph glyph-name="Ldot" unicode="&#x13f;" horiz-adv-x="648" 
d="M68 0l125 710h79l-113 -642h430l-12 -68h-509zM514 500l-20 -111h-102l20 111h102z" />
    <glyph glyph-name="ldot" unicode="&#x140;" horiz-adv-x="347" 
d="M262 725l-128 -725h-71l128 725h71zM411 500l-20 -111h-102l20 111h102z" />
    <glyph glyph-name="Lslash" unicode="&#x141;" horiz-adv-x="648" 
d="M159 68h430l-12 -68h-509l50 285l-122 -53l10 62l123 54l64 362h79l-57 -325l281 123l-10 -62l-282 -123z" />
    <glyph glyph-name="lslash" unicode="&#x142;" horiz-adv-x="285" 
d="M285 512l-10 -54l-69 -53l-72 -405h-71l61 343l-70 -53l10 53l69 53l58 329h71l-47 -267z" />
    <glyph glyph-name="Nacute" unicode="&#x143;" horiz-adv-x="853" 
d="M479 756l136 104h87l-148 -104h-75zM68 0l125 710h93l316 -550q28 -52 38 -76h2q4 34 13 86l96 540h71l-125 -710h-88l-320 555q-27 51 -37 76h-3q-3 -31 -12 -83l-97 -548h-72z" />
    <glyph glyph-name="nacute" unicode="&#x144;" horiz-adv-x="695" 
d="M401 580l150 146h91l-169 -146h-72zM58 0l88 500h69l-22 -119q28 59 83 96.5t140 37.5q28 0 54 -4.5t53.5 -17.5t47.5 -34t33 -57t13 -83q0 -40 -8 -80l-42 -239h-71l44 244q6 34 6 63q0 80 -44 112.5t-110 32.5q-52 0 -93 -18.5t-66 -51t-40 -69t-23 -79.5l-41 -234h-71
z" />
    <glyph glyph-name="Ncommaaccent" unicode="&#x145;" horiz-adv-x="853" 
d="M68 0l125 710h93l316 -550q28 -52 38 -76h2q4 34 13 86l96 540h71l-125 -710h-88l-320 555q-27 51 -37 76h-3q-3 -31 -12 -83l-97 -548h-72zM319 -232l-12 29q29 13 40 27.5t16 40.5h-45l14 83h84l-13 -73q-7 -41 -25.5 -66t-58.5 -41z" />
    <glyph glyph-name="ncommaaccent" unicode="&#x146;" horiz-adv-x="695" 
d="M58 0l88 500h69l-22 -119q28 59 83 96.5t140 37.5q28 0 54 -4.5t53.5 -17.5t47.5 -34t33 -57t13 -83q0 -40 -8 -80l-42 -239h-71l44 244q6 34 6 63q0 80 -44 112.5t-110 32.5q-52 0 -93 -18.5t-66 -51t-40 -69t-23 -79.5l-41 -234h-71zM241 -232l-12 29q29 13 40 27.5
t16 40.5h-45l14 83h84l-13 -73q-7 -41 -25.5 -66t-58.5 -41z" />
    <glyph glyph-name="Ncaron" unicode="&#x147;" horiz-adv-x="853" 
d="M359 855h76l73 -73l99 73h83l-140 -104h-88zM68 0l125 710h93l316 -550q28 -52 38 -76h2q4 34 13 86l96 540h71l-125 -710h-88l-320 555q-27 51 -37 76h-3q-3 -31 -12 -83l-97 -548h-72z" />
    <glyph glyph-name="ncaron" unicode="&#x148;" horiz-adv-x="695" 
d="M274 720h68l83 -111l123 111h74l-161 -146h-78zM58 0l88 500h69l-22 -119q28 59 83 96.5t140 37.5q28 0 54 -4.5t53.5 -17.5t47.5 -34t33 -57t13 -83q0 -40 -8 -80l-42 -239h-71l44 244q6 34 6 63q0 80 -44 112.5t-110 32.5q-52 0 -93 -18.5t-66 -51t-40 -69t-23 -79.5
l-41 -234h-71z" />
    <glyph glyph-name="napostrophe" unicode="&#x149;" horiz-adv-x="695" 
d="M114 536l-12 28q28 11 39 25t15 38h-45l14 83h84l-13 -73q-7 -40 -25.5 -63.5t-56.5 -37.5zM58 0l88 500h69l-22 -119q28 59 83 96.5t140 37.5q28 0 54 -4.5t53.5 -17.5t47.5 -34t33 -57t13 -83q0 -40 -8 -80l-42 -239h-71l44 244q6 34 6 63q0 80 -44 112.5t-110 32.5
q-52 0 -93 -18.5t-66 -51t-40 -69t-23 -79.5l-41 -234h-71z" />
    <glyph glyph-name="Eng" unicode="&#x14a;" horiz-adv-x="853" 
d="M822 710l-125 -710h-1l-2 -13q-35 -198 -237 -198q-55 0 -97 7l13 70q43 -7 98 -7q130 0 151 126l3 15h-16l-320 555q-27 51 -37 76h-3q-3 -31 -12 -83l-97 -548h-72l125 710h93l316 -550q28 -52 38 -76h2q4 34 13 86l96 540h71z" />
    <glyph glyph-name="eng" unicode="&#x14b;" horiz-adv-x="695" 
d="M416 515q28 0 54 -4.5t53.5 -17.5t47.5 -34t33 -57t13 -83q0 -40 -8 -80l-42 -239l-6 -36q-27 -167 -183 -167q-38 0 -63 6l10 61q21 -4 56 -4q47 0 73 23t35 74l7 43l44 244q6 34 6 63q0 80 -44 112.5t-110 32.5q-52 0 -93 -18.5t-66 -51t-40 -69t-23 -79.5l-41 -234
h-71l88 500h69l-22 -119q28 59 83 96.5t140 37.5z" />
    <glyph glyph-name="Omacron" unicode="&#x14c;" horiz-adv-x="855" 
d="M332 769l10 56h345l-9 -56h-346zM414 -21q-57 0 -107 10t-96 34.5t-79 61t-52.5 92.5t-19.5 126q0 79 24 152t72 136.5t131 101.5t191 38q71 0 132 -17t112 -53.5t80.5 -101.5t29.5 -152q0 -79 -24 -152t-72 -136.5t-131 -101.5t-191 -38zM417 46q72 0 129.5 22
t94.5 57.5t61.5 83t35 96t10.5 98.5q0 74 -23.5 127t-64 81t-86 40.5t-99.5 12.5q-72 0 -129.5 -22t-94.5 -58t-61.5 -83.5t-35 -95.5t-10.5 -98q0 -74 23.5 -127t64 -81t86 -40.5t99.5 -12.5z" />
    <glyph glyph-name="omacron" unicode="&#x14d;" horiz-adv-x="660" 
d="M199 617l10 55h358l-9 -55h-359zM312 -15q-53 0 -98.5 12t-84.5 37t-62 72t-23 110q0 55 17 106t51.5 95.5t95.5 71t140 26.5q53 0 98.5 -12t84.5 -37t62 -72t23 -110q0 -55 -17 -106t-51.5 -95.5t-95.5 -71t-140 -26.5zM316 47q61 0 106.5 22t70 57.5t36 74t11.5 79.5
q0 48 -16.5 83t-45.5 54t-62 27.5t-72 8.5q-61 0 -106.5 -22t-70 -57.5t-36 -74t-11.5 -79.5q0 -48 16.5 -83t45.5 -54t62 -27.5t72 -8.5z" />
    <glyph glyph-name="Obreve" unicode="&#x14e;" horiz-adv-x="855" 
d="M423 860q8 -59 89 -59q87 0 107 59h60q-14 -54 -57.5 -81.5t-109.5 -27.5q-144 0 -150 109h61zM414 -21q-57 0 -107 10t-96 34.5t-79 61t-52.5 92.5t-19.5 126q0 79 24 152t72 136.5t131 101.5t191 38q71 0 132 -17t112 -53.5t80.5 -101.5t29.5 -152q0 -79 -24 -152
t-72 -136.5t-131 -101.5t-191 -38zM417 46q72 0 129.5 22t94.5 57.5t61.5 83t35 96t10.5 98.5q0 74 -23.5 127t-64 81t-86 40.5t-99.5 12.5q-72 0 -129.5 -22t-94.5 -58t-61.5 -83.5t-35 -95.5t-10.5 -98q0 -74 23.5 -127t64 -81t86 -40.5t99.5 -12.5z" />
    <glyph glyph-name="obreve" unicode="&#x14f;" horiz-adv-x="660" 
d="M299 726q-8 -101 94 -101q98 0 113 101h61q-24 -151 -177 -151q-78 0 -118.5 38t-33.5 113h61zM312 -15q-53 0 -98.5 12t-84.5 37t-62 72t-23 110q0 55 17 106t51.5 95.5t95.5 71t140 26.5q53 0 98.5 -12t84.5 -37t62 -72t23 -110q0 -55 -17 -106t-51.5 -95.5t-95.5 -71
t-140 -26.5zM316 47q61 0 106.5 22t70 57.5t36 74t11.5 79.5q0 48 -16.5 83t-45.5 54t-62 27.5t-72 8.5q-61 0 -106.5 -22t-70 -57.5t-36 -74t-11.5 -79.5q0 -48 16.5 -83t45.5 -54t62 -27.5t72 -8.5z" />
    <glyph glyph-name="Ohungarumlaut" unicode="&#x150;" horiz-adv-x="855" 
d="M390 756l126 104h77l-132 -104h-71zM543 756l126 104h77l-132 -104h-71zM414 -21q-57 0 -107 10t-96 34.5t-79 61t-52.5 92.5t-19.5 126q0 79 24 152t72 136.5t131 101.5t191 38q71 0 132 -17t112 -53.5t80.5 -101.5t29.5 -152q0 -79 -24 -152t-72 -136.5t-131 -101.5
t-191 -38zM417 46q72 0 129.5 22t94.5 57.5t61.5 83t35 96t10.5 98.5q0 74 -23.5 127t-64 81t-86 40.5t-99.5 12.5q-72 0 -129.5 -22t-94.5 -58t-61.5 -83.5t-35 -95.5t-10.5 -98q0 -74 23.5 -127t64 -81t86 -40.5t99.5 -12.5z" />
    <glyph glyph-name="ohungarumlaut" unicode="&#x151;" horiz-adv-x="660" 
d="M267 580l140 146h72l-146 -146h-66zM421 580l140 146h72l-146 -146h-66zM312 -15q-53 0 -98.5 12t-84.5 37t-62 72t-23 110q0 55 17 106t51.5 95.5t95.5 71t140 26.5q53 0 98.5 -12t84.5 -37t62 -72t23 -110q0 -55 -17 -106t-51.5 -95.5t-95.5 -71t-140 -26.5zM316 47
q61 0 106.5 22t70 57.5t36 74t11.5 79.5q0 48 -16.5 83t-45.5 54t-62 27.5t-72 8.5q-61 0 -106.5 -22t-70 -57.5t-36 -74t-11.5 -79.5q0 -48 16.5 -83t45.5 -54t62 -27.5t72 -8.5z" />
    <glyph glyph-name="OE" unicode="&#x152;" horiz-adv-x="1178" 
d="M1169 643h-453l-43 -246h436l-12 -66h-436l-46 -264h459l-11 -67h-636q-76 0 -138.5 14.5t-116 47.5t-83.5 94.5t-30 146.5q0 76 24.5 145.5t75.5 129.5t142.5 96t212.5 36h667zM536 67l101 576h-123q-84 0 -150 -21t-106.5 -54.5t-67 -79t-37 -90t-10.5 -92.5
q0 -239 286 -239h107z" />
    <glyph glyph-name="oe" unicode="&#x153;" horiz-adv-x="1136" 
d="M1078 232h-471v-9q0 -97 56 -136.5t140 -39.5q76 0 121.5 28t73.5 84l58 -27q-72 -147 -253 -147q-36 0 -69 6t-68 19.5t-63 40.5t-43 66q-77 -132 -248 -132q-53 0 -98.5 12t-84.5 37t-62 72t-23 110q0 55 17 106t51.5 95.5t95 71t139.5 26.5q82 0 146.5 -31.5
t91.5 -100.5q76 132 255 132q110 0 180 -51t70 -153q0 -41 -12 -79zM838 460q-95 0 -151 -47t-73 -124h402q4 15 4 34q0 37 -16 65t-43 43t-57.5 22t-65.5 7zM316 47q60 0 105.5 22t70 57.5t36 74.5t11.5 79q0 48 -16.5 83t-45.5 54t-62 27.5t-71 8.5q-61 0 -106.5 -22
t-70 -57.5t-36 -74.5t-11.5 -79q0 -48 16.5 -83t45.5 -54t62 -27.5t72 -8.5z" />
    <glyph glyph-name="Racute" unicode="&#x154;" horiz-adv-x="762" 
d="M639 860l-148 -104h-75l136 104h87zM737 525q0 -83 -50.5 -142.5t-161.5 -76.5l143 -306h-93l-138 300h-238l-53 -300h-79l125 710h314q104 0 167.5 -44t63.5 -141zM447 367q112 0 159 44t47 112q0 120 -151 120h-242l-49 -276h236z" />
    <glyph glyph-name="racute" unicode="&#x155;" horiz-adv-x="414" 
d="M239 580l150 146h91l-169 -146h-72zM187 356q28 75 74.5 116t123.5 41q31 0 53 -6l-13 -70q-24 6 -51 6q-70 0 -115 -38q-67 -57 -91 -189l-39 -216h-71l88 500h67z" />
    <glyph glyph-name="Rcommaaccent" unicode="&#x156;" horiz-adv-x="762" 
d="M737 525q0 -83 -50.5 -142.5t-161.5 -76.5l143 -306h-93l-138 300h-238l-53 -300h-79l125 710h314q104 0 167.5 -44t63.5 -141zM447 367q112 0 159 44t47 112q0 120 -151 120h-242l-49 -276h236zM270 -135l14 83h84l-13 -73q-7 -41 -25.5 -66t-58.5 -41l-12 29
q29 13 40 27.5t16 40.5h-45z" />
    <glyph glyph-name="rcommaaccent" unicode="&#x157;" horiz-adv-x="414" 
d="M187 356q28 75 74.5 116t123.5 41q31 0 53 -6l-13 -70q-24 6 -51 6q-70 0 -115 -38q-67 -57 -91 -189l-39 -216h-71l88 500h67zM30 -232l-12 29q29 13 40 27.5t16 40.5h-45l14 83h84l-13 -73q-7 -41 -25.5 -66t-58.5 -41z" />
    <glyph glyph-name="Rcaron" unicode="&#x158;" horiz-adv-x="762" 
d="M487 751h-88l-103 104h76l73 -73l99 73h83zM737 525q0 -83 -50.5 -142.5t-161.5 -76.5l143 -306h-93l-138 300h-238l-53 -300h-79l125 710h314q104 0 167.5 -44t63.5 -141zM447 367q112 0 159 44t47 112q0 120 -151 120h-242l-49 -276h236z" />
    <glyph glyph-name="rcaron" unicode="&#x159;" horiz-adv-x="414" 
d="M112 720h68l83 -111l123 111h74l-161 -146h-78zM187 356q28 75 74.5 116t123.5 41q31 0 53 -6l-13 -70q-24 6 -51 6q-70 0 -115 -38q-67 -57 -91 -189l-39 -216h-71l88 500h67z" />
    <glyph glyph-name="Sacute" unicode="&#x15a;" horiz-adv-x="735" 
d="M411 756l136 104h87l-148 -104h-75zM366 -21q-155 0 -243 59t-89 181l83 12q6 -185 254 -185q107 0 160.5 37.5t53.5 106.5q0 57 -34 84t-110 40l-123 21q-201 39 -201 189q0 91 72.5 149t221.5 58q135 0 217 -51t88 -163l-81 -16q-6 89 -63 127t-160 38q-114 0 -162 -39
t-48 -97q0 -52 37 -81.5t111 -42.5l123 -22q99 -19 148 -62.5t49 -127.5q0 -96 -73 -155.5t-231 -59.5z" />
    <glyph glyph-name="sacute" unicode="&#x15b;" horiz-adv-x="600" 
d="M318 580l150 146h91l-169 -146h-72zM286 -15q-236 0 -256 174l72 14q8 -73 58 -101t130 -28q163 0 163 96q0 33 -19.5 49.5t-65.5 24.5l-141 18q-143 23 -143 130q0 69 59.5 111t170.5 42q221 0 245 -155l-71 -18q-10 47 -38.5 74t-59.5 34t-75 7q-159 0 -159 -89
q0 -32 21 -49.5t70 -24.5l145 -20q134 -22 134 -131q0 -72 -59.5 -115t-180.5 -43z" />
    <glyph glyph-name="Scircumflex" unicode="&#x15c;" horiz-adv-x="735" 
d="M614 756h-76l-73 73l-99 -73h-83l140 104h88zM366 -21q-155 0 -243 59t-89 181l83 12q6 -185 254 -185q107 0 160.5 37.5t53.5 106.5q0 57 -34 84t-110 40l-123 21q-201 39 -201 189q0 91 72.5 149t221.5 58q135 0 217 -51t88 -163l-81 -16q-6 89 -63 127t-160 38
q-114 0 -162 -39t-48 -97q0 -52 37 -81.5t111 -42.5l123 -22q99 -19 148 -62.5t49 -127.5q0 -96 -73 -155.5t-231 -59.5z" />
    <glyph glyph-name="scircumflex" unicode="&#x15d;" horiz-adv-x="600" 
d="M527 580h-68l-83 111l-123 -111h-74l161 146h78zM286 -15q-236 0 -256 174l72 14q8 -73 58 -101t130 -28q163 0 163 96q0 33 -19.5 49.5t-65.5 24.5l-141 18q-143 23 -143 130q0 69 59.5 111t170.5 42q221 0 245 -155l-71 -18q-10 47 -38.5 74t-59.5 34t-75 7
q-159 0 -159 -89q0 -32 21 -49.5t70 -24.5l145 -20q134 -22 134 -131q0 -72 -59.5 -115t-180.5 -43z" />
    <glyph glyph-name="Scedilla" unicode="&#x15e;" horiz-adv-x="735" 
d="M473 384q99 -19 148 -62.5t49 -127.5q0 -96 -73 -155.5t-231 -59.5h-21l-29 -33q17 13 50 13q35 0 56 -18t21 -49q0 -40 -33 -65t-82 -25q-92 0 -107 62l52 8q9 -31 54 -31q26 0 42.5 12.5t16.5 36.5q0 37 -49 37q-27 0 -47 -16l-33 10l46 61q-127 11 -197.5 70
t-71.5 167l83 12q6 -185 254 -185q107 0 160.5 37.5t53.5 106.5q0 57 -34 84t-110 40l-123 21q-201 39 -201 189q0 91 72.5 149t221.5 58q135 0 217 -51t88 -163l-81 -16q-6 89 -63 127t-160 38q-114 0 -162 -39t-48 -97q0 -52 37 -81.5t111 -42.5z" />
    <glyph glyph-name="scedilla" unicode="&#x15f;" horiz-adv-x="600" 
d="M392 274q134 -22 134 -131q0 -72 -59.5 -115t-180.5 -43h-4l-34 -39q17 13 50 13q35 0 56 -18t21 -49q0 -40 -33 -65t-82 -25q-92 0 -107 62l52 8q9 -31 54 -31q26 0 42.5 12.5t16.5 36.5q0 37 -49 37q-27 0 -47 -16l-33 10l50 66q-191 16 -209 172l72 14q8 -73 58 -101
t130 -28q163 0 163 96q0 33 -19.5 49.5t-65.5 24.5l-141 18q-143 23 -143 130q0 69 59.5 111t170.5 42q221 0 245 -155l-71 -18q-10 47 -38.5 74t-59.5 34t-75 7q-159 0 -159 -89q0 -32 21 -49.5t70 -24.5z" />
    <glyph glyph-name="Scaron" unicode="&#x160;" horiz-adv-x="735" 
d="M291 855h76l73 -73l99 73h83l-140 -104h-88zM366 -21q-155 0 -243 59t-89 181l83 12q6 -185 254 -185q107 0 160.5 37.5t53.5 106.5q0 57 -34 84t-110 40l-123 21q-201 39 -201 189q0 91 72.5 149t221.5 58q135 0 217 -51t88 -163l-81 -16q-6 89 -63 127t-160 38
q-114 0 -162 -39t-48 -97q0 -52 37 -81.5t111 -42.5l123 -22q99 -19 148 -62.5t49 -127.5q0 -96 -73 -155.5t-231 -59.5z" />
    <glyph glyph-name="scaron" unicode="&#x161;" horiz-adv-x="600" 
d="M191 720h68l83 -111l123 111h74l-161 -146h-78zM286 -15q-236 0 -256 174l72 14q8 -73 58 -101t130 -28q163 0 163 96q0 33 -19.5 49.5t-65.5 24.5l-141 18q-143 23 -143 130q0 69 59.5 111t170.5 42q221 0 245 -155l-71 -18q-10 47 -38.5 74t-59.5 34t-75 7
q-159 0 -159 -89q0 -32 21 -49.5t70 -24.5l145 -20q134 -22 134 -131q0 -72 -59.5 -115t-180.5 -43z" />
    <glyph glyph-name="uni0162" unicode="&#x162;" horiz-adv-x="648" 
d="M320 0h-19l-47 -54q17 13 50 13q35 0 56 -18t21 -49q0 -40 -33 -65t-82 -25q-92 0 -107 62l52 8q9 -31 54 -31q26 0 42.5 12.5t16.5 36.5q0 37 -49 37q-27 0 -47 -16l-33 10l59 79h-14l114 643h-275l12 67h628l-12 -67h-274z" />
    <glyph glyph-name="uni0163" unicode="&#x163;" horiz-adv-x="432" 
d="M246 441l-47 -262q-13 -72 13 -97t76 -25q36 0 71 7l-12 -63q-39 -11 -80 -11h-13l-38 -44q17 13 50 13q35 0 56 -18t21 -49q0 -40 -33 -65t-82 -25q-92 0 -107 62l52 8q9 -31 54 -31q26 0 42.5 12.5t16.5 36.5q0 37 -49 37q-27 0 -47 -16l-33 10l57 75q-114 30 -84 193
l44 252h-121l11 59h120l24 132l77 31l-29 -163h179l-11 -59h-178z" />
    <glyph glyph-name="Tcaron" unicode="&#x164;" horiz-adv-x="648" 
d="M448 751h-88l-103 104h76l73 -73l99 73h83zM719 710l-12 -67h-274l-113 -643h-80l114 643h-275l12 67h628z" />
    <glyph glyph-name="tcaron" unicode="&#x165;" horiz-adv-x="432" 
d="M353 536l-12 28q28 11 39 25t15 38h-45l14 83h84l-13 -73q-7 -40 -25.5 -63.5t-56.5 -37.5zM53 441l11 59h120l24 132l77 31l-29 -163h179l-11 -59h-178l-47 -262q-13 -72 13 -97t76 -25q36 0 71 7l-12 -63q-39 -11 -80 -11q-78 0 -117.5 46.5t-19.5 152.5l44 252h-121z
" />
    <glyph glyph-name="Tbar" unicode="&#x166;" horiz-adv-x="648" 
d="M707 643h-274l-36 -203h164l-8 -45h-164l-69 -395h-80l70 395h-161l8 45h161l36 203h-275l12 67h628z" />
    <glyph glyph-name="tbar" unicode="&#x167;" horiz-adv-x="462" 
d="M455 441h-178l-24 -136h146l-11 -59h-146l-12 -67q-13 -72 13 -97t76 -25q36 0 71 7l-12 -63q-38 -11 -80 -11q-78 0 -117.5 46.5t-19.5 152.5l10 57h-152l10 59h152l24 136h-121l11 59h120l24 132l77 31l-29 -163h179z" />
    <glyph glyph-name="Utilde" unicode="&#x168;" horiz-adv-x="816" 
d="M585 751q-43 0 -84.5 29.5t-70.5 29.5q-52 0 -69 -54l-49 9q27 99 117 99q43 0 84 -29.5t72 -29.5q52 0 67 54l50 -9q-29 -99 -117 -99zM173 710h80l-74 -412q-23 -127 34.5 -188t177.5 -61q126 0 183 61.5t77 175.5l76 424h79l-79 -442q-24 -135 -103 -211.5t-239 -76.5
q-161 0 -236.5 82.5t-46.5 244.5z" />
    <glyph glyph-name="utilde" unicode="&#x169;" horiz-adv-x="686" 
d="M488 587q-31 0 -56 11t-39.5 24.5t-34.5 24.5t-42 11q-57 0 -74 -63l-50 8q15 53 47.5 82t76.5 29q39 0 67.5 -18t52.5 -36t52 -18q57 0 75 63l49 -8q-15 -53 -47.5 -81.5t-76.5 -28.5zM268 -15q-35 0 -66.5 7.5t-61.5 25t-48 53.5t-18 86q0 27 11 104l42 239h71
l-43 -244q-9 -61 -9 -84q0 -67 40.5 -96t102.5 -29q186 0 227 219l41 234h71l-88 -500h-68l21 119q-60 -134 -225 -134z" />
    <glyph glyph-name="Umacron" unicode="&#x16a;" horiz-adv-x="816" 
d="M328 769l10 56h345l-9 -56h-346zM173 710h80l-74 -412q-23 -127 34.5 -188t177.5 -61q126 0 183 61.5t77 175.5l76 424h79l-79 -442q-24 -135 -103 -211.5t-239 -76.5q-161 0 -236.5 82.5t-46.5 244.5z" />
    <glyph glyph-name="umacron" unicode="&#x16b;" horiz-adv-x="686" 
d="M215 617l10 55h358l-9 -55h-359zM268 -15q-35 0 -66.5 7.5t-61.5 25t-48 53.5t-18 86q0 27 11 104l42 239h71l-43 -244q-9 -61 -9 -84q0 -67 40.5 -96t102.5 -29q186 0 227 219l41 234h71l-88 -500h-68l21 119q-60 -134 -225 -134z" />
    <glyph glyph-name="Ubreve" unicode="&#x16c;" horiz-adv-x="816" 
d="M419 860q8 -59 89 -59q87 0 107 59h60q-14 -54 -57.5 -81.5t-109.5 -27.5q-144 0 -150 109h61zM173 710h80l-74 -412q-23 -127 34.5 -188t177.5 -61q126 0 183 61.5t77 175.5l76 424h79l-79 -442q-24 -135 -103 -211.5t-239 -76.5q-161 0 -236.5 82.5t-46.5 244.5z" />
    <glyph glyph-name="ubreve" unicode="&#x16d;" horiz-adv-x="686" 
d="M315 726q-8 -101 94 -101q98 0 113 101h61q-24 -151 -177 -151q-78 0 -118.5 38t-33.5 113h61zM268 -15q-35 0 -66.5 7.5t-61.5 25t-48 53.5t-18 86q0 27 11 104l42 239h71l-43 -244q-9 -61 -9 -84q0 -67 40.5 -96t102.5 -29q186 0 227 219l41 234h71l-88 -500h-68
l21 119q-60 -134 -225 -134z" />
    <glyph glyph-name="Uring" unicode="&#x16e;" horiz-adv-x="816" 
d="M503 738q-47 0 -73 24.5t-26 64.5q0 48 33.5 79t82.5 31q47 0 73.5 -24t26.5 -65q0 -48 -33.5 -79t-83.5 -31zM504 779q32 0 49 19t17 50q0 22 -13 35t-37 13q-32 0 -49 -18.5t-17 -50.5q0 -22 13 -35t37 -13zM173 710h80l-74 -412q-23 -127 34.5 -188t177.5 -61
q126 0 183 61.5t77 175.5l76 424h79l-79 -442q-24 -135 -103 -211.5t-239 -76.5q-161 0 -236.5 82.5t-46.5 244.5z" />
    <glyph glyph-name="uring" unicode="&#x16f;" horiz-adv-x="686" 
d="M387 559q-55 0 -86.5 24.5t-31.5 65.5q0 48 37 78.5t96 30.5q55 0 87 -25t32 -65q0 -48 -37 -78.5t-97 -30.5zM387 599q41 0 62.5 19t21.5 50q0 22 -18 36t-51 14q-40 0 -62 -19t-22 -50q0 -22 18.5 -36t50.5 -14zM268 -15q-35 0 -66.5 7.5t-61.5 25t-48 53.5t-18 86
q0 27 11 104l42 239h71l-43 -244q-9 -61 -9 -84q0 -67 40.5 -96t102.5 -29q186 0 227 219l41 234h71l-88 -500h-68l21 119q-60 -134 -225 -134z" />
    <glyph glyph-name="Uhungarumlaut" unicode="&#x170;" horiz-adv-x="816" 
d="M386 756l126 104h77l-132 -104h-71zM539 756l126 104h77l-132 -104h-71zM173 710h80l-74 -412q-23 -127 34.5 -188t177.5 -61q126 0 183 61.5t77 175.5l76 424h79l-79 -442q-24 -135 -103 -211.5t-239 -76.5q-161 0 -236.5 82.5t-46.5 244.5z" />
    <glyph glyph-name="uhungarumlaut" unicode="&#x171;" horiz-adv-x="686" 
d="M283 580l140 146h72l-146 -146h-66zM437 580l140 146h72l-146 -146h-66zM268 -15q-35 0 -66.5 7.5t-61.5 25t-48 53.5t-18 86q0 27 11 104l42 239h71l-43 -244q-9 -61 -9 -84q0 -67 40.5 -96t102.5 -29q186 0 227 219l41 234h71l-88 -500h-68l21 119q-60 -134 -225 -134z
" />
    <glyph glyph-name="Uogonek" unicode="&#x172;" horiz-adv-x="816" 
d="M727 710h79l-79 -442q-21 -119 -83.5 -192.5t-184.5 -90.5q-61 -23 -84.5 -46.5t-23.5 -51.5q0 -45 47 -45q48 0 62 54l50 -8q-26 -90 -117 -90q-47 0 -73.5 20.5t-26.5 58.5q0 65 77 103q-153 4 -225 86.5t-43 240.5l71 403h80l-74 -412q-23 -127 34.5 -188t177.5 -61
q126 0 183 61.5t77 175.5z" />
    <glyph glyph-name="uogonek" unicode="&#x173;" horiz-adv-x="686" 
d="M433 -158q49 0 62 54l50 -8q-25 -90 -117 -90q-47 0 -73.5 20.5t-26.5 58.5q0 89 145 129l20 113q-60 -134 -225 -134q-35 0 -66.5 7.5t-61.5 25t-48 53.5t-18 86q0 27 11 104l42 239h71l-43 -244q-9 -61 -9 -84q0 -67 40.5 -96t102.5 -29q186 0 227 219l41 234h71
l-88 -500q-87 -25 -120.5 -52.5t-33.5 -60.5q0 -45 47 -45z" />
    <glyph glyph-name="Wcircumflex" unicode="&#x174;" horiz-adv-x="1063" 
d="M787 756h-76l-73 73l-99 -73h-83l140 104h88zM191 0l-84 710h80l62 -592q2 -38 2 -40h3q5 16 18 40l299 592h80l90 -592q4 -23 4 -40h2q2 5 8 19l9 21l271 592h84l-335 -710h-96l-86 577q-4 30 -3 40h-3q-3 -12 -17 -40l-290 -577h-98z" />
    <glyph glyph-name="wcircumflex" unicode="&#x175;" horiz-adv-x="888" 
d="M674 580h-68l-83 111l-123 -111h-74l161 146h78zM160 0l-93 500h70l65 -382q3 -28 5 -54h2q7 18 25 54l211 382h81l74 -382q6 -48 6 -54h3q10 27 23 54l201 382h76l-270 -500h-80l-76 385q-2 12 -5 51h-2q-10 -28 -23 -51l-210 -385h-83z" />
    <glyph glyph-name="Ycircumflex" unicode="&#x176;" horiz-adv-x="682" 
d="M596 756h-76l-73 73l-99 -73h-83l140 104h88zM256 0l48 275l-221 435h89l161 -321q15 -29 19 -47h2q9 18 35 47l275 321h97l-377 -435l-48 -275h-80z" />
    <glyph glyph-name="ycircumflex" unicode="&#x177;" horiz-adv-x="569" 
d="M518 580h-68l-83 111l-123 -111h-74l161 146h78zM35 -203q-39 0 -72 11l11 64q27 -11 65 -11q46 0 81.5 23.5t68.5 79.5l21 38l-158 498h78l113 -371q8 -30 13 -61h2q11 25 33 61l233 371h81l-353 -557q-56 -89 -103 -117.5t-114 -28.5z" />
    <glyph glyph-name="Ydieresis" unicode="&#x178;" horiz-adv-x="682" 
d="M258 756l17 99h86l-17 -99h-86zM517 756l17 99h86l-17 -99h-86zM256 0l48 275l-221 435h89l161 -321q15 -29 19 -47h2q9 18 35 47l275 321h97l-377 -435l-48 -275h-80z" />
    <glyph glyph-name="Zacute" unicode="&#x179;" horiz-adv-x="681" 
d="M399 756l136 104h87l-148 -104h-75zM13 70l594 573h-475l12 67h573l-12 -69l-596 -574h512l-11 -67h-609z" />
    <glyph glyph-name="zacute" unicode="&#x17a;" horiz-adv-x="573" 
d="M313 580l150 146h91l-169 -146h-72zM15 57l445 383h-364l11 60h455l-10 -55l-446 -384h394l-11 -61h-485z" />
    <glyph glyph-name="Zdotaccent" unicode="&#x17b;" horiz-adv-x="681" 
d="M392 756l18 103h88l-18 -103h-88zM13 70l594 573h-475l12 67h573l-12 -69l-596 -574h512l-11 -67h-609z" />
    <glyph glyph-name="zdotaccent" unicode="&#x17c;" horiz-adv-x="573" 
d="M306 590l19 112h83l-19 -112h-83zM15 57l445 383h-364l11 60h455l-10 -55l-446 -384h394l-11 -61h-485z" />
    <glyph glyph-name="Zcaron" unicode="&#x17d;" horiz-adv-x="681" 
d="M279 855h76l73 -73l99 73h83l-140 -104h-88zM13 70l594 573h-475l12 67h573l-12 -69l-596 -574h512l-11 -67h-609z" />
    <glyph glyph-name="zcaron" unicode="&#x17e;" horiz-adv-x="573" 
d="M186 720h68l83 -111l123 111h74l-161 -146h-78zM15 57l445 383h-364l11 60h455l-10 -55l-446 -384h394l-11 -61h-485z" />
    <glyph glyph-name="florin" unicode="&#x192;" horiz-adv-x="503" 
d="M481 651q-62 0 -93 -32t-53 -102l-30 -94h185l-10 -56h-193l-166 -517h-73l168 517h-155l10 56h163l26 79q17 53 31 85t39 64.5t62.5 47.5t90.5 15q45 0 85 -14l-13 -61q-35 12 -74 12z" />
    <glyph glyph-name="AEacute" unicode="&#x1fc;" horiz-adv-x="1220" 
d="M1128 860l-148 -104h-75l136 104h87zM1209 643h-458l-44 -246h441l-12 -66h-441l-46 -264h465l-12 -67h-544l30 171h-345l-157 -171h-89l665 710h558zM600 238l70 398l-365 -398h295z" />
    <glyph glyph-name="aeacute" unicode="&#x1fd;" horiz-adv-x="1050" 
d="M789 726l-169 -146h-72l150 146h91zM557 232l-2 -8q-6 -90 39.5 -133.5t130.5 -43.5q128 0 188 113l58 -27q-77 -148 -252 -148q-81 0 -141 33.5t-83 102.5q-39 -66 -109.5 -101t-162.5 -35q-87 0 -138 34.5t-51 97.5q0 69 48 108q56 46 193 53l217 10l5 31
q11 70 -25.5 103.5t-123.5 33.5q-167 0 -186 -119h-74q15 85 83 131.5t181 46.5q168 0 203 -98q81 98 223 98q105 0 166 -50.5t61 -145.5q0 -36 -12 -87h-436zM773 460q-82 0 -136.5 -46.5t-71.5 -123.5h365q4 15 4 36q0 66 -44.5 100t-116.5 34zM239 43q95 0 161 45t79 120
l5 29l-208 -9q-91 -5 -128.5 -31.5t-37.5 -73.5q0 -40 35 -60t94 -20z" />
    <glyph glyph-name="Oslashacute" unicode="&#x1fe;" horiz-adv-x="855" 
d="M617 860l-148 -104h-75l136 104h87zM853 685l-82 -74q61 -79 61 -204q0 -79 -24 -152t-72 -136.5t-131 -101.5t-191 -38q-163 0 -257 81l-81 -73l-38 38l82 74q-60 79 -60 204q0 79 24 152t72 136.5t131 101.5t191 38q162 0 256 -81l80 72zM144 307q0 -93 38 -153
l494 444q-71 66 -201 66q-72 0 -129.5 -22t-94.5 -58t-61.5 -83.5t-35 -95.5t-10.5 -98zM748 403q0 94 -38 154l-494 -445q70 -66 201 -66q72 0 129.5 22t94.5 57.5t61.5 83t35 96t10.5 98.5z" />
    <glyph glyph-name="oslashacute" unicode="&#x1ff;" horiz-adv-x="660" 
d="M553 726l-169 -146h-72l150 146h91zM644 486l-71 -60q43 -56 43 -142q0 -55 -17 -106t-51.5 -95.5t-95.5 -71t-140 -26.5q-122 0 -192 56l-68 -58l-31 31l68 58q-45 56 -45 144q0 55 17 106t51.5 95.5t95.5 71t140 26.5q125 0 195 -58l70 59zM120 220q0 -59 26 -100
l341 289q-51 44 -143 44q-61 0 -106.5 -22t-70 -57.5t-36 -74t-11.5 -79.5zM540 280q0 57 -24 97l-340 -289q51 -41 140 -41q61 0 106.5 22t70 57.5t36 74t11.5 79.5z" />
    <glyph glyph-name="Scommaaccent" unicode="&#x218;" horiz-adv-x="735" 
d="M366 -21q-155 0 -243 59t-89 181l83 12q6 -185 254 -185q107 0 160.5 37.5t53.5 106.5q0 57 -34 84t-110 40l-123 21q-201 39 -201 189q0 91 72.5 149t221.5 58q135 0 217 -51t88 -163l-81 -16q-6 89 -63 127t-160 38q-114 0 -162 -39t-48 -97q0 -52 37 -81.5t111 -42.5
l123 -22q99 -19 148 -62.5t49 -127.5q0 -96 -73 -155.5t-231 -59.5zM279 -232l-12 29q29 13 40 27.5t16 40.5h-45l14 83h84l-13 -73q-7 -41 -25.5 -66t-58.5 -41z" />
    <glyph glyph-name="scommaaccent" unicode="&#x219;" horiz-adv-x="600" 
d="M286 -15q-236 0 -256 174l72 14q8 -73 58 -101t130 -28q163 0 163 96q0 33 -19.5 49.5t-65.5 24.5l-141 18q-143 23 -143 130q0 69 59.5 111t170.5 42q221 0 245 -155l-71 -18q-10 47 -38.5 74t-59.5 34t-75 7q-159 0 -159 -89q0 -32 21 -49.5t70 -24.5l145 -20
q134 -22 134 -131q0 -72 -59.5 -115t-180.5 -43zM211 -232l-12 29q29 13 40 27.5t16 40.5h-45l14 83h84l-13 -73q-7 -41 -25.5 -66t-58.5 -41z" />
    <glyph glyph-name="uni021A" unicode="&#x21a;" horiz-adv-x="648" 
d="M719 710l-12 -67h-274l-113 -643h-80l114 643h-275l12 67h628zM216 -135l14 83h84l-13 -73q-7 -41 -25.5 -66t-58.5 -41l-12 29q29 13 40 27.5t16 40.5h-45z" />
    <glyph glyph-name="uni021B" unicode="&#x21b;" horiz-adv-x="432" 
d="M53 441l11 59h120l24 132l77 31l-29 -163h179l-11 -59h-178l-47 -262q-13 -72 13 -97t76 -25q36 0 71 7l-12 -63q-39 -11 -80 -11q-78 0 -117.5 46.5t-19.5 152.5l44 252h-121zM179 -232l-12 29q29 13 40 27.5t16 40.5h-45l14 83h84l-13 -73q-7 -41 -25.5 -66t-58.5 -41z
" />
    <glyph glyph-name="uni0237" unicode="&#x237;" horiz-adv-x="281" 
d="M-32 -203q-41 0 -78 13l11 62q36 -11 62 -11q42 0 63 23t29 75l96 541h72l-98 -550q-13 -78 -48.5 -115.5t-108.5 -37.5z" />
    <glyph glyph-name="uni0243" unicode="&#x243;" horiz-adv-x="772" 
d="M576 360q121 -21 121 -144q0 -36 -12 -69.5t-38 -66t-77 -54t-121 -25.5l-19 -106h-48l19 105h-131l-19 -105h-48l19 105h-154l123 695h153l16 93h48l-16 -93h128h4l16 93h48l-17 -96q164 -19 164 -151q0 -61 -37.5 -112t-121.5 -69zM512 630h-258l-42 -242h263
q96 0 138 40t42 96q0 106 -143 106zM422 65q56 0 96.5 14t61 37t29.5 47t9 51q0 113 -140 113h-277l-46 -262h267z" />
    <glyph glyph-name="circumflex" unicode="&#x2c6;" horiz-adv-x="600" 
d="M382 580h-68l-83 111l-123 -111h-74l161 146h78z" />
    <glyph glyph-name="caron" unicode="&#x2c7;" horiz-adv-x="600" 
d="M118 720h68l83 -111l123 111h74l-161 -146h-78z" />
    <glyph glyph-name="breve" unicode="&#x2d8;" horiz-adv-x="600" 
d="M116 726q-8 -101 94 -101q98 0 113 101h61q-24 -151 -177 -151q-78 0 -118.5 38t-33.5 113h61z" />
    <glyph glyph-name="dotaccent" unicode="&#x2d9;" horiz-adv-x="600" 
d="M119 590l19 112h83l-19 -112h-83z" />
    <glyph glyph-name="ring" unicode="&#x2da;" horiz-adv-x="600" 
d="M157 559q-55 0 -86.5 24.5t-31.5 65.5q0 48 37 78.5t96 30.5q55 0 87 -25t32 -65q0 -48 -37 -78.5t-97 -30.5zM157 599q41 0 62.5 19t21.5 50q0 22 -18 36t-51 14q-40 0 -62 -19t-22 -50q0 -22 18.5 -36t50.5 -14z" />
    <glyph glyph-name="ogonek" unicode="&#x2db;" horiz-adv-x="600" 
d="M262 -112q-26 -90 -117 -90q-47 0 -73.5 20.5t-26.5 58.5q0 89 146 129l66 -6q-87 -25 -120.5 -52.5t-33.5 -60.5q0 -45 47 -45q48 0 62 54z" />
    <glyph glyph-name="tilde" unicode="&#x2dc;" horiz-adv-x="600" 
d="M349 587q-31 0 -56 11t-39.5 24.5t-34.5 24.5t-42 11q-57 0 -74 -63l-50 8q15 53 47.5 82t76.5 29q39 0 67.5 -18t52.5 -36t52 -18q57 0 75 63l49 -8q-15 -53 -47.5 -81.5t-76.5 -28.5z" />
    <glyph glyph-name="hungarumlaut" unicode="&#x2dd;" horiz-adv-x="600" 
d="M57 580l140 146h72l-146 -146h-66zM211 580l140 146h72l-146 -146h-66z" />
    <glyph glyph-name="gravecomb" unicode="&#x300;" horiz-adv-x="0" 
d="M87 580h-72l-169 146h91z" />
    <glyph glyph-name="acutecomb" unicode="&#x301;" horiz-adv-x="0" 
d="M-277 580l150 146h91l-169 -146h-72z" />
    <glyph glyph-name="uni0302" unicode="&#x302;" horiz-adv-x="0" 
d="M-35 580h-68l-83 111l-123 -111h-74l161 146h78z" />
    <glyph glyph-name="tildecomb" unicode="&#x303;" horiz-adv-x="0" 
d="M-177 587q-31 0 -56 11t-39.5 24.5t-34.5 24.5t-42 11q-57 0 -74 -63l-50 8q15 53 47.5 82t76.5 29q39 0 67.5 -18t52.5 -36t52 -18q57 0 75 63l49 -8q-15 -53 -47.5 -81.5t-76.5 -28.5z" />
    <glyph glyph-name="uni0304" unicode="&#x304;" horiz-adv-x="0" 
d="M-413 617l10 55h358l-9 -55h-359z" />
    <glyph glyph-name="uni0306" unicode="&#x306;" horiz-adv-x="0" 
d="M-322 726q-8 -101 94 -101q98 0 113 101h61q-24 -151 -177 -151q-78 0 -118.5 38t-33.5 113h61z" />
    <glyph glyph-name="uni0307" unicode="&#x307;" horiz-adv-x="0" 
d="M-83 590l19 112h83l-19 -112h-83z" />
    <glyph glyph-name="uni0308" unicode="&#x308;" horiz-adv-x="0" 
d="M-402 594l19 108h86l-19 -108h-86zM-152 594l19 108h85l-19 -108h-85z" />
    <glyph glyph-name="uni030A" unicode="&#x30a;" horiz-adv-x="0" 
d="M-172 559q-55 0 -86.5 24.5t-31.5 65.5q0 48 37 78.5t96 30.5q55 0 87 -25t32 -65q0 -48 -37 -78.5t-97 -30.5zM-172 599q41 0 62.5 19t21.5 50q0 22 -18 36t-51 14q-40 0 -62 -19t-22 -50q0 -22 18.5 -36t50.5 -14z" />
    <glyph glyph-name="uni030B" unicode="&#x30b;" horiz-adv-x="0" 
d="M-404 580l140 146h72l-146 -146h-66zM-250 580l140 146h72l-146 -146h-66z" />
    <glyph glyph-name="uni030C" unicode="&#x30c;" horiz-adv-x="0" 
d="M-299 720h68l83 -111l123 111h74l-161 -146h-78z" />
    <glyph glyph-name="uni0312" unicode="&#x312;" horiz-adv-x="0" 
d="M31 760l12 -29q-29 -13 -40 -27.5t-16 -40.5h45l-14 -83h-84l13 73q7 41 25.5 66t58.5 41z" />
    <glyph glyph-name="uni0326" unicode="&#x326;" horiz-adv-x="0" 
d="M-147 -232l-12 29q29 13 40 27.5t16 40.5h-45l14 83h84l-13 -73q-7 -41 -25.5 -66t-58.5 -41z" />
    <glyph glyph-name="uni0327" unicode="&#x327;" horiz-adv-x="0" 
d="M-171 6h47l-52 -60q17 13 50 13q35 0 56 -18t21 -49q0 -40 -33 -65t-82 -25q-92 0 -107 62l52 8q9 -31 54 -31q26 0 42.5 12.5t16.5 36.5q0 37 -49 37q-27 0 -47 -16l-33 10z" />
    <glyph glyph-name="uni0328" unicode="&#x328;" horiz-adv-x="0" 
d="M-58 -112q-26 -90 -117 -90q-47 0 -73.5 20.5t-26.5 58.5q0 89 146 129l66 -6q-87 -25 -120.5 -52.5t-33.5 -60.5q0 -45 47 -45q48 0 62 54z" />
    <glyph glyph-name="uni0394" unicode="&#x394;" horiz-adv-x="729" 
d="M-24 0l429 706h83l177 -706h-689zM433 628l-344 -565h484z" />
    <glyph glyph-name="uni03A9" unicode="&#x3a9;" horiz-adv-x="827" 
d="M684 0h-255l24 210q122 17 191 87.5t69 176.5q0 87 -59.5 136.5t-167.5 49.5q-139 0 -222 -72.5t-83 -191.5q0 -76 46.5 -124.5t133.5 -61.5l-51 -210h-254l12 66h194l25 101q-86 21 -132.5 80.5t-46.5 143.5q0 146 109 238.5t280 92.5q134 0 211.5 -65t77.5 -175
q0 -116 -74 -201.5t-201 -113.5l-10 -101h194z" />
    <glyph glyph-name="uni03BC" unicode="&#x3bc;" horiz-adv-x="705" 
d="M576 500h71l-88 -500h-68l21 119q-60 -134 -225 -134q-107 0 -157 59l-42 -239h-63l77 443q0 2 0.5 6.5t1.5 6.5l42 239h71l-43 -244q-9 -61 -9 -84q0 -67 40.5 -96t102.5 -29q186 0 227 219z" />
    <glyph glyph-name="pi" unicode="&#x3c0;" horiz-adv-x="805" 
d="M681 -1q-24 -6 -53 -6q-72 0 -93 33.5t-11 89.5l58 327h-290l-78 -443h-71l78 443h-109l10 57h648l-10 -57h-107l-58 -326q-11 -62 53 -62q11 0 43 4z" />
    <glyph glyph-name="uni0E3F" unicode="&#xe3f;" horiz-adv-x="772" 
d="M576 360q121 -21 121 -144q0 -38 -13 -73t-42.5 -68.5t-87.5 -54t-137 -20.5h-51l-19 -105h-48l19 105h-250l123 695h250l16 93h48l-16 -93h31q59 0 104.5 -12.5t78 -48.5t32.5 -93q0 -61 -37.5 -112t-121.5 -69zM429 630h-175l-42 -242h174zM512 630h-35l-43 -242h41
q96 0 138 40t42 96q0 106 -143 106zM155 65h174l46 262h-174zM422 65q56 0 96.5 14t61 37t29.5 47t9 51q0 113 -140 113h-55l-46 -262h45z" />
    <glyph glyph-name="Wgrave" unicode="&#x1e80;" horiz-adv-x="1063" 
d="M662 756h-75l-148 104h87zM191 0l-84 710h80l62 -592q2 -38 2 -40h3q5 16 18 40l299 592h80l90 -592q4 -23 4 -40h2q2 5 8 19l9 21l271 592h84l-335 -710h-96l-86 577q-4 30 -3 40h-3q-3 -12 -17 -40l-290 -577h-98z" />
    <glyph glyph-name="wgrave" unicode="&#x1e81;" horiz-adv-x="888" 
d="M544 580h-72l-169 146h91zM160 0l-93 500h70l65 -382q3 -28 5 -54h2q7 18 25 54l211 382h81l74 -382q6 -48 6 -54h3q10 27 23 54l201 382h76l-270 -500h-80l-76 385q-2 12 -5 51h-2q-10 -28 -23 -51l-210 -385h-83z" />
    <glyph glyph-name="Wacute" unicode="&#x1e82;" horiz-adv-x="1063" 
d="M584 756l136 104h87l-148 -104h-75zM191 0l-84 710h80l62 -592q2 -38 2 -40h3q5 16 18 40l299 592h80l90 -592q4 -23 4 -40h2q2 5 8 19l9 21l271 592h84l-335 -710h-96l-86 577q-4 30 -3 40h-3q-3 -12 -17 -40l-290 -577h-98z" />
    <glyph glyph-name="wacute" unicode="&#x1e83;" horiz-adv-x="888" 
d="M465 580l150 146h91l-169 -146h-72zM160 0l-93 500h70l65 -382q3 -28 5 -54h2q7 18 25 54l211 382h81l74 -382q6 -48 6 -54h3q10 27 23 54l201 382h76l-270 -500h-80l-76 385q-2 12 -5 51h-2q-10 -28 -23 -51l-210 -385h-83z" />
    <glyph glyph-name="Wdieresis" unicode="&#x1e84;" horiz-adv-x="1063" 
d="M449 756l17 99h86l-17 -99h-86zM708 756l17 99h86l-17 -99h-86zM191 0l-84 710h80l62 -592q2 -38 2 -40h3q5 16 18 40l299 592h80l90 -592q4 -23 4 -40h2q2 5 8 19l9 21l271 592h84l-335 -710h-96l-86 577q-4 30 -3 40h-3q-3 -12 -17 -40l-290 -577h-98z" />
    <glyph glyph-name="wdieresis" unicode="&#x1e85;" horiz-adv-x="888" 
d="M335 594l19 108h86l-19 -108h-86zM585 594l19 108h85l-19 -108h-85zM160 0l-93 500h70l65 -382q3 -28 5 -54h2q7 18 25 54l211 382h81l74 -382q6 -48 6 -54h3q10 27 23 54l201 382h76l-270 -500h-80l-76 385q-2 12 -5 51h-2q-10 -28 -23 -51l-210 -385h-83z" />
    <glyph glyph-name="Ygrave" unicode="&#x1ef2;" horiz-adv-x="682" 
d="M471 756h-75l-148 104h87zM256 0l48 275l-221 435h89l161 -321q15 -29 19 -47h2q9 18 35 47l275 321h97l-377 -435l-48 -275h-80z" />
    <glyph glyph-name="ygrave" unicode="&#x1ef3;" horiz-adv-x="569" 
d="M388 580h-72l-169 146h91zM35 -203q-39 0 -72 11l11 64q27 -11 65 -11q46 0 81.5 23.5t68.5 79.5l21 38l-158 498h78l113 -371q8 -30 13 -61h2q11 25 33 61l233 371h81l-353 -557q-56 -89 -103 -117.5t-114 -28.5z" />
    <glyph glyph-name="uni2002" unicode="&#x2002;" horiz-adv-x="500" 
 />
    <glyph glyph-name="uni2003" unicode="&#x2003;" horiz-adv-x="1000" 
 />
    <glyph glyph-name="uni2004" unicode="&#x2004;" horiz-adv-x="0" 
 />
    <glyph glyph-name="uni2005" unicode="&#x2005;" horiz-adv-x="250" 
 />
    <glyph glyph-name="uni2009" unicode="&#x2009;" horiz-adv-x="135" 
 />
    <glyph glyph-name="uni200A" unicode="&#x200a;" horiz-adv-x="75" 
 />
    <glyph glyph-name="endash" unicode="&#x2013;" horiz-adv-x="637" 
d="M67 306h523l-9 -56h-524z" />
    <glyph glyph-name="emdash" unicode="&#x2014;" horiz-adv-x="919" 
d="M67 306h805l-10 -56h-805z" />
    <glyph glyph-name="quoteleft" unicode="&#x2018;" horiz-adv-x="268" 
d="M251 722l13 -38q-61 -17 -73 -87l-1 -8h55l-20 -115h-103l20 111q12 67 40 96.5t69 40.5z" />
    <glyph glyph-name="quoteright" unicode="&#x2019;" horiz-adv-x="268" 
d="M138 462l-13 38q61 17 73 87l1 8h-55l20 115h103l-20 -111q-12 -67 -40 -96.5t-69 -40.5z" />
    <glyph glyph-name="quotesinglbase" unicode="&#x201a;" horiz-adv-x="268" 
d="M33 -133l-13 38q61 17 73 87l1 8h-55l20 115h103l-20 -111q-12 -67 -40 -96.5t-69 -40.5z" />
    <glyph glyph-name="quotedblleft" unicode="&#x201c;" horiz-adv-x="428" 
d="M251 723l13 -38q-61 -17 -73 -87l-1 -8h55l-20 -115h-103l20 111q12 67 40 96.5t69 40.5zM411 723l13 -38q-61 -17 -73 -87l-1 -8h55l-20 -115h-103l20 111q12 67 40 96.5t69 40.5z" />
    <glyph glyph-name="quotedblright" unicode="&#x201d;" horiz-adv-x="428" 
d="M138 462l-13 38q61 17 73 87l1 8h-55l20 115h103l-20 -111q-12 -67 -40 -96.5t-69 -40.5zM298 462l-13 38q61 17 73 87l1 8h-55l20 115h103l-20 -111q-12 -67 -40 -96.5t-69 -40.5z" />
    <glyph glyph-name="quotedblbase" unicode="&#x201e;" horiz-adv-x="428" 
d="M33 -133l-13 38q61 17 73 87l1 8h-55l20 115h103l-20 -111q-12 -67 -40 -96.5t-69 -40.5zM193 -133l-13 38q61 17 73 87l1 8h-55l20 115h103l-20 -111q-12 -67 -40 -96.5t-69 -40.5z" />
    <glyph glyph-name="dagger" unicode="&#x2020;" horiz-adv-x="565" 
d="M538 502l-10 -59h-177l-95 -543h-71l95 543h-174l10 59h175l38 218h71l-38 -218h176z" />
    <glyph glyph-name="daggerdbl" unicode="&#x2021;" horiz-adv-x="565" 
d="M528 443h-177l-47 -267h176l-10 -59h-176l-38 -217h-71l38 217h-175l10 59h175l47 267h-174l10 59h175l38 218h71l-38 -218h176z" />
    <glyph glyph-name="bullet" unicode="&#x2022;" horiz-adv-x="329" 
d="M181 267q-35 0 -57.5 21.5t-22.5 56.5q0 36 22.5 58.5t57.5 22.5q36 0 58.5 -22t22.5 -59q0 -35 -22.5 -56.5t-58.5 -21.5z" />
    <glyph glyph-name="ellipsis" unicode="&#x2026;" horiz-adv-x="865" 
d="M160 108l-20 -108h-102l20 108h102zM459 108l-20 -108h-102l20 108h102zM757 108l-20 -108h-102l20 108h102z" />
    <glyph glyph-name="perthousand" unicode="&#x2030;" horiz-adv-x="1314" 
d="M115 -17l634 733h73l-635 -733h-72zM251 354q-72 0 -123 38t-51 118q0 79 50.5 141t149.5 62q73 0 124.5 -38.5t51.5 -116.5q0 -79 -51.5 -141.5t-150.5 -62.5zM251 408q69 0 104.5 45t35.5 101q0 57 -33.5 81t-79.5 24q-69 0 -104 -44.5t-35 -100.5q0 -57 33 -81.5
t79 -24.5zM655 -21q-72 0 -123 38t-51 118q0 79 50.5 141t149.5 62q73 0 124.5 -38.5t51.5 -116.5q0 -79 -51.5 -141.5t-150.5 -62.5zM1068 -21q-72 0 -123 38t-51 118q0 79 50.5 141t149.5 62q73 0 124.5 -38.5t51.5 -116.5q0 -79 -51.5 -141.5t-150.5 -62.5zM655 33
q69 0 104.5 45t35.5 101q0 57 -33.5 81t-79.5 24q-69 0 -104 -44.5t-35 -100.5q0 -57 33 -81.5t79 -24.5zM1068 33q69 0 104.5 45t35.5 101q0 57 -33.5 81t-79.5 24q-69 0 -104 -44.5t-35 -100.5q0 -57 33 -81.5t79 -24.5z" />
    <glyph glyph-name="guilsinglleft" unicode="&#x2039;" horiz-adv-x="350" 
d="M202 67l-162 208l238 208h86l-240 -213l157 -203h-79z" />
    <glyph glyph-name="guilsinglright" unicode="&#x203a;" horiz-adv-x="351" 
d="M157 483l162 -208l-238 -208h-86l240 213l-157 203h79z" />
    <glyph glyph-name="fraction" unicode="&#x2044;" horiz-adv-x="197" 
d="M-231 -17l628 744h68l-628 -744h-68z" />
    <glyph glyph-name="uni20A9" unicode="&#x20a9;" horiz-adv-x="1086" 
d="M1134 695l-120 -246h74l-9 -48h-89l-45 -92h118l-8 -48h-133l-128 -261h-87l-43 261h-238l-136 -261h-88l-35 261h-133l9 48h117l-12 92h-89l8 48h74l-33 246h72l29 -246h245l128 246h70l42 -246h245l115 246h80zM551 501l-27 -52h109l-9 52q-12 68 -12 127h-4
q-21 -62 -57 -127zM215 401l11 -92h156l47 92h-214zM451 309h205l-15 92h-142zM874 309l43 92h-215l16 -92h156zM309 169l48 92h-125l10 -88q11 -75 10 -115h3q12 37 54 111zM810 173l41 88h-125l16 -92q15 -79 14 -111h3q18 48 51 115z" />
    <glyph glyph-name="Euro" unicode="&#x20ac;" horiz-adv-x="785" 
d="M497 647q-71 0 -127.5 -20.5t-93 -56t-59 -77.5t-34.5 -91h416l-7 -40l-9 -51h-410v-3q0 -76 22 -129.5t60 -80.5t79.5 -38.5t91.5 -11.5q165 0 246 129l58 -35q-47 -75 -118 -118t-185 -43q-69 0 -126.5 16.5t-105.5 52.5t-75.5 101t-27.5 153v7h-70l9 48l8 43h63
q13 63 42 117t76.5 98.5t119.5 70t161 25.5q224 0 293 -150v-2l-71 -35q-55 121 -226 121z" />
    <glyph glyph-name="uni20B9" unicode="&#x20b9;" horiz-adv-x="729" 
d="M706 695l-10 -55h-235q66 -40 69 -123h145l-9 -51h-140q-14 -77 -82.5 -127.5t-208.5 -50.5h-58l246 -288h-96l-250 302l8 44h156q184 0 209 120h-343l8 51h339q-3 65 -44.5 94t-98.5 29h-174l9 55h560z" />
    <glyph glyph-name="uni20BA" unicode="&#x20ba;" horiz-adv-x="635" 
d="M546 238l68 -14q-25 -99 -105 -161.5t-218 -62.5h-215l49 275l-99 -23l10 55l98 23l17 94l-98 -23l9 55l99 23l38 216h76l-35 -197l328 77l-10 -54l-328 -78l-17 -94l329 78l-10 -55l-328 -78l-41 -227h129q209 0 254 171z" />
    <glyph glyph-name="uni20BD" unicode="&#x20bd;" horiz-adv-x="685" 
d="M419 289h-198l-16 -93h239l-9 -51h-239l-26 -145h-75l26 145h-91l10 51h90l16 93h-89l9 57h90l62 349h252q47 0 86.5 -9.5t73.5 -29.5t53 -57.5t19 -89.5q0 -42 -14.5 -79.5t-45.5 -70t-88 -51.5t-135 -19zM281 628l-50 -282h181q62 0 105.5 14.5t65 39t30.5 50t9 54.5
q0 70 -42 97t-114 27h-185z" />
    <glyph glyph-name="uni2105" unicode="&#x2105;" horiz-adv-x="948" 
d="M106 -13l695 746h70l-694 -746h-71zM266 361q-73 0 -123.5 38.5t-50.5 122.5q0 82 51.5 145.5t157.5 63.5q71 0 118.5 -32t51.5 -94l-67 -12q-4 41 -32.5 61.5t-70.5 20.5q-72 0 -106 -46t-34 -106q0 -55 32 -80t77 -25q89 0 118 83l63 -13q-42 -127 -185 -127zM686 -7
q-73 0 -122.5 36.5t-49.5 120.5t52.5 148.5t157.5 64.5q72 0 122 -37t50 -121q0 -83 -52.5 -147.5t-157.5 -64.5zM689 48q71 0 105 49t34 109q0 55 -31.5 78.5t-75.5 23.5q-71 0 -105.5 -49.5t-34.5 -108.5q0 -55 31.5 -78.5t76.5 -23.5z" />
    <glyph glyph-name="uni2113" unicode="&#x2113;" horiz-adv-x="464" 
d="M214 240l-13 -73q-10 -59 12 -84.5t80 -25.5q29 0 74 7l-11 -64q-44 -9 -88 -9q-94 0 -123 44.5t-14 133.5l7 40q-52 -19 -111 -36l-16 54q82 26 139 49l50 286q16 87 65.5 129t116.5 42q123 0 123 -142q0 -117 -74 -202.5t-217 -148.5zM272 568l-46 -258
q207 104 207 280q0 86 -63 86q-35 0 -62 -27.5t-36 -80.5z" />
    <glyph glyph-name="uni2116" unicode="&#x2116;" horiz-adv-x="1404" 
d="M68 0l125 710h93l316 -550q28 -52 38 -76h2q4 34 13 86l96 540h71l-125 -710h-88l-320 555q-27 51 -37 76h-3q-3 -31 -12 -83l-97 -548h-72zM1095 185q-45 0 -85.5 10.5t-75.5 32.5t-55.5 61t-20.5 91q0 46 15 89t45 81t84.5 61t125.5 23q46 0 86.5 -10.5t75 -32.5
t55 -61t20.5 -91q0 -46 -15 -89t-45 -81t-84.5 -61t-125.5 -23zM1095 246q102 0 150 57.5t48 132.5q0 51 -26.5 83t-61 43t-76.5 11q-54 0 -94 -17.5t-62 -46.5t-32.5 -60.5t-10.5 -65.5q0 -39 15 -67t40 -42.5t52 -21t58 -6.5zM792 0l12 64h499l-12 -64h-499z" />
    <glyph glyph-name="trademark" unicode="&#x2122;" horiz-adv-x="963" 
d="M172 307l64 358h-158l9 48h380l-9 -48h-166l-64 -358h-56zM440 307l72 406h79l76 -296q10 -37 13 -65h2q11 25 36 65l180 296h82l-72 -406h-53l52 293q9 47 14 66h-2q-10 -20 -35 -61l-183 -298h-54l-77 298q-13 53 -14 61h-1q-4 -34 -10 -66l-52 -293h-53z" />
    <glyph glyph-name="uni2126" unicode="&#x2126;" horiz-adv-x="827" 
d="M684 0h-255l24 210q122 17 191 87.5t69 176.5q0 87 -59.5 136.5t-167.5 49.5q-139 0 -222 -72.5t-83 -191.5q0 -76 46.5 -124.5t133.5 -61.5l-51 -210h-254l12 66h194l25 101q-86 21 -132.5 80.5t-46.5 143.5q0 146 109 238.5t280 92.5q134 0 211.5 -65t77.5 -175
q0 -116 -74 -201.5t-201 -113.5l-10 -101h194z" />
    <glyph glyph-name="estimated" unicode="&#x212e;" horiz-adv-x="830" 
d="M388 -15q-147 0 -239.5 72.5t-92.5 224.5q0 104 38.5 188.5t103 137.5t145 81.5t168.5 28.5q164 0 246 -88.5t56 -234.5l-7 -37h-598l-42 -236q71 -86 231 -86q98 0 174.5 33t143.5 105l33 -31q-140 -158 -360 -158zM216 407h466l32 182q-62 82 -216 82q-148 0 -251 -89z
" />
    <glyph glyph-name="uni2153" unicode="&#x2153;" horiz-adv-x="916" 
d="M55 -17l628 744h68l-628 -744h-68zM150 328l54 294q-12 -18 -39 -29t-56 -11h-23l9 56h18q87 0 116 72h53l-67 -382h-65zM680 -10q-181 0 -183 126l66 4q3 -84 115 -84q51 0 77.5 20.5t26.5 54.5q0 30 -24 48t-71 18h-34l6 37h35q50 0 79 18t29 53q0 32 -28 47t-68 15
q-105 0 -116 -84l-63 4q6 58 51 92t129 34q40 0 74 -7.5t61.5 -30.5t27.5 -60q0 -45 -33 -70.5t-87 -30.5q45 -4 71.5 -26t26.5 -61q0 -52 -43 -84.5t-125 -32.5z" />
    <glyph glyph-name="uni2154" unicode="&#x2154;" horiz-adv-x="1051" 
d="M190 -17l628 744h68l-628 -744h-68zM52 328l7 43q168 80 219 114q89 59 89 117q0 71 -95 71q-56 0 -83.5 -26.5t-20.5 -73.5l-64 5q-5 67 39.5 105t133.5 38q41 0 73.5 -8.5t58.5 -34.5t26 -69q0 -36 -23 -69t-68 -63.5t-86 -52t-102 -49.5h247l-7 -47h-344zM815 -10
q-181 0 -183 126l66 4q3 -84 115 -84q51 0 77.5 20.5t26.5 54.5q0 30 -24 48t-71 18h-34l6 37h35q50 0 79 18t29 53q0 32 -28 47t-68 15q-105 0 -116 -84l-63 4q6 58 51 92t129 34q40 0 74 -7.5t61.5 -30.5t27.5 -60q0 -45 -33 -70.5t-87 -30.5q45 -4 71.5 -26t26.5 -61
q0 -52 -42.5 -84.5t-125.5 -32.5z" />
    <glyph glyph-name="oneeighth" unicode="&#x215b;" horiz-adv-x="923" 
d="M683 727h68l-628 -744h-68zM204 622q-12 -18 -39 -29t-56 -11h-23l9 56h18q87 0 116 72h53l-67 -382h-65zM765 205q94 -24 94 -97q0 -51 -42.5 -84.5t-140.5 -33.5q-46 0 -84.5 8t-68 32t-29.5 61q0 84 127 102q-83 23 -83 90q0 49 41 79.5t128 30.5q68 0 119 -22.5
t51 -72.5q0 -75 -112 -93zM602 283q0 -49 75 -61l45 -8q92 17 92 75q0 63 -106 63t-106 -69zM677 32q61 0 88.5 21.5t27.5 54.5q0 51 -89 68l-40 8q-103 -18 -103 -82q0 -70 116 -70z" />
    <glyph glyph-name="threeeighths" unicode="&#x215c;" horiz-adv-x="1070" 
d="M830 727h68l-628 -744h-68zM423 435q0 -52 -42.5 -84.5t-125.5 -32.5q-181 0 -183 126l66 4q3 -84 115 -84q51 0 77.5 20.5t26.5 54.5q0 30 -24 48t-71 18h-34l6 37h35q50 0 79 18t29 53q0 32 -28 47t-68 15q-105 0 -116 -84l-63 4q6 58 51 92t129 34q40 0 74 -7.5
t61.5 -30.5t27.5 -60q0 -45 -33 -70.5t-87 -30.5q45 -4 71.5 -26t26.5 -61zM912 205q94 -24 94 -97q0 -51 -43 -84.5t-140 -33.5q-46 0 -84.5 8t-68 32t-29.5 61q0 84 127 102q-83 23 -83 90q0 49 41 79.5t128 30.5q68 0 119 -22.5t51 -72.5q0 -75 -112 -93zM749 283
q0 -49 75 -61l45 -8q92 17 92 75q0 63 -106 63t-106 -69zM824 32q61 0 88.5 21.5t27.5 54.5q0 51 -89 68l-40 8q-103 -18 -103 -82q0 -70 116 -70z" />
    <glyph glyph-name="fiveeighths" unicode="&#x215d;" horiz-adv-x="1057" 
d="M817 727h68l-628 -744h-68zM419 470q0 -60 -43 -106t-139 -46q-64 0 -112.5 24.5t-55.5 80.5l62 8q6 -34 35 -50.5t69 -16.5q61 0 90 30.5t29 70.5q0 38 -29 57.5t-73 19.5q-77 0 -107 -59l-56 5l63 222h287l-8 -46h-241l-40 -137q34 57 125 57q59 0 101.5 -27t42.5 -87z
M899 205q94 -24 94 -97q0 -51 -42.5 -84.5t-140.5 -33.5q-46 0 -84.5 8t-68 32t-29.5 61q0 84 127 102q-83 23 -83 90q0 49 41 79.5t128 30.5q68 0 119 -22.5t51 -72.5q0 -75 -112 -93zM736 283q0 -49 75 -61l45 -8q92 17 92 75q0 63 -106 63t-106 -69zM811 32
q61 0 88.5 21.5t27.5 54.5q0 51 -89 68l-40 8q-103 -18 -103 -82q0 -70 116 -70z" />
    <glyph glyph-name="seveneighths" unicode="&#x215e;" horiz-adv-x="966" 
d="M726 727h68l-628 -744h-68zM140 340q11 93 72 177.5t160 142.5h-274l9 50h333l-8 -49q-198 -123 -223 -316l-2 -17h-68zM808 205q94 -24 94 -97q0 -51 -43 -84.5t-140 -33.5q-46 0 -84.5 8t-68 32t-29.5 61q0 84 127 102q-83 23 -83 90q0 49 41 79.5t128 30.5
q68 0 119 -22.5t51 -72.5q0 -75 -112 -93zM645 283q0 -49 75 -61l45 -8q92 17 92 75q0 63 -106 63t-106 -69zM720 32q61 0 88.5 21.5t27.5 54.5q0 51 -89 68l-40 8q-103 -18 -103 -82q0 -70 116 -70z" />
    <glyph glyph-name="arrowleft" unicode="&#x2190;" horiz-adv-x="1172" 
d="M1070 306h-797l-16 -90l-131 114l172 114l-16 -90h797z" />
    <glyph glyph-name="arrowup" unicode="&#x2191;" horiz-adv-x="451" 
d="M151 -35l111 633h-89l140 152l87 -152h-88l-112 -633h-49z" />
    <glyph glyph-name="arrowright" unicode="&#x2192;" horiz-adv-x="1172" 
d="M130 354h797l16 90l131 -114l-172 -114l16 90h-797z" />
    <glyph glyph-name="arrowdown" unicode="&#x2193;" horiz-adv-x="451" 
d="M337 745l-111 -633h89l-140 -152l-87 152h88l112 633h49z" />
    <glyph glyph-name="arrowboth" unicode="&#x2194;" horiz-adv-x="1176" 
d="M923 306h-650l-16 -90l-131 114l172 114l-16 -90h649l16 90l132 -114l-172 -114z" />
    <glyph glyph-name="arrowupdn" unicode="&#x2195;" horiz-adv-x="451" 
d="M88 112h88l86 486h-89l140 152l87 -152h-88l-86 -486h89l-141 -152z" />
    <glyph glyph-name="uni2196" unicode="&#x2196;" horiz-adv-x="941" 
d="M248 599l-87 -75l32 186h186l-88 -76l499 -606l-41 -37z" />
    <glyph glyph-name="uni2197" unicode="&#x2197;" horiz-adv-x="766" 
d="M615 600l-501 -608l-41 37l499 606l-88 76h186l32 -186z" />
    <glyph glyph-name="uni2198" unicode="&#x2198;" horiz-adv-x="941" 
d="M732 122l87 75l-32 -186h-186l88 76l-499 606l41 37z" />
    <glyph glyph-name="uni2199" unicode="&#x2199;" horiz-adv-x="765" 
d="M190 122l501 608l41 -37l-499 -606l88 -76h-186l-32 186z" />
    <glyph glyph-name="uni21A9" unicode="&#x21a9;" horiz-adv-x="1126" 
d="M257 216l-131 114l172 114l-16 -90h514q102 0 154.5 43t52.5 122q0 113 -158 113h-311l9 48h321q94 0 144.5 -39t50.5 -113q0 -103 -70 -162.5t-197 -59.5h-519z" />
    <glyph glyph-name="uni21AA" unicode="&#x21aa;" horiz-adv-x="1125" 
d="M856 216l16 90h-519q-97 0 -148.5 40.5t-51.5 114.5q0 104 68.5 161.5t192.5 57.5h321l-9 -48h-310q-102 0 -155 -42t-53 -121q0 -115 159 -115h513l16 90l132 -114z" />
    <glyph glyph-name="uni21B0" unicode="&#x21b0;" horiz-adv-x="1023" 
d="M817 0l101 576h-597l-16 -90l-131 114l171 114l-15 -90h647l-110 -624h-50z" />
    <glyph glyph-name="uni21B1" unicode="&#x21b1;" horiz-adv-x="1023" 
d="M118 0h-50l110 624h647l16 90l132 -114l-172 -114l16 90h-597z" />
    <glyph glyph-name="uni21B2" unicode="&#x21b2;" horiz-adv-x="1023" 
d="M942 710h50l-110 -624h-648l-15 -90l-132 114l172 114l-16 -90h597z" />
    <glyph glyph-name="uni21B3" unicode="&#x21b3;" horiz-adv-x="1023" 
d="M243 710l-102 -576h597l16 90l132 -114l-171 -114l15 90h-647l110 624h50z" />
    <glyph glyph-name="uni21B4" unicode="&#x21b4;" horiz-adv-x="1108" 
d="M989 710l-100 -571h88l-140 -151l-87 151h89l92 523h-747l9 48h796z" />
    <glyph glyph-name="uni21BB" unicode="&#x21bb;" horiz-adv-x="1120" 
d="M942 352h84l-140 -152l-87 152h90l1 7q24 139 -61.5 224.5t-235.5 85.5q-108 0 -201 -44.5t-151 -128.5t-58 -190q0 -120 83.5 -194t214.5 -74q77 0 153 25.5t134 70.5l25 -41q-135 -107 -321 -107q-150 0 -247.5 86.5t-97.5 226.5q0 121 67.5 219t176 150.5t232.5 52.5
q170 0 269 -101t71 -261z" />
    <glyph glyph-name="uni21C4" unicode="&#x21c4;" horiz-adv-x="1200" 
d="M1047 422h-753l-16 -90l-131 114l171 114l-15 -90h753zM935 238l15 90l132 -114l-172 -114l16 90h-752l8 48h753z" />
    <glyph glyph-name="uni21C5" unicode="&#x21c5;" horiz-adv-x="688" 
d="M404 52l95 546h-89l141 152l87 -152h-89l-96 -546h-49zM174 -40l-86 152h88l97 548h49l-96 -548h89z" />
    <glyph glyph-name="partialdiff" unicode="&#x2202;" horiz-adv-x="669" 
d="M378 721q262 0 262 -297q0 -193 -99 -317t-267 -124q-110 0 -170.5 54.5t-60.5 149.5q0 117 84 193.5t219 76.5q152 0 220 -96q2 34 2 52q0 123 -49 184t-154 61q-63 0 -132 -23l-13 58q80 28 158 28zM286 44q101 0 171.5 63.5t96.5 175.5q-57 113 -208 113
q-106 0 -168 -56.5t-62 -144.5q0 -72 44 -111.5t126 -39.5z" />
    <glyph glyph-name="emptyset" unicode="&#x2205;" horiz-adv-x="617" 
d="M617 511l-87 -68q38 -49 38 -122q0 -102 -66.5 -173t-189.5 -71q-108 0 -176 55l-87 -68l-29 33l85 67q-37 50 -37 121q0 102 67 173t189 71q107 0 175 -54l88 69zM135 288q0 -49 21 -83l293 230q-45 34 -119 34q-102 0 -148.5 -53t-46.5 -128zM502 318q0 50 -22 85
l-294 -231q46 -35 121 -35q101 0 148 53t47 128z" />
    <glyph glyph-name="uni2206" unicode="&#x2206;" horiz-adv-x="729" 
d="M-24 0l429 706h83l177 -706h-689zM433 628l-344 -565h484z" />
    <glyph glyph-name="product" unicode="&#x220f;" horiz-adv-x="782" 
d="M543 -88l129 726h-425l-128 -726h-72l140 793h568l-140 -793h-72z" />
    <glyph glyph-name="summation" unicode="&#x2211;" horiz-adv-x="820" 
d="M53 -88l10 54l424 360l-290 326l9 53h569l-11 -64h-465l285 -314l-422 -351h497l-12 -64h-594z" />
    <glyph glyph-name="minus" unicode="&#x2212;" horiz-adv-x="621" 
d="M65 295l11 66h509l-12 -66h-508z" />
    <glyph glyph-name="radical" unicode="&#x221a;" horiz-adv-x="622" 
d="M14 297h154l53 -296l411 733h69l-464 -828h-65l-65 332h-103z" />
    <glyph glyph-name="infinity" unicode="&#x221e;" 
d="M534 463q52 0 83.5 -30.5t31.5 -83.5q0 -59 -39.5 -107t-117.5 -48q-95 0 -140 84q-76 -85 -162 -85q-52 0 -83.5 31t-31.5 84q0 57 40 106t117 49q94 0 139 -84q77 84 163 84zM207 254q37 0 64 18.5t59 55.5q-36 75 -99 75q-40 0 -67 -25t-27 -63q0 -29 19 -45t51 -16z
M493 254q40 0 66.5 25t26.5 63q0 29 -18.5 45t-50.5 16q-37 0 -64.5 -18.5t-58.5 -55.5q18 -37 40.5 -56t58.5 -19z" />
    <glyph glyph-name="integral" unicode="&#x222b;" horiz-adv-x="473" 
d="M-2 -116q-12 0 -40 2l11 62q15 -2 40 -2q75 0 113 34.5t54 120.5l71 405q37 208 235 208q33 0 50 -3l-11 -61q-24 4 -50 4q-66 0 -102.5 -36.5t-50.5 -118.5l-72 -405q-37 -210 -248 -210z" />
    <glyph glyph-name="approxequal" unicode="&#x2248;" horiz-adv-x="735" 
d="M511 369q-43 0 -118.5 26t-113.5 26q-81 0 -143 -43l12 67q57 43 142 43q50 0 122.5 -26t109.5 -26q82 0 140 43l-12 -67q-23 -19 -62 -31t-77 -12zM478 180q-43 0 -119 26t-114 26q-82 0 -142 -43l12 67q57 43 142 43q50 0 122.5 -26t109.5 -26q82 0 140 43l-12 -67
q-23 -19 -62 -31t-77 -12z" />
    <glyph glyph-name="notequal" unicode="&#x2260;" horiz-adv-x="741" 
d="M649 388h-201l-75 -118h255l-12 -67h-285l-87 -136h-49l86 136h-173l12 67h204l75 118h-258l12 67h288l84 132h50l-84 -132h170z" />
    <glyph glyph-name="lessequal" unicode="&#x2264;" horiz-adv-x="748" 
d="M605 132l-466 211l11 60l540 211l-11 -72l-451 -174l389 -172zM87 63h500l-11 -63h-500z" />
    <glyph glyph-name="greaterequal" unicode="&#x2265;" horiz-adv-x="748" 
d="M187 614l466 -211l-11 -60l-540 -211l11 72l451 174l-389 172zM90 63h499l-10 -63h-500z" />
    <glyph glyph-name="uni2460" unicode="&#x2460;" horiz-adv-x="899" 
d="M448 -21q-53 0 -105 10.5t-103.5 35.5t-90.5 62.5t-63 97t-24 133.5q0 58 12.5 113t43 110.5t77 96.5t121 67t167.5 26q53 0 104.5 -10t103.5 -35t91 -62.5t63.5 -97.5t24.5 -134q0 -58 -12.5 -113.5t-43.5 -110.5t-78 -96.5t-121 -67t-167 -25.5zM445 20
q83 0 149.5 23.5t108.5 61t70.5 87t40 99t11.5 100.5q0 63 -21 114.5t-55 85t-79 56.5t-91 33t-94 10q-102 0 -179 -35t-118.5 -92t-61 -118.5t-19.5 -125.5q0 -77 31 -137t81.5 -94t108 -51t117.5 -17zM420 164l54 294q-12 -18 -39 -29t-56 -11h-23l9 56h18q87 0 116 72h53
l-67 -382h-65z" />
    <glyph glyph-name="uni2461" unicode="&#x2461;" horiz-adv-x="899" 
d="M448 -21q-53 0 -105 10.5t-103.5 35.5t-90.5 62.5t-63 97t-24 133.5q0 58 12.5 113t43 110.5t77 96.5t121 67t167.5 26q53 0 104.5 -10t103.5 -35t91 -62.5t63.5 -97.5t24.5 -134q0 -58 -12.5 -113.5t-43.5 -110.5t-78 -96.5t-121 -67t-167 -25.5zM445 20
q83 0 149.5 23.5t108.5 61t70.5 87t40 99t11.5 100.5q0 63 -21 114.5t-55 85t-79 56.5t-91 33t-94 10q-102 0 -179 -35t-118.5 -92t-61 -118.5t-19.5 -125.5q0 -77 31 -137t81.5 -94t108 -51t117.5 -17zM272 175l7 43q168 80 219 114q89 59 89 117q0 71 -95 71
q-56 0 -83.5 -26.5t-20.5 -73.5l-64 5q-5 67 39.5 105t133.5 38q41 0 73.5 -8.5t58.5 -34.5t26 -69q0 -36 -23 -69t-68 -63.5t-86 -52t-102 -49.5h247l-7 -47h-344z" />
    <glyph glyph-name="uni2462" unicode="&#x2462;" horiz-adv-x="899" 
d="M448 -21q-53 0 -105 10.5t-103.5 35.5t-90.5 62.5t-63 97t-24 133.5q0 58 12.5 113t43 110.5t77 96.5t121 67t167.5 26q53 0 104.5 -10t103.5 -35t91 -62.5t63.5 -97.5t24.5 -134q0 -58 -12.5 -113.5t-43.5 -110.5t-78 -96.5t-121 -67t-167 -25.5zM445 20
q83 0 149.5 23.5t108.5 61t70.5 87t40 99t11.5 100.5q0 63 -21 114.5t-55 85t-79 56.5t-91 33t-94 10q-102 0 -179 -35t-118.5 -92t-61 -118.5t-19.5 -125.5q0 -77 31 -137t81.5 -94t108 -51t117.5 -17zM464 154q-181 0 -183 126l66 4q3 -84 115 -84q51 0 77.5 20.5
t26.5 54.5q0 30 -24 48t-71 18h-34l6 37h35q50 0 79 18t29 53q0 32 -28 47t-68 15q-105 0 -116 -84l-63 4q6 58 51 92t129 34q40 0 74 -7.5t61.5 -30.5t27.5 -60q0 -45 -33 -70.5t-87 -30.5q45 -4 71.5 -26t26.5 -61q0 -52 -43 -84.5t-125 -32.5z" />
    <glyph glyph-name="uni2463" unicode="&#x2463;" horiz-adv-x="899" 
d="M448 -21q-53 0 -105 10.5t-103.5 35.5t-90.5 62.5t-63 97t-24 133.5q0 58 12.5 113t43 110.5t77 96.5t121 67t167.5 26q53 0 104.5 -10t103.5 -35t91 -62.5t63.5 -97.5t24.5 -134q0 -58 -12.5 -113.5t-43.5 -110.5t-78 -96.5t-121 -67t-167 -25.5zM445 20
q83 0 149.5 23.5t108.5 61t70.5 87t40 99t11.5 100.5q0 63 -21 114.5t-55 85t-79 56.5t-91 33t-94 10q-102 0 -179 -35t-118.5 -92t-61 -118.5t-19.5 -125.5q0 -77 31 -137t81.5 -94t108 -51t117.5 -17zM633 266h-85l-17 -93h-64l17 93h-243l7 43l285 246h66l-44 -244h85z
M532 506l-225 -195h186z" />
    <glyph glyph-name="uni2464" unicode="&#x2464;" horiz-adv-x="899" 
d="M448 -21q-53 0 -105 10.5t-103.5 35.5t-90.5 62.5t-63 97t-24 133.5q0 58 12.5 113t43 110.5t77 96.5t121 67t167.5 26q53 0 104.5 -10t103.5 -35t91 -62.5t63.5 -97.5t24.5 -134q0 -58 -12.5 -113.5t-43.5 -110.5t-78 -96.5t-121 -67t-167 -25.5zM445 20
q83 0 149.5 23.5t108.5 61t70.5 87t40 99t11.5 100.5q0 63 -21 114.5t-55 85t-79 56.5t-91 33t-94 10q-102 0 -179 -35t-118.5 -92t-61 -118.5t-19.5 -125.5q0 -77 31 -137t81.5 -94t108 -51t117.5 -17zM447 159q-64 0 -112.5 24.5t-55.5 80.5l62 8q6 -34 35 -50.5t69 -16.5
q61 0 90 30.5t29 70.5q0 38 -29 57.5t-73 19.5q-77 0 -107 -59l-56 5l63 222h287l-8 -46h-241l-40 -137q34 57 125 57q59 0 101.5 -27t42.5 -87t-43 -106t-139 -46z" />
    <glyph glyph-name="uni2465" unicode="&#x2465;" horiz-adv-x="899" 
d="M483 731q53 0 104.5 -10t103.5 -35t91 -62.5t63.5 -97.5t24.5 -134q0 -58 -12.5 -113.5t-43.5 -110.5t-78 -96.5t-121 -67t-167 -25.5q-53 0 -105 10.5t-103.5 35.5t-90.5 62.5t-63 97t-24 133.5q0 58 12.5 113t43 110.5t77 96.5t121 67t167.5 26zM445 20
q83 0 149.5 23.5t108.5 61t70.5 87t40 99t11.5 100.5q0 63 -21 114.5t-55 85t-79 56.5t-91 33t-94 10q-102 0 -179 -35t-118.5 -92t-61 -118.5t-19.5 -125.5q0 -77 31 -137t81.5 -94t108 -51t117.5 -17zM485 512q-72 0 -108 -48.5t-41 -115.5q40 72 142 72q66 0 108.5 -29
t42.5 -92q0 -62 -45.5 -103.5t-131.5 -41.5q-47 0 -84.5 13t-66 52t-28.5 101q0 45 10.5 84t33.5 75t67.5 57t104.5 21q58 0 104 -24t53 -79l-62 -6q-6 32 -33.5 48t-65.5 16zM460 379q-89 0 -124 -71q8 -109 115 -109q57 0 85.5 27.5t28.5 70.5q0 41 -29 61.5t-76 20.5z
" />
    <glyph glyph-name="uni2466" unicode="&#x2466;" horiz-adv-x="899" 
d="M448 -21q-53 0 -105 10.5t-103.5 35.5t-90.5 62.5t-63 97t-24 133.5q0 58 12.5 113t43 110.5t77 96.5t121 67t167.5 26q53 0 104.5 -10t103.5 -35t91 -62.5t63.5 -97.5t24.5 -134q0 -58 -12.5 -113.5t-43.5 -110.5t-78 -96.5t-121 -67t-167 -25.5zM445 20
q83 0 149.5 23.5t108.5 61t70.5 87t40 99t11.5 100.5q0 63 -21 114.5t-55 85t-79 56.5t-91 33t-94 10q-102 0 -179 -35t-118.5 -92t-61 -118.5t-19.5 -125.5q0 -77 31 -137t81.5 -94t108 -51t117.5 -17zM364 164l1 12q11 93 72 177.5t160 142.5h-274l9 50h333l-8 -49
q-198 -123 -223 -316l-2 -17h-68z" />
    <glyph glyph-name="uni2467" unicode="&#x2467;" horiz-adv-x="899" 
d="M483 731q53 0 104.5 -10t103.5 -35t91 -62.5t63.5 -97.5t24.5 -134q0 -58 -12.5 -113.5t-43.5 -110.5t-78 -96.5t-121 -67t-167 -25.5q-53 0 -105 10.5t-103.5 35.5t-90.5 62.5t-63 97t-24 133.5q0 58 12.5 113t43 110.5t77 96.5t121 67t167.5 26zM445 20
q83 0 149.5 23.5t108.5 61t70.5 87t40 99t11.5 100.5q0 63 -21 114.5t-55 85t-79 56.5t-91 33t-94 10q-102 0 -179 -35t-118.5 -92t-61 -118.5t-19.5 -125.5q0 -77 31 -137t81.5 -94t108 -51t117.5 -17zM656 462q0 -75 -112 -93q94 -24 94 -97q0 -51 -43 -84.5t-140 -33.5
q-46 0 -84.5 8t-68 32t-29.5 61q0 84 127 102q-83 23 -83 90q0 49 41 79.5t128 30.5q68 0 119 -22.5t51 -72.5zM501 378q92 17 92 75q0 63 -106 63t-106 -69q0 -49 75 -61zM572 272q0 51 -89 68l-40 8q-103 -18 -103 -82q0 -70 116 -70q61 0 88.5 21.5t27.5 54.5z" />
    <glyph glyph-name="uni2468" unicode="&#x2468;" horiz-adv-x="899" 
d="M483 731q53 0 104.5 -10t103.5 -35t91 -62.5t63.5 -97.5t24.5 -134q0 -58 -12.5 -113.5t-43.5 -110.5t-78 -96.5t-121 -67t-167 -25.5q-53 0 -105 10.5t-103.5 35.5t-90.5 62.5t-63 97t-24 133.5q0 58 12.5 113t43 110.5t77 96.5t121 67t167.5 26zM445 20
q83 0 149.5 23.5t108.5 61t70.5 87t40 99t11.5 100.5q0 63 -21 114.5t-55 85t-79 56.5t-91 33t-94 10q-102 0 -179 -35t-118.5 -92t-61 -118.5t-19.5 -125.5q0 -77 31 -137t81.5 -94t108 -51t117.5 -17zM480 557q178 0 178 -162q0 -28 -2.5 -53t-15 -61.5t-34 -62.5t-63 -45
t-97.5 -19q-38 0 -70.5 8t-60.5 33t-30 65l62 5q1 -36 33 -51t72 -15q70 0 104.5 47t41.5 116q-46 -61 -141 -61q-36 0 -69 11t-59.5 39.5t-26.5 70.5q0 23 8 44.5t26 43t55 34.5t89 13zM471 342q91 0 129 66q-5 106 -119 106q-64 0 -90 -27t-26 -64q0 -41 33 -61t73 -20z
" />
    <glyph glyph-name="uni24EA" unicode="&#x24ea;" horiz-adv-x="899" 
d="M448 -21q-53 0 -105 10.5t-103.5 35.5t-90.5 62.5t-63 97t-24 133.5q0 58 12.5 113t43 110.5t77 96.5t121 67t167.5 26q53 0 104.5 -10t103.5 -35t91 -62.5t63.5 -97.5t24.5 -134q0 -58 -12.5 -113.5t-43.5 -110.5t-78 -96.5t-121 -67t-167 -25.5zM445 20
q83 0 149.5 23.5t108.5 61t70.5 87t40 99t11.5 100.5q0 63 -21 114.5t-55 85t-79 56.5t-91 33t-94 10q-102 0 -179 -35t-118.5 -92t-61 -118.5t-19.5 -125.5q0 -77 31 -137t81.5 -94t108 -51t117.5 -17zM450 154q-33 0 -62 7.5t-56 25.5t-43 52.5t-16 83.5q0 41 11 79.5
t34.5 74.5t66.5 58t101 22q34 0 63 -8t56 -26t43 -52.5t16 -83.5q0 -41 -11 -79.5t-34.5 -74.5t-67 -57.5t-101.5 -21.5zM450 200q51 0 86 32.5t48.5 73.5t13.5 84q0 64 -32.5 92t-78.5 28q-73 0 -110 -60t-37 -130q0 -64 32 -92t78 -28z" />
    <glyph glyph-name="uni24FF" unicode="&#x24ff;" horiz-adv-x="892" 
d="M439 -21q-163 0 -270 86.5t-107 249.5q0 57 12.5 112.5t44 111.5t78 98t120.5 68t166 26q74 0 140.5 -19t122.5 -58t89 -105.5t33 -153.5q0 -59 -14 -115.5t-46.5 -111.5t-80.5 -96.5t-122.5 -67t-165.5 -25.5zM447 154q58 0 102 21.5t67.5 57.5t34.5 74.5t11 79.5
q0 49 -16 84t-43.5 53t-56.5 25.5t-63 7.5q-58 0 -102 -21.5t-67 -57.5t-34 -74.5t-11 -79.5q0 -93 52 -131.5t126 -38.5zM447 203q-46 0 -77.5 27.5t-31.5 89.5q0 42 13.5 83t48 73t83.5 32q46 0 77.5 -27.5t31.5 -90.5q0 -42 -13 -82.5t-47.5 -72.5t-84.5 -32z" />
    <glyph glyph-name="lozenge" unicode="&#x25ca;" horiz-adv-x="721" 
d="M345 -17h-64l-171 372l302 372h63l174 -372zM433 662l-247 -307l138 -307l250 307z" />
    <glyph glyph-name="circle" unicode="&#x25cb;" horiz-adv-x="895" 
d="M448 -21q-53 0 -105 10.5t-103.5 35.5t-90.5 62.5t-63 97t-24 133.5q0 58 12.5 113t43 110.5t77 96.5t121 67t167.5 26q53 0 104.5 -10t103.5 -35t91 -62.5t63.5 -97.5t24.5 -134q0 -58 -12.5 -113.5t-43.5 -110.5t-78 -96.5t-121 -67t-167 -25.5zM445 20
q83 0 149.5 23.5t108.5 61t70.5 87t40 99t11.5 100.5q0 63 -21 114.5t-55 85t-79 56.5t-91 33t-94 10q-102 0 -179 -35t-118.5 -92t-61 -118.5t-19.5 -125.5q0 -77 31 -137t81.5 -94t108 -51t117.5 -17z" />
    <glyph glyph-name="uni2776" unicode="&#x2776;" horiz-adv-x="892" 
d="M439 -21q-163 0 -270 86.5t-107 249.5q0 57 12.5 112.5t44 111.5t78 98t120.5 68t166 26q74 0 140.5 -19t122.5 -58t89 -105.5t33 -153.5q0 -59 -14 -115.5t-46.5 -111.5t-80.5 -96.5t-122.5 -67t-165.5 -25.5zM419 164h68l67 382h-55q-30 -71 -117 -71h-18l-9 -59h23
q29 0 55.5 11t38.5 29z" />
    <glyph glyph-name="uni2777" unicode="&#x2777;" horiz-adv-x="892" 
d="M439 -21q-163 0 -270 86.5t-107 249.5q0 57 12.5 112.5t44 111.5t78 98t120.5 68t166 26q74 0 140.5 -19t122.5 -58t89 -105.5t33 -153.5q0 -59 -14 -115.5t-46.5 -111.5t-80.5 -96.5t-122.5 -67t-165.5 -25.5zM271 175h346l8 49h-245q59 27 101 49t85.5 52t66.5 63.5
t23 68.5q0 43 -26 69t-59 34.5t-74 8.5q-91 0 -135 -38.5t-39 -105.5l66 -5q-7 47 20 73t83 26q93 0 93 -70q0 -30 -21.5 -58.5t-65.5 -56.5t-86.5 -49.5t-107.5 -52.5q-8 -4 -14 -6.5t-12 -5.5z" />
    <glyph glyph-name="uni2778" unicode="&#x2778;" horiz-adv-x="892" 
d="M439 -21q-163 0 -270 86.5t-107 249.5q0 57 12.5 112.5t44 111.5t78 98t120.5 68t166 26q74 0 140.5 -19t122.5 -58t89 -105.5t33 -153.5q0 -59 -14 -115.5t-46.5 -111.5t-80.5 -96.5t-122.5 -67t-165.5 -25.5zM464 154q83 0 126.5 32.5t43.5 84.5q0 39 -27 61t-72 26
q53 5 86.5 30.5t33.5 70.5q0 37 -28 60.5t-62 30.5t-74 7q-84 0 -129.5 -34t-52.5 -92l67 -4q11 83 113 83q38 0 66.5 -15.5t28.5 -46.5q0 -34 -28.5 -51.5t-78.5 -17.5h-34l-7 -39h34q46 0 69.5 -17.5t23.5 -46.5q0 -34 -26 -54.5t-76 -20.5q-108 0 -113 84l-69 -4
q4 -127 185 -127z" />
    <glyph glyph-name="uni2779" unicode="&#x2779;" horiz-adv-x="892" 
d="M439 -21q-163 0 -270 86.5t-107 249.5q0 57 12.5 112.5t44 111.5t78 98t120.5 68t166 26q74 0 140.5 -19t122.5 -58t89 -105.5t33 -153.5q0 -59 -14 -115.5t-46.5 -111.5t-80.5 -96.5t-122.5 -67t-165.5 -25.5zM466 173h67l17 92h85l7 47h-85l44 243h-69l-284 -245
l-7 -45h242zM309 312l222 192l-38 -192h-184z" />
    <glyph glyph-name="uni277A" unicode="&#x277a;" horiz-adv-x="892" 
d="M439 -21q-163 0 -270 86.5t-107 249.5q0 57 12.5 112.5t44 111.5t78 98t120.5 68t166 26q74 0 140.5 -19t122.5 -58t89 -105.5t33 -153.5q0 -59 -14 -115.5t-46.5 -111.5t-80.5 -96.5t-122.5 -67t-165.5 -25.5zM447 159q96 0 139.5 46t43.5 106q0 61 -42.5 88t-101.5 27
q-90 0 -124 -56l39 133h241l8 49h-289l-63 -223l58 -5q30 58 105 58q43 0 72 -19.5t29 -56.5q0 -39 -28.5 -69t-88.5 -30q-40 0 -68 16t-34 50l-65 -8q7 -57 55.5 -81.5t113.5 -24.5z" />
    <glyph glyph-name="uni277B" unicode="&#x277b;" horiz-adv-x="892" 
d="M439 -21q-163 0 -270 86.5t-107 249.5q0 57 12.5 112.5t44 111.5t78 98t120.5 68t166 26q74 0 140.5 -19t122.5 -58t89 -105.5t33 -153.5q0 -59 -14 -115.5t-46.5 -111.5t-80.5 -96.5t-122.5 -67t-165.5 -25.5zM451 154q86 0 132 41.5t46 103.5q0 63 -42.5 92.5
t-108.5 29.5q-97 0 -140 -69q5 67 41 112.5t105 45.5q37 0 64.5 -15t32.5 -47l66 5q-7 56 -53 80t-106 24t-104.5 -21t-68 -56.5t-34 -74.5t-10.5 -84q0 -90 52.5 -128.5t127.5 -38.5zM449 200q-44 0 -76 25t-37 83q34 69 123 69q47 0 75.5 -20t28.5 -59q0 -43 -29 -70.5
t-85 -27.5z" />
    <glyph glyph-name="uni277C" unicode="&#x277c;" horiz-adv-x="892" 
d="M439 -21q-163 0 -270 86.5t-107 249.5q0 57 12.5 112.5t44 111.5t78 98t120.5 68t166 26q74 0 140.5 -19t122.5 -58t89 -105.5t33 -153.5q0 -59 -14 -115.5t-46.5 -111.5t-80.5 -96.5t-122.5 -67t-165.5 -25.5zM367 164h71l2 17q25 193 222 314l9 51h-336l-8 -51h272
q-98 -58 -159 -142t-72 -177z" />
    <glyph glyph-name="uni277D" unicode="&#x277d;" horiz-adv-x="892" 
d="M439 -21q-163 0 -270 86.5t-107 249.5q0 57 12.5 112.5t44 111.5t78 98t120.5 68t166 26q74 0 140.5 -19t122.5 -58t89 -105.5t33 -153.5q0 -59 -14 -115.5t-46.5 -111.5t-80.5 -96.5t-122.5 -67t-165.5 -25.5zM456 154q98 0 141 34t43 85q0 73 -96 97q115 19 115 92
q0 50 -52 72.5t-120 22.5q-88 0 -129 -30.5t-41 -79.5q0 -68 83 -90q-128 -18 -128 -101q0 -38 30 -62t68.5 -32t85.5 -8zM503 380l-44 7q-76 13 -76 60q0 67 105 67q104 0 104 -62q0 -55 -89 -72zM456 198q-49 0 -81 16.5t-32 52.5q0 61 100 80l40 -8q41 -8 64.5 -22.5
t23.5 -44.5q0 -32 -27 -53t-88 -21z" />
    <glyph glyph-name="uni277E" unicode="&#x277e;" horiz-adv-x="892" 
d="M439 -21q-163 0 -270 86.5t-107 249.5q0 57 12.5 112.5t44 111.5t78 98t120.5 68t166 26q74 0 140.5 -19t122.5 -58t89 -105.5t33 -153.5q0 -59 -14 -115.5t-46.5 -111.5t-80.5 -96.5t-122.5 -67t-165.5 -25.5zM447 154q57 0 98.5 19t63 45t34 63t15 62t2.5 53
q0 161 -179 161q-52 0 -89.5 -13t-56 -34.5t-26.5 -43t-8 -44.5q0 -61 49 -91t108 -30q93 0 138 57q-17 -157 -144 -157q-24 0 -44.5 4.5t-38.5 20t-19 40.5l-66 -6q3 -41 31.5 -66t61 -32.5t70.5 -7.5zM471 344q-39 0 -71 20t-32 60q0 36 25.5 62.5t88.5 26.5
q113 0 117 -109q-39 -60 -128 -60z" />
    <glyph glyph-name="uniE000" unicode="&#xe000;" horiz-adv-x="1116" 
d="M288 710h797l-9 -48h-746l-99 -523h89l-142 -151l-85 151h88z" />
    <glyph glyph-name="i.loclTRK" horiz-adv-x="275" 
d="M154 590l19 112h83l-19 -112h-83zM58 0l88 500h71l-88 -500h-71z" />
    <glyph glyph-name="dollar.tf" 
d="M458 382q89 -19 132.5 -64.5t43.5 -126.5q0 -95 -67.5 -152t-212.5 -57h-21l-15 -87h-51l16 91q-112 12 -176.5 65.5t-67.5 151.5l83 11q4 -145 172 -165l49 280l-31 5q-182 36 -182 184q0 86 67 140.5t206 54.5h8l15 85h51l-15 -88q94 -10 151 -55t63 -130l-79 -16
q-11 121 -147 138l-45 -255zM344 403l12 -2l44 249h-2q-187 0 -187 -125q0 -51 32 -79t101 -43zM357 45q198 0 198 140q0 58 -32.5 87.5t-99.5 42.5l-30 5l-49 -275h13z" />
    <glyph glyph-name="cent.tf" 
d="M354 43q72 2 113 34t61 90l69 -13q-59 -168 -253 -169l-14 -78h-51l14 81q-92 10 -150.5 64t-58.5 162q0 53 15.5 103t48 96t94 74t143.5 28l14 78h52l-14 -81q79 -10 131.5 -51.5t60.5 -120.5l-72 -10q-11 108 -130 124zM158 218q0 -154 145 -173l72 412q-52 -2 -92 -19
t-63 -41.5t-37.5 -57.5t-19.5 -62t-5 -59z" />
    <glyph glyph-name="sterling.tf" 
d="M433 52q62 0 90 27.5t40 83.5l65 -12q-14 -75 -61 -122t-134 -47q-36 0 -103.5 15.5t-128.5 15.5q-75 0 -188 -20l-7 53q99 27 146 82t47 167q0 11 -2 41h-117l9 53h105q-2 30 -2 44q0 280 248 280q94 0 154 -41t68 -124l-77 -19q-14 122 -145 122q-44 0 -76.5 -13
t-50 -32.5t-27.5 -50.5t-12.5 -58t-2.5 -64q0 -8 0.5 -22.5t0.5 -21.5h203l-10 -53h-189q1 -10 1 -31q0 -102 -35.5 -157t-115.5 -86q50 13 106 13q48 0 109 -11.5t92 -11.5z" />
    <glyph glyph-name="florin.tf" 
d="M588 651q-62 0 -93 -32t-53 -102l-30 -94h185l-10 -56h-193l-166 -517h-73l168 517h-155l10 56h163l26 79q17 53 31 85t39 64.5t62.5 47.5t90.5 15q45 0 85 -14l-13 -61q-34 12 -74 12z" />
    <glyph glyph-name="yen.tf" 
d="M396 309l-1 -3h222l-9 -49h-221l-14 -80h221l-9 -49h-221l-23 -128h-75l23 128h-221l9 49h221l14 80h-222l9 49h221l1 3l-203 386h83l139 -271q16 -34 23 -64h2q16 28 46 64l234 271h90z" />
    <glyph glyph-name="Euro.tf" 
d="M386 48q131 0 193 129l58 -35q-38 -75 -96.5 -118t-154.5 -43q-57 0 -105 16.5t-88 51.5t-63 98.5t-23 150.5v13h-72l7 40l9 51h65q24 136 108.5 223.5t229.5 87.5q191 0 248 -152l-72 -35q-42 121 -181 121q-108 0 -170.5 -69.5t-82.5 -175.5h307l-7 -40l-9 -51h-300v-9
q0 -74 17 -126.5t47.5 -79t63 -37.5t71.5 -11z" />
    <glyph glyph-name="perthousand.tf" 
d="M220 425q-52 0 -90.5 29t-38.5 95q0 62 35.5 111.5t106.5 49.5q52 0 90.5 -29t38.5 -95q0 -61 -35.5 -111t-106.5 -50zM235 663q-45 0 -66.5 -35.5t-21.5 -78.5q0 -42 20.5 -59.5t49.5 -17.5q46 0 67.5 36t21.5 78t-21 59.5t-50 17.5zM58 281l602 270l-11 -55l-601 -270z
M307 270q49 0 85.5 -29t36.5 -95q0 -62 -33.5 -111.5t-101.5 -49.5q-53 0 -91 29t-38 95q0 61 35.5 111t106.5 50zM516 250q6 0 16 -11.5t19 -38.5t9 -62q0 -61 -11.5 -97.5t-46.5 -36.5q-5 0 -14 11.5t-17.5 39t-8.5 62.5q0 28 1.5 48.5t7 41.5t16.5 32t29 11zM291 32
q45 0 67 36t22 78t-21 59.5t-50 17.5q-45 0 -66.5 -36t-21.5 -78q0 -77 70 -77z" />
    <glyph glyph-name="zero.zero" horiz-adv-x="743" 
d="M419 714q58 0 107.5 -16t91 -49.5t65 -93.5t23.5 -142q0 -56 -10.5 -113t-37 -115.5t-65 -103t-99.5 -72.5t-137 -28q-58 0 -107 16t-90.5 49.5t-65.5 94t-24 141.5q0 57 10.5 113.5t37 115t65 103t99.5 72.5t137 28zM419 651q-61 0 -109.5 -24.5t-78 -62.5t-49.5 -89
t-28 -99.5t-8 -97.5q0 -68 19 -115l417 418q-55 70 -163 70zM357 44q61 0 109.5 24.5t78 62.5t49.5 89t28 99.5t8 97.5q0 63 -18 112l-416 -419q55 -66 161 -66z" />
    <glyph glyph-name="zero.tf" 
d="M334 -19q-55 0 -101.5 16t-86 49.5t-62 93.5t-22.5 141q0 47 7.5 94.5t23 97t42.5 92t62.5 76.5t87 53.5t112.5 19.5q55 0 101.5 -16t85.5 -49.5t61.5 -93.5t22.5 -141q0 -57 -10 -114t-35 -115.5t-62 -103t-96 -72.5t-131 -28zM335 44q71 0 123.5 36t80 94.5t40.5 119.5
t13 123q0 126 -57.5 180t-138.5 54q-71 0 -123.5 -36t-80 -94.5t-40.5 -119.5t-13 -123q0 -126 57 -180t139 -54z" />
    <glyph glyph-name="one.tf" 
d="M365 68h212l-12 -68h-508l12 68h225l88 501q-70 -75 -207 -75h-31l12 68h23q83 0 144 36.5t92 96.5h61z" />
    <glyph glyph-name="two.tf" 
d="M31 0l12 66q207 95 356 201q80 57 123 114.5t43 128.5q0 140 -168 140q-93 0 -137.5 -42.5t-51.5 -110.5q-3 -21 -1 -44l-76 9q-2 23 1 44q8 89 73.5 148.5t194.5 59.5q49 0 90.5 -10t77.5 -31.5t57 -61.5t21 -94q0 -90 -53.5 -157t-153.5 -138q-119 -87 -268 -154h413
l-12 -68h-541z" />
    <glyph glyph-name="three.tf" 
d="M344 -19q-42 0 -79 6t-73.5 21t-63.5 39t-44.5 63t-19.5 89l76 9q14 -164 205 -164q100 0 144.5 43t44.5 110q0 132 -159 132h-66l11 62h74q85 0 129.5 37.5t44.5 101.5q0 121 -169 121q-184 0 -203 -172l-68 14q11 101 79 161t194 60q65 0 116.5 -14.5t89.5 -55.5
t38 -106q0 -73 -45.5 -120.5t-125.5 -57.5q60 -9 98.5 -48t38.5 -114q0 -41 -14.5 -78t-44 -69t-83.5 -51t-125 -19z" />
    <glyph glyph-name="four.tf" 
d="M395 0l32 183h-392l9 49l461 463h84l-80 -454h135l-10 -58h-135l-33 -183h-71zM127 241h311l53 299q7 41 17 88h-1q-24 -36 -64 -78l-256 -251q-33 -36 -60 -58z" />
    <glyph glyph-name="five.tf" 
d="M326 -19q-102 0 -174.5 44.5t-85.5 142.5l79 11q23 -134 186 -134q61 0 104 18.5t64.5 50t31 65t9.5 71.5q0 163 -168 163q-76 0 -122 -33t-76 -93l-72 7l111 401h439l-11 -65h-385l-76 -264q26 50 80 80t127 30q41 0 78.5 -10t73.5 -33t57 -68t21 -107q0 -55 -16.5 -103
t-50.5 -87.5t-91.5 -63t-132.5 -23.5z" />
    <glyph glyph-name="six.tf" 
d="M389 466q45 0 86 -12.5t76 -37.5t55.5 -69.5t20.5 -103.5q0 -109 -69 -185.5t-202 -76.5q-55 0 -101.5 15t-87.5 48t-64 95t-23 148q0 59 10 115.5t35 114t62.5 100.5t97 70t133.5 27q92 0 162.5 -43.5t82.5 -143.5l-75 -16q-24 140 -170 140q-54 0 -98 -18.5
t-72.5 -48.5t-48.5 -72t-30 -85.5t-13 -92.5q30 64 92 98t141 34zM359 44q53 0 92 17.5t60 47t30.5 62.5t9.5 69q0 48 -16 82t-43.5 50.5t-54.5 23.5t-58 7q-80 0 -139 -40.5t-87 -115.5q3 -57 22 -98.5t49.5 -63t63.5 -31.5t71 -10z" />
    <glyph glyph-name="seven.tf" 
d="M196 0l3 20q26 171 124.5 326.5t271.5 280.5h-445l12 68h535l-11 -59q-173 -118 -276.5 -276.5t-125.5 -331.5l-3 -28h-85z" />
    <glyph glyph-name="eight.tf" 
d="M474 368q66 -22 106 -62.5t40 -113.5q0 -91 -69 -151t-219 -60q-56 0 -104 10t-88.5 31t-64 59t-23.5 90q0 73 49 125t152 69q-116 47 -116 157q0 79 61.5 135.5t201.5 56.5q47 0 89.5 -8.5t82 -27t62.5 -54t23 -83.5q0 -65 -45 -110.5t-138 -62.5zM214 529
q0 -93 122 -125l71 -17q97 20 135.5 56t38.5 88q0 38 -17 64.5t-46 39t-56.5 17.5t-57.5 5q-57 0 -97 -12t-59 -33t-26.5 -40.5t-7.5 -42.5zM338 43q60 0 102.5 12.5t64 34.5t30.5 45t9 51q0 105 -133 140l-82 18q-199 -29 -199 -164q0 -40 18.5 -68.5t50.5 -42.5t66 -20
t73 -6z" />
    <glyph glyph-name="nine.tf" 
d="M379 714q53 0 98.5 -14t86.5 -46.5t64.5 -95t23.5 -149.5q0 -54 -6 -103.5t-26.5 -111.5t-54 -106.5t-96 -75.5t-145.5 -31q-44 0 -83.5 8.5t-78 28t-63.5 58t-30 91.5l75 16q15 -139 186 -139q71 0 122 31t76.5 84t36.5 105.5t13 113.5q-69 -122 -231 -122q-46 0 -88 12
t-77 36t-56 66.5t-21 98.5q0 46 14 87.5t44 78t85.5 58t130.5 21.5zM357 319q168 0 221 143q-3 46 -17.5 80.5t-34 55t-46 33t-50.5 16.5t-50 4q-58 0 -99.5 -16.5t-62 -44t-29 -56t-8.5 -61.5q0 -58 28.5 -94.5t65.5 -48t82 -11.5z" />
    <glyph glyph-name="gcommaaccent.ss01" horiz-adv-x="704" 
d="M457 760l12 -29q-29 -13 -40 -27.5t-16 -40.5h45l-14 -83h-84l13 73q7 41 25.5 66t58.5 41zM270 -210q-228 0 -253 162h76q25 -101 177 -101q62 0 105 14t66 41.5t33.5 54.5t17.5 66l15 80q-65 -120 -218 -120q-45 0 -86 12.5t-77 38.5t-57.5 73t-21.5 108q0 55 17 106
t50.5 94.5t90 69.5t129.5 26q79 0 139 -30t86 -89l32 104h56l-84 -479q-9 -51 -27 -90t-51 -72.5t-87 -51t-128 -17.5zM307 50q93 0 150 49t71 121l5 25q20 100 -39.5 154t-154.5 54q-58 0 -101.5 -21.5t-67.5 -56.5t-35.5 -73.5t-11.5 -78.5q0 -49 16.5 -84t44.5 -53.5
t58.5 -27t64.5 -8.5z" />
    <glyph glyph-name="gdotaccent.ss01" horiz-adv-x="704" 
d="M368 590l19 112h83l-19 -112h-83zM270 -210q-228 0 -253 162h76q25 -101 177 -101q62 0 105 14t66 41.5t33.5 54.5t17.5 66l15 80q-65 -120 -218 -120q-45 0 -86 12.5t-77 38.5t-57.5 73t-21.5 108q0 55 17 106t50.5 94.5t90 69.5t129.5 26q79 0 139 -30t86 -89l32 104
h56l-84 -479q-9 -51 -27 -90t-51 -72.5t-87 -51t-128 -17.5zM307 50q93 0 150 49t71 121l5 25q20 100 -39.5 154t-154.5 54q-58 0 -101.5 -21.5t-67.5 -56.5t-35.5 -73.5t-11.5 -78.5q0 -49 16.5 -84t44.5 -53.5t58.5 -27t64.5 -8.5z" />
    <glyph glyph-name="Iacute_J.loclNLD" horiz-adv-x="741" 
d="M207 756l92 104h79l-101 -104h-70zM664 756l92 104h79l-101 -104h-70zM147 0h-79l125 710h79zM639 193q-20 -114 -80.5 -161.5t-159.5 -47.5q-63 0 -119 17l14 73q53 -16 106 -16q67 0 108 33t55 113l89 506h79z" />
    <glyph glyph-name="iacute_j.loclNLD" horiz-adv-x="556" 
d="M163 580l101 146h78l-111 -146h-68zM442 580l101 146h78l-111 -146h-68zM58 0l88 500h71l-88 -500h-71zM243 -203q-41 0 -78 13l11 62q36 -11 62 -11q42 0 63 23t29 75l96 541h72l-98 -550q-13 -78 -48.5 -115.5t-108.5 -37.5z" />
    <glyph glyph-name="g.ss01" horiz-adv-x="704" 
d="M270 -210q-228 0 -253 162h76q25 -101 177 -101q62 0 105 14t66 41.5t33.5 54.5t17.5 66l15 80q-65 -120 -218 -120q-45 0 -86 12.5t-77 38.5t-57.5 73t-21.5 108q0 55 17 106t50.5 94.5t90 69.5t129.5 26q79 0 139 -30t86 -89l32 104h56l-84 -479q-9 -51 -27 -90
t-51 -72.5t-87 -51t-128 -17.5zM307 50q93 0 150 49t71 121l5 25q20 100 -39.5 154t-154.5 54q-58 0 -101.5 -21.5t-67.5 -56.5t-35.5 -73.5t-11.5 -78.5q0 -49 16.5 -84t44.5 -53.5t58.5 -27t64.5 -8.5z" />
    <glyph glyph-name="gbreve.ss01" horiz-adv-x="704" 
d="M332 726q-8 -101 94 -101q98 0 113 101h61q-24 -151 -177 -151q-78 0 -118.5 38t-33.5 113h61zM270 -210q-228 0 -253 162h76q25 -101 177 -101q62 0 105 14t66 41.5t33.5 54.5t17.5 66l15 80q-65 -120 -218 -120q-45 0 -86 12.5t-77 38.5t-57.5 73t-21.5 108
q0 55 17 106t50.5 94.5t90 69.5t129.5 26q79 0 139 -30t86 -89l32 104h56l-84 -479q-9 -51 -27 -90t-51 -72.5t-87 -51t-128 -17.5zM307 50q93 0 150 49t71 121l5 25q20 100 -39.5 154t-154.5 54q-58 0 -101.5 -21.5t-67.5 -56.5t-35.5 -73.5t-11.5 -78.5q0 -49 16.5 -84
t44.5 -53.5t58.5 -27t64.5 -8.5z" />
    <glyph glyph-name="gcircumflex.ss01" horiz-adv-x="704" 
d="M584 580h-68l-83 111l-123 -111h-74l161 146h78zM270 -210q-228 0 -253 162h76q25 -101 177 -101q62 0 105 14t66 41.5t33.5 54.5t17.5 66l15 80q-65 -120 -218 -120q-45 0 -86 12.5t-77 38.5t-57.5 73t-21.5 108q0 55 17 106t50.5 94.5t90 69.5t129.5 26q79 0 139 -30
t86 -89l32 104h56l-84 -479q-9 -51 -27 -90t-51 -72.5t-87 -51t-128 -17.5zM307 50q93 0 150 49t71 121l5 25q20 100 -39.5 154t-154.5 54q-58 0 -101.5 -21.5t-67.5 -56.5t-35.5 -73.5t-11.5 -78.5q0 -49 16.5 -84t44.5 -53.5t58.5 -27t64.5 -8.5z" />
    <glyph glyph-name="g.sups.ss01" horiz-adv-x="551" 
d="M261 157q-176 0 -194 118h69q17 -74 127 -74q76 0 108 32t45 96l10 48q-51 -72 -161 -72q-72 0 -124 40t-52 125q0 84 53 150t159 66q62 0 105 -25.5t58 -71.5l22 86h59l-62 -345q-15 -87 -65 -130t-157 -43zM288 351q66 0 107.5 37t47.5 90l3 16q10 64 -25.5 104.5
t-104.5 40.5q-79 0 -117.5 -50.5t-38.5 -115.5t37.5 -93.5t90.5 -28.5z" />
    <glyph glyph-name="a.sups" horiz-adv-x="515" 
d="M236 299q-65 0 -105 26t-40 79q0 110 188 119l155 7l1 11q9 52 -18.5 75.5t-87.5 23.5q-113 0 -128 -77h-70q23 123 199 123q96 0 140.5 -39.5t30.5 -122.5l-16 -91q-13 -74 -13 -123h-68q2 46 9 80q-49 -91 -177 -91zM258 344q67 0 112 33t54 88l5 29l-138 -6
q-128 -6 -128 -78q0 -66 95 -66z" />
    <glyph glyph-name="b.sups" horiz-adv-x="559" 
d="M342 299q-128 0 -163 86l-20 -75h-59l93 529h69l-43 -239q57 86 165 86q69 0 121 -38.5t52 -124.5q0 -53 -20 -102t-71 -85.5t-124 -36.5zM326 349q80 0 119.5 53.5t39.5 118.5q0 62 -37 88.5t-88 26.5q-60 0 -103.5 -34.5t-52.5 -84.5l-5 -24q-13 -64 21.5 -104
t105.5 -40z" />
    <glyph glyph-name="c.sups" horiz-adv-x="493" 
d="M287 299q-38 0 -71.5 8.5t-63 27.5t-46.5 53t-17 81q0 40 12 76.5t37.5 69t72 52t108.5 19.5q80 0 133 -33.5t59 -100.5l-68 -9q-12 92 -125 92q-58 0 -95.5 -27.5t-50 -62t-12.5 -74.5q0 -62 36.5 -91t93.5 -29q106 0 134 92l66 -11q-19 -63 -70 -98t-133 -35z" />
    <glyph glyph-name="d.sups" horiz-adv-x="559" 
d="M264 299q-71 0 -123.5 40t-52.5 125q0 55 20.5 103.5t71 83.5t121.5 35q60 0 103 -23.5t59 -66.5l42 243h69l-93 -529h-66l14 77q-49 -88 -165 -88zM289 349q64 0 103.5 36t49.5 88l4 17q13 66 -25 106t-107 40q-77 0 -115.5 -51t-38.5 -116q0 -64 38 -92t91 -28z" />
    <glyph glyph-name="e.sups" horiz-adv-x="495" 
d="M498 480h-344q-1 -70 38 -100.5t103 -30.5q97 0 135 81l51 -22q-51 -109 -190 -109q-29 0 -55.5 4.5t-54 16.5t-47.5 30.5t-33 49t-13 69.5q0 88 56.5 152.5t171.5 64.5q84 0 136.5 -39t52.5 -114q0 -29 -7 -53zM314 641q-68 0 -106.5 -33t-49.5 -86h281q2 12 2 21
q0 47 -35 72.5t-92 25.5z" />
    <glyph glyph-name="f.sups" horiz-adv-x="340" 
d="M399 675l-8 -48h-129l-55 -317h-67l56 317h-88l9 48h88l8 50q22 120 139 120q44 0 76 -13l-9 -49q-27 10 -59 10q-38 0 -56.5 -18t-24.5 -55l-8 -45h128z" />
    <glyph glyph-name="g.sups" horiz-adv-x="505" 
d="M536 734q13 0 33 -4l-8 -51q-17 5 -36 5q-49 0 -66 -33q36 -29 36 -77q0 -57 -46 -96.5t-144 -39.5q-64 0 -107 18q-44 -10 -44 -43q0 -34 66 -35l131 -1q67 -2 102.5 -20.5t35.5 -70.5q0 -129 -243 -129q-197 0 -197 92q0 63 86 81q-44 18 -44 60q0 57 84 79
q-42 29 -42 82q0 56 46 95.5t145 39.5q68 0 109 -20q26 68 103 68zM306 479q63 0 91.5 26.5t28.5 64.5q0 75 -103 75q-64 0 -92 -26.5t-28 -64.5q0 -75 103 -75zM343 318l-133 1q-19 0 -47 4q-53 -17 -53 -59q0 -37 38.5 -51t108.5 -14q166 0 166 72q0 28 -20 37.5t-60 9.5z
" />
    <glyph glyph-name="h.sups" horiz-adv-x="541" 
d="M100 310l94 529h68l-43 -245q49 92 165 92q63 0 105 -31.5t42 -107.5q0 -25 -6 -60l-31 -177h-69l32 178q5 28 5 47q0 54 -30.5 76.5t-75.5 22.5q-70 0 -108 -42.5t-49 -106.5l-30 -175h-69z" />
    <glyph glyph-name="i.sups" horiz-adv-x="235" 
d="M178 733l16 95h73l-17 -95h-72zM105 310l65 365h68l-65 -365h-68z" />
    <glyph glyph-name="j.sups" horiz-adv-x="251" 
d="M182 733l17 95h72l-16 -95h-73zM44 162q-37 0 -62 9l9 52q24 -8 45 -8q31 0 46.5 17t21.5 52l70 391h68l-71 -400q-9 -55 -38 -84t-89 -29z" />
    <glyph glyph-name="k.sups" horiz-adv-x="498" 
d="M542 675l-187 -142l133 -223h-74l-110 191l-117 -84l-19 -107h-68l93 529h69l-62 -351l255 187h87z" />
    <glyph glyph-name="l.sups" horiz-adv-x="246" 
d="M261 839l-93 -529h-68l93 529h68z" />
    <glyph glyph-name="m.sups" horiz-adv-x="776" 
d="M92 310l65 365h66l-14 -80q17 40 53 66t90 26q50 0 86.5 -23.5t42.5 -74.5q44 98 150 98q56 0 95.5 -31t39.5 -103q0 -20 -5 -52l-34 -191h-68l33 186q4 20 4 42q0 51 -26 73t-66 22q-103 0 -128 -142l-32 -181h-67l34 191q2 15 2 40q0 50 -26 71t-64 21
q-105 0 -131 -145l-31 -178h-69z" />
    <glyph glyph-name="n.sups" horiz-adv-x="533" 
d="M92 310l64 365h67l-16 -85q51 96 167 96q148 0 148 -143q0 -27 -6 -60l-30 -173h-68l30 172q5 33 5 48q0 103 -108 103q-70 0 -107 -43.5t-48 -109.5l-29 -170h-69z" />
    <glyph glyph-name="o.sups" horiz-adv-x="526" 
d="M292 299q-39 0 -73 8.5t-64.5 27t-48 53t-17.5 81.5q0 88 57.5 152.5t173.5 64.5q39 0 73 -8.5t64.5 -27t48 -53t17.5 -81.5q0 -87 -57.5 -152t-173.5 -65zM295 349q80 0 118.5 51t38.5 116q0 63 -38.5 91.5t-96.5 28.5q-80 0 -119 -51t-39 -116q0 -63 39 -91.5t97 -28.5
z" />
    <glyph glyph-name="p.sups" horiz-adv-x="552" 
d="M67 168l90 507h66l-14 -81q21 40 64 66t105 26q31 0 59.5 -8t54.5 -25.5t42 -51t16 -78.5q0 -39 -12 -77t-36.5 -72t-67.5 -54.5t-99 -20.5q-129 0 -161 85l-38 -216h-69zM317 349q43 0 75.5 16.5t50.5 43t26.5 55t8.5 57.5q0 62 -37 88.5t-87 26.5q-63 0 -105.5 -37.5
t-53.5 -88.5l-5 -23q-12 -61 23 -99.5t104 -38.5z" />
    <glyph glyph-name="q.sups" horiz-adv-x="552" 
d="M387 168l39 216q-20 -39 -62 -62t-99 -23q-72 0 -124.5 40t-52.5 126q0 87 54 154t159 67q61 0 104 -23.5t59 -65.5l23 78h58l-90 -507h-68zM289 349q64 0 103.5 36.5t50.5 88.5l3 17q12 65 -26 105t-106 40q-77 0 -115.5 -51t-38.5 -116q0 -64 38 -92t91 -28z" />
    <glyph glyph-name="r.sups" horiz-adv-x="333" 
d="M200 565q42 119 153 119q23 0 40 -5l-12 -63q-18 6 -42 6q-51 0 -86 -30q-48 -39 -64 -128l-28 -154h-69l65 365h63z" />
    <glyph glyph-name="s.sups" horiz-adv-x="466" 
d="M277 299q-173 0 -198 110l51 27q24 -86 154 -86q111 0 111 63q0 21 -15.5 33.5t-52.5 18.5l-87 10q-116 17 -116 97q0 52 43.5 83t133.5 31q153 0 186 -98l-50 -29q-25 78 -140 78q-106 0 -106 -58q0 -20 15 -32t54 -19l89 -12q60 -10 86 -33.5t26 -64.5
q0 -52 -43.5 -85.5t-140.5 -33.5z" />
    <glyph glyph-name="t.sups" horiz-adv-x="343" 
d="M84 628l8 47h88l16 94l71 26l-21 -120h130l-7 -47h-131l-32 -182q-9 -51 10.5 -69.5t57.5 -18.5q28 0 48 5l-9 -52q-30 -8 -65 -8q-134 0 -108 145l32 180h-88z" />
    <glyph glyph-name="u.sups" horiz-adv-x="528" 
d="M240 299q-145 0 -145 130q0 23 8 73l30 173h69l-31 -172q-6 -44 -6 -58q0 -93 103 -93q129 0 155 153l30 170h69l-64 -365h-67l16 86q-46 -97 -167 -97z" />
    <glyph glyph-name="v.sups" horiz-adv-x="486" 
d="M216 310l-112 365h71l76 -260q3 -9 10 -47h2q10 22 26 47l168 260h76l-241 -365h-76z" />
    <glyph glyph-name="w.sups" horiz-adv-x="716" 
d="M185 310l-71 365h66l45 -264q4 -20 5 -41h1q9 22 21 41l146 264h67l53 -264q4 -20 5 -41h2q8 23 19 41l139 264h68l-198 -365h-70l-54 263q-3 12 -5 38l-1 1q-3 -9 -18 -38l-148 -264h-72z" />
    <glyph glyph-name="x.sups" horiz-adv-x="493" 
d="M47 310l202 190l-128 175h77l74 -101q19 -30 23 -39h1q11 13 37 39l106 101h82l-188 -176l134 -189h-77l-82 113q-16 25 -22 38h-1q-26 -29 -36 -38l-119 -113h-83z" />
    <glyph glyph-name="y.sups" horiz-adv-x="481" 
d="M100 161q-35 0 -63 10l9 53q21 -9 54 -9q34 0 59 15.5t49 54.5l13 23l-117 367h72l74 -254q11 -34 14 -56h2q13 27 31 55l157 255h74l-253 -398q-45 -70 -82.5 -93t-92.5 -23z" />
    <glyph glyph-name="z.sups" horiz-adv-x="452" 
d="M75 355l322 272h-263l8 48h346l-7 -44l-320 -272h282l-9 -49h-366z" />
    <glyph glyph-name="g_g.liga.ss01" horiz-adv-x="1408" 
d="M270 -210q-228 0 -253 162h76q25 -101 177 -101q62 0 105 14t66 41.5t33.5 54.5t17.5 66l15 80q-65 -120 -218 -120q-45 0 -86 12.5t-77 38.5t-57.5 73t-21.5 108q0 55 17 106t50.5 94.5t90 69.5t129.5 26q79 0 139 -30t86 -89l32 104h56l-84 -479q-9 -51 -27 -90
t-51 -72.5t-87 -51t-128 -17.5zM974 -210q-228 0 -253 162h76q25 -101 177 -101q62 0 105 14t66 41.5t33.5 54.5t17.5 66l15 80q-65 -120 -218 -120q-45 0 -86 12.5t-77 38.5t-57.5 73t-21.5 108q0 55 17 106t50.5 94.5t90 69.5t129.5 26q79 0 139 -30t86 -89l32 104h56
l-84 -479q-9 -51 -27 -90t-51 -72.5t-87 -51t-128 -17.5zM307 50q93 0 150 49t71 121l5 25q20 100 -39.5 154t-154.5 54q-58 0 -101.5 -21.5t-67.5 -56.5t-35.5 -73.5t-11.5 -78.5q0 -49 16.5 -84t44.5 -53.5t58.5 -27t64.5 -8.5zM1011 50q93 0 150 49t71 121l5 25
q20 100 -39.5 154t-154.5 54q-58 0 -101.5 -21.5t-67.5 -56.5t-35.5 -73.5t-11.5 -78.5q0 -49 16.5 -84t44.5 -53.5t58.5 -27t64.5 -8.5z" />
    <glyph glyph-name="zero.case" horiz-adv-x="742" 
d="M357 -20q-58 0 -107 16t-90.5 50.5t-65 96.5t-23.5 145q0 58 11 116.5t37.5 118t65 105t100 74.5t137.5 29q58 0 107 -16t90.5 -50.5t65 -96.5t23.5 -145q0 -58 -11 -116.5t-37.5 -118t-65 -105t-100 -74.5t-137.5 -29zM357 44q61 0 109.5 25t78.5 64t50.5 91t28.5 102
t8 100v1q0 68 -18.5 117.5t-50.5 75t-66.5 37t-74.5 11.5q-61 0 -109.5 -25t-78.5 -64.5t-50.5 -91.5t-28.5 -102t-8 -100v-1q0 -68 18.5 -117t50.5 -74.5t66.5 -37t74.5 -11.5z" />
    <glyph glyph-name="one.case" horiz-adv-x="422" 
d="M172 0l102 578q-46 -66 -160 -66h-35l12 67h24q74 0 123 35t70 96h63l-125 -710h-74z" />
    <glyph glyph-name="two.case" horiz-adv-x="649" 
d="M-4 0l12 66q225 101 378 211q79 58 121 115.5t42 127.5q0 146 -178 146q-196 0 -200 -184q0 -6 0.5 -18t0.5 -16l-75 8q-2 20 -1 37q0 45 15 85t46 75.5t87 56.5t131 21q51 0 94 -10.5t80 -32.5t58.5 -63t21.5 -97q0 -62 -29.5 -118t-69.5 -94t-103 -85
q-121 -87 -285 -163h422l-12 -68h-556z" />
    <glyph glyph-name="three.case" horiz-adv-x="680" 
d="M329 -20q-55 0 -102 10.5t-90 34t-69 69.5t-29 110l76 9q14 -169 215 -169q106 0 155 44.5t49 112.5q0 136 -172 136h-66l12 62h74q91 0 138.5 39t47.5 105q0 37 -16.5 63t-44.5 38.5t-57 18t-63 5.5q-194 0 -215 -177l-69 14q13 103 84 164.5t202 61.5q49 0 92 -9
t81.5 -28.5t60.5 -56.5t22 -87q0 -74 -49.5 -123t-134.5 -59q66 -9 107.5 -49t41.5 -117q0 -91 -68.5 -156.5t-212.5 -65.5z" />
    <glyph glyph-name="four.case" horiz-adv-x="647" 
d="M619 187h-137l-33 -187h-71l33 187h-408l9 52l481 471h82l-82 -464h136zM479 553q12 61 19 96h-2q-20 -32 -67 -78l-252 -250q-47 -47 -79 -75h323z" />
    <glyph glyph-name="five.case" horiz-adv-x="664" 
d="M312 -20q-67 0 -121 17t-97 63t-52 118l79 11q23 -144 196 -144q63 0 108 19t68 51t33 66.5t10 73.5q0 49 -15.5 83.5t-42.5 52t-55 24.5t-61 7q-81 0 -130 -34t-81 -98l-72 7l115 413h461l-12 -65h-406l-78 -272q29 52 86.5 82t133.5 30q42 0 80.5 -10.5t74.5 -33.5
t57.5 -68.5t21.5 -107.5q0 -120 -75.5 -202.5t-225.5 -82.5z" />
    <glyph glyph-name="six.case" horiz-adv-x="693" 
d="M388 477q65 0 119 -21.5t92 -74.5t38 -132q0 -111 -72.5 -190t-211.5 -79q-57 0 -104.5 15t-89.5 49.5t-65.5 98t-23.5 151.5q0 60 10.5 118t36.5 116.5t64.5 103t100 72t137.5 27.5q44 0 84 -9t78 -29.5t63.5 -59.5t31.5 -93l-75 -17q-26 145 -182 145
q-56 0 -100.5 -18.5t-75 -49t-51.5 -73.5t-32 -89t-14 -99q31 67 95 102.5t147 35.5zM356 44q56 0 97.5 18t64 48t33 64t10.5 71q0 49 -17 84t-46 52.5t-58 24.5t-62 7q-82 0 -143.5 -40.5t-89.5 -115.5q4 -61 23.5 -104.5t50.5 -66t64.5 -32.5t72.5 -10z" />
    <glyph glyph-name="seven.case" horiz-adv-x="581" 
d="M133 0l3 21q25 174 127 333.5t278 287.5h-447l13 68h537l-11 -59q-176 -120 -282.5 -282.5t-129.5 -339.5l-3 -29h-85z" />
    <glyph glyph-name="eight.case" horiz-adv-x="691" 
d="M471 377q72 -23 115 -64.5t43 -116.5q0 -93 -72.5 -154.5t-227.5 -61.5q-79 0 -141 17t-105.5 62.5t-43.5 115.5q0 75 52 128.5t159 70.5q-124 46 -124 160q0 37 13.5 70t43 62.5t85.5 47t132 17.5q49 0 93 -8.5t84.5 -27.5t64.5 -55.5t24 -85.5q0 -68 -48 -114.5
t-147 -62.5zM203 541q0 -96 131 -128l70 -18q104 20 145 57.5t41 91.5q0 39 -18 66.5t-48.5 40.5t-59 18t-60.5 5q-60 0 -102.5 -12.5t-62.5 -34t-28 -42.5t-8 -44zM334 43q121 0 169.5 42.5t48.5 104.5q0 108 -142 144l-81 19q-112 -15 -161.5 -60.5t-49.5 -108.5
q0 -41 19 -70t52.5 -44t68.5 -21t76 -6z" />
    <glyph glyph-name="nine.case" 
d="M378 731q44 0 83 -8t77 -29.5t65 -55.5t43.5 -89t16.5 -127q0 -38 -3 -74.5t-12.5 -82t-25 -84t-42 -77t-61.5 -65t-87 -43t-114 -16.5q-45 0 -85.5 9t-80.5 29.5t-65.5 61t-30.5 97.5l75 17q5 -58 38 -93.5t69.5 -46t78.5 -10.5q63 0 111.5 22.5t77.5 57t48 82.5
t26 92.5t9 94.5q-74 -131 -244 -131q-103 0 -176 54t-73 164q0 47 15 89.5t46 80t88 59.5t133 22zM356 325q87 0 145.5 40.5t86.5 108.5q-5 47 -21 83t-36.5 56.5t-47.5 33.5t-50.5 17t-50.5 4q-61 0 -104.5 -17t-65 -46t-31 -59t-9.5 -63q0 -86 54 -122t130 -36z" />
    <glyph glyph-name="one.ss02.case" horiz-adv-x="569" 
d="M309 68h212l-12 -68h-508l12 68h225l91 516q-70 -75 -207 -75h-31l12 68h23q83 0 144 36.5t92 96.5h61z" />
    <glyph glyph-name="zero.tf.case" 
d="M334 -20q-55 0 -101.5 16t-85.5 50.5t-61.5 96t-22.5 144.5q0 58 10.5 116.5t35.5 118.5t62.5 105.5t96.5 74.5t132 29q116 0 193 -73.5t77 -233.5q0 -74 -18 -147t-55 -142t-105 -112t-158 -43zM335 44q57 0 103 25t74.5 64.5t47.5 91.5t26.5 102t7.5 100q0 55 -11.5 98
t-30.5 69.5t-45 43.5t-52.5 23.5t-55.5 6.5q-57 0 -103 -25t-74.5 -64.5t-47.5 -91.5t-26.5 -102.5t-7.5 -100.5q0 -68 17 -117t46.5 -74.5t62 -37t69.5 -11.5z" />
    <glyph glyph-name="one.tf.case" 
d="M365 68h212l-12 -68h-508l12 68h225l90 515q-68 -77 -207 -77h-31l12 67h23q82 0 143.5 38t93.5 99h61z" />
    <glyph glyph-name="two.tf.case" 
d="M31 0l11 66q205 96 357 208q81 59 124.5 117.5t43.5 130.5q0 80 -48.5 112t-119.5 32q-93 0 -138 -44t-51 -114q-2 -15 -2 -44l-75 9q-2 23 1 45q8 91 73 152t195 61q49 0 90.5 -10.5t77.5 -32.5t56.5 -62.5t20.5 -95.5q0 -49 -15.5 -91.5t-47.5 -80.5t-64 -66t-80 -64
q-122 -90 -270 -160h414l-12 -68h-541z" />
    <glyph glyph-name="three.tf.case" 
d="M344 -20q-53 0 -98 10.5t-86.5 34t-66.5 69.5t-27 110l75 9q14 -169 204 -169q100 0 145.5 44.5t45.5 112.5q0 136 -159 136h-67l12 62h75q85 0 129 39t44 105q0 37 -15 63t-41 38.5t-53 18t-58 5.5q-184 0 -205 -177l-68 14q12 103 80.5 164.5t194.5 61.5q47 0 87.5 -9
t76.5 -28.5t57 -56.5t21 -87q0 -74 -45.5 -123t-125.5 -59q60 -9 98.5 -49t38.5 -117q0 -42 -14.5 -80t-45 -70.5t-84.5 -52t-125 -19.5z" />
    <glyph glyph-name="four.tf.case" 
d="M395 0l33 187h-392l9 50l463 473h84l-82 -464h135l-10 -59h-135l-34 -187h-71zM128 246h311l54 307q7 44 17 90h-1q-23 -35 -64 -80l-257 -258q-32 -36 -60 -59z" />
    <glyph glyph-name="five.tf.case" 
d="M326 -20q-102 0 -174 45.5t-85 145.5l79 11q22 -137 185 -137q61 0 104 19t65 51.5t31.5 66.5t9.5 73q0 167 -168 167q-76 0 -122 -33.5t-76 -95.5l-72 7l112 410h440l-12 -65h-385l-77 -272q27 52 81 82t127 30q41 0 78.5 -10t73 -33.5t56.5 -69t21 -108.5
q0 -56 -17 -105t-50.5 -90t-91.5 -65t-133 -24z" />
    <glyph glyph-name="six.tf.case" 
d="M390 477q98 0 168.5 -56.5t70.5 -171.5q0 -111 -70 -190t-204 -79q-55 0 -101.5 15t-87 49t-63.5 97.5t-23 151.5q0 60 10.5 118t35.5 117t62.5 103t97.5 72t135 28q42 0 80 -9t73.5 -29.5t59.5 -59.5t30 -93l-75 -17q-23 145 -169 145q-53 0 -96.5 -18.5t-72.5 -49
t-49.5 -73t-31 -88.5t-13.5 -98q30 65 92 100.5t141 35.5zM358 44q53 0 92.5 18t61 48t31.5 64t10 71q0 49 -16 84t-43.5 52.5t-55 24.5t-58.5 7q-79 0 -137.5 -40.5t-86.5 -113.5q8 -117 64.5 -166t137.5 -49z" />
    <glyph glyph-name="seven.tf.case" 
d="M196 0l3 21q25 175 125 334t273 287h-445l13 68h535l-12 -59q-173 -120 -277 -282.5t-126 -339.5l-4 -29h-85z" />
    <glyph glyph-name="eight.tf.case" 
d="M473 377q67 -23 107.5 -64.5t40.5 -116.5q0 -93 -70 -154.5t-219 -61.5q-56 0 -103.5 10t-88 32t-64 61t-23.5 92q0 75 50 128.5t154 70.5q-118 45 -118 160q0 81 62 139t202 58q47 0 89.5 -8.5t81.5 -27.5t62 -55.5t23 -85.5q0 -67 -46 -113.5t-140 -63.5zM216 542
q0 -100 121 -129l70 -18q98 20 137 57.5t39 91.5q0 39 -17 66.5t-45.5 40.5t-56 18t-57.5 5q-57 0 -97 -12.5t-59 -34t-27 -42t-8 -43.5zM338 43q114 0 160.5 42.5t46.5 105.5q0 109 -132 142l-81 20q-107 -16 -154 -61t-47 -108q0 -41 18.5 -70t50 -44t65.5 -21t73 -6z" />
    <glyph glyph-name="nine.tf.case" 
d="M382 731q54 0 99 -14.5t86 -47.5t64 -96.5t23 -153.5q0 -38 -3 -73.5t-12 -81t-23.5 -84t-40 -76.5t-59.5 -64.5t-83.5 -43t-110.5 -16.5q-34 0 -65 5t-64.5 18t-58.5 34t-42.5 55.5t-21.5 78.5l76 16q14 -143 182 -143q58 0 103 22.5t72 57.5t44.5 83.5t24.5 92.5t9 92
q-72 -130 -233 -130q-100 0 -170.5 54t-70.5 165q0 47 14 89t44.5 79.5t86 59.5t130.5 22zM358 325q83 0 139 40.5t83 108.5q-20 194 -197 194q-58 0 -99 -17t-62 -45.5t-30 -58.5t-9 -63q0 -46 15.5 -78.5t42.5 -49.5t55.5 -24t61.5 -7z" />
    <glyph glyph-name="zero.zero.case" horiz-adv-x="743" 
d="M422 731q58 0 107 -16t90.5 -50.5t65 -96.5t23.5 -145q0 -58 -11 -116.5t-37.5 -118t-65 -105t-100 -74.5t-137.5 -29q-58 0 -107 16t-90.5 50.5t-65 96.5t-23.5 145q0 58 11 116.5t37.5 118t65 105t100 74.5t137.5 29zM147 285v-1q0 -71 20 -119l423 423q-55 80 -168 80
q-61 0 -109.5 -25t-78.5 -64.5t-50.5 -91.5t-28.5 -102t-8 -100zM632 426v1q0 63 -15 106l-420 -421q56 -68 160 -68q61 0 109.5 25t78.5 64t50.5 91t28.5 102t8 100z" />
    <glyph glyph-name="zero.tf.zero.case" 
d="M401 731q116 0 193 -73.5t77 -233.5q0 -74 -18 -147t-55 -142t-105 -112t-158 -43q-55 0 -101.5 16t-85.5 50.5t-61.5 96t-22.5 144.5q0 58 10.5 116.5t35.5 118.5t62.5 105.5t96.5 74.5t132 29zM400 668q-57 0 -103 -25t-74.5 -64.5t-47.5 -91.5t-26.5 -102.5
t-7.5 -100.5q0 -61 14 -106l414 387q-49 103 -169 103zM336 44q57 0 103 25t74.5 64.5t47.5 91.5t26.5 102t7.5 100q0 49 -9 86l-410 -384q50 -85 160 -85z" />
    <glyph glyph-name="zero.osf" horiz-adv-x="723" 
d="M340 -19q-58 0 -107 12.5t-92 40t-67.5 78t-24.5 119.5q0 59 19 114t57.5 103t107 77t157.5 29q58 0 107 -12.5t91.5 -40t67 -78t24.5 -119.5q0 -59 -19 -114t-57.5 -103t-106.5 -77t-157 -29zM343 43q71 0 124.5 24.5t82 64t42 82t13.5 86.5q0 54 -18.5 92.5t-51 59.5
t-69.5 30.5t-80 9.5q-71 0 -124.5 -24.5t-82 -64t-42 -82t-13.5 -86.5q0 -54 18.5 -92.5t51 -59.5t69.5 -30.5t80 -9.5z" />
    <glyph glyph-name="one.osf" horiz-adv-x="643" 
d="M346 65h219l-11 -65h-517l11 65h227l63 353q-26 -32 -84.5 -54t-119.5 -22h-30l12 67h21q78 0 141.5 36t91.5 90h59z" />
    <glyph glyph-name="two.osf" horiz-adv-x="674" 
d="M18 55q205 66 335 138q88 46 128 88.5t40 96.5q0 113 -161 113q-99 0 -144 -40.5t-45 -101.5q0 -13 2 -33l-74 10q-2 18 -2 29q0 80 65 139.5t198 59.5q104 0 171 -42t67 -128q0 -60 -35.5 -107t-109.5 -90q-88 -55 -281 -122h406l-11 -65h-559z" />
    <glyph glyph-name="three.osf" horiz-adv-x="681" 
d="M301 -169q-55 0 -102.5 10t-91.5 32.5t-69.5 66.5t-26.5 106l75 9q9 -161 216 -161q107 0 155.5 41.5t48.5 104.5q0 129 -172 129h-66l11 62h75q90 0 137.5 38t47.5 101q0 121 -182 121q-193 0 -213 -170l-68 14q12 100 82.5 159.5t200.5 59.5q50 0 93 -8.5t81 -27.5
t60.5 -55.5t22.5 -85.5q0 -71 -49 -119t-134 -58q150 -21 150 -158q0 -40 -15 -76t-46.5 -67t-88 -49.5t-132.5 -18.5z" />
    <glyph glyph-name="four.osf" horiz-adv-x="648" 
d="M352 -150l32 184h-408l9 51l472 451h87l-79 -443h138l-10 -59h-138l-32 -184h-71zM69 93h325l49 274q2 10 7.5 45.5t10.5 55.5h-2q-28 -37 -81 -88l-224 -211q-46 -44 -85 -76z" />
    <glyph glyph-name="five.osf" horiz-adv-x="665" 
d="M285 -169q-105 0 -180.5 44.5t-90.5 144.5l78 11q26 -136 198 -136q63 0 108 18t68 48.5t32.5 62.5t9.5 69q0 48 -15.5 81.5t-42.5 50.5t-55.5 24t-61.5 7q-81 0 -130 -33t-81 -97l-72 7l114 402h461l-12 -65h-404l-77 -264q29 52 85.5 82.5t131.5 30.5q43 0 81.5 -10
t75 -33t58 -67.5t21.5 -105.5q0 -115 -74.5 -193.5t-225.5 -78.5z" />
    <glyph glyph-name="six.osf" horiz-adv-x="691" 
d="M386 466q48 0 90.5 -12.5t79.5 -37.5t58.5 -69.5t21.5 -103.5q0 -109 -72 -185.5t-211 -76.5q-57 0 -105 15t-89.5 48t-65.5 95t-24 148q0 59 10.5 115.5t36 114t63.5 100.5t99.5 70t137.5 27q44 0 84 -9t78 -29t64 -58t32 -91l-75 -16q-25 140 -183 140
q-68 0 -119.5 -26t-82 -72t-47 -99.5t-22.5 -118.5q32 63 95.5 97t145.5 34zM356 44q107 0 155.5 58t48.5 138q0 48 -17 82t-46 50.5t-58.5 23.5t-62.5 7q-83 0 -143.5 -40t-88.5 -113q7 -112 66.5 -159t145.5 -47z" />
    <glyph glyph-name="seven.osf" horiz-adv-x="585" 
d="M112 -150l2 13q69 364 397 604h-448l13 68h541l-11 -59q-171 -121 -271.5 -267t-135.5 -343l-2 -16h-85z" />
    <glyph glyph-name="eight.osf" horiz-adv-x="688" 
d="M473 368q155 -48 155 -176q0 -91 -72 -151t-227 -60q-58 0 -108 10t-92 31t-66.5 59t-24.5 90q0 73 51 125.5t158 69.5q-123 46 -123 156q0 36 13.5 68t42.5 61t85 46t132 17q49 0 93 -8.5t85 -27t65 -54t24 -83.5q0 -65 -47 -110.5t-144 -62.5zM201 529q0 -94 132 -125
l71 -17q103 20 143.5 55.5t40.5 88.5q0 38 -18 64.5t-48.5 39t-59.5 17.5t-61 5q-60 0 -102.5 -12t-62 -33t-27.5 -40.5t-8 -42.5zM334 43q120 0 168.5 41t48.5 102q0 105 -143 140l-83 18q-208 -29 -208 -164q0 -40 19.5 -68.5t52.5 -42.5t68.5 -20t76.5 -6z" />
    <glyph glyph-name="nine.osf" horiz-adv-x="696" 
d="M346 553q56 0 103.5 -14t90.5 -46t67.5 -94.5t24.5 -150.5q0 -53 -6.5 -102.5t-28.5 -109.5t-58 -103t-101 -72.5t-151 -29.5q-42 0 -81 7.5t-77 25.5t-64 53t-32 83l75 18q19 -124 178 -124q64 0 113.5 20.5t78 52.5t47 77t25.5 87t8 90q-73 -125 -243 -125
q-48 0 -90.5 12t-79.5 36t-58.5 66.5t-21.5 98.5q0 46 14.5 87t45.5 77.5t88 58t133 21.5zM326 159q87 0 145 39t87 106q-5 56 -26.5 95t-53.5 57.5t-63 26t-66 7.5q-61 0 -104 -16.5t-64.5 -44t-30.5 -56t-9 -61.5q0 -58 30 -94t68.5 -47.5t86.5 -11.5z" />
    <glyph glyph-name="one.ss02" horiz-adv-x="569" 
d="M309 68h212l-12 -68h-508l12 68h225l88 501q-70 -75 -207 -75h-31l12 68h23q83 0 144 36.5t92 96.5h61z" />
    <glyph glyph-name="zero.tosf" 
d="M326 -19q-54 0 -100 12.5t-86 40t-63 78t-23 119.5q0 59 18 114t54.5 103t101 77t148.5 29q54 0 100 -12.5t86 -40t63 -78t23 -119.5q0 -59 -18 -114t-54.5 -103t-101 -77t-148.5 -29zM330 43q66 0 115.5 24.5t76 64t39 82t12.5 86.5q0 54 -17 92.5t-47 59.5t-63.5 30.5
t-73.5 9.5q-66 0 -115.5 -24.5t-75.5 -64t-38.5 -82t-12.5 -86.5q0 -54 17 -92.5t46.5 -59.5t63 -30.5t73.5 -9.5z" />
    <glyph glyph-name="one.tosf" 
d="M377 62h199l-11 -62h-501l11 62h231l62 356q-25 -31 -82.5 -53.5t-114.5 -22.5h-38l12 68h28q74 0 137.5 36t90.5 89h59z" />
    <glyph glyph-name="two.tosf" 
d="M34 55q202 65 334 138q88 47 127 89t39 96q0 113 -159 113q-98 0 -142.5 -40t-44.5 -101q0 -18 3 -32l-74 10q-3 12 -3 29q0 79 64.5 138t196.5 59q104 0 170 -42t66 -128q0 -113 -143 -197q-87 -54 -279 -122h402l-11 -65h-555z" />
    <glyph glyph-name="three.tosf" 
d="M319 -169q-42 0 -79.5 5.5t-75.5 20.5t-65 38.5t-44.5 62t-17.5 88.5l75 9q9 -161 208 -161q102 0 148.5 41.5t46.5 104.5q0 129 -164 129h-73l11 62h81q87 0 132.5 38t45.5 101q0 121 -173 121q-185 0 -204 -170l-69 14q12 100 80.5 159.5t194.5 59.5q48 0 89.5 -8.5
t78.5 -27.5t58.5 -55.5t21.5 -85.5q0 -71 -47 -119t-128 -58q141 -21 141 -158q0 -87 -65.5 -149t-206.5 -62z" />
    <glyph glyph-name="four.tosf" 
d="M374 -153l32 184h-398l9 49l464 455h85l-79 -446h135l-10 -58h-135l-32 -184h-71zM100 89h316l51 286q13 71 18 95h-2q-23 -32 -69 -80l-244 -236q-40 -42 -70 -65z" />
    <glyph glyph-name="five.tosf" 
d="M304 -169q-103 0 -177 43.5t-88 138.5l79 11q24 -129 191 -129q61 0 104.5 17.5t65.5 48t31.5 63t9.5 69.5q0 163 -169 163q-137 0 -200 -120l-72 7l110 392h441l-12 -65h-384l-74 -258q27 50 82 78.5t127 28.5q42 0 79 -10t72 -33t56 -67.5t21 -105.5q0 -115 -73 -193.5
t-220 -78.5z" />
    <glyph glyph-name="six.tosf" 
d="M389 466q45 0 86 -12.5t76 -37.5t55.5 -69.5t20.5 -103.5q0 -109 -69 -185.5t-202 -76.5q-55 0 -101.5 15t-87.5 48t-64 95t-23 148q0 59 10 115.5t35 114t62.5 100.5t97 70t133.5 27q92 0 162.5 -43.5t82.5 -143.5l-75 -16q-24 140 -170 140q-54 0 -98 -18.5
t-72.5 -48.5t-48.5 -72t-30 -85.5t-13 -92.5q30 64 92 98t141 34zM359 44q53 0 92 17.5t60 47t30.5 62.5t9.5 69q0 48 -16 82t-43.5 50.5t-54.5 23.5t-58 7q-80 0 -139 -40.5t-87 -115.5q3 -57 22 -98.5t49.5 -63t63.5 -31.5t71 -10z" />
    <glyph glyph-name="seven.tosf" 
d="M170 -150l2 13q68 363 389 604h-439l12 68h533l-11 -59q-167 -121 -265.5 -266t-132.5 -341l-4 -19h-84z" />
    <glyph glyph-name="eight.tosf" 
d="M474 368q66 -22 106 -62.5t40 -113.5q0 -91 -69 -151t-219 -60q-56 0 -104 10t-88.5 31t-64 59t-23.5 90q0 73 49 125t152 69q-116 47 -116 157q0 79 61.5 135.5t201.5 56.5q47 0 89.5 -8.5t82 -27t62.5 -54t23 -83.5q0 -65 -45 -110.5t-138 -62.5zM214 529
q0 -93 122 -125l71 -17q97 20 135.5 56t38.5 88q0 38 -17 64.5t-46 39t-56.5 17.5t-57.5 5q-57 0 -97 -12t-59 -33t-26.5 -40.5t-7.5 -42.5zM338 43q60 0 102.5 12.5t64 34.5t30.5 45t9 51q0 105 -133 140l-82 18q-199 -29 -199 -164q0 -40 18.5 -68.5t50.5 -42.5t66 -20
t73 -6z" />
    <glyph glyph-name="nine.tosf" 
d="M345 553q43 0 81 -8t75 -29t63.5 -54.5t42.5 -88t16 -125.5q0 -53 -6.5 -102.5t-27.5 -109.5t-56 -103t-97.5 -72.5t-145.5 -29.5q-42 0 -80 8.5t-75.5 27.5t-62.5 56t-31 89l75 17q18 -135 172 -135q61 0 108 20.5t75 52.5t46 77t24.5 87t7.5 90q-71 -125 -235 -125
q-46 0 -86.5 12t-75.5 36t-55.5 66.5t-20.5 98.5q0 46 14 87t44 77.5t84 58t127 21.5zM325 159q84 0 140.5 39.5t83.5 106.5q-5 56 -25.5 94.5t-51.5 57t-60.5 26t-63.5 7.5q-57 0 -97.5 -16.5t-61 -44t-29 -56t-8.5 -61.5q0 -58 28 -94t64 -47.5t81 -11.5z" />
    <glyph glyph-name="zero.osf.zero" horiz-adv-x="723" 
d="M390 554q58 0 107 -12.5t91.5 -40t67 -78t24.5 -119.5q0 -59 -19 -114t-57.5 -103t-106.5 -77t-157 -29q-58 0 -107 12.5t-92 40t-67.5 78t-24.5 119.5q0 59 19 114t57.5 103t107 77t157.5 29zM386 492q-71 0 -124.5 -24.5t-82 -64t-42 -82t-13.5 -86.5q0 -70 33 -116
l387 326q-56 47 -158 47zM343 43q71 0 124.5 24.5t82 64t42 82t13.5 86.5q0 67 -31 113l-388 -325q57 -45 157 -45z" />
    <glyph glyph-name="zero.tf.zero" 
d="M397 714q55 0 101.5 -16t85.5 -49.5t61.5 -93.5t22.5 -141q0 -57 -10 -114t-35 -115.5t-62 -103t-96 -72.5t-131 -28q-55 0 -101.5 16t-86 49.5t-62 93.5t-22.5 141q0 47 7.5 94.5t23 97t42.5 92t62.5 76.5t87 53.5t112.5 19.5zM396 651q-71 0 -123.5 -36t-80 -94.5
t-40.5 -119.5t-13 -123q0 -58 12 -98l408 383q-50 88 -163 88zM335 44q71 0 123.5 36t80 94.5t40.5 119.5t13 123q0 56 -12 97l-408 -383q50 -87 163 -87z" />
    <glyph glyph-name="zero.tosf.zero" 
d="M376 554q54 0 100 -12.5t86 -40t63 -78t23 -119.5q0 -59 -18 -114t-54.5 -103t-101 -77t-148.5 -29q-54 0 -100 12.5t-86 40t-63 78t-23 119.5q0 59 18 114t54.5 103t101 77t148.5 29zM372 492q-66 0 -115.5 -24.5t-75.5 -64t-38.5 -82t-12.5 -86.5q0 -67 27 -111
l364 318q-53 50 -149 50zM330 43q66 0 115.5 24.5t76 64t39 82t12.5 86.5q0 66 -25 108l-364 -317q52 -48 146 -48z" />
    <glyph glyph-name="zero.subs" horiz-adv-x="578" 
d="M241 -154q-92 0 -154.5 52t-62.5 169q0 54 14 105.5t43 100t83 78.5t126 30q43 0 79.5 -11t68.5 -35t50.5 -68.5t18.5 -105.5q0 -54 -14 -106t-43 -100.5t-83 -78.5t-126 -30zM241 -98q52 0 91 25t60.5 66t31.5 84.5t10 87.5q0 86 -42 123.5t-102 37.5q-52 0 -91 -25
t-60.5 -66t-31.5 -84t-10 -87q0 -87 42 -124.5t102 -37.5z" />
    <glyph glyph-name="one.subs" horiz-adv-x="344" 
d="M102 -140l71 401q-34 -48 -118 -48h-28l11 61h20q109 0 145 93h57l-90 -507h-68z" />
    <glyph glyph-name="two.subs" horiz-adv-x="511" 
d="M-26 -140l9 53q54 26 85 42t78.5 41.5t75 43.5t60.5 43t51 46.5t30 47.5t12 51q0 99 -124 99q-71 0 -107.5 -40t-29.5 -105l-69 5q-11 90 48 142t163 52q51 0 92 -11.5t71.5 -45t30.5 -87.5q0 -47 -29 -93t-83 -86.5t-111.5 -73.5t-132.5 -67h310l-9 -57h-421z" />
    <glyph glyph-name="three.subs" horiz-adv-x="532" 
d="M225 -154q-217 0 -223 163l71 7q9 -117 151 -117q70 0 104.5 30t34.5 77q0 89 -134 89h-45l9 51h50q71 0 108 25.5t37 71.5t-37 65.5t-89 19.5q-136 0 -150 -119l-67 8q9 76 64 120t155 44q51 0 92 -10t73 -40.5t32 -78.5q0 -55 -38.5 -89.5t-103.5 -41.5q52 -7 84 -35.5
t32 -82.5q0 -66 -52.5 -111.5t-157.5 -45.5z" />
    <glyph glyph-name="four.subs" horiz-adv-x="521" 
d="M450 -11h-103l-22 -129h-68l22 129h-303l9 47l355 331h74l-58 -327h103zM340 307l-281 -267h230z" />
    <glyph glyph-name="five.subs" horiz-adv-x="518" 
d="M207 -154q-80 0 -138 33.5t-67 107.5l69 9q17 -96 137 -96q82 0 118.5 42.5t36.5 99.5q0 59 -36 85t-91 26q-103 0 -145 -87l-63 6l83 295h351l-10 -54h-300l-54 -187q45 78 160 78q71 0 123.5 -36.5t52.5 -118.5q0 -83 -55.5 -143t-171.5 -60z" />
    <glyph glyph-name="six.subs" horiz-adv-x="541" 
d="M270 201q79 0 133 -40t54 -123q0 -80 -55.5 -136t-160.5 -56q-43 0 -79.5 11t-68.5 35t-50.5 69.5t-18.5 108.5q0 45 7.5 87t27 83.5t48.5 72t75.5 49.5t105.5 19q72 0 128.5 -31.5t66.5 -104.5l-69 -10q-16 93 -129 93q-93 0 -139.5 -64t-53.5 -161q50 98 178 98z
M241 -101q74 0 109.5 39.5t35.5 97.5q0 60 -38 86.5t-94 26.5q-118 0 -162 -102q6 -81 47.5 -114.5t101.5 -33.5z" />
    <glyph glyph-name="seven.subs" horiz-adv-x="461" 
d="M77 -140l2 15q18 124 93 236.5t203 198.5h-335l9 57h409l-9 -53q-126 -82 -201.5 -193t-91.5 -239l-3 -22h-76z" />
    <glyph glyph-name="eight.subs" horiz-adv-x="540" 
d="M332 131q117 -35 117 -129q0 -67 -54.5 -111.5t-172.5 -44.5q-57 0 -104 11.5t-82 44t-35 82.5q0 52 37.5 88.5t117.5 49.5q-94 35 -94 116q0 61 49.5 102t157.5 41q52 0 95.5 -10.5t77 -40t33.5 -75.5q0 -47 -34.5 -80t-108.5 -44zM132 242q0 -65 96 -87l51 -11
q125 23 125 101q0 35 -23.5 56t-50.5 26.5t-59 5.5q-78 0 -108.5 -26.5t-30.5 -64.5zM226 -103q81 0 116.5 29.5t35.5 72.5q0 72 -108 96l-56 13q-140 -23 -140 -114q0 -36 24 -59t55.5 -30.5t72.5 -7.5z" />
    <glyph glyph-name="nine.subs" horiz-adv-x="544" 
d="M257 381q42 0 77 -9.5t68 -32t52 -68t19 -109.5q0 -38 -4 -73t-20 -81.5t-42.5 -80t-76.5 -57.5t-117 -24q-34 0 -65 6.5t-61.5 21t-50 43.5t-22.5 70l68 10q5 -53 45 -75.5t89 -22.5q50 0 87.5 20t58 55.5t31 73.5t13.5 83q-58 -86 -176 -86q-75 0 -133 39.5t-58 118.5
q0 32 10.5 61.5t34 56.5t68 43.5t105.5 16.5zM243 96q60 0 101 26t62 70q-10 138 -148 138q-82 0 -115 -37t-33 -88q0 -57 40 -83t93 -26z" />
    <glyph glyph-name="zero.dnom" horiz-adv-x="468" 
d="M205 -10q-33 0 -62 7.5t-56 25.5t-43 52.5t-16 83.5q0 41 11 79.5t34.5 74.5t66.5 58t101 22q46 0 83.5 -13t66 -53t28.5 -104q0 -41 -11 -79.5t-34.5 -74.5t-67 -57.5t-101.5 -21.5zM205 36q51 0 86 32.5t48.5 73.5t13.5 84q0 64 -32.5 92t-78.5 28q-73 0 -110 -60
t-37 -130q0 -64 32 -92t78 -28z" />
    <glyph glyph-name="one.dnom" horiz-adv-x="286" 
d="M92 0l54 294q-12 -18 -39 -29t-56 -11h-23l9 56h18q87 0 116 72h53l-67 -382h-65z" />
    <glyph glyph-name="two.dnom" horiz-adv-x="421" 
d="M-6 0l7 43q168 80 219 114q89 59 89 117q0 71 -95 71q-56 0 -83.5 -26.5t-20.5 -73.5l-64 5q-5 67 39.5 105t133.5 38q41 0 73.5 -8.5t58.5 -34.5t26 -69q0 -36 -23 -69t-68 -63.5t-86 -52t-102 -49.5h247l-7 -47h-344z" />
    <glyph glyph-name="three.dnom" horiz-adv-x="433" 
d="M197 -10q-181 0 -183 126l66 4q3 -84 115 -84q51 0 77.5 20.5t26.5 54.5q0 30 -24 48t-71 18h-34l6 37h35q50 0 79 18t29 53q0 32 -28 47t-68 15q-105 0 -116 -84l-63 4q6 58 51 92t129 34q40 0 74 -7.5t61.5 -30.5t27.5 -60q0 -45 -33 -70.5t-87 -30.5q45 -4 71.5 -26
t26.5 -61q0 -52 -42.5 -84.5t-125.5 -32.5z" />
    <glyph glyph-name="four.dnom" horiz-adv-x="442" 
d="M386 93h-85l-17 -93h-64l17 93h-243l7 43l285 246h66l-44 -244h85zM285 333l-225 -195h186z" />
    <glyph glyph-name="five.dnom" horiz-adv-x="420" 
d="M179 -10q-64 0 -112.5 24.5t-55.5 80.5l62 8q6 -34 35 -50.5t69 -16.5q61 0 90 30.5t29 70.5q0 38 -29 57.5t-73 19.5q-77 0 -107 -59l-56 5l63 222h287l-8 -46h-241l-40 -137q34 57 125 57q59 0 101.5 -27t42.5 -87t-43 -106t-139 -46z" />
    <glyph glyph-name="six.dnom" horiz-adv-x="443" 
d="M233 256q66 0 108.5 -29t42.5 -92q0 -62 -45.5 -103.5t-131.5 -41.5q-47 0 -84.5 13t-66 52t-28.5 101q0 45 10.5 84t33.5 75t67.5 57t104.5 21q58 0 104 -24t53 -79l-62 -6q-6 32 -33.5 48t-65.5 16q-72 0 -108 -48.5t-41 -115.5q40 72 142 72zM206 35q57 0 85.5 27.5
t28.5 70.5q0 41 -29 61.5t-76 20.5q-89 0 -124 -71q8 -109 115 -109z" />
    <glyph glyph-name="seven.dnom" horiz-adv-x="383" 
d="M81 0l1 12q11 93 72 177.5t160 142.5h-274l9 50h333l-8 -49q-198 -123 -223 -316l-2 -17h-68z" />
    <glyph glyph-name="eight.dnom" horiz-adv-x="440" 
d="M282 205q94 -24 94 -97q0 -51 -43 -84.5t-140 -33.5q-46 0 -84.5 8t-68 32t-29.5 61q0 84 127 102q-83 23 -83 90q0 49 41 79.5t128 30.5q68 0 119 -22.5t51 -72.5q0 -75 -112 -93zM119 283q0 -49 75 -61l45 -8q92 17 92 75q0 63 -106 63t-106 -69zM194 32
q61 0 88.5 21.5t27.5 54.5q0 51 -89 68l-40 8q-103 -18 -103 -82q0 -70 116 -70z" />
    <glyph glyph-name="nine.dnom" horiz-adv-x="445" 
d="M218 393q178 0 178 -162q0 -28 -2.5 -53t-15 -61.5t-34 -62.5t-63 -45t-97.5 -19q-38 0 -70.5 8t-60.5 33t-30 65l62 5q1 -36 33 -51t72 -15q70 0 104.5 47t41.5 116q-46 -61 -141 -61q-36 0 -69 11t-59.5 39.5t-26.5 70.5q0 23 8 44.5t26 43t55 34.5t89 13zM209 178
q91 0 129 66q-5 106 -119 106q-64 0 -90 -27t-26 -64q0 -41 33 -61t73 -20z" />
    <glyph glyph-name="zero.numr" horiz-adv-x="468" 
d="M263 318q-33 0 -62 7.5t-56 25.5t-43 52.5t-16 83.5q0 41 11 79.5t34.5 74.5t66.5 58t101 22q46 0 83.5 -13t66 -53t28.5 -104q0 -41 -11 -79.5t-34.5 -74.5t-67 -57.5t-101.5 -21.5zM263 364q51 0 86 32.5t48.5 73.5t13.5 84q0 64 -32.5 92t-78.5 28q-73 0 -110 -60
t-37 -130q0 -64 32 -92t78 -28z" />
    <glyph glyph-name="one.numr" horiz-adv-x="286" 
d="M150 328l54 294q-12 -18 -39 -29t-56 -11h-23l9 56h18q87 0 116 72h53l-67 -382h-65z" />
    <glyph glyph-name="two.numr" horiz-adv-x="421" 
d="M52 328l7 43q168 80 219 114q89 59 89 117q0 71 -95 71q-56 0 -83.5 -26.5t-20.5 -73.5l-64 5q-5 67 39.5 105t133.5 38q41 0 73.5 -8.5t58.5 -34.5t26 -69q0 -36 -23 -69t-68 -63.5t-86 -52t-102 -49.5h247l-7 -47h-344z" />
    <glyph glyph-name="three.numr" horiz-adv-x="433" 
d="M255 318q-181 0 -183 126l66 4q3 -84 115 -84q51 0 77.5 20.5t26.5 54.5q0 30 -24 48t-71 18h-34l6 37h35q50 0 79 18t29 53q0 32 -28 47t-68 15q-105 0 -116 -84l-63 4q6 58 51 92t129 34q40 0 74 -7.5t61.5 -30.5t27.5 -60q0 -45 -33 -70.5t-87 -30.5q45 -4 71.5 -26
t26.5 -61q0 -52 -42.5 -84.5t-125.5 -32.5z" />
    <glyph glyph-name="four.numr" horiz-adv-x="442" 
d="M444 421h-85l-17 -93h-64l17 93h-243l7 43l285 246h66l-44 -244h85zM343 661l-225 -195h186z" />
    <glyph glyph-name="five.numr" horiz-adv-x="420" 
d="M237 318q-64 0 -112.5 24.5t-55.5 80.5l62 8q6 -34 35 -50.5t69 -16.5q61 0 90 30.5t29 70.5q0 38 -29 57.5t-73 19.5q-77 0 -107 -59l-56 5l63 222h287l-8 -46h-241l-40 -137q34 57 125 57q59 0 101.5 -27t42.5 -87t-43 -106t-139 -46z" />
    <glyph glyph-name="six.numr" horiz-adv-x="443" 
d="M291 584q66 0 108.5 -29t42.5 -92q0 -62 -45.5 -103.5t-131.5 -41.5q-47 0 -84.5 13t-66 52t-28.5 101q0 45 10.5 84t33.5 75t67.5 57t104.5 21q58 0 104 -24t53 -79l-62 -6q-6 32 -33.5 48t-65.5 16q-72 0 -108 -48.5t-41 -115.5q40 72 142 72zM264 363q57 0 85.5 27.5
t28.5 70.5q0 41 -29 61.5t-76 20.5q-89 0 -124 -71q8 -109 115 -109z" />
    <glyph glyph-name="seven.numr" horiz-adv-x="383" 
d="M139 328l1 12q11 93 72 177.5t160 142.5h-274l9 50h333l-8 -49q-198 -123 -223 -316l-2 -17h-68z" />
    <glyph glyph-name="eight.numr" horiz-adv-x="440" 
d="M340 533q94 -24 94 -97q0 -51 -43 -84.5t-140 -33.5q-46 0 -84.5 8t-68 32t-29.5 61q0 84 127 102q-83 23 -83 90q0 49 41 79.5t128 30.5q68 0 119 -22.5t51 -72.5q0 -75 -112 -93zM177 611q0 -49 75 -61l45 -8q92 17 92 75q0 63 -106 63t-106 -69zM252 360
q61 0 88.5 21.5t27.5 54.5q0 51 -89 68l-40 8q-103 -18 -103 -82q0 -70 116 -70z" />
    <glyph glyph-name="nine.numr" horiz-adv-x="445" 
d="M276 721q178 0 178 -162q0 -28 -2.5 -53t-15 -61.5t-34 -62.5t-63 -45t-97.5 -19q-38 0 -70.5 8t-60.5 33t-30 65l62 5q1 -36 33 -51t72 -15q70 0 104.5 47t41.5 116q-46 -61 -141 -61q-36 0 -69 11t-59.5 39.5t-26.5 70.5q0 23 8 44.5t26 43t55 34.5t89 13zM267 506
q91 0 129 66q-5 106 -119 106q-64 0 -90 -27t-26 -64q0 -41 33 -61t73 -20z" />
    <glyph glyph-name="zero.sups" horiz-adv-x="578" 
d="M320 296q-92 0 -154.5 52t-62.5 169q0 54 14 105.5t43 100t83 78.5t126 30q43 0 79.5 -11t68.5 -35t50.5 -68.5t18.5 -105.5q0 -54 -14 -106t-43 -100.5t-83 -78.5t-126 -30zM320 352q52 0 91 25t60.5 66t31.5 84.5t10 87.5q0 86 -42 123.5t-102 37.5q-52 0 -91 -25
t-60.5 -66t-31.5 -84t-10 -87q0 -87 42 -124.5t102 -37.5z" />
    <glyph glyph-name="one.sups" horiz-adv-x="344" 
d="M181 310l71 401q-34 -48 -118 -48h-28l11 61h20q109 0 145 93h57l-90 -507h-68z" />
    <glyph glyph-name="two.sups" horiz-adv-x="511" 
d="M53 310l9 53q54 26 85 42t78.5 41.5t75 43.5t60.5 43t51 46.5t30 47.5t12 51q0 99 -124 99q-71 0 -107.5 -40t-29.5 -105l-69 5q-11 90 48 142t163 52q51 0 92 -11.5t71.5 -45t30.5 -87.5q0 -47 -29 -93t-83 -86.5t-111.5 -73.5t-132.5 -67h310l-9 -57h-421z" />
    <glyph glyph-name="three.sups" horiz-adv-x="532" 
d="M304 296q-217 0 -223 163l71 7q9 -117 151 -117q70 0 104.5 30t34.5 77q0 89 -134 89h-45l9 51h50q71 0 108 25.5t37 71.5t-37 65.5t-89 19.5q-136 0 -150 -119l-67 8q9 76 64 120t155 44q51 0 92 -10t73 -40.5t32 -78.5q0 -55 -38.5 -89.5t-103.5 -41.5q52 -7 84 -35.5
t32 -82.5q0 -66 -52.5 -111.5t-157.5 -45.5z" />
    <glyph glyph-name="four.sups" horiz-adv-x="521" 
d="M529 439h-103l-22 -129h-68l22 129h-303l9 47l355 331h74l-58 -327h103zM419 757l-281 -267h230z" />
    <glyph glyph-name="five.sups" horiz-adv-x="518" 
d="M286 296q-80 0 -138 33.5t-67 107.5l69 9q17 -96 137 -96q82 0 118.5 42.5t36.5 99.5q0 59 -36 85t-91 26q-103 0 -145 -87l-63 6l83 295h351l-10 -54h-300l-54 -187q45 78 160 78q71 0 123.5 -36.5t52.5 -118.5q0 -83 -55.5 -143t-171.5 -60z" />
    <glyph glyph-name="six.sups" horiz-adv-x="541" 
d="M349 651q79 0 133 -40t54 -123q0 -80 -55.5 -136t-160.5 -56q-43 0 -79.5 11t-68.5 35t-50.5 69.5t-18.5 108.5q0 45 7.5 87t27 83.5t48.5 72t75.5 49.5t105.5 19q72 0 128.5 -31.5t66.5 -104.5l-69 -10q-16 93 -129 93q-93 0 -139.5 -64t-53.5 -161q50 98 178 98z
M320 349q74 0 109.5 39.5t35.5 97.5q0 60 -38 86.5t-94 26.5q-118 0 -162 -102q6 -81 47.5 -114.5t101.5 -33.5z" />
    <glyph glyph-name="seven.sups" horiz-adv-x="461" 
d="M156 310l2 15q18 124 93 236.5t203 198.5h-335l9 57h409l-9 -53q-126 -82 -201.5 -193t-91.5 -239l-3 -22h-76z" />
    <glyph glyph-name="eight.sups" horiz-adv-x="540" 
d="M411 581q117 -35 117 -129q0 -67 -54.5 -111.5t-172.5 -44.5q-57 0 -104 11.5t-82 44t-35 82.5q0 52 37.5 88.5t117.5 49.5q-94 35 -94 116q0 61 49.5 102t157.5 41q52 0 95.5 -10.5t77 -40t33.5 -75.5q0 -47 -34.5 -80t-108.5 -44zM211 692q0 -65 96 -87l51 -11
q125 23 125 101q0 35 -23.5 56t-50.5 26.5t-59 5.5q-78 0 -108.5 -26.5t-30.5 -64.5zM305 347q81 0 116.5 29.5t35.5 72.5q0 72 -108 96l-56 13q-140 -23 -140 -114q0 -36 24 -59t55.5 -30.5t72.5 -7.5z" />
    <glyph glyph-name="nine.sups" horiz-adv-x="544" 
d="M336 831q42 0 77 -9.5t68 -32t52 -68t19 -109.5q0 -38 -4 -73t-20 -81.5t-42.5 -80t-76.5 -57.5t-117 -24q-34 0 -65 6.5t-61.5 21t-50 43.5t-22.5 70l68 10q5 -53 45 -75.5t89 -22.5q50 0 87.5 20t58 55.5t31 73.5t13.5 83q-58 -86 -176 -86q-75 0 -133 39.5t-58 118.5
q0 32 10.5 61.5t34 56.5t68 43.5t105.5 16.5zM322 546q60 0 101 26t62 70q-10 138 -148 138q-82 0 -115 -37t-33 -88q0 -57 40 -83t93 -26z" />
    <glyph glyph-name="backslash.case" horiz-adv-x="831" 
d="M655 -87l-514 877h71l513 -877h-70z" />
    <glyph glyph-name="periodcentered.case" horiz-adv-x="267" 
d="M214 418l-20 -111h-102l20 111h102z" />
    <glyph glyph-name="bullet.case" horiz-adv-x="328" 
d="M184 287q-35 0 -57.5 21.5t-22.5 56.5q0 36 22.5 58.5t57.5 22.5q36 0 58.5 -22t22.5 -59q0 -35 -22.5 -56.5t-58.5 -21.5z" />
    <glyph glyph-name="colon.case" horiz-adv-x="267" 
d="M232 520l-20 -111h-102l20 111h102zM160 111l-20 -111h-102l20 111h102z" />
    <glyph glyph-name="exclamdown.case" horiz-adv-x="323" 
d="M179 621l18 104h97l-19 -104h-96zM239 536l-75 -536h-93l115 536h53z" />
    <glyph glyph-name="questiondown.case" horiz-adv-x="582" 
d="M431 716l-18 -106h-95l18 106h95zM390 538l-6 -40q-9 -52 -32 -85.5t-73 -56.5l-80 -35q-106 -50 -106 -146q0 -37 15.5 -64t42.5 -41t56 -20t63 -6q60 0 102 15.5t62.5 42.5t29 54.5t8.5 59.5q0 24 -3 42l77 -9q3 -18 3 -43q0 -38 -13.5 -75t-43 -72.5t-87 -57
t-135.5 -21.5q-68 0 -123 16t-94.5 59t-39.5 110q0 136 153 206l72 33q36 18 51.5 42t21.5 61l5 31h74z" />
    <glyph glyph-name="semicolon.case" horiz-adv-x="278" 
d="M235 520l-20 -111h-102l20 111h102zM43 -133l-13 38q61 17 73 87l1 8h-55l20 115h103l-20 -111q-12 -67 -40 -96.5t-69 -40.5z" />
    <glyph glyph-name="slash.case" horiz-adv-x="523" 
d="M58 -87h-70l513 877h71z" />
    <glyph glyph-name="underscore.case" horiz-adv-x="514" 
d="M-48 -20h514l-9 -52h-514z" />
    <glyph glyph-name="asterisk.ss04" horiz-adv-x="307" 
d="M235 710l-47 -93h-97l69 -57l-47 -93l89 57l69 -57l-14 93l89 57h-97z" />
    <glyph glyph-name="braceleft.case" horiz-adv-x="359" 
d="M235 -86q-26 0 -47 3.5t-44 14t-34 29.5t-18.5 49t2.5 73l27 149q13 44 0.5 72t-67.5 29l10 56q55 1 73.5 22t27.5 74l29 165q12 71 52.5 110.5t133.5 39.5h44l-10 -54h-27q-65 0 -91.5 -26.5t-35.5 -78.5l-27 -151q-10 -53 -31 -84.5t-65 -43.5q68 -25 49 -136l-27 -150
q-6 -34 -0.5 -57t21.5 -33.5t32 -14t37 -3.5h30l-9 -54h-35z" />
    <glyph glyph-name="braceright.case" horiz-adv-x="359" 
d="M162 800q26 0 47 -3.5t44 -14t34 -29.5t18.5 -49t-2.5 -73l-27 -149q-13 -44 -0.5 -72t67.5 -29l-10 -56q-55 -1 -73.5 -22t-27.5 -74l-29 -165q-12 -71 -52.5 -110.5t-133.5 -39.5h-44l10 54h27q65 0 91.5 26.5t35.5 78.5l27 151q10 53 31 84.5t65 43.5q-68 25 -49 136
l27 150q6 34 0.5 57t-21.5 33.5t-32 14t-37 3.5h-30l9 54h35z" />
    <glyph glyph-name="bracketleft.case" horiz-adv-x="361" 
d="M53 -83l155 877h219l-11 -59h-153l-134 -759h153l-10 -59h-219z" />
    <glyph glyph-name="bracketright.case" horiz-adv-x="361" 
d="M345 794l-155 -877h-219l11 59h153l134 759h-153l10 59h219z" />
    <glyph glyph-name="parenleft.case" horiz-adv-x="337" 
d="M212 -100q-131 175 -131 393q0 95 24 177t67.5 145t88.5 108t102 87l51 -36q-61 -50 -102 -92.5t-80.5 -100.5t-58.5 -130t-19 -159q0 -93 25.5 -178t87.5 -183z" />
    <glyph glyph-name="parenright.case" horiz-adv-x="337" 
d="M162 810q131 -175 131 -393q0 -95 -24 -177t-67.5 -145t-88.5 -108t-102 -87l-51 36q61 50 102 92.5t80.5 100.5t58.5 130t19 159q0 93 -25.5 178t-87.5 183z" />
    <glyph glyph-name="parenleft.subs" horiz-adv-x="282" 
d="M131 -237q-93 134 -93 283q0 69 17.5 129t49 106t64.5 79.5t75 64.5l49 -30q-44 -36 -73.5 -66.5t-58 -72.5t-42.5 -94t-14 -115q0 -127 81 -260z" />
    <glyph glyph-name="parenright.subs" horiz-adv-x="283" 
d="M97 426q93 -134 93 -283q0 -69 -17.5 -129t-49 -106t-64.5 -79.5t-75 -64.5l-49 30q44 36 73.5 66.5t58 72.5t42.5 94t14 115q0 127 -81 260z" />
    <glyph glyph-name="parenleft.sups" horiz-adv-x="283" 
d="M210 213q-93 134 -93 283q0 69 17.5 129t49 106t64.5 79.5t75 64.5l49 -30q-44 -36 -73.5 -66.5t-58 -72.5t-42.5 -94t-14 -115q0 -127 81 -260z" />
    <glyph glyph-name="parenright.sups" horiz-adv-x="283" 
d="M176 876q93 -134 93 -283q0 -69 -17.5 -129t-49 -106t-64.5 -79.5t-75 -64.5l-49 30q44 36 73.5 66.5t58 72.5t42.5 94t14 115q0 127 -81 260z" />
    <glyph glyph-name="emdash.case" horiz-adv-x="918" 
d="M80 383h805l-9 -55h-805z" />
    <glyph glyph-name="endash.case" horiz-adv-x="637" 
d="M80 383h524l-10 -55h-523z" />
    <glyph glyph-name="hyphen.case" horiz-adv-x="490" 
d="M81 389h377l-11 -66h-378z" />
    <glyph glyph-name="guillemotleft.case" horiz-adv-x="555" 
d="M216 144l-162 208l238 208h86l-240 -213l157 -203h-79zM421 144l-162 208l238 208h86l-240 -213l157 -203h-79z" />
    <glyph glyph-name="guillemotright.case" horiz-adv-x="555" 
d="M170 560l162 -208l-238 -208h-86l240 213l-157 203h79zM375 560l162 -208l-238 -208h-86l240 213l-157 203h79z" />
    <glyph glyph-name="guilsinglleft.case" horiz-adv-x="351" 
d="M217 144l-163 208l239 208h86l-241 -212l158 -204h-79z" />
    <glyph glyph-name="guilsinglright.case" horiz-adv-x="350" 
d="M170 560l162 -208l-238 -208h-86l240 213l-157 203h79z" />
    <glyph glyph-name="currency.case" horiz-adv-x="609" 
d="M574 371q0 -112 -74 -180l42 -56l-39 -31l-44 56q-60 -34 -141 -34q-107 0 -175 55l-67 -60l-28 31l65 59q-39 50 -39 123q0 110 73 179l-44 58l40 31l46 -58q60 34 141 34q104 0 172 -51l65 57l29 -31l-63 -57q41 -51 41 -125zM313 186q101 0 148 53.5t47 127.5
q0 79 -49.5 115.5t-122.5 36.5q-102 0 -148.5 -53.5t-46.5 -127.5q0 -79 49.5 -115.5t122.5 -36.5z" />
    <glyph glyph-name="dollar.case" horiz-adv-x="722" 
d="M461 382q100 -19 148 -64t48 -127q0 -95 -72.5 -152t-226.5 -57h-21l-15 -87h-52l16 91q-118 12 -185.5 65.5t-69.5 151.5l82 11q4 -145 184 -166l50 281l-32 5q-196 37 -196 184q0 86 70.5 140.5t216.5 54.5h9l15 85h51l-15 -88q226 -21 237 -195l-79 -16
q-8 131 -169 149l-46 -256zM347 403l13 -2l44 249h-2q-203 0 -203 -125q0 -51 36 -79t112 -43zM361 45q216 0 216 140q0 58 -36.5 87.5t-113.5 42.5l-30 5l-49 -275h13z" />
    <glyph glyph-name="Euro.case" horiz-adv-x="785" 
d="M497 647q-71 0 -127.5 -20.5t-93 -56t-59 -77.5t-34.5 -91h416l-7 -40l-9 -51h-410v-3q0 -76 22 -129.5t60 -80.5t79.5 -38.5t91.5 -11.5q165 0 246 129l58 -35q-47 -75 -118 -118t-185 -43q-69 0 -126.5 16.5t-105.5 52.5t-75.5 101t-27.5 153v7h-70l9 48l8 43h63
q13 63 42 117t76.5 98.5t119.5 70t161 25.5q224 0 293 -150v-2l-71 -35q-55 121 -226 121z" />
    <glyph glyph-name="sterling.case" horiz-adv-x="698" 
d="M451 52q63 0 96.5 26.5t46.5 84.5l65 -12q-16 -82 -71 -125.5t-138 -43.5q-44 0 -121.5 15.5t-139.5 15.5q-87 0 -195 -20l-7 53q96 26 144.5 81t48.5 164q0 8 -0.5 23t-0.5 22h-118l10 53h104q0 7 -0.5 19.5t-0.5 19.5q0 285 263 285q108 0 170 -41.5t71 -123.5l-77 -19
q-13 122 -164 122q-47 0 -81 -12.5t-53.5 -31.5t-31 -50t-15 -61.5t-3.5 -71.5q0 -6 0.5 -18t0.5 -17h241l-9 -53h-228q1 -10 1 -29q0 -103 -35.5 -158.5t-115.5 -86.5q50 13 106 13t126.5 -11.5t110.5 -11.5z" />
    <glyph glyph-name="currency.tf.case" 
d="M618 370q0 -110 -73 -179l42 -56l-40 -32l-44 57q-60 -34 -141 -34q-107 0 -175 55l-66 -60l-29 31l66 59q-39 50 -39 123q0 109 72 178l-44 59l40 31l46 -59q60 35 142 35q105 0 172 -52l64 57l29 -31l-63 -57q41 -51 41 -125zM357 186q101 0 148 53t47 128
q0 78 -49.5 114.5t-122.5 36.5q-101 0 -148 -53t-47 -128q0 -79 49.5 -115t122.5 -36z" />
    <glyph glyph-name="dollar.tf.case" 
d="M458 382q89 -19 132.5 -64.5t43.5 -126.5q0 -95 -67.5 -152t-212.5 -57h-21l-15 -87h-51l16 91q-112 12 -176.5 65.5t-67.5 151.5l83 11q4 -145 172 -165l49 280l-31 5q-182 36 -182 184q0 86 67 140.5t206 54.5h8l15 85h51l-15 -88q94 -10 151 -55t63 -130l-79 -16
q-11 121 -147 138l-45 -255zM344 403l12 -2l44 249h-2q-187 0 -187 -125q0 -51 32 -79t101 -43zM357 45q198 0 198 140q0 58 -32.5 87.5t-99.5 42.5l-30 5l-49 -275h13z" />
    <glyph glyph-name="Euro.tf.case" 
d="M394 48q131 0 193 129l58 -35q-38 -75 -96.5 -118t-154.5 -43q-57 0 -105 16.5t-88 51.5t-63 98.5t-23 150.5v13h-72l7 40l9 51h65q24 136 108.5 223.5t229.5 87.5q191 0 248 -152l-72 -35q-42 121 -181 121q-56 0 -101 -20t-74.5 -56t-48.5 -77.5t-29 -91.5h307l-7 -40
l-9 -51h-300v-9q0 -74 17 -126.5t47.5 -79t63 -37.5t71.5 -11z" />
    <glyph glyph-name="sterling.tf.case" 
d="M437 52q62 0 90 27t40 84l66 -12q-34 -169 -196 -169q-36 0 -103.5 15.5t-127.5 15.5q-76 0 -189 -20l-7 53q100 27 146.5 82t46.5 167q0 11 -2 41h-117l10 53h104q-2 30 -2 44q0 280 248 280q94 0 154 -41t68 -124l-77 -19q-12 122 -145 122q-44 0 -76.5 -13t-50 -32.5
t-27.5 -50.5t-12.5 -58t-2.5 -64q0 -8 0.5 -22.5t0.5 -21.5h203l-9 -53h-190q1 -10 1 -31q0 -103 -35 -157.5t-115 -85.5q48 13 105 13q48 0 109 -11.5t92 -11.5z" />
    <glyph glyph-name="yen.tf.case" 
d="M396 309l-1 -3h222l-9 -49h-221l-14 -80h221l-9 -49h-221l-23 -128h-75l23 128h-221l9 49h221l14 80h-222l9 49h221l1 3l-203 386h83l139 -271q16 -34 23 -64h2q16 28 46 64l234 271h90z" />
    <glyph glyph-name="yen.case" horiz-adv-x="668" 
d="M744 695l-355 -378h226l-10 -51h-232l-11 -64h233l-10 -51h-232l-26 -151h-75l26 151h-231l9 51h231l11 64h-231l9 51h225l-221 378h83l134 -230q33 -54 51 -101h3q30 40 87 101l215 230h91z" />
    </font>
</defs>
</svg>
