<svg xmlns="http://www.w3.org/2000/svg">
<defs>
<font id="GTAmerica-CompressedThinItalic" horiz-adv-x="464" >
  <font-face 
    font-family="GT America Compressed Thin"
    font-weight="275"
    font-style="italic"
    font-stretch="ultra-condensed"
    units-per-em="1000"
    panose-1="0 0 3 8 0 0 0 0 0 0"
    ascent="800"
    descent="-200"
    x-height="500"
    cap-height="710"
    bbox="-299 -234 1079 905"
    underline-thickness="50"
    underline-position="-200"
    slope="-10"
    unicode-range="U+000D-FB02"
  />
<missing-glyph horiz-adv-x="1018" 
d="M1071 663h-552l-8 -47h552l-9 -48h-552l-8 -47h552l-9 -48h-552l-8 -47h552l-8 -47h-552l-9 -48h552l-8 -47h-978l75 426h978zM141 667l14 9h-16l-2 15l-7 -15h-16l12 -9l-8 -15l14 9l11 -9zM217 676h-16l12 -9l-8 -15l14 10l11 -10l-2 15l13 9h-15l-2 15zM304 676h-16
l12 -9l-8 -15l14 10l11 -10l-2 15l13 9h-15l-2 15zM390 676h-15l12 -9l-8 -15l14 10l11 -10l-2 15l13 9h-15l-2 15zM489 667l13 9h-15l-2 15l-8 -15h-15l11 -9l-7 -15l14 10l11 -10zM165 632h-15l11 -9l-7 -14l14 9l10 -9l-1 14l13 9h-15l-2 15zM437 623l14 9h-16l-1 15
l-8 -15h-15l11 -9l-8 -14l15 9l10 -9zM293 364l17 93h94l14 80h-94l16 94h-80l-16 -94h-93l-14 -80h93l-17 -93h80zM125 580l15 9h-16l-3 14l-6 -14h-16l11 -9l-7 -15l13 9l12 -9zM202 589h-16l11 -9l-7 -15l13 9l12 -9l-3 15l14 9h-15l-3 14zM375 589h-15l11 -9l-7 -15
l13 9l12 -9l-3 15l14 9h-15l-3 14zM473 580l14 9h-15l-3 14l-7 -14h-15l10 -9l-6 -15l13 9l12 -9zM110 492l15 10h-16l-3 14l-6 -14h-16l11 -10l-8 -14l14 9l11 -9zM458 492l14 10h-15l-3 14l-7 -14h-15l10 -10l-7 -14l14 9l11 -9zM94 405l15 9h-16l-2 15l-7 -15h-16l11 -9
l-7 -14l14 9l11 -9zM181 405l14 9h-15l-2 15l-7 -15h-16l11 -9l-7 -14l14 9l11 -9zM355 405l14 9h-15l-2 15l-8 -15h-15l11 -9l-7 -14l14 9l11 -9zM442 405l14 9h-15l-2 15l-8 -15h-15l10 -9l-6 -14l14 9l11 -9zM132 347l-1 15l13 9h-15l-2 14l-8 -14h-15l11 -9l-7 -15l14 9

<glyph glyph-name="fi" unicode="fi" horiz-adv-x="395" 
d="M260 500l-7 -37h-84l-81 -463h-47l82 463h-67l7 37h66l23 126q18 105 107 105q23 0 41 -6l-7 -40q-15 5 -33 5q-29 0 -43 -17.5t-19 -49.5l-22 -123h84zM341 583l19 110h51l-19 -110h-51zM245 0l88 500h47l-88 -500h-47z" />
    <glyph glyph-name="fl" unicode="fl" horiz-adv-x="397" 
d="M260 500l-7 -37h-84l-81 -463h-47l82 463h-67l7 37h66l23 126q18 105 107 105q23 0 41 -6l-7 -40q-15 5 -33 5q-29 0 -43 -17.5t-19 -49.5l-22 -123h84zM421 725l-128 -725h-46l128 725h46z" />
    <glyph glyph-name="g_g.liga" unicode="gg" horiz-adv-x="628" 
d="M169 58q83 -28 67 -128l-3 -23q-8 -52 -43.5 -83t-97.5 -31q-70 0 -104 34.5t-23 94.5l4 17q16 81 92 103q-38 19 -38 60q0 55 63 78q-52 33 -35 125l12 66q11 64 40.5 102.5t92.5 38.5q39 0 64 -16q22 71 82 71q15 0 24 -4l-8 -43q-14 4 -25 4q-40 0 -58 -40
q35 -36 21 -113l-12 -66q-11 -64 -40.5 -102.5t-92.5 -38.5q-25 0 -45 7q-20 -7 -29.5 -23t-9.5 -31q0 -18 11.5 -27t33.5 -15zM651 567q15 0 24 -4l-8 -43q-14 4 -25 4q-40 0 -58 -40q35 -36 21 -113l-12 -66q-11 -64 -40.5 -102.5t-92.5 -38.5q-25 0 -45 7
q-20 -7 -29.5 -23t-9.5 -31q0 -18 11.5 -27t33.5 -15l57 -17q94 -28 78 -128l-3 -23q-9 -52 -47 -83t-105 -31q-64 0 -95 34.5t-20 94.5l3 17q14 81 82 103q-39 20 -39 60q0 55 63 78q-52 33 -35 125l12 66q11 64 40.5 102.5t92.5 38.5q39 0 64 -16q22 71 82 71zM95 299
q-10 -53 8 -75.5t51 -22.5q41 0 59 28t26 72l13 76q18 98 -59 98q-41 0 -59 -27.5t-26 -71.5zM561 377q18 98 -59 98q-41 0 -59 -27.5t-26 -71.5l-13 -77q-10 -53 8 -75.5t51 -22.5q41 0 59 28t26 72zM190 -71q9 70 -47 87l-55 16h-2q-1 1 -2 1q-55 -20 -68 -97l-3 -15
q-15 -89 82 -89q81 0 92 81zM452 16l-55 16h-1l-2 1q-25 -12 -38 -33.5t-20 -63.5l-2 -15q-13 -89 70 -89q91 0 103 81l3 16q11 70 -58 87z" />
    <glyph glyph-name=".notdef" horiz-adv-x="1018" 
d="M1071 663h-552l-8 -47h552l-9 -48h-552l-8 -47h552l-9 -48h-552l-8 -47h552l-8 -47h-552l-9 -48h552l-8 -47h-978l75 426h978zM141 667l14 9h-16l-2 15l-7 -15h-16l12 -9l-8 -15l14 9l11 -9zM217 676h-16l12 -9l-8 -15l14 10l11 -10l-2 15l13 9h-15l-2 15zM304 676h-16
l12 -9l-8 -15l14 10l11 -10l-2 15l13 9h-15l-2 15zM390 676h-15l12 -9l-8 -15l14 10l11 -10l-2 15l13 9h-15l-2 15zM489 667l13 9h-15l-2 15l-8 -15h-15l11 -9l-7 -15l14 10l11 -10zM165 632h-15l11 -9l-7 -14l14 9l10 -9l-1 14l13 9h-15l-2 15zM437 623l14 9h-16l-1 15
l-8 -15h-15l11 -9l-8 -14l15 9l10 -9zM293 364l17 93h94l14 80h-94l16 94h-80l-16 -94h-93l-14 -80h93l-17 -93h80zM125 580l15 9h-16l-3 14l-6 -14h-16l11 -9l-7 -15l13 9l12 -9zM202 589h-16l11 -9l-7 -15l13 9l12 -9l-3 15l14 9h-15l-3 14zM375 589h-15l11 -9l-7 -15
l13 9l12 -9l-3 15l14 9h-15l-3 14zM473 580l14 9h-15l-3 14l-7 -14h-15l10 -9l-6 -15l13 9l12 -9zM110 492l15 10h-16l-3 14l-6 -14h-16l11 -10l-8 -14l14 9l11 -9zM458 492l14 10h-15l-3 14l-7 -14h-15l10 -10l-7 -14l14 9l11 -9zM94 405l15 9h-16l-2 15l-7 -15h-16l11 -9
l-7 -14l14 9l11 -9zM181 405l14 9h-15l-2 15l-7 -15h-16l11 -9l-7 -14l14 9l11 -9zM355 405l14 9h-15l-2 15l-8 -15h-15l11 -9l-7 -14l14 9l11 -9zM442 405l14 9h-15l-2 15l-8 -15h-15l10 -9l-6 -14l14 9l11 -9zM132 347l-1 15l13 9h-15l-2 14l-8 -14h-15l11 -9l-7 -15l14 9
zM393 347l-2 15l14 9h-16l-1 14l-8 -14h-15l11 -9l-8 -15l15 9zM81 303l-2 15l15 9h-16l-3 15l-6 -15h-16l11 -9l-8 -15l14 9zM168 303l-2 15l14 9h-15l-3 15l-6 -15h-16l11 -9l-8 -15l14 9zM255 303l-2 15l14 9h-15l-3 15l-6 -15h-16l11 -9l-8 -15l14 9zM342 303l-2 15
l14 9h-15l-3 15l-7 -15h-15l11 -9l-8 -15l14 9zM429 303l-2 15l14 9h-15l-3 15l-7 -15h-15l10 -9l-7 -15l14 9zM9 189l9 48h977l-9 -48h-977zM-7 95l8 47h978l-8 -47h-978zM-24 0l8 47h978l-8 -47h-978z" />
    <glyph glyph-name=".null" horiz-adv-x="0" 
 />
    <glyph glyph-name=".null" horiz-adv-x="0" 
 />
    <glyph glyph-name="nonmarkingreturn" horiz-adv-x="333" 
 />
    <glyph glyph-name="CR" unicode="&#xd;" horiz-adv-x="0" 
 />
    <glyph glyph-name="space" unicode=" " horiz-adv-x="180" 
 />
    <glyph glyph-name="exclam" unicode="!" horiz-adv-x="192" 
d="M66 183l85 538h56l-104 -538h-37zM96 91l-15 -91h-58l16 91h57z" />
    <glyph glyph-name="quotedbl" unicode="&#x22;" horiz-adv-x="269" 
d="M102 473l31 237h52l-52 -237h-31zM215 473l31 237h52l-52 -237h-31z" />
    <glyph glyph-name="numbersign" unicode="#" horiz-adv-x="439" 
d="M467 438h-109l-43 -181h106l-4 -37h-110l-52 -220h-41l52 220h-118l-52 -220h-41l52 220h-107l4 37h111l43 181h-103l5 37h106l51 216h41l-51 -216h118l51 216h41l-51 -216h105zM274 257l43 181h-118l-43 -181h118z" />
    <glyph glyph-name="dollar" unicode="$" horiz-adv-x="366" 
d="M278 708q59 -7 88.5 -46.5t15.5 -117.5l-8 -44l-48 -6l8 48q21 112 -63 127l-50 -287l29 -26q50 -47 66.5 -89t6.5 -101l-7 -42q-11 -62 -50.5 -100t-112.5 -38h-2l-16 -93h-29l17 95q-64 9 -94.5 56.5t-14.5 133.5l8 43l48 6l-11 -57q-13 -65 7.5 -100t63.5 -43l57 325
l-31 28q-45 41 -61 80t-5 96l5 24q21 127 155 130l15 88h29zM192 409l4 -4l47 266q-49 -1 -71.5 -25t-31.5 -66l-6 -35q-15 -71 58 -136zM213 327l-2 1l-53 -303q52 1 77.5 27t33.5 74l8 45q8 45 -7 81t-57 75z" />
    <glyph glyph-name="percent" unicode="%" horiz-adv-x="579" 
d="M57 -14l474 742h40l-473 -742h-41zM162 353q-46 0 -76.5 28.5t-18.5 100.5l18 102q10 58 35.5 93t82.5 35q46 0 76.5 -28.5t18.5 -100.5l-18 -102q-10 -59 -35.5 -93.5t-82.5 -34.5zM163 387q37 0 53 24t24 69l18 106q16 92 -55 92q-37 0 -53 -24t-24 -69l-19 -106
q-16 -92 56 -92zM411 -12q-46 0 -76.5 28.5t-18.5 100.5l18 102q10 58 35.5 93t82.5 35q46 0 76.5 -28.5t18.5 -100.5l-18 -102q-10 -59 -35.5 -93.5t-82.5 -34.5zM412 22q37 0 53 24t24 69l18 106q16 92 -55 92q-37 0 -53 -24t-24 -69l-19 -106q-16 -92 56 -92z" />
    <glyph glyph-name="ampersand" unicode="&#x26;" horiz-adv-x="445" 
d="M326 77q23 -37 52 -37q10 0 17 3l-8 -43q-16 -2 -22 -2q-39 0 -68 41q-53 -56 -132 -56t-121.5 48t-28.5 127l7 40q10 55 33 90t90 81l15 10l-2 6q-44 113 -32 185l6 39q20 128 126 128q53 0 78.5 -34t15.5 -103l-6 -40q-10 -59 -32 -96t-82 -79l-20 -14l94 -249
q28 57 45 152l18 104l42 -8l-17 -94q-23 -128 -68 -199zM198 408l1 -2l19 13q42 30 57.5 60.5t23.5 80.5l7 47q8 44 -5 68.5t-45 24.5q-60 0 -76 -89l-7 -43q-11 -64 25 -160zM170 25q64 0 107 52q0 1 -1 3l-102 264l-14 -9q-46 -32 -65.5 -63.5t-25.5 -70.5l-9 -56
q-8 -51 20.5 -85.5t89.5 -34.5z" />
    <glyph glyph-name="quotesingle" unicode="'" horiz-adv-x="156" 
d="M102 473l31 237h52l-52 -237h-31z" />
    <glyph glyph-name="parenleft" unicode="(" horiz-adv-x="222" 
d="M118 -128q-63 144 -63 327q0 329 222 570l35 -18q-101 -116 -156 -245.5t-55 -306.5q0 -165 54 -310z" />
    <glyph glyph-name="parenright" unicode=")" horiz-adv-x="223" 
d="M129 769q63 -144 63 -327q0 -330 -222 -570l-35 18q101 116 156 245.5t55 306.5q0 165 -54 310z" />
    <glyph glyph-name="asterisk" unicode="*" horiz-adv-x="291" 
d="M334 599l-111 -29l56 -95l-39 -25l-41 104l-78 -104l-31 25l91 95l-102 29l22 40l92 -43l12 116h43l-29 -117l107 44z" />
    <glyph glyph-name="plus" unicode="+" horiz-adv-x="398" 
d="M381 350l-7 -41h-142l-29 -164h-46l29 164h-142l8 41h141l27 152h46l-27 -152h142z" />
    <glyph glyph-name="comma" unicode="," horiz-adv-x="162" 
d="M-6 -118l-11 24q39 19 50 80l3 14h-30l18 95h59l-19 -105q-9 -49 -26 -73t-44 -35z" />
    <glyph glyph-name="hyphen" unicode="-" horiz-adv-x="270" 
d="M43 300h202l-8 -44h-202z" />
    <glyph glyph-name="period" unicode="." horiz-adv-x="162" 
d="M83 95l-16 -95h-59l16 95h59z" />
    <glyph glyph-name="slash" unicode="/" horiz-adv-x="306" 
d="M20 -117h-42l333 877h42z" />
    <glyph glyph-name="zero" unicode="0" horiz-adv-x="399" 
d="M165 -15q-68 0 -107.5 45t-21.5 150l59 335q8 43 17 72t27.5 60t50.5 47t78 16q68 0 107.5 -45t21.5 -150l-59 -335q-8 -43 -17 -72t-27.5 -60t-50.5 -47t-78 -16zM168 26q40 0 67 24.5t37 53.5t18 73l59 340q15 87 -12 119.5t-72 32.5q-25 0 -44.5 -9t-32 -23t-21.5 -35
t-14 -40t-9 -44l-60 -340q-15 -87 12.5 -119.5t71.5 -32.5z" />
    <glyph glyph-name="one" unicode="1" horiz-adv-x="266" 
d="M87 0l105 594q-26 -46 -96 -46h-23l8 45h18q83 0 118 102h40l-123 -695h-47z" />
    <glyph glyph-name="two" unicode="2" horiz-adv-x="357" 
d="M-15 0l7 41q134 152 228 280q79 110 97 206l6 30q10 54 -9 83t-65 29q-51 0 -74 -31.5t-34 -88.5q-8 -41 -10 -62l-47 7q3 28 8 57q15 76 50.5 117.5t108.5 41.5q71 0 103 -41.5t16 -120.5l-4 -18q-22 -115 -98 -220q-82 -111 -215 -265h235l-8 -45h-295z" />
    <glyph glyph-name="three" unicode="3" horiz-adv-x="365" 
d="M149 -15q-68 0 -106 40.5t-22 129.5l7 42l49 6l-9 -47q-22 -130 81 -130q52 0 74 29.5t33 92.5l11 61q25 133 -71 133h-32l8 44h30q45 0 72.5 27.5t39.5 96.5l9 48q19 111 -78 111q-25 0 -43.5 -9.5t-28.5 -19.5t-18 -33t-10 -31.5t-6 -33.5l-7 -43l-46 7l6 40
q23 164 153 164q151 0 125 -154l-8 -49q-20 -122 -113 -143q88 -21 66 -157l-11 -61q-13 -79 -47.5 -120t-107.5 -41z" />
    <glyph glyph-name="four" unicode="4" horiz-adv-x="364" 
d="M332 172h-75l-30 -172h-47l30 172h-214l6 36l291 487h56l-85 -483h75zM283 561q11 63 17 84h-2q-16 -37 -42 -83l-169 -284q-27 -48 -41 -66h171z" />
    <glyph glyph-name="five" unicode="5" horiz-adv-x="366" 
d="M153 -15q-68 0 -104 39t-21 121l7 41l48 5l-8 -44q-12 -65 13 -93t67 -28q54 0 77.5 36.5t35.5 104.5l20 111q14 77 -8.5 109.5t-62.5 32.5q-38 0 -68.5 -28.5t-42.5 -80.5l-43 5l83 379h244l-7 -44h-205l-61 -266q34 76 114 76q58 0 89.5 -43.5t14.5 -139.5l-19 -110
q-15 -86 -51.5 -134.5t-111.5 -48.5z" />
    <glyph glyph-name="six" unicode="6" horiz-adv-x="379" 
d="M260 710q62 0 100 -34t24 -115l-6 -30l-49 -8l6 33q12 61 -12 88t-66 27q-52 0 -77 -39.5t-37 -110.5l-23 -128q41 68 117 68q23 0 42.5 -6.5t39.5 -25.5t25 -52.5t-1 -87.5l-21 -127q-14 -84 -49 -130.5t-110 -46.5q-30 0 -54 8t-47 30.5t-28.5 62t2.5 101.5l59 332
q7 43 16.5 73t27.5 59t48.5 44t72.5 15zM223 420q-74 0 -114 -92l-27 -151q-15 -86 12.5 -118.5t73.5 -32.5q51 0 73 35.5t33 100.5l22 129q11 72 -12 100.5t-61 28.5z" />
    <glyph glyph-name="seven" unicode="7" horiz-adv-x="325" 
d="M65 0l5 34q27 177 86 322t176 295h-245l9 44h292l-7 -35q-115 -143 -172 -284.5t-84 -317.5l-10 -58h-50z" />
    <glyph glyph-name="eight" unicode="8" horiz-adv-x="379" 
d="M254 710q63 0 102 -34.5t26 -110.5l-11 -66q-9 -57 -35.5 -87t-76.5 -46q90 -44 70 -155l-12 -70q-6 -33 -13.5 -54.5t-23.5 -46t-45.5 -37t-72.5 -12.5q-30 0 -55 7t-48 23.5t-32.5 50.5t-0.5 81l12 67q11 62 37.5 95.5t84.5 50.5q-80 41 -63 144l10 60q11 62 43.5 101
t103.5 39zM334 566q10 58 -15.5 81.5t-66.5 23.5q-27 0 -45.5 -9t-28.5 -26.5t-15 -32.5t-9 -38l-10 -59q-16 -88 62 -118l15 -6q48 15 70.5 39t30.5 77zM282 213q17 99 -64 130l-21 8q-54 -15 -77.5 -42.5t-33.5 -86.5l-14 -77q-10 -62 18.5 -88t74.5 -26q53 0 74.5 29
t29.5 81z" />
    <glyph glyph-name="nine" unicode="9" horiz-adv-x="376" 
d="M246 710q69 0 108 -44t20 -151l-60 -347q-16 -88 -35 -120q-37 -63 -122 -63q-29 0 -53 7t-45 23t-29.5 46.5t-1.5 72.5l5 34l49 10l-7 -42q-10 -62 15 -87t65 -25q25 0 44 9.5t29 20t18.5 35.5t11 36.5t7.5 42.5l27 154q-38 -62 -105 -62q-25 0 -47 8t-42 27t-26 51.5
t0 81.5l21 114q6 34 14.5 60t25 52.5t45 41t68.5 14.5zM328 522q15 82 -11.5 114.5t-71.5 32.5q-34 0 -57 -20t-32.5 -45.5t-16.5 -64.5l-20 -113q-13 -70 11.5 -98t62.5 -28q74 0 111 87z" />
    <glyph glyph-name="colon" unicode=":" horiz-adv-x="162" 
d="M155 500l-16 -95h-59l16 95h59zM83 95l-16 -95h-59l16 95h59z" />
    <glyph glyph-name="semicolon" unicode=";" horiz-adv-x="173" 
d="M160 493l-16 -95h-59l16 95h59zM5 -118l-11 24q39 19 50 80l3 14h-30l18 95h59l-19 -105q-9 -49 -26 -73t-44 -35z" />
    <glyph glyph-name="less" unicode="&#x3c;" horiz-adv-x="504" 
d="M374 120l-258 186l6 40l324 186l-8 -50l-274 -159l218 -158z" />
    <glyph glyph-name="equal" unicode="=" horiz-adv-x="398" 
d="M58 383l6 40h330l-7 -40h-329zM31 235l7 40h330l-7 -40h-330z" />
    <glyph glyph-name="greater" unicode="&#x3e;" horiz-adv-x="503" 
d="M156 532l258 -186l-6 -40l-324 -186l8 50l274 159l-218 158z" />
    <glyph glyph-name="question" unicode="?" horiz-adv-x="314" 
d="M110 171l10 53q8 44 21 69t46 64l43 52q46 54 59 127l10 52q21 108 -70 108q-49 0 -69.5 -29.5t-28.5 -74.5q-11 -48 -9 -91l-47 4q0 51 7 87q13 66 45.5 105.5t101.5 39.5q27 0 49 -6.5t43 -23.5t25.5 -47.5t-1.5 -79.5l-8 -46q-15 -78 -71 -145l-43 -53
q-29 -35 -40 -55.5t-19 -62.5l-8 -47h-46zM76 0l16 92h57l-16 -92h-57z" />
    <glyph glyph-name="at" unicode="@" horiz-adv-x="556" 
d="M242 -95q-51 0 -92.5 16t-73 49.5t-42 86.5t0.5 126l35 198q11 62 27.5 108t45 87t75 62.5t110.5 21.5q35 0 66.5 -7t63.5 -24.5t50.5 -47.5t28.5 -77t-3 -112l-30 -168q-14 -83 -39 -117t-68 -34q-70 0 -67 77q-25 -82 -97 -82q-35 0 -57 23t-22 73q0 49 27.5 92.5
t94.5 52.5l70 9l10 61q14 84 -45 84q-18 0 -31 -6.5t-19.5 -20t-9.5 -24t-6 -28.5l-5 -31h-40l6 32q9 52 32.5 82.5t76.5 30.5q104 0 80 -135l-31 -172q-16 -86 34 -86q45 0 63 106l31 176q12 58 5 99.5t-21 68t-40 42t-52 21.5t-56 6q-45 0 -80 -13.5t-57 -34.5
t-38.5 -54.5t-25.5 -64t-16 -71.5l-36 -207q-22 -121 31 -179t138 -58q63 0 123 30l2 -34q-60 -33 -127 -33zM243 103q66 0 86 117l13 69l-56 -8q-47 -6 -69 -38.5t-23 -71.5q-1 -68 49 -68z" />
    <glyph glyph-name="A" unicode="A" horiz-adv-x="390" 
d="M277 0l-4 210h-166l-78 -210h-53l271 710h58l21 -710h-49zM122 251h150l-5 287q-2 66 2 114h-4q-14 -52 -36 -114z" />
    <glyph glyph-name="B" unicode="B" horiz-adv-x="391" 
d="M259 710q76 0 113.5 -40.5t24.5 -119.5l-6 -36q-21 -130 -119 -146q95 -20 74 -157l-6 -43q-14 -87 -53 -127.5t-133 -40.5h-131l125 710h111zM347 550q11 63 -16 91.5t-78 28.5h-63l-49 -280h74q106 0 126 126zM297 211q12 75 -10 106.5t-82 31.5h-72l-54 -308h81
q67 0 93 31.5t37 96.5z" />
    <glyph glyph-name="C" unicode="C" horiz-adv-x="410" 
d="M175 -17q-77 0 -117.5 48.5t-20.5 164.5l59 336q16 93 58.5 144t124.5 51q169 0 136 -187l-10 -58l-52 -9l12 69q24 143 -85 143q-59 0 -90 -40.5t-43 -113.5l-60 -342q-29 -163 89 -163q53 0 81 34t41 103l15 85l49 -10l-14 -79q-15 -86 -55 -131t-118 -45z" />
    <glyph glyph-name="D" unicode="D" horiz-adv-x="430" 
d="M23 0l125 710h113q101 0 141 -63t15 -206l-34 -193q-26 -142 -76.5 -195t-151.5 -53h-132zM79 41h80q77 0 113.5 43t58.5 162l35 195q22 122 -7 175.5t-107 53.5h-62z" />
    <glyph glyph-name="E" unicode="E" horiz-adv-x="343" 
d="M387 667h-197l-50 -279h181l-8 -43h-180l-54 -302h205l-7 -43h-254l125 710h247z" />
    <glyph glyph-name="F" unicode="F" horiz-adv-x="331" 
d="M387 667h-197l-49 -279h180l-8 -43h-180l-61 -345h-49l125 710h247z" />
    <glyph glyph-name="G" unicode="G" horiz-adv-x="415" 
d="M155 -17q-69 0 -102.5 53t-13.5 167l58 330q34 194 185 194q73 0 108.5 -46t17.5 -144l-8 -46l-51 -8l9 56q23 146 -81 146q-103 0 -128 -147l-59 -335q-32 -178 77 -178q108 0 142 194l19 104h-128l8 42h173l-64 -365h-36l14 108q-21 -67 -55 -96t-85 -29z" />
    <glyph glyph-name="H" unicode="H" horiz-adv-x="442" 
d="M456 710l-125 -710h-49l61 345h-210l-61 -345h-49l125 710h49l-57 -324h210l57 324h49z" />
    <glyph glyph-name="I" unicode="I" horiz-adv-x="183" 
d="M72 0h-49l125 710h49z" />
    <glyph glyph-name="J" unicode="J" horiz-adv-x="241" 
d="M158 120q-12 -68 -43 -99.5t-86 -31.5q-35 0 -63 11l8 46q31 -11 56 -11q36 0 54 23t27 74l102 578h48z" />
    <glyph glyph-name="K" unicode="K" horiz-adv-x="404" 
d="M460 710l-193 -267l76 -443h-49l-66 400l-113 -155l-43 -245h-49l125 710h49l-69 -391l278 391h54z" />
    <glyph glyph-name="L" unicode="L" horiz-adv-x="319" 
d="M23 0l125 710h49l-117 -665h184l-7 -45h-234z" />
    <glyph glyph-name="M" unicode="M" horiz-adv-x="552" 
d="M23 0l125 710h79l16 -577q2 -42 -2 -76h3q7 31 24 76l220 577h78l-125 -710h-46l93 530q13 73 26 132h-5q-2 -5 -12.5 -37.5t-20.5 -59.5l-217 -565h-54l-17 565v42t0.5 33.5t0.5 21.5h-4q-3 -22 -22 -132l-93 -530h-47z" />
    <glyph glyph-name="N" unicode="N" horiz-adv-x="455" 
d="M23 0l125 710h57l96 -528q12 -71 13 -109h2q6 73 20 154l86 483h46l-125 -710h-53l-97 535q-12 69 -13 108h-3q-4 -62 -17 -136l-90 -507h-47z" />
    <glyph glyph-name="O" unicode="O" horiz-adv-x="425" 
d="M180 -17q-81 0 -121.5 50.5t-22.5 155.5l60 343q17 95 59 145t127 50q81 0 121.5 -50.5t21.5 -155.5l-60 -343q-16 -95 -58 -145t-127 -50zM184 25q62 0 90 40t40 112l62 351q15 81 -14 119t-84 38q-62 0 -90 -40t-40 -112l-63 -351q-14 -82 14.5 -119.5t84.5 -37.5z" />
    <glyph glyph-name="P" unicode="P" horiz-adv-x="365" 
d="M258 710q73 0 113 -40t26 -128l-9 -60q-13 -83 -54 -126t-129 -43h-78l-55 -313h-49l125 710h110zM347 538q12 71 -14 101.5t-85 30.5h-58l-56 -317h74q63 0 91 33t39 100z" />
    <glyph glyph-name="Q" unicode="Q" horiz-adv-x="463" 
d="M282 727q81 0 121.5 -50.5t21.5 -155.5l-60 -343q-25 -146 -109 -181q18 -44 71 -44q16 0 38 5l-9 -46q-20 -4 -35 -4q-82 0 -100 78q-19 -3 -41 -3q-81 0 -121.5 50.5t-22.5 155.5l60 343q17 95 59 145t127 50zM376 528q15 81 -14 119t-84 38q-62 0 -90 -40t-40 -112
l-63 -351q-14 -82 14.5 -119.5t84.5 -37.5q62 0 90 40t40 112z" />
    <glyph glyph-name="R" unicode="R" horiz-adv-x="391" 
d="M252 710q79 0 120 -40t28 -127l-9 -58q-19 -133 -124 -158l57 -327h-53l-54 320h-89l-56 -320h-49l125 710h104zM350 540q19 130 -99 130h-61l-55 -311h82q106 0 124 125z" />
    <glyph glyph-name="S" unicode="S" horiz-adv-x="358" 
d="M152 -17q-76 0 -115 48.5t-23 146.5l9 54l51 7l-12 -69q-13 -74 14 -109.5t77 -35.5q87 0 105 104l8 45q9 55 -4 89.5t-54 69.5l-58 48q-43 37 -56 79.5t-3 102.5l5 28q24 135 151 136q74 1 110 -40t20 -131l-10 -58l-51 -8l11 62q24 133 -81 133q-48 0 -70 -25.5
t-30 -70.5l-7 -38q-8 -44 4 -76t47 -61l57 -48q51 -42 65.5 -85.5t3.5 -112.5l-7 -43q-10 -63 -48.5 -102.5t-108.5 -39.5z" />
    <glyph glyph-name="T" unicode="T" horiz-adv-x="346" 
d="M421 710l-8 -44h-141l-118 -666h-47l117 666h-145l8 44h334z" />
    <glyph glyph-name="U" unicode="U" horiz-adv-x="425" 
d="M141 710h49l-99 -561q-10 -59 15 -91t77 -32q93 0 115 122l99 562h48l-99 -565q-29 -162 -168 -162q-74 0 -111.5 44t-21.5 130z" />
    <glyph glyph-name="V" unicode="V" horiz-adv-x="369" 
d="M111 0l-18 710h51l8 -544q2 -63 -3 -103h4q17 59 34 103l200 544h51l-267 -710h-60z" />
    <glyph glyph-name="W" unicode="W" horiz-adv-x="565" 
d="M77 0l31 710h48l-27 -542q-1 -26 -10 -117h2q17 65 34 117l178 542h60l-14 -542q-1 -41 -7 -117h3q14 64 30 117l165 542h49l-219 -710h-68l16 564q1 17 4 51.5t4 43.5h-3q-11 -52 -26 -95l-183 -564h-67z" />
    <glyph glyph-name="X" unicode="X" horiz-adv-x="380" 
d="M-30 0l214 379l-75 332h51l50 -239q5 -24 8 -58h2q10 27 27 58l129 239h56l-189 -337l78 -374h-51l-52 282q-6 27 -7 58h-2q-12 -31 -29 -58l-151 -282h-59z" />
    <glyph glyph-name="Y" unicode="Y" horiz-adv-x="357" 
d="M111 0l55 312l-78 398h52l49 -289q6 -42 6 -59h2q12 31 28 59l151 289h55l-216 -398l-56 -312h-48z" />
    <glyph glyph-name="Z" unicode="Z" horiz-adv-x="338" 
d="M-17 41l358 625h-231l8 44h282l-8 -41l-357 -625h255l-8 -44h-306z" />
    <glyph glyph-name="bracketleft" unicode="[" horiz-adv-x="219" 
d="M3 -114l154 871h137l-7 -38h-94l-140 -795h94l-7 -38h-137z" />
    <glyph glyph-name="backslash" unicode="\" horiz-adv-x="616" 
d="M466 -117l-333 877h42l333 -877h-42z" />
    <glyph glyph-name="bracketright" unicode="]" horiz-adv-x="219" 
d="M241 757l-154 -871h-137l7 38h94l140 795h-94l7 38h137z" />
    <glyph glyph-name="asciicircum" unicode="^" horiz-adv-x="343" 
d="M235 709h35l88 -262h-43l-68 214l-144 -214h-48z" />
    <glyph glyph-name="underscore" unicode="_" horiz-adv-x="293" 
d="M-62 -100h294l-6 -33h-293z" />
    <glyph glyph-name="grave" unicode="`" horiz-adv-x="600" 
d="M283 582h-42l-112 140h52z" />
    <glyph glyph-name="a" unicode="a" horiz-adv-x="331" 
d="M90 -12q-47 0 -69.5 30t-13.5 91l4 26q10 71 52 109q36 30 105 38l72 9l13 81q17 101 -56 101q-37 0 -56.5 -19.5t-26.5 -67.5l-8 -47h-47l8 47q11 68 43.5 97t88.5 29q126 0 100 -146l-41 -228q-15 -84 -16 -138h-45q1 13 10 92q-30 -104 -117 -104zM109 27
q81 0 107 137l17 94l-58 -7q-58 -6 -82.5 -34.5t-33.5 -79.5l-4 -27q-13 -83 54 -83z" />
    <glyph glyph-name="b" unicode="b" horiz-adv-x="362" 
d="M170 -12q-86 0 -95 100l-21 -88h-37l128 725h46l-53 -299q19 42 44 64t65 22q15 0 28.5 -3.5t29.5 -14.5t23.5 -31.5t11.5 -54.5t-6 -83l-26 -149q-7 -40 -15.5 -69t-24 -58.5t-40.5 -45t-58 -15.5zM160 29q45 0 66 37t33 105l29 160q25 140 -59 140q-83 0 -111 -152
l-24 -139q-14 -76 4.5 -113.5t61.5 -37.5z" />
    <glyph glyph-name="c" unicode="c" horiz-adv-x="326" 
d="M131 -12q-59 0 -91.5 38.5t-16.5 125.5l34 195q15 82 49 123.5t95 41.5q134 0 107 -150l-5 -32l-48 -4l6 35q19 111 -61 111q-42 0 -63.5 -31t-32.5 -93l-34 -196q-12 -68 8 -96t53 -28q42 0 61 27t30 83l9 44l45 -7l-9 -43q-26 -144 -136 -144z" />
    <glyph glyph-name="d" unicode="d" horiz-adv-x="362" 
d="M114 -12q-49 0 -76.5 43.5t-9.5 144.5l27 153q15 84 47 133.5t95 49.5q82 0 87 -95l54 308h47l-128 -725h-44l16 86q-42 -98 -115 -98zM133 29q83 0 111 156l24 132q12 72 -3.5 113t-60.5 41q-33 0 -55.5 -23.5t-31 -50t-15.5 -68.5l-28 -157q-6 -47 -4 -75t14 -43
t23.5 -20t25.5 -5z" />
    <glyph glyph-name="e" unicode="e" horiz-adv-x="327" 
d="M202 512q64 0 90.5 -42t12.5 -120q-11 -59 -17 -97h-202l-16 -90q-23 -134 61 -134q35 0 57 23.5t32 77.5l8 39l43 -7l-6 -36q-26 -138 -135 -138q-62 0 -91.5 44t-13.5 136l34 189q14 77 46.5 116t96.5 39zM260 359q19 116 -61 116q-45 0 -64.5 -29.5t-30.5 -87.5
l-12 -71h155q2 12 6.5 36t6.5 36z" />
    <glyph glyph-name="f" unicode="f" horiz-adv-x="230" 
d="M260 500l-7 -37h-84l-81 -463h-47l82 463h-67l7 37h66l23 126q18 105 107 105q23 0 41 -6l-7 -40q-15 5 -33 5q-29 0 -43 -17.5t-19 -49.5l-22 -123h84z" />
    <glyph glyph-name="g" unicode="g" horiz-adv-x="319" 
d="M342 567q15 0 24 -4l-8 -43q-14 4 -25 4q-40 0 -58 -40q35 -36 21 -113l-12 -66q-11 -64 -40.5 -102.5t-92.5 -38.5q-25 0 -45 7q-20 -7 -29.5 -23t-9.5 -31q0 -18 11.5 -27t33.5 -15l57 -17q94 -28 78 -128l-3 -23q-9 -52 -47 -83t-105 -31q-70 0 -104 34.5t-23 94.5
l4 17q16 81 92 103q-38 19 -38 60q0 55 63 78q-52 33 -35 125l12 66q11 64 40.5 102.5t92.5 38.5q39 0 64 -16q22 71 82 71zM252 377q18 98 -59 98q-41 0 -59 -27.5t-26 -71.5l-13 -77q-10 -53 8 -75.5t51 -22.5q41 0 59 28t26 72zM143 16l-55 16h-2q-1 1 -2 1
q-55 -20 -68 -97l-3 -15q-15 -89 82 -89q91 0 103 81l3 16q11 70 -58 87z" />
    <glyph glyph-name="h" unicode="h" horiz-adv-x="363" 
d="M17 0l128 725h46l-56 -317q35 104 115 104q37 0 62 -21t25 -69q0 -26 -7 -64l-64 -358h-47l64 358q5 30 5 51q0 63 -56 63q-87 0 -116 -168l-53 -304h-46z" />
    <glyph glyph-name="i" unicode="i" horiz-adv-x="165" 
d="M111 583l19 110h51l-19 -110h-51zM15 0l88 500h47l-88 -500h-47z" />
    <glyph glyph-name="j" unicode="j" horiz-adv-x="164" 
d="M110 583l19 110h51l-19 -110h-51zM-48 -201q-22 0 -40 6l7 42q12 -4 28 -4q40 0 48 47l108 610h46l-109 -619q-14 -82 -88 -82z" />
    <glyph glyph-name="k" unicode="k" horiz-adv-x="340" 
d="M366 500l-151 -184l68 -316h-46l-57 279l-87 -108l-30 -171h-46l128 725h46l-86 -487l209 262h52z" />
    <glyph glyph-name="l" unicode="l" horiz-adv-x="167" 
d="M191 725l-128 -725h-46l128 725h46z" />
    <glyph glyph-name="m" unicode="m" horiz-adv-x="532" 
d="M15 0l88 500h44l-14 -82q17 45 39 69.5t64 24.5q75 0 78 -93q16 43 39.5 68t65.5 25q84 0 84 -101q0 -25 -6 -58l-63 -353h-47l63 356q4 24 4 47q0 69 -52 69q-43 0 -64.5 -41.5t-33.5 -110.5l-56 -320h-47l63 355q5 23 5 48q0 69 -51 69q-41 0 -64.5 -44t-38.5 -127
l-53 -301h-47z" />
    <glyph glyph-name="n" unicode="n" horiz-adv-x="361" 
d="M15 0l88 500h44l-17 -93q38 105 116 105q37 0 62.5 -22t25.5 -75q0 -16 -5 -46l-65 -369h-46l65 374q3 20 3 32q0 66 -57 66q-48 0 -74 -45.5t-40 -122.5l-53 -304h-47z" />
    <glyph glyph-name="o" unicode="o" horiz-adv-x="337" 
d="M131 -12q-61 0 -92.5 39t-15.5 128l34 190q14 81 46.5 124t102.5 43q61 0 92.5 -39t15.5 -128l-34 -190q-15 -81 -47 -124t-102 -43zM133 29q47 0 68.5 33t31.5 90l35 196q21 123 -64 123q-47 0 -68.5 -33t-31.5 -90l-35 -196q-21 -123 64 -123z" />
    <glyph glyph-name="p" unicode="p" horiz-adv-x="361" 
d="M-19 -195l123 695h43l-15 -83q19 48 45 71.5t67 23.5q16 0 29.5 -3.5t29.5 -14.5t23.5 -31.5t11.5 -54.5t-6 -83l-25 -149q-9 -54 -22 -91t-43 -67t-74 -30q-40 0 -63.5 25t-28.5 69l-49 -277h-46zM157 29q46 0 67 36.5t34 105.5l28 160q26 140 -59 140q-84 0 -110 -152
l-25 -139q-13 -76 5 -113.5t60 -37.5z" />
    <glyph glyph-name="q" unicode="q" horiz-adv-x="361" 
d="M177 -195l49 280q-40 -97 -112 -97q-49 0 -76.5 43.5t-9.5 144.5l27 153q15 84 47 133.5t95 49.5q85 0 92 -102l22 90h35l-123 -695h-46zM133 29q83 0 111 156l24 132q12 72 -3.5 113t-60.5 41q-33 0 -55.5 -23.5t-31 -50t-15.5 -68.5l-28 -157q-6 -47 -4 -75t14 -43
t23.5 -20t25.5 -5z" />
    <glyph glyph-name="r" unicode="r" horiz-adv-x="228" 
d="M127 383q42 127 118 127q9 0 17 -2l-9 -51q-12 2 -18 2q-44 0 -72 -41q-37 -54 -52 -140l-49 -278h-47l88 500h44z" />
    <glyph glyph-name="s" unicode="s" horiz-adv-x="303" 
d="M121 -12q-61 0 -93 34t-19 104l9 48l48 8l-9 -54q-10 -53 9 -78t58 -25q60 0 74 74l5 26q10 28 1.5 55t-45.5 47l-46 26q-69 37 -51 130l5 24q21 105 119 105q56 0 87 -31.5t18 -100.5l-10 -47l-47 -7l9 55q17 94 -58 94q-59 0 -72 -69l-5 -25q-14 -64 38 -96l49 -28
q46 -25 57 -59t-2 -74l-5 -26q-11 -53 -39 -81.5t-85 -28.5z" />
    <glyph glyph-name="t" unicode="t" horiz-adv-x="223" 
d="M48 463l7 37h58l22 121l49 17l-24 -138h85l-6 -37h-85l-61 -344q-15 -81 48 -81q9 0 25 2l-7 -43q-15 -3 -30 -3q-46 0 -70.5 28.5t-12.5 95.5l61 345h-59z" />
    <glyph glyph-name="u" unicode="u" horiz-adv-x="361" 
d="M115 -12q-88 0 -88 97q0 16 5 46l65 369h47l-66 -373q-3 -19 -3 -33q0 -65 56 -65q86 0 115 166l54 305h46l-88 -500h-44l17 93q-19 -52 -45.5 -78.5t-70.5 -26.5z" />
    <glyph glyph-name="v" unicode="v" horiz-adv-x="302" 
d="M82 0l-25 500h48l10 -372q2 -44 -1 -71h3q14 44 24 71l142 372h49l-199 -500h-51z" />
    <glyph glyph-name="w" unicode="w" horiz-adv-x="471" 
d="M65 0l1 500h46l-10 -395q0 -3 -1 -22t-2 -29h2q2 10 16 51l135 395h53l-4 -395q0 -34 -1 -51h2q3 19 14 51l129 395h48l-175 -500h-51l2 402q0 17 4 51h-2q-11 -39 -16 -51l-138 -402h-52z" />
    <glyph glyph-name="x" unicode="x" horiz-adv-x="295" 
d="M-30 0l154 263l-55 237h49l30 -161q4 -20 7 -44h2q2 6 23 45l83 160h50l-136 -240l60 -260h-48l-35 179q-6 28 -7 45h-2q-5 -13 -23 -46l-98 -178h-54z" />
    <glyph glyph-name="y" unicode="y" horiz-adv-x="310" 
d="M-20 -200q-22 0 -33 5l7 43q12 -4 29 -4q26 0 44.5 16t33.5 57l30 78l-34 505h49l16 -385q2 -49 0 -64h2q2 9 20 57l147 392h50l-239 -594q-25 -62 -53 -84t-69 -22z" />
    <glyph glyph-name="z" unicode="z" horiz-adv-x="279" 
d="M-13 38l255 422h-172l7 40h219l-7 -37l-254 -422h188l-7 -41h-236z" />
    <glyph glyph-name="braceleft" unicode="{" horiz-adv-x="249" 
d="M155 -115q-53 0 -81.5 25.5t-15.5 100.5l37 206q4 28 5.5 48t-12 31.5t-46.5 12.5l7 39q33 0 50.5 12.5t23 28t11.5 49.5l38 217q10 53 40 81.5t93 28.5h19l-7 -37h-10q-46 0 -65.5 -20t-26.5 -59l-38 -213q-8 -46 -25 -72.5t-54 -34.5q34 -10 43 -40.5t-1 -70.5
l-38 -211q-9 -52 9 -68.5t55 -16.5h11l-6 -37h-16z" />
    <glyph glyph-name="bar" unicode="|" horiz-adv-x="161" 
d="M-4 -117l155 877h40l-155 -877h-40z" />
    <glyph glyph-name="braceright" unicode="}" horiz-adv-x="249" 
d="M121 765q53 0 81.5 -25.5t15.5 -100.5l-37 -206q-4 -28 -5.5 -48t12 -31.5t46.5 -12.5l-7 -39q-33 0 -50.5 -12.5t-23 -28t-11.5 -49.5l-38 -217q-10 -53 -40 -81.5t-93 -28.5h-19l7 37h10q46 0 65.5 20t26.5 59l38 213q8 46 25 72.5t54 34.5q-34 10 -43 40.5t1 70.5
l38 211q9 52 -9 68.5t-55 16.5h-11l6 37h16z" />
    <glyph glyph-name="asciitilde" unicode="~" 
d="M323 251q-35 0 -62.5 17.5t-50.5 35t-49 17.5q-61 0 -78 -70l-38 6q12 54 43.5 79t72.5 25q44 0 88 -35.5t74 -35.5q61 0 78 70l37 -5q-11 -54 -42.5 -79t-72.5 -25z" />
    <glyph glyph-name="uni00A0" unicode="&#xa0;" horiz-adv-x="180" 
 />
    <glyph glyph-name="exclamdown" unicode="&#xa1;" horiz-adv-x="192" 
d="M110 489l15 91h58l-16 -91h-57zM140 397l-85 -538h-56l104 538h37z" />
    <glyph glyph-name="cent" unicode="&#xa2;" horiz-adv-x="350" 
d="M237 511q120 -15 94 -154l-6 -32l-45 -4l6 34q18 108 -55 118l-79 -447q44 4 65 32t30 80l9 47l44 -6l-10 -47q-14 -68 -47.5 -105.5t-96.5 -38.5l-14 -77h-29l14 79q-121 17 -90 187l30 170q15 82 51 123t101 42l14 82h29zM70 163q-22 -121 53 -135l79 446
q-44 -4 -67 -35.5t-33 -90.5z" />
    <glyph glyph-name="sterling" unicode="&#xa3;" horiz-adv-x="400" 
d="M280 710q138 0 118 -161l-6 -50l-49 -5l7 56q15 121 -74 121q-31 0 -52 -16t-31 -47t-14 -64t-4 -80q0 -39 2 -85h103l-6 -36h-95v-19q0 -84 -18.5 -141.5t-47.5 -87.5t-75 -52q27 9 50 9q24 0 63.5 -11t65.5 -11q42 0 64 26t30 94l43 -7q-13 -158 -141 -158
q-31 0 -76.5 13t-72.5 13q-33 0 -80 -15l-9 39q56 29 86.5 57t50 83t19.5 141v27h-80l6 36h72q-2 58 -2 89q0 115 33.5 178.5t119.5 63.5z" />
    <glyph glyph-name="currency" unicode="&#xa4;" horiz-adv-x="387" 
d="M328 459q17 -34 17 -92q0 -142 -58 -222l33 -46l-29 -23l-29 41q-36 -30 -82 -30q-58 0 -87 36l-50 -47l-22 22l56 51q-16 35 -16 90q0 141 58 221l-34 47l28 23l31 -42q36 31 82 31q55 0 85 -33l47 44l22 -23zM181 125q39 0 67.5 40t40.5 93.5t12 109.5q0 112 -76 112
q-39 0 -67.5 -40t-40 -93t-11.5 -109q0 -113 75 -113z" />
    <glyph glyph-name="yen" unicode="&#xa5;" horiz-adv-x="349" 
d="M419 695l-208 -385h118l-7 -35h-120l-12 -70h120l-6 -35h-120l-30 -170h-48l30 170h-120l6 35h120l12 70h-120l7 35h116l-72 385h51l43 -262q9 -62 10 -82h2q8 17 40 82l135 262h53z" />
    <glyph glyph-name="brokenbar" unicode="&#xa6;" horiz-adv-x="161" 
d="M190 760l-67 -378h-39l67 378h39zM102 261l-67 -378h-39l67 378h39z" />
    <glyph glyph-name="section" unicode="&#xa7;" horiz-adv-x="309" 
d="M228 715q23 0 42 -5.5t36 -18t24 -38t1 -60.5l-6 -36l-47 -6l7 38q16 88 -57 88q-64 0 -76 -68l-4 -19q-2 -11 -2 -21t0.5 -17t3.5 -15t5 -12t7.5 -11t7.5 -9l8.5 -8.5l7.5 -7.5l52 -49q59 -56 52 -133l-1 -8q-3 -39 -26 -78.5t-72 -60.5q26 -25 38.5 -54t4.5 -75l-3 -17
q-4 -21 -10 -37.5t-19.5 -35.5t-39 -29.5t-61.5 -10.5q-25 0 -45 5.5t-38.5 19.5t-25.5 42t0 68l6 35l46 7l-8 -45q-17 -93 67 -93q24 0 40.5 8t24.5 22.5t11.5 25.5t5.5 25l2 13q6 37 -6 60t-43 51l-50 47q-53 49 -43 131l1 11q10 94 102 124l-2 1q-58 55 -44 132l4 19
q20 105 122 105zM194 414l-25 24q-67 -23 -76 -100l-1 -8q-5 -41 5 -64t35 -47l38 -38q66 25 73 111l1 5q2 29 -6.5 54t-18 36.5t-25.5 26.5z" />
    <glyph glyph-name="dieresis" unicode="&#xa8;" horiz-adv-x="600" 
d="M90 592l17 95h46l-17 -95h-46zM217 592l17 95h47l-17 -95h-47z" />
    <glyph glyph-name="copyright" unicode="&#xa9;" horiz-adv-x="663" 
d="M318 -14q-46 0 -86 10t-78.5 34t-61.5 63.5t-34 97.5t4 137l18 108q7 41 18.5 78t35 76.5t55 68t81.5 47t112 18.5q57 0 105.5 -16.5t90 -53t58.5 -106.5t1 -166l-17 -108q-7 -42 -19 -79t-35 -77t-55 -68t-81.5 -46t-111.5 -18zM320 17q53 0 96 16.5t71.5 42t49.5 61.5
t32 70t17 71l17 107q12 90 0.5 149t-48.5 94.5t-79.5 50t-93.5 14.5q-53 0 -96 -16.5t-71.5 -42t-49.5 -61t-32 -69.5t-18 -72l-18 -107q-15 -72 -5 -125t30 -88t54.5 -56t69.5 -30t74 -9zM334 141q-52 0 -84 34t-32 125q0 43 7.5 85.5t24 86.5t50 71.5t79.5 27.5
q56 0 82.5 -36.5t19.5 -109.5l-40 -3q14 114 -62 114q-35 0 -60.5 -25t-37.5 -65t-17.5 -76.5t-5.5 -70.5q0 -124 77 -124q37 0 55 25t32 89l41 -3q-17 -81 -45 -113t-84 -32z" />
    <glyph glyph-name="ordfeminine" unicode="&#xaa;" horiz-adv-x="283" 
d="M137 301q-69 0 -69 82q0 60 33 94t92 41l56 6l8 46q8 46 -3 63.5t-39 17.5t-42 -19.5t-22 -65.5h-44q11 63 37 90.5t73 27.5q49 0 72 -27t10 -95l-27 -153q-11 -65 -12 -99h-41q1 20 7 66q-22 -75 -89 -75zM154 334q61 0 78 95l12 68l-43 -5q-48 -5 -68 -36.5t-20 -68.5
q0 -53 41 -53z" />
    <glyph glyph-name="guillemotleft" unicode="&#xab;" horiz-adv-x="353" 
d="M113 67l-81 208l156 207h54l-162 -212l81 -203h-48zM234 67l-81 208l156 207h54l-162 -212l81 -203h-48z" />
    <glyph glyph-name="logicalnot" unicode="&#xac;" horiz-adv-x="504" 
d="M123 356h294l-39 -225h-45l33 182h-250z" />
    <glyph glyph-name="registered" unicode="&#xae;" horiz-adv-x="663" 
d="M382 724q57 0 105.5 -16.5t90 -53t58.5 -106.5t1 -166l-17 -108q-7 -42 -19 -79t-35 -77t-55 -68t-81.5 -46t-111.5 -18q-46 0 -86 10t-78.5 34t-61.5 63.5t-34 97.5t4 137l18 108q7 41 18.5 78t35 76.5t55 68t81.5 47t112 18.5zM603 385q12 90 0.5 149t-48.5 94.5
t-79.5 50t-93.5 14.5q-53 0 -96 -16.5t-71.5 -42t-49.5 -61t-32 -69.5t-18 -72l-18 -107q-15 -72 -5 -125t30 -88t54.5 -56t69.5 -30t74 -9q53 0 96 16.5t71.5 42t49.5 61.5t32 70t17 71zM386 562q98 0 98 -98q0 -49 -23 -84t-69 -45l41 -179h-45l-36 176h-52l-31 -176h-41
l72 406h86zM348 365q94 0 94 99q0 36 -14.5 50.5t-44.5 14.5h-48l-29 -164h42z" />
    <glyph glyph-name="macron" unicode="&#xaf;" horiz-adv-x="600" 
d="M52 617l7 38h190l-7 -38h-190z" />
    <glyph glyph-name="degree" unicode="&#xb0;" horiz-adv-x="272" 
d="M182 470q-38 0 -63.5 22.5t-25.5 75.5q0 55 30.5 102t87.5 47q37 0 62.5 -22.5t25.5 -75.5q0 -56 -30 -102.5t-87 -46.5zM184 504q37 0 56 36t19 76q0 66 -50 66q-37 0 -56.5 -35.5t-19.5 -75.5q0 -67 51 -67z" />
    <glyph glyph-name="plusminus" unicode="&#xb1;" horiz-adv-x="521" 
d="M296 328h143l-7 -41h-143l-29 -164h-46l29 164h-141l7 41h141l28 157h46zM51 0l8 43h330l-8 -43h-330z" />
    <glyph glyph-name="acute" unicode="&#xb4;" horiz-adv-x="600" 
d="M50 582l102 140h52l-112 -140h-42z" />
    <glyph glyph-name="uni00B5" unicode="&#xb5;" horiz-adv-x="368" 
d="M306 500h46l-88 -500h-44l17 93q-19 -52 -45.5 -78.5t-70.5 -26.5q-40 0 -61 20l-36 -204h-43l54 309l3 18l65 369h47l-66 -373q-3 -19 -3 -33q0 -65 56 -65q86 0 115 166z" />
    <glyph glyph-name="paragraph" unicode="&#xb6;" horiz-adv-x="541" 
d="M273 357q-24 0 -49.5 8t-51.5 25t-42.5 50t-16.5 78q0 36 11.5 68.5t38 64t79 50.5t125.5 19h182l-6 -31h-64l-139 -789h-36l139 789h-76l-139 -789h-36z" />
    <glyph glyph-name="periodcentered" unicode="&#xb7;" horiz-adv-x="163" 
d="M136 394l-16 -95h-59l16 95h59z" />
    <glyph glyph-name="cedilla" unicode="&#xb8;" horiz-adv-x="600" 
d="M116 0h33l-36 -53q12 11 32 11q44 0 44 -51q0 -36 -19.5 -66.5t-60.5 -30.5q-31 0 -47 16.5t-13 43.5l35 4q-3 -36 26 -36q22 0 32 20.5t10 43.5q0 32 -26 32q-18 0 -30 -17l-25 9z" />
    <glyph glyph-name="ordmasculine" unicode="&#xba;" horiz-adv-x="306" 
d="M170 301q-24 0 -40.5 7t-31 27.5t-15 57.5t7.5 98q20 110 46 151.5t85 41.5q24 0 40.5 -7t31 -27.5t15 -57.5t-7.5 -98q-20 -110 -46 -151.5t-85 -41.5zM171 335q37 0 53 32.5t33 126.5q7 42 8 72.5t-2 46t-11 24.5t-15 11t-16 2q-37 0 -53 -32.5t-33 -126.5
q-7 -42 -8 -72.5t2 -46t11 -24.5t15 -11t16 -2z" />
    <glyph glyph-name="guillemotright" unicode="&#xbb;" horiz-adv-x="354" 
d="M128 482l81 -208l-156 -207h-54l162 212l-81 203h48zM249 482l81 -208l-156 -207h-54l162 212l-81 203h48z" />
    <glyph glyph-name="onequarter" unicode="&#xbc;" horiz-adv-x="465" 
d="M-9 -17l460 744h40l-460 -744h-40zM104 364l50 282q-17 -25 -56 -25h-11l6 39h11q22 0 40.5 13.5t27.5 36.5h33l-61 -346h-40zM418 84h-42l-15 -84h-38l14 84h-123l4 28l160 235h44l-41 -234h42zM381 307l-129 -194h91z" />
    <glyph glyph-name="onehalf" unicode="&#xbd;" horiz-adv-x="502" 
d="M-9 -17l460 744h40l-460 -744h-40zM104 364l50 282q-17 -25 -56 -25h-11l6 39h11q22 0 40.5 13.5t27.5 36.5h33l-61 -346h-40zM248 0l4 27q184 163 184 245q0 49 -45 49q-55 0 -53 -80l-40 4q-1 48 23.5 78.5t71.5 30.5q84 0 84 -77q0 -91 -169 -244h128l-7 -33h-181z
" />
    <glyph glyph-name="threequarters" unicode="&#xbe;" horiz-adv-x="528" 
d="M54 -17l460 744h40l-460 -744h-40zM145 357q-43 0 -65.5 24.5t-11.5 79.5l41 3q-16 -75 37 -75q62 0 62 88q0 51 -38 51h-21l5 31h20q31 0 46 24.5t15 54.5q0 49 -44 49q-51 0 -55 -72l-40 4q6 99 95 99q85 0 85 -78q0 -35 -17.5 -62.5t-54.5 -34.5q44 -6 44 -70
q0 -116 -103 -116zM481 84h-42l-15 -84h-38l14 84h-123l4 28l160 235h44l-41 -234h42zM444 307l-129 -194h91z" />
    <glyph glyph-name="questiondown" unicode="&#xbf;" horiz-adv-x="314" 
d="M252 580l-16 -92h-57l16 92h57zM218 409l-10 -53q-8 -44 -21 -69t-46 -64l-43 -52q-46 -54 -59 -127l-10 -52q-21 -108 70 -108q49 0 69.5 29.5t28.5 74.5q11 48 9 91l47 -4q0 -51 -7 -87q-13 -66 -45.5 -105.5t-101.5 -39.5q-27 0 -49 6.5t-43 23.5t-25.5 47.5t1.5 79.5
l8 46q15 78 71 145l43 53q29 35 40 55.5t19 62.5l8 47h46z" />
    <glyph glyph-name="Agrave" unicode="&#xc0;" horiz-adv-x="390" 
d="M304 753h-42l-88 97h51zM277 0l-4 210h-166l-78 -210h-53l271 710h58l21 -710h-49zM122 251h150l-5 287q-2 66 2 114h-4q-14 -52 -36 -114z" />
    <glyph glyph-name="Aacute" unicode="&#xc1;" horiz-adv-x="390" 
d="M392 850l-88 -97h-42l79 97h51zM247 710h58l21 -710h-49l-4 210h-166l-78 -210h-53zM122 251h150l-5 287q-2 66 2 114h-4q-14 -52 -36 -114z" />
    <glyph glyph-name="Acircumflex" unicode="&#xc2;" horiz-adv-x="390" 
d="M328 850l56 -97h-45l-41 73l-66 -73h-50l90 97h56zM247 710h58l21 -710h-49l-4 210h-166l-78 -210h-53zM122 251h150l-5 287q-2 66 2 114h-4q-14 -52 -36 -114z" />
    <glyph glyph-name="Atilde" unicode="&#xc3;" horiz-adv-x="390" 
d="M376 833l33 -4q-5 -38 -24 -57.5t-46 -19.5q-29 0 -54 25.5t-40 25.5q-33 0 -38 -44l-33 4q11 77 71 77q29 0 53.5 -26t40.5 -26q32 0 37 45zM247 710h58l21 -710h-49l-4 210h-166l-78 -210h-53zM122 251h150l-5 287q-2 66 2 114h-4q-14 -52 -36 -114z" />
    <glyph glyph-name="Adieresis" unicode="&#xc4;" horiz-adv-x="390" 
d="M255 835l-15 -82h-47l15 82h47zM340 835h48l-15 -82h-48zM247 710h58l21 -710h-49l-4 210h-166l-78 -210h-53zM122 251h150l-5 287q-2 66 2 114h-4q-14 -52 -36 -114z" />
    <glyph glyph-name="Aring" unicode="&#xc5;" horiz-adv-x="390" 
d="M311 905q32 0 51.5 -19t19.5 -49q0 -40 -29 -67t-71 -27q-33 0 -52 19t-19 50q0 39 29 66t71 27zM287 773q25 0 42 17.5t17 42.5q0 18 -11 30t-30 12q-25 0 -41.5 -17.5t-16.5 -42.5q0 -19 10.5 -30.5t29.5 -11.5zM247 710h58l21 -710h-49l-4 210h-166l-78 -210h-53z
M122 251h150l-5 287q-2 66 2 114h-4q-14 -52 -36 -114z" />
    <glyph glyph-name="AE" unicode="&#xc6;" horiz-adv-x="584" 
d="M627 668h-194l-49 -280h177l-7 -43h-178l-53 -303h201l-7 -42h-250l34 194h-139l-93 -194h-50l346 710h270zM308 235l75 422l-202 -422h127z" />
    <glyph glyph-name="Ccedilla" unicode="&#xc7;" horiz-adv-x="410" 
d="M279 727q169 0 136 -187l-10 -58l-52 -9l12 69q24 143 -85 143q-59 0 -90 -40.5t-43 -113.5l-60 -342q-29 -163 89 -163q53 0 81 34t41 103l15 85l49 -10l-14 -79q-15 -86 -55 -131t-118 -45h-3l-24 -36q12 11 32 11q44 0 44 -51q0 -36 -19.5 -66.5t-60.5 -30.5
q-31 0 -47 16.5t-13 43.5l35 4q-3 -36 26 -36q22 0 32 20.5t10 43.5q0 32 -26 32q-18 0 -30 -17l-25 9l36 59q-138 20 -105 211l59 336q16 93 58.5 144t124.5 51z" />
    <glyph glyph-name="Egrave" unicode="&#xc8;" horiz-adv-x="343" 
d="M293 753h-42l-88 97h51zM387 667h-197l-50 -279h181l-8 -43h-180l-54 -302h205l-7 -43h-254l125 710h247z" />
    <glyph glyph-name="Eacute" unicode="&#xc9;" horiz-adv-x="343" 
d="M381 850l-88 -97h-42l79 97h51zM387 667h-197l-50 -279h181l-8 -43h-180l-54 -302h205l-7 -43h-254l125 710h247z" />
    <glyph glyph-name="Ecircumflex" unicode="&#xca;" horiz-adv-x="343" 
d="M287 826l-66 -73h-50l90 97h56l56 -97h-45zM387 667h-197l-50 -279h181l-8 -43h-180l-54 -302h205l-7 -43h-254l125 710h247z" />
    <glyph glyph-name="Edieresis" unicode="&#xcb;" horiz-adv-x="343" 
d="M244 835l-15 -82h-47l15 82h47zM377 835l-15 -82h-48l15 82h48zM387 667h-197l-50 -279h181l-8 -43h-180l-54 -302h205l-7 -43h-254l125 710h247z" />
    <glyph glyph-name="Igrave" unicode="&#xcc;" horiz-adv-x="183" 
d="M199 753h-41l-65 97h46zM72 0h-49l125 710h49z" />
    <glyph glyph-name="Iacute" unicode="&#xcd;" horiz-adv-x="183" 
d="M160 753l60 97h46l-65 -97h-41zM72 0h-49l125 710h49z" />
    <glyph glyph-name="Icircumflex" unicode="&#xce;" horiz-adv-x="183" 
d="M261 753h-41l-26 73l-52 -73h-44l70 97h57zM72 0h-49l125 710h49z" />
    <glyph glyph-name="Idieresis" unicode="&#xcf;" horiz-adv-x="183" 
d="M106 753l15 82h47l-15 -82h-47zM207 753l15 82h48l-15 -82h-48zM72 0h-49l125 710h49z" />
    <glyph glyph-name="Eth" unicode="&#xd0;" horiz-adv-x="430" 
d="M261 710q101 0 141 -63t15 -206l-34 -193q-26 -142 -76.5 -195t-151.5 -53h-132l62 352h-67l7 38h67l56 320h113zM366 441q22 122 -7 175.5t-107 53.5h-62l-49 -280h94l-7 -38h-94l-55 -311h80q77 0 113.5 43t58.5 162z" />
    <glyph glyph-name="Ntilde" unicode="&#xd1;" horiz-adv-x="455" 
d="M372 752q-29 0 -54 25.5t-40 25.5q-32 0 -38 -44l-33 4q11 77 71 77q29 0 53.5 -26t40.5 -26q32 0 37 45l33 -4q-5 -38 -24 -57.5t-46 -19.5zM23 0l125 710h57l96 -528q12 -71 13 -109h2q6 73 20 154l86 483h46l-125 -710h-53l-97 535q-12 69 -13 108h-3q-4 -62 -17 -136
l-90 -507h-47z" />
    <glyph glyph-name="Ograve" unicode="&#xd2;" horiz-adv-x="425" 
d="M322 753h-42l-88 97h51zM180 -17q-81 0 -121.5 50.5t-22.5 155.5l60 343q17 95 59 145t127 50q81 0 121.5 -50.5t21.5 -155.5l-60 -343q-16 -95 -58 -145t-127 -50zM184 25q62 0 90 40t40 112l62 351q15 81 -14 119t-84 38q-62 0 -90 -40t-40 -112l-63 -351
q-14 -82 14.5 -119.5t84.5 -37.5z" />
    <glyph glyph-name="Oacute" unicode="&#xd3;" horiz-adv-x="425" 
d="M280 753l79 97h51l-88 -97h-42zM180 -17q-81 0 -121.5 50.5t-22.5 155.5l60 343q17 95 59 145t127 50q81 0 121.5 -50.5t21.5 -155.5l-60 -343q-16 -95 -58 -145t-127 -50zM184 25q62 0 90 40t40 112l62 351q15 81 -14 119t-84 38q-62 0 -90 -40t-40 -112l-63 -351
q-14 -82 14.5 -119.5t84.5 -37.5z" />
    <glyph glyph-name="Ocircumflex" unicode="&#xd4;" horiz-adv-x="425" 
d="M402 753h-45l-41 73l-66 -73h-50l90 97h56zM180 -17q-81 0 -121.5 50.5t-22.5 155.5l60 343q17 95 59 145t127 50q81 0 121.5 -50.5t21.5 -155.5l-60 -343q-16 -95 -58 -145t-127 -50zM184 25q62 0 90 40t40 112l62 351q15 81 -14 119t-84 38q-62 0 -90 -40t-40 -112
l-63 -351q-14 -82 14.5 -119.5t84.5 -37.5z" />
    <glyph glyph-name="Otilde" unicode="&#xd5;" horiz-adv-x="425" 
d="M357 752q-29 0 -54 25.5t-40 25.5q-33 0 -38 -44l-33 4q11 77 71 77q29 0 53.5 -26t40.5 -26q32 0 37 45l33 -4q-5 -38 -24 -57.5t-46 -19.5zM180 -17q-81 0 -121.5 50.5t-22.5 155.5l60 343q17 95 59 145t127 50q81 0 121.5 -50.5t21.5 -155.5l-60 -343
q-16 -95 -58 -145t-127 -50zM184 25q62 0 90 40t40 112l62 351q15 81 -14 119t-84 38q-62 0 -90 -40t-40 -112l-63 -351q-14 -82 14.5 -119.5t84.5 -37.5z" />
    <glyph glyph-name="Odieresis" unicode="&#xd6;" horiz-adv-x="425" 
d="M211 753l15 82h47l-15 -82h-47zM343 753l15 82h48l-15 -82h-48zM180 -17q-81 0 -121.5 50.5t-22.5 155.5l60 343q17 95 59 145t127 50q81 0 121.5 -50.5t21.5 -155.5l-60 -343q-16 -95 -58 -145t-127 -50zM184 25q62 0 90 40t40 112l62 351q15 81 -14 119t-84 38
q-62 0 -90 -40t-40 -112l-63 -351q-14 -82 14.5 -119.5t84.5 -37.5z" />
    <glyph glyph-name="multiply" unicode="&#xd7;" horiz-adv-x="510" 
d="M443 465l-146 -136l100 -137l-35 -30l-98 136l-146 -136l-25 29l148 139l-97 135l34 29l96 -133l143 134z" />
    <glyph glyph-name="Oslash" unicode="&#xd8;" horiz-adv-x="425" 
d="M476 728l-54 -89q16 -48 3 -118l-60 -343q-16 -95 -58 -145t-127 -50q-87 0 -124 54l-42 -69l-28 15l53 88q-14 48 -3 118l60 343q17 95 59 145t127 50q87 0 123 -53l42 68zM85 182q-4 -21 -4 -43l293 483q-20 63 -96 63q-62 0 -90 -40t-40 -112zM376 528q3 15 5 43
l-294 -483q21 -63 97 -63q62 0 90 40t40 112z" />
    <glyph glyph-name="Ugrave" unicode="&#xd9;" horiz-adv-x="425" 
d="M322 753h-42l-88 97h51zM141 710h49l-99 -561q-10 -59 15 -91t77 -32q93 0 115 122l99 562h48l-99 -565q-29 -162 -168 -162q-74 0 -111.5 44t-21.5 130z" />
    <glyph glyph-name="Uacute" unicode="&#xda;" horiz-adv-x="425" 
d="M280 753l79 97h51l-88 -97h-42zM141 710h49l-99 -561q-10 -59 15 -91t77 -32q93 0 115 122l99 562h48l-99 -565q-29 -162 -168 -162q-74 0 -111.5 44t-21.5 130z" />
    <glyph glyph-name="Ucircumflex" unicode="&#xdb;" horiz-adv-x="425" 
d="M402 753h-45l-41 73l-66 -73h-50l90 97h56zM141 710h49l-99 -561q-10 -59 15 -91t77 -32q93 0 115 122l99 562h48l-99 -565q-29 -162 -168 -162q-74 0 -111.5 44t-21.5 130z" />
    <glyph glyph-name="Udieresis" unicode="&#xdc;" horiz-adv-x="425" 
d="M211 753l15 82h47l-15 -82h-47zM343 753l15 82h48l-15 -82h-48zM141 710h49l-99 -561q-10 -59 15 -91t77 -32q93 0 115 122l99 562h48l-99 -565q-29 -162 -168 -162q-74 0 -111.5 44t-21.5 130z" />
    <glyph glyph-name="Yacute" unicode="&#xdd;" horiz-adv-x="357" 
d="M246 753l79 97h51l-88 -97h-42zM111 0l55 312l-78 398h52l49 -289q6 -42 6 -59h2q12 31 28 59l151 289h55l-216 -398l-56 -312h-48z" />
    <glyph glyph-name="Thorn" unicode="&#xde;" horiz-adv-x="361" 
d="M223 557q82 0 120 -42t24 -127l-9 -54q-14 -88 -59.5 -125t-123.5 -37h-73l-30 -172h-49l125 710h49l-27 -153h53zM317 387q21 130 -102 130h-52l-53 -304h67q110 0 131 119z" />
    <glyph glyph-name="germandbls" unicode="&#xdf;" horiz-adv-x="356" 
d="M134 -3q-19 0 -28 1l7 40q8 -1 24 -1q100 0 124 136l11 62q25 144 -83 144h-15l7 40h16q46 0 74.5 32t37.5 87l11 62q8 45 -7.5 71t-50.5 26q-48 0 -68 -25.5t-30 -84.5l-104 -587h-48l104 587q14 76 47.5 113t103.5 37q59 0 85.5 -36t15.5 -100l-10 -62
q-10 -56 -39.5 -92t-71.5 -44q99 -17 73 -167l-11 -62q-15 -87 -60.5 -132t-114.5 -45z" />
    <glyph glyph-name="agrave" unicode="&#xe0;" horiz-adv-x="331" 
d="M240 582h-42l-112 140h52zM90 -12q-47 0 -69.5 30t-13.5 91l4 26q10 71 52 109q36 30 105 38l72 9l13 81q17 101 -56 101q-37 0 -56.5 -19.5t-26.5 -67.5l-8 -47h-47l8 47q11 68 43.5 97t88.5 29q126 0 100 -146l-41 -228q-15 -84 -16 -138h-45q1 13 10 92
q-30 -104 -117 -104zM109 27q81 0 107 137l17 94l-58 -7q-58 -6 -82.5 -34.5t-33.5 -79.5l-4 -27q-13 -83 54 -83z" />
    <glyph glyph-name="aacute" unicode="&#xe1;" horiz-adv-x="331" 
d="M195 582l102 140h52l-112 -140h-42zM90 -12q-47 0 -69.5 30t-13.5 91l4 26q10 71 52 109q36 30 105 38l72 9l13 81q17 101 -56 101q-37 0 -56.5 -19.5t-26.5 -67.5l-8 -47h-47l8 47q11 68 43.5 97t88.5 29q126 0 100 -146l-41 -228q-15 -84 -16 -138h-45q1 13 10 92
q-30 -104 -117 -104zM109 27q81 0 107 137l17 94l-58 -7q-58 -6 -82.5 -34.5t-33.5 -79.5l-4 -27q-13 -83 54 -83z" />
    <glyph glyph-name="acircumflex" unicode="&#xe2;" horiz-adv-x="331" 
d="M316 582h-43l-33 109l-72 -109h-46l96 140h51zM90 -12q-47 0 -69.5 30t-13.5 91l4 26q10 71 52 109q36 30 105 38l72 9l13 81q17 101 -56 101q-37 0 -56.5 -19.5t-26.5 -67.5l-8 -47h-47l8 47q11 68 43.5 97t88.5 29q126 0 100 -146l-41 -228q-15 -84 -16 -138h-45
q1 13 10 92q-30 -104 -117 -104zM109 27q81 0 107 137l17 94l-58 -7q-58 -6 -82.5 -34.5t-33.5 -79.5l-4 -27q-13 -83 54 -83z" />
    <glyph glyph-name="atilde" unicode="&#xe3;" horiz-adv-x="331" 
d="M277 599q-29 0 -54.5 26.5t-41.5 26.5q-31 0 -37 -46l-34 4q4 38 23.5 59t47.5 21q29 0 55 -27t41 -27q31 0 38 45l33 -3q-12 -79 -71 -79zM90 -12q-47 0 -69.5 30t-13.5 91l4 26q10 71 52 109q36 30 105 38l72 9l13 81q17 101 -56 101q-37 0 -56.5 -19.5t-26.5 -67.5
l-8 -47h-47l8 47q11 68 43.5 97t88.5 29q126 0 100 -146l-41 -228q-15 -84 -16 -138h-45q1 13 10 92q-30 -104 -117 -104zM109 27q81 0 107 137l17 94l-58 -7q-58 -6 -82.5 -34.5t-33.5 -79.5l-4 -27q-13 -83 54 -83z" />
    <glyph glyph-name="adieresis" unicode="&#xe4;" horiz-adv-x="331" 
d="M133 592l17 95h46l-17 -95h-46zM260 592l17 95h47l-17 -95h-47zM90 -12q-47 0 -69.5 30t-13.5 91l4 26q10 71 52 109q36 30 105 38l72 9l13 81q17 101 -56 101q-37 0 -56.5 -19.5t-26.5 -67.5l-8 -47h-47l8 47q11 68 43.5 97t88.5 29q126 0 100 -146l-41 -228
q-15 -84 -16 -138h-45q1 13 10 92q-30 -104 -117 -104zM109 27q81 0 107 137l17 94l-58 -7q-58 -6 -82.5 -34.5t-33.5 -79.5l-4 -27q-13 -83 54 -83z" />
    <glyph glyph-name="aring" unicode="&#xe5;" horiz-adv-x="331" 
d="M218 569q-35 0 -56 19t-21 55q0 37 26 64t69 27q35 0 55.5 -18.5t20.5 -54.5q0 -37 -26 -64.5t-68 -27.5zM218 599q30 0 45 19.5t15 42.5q0 22 -12 32.5t-30 10.5q-30 0 -45 -19.5t-15 -41.5q0 -44 42 -44zM90 -12q-47 0 -69.5 30t-13.5 91l4 26q10 71 52 109
q36 30 105 38l72 9l13 81q17 101 -56 101q-37 0 -56.5 -19.5t-26.5 -67.5l-8 -47h-47l8 47q11 68 43.5 97t88.5 29q126 0 100 -146l-41 -228q-15 -84 -16 -138h-45q1 13 10 92q-30 -104 -117 -104zM109 27q81 0 107 137l17 94l-58 -7q-58 -6 -82.5 -34.5t-33.5 -79.5l-4 -27
q-13 -83 54 -83z" />
    <glyph glyph-name="ae" unicode="&#xe6;" horiz-adv-x="512" 
d="M392 512q60 0 86.5 -42.5t12.5 -119.5l-18 -97h-197l-16 -90q-23 -134 58 -134q35 0 56 23t32 78l7 39l44 -7l-7 -36q-26 -138 -133 -138q-40 0 -67.5 21t-34.5 63q-36 -84 -121 -84q-106 0 -87 121l4 26q11 76 52 109q39 35 105 39l72 5l14 83q17 102 -57 102
q-37 0 -56.5 -19.5t-26.5 -67.5l-8 -47h-47l8 47q11 68 43.5 97t88.5 29q75 0 94 -58q30 58 99 58zM445 359q20 116 -56 116q-45 0 -64.5 -30t-29.5 -87l-13 -71h150q2 12 6.5 36t6.5 36zM109 27q82 0 108 137l16 91l-58 -4q-58 -4 -82.5 -33t-33.5 -81l-4 -26
q-14 -84 54 -84z" />
    <glyph glyph-name="ccedilla" unicode="&#xe7;" horiz-adv-x="326" 
d="M201 512q134 0 107 -150l-5 -32l-48 -4l6 35q19 111 -61 111q-42 0 -63.5 -31t-32.5 -93l-34 -196q-12 -68 8 -96t53 -28q42 0 61 27t30 83l9 44l45 -7l-9 -43q-24 -135 -123 -143l-28 -42q12 11 32 11q44 0 44 -51q0 -36 -19.5 -66.5t-60.5 -30.5q-31 0 -47 16.5
t-13 43.5l35 4q-3 -36 26 -36q22 0 32 20.5t10 43.5q0 32 -26 32q-18 0 -30 -17l-25 9l38 63q-51 6 -77.5 45t-11.5 118l34 195q15 82 49 123.5t95 41.5z" />
    <glyph glyph-name="egrave" unicode="&#xe8;" horiz-adv-x="327" 
d="M243 582h-42l-112 140h52zM202 512q64 0 90.5 -42t12.5 -120q-11 -59 -17 -97h-202l-16 -90q-23 -134 61 -134q35 0 57 23.5t32 77.5l8 39l43 -7l-6 -36q-26 -138 -135 -138q-62 0 -91.5 44t-13.5 136l34 189q14 77 46.5 116t96.5 39zM260 359q19 116 -61 116
q-45 0 -64.5 -29.5t-30.5 -87.5l-12 -71h155q2 12 6.5 36t6.5 36z" />
    <glyph glyph-name="eacute" unicode="&#xe9;" horiz-adv-x="327" 
d="M352 722l-112 -140h-42l102 140h52zM202 512q64 0 90.5 -42t12.5 -120q-11 -59 -17 -97h-202l-16 -90q-23 -134 61 -134q35 0 57 23.5t32 77.5l8 39l43 -7l-6 -36q-26 -138 -135 -138q-62 0 -91.5 44t-13.5 136l34 189q14 77 46.5 116t96.5 39zM260 359q19 116 -61 116
q-45 0 -64.5 -29.5t-30.5 -87.5l-12 -71h155q2 12 6.5 36t6.5 36z" />
    <glyph glyph-name="ecircumflex" unicode="&#xea;" horiz-adv-x="327" 
d="M243 691l-72 -109h-46l96 140h51l47 -140h-43zM202 512q64 0 90.5 -42t12.5 -120q-11 -59 -17 -97h-202l-16 -90q-23 -134 61 -134q35 0 57 23.5t32 77.5l8 39l43 -7l-6 -36q-26 -138 -135 -138q-62 0 -91.5 44t-13.5 136l34 189q14 77 46.5 116t96.5 39zM260 359
q19 116 -61 116q-45 0 -64.5 -29.5t-30.5 -87.5l-12 -71h155q2 12 6.5 36t6.5 36z" />
    <glyph glyph-name="edieresis" unicode="&#xeb;" horiz-adv-x="327" 
d="M199 687l-17 -95h-46l17 95h46zM280 687h47l-17 -95h-47zM202 512q64 0 90.5 -42t12.5 -120q-11 -59 -17 -97h-202l-16 -90q-23 -134 61 -134q35 0 57 23.5t32 77.5l8 39l43 -7l-6 -36q-26 -138 -135 -138q-62 0 -91.5 44t-13.5 136l34 189q14 77 46.5 116t96.5 39z
M260 359q19 116 -61 116q-45 0 -64.5 -29.5t-30.5 -87.5l-12 -71h155q2 12 6.5 36t6.5 36z" />
    <glyph glyph-name="igrave" unicode="&#xec;" horiz-adv-x="165" 
d="M159 582h-42l-85 140h50zM15 0l88 500h47l-88 -500h-47z" />
    <glyph glyph-name="iacute" unicode="&#xed;" horiz-adv-x="165" 
d="M120 582l77 140h50l-85 -140h-42zM15 0l88 500h47l-88 -500h-47z" />
    <glyph glyph-name="icircumflex" unicode="&#xee;" horiz-adv-x="165" 
d="M223 582h-40l-21 111l-59 -111h-43l81 140h51zM15 0l88 500h47l-88 -500h-47z" />
    <glyph glyph-name="idieresis" unicode="&#xef;" horiz-adv-x="165" 
d="M71 592l17 95h47l-17 -95h-47zM169 592l17 95h46l-17 -95h-46zM15 0l88 500h47l-88 -500h-47z" />
    <glyph glyph-name="eth" unicode="&#xf0;" horiz-adv-x="347" 
d="M367 629l-50 -16q35 -88 10 -231l-38 -214q-7 -41 -16.5 -69.5t-26 -55.5t-43.5 -40.5t-65 -13.5q-62 0 -95 41.5t-17 133.5l30 170q15 85 44.5 130.5t94.5 45.5q79 0 90 -76l3 7q10 95 -16 157l-120 -39l-6 29l112 37q-37 54 -100 66l27 33q79 -15 119 -84l58 19z
M270 330q25 140 -65 140q-47 0 -68 -34t-33 -100l-30 -170q-24 -136 66 -136q22 0 38.5 8t26 19t17.5 31t11.5 36t7.5 42z" />
    <glyph glyph-name="ntilde" unicode="&#xf1;" horiz-adv-x="361" 
d="M311 599q-29 0 -54.5 26.5t-41.5 26.5q-31 0 -37 -46l-34 4q4 38 23.5 59t47.5 21q29 0 55 -27t41 -27q31 0 38 45l33 -3q-12 -79 -71 -79zM15 0l88 500h44l-17 -93q38 105 116 105q37 0 62.5 -22t25.5 -75q0 -16 -5 -46l-65 -369h-46l65 374q3 20 3 32q0 66 -57 66
q-48 0 -74 -45.5t-40 -122.5l-53 -304h-47z" />
    <glyph glyph-name="ograve" unicode="&#xf2;" horiz-adv-x="337" 
d="M253 582h-42l-112 140h52zM131 -12q-61 0 -92.5 39t-15.5 128l34 190q14 81 46.5 124t102.5 43q61 0 92.5 -39t15.5 -128l-34 -190q-15 -81 -47 -124t-102 -43zM133 29q47 0 68.5 33t31.5 90l35 196q21 123 -64 123q-47 0 -68.5 -33t-31.5 -90l-35 -196q-21 -123 64 -123
z" />
    <glyph glyph-name="oacute" unicode="&#xf3;" horiz-adv-x="337" 
d="M208 582l102 140h52l-112 -140h-42zM131 -12q-61 0 -92.5 39t-15.5 128l34 190q14 81 46.5 124t102.5 43q61 0 92.5 -39t15.5 -128l-34 -190q-15 -81 -47 -124t-102 -43zM133 29q47 0 68.5 33t31.5 90l35 196q21 123 -64 123q-47 0 -68.5 -33t-31.5 -90l-35 -196
q-21 -123 64 -123z" />
    <glyph glyph-name="ocircumflex" unicode="&#xf4;" horiz-adv-x="337" 
d="M329 582h-43l-33 109l-72 -109h-46l96 140h51zM131 -12q-61 0 -92.5 39t-15.5 128l34 190q14 81 46.5 124t102.5 43q61 0 92.5 -39t15.5 -128l-34 -190q-15 -81 -47 -124t-102 -43zM133 29q47 0 68.5 33t31.5 90l35 196q21 123 -64 123q-47 0 -68.5 -33t-31.5 -90
l-35 -196q-21 -123 64 -123z" />
    <glyph glyph-name="otilde" unicode="&#xf5;" horiz-adv-x="337" 
d="M290 599q-29 0 -54.5 26.5t-41.5 26.5q-31 0 -37 -46l-34 4q4 38 23.5 59t47.5 21q29 0 55 -27t41 -27q31 0 38 45l33 -3q-12 -79 -71 -79zM131 -12q-61 0 -92.5 39t-15.5 128l34 190q14 81 46.5 124t102.5 43q61 0 92.5 -39t15.5 -128l-34 -190q-15 -81 -47 -124
t-102 -43zM133 29q47 0 68.5 33t31.5 90l35 196q21 123 -64 123q-47 0 -68.5 -33t-31.5 -90l-35 -196q-21 -123 64 -123z" />
    <glyph glyph-name="odieresis" unicode="&#xf6;" horiz-adv-x="337" 
d="M146 592l17 95h46l-17 -95h-46zM273 592l17 95h47l-17 -95h-47zM131 -12q-61 0 -92.5 39t-15.5 128l34 190q14 81 46.5 124t102.5 43q61 0 92.5 -39t15.5 -128l-34 -190q-15 -81 -47 -124t-102 -43zM133 29q47 0 68.5 33t31.5 90l35 196q21 123 -64 123q-47 0 -68.5 -33
t-31.5 -90l-35 -196q-21 -123 64 -123z" />
    <glyph glyph-name="divide" unicode="&#xf7;" horiz-adv-x="398" 
d="M233 428q-15 0 -25 10t-10 25q0 16 10 25.5t25 9.5t25 -9.5t10 -25.5t-10 -25.5t-25 -9.5zM44 309l8 41h329l-7 -41h-330zM195 161q-15 0 -25 10t-10 25q0 16 10 25.5t25 9.5q16 0 25.5 -9.5t9.5 -25.5t-10 -25.5t-25 -9.5z" />
    <glyph glyph-name="oslash" unicode="&#xf8;" horiz-adv-x="337" 
d="M366 491l-49 -65q5 -38 -3 -81l-34 -190q-15 -81 -47 -124t-102 -43q-77 0 -102 55l-38 -51l-21 17l50 67q-5 36 3 79l34 190q14 81 46.5 124t102.5 43q75 0 101 -53l36 49zM69 152q0 -2 -0.5 -6.5t-1.5 -6.5l204 273q-8 59 -67 59q-47 0 -68.5 -33t-31.5 -90zM268 348
q2 10 2 16l-204 -273q7 -62 67 -62q47 0 68.5 33t31.5 90z" />
    <glyph glyph-name="ugrave" unicode="&#xf9;" horiz-adv-x="361" 
d="M261 582h-42l-112 140h52zM115 -12q-88 0 -88 97q0 16 5 46l65 369h47l-66 -373q-3 -19 -3 -33q0 -65 56 -65q86 0 115 166l54 305h46l-88 -500h-44l17 93q-19 -52 -45.5 -78.5t-70.5 -26.5z" />
    <glyph glyph-name="uacute" unicode="&#xfa;" horiz-adv-x="361" 
d="M216 582l102 140h52l-112 -140h-42zM115 -12q-88 0 -88 97q0 16 5 46l65 369h47l-66 -373q-3 -19 -3 -33q0 -65 56 -65q86 0 115 166l54 305h46l-88 -500h-44l17 93q-19 -52 -45.5 -78.5t-70.5 -26.5z" />
    <glyph glyph-name="ucircumflex" unicode="&#xfb;" horiz-adv-x="361" 
d="M337 582h-43l-33 109l-72 -109h-46l96 140h51zM115 -12q-88 0 -88 97q0 16 5 46l65 369h47l-66 -373q-3 -19 -3 -33q0 -65 56 -65q86 0 115 166l54 305h46l-88 -500h-44l17 93q-19 -52 -45.5 -78.5t-70.5 -26.5z" />
    <glyph glyph-name="udieresis" unicode="&#xfc;" horiz-adv-x="361" 
d="M154 592l17 95h46l-17 -95h-46zM281 592l17 95h47l-17 -95h-47zM115 -12q-88 0 -88 97q0 16 5 46l65 369h47l-66 -373q-3 -19 -3 -33q0 -65 56 -65q86 0 115 166l54 305h46l-88 -500h-44l17 93q-19 -52 -45.5 -78.5t-70.5 -26.5z" />
    <glyph glyph-name="yacute" unicode="&#xfd;" horiz-adv-x="310" 
d="M190 582l102 140h52l-112 -140h-42zM-20 -200q-22 0 -33 5l7 43q12 -4 29 -4q26 0 44.5 16t33.5 57l30 78l-34 505h49l16 -385q2 -49 0 -64h2q2 9 20 57l147 392h50l-239 -594q-25 -62 -53 -84t-69 -22z" />
    <glyph glyph-name="thorn" unicode="&#xfe;" horiz-adv-x="362" 
d="M247 512q15 0 28.5 -3.5t29.5 -14.5t23.5 -31.5t11.5 -54.5t-6 -83l-26 -149q-7 -40 -15.5 -69t-24 -58.5t-40.5 -45t-58 -15.5q-80 0 -94 89l-48 -272h-45l34 195l128 725h46l-53 -299q19 42 44 64t65 22zM288 331q25 140 -59 140q-83 0 -111 -152l-24 -139
q-14 -76 4.5 -113.5t61.5 -37.5q45 0 66 37t33 105z" />
    <glyph glyph-name="ydieresis" unicode="&#xff;" horiz-adv-x="310" 
d="M128 592l17 95h46l-17 -95h-46zM255 592l17 95h47l-17 -95h-47zM-20 -200q-22 0 -33 5l7 43q12 -4 29 -4q26 0 44.5 16t33.5 57l30 78l-34 505h49l16 -385q2 -49 0 -64h2q2 9 20 57l147 392h50l-239 -594q-25 -62 -53 -84t-69 -22z" />
    <glyph glyph-name="Amacron" unicode="&#x100;" horiz-adv-x="390" 
d="M187 806h213l-7 -39h-213zM247 710h58l21 -710h-49l-4 210h-166l-78 -210h-53zM122 251h150l-5 287q-2 66 2 114h-4q-14 -52 -36 -114z" />
    <glyph glyph-name="amacron" unicode="&#x101;" horiz-adv-x="331" 
d="M130 617l7 38h190l-7 -38h-190zM90 -12q-47 0 -69.5 30t-13.5 91l4 26q10 71 52 109q36 30 105 38l72 9l13 81q17 101 -56 101q-37 0 -56.5 -19.5t-26.5 -67.5l-8 -47h-47l8 47q11 68 43.5 97t88.5 29q126 0 100 -146l-41 -228q-15 -84 -16 -138h-45q1 13 10 92
q-30 -104 -117 -104zM109 27q81 0 107 137l17 94l-58 -7q-58 -6 -82.5 -34.5t-33.5 -79.5l-4 -27q-13 -83 54 -83z" />
    <glyph glyph-name="Abreve" unicode="&#x102;" horiz-adv-x="390" 
d="M362 850h39q-18 -102 -111 -102q-49 0 -73 26.5t-18 75.5h40q-6 -68 51 -68q60 0 72 68zM247 710h58l21 -710h-49l-4 210h-166l-78 -210h-53zM122 251h150l-5 287q-2 66 2 114h-4q-14 -52 -36 -114z" />
    <glyph glyph-name="abreve" unicode="&#x103;" horiz-adv-x="331" 
d="M170 686q-6 -74 52 -74q30 0 46 17t23 57h39q-15 -109 -110 -109q-103 0 -89 109h39zM90 -12q-47 0 -69.5 30t-13.5 91l4 26q10 71 52 109q36 30 105 38l72 9l13 81q17 101 -56 101q-37 0 -56.5 -19.5t-26.5 -67.5l-8 -47h-47l8 47q11 68 43.5 97t88.5 29q126 0 100 -146
l-41 -228q-15 -84 -16 -138h-45q1 13 10 92q-30 -104 -117 -104zM109 27q81 0 107 137l17 94l-58 -7q-58 -6 -82.5 -34.5t-33.5 -79.5l-4 -27q-13 -83 54 -83z" />
    <glyph glyph-name="Aogonek" unicode="&#x104;" horiz-adv-x="390" 
d="M320 0q-63 -23 -87 -47.5t-24 -55.5q0 -34 28 -34q36 0 42 47l33 -6q-14 -73 -76 -73q-29 0 -46.5 16t-17.5 44q0 71 105 110l-4 209h-166l-78 -210h-53l271 710h58l21 -710h-6zM122 251h150l-5 287q-2 66 2 114h-4q-14 -52 -36 -114z" />
    <glyph glyph-name="aogonek" unicode="&#x105;" horiz-adv-x="331" 
d="M199 512q126 0 100 -146l-41 -228q-15 -84 -16 -138h-2q-63 -23 -87 -47.5t-24 -55.5q0 -34 28 -34q36 0 42 47l33 -6q-14 -73 -76 -73q-29 0 -46.5 16t-17.5 44q0 70 105 111q1 14 10 90q-30 -104 -117 -104q-47 0 -69.5 30t-13.5 91l4 26q10 71 52 109q36 30 105 38
l72 9l13 81q17 101 -56 101q-37 0 -56.5 -19.5t-26.5 -67.5l-8 -47h-47l8 47q11 68 43.5 97t88.5 29zM109 27q81 0 107 137l17 94l-58 -7q-58 -6 -82.5 -34.5t-33.5 -79.5l-4 -27q-13 -83 54 -83z" />
    <glyph glyph-name="Cacute" unicode="&#x106;" horiz-adv-x="410" 
d="M273 753l79 97h51l-88 -97h-42zM175 -17q-77 0 -117.5 48.5t-20.5 164.5l59 336q16 93 58.5 144t124.5 51q169 0 136 -187l-10 -58l-52 -9l12 69q24 143 -85 143q-59 0 -90 -40.5t-43 -113.5l-60 -342q-29 -163 89 -163q53 0 81 34t41 103l15 85l49 -10l-14 -79
q-15 -86 -55 -131t-118 -45z" />
    <glyph glyph-name="cacute" unicode="&#x107;" horiz-adv-x="326" 
d="M199 582l102 140h52l-112 -140h-42zM131 -12q-59 0 -91.5 38.5t-16.5 125.5l34 195q15 82 49 123.5t95 41.5q134 0 107 -150l-5 -32l-48 -4l6 35q19 111 -61 111q-42 0 -63.5 -31t-32.5 -93l-34 -196q-12 -68 8 -96t53 -28q42 0 61 27t30 83l9 44l45 -7l-9 -43
q-26 -144 -136 -144z" />
    <glyph glyph-name="Ccircumflex" unicode="&#x108;" horiz-adv-x="410" 
d="M395 753h-45l-41 73l-66 -73h-50l90 97h56zM175 -17q-77 0 -117.5 48.5t-20.5 164.5l59 336q16 93 58.5 144t124.5 51q169 0 136 -187l-10 -58l-52 -9l12 69q24 143 -85 143q-59 0 -90 -40.5t-43 -113.5l-60 -342q-29 -163 89 -163q53 0 81 34t41 103l15 85l49 -10
l-14 -79q-15 -86 -55 -131t-118 -45z" />
    <glyph glyph-name="ccircumflex" unicode="&#x109;" horiz-adv-x="326" 
d="M320 582h-43l-33 109l-72 -109h-46l96 140h51zM131 -12q-59 0 -91.5 38.5t-16.5 125.5l34 195q15 82 49 123.5t95 41.5q134 0 107 -150l-5 -32l-48 -4l6 35q19 111 -61 111q-42 0 -63.5 -31t-32.5 -93l-34 -196q-12 -68 8 -96t53 -28q42 0 61 27t30 83l9 44l45 -7l-9 -43
q-26 -144 -136 -144z" />
    <glyph glyph-name="Cdotaccent" unicode="&#x10a;" horiz-adv-x="410" 
d="M268 753l15 89h52l-15 -89h-52zM175 -17q-77 0 -117.5 48.5t-20.5 164.5l59 336q16 93 58.5 144t124.5 51q169 0 136 -187l-10 -58l-52 -9l12 69q24 143 -85 143q-59 0 -90 -40.5t-43 -113.5l-60 -342q-29 -163 89 -163q53 0 81 34t41 103l15 85l49 -10l-14 -79
q-15 -86 -55 -131t-118 -45z" />
    <glyph glyph-name="cdotaccent" unicode="&#x10b;" horiz-adv-x="326" 
d="M192 583l19 110h51l-19 -110h-51zM131 -12q-59 0 -91.5 38.5t-16.5 125.5l34 195q15 82 49 123.5t95 41.5q134 0 107 -150l-5 -32l-48 -4l6 35q19 111 -61 111q-42 0 -63.5 -31t-32.5 -93l-34 -196q-12 -68 8 -96t53 -28q42 0 61 27t30 83l9 44l45 -7l-9 -43
q-26 -144 -136 -144z" />
    <glyph glyph-name="Ccaron" unicode="&#x10c;" horiz-adv-x="410" 
d="M201 845h45l41 -73l66 73h50l-90 -97h-56zM175 -17q-77 0 -117.5 48.5t-20.5 164.5l59 336q16 93 58.5 144t124.5 51q169 0 136 -187l-10 -58l-52 -9l12 69q24 143 -85 143q-59 0 -90 -40.5t-43 -113.5l-60 -342q-29 -163 89 -163q53 0 81 34t41 103l15 85l49 -10
l-14 -79q-15 -86 -55 -131t-118 -45z" />
    <glyph glyph-name="ccaron" unicode="&#x10d;" horiz-adv-x="326" 
d="M145 718h43l33 -109l72 109h46l-96 -140h-51zM131 -12q-59 0 -91.5 38.5t-16.5 125.5l34 195q15 82 49 123.5t95 41.5q134 0 107 -150l-5 -32l-48 -4l6 35q19 111 -61 111q-42 0 -63.5 -31t-32.5 -93l-34 -196q-12 -68 8 -96t53 -28q42 0 61 27t30 83l9 44l45 -7l-9 -43
q-26 -144 -136 -144z" />
    <glyph glyph-name="Dcaron" unicode="&#x10e;" horiz-adv-x="430" 
d="M207 845h45l41 -73l66 73h50l-90 -97h-56zM23 0l125 710h113q101 0 141 -63t15 -206l-34 -193q-26 -142 -76.5 -195t-151.5 -53h-132zM79 41h80q77 0 113.5 43t58.5 162l35 195q22 122 -7 175.5t-107 53.5h-62z" />
    <glyph glyph-name="dcaron" unicode="&#x10f;" horiz-adv-x="378" 
d="M114 -12q-49 0 -76.5 43.5t-9.5 144.5l27 153q15 84 47 133.5t95 49.5q82 0 87 -95l54 308h47l-128 -725h-44l16 86q-42 -98 -115 -98zM407 554l-10 21q30 22 38 74h-26l11 61h53l-10 -59q-13 -68 -56 -97zM133 29q83 0 111 156l24 132q12 72 -3.5 113t-60.5 41
q-33 0 -55.5 -23.5t-31 -50t-15.5 -68.5l-28 -157q-6 -47 -4 -75t14 -43t23.5 -20t25.5 -5z" />
    <glyph glyph-name="Dcroat" unicode="&#x110;" horiz-adv-x="430" 
d="M261 710q101 0 141 -63t15 -206l-34 -193q-26 -142 -76.5 -195t-151.5 -53h-132l62 352h-67l7 38h67l56 320h113zM366 441q22 122 -7 175.5t-107 53.5h-62l-49 -280h94l-7 -38h-94l-55 -311h80q77 0 113.5 43t58.5 162z" />
    <glyph glyph-name="dcroat" unicode="&#x111;" horiz-adv-x="362" 
d="M440 632l-5 -31h-72l-106 -601h-44l16 86q-42 -98 -115 -98q-49 0 -76.5 43.5t-9.5 144.5l27 153q15 84 47 133.5t95 49.5q82 0 87 -95l32 184h-118l5 31h119l16 93h47l-16 -93h71zM268 317q12 72 -3.5 113t-60.5 41q-33 0 -55.5 -23.5t-31 -50t-15.5 -68.5l-28 -157
q-6 -47 -4 -75t14 -43t23.5 -20t25.5 -5q83 0 111 156z" />
    <glyph glyph-name="Emacron" unicode="&#x112;" horiz-adv-x="343" 
d="M389 806l-7 -39h-213l7 39h213zM387 667h-197l-50 -279h181l-8 -43h-180l-54 -302h205l-7 -43h-254l125 710h247z" />
    <glyph glyph-name="emacron" unicode="&#x113;" horiz-adv-x="327" 
d="M140 655h190l-7 -38h-190zM202 512q64 0 90.5 -42t12.5 -120q-11 -59 -17 -97h-202l-16 -90q-23 -134 61 -134q35 0 57 23.5t32 77.5l8 39l43 -7l-6 -36q-26 -138 -135 -138q-62 0 -91.5 44t-13.5 136l34 189q14 77 46.5 116t96.5 39zM260 359q19 116 -61 116
q-45 0 -64.5 -29.5t-30.5 -87.5l-12 -71h155q2 12 6.5 36t6.5 36z" />
    <glyph glyph-name="Ebreve" unicode="&#x114;" horiz-adv-x="343" 
d="M279 748q-49 0 -73 26.5t-18 75.5h40q-6 -68 51 -68q60 0 72 68h39q-18 -102 -111 -102zM387 667h-197l-50 -279h181l-8 -43h-180l-54 -302h205l-7 -43h-254l125 710h247z" />
    <glyph glyph-name="ebreve" unicode="&#x115;" horiz-adv-x="327" 
d="M223 577q-103 0 -89 109h39q-6 -74 52 -74q30 0 46 17t23 57h39q-15 -109 -110 -109zM202 512q64 0 90.5 -42t12.5 -120q-11 -59 -17 -97h-202l-16 -90q-23 -134 61 -134q35 0 57 23.5t32 77.5l8 39l43 -7l-6 -36q-26 -138 -135 -138q-62 0 -91.5 44t-13.5 136l34 189
q14 77 46.5 116t96.5 39zM260 359q19 116 -61 116q-45 0 -64.5 -29.5t-30.5 -87.5l-12 -71h155q2 12 6.5 36t6.5 36z" />
    <glyph glyph-name="Edotaccent" unicode="&#x116;" horiz-adv-x="343" 
d="M313 842l-15 -89h-52l15 89h52zM387 667h-197l-50 -279h181l-8 -43h-180l-54 -302h205l-7 -43h-254l125 710h247z" />
    <glyph glyph-name="edotaccent" unicode="&#x117;" horiz-adv-x="327" 
d="M261 693l-19 -110h-51l19 110h51zM202 512q64 0 90.5 -42t12.5 -120q-11 -59 -17 -97h-202l-16 -90q-23 -134 61 -134q35 0 57 23.5t32 77.5l8 39l43 -7l-6 -36q-26 -138 -135 -138q-62 0 -91.5 44t-13.5 136l34 189q14 77 46.5 116t96.5 39zM260 359q19 116 -61 116
q-45 0 -64.5 -29.5t-30.5 -87.5l-12 -71h155q2 12 6.5 36t6.5 36z" />
    <glyph glyph-name="Eogonek" unicode="&#x118;" horiz-adv-x="343" 
d="M387 667h-197l-50 -279h181l-8 -43h-180l-54 -302h205l-7 -43q-63 -23 -87 -47.5t-24 -55.5q0 -34 28 -34q36 0 42 47l33 -6q-14 -73 -76 -73q-29 0 -46.5 16t-17.5 44q0 68 101 109h-207l125 710h247z" />
    <glyph glyph-name="eogonek" unicode="&#x119;" horiz-adv-x="327" 
d="M202 512q64 0 90.5 -42t12.5 -120q-11 -59 -17 -97h-202l-16 -90q-23 -134 61 -134q35 0 57 23.5t32 77.5l8 39l43 -7l-6 -36q-24 -128 -119 -137q-47 -20 -64.5 -42t-17.5 -50q0 -34 28 -34q36 0 42 47l33 -6q-14 -73 -76 -73q-29 0 -46.5 16t-17.5 44q0 61 78 99
q-50 8 -72 52t-8 126l34 189q14 77 46.5 116t96.5 39zM260 359q19 116 -61 116q-45 0 -64.5 -29.5t-30.5 -87.5l-12 -71h155q2 12 6.5 36t6.5 36z" />
    <glyph glyph-name="Ecaron" unicode="&#x11a;" horiz-adv-x="343" 
d="M291 748h-56l-56 97h45l41 -73l66 73h50zM387 667h-197l-50 -279h181l-8 -43h-180l-54 -302h205l-7 -43h-254l125 710h247z" />
    <glyph glyph-name="ecaron" unicode="&#x11b;" horiz-adv-x="327" 
d="M242 578h-51l-47 140h43l33 -109l72 109h46zM202 512q64 0 90.5 -42t12.5 -120q-11 -59 -17 -97h-202l-16 -90q-23 -134 61 -134q35 0 57 23.5t32 77.5l8 39l43 -7l-6 -36q-26 -138 -135 -138q-62 0 -91.5 44t-13.5 136l34 189q14 77 46.5 116t96.5 39zM260 359
q19 116 -61 116q-45 0 -64.5 -29.5t-30.5 -87.5l-12 -71h155q2 12 6.5 36t6.5 36z" />
    <glyph glyph-name="Gcircumflex" unicode="&#x11c;" horiz-adv-x="415" 
d="M397 753h-45l-41 73l-66 -73h-50l90 97h56zM155 -17q-69 0 -102.5 53t-13.5 167l58 330q34 194 185 194q73 0 108.5 -46t17.5 -144l-8 -46l-51 -8l9 56q23 146 -81 146q-103 0 -128 -147l-59 -335q-32 -178 77 -178q108 0 142 194l19 104h-128l8 42h173l-64 -365h-36
l14 108q-21 -67 -55 -96t-85 -29z" />
    <glyph glyph-name="gcircumflex" unicode="&#x11d;" horiz-adv-x="319" 
d="M235 691l-70 -101h-46l95 132h50l49 -132h-43zM342 567q15 0 24 -4l-8 -43q-14 4 -25 4q-40 0 -58 -40q35 -36 21 -113l-12 -66q-11 -64 -40.5 -102.5t-92.5 -38.5q-25 0 -45 7q-20 -7 -29.5 -23t-9.5 -31q0 -18 11.5 -27t33.5 -15l57 -17q94 -28 78 -128l-3 -23
q-9 -52 -47 -83t-105 -31q-70 0 -104 34.5t-23 94.5l4 17q16 81 92 103q-38 19 -38 60q0 55 63 78q-52 33 -35 125l12 66q11 64 40.5 102.5t92.5 38.5q39 0 64 -16q22 71 82 71zM252 377q18 98 -59 98q-41 0 -59 -27.5t-26 -71.5l-13 -77q-10 -53 8 -75.5t51 -22.5
q41 0 59 28t26 72zM143 16l-55 16h-2q-1 1 -2 1q-55 -20 -68 -97l-3 -15q-15 -89 82 -89q91 0 103 81l3 16q11 70 -58 87z" />
    <glyph glyph-name="Gbreve" unicode="&#x11e;" horiz-adv-x="415" 
d="M252 850q-6 -68 51 -68q60 0 72 68h39q-18 -102 -111 -102q-49 0 -73 26.5t-18 75.5h40zM155 -17q-69 0 -102.5 53t-13.5 167l58 330q34 194 185 194q73 0 108.5 -46t17.5 -144l-8 -46l-51 -8l9 56q23 146 -81 146q-103 0 -128 -147l-59 -335q-32 -178 77 -178
q108 0 142 194l19 104h-128l8 42h173l-64 -365h-36l14 108q-21 -67 -55 -96t-85 -29z" />
    <glyph glyph-name="gbreve" unicode="&#x11f;" horiz-adv-x="319" 
d="M216 577q-103 0 -89 109h39q-6 -74 52 -74q30 0 46 17t23 57h39q-15 -109 -110 -109zM342 567q15 0 24 -4l-8 -43q-14 4 -25 4q-40 0 -58 -40q35 -36 21 -113l-12 -66q-11 -64 -40.5 -102.5t-92.5 -38.5q-25 0 -45 7q-20 -7 -29.5 -23t-9.5 -31q0 -18 11.5 -27t33.5 -15
l57 -17q94 -28 78 -128l-3 -23q-9 -52 -47 -83t-105 -31q-70 0 -104 34.5t-23 94.5l4 17q16 81 92 103q-38 19 -38 60q0 55 63 78q-52 33 -35 125l12 66q11 64 40.5 102.5t92.5 38.5q39 0 64 -16q22 71 82 71zM252 377q18 98 -59 98q-41 0 -59 -27.5t-26 -71.5l-13 -77
q-10 -53 8 -75.5t51 -22.5q41 0 59 28t26 72zM143 16l-55 16h-2q-1 1 -2 1q-55 -20 -68 -97l-3 -15q-15 -89 82 -89q91 0 103 81l3 16q11 70 -58 87z" />
    <glyph glyph-name="Gdotaccent" unicode="&#x120;" horiz-adv-x="415" 
d="M270 753l15 89h52l-15 -89h-52zM155 -17q-69 0 -102.5 53t-13.5 167l58 330q34 194 185 194q73 0 108.5 -46t17.5 -144l-8 -46l-51 -8l9 56q23 146 -81 146q-103 0 -128 -147l-59 -335q-32 -178 77 -178q108 0 142 194l19 104h-128l8 42h173l-64 -365h-36l14 108
q-21 -67 -55 -96t-85 -29z" />
    <glyph glyph-name="gdotaccent" unicode="&#x121;" horiz-adv-x="319" 
d="M254 693l-19 -110h-51l19 110h51zM342 567q15 0 24 -4l-8 -43q-14 4 -25 4q-40 0 -58 -40q35 -36 21 -113l-12 -66q-11 -64 -40.5 -102.5t-92.5 -38.5q-25 0 -45 7q-20 -7 -29.5 -23t-9.5 -31q0 -18 11.5 -27t33.5 -15l57 -17q94 -28 78 -128l-3 -23q-9 -52 -47 -83
t-105 -31q-70 0 -104 34.5t-23 94.5l4 17q16 81 92 103q-38 19 -38 60q0 55 63 78q-52 33 -35 125l12 66q11 64 40.5 102.5t92.5 38.5q39 0 64 -16q22 71 82 71zM252 377q18 98 -59 98q-41 0 -59 -27.5t-26 -71.5l-13 -77q-10 -53 8 -75.5t51 -22.5q41 0 59 28t26 72z
M143 16l-55 16h-2q-1 1 -2 1q-55 -20 -68 -97l-3 -15q-15 -89 82 -89q91 0 103 81l3 16q11 70 -58 87z" />
    <glyph glyph-name="Gcommaaccent" unicode="&#x122;" horiz-adv-x="415" 
d="M155 -17q-69 0 -102.5 53t-13.5 167l58 330q34 194 185 194q73 0 108.5 -46t17.5 -144l-8 -46l-51 -8l9 56q23 146 -81 146q-103 0 -128 -147l-59 -335q-32 -178 77 -178q108 0 142 194l19 104h-128l8 42h173l-64 -365h-36l14 108q-21 -67 -55 -96t-85 -29zM119 -199
l-10 21q30 22 38 74h-26l11 61h53l-10 -59q-13 -70 -56 -97z" />
    <glyph glyph-name="gcommaaccent" unicode="&#x123;" horiz-adv-x="319" 
d="M242 643l-11 -61h-53l10 59q13 70 56 97l10 -21q-30 -22 -38 -74h26zM342 567q15 0 24 -4l-8 -43q-14 4 -25 4q-40 0 -58 -40q35 -36 21 -113l-12 -66q-11 -64 -40.5 -102.5t-92.5 -38.5q-25 0 -45 7q-20 -7 -29.5 -23t-9.5 -31q0 -18 11.5 -27t33.5 -15l57 -17
q94 -28 78 -128l-3 -23q-9 -52 -47 -83t-105 -31q-70 0 -104 34.5t-23 94.5l4 17q16 81 92 103q-38 19 -38 60q0 55 63 78q-52 33 -35 125l12 66q11 64 40.5 102.5t92.5 38.5q39 0 64 -16q22 71 82 71zM252 377q18 98 -59 98q-41 0 -59 -27.5t-26 -71.5l-13 -77
q-10 -53 8 -75.5t51 -22.5q41 0 59 28t26 72zM143 16l-55 16h-2q-1 1 -2 1q-55 -20 -68 -97l-3 -15q-15 -89 82 -89q91 0 103 81l3 16q11 70 -58 87z" />
    <glyph glyph-name="Hcircumflex" unicode="&#x124;" horiz-adv-x="442" 
d="M411 753h-45l-41 73l-66 -73h-50l90 97h56zM456 710l-125 -710h-49l61 345h-210l-61 -345h-49l125 710h49l-57 -324h210l57 324h49z" />
    <glyph glyph-name="hcircumflex" unicode="&#x125;" horiz-adv-x="363" 
d="M273 753h-45l-41 73l-66 -73h-50l90 97h56zM17 0l128 725h46l-56 -317q35 104 115 104q37 0 62 -21t25 -69q0 -26 -7 -64l-64 -358h-47l64 358q5 30 5 51q0 63 -56 63q-87 0 -116 -168l-53 -304h-46z" />
    <glyph glyph-name="Hbar" unicode="&#x126;" horiz-adv-x="442" 
d="M489 568l-7 -34h-57l-94 -534h-49l61 345h-210l-61 -345h-49l94 534h-57l7 34h56l25 142h49l-25 -142h210l25 142h49l-25 -142h58zM350 386l26 148h-210l-26 -148h210z" />
    <glyph glyph-name="hbar" unicode="&#x127;" horiz-adv-x="351" 
d="M250 512q37 0 62 -21t25 -69q0 -26 -7 -64l-64 -358h-47l64 358q5 30 5 51q0 63 -56 63q-87 0 -116 -168l-53 -304h-46l106 598h-61l5 31h61l17 96h46l-17 -96h138l-6 -31h-137l-34 -190q35 104 115 104z" />
    <glyph glyph-name="Itilde" unicode="&#x128;" horiz-adv-x="183" 
d="M226 751q-21 0 -34.5 12.5t-23 25t-21.5 12.5q-23 0 -27 -37l-33 4q4 33 20.5 51.5t38.5 18.5q21 0 34.5 -12.5t23 -25t21.5 -12.5q23 0 27 37l33 -4q-4 -33 -20.5 -51.5t-38.5 -18.5zM72 0h-49l125 710h49z" />
    <glyph glyph-name="itilde" unicode="&#x129;" horiz-adv-x="165" 
d="M194 599q-19 0 -32 13.5t-22.5 26.5t-19.5 13q-26 0 -28 -44l-32 4q9 78 60 78q18 0 31 -13.5t23 -27t20 -13.5q26 0 27 44l32 -4q-4 -37 -20 -57t-39 -20zM15 0l88 500h47l-88 -500h-47z" />
    <glyph glyph-name="Imacron" unicode="&#x12a;" horiz-adv-x="183" 
d="M106 776l7 38h156l-7 -38h-156zM72 0h-49l125 710h49z" />
    <glyph glyph-name="imacron" unicode="&#x12b;" horiz-adv-x="165" 
d="M70 617l7 38h155l-7 -38h-155zM15 0l88 500h47l-88 -500h-47z" />
    <glyph glyph-name="Ibreve" unicode="&#x12c;" horiz-adv-x="183" 
d="M150 850q-5 -68 42 -68q24 0 37 15.5t17 52.5h40q-15 -102 -94 -102q-93 0 -82 102h40zM72 0h-49l125 710h49z" />
    <glyph glyph-name="ibreve" unicode="&#x12d;" horiz-adv-x="165" 
d="M113 686q-4 -37 3.5 -55.5t34.5 -18.5q26 0 38.5 17t16.5 57h39q-12 -109 -94 -109q-49 0 -68 30t-9 79h39zM15 0l88 500h47l-88 -500h-47z" />
    <glyph glyph-name="Iogonek" unicode="&#x12e;" horiz-adv-x="183" 
d="M148 710h49l-125 -710h-6q-63 -23 -87 -47.5t-24 -55.5q0 -34 28 -34q36 0 42 47l33 -6q-14 -73 -76 -73q-29 0 -46.5 16t-17.5 44q0 70 105 111z" />
    <glyph glyph-name="iogonek" unicode="&#x12f;" horiz-adv-x="165" 
d="M130 693h51l-19 -110h-51zM15 2l88 498h47l-88 -500h-5q-63 -23 -87 -47.5t-24 -55.5q0 -34 28 -34q36 0 42 47l33 -6q-14 -73 -76 -73q-29 0 -46.5 16t-17.5 44q0 70 106 111z" />
    <glyph glyph-name="Idotaccent" unicode="&#x130;" horiz-adv-x="183" 
d="M154 753l15 89h52l-15 -89h-52zM72 0h-49l125 710h49z" />
    <glyph glyph-name="dotlessi" unicode="&#x131;" horiz-adv-x="165" 
d="M15 0l88 500h47l-88 -500h-47z" />
    <glyph glyph-name="IJ" unicode="&#x132;" horiz-adv-x="424" 
d="M72 0h-49l125 710h49zM341 120q-12 -68 -43 -99.5t-86 -31.5q-35 0 -63 11l8 46q31 -11 56 -11q36 0 54 23t27 74l102 578h48z" />
    <glyph glyph-name="ij" unicode="&#x133;" horiz-adv-x="329" 
d="M111 583l19 110h51l-19 -110h-51zM275 583l19 110h51l-19 -110h-51zM15 0l88 500h47l-88 -500h-47zM117 -201q-22 0 -40 6l7 42q12 -4 28 -4q40 0 48 47l108 610h46l-109 -619q-14 -82 -88 -82z" />
    <glyph glyph-name="Jcircumflex" unicode="&#x134;" horiz-adv-x="241" 
d="M325 753h-41l-26 73l-52 -73h-44l70 97h57zM158 120q-12 -68 -43 -99.5t-86 -31.5q-35 0 -63 11l8 46q31 -11 56 -11q36 0 54 23t27 74l102 578h48z" />
    <glyph glyph-name="jcircumflex" unicode="&#x135;" horiz-adv-x="164" 
d="M222 582h-40l-21 111l-59 -111h-43l81 140h51zM-48 -201q-22 0 -40 6l7 42q12 -4 28 -4q40 0 48 47l108 610h46l-109 -619q-14 -82 -88 -82z" />
    <glyph glyph-name="Kcommaaccent" unicode="&#x136;" horiz-adv-x="404" 
d="M460 710l-193 -267l76 -443h-49l-66 400l-113 -155l-43 -245h-49l125 710h49l-69 -391l278 391h54zM131 -104l11 61h53l-10 -59q-13 -70 -56 -97l-10 21q30 22 38 74h-26z" />
    <glyph glyph-name="kcommaaccent" unicode="&#x137;" horiz-adv-x="340" 
d="M366 500l-151 -184l68 -316h-46l-57 279l-87 -108l-30 -171h-46l128 725h46l-86 -487l209 262h52zM91 -104l11 61h53l-10 -59q-13 -70 -56 -97l-10 21q30 22 38 74h-26z" />
    <glyph glyph-name="kgreenlandic" unicode="&#x138;" horiz-adv-x="339" 
d="M365 500l-152 -184l69 -316h-47l-57 278l-87 -107l-30 -171h-46l89 500h46l-47 -262l209 262h53z" />
    <glyph glyph-name="Lacute" unicode="&#x139;" horiz-adv-x="319" 
d="M159 753l79 97h51l-88 -97h-42zM23 0l125 710h49l-117 -665h184l-7 -45h-234z" />
    <glyph glyph-name="lacute" unicode="&#x13a;" horiz-adv-x="167" 
d="M151 753l79 97h51l-88 -97h-42zM191 725l-128 -725h-46l128 725h46z" />
    <glyph glyph-name="Lcommaaccent" unicode="&#x13b;" horiz-adv-x="319" 
d="M23 0l125 710h49l-117 -665h184l-7 -45h-234zM96 -199l-10 21q30 22 38 74h-26l11 61h53l-10 -59q-13 -70 -56 -97z" />
    <glyph glyph-name="lcommaaccent" unicode="&#x13c;" horiz-adv-x="167" 
d="M191 725l-128 -725h-46l128 725h46zM-7 -199l-10 21q30 22 38 74h-26l11 61h53l-10 -59q-13 -70 -56 -97z" />
    <glyph glyph-name="Lcaron" unicode="&#x13d;" horiz-adv-x="319" 
d="M23 0l125 710h49l-117 -665h184l-7 -45h-234zM235 554l-10 21q30 22 38 74h-26l11 61h53l-10 -59q-13 -68 -56 -97z" />
    <glyph glyph-name="lcaron" unicode="&#x13e;" horiz-adv-x="184" 
d="M191 725l-128 -725h-46l128 725h46zM213 554l-10 21q30 22 38 74h-26l11 61h53l-10 -59q-13 -68 -56 -97z" />
    <glyph glyph-name="Ldot" unicode="&#x13f;" horiz-adv-x="319" 
d="M23 0l125 710h49l-117 -665h184l-7 -45h-234zM304 500l-16 -95h-59l16 95h59z" />
    <glyph glyph-name="ldot" unicode="&#x140;" horiz-adv-x="212" 
d="M191 725l-128 -725h-46l128 725h46zM259 500l-16 -95h-59l16 95h59z" />
    <glyph glyph-name="Lslash" unicode="&#x141;" horiz-adv-x="319" 
d="M287 427l-155 -86l-52 -296h184l-7 -45h-234l55 310l-76 -42l8 47l76 42l62 353h49l-57 -323l156 86z" />
    <glyph glyph-name="lslash" unicode="&#x142;" horiz-adv-x="167" 
d="M206 496l-8 -41l-64 -53l-71 -402h-46l63 357l-64 -53l7 40l64 53l58 328h46l-50 -283z" />
    <glyph glyph-name="Nacute" unicode="&#x143;" horiz-adv-x="455" 
d="M295 753l79 97h51l-88 -97h-42zM23 0l125 710h57l96 -528q12 -71 13 -109h2q6 73 20 154l86 483h46l-125 -710h-53l-97 535q-12 69 -13 108h-3q-4 -62 -17 -136l-90 -507h-47z" />
    <glyph glyph-name="nacute" unicode="&#x144;" horiz-adv-x="361" 
d="M229 582l102 140h52l-112 -140h-42zM15 0l88 500h44l-17 -93q38 105 116 105q37 0 62.5 -22t25.5 -75q0 -16 -5 -46l-65 -369h-46l65 374q3 20 3 32q0 66 -57 66q-48 0 -74 -45.5t-40 -122.5l-53 -304h-47z" />
    <glyph glyph-name="Ncommaaccent" unicode="&#x145;" horiz-adv-x="455" 
d="M23 0l125 710h57l96 -528q12 -71 13 -109h2q6 73 20 154l86 483h46l-125 -710h-53l-97 535q-12 69 -13 108h-3q-4 -62 -17 -136l-90 -507h-47zM138 -199l-10 21q30 22 38 74h-26l11 61h53l-10 -59q-13 -70 -56 -97z" />
    <glyph glyph-name="ncommaaccent" unicode="&#x146;" horiz-adv-x="361" 
d="M15 0l88 500h44l-17 -93q38 105 116 105q37 0 62.5 -22t25.5 -75q0 -16 -5 -46l-65 -369h-46l65 374q3 20 3 32q0 66 -57 66q-48 0 -74 -45.5t-40 -122.5l-53 -304h-47zM91 -199l-10 21q30 22 38 74h-26l11 61h53l-10 -59q-13 -70 -56 -97z" />
    <glyph glyph-name="Ncaron" unicode="&#x147;" horiz-adv-x="455" 
d="M223 845h45l41 -73l66 73h50l-90 -97h-56zM23 0l125 710h57l96 -528q12 -71 13 -109h2q6 73 20 154l86 483h46l-125 -710h-53l-97 535q-12 69 -13 108h-3q-4 -62 -17 -136l-90 -507h-47z" />
    <glyph glyph-name="ncaron" unicode="&#x148;" horiz-adv-x="361" 
d="M175 718h43l33 -109l72 109h46l-96 -140h-51zM15 0l88 500h44l-17 -93q38 105 116 105q37 0 62.5 -22t25.5 -75q0 -16 -5 -46l-65 -369h-46l65 374q3 20 3 32q0 66 -57 66q-48 0 -74 -45.5t-40 -122.5l-53 -304h-47z" />
    <glyph glyph-name="napostrophe" unicode="&#x149;" horiz-adv-x="361" 
d="M84 554l-10 21q30 22 38 74h-26l11 61h53l-10 -59q-13 -68 -56 -97zM15 0l88 500h44l-17 -93q38 105 116 105q37 0 62.5 -22t25.5 -75q0 -16 -5 -46l-65 -369h-46l65 374q3 20 3 32q0 66 -57 66q-48 0 -74 -45.5t-40 -122.5l-53 -304h-47z" />
    <glyph glyph-name="Eng" unicode="&#x14a;" horiz-adv-x="455" 
d="M468 710l-120 -679h1l-18 -101q-24 -138 -140 -138q-31 0 -51 6l8 44q16 -4 45 -4q75 0 92 94l11 68h-6l-97 535q-12 69 -13 108h-3q-4 -62 -17 -136l-90 -507h-47l125 710h57l96 -528q12 -71 13 -109h2q6 73 20 154l86 483h46z" />
    <glyph glyph-name="eng" unicode="&#x14b;" horiz-adv-x="361" 
d="M246 512q37 0 62.5 -22t25.5 -75q0 -16 -5 -46l-65 -369l-17 -100q-9 -54 -32.5 -77.5t-64.5 -23.5q-19 0 -34 5l8 42q10 -3 26 -3q41 0 50 55l18 102l65 374q3 20 3 32q0 66 -57 66q-48 0 -74 -45.5t-40 -122.5l-53 -304h-47l88 500h44l-17 -93q38 105 116 105z" />
    <glyph glyph-name="Omacron" unicode="&#x14c;" horiz-adv-x="425" 
d="M198 767l7 39h213l-7 -39h-213zM180 -17q-81 0 -121.5 50.5t-22.5 155.5l60 343q17 95 59 145t127 50q81 0 121.5 -50.5t21.5 -155.5l-60 -343q-16 -95 -58 -145t-127 -50zM184 25q62 0 90 40t40 112l62 351q15 81 -14 119t-84 38q-62 0 -90 -40t-40 -112l-63 -351
q-14 -82 14.5 -119.5t84.5 -37.5z" />
    <glyph glyph-name="omacron" unicode="&#x14d;" horiz-adv-x="337" 
d="M143 617l7 38h190l-7 -38h-190zM131 -12q-61 0 -92.5 39t-15.5 128l34 190q14 81 46.5 124t102.5 43q61 0 92.5 -39t15.5 -128l-34 -190q-15 -81 -47 -124t-102 -43zM133 29q47 0 68.5 33t31.5 90l35 196q21 123 -64 123q-47 0 -68.5 -33t-31.5 -90l-35 -196
q-21 -123 64 -123z" />
    <glyph glyph-name="Obreve" unicode="&#x14e;" horiz-adv-x="425" 
d="M257 850q-6 -68 51 -68q60 0 72 68h39q-18 -102 -111 -102q-49 0 -73 26.5t-18 75.5h40zM180 -17q-81 0 -121.5 50.5t-22.5 155.5l60 343q17 95 59 145t127 50q81 0 121.5 -50.5t21.5 -155.5l-60 -343q-16 -95 -58 -145t-127 -50zM184 25q62 0 90 40t40 112l62 351
q15 81 -14 119t-84 38q-62 0 -90 -40t-40 -112l-63 -351q-14 -82 14.5 -119.5t84.5 -37.5z" />
    <glyph glyph-name="obreve" unicode="&#x14f;" horiz-adv-x="337" 
d="M183 686q-6 -74 52 -74q30 0 46 17t23 57h39q-15 -109 -110 -109q-103 0 -89 109h39zM131 -12q-61 0 -92.5 39t-15.5 128l34 190q14 81 46.5 124t102.5 43q61 0 92.5 -39t15.5 -128l-34 -190q-15 -81 -47 -124t-102 -43zM133 29q47 0 68.5 33t31.5 90l35 196
q21 123 -64 123q-47 0 -68.5 -33t-31.5 -90l-35 -196q-21 -123 64 -123z" />
    <glyph glyph-name="Ohungarumlaut" unicode="&#x150;" horiz-adv-x="425" 
d="M231 753l81 97h47l-84 -97h-44zM329 753l81 97h46l-84 -97h-43zM180 -17q-81 0 -121.5 50.5t-22.5 155.5l60 343q17 95 59 145t127 50q81 0 121.5 -50.5t21.5 -155.5l-60 -343q-16 -95 -58 -145t-127 -50zM184 25q62 0 90 40t40 112l62 351q15 81 -14 119t-84 38
q-62 0 -90 -40t-40 -112l-63 -351q-14 -82 14.5 -119.5t84.5 -37.5z" />
    <glyph glyph-name="ohungarumlaut" unicode="&#x151;" horiz-adv-x="337" 
d="M163 582l97 139h45l-101 -139h-41zM257 582l98 139h44l-101 -139h-41zM131 -12q-61 0 -92.5 39t-15.5 128l34 190q14 81 46.5 124t102.5 43q61 0 92.5 -39t15.5 -128l-34 -190q-15 -81 -47 -124t-102 -43zM133 29q47 0 68.5 33t31.5 90l35 196q21 123 -64 123
q-47 0 -68.5 -33t-31.5 -90l-35 -196q-21 -123 64 -123z" />
    <glyph glyph-name="OE" unicode="&#x152;" horiz-adv-x="528" 
d="M572 667h-197l-50 -279h181l-8 -43h-180l-54 -302h205l-7 -43h-269q-29 0 -54 6.5t-48 22.5t-36 42.5t-18 67t6 95.5l47 259q6 33 12 56.5t17 50t27.5 45t39.5 34t56.5 23.5t75.5 8h262zM215 41l111 629h-8q-50 0 -83 -12.5t-52 -39.5t-27.5 -53.5t-16.5 -71.5l-46 -268
q-18 -101 14 -142.5t90 -41.5h18z" />
    <glyph glyph-name="oe" unicode="&#x153;" horiz-adv-x="527" 
d="M403 512q63 0 89.5 -41t13.5 -121q-5 -31 -18 -97h-202l-16 -90q-23 -134 62 -134q35 0 56.5 23t32.5 78l7 39l44 -7l-7 -36q-25 -138 -132 -138q-76 0 -98 66q-34 -66 -109 -66q-58 0 -88.5 39t-14.5 128l34 190q13 78 44 122.5t97 44.5q77 0 97 -62q34 62 108 62z
M460 359q20 116 -61 116q-44 0 -64 -30t-30 -87l-13 -71h156q11 60 12 72zM129 29q45 0 64.5 32.5t29.5 90.5l34 196q11 63 -6 93t-52 30q-45 0 -65 -32.5t-30 -90.5l-35 -196q-21 -123 60 -123z" />
    <glyph glyph-name="Racute" unicode="&#x154;" horiz-adv-x="391" 
d="M387 850l-88 -97h-42l79 97h51zM252 710q79 0 120 -40t28 -127l-9 -58q-19 -133 -124 -158l57 -327h-53l-54 320h-89l-56 -320h-49l125 710h104zM350 540q19 130 -99 130h-61l-55 -311h82q106 0 124 125z" />
    <glyph glyph-name="racute" unicode="&#x155;" horiz-adv-x="228" 
d="M169 582l102 140h52l-112 -140h-42zM127 383q42 127 118 127q9 0 17 -2l-9 -51q-12 2 -18 2q-44 0 -72 -41q-37 -54 -52 -140l-49 -278h-47l88 500h44z" />
    <glyph glyph-name="Rcommaaccent" unicode="&#x156;" horiz-adv-x="391" 
d="M252 710q79 0 120 -40t28 -127l-9 -58q-19 -133 -124 -158l57 -327h-53l-54 320h-89l-56 -320h-49l125 710h104zM350 540q19 130 -99 130h-61l-55 -311h82q106 0 124 125zM123 -104l11 61h53l-10 -59q-13 -70 -56 -97l-10 21q30 22 38 74h-26z" />
    <glyph glyph-name="rcommaaccent" unicode="&#x157;" horiz-adv-x="228" 
d="M127 383q42 127 118 127q9 0 17 -2l-9 -51q-12 2 -18 2q-44 0 -72 -41q-37 -54 -52 -140l-49 -278h-47l88 500h44zM-8 -199l-10 21q30 22 38 74h-26l11 61h53l-10 -59q-13 -70 -56 -97z" />
    <glyph glyph-name="Rcaron" unicode="&#x158;" horiz-adv-x="391" 
d="M297 748h-56l-56 97h45l41 -73l66 73h50zM252 710q79 0 120 -40t28 -127l-9 -58q-19 -133 -124 -158l57 -327h-53l-54 320h-89l-56 -320h-49l125 710h104zM350 540q19 130 -99 130h-61l-55 -311h82q106 0 124 125z" />
    <glyph glyph-name="rcaron" unicode="&#x159;" horiz-adv-x="228" 
d="M115 718h43l33 -109l72 109h46l-96 -140h-51zM127 383q42 127 118 127q9 0 17 -2l-9 -51q-12 2 -18 2q-44 0 -72 -41q-37 -54 -52 -140l-49 -278h-47l88 500h44z" />
    <glyph glyph-name="Sacute" unicode="&#x15a;" horiz-adv-x="358" 
d="M247 753l79 97h51l-88 -97h-42zM152 -17q-76 0 -115 48.5t-23 146.5l9 54l51 7l-12 -69q-13 -74 14 -109.5t77 -35.5q87 0 105 104l8 45q9 55 -4 89.5t-54 69.5l-58 48q-43 37 -56 79.5t-3 102.5l5 28q24 135 151 136q74 1 110 -40t20 -131l-10 -58l-51 -8l11 62
q24 133 -81 133q-48 0 -70 -25.5t-30 -70.5l-7 -38q-8 -44 4 -76t47 -61l57 -48q51 -42 65.5 -85.5t3.5 -112.5l-7 -43q-10 -63 -48.5 -102.5t-108.5 -39.5z" />
    <glyph glyph-name="sacute" unicode="&#x15b;" horiz-adv-x="303" 
d="M186 582l102 140h52l-112 -140h-42zM121 -12q-61 0 -93 34t-19 104l9 48l48 8l-9 -54q-10 -53 9 -78t58 -25q60 0 74 74l5 26q10 28 1.5 55t-45.5 47l-46 26q-69 37 -51 130l5 24q21 105 119 105q56 0 87 -31.5t18 -100.5l-10 -47l-47 -7l9 55q17 94 -58 94
q-59 0 -72 -69l-5 -25q-14 -64 38 -96l49 -28q46 -25 57 -59t-2 -74l-5 -26q-11 -53 -39 -81.5t-85 -28.5z" />
    <glyph glyph-name="Scircumflex" unicode="&#x15c;" horiz-adv-x="358" 
d="M369 753h-45l-41 73l-66 -73h-50l90 97h56zM152 -17q-76 0 -115 48.5t-23 146.5l9 54l51 7l-12 -69q-13 -74 14 -109.5t77 -35.5q87 0 105 104l8 45q9 55 -4 89.5t-54 69.5l-58 48q-43 37 -56 79.5t-3 102.5l5 28q24 135 151 136q74 1 110 -40t20 -131l-10 -58l-51 -8
l11 62q24 133 -81 133q-48 0 -70 -25.5t-30 -70.5l-7 -38q-8 -44 4 -76t47 -61l57 -48q51 -42 65.5 -85.5t3.5 -112.5l-7 -43q-10 -63 -48.5 -102.5t-108.5 -39.5z" />
    <glyph glyph-name="scircumflex" unicode="&#x15d;" horiz-adv-x="303" 
d="M307 582h-43l-33 109l-72 -109h-46l96 140h51zM121 -12q-61 0 -93 34t-19 104l9 48l48 8l-9 -54q-10 -53 9 -78t58 -25q60 0 74 74l5 26q10 28 1.5 55t-45.5 47l-46 26q-69 37 -51 130l5 24q21 105 119 105q56 0 87 -31.5t18 -100.5l-10 -47l-47 -7l9 55q17 94 -58 94
q-59 0 -72 -69l-5 -25q-14 -64 38 -96l49 -28q46 -25 57 -59t-2 -74l-5 -26q-11 -53 -39 -81.5t-85 -28.5z" />
    <glyph glyph-name="Scedilla" unicode="&#x15e;" horiz-adv-x="358" 
d="M247 727q74 1 110 -40t20 -131l-10 -58l-51 -8l11 62q24 133 -81 133q-48 0 -70 -25.5t-30 -70.5l-7 -38q-8 -44 4 -76t47 -61l57 -48q51 -42 65.5 -85.5t3.5 -112.5l-7 -43q-10 -63 -48.5 -102.5t-108.5 -39.5h-5l-24 -36q12 11 32 11q44 0 44 -51q0 -36 -19.5 -66.5
t-60.5 -30.5q-31 0 -47 16.5t-13 43.5l35 4q-3 -36 26 -36q22 0 32 20.5t10 43.5q0 32 -26 32q-18 0 -30 -17l-25 9l36 60q-60 10 -88.5 58t-14.5 134l9 54l51 7l-12 -69q-13 -74 14 -109.5t77 -35.5q87 0 105 104l8 45q9 55 -4 89.5t-54 69.5l-58 48q-43 37 -56 79.5
t-3 102.5l5 28q24 135 151 136z" />
    <glyph glyph-name="scedilla" unicode="&#x15f;" horiz-adv-x="303" 
d="M186 512q56 0 87 -31.5t18 -100.5l-10 -47l-47 -7l9 55q17 94 -58 94q-59 0 -72 -69l-5 -25q-14 -64 38 -96l49 -28q46 -25 57 -59t-2 -74l-5 -26q-11 -52 -38 -80.5t-80 -29.5l-28 -41q12 11 32 11q44 0 44 -51q0 -36 -19.5 -66.5t-60.5 -30.5q-31 0 -47 16.5t-13 43.5
l35 4q-3 -36 26 -36q22 0 32 20.5t10 43.5q0 32 -26 32q-18 0 -30 -17l-25 9l39 64q-50 6 -74 40t-13 96l9 48l48 8l-9 -54q-10 -53 9 -78t58 -25q60 0 74 74l5 26q10 28 1.5 55t-45.5 47l-46 26q-69 37 -51 130l5 24q21 105 119 105z" />
    <glyph glyph-name="Scaron" unicode="&#x160;" horiz-adv-x="358" 
d="M175 845h45l41 -73l66 73h50l-90 -97h-56zM152 -17q-76 0 -115 48.5t-23 146.5l9 54l51 7l-12 -69q-13 -74 14 -109.5t77 -35.5q87 0 105 104l8 45q9 55 -4 89.5t-54 69.5l-58 48q-43 37 -56 79.5t-3 102.5l5 28q24 135 151 136q74 1 110 -40t20 -131l-10 -58l-51 -8
l11 62q24 133 -81 133q-48 0 -70 -25.5t-30 -70.5l-7 -38q-8 -44 4 -76t47 -61l57 -48q51 -42 65.5 -85.5t3.5 -112.5l-7 -43q-10 -63 -48.5 -102.5t-108.5 -39.5z" />
    <glyph glyph-name="scaron" unicode="&#x161;" horiz-adv-x="303" 
d="M132 718h43l33 -109l72 109h46l-96 -140h-51zM121 -12q-61 0 -93 34t-19 104l9 48l48 8l-9 -54q-10 -53 9 -78t58 -25q60 0 74 74l5 26q10 28 1.5 55t-45.5 47l-46 26q-69 37 -51 130l5 24q21 105 119 105q56 0 87 -31.5t18 -100.5l-10 -47l-47 -7l9 55q17 94 -58 94
q-59 0 -72 -69l-5 -25q-14 -64 38 -96l49 -28q46 -25 57 -59t-2 -74l-5 -26q-11 -53 -39 -81.5t-85 -28.5z" />
    <glyph glyph-name="uni0162" unicode="&#x162;" horiz-adv-x="346" 
d="M154 0h-6l-36 -53q12 11 32 11q44 0 44 -51q0 -36 -19.5 -66.5t-60.5 -30.5q-31 0 -47 16.5t-13 43.5l35 4q-3 -36 26 -36q22 0 32 20.5t10 43.5q0 32 -26 32q-18 0 -30 -17l-25 9l45 74h-8l117 666h-145l8 44h334l-8 -44h-141z" />
    <glyph glyph-name="uni0163" unicode="&#x163;" horiz-adv-x="223" 
d="M154 463l-61 -344q-15 -81 48 -81q9 0 25 2l-7 -43q-15 -3 -30 -3q-9 0 -13 1l-32 -48q12 11 32 11q44 0 44 -51q0 -36 -19.5 -66.5t-60.5 -30.5q-31 0 -47 16.5t-13 43.5l35 4q-3 -36 26 -36q22 0 32 20.5t10 43.5q0 32 -26 32q-18 0 -30 -17l-25 9l45 74h4
q-62 21 -45 118l61 345h-59l7 37h58l22 121l49 17l-24 -138h85l-6 -37h-85z" />
    <glyph glyph-name="Tcaron" unicode="&#x164;" horiz-adv-x="346" 
d="M281 748h-56l-56 97h45l41 -73l66 73h50zM421 710l-8 -44h-141l-118 -666h-47l117 666h-145l8 44h334z" />
    <glyph glyph-name="tcaron" unicode="&#x165;" horiz-adv-x="223" 
d="M229 554l-10 21q30 22 38 74h-26l11 61h53l-10 -59q-13 -68 -56 -97zM48 463l7 37h58l22 121l49 17l-24 -138h85l-6 -37h-85l-61 -344q-15 -81 48 -81q9 0 25 2l-7 -43q-15 -3 -30 -3q-46 0 -70.5 28.5t-12.5 95.5l61 345h-59z" />
    <glyph glyph-name="Tbar" unicode="&#x166;" horiz-adv-x="346" 
d="M413 666h-141l-37 -211h93l-5 -31h-94l-75 -424h-47l75 424h-96l5 31h96l37 211h-145l8 44h334z" />
    <glyph glyph-name="tbar" unicode="&#x167;" horiz-adv-x="259" 
d="M275 463h-85l-28 -158h47l-5 -36h-48l-27 -150q-15 -81 48 -81q9 0 25 2l-7 -43q-15 -3 -30 -3q-46 0 -70.5 28.5t-12.5 95.5l27 151h-95l6 36h95l28 158h-59l7 37h58l22 121l49 17l-24 -138h85z" />
    <glyph glyph-name="Utilde" unicode="&#x168;" horiz-adv-x="425" 
d="M357 752q-29 0 -54 25.5t-40 25.5q-33 0 -38 -44l-33 4q11 77 71 77q29 0 53.5 -26t40.5 -26q32 0 37 45l33 -4q-5 -38 -24 -57.5t-46 -19.5zM141 710h49l-99 -561q-10 -59 15 -91t77 -32q93 0 115 122l99 562h48l-99 -565q-29 -162 -168 -162q-74 0 -111.5 44t-21.5 130
z" />
    <glyph glyph-name="utilde" unicode="&#x169;" horiz-adv-x="361" 
d="M298 599q-29 0 -54.5 26.5t-41.5 26.5q-31 0 -37 -46l-34 4q4 38 23.5 59t47.5 21q29 0 55 -27t41 -27q31 0 38 45l33 -3q-12 -79 -71 -79zM115 -12q-88 0 -88 97q0 16 5 46l65 369h47l-66 -373q-3 -19 -3 -33q0 -65 56 -65q86 0 115 166l54 305h46l-88 -500h-44l17 93
q-19 -52 -45.5 -78.5t-70.5 -26.5z" />
    <glyph glyph-name="Umacron" unicode="&#x16a;" horiz-adv-x="425" 
d="M198 767l7 39h213l-7 -39h-213zM141 710h49l-99 -561q-10 -59 15 -91t77 -32q93 0 115 122l99 562h48l-99 -565q-29 -162 -168 -162q-74 0 -111.5 44t-21.5 130z" />
    <glyph glyph-name="umacron" unicode="&#x16b;" horiz-adv-x="361" 
d="M151 617l7 38h190l-7 -38h-190zM115 -12q-88 0 -88 97q0 16 5 46l65 369h47l-66 -373q-3 -19 -3 -33q0 -65 56 -65q86 0 115 166l54 305h46l-88 -500h-44l17 93q-19 -52 -45.5 -78.5t-70.5 -26.5z" />
    <glyph glyph-name="Ubreve" unicode="&#x16c;" horiz-adv-x="425" 
d="M257 850q-6 -68 51 -68q60 0 72 68h39q-18 -102 -111 -102q-49 0 -73 26.5t-18 75.5h40zM141 710h49l-99 -561q-10 -59 15 -91t77 -32q93 0 115 122l99 562h48l-99 -565q-29 -162 -168 -162q-74 0 -111.5 44t-21.5 130z" />
    <glyph glyph-name="ubreve" unicode="&#x16d;" horiz-adv-x="361" 
d="M191 686q-6 -74 52 -74q30 0 46 17t23 57h39q-15 -109 -110 -109q-103 0 -89 109h39zM115 -12q-88 0 -88 97q0 16 5 46l65 369h47l-66 -373q-3 -19 -3 -33q0 -65 56 -65q86 0 115 166l54 305h46l-88 -500h-44l17 93q-19 -52 -45.5 -78.5t-70.5 -26.5z" />
    <glyph glyph-name="Uring" unicode="&#x16e;" horiz-adv-x="425" 
d="M300 743q-33 0 -52 19t-19 50q0 39 29 66t71 27q32 0 51.5 -19t19.5 -49q0 -40 -29 -67t-71 -27zM305 773q25 0 42 17.5t17 42.5q0 18 -11 30t-30 12q-25 0 -41.5 -17.5t-16.5 -42.5q0 -19 10.5 -30.5t29.5 -11.5zM141 710h49l-99 -561q-10 -59 15 -91t77 -32
q93 0 115 122l99 562h48l-99 -565q-29 -162 -168 -162q-74 0 -111.5 44t-21.5 130z" />
    <glyph glyph-name="uring" unicode="&#x16f;" horiz-adv-x="361" 
d="M239 569q-35 0 -56 19t-21 55q0 37 26 64t69 27q35 0 55.5 -18.5t20.5 -54.5q0 -37 -26 -64.5t-68 -27.5zM239 599q30 0 45 19.5t15 42.5q0 22 -12 32.5t-30 10.5q-30 0 -45 -19.5t-15 -41.5q0 -44 42 -44zM115 -12q-88 0 -88 97q0 16 5 46l65 369h47l-66 -373
q-3 -19 -3 -33q0 -65 56 -65q86 0 115 166l54 305h46l-88 -500h-44l17 93q-19 -52 -45.5 -78.5t-70.5 -26.5z" />
    <glyph glyph-name="Uhungarumlaut" unicode="&#x170;" horiz-adv-x="425" 
d="M231 753l81 97h47l-84 -97h-44zM329 753l81 97h46l-84 -97h-43zM141 710h49l-99 -561q-10 -59 15 -91t77 -32q93 0 115 122l99 562h48l-99 -565q-29 -162 -168 -162q-74 0 -111.5 44t-21.5 130z" />
    <glyph glyph-name="uhungarumlaut" unicode="&#x171;" horiz-adv-x="361" 
d="M171 582l97 139h45l-101 -139h-41zM265 582l98 139h44l-101 -139h-41zM115 -12q-88 0 -88 97q0 16 5 46l65 369h47l-66 -373q-3 -19 -3 -33q0 -65 56 -65q86 0 115 166l54 305h46l-88 -500h-44l17 93q-19 -52 -45.5 -78.5t-70.5 -26.5z" />
    <glyph glyph-name="Uogonek" unicode="&#x172;" horiz-adv-x="425" 
d="M397 710h48l-99 -565q-27 -145 -140 -160q-73 -35 -73 -88q0 -34 28 -34q36 0 42 47l33 -6q-14 -73 -76 -73q-29 0 -46.5 16t-17.5 44q0 56 66 93q-67 5 -99.5 48.5t-17.5 124.5l96 553h49l-99 -561q-10 -59 15 -91t77 -32q93 0 115 122z" />
    <glyph glyph-name="uogonek" unicode="&#x173;" horiz-adv-x="361" 
d="M300 500h46l-88 -500h-3q-63 -23 -87 -47.5t-24 -55.5q0 -34 28 -34q36 0 42 47l33 -6q-14 -73 -76 -73q-29 0 -46.5 16t-17.5 44q0 70 107 111l17 91q-19 -52 -45.5 -78.5t-70.5 -26.5q-88 0 -88 97q0 16 5 46l65 369h47l-66 -373q-3 -19 -3 -33q0 -65 56 -65
q86 0 115 166z" />
    <glyph glyph-name="Wcircumflex" unicode="&#x174;" horiz-adv-x="565" 
d="M472 753h-45l-41 73l-66 -73h-50l90 97h56zM77 0l31 710h48l-27 -542q-1 -26 -10 -117h2q17 65 34 117l178 542h60l-14 -542q-1 -41 -7 -117h3q14 64 30 117l165 542h49l-219 -710h-68l16 564q1 17 4 51.5t4 43.5h-3q-11 -52 -26 -95l-183 -564h-67z" />
    <glyph glyph-name="wcircumflex" unicode="&#x175;" horiz-adv-x="471" 
d="M392 582h-43l-33 109l-72 -109h-46l96 140h51zM65 0l1 500h46l-10 -395q0 -3 -1 -22t-2 -29h2q2 10 16 51l135 395h53l-4 -395q0 -34 -1 -51h2q3 19 14 51l129 395h48l-175 -500h-51l2 402q0 17 4 51h-2q-11 -39 -16 -51l-138 -402h-52z" />
    <glyph glyph-name="Ycircumflex" unicode="&#x176;" horiz-adv-x="357" 
d="M368 753h-45l-41 73l-66 -73h-50l90 97h56zM111 0l55 312l-78 398h52l49 -289q6 -42 6 -59h2q12 31 28 59l151 289h55l-216 -398l-56 -312h-48z" />
    <glyph glyph-name="ycircumflex" unicode="&#x177;" horiz-adv-x="310" 
d="M311 582h-43l-33 109l-72 -109h-46l96 140h51zM-20 -200q-22 0 -33 5l7 43q12 -4 29 -4q26 0 44.5 16t33.5 57l30 78l-34 505h49l16 -385q2 -49 0 -64h2q2 9 20 57l147 392h50l-239 -594q-25 -62 -53 -84t-69 -22z" />
    <glyph glyph-name="Ydieresis" unicode="&#x178;" horiz-adv-x="357" 
d="M177 753l15 82h47l-15 -82h-47zM309 753l15 82h48l-15 -82h-48zM111 0l55 312l-78 398h52l49 -289q6 -42 6 -59h2q12 31 28 59l151 289h55l-216 -398l-56 -312h-48z" />
    <glyph glyph-name="Zacute" unicode="&#x179;" horiz-adv-x="338" 
d="M237 753l79 97h51l-88 -97h-42zM-17 41l358 625h-231l8 44h282l-8 -41l-357 -625h255l-8 -44h-306z" />
    <glyph glyph-name="zacute" unicode="&#x17a;" horiz-adv-x="279" 
d="M175 582l102 140h52l-112 -140h-42zM-13 38l255 422h-172l7 40h219l-7 -37l-254 -422h188l-7 -41h-236z" />
    <glyph glyph-name="Zdotaccent" unicode="&#x17b;" horiz-adv-x="338" 
d="M232 753l15 89h52l-15 -89h-52zM-17 41l358 625h-231l8 44h282l-8 -41l-357 -625h255l-8 -44h-306z" />
    <glyph glyph-name="zdotaccent" unicode="&#x17c;" horiz-adv-x="279" 
d="M168 583l19 110h51l-19 -110h-51zM-13 38l255 422h-172l7 40h219l-7 -37l-254 -422h188l-7 -41h-236z" />
    <glyph glyph-name="Zcaron" unicode="&#x17d;" horiz-adv-x="338" 
d="M165 845h45l41 -73l66 73h50l-90 -97h-56zM-17 41l358 625h-231l8 44h282l-8 -41l-357 -625h255l-8 -44h-306z" />
    <glyph glyph-name="zcaron" unicode="&#x17e;" horiz-adv-x="279" 
d="M121 718h43l33 -109l72 109h46l-96 -140h-51zM-13 38l255 422h-172l7 40h219l-7 -37l-254 -422h188l-7 -41h-236z" />
    <glyph glyph-name="florin" unicode="&#x192;" horiz-adv-x="314" 
d="M348 710q22 0 43 -8l-8 -41q-11 7 -36 7q-42 0 -61 -24t-40 -92l-42 -139h102l-7 -37h-106l-159 -526h-46l158 526h-84l7 37h88l40 133q27 91 56.5 127.5t94.5 36.5z" />
    <glyph glyph-name="AEacute" unicode="&#x1fc;" horiz-adv-x="584" 
d="M616 850l-88 -97h-42l79 97h51zM627 668h-194l-49 -280h177l-7 -43h-178l-53 -303h201l-7 -42h-250l34 194h-139l-93 -194h-50l346 710h270zM308 235l75 422l-202 -422h127z" />
    <glyph glyph-name="aeacute" unicode="&#x1fd;" horiz-adv-x="512" 
d="M445 722l-112 -140h-42l102 140h52zM392 512q60 0 86.5 -42.5t12.5 -119.5l-18 -97h-197l-16 -90q-23 -134 58 -134q35 0 56 23t32 78l7 39l44 -7l-7 -36q-26 -138 -133 -138q-40 0 -67.5 21t-34.5 63q-36 -84 -121 -84q-106 0 -87 121l4 26q11 76 52 109q39 35 105 39
l72 5l14 83q17 102 -57 102q-37 0 -56.5 -19.5t-26.5 -67.5l-8 -47h-47l8 47q11 68 43.5 97t88.5 29q75 0 94 -58q30 58 99 58zM445 359q20 116 -56 116q-45 0 -64.5 -30t-29.5 -87l-13 -71h150q2 12 6.5 36t6.5 36zM109 27q82 0 108 137l16 91l-58 -4q-58 -4 -82.5 -33
t-33.5 -81l-4 -26q-14 -84 54 -84z" />
    <glyph glyph-name="Oslashacute" unicode="&#x1fe;" horiz-adv-x="425" 
d="M327 850l-88 -97h-42l79 97h51zM476 728l-54 -89q16 -48 3 -118l-60 -343q-16 -95 -58 -145t-127 -50q-87 0 -124 54l-42 -69l-28 15l53 88q-14 48 -3 118l60 343q17 95 59 145t127 50q87 0 123 -53l42 68zM85 182q-4 -21 -4 -43l293 483q-20 63 -96 63q-62 0 -90 -40
t-40 -112zM376 528q3 15 5 43l-294 -483q21 -63 97 -63q62 0 90 40t40 112z" />
    <glyph glyph-name="oslashacute" unicode="&#x1ff;" horiz-adv-x="337" 
d="M313 722l-112 -140h-42l102 140h52zM366 491l-49 -65q5 -38 -3 -81l-34 -190q-15 -81 -47 -124t-102 -43q-77 0 -102 55l-38 -51l-21 17l50 67q-5 36 3 79l34 190q14 81 46.5 124t102.5 43q75 0 101 -53l36 49zM69 152q0 -2 -0.5 -6.5t-1.5 -6.5l204 273q-8 59 -67 59
q-47 0 -68.5 -33t-31.5 -90zM268 348q2 10 2 16l-204 -273q7 -62 67 -62q47 0 68.5 33t31.5 90z" />
    <glyph glyph-name="Scommaaccent" unicode="&#x218;" horiz-adv-x="358" 
d="M152 -17q-76 0 -115 48.5t-23 146.5l9 54l51 7l-12 -69q-13 -74 14 -109.5t77 -35.5q87 0 105 104l8 45q9 55 -4 89.5t-54 69.5l-58 48q-43 37 -56 79.5t-3 102.5l5 28q24 135 151 136q74 1 110 -40t20 -131l-10 -58l-51 -8l11 62q24 133 -81 133q-48 0 -70 -25.5
t-30 -70.5l-7 -38q-8 -44 4 -76t47 -61l57 -48q51 -42 65.5 -85.5t3.5 -112.5l-7 -43q-10 -63 -48.5 -102.5t-108.5 -39.5zM94 -199l-10 21q30 22 38 74h-26l11 61h53l-10 -59q-13 -70 -56 -97z" />
    <glyph glyph-name="scommaaccent" unicode="&#x219;" horiz-adv-x="303" 
d="M121 -12q-61 0 -93 34t-19 104l9 48l48 8l-9 -54q-10 -53 9 -78t58 -25q60 0 74 74l5 26q10 28 1.5 55t-45.5 47l-46 26q-69 37 -51 130l5 24q21 105 119 105q56 0 87 -31.5t18 -100.5l-10 -47l-47 -7l9 55q17 94 -58 94q-59 0 -72 -69l-5 -25q-14 -64 38 -96l49 -28
q46 -25 57 -59t-2 -74l-5 -26q-11 -53 -39 -81.5t-85 -28.5zM70 -199l-10 21q30 22 38 74h-26l11 61h53l-10 -59q-13 -70 -56 -97z" />
    <glyph glyph-name="uni021A" unicode="&#x21a;" horiz-adv-x="346" 
d="M421 710l-8 -44h-141l-118 -666h-47l117 666h-145l8 44h334zM85 -104l11 61h53l-10 -59q-13 -70 -56 -97l-10 21q30 22 38 74h-26z" />
    <glyph glyph-name="uni021B" unicode="&#x21b;" horiz-adv-x="223" 
d="M48 463l7 37h58l22 121l49 17l-24 -138h85l-6 -37h-85l-61 -344q-15 -81 48 -81q9 0 25 2l-7 -43q-15 -3 -30 -3q-46 0 -70.5 28.5t-12.5 95.5l61 345h-59zM55 -199l-10 21q30 22 38 74h-26l11 61h53l-10 -59q-13 -70 -56 -97z" />
    <glyph glyph-name="uni0237" unicode="&#x237;" horiz-adv-x="164" 
d="M-48 -201q-22 0 -40 6l7 42q12 -4 28 -4q40 0 48 47l108 610h46l-109 -619q-14 -82 -88 -82z" />
    <glyph glyph-name="uni0243" unicode="&#x243;" horiz-adv-x="392" 
d="M270 363q35 -7 56 -33.5t21 -89.5q0 -87 -33.5 -149.5t-99.5 -82.5l-20 -115h-33l19 108q-8 -1 -26 -1h-35l-19 -107h-32l18 107h-63l123 695h63l16 90h32l-16 -90h22q21 0 39 -3l16 93h33l-18 -100q62 -25 62 -116q0 -77 -32 -136t-93 -70zM187 656l-49 -277h69
q72 0 106 50.5t34 131.5q0 50 -20.5 72.5t-65.5 22.5h-74zM159 40q69 0 104 58.5t35 139.5q0 59 -25 81t-70 22h-72l-53 -301h81z" />
    <glyph glyph-name="circumflex" unicode="&#x2c6;" horiz-adv-x="600" 
d="M245 582h-43l-33 109l-72 -109h-46l96 140h51z" />
    <glyph glyph-name="caron" unicode="&#x2c7;" horiz-adv-x="600" 
d="M133 718h43l33 -109l72 109h46l-96 -140h-51z" />
    <glyph glyph-name="breve" unicode="&#x2d8;" horiz-adv-x="600" 
d="M95 686q-6 -74 52 -74q30 0 46 17t23 57h39q-15 -109 -110 -109q-103 0 -89 109h39z" />
    <glyph glyph-name="dotaccent" unicode="&#x2d9;" horiz-adv-x="600" 
d="M118 583l19 110h51l-19 -110h-51z" />
    <glyph glyph-name="ring" unicode="&#x2da;" horiz-adv-x="600" 
d="M126 569q-35 0 -56 19t-21 55q0 37 26 64t69 27q35 0 55.5 -18.5t20.5 -54.5q0 -37 -26 -64.5t-68 -27.5zM126 599q30 0 45 19.5t15 42.5q0 22 -12 32.5t-30 10.5q-30 0 -45 -19.5t-15 -41.5q0 -44 42 -44z" />
    <glyph glyph-name="ogonek" unicode="&#x2db;" horiz-adv-x="600" 
d="M177 -96q-14 -73 -76 -73q-29 0 -46.5 16t-17.5 44q0 71 109 112l39 -3q-63 -23 -87 -47.5t-24 -55.5q0 -34 28 -34q36 0 42 47z" />
    <glyph glyph-name="tilde" unicode="&#x2dc;" horiz-adv-x="600" 
d="M228 599q-29 0 -54.5 26.5t-41.5 26.5q-31 0 -37 -46l-34 4q4 38 23.5 59t47.5 21q29 0 55 -27t41 -27q31 0 38 45l33 -3q-12 -79 -71 -79z" />
    <glyph glyph-name="hungarumlaut" unicode="&#x2dd;" horiz-adv-x="600" 
d="M55 582l97 139h45l-101 -139h-41zM149 582l98 139h44l-101 -139h-41z" />
    <glyph glyph-name="gravecomb" unicode="&#x300;" horiz-adv-x="0" 
d="M26 582h-42l-112 140h52z" />
    <glyph glyph-name="acutecomb" unicode="&#x301;" horiz-adv-x="0" 
d="M-204 582l102 140h52l-112 -140h-42z" />
    <glyph glyph-name="uni0302" unicode="&#x302;" horiz-adv-x="0" 
d="M-50 582h-43l-33 109l-72 -109h-46l96 140h51z" />
    <glyph glyph-name="tildecomb" unicode="&#x303;" horiz-adv-x="0" 
d="M-132 599q-29 0 -54.5 26.5t-41.5 26.5q-31 0 -37 -46l-34 4q4 38 23.5 59t47.5 21q29 0 55 -27t41 -27q31 0 38 45l33 -3q-12 -79 -71 -79z" />
    <glyph glyph-name="uni0304" unicode="&#x304;" horiz-adv-x="0" 
d="M-249 617l7 38h190l-7 -38h-190z" />
    <glyph glyph-name="uni0306" unicode="&#x306;" horiz-adv-x="0" 
d="M-215 686q-6 -74 52 -74q30 0 46 17t23 57h39q-15 -109 -110 -109q-103 0 -89 109h39z" />
    <glyph glyph-name="uni0307" unicode="&#x307;" horiz-adv-x="0" 
d="M-53 583l19 110h51l-19 -110h-51z" />
    <glyph glyph-name="uni0308" unicode="&#x308;" horiz-adv-x="0" 
d="M-200 592l17 95h46l-17 -95h-46zM-73 592l17 95h47l-17 -95h-47z" />
    <glyph glyph-name="uni030A" unicode="&#x30a;" horiz-adv-x="0" 
d="M-142 569q-35 0 -56 19t-21 55q0 37 26 64t69 27q35 0 55.5 -18.5t20.5 -54.5q0 -37 -26 -64.5t-68 -27.5zM-142 599q30 0 45 19.5t15 42.5q0 22 -12 32.5t-30 10.5q-30 0 -45 -19.5t-15 -41.5q0 -44 42 -44z" />
    <glyph glyph-name="uni030B" unicode="&#x30b;" horiz-adv-x="0" 
d="M-289 582l97 139h45l-101 -139h-41zM-195 582l98 139h44l-101 -139h-41z" />
    <glyph glyph-name="uni030C" unicode="&#x30c;" horiz-adv-x="0" 
d="M-163 718h43l33 -109l72 109h46l-96 -140h-51z" />
    <glyph glyph-name="uni0312" unicode="&#x312;" horiz-adv-x="0" 
d="M32 738l10 -21q-30 -22 -38 -74h26l-11 -61h-53l10 59q13 70 56 97z" />
    <glyph glyph-name="uni0326" unicode="&#x326;" horiz-adv-x="0" 
d="M-117 -199l-10 21q30 22 38 74h-26l11 61h53l-10 -59q-13 -70 -56 -97z" />
    <glyph glyph-name="uni0327" unicode="&#x327;" horiz-adv-x="0" 
d="M-122 0h33l-36 -53q12 11 32 11q44 0 44 -51q0 -36 -19.5 -66.5t-60.5 -30.5q-31 0 -47 16.5t-13 43.5l35 4q-3 -36 26 -36q22 0 32 20.5t10 43.5q0 32 -26 32q-18 0 -30 -17l-25 9z" />
    <glyph glyph-name="uni0328" unicode="&#x328;" horiz-adv-x="0" 
d="M-78 -96q-14 -73 -76 -73q-29 0 -46.5 16t-17.5 44q0 71 109 112l39 -3q-63 -23 -87 -47.5t-24 -55.5q0 -34 28 -34q36 0 42 47z" />
    <glyph glyph-name="uni0394" unicode="&#x394;" horiz-adv-x="373" 
d="M-25 0l264 710h61l11 -710h-336zM260 651l-224 -612h227z" />
    <glyph glyph-name="uni03A9" unicode="&#x3a9;" horiz-adv-x="495" 
d="M357 0h-119l31 215q135 36 135 333q0 72 -20.5 102t-60.5 30q-162 0 -162 -336q0 -113 53 -129l-45 -215h-120l8 43h81l31 146q-56 21 -56 146q0 386 217 386q59 0 89.5 -40t30.5 -132q0 -312 -145 -360l-21 -146h81z" />
    <glyph glyph-name="uni03BC" unicode="&#x3bc;" horiz-adv-x="368" 
d="M306 500h46l-88 -500h-44l17 93q-19 -52 -45.5 -78.5t-70.5 -26.5q-40 0 -61 20l-36 -204h-43l54 309l3 18l65 369h47l-66 -373q-3 -19 -3 -33q0 -65 56 -65q86 0 115 166z" />
    <glyph glyph-name="pi" unicode="&#x3c0;" horiz-adv-x="498" 
d="M395 -3q-10 -5 -34 -5q-88 0 -69 104l64 366h-140l-81 -462h-46l81 462h-76l7 38h383l-7 -38h-75l-64 -365q-11 -64 38 -64q10 0 26 4z" />
    <glyph glyph-name="uni0E3F" unicode="&#xe3f;" horiz-adv-x="400" 
d="M277 363q39 -10 58 -35t19 -92q0 -99 -44.5 -164.5t-133.5 -71.5l-19 -107h-32l19 107h-121l123 695h121l16 91h32l-16 -92q50 -5 77 -34.5t27 -96.5q0 -72 -31 -130.5t-95 -69.5zM187 656l-49 -277h73l49 277h-73zM355 555q0 46 -14.5 70t-48.5 29l-49 -273q58 10 85 57
t27 117zM78 40h73l53 301h-73zM183 41q62 8 92 65.5t30 129.5q0 51 -16.5 74.5t-52.5 28.5z" />
    <glyph glyph-name="Wgrave" unicode="&#x1e80;" horiz-adv-x="565" 
d="M392 753h-42l-88 97h51zM77 0l31 710h48l-27 -542q-1 -26 -10 -117h2q17 65 34 117l178 542h60l-14 -542q-1 -41 -7 -117h3q14 64 30 117l165 542h49l-219 -710h-68l16 564q1 17 4 51.5t4 43.5h-3q-11 -52 -26 -95l-183 -564h-67z" />
    <glyph glyph-name="wgrave" unicode="&#x1e81;" horiz-adv-x="471" 
d="M316 582h-42l-112 140h52zM65 0l1 500h46l-10 -395q0 -3 -1 -22t-2 -29h2q2 10 16 51l135 395h53l-4 -395q0 -34 -1 -51h2q3 19 14 51l129 395h48l-175 -500h-51l2 402q0 17 4 51h-2q-11 -39 -16 -51l-138 -402h-52z" />
    <glyph glyph-name="Wacute" unicode="&#x1e82;" horiz-adv-x="565" 
d="M350 753l79 97h51l-88 -97h-42zM77 0l31 710h48l-27 -542q-1 -26 -10 -117h2q17 65 34 117l178 542h60l-14 -542q-1 -41 -7 -117h3q14 64 30 117l165 542h49l-219 -710h-68l16 564q1 17 4 51.5t4 43.5h-3q-11 -52 -26 -95l-183 -564h-67z" />
    <glyph glyph-name="wacute" unicode="&#x1e83;" horiz-adv-x="471" 
d="M271 582l102 140h52l-112 -140h-42zM65 0l1 500h46l-10 -395q0 -3 -1 -22t-2 -29h2q2 10 16 51l135 395h53l-4 -395q0 -34 -1 -51h2q3 19 14 51l129 395h48l-175 -500h-51l2 402q0 17 4 51h-2q-11 -39 -16 -51l-138 -402h-52z" />
    <glyph glyph-name="Wdieresis" unicode="&#x1e84;" horiz-adv-x="565" 
d="M281 753l15 82h47l-15 -82h-47zM413 753l15 82h48l-15 -82h-48zM77 0l31 710h48l-27 -542q-1 -26 -10 -117h2q17 65 34 117l178 542h60l-14 -542q-1 -41 -7 -117h3q14 64 30 117l165 542h49l-219 -710h-68l16 564q1 17 4 51.5t4 43.5h-3q-11 -52 -26 -95l-183 -564h-67z
" />
    <glyph glyph-name="wdieresis" unicode="&#x1e85;" horiz-adv-x="471" 
d="M209 592l17 95h46l-17 -95h-46zM336 592l17 95h47l-17 -95h-47zM65 0l1 500h46l-10 -395q0 -3 -1 -22t-2 -29h2q2 10 16 51l135 395h53l-4 -395q0 -34 -1 -51h2q3 19 14 51l129 395h48l-175 -500h-51l2 402q0 17 4 51h-2q-11 -39 -16 -51l-138 -402h-52z" />
    <glyph glyph-name="Ygrave" unicode="&#x1ef2;" horiz-adv-x="357" 
d="M288 753h-42l-88 97h51zM111 0l55 312l-78 398h52l49 -289q6 -42 6 -59h2q12 31 28 59l151 289h55l-216 -398l-56 -312h-48z" />
    <glyph glyph-name="ygrave" unicode="&#x1ef3;" horiz-adv-x="310" 
d="M235 582h-42l-112 140h52zM-20 -200q-22 0 -33 5l7 43q12 -4 29 -4q26 0 44.5 16t33.5 57l30 78l-34 505h49l16 -385q2 -49 0 -64h2q2 9 20 57l147 392h50l-239 -594q-25 -62 -53 -84t-69 -22z" />
    <glyph glyph-name="uni2002" unicode="&#x2002;" horiz-adv-x="500" 
 />
    <glyph glyph-name="uni2003" unicode="&#x2003;" horiz-adv-x="1000" 
 />
    <glyph glyph-name="uni2004" unicode="&#x2004;" horiz-adv-x="0" 
 />
    <glyph glyph-name="uni2005" unicode="&#x2005;" horiz-adv-x="250" 
 />
    <glyph glyph-name="uni2009" unicode="&#x2009;" horiz-adv-x="135" 
 />
    <glyph glyph-name="uni200A" unicode="&#x200a;" horiz-adv-x="75" 
 />
    <glyph glyph-name="endash" unicode="&#x2013;" horiz-adv-x="372" 
d="M42 297h305l-7 -37h-305z" />
    <glyph glyph-name="emdash" unicode="&#x2014;" horiz-adv-x="591" 
d="M42 297h524l-7 -37h-524z" />
    <glyph glyph-name="quoteleft" unicode="&#x2018;" horiz-adv-x="162" 
d="M186 723l11 -24q-39 -19 -50 -80l-3 -14h30l-18 -95h-59l19 105q9 49 26 73t44 35z" />
    <glyph glyph-name="quoteright" unicode="&#x2019;" horiz-adv-x="161" 
d="M102 497l-11 24q39 19 50 80l3 14h-30l18 95h59l-19 -105q-9 -49 -26 -73t-44 -35z" />
    <glyph glyph-name="quotesinglbase" unicode="&#x201a;" horiz-adv-x="162" 
d="M-6 -117l-11 24q39 19 50 80l3 14h-30l18 95h59l-19 -105q-9 -49 -26 -73t-44 -35z" />
    <glyph glyph-name="quotedblleft" unicode="&#x201c;" horiz-adv-x="273" 
d="M186 723l11 -24q-39 -19 -50 -80l-3 -14h30l-18 -95h-59l19 105q9 49 26 73t44 35zM298 723l11 -24q-39 -19 -50 -80l-3 -14h30l-18 -95h-59l19 105q9 49 26 73t44 35z" />
    <glyph glyph-name="quotedblright" unicode="&#x201d;" horiz-adv-x="273" 
d="M102 497l-11 24q39 19 50 80l3 14h-30l18 95h59l-19 -105q-9 -49 -26 -73t-44 -35zM214 497l-11 24q39 19 50 80l3 14h-30l18 95h59l-19 -105q-9 -49 -26 -73t-44 -35z" />
    <glyph glyph-name="quotedblbase" unicode="&#x201e;" horiz-adv-x="273" 
d="M-6 -118l-11 24q39 19 50 80l3 14h-30l18 95h59l-19 -105q-9 -49 -26 -73t-44 -35zM106 -118l-11 24q39 19 50 80l3 14h-30l18 95h59l-19 -105q-9 -49 -26 -73t-44 -35z" />
    <glyph glyph-name="dagger" unicode="&#x2020;" horiz-adv-x="401" 
d="M383 500l-7 -39h-116l-99 -561h-47l99 561h-114l7 39h114l39 220h46l-39 -220h117z" />
    <glyph glyph-name="daggerdbl" unicode="&#x2021;" horiz-adv-x="401" 
d="M376 461h-116l-52 -294h116l-6 -38h-117l-40 -229h-47l40 229h-114l7 38h114l52 294h-114l7 39h114l39 220h46l-39 -220h117z" />
    <glyph glyph-name="bullet" unicode="&#x2022;" horiz-adv-x="221" 
d="M127 289q-25 0 -41 15.5t-16 41.5t16 41.5t41 15.5q26 0 42 -15.5t16 -41.5t-16 -41.5t-42 -15.5z" />
    <glyph glyph-name="ellipsis" unicode="&#x2026;" horiz-adv-x="534" 
d="M83 92l-16 -92h-59l16 92h59zM269 92l-16 -92h-59l16 92h59zM454 92l-16 -92h-59l16 92h59z" />
    <glyph glyph-name="perthousand" unicode="&#x2030;" horiz-adv-x="841" 
d="M57 -14l474 742h40l-473 -742h-41zM162 353q-46 0 -76.5 28.5t-18.5 100.5l18 102q10 58 35.5 93t82.5 35q46 0 76.5 -28.5t18.5 -100.5l-18 -102q-10 -59 -35.5 -93.5t-82.5 -34.5zM163 387q37 0 53 24t24 69l18 106q16 92 -55 92q-37 0 -53 -24t-24 -69l-19 -106
q-16 -92 56 -92zM411 -12q-46 0 -76.5 28.5t-18.5 100.5l18 102q10 58 35.5 93t82.5 35q46 0 76.5 -28.5t18.5 -100.5l-18 -102q-10 -59 -35.5 -93.5t-82.5 -34.5zM674 -12q-46 0 -76.5 28.5t-18.5 100.5l18 102q10 58 35.5 93t82.5 35q46 0 76.5 -28.5t18.5 -100.5
l-18 -102q-10 -59 -35.5 -93.5t-82.5 -34.5zM412 22q37 0 53 24t24 69l18 106q16 92 -55 92q-37 0 -53 -24t-24 -69l-19 -106q-16 -92 56 -92zM675 22q37 0 53 24t24 69l18 106q16 92 -55 92q-37 0 -53 -24t-24 -69l-19 -106q-16 -92 56 -92z" />
    <glyph glyph-name="guilsinglleft" unicode="&#x2039;" horiz-adv-x="232" 
d="M113 67l-81 208l156 207h54l-162 -212l81 -203h-48z" />
    <glyph glyph-name="guilsinglright" unicode="&#x203a;" horiz-adv-x="233" 
d="M128 482l81 -208l-156 -207h-54l162 212l-81 203h48z" />
    <glyph glyph-name="fraction" unicode="&#x2044;" horiz-adv-x="85" 
d="M-189 -17l460 744h40l-460 -744h-40z" />
    <glyph glyph-name="uni20A9" unicode="&#x20a9;" horiz-adv-x="560" 
d="M605 695l-74 -238h49l-6 -32h-53l-33 -107h67l-5 -32h-72l-88 -286h-62l6 286h-98l-94 -286h-61l12 286h-71l6 32h67l4 107h-52l6 32h48l10 238h43l-12 -238h107l79 238h56l-5 -238h107l73 238h46zM302 486l-10 -29h46l1 29q4 103 11 155h-4q-15 -67 -44 -155zM141 425
l-6 -107h69l35 107h-98zM247 318h88l3 107h-56zM444 318l32 107h-98l-2 -107h68zM167 207l26 79h-59l-4 -78q-2 -34 -12 -155h3q8 32 46 154zM410 208l24 78h-59l-2 -79q-3 -101 -9 -154h3q17 70 43 155z" />
    <glyph glyph-name="Euro" unicode="&#x20ac;" horiz-adv-x="406" 
d="M286 710q62 0 103 -34t29 -107l-4 -25l-49 -11l5 29q10 57 -16 82t-67 25q-59 0 -88 -37.5t-41 -111.5l-14 -79h171l-6 -35h-171l-19 -102h172l-6 -35h-172l-16 -91q-14 -84 13.5 -118.5t77.5 -34.5q88 0 110 109l7 38l43 -10l-6 -35q-26 -143 -155 -143q-33 0 -59.5 9
t-50 31.5t-30 61t1.5 98.5l15 85h-47l7 35h46l19 102h-47l6 35h47l13 73q17 95 56.5 145.5t121.5 50.5z" />
    <glyph glyph-name="uni20B9" unicode="&#x20b9;" horiz-adv-x="420" 
d="M413 695l-7 -38h-132q35 -32 35 -96q0 -23 -3 -47h74l-6 -35h-73q-15 -75 -58 -123t-117 -48h-28l115 -308h-54l-113 316l6 29h69q104 0 132 134h-177l5 35h178q2 30 2 42q0 101 -95 101h-59l7 38h299z" />
    <glyph glyph-name="uni20BA" unicode="&#x20ba;" horiz-adv-x="381" 
d="M328 200l42 -10q-24 -80 -83.5 -135t-156.5 -55h-92l50 282l-68 -19l7 37l68 20l19 107l-68 -19l6 37l68 20l41 230h49l-38 -215l189 54l-7 -38l-189 -54l-19 -108l189 55l-7 -38l-188 -54l-45 -253h41q75 0 123.5 44.5t68.5 111.5z" />
    <glyph glyph-name="uni20BD" unicode="&#x20bd;" horiz-adv-x="380" 
d="M216 299h-71l-20 -112h116l-7 -35h-115l-27 -152h-48l27 152h-58l7 35h57l19 112h-58l7 39h58l63 357h106q61 0 98.5 -34t37.5 -112q0 -35 -5.5 -68t-19 -66.5t-34.5 -58.5t-55.5 -41t-77.5 -16zM208 655l-56 -317h68q52 0 85.5 37t44 80.5t10.5 91.5q0 108 -98 108h-54z
" />
    <glyph glyph-name="uni2105" unicode="&#x2105;" horiz-adv-x="602" 
d="M52 -14l494 745h41l-494 -745h-41zM184 353q-48 0 -71 29.5t-23 100.5q0 34 6.5 70t20.5 74.5t43.5 63.5t69.5 25q57 0 79.5 -31.5t9.5 -105.5l-41 -4q10 59 -3 82t-45 23q-30 0 -51.5 -21t-31 -54.5t-13.5 -63t-4 -58.5q0 -53 13.5 -73t42.5 -20q60 0 79 104l38 -5
q-25 -136 -119 -136zM416 3q-47 0 -71.5 29t-24.5 97q0 34 5.5 70t18.5 77t42 67t70 26q47 0 71 -29t24 -97q0 -34 -5.5 -70t-18.5 -77t-42 -67t-69 -26zM417 39q27 0 47 22t29.5 56.5t14 66t4.5 60.5q0 89 -57 89q-27 0 -47 -22t-30 -56.5t-14.5 -66.5t-4.5 -60
q0 -89 58 -89z" />
    <glyph glyph-name="uni2113" unicode="&#x2113;" horiz-adv-x="327" 
d="M141 258l-22 -127q-17 -96 55 -96q20 0 45 7l-7 -42q-27 -9 -53 -9q-63 0 -80 37.5t-4 107.5l16 90q-25 -15 -54 -30l-12 36q45 26 75 46l55 316q13 73 42 103.5t75 30.5t65.5 -28.5t19.5 -92.5q0 -110 -53.5 -193.5t-162.5 -155.5zM202 601l-51 -288q78 57 119.5 126
t41.5 170q0 45 -10.5 63t-33.5 18q-51 0 -66 -89z" />
    <glyph glyph-name="uni2116" unicode="&#x2116;" horiz-adv-x="749" 
d="M23 0l125 710h57l96 -528q12 -71 13 -109h2q6 73 20 154l86 483h46l-125 -710h-53l-97 535q-12 69 -13 108h-3q-4 -62 -17 -136l-90 -507h-47zM574 169q-57 0 -95 36.5t-23 122.5l22 127q6 32 14 55.5t23.5 49t43 39.5t64.5 14q58 0 95 -36t22 -122l-21 -127
q-6 -32 -14 -56t-23.5 -49.5t-43 -39.5t-64.5 -14zM575 209q47 0 68.5 32t29.5 85l24 132q10 62 -12.5 88.5t-62.5 26.5q-47 0 -68.5 -31.5t-30.5 -84.5l-23 -133q-11 -62 12 -88.5t63 -26.5zM393 0l7 42h272l-8 -42h-271z" />
    <glyph glyph-name="trademark" unicode="&#x2122;" horiz-adv-x="560" 
d="M99 304l66 373h-84l5 33h208l-5 -33h-85l-66 -373h-39zM250 304l71 406h53l21 -279q2 -35 2 -79h1q14 45 28 79l119 279h53l-71 -406h-34l45 256q4 20 12.5 60.5t11.5 54.5h-2q-5 -17 -35 -90l-119 -281h-35l-19 281q-4 46 -4 90h-2q-7 -56 -17 -115l-45 -256h-34z" />
    <glyph glyph-name="uni2126" unicode="&#x2126;" horiz-adv-x="495" 
d="M357 0h-119l31 215q135 36 135 333q0 72 -20.5 102t-60.5 30q-162 0 -162 -336q0 -113 53 -129l-45 -215h-120l8 43h81l31 146q-56 21 -56 146q0 386 217 386q59 0 89.5 -40t30.5 -132q0 -312 -145 -360l-21 -146h81z" />
    <glyph glyph-name="estimated" unicode="&#x212e;" horiz-adv-x="509" 
d="M217 -12q-169 0 -169 180q0 51 6 111.5t25.5 141.5t50.5 145t87 109t129 45q96 0 137 -61.5t19 -181.5l-20 -114h-315l-49 -289q27 -51 107 -51q70 0 117.5 48t80.5 151l33 -7q-69 -227 -239 -227zM174 396h226l42 244q-30 47 -103 47q-78 0 -124 -66z" />
    <glyph glyph-name="uni2153" unicode="&#x2153;" horiz-adv-x="508" 
d="M-9 -17l460 744h40l-460 -744h-40zM104 364l50 282q-17 -25 -56 -25h-11l6 39h11q22 0 40.5 13.5t27.5 36.5h33l-61 -346h-40zM346 -7q-43 0 -65.5 24.5t-11.5 79.5l41 3q-16 -75 37 -75q62 0 62 88q0 51 -38 51h-21l5 31h20q31 0 46 24.5t15 54.5q0 49 -44 49
q-51 0 -55 -72l-40 4q6 99 95 99q85 0 85 -78q0 -35 -17.5 -62.5t-54.5 -34.5q44 -6 44 -70q0 -116 -103 -116z" />
    <glyph glyph-name="uni2154" unicode="&#x2154;" horiz-adv-x="565" 
d="M48 -17l460 744h40l-460 -744h-40zM47 364l4 27q184 163 184 245q0 49 -45 49q-55 0 -53 -80l-40 4q-1 48 23.5 78.5t71.5 30.5q84 0 84 -77q0 -91 -169 -244h128l-7 -33h-181zM403 -7q-43 0 -65.5 24.5t-11.5 79.5l41 3q-16 -75 37 -75q62 0 62 88q0 51 -38 51h-21l5 31
h20q31 0 46 24.5t15 54.5q0 49 -44 49q-51 0 -55 -72l-40 4q6 99 95 99q85 0 85 -78q0 -35 -17.5 -62.5t-54.5 -34.5q44 -6 44 -70q0 -116 -103 -116z" />
    <glyph glyph-name="oneeighth" unicode="&#x215b;" horiz-adv-x="515" 
d="M451 727h40l-460 -744h-40zM154 646q-17 -25 -56 -25h-11l6 39h11q22 0 40.5 13.5t27.5 36.5h33l-61 -346h-40zM479 276q0 -68 -70 -92q46 -27 46 -84q0 -44 -22.5 -76t-76.5 -32q-89 0 -89 85q0 84 80 103q-43 23 -43 75q0 43 23.5 71t70.5 28q81 0 81 -78zM386 195
q54 22 54 81q0 50 -43 50q-30 0 -42 -22.5t-12 -51.5q0 -36 35 -53zM356 23q57 0 57 78q0 45 -34 63l-10 5q-60 -16 -60 -87q0 -59 47 -59z" />
    <glyph glyph-name="threeeighths" unicode="&#x215c;" horiz-adv-x="578" 
d="M514 727h40l-460 -744h-40zM145 357q-43 0 -65.5 24.5t-11.5 79.5l41 3q-16 -75 37 -75q62 0 62 88q0 51 -38 51h-21l5 31h20q31 0 46 24.5t15 54.5q0 49 -44 49q-51 0 -55 -72l-40 4q6 99 95 99q85 0 85 -78q0 -35 -17.5 -62.5t-54.5 -34.5q44 -6 44 -70
q0 -116 -103 -116zM542 276q0 -68 -70 -92q46 -27 46 -84q0 -44 -22.5 -76t-76.5 -32q-89 0 -89 85q0 84 80 103q-43 23 -43 75q0 43 23.5 71t70.5 28q81 0 81 -78zM449 195q54 22 54 81q0 50 -43 50q-30 0 -42 -22.5t-12 -51.5q0 -36 35 -53zM419 23q57 0 57 78
q0 45 -34 63l-10 5q-60 -16 -60 -87q0 -59 47 -59z" />
    <glyph glyph-name="fiveeighths" unicode="&#x215d;" horiz-adv-x="577" 
d="M513 727h40l-460 -744h-40zM148 357q-96 0 -80 94l39 3q-11 -66 44 -66q34 0 49 38t15 80q0 36 -11 48t-30 12q-42 0 -53 -49l-39 3l43 191h155l-5 -33h-122l-28 -119q16 37 64 37q65 0 65 -90q0 -26 -5 -49.5t-15.5 -47.5t-32.5 -38t-53 -14zM541 276q0 -68 -70 -92
q46 -27 46 -84q0 -44 -22.5 -76t-76.5 -32q-89 0 -89 85q0 84 80 103q-43 23 -43 75q0 43 23.5 71t70.5 28q81 0 81 -78zM448 195q54 22 54 81q0 50 -43 50q-30 0 -42 -22.5t-12 -51.5q0 -36 35 -53zM418 23q57 0 57 78q0 45 -34 63l-10 5q-60 -16 -60 -87q0 -59 47 -59z
" />
    <glyph glyph-name="seveneighths" unicode="&#x215e;" horiz-adv-x="526" 
d="M462 727h40l-460 -744h-40zM133 383l-3 -19h-42l1 12q13 91 44 159t97 144h-137l5 32h178l-6 -28q-65 -73 -96 -143.5t-41 -156.5zM490 276q0 -68 -70 -92q46 -27 46 -84q0 -44 -22.5 -76t-76.5 -32q-89 0 -89 85q0 84 80 103q-43 23 -43 75q0 43 23.5 71t70.5 28
q81 0 81 -78zM397 195q54 22 54 81q0 50 -43 50q-30 0 -42 -22.5t-12 -51.5q0 -36 35 -53zM367 23q57 0 57 78q0 45 -34 63l-10 5q-60 -16 -60 -87q0 -59 47 -59z" />
    <glyph glyph-name="arrowleft" unicode="&#x2190;" horiz-adv-x="728" 
d="M672 313h-463l-14 -80l-114 97l149 97l-14 -80h462z" />
    <glyph glyph-name="arrowup" unicode="&#x2191;" horiz-adv-x="330" 
d="M98 -35l115 654h-81l122 131l74 -131h-80l-115 -654h-35z" />
    <glyph glyph-name="arrowright" unicode="&#x2192;" horiz-adv-x="728" 
d="M84 347h463l14 80l114 -97l-149 -97l14 80h-462z" />
    <glyph glyph-name="arrowdown" unicode="&#x2193;" horiz-adv-x="330" 
d="M269 745l-115 -654h81l-122 -131l-74 131h80l115 654h35z" />
    <glyph glyph-name="arrowboth" unicode="&#x2194;" horiz-adv-x="735" 
d="M548 313h-339l-14 -80l-114 97l149 97l-14 -80h338l14 80l113 -97l-147 -97z" />
    <glyph glyph-name="arrowupdn" unicode="&#x2195;" horiz-adv-x="330" 
d="M40 93h80l92 526h-80l122 131l74 -131h-81l-92 -526h81l-121 -131z" />
    <glyph glyph-name="uni2196" unicode="&#x2196;" horiz-adv-x="847" 
d="M199 616l-79 -67l28 161h161l-80 -69l510 -619l-29 -26z" />
    <glyph glyph-name="uni2197" unicode="&#x2197;" horiz-adv-x="661" 
d="M568 617l-511 -620l-29 26l510 619l-80 69h161l28 -161z" />
    <glyph glyph-name="uni2198" unicode="&#x2198;" horiz-adv-x="847" 
d="M687 105l79 67l-28 -161h-161l80 69l-510 619l29 26z" />
    <glyph glyph-name="uni2199" unicode="&#x2199;" horiz-adv-x="661" 
d="M132 105l511 620l29 -26l-510 -619l80 -69h-161l-28 161z" />
    <glyph glyph-name="uni21A9" unicode="&#x21a9;" horiz-adv-x="713" 
d="M195 233l-114 97l149 97l-14 -80h273q164 0 164 187q0 105 -113 105h-144l6 34h148q142 0 142 -132q0 -107 -53 -167.5t-152 -60.5h-278z" />
    <glyph glyph-name="uni21AA" unicode="&#x21aa;" horiz-adv-x="714" 
d="M512 233l14 80h-277q-139 0 -139 143q0 107 51.5 162t151.5 55h148l-6 -34h-144q-163 0 -163 -179q0 -113 111 -113h273l15 80l113 -97z" />
    <glyph glyph-name="uni21B0" unicode="&#x21b0;" horiz-adv-x="676" 
d="M528 0l103 583h-374l-14 -80l-114 97l148 97l-14 -80h410l-109 -617h-36z" />
    <glyph glyph-name="uni21B1" unicode="&#x21b1;" horiz-adv-x="675" 
d="M59 0h-36l109 617h410l14 80l114 -97l-148 -97l14 80h-374z" />
    <glyph glyph-name="uni21B2" unicode="&#x21b2;" horiz-adv-x="675" 
d="M653 710h36l-108 -617h-410l-14 -80l-115 97l149 97l-14 -80h374z" />
    <glyph glyph-name="uni21B3" unicode="&#x21b3;" horiz-adv-x="675" 
d="M184 710l-103 -583h374l15 80l113 -97l-147 -97l14 80h-410l108 617h36z" />
    <glyph glyph-name="uni21B4" unicode="&#x21b4;" horiz-adv-x="669" 
d="M603 710l-106 -604h79l-120 -131l-75 131h80l100 570h-419l6 34h455z" />
    <glyph glyph-name="uni21BB" unicode="&#x21bb;" horiz-adv-x="715" 
d="M551 352l13 73q23 132 -21 194.5t-138 62.5q-129 0 -206.5 -103t-77.5 -329t164 -226q63 0 114.5 31t78.5 77l25 -21q-32 -53 -92 -88t-132 -35q-197 0 -197 260q0 124 26 216.5t72 147t104 80.5t128 26q108 0 162 -73t28 -220l-13 -73h77l-121 -131l-75 131h81z" />
    <glyph glyph-name="uni21C4" unicode="&#x21c4;" horiz-adv-x="786" 
d="M671 417h-443l-15 -82l-113 98l148 98l-14 -82h443zM586 244l14 81l115 -97l-149 -98l15 81h-443l5 33h443z" />
    <glyph glyph-name="uni21C5" unicode="&#x21c5;" horiz-adv-x="540" 
d="M323 53l99 566h-80l121 131l75 -131h-80l-100 -566h-35zM115 -40l-75 131h80l100 568h35l-100 -568h81z" />
    <glyph glyph-name="partialdiff" unicode="&#x2202;" horiz-adv-x="429" 
d="M237 719q144 0 144 -271q0 -71 -9 -142t-31 -147t-67 -123.5t-108 -47.5q-111 0 -111 157q0 52 10.5 104.5t30.5 100.5t56 78t81 30q68 0 100 -61q1 18 1 50q0 230 -107 230q-17 0 -37 -7l-3 40q24 9 50 9zM172 29q37 0 66.5 28.5t47 77t28.5 101t16 112.5q-25 70 -90 70
q-49 0 -82 -49t-44.5 -106.5t-11.5 -114.5q0 -119 70 -119z" />
    <glyph glyph-name="emptyset" unicode="&#x2205;" horiz-adv-x="363" 
d="M361 515l-44 -62q14 -33 14 -86q0 -70 -16 -131.5t-55 -105t-94 -43.5q-56 0 -86 34l-34 -48l-26 19l42 59q-14 34 -14 88q0 71 16 132t54.5 104.5t94.5 43.5q57 0 86 -36l36 50zM92 238q0 -23 3 -41l177 248q-19 35 -61 35q-39 0 -67.5 -40t-40 -93t-11.5 -109zM287 368
q0 22 -3 39l-176 -248q19 -34 60 -34q39 0 67.5 40t40 93.5t11.5 109.5z" />
    <glyph glyph-name="uni2206" unicode="&#x2206;" horiz-adv-x="373" 
d="M-25 0l264 710h61l11 -710h-336zM260 651l-224 -612h227z" />
    <glyph glyph-name="product" unicode="&#x220f;" horiz-adv-x="411" 
d="M243 -88l133 749h-196l-132 -749h-47l140 793h290l-140 -793h-48z" />
    <glyph glyph-name="summation" unicode="&#x2211;" horiz-adv-x="555" 
d="M57 -88l7 35l263 380l-122 344l6 34h294l-7 -42h-240l120 -336l-260 -373h267l-8 -42h-320z" />
    <glyph glyph-name="minus" unicode="&#x2212;" horiz-adv-x="398" 
d="M44 309l8 41h329l-7 -41h-330z" />
    <glyph glyph-name="radical" unicode="&#x221a;" horiz-adv-x="368" 
d="M-3 288h113l20 -311l288 757h45l-321 -828h-48l-27 344h-77z" />
    <glyph glyph-name="infinity" unicode="&#x221e;" horiz-adv-x="451" 
d="M352 448q71 0 71 -93q0 -65 -31.5 -105.5t-78.5 -40.5q-59 0 -81 77q-50 -77 -107 -77q-71 0 -71 94q0 65 32 105t79 40q60 0 80 -77q48 77 107 77zM133 248q26 0 46 20t42 60q-17 82 -60 82q-28 0 -48 -27.5t-20 -74.5q0 -60 40 -60zM316 248q29 0 48.5 28t19.5 74
q0 60 -40 60q-45 0 -88 -80q9 -40 21.5 -61t38.5 -21z" />
    <glyph glyph-name="integral" unicode="&#x222b;" horiz-adv-x="316" 
d="M0 -116q-20 0 -30 2l7 41q18 -2 25 -2q40 0 62 21.5t30 68.5l103 581q23 136 139 136q8 0 32 -2l-8 -41q-20 2 -27 2q-41 0 -60.5 -23t-28.5 -75l-102 -581q-24 -128 -142 -128z" />
    <glyph glyph-name="approxequal" unicode="&#x2248;" horiz-adv-x="496" 
d="M349 375q-25 0 -73 18.5t-74 18.5q-46 0 -82 -34l8 46q34 32 81 32q31 0 76.5 -18t69.5 -18q44 0 80 34l-8 -46q-33 -33 -78 -33zM319 212q-25 0 -72.5 18t-73.5 18q-48 0 -82 -34l8 46q37 33 80 33q31 0 77 -18.5t70 -18.5q46 0 80 34l-8 -46q-34 -32 -79 -32z" />
    <glyph glyph-name="notequal" unicode="&#x2260;" horiz-adv-x="498" 
d="M436 383h-124l-59 -108h164l-7 -40h-178l-68 -126h-33l68 126h-119l7 40h133l58 108h-171l6 40h186l61 113h34l-61 -113h110z" />
    <glyph glyph-name="lessequal" unicode="&#x2264;" horiz-adv-x="507" 
d="M370 137l-258 186l6 40l324 186l-8 -50l-274 -159l218 -158zM78 65h289l-7 -42h-289z" />
    <glyph glyph-name="greaterequal" unicode="&#x2265;" horiz-adv-x="507" 
d="M155 525l258 -186l-6 -40l-324 -186l8 50l274 159l-218 158zM74 41h289l-8 -41h-289z" />
    <glyph glyph-name="uni2460" unicode="&#x2460;" horiz-adv-x="663" 
d="M318 -14q-46 0 -86 10t-78.5 34t-61.5 63.5t-34 97.5t4 137l18 108q7 41 18.5 78t35 76.5t55 68t81.5 47t112 18.5q57 0 105.5 -16.5t90 -53t58.5 -106.5t1 -166l-17 -108q-7 -42 -19 -79t-35 -77t-55 -68t-81.5 -46t-111.5 -18zM320 17q53 0 96 16.5t71.5 42t49.5 61.5
t32 70t17 71l17 107q12 90 0.5 149t-48.5 94.5t-79.5 50t-93.5 14.5q-53 0 -96 -16.5t-71.5 -42t-49.5 -61t-32 -69.5t-18 -72l-18 -107q-15 -72 -5 -125t30 -88t54.5 -56t69.5 -30t74 -9zM308 182l50 282q-17 -25 -56 -25h-11l6 39h11q22 0 40.5 13.5t27.5 36.5h33
l-61 -346h-40z" />
    <glyph glyph-name="uni2461" unicode="&#x2461;" horiz-adv-x="663" 
d="M318 -14q-46 0 -86 10t-78.5 34t-61.5 63.5t-34 97.5t4 137l18 108q7 41 18.5 78t35 76.5t55 68t81.5 47t112 18.5q57 0 105.5 -16.5t90 -53t58.5 -106.5t1 -166l-17 -108q-7 -42 -19 -79t-35 -77t-55 -68t-81.5 -46t-111.5 -18zM320 17q53 0 96 16.5t71.5 42t49.5 61.5
t32 70t17 71l17 107q12 90 0.5 149t-48.5 94.5t-79.5 50t-93.5 14.5q-53 0 -96 -16.5t-71.5 -42t-49.5 -61t-32 -69.5t-18 -72l-18 -107q-15 -72 -5 -125t30 -88t54.5 -56t69.5 -30t74 -9zM227 181l4 27q184 163 184 245q0 49 -45 49q-55 0 -53 -80l-40 4q-1 48 23.5 78.5
t71.5 30.5q84 0 84 -77q0 -91 -169 -244h128l-7 -33h-181z" />
    <glyph glyph-name="uni2462" unicode="&#x2462;" horiz-adv-x="663" 
d="M318 -14q-46 0 -86 10t-78.5 34t-61.5 63.5t-34 97.5t4 137l18 108q7 41 18.5 78t35 76.5t55 68t81.5 47t112 18.5q57 0 105.5 -16.5t90 -53t58.5 -106.5t1 -166l-17 -108q-7 -42 -19 -79t-35 -77t-55 -68t-81.5 -46t-111.5 -18zM320 17q53 0 96 16.5t71.5 42t49.5 61.5
t32 70t17 71l17 107q12 90 0.5 149t-48.5 94.5t-79.5 50t-93.5 14.5q-53 0 -96 -16.5t-71.5 -42t-49.5 -61t-32 -69.5t-18 -72l-18 -107q-15 -72 -5 -125t30 -88t54.5 -56t69.5 -30t74 -9zM326 175q-43 0 -65.5 24.5t-11.5 79.5l41 3q-16 -75 37 -75q62 0 62 88q0 51 -38 51
h-21l5 31h20q31 0 46 24.5t15 54.5q0 49 -44 49q-51 0 -55 -72l-40 4q6 99 95 99q85 0 85 -78q0 -35 -17.5 -62.5t-54.5 -34.5q44 -6 44 -70q0 -116 -103 -116z" />
    <glyph glyph-name="uni2463" unicode="&#x2463;" horiz-adv-x="663" 
d="M318 -14q-46 0 -86 10t-78.5 34t-61.5 63.5t-34 97.5t4 137l18 108q7 41 18.5 78t35 76.5t55 68t81.5 47t112 18.5q57 0 105.5 -16.5t90 -53t58.5 -106.5t1 -166l-17 -108q-7 -42 -19 -79t-35 -77t-55 -68t-81.5 -46t-111.5 -18zM320 17q53 0 96 16.5t71.5 42t49.5 61.5
t32 70t17 71l17 107q12 90 0.5 149t-48.5 94.5t-79.5 50t-93.5 14.5q-53 0 -96 -16.5t-71.5 -42t-49.5 -61t-32 -69.5t-18 -72l-18 -107q-15 -72 -5 -125t30 -88t54.5 -56t69.5 -30t74 -9zM425 266h-42l-15 -84h-38l14 84h-123l4 28l160 235h44l-41 -234h42zM388 489
l-129 -194h91z" />
    <glyph glyph-name="uni2464" unicode="&#x2464;" horiz-adv-x="663" 
d="M318 -14q-46 0 -86 10t-78.5 34t-61.5 63.5t-34 97.5t4 137l18 108q7 41 18.5 78t35 76.5t55 68t81.5 47t112 18.5q57 0 105.5 -16.5t90 -53t58.5 -106.5t1 -166l-17 -108q-7 -42 -19 -79t-35 -77t-55 -68t-81.5 -46t-111.5 -18zM320 17q53 0 96 16.5t71.5 42t49.5 61.5
t32 70t17 71l17 107q12 90 0.5 149t-48.5 94.5t-79.5 50t-93.5 14.5q-53 0 -96 -16.5t-71.5 -42t-49.5 -61t-32 -69.5t-18 -72l-18 -107q-15 -72 -5 -125t30 -88t54.5 -56t69.5 -30t74 -9zM326 179q-96 0 -80 94l39 3q-11 -66 44 -66q34 0 49 38t15 80q0 36 -11 48t-30 12
q-42 0 -53 -49l-39 3l43 191h155l-5 -33h-122l-28 -119q16 37 64 37q65 0 65 -90q0 -26 -5 -49.5t-15.5 -47.5t-32.5 -38t-53 -14z" />
    <glyph glyph-name="uni2465" unicode="&#x2465;" horiz-adv-x="663" 
d="M382 724q57 0 105.5 -16.5t90 -53t58.5 -106.5t1 -166l-17 -108q-7 -42 -19 -79t-35 -77t-55 -68t-81.5 -46t-111.5 -18q-46 0 -86 10t-78.5 34t-61.5 63.5t-34 97.5t4 137l18 108q7 41 18.5 78t35 76.5t55 68t81.5 47t112 18.5zM603 385q12 90 0.5 149t-48.5 94.5
t-79.5 50t-93.5 14.5q-53 0 -96 -16.5t-71.5 -42t-49.5 -61t-32 -69.5t-18 -72l-18 -107q-15 -72 -5 -125t30 -88t54.5 -56t69.5 -30t74 -9q53 0 96 16.5t71.5 42t49.5 61.5t32 70t17 71zM369 536q44 0 63.5 -23.5t12.5 -66.5l-39 -4q10 64 -37 64q-55 0 -77 -126
q26 33 62 33q77 0 77 -95q0 -22 -4 -43.5t-14 -45.5t-32 -39t-53 -15q-84 0 -84 102q0 31 4.5 68t16 83.5t39 77t65.5 30.5zM345 384q-17 0 -29.5 -9t-28.5 -31q-5 -37 -5 -68q0 -70 48 -70q18 0 31 12t18.5 31.5t7.5 35.5t2 32q0 67 -44 67z" />
    <glyph glyph-name="uni2466" unicode="&#x2466;" horiz-adv-x="663" 
d="M318 -14q-46 0 -86 10t-78.5 34t-61.5 63.5t-34 97.5t4 137l18 108q7 41 18.5 78t35 76.5t55 68t81.5 47t112 18.5q57 0 105.5 -16.5t90 -53t58.5 -106.5t1 -166l-17 -108q-7 -42 -19 -79t-35 -77t-55 -68t-81.5 -46t-111.5 -18zM320 17q53 0 96 16.5t71.5 42t49.5 61.5
t32 70t17 71l17 107q12 90 0.5 149t-48.5 94.5t-79.5 50t-93.5 14.5q-53 0 -96 -16.5t-71.5 -42t-49.5 -61t-32 -69.5t-18 -72l-18 -107q-15 -72 -5 -125t30 -88t54.5 -56t69.5 -30t74 -9zM287 182l1 12q13 91 44 159t97 144h-137l5 32h178l-6 -28q-65 -73 -96 -143.5
t-41 -156.5l-3 -19h-42z" />
    <glyph glyph-name="uni2467" unicode="&#x2467;" horiz-adv-x="663" 
d="M382 724q57 0 105.5 -16.5t90 -53t58.5 -106.5t1 -166l-17 -108q-7 -42 -19 -79t-35 -77t-55 -68t-81.5 -46t-111.5 -18q-46 0 -86 10t-78.5 34t-61.5 63.5t-34 97.5t4 137l18 108q7 41 18.5 78t35 76.5t55 68t81.5 47t112 18.5zM603 385q12 90 0.5 149t-48.5 94.5
t-79.5 50t-93.5 14.5q-53 0 -96 -16.5t-71.5 -42t-49.5 -61t-32 -69.5t-18 -72l-18 -107q-15 -72 -5 -125t30 -88t54.5 -56t69.5 -30t74 -9q53 0 96 16.5t71.5 42t49.5 61.5t32 70t17 71zM456 458q0 -68 -70 -92q46 -27 46 -84q0 -44 -22.5 -76t-76.5 -32q-89 0 -89 85
q0 84 80 103q-43 23 -43 75q0 43 23.5 71t70.5 28q81 0 81 -78zM363 377q54 22 54 81q0 50 -43 50q-30 0 -42 -22.5t-12 -51.5q0 -36 35 -53zM333 205q57 0 57 78q0 45 -34 63l-10 5q-60 -16 -60 -87q0 -59 47 -59z" />
    <glyph glyph-name="uni2468" unicode="&#x2468;" horiz-adv-x="663" 
d="M382 724q57 0 105.5 -16.5t90 -53t58.5 -106.5t1 -166l-17 -108q-7 -42 -19 -79t-35 -77t-55 -68t-81.5 -46t-111.5 -18q-46 0 -86 10t-78.5 34t-61.5 63.5t-34 97.5t4 137l18 108q7 41 18.5 78t35 76.5t55 68t81.5 47t112 18.5zM603 385q12 90 0.5 149t-48.5 94.5
t-79.5 50t-93.5 14.5q-53 0 -96 -16.5t-71.5 -42t-49.5 -61t-32 -69.5t-18 -72l-18 -107q-15 -72 -5 -125t30 -88t54.5 -56t69.5 -30t74 -9q53 0 96 16.5t71.5 42t49.5 61.5t32 70t17 71zM372 536q83 0 83 -109q0 -31 -4 -65t-14.5 -80.5t-37.5 -76.5t-66 -30
q-42 0 -63.5 20.5t-14.5 73.5l39 4q-12 -68 39 -68q58 0 76 143q-26 -39 -65 -39q-73 0 -73 84q0 55 24 99t77 44zM354 339q35 0 59 47q2 20 2 44q0 42 -11.5 59t-33.5 17q-31 0 -44.5 -35t-13.5 -73q0 -59 42 -59z" />
    <glyph glyph-name="uni24EA" unicode="&#x24ea;" horiz-adv-x="663" 
d="M318 -14q-46 0 -86 10t-78.5 34t-61.5 63.5t-34 97.5t4 137l18 108q7 41 18.5 78t35 76.5t55 68t81.5 47t112 18.5q57 0 105.5 -16.5t90 -53t58.5 -106.5t1 -166l-17 -108q-7 -42 -19 -79t-35 -77t-55 -68t-81.5 -46t-111.5 -18zM320 17q53 0 96 16.5t71.5 42t49.5 61.5
t32 70t17 71l17 107q12 90 0.5 149t-48.5 94.5t-79.5 50t-93.5 14.5q-53 0 -96 -16.5t-71.5 -42t-49.5 -61t-32 -69.5t-18 -72l-18 -107q-15 -72 -5 -125t30 -88t54.5 -56t69.5 -30t74 -9zM326 175q-82 0 -82 111q0 36 5.5 74.5t19 80.5t40.5 68.5t65 26.5q82 0 82 -112
q0 -37 -6 -76t-19 -80t-40.5 -67t-64.5 -26zM328 207q24 0 42.5 24t27.5 60.5t13.5 70t4.5 61.5q0 81 -44 81q-25 0 -43.5 -25t-27.5 -62.5t-13 -70.5t-4 -60q0 -79 44 -79z" />
    <glyph glyph-name="uni24FF" unicode="&#x24ff;" horiz-adv-x="662" 
d="M315 -12q-47 0 -88 11t-78 35.5t-59.5 65t-32 98.5t5.5 136l17 102q7 42 19.5 79.5t36.5 76.5t56 67t82 45.5t111 17.5q57 0 106 -17t89.5 -54t56.5 -108t0 -167l-17 -102q-10 -56 -29 -102.5t-53 -90t-91 -68.5t-132 -25zM325 175q37 0 64.5 26t40.5 67t19 80t6 76
q0 112 -82 112q-37 0 -64.5 -26.5t-40.5 -68.5t-19 -80.5t-6 -74.5q0 -111 82 -111zM327 208q-43 0 -43 78q0 27 4 60t13 70.5t27.5 62.5t43.5 25q43 0 43 -81q0 -28 -4.5 -61.5t-13.5 -69.5t-27.5 -60t-42.5 -24z" />
    <glyph glyph-name="lozenge" unicode="&#x25ca;" horiz-adv-x="531" 
d="M240 -17h-44l-80 372l211 372h43l83 -372zM341 677l-177 -322l63 -322l178 322z" />
    <glyph glyph-name="circle" unicode="&#x25cb;" horiz-adv-x="663" 
d="M318 -14q-46 0 -86 10t-78.5 34t-61.5 63.5t-34 97.5t4 137l18 108q7 41 18.5 78t35 76.5t55 68t81.5 47t112 18.5q57 0 105.5 -16.5t90 -53t58.5 -106.5t1 -166l-17 -108q-7 -42 -19 -79t-35 -77t-55 -68t-81.5 -46t-111.5 -18zM320 17q53 0 96 16.5t71.5 42t49.5 61.5
t32 70t17 71l17 107q12 90 0.5 149t-48.5 94.5t-79.5 50t-93.5 14.5q-53 0 -96 -16.5t-71.5 -42t-49.5 -61t-32 -69.5t-18 -72l-18 -107q-15 -72 -5 -125t30 -88t54.5 -56t69.5 -30t74 -9z" />
    <glyph glyph-name="uni2776" unicode="&#x2776;" horiz-adv-x="662" 
d="M315 -12q-47 0 -88 11t-78 35.5t-59.5 65t-32 98.5t5.5 136l17 102q7 42 19.5 79.5t36.5 76.5t56 67t82 45.5t111 17.5q57 0 106 -17t89.5 -54t56.5 -108t0 -167l-17 -102q-10 -56 -29 -102.5t-53 -90t-91 -68.5t-132 -25zM307 182h41l61 346h-33q-9 -22 -28 -36t-41 -14
h-10l-6 -39h11q36 0 56 25z" />
    <glyph glyph-name="uni2777" unicode="&#x2777;" horiz-adv-x="662" 
d="M315 -12q-47 0 -88 11t-78 35.5t-59.5 65t-32 98.5t5.5 136l17 102q7 42 19.5 79.5t36.5 76.5t56 67t82 45.5t111 17.5q57 0 106 -17t89.5 -54t56.5 -108t0 -167l-17 -102q-10 -56 -29 -102.5t-53 -90t-91 -68.5t-132 -25zM227 181h182l6 33h-127q82 75 125.5 134
t43.5 110q0 77 -85 77q-47 0 -71.5 -30.5t-23.5 -78.5l40 -4q-2 80 53 80q45 0 45 -49q0 -81 -183 -245z" />
    <glyph glyph-name="uni2778" unicode="&#x2778;" horiz-adv-x="662" 
d="M315 -12q-47 0 -88 11t-78 35.5t-59.5 65t-32 98.5t5.5 136l17 102q7 42 19.5 79.5t36.5 76.5t56 67t82 45.5t111 17.5q57 0 106 -17t89.5 -54t56.5 -108t0 -167l-17 -102q-10 -56 -29 -102.5t-53 -90t-91 -68.5t-132 -25zM326 175q103 0 103 116q0 63 -44 70
q37 8 54.5 35t17.5 62q0 78 -85 78q-89 0 -95 -99l40 -4q4 72 54 72q45 0 45 -49q0 -30 -15 -54.5t-46 -24.5h-21l-4 -31h21q38 0 38 -51q0 -88 -62 -88q-53 0 -37 75l-41 -3q-12 -55 11 -79.5t66 -24.5z" />
    <glyph glyph-name="uni2779" unicode="&#x2779;" horiz-adv-x="662" 
d="M315 -12q-47 0 -88 11t-78 35.5t-59.5 65t-32 98.5t5.5 136l17 102q7 42 19.5 79.5t36.5 76.5t56 67t82 45.5t111 17.5q57 0 106 -17t89.5 -54t56.5 -108t0 -167l-17 -102q-10 -56 -29 -102.5t-53 -90t-91 -68.5t-132 -25zM330 182h39l14 84h42l5 30h-42l41 233h-44
l-160 -235l-4 -28h123zM259 296l129 193l-38 -193h-91z" />
    <glyph glyph-name="uni277A" unicode="&#x277a;" horiz-adv-x="662" 
d="M315 -12q-47 0 -88 11t-78 35.5t-59.5 65t-32 98.5t5.5 136l17 102q7 42 19.5 79.5t36.5 76.5t56 67t82 45.5t111 17.5q57 0 106 -17t89.5 -54t56.5 -108t0 -167l-17 -102q-10 -56 -29 -102.5t-53 -90t-91 -68.5t-132 -25zM326 178q31 0 53 14.5t32.5 38t15.5 47.5t5 50
q0 89 -65 89q-47 0 -64 -36l28 119h122l5 32h-155l-43 -191l39 -3q11 50 53 50q19 0 30 -12.5t11 -48.5q0 -42 -15 -80t-49 -38q-55 0 -44 67l-40 -3q-15 -95 81 -95z" />
    <glyph glyph-name="uni277B" unicode="&#x277b;" horiz-adv-x="662" 
d="M315 -12q-47 0 -88 11t-78 35.5t-59.5 65t-32 98.5t5.5 136l17 102q7 42 19.5 79.5t36.5 76.5t56 67t82 45.5t111 17.5q57 0 106 -17t89.5 -54t56.5 -108t0 -167l-17 -102q-10 -56 -29 -102.5t-53 -90t-91 -68.5t-132 -25zM333 175q31 0 53 15t32 39t14 45.5t4 43.5
q0 95 -77 95q-35 0 -62 -33q25 126 77 126q47 0 37 -64l39 4q7 43 -12.5 66.5t-63.5 23.5q-38 0 -65.5 -30.5t-39 -77t-16 -83.5t-4.5 -68q0 -102 84 -102zM335 206q-36 0 -45 42t2 95q29 41 58 41q44 0 44 -67q0 -16 -2 -32t-7.5 -35.5t-18.5 -31.5t-31 -12z" />
    <glyph glyph-name="uni277C" unicode="&#x277c;" horiz-adv-x="662" 
d="M315 -12q-47 0 -88 11t-78 35.5t-59.5 65t-32 98.5t5.5 136l17 102q7 42 19.5 79.5t36.5 76.5t56 67t82 45.5t111 17.5q57 0 106 -17t89.5 -54t56.5 -108t0 -167l-17 -102q-10 -56 -29 -102.5t-53 -90t-91 -68.5t-132 -25zM284 182h42l3 20q20 169 138 299l5 28h-178
l-5 -32h138q-67 -76 -98 -144t-44 -159z" />
    <glyph glyph-name="uni277D" unicode="&#x277d;" horiz-adv-x="662" 
d="M315 -12q-47 0 -88 11t-78 35.5t-59.5 65t-32 98.5t5.5 136l17 102q7 42 19.5 79.5t36.5 76.5t56 67t82 45.5t111 17.5q57 0 106 -17t89.5 -54t56.5 -108t0 -167l-17 -102q-10 -56 -29 -102.5t-53 -90t-91 -68.5t-132 -25zM332 174q54 0 76.5 32t22.5 76q0 57 -46 84
q71 22 71 92q0 43 -24 60.5t-58 17.5q-46 0 -70 -28t-24 -71q0 -53 43 -75q-80 -19 -80 -103q0 -85 89 -85zM362 377l-7 4q-36 17 -36 53q0 29 12.5 51.5t42.5 22.5q42 0 42 -50q0 -59 -54 -81zM332 205q-47 0 -47 59q0 70 61 87l9 -5q35 -19 35 -63q0 -31 -13 -54.5
t-45 -23.5z" />
    <glyph glyph-name="uni277E" unicode="&#x277e;" horiz-adv-x="662" 
d="M315 -12q-47 0 -88 11t-78 35.5t-59.5 65t-32 98.5t5.5 136l17 102q7 42 19.5 79.5t36.5 76.5t56 67t82 45.5t111 17.5q57 0 106 -17t89.5 -54t56.5 -108t0 -167l-17 -102q-10 -56 -29 -102.5t-53 -90t-91 -68.5t-132 -25zM332 175q39 0 66 30t37.5 76.5t14.5 80.5t4 65
q0 109 -83 109q-36 0 -60 -24t-32.5 -54.5t-8.5 -63.5q0 -85 73 -85q41 0 66 41q-18 -144 -77 -144q-50 0 -39 67l-39 -4q-7 -53 14.5 -73.5t63.5 -20.5zM353 339q-42 0 -42 59q0 39 13.5 73.5t44.5 34.5q22 0 33.5 -16.5t12 -43t-1.5 -59.5q-24 -48 -60 -48z" />
    <glyph glyph-name="uniE000" unicode="&#xe000;" horiz-adv-x="676" 
d="M234 710h456l-6 -34h-419l-108 -570h80l-122 -131l-73 131h79z" />
    <glyph glyph-name="i.loclTRK" horiz-adv-x="165" 
d="M111 583l19 110h51l-19 -110h-51zM15 0l88 500h47l-88 -500h-47z" />
    <glyph glyph-name="dollar.tf" 
d="M327 708q127 -16 101 -164l-8 -44l-48 -6l9 48q21 112 -61 127l-50 -286l29 -27q48 -47 64 -89t7 -101l-7 -42q-24 -138 -161 -138h-2l-16 -93h-29l17 95q-62 10 -92 57t-14 133l9 43l48 6l-11 -57q-13 -64 7 -99.5t60 -43.5l57 325l-30 28q-43 41 -58.5 80.5t-4.5 95.5
l4 24q11 60 46 94.5t106 35.5l15 88h29zM242 409l3 -3l47 265q-48 -2 -69.5 -26t-29.5 -65l-7 -35q-14 -73 56 -136zM263 327l-2 2l-54 -304q51 1 76 27t33 74l7 45q7 45 -6.5 81t-53.5 75z" />
    <glyph glyph-name="cent.tf" 
d="M293 511q119 -15 94 -154l-6 -32l-45 -4l5 34q18 108 -54 118l-79 -447q44 4 64.5 31.5t30.5 80.5l9 47l44 -6l-10 -47q-14 -68 -47.5 -105.5t-96.5 -38.5l-14 -77h-29l14 79q-121 17 -90 187l30 170q15 82 51 123t101 42l14 82h29zM125 163q-22 -123 54 -135l79 446
q-81 -7 -100 -126z" />
    <glyph glyph-name="sterling.tf" 
d="M315 710q62 0 90.5 -40t17.5 -121l-6 -50l-49 -5l7 56q9 61 -9 91t-55 30q-31 0 -52 -16t-31 -47t-13.5 -64t-3.5 -80q0 -39 2 -85h102l-6 -36h-95v-19q0 -123 -35 -185t-106 -96q27 9 51 9q22 0 58.5 -11t60.5 -11q39 0 60 26t27 94l44 -7q-13 -158 -135 -158
q-30 0 -72.5 13t-67.5 13q-33 0 -79 -15l-8 39q41 22 66.5 41.5t47 51t31 77.5t9.5 111v27h-80l6 36h72q-2 58 -2 89q0 115 33.5 178.5t119.5 63.5z" />
    <glyph glyph-name="florin.tf" 
d="M414 710q22 0 43 -8l-8 -41q-11 7 -36 7q-42 0 -61 -24t-40 -92l-42 -139h102l-7 -37h-106l-159 -526h-46l158 526h-84l7 37h88l40 133q27 91 56.5 127.5t94.5 36.5z" />
    <glyph glyph-name="yen.tf" 
d="M475 695l-203 -378h115l-7 -35h-120l-16 -96h120l-7 -35h-119l-27 -151h-48l27 151h-119l7 35h118l16 96h-118l7 35h112l-68 378h50l46 -289q3 -22 5 -58h2q13 34 26 58l147 289h54z" />
    <glyph glyph-name="Euro.tf" 
d="M326 710q56 0 93 -34t27 -107l-4 -25l-49 -11l5 29q7 55 -14.5 81t-57.5 26q-55 0 -82.5 -37t-39.5 -112l-14 -79h144l-6 -35h-144l-18 -102h144l-6 -35h-144l-16 -91q-14 -84 11.5 -118.5t72.5 -34.5q79 0 98 109l7 38l43 -10l-6 -35q-24 -143 -143 -143q-31 0 -56.5 9
t-48 31.5t-28.5 61t1 98.5l15 85h-50l7 35h49l19 102h-50l6 35h50l13 73q17 96 54.5 146t117.5 50z" />
    <glyph glyph-name="perthousand.tf" 
d="M158 432q-37 0 -61.5 22.5t-13.5 78.5l13 77q9 48 29 74.5t66 26.5q37 0 61.5 -22.5t13.5 -78.5l-13 -77q-9 -48 -29 -74.5t-66 -26.5zM118 532q-13 -70 42 -70q28 0 39.5 18.5t17.5 51.5l14 80q13 69 -42 69q-28 0 -39.5 -18.5t-17.5 -51.5zM45 310l392 177l-7 -36
l-391 -176zM342 268q36 0 60 -22.5t15 -78.5l-14 -77q-9 -49 -29 -75t-66 -26q-47 0 -65 32q-22 -32 -69 -32q-37 0 -61 22.5t-14 78.5l14 77q8 48 28.5 74.5t66.5 26.5q47 0 65 -33q23 33 69 33zM176 19q29 0 40.5 18.5t17.5 51.5l13 79q13 69 -41 69q-29 0 -40.5 -18
t-17.5 -51l-13 -80q-13 -69 41 -69zM381 168q13 69 -42 69q-28 0 -39.5 -18t-17.5 -51l-14 -80q-11 -69 42 -69q28 0 40 19t17 51z" />
    <glyph glyph-name="zero.zero" horiz-adv-x="399" 
d="M268 710q68 0 107.5 -45t21.5 -150l-59 -335q-8 -43 -17 -72t-27.5 -60t-50.5 -47t-78 -16q-68 0 -107.5 45t-21.5 150l59 335q8 43 17 72t27.5 60t50.5 47t78 16zM84 178q-5 -26 -5 -55l274 468q-11 78 -88 78q-25 0 -44.5 -9t-32 -23t-21.5 -35t-14 -40t-9 -44z
M290 177l59 340q0 1 0.5 4t0.5 4l-261 -448l-7 16q15 -67 86 -67q40 0 67 24.5t37 53.5t18 73z" />
    <glyph glyph-name="zero.tf" 
d="M198 -15q-65 0 -102.5 44t-20.5 147l60 343q7 42 16 70t26.5 59t48 46.5t74.5 15.5q65 0 102.5 -44t20.5 -147l-60 -343q-7 -42 -16 -70t-26.5 -59t-48 -46.5t-74.5 -15.5zM202 26q29 0 50 13t33 37t18 45.5t11 51.5l60 348q5 48 2.5 77t-18.5 45t-30.5 21t-32.5 5
q-29 0 -50 -13t-33 -37t-18 -45.5t-11 -51.5l-60 -348q-14 -85 12.5 -116.5t66.5 -31.5z" />
    <glyph glyph-name="one.tf" 
d="M227 43h121l-8 -43h-303l8 43h134l99 560q-15 -23 -43 -37.5t-57 -14.5h-26l8 46h21q38 0 70 26t51 72h40z" />
    <glyph glyph-name="two.tf" 
d="M40 0l8 41q140 161 226 280q79 114 96 206l6 30q10 54 -8.5 83t-63.5 29q-50 0 -73 -31.5t-35 -88.5q-3 -15 -10 -62l-47 7q6 40 10 57q15 76 50 117.5t108 41.5q70 0 100.5 -41t15.5 -121l-3 -18q-23 -116 -98 -220q-32 -44 -213 -265h234l-7 -45h-296z" />
    <glyph glyph-name="three.tf" 
d="M198 -15q-67 0 -105 40.5t-23 129.5l7 42l49 6l-9 -47q-21 -130 81 -130q52 0 74 29.5t34 92.5l11 61q24 133 -72 133h-32l8 44h30q45 0 72.5 27.5t40.5 96.5l8 48q19 111 -78 111q-29 0 -49.5 -11t-30.5 -30.5t-15 -38t-9 -39.5q-1 -6 -1 -8l-8 -43l-46 7l6 40
q23 164 153 164q151 0 125 -154l-8 -49q-20 -122 -113 -143q88 -21 66 -157l-10 -61q-14 -79 -49 -120t-107 -41z" />
    <glyph glyph-name="four.tf" 
d="M230 0l31 172h-216l6 36l289 487h60l-86 -483h77l-7 -40h-76l-31 -172h-47zM96 212h172l60 345q8 44 17 87h-2q-20 -49 -45 -90l-156 -270q-25 -44 -46 -72z" />
    <glyph glyph-name="five.tf" 
d="M200 -15q-68 0 -104 39t-21 121l7 41l48 5l-8 -44q-12 -65 13 -93t67 -28q54 0 77.5 36.5t35.5 104.5l20 111q14 77 -8.5 109.5t-62.5 32.5q-38 0 -68.5 -28.5t-42.5 -80.5l-43 5l83 379h244l-7 -44h-205l-61 -266q34 76 114 76q136 0 104 -183l-19 -110
q-15 -86 -51.5 -134.5t-111.5 -48.5z" />
    <glyph glyph-name="six.tf" 
d="M299 710q61 0 98 -34t23 -115l-5 -30l-49 -8l6 33q11 61 -11.5 88t-63.5 27q-52 0 -76.5 -39t-37.5 -111l-22 -125q41 65 116 65q22 0 41.5 -6.5t39 -25.5t24.5 -52.5t-1 -87.5l-22 -127q-13 -84 -48 -130.5t-110 -46.5q-23 0 -42.5 5t-39.5 18t-31 36t-16 58.5t5 84.5
l58 332q8 43 17.5 73t27.5 59t47.5 44t71.5 15zM263 420q-73 0 -113 -89l-27 -154q-15 -86 12.5 -118.5t71.5 -32.5q50 0 72 35.5t33 100.5l22 129q11 71 -11.5 100t-59.5 29z" />
    <glyph glyph-name="seven.tf" 
d="M136 0l5 34q27 178 89 327t173 290h-246l8 44h294l-7 -35q-115 -143 -172 -284.5t-84 -317.5l-10 -58h-50z" />
    <glyph glyph-name="eight.tf" 
d="M296 710q62 0 101 -34.5t25 -110.5l-11 -66q-9 -57 -35.5 -87t-74.5 -46q88 -44 69 -155l-13 -70q-5 -32 -12.5 -54t-23 -46.5t-45 -37t-71.5 -12.5q-30 0 -55 7t-47.5 23.5t-32 50.5t-0.5 81l12 67q12 63 38 95.5t83 49.5q-78 43 -61 145l10 60q23 140 144 140zM374 566
q10 58 -15 81.5t-65 23.5q-26 0 -44 -9t-28 -26.5t-15 -32.5t-9 -38l-10 -59q-15 -88 61 -118l14 -6q47 15 69 39t31 77zM322 213q17 99 -62 130l-20 7q-53 -15 -76.5 -42.5t-33.5 -85.5l-13 -77q-11 -62 17 -88t73 -26q52 0 73 28.5t30 81.5z" />
    <glyph glyph-name="nine.tf" 
d="M293 710q69 0 107.5 -44t20.5 -151l-61 -347q-6 -35 -9.5 -51t-15 -46.5t-26 -45.5t-42 -27.5t-64.5 -12.5q-29 0 -52.5 7t-44 23t-29 46.5t-1.5 72.5l5 34l49 10l-7 -42q-10 -62 14 -87t65 -25q25 0 43.5 9.5t28.5 20t18.5 35.5t11 36.5t7.5 42.5l28 154
q-38 -62 -105 -62q-25 0 -47 8t-42 27t-26 51.5t1 81.5l20 114q6 35 14.5 60.5t25 52t45 41t68.5 14.5zM375 522q14 82 -12.5 114.5t-70.5 32.5q-50 0 -72.5 -34.5t-32.5 -95.5l-21 -113q-12 -70 12 -98t61 -28q75 0 112 90z" />
    <glyph glyph-name="gcommaaccent.ss01" horiz-adv-x="361" 
d="M307 738l10 -21q-30 -22 -38 -74h26l-11 -61h-53l10 59q13 70 56 97zM107 -208q-56 0 -89 30.5t-22 93.5l3 20h46l-3 -15q-6 -40 11.5 -64.5t54.5 -24.5q21 0 36.5 7.5t24.5 17.5t16 27t9.5 29t5.5 31l27 149q-36 -105 -111 -105q-51 0 -78.5 43.5t-9.5 144.5l27 153
q15 83 47.5 133t95.5 50q84 0 89 -103l23 91h35l-97 -552q-5 -28 -8.5 -42t-14 -39.5t-23.5 -39t-38 -24.5t-57 -11zM134 29q82 0 110 156l23 132q13 73 -2.5 113.5t-60.5 40.5q-33 0 -55 -23t-31 -51t-16 -68l-28 -157q-6 -47 -4.5 -75t14.5 -43t24.5 -20t25.5 -5z" />
    <glyph glyph-name="gdotaccent.ss01" horiz-adv-x="361" 
d="M247 583l19 110h51l-19 -110h-51zM107 -208q-56 0 -89 30.5t-22 93.5l3 20h46l-3 -15q-6 -40 11.5 -64.5t54.5 -24.5q21 0 36.5 7.5t24.5 17.5t16 27t9.5 29t5.5 31l27 149q-36 -105 -111 -105q-51 0 -78.5 43.5t-9.5 144.5l27 153q15 83 47.5 133t95.5 50q84 0 89 -103
l23 91h35l-97 -552q-5 -28 -8.5 -42t-14 -39.5t-23.5 -39t-38 -24.5t-57 -11zM134 29q82 0 110 156l23 132q13 73 -2.5 113.5t-60.5 40.5q-33 0 -55 -23t-31 -51t-16 -68l-28 -157q-6 -47 -4.5 -75t14.5 -43t24.5 -20t25.5 -5z" />
    <glyph glyph-name="Iacute_J.loclNLD" horiz-adv-x="424" 
d="M160 753l60 97h46l-65 -97h-41zM407 753l60 97h46l-65 -97h-41zM72 0h-49l125 710h49zM341 120q-12 -68 -43 -99.5t-86 -31.5q-35 0 -63 11l8 46q31 -11 56 -11q36 0 54 23t27 74l102 578h48z" />
    <glyph glyph-name="iacute_j.loclNLD" horiz-adv-x="329" 
d="M120 582l77 140h50l-85 -140h-42zM284 582l77 140h50l-85 -140h-42zM15 0l88 500h47l-88 -500h-47zM117 -201q-22 0 -40 6l7 42q12 -4 28 -4q40 0 48 47l108 610h46l-109 -619q-14 -82 -88 -82z" />
    <glyph glyph-name="g.ss01" horiz-adv-x="361" 
d="M107 -208q-56 0 -89 30.5t-22 93.5l3 20h46l-3 -15q-6 -40 11.5 -64.5t54.5 -24.5q21 0 36.5 7.5t24.5 17.5t16 27t9.5 29t5.5 31l27 149q-36 -105 -111 -105q-51 0 -78.5 43.5t-9.5 144.5l27 153q15 83 47.5 133t95.5 50q84 0 89 -103l23 91h35l-97 -552
q-5 -28 -8.5 -42t-14 -39.5t-23.5 -39t-38 -24.5t-57 -11zM134 29q82 0 110 156l23 132q13 73 -2.5 113.5t-60.5 40.5q-33 0 -55 -23t-31 -51t-16 -68l-28 -157q-6 -47 -4.5 -75t14.5 -43t24.5 -20t25.5 -5z" />
    <glyph glyph-name="gbreve.ss01" horiz-adv-x="361" 
d="M229 686q-6 -74 52 -74q30 0 46 17t23 57h39q-15 -109 -110 -109q-103 0 -89 109h39zM107 -208q-56 0 -89 30.5t-22 93.5l3 20h46l-3 -15q-6 -40 11.5 -64.5t54.5 -24.5q21 0 36.5 7.5t24.5 17.5t16 27t9.5 29t5.5 31l27 149q-36 -105 -111 -105q-51 0 -78.5 43.5
t-9.5 144.5l27 153q15 83 47.5 133t95.5 50q84 0 89 -103l23 91h35l-97 -552q-5 -28 -8.5 -42t-14 -39.5t-23.5 -39t-38 -24.5t-57 -11zM134 29q82 0 110 156l23 132q13 73 -2.5 113.5t-60.5 40.5q-33 0 -55 -23t-31 -51t-16 -68l-28 -157q-6 -47 -4.5 -75t14.5 -43
t24.5 -20t25.5 -5z" />
    <glyph glyph-name="gcircumflex.ss01" horiz-adv-x="361" 
d="M375 582h-43l-33 109l-72 -109h-46l96 140h51zM107 -208q-56 0 -89 30.5t-22 93.5l3 20h46l-3 -15q-6 -40 11.5 -64.5t54.5 -24.5q21 0 36.5 7.5t24.5 17.5t16 27t9.5 29t5.5 31l27 149q-36 -105 -111 -105q-51 0 -78.5 43.5t-9.5 144.5l27 153q15 83 47.5 133t95.5 50
q84 0 89 -103l23 91h35l-97 -552q-5 -28 -8.5 -42t-14 -39.5t-23.5 -39t-38 -24.5t-57 -11zM134 29q82 0 110 156l23 132q13 73 -2.5 113.5t-60.5 40.5q-33 0 -55 -23t-31 -51t-16 -68l-28 -157q-6 -47 -4.5 -75t14.5 -43t24.5 -20t25.5 -5z" />
    <glyph glyph-name="g.sups.ss01" horiz-adv-x="317" 
d="M148 159q-45 0 -71 22t-19 70l2 13h41l-2 -10q-5 -32 9 -48t41 -16q25 0 40 13.5t20 28t9 38.5l18 96q-28 -64 -84 -64q-39 0 -62 30.5t-9 103.5l21 117q11 60 35 95.5t74 35.5q67 0 70 -75l17 66h33l-71 -400q-5 -26 -10 -42.5t-17 -35.5t-33 -28.5t-52 -9.5zM167 335
q63 0 82 108l19 101q19 107 -50 107q-35 0 -51.5 -26.5t-24.5 -71.5l-20 -119q-17 -99 45 -99z" />
    <glyph glyph-name="a.sups" horiz-adv-x="283" 
d="M137 301q-69 0 -69 82q0 60 33 94t92 41l56 6l8 46q8 46 -3 63.5t-39 17.5t-42 -19.5t-22 -65.5h-44q11 63 37 90.5t73 27.5q49 0 72 -27t10 -95l-27 -153q-11 -65 -12 -99h-41q1 20 7 66q-22 -75 -89 -75zM154 334q61 0 78 95l12 68l-43 -5q-48 -5 -68 -36.5t-20 -68.5
q0 -53 41 -53z" />
    <glyph glyph-name="b.sups" horiz-adv-x="323" 
d="M201 301q-67 0 -75 71l-16 -62h-36l93 529h44l-39 -218q15 31 34.5 47t50.5 16q93 0 60 -192q-17 -100 -41 -145.5t-75 -45.5zM191 336q35 0 50.5 33.5t30.5 124.5q14 68 8 102.5t-15 43.5t-26 9q-63 0 -81 -105l-18 -103q-9 -53 5 -79t46 -26z" />
    <glyph glyph-name="c.sups" horiz-adv-x="278" 
d="M168 301q-24 0 -40 7.5t-30 29t-14 60t8 100.5q18 105 45.5 145.5t80.5 40.5q49 0 74 -29t12 -105l-45 -5q18 105 -41 105q-33 0 -49.5 -31t-31.5 -121q-28 -163 31 -163q34 0 48 22.5t26 83.5l42 -7q-14 -71 -40 -102t-76 -31z" />
    <glyph glyph-name="d.sups" horiz-adv-x="322" 
d="M151 301q-95 0 -60 193q19 102 43.5 146t76.5 44q63 0 68 -69l40 224h43l-93 -529h-41l11 63q-31 -72 -88 -72zM169 336q61 0 81 106l18 101q18 106 -49 106q-36 0 -52.5 -34.5t-31.5 -121.5q-27 -157 34 -157z" />
    <glyph glyph-name="e.sups" horiz-adv-x="280" 
d="M219 684q53 0 75.5 -32t11.5 -89l-12 -70h-159q-14 -99 -5.5 -128.5t39.5 -29.5q27 0 44 21.5t28 80.5l41 -6q-13 -71 -40 -100.5t-73 -29.5q-55 0 -75.5 44t-0.5 156q18 104 45.5 143.5t80.5 39.5zM263 571q14 83 -46 83q-32 0 -47.5 -27t-30.5 -107h115z" />
    <glyph glyph-name="f.sups" horiz-adv-x="203" 
d="M267 675l-6 -32h-64l-58 -333h-43l58 333h-50l5 32h51l16 89q15 80 86 80q20 0 34 -6l-6 -34q-10 3 -25 3q-37 0 -46 -47l-16 -85h64z" />
    <glyph glyph-name="g.sups" horiz-adv-x="273" 
d="M331 725q11 0 18 -3l-5 -37q-8 4 -21 4q-31 0 -44 -28q27 -31 15 -104q-11 -62 -34.5 -94t-75.5 -32q-22 0 -36 5q-28 -9 -28 -38q0 -21 33 -30l46 -11q77 -18 64 -101q-17 -97 -123 -97q-55 0 -81.5 26t-18.5 73q10 62 72 79q-32 14 -32 46q0 45 53 60q-40 27 -28 113
q10 63 34 95.5t77 32.5q33 0 51 -13q16 54 64 54zM252 556q19 99 -38 99q-32 0 -45.5 -24t-22.5 -75q-17 -97 39 -97q32 0 45 23t22 74zM180 320l-47 10q-2 0 -3 1q-39 -17 -47 -69q-12 -73 62 -73q37 0 54.5 17t22.5 51q3 25 -5 41t-37 22z" />
    <glyph glyph-name="h.sups" horiz-adv-x="306" 
d="M74 310l93 529h44l-41 -230q28 75 90 75q29 0 48.5 -16t19.5 -53q0 -20 -5 -46l-46 -259h-44l46 261q4 20 4 34q0 44 -43 44q-62 0 -83 -113l-39 -226h-44z" />
    <glyph glyph-name="i.sups" horiz-adv-x="152" 
d="M149 734l14 84h46l-14 -84h-46zM76 310l64 365h42l-64 -365h-42z" />
    <glyph glyph-name="j.sups" horiz-adv-x="169" 
d="M149 734l14 84h46l-15 -84h-45zM31 163q-20 0 -34 6l7 35q9 -3 21 -3q32 0 37 35l78 439h43l-79 -445q-12 -67 -73 -67z" />
    <glyph glyph-name="k.sups" horiz-adv-x="289" 
d="M350 675l-113 -134l53 -231h-44l-42 201l-65 -80l-21 -121h-44l93 529h44l-62 -353l152 189h49z" />
    <glyph glyph-name="l.sups" horiz-adv-x="171" 
d="M211 839l-93 -529h-44l93 529h44z" />
    <glyph glyph-name="m.sups" horiz-adv-x="437" 
d="M71 310l64 365h42l-11 -60q13 32 31 50.5t50 18.5q59 0 63 -69q26 69 81 69q67 0 67 -76q0 -20 -4 -39l-45 -259h-45l46 259q4 24 4 32q0 48 -40 48q-52 0 -71 -105l-42 -234h-43l46 258q3 20 3 32q0 49 -38 49q-54 0 -75 -118l-39 -221h-44z" />
    <glyph glyph-name="n.sups" horiz-adv-x="302" 
d="M71 310l64 365h42l-12 -68q15 38 35 57.5t54 19.5q69 0 69 -75q0 -14 -3 -35l-47 -264h-43l48 269q2 9 2 23q0 47 -43 47q-63 0 -83 -114l-39 -225h-44z" />
    <glyph glyph-name="o.sups" horiz-adv-x="306" 
d="M170 301q-24 0 -40.5 7t-31 27.5t-15 57.5t7.5 98q20 110 46 151.5t85 41.5q24 0 40.5 -7t31 -27.5t15 -57.5t-7.5 -98q-20 -110 -46 -151.5t-85 -41.5zM171 335q37 0 53 32.5t33 126.5q7 42 8 72.5t-2 46t-11 24.5t-15 11t-16 2q-37 0 -53 -32.5t-33 -126.5
q-7 -42 -8 -72.5t2 -46t11 -24.5t15 -11t16 -2z" />
    <glyph glyph-name="p.sups" horiz-adv-x="319" 
d="M46 168l90 507h41l-11 -60q29 69 87 69q94 0 61 -193q-18 -100 -42 -145t-75 -45q-31 0 -49.5 18t-22.5 50l-35 -201h-44zM186 336q35 0 51 32.5t32 122.5q7 42 8.5 72t-1.5 46.5t-10.5 25.5t-14.5 11.5t-18 2.5q-59 0 -78 -104l-18 -104q-10 -52 4 -78.5t45 -26.5z" />
    <glyph glyph-name="q.sups" horiz-adv-x="319" 
d="M201 168l36 203q-30 -70 -86 -70q-95 0 -59 195q18 100 42.5 144t76.5 44q67 0 72 -73l16 64h35l-89 -507h-44zM169 336q63 0 81 106l18 101q9 49 -3 77.5t-45 28.5q-36 0 -52.5 -34.5t-31.5 -120.5q-28 -158 33 -158z" />
    <glyph glyph-name="r.sups" horiz-adv-x="198" 
d="M161 590q32 92 92 92q10 0 13 -1l-8 -46q-8 2 -16 2q-32 0 -52 -26q-30 -40 -39 -97l-36 -204h-44l64 365h41z" />
    <glyph glyph-name="s.sups" horiz-adv-x="270" 
d="M165 301q-110 0 -85 120l44 6q-10 -41 -1 -67.5t44 -26.5q28 0 43.5 19.5t15.5 53.5q0 43 -41 69l-21 14q-51 30 -51 92q0 44 23.5 73.5t75.5 29.5q104 0 82 -114l-43 -5q19 88 -40 88q-55 0 -55 -67q0 -43 38 -69l21 -14q55 -35 55 -93q0 -53 -27 -81t-78 -28z" />
    <glyph glyph-name="t.sups" horiz-adv-x="219" 
d="M93 644l5 31h45l16 87l44 15l-17 -102h65l-5 -31h-66l-43 -242q-9 -59 38 -59q7 0 19 2l-6 -37q-8 -2 -24 -2q-38 0 -58 22.5t-11 74.5l42 241h-44z" />
    <glyph glyph-name="u.sups" horiz-adv-x="303" 
d="M134 301q-70 0 -70 72q0 19 4 38l46 264h45l-48 -269q-2 -18 -2 -23q0 -46 41 -46q36 0 55 29t29 83l40 226h44l-65 -365h-41l12 67q-15 -38 -35.5 -57t-54.5 -19z" />
    <glyph glyph-name="v.sups" horiz-adv-x="279" 
d="M126 310l-22 365h44l9 -264q2 -34 -1 -55h3q5 19 18 55l102 264h47l-151 -365h-49z" />
    <glyph glyph-name="w.sups" horiz-adv-x="409" 
d="M112 310l-2 365h43l-7 -276q0 -15 -2 -43h2q5 23 13 43l97 276h46v-276q0 -7 -0.5 -21.5t-1.5 -21.5h1q5 24 13 43l91 276h44l-130 -365h-48v281q0 3 3 42h-2q-1 -4 -5 -19.5t-7 -22.5l-100 -281h-48z" />
    <glyph glyph-name="x.sups" horiz-adv-x="280" 
d="M42 310l117 193l-44 172h44l23 -111q6 -32 6 -35h1q3 8 10 20t9 16l60 110h47l-104 -174l48 -191h-45l-26 125q-5 19 -6 36h-2q-5 -13 -18 -36l-71 -125h-49z" />
    <glyph glyph-name="y.sups" horiz-adv-x="285" 
d="M52 164q-20 0 -29 4l6 37q10 -4 23 -4q40 0 61 52l20 52l-29 370h47l12 -271q0 -42 -2 -55h2q5 20 16 50l106 276h46l-175 -426q-22 -51 -45.5 -68t-58.5 -17z" />
    <glyph glyph-name="z.sups" horiz-adv-x="240" 
d="M54 341l192 299h-132l6 35h176l-5 -30l-192 -300h145l-6 -35h-189z" />
    <glyph glyph-name="g_g.liga.ss01" horiz-adv-x="722" 
d="M107 -208q-56 0 -89 30.5t-22 93.5l3 20h46l-3 -15q-6 -40 11.5 -64.5t54.5 -24.5q21 0 36.5 7.5t24.5 17.5t16 27t9.5 29t5.5 31l27 149q-36 -105 -111 -105q-51 0 -78.5 43.5t-9.5 144.5l27 153q15 83 47.5 133t95.5 50q84 0 89 -103l23 91h35l-97 -552
q-5 -28 -8.5 -42t-14 -39.5t-23.5 -39t-38 -24.5t-57 -11zM468 -208q-56 0 -89 30.5t-22 93.5l3 20h46l-3 -15q-6 -40 11.5 -64.5t54.5 -24.5q21 0 36.5 7.5t24.5 17.5t16 27t9.5 29t5.5 31l27 149q-36 -105 -111 -105q-51 0 -78.5 43.5t-9.5 144.5l27 153q15 83 47.5 133
t95.5 50q84 0 89 -103l23 91h35l-97 -552q-5 -28 -8.5 -42t-14 -39.5t-23.5 -39t-38 -24.5t-57 -11zM134 29q82 0 110 156l23 132q13 73 -2.5 113.5t-60.5 40.5q-33 0 -55 -23t-31 -51t-16 -68l-28 -157q-6 -47 -4.5 -75t14.5 -43t24.5 -20t25.5 -5zM495 29q82 0 110 156
l23 132q13 73 -2.5 113.5t-60.5 40.5q-33 0 -55 -23t-31 -51t-16 -68l-28 -157q-6 -47 -4.5 -75t14.5 -43t24.5 -20t25.5 -5z" />
    <glyph glyph-name="zero.case" horiz-adv-x="399" 
d="M165 -15q-68 0 -107 46t-21 153l60 344q6 34 12.5 58.5t19.5 53t30.5 46t46 29.5t65.5 12q68 0 107.5 -46t20.5 -153l-60 -344q-6 -34 -12.5 -58.5t-19.5 -53t-30.5 -46t-46 -29.5t-65.5 -12zM168 26q31 0 53.5 13t36 37.5t20.5 48t13 56.5l60 349q15 89 -11.5 122
t-71.5 33q-31 0 -53.5 -13t-35.5 -37.5t-20 -48t-13 -56.5l-61 -348q-15 -89 12 -122.5t71 -33.5z" />
    <glyph glyph-name="one.case" horiz-adv-x="266" 
d="M87 0l107 608q-27 -47 -96 -47h-23l8 46h18q85 0 119 103h40l-126 -710h-47z" />
    <glyph glyph-name="two.case" horiz-adv-x="357" 
d="M-15 0l7 42q139 159 229 287q45 63 68 111t31 100l5 31q18 114 -73 114q-51 0 -74.5 -32.5t-34.5 -90.5q-8 -40 -10 -63l-47 7q3 27 8 58q17 77 52 120t108 43q142 0 118 -164l-3 -20q-16 -107 -100 -225q-85 -119 -216 -272h235l-8 -46h-295z" />
    <glyph glyph-name="three.case" horiz-adv-x="365" 
d="M149 -15q-67 0 -104.5 40.5t-22.5 132.5l7 44l49 6l-9 -49q-22 -133 80 -133q52 0 74.5 30.5t33.5 94.5l11 63q25 136 -71 136h-32l9 45h30q45 0 72.5 28t39.5 99l9 49q11 65 -11.5 89.5t-65.5 24.5q-25 0 -44 -9.5t-29 -20.5t-18 -33.5t-10 -32.5t-6 -34l-7 -44l-46 7
l6 41q23 168 154 168q150 0 124 -158l-8 -50q-20 -125 -113 -146q89 -23 65 -161l-11 -63q-13 -80 -48 -122t-108 -42z" />
    <glyph glyph-name="four.case" horiz-adv-x="364" 
d="M333 176h-75l-31 -176h-47l31 176h-214l6 37l293 497h56l-87 -494h75zM285 574q9 55 17 86h-2q-10 -25 -42 -85l-170 -291q-25 -45 -41 -68h171z" />
    <glyph glyph-name="five.case" horiz-adv-x="366" 
d="M153 -15q-68 0 -103.5 39.5t-20.5 123.5l7 42l48 5l-8 -45q-12 -66 12.5 -95t66.5 -29q54 0 78 38t36 107l20 113q14 79 -8 112.5t-62 33.5q-38 0 -68.5 -29t-43.5 -83l-43 5l85 387h244l-7 -44h-206l-61 -272q34 78 114 78q58 0 89 -44.5t14 -143.5l-19 -113
q-15 -87 -52 -136.5t-112 -49.5z" />
    <glyph glyph-name="six.case" horiz-adv-x="379" 
d="M263 727q28 0 51 -7t43 -23t28 -47.5t1 -75.5l-6 -31l-49 -7l6 34q12 62 -11.5 89.5t-65.5 27.5q-52 0 -77.5 -40.5t-37.5 -113.5l-23 -131q43 70 117 70q23 0 42.5 -6.5t39.5 -26t24.5 -53.5t-1.5 -90l-21 -130q-15 -87 -50 -134t-110 -47q-30 0 -54 8.5t-47 31t-28 63
t3 104.5l60 340q7 43 17 74t28 60.5t48.5 45t72.5 15.5zM225 430q-74 0 -114 -92l-28 -157q-15 -88 12.5 -121.5t72.5 -33.5q51 0 74 37t33 102l22 133q12 74 -10.5 103t-61.5 29z" />
    <glyph glyph-name="seven.case" horiz-adv-x="325" 
d="M65 0l5 34q28 181 87.5 329.5t176.5 302.5h-244l9 44h292l-7 -35q-117 -148 -174.5 -293t-84.5 -323l-10 -59h-50z" />
    <glyph glyph-name="eight.case" horiz-adv-x="379" 
d="M257 727q63 0 101.5 -35.5t25.5 -113.5l-11 -67q-10 -59 -36.5 -89.5t-76.5 -46.5q89 -45 70 -159l-12 -72q-6 -33 -13.5 -55.5t-24 -47.5t-46 -37.5t-72.5 -12.5q-30 0 -55 7t-48 24.5t-32.5 52t-0.5 82.5l13 68q12 64 38 98t85 51q-81 43 -63 149l10 60q11 64 44 104
t104 40zM336 580q10 59 -15 83.5t-66 24.5q-27 0 -45.5 -9t-29 -27.5t-15.5 -34t-9 -39.5l-10 -60q-16 -91 62 -121l14 -6q49 15 71 39.5t31 80.5zM283 218q18 105 -64 133l-20 8q-55 -15 -78.5 -43t-33.5 -89l-14 -79q-10 -63 18 -90t74 -27q53 0 74.5 30t30.5 83z" />
    <glyph glyph-name="nine.case" horiz-adv-x="376" 
d="M249 727q69 0 107.5 -45.5t19.5 -154.5l-61 -355q-5 -29 -7 -37.5t-8.5 -34.5t-12.5 -36.5t-18.5 -29.5t-27 -27t-36 -15t-48.5 -7q-29 0 -53 7t-44.5 23t-29 47.5t-1.5 74.5l5 35l49 10l-7 -43q-10 -64 14.5 -89.5t64.5 -25.5q25 0 44 9.5t29.5 20.5t19 36t11 38t7.5 43
l28 159q-39 -64 -106 -64q-56 0 -92.5 40.5t-21.5 131.5l21 117q6 36 15 62t25.5 53.5t45 42t68.5 14.5zM330 535q16 84 -10.5 117.5t-71.5 33.5q-50 0 -73 -36.5t-34 -98.5l-20 -115q-13 -72 11 -100.5t62 -28.5q74 0 112 90z" />
    <glyph glyph-name="one.ss02.case" horiz-adv-x="297" 
d="M150 43h121l-7 -43h-303l8 43h134l101 575q-14 -23 -42 -37.5t-57 -14.5h-26l7 46h22q37 0 69.5 26.5t50.5 71.5h40z" />
    <glyph glyph-name="zero.tf.case" 
d="M198 -15q-65 0 -102.5 45t-19.5 150l61 352q6 33 12 57t18.5 52t29 45t44 29t62.5 12q65 0 102 -45t20 -150l-61 -352q-6 -33 -12 -57t-18.5 -52t-29 -45t-44 -29t-62.5 -12zM202 26q38 0 63 25.5t34 54.5t16 71l61 356q15 87 -11 119.5t-67 32.5q-29 0 -50 -13t-33 -38
t-18 -46.5t-12 -52.5l-61 -357q-6 -49 -3 -79t19 -46t30.5 -21.5t31.5 -5.5z" />
    <glyph glyph-name="one.tf.case" 
d="M227 44h121l-8 -44h-303l8 44h134l101 572q-15 -23 -43 -38t-57 -15h-26l8 47h21q38 0 70.5 27t51.5 73h40z" />
    <glyph glyph-name="two.tf.case" 
d="M40 0l8 42q149 172 228 287q80 117 97 210l5 32q21 114 -71 114q-50 0 -73 -32t-36 -91q-3 -13 -10 -63l-47 7q7 41 10 58q16 77 51 120t108 43q145 0 116 -166l-4 -19q-21 -116 -99 -224q-44 -64 -214 -272h235l-8 -46h-296z" />
    <glyph glyph-name="three.tf.case" 
d="M201 -15q-68 0 -105.5 40.5t-21.5 132.5l7 44l48 6l-8 -49q-22 -133 80 -133q52 0 74.5 30.5t33.5 94.5l11 63q25 136 -71 136h-32l8 45h31q44 0 71.5 28t40.5 99l9 49q11 65 -11.5 89.5t-65.5 24.5q-21 0 -37.5 -5t-27.5 -18t-18 -21.5t-12.5 -30t-6.5 -27.5t-5 -28
l-8 -44l-46 7l7 41q23 168 153 168q150 0 125 -158l-8 -50q-21 -125 -114 -146q89 -23 65 -161l-10 -63q-14 -80 -49 -122t-107 -42z" />
    <glyph glyph-name="four.tf.case" 
d="M230 0l31 176h-215l6 37l291 497h59l-87 -494h76l-7 -40h-76l-31 -176h-47zM96 216h172l62 354q7 41 17 88h-1q-14 -33 -46 -91l-158 -277q-28 -50 -46 -74z" />
    <glyph glyph-name="five.tf.case" 
d="M200 -15q-68 0 -103.5 39.5t-20.5 123.5l7 42l48 5l-8 -45q-12 -66 12.5 -95t66.5 -29q54 0 78 38t36 107l20 113q14 79 -8 112.5t-62 33.5q-38 0 -68.5 -29t-43.5 -83l-43 5l85 387h244l-7 -44h-206l-61 -272q34 78 114 78q136 0 103 -188l-19 -113q-15 -87 -52 -136.5
t-112 -49.5z" />
    <glyph glyph-name="six.tf.case" 
d="M303 727q27 0 49.5 -7t42 -23t27.5 -47.5t1 -75.5l-6 -31l-49 -7l6 34q12 62 -10.5 89.5t-63.5 27.5q-52 0 -77 -40.5t-37 -113.5l-23 -128q43 67 116 67q23 0 42 -6.5t38.5 -26t24 -53.5t-1.5 -90l-21 -130q-14 -86 -49 -133.5t-110 -47.5q-30 0 -53.5 8.5t-46 31
t-27.5 63t3 104.5l60 340q7 43 17 74t27.5 60.5t48 45t72.5 15.5zM265 430q-72 0 -113 -91l-28 -158q-15 -88 12 -121.5t71 -33.5q51 0 73.5 36.5t32.5 102.5l22 133q12 74 -10 103t-60 29z" />
    <glyph glyph-name="seven.tf.case" 
d="M136 0l5 34q28 182 90.5 334.5t173.5 297.5h-246l9 44h294l-7 -35q-117 -148 -174.5 -293t-84.5 -323l-10 -59h-50z" />
    <glyph glyph-name="eight.tf.case" 
d="M299 727q62 0 100.5 -35.5t24.5 -113.5l-11 -67q-9 -59 -35.5 -89.5t-75.5 -46.5q88 -43 69 -159l-13 -72q-5 -33 -12.5 -55.5t-23.5 -47.5t-45.5 -37.5t-71.5 -12.5q-30 0 -55 7t-47.5 24.5t-31.5 52t0 82.5l12 68q13 64 39 98t82 51q-78 42 -60 149l10 60
q23 144 145 144zM376 580q10 59 -14.5 83.5t-64.5 24.5q-26 0 -44.5 -9.5t-28.5 -27.5t-15 -33.5t-9 -39.5l-10 -60q-15 -91 60 -121l15 -6q47 15 69 39.5t31 80.5zM323 218q18 104 -62 133l-19 8q-54 -15 -77.5 -43t-33.5 -89l-13 -79q-11 -63 16.5 -90t72.5 -27
q52 0 73 29.5t30 83.5z" />
    <glyph glyph-name="nine.tf.case" 
d="M296 727q31 0 56 -8.5t46.5 -31.5t27 -61.5t-2.5 -98.5l-62 -355q-4 -25 -6.5 -36.5t-8.5 -35.5t-12.5 -36.5t-19 -30t-27 -26.5t-36 -15.5t-48.5 -6.5q-29 0 -52.5 7t-44 23t-29 47.5t-1.5 74.5l5 35l50 10l-7 -43q-10 -64 14 -89.5t64 -25.5q21 0 37.5 5t27.5 18t18 23
t12.5 32.5t8 32.5t6.5 36l28 159q-38 -64 -105 -64q-25 0 -47 8t-41.5 27.5t-25.5 53t1 83.5l20 117q6 36 15 62t25.5 53.5t45 42t68.5 14.5zM377 535q15 84 -11.5 117.5t-70.5 33.5q-50 0 -73 -36.5t-33 -98.5l-21 -115q-12 -72 11.5 -100.5t60.5 -28.5q74 0 113 92z" />
    <glyph glyph-name="zero.zero.case" horiz-adv-x="400" 
d="M271 727q68 0 107.5 -46t20.5 -153l-60 -344q-6 -34 -12.5 -58.5t-19.5 -53t-30.5 -46t-46 -29.5t-65.5 -12q-68 0 -107 46t-21 153l60 344q6 34 12.5 58.5t19.5 53t30.5 46t46 29.5t65.5 12zM146 530l-61 -348q-3 -15 -5 -44l274 470q-11 77 -86 77q-31 0 -53.5 -13
t-35.5 -37.5t-20 -48t-13 -56.5zM291 181l60 349q0 2 0.5 6.5t1.5 6.5l-267 -458q17 -59 82 -59q31 0 53.5 13t36 37.5t20.5 48t13 56.5z" />
    <glyph glyph-name="zero.tf.zero.case" 
d="M303 727q65 0 102 -45t20 -150l-61 -352q-6 -33 -12 -57t-18.5 -52t-29 -45t-44 -29t-62.5 -12q-65 0 -102.5 45t-19.5 150l61 352q6 33 12 57t18.5 52t29 45t44 29t62.5 12zM185 535l-61 -357q-4 -28 -4 -37l260 460q-6 84 -82 84q-29 0 -50 -13t-33 -38t-18 -46.5
t-12 -52.5zM315 177l61 355l-252 -446q16 -60 78 -60q38 0 63 25.5t34 54.5t16 71z" />
    <glyph glyph-name="zero.osf" horiz-adv-x="390" 
d="M156 -12q-153 0 -123 172l40 224q14 79 51.5 122.5t116.5 43.5q154 0 123 -172l-40 -224q-14 -79 -51 -122.5t-117 -43.5zM157 29q58 0 84 33.5t36 89.5l42 235q22 122 -79 122q-58 0 -83.5 -33t-35.5 -90l-42 -235q-23 -122 78 -122z" />
    <glyph glyph-name="one.osf" horiz-adv-x="360" 
d="M174 41h111l-7 -41h-271l7 41h112l74 421q-14 -21 -46 -33t-58 -12h-14l8 44h13q37 0 68.5 19.5t49.5 54.5h40z" />
    <glyph glyph-name="two.osf" horiz-adv-x="363" 
d="M-10 35q126 106 198 181q48 50 69.5 83.5t28.5 79.5l3 24q15 106 -75 106q-95 0 -103 -119q-2 -24 -2 -50l-46 6q-2 19 2 52q3 29 11 53.5t24.5 48t45.5 37t69 13.5q59 0 95.5 -33t26.5 -112l-3 -26q-6 -44 -28.5 -80t-67.5 -87q-56 -65 -181 -170h230l-7 -42h-296z" />
    <glyph glyph-name="three.osf" horiz-adv-x="365" 
d="M122 -165q-21 0 -40 3.5t-40 14t-32.5 28.5t-18.5 47t2 70l9 49l48 6l-10 -56q-7 -33 -1.5 -55t13 -35.5t22 -20t24.5 -8.5t22 -2q49 0 74 32.5t36 91.5l12 66q12 68 -13 96t-65 28h-27l7 42h23q49 0 78 34.5t38 88.5l7 40q19 114 -74 114q-53 0 -73.5 -31t-30.5 -92
l-8 -44l-46 7l7 42q6 34 14.5 58.5t25 49.5t45 38t68.5 13q63 0 99 -36.5t21 -120.5l-6 -39q-22 -114 -115 -140q94 -19 72 -149l-11 -67q-26 -163 -156 -163z" />
    <glyph glyph-name="four.osf" horiz-adv-x="363" 
d="M152 -150l33 186h-214l6 36l284 463h59l-81 -460h75l-7 -39h-75l-33 -186h-47zM21 75h171l57 323q10 52 17 77h-3q-24 -48 -48 -87l-140 -232q-30 -50 -54 -81z" />
    <glyph glyph-name="five.osf" horiz-adv-x="365" 
d="M126 -165q-66 0 -102.5 39t-21.5 121l7 42l49 5l-9 -45q-12 -64 13 -92.5t69 -28.5q28 0 47.5 10.5t31.5 33t18.5 43.5t12.5 54l18 101q14 77 -8 109.5t-61 32.5q-38 0 -68.5 -28t-42.5 -79l-44 5l84 377h242l-7 -44h-202l-61 -266q35 76 114 76q56 0 87.5 -43.5
t14.5 -139.5l-18 -100q-16 -87 -51.5 -135t-111.5 -48z" />
    <glyph glyph-name="six.osf" horiz-adv-x="379" 
d="M260 710q62 0 100 -34t24 -115l-6 -30l-49 -8l6 33q12 61 -12 88t-66 27q-52 0 -77 -39.5t-37 -110.5l-23 -128q41 68 117 68q23 0 42.5 -6.5t39.5 -25.5t25 -52.5t-1 -87.5l-21 -127q-14 -84 -49 -130.5t-110 -46.5q-30 0 -54 8t-47 30.5t-28.5 62t2.5 101.5l59 332
q7 43 16.5 73t27.5 59t48.5 44t72.5 15zM223 420q-74 0 -114 -92l-27 -151q-15 -86 12.5 -118.5t73.5 -32.5q51 0 73 35.5t33 100.5l22 129q11 72 -12 100.5t-61 28.5z" />
    <glyph glyph-name="seven.osf" horiz-adv-x="322" 
d="M41 -150l5 28q63 354 257 613h-244l8 44h291l-7 -35q-193 -249 -251 -598l-9 -52h-50z" />
    <glyph glyph-name="eight.osf" horiz-adv-x="379" 
d="M254 710q63 0 102 -34.5t26 -110.5l-11 -66q-9 -57 -35.5 -87t-76.5 -46q90 -44 70 -155l-12 -70q-6 -33 -13.5 -54.5t-23.5 -46t-45.5 -37t-72.5 -12.5q-30 0 -55 7t-48 23.5t-32.5 50.5t-0.5 81l12 67q11 62 37.5 95.5t84.5 50.5q-80 41 -63 144l10 60q11 62 43.5 101
t103.5 39zM334 566q10 58 -15.5 81.5t-66.5 23.5q-27 0 -45.5 -9t-28.5 -26.5t-15 -32.5t-9 -38l-10 -59q-16 -88 62 -118l15 -6q48 15 70.5 39t30.5 77zM282 213q17 99 -64 130l-21 8q-54 -15 -77.5 -42.5t-33.5 -86.5l-14 -77q-10 -62 18.5 -88t74.5 -26q53 0 74.5 29
t29.5 81z" />
    <glyph glyph-name="nine.osf" horiz-adv-x="375" 
d="M219 550q69 0 107 -44t20 -151l-59 -337q-16 -88 -36 -120q-36 -62 -122 -62q-63 0 -101.5 33.5t-26.5 110.5l5 28l48 10l-6 -36q-10 -59 14.5 -83t65.5 -24q30 0 50.5 11t31 32t16.5 43t11 50q1 5 1 8l28 156q-37 -60 -103 -60q-58 0 -94.5 39.5t-21.5 128.5l17 99
q6 34 15 60t25.5 52.5t45.5 41t69 14.5zM300 362q15 82 -11.5 114.5t-70.5 32.5q-50 0 -73.5 -35t-33.5 -95l-17 -98q-12 -70 12 -97.5t62 -27.5q73 0 110 85z" />
    <glyph glyph-name="one.ss02" horiz-adv-x="297" 
d="M151 43h121l-8 -43h-303l8 43h134l99 560q-15 -23 -43 -37.5t-57 -14.5h-26l8 46h21q38 0 70 26t51 72h40z" />
    <glyph glyph-name="zero.tosf" 
d="M193 -12q-154 0 -123 172l40 224q14 79 51 122.5t117 43.5q153 0 123 -172l-40 -224q-14 -79 -51.5 -122.5t-116.5 -43.5zM194 29q58 0 83.5 33t35.5 90l42 235q23 122 -78 122q-58 0 -84 -33.5t-36 -89.5l-42 -235q-22 -122 79 -122z" />
    <glyph glyph-name="one.tosf" 
d="M220 41h106l-8 -41h-259l8 41h105l75 421q-12 -21 -40.5 -33t-51.5 -12h-14l7 44h14q33 0 61 19.5t44 54.5h40z" />
    <glyph glyph-name="two.tosf" 
d="M42 35q120 100 198 181q49 51 70.5 84.5t27.5 78.5l3 24q15 106 -75 106q-95 0 -103 -119q-2 -24 -2 -50l-46 6q-2 19 2 52q3 29 11 53.5t24.5 48t45.5 37t69 13.5q59 0 95.5 -33t26.5 -112l-3 -26q-6 -44 -28.5 -80t-67.5 -87q-56 -65 -181 -170h230l-7 -42h-296z" />
    <glyph glyph-name="three.tosf" 
d="M171 -165q-21 0 -40 3.5t-40 14t-32.5 28.5t-18.5 47t3 70l8 49l48 6l-9 -56q-3 -28 -3 -47.5t8 -33t15.5 -21.5t20 -12t21 -5.5t17.5 -1.5q89 0 110 124l12 66q12 68 -13 96t-65 28h-27l7 42h24q49 0 77.5 34.5t37.5 88.5l7 40q21 114 -74 114q-53 0 -73.5 -31
t-30.5 -92l-8 -44l-46 7l7 42q6 34 14.5 58.5t25 49.5t45 38t68.5 13q63 0 99 -36.5t22 -120.5l-7 -39q-20 -113 -115 -140q95 -19 73 -149l-12 -67q-26 -163 -156 -163z" />
    <glyph glyph-name="four.tosf" 
d="M204 -150l31 178h-216l7 37l285 470h60l-82 -467h76l-7 -40h-76l-31 -178h-47zM71 68h171l59 336q10 54 16 77h-1q-17 -35 -47 -87l-150 -252q-23 -40 -48 -74z" />
    <glyph glyph-name="five.tosf" 
d="M173 -165q-66 0 -102.5 39t-21.5 121l7 42l49 5l-9 -45q-12 -64 13 -92.5t69 -28.5q28 0 47.5 10.5t31.5 33t18.5 43.5t12.5 54l18 101q14 77 -8 109.5t-61 32.5q-38 0 -68.5 -28t-42.5 -79l-44 5l84 377h248l-7 -44h-208l-61 -266q35 76 114 76q56 0 87.5 -43.5
t14.5 -139.5l-18 -100q-16 -87 -51.5 -135t-111.5 -48z" />
    <glyph glyph-name="six.tosf" 
d="M299 710q61 0 98 -34t23 -115l-5 -30l-49 -8l6 33q11 61 -11.5 88t-63.5 27q-52 0 -76.5 -39t-37.5 -111l-22 -125q41 65 116 65q22 0 41.5 -6.5t39 -25.5t24.5 -52.5t-1 -87.5l-22 -127q-13 -84 -48 -130.5t-110 -46.5q-23 0 -42.5 5t-39.5 18t-31 36t-16 58.5t5 84.5
l58 332q8 43 17.5 73t27.5 59t47.5 44t71.5 15zM263 420q-73 0 -113 -89l-27 -154q-15 -86 12.5 -118.5t71.5 -32.5q50 0 72 35.5t33 100.5l22 129q11 71 -11.5 100t-59.5 29z" />
    <glyph glyph-name="seven.tosf" 
d="M109 -150l5 28q31 174 93 320.5t164 292.5h-243l8 44h290l-6 -35q-192 -259 -251 -597l-9 -53h-51z" />
    <glyph glyph-name="eight.tosf" 
d="M296 710q62 0 101 -34.5t25 -110.5l-11 -66q-9 -57 -35.5 -87t-74.5 -46q88 -44 69 -155l-13 -70q-5 -32 -12.5 -54t-23 -46.5t-45 -37t-71.5 -12.5q-30 0 -55 7t-47.5 23.5t-32 50.5t-0.5 81l12 67q12 63 38 95.5t83 49.5q-78 43 -61 145l10 60q23 140 144 140zM374 566
q10 58 -15 81.5t-65 23.5q-26 0 -44 -9t-28 -26.5t-15 -32.5t-9 -38l-10 -59q-15 -88 61 -118l14 -6q47 15 69 39t31 77zM322 213q17 99 -62 130l-20 7q-53 -15 -76.5 -42.5t-33.5 -85.5l-13 -77q-11 -62 17 -88t73 -26q52 0 73 28.5t30 81.5z" />
    <glyph glyph-name="nine.tosf" 
d="M266 550q68 0 106.5 -44t20.5 -151l-59 -337q-5 -26 -6.5 -36t-8 -34.5t-13 -35.5t-18.5 -28.5t-26.5 -26t-36.5 -15t-49 -6.5q-63 0 -101 33.5t-26 110.5l4 28l49 10l-6 -36q-11 -59 14 -83t66 -24q25 0 43.5 9.5t28 19.5t18 35t11 36.5t8.5 43.5l28 156
q-37 -60 -103 -60q-57 0 -94 39.5t-21 128.5l16 99q6 34 15 60t25.5 52.5t45.5 41t69 14.5zM347 362q15 82 -11 114.5t-71 32.5q-50 0 -73 -35t-34 -95l-17 -98q-12 -70 12 -97.5t63 -27.5q72 0 109 85z" />
    <glyph glyph-name="zero.osf.zero" horiz-adv-x="390" 
d="M241 550q154 0 123 -172l-40 -224q-14 -79 -51 -122.5t-117 -43.5q-153 0 -123 172l40 224q14 79 51.5 122.5t116.5 43.5zM79 151q-10 -55 4 -83l232 401q-18 40 -75 40q-58 0 -83.5 -33t-35.5 -90zM277 152l42 235q4 19 4 38l-222 -381q21 -15 56 -15q58 0 84 33.5
t36 89.5z" />
    <glyph glyph-name="zero.tf.zero" 
d="M300 710q65 0 102.5 -44t20.5 -147l-60 -343q-7 -42 -16 -70t-26.5 -59t-48 -46.5t-74.5 -15.5q-65 0 -102.5 44t-20.5 147l60 343q7 42 16 70t26.5 59t48 46.5t74.5 15.5zM183 522l-60 -348l-3 -24l256 452q-13 67 -81 67q-29 0 -50 -13t-33 -37t-18 -45.5t-11 -51.5z
M314 173l60 348l3 22l-255 -451q14 -66 80 -66q29 0 50 13t33 37t18 45.5t11 51.5z" />
    <glyph glyph-name="zero.tosf.zero" 
d="M278 550q153 0 123 -172l-40 -224q-14 -79 -51.5 -122.5t-116.5 -43.5q-154 0 -123 172l40 224q14 79 51 122.5t117 43.5zM115 151q-7 -37 -2 -65l231 396q-21 27 -67 27q-58 0 -84 -33.5t-36 -89.5zM355 387q7 36 2 63l-229 -396q21 -25 66 -25q58 0 83.5 33t35.5 90z
" />
    <glyph glyph-name="zero.subs" horiz-adv-x="372" 
d="M132 -151q-114 0 -114 162q0 41 4 84.5t15.5 96t30 92.5t51 67t74.5 27q114 0 114 -162q0 -41 -4 -84.5t-15.5 -96t-30 -92.5t-51 -67t-74.5 -27zM134 -110q36 0 62.5 36.5t39.5 93t18.5 106.5t5.5 94q0 117 -69 117q-36 0 -62.5 -36.5t-39.5 -93t-18.5 -106.5t-5.5 -94
q0 -117 69 -117z" />
    <glyph glyph-name="one.subs" horiz-adv-x="230" 
d="M41 -140l76 422q-20 -32 -72 -32h-19l7 43h16q65 0 89 74h38l-89 -507h-46z" />
    <glyph glyph-name="two.subs" horiz-adv-x="302" 
d="M-37 -139l6 36q61 64 94 100.5t76 91t62.5 100.5t19.5 88q0 35 -13.5 49.5t-43.5 14.5q-43 0 -60.5 -31.5t-22.5 -96.5l-46 7q9 83 37.5 121t93.5 38q53 0 77 -25t24 -77q0 -34 -13 -71t-28.5 -66t-50 -72.5t-56.5 -68.5t-69 -76q-14 -15 -21 -23h177l-6 -39h-237z" />
    <glyph glyph-name="three.subs" horiz-adv-x="312" 
d="M97 -151q-60 0 -88.5 36t-14.5 111l43 6q-20 -116 61 -116q83 0 83 135q0 47 -13.5 65.5t-45.5 18.5h-21l6 39h25q46 0 66.5 39t20.5 91q0 38 -15 53t-43 15q-19 0 -32.5 -6t-21.5 -14.5t-13.5 -24t-7.5 -28t-4 -32.5l-46 5q7 63 33 99.5t92 36.5q103 0 103 -99
q0 -55 -23.5 -100t-68.5 -54q55 -14 55 -101q0 -175 -130 -175z" />
    <glyph glyph-name="four.subs" horiz-adv-x="306" 
d="M237 -17h-57l-23 -123h-44l22 123h-166l6 35l220 349h52l-61 -347h57zM198 317l-183 -297h126z" />
    <glyph glyph-name="five.subs" horiz-adv-x="306" 
d="M96 -151q-64 0 -88 35.5t-10 112.5l47 4q-12 -60 -1 -87t53 -27q26 0 45 21t28.5 54t14 64.5t4.5 60.5q0 74 -54 74q-27 0 -47 -20t-27 -55l-43 4l63 277h197l-7 -39h-160l-44 -184q24 53 84 53q83 0 83 -109q0 -42 -6.5 -81t-21.5 -76t-43.5 -59.5t-66.5 -22.5z" />
    <glyph glyph-name="six.subs" horiz-adv-x="331" 
d="M280 258l-47 -6q20 91 -42 91q-85 0 -120 -199q32 53 92 53q44 0 68 -26.5t24 -96.5q0 -39 -6.5 -76t-21.5 -72t-43.5 -56t-66.5 -21q-48 0 -76.5 29.5t-28.5 113.5q0 42 6 95t23 124.5t56.5 119t95.5 47.5q48 0 73.5 -29.5t13.5 -90.5zM154 161q-56 0 -90 -69
q-8 -68 -8 -112q0 -94 60 -94q26 0 45.5 19.5t29 50.5t13.5 60.5t4 57.5q0 50 -14.5 68.5t-39.5 18.5z" />
    <glyph glyph-name="seven.subs" horiz-adv-x="274" 
d="M24 -140l3 23q17 126 61.5 231.5t133.5 213.5h-186l7 39h232l-6 -32q-88 -104 -131.5 -207t-60.5 -227l-6 -41h-47z" />
    <glyph glyph-name="eight.subs" horiz-adv-x="323" 
d="M177 126q32 -21 46 -47t14 -70q0 -67 -31 -112t-99 -45q-50 0 -81.5 28t-31.5 89q0 52 26 97.5t82 60.5q-55 36 -55 108q0 25 5 47.5t17 45.5t37 36.5t60 13.5q107 0 107 -110q0 -109 -96 -142zM166 344q-75 0 -75 -104q0 -40 11 -56.5t40 -35.5l9 -5q78 26 78 125
q0 76 -63 76zM106 -111q86 0 86 119q0 38 -11.5 58t-40.5 38l-13 8q-45 -14 -65.5 -51.5t-20.5 -85.5q0 -86 65 -86z" />
    <glyph glyph-name="nine.subs" horiz-adv-x="335" 
d="M160 378q49 0 79 -34t30 -132q0 -37 -2 -74.5t-12 -93t-26 -96t-48 -70t-75 -29.5q-19 0 -37.5 5t-37.5 18t-27.5 40.5t-2.5 66.5l45 7q-8 -50 10 -75.5t50 -25.5q94 0 115 236q-31 -74 -94 -74q-42 0 -68.5 30.5t-26.5 100.5q0 30 5.5 60.5t18.5 64t40 54.5t64 21z
M135 84q29 0 52 23.5t37 64.5q1 18 1 45q0 71 -16 98t-51 27q-30 0 -49.5 -31t-25.5 -65.5t-6 -69.5q0 -92 58 -92z" />
    <glyph glyph-name="zero.dnom" horiz-adv-x="277" 
d="M101 -7q-82 0 -82 111q0 36 5.5 74.5t19 80.5t40.5 68.5t65 26.5q82 0 82 -112q0 -37 -6 -76t-19 -80t-40.5 -67t-64.5 -26zM103 25q24 0 42.5 24t27.5 60.5t13.5 70t4.5 61.5q0 81 -44 81q-25 0 -43.5 -25t-27.5 -62.5t-13 -70.5t-4 -60q0 -79 44 -79z" />
    <glyph glyph-name="one.dnom" horiz-adv-x="180" 
d="M40 0l50 282q-17 -25 -56 -25h-11l6 39h11q22 0 40.5 13.5t27.5 36.5h33l-61 -346h-40z" />
    <glyph glyph-name="two.dnom" horiz-adv-x="237" 
d="M-17 0l4 27q184 163 184 245q0 49 -45 49q-55 0 -53 -80l-40 4q-1 48 23.5 78.5t71.5 30.5q84 0 84 -77q0 -91 -169 -244h128l-7 -33h-181z" />
    <glyph glyph-name="three.dnom" horiz-adv-x="243" 
d="M81 -7q-43 0 -65.5 24.5t-11.5 79.5l41 3q-16 -75 37 -75q62 0 62 88q0 51 -38 51h-21l5 31h20q31 0 46 24.5t15 54.5q0 49 -44 49q-51 0 -55 -72l-40 4q6 99 95 99q85 0 85 -78q0 -35 -17.5 -62.5t-54.5 -34.5q44 -6 44 -70q0 -116 -103 -116z" />
    <glyph glyph-name="four.dnom" horiz-adv-x="236" 
d="M189 84h-42l-15 -84h-38l14 84h-123l4 28l160 235h44l-41 -234h42zM152 307l-129 -194h91z" />
    <glyph glyph-name="five.dnom" horiz-adv-x="242" 
d="M84 -7q-96 0 -80 94l39 3q-11 -66 44 -66q34 0 49 38t15 80q0 36 -11 48t-30 12q-42 0 -53 -49l-39 3l43 191h155l-5 -33h-122l-28 -119q16 37 64 37q65 0 65 -90q0 -26 -5 -49.5t-15.5 -47.5t-32.5 -38t-53 -14z" />
    <glyph glyph-name="six.dnom" horiz-adv-x="256" 
d="M216 264l-39 -4q10 64 -37 64q-55 0 -77 -126q26 33 62 33q77 0 77 -95q0 -22 -4 -43.5t-14 -45.5t-32 -39t-53 -15q-84 0 -84 102q0 31 4.5 68t16 83.5t39 77t65.5 30.5q44 0 63.5 -23.5t12.5 -66.5zM116 202q-17 0 -29.5 -9t-28.5 -31q-5 -37 -5 -68q0 -70 48 -70
q18 0 31 12t18.5 31.5t7.5 35.5t2 32q0 67 -44 67z" />
    <glyph glyph-name="seven.dnom" horiz-adv-x="211" 
d="M24 0l1 12q13 91 44 159t97 144h-137l5 32h178l-6 -28q-65 -73 -96 -143.5t-41 -156.5l-3 -19h-42z" />
    <glyph glyph-name="eight.dnom" horiz-adv-x="250" 
d="M144 184q46 -27 46 -84q0 -44 -22.5 -76t-76.5 -32q-89 0 -89 85q0 84 80 103q-43 23 -43 75q0 43 23.5 71t70.5 28q81 0 81 -78q0 -68 -70 -92zM132 326q-30 0 -42 -22.5t-12 -51.5q0 -36 35 -53l8 -4q54 22 54 81q0 50 -43 50zM91 23q57 0 57 78q0 45 -34 63l-10 5
q-60 -16 -60 -87q0 -59 47 -59z" />
    <glyph glyph-name="nine.dnom" horiz-adv-x="255" 
d="M128 354q83 0 83 -109q0 -31 -4 -65t-14.5 -80.5t-37.5 -76.5t-66 -30q-42 0 -63.5 20.5t-14.5 73.5l39 4q-12 -68 39 -68q58 0 76 143q-26 -39 -65 -39q-73 0 -73 84q0 55 24 99t77 44zM110 157q35 0 59 47q2 20 2 44q0 42 -11.5 59t-33.5 17q-31 0 -44.5 -35t-13.5 -73
q0 -59 42 -59z" />
    <glyph glyph-name="zero.numr" horiz-adv-x="277" 
d="M165 357q-82 0 -82 111q0 36 5.5 74.5t19 80.5t40.5 68.5t65 26.5q82 0 82 -112q0 -37 -6 -76t-19 -80t-40.5 -67t-64.5 -26zM167 389q24 0 42.5 24t27.5 60.5t13.5 70t4.5 61.5q0 81 -44 81q-25 0 -43.5 -25t-27.5 -62.5t-13 -70.5t-4 -60q0 -79 44 -79z" />
    <glyph glyph-name="one.numr" horiz-adv-x="180" 
d="M104 364l50 282q-17 -25 -56 -25h-11l6 39h11q22 0 40.5 13.5t27.5 36.5h33l-61 -346h-40z" />
    <glyph glyph-name="two.numr" horiz-adv-x="237" 
d="M47 364l4 27q184 163 184 245q0 49 -45 49q-55 0 -53 -80l-40 4q-1 48 23.5 78.5t71.5 30.5q84 0 84 -77q0 -91 -169 -244h128l-7 -33h-181z" />
    <glyph glyph-name="three.numr" horiz-adv-x="243" 
d="M145 357q-43 0 -65.5 24.5t-11.5 79.5l41 3q-16 -75 37 -75q62 0 62 88q0 51 -38 51h-21l5 31h20q31 0 46 24.5t15 54.5q0 49 -44 49q-51 0 -55 -72l-40 4q6 99 95 99q85 0 85 -78q0 -35 -17.5 -62.5t-54.5 -34.5q44 -6 44 -70q0 -116 -103 -116z" />
    <glyph glyph-name="four.numr" horiz-adv-x="236" 
d="M253 448h-42l-15 -84h-38l14 84h-123l4 28l160 235h44l-41 -234h42zM216 671l-129 -194h91z" />
    <glyph glyph-name="five.numr" horiz-adv-x="242" 
d="M148 357q-96 0 -80 94l39 3q-11 -66 44 -66q34 0 49 38t15 80q0 36 -11 48t-30 12q-42 0 -53 -49l-39 3l43 191h155l-5 -33h-122l-28 -119q16 37 64 37q65 0 65 -90q0 -26 -5 -49.5t-15.5 -47.5t-32.5 -38t-53 -14z" />
    <glyph glyph-name="six.numr" horiz-adv-x="256" 
d="M280 628l-39 -4q10 64 -37 64q-55 0 -77 -126q26 33 62 33q77 0 77 -95q0 -22 -4 -43.5t-14 -45.5t-32 -39t-53 -15q-84 0 -84 102q0 31 4.5 68t16 83.5t39 77t65.5 30.5q44 0 63.5 -23.5t12.5 -66.5zM180 566q-17 0 -29.5 -9t-28.5 -31q-5 -38 -5 -68q0 -70 48 -70
q18 0 31 12t18.5 31.5t7.5 35.5t2 32q0 67 -44 67z" />
    <glyph glyph-name="seven.numr" horiz-adv-x="211" 
d="M88 364l1 12q13 91 44 159t97 144h-137l5 32h178l-6 -28q-65 -73 -96 -143.5t-41 -156.5l-3 -19h-42z" />
    <glyph glyph-name="eight.numr" horiz-adv-x="250" 
d="M208 548q46 -27 46 -84q0 -44 -22.5 -76t-76.5 -32q-89 0 -89 85q0 84 80 103q-43 23 -43 75q0 43 23.5 71t70.5 28q81 0 81 -78q0 -68 -70 -92zM196 690q-30 0 -42 -22.5t-12 -51.5q0 -36 35 -53l8 -4q54 22 54 81q0 50 -43 50zM155 387q57 0 57 78q0 45 -34 63l-10 5
q-60 -16 -60 -87q0 -59 47 -59z" />
    <glyph glyph-name="nine.numr" horiz-adv-x="255" 
d="M192 718q83 0 83 -109q0 -31 -4 -65t-14.5 -80.5t-37.5 -76.5t-66 -30q-42 0 -63.5 20.5t-14.5 73.5l39 4q-12 -68 39 -68q58 0 76 143q-26 -39 -65 -39q-73 0 -73 84q0 55 24 99t77 44zM174 521q35 0 59 47q2 20 2 44q0 42 -11.5 59t-33.5 17q-31 0 -44.5 -35t-13.5 -73
q0 -59 42 -59z" />
    <glyph glyph-name="zero.sups" horiz-adv-x="372" 
d="M211 299q-114 0 -114 162q0 41 4 84.5t15.5 96t30 92.5t51 67t74.5 27q114 0 114 -162q0 -41 -4 -84.5t-15.5 -96t-30 -92.5t-51 -67t-74.5 -27zM213 340q36 0 62.5 36.5t39.5 93t18.5 106.5t5.5 94q0 117 -69 117q-36 0 -62.5 -36.5t-39.5 -93t-18.5 -106.5t-5.5 -94
q0 -117 69 -117z" />
    <glyph glyph-name="one.sups" horiz-adv-x="230" 
d="M120 310l76 422q-20 -32 -72 -32h-19l7 43h16q65 0 89 74h38l-89 -507h-46z" />
    <glyph glyph-name="two.sups" horiz-adv-x="302" 
d="M42 311l6 36q61 64 94 100.5t76 91t62.5 100.5t19.5 88q0 35 -13.5 49.5t-43.5 14.5q-43 0 -60.5 -31.5t-22.5 -96.5l-46 7q9 83 37.5 121t93.5 38q53 0 77 -25t24 -77q0 -34 -13 -71t-28.5 -66t-50 -72.5t-56.5 -68.5t-69 -76q-14 -15 -21 -23h177l-6 -39h-237z" />
    <glyph glyph-name="three.sups" horiz-adv-x="312" 
d="M176 299q-60 0 -88.5 36t-14.5 111l43 6q-20 -116 61 -116q83 0 83 135q0 47 -13.5 65.5t-45.5 18.5h-21l6 39h25q46 0 66.5 39t20.5 91q0 38 -15 53t-43 15q-19 0 -32.5 -6t-21.5 -14.5t-13.5 -24t-7.5 -28t-4 -32.5l-46 5q7 63 33 99.5t92 36.5q103 0 103 -99
q0 -55 -23.5 -100t-68.5 -54q55 -14 55 -101q0 -175 -130 -175z" />
    <glyph glyph-name="four.sups" horiz-adv-x="306" 
d="M316 433h-57l-23 -123h-44l22 123h-166l6 35l220 349h52l-61 -347h57zM277 767l-183 -297h126z" />
    <glyph glyph-name="five.sups" horiz-adv-x="306" 
d="M175 299q-64 0 -88 35.5t-10 112.5l47 4q-12 -60 -1 -87t53 -27q26 0 45 21t28.5 54t14 64.5t4.5 60.5q0 74 -54 74q-27 0 -47 -20t-27 -55l-43 4l63 277h197l-7 -39h-160l-44 -184q24 53 84 53q83 0 83 -109q0 -42 -6.5 -81t-21.5 -76t-43.5 -59.5t-66.5 -22.5z" />
    <glyph glyph-name="six.sups" horiz-adv-x="331" 
d="M359 708l-47 -6q20 91 -42 91q-85 0 -120 -199q32 53 92 53q44 0 68 -26.5t24 -96.5q0 -39 -6.5 -76t-21.5 -72t-43.5 -56t-66.5 -21q-48 0 -76.5 29.5t-28.5 113.5q0 42 6 95t23 124.5t56.5 119t95.5 47.5q48 0 73.5 -29.5t13.5 -90.5zM233 611q-56 0 -90 -69
q-8 -68 -8 -112q0 -94 60 -94q26 0 45.5 19.5t29 50.5t13.5 60.5t4 57.5q0 50 -14.5 68.5t-39.5 18.5z" />
    <glyph glyph-name="seven.sups" horiz-adv-x="274" 
d="M103 310l3 23q17 126 61.5 231.5t133.5 213.5h-186l7 39h232l-6 -32q-88 -104 -131.5 -207t-60.5 -227l-6 -41h-47z" />
    <glyph glyph-name="eight.sups" horiz-adv-x="323" 
d="M256 576q32 -21 46 -47t14 -70q0 -67 -31 -112t-99 -45q-50 0 -81.5 28t-31.5 89q0 52 26 97.5t82 60.5q-55 36 -55 108q0 25 5 47.5t17 45.5t37 36.5t60 13.5q107 0 107 -110q0 -109 -96 -142zM245 794q-75 0 -75 -104q0 -40 11 -56.5t40 -35.5l9 -5q78 26 78 125
q0 76 -63 76zM185 339q86 0 86 119q0 38 -11.5 58t-40.5 38l-13 8q-45 -14 -65.5 -51.5t-20.5 -85.5q0 -86 65 -86z" />
    <glyph glyph-name="nine.sups" horiz-adv-x="335" 
d="M239 828q49 0 79 -34t30 -132q0 -37 -2 -74.5t-12 -93t-26 -96t-48 -70t-75 -29.5q-19 0 -37.5 5t-37.5 18t-27.5 40.5t-2.5 66.5l45 7q-8 -50 10 -75.5t50 -25.5q94 0 115 236q-31 -74 -94 -74q-42 0 -68.5 30.5t-26.5 100.5q0 30 5.5 60.5t18.5 64t40 54.5t64 21z
M214 534q29 0 52 23.5t37 64.5q1 18 1 45q0 71 -16 98t-51 27q-30 0 -49.5 -31t-25.5 -65.5t-6 -69.5q0 -92 58 -92z" />
    <glyph glyph-name="backslash.case" horiz-adv-x="615" 
d="M471 -87l-333 877h42l333 -877h-42z" />
    <glyph glyph-name="periodcentered.case" horiz-adv-x="163" 
d="M140 418l-16 -95h-59l16 95h59z" />
    <glyph glyph-name="bullet.case" horiz-adv-x="221" 
d="M131 315q-24 0 -40.5 15.5t-16.5 40.5q0 26 16 42t41 16q26 0 42 -15.5t16 -42.5q0 -25 -16 -40.5t-42 -15.5z" />
    <glyph glyph-name="colon.case" horiz-adv-x="165" 
d="M159 520l-16 -95h-59l16 95h59zM85 95l-16 -95h-59l16 95h59z" />
    <glyph glyph-name="exclamdown.case" horiz-adv-x="192" 
d="M135 630l15 91h58l-16 -91h-57zM165 538l-85 -538h-56l104 538h37z" />
    <glyph glyph-name="questiondown.case" horiz-adv-x="314" 
d="M277 720l-16 -92h-57l16 92h57zM243 549l-10 -53q-8 -44 -21 -69t-46 -64l-43 -52q-46 -54 -59 -127l-10 -52q-21 -108 70 -108q49 0 69.5 29.5t28.5 74.5q11 48 9 91l47 -4q0 -51 -7 -87q-13 -66 -45.5 -105.5t-101.5 -39.5q-27 0 -49 6.5t-43 23.5t-25.5 47.5t1.5 79.5
l8 46q15 78 71 145l43 53q29 35 40 55.5t19 62.5l8 47h46z" />
    <glyph glyph-name="semicolon.case" horiz-adv-x="173" 
d="M162 519l-16 -95h-59l16 95h59zM5 -118l-11 24q39 19 50 80l3 14h-30l18 95h59l-19 -105q-9 -49 -26 -73t-44 -35z" />
    <glyph glyph-name="slash.case" horiz-adv-x="307" 
d="M26 -87h-42l333 877h42z" />
    <glyph glyph-name="underscore.case" horiz-adv-x="293" 
d="M-47 -17h293l-6 -33h-293z" />
    <glyph glyph-name="asterisk.ss04" horiz-adv-x="290" 
d="M227 710l-47 -93h-97l69 -57l-47 -93l89 57l69 -57l-14 93l89 57h-97z" />
    <glyph glyph-name="braceleft.case" horiz-adv-x="250" 
d="M160 -85q-53 0 -81 25.5t-15 100.5l36 206q12 41 3 66t-55 26l7 39q25 0 40 5.5t24 20t12 26.5t8 38l39 217q9 53 39 81.5t93 28.5h19l-7 -37h-9q-46 0 -66 -20t-27 -59l-37 -213q-8 -46 -25 -72.5t-55 -34.5q35 -10 43.5 -40.5t-1.5 -70.5l-38 -211q-9 -52 9 -68.5
t56 -16.5h11l-7 -37h-16z" />
    <glyph glyph-name="braceright.case" horiz-adv-x="250" 
d="M127 795q53 0 81 -25.5t15 -100.5l-36 -206q-12 -41 -3 -66t55 -26l-7 -39q-25 0 -40 -5.5t-24 -20t-12 -26.5t-8 -38l-39 -217q-9 -53 -39 -81.5t-93 -28.5h-19l7 37h9q46 0 66 20t27 59l37 213q8 46 25 72.5t55 34.5q-35 10 -43.5 40.5t1.5 70.5l38 211q9 52 -9 68.5
t-56 16.5h-11l7 37h16z" />
    <glyph glyph-name="bracketleft.case" horiz-adv-x="218" 
d="M8 -84l154 871h137l-7 -38h-94l-140 -795h94l-7 -38h-137z" />
    <glyph glyph-name="bracketright.case" horiz-adv-x="218" 
d="M246 787l-154 -871h-137l7 38h94l140 795h-94l7 38h137z" />
    <glyph glyph-name="parenleft.case" horiz-adv-x="223" 
d="M124 -96q-63 144 -63 327q0 334 221 571l36 -19q-101 -116 -156 -245.5t-55 -306.5q0 -165 54 -310z" />
    <glyph glyph-name="parenright.case" horiz-adv-x="223" 
d="M135 804q63 -144 63 -327q0 -334 -221 -571l-36 19q101 116 156 245.5t55 306.5q0 165 -54 310z" />
    <glyph glyph-name="parenleft.subs" horiz-adv-x="196" 
d="M70 -234q-51 109 -51 245q0 237 167 411l33 -16q-75 -83 -116.5 -175t-41.5 -219q0 -121 45 -232z" />
    <glyph glyph-name="parenright.subs" horiz-adv-x="196" 
d="M71 422q51 -109 51 -245q0 -237 -167 -411l-33 16q75 83 116.5 175t41.5 219q0 121 -45 232z" />
    <glyph glyph-name="parenleft.sups" horiz-adv-x="196" 
d="M149 216q-51 109 -51 245q0 237 167 411l33 -16q-75 -83 -116.5 -175t-41.5 -219q0 -121 45 -232z" />
    <glyph glyph-name="parenright.sups" horiz-adv-x="196" 
d="M151 872q51 -109 51 -245q0 -237 -167 -411l-33 16q75 83 116.5 175t41.5 219q0 121 -45 232z" />
    <glyph glyph-name="emdash.case" horiz-adv-x="591" 
d="M56 373h523l-7 -37h-523z" />
    <glyph glyph-name="endash.case" horiz-adv-x="372" 
d="M56 373h304l-7 -37h-304z" />
    <glyph glyph-name="hyphen.case" horiz-adv-x="270" 
d="M56 376h202l-8 -44h-202z" />
    <glyph glyph-name="guillemotleft.case" horiz-adv-x="354" 
d="M318 552l-162 -212l81 -203h-53l-81 208l156 207h59z" />
    <glyph glyph-name="guillemotright.case" horiz-adv-x="353" 
d="M139 547l81 -208l-156 -207h-54l162 212l-81 203h48zM260 547l81 -208l-156 -207h-54l162 212l-81 203h48z" />
    <glyph glyph-name="guilsinglleft.case" horiz-adv-x="233" 
d="M125 131l-82 208l157 208h54l-162 -213l81 -203h-48z" />
    <glyph glyph-name="guilsinglright.case" horiz-adv-x="232" 
d="M139 547l81 -208l-156 -207h-54l162 212l-81 203h48z" />
    <glyph glyph-name="currency.case" horiz-adv-x="387" 
d="M339 521q17 -34 17 -93q0 -141 -58 -221l33 -46l-29 -23l-29 41q-38 -31 -83 -31q-57 0 -87 36l-49 -46l-22 22l55 52q-15 37 -15 89q0 140 58 221l-34 47l28 22l30 -41q38 31 83 31q56 0 85 -34l47 44l22 -22zM192 187q39 0 67.5 40t40 93.5t11.5 109.5q0 112 -76 112
q-39 0 -67.5 -40t-40 -93.5t-11.5 -109.5q0 -112 76 -112z" />
    <glyph glyph-name="dollar.case" horiz-adv-x="366" 
d="M278 708q59 -7 88.5 -46.5t15.5 -117.5l-8 -44l-48 -6l8 48q21 112 -63 127l-50 -287l29 -26q50 -47 66.5 -89t6.5 -101l-7 -42q-11 -62 -50.5 -100t-112.5 -38h-2l-16 -93h-29l17 95q-64 9 -94.5 56.5t-14.5 133.5l8 43l48 6l-11 -57q-13 -65 7.5 -100t63.5 -43l57 325
l-31 28q-45 41 -61 80t-5 96l5 24q21 127 155 130l15 88h29zM192 409l4 -4l47 266q-49 -1 -71.5 -25t-31.5 -66l-6 -35q-15 -71 58 -136zM213 327l-2 1l-53 -303q52 1 77.5 27t33.5 74l8 45q8 45 -7 81t-57 75z" />
    <glyph glyph-name="Euro.case" horiz-adv-x="406" 
d="M286 710q62 0 103 -34t29 -107l-4 -25l-49 -11l5 29q10 57 -16 82t-67 25q-59 0 -88 -37.5t-41 -111.5l-14 -79h171l-6 -35h-171l-19 -102h172l-6 -35h-172l-16 -91q-14 -84 13.5 -118.5t77.5 -34.5q88 0 110 109l7 38l43 -10l-6 -35q-26 -143 -155 -143q-33 0 -59.5 9
t-50 31.5t-30 61t1.5 98.5l15 85h-47l7 35h46l19 102h-47l6 35h47l13 73q17 95 56.5 145.5t121.5 50.5z" />
    <glyph glyph-name="sterling.case" horiz-adv-x="400" 
d="M280 710q138 0 118 -161l-6 -50l-49 -5l7 56q15 121 -74 121q-31 0 -52 -16t-31 -47t-14 -64t-4 -80q0 -39 2 -85h103l-6 -36h-95v-19q0 -84 -18.5 -141.5t-47.5 -87.5t-75 -52q27 9 50 9q24 0 63.5 -11t65.5 -11q42 0 64 26t30 94l43 -7q-13 -158 -141 -158
q-31 0 -76.5 13t-72.5 13q-33 0 -80 -15l-9 39q56 29 86.5 57t50 83t19.5 141v27h-80l6 36h72q-2 58 -2 89q0 115 33.5 178.5t119.5 63.5z" />
    <glyph glyph-name="currency.tf.case" 
d="M377 521q17 -34 17 -92q0 -142 -58 -222l33 -46l-29 -23l-29 41q-36 -30 -82 -30q-58 0 -87 36l-50 -47l-22 22l56 51q-16 35 -16 90q0 141 58 221l-34 47l28 23l31 -42q36 31 82 31q55 0 85 -33l47 44l22 -23zM230 187q39 0 67.5 40t40.5 93.5t12 109.5q0 112 -76 112
q-39 0 -67.5 -40t-40 -93t-11.5 -109q0 -113 75 -113z" />
    <glyph glyph-name="dollar.tf.case" 
d="M327 708q127 -16 101 -164l-8 -44l-48 -6l9 48q21 112 -61 127l-50 -286l29 -27q48 -47 64 -89t7 -101l-7 -42q-24 -138 -161 -138h-2l-16 -93h-29l17 95q-62 10 -92 57t-14 133l9 43l48 6l-11 -57q-13 -64 7 -99.5t60 -43.5l57 325l-30 28q-43 41 -58.5 80.5t-4.5 95.5
l4 24q11 60 46 94.5t106 35.5l15 88h29zM242 409l3 -3l47 265q-48 -2 -69.5 -26t-29.5 -65l-7 -35q-14 -73 56 -136zM263 327l-2 2l-54 -304q51 1 76 27t33 74l7 45q7 45 -6.5 81t-53.5 75z" />
    <glyph glyph-name="Euro.tf.case" 
d="M333 710q57 0 94 -34t26 -107l-4 -25l-48 -11l4 29q8 55 -13.5 81t-57.5 26q-55 0 -82.5 -37t-40.5 -112l-14 -79h145l-6 -35h-145l-18 -102h145l-7 -35h-144l-16 -91q-14 -84 11.5 -118.5t72.5 -34.5q81 0 98 109l7 38l44 -10l-7 -35q-24 -143 -142 -143
q-69 0 -109.5 46t-22.5 154l15 85h-50l6 35h50l18 102h-50l6 35h50l13 73q17 96 54.5 146t117.5 50z" />
    <glyph glyph-name="sterling.tf.case" 
d="M325 710q61 0 89.5 -40t18.5 -121l-7 -50l-49 -5l7 56q9 61 -9 91t-55 30q-31 0 -52 -16t-31 -47t-13.5 -64t-3.5 -80q0 -39 2 -85h103l-6 -36h-95v-19q0 -123 -35.5 -185t-106.5 -96q27 9 51 9q21 0 58 -11t61 -11q39 0 60 26t28 94l43 -7q-12 -158 -135 -158
q-30 0 -72.5 13t-67.5 13q-33 0 -78 -15l-9 39q56 29 86 57t49 83t19 141v27h-80l6 36h72q-2 58 -2 89q0 55 7 96.5t23.5 75.5t47.5 52t76 18z" />
    <glyph glyph-name="yen.tf.case" 
d="M475 695l-203 -378h115l-7 -35h-120l-16 -96h120l-7 -35h-119l-27 -151h-48l27 151h-119l7 35h118l16 96h-118l7 35h112l-68 378h50l46 -289q3 -22 5 -58h2q13 34 26 58l147 289h54z" />
    <glyph glyph-name="yen.case" horiz-adv-x="349" 
d="M419 695l-208 -385h118l-7 -35h-120l-12 -70h120l-6 -35h-120l-30 -170h-48l30 170h-120l6 35h120l12 70h-120l7 35h116l-72 385h51l43 -262q9 -62 10 -82h2q8 17 40 82l135 262h53z" />
    <glyph glyph-name="currency.tf" 
d="M366 459q17 -34 17 -92q0 -142 -58 -222l33 -46l-29 -23l-29 41q-36 -30 -82 -30q-58 0 -87 36l-50 -47l-22 22l56 51q-16 35 -16 90q0 141 58 221l-34 47l28 23l31 -42q36 31 82 31q55 0 85 -33l47 44l22 -23zM219 125q39 0 67.5 40t40.5 93.5t12 109.5q0 112 -76 112
q-39 0 -67.5 -40t-40 -93t-11.5 -109q0 -113 75 -113z" />
    <glyph glyph-name="plus.case" horiz-adv-x="398" 
d="M388 390l-7 -41h-142l-29 -164h-46l29 164h-142l8 41h141l27 152h46l-27 -152h142z" />
    <glyph glyph-name="minus.case" horiz-adv-x="398" 
d="M51 349l8 41h329l-7 -41h-330z" />
    <glyph glyph-name="multiply.case" horiz-adv-x="510" 
d="M449 501l-146 -136l100 -137l-35 -30l-98 136l-146 -136l-25 29l148 139l-97 135l34 29l96 -133l143 134z" />
    <glyph glyph-name="divide.case" horiz-adv-x="398" 
d="M240 468q-15 0 -25 10t-10 25q0 16 10 25.5t25 9.5t25 -9.5t10 -25.5t-10 -25.5t-25 -9.5zM51 349l8 41h329l-7 -41h-330zM202 201q-15 0 -25 10t-10 25q0 16 10 25.5t25 9.5q16 0 25.5 -9.5t9.5 -25.5t-10 -25.5t-25 -9.5z" />
    <glyph glyph-name="equal.case" horiz-adv-x="398" 
d="M65 423l7 40h330l-8 -40h-329zM38 275l7 40h330l-7 -40h-330z" />
    <glyph glyph-name="notequal.case" horiz-adv-x="498" 
d="M444 423h-125l-59 -108h165l-7 -40h-179l-68 -126h-32l68 126h-119l7 40h133l58 108h-171l6 40h186l61 113h33l-61 -113h111z" />
    <glyph glyph-name="greater.case" horiz-adv-x="503" 
d="M163 572l258 -186l-6 -40l-324 -186l8 50l274 159l-218 158z" />
    <glyph glyph-name="less.case" horiz-adv-x="504" 
d="M381 160l-258 186l6 40l324 186l-8 -50l-274 -159l218 -158z" />
    <glyph glyph-name="greaterequal.case" horiz-adv-x="507" 
d="M167 595l258 -186l-6 -40l-324 -186l8 50l274 159l-218 158zM84 111h290l-8 -41h-289z" />
    <glyph glyph-name="lessequal.case" horiz-adv-x="507" 
d="M386 183l-258 186l6 40l324 186l-8 -50l-274 -159l218 -158zM87 111h289l-8 -41h-289z" />
    <glyph glyph-name="plusminus.case" horiz-adv-x="521" 
d="M307 390h143l-7 -40h-143l-29 -165h-46l29 165h-141l7 40h141l28 158h46zM63 62l7 43h330l-8 -43h-329z" />
    <glyph glyph-name="approxequal.case" horiz-adv-x="496" 
d="M353 404q-25 0 -73 18t-74 18q-47 0 -82 -33l8 45q35 33 81 33q31 0 76.5 -18.5t69.5 -18.5q44 0 80 34l-7 -45q-33 -33 -79 -33zM324 240q-26 0 -74 18.5t-73 18.5q-45 0 -82 -35l8 46q35 33 81 33q31 0 76.5 -18t69.5 -18q46 0 81 33l-9 -46q-32 -32 -78 -32z" />
    <glyph glyph-name="asciitilde.case" 
d="M320 291q-28 0 -49.5 11t-33 24t-29 24t-37.5 11q-61 0 -91 -70l-37 6q22 54 58 79t76 25q28 0 49.5 -11t33 -24.5t29 -24.5t38.5 -11q60 0 90 70l37 -5q-41 -104 -134 -104z" />
    <glyph glyph-name="logicalnot.case" horiz-adv-x="504" 
d="M136 426h294l-40 -225h-45l33 182h-250z" />
    <glyph glyph-name="infinity.case" horiz-adv-x="451" 
d="M360 488q71 0 71 -93q0 -65 -31.5 -105.5t-78.5 -40.5q-59 0 -81 77q-50 -77 -107 -77q-71 0 -71 94q0 65 32 105t79 40q60 0 80 -77q48 77 107 77zM141 288q26 0 46 20t42 60q-17 82 -60 82q-28 0 -48 -27.5t-20 -74.5q0 -60 40 -60zM324 288q29 0 48.5 28t19.5 74
q0 60 -40 60q-45 0 -88 -80q9 -40 21.5 -61t38.5 -21z" />
    <glyph glyph-name="emptyset.case" horiz-adv-x="363" 
d="M369 559l-44 -62q14 -33 14 -86q0 -70 -16 -131.5t-55 -105t-94 -43.5q-56 0 -86 34l-34 -48l-26 19l42 59q-14 34 -14 88q0 71 16 132t54.5 104.5t94.5 43.5q57 0 86 -36l36 50zM100 282q0 -23 3 -41l177 248q-19 35 -61 35q-39 0 -67.5 -40t-40 -93t-11.5 -109z
M295 412q0 22 -3 39l-176 -248q19 -34 60 -34q39 0 67.5 40t40 93.5t11.5 109.5z" />
    <glyph glyph-name="plus.tf.case" 
d="M424 390l-7 -41h-142l-29 -164h-46l29 164h-142l8 41h141l27 152h46l-27 -152h142z" />
    <glyph glyph-name="minus.tf.case" 
d="M87 349l8 41h329l-7 -41h-330z" />
    <glyph glyph-name="divide.tf.case" 
d="M276 468q-15 0 -25 10t-10 25q0 16 10 25.5t25 9.5t25 -9.5t10 -25.5t-10 -25.5t-25 -9.5zM87 349l8 41h329l-7 -41h-330zM238 201q-15 0 -25 10t-10 25q0 16 10 25.5t25 9.5q16 0 25.5 -9.5t9.5 -25.5t-10 -25.5t-25 -9.5z" />
    <glyph glyph-name="equal.tf.case" 
d="M88 423l6 40h330l-7 -40h-329zM61 275l7 40h330l-7 -40h-330z" />
    <glyph glyph-name="emptyset.tf.case" 
d="M415 559l-44 -62q14 -33 14 -86q0 -70 -16 -131.5t-55 -105t-94 -43.5q-56 0 -86 34l-34 -48l-26 19l42 59q-14 34 -14 88q0 71 16 132t54.5 104.5t94.5 43.5q57 0 86 -36l36 50zM146 282q0 -23 3 -41l177 248q-19 35 -61 35q-39 0 -67.5 -40t-40 -93t-11.5 -109z
M341 412q0 22 -3 39l-176 -248q19 -34 60 -34q39 0 67.5 40t40 93.5t11.5 109.5z" />
    <glyph glyph-name="plus.subs" horiz-adv-x="330" 
d="M269 118l-6 -36h-110l-21 -117h-39l21 117h-108l5 36h109l20 110h39l-20 -110h110z" />
    <glyph glyph-name="minus.subs" horiz-adv-x="330" 
d="M6 82l5 36h258l-6 -36h-257z" />
    <glyph glyph-name="multiply.subs" horiz-adv-x="413" 
d="M314 199l-110 -99l76 -100l-30 -25l-76 99l-110 -99l-22 25l112 101l-75 98l30 25l74 -97l109 97z" />
    <glyph glyph-name="divide.subs" horiz-adv-x="330" 
d="M153 172q-12 0 -21 8.5t-9 20.5q0 27 29 27t29 -28q0 -13 -8 -20.5t-20 -7.5zM6 82l5 36h258l-6 -36h-257zM124 -27q-12 0 -20.5 8t-8.5 20t8 19.5t20 7.5q30 0 30 -28q0 -12 -8.5 -19.5t-20.5 -7.5z" />
    <glyph glyph-name="plus.sups" horiz-adv-x="330" 
d="M349 568l-6 -36h-110l-21 -117h-39l21 117h-108l5 36h109l20 110h39l-20 -110h110z" />
    <glyph glyph-name="minus.sups" horiz-adv-x="330" 
d="M86 532l5 36h258l-6 -36h-257z" />
    <glyph glyph-name="multiply.sups" horiz-adv-x="413" 
d="M394 649l-110 -99l76 -100l-30 -25l-76 99l-110 -99l-22 25l112 101l-75 98l30 25l74 -97l109 97z" />
    <glyph glyph-name="divide.sups" horiz-adv-x="330" 
d="M233 622q-12 0 -21 8.5t-9 20.5q0 27 29 27t29 -28q0 -13 -8 -20.5t-20 -7.5zM86 532l5 36h258l-6 -36h-257zM204 423q-12 0 -20.5 8t-8.5 20t8 19.5t20 7.5q30 0 30 -28q0 -12 -8.5 -19.5t-20.5 -7.5z" />
    <glyph glyph-name="plus.tf" 
d="M410 350l-7 -41h-142l-29 -164h-46l29 164h-142l8 41h141l27 152h46l-27 -152h142z" />
    <glyph glyph-name="minus.tf" 
d="M73 309l8 41h329l-7 -41h-330z" />
    <glyph glyph-name="divide.tf" 
d="M262 428q-15 0 -25 10t-10 25q0 16 10 25.5t25 9.5t25 -9.5t10 -25.5t-10 -25.5t-25 -9.5zM73 309l8 41h329l-7 -41h-330zM224 161q-15 0 -25 10t-10 25q0 16 10 25.5t25 9.5q16 0 25.5 -9.5t9.5 -25.5t-10 -25.5t-25 -9.5z" />
    <glyph glyph-name="equal.tf" 
d="M74 383l6 40h330l-7 -40h-329zM47 235l7 40h330l-7 -40h-330z" />
    <glyph glyph-name="emptyset.tf" 
d="M411 515l-44 -62q14 -33 14 -86q0 -70 -16 -131.5t-55 -105t-94 -43.5q-56 0 -86 34l-34 -48l-26 19l42 59q-14 34 -14 88q0 71 16 132t54.5 104.5t94.5 43.5q57 0 86 -36l36 50zM142 238q0 -23 3 -41l177 248q-19 35 -61 35q-39 0 -67.5 -40t-40 -93t-11.5 -109z
M337 368q0 22 -3 39l-176 -248q19 -34 60 -34q39 0 67.5 40t40 93.5t11.5 109.5z" />
    <glyph glyph-name="percent.tf" 
d="M6 -10l452 734h39l-452 -734h-39zM164 423q-40 0 -66.5 26t-14.5 93l10 56q4 24 10 42t17.5 37t31.5 29.5t47 10.5q40 0 66.5 -26t14.5 -93l-10 -56q-4 -24 -10 -42t-17.5 -37t-31.5 -29.5t-47 -10.5zM165 454q33 0 48 23t21 63l10 59q14 86 -46 86q-33 0 -48 -22.5
t-21 -62.5l-10 -60q-15 -86 46 -86zM301 -10q-40 0 -66.5 26t-14.5 93l10 56q4 24 10 42t17.5 37t31.5 29.5t47 10.5q40 0 66.5 -26t14.5 -93l-10 -56q-4 -24 -10 -42t-17.5 -37t-31.5 -29.5t-47 -10.5zM302 21q33 0 48 23t21 63l10 59q14 86 -46 86q-33 0 -48 -22.5
t-21 -62.5l-10 -60q-15 -86 46 -86z" />
    <glyph glyph-name="uni21BB.alt" horiz-adv-x="739" 
d="M634 352h77l-121 -131l-74 131h80l13 74q23 132 -21 194.5t-135 62.5q-129 0 -204 -111l-26 21q38 57 99.5 91t138.5 34q106 0 159.5 -72t27.5 -219zM330 24q64 0 116 31t82 79l25 -21q-34 -54 -95.5 -89.5t-135.5 -35.5q-108 0 -163.5 72t-29.5 220l13 74h-77l121 131
l74 -131h-80l-13 -73q-23 -133 23 -195t140 -62z" />
    <glyph glyph-name="arrowup.ss03" horiz-adv-x="710" 
d="M409 675l-281 -242l-23 29l338 288l237 -288l-34 -29l-195 242l-125 -710h-42z" />
    <glyph glyph-name="uni2197.ss03" horiz-adv-x="750" 
d="M592 644l-530 -645l-34 29l531 645l-339 -2l-7 39h407l72 -407h-41z" />
    <glyph glyph-name="arrowright.ss03" horiz-adv-x="722" 
d="M597 349l-200 239l35 29l237 -288l-339 -287l-24 29l284 238h-512l7 40h512z" />
    <glyph glyph-name="uni2198.ss03" horiz-adv-x="847" 
d="M706 54l59 341h41l-72 -407h-407l7 39l339 -2l-531 645l34 29z" />
    <glyph glyph-name="arrowdown.ss03" horiz-adv-x="710" 
d="M338 35l281 242l23 -29l-338 -288l-237 288l34 29l195 -242l125 710h42z" />
    <glyph glyph-name="uni2199.ss03" horiz-adv-x="750" 
d="M193 54l530 645l34 -29l-531 -645l339 2l7 -39h-407l-72 407h41z" />
    <glyph glyph-name="arrowleft.ss03" horiz-adv-x="722" 
d="M153 310l200 -239l-35 -29l-237 288l339 287l24 -29l-284 -238h512l-7 -40h-512z" />
    <glyph glyph-name="uni2196.ss03" horiz-adv-x="847" 
d="M176 644l-59 -341h-41l72 407h407l-7 -39l-339 2l531 -645l-34 -29z" />
    <glyph glyph-name="circle.invert" horiz-adv-x="662" 
d="M315 -12q-47 0 -88 11t-78 35.5t-59.5 65t-32 98.5t5.5 136l17 102q7 42 19.5 79.5t36.5 76.5t56 67t82 45.5t111 17.5q57 0 106 -17t89.5 -54t56.5 -108t0 -167l-17 -102q-10 -56 -29 -102.5t-53 -90t-91 -68.5t-132 -25z" />
    <glyph glyph-name="at.case" horiz-adv-x="556" 
d="M256 -18q-51 0 -92.5 16t-73 49.5t-42 86t0.5 126.5l35 198q11 62 27.5 108t45 87t75 62.5t110.5 21.5q35 0 66.5 -7t63.5 -24.5t50.5 -47.5t28.5 -77t-3 -112l-30 -168q-14 -83 -39 -117t-68 -34q-70 0 -67 77q-25 -82 -97 -82q-35 0 -57 23t-22 73q0 49 27.5 92.5
t94.5 52.5l70 9l10 61q14 84 -45 84q-18 0 -31 -6.5t-19.5 -20t-9.5 -24t-6 -28.5l-5 -31h-40l6 32q9 52 32.5 82.5t76.5 30.5q104 0 80 -135l-31 -172q-16 -86 34 -86q45 0 63 106l31 176q12 58 5 99.5t-21 68t-40 42t-52 21.5t-56 6q-45 0 -80 -13.5t-57 -34.5
t-38.5 -54.5t-25.5 -64t-16 -71.5l-36 -207q-22 -121 31 -179t138 -58q63 0 123 30l2 -34q-60 -33 -127 -33zM257 180q66 0 86 117l13 69l-56 -8q-47 -6 -69 -38.5t-23 -71.5q-1 -68 49 -68z" />
    <glyph glyph-name="section.case" horiz-adv-x="310" 
d="M231 727q51 0 83 -25t22 -86l-5 -33l-46 -6l6 35q14 79 -59 79q-35 0 -53.5 -17.5t-21.5 -43.5l-3 -17q-4 -25 3 -45t13.5 -26t22.5 -20l53 -44q62 -55 54 -125l-2 -6q-3 -38 -25 -74t-70 -54q52 -48 43 -117l-2 -16q-12 -103 -128 -103q-55 0 -89 27.5t-23 95.5l6 30
l46 8l-7 -40q-8 -47 13 -66t55 -19q73 0 82 70l1 15q3 34 -9 55.5t-42 45.5l-49 42q-56 44 -47 122l2 10q8 85 98 113q-61 50 -46 122l4 17q20 96 120 96zM202 451l-26 22q-66 -21 -74 -91l-1 -8q-4 -37 6 -58t34 -42l39 -34q37 12 54 40t19 60l1 5q2 27 -7.5 49.5t-18.5 32
t-26 24.5z" />
    <glyph glyph-name="bar.case" horiz-adv-x="162" 
d="M2 -87l155 877h40l-155 -877h-40z" />
    <glyph glyph-name="brokenbar.case" horiz-adv-x="162" 
d="M196 790l-67 -378h-39l67 378h39zM108 291l-67 -378h-39l67 378h39z" />
    <glyph glyph-name="dagger.case" horiz-adv-x="401" 
d="M389 530l-7 -39h-116l-99 -561h-47l99 561h-114l6 39h114l39 220h47l-39 -220h117z" />
    <glyph glyph-name="daggerdbl.case" horiz-adv-x="401" 
d="M382 491h-116l-52 -294h116l-7 -38h-116l-40 -229h-47l40 229h-114l7 38h114l52 294h-114l7 39h114l39 220h46l-39 -220h117z" />
    <glyph glyph-name="registered.ss04" horiz-adv-x="419" 
d="M274 725q72 0 121 -43t49 -147q0 -50 -10 -97.5t-32.5 -95t-67.5 -76t-107 -28.5q-33 0 -61 9t-54 29t-40.5 59t-14.5 94q0 50 10 97.5t32.5 94.5t67.5 75.5t107 28.5zM228 262q55 0 94.5 28t58.5 73t27.5 87t8.5 85q0 91 -41.5 128.5t-102.5 37.5q-55 0 -94.5 -28
t-59 -72.5t-27.5 -87t-8 -85.5q0 -91 41.5 -128.5t102.5 -37.5zM274 619q69 0 69 -66q0 -71 -59 -85l27 -117h-38l-23 113h-29l-20 -113h-36l47 268h62zM250 492q55 0 55 60q0 22 -8.5 30.5t-26.5 8.5h-26l-18 -99h24z" />
    <glyph glyph-name="Bitcoin.case" horiz-adv-x="393" 
d="M271 371q77 -16 77 -125q0 -90 -33.5 -153.5t-99.5 -83.5l-17 -98h-33l15 90q-4 0 -12.5 -0.5t-13.5 -0.5h-35l-15 -89h-32l15 89h-64l126 710h63l13 75h32l-13 -75h22q14 0 38 -2l14 77h33l-15 -86q61 -24 61 -117q0 -79 -32.5 -139.5t-93.5 -71.5zM189 671l-50 -284h69
q72 0 106.5 52t34.5 135q0 51 -21 74t-65 23h-74zM159 40q70 0 105 60.5t35 143.5q0 61 -25 83t-70 22h-72l-54 -309h81z" />
    <glyph glyph-name="Baht.case" horiz-adv-x="400" 
d="M278 371q39 -10 58 -35.5t19 -93.5q0 -101 -44.5 -168.5t-134.5 -73.5l-19 -109h-32l19 109h-121l126 710h121l16 93h32l-17 -94q50 -5 77 -34.5t27 -97.5q0 -75 -31.5 -135t-95.5 -71zM189 671l-50 -284h74l50 284h-74zM357 569q0 46 -14.5 70.5t-48.5 29.5l-49 -280
q57 11 84.5 60t27.5 120zM78 40h73l55 309h-74zM183 41q43 5 72 38.5t40 75t11 87.5q0 51 -16 75.5t-52 29.5z" />
    <glyph glyph-name="Lira.case" horiz-adv-x="381" 
d="M329 205l42 -10q-25 -83 -84.5 -139t-156.5 -56h-92l51 289l-68 -20l7 38l68 20l20 111l-68 -20l6 38l69 20l41 234h49l-39 -219l189 56l-7 -39l-189 -55l-19 -111l189 56l-7 -39l-189 -55l-46 -259h41q75 0 124 45.5t69 114.5z" />
    <glyph glyph-name="Ruble.case" horiz-adv-x="380" 
d="M217 307h-70l-21 -116h116l-7 -35h-115l-28 -156h-48l27 156h-57l7 35h57l20 116h-59l7 39h59l64 364h106q135 0 135 -147q0 -45 -9.5 -87t-30 -81.5t-60 -63.5t-93.5 -24zM211 669l-57 -323h67q40 0 69.5 21.5t44 56t21 69t6.5 69.5q0 107 -97 107h-54z" />
    <glyph glyph-name="Rupee.case" horiz-adv-x="420" 
d="M416 710l-7 -38h-133q35 -32 35 -96q0 -24 -3 -49h74l-6 -36h-73q-15 -77 -58 -126.5t-118 -49.5h-28l114 -315h-54l-112 324l6 29h69q56 0 88.5 39t44.5 99h-177l5 36h178q2 30 2 43q0 102 -94 102h-59l7 38h299z" />
    <glyph glyph-name="Won.case" horiz-adv-x="560" 
d="M608 710l-74 -242h48l-6 -32h-52l-34 -110h66l-5 -33h-71l-90 -293h-62l8 293h-98l-96 -293h-61l14 293h-72l6 33h67l5 110h-52l6 32h48l11 242h43l-13 -242h108l79 242h56l-6 -242h108l73 242h46zM304 497l-9 -29h45l1 29q2 78 12 159h-4q-21 -86 -45 -159zM143 436
l-6 -110h69l35 110h-98zM248 326h89l2 110h-55zM446 326l33 110h-99l-3 -110h69zM168 211l27 82h-60l-4 -81q-2 -32 -4 -59t-5 -55t-4 -44h3q4 18 47 157zM411 212l25 81h-60l-2 -82q-5 -109 -10 -157h3q13 54 44 158z" />
    </font>
</defs>
</svg>
