<svg xmlns="http://www.w3.org/2000/svg">
<defs>
<font id="GTAmerica-ExpandedLightItalic" horiz-adv-x="803" >
  <font-face 
    font-family="GT America Expanded Light"
    font-weight="300"
    font-style="italic"
    font-stretch="ultra-expanded"
    units-per-em="1000"
    panose-1="0 0 4 7 0 0 0 0 0 0"
    ascent="800"
    descent="-200"
    x-height="500"
    cap-height="710"
    bbox="-549 -237 1663 938"
    underline-thickness="50"
    underline-position="-200"
    slope="-10"
    unicode-range="U+000D-FB02"
  />
<missing-glyph horiz-adv-x="1018" 
d="M1071 663h-552l-8 -47h552l-9 -48h-552l-8 -47h552l-9 -48h-552l-8 -47h552l-8 -47h-552l-9 -48h552l-8 -47h-978l75 426h978zM141 667l14 9h-16l-2 15l-7 -15h-16l12 -9l-8 -15l14 9l11 -9zM217 676h-16l12 -9l-8 -15l14 10l11 -10l-2 15l13 9h-15l-2 15zM304 676h-16
l12 -9l-8 -15l14 10l11 -10l-2 15l13 9h-15l-2 15zM390 676h-15l12 -9l-8 -15l14 10l11 -10l-2 15l13 9h-15l-2 15zM489 667l13 9h-15l-2 15l-8 -15h-15l11 -9l-7 -15l14 10l11 -10zM165 632h-15l11 -9l-7 -14l14 9l10 -9l-1 14l13 9h-15l-2 15zM437 623l14 9h-16l-1 15
l-8 -15h-15l11 -9l-8 -14l15 9l10 -9zM293 364l17 93h94l14 80h-94l16 94h-80l-16 -94h-93l-14 -80h93l-17 -93h80zM125 580l15 9h-16l-3 14l-6 -14h-16l11 -9l-7 -15l13 9l12 -9zM202 589h-16l11 -9l-7 -15l13 9l12 -9l-3 15l14 9h-15l-3 14zM375 589h-15l11 -9l-7 -15
l13 9l12 -9l-3 15l14 9h-15l-3 14zM473 580l14 9h-15l-3 14l-7 -14h-15l10 -9l-6 -15l13 9l12 -9zM110 492l15 10h-16l-3 14l-6 -14h-16l11 -10l-8 -14l14 9l11 -9zM458 492l14 10h-15l-3 14l-7 -14h-15l10 -10l-7 -14l14 9l11 -9zM94 405l15 9h-16l-2 15l-7 -15h-16l11 -9
l-7 -14l14 9l11 -9zM181 405l14 9h-15l-2 15l-7 -15h-16l11 -9l-7 -14l14 9l11 -9zM355 405l14 9h-15l-2 15l-8 -15h-15l11 -9l-7 -14l14 9l11 -9zM442 405l14 9h-15l-2 15l-8 -15h-15l10 -9l-6 -14l14 9l11 -9zM132 347l-1 15l13 9h-15l-2 14l-8 -14h-15l11 -9l-7 -15l14 9

<glyph glyph-name="fi" unicode="fi" horiz-adv-x="811" 
d="M539 500l-10 -61h-238l-77 -439h-74l78 439h-158l10 61h158l9 49q20 99 71.5 142.5t138.5 43.5q72 0 132 -22l-12 -65q-53 21 -119 21q-67 0 -96.5 -30.5t-42.5 -100.5l-7 -38h237zM676 591l20 113h90l-20 -113h-90zM582 0l88 500h74l-88 -500h-74z" />
    <glyph glyph-name="fl" unicode="fl" horiz-adv-x="821" 
d="M539 500l-10 -61h-238l-77 -439h-74l78 439h-158l10 61h158l9 49q20 99 71.5 142.5t138.5 43.5q72 0 132 -22l-12 -65q-53 21 -119 21q-67 0 -96.5 -30.5t-42.5 -100.5l-7 -38h237zM789 725l-128 -725h-74l128 725h74z" />
    <glyph glyph-name="g_g.liga" unicode="gg" horiz-adv-x="1555" 
d="M746 513q-75 0 -101 -46q54 -39 54 -109q0 -82 -74 -138.5t-232 -56.5q-112 0 -180 30q-77 -11 -77 -63q0 -25 23.5 -36.5t78.5 -12.5l232 -4q102 -2 150.5 -30.5t48.5 -95.5q0 -28 -8 -50.5t-31 -44.5t-60.5 -37t-99.5 -24t-145 -9q-161 0 -244 31.5t-83 104.5
q0 86 111 114q-49 23 -49 72q0 83 117 105q-57 41 -57 112q0 82 74 138t232 56q113 0 183 -31q37 90 144 90q27 0 50 -7l-12 -64q-20 6 -45 6zM1519 578q27 0 49 -7l-11 -64q-22 6 -45 6q-75 0 -101 -45q54 -41 54 -110q0 -82 -74.5 -138.5t-232.5 -56.5q-111 0 -179 30
q-78 -13 -78 -63q0 -25 23.5 -36.5t79.5 -12.5l252 -4q102 -2 150.5 -30.5t48.5 -95.5q0 -36 -15 -63t-52.5 -51.5t-112.5 -37.5t-184 -13q-153 0 -231 31.5t-78 104.5q0 82 99 111q-56 24 -56 75q0 39 29.5 66.5t88.5 38.5q-57 41 -57 112q0 82 74 138t232 56
q114 0 182 -30q37 89 145 89zM395 220q123 0 175 37t52 93q0 113 -198 113q-123 0 -175 -37.5t-52 -92.5q0 -113 198 -113zM1161 220q123 0 175 37t52 93q0 113 -198 113q-123 0 -175 -37.5t-52 -92.5q0 -113 198 -113zM469 12l-235 3q-49 2 -79 7q-83 -21 -83 -81
q0 -36 35 -57.5t89 -29t135 -7.5q100 0 161 14.5t82 36t21 52.5q0 35 -28.5 48t-97.5 14zM1255 12l-255 3q-36 0 -69 5q-76 -21 -76 -79q0 -36 32.5 -57.5t83 -29t126.5 -7.5q159 0 221.5 27t62.5 76q0 35 -28.5 48t-97.5 14z" />
    <glyph glyph-name=".notdef" horiz-adv-x="1018" 
d="M1071 663h-552l-8 -47h552l-9 -48h-552l-8 -47h552l-9 -48h-552l-8 -47h552l-8 -47h-552l-9 -48h552l-8 -47h-978l75 426h978zM141 667l14 9h-16l-2 15l-7 -15h-16l12 -9l-8 -15l14 9l11 -9zM217 676h-16l12 -9l-8 -15l14 10l11 -10l-2 15l13 9h-15l-2 15zM304 676h-16
l12 -9l-8 -15l14 10l11 -10l-2 15l13 9h-15l-2 15zM390 676h-15l12 -9l-8 -15l14 10l11 -10l-2 15l13 9h-15l-2 15zM489 667l13 9h-15l-2 15l-8 -15h-15l11 -9l-7 -15l14 10l11 -10zM165 632h-15l11 -9l-7 -14l14 9l10 -9l-1 14l13 9h-15l-2 15zM437 623l14 9h-16l-1 15
l-8 -15h-15l11 -9l-8 -14l15 9l10 -9zM293 364l17 93h94l14 80h-94l16 94h-80l-16 -94h-93l-14 -80h93l-17 -93h80zM125 580l15 9h-16l-3 14l-6 -14h-16l11 -9l-7 -15l13 9l12 -9zM202 589h-16l11 -9l-7 -15l13 9l12 -9l-3 15l14 9h-15l-3 14zM375 589h-15l11 -9l-7 -15
l13 9l12 -9l-3 15l14 9h-15l-3 14zM473 580l14 9h-15l-3 14l-7 -14h-15l10 -9l-6 -15l13 9l12 -9zM110 492l15 10h-16l-3 14l-6 -14h-16l11 -10l-8 -14l14 9l11 -9zM458 492l14 10h-15l-3 14l-7 -14h-15l10 -10l-7 -14l14 9l11 -9zM94 405l15 9h-16l-2 15l-7 -15h-16l11 -9
l-7 -14l14 9l11 -9zM181 405l14 9h-15l-2 15l-7 -15h-16l11 -9l-7 -14l14 9l11 -9zM355 405l14 9h-15l-2 15l-8 -15h-15l11 -9l-7 -14l14 9l11 -9zM442 405l14 9h-15l-2 15l-8 -15h-15l10 -9l-6 -14l14 9l11 -9zM132 347l-1 15l13 9h-15l-2 14l-8 -14h-15l11 -9l-7 -15l14 9
zM393 347l-2 15l14 9h-16l-1 14l-8 -14h-15l11 -9l-8 -15l15 9zM81 303l-2 15l15 9h-16l-3 15l-6 -15h-16l11 -9l-8 -15l14 9zM168 303l-2 15l14 9h-15l-3 15l-6 -15h-16l11 -9l-8 -15l14 9zM255 303l-2 15l14 9h-15l-3 15l-6 -15h-16l11 -9l-8 -15l14 9zM342 303l-2 15
l14 9h-15l-3 15l-7 -15h-15l11 -9l-8 -15l14 9zM429 303l-2 15l14 9h-15l-3 15l-7 -15h-15l10 -9l-7 -15l14 9zM9 189l9 48h977l-9 -48h-977zM-7 95l8 47h978l-8 -47h-978zM-24 0l8 47h978l-8 -47h-978z" />
    <glyph glyph-name=".null" horiz-adv-x="0" 
 />
    <glyph glyph-name=".null" horiz-adv-x="0" 
 />
    <glyph glyph-name="nonmarkingreturn" horiz-adv-x="333" 
 />
    <glyph glyph-name="CR" unicode="&#xd;" horiz-adv-x="0" 
 />
    <glyph glyph-name="space" unicode=" " horiz-adv-x="431" 
 />
    <glyph glyph-name="exclam" unicode="!" horiz-adv-x="361" 
d="M142 201l72 524h99l-113 -524h-58zM213 107l-19 -107h-116l19 107h116z" />
    <glyph glyph-name="quotedbl" unicode="&#x22;" horiz-adv-x="435" 
d="M151 466l28 244h82l-59 -244h-51zM308 466l28 244h82l-59 -244h-51z" />
    <glyph glyph-name="numbersign" unicode="#" horiz-adv-x="808" 
d="M814 433h-182l-35 -171h183v-54h-193l-42 -208h-67l41 208h-261l-42 -208h-67l42 208h-168v54h178l35 171h-173v54h184l41 207h67l-41 -207h261l41 207h68l-41 -207h171v-54zM530 262l34 171h-261l-35 -171h262z" />
    <glyph glyph-name="dollar" unicode="$" horiz-adv-x="876" 
d="M569 379q126 -15 179.5 -59.5t53.5 -124.5q0 -217 -359 -217h-34l-14 -79h-53l15 82q-148 12 -232 69t-88 159l86 12q10 -158 245 -175l49 278l-53 6q-241 26 -241 185q0 96 87 149t266 53h10l14 79h53l-14 -81q292 -18 308 -205l-86 -18q-8 77 -67 114.5t-167 44.5
l-46 -262zM399 398l30 -3l46 258h-6q-261 0 -261 -130q0 -52 44.5 -82t146.5 -43zM441 43q278 0 278 148q0 55 -41.5 82t-148.5 39l-60 7l-49 -276h21z" />
    <glyph glyph-name="percent" unicode="%" horiz-adv-x="1056" 
d="M139 -21l731 741h80l-731 -741h-80zM284 354q-51 0 -94.5 15t-75 53.5t-31.5 95.5q0 83 58.5 140t169.5 57q84 0 143.5 -41t59.5 -122q0 -82 -60 -140t-170 -58zM284 410q78 0 121.5 40.5t43.5 98.5q0 57 -41 83.5t-97 26.5q-77 0 -120 -39.5t-43 -97.5t41 -85t95 -27z
M777 -18q-51 0 -94.5 15t-75 53.5t-31.5 95.5q0 83 58.5 140t169.5 57q84 0 143.5 -41t59.5 -122q0 -82 -60 -140t-170 -58zM777 38q78 0 121.5 40.5t43.5 98.5q0 57 -41 83.5t-97 26.5q-77 0 -120 -39.5t-43 -97.5t41 -85t95 -27z" />
    <glyph glyph-name="ampersand" unicode="&#x26;" horiz-adv-x="877" 
d="M756 53q38 0 74 13l-12 -69q-31 -15 -86 -15q-78 0 -154 67q-120 -74 -280 -74q-48 0 -91.5 7t-90.5 25.5t-75.5 58.5t-28.5 98q0 75 52 127.5t159 88.5l19 6q-80 87 -80 172q0 72 49 125t162 53q91 0 150.5 -36t59.5 -121q0 -58 -43 -112.5t-146 -90.5l-30 -10l229 -225
q108 94 156 266l73 -10q-48 -185 -180 -301q53 -43 114 -43zM241 565q0 -41 19 -76t58 -77l45 15q141 47 141 144q0 106 -127 106q-136 0 -136 -112zM92 172q0 -43 24 -71.5t63 -40t67.5 -15.5t58.5 -4q129 0 224 55l-241 244l-33 -12q-87 -31 -125 -69t-38 -87z" />
    <glyph glyph-name="quotesingle" unicode="'" horiz-adv-x="278" 
d="M151 466l28 244h82l-59 -244h-51z" />
    <glyph glyph-name="parenleft" unicode="(" horiz-adv-x="376" 
d="M238 -133q-164 167 -164 393q0 319 323 515l51 -48q-53 -35 -92 -65t-79 -73t-65.5 -88.5t-41.5 -107t-16 -131.5q0 -97 32 -181.5t114 -177.5z" />
    <glyph glyph-name="parenright" unicode=")" horiz-adv-x="376" 
d="M163 775q164 -167 164 -393q0 -319 -323 -515l-51 48q53 35 92 65t79 73t65.5 88.5t41.5 107t16 131.5q0 97 -32 181.5t-114 177.5z" />
    <glyph glyph-name="asterisk" unicode="*" horiz-adv-x="381" 
d="M410 588l-134 -31l74 -98l-58 -41l-48 123l-95 -123l-44 44l105 97l-119 32l29 57l113 -53l7 128h66l-37 -129l131 54z" />
    <glyph glyph-name="plus" unicode="+" horiz-adv-x="685" 
d="M643 361l-11 -63h-244l-37 -207h-74l37 207h-244l11 63h244l34 195h74l-34 -195h244z" />
    <glyph glyph-name="comma" unicode="," horiz-adv-x="314" 
d="M50 -134l-13 42q68 10 79 80l2 12h-64l21 119h118l-21 -118q-7 -37 -20.5 -63.5t-32 -40.5t-34 -20.5t-35.5 -10.5z" />
    <glyph glyph-name="hyphen" unicode="-" horiz-adv-x="633" 
d="M73 312h509l-12 -66h-509z" />
    <glyph glyph-name="period" unicode="." horiz-adv-x="312" 
d="M190 110l-20 -110h-116l19 110h117z" />
    <glyph glyph-name="slash" unicode="/" horiz-adv-x="638" 
d="M62 -117h-81l620 877h81z" />
    <glyph glyph-name="zero" unicode="0" horiz-adv-x="879" 
d="M438 -24q-69 0 -131 18t-115 54.5t-84 101.5t-31 151q0 58 13.5 115t44.5 112.5t75.5 97.5t113 67.5t151.5 25.5q69 0 131 -18t115 -54.5t84 -101.5t31 -151q0 -58 -13.5 -115t-44.5 -112.5t-75.5 -97.5t-113 -67.5t-151.5 -25.5zM436 41q70 0 126.5 23t92 59t59.5 84
t33.5 94t9.5 93q0 72 -25.5 125.5t-68.5 81.5t-89 40.5t-97 12.5q-86 0 -151.5 -34t-100.5 -88.5t-52 -113t-17 -117.5q0 -72 25.5 -125.5t68.5 -81.5t89 -40.5t97 -12.5z" />
    <glyph glyph-name="one" unicode="1" horiz-adv-x="472" 
d="M211 0l100 563q-58 -78 -203 -78h-40l13 69h28q177 0 234 141h65l-122 -695h-75z" />
    <glyph glyph-name="two" unicode="2" horiz-adv-x="799" 
d="M-1 0l13 72q366 125 508 214q85 54 122 105t37 108q0 155 -238 155q-81 0 -136 -18.5t-81 -51.5t-35.5 -65.5t-10.5 -74.5q-2 -13 0 -23l-80 9q0 2 -0.5 11t-0.5 18q1 35 10.5 68.5t34 69.5t62 62t99 43t139.5 17q139 0 229.5 -53t90.5 -163q0 -46 -17 -87t-49 -74
t-64 -57t-75 -49q-163 -96 -380 -165h533l-12 -71h-699z" />
    <glyph glyph-name="three" unicode="3" horiz-adv-x="829" 
d="M410 -24q-73 0 -133 11t-111.5 36t-82.5 70.5t-35 108.5l79 10q6 -52 32 -87t67 -52.5t84.5 -24.5t99.5 -7q134 0 197.5 44t63.5 113q0 71 -57 99t-155 28h-98l12 64h102q228 0 228 138q0 127 -244 127t-278 -180l-71 15q44 230 349 230q65 0 120 -9.5t102 -30.5t74 -59
t27 -91q0 -77 -59 -121t-151 -51q81 -7 130 -45t49 -113q0 -41 -17 -78t-54 -71t-106.5 -54t-163.5 -20z" />
    <glyph glyph-name="four" unicode="4" horiz-adv-x="782" 
d="M758 185h-161l-33 -185h-74l33 185h-518l9 54l576 456h96l-79 -449h162zM588 544q11 61 20 97h-3q-17 -23 -76 -70l-324 -261q-48 -38 -88 -64h416z" />
    <glyph glyph-name="five" unicode="5" horiz-adv-x="798" 
d="M387 -24q-61 0 -113.5 10t-100.5 32.5t-81.5 64t-46.5 98.5l83 15q38 -155 267 -155q79 0 134.5 18.5t83 50t38.5 63.5t11 69q0 44 -15.5 77.5t-38 51.5t-54.5 29t-58 14t-56 3q-104 0 -166 -31.5t-109 -104.5l-78 6l119 408h573l-12 -68h-514l-80 -265q37 58 111 89
t165 31q41 0 80 -6.5t78.5 -23t68.5 -41.5t47.5 -66.5t18.5 -93.5q0 -118 -86.5 -196.5t-268.5 -78.5z" />
    <glyph glyph-name="six" unicode="6" horiz-adv-x="842" 
d="M464 470q57 0 109.5 -12t99 -37t74.5 -71.5t28 -108.5q0 -113 -88 -189t-253 -76q-54 0 -102.5 8.5t-96.5 31t-82 57.5t-55 92.5t-21 130.5q0 60 13 117.5t44 114t77.5 98t118.5 67.5t162 26q52 0 99.5 -9t95.5 -30t81.5 -63t42.5 -101l-80 -18q-36 156 -239 156
q-73 0 -131.5 -20.5t-95 -53t-62 -77t-36.5 -88t-13 -90.5q38 66 119 105.5t191 39.5zM438 41q135 0 196.5 56.5t61.5 138.5q0 41 -15.5 72t-39 49t-56.5 29t-62 14.5t-60 3.5q-112 0 -192 -44.5t-113 -121.5q33 -197 280 -197z" />
    <glyph glyph-name="seven" unicode="7" horiz-adv-x="706" 
d="M178 0l3 17q33 184 147 333.5t325 276.5h-566l13 68h667l-11 -61q-202 -103 -327.5 -262.5t-153.5 -350.5l-3 -21h-94z" />
    <glyph glyph-name="eight" unicode="8" horiz-adv-x="835" 
d="M587 369q29 -6 52 -14t47.5 -22t41 -32t27.5 -45.5t11 -61.5q0 -45 -18 -82t-58.5 -68.5t-115 -49.5t-176.5 -18q-72 0 -132 9.5t-111.5 30.5t-80.5 60t-29 93q0 158 235 193q-149 42 -149 158q0 36 14.5 68t49.5 63t106 49.5t171 18.5q57 0 107.5 -7t104 -24.5
t85.5 -55.5t32 -92q0 -141 -214 -171zM210 531q0 -97 169 -126l118 -20q127 22 176 57t49 87q0 132 -239 132q-273 0 -273 -130zM405 41q86 0 145.5 13.5t87.5 37.5t38.5 46t10.5 48q0 112 -187 140l-129 18q-131 -15 -187.5 -60.5t-56.5 -104.5q0 -40 24.5 -68.5t67.5 -43
t88 -20.5t98 -6z" />
    <glyph glyph-name="nine" unicode="9" horiz-adv-x="844" 
d="M442 719q51 0 96 -6.5t95 -26.5t85 -52t58.5 -88.5t23.5 -130.5q0 -60 -8 -113t-34 -115.5t-69.5 -106.5t-121.5 -74t-182 -30q-40 0 -76.5 4t-79 17.5t-75 35t-57.5 60t-32 89.5l81 18q5 -48 31 -81.5t63.5 -49t71 -22t66.5 -6.5q343 0 347 356q-92 -148 -323 -148
q-55 0 -104.5 10.5t-95 34t-72.5 68.5t-27 107q0 49 17.5 91.5t55 79.5t106 58t160.5 21zM406 316q240 0 313 157q-36 181 -268 181q-79 0 -134.5 -16t-83.5 -44.5t-39.5 -58t-11.5 -65.5q0 -47 21 -79t56.5 -47.5t70.5 -21.5t76 -6z" />
    <glyph glyph-name="colon" unicode=":" horiz-adv-x="312" 
d="M259 500l-20 -110h-116l19 110h117zM190 110l-20 -110h-116l19 110h117z" />
    <glyph glyph-name="semicolon" unicode=";" horiz-adv-x="320" 
d="M260 500l-20 -110h-116l19 110h117zM56 -134l-13 42q68 10 79 80l2 12h-64l21 119h118l-21 -118q-7 -37 -20.5 -63.5t-32 -40.5t-34 -20.5t-35.5 -10.5z" />
    <glyph glyph-name="less" unicode="&#x3c;" horiz-adv-x="851" 
d="M713 85l-519 210l11 62l593 210l-12 -75l-493 -171l434 -167z" />
    <glyph glyph-name="equal" unicode="=" horiz-adv-x="685" 
d="M86 387l12 70h562l-12 -70h-562zM53 201l12 70h562l-13 -70h-561z" />
    <glyph glyph-name="greater" unicode="&#x3e;" horiz-adv-x="851" 
d="M165 567l519 -210l-11 -62l-593 -210l12 75l493 171l-434 167z" />
    <glyph glyph-name="question" unicode="?" horiz-adv-x="736" 
d="M294 169l7 45q10 56 39 89.5t87 51.5l114 35q120 38 120 138q0 43 -23 73t-61.5 43.5t-74.5 19t-77 5.5q-79 0 -134 -16.5t-82 -45.5t-38 -59t-11 -66q0 -26 3 -42l-83 9q-4 13 -4 36q0 46 17 87.5t54 79.5t108 60.5t169 22.5q59 0 111 -9t101.5 -30t78.5 -62t29 -99
q0 -149 -182 -206l-93 -30q-42 -14 -62 -35.5t-26 -57.5l-6 -37h-81zM252 0l18 107h109l-19 -107h-108z" />
    <glyph glyph-name="at" unicode="@" horiz-adv-x="1073" 
d="M491 -110q-60 0 -118.5 9.5t-120 35t-107 64.5t-75 103.5t-29.5 146.5q0 60 14.5 116t52.5 112t95.5 97.5t151 67.5t212.5 26q97 0 179 -17.5t152 -55.5t109.5 -106.5t39.5 -161.5q0 -113 -56.5 -184t-152.5 -71q-55 0 -89 24.5t-36 69.5q-38 -50 -105.5 -78t-149.5 -28
q-34 0 -65.5 5.5t-63.5 18.5t-51 40.5t-19 66.5q0 125 212 129l255 6l2 14q3 37 -10.5 61.5t-40.5 35.5t-53 15t-59 4q-69 0 -109 -14t-53 -31.5t-21 -47.5h-71q34 151 250 151q38 0 70.5 -4.5t66 -17.5t55.5 -34.5t32.5 -58.5t2.5 -86l-15 -92q-15 -92 67 -92
q68 0 105 55.5t37 139.5t-36.5 143.5t-99.5 89.5t-129.5 42.5t-145.5 12.5q-108 0 -192 -23t-134 -58.5t-82 -84.5t-44 -96t-12 -97q0 -73 26.5 -129t66 -88.5t93 -53t99.5 -27.5t93 -7q135 0 251 34l13 -51q-106 -41 -258 -41zM459 114q94 0 168.5 39t84.5 95l6 29l-244 -7
q-140 -4 -140 -80t125 -76z" />
    <glyph glyph-name="A" unicode="A" horiz-adv-x="928" 
d="M778 0l-63 166h-521l-120 -166h-96l526 710h82l277 -710h-85zM245 236h444l-91 239q-44 114 -58 176h-2q-24 -47 -120 -176z" />
    <glyph glyph-name="B" unicode="B" horiz-adv-x="932" 
d="M720 365q65 -11 97 -52.5t32 -104.5q0 -92 -66 -150t-206 -58h-499l124 710h463q112 0 167.5 -45.5t55.5 -122.5q0 -148 -168 -177zM658 640h-385l-43 -242h392q183 0 183 131q0 111 -147 111zM576 70q192 0 192 140q0 56 -34.5 87t-118.5 31h-397l-46 -258h404z" />
    <glyph glyph-name="C" unicode="C" horiz-adv-x="957" 
d="M471 -25q-88 0 -161 18t-132.5 56t-92.5 105t-33 157q0 84 29 157.5t87.5 134.5t158 96.5t228.5 35.5q165 0 269 -65t127 -202l-86 -8q-40 206 -316 206q-111 0 -193.5 -30t-128 -81.5t-67 -110.5t-21.5 -125q0 -77 27.5 -132.5t77 -85.5t106 -43.5t125.5 -13.5
q262 0 351 190l81 -13q-111 -246 -436 -246z" />
    <glyph glyph-name="D" unicode="D" horiz-adv-x="988" 
d="M77 0l125 710h378q87 0 156 -16.5t123.5 -51.5t84 -97t29.5 -146q0 -80 -27 -149.5t-83 -126.5t-152.5 -90t-223.5 -33h-410zM172 70h315q93 0 164.5 19t115 49.5t71.5 73t38.5 86t10.5 92.5q0 74 -24.5 125t-70.5 77.5t-98.5 37t-120.5 10.5h-300z" />
    <glyph glyph-name="E" unicode="E" horiz-adv-x="879" 
d="M857 640h-584l-43 -241h567l-12 -70h-567l-46 -259h591l-12 -70h-673l125 710h666z" />
    <glyph glyph-name="F" unicode="F" horiz-adv-x="843" 
d="M857 640h-584l-43 -243h567l-12 -69h-567l-58 -328h-82l125 710h666z" />
    <glyph glyph-name="G" unicode="G" horiz-adv-x="994" 
d="M454 -25q-80 0 -149.5 18.5t-127.5 56.5t-92 105t-34 156q0 82 29 156t87 135t156.5 97t225.5 36q159 0 267 -57t137 -176l-87 -15q-26 93 -113 136t-212 43q-88 0 -158.5 -20.5t-116 -54.5t-75.5 -80.5t-42.5 -95t-12.5 -100.5q0 -76 27 -130.5t75 -84t103.5 -43
t121.5 -13.5q155 0 258 66t121 169l3 20h-343l12 70h418l-65 -369h-64l18 139q-50 -79 -147 -121.5t-220 -42.5z" />
    <glyph glyph-name="H" unicode="H" horiz-adv-x="1018" 
d="M977 710l-125 -710h-82l58 328h-610l-58 -328h-82l125 710h82l-55 -312h610l55 312h82z" />
    <glyph glyph-name="I" unicode="I" horiz-adv-x="326" 
d="M160 0h-82l125 710h82z" />
    <glyph glyph-name="J" unicode="J" horiz-adv-x="509" 
d="M411 225q-23 -135 -93.5 -187.5t-193.5 -52.5q-72 0 -146 20l14 77q65 -20 142 -20q84 0 131.5 36t64.5 131l84 481h83z" />
    <glyph glyph-name="K" unicode="K" horiz-adv-x="928" 
d="M946 710l-378 -260l283 -450h-100l-254 402l-303 -211l-34 -191h-82l125 710h82l-74 -420l617 420h118z" />
    <glyph glyph-name="L" unicode="L" horiz-adv-x="795" 
d="M78 0l125 710h82l-112 -638h556l-13 -72h-638z" />
    <glyph glyph-name="M" unicode="M" horiz-adv-x="1175" 
d="M78 0l125 710h122l210 -589q3 -8 12 -47h3q7 15 29 47l421 589h134l-125 -710h-77l105 587q11 56 12 60h-4q-11 -17 -38 -55l-428 -592h-79l-217 593q-7 20 -13 54h-4q-2 -17 -9 -60l-102 -587h-77z" />
    <glyph glyph-name="N" unicode="N" horiz-adv-x="1013" 
d="M78 0l125 710h96l442 -563q37 -50 44 -62h2q2 14 6.5 41t7.5 41l96 543h75l-125 -710h-83l-452 573q-23 30 -45 63h-2l-13 -77l-99 -559h-75z" />
    <glyph glyph-name="O" unicode="O" horiz-adv-x="999" 
d="M486 -25q-90 0 -166 18.5t-137.5 57.5t-96 106t-34.5 157q0 82 29.5 155.5t88 134t156.5 96t224 35.5q91 0 166.5 -18.5t137 -57.5t96.5 -106t35 -157q0 -82 -29.5 -155.5t-88 -134t-157 -96t-224.5 -35.5zM492 44q107 0 188 30t127 80.5t68.5 110t22.5 125.5
q0 77 -30 133t-82 86t-111.5 43.5t-130.5 13.5q-107 0 -188 -30t-127 -80.5t-68.5 -110t-22.5 -125.5q0 -77 30 -133t82 -86t111.5 -43.5t130.5 -13.5z" />
    <glyph glyph-name="P" unicode="P" horiz-adv-x="865" 
d="M620 710q114 0 185.5 -45.5t71.5 -151.5q0 -49 -16 -91t-50.5 -76.5t-95.5 -54.5t-144 -20h-363l-48 -271h-83l125 710h418zM570 340q64 0 109.5 14.5t69 40t33 53t9.5 60.5q0 40 -13.5 67t-39 40.5t-53.5 19t-65 5.5h-347l-53 -300h350z" />
    <glyph glyph-name="Q" unicode="Q" horiz-adv-x="1005" 
d="M688 3q38 -71 152 -71q40 0 75 6l-13 -75q-46 -7 -69 -7q-79 0 -138 31.5t-85 97.5q-54 -10 -124 -10q-90 0 -166 18.5t-137.5 57.5t-96 106t-34.5 157q0 82 29.5 155.5t88 134t156.5 96t224 35.5q91 0 166.5 -18.5t137 -57.5t96.5 -106t35 -157q0 -132 -75 -239.5
t-222 -153.5zM138 320q0 -77 30 -133t82 -86t111.5 -43.5t130.5 -13.5q107 0 188 30t127 80.5t68.5 110t22.5 125.5q0 77 -30 133t-82 86t-111.5 43.5t-130.5 13.5q-107 0 -188 -30t-127 -80.5t-68.5 -110t-22.5 -125.5z" />
    <glyph glyph-name="R" unicode="R" horiz-adv-x="906" 
d="M875 522q0 -86 -53.5 -145.5t-172.5 -75.5l161 -301h-102l-157 296h-339l-52 -296h-83l125 710h427q111 0 178.5 -44t67.5 -144zM567 366q221 0 221 152q0 122 -166 122h-349l-48 -274h342z" />
    <glyph glyph-name="S" unicode="S" horiz-adv-x="893" 
d="M456 -25q-405 0 -417 252l89 12q8 -101 91.5 -148t248.5 -47q263 0 263 151q0 55 -41 83.5t-144 39.5l-179 19q-241 25 -241 187q0 99 87 155t264 56q367 0 388 -225l-91 -17q-4 50 -27 84.5t-63.5 53.5t-90 27t-116.5 8q-263 0 -263 -136q0 -52 44 -81t144 -40l184 -20
q123 -14 178 -61t55 -129q0 -224 -363 -224z" />
    <glyph glyph-name="T" unicode="T" horiz-adv-x="784" 
d="M855 710l-12 -70h-341l-113 -640h-82l112 640h-340l12 70h764z" />
    <glyph glyph-name="U" unicode="U" horiz-adv-x="966" 
d="M176 710h82l-66 -364q-28 -159 47.5 -230t225.5 -71q86 0 148 21.5t99.5 62.5t58.5 89.5t33 114.5l68 377h82l-68 -379q-15 -84 -43.5 -146t-77.5 -111t-125.5 -74t-179.5 -25q-195 0 -289 93t-59 286z" />
    <glyph glyph-name="V" unicode="V" horiz-adv-x="850" 
d="M336 0l-254 710h89l202 -573q13 -39 16 -62h2q14 27 39 62l404 573h96l-503 -710h-91z" />
    <glyph glyph-name="W" unicode="W" horiz-adv-x="1274" 
d="M238 0l-131 710h85l102 -592q6 -33 7 -47h2q5 15 25 47l348 592h81l139 -592q7 -39 8 -47h2q2 5 24 47l310 592h89l-381 -710h-99l-134 577q-8 35 -7 50h-5q-1 -10 -24 -50l-337 -577h-104z" />
    <glyph glyph-name="X" unicode="X" horiz-adv-x="882" 
d="M-32 0l442 370l-295 340h106l218 -259q19 -23 27 -36h2q10 11 39 36l306 259h114l-411 -341l310 -369h-109l-232 288q-17 22 -25 36h-2q-10 -12 -38 -37l-334 -287h-118z" />
    <glyph glyph-name="Y" unicode="Y" horiz-adv-x="840" 
d="M331 0l46 260l-295 450h101l223 -346q18 -31 19 -42h2q9 17 34 42l351 346h108l-460 -450l-46 -260h-83z" />
    <glyph glyph-name="Z" unicode="Z" horiz-adv-x="846" 
d="M25 66l714 574h-588l12 70h705l-12 -65l-715 -575h638l-12 -70h-754z" />
    <glyph glyph-name="bracketleft" unicode="[" horiz-adv-x="399" 
d="M57 -120l156 883h262l-10 -60h-193l-134 -763h192l-11 -60h-262z" />
    <glyph glyph-name="backslash" unicode="\" horiz-adv-x="948" 
d="M756 -117l-620 877h81l620 -877h-81z" />
    <glyph glyph-name="bracketright" unicode="]" horiz-adv-x="398" 
d="M367 763l-156 -883h-262l10 60h193l134 763h-192l11 60h262z" />
    <glyph glyph-name="asciicircum" unicode="^" horiz-adv-x="572" 
d="M339 709h56l188 -280h-68l-150 223l-229 -223h-85z" />
    <glyph glyph-name="underscore" unicode="_" horiz-adv-x="643" 
d="M-61 -94h643l-10 -57h-642z" />
    <glyph glyph-name="grave" unicode="`" horiz-adv-x="600" 
d="M374 580h-85l-207 150h100z" />
    <glyph glyph-name="a" unicode="a" horiz-adv-x="815" 
d="M296 -19q-252 0 -252 149q0 68 50 107q66 53 211 57l352 12l2 13q12 72 -46.5 106t-177.5 34q-223 0 -252 -123h-81q20 89 107 136t234 47q153 0 230 -53t57 -168l-21 -115q-20 -111 -21 -183h-77q1 43 13 113q-103 -132 -328 -132zM303 39q153 0 240 54t99 128l6 31
l-318 -12q-117 -4 -162 -31.5t-45 -72.5q0 -97 180 -97z" />
    <glyph glyph-name="b" unicode="b" horiz-adv-x="871" 
d="M465 -19q-224 0 -300 131l-28 -112h-65l128 725h74l-60 -340q42 59 119.5 96.5t176.5 37.5q45 0 87.5 -7.5t84.5 -26t73.5 -46t51 -70.5t19.5 -97q0 -55 -20.5 -105t-62 -93t-113 -68t-165.5 -25zM447 46q83 0 144 20.5t93.5 54.5t47 71.5t14.5 79.5q0 55 -24 93.5
t-64 56.5t-77.5 25t-78.5 7q-120 0 -205 -51t-101 -125l-6 -28q-21 -98 49.5 -151t207.5 -53z" />
    <glyph glyph-name="c" unicode="c" horiz-adv-x="771" 
d="M373 -19q-65 0 -121 12.5t-104.5 39.5t-76.5 77t-28 119q0 42 10.5 81.5t37.5 78t67.5 67t106 46t148.5 17.5q281 0 327 -187l-84 -11q-31 134 -240 134q-71 0 -125 -15t-85 -37.5t-51 -53t-26.5 -58.5t-6.5 -57q0 -100 69 -144.5t183 -44.5q108 0 164.5 33.5t94.5 94.5
l75 -11q-20 -40 -46.5 -71t-65.5 -56.5t-95.5 -39.5t-127.5 -14z" />
    <glyph glyph-name="d" unicode="d" horiz-adv-x="870" 
d="M373 -19q-48 0 -92.5 7.5t-88 26.5t-75.5 47t-51.5 72t-19.5 99q0 122 90 204t261 82q106 0 186.5 -36t120.5 -103l59 345h74l-127 -725h-73l20 112q-85 -131 -284 -131zM386 45q123 0 201 53.5t90 122.5l3 17q10 53 -10.5 95.5t-62.5 68.5t-95.5 39.5t-113.5 13.5
q-137 0 -205 -64.5t-68 -155.5q0 -52 23 -90.5t62 -59.5t83 -30.5t93 -9.5z" />
    <glyph glyph-name="e" unicode="e" horiz-adv-x="793" 
d="M743 295q0 -23 -8 -65h-615q7 -185 267 -185q104 0 164.5 28.5t98.5 87.5l59 -31q-98 -149 -319 -149q-44 0 -86.5 5.5t-91.5 21.5t-85 42t-60 71.5t-24 105.5q0 56 20.5 106.5t62.5 93t116 67.5t172 25q92 0 163.5 -21t118.5 -73t47 -130zM668 288q2 18 2 20
q0 44 -24 76t-64 48t-81.5 23t-87.5 7q-130 0 -201 -48t-87 -126h543z" />
    <glyph glyph-name="f" unicode="f" horiz-adv-x="514" 
d="M539 500l-10 -61h-238l-77 -439h-74l78 439h-158l10 61h158l9 49q20 99 71.5 142.5t138.5 43.5q72 0 132 -22l-12 -65q-53 21 -119 21q-67 0 -96.5 -30.5t-42.5 -100.5l-7 -38h237z" />
    <glyph glyph-name="g" unicode="g" horiz-adv-x="790" 
d="M753 578q28 0 50 -7l-12 -64q-20 6 -44 6q-75 0 -102 -46q54 -39 54 -109q0 -82 -74 -138.5t-232 -56.5q-112 0 -180 30q-77 -11 -77 -63q0 -25 23.5 -36.5t78.5 -12.5l252 -4q103 -2 151.5 -30.5t48.5 -95.5q0 -35 -15 -62.5t-52.5 -52t-113 -37.5t-184.5 -13
q-161 0 -244 31.5t-83 104.5q0 86 111 114q-49 23 -49 72q0 83 117 105q-57 41 -57 112q0 82 74 138t233 56q112 0 182 -31q37 90 144 90zM395 220q123 0 175 37t52 93q0 112 -198 112q-123 0 -175 -37t-52 -92q0 -113 198 -113zM490 12l-256 3q-49 2 -79 7q-83 -21 -83 -81
q0 -36 35 -57.5t89 -29t135 -7.5q159 0 222 27.5t63 75.5q0 35 -28.5 48t-97.5 14z" />
    <glyph glyph-name="h" unicode="h" horiz-adv-x="862" 
d="M73 0l128 725h74l-63 -355q35 63 106.5 106t181.5 43q41 0 77.5 -7t73 -24.5t62.5 -44.5t42 -70t16 -99q0 -49 -11 -107l-30 -167h-74l31 180q9 48 9 87q0 96 -58.5 141.5t-153.5 45.5q-137 0 -210 -71t-93 -186l-34 -197h-74z" />
    <glyph glyph-name="i" unicode="i" horiz-adv-x="297" 
d="M162 591l20 113h90l-20 -113h-90zM68 0l88 500h74l-88 -500h-74z" />
    <glyph glyph-name="j" unicode="j" horiz-adv-x="316" 
d="M176 591l20 113h90l-20 -113h-90zM-34 -205q-52 0 -95 16l11 65q49 -15 82 -15q55 0 81.5 31.5t39.5 106.5l89 501h74l-91 -512q-17 -99 -58.5 -146t-132.5 -47z" />
    <glyph glyph-name="k" unicode="k" horiz-adv-x="767" 
d="M755 500l-294 -177l225 -323h-91l-195 290l-225 -130l-28 -160h-74l128 725h74l-87 -492l454 267h113z" />
    <glyph glyph-name="l" unicode="l" horiz-adv-x="307" 
d="M275 725l-128 -725h-74l128 725h74z" />
    <glyph glyph-name="m" unicode="m" horiz-adv-x="1253" 
d="M68 0l88 500h73l-22 -124q27 59 86.5 101t151.5 42q88 0 147.5 -43t71.5 -123q76 166 261 166q34 0 65 -5.5t64 -21t56.5 -40t39 -66.5t15.5 -97q0 -37 -10 -97l-36 -192h-74l36 204q7 39 7 75q0 94 -48.5 134.5t-125.5 40.5q-56 0 -100.5 -20t-73 -55t-46.5 -76.5
t-26 -89.5l-38 -213h-74l34 189q8 51 8 85q0 52 -14.5 88.5t-40.5 55.5t-54.5 27.5t-63.5 8.5q-107 0 -166.5 -66.5t-78.5 -172.5l-38 -215h-74z" />
    <glyph glyph-name="n" unicode="n" horiz-adv-x="857" 
d="M68 0l88 500h73l-23 -131q36 64 109 107t182 43q37 0 69.5 -5t70.5 -21t65.5 -42t45.5 -72.5t18 -108.5q0 -45 -10 -98l-31 -172h-74l33 180q8 46 8 80q0 55 -18 94.5t-50 60.5t-68.5 30t-80.5 9q-133 0 -205.5 -72t-93.5 -188l-34 -194h-74z" />
    <glyph glyph-name="o" unicode="o" horiz-adv-x="797" 
d="M388 -19q-68 0 -127 13t-109.5 41t-79.5 78t-29 118q0 121 92.5 204.5t273.5 83.5q68 0 127 -13t109.5 -41t79.5 -78t29 -118q0 -121 -92.5 -204.5t-273.5 -83.5zM391 45q75 0 132 19.5t89 52t47.5 70.5t15.5 80q0 68 -41.5 112t-99 60t-128.5 16q-145 0 -214.5 -65.5
t-69.5 -156.5q0 -68 41.5 -112t99 -60t128.5 -16z" />
    <glyph glyph-name="p" unicode="p" horiz-adv-x="866" 
d="M33 -195l123 695h74l-21 -117q35 56 110 96t183 40q58 0 111 -13t101 -40t77 -77t29 -116q0 -55 -20.5 -105.5t-61.5 -93t-112 -68t-164 -25.5q-237 0 -300 130l-55 -306h-74zM443 46q83 0 143.5 20.5t92.5 54.5t47 71.5t15 79.5q0 55 -24 93.5t-64.5 56.5t-78 25
t-78.5 7q-119 0 -203.5 -51.5t-102.5 -130.5l-6 -29q-19 -87 49 -142t210 -55z" />
    <glyph glyph-name="q" unicode="q" horiz-adv-x="865" 
d="M601 -195l54 304q-84 -128 -281 -128q-48 0 -93 7.5t-88.5 26.5t-75.5 47t-51.5 71.5t-19.5 98.5q0 122 90 204.5t260 82.5q107 0 187.5 -35.5t120.5 -100.5l32 117h62l-123 -695h-74zM385 45q123 0 201 52.5t91 123.5l3 17q13 70 -27 121t-107 73.5t-148 22.5
q-137 0 -205 -64.5t-68 -155.5q0 -52 23 -90.5t62 -59.5t82.5 -30.5t92.5 -9.5z" />
    <glyph glyph-name="r" unicode="r" horiz-adv-x="493" 
d="M197 343q32 80 86.5 126.5t150.5 46.5q44 0 83 -12l-13 -73q-42 12 -84 12q-89 0 -144 -45q-74 -59 -101 -209l-33 -189h-74l88 500h69z" />
    <glyph glyph-name="s" unicode="s" horiz-adv-x="746" 
d="M364 -19q-66 0 -117 7.5t-97.5 26.5t-75.5 56t-39 91l74 19q8 -43 32.5 -71.5t62 -42.5t76.5 -19.5t89 -5.5q220 0 220 100q0 33 -23 49.5t-78 21.5l-218 20q-176 16 -176 130q0 76 74.5 116t210.5 40q270 0 317 -154l-75 -23q-14 37 -38.5 61.5t-58.5 36t-66 15.5t-77 4
q-116 0 -164.5 -22t-48.5 -68q0 -33 24.5 -49t82.5 -22l227 -23q84 -8 123.5 -39t39.5 -90q0 -165 -301 -165z" />
    <glyph glyph-name="t" unicode="t" horiz-adv-x="553" 
d="M54 439l11 61h158l23 132l80 32l-29 -164h253l-11 -61h-252l-40 -223q-4 -36 -4.5 -61.5t9.5 -43t20 -28t28 -16t33.5 -7.5t35.5 -2q49 0 107 11l-11 -66q-52 -14 -115 -14q-102 0 -150 53.5t-25 183.5l38 213h-159z" />
    <glyph glyph-name="u" unicode="u" horiz-adv-x="845" 
d="M333 -19q-35 0 -66.5 4t-66.5 16.5t-60 33t-41.5 57t-16.5 84.5q0 19 19 152l31 172h74l-32 -180q-17 -96 -17 -128q0 -77 52 -112.5t138 -35.5q276 0 322 262l34 194h74l-88 -500h-73l23 132q-36 -66 -111.5 -108.5t-194.5 -42.5z" />
    <glyph glyph-name="v" unicode="v" horiz-adv-x="715" 
d="M272 0l-225 500h81l179 -407q6 -12 12 -32h2q9 16 23 32l322 407h90l-401 -500h-83z" />
    <glyph glyph-name="w" unicode="w" horiz-adv-x="1110" 
d="M204 0l-142 500h79l107 -399q7 -31 8 -42h2q12 24 24 42l275 399h84l126 -399q9 -26 10 -42h2l22 42l255 399h80l-318 -500h-88l-130 396q-9 26 -7 42h-3q-6 -20 -22 -42l-269 -396h-95z" />
    <glyph glyph-name="x" unicode="x" horiz-adv-x="709" 
d="M-30 0l334 256l-231 244h97l155 -167q25 -27 33 -42h1q23 25 44 41l215 168h106l-319 -244l246 -256h-99l-164 170q-26 25 -37 45h-1q-12 -14 -54 -46l-218 -169h-108z" />
    <glyph glyph-name="y" unicode="y" horiz-adv-x="698" 
d="M53 -205q-49 0 -89 14l12 65q29 -13 83 -13q115 0 196 117l15 21l-223 501h85l172 -398q10 -26 14 -43h2q18 29 28 42l304 399h87l-425 -555q-67 -88 -126 -119t-135 -31z" />
    <glyph glyph-name="z" unicode="z" horiz-adv-x="738" 
d="M28 63l570 374h-482l11 63h589l-11 -62l-574 -375h526l-11 -63h-629z" />
    <glyph glyph-name="braceleft" unicode="{" horiz-adv-x="369" 
d="M252 -121q-42 0 -72.5 6.5t-59 24.5t-38.5 57t0 98l25 142q4 28 3.5 48.5t-21.5 32.5t-66 13l10 56q66 1 86 20.5t29 69.5l28 155q15 84 62.5 123.5t149.5 39.5h57l-10 -61h-40q-77 0 -108.5 -25.5t-41.5 -83.5l-26 -145q-8 -50 -30.5 -79.5t-70.5 -40.5
q43 -14 54.5 -46.5t2.5 -80.5l-25 -145q-6 -39 0.5 -64.5t26 -36t38.5 -14t49 -3.5h37l-11 -61h-38z" />
    <glyph glyph-name="bar" unicode="|" horiz-adv-x="296" 
d="M52 -117l155 877h63l-155 -877h-63z" />
    <glyph glyph-name="braceright" unicode="}" horiz-adv-x="368" 
d="M142 765q42 0 72.5 -6.5t59 -24.5t38.5 -57t0 -98l-25 -142q-4 -28 -3.5 -48.5t21.5 -32.5t66 -13l-10 -56q-66 -1 -86 -20.5t-29 -69.5l-28 -155q-15 -84 -62.5 -123.5t-149.5 -39.5h-57l10 61h40q77 0 108.5 25.5t41.5 83.5l26 145q8 50 30.5 79.5t70.5 40.5
q-43 14 -54.5 46.5t-2.5 80.5l25 145q6 39 -0.5 64.5t-26 36t-38.5 14t-49 3.5h-37l11 61h38z" />
    <glyph glyph-name="asciitilde" unicode="~" horiz-adv-x="804" 
d="M521 234q-38 0 -69.5 13.5t-49.5 30t-44.5 30t-55.5 13.5q-78 0 -108 -83l-54 7q20 67 64 98t98 31q38 0 69 -14t49 -30t44.5 -30t56.5 -14q76 0 108 84l54 -7q-20 -67 -64 -98t-98 -31z" />
    <glyph glyph-name="uni00A0" unicode="&#xa0;" horiz-adv-x="431" 
 />
    <glyph glyph-name="exclamdown" unicode="&#xa1;" horiz-adv-x="361" 
d="M162 473l19 107h116l-19 -107h-116zM233 379l-72 -524h-99l113 524h58z" />
    <glyph glyph-name="cent" unicode="&#xa2;" horiz-adv-x="787" 
d="M401 41q106 3 162.5 37t89.5 95l71 -12q-43 -84 -120.5 -131t-212.5 -49l-14 -79h-53l14 80q-61 4 -111 18t-93 41t-67.5 73.5t-24.5 108.5q0 43 11 82.5t38.5 79.5t69 69t109 47t152.5 18h10l13 72h53l-13 -75q230 -19 271 -184l-80 -11q-28 120 -202 136zM121 233
q0 -181 228 -191l73 417q-75 0 -131.5 -15.5t-87.5 -39t-50.5 -55.5t-25.5 -59t-6 -57z" />
    <glyph glyph-name="sterling" unicode="&#xa3;" horiz-adv-x="831" 
d="M549 51q75 0 115.5 22t56.5 90l68 -13q-39 -172 -240 -172q-50 0 -153.5 17t-181.5 17q-102 0 -219 -19l-7 55q103 27 153.5 79t50.5 146q0 29 -5 61h-127l10 56h110q-1 9 -1 28q0 63 16 114.5t52 94t100 66t153 23.5q130 0 209.5 -43.5t92.5 -128.5l-80 -20
q-11 63 -70 95.5t-152 32.5q-74 0 -123 -17.5t-73 -52t-33 -72.5t-9 -91q0 -20 1 -29h312l-10 -56h-296q4 -34 4 -53q0 -85 -38.5 -138.5t-123.5 -85.5q67 21 131 21t158 -13.5t149 -13.5z" />
    <glyph glyph-name="currency" unicode="&#xa4;" horiz-adv-x="657" 
d="M622 322q0 -110 -81 -178l44 -58l-41 -32l-46 60q-71 -37 -168 -37q-122 0 -199 53l-65 -59l-30 32l62 56q-45 50 -45 125q0 110 82 179l-44 59l41 32l47 -61q72 36 166 36q123 0 198 -53l66 59l29 -32l-61 -56q45 -50 45 -125zM324 139q65 0 112.5 16t71.5 43t34.5 55.5
t10.5 59.5q0 44 -17.5 75.5t-48 47.5t-63.5 23.5t-72 7.5q-65 0 -112.5 -16t-71.5 -43t-35 -55.5t-11 -59.5q0 -83 58.5 -118.5t143.5 -35.5z" />
    <glyph glyph-name="yen" unicode="&#xa5;" horiz-adv-x="865" 
d="M942 695l-456 -405h286l-9 -53h-296l-13 -73h296l-10 -53h-295l-20 -111h-75l19 111h-295l10 53h295l12 73h-294l9 53h285l-312 405h92l190 -247q51 -67 79 -118h3q44 48 123 118l277 247h99z" />
    <glyph glyph-name="brokenbar" unicode="&#xa6;" horiz-adv-x="296" 
d="M269 760l-67 -378h-62l67 378h62zM181 261l-67 -378h-62l67 378h62z" />
    <glyph glyph-name="section" unicode="&#xa7;" horiz-adv-x="730" 
d="M509 434q165 -27 165 -141q0 -90 -95 -138q36 -36 36 -97q0 -82 -72 -133.5t-238 -51.5q-283 0 -300 159l73 12q5 -32 22.5 -54t70 -38.5t139.5 -16.5q125 0 176.5 30t51.5 85q0 75 -92 93l-202 36q-41 7 -68.5 15t-57 23t-44.5 39t-15 58q0 88 105 131q-45 32 -45 93
q0 78 69.5 128t213.5 50q53 0 99 -7t90 -22t72 -44.5t34 -69.5l-75 -17q-21 99 -212 99q-216 0 -216 -105q0 -35 24.5 -54t80.5 -29zM529 188q69 33 69 97q0 39 -26 58t-86 30l-212 34q-22 3 -42 9q-98 -27 -98 -92q0 -32 30.5 -52t105.5 -33l199 -33q35 -6 60 -18z" />
    <glyph glyph-name="dieresis" unicode="&#xa8;" horiz-adv-x="600" 
d="M51 596l20 112h99l-20 -112h-99zM368 596l20 112h99l-20 -112h-99z" />
    <glyph glyph-name="copyright" unicode="&#xa9;" horiz-adv-x="959" 
d="M481 -25q-57 0 -113.5 10t-114 36t-101 64t-71 100t-27.5 139q0 59 13 113.5t46 110t83.5 96t132 66t184.5 25.5q57 0 112.5 -10t113.5 -35.5t102 -63.5t72 -100t28 -140q0 -59 -13 -114t-46.5 -110t-84 -95.5t-132 -66t-184.5 -25.5zM478 17q93 0 166.5 23t119 60
t76 86.5t42.5 98.5t12 101q0 66 -24 119.5t-62.5 87.5t-89 57.5t-101 33t-101.5 9.5q-92 0 -166 -23t-119.5 -60t-75.5 -86.5t-42 -98.5t-12 -100q0 -65 23.5 -118.5t61.5 -88t88.5 -58t101.5 -33.5t102 -10zM492 143q-49 0 -90.5 10t-77.5 31.5t-57 61t-21 93.5
q0 43 13.5 81t43 72.5t85 55t130.5 20.5q89 1 155 -31t84 -108l-60 -9q-24 97 -174 97q-64 0 -108.5 -16.5t-66 -44t-30.5 -55t-9 -58.5q1 -79 50.5 -114t131.5 -35q135 0 188 93l55 -9q-65 -135 -242 -135z" />
    <glyph glyph-name="ordfeminine" unicode="&#xaa;" horiz-adv-x="625" 
d="M277 296q-180 0 -180 110q0 114 218 120l212 7l2 8q9 51 -29 74.5t-115 23.5q-144 0 -162 -73h-86q32 123 248 123q118 0 177 -40.5t44 -128.5l-15 -84q-15 -84 -16 -126h-80q2 43 11 85q-65 -99 -229 -99zM303 344q91 0 147.5 35.5t66.5 89.5l5 25l-200 -7
q-141 -5 -141 -74t122 -69z" />
    <glyph glyph-name="guillemotleft" unicode="&#xab;" horiz-adv-x="633" 
d="M245 67l-205 208l282 207h97l-281 -211l196 -204h-89zM477 67l-205 208l282 207h97l-281 -211l196 -204h-89z" />
    <glyph glyph-name="logicalnot" unicode="&#xac;" horiz-adv-x="845" 
d="M166 369h555l-42 -238h-69l29 168h-485z" />
    <glyph glyph-name="registered" unicode="&#xae;" horiz-adv-x="959" 
d="M513 735q57 0 112.5 -10t113.5 -35.5t102 -63.5t72 -100t28 -140q0 -59 -13 -114t-46.5 -110t-84 -95.5t-132 -66t-184.5 -25.5q-57 0 -113.5 10t-114 36t-101 64t-71 100t-27.5 139q0 59 13 113.5t46 110t83.5 96t132 66t184.5 25.5zM478 17q93 0 166.5 23t119 60
t76 86.5t42.5 98.5t12 101q0 66 -24 119.5t-62.5 87.5t-89 57.5t-101 33t-101.5 9.5q-92 0 -166 -23t-119.5 -60t-75.5 -86.5t-42 -98.5t-12 -100q0 -65 23.5 -118.5t61.5 -88t88.5 -58t101.5 -33.5t102 -10zM591 562q154 0 154 -116q0 -41 -30.5 -76.5t-103.5 -45.5
l93 -168h-68l-86 166h-183l-29 -166h-62l72 406h243zM568 370q114 0 114 76q0 38 -25 52.5t-71 14.5h-185l-25 -143h192z" />
    <glyph glyph-name="macron" unicode="&#xaf;" horiz-adv-x="600" 
d="M50 615l10 54h455l-10 -54h-455z" />
    <glyph glyph-name="degree" unicode="&#xb0;" horiz-adv-x="500" 
d="M281 303q-88 0 -143 49t-55 133q0 40 13 79.5t38.5 74.5t71 56.5t104.5 21.5q88 0 143 -49t55 -133q0 -40 -13 -79.5t-38.5 -74.5t-71 -56.5t-104.5 -21.5zM281 364q74 0 115.5 49.5t41.5 117.5q0 65 -36.5 95t-90.5 30q-75 0 -116.5 -49.5t-41.5 -118.5q0 -64 37 -94
t91 -30z" />
    <glyph glyph-name="plusminus" unicode="&#xb1;" horiz-adv-x="867" 
d="M490 361h243l-11 -64h-244l-29 -165h-74l29 165h-244l12 64h244l29 166h74zM108 0l13 69h561l-12 -69h-562z" />
    <glyph glyph-name="acute" unicode="&#xb4;" horiz-adv-x="600" 
d="M49 580l192 150h100l-207 -150h-85z" />
    <glyph glyph-name="uni00B5" unicode="&#xb5;" horiz-adv-x="869" 
d="M727 500h74l-88 -500h-73l23 132q-36 -66 -111.5 -108.5t-194.5 -42.5q-152 0 -214 75l-44 -251h-65l85 483l6 40l31 172h74l-32 -180q-17 -96 -17 -128q0 -77 52 -112.5t138 -35.5q276 0 322 262z" />
    <glyph glyph-name="paragraph" unicode="&#xb6;" horiz-adv-x="942" 
d="M421 361q-39 0 -75.5 3.5t-77.5 14.5t-70.5 28t-49 47t-19.5 70t13.5 71.5t48 61.5t104.5 46.5t172 16.5h462l-10 -53h-143l-135 -767h-65l135 767h-172l-135 -767h-65z" />
    <glyph glyph-name="periodcentered" unicode="&#xb7;" horiz-adv-x="312" 
d="M240 398l-20 -110h-116l19 110h117z" />
    <glyph glyph-name="cedilla" unicode="&#xb8;" horiz-adv-x="600" 
d="M158 6h49l-56 -59q19 14 64 14q42 0 66.5 -18t24.5 -49q0 -41 -39 -66.5t-93 -25.5q-50 0 -82.5 16t-41.5 45l56 10q12 -30 66 -30q32 0 52 12t20 34q0 38 -63 38q-35 0 -58 -17l-38 11z" />
    <glyph glyph-name="ordmasculine" unicode="&#xba;" horiz-adv-x="635" 
d="M352 296q-50 0 -94 9t-82.5 29t-61 56.5t-22.5 86.5q0 90 69 151t208 61q50 0 94 -9t82.5 -29t61 -56.5t22.5 -86.5q0 -90 -69 -151t-208 -61zM355 350q95 0 143 46t48 109q0 66 -52 98t-128 32q-95 0 -143 -46t-48 -109q0 -66 52 -98t128 -32z" />
    <glyph glyph-name="guillemotright" unicode="&#xbb;" horiz-adv-x="634" 
d="M165 482l205 -208l-282 -207h-97l281 211l-196 204h89zM397 482l205 -208l-282 -207h-97l281 211l-196 204h89z" />
    <glyph glyph-name="onequarter" unicode="&#xbc;" horiz-adv-x="993" 
d="M49 -17l721 744h80l-721 -744h-80zM172 323l54 295q-11 -19 -44.5 -31.5t-67.5 -12.5h-29l9 59h19q104 0 139 77h61l-68 -387h-73zM945 92h-115l-18 -92h-71l17 92h-308l7 46l350 249h74l-44 -248h115zM806 341l-283 -202h243z" />
    <glyph glyph-name="onehalf" unicode="&#xbd;" horiz-adv-x="1045" 
d="M49 -17l721 744h80l-721 -744h-80zM172 323l54 295q-11 -19 -44.5 -31.5t-67.5 -12.5h-29l9 59h19q104 0 139 77h61l-68 -387h-73zM539 0l6 42q200 86 244 109q122 67 125 124q0 76 -118 76q-67 0 -103 -23t-33 -72l-69 6q0 138 211 138q33 0 61.5 -4.5t58.5 -16t48 -36
t18 -60.5q0 -35 -24.5 -67t-81 -63.5t-94 -48.5t-117.5 -49q-8 -3 -12 -5h300l-7 -50h-413z" />
    <glyph glyph-name="threequarters" unicode="&#xbe;" horiz-adv-x="1189" 
d="M245 -17l721 744h80l-721 -744h-80zM305 309q-35 0 -61.5 2t-59 10t-54 22t-37 39.5t-16.5 61.5l74 3q3 -31 17.5 -50.5t40 -27.5t45.5 -10.5t50 -2.5q126 0 126 78q0 28 -24.5 49t-88.5 21h-46l5 35h46q129 0 129 72q0 32 -37 49t-85 17q-132 0 -150 -91l-73 2
q9 61 64.5 98t157.5 37q37 0 69 -4.5t62.5 -15t48.5 -31.5t18 -51q0 -93 -135 -101q54 -4 83.5 -26.5t29.5 -60.5q0 -60 -52.5 -92t-146.5 -32zM1141 92h-115l-18 -92h-71l17 92h-308l7 46l350 249h74l-44 -248h115zM1002 341l-283 -202h243z" />
    <glyph glyph-name="questiondown" unicode="&#xbf;" horiz-adv-x="736" 
d="M498 580l-18 -107h-109l19 107h108zM456 411l-7 -45q-10 -56 -39 -89.5t-87 -51.5l-114 -35q-120 -38 -120 -138q0 -43 23 -73t61.5 -43.5t74.5 -19t77 -5.5q79 0 134 16.5t82 45.5t38 59t11 66q0 26 -3 42l83 -9q4 -13 4 -36q0 -46 -17 -87.5t-54 -79.5t-108 -60.5
t-169 -22.5q-59 0 -111 9t-101.5 30t-78.5 62t-29 99q0 149 182 206l93 30q42 14 62 35.5t26 57.5l6 37h81z" />
    <glyph glyph-name="Agrave" unicode="&#xc0;" horiz-adv-x="928" 
d="M597 760h-89l-186 105h101zM778 0l-63 166h-521l-120 -166h-96l526 710h82l277 -710h-85zM245 236h444l-91 239q-44 114 -58 176h-2q-24 -47 -120 -176z" />
    <glyph glyph-name="Aacute" unicode="&#xc1;" horiz-adv-x="928" 
d="M784 865l-186 -105h-89l174 105h101zM778 0l-63 166h-521l-120 -166h-96l526 710h82l277 -710h-85zM245 236h444l-91 239q-44 114 -58 176h-2q-24 -47 -120 -176z" />
    <glyph glyph-name="Acircumflex" unicode="&#xc2;" horiz-adv-x="928" 
d="M570 832l-120 -72h-95l172 105h90l135 -105h-87zM778 0l-63 166h-521l-120 -166h-96l526 710h82l277 -710h-85zM245 236h444l-91 239q-44 114 -58 176h-2q-24 -47 -120 -176z" />
    <glyph glyph-name="Atilde" unicode="&#xc3;" horiz-adv-x="928" 
d="M469 818q-63 0 -81 -55l-55 8q34 101 136 101q51 0 103 -31t86 -31q62 0 80 55l55 -8q-33 -102 -135 -102q-41 0 -73 15.5t-59 31.5t-57 16zM778 0l-63 166h-521l-120 -166h-96l526 710h82l277 -710h-85zM245 236h444l-91 239q-44 114 -58 176h-2q-24 -47 -120 -176z" />
    <glyph glyph-name="Adieresis" unicode="&#xc4;" horiz-adv-x="928" 
d="M465 865l-18 -105h-99l18 105h99zM778 865l-19 -105h-99l19 105h99zM778 0l-63 166h-521l-120 -166h-96l526 710h82l277 -710h-85zM245 236h444l-91 239q-44 114 -58 176h-2q-24 -47 -120 -176z" />
    <glyph glyph-name="Aring" unicode="&#xc5;" horiz-adv-x="928" 
d="M557 738q-46 0 -72.5 24.5t-26.5 65.5q0 48 34 79t85 31q46 0 72.5 -24.5t26.5 -64.5q0 -48 -34 -79.5t-85 -31.5zM577 896q-31 0 -49.5 -17.5t-18.5 -50.5q0 -21 12.5 -34t35.5 -13q31 0 49 17t18 51q0 21 -12.5 34t-34.5 13zM778 0l-63 166h-521l-120 -166h-96l526 710
h82l277 -710h-85zM245 236h444l-91 239q-44 114 -58 176h-2q-24 -47 -120 -176z" />
    <glyph glyph-name="AE" unicode="&#xc6;" horiz-adv-x="1568" 
d="M1545 640h-632l-43 -241h616l-12 -70h-616l-46 -259h640l-12 -70h-722l28 160h-464l-186 -160h-101l837 710h726zM758 230l71 402l-466 -402h395z" />
    <glyph glyph-name="Ccedilla" unicode="&#xc7;" horiz-adv-x="957" 
d="M475 44q262 0 351 190l81 -13q-111 -245 -433 -246l-28 -30q19 14 64 14q42 0 66.5 -18t24.5 -49q0 -41 -39 -66.5t-93 -25.5q-50 0 -82.5 16t-41.5 45l56 10q12 -30 66 -30q32 0 52 12t20 34q0 38 -63 38q-35 0 -58 -17l-38 11l49 57q-81 4 -147 24.5t-118.5 59
t-82 102.5t-29.5 149q0 84 29 157.5t87.5 134.5t158 96.5t228.5 35.5q165 0 269 -65t127 -202l-86 -8q-40 206 -316 206q-111 0 -193.5 -30t-128 -81.5t-67 -110.5t-21.5 -125q0 -77 27.5 -132.5t77 -85.5t106 -43.5t125.5 -13.5z" />
    <glyph glyph-name="Egrave" unicode="&#xc8;" horiz-adv-x="879" 
d="M607 760h-89l-186 105h101zM857 640h-584l-43 -241h567l-12 -70h-567l-46 -259h591l-12 -70h-673l125 710h666z" />
    <glyph glyph-name="Eacute" unicode="&#xc9;" horiz-adv-x="879" 
d="M794 865l-186 -105h-89l174 105h101zM857 640h-584l-43 -241h567l-12 -70h-567l-46 -259h591l-12 -70h-673l125 710h666z" />
    <glyph glyph-name="Ecircumflex" unicode="&#xca;" horiz-adv-x="879" 
d="M580 832l-120 -72h-95l172 105h90l135 -105h-87zM857 640h-584l-43 -241h567l-12 -70h-567l-46 -259h591l-12 -70h-673l125 710h666z" />
    <glyph glyph-name="Edieresis" unicode="&#xcb;" horiz-adv-x="879" 
d="M475 865l-18 -105h-99l18 105h99zM788 865l-19 -105h-99l19 105h99zM857 640h-584l-43 -241h567l-12 -70h-567l-46 -259h591l-12 -70h-673l125 710h666z" />
    <glyph glyph-name="Igrave" unicode="&#xcc;" horiz-adv-x="326" 
d="M290 760h-84l-120 105h90zM160 0h-82l125 710h82z" />
    <glyph glyph-name="Iacute" unicode="&#xcd;" horiz-adv-x="326" 
d="M211 760l114 105h90l-120 -105h-84zM160 0h-82l125 710h82z" />
    <glyph glyph-name="Icircumflex" unicode="&#xce;" horiz-adv-x="326" 
d="M390 761h-76l-46 71l-70 -71h-83l111 104h90zM160 0h-82l125 710h82z" />
    <glyph glyph-name="Idieresis" unicode="&#xcf;" horiz-adv-x="326" 
d="M122 760l19 105h99l-19 -105h-99zM285 760l18 105h99l-18 -105h-99zM160 0h-82l125 710h82z" />
    <glyph glyph-name="Eth" unicode="&#xd0;" horiz-adv-x="989" 
d="M580 710q87 0 156 -16.5t123.5 -51.5t84 -97t29.5 -146q0 -80 -27 -149.5t-83 -126.5t-152.5 -90t-223.5 -33h-410l59 337h-120l10 63h121l55 310h378zM487 70q93 0 164.5 19t115 49.5t71.5 73t38.5 86t10.5 92.5q0 74 -24.5 125t-70.5 77.5t-98.5 37t-120.5 10.5h-300
l-43 -240h307l-11 -63h-307l-47 -267h315z" />
    <glyph glyph-name="Ntilde" unicode="&#xd1;" horiz-adv-x="1013" 
d="M701 755q-51 0 -103 31.5t-86 31.5q-63 0 -81 -55l-55 8q34 101 136 101q51 0 103 -31t86 -31q62 0 80 55l55 -8q-33 -102 -135 -102zM78 0l125 710h96l442 -563q37 -50 44 -62h2q2 14 6.5 41t7.5 41l96 543h75l-125 -710h-83l-452 573q-23 30 -45 63h-2l-13 -77
l-99 -559h-75z" />
    <glyph glyph-name="Ograve" unicode="&#xd2;" horiz-adv-x="999" 
d="M623 760h-89l-186 105h101zM486 -25q-90 0 -166 18.5t-137.5 57.5t-96 106t-34.5 157q0 82 29.5 155.5t88 134t156.5 96t224 35.5q91 0 166.5 -18.5t137 -57.5t96.5 -106t35 -157q0 -82 -29.5 -155.5t-88 -134t-157 -96t-224.5 -35.5zM492 44q107 0 188 30t127 80.5
t68.5 110t22.5 125.5q0 77 -30 133t-82 86t-111.5 43.5t-130.5 13.5q-107 0 -188 -30t-127 -80.5t-68.5 -110t-22.5 -125.5q0 -77 30 -133t82 -86t111.5 -43.5t130.5 -13.5z" />
    <glyph glyph-name="Oacute" unicode="&#xd3;" horiz-adv-x="999" 
d="M535 760l174 105h101l-186 -105h-89zM486 -25q-90 0 -166 18.5t-137.5 57.5t-96 106t-34.5 157q0 82 29.5 155.5t88 134t156.5 96t224 35.5q91 0 166.5 -18.5t137 -57.5t96.5 -106t35 -157q0 -82 -29.5 -155.5t-88 -134t-157 -96t-224.5 -35.5zM492 44q107 0 188 30
t127 80.5t68.5 110t22.5 125.5q0 77 -30 133t-82 86t-111.5 43.5t-130.5 13.5q-107 0 -188 -30t-127 -80.5t-68.5 -110t-22.5 -125.5q0 -77 30 -133t82 -86t111.5 -43.5t130.5 -13.5z" />
    <glyph glyph-name="Ocircumflex" unicode="&#xd4;" horiz-adv-x="999" 
d="M778 760h-87l-95 72l-120 -72h-95l172 105h90zM486 -25q-90 0 -166 18.5t-137.5 57.5t-96 106t-34.5 157q0 82 29.5 155.5t88 134t156.5 96t224 35.5q91 0 166.5 -18.5t137 -57.5t96.5 -106t35 -157q0 -82 -29.5 -155.5t-88 -134t-157 -96t-224.5 -35.5zM492 44
q107 0 188 30t127 80.5t68.5 110t22.5 125.5q0 77 -30 133t-82 86t-111.5 43.5t-130.5 13.5q-107 0 -188 -30t-127 -80.5t-68.5 -110t-22.5 -125.5q0 -77 30 -133t82 -86t111.5 -43.5t130.5 -13.5z" />
    <glyph glyph-name="Otilde" unicode="&#xd5;" horiz-adv-x="999" 
d="M684 755q-41 0 -73 15.5t-59 31.5t-57 16q-63 0 -81 -55l-55 8q34 101 136 101q51 0 103 -31t86 -31q62 0 80 55l55 -8q-33 -102 -135 -102zM486 -25q-90 0 -166 18.5t-137.5 57.5t-96 106t-34.5 157q0 82 29.5 155.5t88 134t156.5 96t224 35.5q91 0 166.5 -18.5
t137 -57.5t96.5 -106t35 -157q0 -82 -29.5 -155.5t-88 -134t-157 -96t-224.5 -35.5zM492 44q107 0 188 30t127 80.5t68.5 110t22.5 125.5q0 77 -30 133t-82 86t-111.5 43.5t-130.5 13.5q-107 0 -188 -30t-127 -80.5t-68.5 -110t-22.5 -125.5q0 -77 30 -133t82 -86
t111.5 -43.5t130.5 -13.5z" />
    <glyph glyph-name="Odieresis" unicode="&#xd6;" horiz-adv-x="999" 
d="M374 760l18 105h99l-18 -105h-99zM686 760l19 105h99l-19 -105h-99zM486 -25q-90 0 -166 18.5t-137.5 57.5t-96 106t-34.5 157q0 82 29.5 155.5t88 134t156.5 96t224 35.5q91 0 166.5 -18.5t137 -57.5t96.5 -106t35 -157q0 -82 -29.5 -155.5t-88 -134t-157 -96
t-224.5 -35.5zM492 44q107 0 188 30t127 80.5t68.5 110t22.5 125.5q0 77 -30 133t-82 86t-111.5 43.5t-130.5 13.5q-107 0 -188 -30t-127 -80.5t-68.5 -110t-22.5 -125.5q0 -77 30 -133t82 -86t111.5 -43.5t130.5 -13.5z" />
    <glyph glyph-name="multiply" unicode="&#xd7;" horiz-adv-x="871" 
d="M758 518l-257 -191l190 -191l-57 -47l-193 194l-261 -194l-40 47l257 191l-189 191l56 47l193 -194l260 194z" />
    <glyph glyph-name="Oslash" unicode="&#xd8;" horiz-adv-x="999" 
d="M1014 682l-101 -74q72 -83 72 -212q0 -82 -29.5 -155.5t-88 -134t-157 -96t-224.5 -35.5q-205 0 -319 87l-110 -80l-36 46l103 75q-72 83 -72 211q0 82 29.5 155.5t88 134t156.5 96t224 35.5q204 0 320 -87l107 78zM138 320q0 -102 53 -168l611 446q-92 68 -258 68
q-107 0 -188 -30t-127 -80.5t-68.5 -110t-22.5 -125.5zM898 390q0 103 -54 168l-610 -446q92 -68 258 -68q107 0 188 30t127 80.5t68.5 110t22.5 125.5z" />
    <glyph glyph-name="Ugrave" unicode="&#xd9;" horiz-adv-x="966" 
d="M617 760h-89l-186 105h101zM176 710h82l-66 -364q-28 -159 47.5 -230t225.5 -71q86 0 148 21.5t99.5 62.5t58.5 89.5t33 114.5l68 377h82l-68 -379q-15 -84 -43.5 -146t-77.5 -111t-125.5 -74t-179.5 -25q-195 0 -289 93t-59 286z" />
    <glyph glyph-name="Uacute" unicode="&#xda;" horiz-adv-x="966" 
d="M529 760l174 105h101l-186 -105h-89zM176 710h82l-66 -364q-28 -159 47.5 -230t225.5 -71q86 0 148 21.5t99.5 62.5t58.5 89.5t33 114.5l68 377h82l-68 -379q-15 -84 -43.5 -146t-77.5 -111t-125.5 -74t-179.5 -25q-195 0 -289 93t-59 286z" />
    <glyph glyph-name="Ucircumflex" unicode="&#xdb;" horiz-adv-x="966" 
d="M772 760h-87l-95 72l-120 -72h-95l172 105h90zM176 710h82l-66 -364q-28 -159 47.5 -230t225.5 -71q86 0 148 21.5t99.5 62.5t58.5 89.5t33 114.5l68 377h82l-68 -379q-15 -84 -43.5 -146t-77.5 -111t-125.5 -74t-179.5 -25q-195 0 -289 93t-59 286z" />
    <glyph glyph-name="Udieresis" unicode="&#xdc;" horiz-adv-x="966" 
d="M368 760l18 105h99l-18 -105h-99zM680 760l19 105h99l-19 -105h-99zM176 710h82l-66 -364q-28 -159 47.5 -230t225.5 -71q86 0 148 21.5t99.5 62.5t58.5 89.5t33 114.5l68 377h82l-68 -379q-15 -84 -43.5 -146t-77.5 -111t-125.5 -74t-179.5 -25q-195 0 -289 93t-59 286z
" />
    <glyph glyph-name="Yacute" unicode="&#xdd;" horiz-adv-x="840" 
d="M465 760l174 105h101l-186 -105h-89zM331 0l46 260l-295 450h101l223 -346q18 -31 19 -42h2q9 17 34 42l351 346h108l-460 -450l-46 -260h-83z" />
    <glyph glyph-name="Thorn" unicode="&#xde;" horiz-adv-x="805" 
d="M556 591q110 0 175 -51t65 -143q0 -118 -81.5 -181t-221.5 -63h-306l-27 -153h-83l125 710h83l-21 -119h292zM486 223q117 0 170.5 42t53.5 132q0 124 -170 124h-288l-53 -298h287z" />
    <glyph glyph-name="germandbls" unicode="&#xdf;" horiz-adv-x="875" 
d="M469 -14q-133 0 -211 28l11 59q67 -28 203 -28q135 0 195 39.5t60 121.5q0 141 -244 141h-153l10 58h135q135 0 198 35t63 114q0 123 -215 123q-142 0 -209.5 -54.5t-85.5 -162.5l-82 -460h-74l83 467q10 60 31 104.5t61 84t109 60t165 20.5q149 0 223.5 -48.5
t74.5 -133.5q0 -74 -55 -121.5t-151 -54.5q192 -17 192 -172q0 -104 -82.5 -162t-251.5 -58z" />
    <glyph glyph-name="agrave" unicode="&#xe0;" horiz-adv-x="815" 
d="M520 580h-85l-207 150h100zM296 -19q-252 0 -252 149q0 68 50 107q66 53 211 57l352 12l2 13q12 72 -46.5 106t-177.5 34q-223 0 -252 -123h-81q20 89 107 136t234 47q153 0 230 -53t57 -168l-21 -115q-20 -111 -21 -183h-77q1 43 13 113q-103 -132 -328 -132zM303 39
q153 0 240 54t99 128l6 31l-318 -12q-117 -4 -162 -31.5t-45 -72.5q0 -97 180 -97z" />
    <glyph glyph-name="aacute" unicode="&#xe1;" horiz-adv-x="815" 
d="M419 580l192 150h100l-207 -150h-85zM296 -19q-252 0 -252 149q0 68 50 107q66 53 211 57l352 12l2 13q12 72 -46.5 106t-177.5 34q-223 0 -252 -123h-81q20 89 107 136t234 47q153 0 230 -53t57 -168l-21 -115q-20 -111 -21 -183h-77q1 43 13 113q-103 -132 -328 -132z
M303 39q153 0 240 54t99 128l6 31l-318 -12q-117 -4 -162 -31.5t-45 -72.5q0 -97 180 -97z" />
    <glyph glyph-name="acircumflex" unicode="&#xe2;" horiz-adv-x="815" 
d="M674 580h-76l-112 116l-153 -116h-83l194 150h89zM296 -19q-252 0 -252 149q0 68 50 107q66 53 211 57l352 12l2 13q12 72 -46.5 106t-177.5 34q-223 0 -252 -123h-81q20 89 107 136t234 47q153 0 230 -53t57 -168l-21 -115q-20 -111 -21 -183h-77q1 43 13 113
q-103 -132 -328 -132zM303 39q153 0 240 54t99 128l6 31l-318 -12q-117 -4 -162 -31.5t-45 -72.5q0 -97 180 -97z" />
    <glyph glyph-name="atilde" unicode="&#xe3;" horiz-adv-x="815" 
d="M570 585q-45 0 -79.5 18.5t-64 36.5t-62.5 18q-71 0 -92 -65l-54 8q17 54 55 82.5t91 28.5q45 0 80 -18t64 -36t62 -18q74 0 92 65l55 -9q-18 -54 -56 -82.5t-91 -28.5zM296 -19q-252 0 -252 149q0 68 50 107q66 53 211 57l352 12l2 13q12 72 -46.5 106t-177.5 34
q-223 0 -252 -123h-81q20 89 107 136t234 47q153 0 230 -53t57 -168l-21 -115q-20 -111 -21 -183h-77q1 43 13 113q-103 -132 -328 -132zM303 39q153 0 240 54t99 128l6 31l-318 -12q-117 -4 -162 -31.5t-45 -72.5q0 -97 180 -97z" />
    <glyph glyph-name="adieresis" unicode="&#xe4;" horiz-adv-x="815" 
d="M256 596l20 112h99l-20 -112h-99zM573 596l20 112h99l-20 -112h-99zM296 -19q-252 0 -252 149q0 68 50 107q66 53 211 57l352 12l2 13q12 72 -46.5 106t-177.5 34q-223 0 -252 -123h-81q20 89 107 136t234 47q153 0 230 -53t57 -168l-21 -115q-20 -111 -21 -183h-77
q1 43 13 113q-103 -132 -328 -132zM303 39q153 0 240 54t99 128l6 31l-318 -12q-117 -4 -162 -31.5t-45 -72.5q0 -97 180 -97z" />
    <glyph glyph-name="aring" unicode="&#xe5;" horiz-adv-x="815" 
d="M447 559q-66 0 -104.5 25t-38.5 67q0 48 44 77.5t120 29.5q66 0 104.5 -25t38.5 -66q0 -49 -44 -78.5t-120 -29.5zM447 598q114 0 114 68q0 24 -24.5 39t-68.5 15q-114 0 -114 -69q0 -24 24.5 -38.5t68.5 -14.5zM296 -19q-252 0 -252 149q0 68 50 107q66 53 211 57
l352 12l2 13q12 72 -46.5 106t-177.5 34q-223 0 -252 -123h-81q20 89 107 136t234 47q153 0 230 -53t57 -168l-21 -115q-20 -111 -21 -183h-77q1 43 13 113q-103 -132 -328 -132zM303 39q153 0 240 54t99 128l6 31l-318 -12q-117 -4 -162 -31.5t-45 -72.5q0 -97 180 -97z
" />
    <glyph glyph-name="ae" unicode="&#xe6;" horiz-adv-x="1328" 
d="M1271 231h-574q-10 -90 50 -138t177 -48q176 0 263 117l59 -30q-114 -151 -332 -151q-109 0 -183 38.5t-100 111.5q-112 -150 -360 -150q-109 0 -169.5 33.5t-60.5 98.5q0 70 55 111q70 49 226 53l305 7l6 20l1 8q13 76 -37 110.5t-166 34.5q-234 0 -255 -130h-79
q21 92 106.5 142t231.5 50q216 0 263 -105q103 105 293 105q136 0 213 -55.5t77 -154.5q0 -25 -10 -78zM981 462q-107 0 -179.5 -47t-93.5 -125h496q2 16 2 25q0 70 -63 108.5t-162 38.5zM289 41q130 0 221.5 47t105.5 121l4 21v2l-305 -9q-105 -3 -150 -28.5t-45 -72.5
q0 -81 169 -81z" />
    <glyph glyph-name="ccedilla" unicode="&#xe7;" horiz-adv-x="771" 
d="M374 45q108 0 164.5 33.5t94.5 94.5l75 -11q-42 -84 -119 -132t-211 -49l-33 -35q19 14 64 14q42 0 66.5 -18t24.5 -49q0 -41 -39 -66.5t-93 -25.5q-50 0 -82.5 16t-41.5 45l56 10q12 -30 66 -30q32 0 52 12t20 34q0 38 -63 38q-35 0 -58 -17l-38 11l53 62
q-59 4 -108.5 18.5t-91.5 42.5t-65.5 75.5t-23.5 110.5q0 42 10.5 81.5t37.5 78t67.5 67t106 46t148.5 17.5q281 0 327 -187l-84 -11q-31 134 -240 134q-71 0 -125 -15t-85 -37.5t-51 -53t-26.5 -58.5t-6.5 -57q0 -100 69 -144.5t183 -44.5z" />
    <glyph glyph-name="egrave" unicode="&#xe8;" horiz-adv-x="793" 
d="M513 580h-85l-207 150h100zM743 295q0 -23 -8 -65h-615q7 -185 267 -185q104 0 164.5 28.5t98.5 87.5l59 -31q-98 -149 -319 -149q-44 0 -86.5 5.5t-91.5 21.5t-85 42t-60 71.5t-24 105.5q0 56 20.5 106.5t62.5 93t116 67.5t172 25q92 0 163.5 -21t118.5 -73t47 -130z
M668 288q2 18 2 20q0 44 -24 76t-64 48t-81.5 23t-87.5 7q-130 0 -201 -48t-87 -126h543z" />
    <glyph glyph-name="eacute" unicode="&#xe9;" horiz-adv-x="793" 
d="M704 730l-207 -150h-85l192 150h100zM743 295q0 -23 -8 -65h-615q7 -185 267 -185q104 0 164.5 28.5t98.5 87.5l59 -31q-98 -149 -319 -149q-44 0 -86.5 5.5t-91.5 21.5t-85 42t-60 71.5t-24 105.5q0 56 20.5 106.5t62.5 93t116 67.5t172 25q92 0 163.5 -21t118.5 -73
t47 -130zM668 288q2 18 2 20q0 44 -24 76t-64 48t-81.5 23t-87.5 7q-130 0 -201 -48t-87 -126h543z" />
    <glyph glyph-name="ecircumflex" unicode="&#xea;" horiz-adv-x="793" 
d="M479 696l-153 -116h-83l194 150h89l141 -150h-76zM743 295q0 -23 -8 -65h-615q7 -185 267 -185q104 0 164.5 28.5t98.5 87.5l59 -31q-98 -149 -319 -149q-44 0 -86.5 5.5t-91.5 21.5t-85 42t-60 71.5t-24 105.5q0 56 20.5 106.5t62.5 93t116 67.5t172 25q92 0 163.5 -21
t118.5 -73t47 -130zM668 288q2 18 2 20q0 44 -24 76t-64 48t-81.5 23t-87.5 7q-130 0 -201 -48t-87 -126h543z" />
    <glyph glyph-name="edieresis" unicode="&#xeb;" horiz-adv-x="793" 
d="M368 708l-20 -112h-99l20 112h99zM685 708l-20 -112h-99l20 112h99zM743 295q0 -23 -8 -65h-615q7 -185 267 -185q104 0 164.5 28.5t98.5 87.5l59 -31q-98 -149 -319 -149q-44 0 -86.5 5.5t-91.5 21.5t-85 42t-60 71.5t-24 105.5q0 56 20.5 106.5t62.5 93t116 67.5
t172 25q92 0 163.5 -21t118.5 -73t47 -130zM668 288q2 18 2 20q0 44 -24 76t-64 48t-81.5 23t-87.5 7q-130 0 -201 -48t-87 -126h543z" />
    <glyph glyph-name="igrave" unicode="&#xec;" horiz-adv-x="297" 
d="M237 580h-74l-126 150h80zM68 0l88 500h74l-88 -500h-74z" />
    <glyph glyph-name="iacute" unicode="&#xed;" horiz-adv-x="297" 
d="M170 580l120 150h80l-126 -150h-74zM68 0l88 500h74l-88 -500h-74z" />
    <glyph glyph-name="icircumflex" unicode="&#xee;" horiz-adv-x="297" 
d="M324 580h-63l-32 115l-73 -115h-66l105 152h77zM68 0l88 500h74l-88 -500h-74z" />
    <glyph glyph-name="idieresis" unicode="&#xef;" horiz-adv-x="297" 
d="M80 596l20 113h99l-20 -113h-99zM240 596l20 113h99l-20 -113h-99zM68 0l88 500h74l-88 -500h-74z" />
    <glyph glyph-name="eth" unicode="&#xf0;" horiz-adv-x="845" 
d="M783 613l-111 -18q98 -103 98 -255q0 -75 -23.5 -138.5t-70 -113.5t-123 -78.5t-176.5 -28.5q-145 0 -238.5 61t-93.5 182q0 56 21 105t63 89.5t114 63.5t167 23q219 0 286 -130h2q3 119 -107 206l-248 -41l-7 45l200 34q-66 37 -156 61l45 53q122 -39 202 -99l149 25z
M381 46q152 0 229 68t77 155q0 84 -74 130t-199 46q-81 0 -139.5 -18.5t-90 -50t-46 -68t-14.5 -78.5q0 -96 72.5 -140t184.5 -44z" />
    <glyph glyph-name="ntilde" unicode="&#xf1;" horiz-adv-x="857" 
d="M641 585q-45 0 -79.5 18.5t-64 36.5t-62.5 18q-71 0 -92 -65l-54 8q17 54 55 82.5t91 28.5q45 0 80 -18t64 -36t62 -18q74 0 92 65l55 -9q-18 -54 -56 -82.5t-91 -28.5zM68 0l88 500h73l-23 -131q36 64 109 107t182 43q37 0 69.5 -5t70.5 -21t65.5 -42t45.5 -72.5
t18 -108.5q0 -45 -10 -98l-31 -172h-74l33 180q8 46 8 80q0 55 -18 94.5t-50 60.5t-68.5 30t-80.5 9q-133 0 -205.5 -72t-93.5 -188l-34 -194h-74z" />
    <glyph glyph-name="ograve" unicode="&#xf2;" horiz-adv-x="797" 
d="M512 580h-85l-207 150h100zM388 -19q-68 0 -127 13t-109.5 41t-79.5 78t-29 118q0 121 92.5 204.5t273.5 83.5q68 0 127 -13t109.5 -41t79.5 -78t29 -118q0 -121 -92.5 -204.5t-273.5 -83.5zM391 45q75 0 132 19.5t89 52t47.5 70.5t15.5 80q0 68 -41.5 112t-99 60
t-128.5 16q-145 0 -214.5 -65.5t-69.5 -156.5q0 -68 41.5 -112t99 -60t128.5 -16z" />
    <glyph glyph-name="oacute" unicode="&#xf3;" horiz-adv-x="797" 
d="M411 580l192 150h100l-207 -150h-85zM388 -19q-68 0 -127 13t-109.5 41t-79.5 78t-29 118q0 121 92.5 204.5t273.5 83.5q68 0 127 -13t109.5 -41t79.5 -78t29 -118q0 -121 -92.5 -204.5t-273.5 -83.5zM391 45q75 0 132 19.5t89 52t47.5 70.5t15.5 80q0 68 -41.5 112
t-99 60t-128.5 16q-145 0 -214.5 -65.5t-69.5 -156.5q0 -68 41.5 -112t99 -60t128.5 -16z" />
    <glyph glyph-name="ocircumflex" unicode="&#xf4;" horiz-adv-x="797" 
d="M666 580h-76l-112 116l-153 -116h-83l194 150h89zM388 -19q-68 0 -127 13t-109.5 41t-79.5 78t-29 118q0 121 92.5 204.5t273.5 83.5q68 0 127 -13t109.5 -41t79.5 -78t29 -118q0 -121 -92.5 -204.5t-273.5 -83.5zM391 45q75 0 132 19.5t89 52t47.5 70.5t15.5 80
q0 68 -41.5 112t-99 60t-128.5 16q-145 0 -214.5 -65.5t-69.5 -156.5q0 -68 41.5 -112t99 -60t128.5 -16z" />
    <glyph glyph-name="otilde" unicode="&#xf5;" horiz-adv-x="797" 
d="M562 585q-45 0 -79.5 18.5t-64 36.5t-62.5 18q-71 0 -92 -65l-54 8q17 54 55 82.5t91 28.5q45 0 80 -18t64 -36t62 -18q74 0 92 65l55 -9q-18 -54 -56 -82.5t-91 -28.5zM388 -19q-68 0 -127 13t-109.5 41t-79.5 78t-29 118q0 121 92.5 204.5t273.5 83.5q68 0 127 -13
t109.5 -41t79.5 -78t29 -118q0 -121 -92.5 -204.5t-273.5 -83.5zM391 45q75 0 132 19.5t89 52t47.5 70.5t15.5 80q0 68 -41.5 112t-99 60t-128.5 16q-145 0 -214.5 -65.5t-69.5 -156.5q0 -68 41.5 -112t99 -60t128.5 -16z" />
    <glyph glyph-name="odieresis" unicode="&#xf6;" horiz-adv-x="797" 
d="M248 596l20 112h99l-20 -112h-99zM565 596l20 112h99l-20 -112h-99zM388 -19q-68 0 -127 13t-109.5 41t-79.5 78t-29 118q0 121 92.5 204.5t273.5 83.5q68 0 127 -13t109.5 -41t79.5 -78t29 -118q0 -121 -92.5 -204.5t-273.5 -83.5zM391 45q75 0 132 19.5t89 52
t47.5 70.5t15.5 80q0 68 -41.5 112t-99 60t-128.5 16q-145 0 -214.5 -65.5t-69.5 -156.5q0 -68 41.5 -112t99 -60t128.5 -16z" />
    <glyph glyph-name="divide" unicode="&#xf7;" horiz-adv-x="685" 
d="M380 459q-20 0 -34 13.5t-14 34.5t14 34.5t34 13.5q21 0 35 -13.5t14 -34.5t-14 -34.5t-35 -13.5zM69 293l12 66h561l-11 -66h-562zM322 98q-21 0 -34.5 13.5t-13.5 34.5t13.5 34.5t34.5 13.5t34.5 -13.5t13.5 -34.5t-13.5 -34.5t-34.5 -13.5z" />
    <glyph glyph-name="oslash" unicode="&#xf8;" horiz-adv-x="797" 
d="M788 485l-91 -61q57 -62 57 -155q0 -121 -92.5 -204.5t-273.5 -83.5q-159 0 -252 64l-99 -67l-29 37l91 62q-56 61 -56 154q0 121 92.5 204.5t273.5 83.5q156 0 250 -63l98 67zM122 233q0 -67 41 -113l431 292q-72 43 -188 43q-145 0 -214.5 -65.5t-69.5 -156.5zM675 267
q0 69 -42 114l-432 -292q71 -44 190 -44q75 0 132 19.5t89 52t47.5 70.5t15.5 80z" />
    <glyph glyph-name="ugrave" unicode="&#xf9;" horiz-adv-x="845" 
d="M527 580h-85l-207 150h100zM333 -19q-35 0 -66.5 4t-66.5 16.5t-60 33t-41.5 57t-16.5 84.5q0 19 19 152l31 172h74l-32 -180q-17 -96 -17 -128q0 -77 52 -112.5t138 -35.5q276 0 322 262l34 194h74l-88 -500h-73l23 132q-36 -66 -111.5 -108.5t-194.5 -42.5z" />
    <glyph glyph-name="uacute" unicode="&#xfa;" horiz-adv-x="845" 
d="M426 580l192 150h100l-207 -150h-85zM333 -19q-35 0 -66.5 4t-66.5 16.5t-60 33t-41.5 57t-16.5 84.5q0 19 19 152l31 172h74l-32 -180q-17 -96 -17 -128q0 -77 52 -112.5t138 -35.5q276 0 322 262l34 194h74l-88 -500h-73l23 132q-36 -66 -111.5 -108.5t-194.5 -42.5z
" />
    <glyph glyph-name="ucircumflex" unicode="&#xfb;" horiz-adv-x="845" 
d="M681 580h-76l-112 116l-153 -116h-83l194 150h89zM333 -19q-35 0 -66.5 4t-66.5 16.5t-60 33t-41.5 57t-16.5 84.5q0 19 19 152l31 172h74l-32 -180q-17 -96 -17 -128q0 -77 52 -112.5t138 -35.5q276 0 322 262l34 194h74l-88 -500h-73l23 132q-36 -66 -111.5 -108.5
t-194.5 -42.5z" />
    <glyph glyph-name="udieresis" unicode="&#xfc;" horiz-adv-x="845" 
d="M263 596l20 112h99l-20 -112h-99zM580 596l20 112h99l-20 -112h-99zM333 -19q-35 0 -66.5 4t-66.5 16.5t-60 33t-41.5 57t-16.5 84.5q0 19 19 152l31 172h74l-32 -180q-17 -96 -17 -128q0 -77 52 -112.5t138 -35.5q276 0 322 262l34 194h74l-88 -500h-73l23 132
q-36 -66 -111.5 -108.5t-194.5 -42.5z" />
    <glyph glyph-name="yacute" unicode="&#xfd;" horiz-adv-x="698" 
d="M364 580l192 150h100l-207 -150h-85zM53 -205q-49 0 -89 14l12 65q29 -13 83 -13q115 0 196 117l15 21l-223 501h85l172 -398q10 -26 14 -43h2q18 29 28 42l304 399h87l-425 -555q-67 -88 -126 -119t-135 -31z" />
    <glyph glyph-name="thorn" unicode="&#xfe;" horiz-adv-x="871" 
d="M510 519q45 0 87.5 -7.5t84.5 -26t73.5 -46t51 -70.5t19.5 -97q0 -55 -20.5 -105t-62 -93t-113 -68t-165.5 -25q-222 0 -299 129l-54 -305h-74l34 195l128 725h74l-59 -339q42 59 119 96t176 37zM447 46q83 0 144 20.5t93.5 54.5t47 71.5t14.5 79.5q0 55 -24 93.5
t-64 56.5t-77.5 25t-78.5 7q-120 0 -205 -51t-101 -125l-6 -28q-21 -98 49.5 -151t207.5 -53z" />
    <glyph glyph-name="ydieresis" unicode="&#xff;" horiz-adv-x="698" 
d="M201 596l20 112h99l-20 -112h-99zM518 596l20 112h99l-20 -112h-99zM53 -205q-49 0 -89 14l12 65q29 -13 83 -13q115 0 196 117l15 21l-223 501h85l172 -398q10 -26 14 -43h2q18 29 28 42l304 399h87l-425 -555q-67 -88 -126 -119t-135 -31z" />
    <glyph glyph-name="Amacron" unicode="&#x100;" horiz-adv-x="928" 
d="M772 820l-10 -54h-415l10 54h415zM778 0l-63 166h-521l-120 -166h-96l526 710h82l277 -710h-85zM245 236h444l-91 239q-44 114 -58 176h-2q-24 -47 -120 -176z" />
    <glyph glyph-name="amacron" unicode="&#x101;" horiz-adv-x="815" 
d="M230 615l10 54h455l-10 -54h-455zM296 -19q-252 0 -252 149q0 68 50 107q66 53 211 57l352 12l2 13q12 72 -46.5 106t-177.5 34q-223 0 -252 -123h-81q20 89 107 136t234 47q153 0 230 -53t57 -168l-21 -115q-20 -111 -21 -183h-77q1 43 13 113q-103 -132 -328 -132z
M303 39q153 0 240 54t99 128l6 31l-318 -12q-117 -4 -162 -31.5t-45 -72.5q0 -97 180 -97z" />
    <glyph glyph-name="Abreve" unicode="&#x102;" horiz-adv-x="928" 
d="M561 755q-75 0 -121 28t-47 82h63q11 -62 105 -62q109 0 127 62h63q-16 -56 -67.5 -83t-122.5 -27zM778 0l-63 166h-521l-120 -166h-96l526 710h82l277 -710h-85zM245 236h444l-91 239q-44 114 -58 176h-2q-24 -47 -120 -176z" />
    <glyph glyph-name="abreve" unicode="&#x103;" horiz-adv-x="815" 
d="M362 730q1 -55 28.5 -81t89.5 -26q109 0 136 107h63q-33 -155 -200 -155q-92 0 -137 39.5t-43 115.5h63zM296 -19q-252 0 -252 149q0 68 50 107q66 53 211 57l352 12l2 13q12 72 -46.5 106t-177.5 34q-223 0 -252 -123h-81q20 89 107 136t234 47q153 0 230 -53t57 -168
l-21 -115q-20 -111 -21 -183h-77q1 43 13 113q-103 -132 -328 -132zM303 39q153 0 240 54t99 128l6 31l-318 -12q-117 -4 -162 -31.5t-45 -72.5q0 -97 180 -97z" />
    <glyph glyph-name="Aogonek" unicode="&#x104;" horiz-adv-x="928" 
d="M862 0q-100 -19 -140.5 -44t-40.5 -62q0 -25 14.5 -39t41.5 -14q53 0 72 53l51 -11q-30 -83 -129 -83q-52 0 -82 22t-30 63q0 89 155 126l-59 155h-521l-120 -166h-96l526 710h82l277 -710h-1zM245 236h444l-91 239q-44 114 -58 176h-2q-24 -47 -120 -176z" />
    <glyph glyph-name="aogonek" unicode="&#x105;" horiz-adv-x="815" 
d="M443 519q153 0 230 -53t57 -168l-21 -115q-20 -111 -21 -183q-100 -19 -140.5 -44t-40.5 -62q0 -25 14.5 -39t41.5 -14q53 0 72 53l51 -11q-30 -83 -129 -83q-52 0 -82 22t-30 63q0 92 167 128q1 35 12 100q-103 -132 -328 -132q-252 0 -252 149q0 68 50 107
q66 53 211 57l352 12l2 13q12 72 -46.5 106t-177.5 34q-223 0 -252 -123h-81q20 89 107 136t234 47zM303 39q153 0 240 54t99 128l6 31l-318 -12q-117 -4 -162 -31.5t-45 -72.5q0 -97 180 -97z" />
    <glyph glyph-name="Cacute" unicode="&#x106;" horiz-adv-x="957" 
d="M527 760l174 105h101l-186 -105h-89zM471 -25q-88 0 -161 18t-132.5 56t-92.5 105t-33 157q0 84 29 157.5t87.5 134.5t158 96.5t228.5 35.5q165 0 269 -65t127 -202l-86 -8q-40 206 -316 206q-111 0 -193.5 -30t-128 -81.5t-67 -110.5t-21.5 -125q0 -77 27.5 -132.5
t77 -85.5t106 -43.5t125.5 -13.5q262 0 351 190l81 -13q-111 -246 -436 -246z" />
    <glyph glyph-name="cacute" unicode="&#x107;" horiz-adv-x="771" 
d="M401 580l192 150h100l-207 -150h-85zM373 -19q-65 0 -121 12.5t-104.5 39.5t-76.5 77t-28 119q0 42 10.5 81.5t37.5 78t67.5 67t106 46t148.5 17.5q281 0 327 -187l-84 -11q-31 134 -240 134q-71 0 -125 -15t-85 -37.5t-51 -53t-26.5 -58.5t-6.5 -57q0 -100 69 -144.5
t183 -44.5q108 0 164.5 33.5t94.5 94.5l75 -11q-20 -40 -46.5 -71t-65.5 -56.5t-95.5 -39.5t-127.5 -14z" />
    <glyph glyph-name="Ccircumflex" unicode="&#x108;" horiz-adv-x="957" 
d="M770 760h-87l-95 72l-120 -72h-95l172 105h90zM471 -25q-88 0 -161 18t-132.5 56t-92.5 105t-33 157q0 84 29 157.5t87.5 134.5t158 96.5t228.5 35.5q165 0 269 -65t127 -202l-86 -8q-40 206 -316 206q-111 0 -193.5 -30t-128 -81.5t-67 -110.5t-21.5 -125
q0 -77 27.5 -132.5t77 -85.5t106 -43.5t125.5 -13.5q262 0 351 190l81 -13q-111 -246 -436 -246z" />
    <glyph glyph-name="ccircumflex" unicode="&#x109;" horiz-adv-x="771" 
d="M656 580h-76l-112 116l-153 -116h-83l194 150h89zM373 -19q-65 0 -121 12.5t-104.5 39.5t-76.5 77t-28 119q0 42 10.5 81.5t37.5 78t67.5 67t106 46t148.5 17.5q281 0 327 -187l-84 -11q-31 134 -240 134q-71 0 -125 -15t-85 -37.5t-51 -53t-26.5 -58.5t-6.5 -57
q0 -100 69 -144.5t183 -44.5q108 0 164.5 33.5t94.5 94.5l75 -11q-20 -40 -46.5 -71t-65.5 -56.5t-95.5 -39.5t-127.5 -14z" />
    <glyph glyph-name="Cdotaccent" unicode="&#x10a;" horiz-adv-x="957" 
d="M527 760l18 105h91l-19 -105h-90zM471 -25q-88 0 -161 18t-132.5 56t-92.5 105t-33 157q0 84 29 157.5t87.5 134.5t158 96.5t228.5 35.5q165 0 269 -65t127 -202l-86 -8q-40 206 -316 206q-111 0 -193.5 -30t-128 -81.5t-67 -110.5t-21.5 -125q0 -77 27.5 -132.5
t77 -85.5t106 -43.5t125.5 -13.5q262 0 351 190l81 -13q-111 -246 -436 -246z" />
    <glyph glyph-name="cdotaccent" unicode="&#x10b;" horiz-adv-x="771" 
d="M399 591l20 113h90l-20 -113h-90zM373 -19q-65 0 -121 12.5t-104.5 39.5t-76.5 77t-28 119q0 42 10.5 81.5t37.5 78t67.5 67t106 46t148.5 17.5q281 0 327 -187l-84 -11q-31 134 -240 134q-71 0 -125 -15t-85 -37.5t-51 -53t-26.5 -58.5t-6.5 -57q0 -100 69 -144.5
t183 -44.5q108 0 164.5 33.5t94.5 94.5l75 -11q-20 -40 -46.5 -71t-65.5 -56.5t-95.5 -39.5t-127.5 -14z" />
    <glyph glyph-name="Ccaron" unicode="&#x10c;" horiz-adv-x="957" 
d="M383 860h87l95 -72l120 72h95l-172 -105h-90zM471 -25q-88 0 -161 18t-132.5 56t-92.5 105t-33 157q0 84 29 157.5t87.5 134.5t158 96.5t228.5 35.5q165 0 269 -65t127 -202l-86 -8q-40 206 -316 206q-111 0 -193.5 -30t-128 -81.5t-67 -110.5t-21.5 -125
q0 -77 27.5 -132.5t77 -85.5t106 -43.5t125.5 -13.5q262 0 351 190l81 -13q-111 -246 -436 -246z" />
    <glyph glyph-name="ccaron" unicode="&#x10d;" horiz-adv-x="771" 
d="M245 724h76l112 -116l153 116h83l-194 -150h-89zM373 -19q-65 0 -121 12.5t-104.5 39.5t-76.5 77t-28 119q0 42 10.5 81.5t37.5 78t67.5 67t106 46t148.5 17.5q281 0 327 -187l-84 -11q-31 134 -240 134q-71 0 -125 -15t-85 -37.5t-51 -53t-26.5 -58.5t-6.5 -57
q0 -100 69 -144.5t183 -44.5q108 0 164.5 33.5t94.5 94.5l75 -11q-20 -40 -46.5 -71t-65.5 -56.5t-95.5 -39.5t-127.5 -14z" />
    <glyph glyph-name="Dcaron" unicode="&#x10e;" horiz-adv-x="988" 
d="M402 860h87l95 -72l120 72h95l-172 -105h-90zM77 0l125 710h378q87 0 156 -16.5t123.5 -51.5t84 -97t29.5 -146q0 -80 -27 -149.5t-83 -126.5t-152.5 -90t-223.5 -33h-410zM172 70h315q93 0 164.5 19t115 49.5t71.5 73t38.5 86t10.5 92.5q0 74 -24.5 125t-70.5 77.5
t-98.5 37t-120.5 10.5h-300z" />
    <glyph glyph-name="dcaron" unicode="&#x10f;" horiz-adv-x="870" 
d="M373 -19q-48 0 -92.5 7.5t-88 26.5t-75.5 47t-51.5 72t-19.5 99q0 122 90 204t261 82q106 0 186.5 -36t120.5 -103l59 345h74l-127 -725h-73l20 112q-85 -131 -284 -131zM886 535l-13 26q52 21 59 66h-51l14 83h92l-12 -68q-8 -42 -27 -66t-62 -41zM386 45
q123 0 201 53.5t90 122.5l3 17q10 53 -10.5 95.5t-62.5 68.5t-95.5 39.5t-113.5 13.5q-137 0 -205 -64.5t-68 -155.5q0 -52 23 -90.5t62 -59.5t83 -30.5t93 -9.5z" />
    <glyph glyph-name="Dcroat" unicode="&#x110;" horiz-adv-x="989" 
d="M580 710q87 0 156 -16.5t123.5 -51.5t84 -97t29.5 -146q0 -80 -27 -149.5t-83 -126.5t-152.5 -90t-223.5 -33h-410l59 337h-120l10 63h121l55 310h378zM487 70q93 0 164.5 19t115 49.5t71.5 73t38.5 86t10.5 92.5q0 74 -24.5 125t-70.5 77.5t-98.5 37t-120.5 10.5h-300
l-43 -240h307l-11 -63h-307l-47 -267h315z" />
    <glyph glyph-name="dcroat" unicode="&#x111;" horiz-adv-x="870" 
d="M984 637l-9 -49h-162l-103 -588h-73l20 112q-85 -131 -284 -131q-48 0 -92.5 7.5t-88 26.5t-75.5 47t-51.5 72t-19.5 99q0 122 90 204t261 82q106 0 186.5 -36t120.5 -103l36 208h-234l9 49h233l15 88h74l-15 -88h162zM680 238q10 53 -10.5 95.5t-62.5 68.5t-95.5 39.5
t-113.5 13.5q-137 0 -205 -64.5t-68 -155.5q0 -52 23 -90.5t62 -59.5t83 -30.5t93 -9.5q123 0 201 53.5t90 122.5z" />
    <glyph glyph-name="Emacron" unicode="&#x112;" horiz-adv-x="879" 
d="M782 820l-10 -54h-415l10 54h415zM857 640h-584l-43 -241h567l-12 -70h-567l-46 -259h591l-12 -70h-673l125 710h666z" />
    <glyph glyph-name="emacron" unicode="&#x113;" horiz-adv-x="793" 
d="M688 669l-10 -54h-455l10 54h455zM743 295q0 -23 -8 -65h-615q7 -185 267 -185q104 0 164.5 28.5t98.5 87.5l59 -31q-98 -149 -319 -149q-44 0 -86.5 5.5t-91.5 21.5t-85 42t-60 71.5t-24 105.5q0 56 20.5 106.5t62.5 93t116 67.5t172 25q92 0 163.5 -21t118.5 -73
t47 -130zM668 288q2 18 2 20q0 44 -24 76t-64 48t-81.5 23t-87.5 7q-130 0 -201 -48t-87 -126h543z" />
    <glyph glyph-name="Ebreve" unicode="&#x114;" horiz-adv-x="879" 
d="M571 755q-75 0 -121 28t-47 82h63q11 -62 105 -62q109 0 127 62h63q-16 -56 -67.5 -83t-122.5 -27zM857 640h-584l-43 -241h567l-12 -70h-567l-46 -259h591l-12 -70h-673l125 710h666z" />
    <glyph glyph-name="ebreve" unicode="&#x115;" horiz-adv-x="793" 
d="M472 575q-92 0 -137 39.5t-43 115.5h63q1 -55 28.5 -81t89.5 -26q109 0 136 107h63q-33 -155 -200 -155zM743 295q0 -23 -8 -65h-615q7 -185 267 -185q104 0 164.5 28.5t98.5 87.5l59 -31q-98 -149 -319 -149q-44 0 -86.5 5.5t-91.5 21.5t-85 42t-60 71.5t-24 105.5
q0 56 20.5 106.5t62.5 93t116 67.5t172 25q92 0 163.5 -21t118.5 -73t47 -130zM668 288q2 18 2 20q0 44 -24 76t-64 48t-81.5 23t-87.5 7q-130 0 -201 -48t-87 -126h543z" />
    <glyph glyph-name="Edotaccent" unicode="&#x116;" horiz-adv-x="879" 
d="M628 865l-19 -105h-90l18 105h91zM857 640h-584l-43 -241h567l-12 -70h-567l-46 -259h591l-12 -70h-673l125 710h666z" />
    <glyph glyph-name="edotaccent" unicode="&#x117;" horiz-adv-x="793" 
d="M520 704l-20 -113h-90l20 113h90zM743 295q0 -23 -8 -65h-615q7 -185 267 -185q104 0 164.5 28.5t98.5 87.5l59 -31q-98 -149 -319 -149q-44 0 -86.5 5.5t-91.5 21.5t-85 42t-60 71.5t-24 105.5q0 56 20.5 106.5t62.5 93t116 67.5t172 25q92 0 163.5 -21t118.5 -73
t47 -130zM668 288q2 18 2 20q0 44 -24 76t-64 48t-81.5 23t-87.5 7q-130 0 -201 -48t-87 -126h543z" />
    <glyph glyph-name="Eogonek" unicode="&#x118;" horiz-adv-x="879" 
d="M857 640h-584l-43 -241h567l-12 -70h-567l-46 -259h591l-12 -70q-100 -19 -140.5 -44t-40.5 -62q0 -25 14.5 -39t41.5 -14q53 0 72 53l51 -11q-30 -83 -129 -83q-52 0 -82 22t-30 63q0 77 116 115h-546l125 710h666z" />
    <glyph glyph-name="eogonek" unicode="&#x119;" horiz-adv-x="793" 
d="M743 295q0 -23 -8 -65h-615q7 -185 267 -185q104 0 164.5 28.5t98.5 87.5l59 -31q-82 -123 -245 -145q-116 -30 -116 -91q0 -25 14.5 -39t41.5 -14q53 0 72 53l51 -11q-30 -83 -129 -83q-52 0 -82 22t-30 63q0 62 71 97q-44 2 -84 9t-83.5 25t-74.5 44t-51.5 69t-20.5 98
q0 56 20.5 106.5t62.5 93t116 67.5t172 25q92 0 163.5 -21t118.5 -73t47 -130zM668 288q2 18 2 20q0 44 -24 76t-64 48t-81.5 23t-87.5 7q-130 0 -201 -48t-87 -126h543z" />
    <glyph glyph-name="Ecaron" unicode="&#x11a;" horiz-adv-x="879" 
d="M600 755h-90l-135 105h87l95 -72l120 72h95zM857 640h-584l-43 -241h567l-12 -70h-567l-46 -259h591l-12 -70h-673l125 710h666z" />
    <glyph glyph-name="ecaron" unicode="&#x11b;" horiz-adv-x="793" 
d="M486 574h-89l-141 150h76l112 -116l153 116h83zM743 295q0 -23 -8 -65h-615q7 -185 267 -185q104 0 164.5 28.5t98.5 87.5l59 -31q-98 -149 -319 -149q-44 0 -86.5 5.5t-91.5 21.5t-85 42t-60 71.5t-24 105.5q0 56 20.5 106.5t62.5 93t116 67.5t172 25q92 0 163.5 -21
t118.5 -73t47 -130zM668 288q2 18 2 20q0 44 -24 76t-64 48t-81.5 23t-87.5 7q-130 0 -201 -48t-87 -126h543z" />
    <glyph glyph-name="Gcircumflex" unicode="&#x11c;" horiz-adv-x="994" 
d="M797 760h-87l-95 72l-120 -72h-95l172 105h90zM454 -25q-80 0 -149.5 18.5t-127.5 56.5t-92 105t-34 156q0 82 29 156t87 135t156.5 97t225.5 36q159 0 267 -57t137 -176l-87 -15q-26 93 -113 136t-212 43q-88 0 -158.5 -20.5t-116 -54.5t-75.5 -80.5t-42.5 -95
t-12.5 -100.5q0 -76 27 -130.5t75 -84t103.5 -43t121.5 -13.5q155 0 258 66t121 169l3 20h-343l12 70h418l-65 -369h-64l18 139q-50 -79 -147 -121.5t-220 -42.5z" />
    <glyph glyph-name="gcircumflex" unicode="&#x11d;" horiz-adv-x="790" 
d="M466 696l-151 -108h-82l192 142h90l142 -142h-77zM753 578q28 0 50 -7l-12 -64q-20 6 -44 6q-75 0 -102 -46q54 -39 54 -109q0 -82 -74 -138.5t-232 -56.5q-112 0 -180 30q-77 -11 -77 -63q0 -25 23.5 -36.5t78.5 -12.5l252 -4q103 -2 151.5 -30.5t48.5 -95.5
q0 -35 -15 -62.5t-52.5 -52t-113 -37.5t-184.5 -13q-161 0 -244 31.5t-83 104.5q0 86 111 114q-49 23 -49 72q0 83 117 105q-57 41 -57 112q0 82 74 138t233 56q112 0 182 -31q37 90 144 90zM395 220q123 0 175 37t52 93q0 112 -198 112q-123 0 -175 -37t-52 -92
q0 -113 198 -113zM490 12l-256 3q-49 2 -79 7q-83 -21 -83 -81q0 -36 35 -57.5t89 -29t135 -7.5q159 0 222 27.5t63 75.5q0 35 -28.5 48t-97.5 14z" />
    <glyph glyph-name="Gbreve" unicode="&#x11e;" horiz-adv-x="994" 
d="M501 865q11 -62 105 -62q109 0 127 62h63q-16 -56 -67.5 -83t-122.5 -27q-75 0 -121 28t-47 82h63zM454 -25q-80 0 -149.5 18.5t-127.5 56.5t-92 105t-34 156q0 82 29 156t87 135t156.5 97t225.5 36q159 0 267 -57t137 -176l-87 -15q-26 93 -113 136t-212 43
q-88 0 -158.5 -20.5t-116 -54.5t-75.5 -80.5t-42.5 -95t-12.5 -100.5q0 -76 27 -130.5t75 -84t103.5 -43t121.5 -13.5q155 0 258 66t121 169l3 20h-343l12 70h418l-65 -369h-64l18 139q-50 -79 -147 -121.5t-220 -42.5z" />
    <glyph glyph-name="gbreve" unicode="&#x11f;" horiz-adv-x="790" 
d="M460 575q-92 0 -137 39.5t-43 115.5h63q1 -55 28.5 -81t89.5 -26q109 0 136 107h63q-33 -155 -200 -155zM753 578q28 0 50 -7l-12 -64q-20 6 -44 6q-75 0 -102 -46q54 -39 54 -109q0 -82 -74 -138.5t-232 -56.5q-112 0 -180 30q-77 -11 -77 -63q0 -25 23.5 -36.5
t78.5 -12.5l252 -4q103 -2 151.5 -30.5t48.5 -95.5q0 -35 -15 -62.5t-52.5 -52t-113 -37.5t-184.5 -13q-161 0 -244 31.5t-83 104.5q0 86 111 114q-49 23 -49 72q0 83 117 105q-57 41 -57 112q0 82 74 138t233 56q112 0 182 -31q37 90 144 90zM395 220q123 0 175 37t52 93
q0 112 -198 112q-123 0 -175 -37t-52 -92q0 -113 198 -113zM490 12l-256 3q-49 2 -79 7q-83 -21 -83 -81q0 -36 35 -57.5t89 -29t135 -7.5q159 0 222 27.5t63 75.5q0 35 -28.5 48t-97.5 14z" />
    <glyph glyph-name="Gdotaccent" unicode="&#x120;" horiz-adv-x="994" 
d="M554 760l18 105h91l-19 -105h-90zM454 -25q-80 0 -149.5 18.5t-127.5 56.5t-92 105t-34 156q0 82 29 156t87 135t156.5 97t225.5 36q159 0 267 -57t137 -176l-87 -15q-26 93 -113 136t-212 43q-88 0 -158.5 -20.5t-116 -54.5t-75.5 -80.5t-42.5 -95t-12.5 -100.5
q0 -76 27 -130.5t75 -84t103.5 -43t121.5 -13.5q155 0 258 66t121 169l3 20h-343l12 70h418l-65 -369h-64l18 139q-50 -79 -147 -121.5t-220 -42.5z" />
    <glyph glyph-name="gdotaccent" unicode="&#x121;" horiz-adv-x="790" 
d="M508 704l-20 -113h-90l20 113h90zM753 578q28 0 50 -7l-12 -64q-20 6 -44 6q-75 0 -102 -46q54 -39 54 -109q0 -82 -74 -138.5t-232 -56.5q-112 0 -180 30q-77 -11 -77 -63q0 -25 23.5 -36.5t78.5 -12.5l252 -4q103 -2 151.5 -30.5t48.5 -95.5q0 -35 -15 -62.5t-52.5 -52
t-113 -37.5t-184.5 -13q-161 0 -244 31.5t-83 104.5q0 86 111 114q-49 23 -49 72q0 83 117 105q-57 41 -57 112q0 82 74 138t233 56q112 0 182 -31q37 90 144 90zM395 220q123 0 175 37t52 93q0 112 -198 112q-123 0 -175 -37t-52 -92q0 -113 198 -113zM490 12l-256 3
q-49 2 -79 7q-83 -21 -83 -81q0 -36 35 -57.5t89 -29t135 -7.5q159 0 222 27.5t63 75.5q0 35 -28.5 48t-97.5 14z" />
    <glyph glyph-name="Gcommaaccent" unicode="&#x122;" horiz-adv-x="994" 
d="M454 -25q-80 0 -149.5 18.5t-127.5 56.5t-92 105t-34 156q0 82 29 156t87 135t156.5 97t225.5 36q159 0 267 -57t137 -176l-87 -15q-26 93 -113 136t-212 43q-88 0 -158.5 -20.5t-116 -54.5t-75.5 -80.5t-42.5 -95t-12.5 -100.5q0 -76 27 -130.5t75 -84t103.5 -43
t121.5 -13.5q155 0 258 66t121 169l3 20h-343l12 70h418l-65 -369h-64l18 139q-50 -79 -147 -121.5t-220 -42.5zM401 -234l-14 26q31 14 43.5 30t16.5 39h-52l14 82h93l-12 -68q-8 -43 -27 -67.5t-62 -41.5z" />
    <glyph glyph-name="gcommaaccent" unicode="&#x123;" horiz-adv-x="790" 
d="M495 662l-14 -82h-93l12 68q8 43 27 67.5t62 41.5l14 -26q-31 -14 -43.5 -30t-16.5 -39h52zM753 578q28 0 50 -7l-12 -64q-20 6 -44 6q-75 0 -102 -46q54 -39 54 -109q0 -82 -74 -138.5t-232 -56.5q-112 0 -180 30q-77 -11 -77 -63q0 -25 23.5 -36.5t78.5 -12.5l252 -4
q103 -2 151.5 -30.5t48.5 -95.5q0 -35 -15 -62.5t-52.5 -52t-113 -37.5t-184.5 -13q-161 0 -244 31.5t-83 104.5q0 86 111 114q-49 23 -49 72q0 83 117 105q-57 41 -57 112q0 82 74 138t233 56q112 0 182 -31q37 90 144 90zM395 220q123 0 175 37t52 93q0 112 -198 112
q-123 0 -175 -37t-52 -92q0 -113 198 -113zM490 12l-256 3q-49 2 -79 7q-83 -21 -83 -81q0 -36 35 -57.5t89 -29t135 -7.5q159 0 222 27.5t63 75.5q0 35 -28.5 48t-97.5 14z" />
    <glyph glyph-name="Hcircumflex" unicode="&#x124;" horiz-adv-x="1018" 
d="M797 760h-87l-95 72l-120 -72h-95l172 105h90zM977 710l-125 -710h-82l58 328h-610l-58 -328h-82l125 710h82l-55 -312h610l55 312h82z" />
    <glyph glyph-name="hcircumflex" unicode="&#x125;" horiz-adv-x="862" 
d="M442 760h-87l-95 72l-120 -72h-95l172 105h90zM73 0l128 725h74l-63 -355q35 63 106.5 106t181.5 43q41 0 77.5 -7t73 -24.5t62.5 -44.5t42 -70t16 -99q0 -49 -11 -107l-30 -167h-74l31 180q9 48 9 87q0 96 -58.5 141.5t-153.5 45.5q-137 0 -210 -71t-93 -186l-34 -197
h-74z" />
    <glyph glyph-name="Hbar" unicode="&#x126;" horiz-adv-x="1018" 
d="M1050 570l-9 -52h-98l-91 -518h-82l58 328h-610l-58 -328h-82l91 518h-99l9 52h99l25 140h82l-25 -140h610l25 140h82l-25 -140h98zM840 398l21 120h-610l-21 -120h610z" />
    <glyph glyph-name="hbar" unicode="&#x127;" horiz-adv-x="854" 
d="M500 519q41 0 77.5 -7t73 -24.5t62.5 -44.5t42 -70t16 -99q0 -49 -11 -107l-30 -167h-74l31 180q9 48 9 87q0 96 -58.5 141.5t-153.5 45.5q-137 0 -210 -71t-93 -186l-34 -197h-74l102 580h-98l8 49h99l17 96h74l-17 -96h358l-9 -49h-358l-37 -210q35 63 106.5 106
t181.5 43z" />
    <glyph glyph-name="Itilde" unicode="&#x128;" horiz-adv-x="326" 
d="M318 761q-27 0 -45 13.5t-32 26.5t-31 13q-30 0 -38 -41l-50 9q7 42 30.5 65.5t55.5 23.5q28 0 46.5 -13.5t32 -26.5t29.5 -13q28 0 38 41l49 -9q-8 -42 -31 -65.5t-54 -23.5zM160 0h-82l125 710h82z" />
    <glyph glyph-name="itilde" unicode="&#x129;" horiz-adv-x="297" 
d="M267 586q-20 0 -34.5 11t-21.5 23.5t-17.5 23.5t-21.5 11q-31 0 -39 -55l-50 9q10 51 33.5 78.5t55.5 27.5q20 0 34.5 -11t22 -24t17.5 -24t21 -11q27 0 39 56l49 -10q-25 -105 -88 -105zM68 0l88 500h74l-88 -500h-74z" />
    <glyph glyph-name="Imacron" unicode="&#x12a;" horiz-adv-x="326" 
d="M135 766l10 59h230l-10 -59h-230zM160 0h-82l125 710h82z" />
    <glyph glyph-name="imacron" unicode="&#x12b;" horiz-adv-x="297" 
d="M101 615l10 54h225l-10 -54h-225zM68 0l88 500h74l-88 -500h-74z" />
    <glyph glyph-name="Ibreve" unicode="&#x12c;" horiz-adv-x="326" 
d="M198 865q0 -26 17 -44t51 -18q68 0 79 62h63q-12 -54 -50.5 -82t-91.5 -28q-60 0 -96 28.5t-35 81.5h63zM160 0h-82l125 710h82z" />
    <glyph glyph-name="ibreve" unicode="&#x12d;" horiz-adv-x="297" 
d="M185 731q-7 -55 1.5 -79t37.5 -24q55 0 59 103h63q-6 -83 -40 -119.5t-82 -36.5q-124 0 -102 156h63zM68 0l88 500h74l-88 -500h-74z" />
    <glyph glyph-name="Iogonek" unicode="&#x12e;" horiz-adv-x="326" 
d="M203 710h82l-125 -710h-1q-100 -19 -140.5 -44t-40.5 -62q0 -25 14.5 -39t41.5 -14q53 0 72 53l51 -11q-30 -83 -129 -83q-52 0 -82 22t-30 63q0 91 164 128z" />
    <glyph glyph-name="iogonek" unicode="&#x12f;" horiz-adv-x="297" 
d="M182 704h90l-20 -113h-90zM71 14l85 486h74l-88 -500h-1q-100 -19 -140.5 -44t-40.5 -62q0 -25 14.5 -39t41.5 -14q53 0 72 53l51 -11q-30 -83 -129 -83q-52 0 -82 22t-30 63q0 48 41.5 79t131.5 50z" />
    <glyph glyph-name="Idotaccent" unicode="&#x130;" horiz-adv-x="326" 
d="M208 760l18 105h91l-19 -105h-90zM160 0h-82l125 710h82z" />
    <glyph glyph-name="dotlessi" unicode="&#x131;" horiz-adv-x="297" 
d="M68 0l88 500h74l-88 -500h-74z" />
    <glyph glyph-name="IJ" unicode="&#x132;" horiz-adv-x="835" 
d="M160 0h-82l125 710h82zM737 225q-23 -135 -93.5 -187.5t-193.5 -52.5q-72 0 -146 20l14 77q65 -20 142 -20q84 0 131.5 36t64.5 131l84 481h83z" />
    <glyph glyph-name="ij" unicode="&#x133;" horiz-adv-x="613" 
d="M162 591l20 113h90l-20 -113h-90zM473 591l20 113h90l-20 -113h-90zM68 0l88 500h74l-88 -500h-74zM263 -205q-52 0 -95 16l11 65q49 -15 82 -15q55 0 81.5 31.5t39.5 106.5l89 501h74l-91 -512q-17 -99 -58.5 -146t-132.5 -47z" />
    <glyph glyph-name="Jcircumflex" unicode="&#x134;" horiz-adv-x="509" 
d="M599 761h-76l-46 71l-70 -71h-83l111 104h90zM411 225q-23 -135 -93.5 -187.5t-193.5 -52.5q-72 0 -146 20l14 77q65 -20 142 -20q84 0 131.5 36t64.5 131l84 481h83z" />
    <glyph glyph-name="jcircumflex" unicode="&#x135;" horiz-adv-x="316" 
d="M338 580h-63l-32 115l-73 -115h-66l105 152h77zM-34 -205q-52 0 -95 16l11 65q49 -15 82 -15q55 0 81.5 31.5t39.5 106.5l89 501h74l-91 -512q-17 -99 -58.5 -146t-132.5 -47z" />
    <glyph glyph-name="Kcommaaccent" unicode="&#x136;" horiz-adv-x="928" 
d="M946 710l-378 -260l283 -450h-100l-254 402l-303 -211l-34 -191h-82l125 710h82l-74 -420l617 420h118zM358 -139l14 82h93l-12 -68q-8 -43 -27 -67.5t-62 -41.5l-14 26q31 14 43.5 30t16.5 39h-52z" />
    <glyph glyph-name="kcommaaccent" unicode="&#x137;" horiz-adv-x="767" 
d="M755 500l-294 -177l225 -323h-91l-195 290l-225 -130l-28 -160h-74l128 725h74l-87 -492l454 267h113zM270 -139l14 82h93l-12 -68q-8 -43 -27 -67.5t-62 -41.5l-14 26q31 14 43.5 30t16.5 39h-52z" />
    <glyph glyph-name="kgreenlandic" unicode="&#x138;" horiz-adv-x="762" 
d="M750 500l-294 -177l225 -323h-91l-195 290l-225 -130l-28 -160h-74l88 500h74l-47 -267l454 267h113z" />
    <glyph glyph-name="Lacute" unicode="&#x139;" horiz-adv-x="795" 
d="M210 760l174 105h101l-186 -105h-89zM78 0l125 710h82l-112 -638h556l-13 -72h-638z" />
    <glyph glyph-name="lacute" unicode="&#x13a;" horiz-adv-x="307" 
d="M199 760l174 105h101l-186 -105h-89zM275 725l-128 -725h-74l128 725h74z" />
    <glyph glyph-name="Lcommaaccent" unicode="&#x13b;" horiz-adv-x="795" 
d="M78 0l125 710h82l-112 -638h556l-13 -72h-638zM336 -234l-14 26q31 14 43.5 30t16.5 39h-52l14 82h93l-12 -68q-8 -43 -27 -67.5t-62 -41.5z" />
    <glyph glyph-name="lcommaaccent" unicode="&#x13c;" horiz-adv-x="307" 
d="M275 725l-128 -725h-74l128 725h74zM46 -234l-14 26q31 14 43.5 30t16.5 39h-52l14 82h93l-12 -68q-8 -43 -27 -67.5t-62 -41.5z" />
    <glyph glyph-name="Lcaron" unicode="&#x13d;" horiz-adv-x="795" 
d="M78 0l125 710h82l-112 -638h556l-13 -72h-638zM389 535l-13 26q52 21 59 66h-51l14 83h92l-12 -68q-8 -42 -27 -66t-62 -41z" />
    <glyph glyph-name="lcaron" unicode="&#x13e;" horiz-adv-x="307" 
d="M275 725l-128 -725h-74l128 725h74zM322 535l-13 26q52 21 59 66h-51l14 83h92l-12 -68q-8 -42 -27 -66t-62 -41z" />
    <glyph glyph-name="Ldot" unicode="&#x13f;" horiz-adv-x="795" 
d="M78 0l125 710h82l-112 -638h556l-13 -72h-638zM584 500l-20 -110h-116l19 110h117z" />
    <glyph glyph-name="ldot" unicode="&#x140;" horiz-adv-x="359" 
d="M275 725l-128 -725h-74l128 725h74zM435 500l-20 -110h-116l19 110h117z" />
    <glyph glyph-name="Lslash" unicode="&#x141;" horiz-adv-x="795" 
d="M173 72h556l-13 -72h-638l52 296l-143 -56l11 64l143 56l62 350h82l-55 -315l341 133l-11 -64l-342 -134z" />
    <glyph glyph-name="lslash" unicode="&#x142;" horiz-adv-x="307" 
d="M309 515l-10 -54l-81 -56l-71 -405h-74l61 346l-81 -57l10 54l80 56l58 326h74l-47 -267z" />
    <glyph glyph-name="Nacute" unicode="&#x143;" horiz-adv-x="1013" 
d="M552 760l174 105h101l-186 -105h-89zM78 0l125 710h96l442 -563q37 -50 44 -62h2q2 14 6.5 41t7.5 41l96 543h75l-125 -710h-83l-452 573q-23 30 -45 63h-2l-13 -77l-99 -559h-75z" />
    <glyph glyph-name="nacute" unicode="&#x144;" horiz-adv-x="857" 
d="M490 580l192 150h100l-207 -150h-85zM68 0l88 500h73l-23 -131q36 64 109 107t182 43q37 0 69.5 -5t70.5 -21t65.5 -42t45.5 -72.5t18 -108.5q0 -45 -10 -98l-31 -172h-74l33 180q8 46 8 80q0 55 -18 94.5t-50 60.5t-68.5 30t-80.5 9q-133 0 -205.5 -72t-93.5 -188
l-34 -194h-74z" />
    <glyph glyph-name="Ncommaaccent" unicode="&#x145;" horiz-adv-x="1013" 
d="M78 0l125 710h96l442 -563q37 -50 44 -62h2q2 14 6.5 41t7.5 41l96 543h75l-125 -710h-83l-452 573q-23 30 -45 63h-2l-13 -77l-99 -559h-75zM399 -234l-14 26q31 14 43.5 30t16.5 39h-52l14 82h93l-12 -68q-8 -43 -27 -67.5t-62 -41.5z" />
    <glyph glyph-name="ncommaaccent" unicode="&#x146;" horiz-adv-x="857" 
d="M68 0l88 500h73l-23 -131q36 64 109 107t182 43q37 0 69.5 -5t70.5 -21t65.5 -42t45.5 -72.5t18 -108.5q0 -45 -10 -98l-31 -172h-74l33 180q8 46 8 80q0 55 -18 94.5t-50 60.5t-68.5 30t-80.5 9q-133 0 -205.5 -72t-93.5 -188l-34 -194h-74zM322 -234l-14 26
q31 14 43.5 30t16.5 39h-52l14 82h93l-12 -68q-8 -43 -27 -67.5t-62 -41.5z" />
    <glyph glyph-name="Ncaron" unicode="&#x147;" horiz-adv-x="1013" 
d="M408 860h87l95 -72l120 72h95l-172 -105h-90zM78 0l125 710h96l442 -563q37 -50 44 -62h2q2 14 6.5 41t7.5 41l96 543h75l-125 -710h-83l-452 573q-23 30 -45 63h-2l-13 -77l-99 -559h-75z" />
    <glyph glyph-name="ncaron" unicode="&#x148;" horiz-adv-x="857" 
d="M334 724h76l112 -116l153 116h83l-194 -150h-89zM68 0l88 500h73l-23 -131q36 64 109 107t182 43q37 0 69.5 -5t70.5 -21t65.5 -42t45.5 -72.5t18 -108.5q0 -45 -10 -98l-31 -172h-74l33 180q8 46 8 80q0 55 -18 94.5t-50 60.5t-68.5 30t-80.5 9q-133 0 -205.5 -72
t-93.5 -188l-34 -194h-74z" />
    <glyph glyph-name="napostrophe" unicode="&#x149;" horiz-adv-x="857" 
d="M115 535l-13 26q52 21 59 66h-51l14 83h92l-12 -68q-8 -42 -27 -66t-62 -41zM68 0l88 500h73l-23 -131q36 64 109 107t182 43q37 0 69.5 -5t70.5 -21t65.5 -42t45.5 -72.5t18 -108.5q0 -45 -10 -98l-31 -172h-74l33 180q8 46 8 80q0 55 -18 94.5t-50 60.5t-68.5 30
t-80.5 9q-133 0 -205.5 -72t-93.5 -188l-34 -194h-74z" />
    <glyph glyph-name="Eng" unicode="&#x14a;" horiz-adv-x="1013" 
d="M864 95l-10 -56l-7 -39l-2 -10q-19 -105 -84.5 -155t-182.5 -50q-59 0 -122 7l13 73q59 -8 125 -8q151 0 178 143h-8l-452 573q-23 30 -45 63h-2l-13 -77l-99 -559h-75l125 710h96l442 -563q37 -50 44 -62h2v2q3 13 7.5 40t6.5 40l96 543h75z" />
    <glyph glyph-name="eng" unicode="&#x14b;" horiz-adv-x="857" 
d="M497 519q37 0 69.5 -5t70.5 -21t65.5 -42t45.5 -72.5t18 -108.5q0 -45 -10 -98l-31 -172l-6 -33q-26 -171 -234 -171q-51 0 -71 6l11 61q35 -5 77 -5q61 0 97 24.5t46 81.5l6 36l33 180q8 46 8 80q0 55 -18 94.5t-50 60.5t-68.5 30t-80.5 9q-133 0 -205.5 -72t-93.5 -188
l-34 -194h-74l88 500h73l-23 -131q36 64 109 107t182 43z" />
    <glyph glyph-name="Omacron" unicode="&#x14c;" horiz-adv-x="999" 
d="M373 766l10 54h415l-10 -54h-415zM486 -25q-90 0 -166 18.5t-137.5 57.5t-96 106t-34.5 157q0 82 29.5 155.5t88 134t156.5 96t224 35.5q91 0 166.5 -18.5t137 -57.5t96.5 -106t35 -157q0 -82 -29.5 -155.5t-88 -134t-157 -96t-224.5 -35.5zM492 44q107 0 188 30
t127 80.5t68.5 110t22.5 125.5q0 77 -30 133t-82 86t-111.5 43.5t-130.5 13.5q-107 0 -188 -30t-127 -80.5t-68.5 -110t-22.5 -125.5q0 -77 30 -133t82 -86t111.5 -43.5t130.5 -13.5z" />
    <glyph glyph-name="omacron" unicode="&#x14d;" horiz-adv-x="797" 
d="M222 615l10 54h455l-10 -54h-455zM388 -19q-68 0 -127 13t-109.5 41t-79.5 78t-29 118q0 121 92.5 204.5t273.5 83.5q68 0 127 -13t109.5 -41t79.5 -78t29 -118q0 -121 -92.5 -204.5t-273.5 -83.5zM391 45q75 0 132 19.5t89 52t47.5 70.5t15.5 80q0 68 -41.5 112t-99 60
t-128.5 16q-145 0 -214.5 -65.5t-69.5 -156.5q0 -68 41.5 -112t99 -60t128.5 -16z" />
    <glyph glyph-name="Obreve" unicode="&#x14e;" horiz-adv-x="999" 
d="M482 865q11 -62 105 -62q109 0 127 62h63q-16 -56 -67.5 -83t-122.5 -27q-75 0 -121 28t-47 82h63zM486 -25q-90 0 -166 18.5t-137.5 57.5t-96 106t-34.5 157q0 82 29.5 155.5t88 134t156.5 96t224 35.5q91 0 166.5 -18.5t137 -57.5t96.5 -106t35 -157
q0 -82 -29.5 -155.5t-88 -134t-157 -96t-224.5 -35.5zM492 44q107 0 188 30t127 80.5t68.5 110t22.5 125.5q0 77 -30 133t-82 86t-111.5 43.5t-130.5 13.5q-107 0 -188 -30t-127 -80.5t-68.5 -110t-22.5 -125.5q0 -77 30 -133t82 -86t111.5 -43.5t130.5 -13.5z" />
    <glyph glyph-name="obreve" unicode="&#x14f;" horiz-adv-x="797" 
d="M354 730q1 -55 28.5 -81t89.5 -26q109 0 136 107h63q-33 -155 -200 -155q-92 0 -137 39.5t-43 115.5h63zM388 -19q-68 0 -127 13t-109.5 41t-79.5 78t-29 118q0 121 92.5 204.5t273.5 83.5q68 0 127 -13t109.5 -41t79.5 -78t29 -118q0 -121 -92.5 -204.5t-273.5 -83.5z
M391 45q75 0 132 19.5t89 52t47.5 70.5t15.5 80q0 68 -41.5 112t-99 60t-128.5 16q-145 0 -214.5 -65.5t-69.5 -156.5q0 -68 41.5 -112t99 -60t128.5 -16z" />
    <glyph glyph-name="Ohungarumlaut" unicode="&#x150;" horiz-adv-x="999" 
d="M458 760l148 105h80l-154 -105h-74zM628 760l149 105h80l-155 -105h-74zM486 -25q-90 0 -166 18.5t-137.5 57.5t-96 106t-34.5 157q0 82 29.5 155.5t88 134t156.5 96t224 35.5q91 0 166.5 -18.5t137 -57.5t96.5 -106t35 -157q0 -82 -29.5 -155.5t-88 -134t-157 -96
t-224.5 -35.5zM492 44q107 0 188 30t127 80.5t68.5 110t22.5 125.5q0 77 -30 133t-82 86t-111.5 43.5t-130.5 13.5q-107 0 -188 -30t-127 -80.5t-68.5 -110t-22.5 -125.5q0 -77 30 -133t82 -86t111.5 -43.5t130.5 -13.5z" />
    <glyph glyph-name="ohungarumlaut" unicode="&#x151;" horiz-adv-x="797" 
d="M332 580l178 150h80l-185 -150h-73zM503 580l179 150h79l-185 -150h-73zM388 -19q-68 0 -127 13t-109.5 41t-79.5 78t-29 118q0 121 92.5 204.5t273.5 83.5q68 0 127 -13t109.5 -41t79.5 -78t29 -118q0 -121 -92.5 -204.5t-273.5 -83.5zM391 45q75 0 132 19.5t89 52
t47.5 70.5t15.5 80q0 68 -41.5 112t-99 60t-128.5 16q-145 0 -214.5 -65.5t-69.5 -156.5q0 -68 41.5 -112t99 -60t128.5 -16z" />
    <glyph glyph-name="OE" unicode="&#x152;" horiz-adv-x="1485" 
d="M1463 640h-584l-43 -241h567l-12 -70h-567l-46 -259h591l-12 -70h-867q-439 0 -439 314q0 82 29.5 151.5t88.5 125t158.5 87.5t229.5 32h918zM696 70l101 570h-245q-111 0 -193.5 -26t-129 -72t-69 -101.5t-22.5 -120.5q0 -62 20.5 -108t53.5 -72.5t81.5 -43t95.5 -21.5
t106 -5h201z" />
    <glyph glyph-name="oe" unicode="&#x153;" horiz-adv-x="1420" 
d="M1371 295q0 -27 -9 -65h-615q7 -185 267 -185q104 0 164.5 28.5t98.5 87.5l59 -31q-98 -149 -317 -149q-44 0 -86 6t-88 20t-83.5 43t-58.5 70q-89 -139 -315 -139q-67 0 -126 13t-109.5 41t-80 78t-29.5 118q0 121 92.5 204.5t271.5 83.5q108 0 192.5 -34t121.5 -107
q89 141 322 141q91 0 162 -21t118.5 -73t47.5 -130zM1295 288q2 9 2 20q0 44 -24 76t-64 48t-81 23t-87 7q-130 0 -201.5 -48t-87.5 -126h543zM391 45q75 0 132 19.5t89 52t47.5 70.5t15.5 80q0 68 -41.5 112t-99 60t-128.5 16q-75 0 -132 -19.5t-89 -52t-47.5 -70.5
t-15.5 -80q0 -68 41.5 -112t99 -60t128.5 -16z" />
    <glyph glyph-name="Racute" unicode="&#x154;" horiz-adv-x="906" 
d="M756 865l-186 -105h-89l174 105h101zM875 522q0 -86 -53.5 -145.5t-172.5 -75.5l161 -301h-102l-157 296h-339l-52 -296h-83l125 710h427q111 0 178.5 -44t67.5 -144zM567 366q221 0 221 152q0 122 -166 122h-349l-48 -274h342z" />
    <glyph glyph-name="racute" unicode="&#x155;" horiz-adv-x="493" 
d="M276 580l192 150h100l-207 -150h-85zM197 343q32 80 86.5 126.5t150.5 46.5q44 0 83 -12l-13 -73q-42 12 -84 12q-89 0 -144 -45q-74 -59 -101 -209l-33 -189h-74l88 500h69z" />
    <glyph glyph-name="Rcommaaccent" unicode="&#x156;" horiz-adv-x="906" 
d="M875 522q0 -86 -53.5 -145.5t-172.5 -75.5l161 -301h-102l-157 296h-339l-52 -296h-83l125 710h427q111 0 178.5 -44t67.5 -144zM567 366q221 0 221 152q0 122 -166 122h-349l-48 -274h342zM333 -139l14 82h93l-12 -68q-8 -43 -27 -67.5t-62 -41.5l-14 26q31 14 43.5 30
t16.5 39h-52z" />
    <glyph glyph-name="rcommaaccent" unicode="&#x157;" horiz-adv-x="493" 
d="M197 343q32 80 86.5 126.5t150.5 46.5q44 0 83 -12l-13 -73q-42 12 -84 12q-89 0 -144 -45q-74 -59 -101 -209l-33 -189h-74l88 500h69zM41 -234l-14 26q31 14 43.5 30t16.5 39h-52l14 82h93l-12 -68q-8 -43 -27 -67.5t-62 -41.5z" />
    <glyph glyph-name="Rcaron" unicode="&#x158;" horiz-adv-x="906" 
d="M562 755h-90l-135 105h87l95 -72l120 72h95zM875 522q0 -86 -53.5 -145.5t-172.5 -75.5l161 -301h-102l-157 296h-339l-52 -296h-83l125 710h427q111 0 178.5 -44t67.5 -144zM567 366q221 0 221 152q0 122 -166 122h-349l-48 -274h342z" />
    <glyph glyph-name="rcaron" unicode="&#x159;" horiz-adv-x="493" 
d="M120 724h76l112 -116l153 116h83l-194 -150h-89zM197 343q32 80 86.5 126.5t150.5 46.5q44 0 83 -12l-13 -73q-42 12 -84 12q-89 0 -144 -45q-74 -59 -101 -209l-33 -189h-74l88 500h69z" />
    <glyph glyph-name="Sacute" unicode="&#x15a;" horiz-adv-x="893" 
d="M487 760l174 105h101l-186 -105h-89zM456 -25q-405 0 -417 252l89 12q8 -101 91.5 -148t248.5 -47q263 0 263 151q0 55 -41 83.5t-144 39.5l-179 19q-241 25 -241 187q0 99 87 155t264 56q367 0 388 -225l-91 -17q-4 50 -27 84.5t-63.5 53.5t-90 27t-116.5 8
q-263 0 -263 -136q0 -52 44 -81t144 -40l184 -20q123 -14 178 -61t55 -129q0 -224 -363 -224z" />
    <glyph glyph-name="sacute" unicode="&#x15b;" horiz-adv-x="746" 
d="M382 580l192 150h100l-207 -150h-85zM364 -19q-66 0 -117 7.5t-97.5 26.5t-75.5 56t-39 91l74 19q8 -43 32.5 -71.5t62 -42.5t76.5 -19.5t89 -5.5q220 0 220 100q0 33 -23 49.5t-78 21.5l-218 20q-176 16 -176 130q0 76 74.5 116t210.5 40q270 0 317 -154l-75 -23
q-14 37 -38.5 61.5t-58.5 36t-66 15.5t-77 4q-116 0 -164.5 -22t-48.5 -68q0 -33 24.5 -49t82.5 -22l227 -23q84 -8 123.5 -39t39.5 -90q0 -165 -301 -165z" />
    <glyph glyph-name="Scircumflex" unicode="&#x15c;" horiz-adv-x="893" 
d="M730 760h-87l-95 72l-120 -72h-95l172 105h90zM456 -25q-405 0 -417 252l89 12q8 -101 91.5 -148t248.5 -47q263 0 263 151q0 55 -41 83.5t-144 39.5l-179 19q-241 25 -241 187q0 99 87 155t264 56q367 0 388 -225l-91 -17q-4 50 -27 84.5t-63.5 53.5t-90 27t-116.5 8
q-263 0 -263 -136q0 -52 44 -81t144 -40l184 -20q123 -14 178 -61t55 -129q0 -224 -363 -224z" />
    <glyph glyph-name="scircumflex" unicode="&#x15d;" horiz-adv-x="746" 
d="M637 580h-76l-112 116l-153 -116h-83l194 150h89zM364 -19q-66 0 -117 7.5t-97.5 26.5t-75.5 56t-39 91l74 19q8 -43 32.5 -71.5t62 -42.5t76.5 -19.5t89 -5.5q220 0 220 100q0 33 -23 49.5t-78 21.5l-218 20q-176 16 -176 130q0 76 74.5 116t210.5 40q270 0 317 -154
l-75 -23q-14 37 -38.5 61.5t-58.5 36t-66 15.5t-77 4q-116 0 -164.5 -22t-48.5 -68q0 -33 24.5 -49t82.5 -22l227 -23q84 -8 123.5 -39t39.5 -90q0 -165 -301 -165z" />
    <glyph glyph-name="Scedilla" unicode="&#x15e;" horiz-adv-x="893" 
d="M586 389q123 -14 178 -61t55 -129q0 -224 -363 -224h-31l-28 -29q19 14 64 14q42 0 66.5 -18t24.5 -49q0 -41 -39 -66.5t-93 -25.5q-50 0 -82.5 16t-41.5 45l56 10q12 -30 66 -30q32 0 52 12t20 34q0 38 -63 38q-35 0 -58 -17l-38 11l49 57q-331 24 -341 250l89 12
q8 -101 91.5 -148t248.5 -47q263 0 263 151q0 55 -41 83.5t-144 39.5l-179 19q-241 25 -241 187q0 99 87 155t264 56q367 0 388 -225l-91 -17q-4 50 -27 84.5t-63.5 53.5t-90 27t-116.5 8q-263 0 -263 -136q0 -52 44 -81t144 -40z" />
    <glyph glyph-name="scedilla" unicode="&#x15f;" horiz-adv-x="746" 
d="M502 275q84 -8 123.5 -39t39.5 -90q0 -165 -301 -165h-10l-32 -34q19 14 64 14q42 0 66.5 -18t24.5 -49q0 -41 -39 -66.5t-93 -25.5q-50 0 -82.5 16t-41.5 45l56 10q12 -30 66 -30q32 0 52 12t20 34q0 38 -63 38q-35 0 -58 -17l-38 11l53 61q-115 7 -186 47.5t-88 132.5
l74 19q8 -43 32.5 -71.5t62 -42.5t76.5 -19.5t89 -5.5q220 0 220 100q0 33 -23 49.5t-78 21.5l-218 20q-176 16 -176 130q0 76 74.5 116t210.5 40q270 0 317 -154l-75 -23q-14 37 -38.5 61.5t-58.5 36t-66 15.5t-77 4q-116 0 -164.5 -22t-48.5 -68q0 -33 24.5 -49t82.5 -22z
" />
    <glyph glyph-name="Scaron" unicode="&#x160;" horiz-adv-x="893" 
d="M343 860h87l95 -72l120 72h95l-172 -105h-90zM456 -25q-405 0 -417 252l89 12q8 -101 91.5 -148t248.5 -47q263 0 263 151q0 55 -41 83.5t-144 39.5l-179 19q-241 25 -241 187q0 99 87 155t264 56q367 0 388 -225l-91 -17q-4 50 -27 84.5t-63.5 53.5t-90 27t-116.5 8
q-263 0 -263 -136q0 -52 44 -81t144 -40l184 -20q123 -14 178 -61t55 -129q0 -224 -363 -224z" />
    <glyph glyph-name="scaron" unicode="&#x161;" horiz-adv-x="746" 
d="M226 724h76l112 -116l153 116h83l-194 -150h-89zM364 -19q-66 0 -117 7.5t-97.5 26.5t-75.5 56t-39 91l74 19q8 -43 32.5 -71.5t62 -42.5t76.5 -19.5t89 -5.5q220 0 220 100q0 33 -23 49.5t-78 21.5l-218 20q-176 16 -176 130q0 76 74.5 116t210.5 40q270 0 317 -154
l-75 -23q-14 37 -38.5 61.5t-58.5 36t-66 15.5t-77 4q-116 0 -164.5 -22t-48.5 -68q0 -33 24.5 -49t82.5 -22l227 -23q84 -8 123.5 -39t39.5 -90q0 -165 -301 -165z" />
    <glyph glyph-name="uni0162" unicode="&#x162;" horiz-adv-x="784" 
d="M389 0h-18l-50 -53q19 14 64 14q42 0 66.5 -18t24.5 -49q0 -41 -39 -66.5t-93 -25.5q-50 0 -82.5 16t-41.5 45l56 10q12 -30 66 -30q32 0 52 12t20 34q0 38 -63 38q-35 0 -58 -17l-38 11l68 79h-16l112 640h-340l12 70h764l-12 -70h-341z" />
    <glyph glyph-name="uni0163" unicode="&#x163;" horiz-adv-x="553" 
d="M287 439l-40 -223q-4 -36 -4.5 -61.5t9.5 -43t20 -28t28 -16t33.5 -7.5t35.5 -2q49 0 107 11l-11 -66q-52 -14 -115 -14h-14l-40 -42q19 14 64 14q42 0 66.5 -18t24.5 -49q0 -41 -39 -66.5t-93 -25.5q-50 0 -82.5 16t-41.5 45l56 10q12 -30 66 -30q32 0 52 12t20 34
q0 38 -63 38q-35 0 -58 -17l-38 11l62 73q-154 27 -117 232l38 213h-159l11 61h158l23 132l80 32l-29 -164h253l-11 -61h-252z" />
    <glyph glyph-name="Tcaron" unicode="&#x164;" horiz-adv-x="784" 
d="M518 755h-90l-135 105h87l95 -72l120 72h95zM855 710l-12 -70h-341l-113 -640h-82l112 640h-340l12 70h764z" />
    <glyph glyph-name="tcaron" unicode="&#x165;" horiz-adv-x="553" 
d="M424 535l-13 26q52 21 59 66h-51l14 83h92l-12 -68q-8 -42 -27 -66t-62 -41zM54 439l11 61h158l23 132l80 32l-29 -164h253l-11 -61h-252l-40 -223q-4 -36 -4.5 -61.5t9.5 -43t20 -28t28 -16t33.5 -7.5t35.5 -2q49 0 107 11l-11 -66q-52 -14 -115 -14q-102 0 -150 53.5
t-25 183.5l38 213h-159z" />
    <glyph glyph-name="Tbar" unicode="&#x166;" horiz-adv-x="784" 
d="M843 640h-341l-35 -197h194l-9 -49h-193l-70 -394h-82l69 394h-193l9 49h193l34 197h-340l12 70h764z" />
    <glyph glyph-name="tbar" unicode="&#x167;" horiz-adv-x="581" 
d="M567 439h-252l-24 -133h224l-11 -61h-224l-5 -29q-4 -36 -4.5 -61.5t9.5 -43t20 -28t28 -16t33.5 -7.5t35.5 -2q49 0 107 11l-11 -66q-52 -14 -115 -14q-102 0 -150 53.5t-25 183.5l3 19h-187l12 61h186l24 133h-159l11 61h158l23 132l80 32l-29 -164h253z" />
    <glyph glyph-name="Utilde" unicode="&#x168;" horiz-adv-x="966" 
d="M678 755q-41 0 -73 15.5t-59 31.5t-57 16q-63 0 -81 -55l-55 8q34 101 136 101q51 0 103 -31t86 -31q62 0 80 55l55 -8q-33 -102 -135 -102zM176 710h82l-66 -364q-28 -159 47.5 -230t225.5 -71q86 0 148 21.5t99.5 62.5t58.5 89.5t33 114.5l68 377h82l-68 -379
q-15 -84 -43.5 -146t-77.5 -111t-125.5 -74t-179.5 -25q-195 0 -289 93t-59 286z" />
    <glyph glyph-name="utilde" unicode="&#x169;" horiz-adv-x="845" 
d="M577 585q-45 0 -79.5 18.5t-64 36.5t-62.5 18q-71 0 -92 -65l-54 8q17 54 55 82.5t91 28.5q45 0 80 -18t64 -36t62 -18q74 0 92 65l55 -9q-18 -54 -56 -82.5t-91 -28.5zM333 -19q-35 0 -66.5 4t-66.5 16.5t-60 33t-41.5 57t-16.5 84.5q0 19 19 152l31 172h74l-32 -180
q-17 -96 -17 -128q0 -77 52 -112.5t138 -35.5q276 0 322 262l34 194h74l-88 -500h-73l23 132q-36 -66 -111.5 -108.5t-194.5 -42.5z" />
    <glyph glyph-name="Umacron" unicode="&#x16a;" horiz-adv-x="966" 
d="M367 766l10 54h415l-10 -54h-415zM176 710h82l-66 -364q-28 -159 47.5 -230t225.5 -71q86 0 148 21.5t99.5 62.5t58.5 89.5t33 114.5l68 377h82l-68 -379q-15 -84 -43.5 -146t-77.5 -111t-125.5 -74t-179.5 -25q-195 0 -289 93t-59 286z" />
    <glyph glyph-name="umacron" unicode="&#x16b;" horiz-adv-x="845" 
d="M237 615l10 54h455l-10 -54h-455zM333 -19q-35 0 -66.5 4t-66.5 16.5t-60 33t-41.5 57t-16.5 84.5q0 19 19 152l31 172h74l-32 -180q-17 -96 -17 -128q0 -77 52 -112.5t138 -35.5q276 0 322 262l34 194h74l-88 -500h-73l23 132q-36 -66 -111.5 -108.5t-194.5 -42.5z" />
    <glyph glyph-name="Ubreve" unicode="&#x16c;" horiz-adv-x="966" 
d="M476 865q11 -62 105 -62q109 0 127 62h63q-16 -56 -67.5 -83t-122.5 -27q-75 0 -121 28t-47 82h63zM176 710h82l-66 -364q-28 -159 47.5 -230t225.5 -71q86 0 148 21.5t99.5 62.5t58.5 89.5t33 114.5l68 377h82l-68 -379q-15 -84 -43.5 -146t-77.5 -111t-125.5 -74
t-179.5 -25q-195 0 -289 93t-59 286z" />
    <glyph glyph-name="ubreve" unicode="&#x16d;" horiz-adv-x="845" 
d="M369 730q1 -55 28.5 -81t89.5 -26q109 0 136 107h63q-33 -155 -200 -155q-92 0 -137 39.5t-43 115.5h63zM333 -19q-35 0 -66.5 4t-66.5 16.5t-60 33t-41.5 57t-16.5 84.5q0 19 19 152l31 172h74l-32 -180q-17 -96 -17 -128q0 -77 52 -112.5t138 -35.5q276 0 322 262
l34 194h74l-88 -500h-73l23 132q-36 -66 -111.5 -108.5t-194.5 -42.5z" />
    <glyph glyph-name="Uring" unicode="&#x16e;" horiz-adv-x="966" 
d="M577 738q-46 0 -72.5 24.5t-26.5 65.5q0 48 34 79t85 31q46 0 72.5 -24.5t26.5 -64.5q0 -48 -34 -79.5t-85 -31.5zM577 781q31 0 49 17t18 51q0 21 -12.5 34t-34.5 13q-31 0 -49.5 -17.5t-18.5 -50.5q0 -21 12.5 -34t35.5 -13zM176 710h82l-66 -364q-28 -159 47.5 -230
t225.5 -71q86 0 148 21.5t99.5 62.5t58.5 89.5t33 114.5l68 377h82l-68 -379q-15 -84 -43.5 -146t-77.5 -111t-125.5 -74t-179.5 -25q-195 0 -289 93t-59 286z" />
    <glyph glyph-name="uring" unicode="&#x16f;" horiz-adv-x="845" 
d="M454 559q-66 0 -104.5 25t-38.5 67q0 48 44 77.5t120 29.5q66 0 104.5 -25t38.5 -66q0 -49 -44 -78.5t-120 -29.5zM454 598q114 0 114 68q0 24 -24.5 39t-68.5 15q-114 0 -114 -69q0 -24 24.5 -38.5t68.5 -14.5zM333 -19q-35 0 -66.5 4t-66.5 16.5t-60 33t-41.5 57
t-16.5 84.5q0 19 19 152l31 172h74l-32 -180q-17 -96 -17 -128q0 -77 52 -112.5t138 -35.5q276 0 322 262l34 194h74l-88 -500h-73l23 132q-36 -66 -111.5 -108.5t-194.5 -42.5z" />
    <glyph glyph-name="Uhungarumlaut" unicode="&#x170;" horiz-adv-x="966" 
d="M452 760l148 105h80l-154 -105h-74zM622 760l149 105h80l-155 -105h-74zM176 710h82l-66 -364q-28 -159 47.5 -230t225.5 -71q86 0 148 21.5t99.5 62.5t58.5 89.5t33 114.5l68 377h82l-68 -379q-15 -84 -43.5 -146t-77.5 -111t-125.5 -74t-179.5 -25q-195 0 -289 93
t-59 286z" />
    <glyph glyph-name="uhungarumlaut" unicode="&#x171;" horiz-adv-x="845" 
d="M347 580l178 150h80l-185 -150h-73zM518 580l179 150h79l-185 -150h-73zM333 -19q-35 0 -66.5 4t-66.5 16.5t-60 33t-41.5 57t-16.5 84.5q0 19 19 152l31 172h74l-32 -180q-17 -96 -17 -128q0 -77 52 -112.5t138 -35.5q276 0 322 262l34 194h74l-88 -500h-73l23 132
q-36 -66 -111.5 -108.5t-194.5 -42.5z" />
    <glyph glyph-name="Uogonek" unicode="&#x172;" horiz-adv-x="966" 
d="M872 710h82l-68 -379q-13 -75 -37.5 -132.5t-64.5 -104.5t-101 -76t-142 -39q-95 -29 -95 -85q0 -25 14.5 -39t41.5 -14q53 0 72 53l51 -11q-30 -83 -129 -83q-52 0 -82 22t-30 63q0 57 58 90q-186 4 -275 97t-55 282l64 356h82l-66 -364q-28 -159 47.5 -230t225.5 -71
q86 0 148 21.5t99.5 62.5t58.5 89.5t33 114.5z" />
    <glyph glyph-name="uogonek" unicode="&#x173;" horiz-adv-x="845" 
d="M689 0q-100 -19 -140.5 -44t-40.5 -62q0 -25 14.5 -39t41.5 -14q53 0 72 53l51 -11q-30 -83 -129 -83q-52 0 -82 22t-30 63q0 48 41.5 79t131.5 50l20 118q-36 -66 -111.5 -108.5t-194.5 -42.5q-35 0 -66.5 4t-66.5 16.5t-60 33t-41.5 57t-16.5 84.5q0 19 19 152l31 172
h74l-32 -180q-17 -96 -17 -128q0 -77 52 -112.5t138 -35.5q276 0 322 262l34 194h74z" />
    <glyph glyph-name="Wcircumflex" unicode="&#x174;" horiz-adv-x="1274" 
d="M925 760h-87l-95 72l-120 -72h-95l172 105h90zM238 0l-131 710h85l102 -592q6 -33 7 -47h2q5 15 25 47l348 592h81l139 -592q7 -39 8 -47h2q2 5 24 47l310 592h89l-381 -710h-99l-134 577q-8 35 -7 50h-5q-1 -10 -24 -50l-337 -577h-104z" />
    <glyph glyph-name="wcircumflex" unicode="&#x175;" horiz-adv-x="1110" 
d="M825 580h-76l-112 116l-153 -116h-83l194 150h89zM204 0l-142 500h79l107 -399q7 -31 8 -42h2q12 24 24 42l275 399h84l126 -399q9 -26 10 -42h2l22 42l255 399h80l-318 -500h-88l-130 396q-9 26 -7 42h-3q-6 -20 -22 -42l-269 -396h-95z" />
    <glyph glyph-name="Ycircumflex" unicode="&#x176;" horiz-adv-x="840" 
d="M708 760h-87l-95 72l-120 -72h-95l172 105h90zM331 0l46 260l-295 450h101l223 -346q18 -31 19 -42h2q9 17 34 42l351 346h108l-460 -450l-46 -260h-83z" />
    <glyph glyph-name="ycircumflex" unicode="&#x177;" horiz-adv-x="698" 
d="M619 580h-76l-112 116l-153 -116h-83l194 150h89zM53 -205q-49 0 -89 14l12 65q29 -13 83 -13q115 0 196 117l15 21l-223 501h85l172 -398q10 -26 14 -43h2q18 29 28 42l304 399h87l-425 -555q-67 -88 -126 -119t-135 -31z" />
    <glyph glyph-name="Ydieresis" unicode="&#x178;" horiz-adv-x="840" 
d="M304 760l18 105h99l-18 -105h-99zM616 760l19 105h99l-19 -105h-99zM331 0l46 260l-295 450h101l223 -346q18 -31 19 -42h2q9 17 34 42l351 346h108l-460 -450l-46 -260h-83z" />
    <glyph glyph-name="Zacute" unicode="&#x179;" horiz-adv-x="846" 
d="M476 760l174 105h101l-186 -105h-89zM25 66l714 574h-588l12 70h705l-12 -65l-715 -575h638l-12 -70h-754z" />
    <glyph glyph-name="zacute" unicode="&#x17a;" horiz-adv-x="738" 
d="M390 580l192 150h100l-207 -150h-85zM28 63l570 374h-482l11 63h589l-11 -62l-574 -375h526l-11 -63h-629z" />
    <glyph glyph-name="Zdotaccent" unicode="&#x17b;" horiz-adv-x="846" 
d="M476 760l18 105h91l-19 -105h-90zM25 66l714 574h-588l12 70h705l-12 -65l-715 -575h638l-12 -70h-754z" />
    <glyph glyph-name="zdotaccent" unicode="&#x17c;" horiz-adv-x="738" 
d="M388 591l20 113h90l-20 -113h-90zM28 63l570 374h-482l11 63h589l-11 -62l-574 -375h526l-11 -63h-629z" />
    <glyph glyph-name="Zcaron" unicode="&#x17d;" horiz-adv-x="846" 
d="M332 860h87l95 -72l120 72h95l-172 -105h-90zM25 66l714 574h-588l12 70h705l-12 -65l-715 -575h638l-12 -70h-754z" />
    <glyph glyph-name="zcaron" unicode="&#x17e;" horiz-adv-x="738" 
d="M234 724h76l112 -116l153 116h83l-194 -150h-89zM28 63l570 374h-482l11 63h589l-11 -62l-574 -375h526l-11 -63h-629z" />
    <glyph glyph-name="florin" unicode="&#x192;" horiz-adv-x="624" 
d="M562 652q-76 0 -114.5 -37.5t-64.5 -111.5l-27 -79h257l-11 -58h-266l-179 -516h-76l181 516h-204l10 58h214l25 71q18 53 36.5 88.5t48 69t73.5 49.5t104 16q61 0 114 -19l-13 -64q-45 17 -108 17z" />
    <glyph glyph-name="AEacute" unicode="&#x1fc;" horiz-adv-x="1568" 
d="M1405 865l-186 -105h-89l174 105h101zM1545 640h-632l-43 -241h616l-12 -70h-616l-46 -259h640l-12 -70h-722l28 160h-464l-186 -160h-101l837 710h726zM758 230l71 402l-466 -402h395z" />
    <glyph glyph-name="aeacute" unicode="&#x1fd;" horiz-adv-x="1328" 
d="M971 730l-207 -150h-85l192 150h100zM1271 231h-574q-10 -90 50 -138t177 -48q176 0 263 117l59 -30q-114 -151 -332 -151q-109 0 -183 38.5t-100 111.5q-112 -150 -360 -150q-109 0 -169.5 33.5t-60.5 98.5q0 70 55 111q70 49 226 53l305 7l6 20l1 8q13 76 -37 110.5
t-166 34.5q-234 0 -255 -130h-79q21 92 106.5 142t231.5 50q216 0 263 -105q103 105 293 105q136 0 213 -55.5t77 -154.5q0 -25 -10 -78zM981 462q-107 0 -179.5 -47t-93.5 -125h496q2 16 2 25q0 70 -63 108.5t-162 38.5zM289 41q130 0 221.5 47t105.5 121l4 21v2l-305 -9
q-105 -3 -150 -28.5t-45 -72.5q0 -81 169 -81z" />
    <glyph glyph-name="Oslashacute" unicode="&#x1fe;" horiz-adv-x="999" 
d="M738 865l-186 -105h-89l174 105h101zM1014 682l-101 -74q72 -83 72 -212q0 -82 -29.5 -155.5t-88 -134t-157 -96t-224.5 -35.5q-205 0 -319 87l-110 -80l-36 46l103 75q-72 83 -72 211q0 82 29.5 155.5t88 134t156.5 96t224 35.5q204 0 320 -87l107 78zM138 320
q0 -102 53 -168l611 446q-92 68 -258 68q-107 0 -188 -30t-127 -80.5t-68.5 -110t-22.5 -125.5zM898 390q0 103 -54 168l-610 -446q92 -68 258 -68q107 0 188 30t127 80.5t68.5 110t22.5 125.5z" />
    <glyph glyph-name="oslashacute" unicode="&#x1ff;" horiz-adv-x="797" 
d="M671 730l-207 -150h-85l192 150h100zM788 485l-91 -61q57 -62 57 -155q0 -121 -92.5 -204.5t-273.5 -83.5q-159 0 -252 64l-99 -67l-29 37l91 62q-56 61 -56 154q0 121 92.5 204.5t273.5 83.5q156 0 250 -63l98 67zM122 233q0 -67 41 -113l431 292q-72 43 -188 43
q-145 0 -214.5 -65.5t-69.5 -156.5zM675 267q0 69 -42 114l-432 -292q71 -44 190 -44q75 0 132 19.5t89 52t47.5 70.5t15.5 80z" />
    <glyph glyph-name="Scommaaccent" unicode="&#x218;" horiz-adv-x="893" 
d="M456 -25q-405 0 -417 252l89 12q8 -101 91.5 -148t248.5 -47q263 0 263 151q0 55 -41 83.5t-144 39.5l-179 19q-241 25 -241 187q0 99 87 155t264 56q367 0 388 -225l-91 -17q-4 50 -27 84.5t-63.5 53.5t-90 27t-116.5 8q-263 0 -263 -136q0 -52 44 -81t144 -40l184 -20
q123 -14 178 -61t55 -129q0 -224 -363 -224zM360 -235l-14 26q31 14 43.5 30t16.5 39h-52l14 82h93l-12 -68q-8 -43 -27 -67.5t-62 -41.5z" />
    <glyph glyph-name="scommaaccent" unicode="&#x219;" horiz-adv-x="746" 
d="M364 -19q-66 0 -117 7.5t-97.5 26.5t-75.5 56t-39 91l74 19q8 -43 32.5 -71.5t62 -42.5t76.5 -19.5t89 -5.5q220 0 220 100q0 33 -23 49.5t-78 21.5l-218 20q-176 16 -176 130q0 76 74.5 116t210.5 40q270 0 317 -154l-75 -23q-14 37 -38.5 61.5t-58.5 36t-66 15.5t-77 4
q-116 0 -164.5 -22t-48.5 -68q0 -33 24.5 -49t82.5 -22l227 -23q84 -8 123.5 -39t39.5 -90q0 -165 -301 -165zM285 -234l-14 26q31 14 43.5 30t16.5 39h-52l14 82h93l-12 -68q-8 -43 -27 -67.5t-62 -41.5z" />
    <glyph glyph-name="uni021A" unicode="&#x21a;" horiz-adv-x="784" 
d="M855 710l-12 -70h-341l-113 -640h-82l112 640h-340l12 70h764zM278 -139l14 82h93l-12 -68q-8 -43 -27 -67.5t-62 -41.5l-14 26q31 14 43.5 30t16.5 39h-52z" />
    <glyph glyph-name="uni021B" unicode="&#x21b;" horiz-adv-x="553" 
d="M54 439l11 61h158l23 132l80 32l-29 -164h253l-11 -61h-252l-40 -223q-4 -36 -4.5 -61.5t9.5 -43t20 -28t28 -16t33.5 -7.5t35.5 -2q49 0 107 11l-11 -66q-52 -14 -115 -14q-102 0 -150 53.5t-25 183.5l38 213h-159zM259 -234l-14 26q31 14 43.5 30t16.5 39h-52l14 82h93
l-12 -68q-8 -43 -27 -67.5t-62 -41.5z" />
    <glyph glyph-name="uni0237" unicode="&#x237;" horiz-adv-x="316" 
d="M-34 -205q-52 0 -95 16l11 65q49 -15 82 -15q55 0 81.5 31.5t39.5 106.5l89 501h74l-91 -512q-17 -99 -58.5 -146t-132.5 -47z" />
    <glyph glyph-name="uni0243" unicode="&#x243;" horiz-adv-x="932" 
d="M726 358q56 -11 90 -48.5t34 -100.5q0 -38 -14 -72t-44 -65.5t-86.5 -50.5t-133.5 -21l-17 -101h-54l18 101h-202l-17 -101h-54l18 101h-186l123 695h186l17 98h54l-17 -98h201l17 98h53l-17 -99q192 -13 192 -156q0 -65 -38.5 -114.5t-122.5 -65.5zM658 628h-391
l-42 -239h397q98 0 140 39t42 95q0 60 -39.5 82.5t-106.5 22.5zM561 67q112 0 159 42.5t47 102.5q0 115 -154 115h-399l-46 -260h393z" />
    <glyph glyph-name="circumflex" unicode="&#x2c6;" horiz-adv-x="600" 
d="M440 580h-76l-112 116l-153 -116h-83l194 150h89z" />
    <glyph glyph-name="caron" unicode="&#x2c7;" horiz-adv-x="600" 
d="M100 724h76l112 -116l153 116h83l-194 -150h-89z" />
    <glyph glyph-name="breve" unicode="&#x2d8;" horiz-adv-x="600" 
d="M120 730q1 -55 28.5 -81t89.5 -26q109 0 136 107h63q-33 -155 -200 -155q-92 0 -137 39.5t-43 115.5h63z" />
    <glyph glyph-name="dotaccent" unicode="&#x2d9;" horiz-adv-x="600" 
d="M120 591l20 113h90l-20 -113h-90z" />
    <glyph glyph-name="ring" unicode="&#x2da;" horiz-adv-x="600" 
d="M167 559q-66 0 -104.5 25t-38.5 67q0 48 44 77.5t120 29.5q66 0 104.5 -25t38.5 -66q0 -49 -44 -78.5t-120 -29.5zM167 598q114 0 114 68q0 24 -24.5 39t-68.5 15q-114 0 -114 -69q0 -24 24.5 -38.5t68.5 -14.5z" />
    <glyph glyph-name="ogonek" unicode="&#x2db;" horiz-adv-x="600" 
d="M286 -117q-30 -83 -129 -83q-52 0 -82 22t-30 63q0 94 175 130l68 -15q-100 -19 -140.5 -44t-40.5 -62q0 -25 14.5 -39t41.5 -14q53 0 72 53z" />
    <glyph glyph-name="tilde" unicode="&#x2dc;" horiz-adv-x="600" 
d="M403 585q-45 0 -79.5 18.5t-64 36.5t-62.5 18q-71 0 -92 -65l-54 8q17 54 55 82.5t91 28.5q45 0 80 -18t64 -36t62 -18q74 0 92 65l55 -9q-18 -54 -56 -82.5t-91 -28.5z" />
    <glyph glyph-name="hungarumlaut" unicode="&#x2dd;" horiz-adv-x="600" 
d="M51 580l178 150h80l-185 -150h-73zM222 580l179 150h79l-185 -150h-73z" />
    <glyph glyph-name="gravecomb" unicode="&#x300;" horiz-adv-x="0" 
d="M107 580h-85l-207 150h100z" />
    <glyph glyph-name="acutecomb" unicode="&#x301;" horiz-adv-x="0" 
d="M-296 580l192 150h100l-207 -150h-85z" />
    <glyph glyph-name="uni0302" unicode="&#x302;" horiz-adv-x="0" 
d="M-17 580h-76l-112 116l-153 -116h-83l194 150h89z" />
    <glyph glyph-name="tildecomb" unicode="&#x303;" horiz-adv-x="0" 
d="M-197 585q-45 0 -79.5 18.5t-64 36.5t-62.5 18q-71 0 -92 -65l-54 8q17 54 55 82.5t91 28.5q45 0 80 -18t64 -36t62 -18q74 0 92 65l55 -9q-18 -54 -56 -82.5t-91 -28.5z" />
    <glyph glyph-name="uni0304" unicode="&#x304;" horiz-adv-x="0" 
d="M-515 615l10 54h455l-10 -54h-455z" />
    <glyph glyph-name="uni0306" unicode="&#x306;" horiz-adv-x="0" 
d="M-372 730q1 -55 28.5 -81t89.5 -26q109 0 136 107h63q-33 -155 -200 -155q-92 0 -137 39.5t-43 115.5h63z" />
    <glyph glyph-name="uni0307" unicode="&#x307;" horiz-adv-x="0" 
d="M-90 591l20 113h90l-20 -113h-90z" />
    <glyph glyph-name="uni0308" unicode="&#x308;" horiz-adv-x="0" 
d="M-487 596l20 112h99l-20 -112h-99zM-170 596l20 112h99l-20 -112h-99z" />
    <glyph glyph-name="uni030A" unicode="&#x30a;" horiz-adv-x="0" 
d="M-188 559q-66 0 -104.5 25t-38.5 67q0 48 44 77.5t120 29.5q66 0 104.5 -25t38.5 -66q0 -49 -44 -78.5t-120 -29.5zM-188 598q114 0 114 68q0 24 -24.5 39t-68.5 15q-114 0 -114 -69q0 -24 24.5 -38.5t68.5 -14.5z" />
    <glyph glyph-name="uni030B" unicode="&#x30b;" horiz-adv-x="0" 
d="M-430 580l178 150h80l-185 -150h-73zM-259 580l179 150h79l-185 -150h-73z" />
    <glyph glyph-name="uni030C" unicode="&#x30c;" horiz-adv-x="0" 
d="M-357 724h76l112 -116l153 116h83l-194 -150h-89z" />
    <glyph glyph-name="uni0312" unicode="&#x312;" horiz-adv-x="0" 
d="M28 757l14 -26q-31 -14 -43.5 -30t-16.5 -39h52l-14 -82h-93l12 68q8 43 27 67.5t62 41.5z" />
    <glyph glyph-name="uni0326" unicode="&#x326;" horiz-adv-x="0" 
d="M-151 -234l-14 26q31 14 43.5 30t16.5 39h-52l14 82h93l-12 -68q-8 -43 -27 -67.5t-62 -41.5z" />
    <glyph glyph-name="uni0327" unicode="&#x327;" horiz-adv-x="0" 
d="M-197 6h49l-56 -59q19 14 64 14q42 0 66.5 -18t24.5 -49q0 -41 -39 -66.5t-93 -25.5q-50 0 -82.5 16t-41.5 45l56 10q12 -30 66 -30q32 0 52 12t20 34q0 38 -63 38q-35 0 -58 -17l-38 11z" />
    <glyph glyph-name="uni0328" unicode="&#x328;" horiz-adv-x="0" 
d="M-58 -117q-30 -83 -129 -83q-52 0 -82 22t-30 63q0 94 175 130l68 -15q-100 -19 -140.5 -44t-40.5 -62q0 -25 14.5 -39t41.5 -14q53 0 72 53z" />
    <glyph glyph-name="uni0394" unicode="&#x394;" horiz-adv-x="923" 
d="M-7 0l507 698h86l256 -698h-849zM532 626l-408 -561h614z" />
    <glyph glyph-name="uni03A9" unicode="&#x3a9;" horiz-adv-x="1015" 
d="M854 0h-320l22 203q154 15 238 82t84 174q0 93 -77.5 144.5t-221.5 51.5q-179 0 -279 -70t-100 -190q0 -80 62 -130t181 -62l-50 -203h-320l12 69h255l23 87q-115 19 -177 80t-62 152q0 149 128.5 240.5t337.5 91.5q170 0 266.5 -68t96.5 -184q0 -122 -88.5 -204.5
t-245.5 -107.5l-8 -87h255z" />
    <glyph glyph-name="uni03BC" unicode="&#x3bc;" horiz-adv-x="869" 
d="M727 500h74l-88 -500h-73l23 132q-36 -66 -111.5 -108.5t-194.5 -42.5q-152 0 -214 75l-44 -251h-65l85 483l6 40l31 172h74l-32 -180q-17 -96 -17 -128q0 -77 52 -112.5t138 -35.5q276 0 322 262z" />
    <glyph glyph-name="pi" unicode="&#x3c0;" horiz-adv-x="980" 
d="M860 -1q-27 -6 -66 -6q-80 0 -104.5 32.5t-14.5 87.5l58 328h-418l-78 -441h-73l77 441h-133l11 59h830l-11 -59h-131l-57 -324q-6 -34 10.5 -49t54.5 -15q12 0 23 1t19.5 2.5t12.5 1.5z" />
    <glyph glyph-name="uni0E3F" unicode="&#xe3f;" horiz-adv-x="932" 
d="M726 358q56 -11 90 -48.5t34 -100.5q0 -39 -14.5 -73.5t-46 -66.5t-91 -50.5t-139.5 -18.5h-108l-18 -101h-52l18 101h-321l123 695h321l17 98h52l-17 -98h85q228 0 228 -157q0 -65 -38.5 -114.5t-122.5 -65.5zM510 628h-243l-42 -239h243zM658 628h-96l-42 -239h102
q98 0 140 39t42 95q0 60 -39.5 82.5t-106.5 22.5zM168 67h243l46 260h-243zM561 67q112 0 159 42.5t47 102.5q0 115 -154 115h-104l-46 -260h98z" />
    <glyph glyph-name="Wgrave" unicode="&#x1e80;" horiz-adv-x="1274" 
d="M770 760h-89l-186 105h101zM238 0l-131 710h85l102 -592q6 -33 7 -47h2q5 15 25 47l348 592h81l139 -592q7 -39 8 -47h2q2 5 24 47l310 592h89l-381 -710h-99l-134 577q-8 35 -7 50h-5q-1 -10 -24 -50l-337 -577h-104z" />
    <glyph glyph-name="wgrave" unicode="&#x1e81;" horiz-adv-x="1110" 
d="M671 580h-85l-207 150h100zM204 0l-142 500h79l107 -399q7 -31 8 -42h2q12 24 24 42l275 399h84l126 -399q9 -26 10 -42h2l22 42l255 399h80l-318 -500h-88l-130 396q-9 26 -7 42h-3q-6 -20 -22 -42l-269 -396h-95z" />
    <glyph glyph-name="Wacute" unicode="&#x1e82;" horiz-adv-x="1274" 
d="M682 760l174 105h101l-186 -105h-89zM238 0l-131 710h85l102 -592q6 -33 7 -47h2q5 15 25 47l348 592h81l139 -592q7 -39 8 -47h2q2 5 24 47l310 592h89l-381 -710h-99l-134 577q-8 35 -7 50h-5q-1 -10 -24 -50l-337 -577h-104z" />
    <glyph glyph-name="wacute" unicode="&#x1e83;" horiz-adv-x="1110" 
d="M570 580l192 150h100l-207 -150h-85zM204 0l-142 500h79l107 -399q7 -31 8 -42h2q12 24 24 42l275 399h84l126 -399q9 -26 10 -42h2l22 42l255 399h80l-318 -500h-88l-130 396q-9 26 -7 42h-3q-6 -20 -22 -42l-269 -396h-95z" />
    <glyph glyph-name="Wdieresis" unicode="&#x1e84;" horiz-adv-x="1274" 
d="M521 760l18 105h99l-18 -105h-99zM833 760l19 105h99l-19 -105h-99zM238 0l-131 710h85l102 -592q6 -33 7 -47h2q5 15 25 47l348 592h81l139 -592q7 -39 8 -47h2q2 5 24 47l310 592h89l-381 -710h-99l-134 577q-8 35 -7 50h-5q-1 -10 -24 -50l-337 -577h-104z" />
    <glyph glyph-name="wdieresis" unicode="&#x1e85;" horiz-adv-x="1110" 
d="M407 596l20 112h99l-20 -112h-99zM724 596l20 112h99l-20 -112h-99zM204 0l-142 500h79l107 -399q7 -31 8 -42h2q12 24 24 42l275 399h84l126 -399q9 -26 10 -42h2l22 42l255 399h80l-318 -500h-88l-130 396q-9 26 -7 42h-3q-6 -20 -22 -42l-269 -396h-95z" />
    <glyph glyph-name="Ygrave" unicode="&#x1ef2;" horiz-adv-x="840" 
d="M553 760h-89l-186 105h101zM331 0l46 260l-295 450h101l223 -346q18 -31 19 -42h2q9 17 34 42l351 346h108l-460 -450l-46 -260h-83z" />
    <glyph glyph-name="ygrave" unicode="&#x1ef3;" horiz-adv-x="698" 
d="M465 580h-85l-207 150h100zM53 -205q-49 0 -89 14l12 65q29 -13 83 -13q115 0 196 117l15 21l-223 501h85l172 -398q10 -26 14 -43h2q18 29 28 42l304 399h87l-425 -555q-67 -88 -126 -119t-135 -31z" />
    <glyph glyph-name="uni2002" unicode="&#x2002;" horiz-adv-x="500" 
 />
    <glyph glyph-name="uni2003" unicode="&#x2003;" horiz-adv-x="1000" 
 />
    <glyph glyph-name="uni2004" unicode="&#x2004;" horiz-adv-x="0" 
 />
    <glyph glyph-name="uni2005" unicode="&#x2005;" horiz-adv-x="250" 
 />
    <glyph glyph-name="uni2009" unicode="&#x2009;" horiz-adv-x="135" 
 />
    <glyph glyph-name="uni200A" unicode="&#x200a;" horiz-adv-x="75" 
 />
    <glyph glyph-name="endash" unicode="&#x2013;" horiz-adv-x="806" 
d="M72 308h683l-11 -60h-683z" />
    <glyph glyph-name="emdash" unicode="&#x2014;" horiz-adv-x="1087" 
d="M72 308h964l-10 -60h-965z" />
    <glyph glyph-name="quoteleft" unicode="&#x2018;" horiz-adv-x="314" 
d="M280 725l13 -42q-68 -10 -79 -80l-2 -12h64l-21 -119h-118l21 118q7 37 20.5 63.5t32 40.5t34 20.5t35.5 10.5z" />
    <glyph glyph-name="quoteright" unicode="&#x2019;" horiz-adv-x="314" 
d="M154 457l-13 42q68 10 79 80l2 12h-64l21 119h118l-21 -118q-7 -37 -20.5 -63.5t-32 -40.5t-34 -20.5t-35.5 -10.5z" />
    <glyph glyph-name="quotesinglbase" unicode="&#x201a;" horiz-adv-x="314" 
d="M50 -134l-13 42q68 10 79 80l2 12h-64l21 119h118l-21 -118q-7 -37 -20.5 -63.5t-32 -40.5t-34 -20.5t-35.5 -10.5z" />
    <glyph glyph-name="quotedblleft" unicode="&#x201c;" horiz-adv-x="494" 
d="M280 725l13 -42q-68 -10 -79 -80l-2 -12h64l-21 -119h-118l21 118q7 37 20.5 63.5t32 40.5t34 20.5t35.5 10.5zM461 725l13 -42q-68 -10 -79 -80l-2 -12h64l-21 -119h-118l21 118q7 37 20.5 63.5t32 40.5t34 20.5t35.5 10.5z" />
    <glyph glyph-name="quotedblright" unicode="&#x201d;" horiz-adv-x="494" 
d="M154 457l-13 42q68 10 79 80l2 12h-64l21 119h118l-21 -118q-7 -37 -20.5 -63.5t-32 -40.5t-34 -20.5t-35.5 -10.5zM335 457l-13 42q68 10 79 80l2 12h-64l21 119h118l-21 -118q-7 -37 -20.5 -63.5t-32 -40.5t-34 -20.5t-35.5 -10.5z" />
    <glyph glyph-name="quotedblbase" unicode="&#x201e;" horiz-adv-x="494" 
d="M50 -134l-13 42q68 10 79 80l2 12h-64l21 119h118l-21 -118q-7 -37 -20.5 -63.5t-32 -40.5t-34 -20.5t-35.5 -10.5zM231 -134l-13 42q68 10 79 80l2 12h-64l21 119h118l-21 -118q-7 -37 -20.5 -63.5t-32 -40.5t-34 -20.5t-35.5 -10.5z" />
    <glyph glyph-name="dagger" unicode="&#x2020;" horiz-adv-x="671" 
d="M645 502l-10 -60h-229l-96 -542h-74l96 542h-228l11 60h227l39 218h74l-39 -218h229z" />
    <glyph glyph-name="daggerdbl" unicode="&#x2021;" horiz-adv-x="671" 
d="M635 442h-229l-47 -263h229l-11 -60h-228l-39 -219h-74l39 219h-228l11 60h227l47 263h-228l11 60h227l39 218h74l-39 -218h229z" />
    <glyph glyph-name="bullet" unicode="&#x2022;" horiz-adv-x="366" 
d="M200 264q-36 0 -59.5 22.5t-23.5 58.5q0 38 23.5 61t59.5 23t59.5 -23t23.5 -61q0 -36 -23.5 -58.5t-59.5 -22.5z" />
    <glyph glyph-name="ellipsis" unicode="&#x2026;" horiz-adv-x="972" 
d="M190 107l-20 -107h-116l19 107h117zM519 107l-20 -107h-116l19 107h117zM849 107l-20 -107h-116l19 107h117z" />
    <glyph glyph-name="perthousand" unicode="&#x2030;" horiz-adv-x="1530" 
d="M139 -21l731 741h80l-731 -741h-80zM284 354q-51 0 -94.5 15t-75 53.5t-31.5 95.5q0 83 58.5 140t169.5 57q84 0 143.5 -41t59.5 -122q0 -82 -60 -140t-170 -58zM284 410q78 0 121.5 40.5t43.5 98.5q0 57 -41 83.5t-97 26.5q-77 0 -120 -39.5t-43 -97.5t41 -85t95 -27z
M777 -18q-51 0 -94.5 15t-75 53.5t-31.5 95.5q0 83 58.5 140t169.5 57q84 0 143.5 -41t59.5 -122q0 -82 -60 -140t-170 -58zM1251 -18q-51 0 -94.5 15t-75 53.5t-31.5 95.5q0 83 58.5 140t169.5 57q84 0 143.5 -41t59.5 -122q0 -82 -60 -140t-170 -58zM777 38
q78 0 121.5 40.5t43.5 98.5q0 57 -41 83.5t-97 26.5q-77 0 -120 -39.5t-43 -97.5t41 -85t95 -27zM1251 38q78 0 121.5 40.5t43.5 98.5q0 57 -41 83.5t-97 26.5q-77 0 -120 -39.5t-43 -97.5t41 -85t95 -27z" />
    <glyph glyph-name="guilsinglleft" unicode="&#x2039;" horiz-adv-x="401" 
d="M245 67l-205 208l282 207h97l-281 -211l196 -204h-89z" />
    <glyph glyph-name="guilsinglright" unicode="&#x203a;" horiz-adv-x="402" 
d="M165 482l205 -208l-282 -207h-97l281 211l-196 204h89z" />
    <glyph glyph-name="fraction" unicode="&#x2044;" horiz-adv-x="216" 
d="M-274 -17l721 744h80l-721 -744h-80z" />
    <glyph glyph-name="uni20A9" unicode="&#x20a9;" horiz-adv-x="1379" 
d="M1418 695l-145 -250h98l-9 -50h-118l-52 -90h154l-9 -51h-174l-147 -254h-88l-71 254h-333l-162 -254h-88l-57 254h-174l9 51h153l-20 90h-117l9 50h96l-56 250h73l53 -250h325l160 250h70l72 -250h325l141 250h82zM685 508l-40 -63h158l-18 63q-23 83 -27 121h-4
q-15 -34 -69 -121zM254 395l19 -90h205l58 90h-282zM556 305h286l-25 90h-204zM1116 305l51 90h-283l26 -90h206zM397 178l49 76h-162l15 -71q21 -97 24 -125h2q18 36 72 120zM1047 183l40 71h-162l22 -76q27 -94 29 -120h2q32 61 69 125z" />
    <glyph glyph-name="Euro" unicode="&#x20ac;" horiz-adv-x="967" 
d="M588 649q-160 0 -252.5 -61.5t-123.5 -160.5h489l-10 -53h-492q-3 -18 -3 -35h489l-9 -53h-480q6 -67 36 -115.5t78 -75t102.5 -38t118.5 -11.5q213 0 306 140l68 -35q-120 -174 -378 -174q-85 0 -156 16.5t-129.5 52t-93.5 96.5t-39 144h-96l10 53h86q2 22 4 35h-84
l9 53h86q37 129 154.5 209.5t315.5 80.5q278 0 368 -165v-5l-78 -28q-79 130 -296 130z" />
    <glyph glyph-name="uni20B9" unicode="&#x20b9;" horiz-adv-x="872" 
d="M838 695l-10 -58h-282q64 -40 70 -121h190l-9 -52h-184q-14 -77 -88 -129t-227 -52h-100l297 -283h-107l-305 303l7 40h209q210 0 235 121h-423l9 52h416q-9 121 -151 121h-243l10 58h686z" />
    <glyph glyph-name="uni20BA" unicode="&#x20ba;" horiz-adv-x="749" 
d="M651 236l73 -11q-29 -97 -111 -161t-227 -64h-287l49 275l-123 -24l9 53l123 24l18 99l-123 -24l9 54l123 24l38 214h79l-35 -198l412 80l-10 -54l-412 -80l-17 -99l412 80l-10 -54l-412 -80l-39 -220h196q206 0 265 166z" />
    <glyph glyph-name="uni20BD" unicode="&#x20bd;" horiz-adv-x="815" 
d="M520 285h-279l-16 -88h324l-9 -53h-324l-26 -144h-78l25 144h-116l10 53h116l15 88h-115l11 61h115l62 349h335q53 0 97 -9.5t81 -30t58 -58.5t21 -90q0 -96 -73 -159t-234 -63zM301 625l-50 -279h269q66 0 112.5 14t69.5 37.5t33 49t10 55.5q0 50 -26 78.5t-61.5 36.5
t-88.5 8h-268z" />
    <glyph glyph-name="uni2105" unicode="&#x2105;" horiz-adv-x="1055" 
d="M140 -14l730 744h73l-730 -744h-73zM288 368q-85 0 -140.5 40.5t-55.5 121.5q0 80 59 138.5t175 58.5q79 0 134.5 -32.5t65.5 -88.5l-66 -13q-8 36 -46 56.5t-88 20.5q-86 0 -128 -40.5t-42 -98.5q0 -54 40 -80.5t98 -26.5q113 0 149 80l62 -12q-56 -124 -217 -124z
M762 0q-52 0 -93.5 14t-70.5 50t-29 91q0 82 61.5 143t178.5 61q82 0 138 -37t56 -118q0 -82 -61.5 -143t-179.5 -61zM766 56q84 0 128 44.5t44 103.5q0 53 -40 76t-92 23q-84 0 -128 -44.5t-44 -103.5q0 -53 40 -76t92 -23z" />
    <glyph glyph-name="uni2113" unicode="&#x2113;" horiz-adv-x="563" 
d="M238 221l-3 -17q-15 -81 15 -113t111 -32q39 0 106 7l-12 -66q-57 -9 -115 -9q-116 0 -156.5 50.5t-24.5 154.5q-74 -21 -132 -35l-17 55q101 28 161 46l48 273q19 104 80 152t147 48q155 0 155 -161q0 -123 -92.5 -207.5t-270.5 -145.5zM292 526l-42 -237
q133 49 204.5 115t71.5 166q0 108 -92 108q-51 0 -90 -38t-52 -114z" />
    <glyph glyph-name="uni2116" unicode="&#x2116;" horiz-adv-x="1679" 
d="M78 0l125 710h96l442 -563q37 -50 44 -62h2q2 14 6.5 41t7.5 41l96 543h75l-125 -710h-83l-452 573q-23 30 -45 63h-2l-13 -77l-99 -559h-75zM1304 198q-76 0 -139 18.5t-107.5 65t-44.5 115.5q0 104 79 172.5t244 68.5q56 0 106 -11t92 -34t67 -62.5t25 -91.5
q0 -104 -78.5 -172.5t-243.5 -68.5zM1305 266q124 0 183 47.5t59 120.5q0 49 -34.5 81t-79.5 43.5t-98 11.5q-124 0 -183.5 -48t-59.5 -121q0 -37 19 -64.5t51.5 -42t68 -21.5t74.5 -7zM943 0l11 64h606l-12 -64h-605z" />
    <glyph glyph-name="trademark" unicode="&#x2122;" horiz-adv-x="1121" 
d="M215 312l63 357h-199l9 49h465l-9 -49h-208l-63 -357h-58zM526 312l72 406h84l93 -279q18 -55 22 -85h3q20 35 53 85l192 279h88l-72 -406h-55l50 286q12 57 15 71h-1q-1 -2 -41 -63l-204 -294h-62l-100 294q-13 39 -20 63h-2q-2 -33 -10 -71l-50 -286h-55z" />
    <glyph glyph-name="uni2126" unicode="&#x2126;" horiz-adv-x="1015" 
d="M854 0h-320l22 203q154 15 238 82t84 174q0 93 -77.5 144.5t-221.5 51.5q-179 0 -279 -70t-100 -190q0 -80 62 -130t181 -62l-50 -203h-320l12 69h255l23 87q-115 19 -177 80t-62 152q0 149 128.5 240.5t337.5 91.5q170 0 266.5 -68t96.5 -184q0 -122 -88.5 -204.5
t-245.5 -107.5l-8 -87h255z" />
    <glyph glyph-name="estimated" unicode="&#x212e;" horiz-adv-x="929" 
d="M442 -18q-84 0 -153 16.5t-124 52t-86 96.5t-31 143q0 104 43.5 188t117 136.5t165 80.5t192.5 28q189 0 285 -89t70 -237l-6 -37h-704l-41 -233q86 -95 281 -95q115 0 204 34.5t168 109.5l33 -33q-157 -161 -414 -161zM220 410h558l32 180q-73 85 -257 85
q-183 0 -304 -97z" />
    <glyph glyph-name="uni2153" unicode="&#x2153;" horiz-adv-x="1058" 
d="M49 -17l721 744h80l-721 -744h-80zM172 323l54 295q-11 -19 -44.5 -31.5t-67.5 -12.5h-29l9 59h19q104 0 139 77h61l-68 -387h-73zM787 -14q-35 0 -61.5 2t-59 10t-54 22t-37 39.5t-16.5 61.5l74 3q3 -31 17.5 -50.5t40 -27.5t45.5 -10.5t50 -2.5q126 0 126 78
q0 28 -24.5 49t-88.5 21h-46l5 35h46q129 0 129 72q0 32 -37 49t-85 17q-132 0 -150 -91l-73 2q9 61 64.5 98t157.5 37q37 0 69 -4.5t62.5 -15t48.5 -31.5t18 -51q0 -93 -135 -101q54 -4 83.5 -26.5t29.5 -60.5q0 -60 -52.5 -92t-146.5 -32z" />
    <glyph glyph-name="uni2154" unicode="&#x2154;" horiz-adv-x="1241" 
d="M232 -17l721 744h80l-721 -744h-80zM57 323l6 42q200 86 244 109q122 67 125 124q0 76 -118 76q-67 0 -103 -23t-33 -72l-69 6q0 138 211 138q33 0 61.5 -4.5t58.5 -16t48 -36t18 -60.5q0 -35 -24.5 -67t-81 -63.5t-94 -48.5t-117.5 -49q-8 -3 -12 -5h300l-7 -50h-413z
M970 -14q-35 0 -61.5 2t-59 10t-54 22t-37 39.5t-16.5 61.5l74 3q3 -31 17.5 -50.5t40 -27.5t45.5 -10.5t50 -2.5q126 0 126 78q0 28 -24.5 49t-88.5 21h-46l5 35h46q129 0 129 72q0 32 -37 49t-85 17q-132 0 -150 -91l-73 2q9 61 64.5 98t157.5 37q37 0 69 -4.5t62.5 -15
t48.5 -31.5t18 -51q0 -93 -135 -101q54 -4 83.5 -26.5t29.5 -60.5q0 -60 -52.5 -92t-146.5 -32z" />
    <glyph glyph-name="oneeighth" unicode="&#x215b;" horiz-adv-x="1063" 
d="M770 727h80l-721 -744h-80zM226 618q-11 -19 -44.5 -31.5t-67.5 -12.5h-29l9 59h19q104 0 139 77h61l-68 -387h-73zM1016 300q0 -78 -144 -89q57 -10 89 -33t32 -68q0 -124 -218 -124q-38 0 -72 4.5t-69.5 15t-56.5 32.5t-21 54q0 90 153 102q-107 20 -107 92
q0 49 47 81.5t157 32.5q34 0 67.5 -4.5t67 -15t54.5 -31t21 -49.5zM835 216q106 13 106 74q0 27 -25.5 43.5t-52 20.5t-56.5 4q-130 0 -130 -74q0 -28 23.5 -40t63.5 -18zM919 109q0 30 -25.5 44.5t-75.5 23.5l-63 10q-68 -11 -95.5 -28.5t-27.5 -49.5q0 -41 38.5 -61
t104.5 -20q144 0 144 81z" />
    <glyph glyph-name="threeeighths" unicode="&#x215c;" horiz-adv-x="1259" 
d="M966 727h80l-721 -744h-80zM504 433q0 -60 -52.5 -92t-146.5 -32q-35 0 -61.5 2t-59 10t-54 22t-37 39.5t-16.5 61.5l74 3q3 -31 17.5 -50.5t40 -27.5t45.5 -10.5t50 -2.5q126 0 126 78q0 28 -24.5 49t-88.5 21h-46l5 35h46q129 0 129 72q0 32 -37 49t-85 17
q-132 0 -150 -91l-73 2q9 61 64.5 98t157.5 37q37 0 69 -4.5t62.5 -15t48.5 -31.5t18 -51q0 -93 -135 -101q54 -4 83.5 -26.5t29.5 -60.5zM1212 300q0 -78 -144 -89q57 -10 89 -33t32 -68q0 -124 -218 -124q-38 0 -72 4.5t-69.5 15t-56.5 32.5t-21 54q0 90 153 102
q-107 20 -107 92q0 49 47 81.5t157 32.5q34 0 67.5 -4.5t67 -15t54.5 -31t21 -49.5zM1031 216q106 13 106 74q0 27 -25.5 43.5t-52 20.5t-56.5 4q-130 0 -130 -74q0 -28 23.5 -40t63.5 -18zM1115 109q0 30 -25.5 44.5t-75.5 23.5l-63 10q-68 -11 -95.5 -28.5t-27.5 -49.5
q0 -41 38.5 -61t104.5 -20q144 0 144 81z" />
    <glyph glyph-name="fiveeighths" unicode="&#x215d;" horiz-adv-x="1234" 
d="M941 727h80l-721 -744h-80zM490 461q0 -60 -51.5 -106t-163.5 -46q-34 0 -64 4.5t-62 15.5t-52 34.5t-23 57.5l69 4q13 -69 127 -69q72 0 108.5 29t36.5 73q0 40 -38 58.5t-92 18.5q-94 0 -130 -56l-61 5l63 226h350l-8 -47h-296l-41 -141q42 56 151 56q44 0 80.5 -8.5
t66.5 -36.5t30 -72zM1187 300q0 -78 -144 -89q57 -10 89 -33t32 -68q0 -124 -218 -124q-38 0 -72 4.5t-69.5 15t-56.5 32.5t-21 54q0 90 153 102q-107 20 -107 92q0 49 47 81.5t157 32.5q34 0 67.5 -4.5t67 -15t54.5 -31t21 -49.5zM1006 216q106 13 106 74q0 27 -25.5 43.5
t-52 20.5t-56.5 4q-130 0 -130 -74q0 -28 23.5 -40t63.5 -18zM1090 109q0 30 -25.5 44.5t-75.5 23.5l-63 10q-68 -11 -95.5 -28.5t-27.5 -49.5q0 -41 38.5 -61t104.5 -20q144 0 144 81z" />
    <glyph glyph-name="seveneighths" unicode="&#x215e;" horiz-adv-x="1134" 
d="M841 727h80l-721 -744h-80zM175 338q13 96 80.5 179.5t176.5 140.5h-340l7 52h407l-8 -52q-221 -127 -248 -317l-3 -18h-74zM1087 300q0 -78 -144 -89q57 -10 89 -33t32 -68q0 -124 -218 -124q-38 0 -72 4.5t-69.5 15t-56.5 32.5t-21 54q0 90 153 102q-107 20 -107 92
q0 49 47 81.5t157 32.5q34 0 67.5 -4.5t67 -15t54.5 -31t21 -49.5zM906 216q106 13 106 74q0 27 -25.5 43.5t-52 20.5t-56.5 4q-130 0 -130 -74q0 -28 23.5 -40t63.5 -18zM990 109q0 30 -25.5 44.5t-75.5 23.5l-63 10q-68 -11 -95.5 -28.5t-27.5 -49.5q0 -41 38.5 -61
t104.5 -20q144 0 144 81z" />
    <glyph glyph-name="arrowleft" unicode="&#x2190;" horiz-adv-x="1298" 
d="M1186 305h-901l-16 -90l-133 115l174 115l-16 -90h900z" />
    <glyph glyph-name="arrowup" unicode="&#x2191;" horiz-adv-x="474" 
d="M162 -35l111 631h-90l142 154l88 -154h-89l-111 -631h-51z" />
    <glyph glyph-name="arrowright" unicode="&#x2192;" horiz-adv-x="1298" 
d="M140 355h901l16 90l133 -115l-174 -115l16 90h-900z" />
    <glyph glyph-name="arrowdown" unicode="&#x2193;" horiz-adv-x="474" 
d="M349 745l-111 -631h90l-142 -154l-88 154h89l111 631h51z" />
    <glyph glyph-name="arrowboth" unicode="&#x2194;" horiz-adv-x="1303" 
d="M1037 305h-752l-16 -90l-133 115l174 115l-16 -90h751l17 90l133 -115l-175 -115z" />
    <glyph glyph-name="arrowupdn" unicode="&#x2195;" horiz-adv-x="474" 
d="M98 114h90l84 482h-89l142 154l88 -154h-89l-85 -482h90l-143 -154z" />
    <glyph glyph-name="uni2196" unicode="&#x2196;" horiz-adv-x="962" 
d="M258 596l-88 -76l33 190h189l-90 -76l499 -606l-43 -37z" />
    <glyph glyph-name="uni2197" unicode="&#x2197;" horiz-adv-x="787" 
d="M626 597l-500 -605l-43 37l499 606l-90 76h189l33 -190z" />
    <glyph glyph-name="uni2198" unicode="&#x2198;" horiz-adv-x="962" 
d="M743 125l88 76l-33 -190h-189l90 76l-499 606l43 37z" />
    <glyph glyph-name="uni2199" unicode="&#x2199;" horiz-adv-x="787" 
d="M201 125l500 605l43 -37l-499 -606l90 -76h-189l-33 190z" />
    <glyph glyph-name="uni21A9" unicode="&#x21a9;" horiz-adv-x="1300" 
d="M269 215l-133 115l174 115l-16 -90h630q241 0 241 162q0 115 -192 115h-429l9 49h439q231 0 231 -155q0 -105 -77 -163t-237 -58h-624z" />
    <glyph glyph-name="uni21AA" unicode="&#x21aa;" horiz-adv-x="1299" 
d="M1017 215l16 90h-624q-246 0 -246 158q0 105 74.5 161.5t222.5 56.5h439l-9 -49h-428q-242 0 -242 -161q0 -116 193 -116h629l16 90l134 -115z" />
    <glyph glyph-name="uni21B0" unicode="&#x21b0;" horiz-adv-x="1277" 
d="M1059 0l102 575h-828l-16 -90l-133 115l174 115l-16 -90h880l-111 -625h-52z" />
    <glyph glyph-name="uni21B1" unicode="&#x21b1;" horiz-adv-x="1277" 
d="M130 0h-52l110 625h880l15 90l134 -115l-174 -115l16 90h-828z" />
    <glyph glyph-name="uni21B2" unicode="&#x21b2;" horiz-adv-x="1277" 
d="M1184 710h52l-110 -625h-880l-15 -90l-134 115l174 115l-16 -90h828z" />
    <glyph glyph-name="uni21B3" unicode="&#x21b3;" horiz-adv-x="1277" 
d="M255 710l-102 -575h828l16 90l133 -115l-173 -115l15 90h-880l111 625h52z" />
    <glyph glyph-name="uni21B4" unicode="&#x21b4;" horiz-adv-x="1368" 
d="M1238 710l-100 -568h89l-142 -154l-88 154h89l91 519h-983l9 49h1035z" />
    <glyph glyph-name="uni21BB" unicode="&#x21bb;" horiz-adv-x="1255" 
d="M1065 352h86l-142 -154l-89 154h91v2q24 143 -77.5 230.5t-274.5 87.5q-124 0 -229 -44t-170 -127.5t-65 -188.5q0 -124 98 -200.5t252 -76.5q94 0 185.5 27t160.5 74l26 -43q-160 -112 -381 -112q-173 0 -286 89.5t-113 233.5q0 121 75 219t196 150.5t260 52.5
q128 0 224.5 -45.5t144 -131t28.5 -195.5v-2z" />
    <glyph glyph-name="uni21C4" unicode="&#x21c4;" horiz-adv-x="1360" 
d="M1199 421h-893l-16 -90l-133 115l173 115l-15 -90h893zM1082 239l16 90l134 -115l-175 -115l16 90h-891l9 50h891z" />
    <glyph glyph-name="uni21C5" unicode="&#x21c5;" horiz-adv-x="713" 
d="M415 47l96 549h-90l142 154l89 -154h-90l-96 -549h-51zM186 -40l-88 154h90l96 549h51l-96 -549h90z" />
    <glyph glyph-name="partialdiff" unicode="&#x2202;" horiz-adv-x="764" 
d="M404 721q166 0 250 -81t84 -232q0 -183 -114.5 -304t-308.5 -121q-131 0 -203.5 56.5t-72.5 155.5q0 114 93.5 188t255.5 74q190 0 272 -115q3 24 3 51q0 130 -66 196.5t-207 66.5q-72 0 -147 -19l-8 61q79 23 169 23zM325 47q114 0 201.5 57t119.5 167q-68 122 -261 122
q-131 0 -201 -53.5t-70 -135.5q0 -73 55 -115t156 -42z" />
    <glyph glyph-name="emptyset" unicode="&#x2205;" horiz-adv-x="710" 
d="M713 510l-104 -69q40 -50 40 -119q0 -101 -74.5 -173t-217.5 -72q-128 0 -204 57l-105 -70l-32 37l102 68q-37 48 -37 115q0 101 74.5 173t216.5 72q126 0 202 -55l108 72zM149 293q0 -53 25 -86l342 228q-51 32 -137 32q-65 0 -112.5 -16t-71.5 -43t-35 -55.5t-11 -59.5
zM580 313q0 53 -27 90l-343 -230q53 -34 141 -34q65 0 112.5 16t71.5 43t34.5 55.5t10.5 59.5z" />
    <glyph glyph-name="uni2206" unicode="&#x2206;" horiz-adv-x="923" 
d="M-7 0l507 698h86l256 -698h-849zM532 626l-408 -561h614z" />
    <glyph glyph-name="product" unicode="&#x220f;" horiz-adv-x="943" 
d="M692 -88l128 724h-561l-128 -724h-74l140 793h710l-140 -793h-75z" />
    <glyph glyph-name="summation" unicode="&#x2211;" horiz-adv-x="959" 
d="M56 -88l10 58l511 355l-378 323l10 57h703l-12 -67h-579l370 -311l-512 -348h617l-12 -67h-728z" />
    <glyph glyph-name="minus" unicode="&#x2212;" horiz-adv-x="685" 
d="M69 293l12 70h562l-12 -70h-562z" />
    <glyph glyph-name="radical" unicode="&#x221a;" horiz-adv-x="723" 
d="M3 298h185l74 -302l478 739h75l-535 -829h-67l-86 331h-135z" />
    <glyph glyph-name="infinity" unicode="&#x221e;" 
d="M617 464q59 0 96.5 -31t37.5 -92q0 -59 -44.5 -103.5t-137.5 -44.5q-107 0 -165 87q-96 -88 -191 -88q-59 0 -96.5 31.5t-37.5 92.5q0 56 47.5 102t134.5 46q110 0 164 -88q96 88 192 88zM231 255q71 0 146 73q-48 74 -122 74q-44 0 -76 -22.5t-32 -60.5q0 -32 24 -48
t60 -16zM575 254q44 0 76 22.5t32 61.5q0 32 -23 47.5t-60 15.5q-72 0 -147 -73q48 -74 122 -74z" />
    <glyph glyph-name="integral" unicode="&#x222b;" horiz-adv-x="466" 
d="M-23 -115q-33 0 -61 4l11 65q30 -5 64 -5q77 0 121 39t62 138l63 356q41 232 268 232q35 0 62 -5l-12 -64q-29 5 -65 5q-75 0 -118.5 -38.5t-60.5 -136.5l-64 -356q-41 -234 -270 -234z" />
    <glyph glyph-name="approxequal" unicode="&#x2248;" horiz-adv-x="842" 
d="M579 369q-47 0 -130.5 27t-129.5 27q-89 0 -157 -48l12 69q27 21 70.5 34.5t84.5 13.5q56 0 135.5 -27t124.5 -27q91 0 154 48l-12 -69q-26 -21 -69 -34.5t-83 -13.5zM545 176q-47 0 -131 27t-130 27q-91 0 -156 -48l12 69q28 21 71.5 34.5t83.5 13.5q56 0 136 -27
t125 -27q86 0 154 48l-13 -69q-25 -21 -68 -34.5t-84 -13.5z" />
    <glyph glyph-name="notequal" unicode="&#x2260;" horiz-adv-x="849" 
d="M730 387h-221l-85 -116h285l-13 -70h-324l-101 -136h-54l101 136h-183l12 70h223l85 116h-287l12 70h327l98 132h54l-98 -132h181z" />
    <glyph glyph-name="lessequal" unicode="&#x2264;" horiz-adv-x="855" 
d="M685 131l-519 210l11 62l593 210l-12 -75l-493 -171l434 -167zM116 65h555l-11 -65h-555z" />
    <glyph glyph-name="greaterequal" unicode="&#x2265;" horiz-adv-x="855" 
d="M216 613l519 -210l-11 -62l-593 -210l12 75l493 171l-434 167zM115 65h555l-11 -65h-555z" />
    <glyph glyph-name="uni2460" unicode="&#x2460;" horiz-adv-x="959" 
d="M481 -25q-57 0 -113.5 10t-114 36t-101 64t-71 100t-27.5 139q0 59 13 113.5t46 110t83.5 96t132 66t184.5 25.5q57 0 112.5 -10t113.5 -35.5t102 -63.5t72 -100t28 -140q0 -59 -13 -114t-46.5 -110t-84 -95.5t-132 -66t-184.5 -25.5zM478 17q93 0 166.5 23t119 60
t76 86.5t42.5 98.5t12 101q0 66 -24 119.5t-62.5 87.5t-89 57.5t-101 33t-101.5 9.5q-92 0 -166 -23t-119.5 -60t-75.5 -86.5t-42 -98.5t-12 -100q0 -65 23.5 -118.5t61.5 -88t88.5 -58t101.5 -33.5t102 -10zM452 162l54 295q-11 -19 -44.5 -31.5t-67.5 -12.5h-29l9 59h19
q104 0 139 77h61l-68 -387h-73z" />
    <glyph glyph-name="uni2461" unicode="&#x2461;" horiz-adv-x="959" 
d="M481 -25q-57 0 -113.5 10t-114 36t-101 64t-71 100t-27.5 139q0 59 13 113.5t46 110t83.5 96t132 66t184.5 25.5q57 0 112.5 -10t113.5 -35.5t102 -63.5t72 -100t28 -140q0 -59 -13 -114t-46.5 -110t-84 -95.5t-132 -66t-184.5 -25.5zM478 17q93 0 166.5 23t119 60
t76 86.5t42.5 98.5t12 101q0 66 -24 119.5t-62.5 87.5t-89 57.5t-101 33t-101.5 9.5q-92 0 -166 -23t-119.5 -60t-75.5 -86.5t-42 -98.5t-12 -100q0 -65 23.5 -118.5t61.5 -88t88.5 -58t101.5 -33.5t102 -10zM267 172l6 42q200 86 244 109q122 67 125 124q0 76 -118 76
q-67 0 -103 -23t-33 -72l-69 6q0 138 211 138q33 0 61.5 -4.5t58.5 -16t48 -36t18 -60.5q0 -35 -24.5 -67t-81 -63.5t-94 -48.5t-117.5 -49q-8 -3 -12 -5h300l-7 -50h-413z" />
    <glyph glyph-name="uni2462" unicode="&#x2462;" horiz-adv-x="959" 
d="M481 -25q-57 0 -113.5 10t-114 36t-101 64t-71 100t-27.5 139q0 59 13 113.5t46 110t83.5 96t132 66t184.5 25.5q57 0 112.5 -10t113.5 -35.5t102 -63.5t72 -100t28 -140q0 -59 -13 -114t-46.5 -110t-84 -95.5t-132 -66t-184.5 -25.5zM478 17q93 0 166.5 23t119 60
t76 86.5t42.5 98.5t12 101q0 66 -24 119.5t-62.5 87.5t-89 57.5t-101 33t-101.5 9.5q-92 0 -166 -23t-119.5 -60t-75.5 -86.5t-42 -98.5t-12 -100q0 -65 23.5 -118.5t61.5 -88t88.5 -58t101.5 -33.5t102 -10zM499 148q-35 0 -61.5 2t-59 10t-54 22t-37 39.5t-16.5 61.5l74 3
q3 -31 17.5 -50.5t40 -27.5t45.5 -10.5t50 -2.5q126 0 126 78q0 28 -24.5 49t-88.5 21h-46l5 35h46q129 0 129 72q0 32 -37 49t-85 17q-132 0 -150 -91l-73 2q9 61 64.5 98t157.5 37q37 0 69 -4.5t62.5 -15t48.5 -31.5t18 -51q0 -93 -135 -101q54 -4 83.5 -26.5t29.5 -60.5
q0 -60 -52.5 -92t-146.5 -32z" />
    <glyph glyph-name="uni2463" unicode="&#x2463;" horiz-adv-x="959" 
d="M481 -25q-57 0 -113.5 10t-114 36t-101 64t-71 100t-27.5 139q0 59 13 113.5t46 110t83.5 96t132 66t184.5 25.5q57 0 112.5 -10t113.5 -35.5t102 -63.5t72 -100t28 -140q0 -59 -13 -114t-46.5 -110t-84 -95.5t-132 -66t-184.5 -25.5zM478 17q93 0 166.5 23t119 60
t76 86.5t42.5 98.5t12 101q0 66 -24 119.5t-62.5 87.5t-89 57.5t-101 33t-101.5 9.5q-92 0 -166 -23t-119.5 -60t-75.5 -86.5t-42 -98.5t-12 -100q0 -65 23.5 -118.5t61.5 -88t88.5 -58t101.5 -33.5t102 -10zM720 270h-115l-18 -92h-71l17 92h-308l7 46l350 249h74l-44 -248
h115zM581 519l-283 -202h243z" />
    <glyph glyph-name="uni2464" unicode="&#x2464;" horiz-adv-x="959" 
d="M481 -25q-57 0 -113.5 10t-114 36t-101 64t-71 100t-27.5 139q0 59 13 113.5t46 110t83.5 96t132 66t184.5 25.5q57 0 112.5 -10t113.5 -35.5t102 -63.5t72 -100t28 -140q0 -59 -13 -114t-46.5 -110t-84 -95.5t-132 -66t-184.5 -25.5zM478 17q93 0 166.5 23t119 60
t76 86.5t42.5 98.5t12 101q0 66 -24 119.5t-62.5 87.5t-89 57.5t-101 33t-101.5 9.5q-92 0 -166 -23t-119.5 -60t-75.5 -86.5t-42 -98.5t-12 -100q0 -65 23.5 -118.5t61.5 -88t88.5 -58t101.5 -33.5t102 -10zM476 155q-34 0 -64 4.5t-62 15.5t-52 34.5t-23 57.5l69 4
q13 -69 127 -69q72 0 108.5 29t36.5 73q0 40 -38 58.5t-92 18.5q-94 0 -130 -56l-61 5l63 226h350l-8 -47h-296l-41 -141q42 56 151 56q44 0 80.5 -8.5t66.5 -36.5t30 -72q0 -60 -51.5 -106t-163.5 -46z" />
    <glyph glyph-name="uni2465" unicode="&#x2465;" horiz-adv-x="959" 
d="M513 735q57 0 112.5 -10t113.5 -35.5t102 -63.5t72 -100t28 -140q0 -59 -13 -114t-46.5 -110t-84 -95.5t-132 -66t-184.5 -25.5q-57 0 -113.5 10t-114 36t-101 64t-71 100t-27.5 139q0 59 13 113.5t46 110t83.5 96t132 66t184.5 25.5zM478 17q93 0 166.5 23t119 60
t76 86.5t42.5 98.5t12 101q0 66 -24 119.5t-62.5 87.5t-89 57.5t-101 33t-101.5 9.5q-92 0 -166 -23t-119.5 -60t-75.5 -86.5t-42 -98.5t-12 -100q0 -65 23.5 -118.5t61.5 -88t88.5 -58t101.5 -33.5t102 -10zM514 517q-50 0 -86.5 -15.5t-55.5 -42.5t-28 -54.5t-11 -59.5
q44 75 174 75q87 0 135.5 -32t48.5 -90q0 -65 -54 -107.5t-158 -42.5q-41 0 -77 8t-69.5 26t-53 53.5t-19.5 84.5q0 29 5.5 58t22.5 63.5t44 60t74.5 43t109.5 17.5q44 0 83 -8.5t72 -33t38 -61.5l-73 -4q-5 28 -40 45t-82 17zM487 378q-110 0 -153 -72q13 -111 145 -111
q68 0 102.5 28t34.5 74q0 81 -129 81z" />
    <glyph glyph-name="uni2466" unicode="&#x2466;" horiz-adv-x="959" 
d="M481 -25q-57 0 -113.5 10t-114 36t-101 64t-71 100t-27.5 139q0 59 13 113.5t46 110t83.5 96t132 66t184.5 25.5q57 0 112.5 -10t113.5 -35.5t102 -63.5t72 -100t28 -140q0 -59 -13 -114t-46.5 -110t-84 -95.5t-132 -66t-184.5 -25.5zM478 17q93 0 166.5 23t119 60
t76 86.5t42.5 98.5t12 101q0 66 -24 119.5t-62.5 87.5t-89 57.5t-101 33t-101.5 9.5q-92 0 -166 -23t-119.5 -60t-75.5 -86.5t-42 -98.5t-12 -100q0 -65 23.5 -118.5t61.5 -88t88.5 -58t101.5 -33.5t102 -10zM393 162l2 15q13 96 80.5 179.5t176.5 140.5h-340l7 52h407
l-8 -52q-221 -127 -248 -317l-3 -18h-74z" />
    <glyph glyph-name="uni2467" unicode="&#x2467;" horiz-adv-x="959" 
d="M513 735q57 0 112.5 -10t113.5 -35.5t102 -63.5t72 -100t28 -140q0 -59 -13 -114t-46.5 -110t-84 -95.5t-132 -66t-184.5 -25.5q-57 0 -113.5 10t-114 36t-101 64t-71 100t-27.5 139q0 59 13 113.5t46 110t83.5 96t132 66t184.5 25.5zM478 17q93 0 166.5 23t119 60
t76 86.5t42.5 98.5t12 101q0 66 -24 119.5t-62.5 87.5t-89 57.5t-101 33t-101.5 9.5q-92 0 -166 -23t-119.5 -60t-75.5 -86.5t-42 -98.5t-12 -100q0 -65 23.5 -118.5t61.5 -88t88.5 -58t101.5 -33.5t102 -10zM518 562q34 0 67.5 -4.5t67 -15t54.5 -31t21 -49.5
q0 -78 -144 -89q57 -10 89 -33t32 -68q0 -124 -218 -124q-38 0 -72 4.5t-69.5 15t-56.5 32.5t-21 54q0 90 153 102q-107 20 -107 92q0 49 47 81.5t157 32.5zM547 378q106 13 106 74q0 27 -25.5 43.5t-52 20.5t-56.5 4q-130 0 -130 -74q0 -28 23.5 -40t63.5 -18zM631 271
q0 30 -25.5 44.5t-75.5 23.5l-63 10q-68 -11 -95.5 -28.5t-27.5 -49.5q0 -41 38.5 -61t104.5 -20q144 0 144 81z" />
    <glyph glyph-name="uni2468" unicode="&#x2468;" horiz-adv-x="959" 
d="M513 735q57 0 112.5 -10t113.5 -35.5t102 -63.5t72 -100t28 -140q0 -59 -13 -114t-46.5 -110t-84 -95.5t-132 -66t-184.5 -25.5q-57 0 -113.5 10t-114 36t-101 64t-71 100t-27.5 139q0 59 13 113.5t46 110t83.5 96t132 66t184.5 25.5zM478 17q93 0 166.5 23t119 60
t76 86.5t42.5 98.5t12 101q0 66 -24 119.5t-62.5 87.5t-89 57.5t-101 33t-101.5 9.5q-92 0 -166 -23t-119.5 -60t-75.5 -86.5t-42 -98.5t-12 -100q0 -65 23.5 -118.5t61.5 -88t88.5 -58t101.5 -33.5t102 -10zM509 562q37 0 69.5 -6t67.5 -21t56 -48.5t21 -81.5
q0 -18 -1 -33.5t-6 -43.5t-14.5 -50t-28.5 -47.5t-45 -42.5t-67.5 -28.5t-92.5 -11.5q-33 0 -63.5 5.5t-60 17.5t-48.5 35.5t-20 56.5l74 3q2 -38 40 -53.5t87 -15.5q81 0 125 43t54 118q-56 -56 -180 -56q-68 0 -126 31t-58 90q0 23 8.5 44.5t30 44t67.5 36.5t111 14z
M497 343q112 0 162 60v4q0 61 -39 87t-112 26q-79 0 -110 -28t-31 -65q0 -42 42.5 -63t87.5 -21z" />
    <glyph glyph-name="uni24EA" unicode="&#x24ea;" horiz-adv-x="959" 
d="M481 -25q-57 0 -113.5 10t-114 36t-101 64t-71 100t-27.5 139q0 59 13 113.5t46 110t83.5 96t132 66t184.5 25.5q57 0 112.5 -10t113.5 -35.5t102 -63.5t72 -100t28 -140q0 -59 -13 -114t-46.5 -110t-84 -95.5t-132 -66t-184.5 -25.5zM478 17q93 0 166.5 23t119 60
t76 86.5t42.5 98.5t12 101q0 66 -24 119.5t-62.5 87.5t-89 57.5t-101 33t-101.5 9.5q-92 0 -166 -23t-119.5 -60t-75.5 -86.5t-42 -98.5t-12 -100q0 -65 23.5 -118.5t61.5 -88t88.5 -58t101.5 -33.5t102 -10zM480 148q-41 0 -76 8.5t-67.5 27.5t-51.5 56.5t-19 89.5
q0 41 13 80t41 74t78.5 56.5t117.5 21.5q41 0 76.5 -8.5t68 -27.5t51.5 -55.5t19 -88.5q0 -42 -13.5 -81t-41 -74.5t-78.5 -57t-118 -21.5zM480 197q44 0 79.5 17t55.5 45t30.5 59.5t10.5 63.5q0 71 -42 101.5t-98 30.5q-85 0 -130 -57t-45 -128t41.5 -101.5t97.5 -30.5z
" />
    <glyph glyph-name="uni24FF" unicode="&#x24ff;" horiz-adv-x="957" 
d="M475 -25q-185 0 -304 87.5t-119 253.5q0 57 14 113t48.5 112t85.5 98.5t131 69t179 26.5q85 0 160 -19.5t137 -59t98.5 -107t36.5 -155.5q0 -58 -15.5 -115.5t-51 -113t-88 -97t-133.5 -67.5t-179 -26zM479 148q67 0 118 21.5t78.5 57t41 74.5t13.5 81q0 52 -19 88.5
t-51.5 55.5t-68 27.5t-76.5 8.5q-67 0 -117.5 -21.5t-78.5 -56.5t-41 -74t-13 -80q0 -52 19 -89.5t51.5 -56.5t67.5 -27.5t76 -8.5zM479 198q-35 0 -64 10t-52 41t-23 80q0 71 45 127.5t130 56.5q35 0 64.5 -10t52.5 -41t23 -80q0 -71 -45 -127.5t-131 -56.5z" />
    <glyph glyph-name="lozenge" unicode="&#x25ca;" horiz-adv-x="813" 
d="M392 -17h-66l-217 372l348 372h65l220 -372zM480 669l-290 -314l179 -314l293 314z" />
    <glyph glyph-name="circle" unicode="&#x25cb;" horiz-adv-x="958" 
d="M481 -25q-57 0 -113.5 10t-114 36t-101 64t-71 100t-27.5 139q0 59 13 113.5t46 110t83.5 96t132 66t184.5 25.5q57 0 112.5 -10t113.5 -35.5t102 -63.5t72 -100t28 -140q0 -59 -13 -114t-46.5 -110t-84 -95.5t-132 -66t-184.5 -25.5zM478 17q93 0 166.5 23t119 60
t76 86.5t42.5 98.5t12 101q0 66 -24 119.5t-62.5 87.5t-89 57.5t-101 33t-101.5 9.5q-92 0 -166 -23t-119.5 -60t-75.5 -86.5t-42 -98.5t-12 -100q0 -65 23.5 -118.5t61.5 -88t88.5 -58t101.5 -33.5t102 -10z" />
    <glyph glyph-name="uni2776" unicode="&#x2776;" horiz-adv-x="957" 
d="M475 -25q-185 0 -304 87.5t-119 253.5q0 57 14 113t48.5 112t85.5 98.5t131 69t179 26.5q85 0 160 -19.5t137 -59t98.5 -107t36.5 -155.5q0 -58 -15.5 -115.5t-51 -113t-88 -97t-133.5 -67.5t-179 -26zM453 162h73l68 387h-61q-36 -77 -140 -77h-19l-8 -59h28
q34 0 68 12.5t45 31.5z" />
    <glyph glyph-name="uni2777" unicode="&#x2777;" horiz-adv-x="957" 
d="M475 -25q-185 0 -304 87.5t-119 253.5q0 57 14 113t48.5 112t85.5 98.5t131 69t179 26.5q85 0 160 -19.5t137 -59t98.5 -107t36.5 -155.5q0 -58 -15.5 -115.5t-51 -113t-88 -97t-133.5 -67.5t-179 -26zM267 172h413l7 50h-299q174 71 234 110q94 59 94 123q0 36 -18 60.5
t-48 36t-58.5 16t-61.5 4.5q-211 0 -211 -139l69 -5q-3 49 33 72t103 23q118 0 118 -76q0 -28 -23.5 -54.5t-70.5 -53t-97 -49t-123 -53.5q-36 -15 -55 -23z" />
    <glyph glyph-name="uni2778" unicode="&#x2778;" horiz-adv-x="957" 
d="M475 -25q-185 0 -304 87.5t-119 253.5q0 57 14 113t48.5 112t85.5 98.5t131 69t179 26.5q85 0 160 -19.5t137 -59t98.5 -107t36.5 -155.5q0 -58 -15.5 -115.5t-51 -113t-88 -97t-133.5 -67.5t-179 -26zM499 148q94 0 146.5 32t52.5 92q0 38 -29.5 60.5t-83.5 26.5
q136 8 136 101q0 39 -33 63t-74 31.5t-92 7.5q-102 0 -157.5 -37t-64.5 -98l73 -2q18 91 150 91q47 0 84 -17t37 -49q0 -72 -128 -72h-46l-5 -35h46q63 0 88 -21t25 -49q0 -39 -34 -58.5t-92 -19.5q-30 0 -50 2.5t-45.5 10.5t-40 27.5t-17.5 50.5l-74 -3q1 -36 16.5 -61.5
t37 -39.5t54 -22t59 -10t61.5 -2z" />
    <glyph glyph-name="uni2779" unicode="&#x2779;" horiz-adv-x="957" 
d="M475 -25q-185 0 -304 87.5t-119 253.5q0 57 14 113t48.5 112t85.5 98.5t131 69t179 26.5q85 0 160 -19.5t137 -59t98.5 -107t36.5 -155.5q0 -58 -15.5 -115.5t-51 -113t-88 -97t-133.5 -67.5t-179 -26zM516 178h72l17 92h116l7 48h-116l44 247h-74l-350 -248l-7 -47h308z
M298 318l283 202l-40 -202h-243z" />
    <glyph glyph-name="uni277A" unicode="&#x277a;" horiz-adv-x="957" 
d="M475 -25q-185 0 -304 87.5t-119 253.5q0 57 14 113t48.5 112t85.5 98.5t131 69t179 26.5q85 0 160 -19.5t137 -59t98.5 -107t36.5 -155.5q0 -58 -15.5 -115.5t-51 -113t-88 -97t-133.5 -67.5t-179 -26zM476 155q112 0 163.5 46t51.5 106q0 44 -30 72t-66.5 36.5
t-80.5 8.5q-109 0 -151 -56l41 141h296l8 47h-350l-63 -226l61 -6q35 57 130 57q53 0 91.5 -19t38.5 -58q0 -44 -37 -73t-109 -29q-113 0 -126 69l-70 -4q3 -34 23.5 -57.5t52.5 -34.5t62 -15.5t64 -4.5z" />
    <glyph glyph-name="uni277B" unicode="&#x277b;" horiz-adv-x="957" 
d="M475 -25q-185 0 -304 87.5t-119 253.5q0 57 14 113t48.5 112t85.5 98.5t131 69t179 26.5q85 0 160 -19.5t137 -59t98.5 -107t36.5 -155.5q0 -58 -15.5 -115.5t-51 -113t-88 -97t-133.5 -67.5t-179 -26zM481 148q104 0 158 42.5t54 107.5q0 58 -48.5 90t-135.5 32
q-131 0 -173 -76q2 72 45 122.5t135 50.5q47 0 82 -17t40 -45l74 3q-5 37 -38.5 62t-72.5 33.5t-83 8.5q-62 0 -109.5 -17.5t-74.5 -43t-44 -60t-22.5 -63.5t-5.5 -58q0 -49 19.5 -84.5t53 -53.5t69.5 -26t77 -8zM481 195q-131 0 -145 110q41 73 153 73q62 0 95.5 -21
t33.5 -60q0 -46 -34.5 -74t-102.5 -28z" />
    <glyph glyph-name="uni277C" unicode="&#x277c;" horiz-adv-x="957" 
d="M475 -25q-185 0 -304 87.5t-119 253.5q0 57 14 113t48.5 112t85.5 98.5t131 69t179 26.5q85 0 160 -19.5t137 -59t98.5 -107t36.5 -155.5q0 -58 -15.5 -115.5t-51 -113t-88 -97t-133.5 -67.5t-179 -26zM404 162h74l2 18q29 192 248 316l8 53h-406l-8 -52h341
q-109 -57 -176.5 -140.5t-80.5 -179.5z" />
    <glyph glyph-name="uni277D" unicode="&#x277d;" horiz-adv-x="957" 
d="M475 -25q-185 0 -304 87.5t-119 253.5q0 57 14 113t48.5 112t85.5 98.5t131 69t179 26.5q85 0 160 -19.5t137 -59t98.5 -107t36.5 -155.5q0 -58 -15.5 -115.5t-51 -113t-88 -97t-133.5 -67.5t-179 -26zM486 148q219 0 219 124q0 44 -31.5 67t-89.5 33q144 14 144 90
q0 29 -21 49.5t-55 31t-67.5 15t-67.5 4.5q-110 0 -157 -32.5t-47 -81.5q0 -70 108 -92q-154 -14 -154 -102q0 -32 21 -54t56.5 -32.5t69.5 -15t72 -4.5zM549 378l-73 10q-41 5 -64 17.5t-23 40.5q0 74 129 74q21 0 41 -2.5t43 -9t36.5 -21t13.5 -35.5q0 -60 -103 -74z
M486 190q-66 0 -104 20t-38 61q0 32 27 49.5t95 27.5l63 -10q50 -8 75.5 -22.5t25.5 -44.5q0 -81 -144 -81z" />
    <glyph glyph-name="uni277E" unicode="&#x277e;" horiz-adv-x="957" 
d="M475 -25q-185 0 -304 87.5t-119 253.5q0 57 14 113t48.5 112t85.5 98.5t131 69t179 26.5q85 0 160 -19.5t137 -59t98.5 -107t36.5 -155.5q0 -58 -15.5 -115.5t-51 -113t-88 -97t-133.5 -67.5t-179 -26zM473 148q51 0 92.5 11.5t67.5 28.5t45 42.5t28.5 47.5t14.5 50
t6 43.5t1 33.5q0 48 -21 81.5t-56 48.5t-68 21t-69 6q-65 0 -111 -14t-67.5 -36.5t-30 -44t-8.5 -44.5q0 -59 58 -90t126 -31q124 0 178 55q-22 -160 -177 -160q-21 0 -41 3t-40 10t-32.5 21.5t-13.5 34.5l-74 -4q1 -32 19.5 -55.5t48 -35.5t60.5 -17.5t64 -5.5zM501 344
q-27 0 -54.5 7.5t-51 27t-23.5 48.5q0 37 30.5 65t109.5 28q78 0 114 -27t37 -91q-49 -58 -162 -58z" />
    <glyph glyph-name="uniE000" unicode="&#xe000;" horiz-adv-x="1375" 
d="M299 710h1035l-8 -49h-984l-98 -519h90l-144 -154l-87 154h89z" />
    <glyph glyph-name="i.loclTRK" horiz-adv-x="297" 
d="M162 591l20 113h90l-20 -113h-90zM68 0l88 500h74l-88 -500h-74z" />
    <glyph glyph-name="dollar.tf" 
d="M549 379q110 -14 157 -59t47 -125q0 -217 -330 -217q-23 0 -35 1l-14 -80h-52l15 83q-142 12 -223 69t-85 158l86 12q6 -82 64.5 -124t168.5 -51l49 278l-53 6q-221 26 -221 185q0 96 82.5 149t250.5 53h10l14 79h53l-14 -81q246 -17 270 -181l-86 -18q-12 64 -60.5 96
t-135.5 39l-46 -262zM379 398l30 -3l46 258h-7q-240 0 -240 -130q0 -52 40 -82t131 -43zM421 43q249 0 249 148q0 55 -35.5 82t-125.5 39l-61 7l-48 -276h21z" />
    <glyph glyph-name="cent.tf" 
d="M416 41q91 4 141 35.5t79 88.5l70 -12q-39 -79 -109 -124.5t-192 -47.5l-14 -79h-53l14 80q-122 8 -200.5 65t-78.5 176q0 43 10.5 82.5t37 79.5t66.5 69t104.5 47t145.5 18h10l13 72h53l-13 -75q209 -21 246 -176l-79 -11q-25 111 -178 127zM152 233q0 -179 211 -191
l74 417q-71 0 -124.5 -16t-83 -39t-48 -55t-24 -59t-5.5 -57z" />
    <glyph glyph-name="sterling.tf" 
d="M511 51q74 0 106 26.5t46 85.5l69 -13q-35 -172 -216 -172q-42 0 -129 17t-160 17q-89 0 -211 -19l-7 55q106 28 155 79t49 145q0 22 -4 62h-128l11 56h111q-2 26 -2 40q0 57 13 104t44 90t90.5 67.5t143.5 24.5q107 0 183 -41.5t88 -130.5l-81 -20q-7 47 -37.5 77
t-67 40.5t-80.5 10.5q-57 0 -98 -14t-63 -34.5t-34.5 -52t-15.5 -56.5t-3 -58q0 -19 2 -47h242l-11 -56h-225q3 -54 3 -55q0 -85 -38 -137t-124 -85q65 21 126 21q56 0 134.5 -13.5t118.5 -13.5z" />
    <glyph glyph-name="florin.tf" 
d="M669 652q-76 0 -114.5 -37.5t-64.5 -111.5l-27 -79h257l-11 -58h-266l-179 -516h-76l181 516h-204l10 58h214l25 71q18 53 36.5 88.5t48 69t73.5 49.5t104 16q61 0 114 -19l-13 -64q-45 17 -108 17z" />
    <glyph glyph-name="yen.tf" 
d="M445 280l-1 -3h265l-9 -49h-264l-14 -77h265l-9 -49h-265l-18 -102h-77l18 102h-264l8 49h265l14 77h-265l8 49h265l1 3l-266 415h86l186 -299q21 -35 32 -73h2q23 35 59 73l291 299h99z" />
    <glyph glyph-name="Euro.tf" 
d="M453 46q158 0 229 140l68 -35q-95 -174 -301 -174q-66 0 -121 16.5t-100.5 51.5t-73 96.5t-30.5 144.5h-72l10 53h63l3 35h-60l9 53h60q30 129 124.5 209.5t252.5 80.5q224 0 292 -170l-78 -28q-57 130 -222 130q-119 0 -188.5 -61.5t-94.5 -160.5h338l-10 -53h-338
q-2 -24 -2 -35h335l-10 -53h-325q8 -130 75 -185t167 -55z" />
    <glyph glyph-name="perthousand.tf" 
d="M237 418q-62 0 -105 31.5t-43 101.5q0 65 40 112t119 47q62 0 105 -31.5t43 -101.5q0 -65 -40 -112t-119 -47zM236 468q52 0 77 33t25 76q0 45 -26.5 64.5t-62.5 19.5q-51 0 -76.5 -33.5t-25.5 -76.5q0 -45 26.5 -64t62.5 -19zM55 219l10 58l658 281l-10 -58zM336 -19
q-62 0 -105.5 31.5t-43.5 101.5q0 64 40 111t119 47q58 0 99 -31.5t41 -101.5q0 -65 -37.5 -111.5t-112.5 -46.5zM580 -15q-33 0 -61.5 35.5t-28.5 99.5q0 148 101 148q36 0 67 -35t31 -100t-26 -106.5t-83 -41.5zM579 26q21 0 33 16t15 37t3 54q0 29 -8 52t-16.5 32.5
t-14.5 9.5q-30 0 -40 -28t-10 -79q0 -30 8 -53t16.5 -32t13.5 -9zM335 30q51 0 76 33t25 76q0 45 -26.5 64.5t-62.5 19.5q-51 0 -76 -33t-25 -76q0 -45 26.5 -64.5t62.5 -19.5z" />
    <glyph glyph-name="zero.zero" horiz-adv-x="880" 
d="M475 719q69 0 131 -18t115 -54.5t84 -101.5t31 -151q0 -58 -13.5 -115t-44.5 -112.5t-75.5 -97.5t-113 -67.5t-151.5 -25.5q-69 0 -131 18t-115 54.5t-84 101.5t-31 151q0 58 13.5 115t44.5 112.5t75.5 97.5t113 67.5t151.5 25.5zM477 654q-86 0 -151.5 -34t-100.5 -88.5
t-52 -113t-17 -117.5q0 -81 33 -140l498 420q-76 73 -210 73zM436 41q70 0 126.5 23t92 59t59.5 84t33.5 94t9.5 93q0 82 -33 139l-497 -420q76 -72 209 -72z" />
    <glyph glyph-name="zero.tf" 
d="M400 -24q-65 0 -123.5 18t-108 54.5t-79 101t-29.5 150.5q0 58 12.5 115t42 112.5t71.5 97.5t107 68t144 26q65 0 123.5 -18t108.5 -54.5t79.5 -101t29.5 -150.5q0 -58 -12.5 -115t-42 -112.5t-72 -97.5t-107.5 -68t-144 -26zM398 41q66 0 119 23t86 59.5t55.5 84
t31.5 94.5t9 93q0 59 -16 105t-42 74t-61 47t-69.5 26t-71.5 7q-66 0 -118.5 -23t-85.5 -59.5t-55.5 -84t-31.5 -94t-9 -93.5q0 -59 16 -105t41.5 -74t60.5 -47t69.5 -26t71.5 -7z" />
    <glyph glyph-name="one.tf" 
d="M428 71h266l-12 -71h-621l12 71h280l87 493q-36 -40 -106 -67.5t-160 -27.5h-30l12 70h19q100 0 178 42.5t119 113.5h66z" />
    <glyph glyph-name="two.tf" 
d="M26 0l13 72q313 114 458 205q91 57 131.5 111t40.5 115q0 151 -217 151q-209 0 -240 -149q-4 -16 -6 -47l-80 13q0 21 6 45q8 40 28 73.5t55.5 64t96 48t140.5 17.5q62 0 114 -11.5t95 -36t67 -67t24 -98.5q0 -50 -18.5 -93t-55 -78t-67.5 -57.5t-78 -49.5
q-154 -95 -345 -157h515l-12 -71h-665z" />
    <glyph glyph-name="three.tf" 
d="M401 -24q-68 0 -124 11t-104.5 36t-77 70.5t-31.5 108.5l78 10q6 -52 29.5 -87t61.5 -52.5t77.5 -24.5t90.5 -7q120 0 177 44t57 113q0 127 -185 127h-98l12 64h103q200 0 200 138q0 127 -217 127q-224 0 -253 -180l-70 15q18 106 96.5 168t227.5 62q59 0 109.5 -9.5
t93.5 -30.5t67.5 -59t24.5 -91q0 -77 -51 -121t-132 -51q69 -7 110.5 -45t41.5 -113q0 -41 -15.5 -78t-50 -71t-98.5 -54t-150 -20z" />
    <glyph glyph-name="four.tf" 
d="M488 0l32 186h-492l8 45l555 464h93l-79 -451h158l-10 -58h-159l-32 -186h-74zM135 244h396l58 327q4 23 14 72h-2q-23 -27 -54 -54l-350 -298q-30 -25 -62 -47z" />
    <glyph glyph-name="five.tf" 
d="M381 -24q-78 0 -141 17t-112.5 60.5t-64.5 111.5l83 15q35 -139 243 -139q74 0 126.5 18.5t78 50t36 63.5t10.5 69q0 175 -213 175q-91 0 -147 -30.5t-99 -97.5l-77 6l112 400h533l-12 -68h-474l-80 -265q35 58 101.5 89t151.5 31q50 0 96 -11t90.5 -35.5t71 -72.5
t26.5 -114q0 -116 -83 -194.5t-256 -78.5z" />
    <glyph glyph-name="six.tf" 
d="M445 470q54 0 103 -12t93 -37t70 -71.5t26 -108.5q0 -113 -83 -189t-239 -76q-66 0 -122 15t-106.5 49t-80 99.5t-29.5 156.5q0 60 12.5 118t42 114t74 97.5t113 67.5t153.5 26q49 0 94 -9t90.5 -30t76.5 -63t40 -101l-81 -18q-33 156 -220 156q-68 0 -123 -20.5
t-89.5 -53t-58.5 -77t-34.5 -88t-12.5 -89.5q36 66 112 105t179 39zM419 41q65 0 113.5 16.5t75 45.5t38.5 62t12 71q0 41 -14.5 72t-36 49t-51.5 29t-56.5 14.5t-55.5 3.5q-105 0 -180 -44.5t-107 -122.5q9 -58 35.5 -98.5t65 -60.5t77.5 -28.5t84 -8.5z" />
    <glyph glyph-name="seven.tf" 
d="M232 0l3 17q32 185 143 334t316 276h-551l12 68h653l-11 -61q-197 -103 -319 -262.5t-150 -350.5l-2 -21h-94z" />
    <glyph glyph-name="eight.tf" 
d="M568 369q76 -18 123 -56.5t47 -118.5q0 -45 -18 -82t-57 -68.5t-110.5 -49.5t-170.5 -18q-70 0 -128 9.5t-108 30.5t-78 60t-28 93q0 158 228 193q-142 42 -142 158q0 28 7.5 54t30 53t57.5 47t95 32.5t139 12.5q55 0 104 -7t101 -24.5t83 -55.5t31 -92q0 -141 -206 -171
zM205 531q0 -98 158 -126l118 -20q121 22 167.5 57t46.5 87q0 132 -228 132q-262 0 -262 -130zM389 41q83 0 140 13.5t83.5 37.5t36.5 46t10 48q0 112 -176 140l-127 18q-125 -15 -180 -60.5t-55 -104.5q0 -40 23.5 -68.5t65 -43t85 -20.5t94.5 -6z" />
    <glyph glyph-name="nine.tf" 
d="M429 719q47 0 89.5 -6.5t89.5 -26.5t80.5 -52.5t55.5 -88.5t22 -130q0 -40 -3.5 -78t-14.5 -83t-28.5 -83.5t-47.5 -75t-70 -62.5t-98 -41.5t-129 -15.5q-278 0 -307 190l82 18q6 -47 29 -77.5t59.5 -43.5t69.5 -17.5t77 -4.5q72 0 128 23t88 58.5t53 85t28 94t8 93.5
q-86 -146 -304 -146q-53 0 -100 10.5t-91.5 34t-70.5 68.5t-26 107q0 49 17 91.5t53.5 79.5t103 58t157.5 21zM390 316q226 0 295 156q-31 182 -251 182q-75 0 -128 -16t-80 -44t-38 -58t-11 -66q0 -47 20 -79t54 -47.5t67 -21.5t72 -6z" />
    <glyph glyph-name="gcommaaccent.ss01" horiz-adv-x="865" 
d="M534 757l14 -26q-31 -14 -43.5 -30t-16.5 -39h52l-14 -82h-93l12 68q8 43 27 67.5t62 41.5zM349 -214q-132 0 -223.5 41.5t-113.5 131.5h85q40 -109 250 -109q83 0 141 15.5t89 46t45.5 62t22.5 76.5l12 65q-85 -129 -283 -129q-61 0 -116.5 13t-104.5 40.5t-78 78
t-29 117.5q0 121 90 202.5t259 81.5q108 0 189 -35t121 -100l31 116h62l-80 -451q-10 -57 -31.5 -100.5t-62.5 -82t-110.5 -59.5t-164.5 -21zM385 51q124 0 202 52t90 120l3 17q13 69 -27 119.5t-107 73t-148 22.5q-137 0 -205 -63.5t-68 -153.5q0 -52 23 -90t62.5 -58.5
t82.5 -29.5t92 -9z" />
    <glyph glyph-name="gdotaccent.ss01" horiz-adv-x="865" 
d="M443 591l20 113h90l-20 -113h-90zM349 -214q-132 0 -223.5 41.5t-113.5 131.5h85q40 -109 250 -109q83 0 141 15.5t89 46t45.5 62t22.5 76.5l12 65q-85 -129 -283 -129q-61 0 -116.5 13t-104.5 40.5t-78 78t-29 117.5q0 121 90 202.5t259 81.5q108 0 189 -35t121 -100
l31 116h62l-80 -451q-10 -57 -31.5 -100.5t-62.5 -82t-110.5 -59.5t-164.5 -21zM385 51q124 0 202 52t90 120l3 17q13 69 -27 119.5t-107 73t-148 22.5q-137 0 -205 -63.5t-68 -153.5q0 -52 23 -90t62.5 -58.5t82.5 -29.5t92 -9z" />
    <glyph glyph-name="Iacute_J.loclNLD" horiz-adv-x="835" 
d="M211 760l114 105h90l-120 -105h-84zM746 760l114 105h90l-120 -105h-84zM160 0h-82l125 710h82zM737 225q-23 -135 -93.5 -187.5t-193.5 -52.5q-72 0 -146 20l14 77q65 -20 142 -20q84 0 131.5 36t64.5 131l84 481h83z" />
    <glyph glyph-name="iacute_j.loclNLD" horiz-adv-x="613" 
d="M170 580l120 150h80l-126 -150h-74zM481 580l120 150h80l-126 -150h-74zM68 0l88 500h74l-88 -500h-74zM263 -205q-52 0 -95 16l11 65q49 -15 82 -15q55 0 81.5 31.5t39.5 106.5l89 501h74l-91 -512q-17 -99 -58.5 -146t-132.5 -47z" />
    <glyph glyph-name="g.ss01" horiz-adv-x="865" 
d="M349 -214q-132 0 -223.5 41.5t-113.5 131.5h85q40 -109 250 -109q83 0 141 15.5t89 46t45.5 62t22.5 76.5l12 65q-85 -129 -283 -129q-61 0 -116.5 13t-104.5 40.5t-78 78t-29 117.5q0 121 90 202.5t259 81.5q108 0 189 -35t121 -100l31 116h62l-80 -451
q-10 -57 -31.5 -100.5t-62.5 -82t-110.5 -59.5t-164.5 -21zM385 51q124 0 202 52t90 120l3 17q13 69 -27 119.5t-107 73t-148 22.5q-137 0 -205 -63.5t-68 -153.5q0 -52 23 -90t62.5 -58.5t82.5 -29.5t92 -9z" />
    <glyph glyph-name="gbreve.ss01" horiz-adv-x="865" 
d="M388 730q1 -55 28.5 -81t89.5 -26q109 0 136 107h63q-33 -155 -200 -155q-92 0 -137 39.5t-43 115.5h63zM349 -214q-132 0 -223.5 41.5t-113.5 131.5h85q40 -109 250 -109q83 0 141 15.5t89 46t45.5 62t22.5 76.5l12 65q-85 -129 -283 -129q-61 0 -116.5 13t-104.5 40.5
t-78 78t-29 117.5q0 121 90 202.5t259 81.5q108 0 189 -35t121 -100l31 116h62l-80 -451q-10 -57 -31.5 -100.5t-62.5 -82t-110.5 -59.5t-164.5 -21zM385 51q124 0 202 52t90 120l3 17q13 69 -27 119.5t-107 73t-148 22.5q-137 0 -205 -63.5t-68 -153.5q0 -52 23 -90
t62.5 -58.5t82.5 -29.5t92 -9z" />
    <glyph glyph-name="gcircumflex.ss01" horiz-adv-x="865" 
d="M700 580h-76l-112 116l-153 -116h-83l194 150h89zM349 -214q-132 0 -223.5 41.5t-113.5 131.5h85q40 -109 250 -109q83 0 141 15.5t89 46t45.5 62t22.5 76.5l12 65q-85 -129 -283 -129q-61 0 -116.5 13t-104.5 40.5t-78 78t-29 117.5q0 121 90 202.5t259 81.5
q108 0 189 -35t121 -100l31 116h62l-80 -451q-10 -57 -31.5 -100.5t-62.5 -82t-110.5 -59.5t-164.5 -21zM385 51q124 0 202 52t90 120l3 17q13 69 -27 119.5t-107 73t-148 22.5q-137 0 -205 -63.5t-68 -153.5q0 -52 23 -90t62.5 -58.5t82.5 -29.5t92 -9z" />
    <glyph glyph-name="g.sups.ss01" horiz-adv-x="673" 
d="M320 154q-226 0 -251 127h83q24 -79 168 -79q100 0 141 36t55 112l7 39q-25 -35 -77.5 -59.5t-125.5 -24.5q-59 0 -107.5 15t-84.5 56t-36 104q0 85 62.5 147t189.5 62q82 0 138 -28.5t78 -77.5l22 92h69l-58 -327q-17 -100 -79.5 -147t-193.5 -47zM345 354q85 0 140 40
t57 97v4q7 61 -42 102.5t-137 41.5q-97 0 -143 -45.5t-46 -108.5q0 -68 50 -99.5t121 -31.5z" />
    <glyph glyph-name="a.sups" horiz-adv-x="625" 
d="M277 296q-180 0 -180 110q0 114 218 120l212 7l2 8q9 51 -29 74.5t-115 23.5q-144 0 -162 -73h-86q32 123 248 123q118 0 177 -40.5t44 -128.5l-15 -84q-15 -84 -16 -126h-80q2 43 11 85q-65 -99 -229 -99zM303 344q91 0 147.5 35.5t66.5 89.5l5 25l-200 -7
q-141 -5 -141 -74t122 -69z" />
    <glyph glyph-name="b.sups" horiz-adv-x="682" 
d="M417 296q-162 0 -212 99l-22 -85h-71l93 529h80l-44 -250q30 43 85.5 71.5t128.5 28.5q40 0 77 -9t70.5 -28.5t53.5 -55t20 -83.5q0 -88 -64.5 -152.5t-194.5 -64.5zM395 351q100 0 149 46.5t49 111.5q0 46 -27.5 75.5t-62.5 40t-76 10.5q-78 0 -133 -35.5t-67 -87.5
l-4 -18q-15 -66 34 -104.5t138 -38.5z" />
    <glyph glyph-name="c.sups" horiz-adv-x="600" 
d="M340 296q-49 0 -91 9t-78.5 29t-57.5 56.5t-21 86.5q0 41 14.5 76.5t45 67t86 50t130.5 18.5q97 0 166 -33.5t85 -104.5l-86 -10q-24 92 -166 92q-103 0 -147.5 -45.5t-44.5 -106.5q0 -66 47 -97t123 -31q132 0 171 91l81 -11q-55 -137 -257 -137z" />
    <glyph glyph-name="d.sups" horiz-adv-x="682" 
d="M321 296q-58 0 -107 16t-85.5 58.5t-36.5 106.5q0 89 65.5 150.5t189.5 61.5q78 0 134 -27.5t80 -75.5l44 253h79l-93 -529h-78l16 88q-60 -102 -208 -102zM349 351q80 0 131.5 36.5t61.5 89.5l2 10q13 64 -40 106t-142 42q-92 0 -139 -45.5t-47 -108.5q0 -67 50.5 -98.5
t122.5 -31.5z" />
    <glyph glyph-name="e.sups" horiz-adv-x="597" 
d="M608 524q0 -25 -6 -46h-437q4 -128 184 -128q129 0 174 81l59 -26q-67 -109 -235 -109q-45 0 -85.5 8t-81 26.5t-65 56t-24.5 89.5q0 41 15 77t46 67.5t86 50t128 18.5q67 0 119.5 -16t87.5 -54t35 -95zM532 523v13q0 51 -48.5 78.5t-120.5 27.5q-87 0 -134.5 -32.5
t-59.5 -86.5h363z" />
    <glyph glyph-name="f.sups" horiz-adv-x="416" 
d="M478 675l-8 -54h-169l-55 -311h-79l55 311h-116l9 54h116l7 35q14 71 56 104t115 33q52 0 98 -17l-9 -55q-38 14 -83 14q-48 0 -70 -20t-30 -65l-5 -29h168z" />
    <glyph glyph-name="g.sups" horiz-adv-x="617" 
d="M638 734q17 0 37 -5l-9 -54q-18 5 -40 5q-50 0 -72 -28q42 -29 42 -79q0 -58 -56.5 -98t-181.5 -40q-86 0 -141 21q-45 -8 -45 -43q0 -36 66 -36l205 -1q75 0 113.5 -19t38.5 -70q0 -133 -299 -133q-120 0 -179 22t-59 72q0 62 89 78q-48 17 -48 62q0 62 94 80
q-49 29 -49 84q0 58 56.5 98t181.5 40q89 0 143 -22q28 66 113 66zM358 478q86 0 121.5 27t35.5 64q0 77 -133 77q-86 0 -121 -26.5t-35 -64.5q0 -77 132 -77zM435 314l-208 1q-26 0 -47 3q-55 -14 -55 -55q0 -38 46 -53t142 -15q208 0 208 74q0 26 -20.5 35.5t-65.5 9.5z
" />
    <glyph glyph-name="h.sups" horiz-adv-x="660" 
d="M112 310l93 529h80l-45 -260q61 111 208 111q81 0 137 -40.5t56 -136.5q0 -32 -7 -75l-23 -128h-79l23 129q6 36 6 62q0 70 -40.5 100t-102.5 30q-92 0 -140 -50t-62 -128l-24 -143h-80z" />
    <glyph glyph-name="i.sups" horiz-adv-x="254" 
d="M180 732l18 99h85l-17 -99h-86zM110 310l64 365h79l-64 -365h-79z" />
    <glyph glyph-name="j.sups" horiz-adv-x="286" 
d="M189 732l18 99h85l-17 -99h-86zM48 160q-41 0 -73 12l11 58q29 -9 52 -9q36 0 54.5 21t25.5 63l65 370h80l-68 -384q-11 -63 -45 -97t-102 -34z" />
    <glyph glyph-name="k.sups" horiz-adv-x="605" 
d="M644 675l-217 -136l165 -229h-88l-139 196l-155 -96l-18 -100h-80l93 529h80l-63 -356l313 192h109z" />
    <glyph glyph-name="l.sups" horiz-adv-x="282" 
d="M285 839l-93 -529h-80l93 529h80z" />
    <glyph glyph-name="m.sups" horiz-adv-x="950" 
d="M108 310l64 365h79l-17 -95q20 46 64.5 78t111.5 32q64 0 109.5 -30t53.5 -92q51 122 188 122q32 0 60 -7.5t54.5 -25t42 -51.5t15.5 -81q0 -24 -5 -64l-28 -151h-79l27 151q4 24 4 50q0 63 -34 90t-85 27q-133 0 -162 -168l-27 -150h-79l27 155q4 24 4 47q0 63 -34 89.5
t-85 26.5q-131 0 -163 -169l-27 -149h-79z" />
    <glyph glyph-name="n.sups" horiz-adv-x="656" 
d="M108 310l64 365h79l-19 -100q67 114 212 114q193 0 193 -179q0 -30 -8 -76l-23 -124h-78l22 123q7 41 7 65q0 73 -41.5 103t-104.5 30q-167 0 -200 -183l-24 -138h-79z" />
    <glyph glyph-name="o.sups" horiz-adv-x="635" 
d="M352 296q-50 0 -94 9t-82.5 29t-61 56.5t-22.5 86.5q0 90 69 151t208 61q50 0 94 -9t82.5 -29t61 -56.5t22.5 -86.5q0 -90 -69 -151t-208 -61zM355 350q95 0 143 46t48 109q0 66 -52 98t-128 32q-95 0 -143 -46t-48 -109q0 -66 52 -98t128 -32z" />
    <glyph glyph-name="p.sups" horiz-adv-x="678" 
d="M83 168l90 507h78l-16 -88q27 45 82.5 73.5t132.5 28.5q41 0 78 -9t70.5 -28.5t53.5 -55.5t20 -85q0 -40 -14.5 -77t-44 -68.5t-81.5 -50.5t-119 -19q-166 0 -211 98l-40 -226h-79zM391 351q99 0 148 46.5t49 111.5q0 35 -15.5 61t-40.5 39.5t-52.5 19.5t-57.5 6
q-77 0 -132.5 -36t-67.5 -89l-4 -19q-14 -63 34 -101.5t139 -38.5z" />
    <glyph glyph-name="q.sups" horiz-adv-x="677" 
d="M487 168l39 226q-58 -98 -204 -98q-43 0 -81.5 9.5t-73 29.5t-55 56.5t-20.5 85.5q0 89 65.5 150.5t188.5 61.5q80 0 136.5 -27.5t80.5 -75.5l23 89h69l-90 -507h-78zM349 351q81 0 132.5 37.5t61.5 91.5l2 10q12 62 -41.5 103.5t-140.5 41.5q-94 0 -140.5 -45
t-46.5 -109q0 -67 50.5 -98.5t122.5 -31.5z" />
    <glyph glyph-name="r.sups" horiz-adv-x="404" 
d="M221 548q51 136 183 136q31 0 62 -8l-12 -70q-33 10 -65 10q-69 0 -111 -38q-51 -45 -69 -143l-22 -125h-79l64 365h71z" />
    <glyph glyph-name="s.sups" horiz-adv-x="572" 
d="M333 296q-219 0 -253 111l52 31q39 -90 212 -90q145 0 145 66q0 42 -70 49l-159 14q-68 7 -99.5 30t-31.5 65q0 117 219 117q192 0 238 -97l-50 -33q-23 45 -71 62t-123 17q-77 0 -107.5 -15t-30.5 -44q0 -21 16 -32t58 -15l160 -16q67 -7 97 -30.5t30 -65.5
q0 -124 -232 -124z" />
    <glyph glyph-name="t.sups" horiz-adv-x="423" 
d="M79 623l9 52h115l16 93l81 28l-22 -121h176l-8 -52h-176l-26 -151q-11 -64 12.5 -87t74.5 -23q37 0 71 6l-10 -56q-46 -10 -90 -10q-77 0 -114.5 37t-20.5 133l26 151h-114z" />
    <glyph glyph-name="u.sups" horiz-adv-x="649" 
d="M288 296q-189 0 -189 149q0 28 14 105l22 125h79l-22 -123q-11 -73 -11 -86q0 -112 134 -112q177 0 208 183l24 138h80l-64 -365h-79l19 100q-61 -114 -215 -114z" />
    <glyph glyph-name="v.sups" horiz-adv-x="592" 
d="M262 310l-163 365h85l114 -263q12 -28 15 -40h2q23 32 29 40l208 263h91l-292 -365h-89z" />
    <glyph glyph-name="w.sups" horiz-adv-x="874" 
d="M216 310l-105 365h80l70 -262q7 -37 7 -42h1q9 19 25 41l177 263h82l81 -262q7 -25 9 -42h2q9 21 22 41l165 263h82l-233 -365h-85l-83 261q-8 21 -8 40h-3q-6 -16 -21 -40l-176 -261h-89z" />
    <glyph glyph-name="x.sups" horiz-adv-x="586" 
d="M45 310l237 187l-165 178h96l100 -107q22 -26 27 -35h2q17 19 38 34l137 108h99l-225 -177l172 -188h-96l-109 116q-19 19 -27 34h-1q-8 -9 -39 -34l-148 -116h-98z" />
    <glyph glyph-name="y.sups" horiz-adv-x="579" 
d="M119 159q-44 0 -81 13l10 61q26 -12 71 -12q75 0 133 70l12 16l-165 368h87l107 -253q10 -22 20 -56h2q15 28 36 54l191 255h88l-303 -397q-53 -69 -98 -94t-110 -25z" />
    <glyph glyph-name="z.sups" horiz-adv-x="565" 
d="M86 364l396 259h-338l9 52h442l-9 -52l-396 -261h361l-10 -52h-464z" />
    <glyph glyph-name="g_g.liga.ss01" horiz-adv-x="1730" 
d="M349 -214q-132 0 -223.5 41.5t-113.5 131.5h85q40 -109 250 -109q83 0 141 15.5t89 46t45.5 62t22.5 76.5l12 65q-85 -129 -283 -129q-61 0 -116.5 13t-104.5 40.5t-78 78t-29 117.5q0 121 90 202.5t259 81.5q108 0 189 -35t121 -100l31 116h62l-80 -451
q-10 -57 -31.5 -100.5t-62.5 -82t-110.5 -59.5t-164.5 -21zM1214 -214q-132 0 -223.5 41.5t-113.5 131.5h85q40 -109 250 -109q83 0 141 15.5t89 46t45.5 62t22.5 76.5l12 65q-85 -129 -283 -129q-61 0 -116.5 13t-104.5 40.5t-78 78t-29 117.5q0 121 90 202.5t259 81.5
q108 0 189 -35t121 -100l31 116h62l-80 -451q-10 -57 -31.5 -100.5t-62.5 -82t-110.5 -59.5t-164.5 -21zM385 51q124 0 202 52t90 120l3 17q13 69 -27 119.5t-107 73t-148 22.5q-137 0 -205 -63.5t-68 -153.5q0 -52 23 -90t62.5 -58.5t82.5 -29.5t92 -9zM1250 51
q124 0 202 52t90 120l3 17q13 69 -27 119.5t-107 73t-148 22.5q-137 0 -205 -63.5t-68 -153.5q0 -52 23 -90t62.5 -58.5t82.5 -29.5t92 -9z" />
    <glyph glyph-name="zero.case" horiz-adv-x="879" 
d="M438 -25q-55 0 -105.5 11t-97.5 36t-81.5 62.5t-55 94.5t-20.5 128q0 59 13.5 118t45 115.5t76.5 99t113.5 69t151.5 26.5q69 0 131 -18t114.5 -55.5t83.5 -104t31 -154.5q0 -59 -13.5 -117.5t-45 -115t-76.5 -99.5t-113.5 -69.5t-151.5 -26.5zM436 41q70 0 127 23.5
t92.5 60.5t59.5 86t34 96.5t10 95.5q0 75 -25.5 129.5t-68 83t-88.5 41.5t-97 13q-70 0 -126.5 -23.5t-92.5 -60.5t-60 -86t-34 -96.5t-10 -95.5q0 -75 25.5 -129.5t68 -83t88.5 -41.5t97 -13z" />
    <glyph glyph-name="one.case" horiz-adv-x="472" 
d="M211 0l102 576q-60 -80 -203 -80h-40l13 70h28q177 0 234 144h65l-124 -710h-75z" />
    <glyph glyph-name="two.case" horiz-adv-x="799" 
d="M-1 0l13 72q362 126 509 221q86 56 123 108t37 110q0 159 -237 159q-66 0 -114.5 -13.5t-76.5 -33.5t-45 -50t-22 -57t-6 -60q-2 -13 0 -24l-80 9q0 2 -0.5 11t-0.5 18q1 36 10.5 70t34.5 70.5t62.5 63t99 44t139.5 17.5q139 0 229 -53.5t90 -166.5q0 -47 -17 -89
t-49.5 -75.5t-64.5 -58t-75 -50.5q-162 -99 -381 -171h533l-12 -71h-699z" />
    <glyph glyph-name="three.case" horiz-adv-x="829" 
d="M410 -25q-73 0 -132.5 11.5t-111.5 36.5t-82.5 71.5t-34.5 111.5l79 10q6 -53 31.5 -89.5t67 -54t84.5 -24.5t99 -7q134 0 198 45t64 116q0 131 -212 131h-98l13 65h102q228 0 228 141q0 131 -243 131q-245 0 -279 -184l-71 15q20 108 105 171t245 63q65 0 119.5 -9.5
t102 -31t74 -60.5t26.5 -93q0 -79 -59.5 -124t-151.5 -52q81 -7 130 -46t49 -116q0 -42 -17 -79.5t-54 -72.5t-107 -55.5t-164 -20.5z" />
    <glyph glyph-name="four.case" horiz-adv-x="782" 
d="M759 189h-161l-34 -189h-74l34 189h-518l9 54l577 467h96l-80 -460h162zM590 557q16 84 20 99h-3q-18 -25 -76 -72l-325 -268q-42 -35 -88 -66h416z" />
    <glyph glyph-name="five.case" horiz-adv-x="798" 
d="M387 -25q-61 0 -113.5 10.5t-100.5 33.5t-81 65t-46 100l83 15q37 -158 266 -158q64 0 113 13t77.5 33t46.5 48.5t24.5 55t6.5 56.5q0 56 -22 94t-59 55t-70 23.5t-71 6.5q-104 0 -166 -32t-109 -107l-78 6l120 417h573l-12 -68h-514l-81 -273q38 59 111.5 90.5
t165.5 31.5q52 0 100 -11.5t93 -36.5t72 -73t27 -114q0 -57 -19.5 -105.5t-60.5 -89t-111.5 -63.5t-164.5 -23z" />
    <glyph glyph-name="six.case" horiz-adv-x="842" 
d="M466 481q45 0 87.5 -7t83.5 -24.5t71.5 -43.5t49 -67.5t18.5 -92.5q0 -116 -88.5 -193.5t-253.5 -77.5q-69 0 -128 15.5t-112.5 50.5t-84.5 102t-31 160q0 78 22.5 150.5t69 137.5t130.5 104.5t195 39.5q52 0 99.5 -9t95.5 -30.5t81 -64.5t42 -103l-80 -18
q-11 49 -37.5 82.5t-63 49.5t-69 22t-68.5 6q-73 0 -132 -21.5t-96 -55t-62.5 -79.5t-36.5 -91t-13 -93q38 69 119.5 110t191.5 41zM438 41q70 0 122.5 17t81 46.5t42 64t13.5 73.5q0 52 -22.5 88t-60 53t-73.5 24t-76 7q-112 0 -192.5 -45.5t-113.5 -125.5
q33 -202 279 -202z" />
    <glyph glyph-name="seven.case" horiz-adv-x="706" 
d="M178 0l3 17q33 188 148.5 341.5t325.5 283.5h-565l12 68h667l-11 -61q-203 -107 -329 -270t-154 -358l-3 -21h-94z" />
    <glyph glyph-name="eight.case" horiz-adv-x="835" 
d="M587 377q37 -8 65 -19.5t56 -31.5t43.5 -52.5t15.5 -75.5q0 -36 -11 -67t-37.5 -60.5t-67.5 -50t-105.5 -33t-147.5 -12.5q-72 0 -132 10t-111 31.5t-80 61.5t-29 95q0 162 236 197q-149 44 -149 162q0 29 8 55t31.5 54t60 48t99 33t143.5 13q57 0 107 -7t104 -25
t85.5 -56.5t31.5 -94.5q0 -144 -216 -175zM212 543q0 -100 169 -129l118 -21q127 23 176 59t49 90q0 135 -238 135q-274 0 -274 -134zM405 41q86 0 146 14t87.5 38t38.5 47t11 50q0 116 -186 144l-129 18q-131 -15 -188 -61.5t-57 -107.5q0 -41 24.5 -70.5t67 -44.5
t87.5 -21t98 -6z" />
    <glyph glyph-name="nine.case" horiz-adv-x="844" 
d="M446 735q51 0 96 -6.5t94.5 -27t85 -53t58.5 -89.5t23 -133q0 -61 -8 -116t-35 -119t-70.5 -109.5t-121.5 -76t-182 -30.5q-52 0 -98 8t-95.5 29t-83 65.5t-42.5 108.5l81 18q5 -49 30.5 -83.5t62.5 -50.5t70.5 -22.5t66.5 -6.5q84 0 147.5 23t101 58t61 85.5t31.5 98
t9 101.5q-92 -152 -324 -152q-55 0 -104.5 10.5t-95 34.5t-72.5 70t-27 110q0 50 18 93.5t56 81t106.5 59t160.5 21.5zM408 322q241 0 314 162q-35 186 -267 186q-79 0 -135 -16.5t-84 -45.5t-40 -60t-12 -67q0 -48 21 -81.5t56.5 -49t70.5 -22t76 -6.5z" />
    <glyph glyph-name="one.ss02.case" horiz-adv-x="692" 
d="M375 71h266l-12 -71h-621l12 71h281l89 508q-36 -40 -106 -67.5t-160 -27.5h-30l12 70h19q100 0 178 42.5t119 113.5h66z" />
    <glyph glyph-name="zero.tf.case" 
d="M400 -25q-52 0 -99.5 11t-91.5 36t-76.5 62.5t-52 94.5t-19.5 127q0 60 13 118.5t42.5 115t72 99.5t107.5 69.5t144 26.5q65 0 123.5 -18t108.5 -55.5t79 -103.5t29 -154q0 -59 -13 -117.5t-42.5 -115.5t-72.5 -100t-108 -69.5t-144 -26.5zM398 41q81 0 142.5 35t95 91
t49.5 116t16 121q0 60 -16 107.5t-41.5 76.5t-60.5 48t-69.5 26.5t-71.5 7.5q-81 0 -142.5 -35t-94.5 -91.5t-49 -116.5t-16 -121q0 -74 23.5 -128.5t63 -82.5t82 -41t89.5 -13z" />
    <glyph glyph-name="one.tf.case" 
d="M428 71h266l-12 -71h-621l12 71h280l89 506q-36 -41 -106 -69t-160 -28h-30l12 70h19q100 0 178 44t119 116h66z" />
    <glyph glyph-name="two.tf.case" 
d="M25 0l13 72q311 116 459 212q92 58 132 113t40 118q0 155 -215 155q-208 0 -241 -154q-4 -16 -6 -47l-80 13q0 20 6 46q9 41 28.5 75t55.5 65.5t96.5 49t140.5 17.5q131 0 215 -52.5t84 -164.5q0 -41 -14 -78.5t-33.5 -64.5t-52.5 -55.5t-57.5 -45.5t-62.5 -40
q-157 -99 -346 -163h515l-12 -71h-665z" />
    <glyph glyph-name="three.tf.case" 
d="M403 -25q-68 0 -124.5 11.5t-105 36.5t-76.5 71.5t-31 111.5l78 10q5 -53 28.5 -89.5t61.5 -54t78 -24.5t91 -7q119 0 176.5 45t57.5 116q0 131 -185 131h-98l13 65h103q200 0 200 141q0 131 -215 131q-224 0 -255 -184l-70 15q18 108 97 171t228 63q59 0 109 -9.5
t93 -31t67.5 -60.5t24.5 -93q0 -79 -51.5 -124t-132.5 -52q69 -7 110.5 -46t41.5 -116q0 -42 -15.5 -79.5t-50 -72.5t-98.5 -55.5t-150 -20.5z" />
    <glyph glyph-name="four.tf.case" 
d="M488 0l33 190h-492l8 45l556 475h93l-80 -462h158l-10 -58h-159l-33 -190h-74zM136 248h396l59 335q6 41 15 74h-3q-27 -31 -54 -55l-351 -306q-27 -24 -62 -48z" />
    <glyph glyph-name="five.tf.case" 
d="M381 -25q-122 0 -208.5 46t-108.5 147l83 15q34 -142 242 -142q74 0 126.5 19t78.5 51t36.5 65t10.5 71q0 179 -213 179q-90 0 -146.5 -31t-99.5 -100l-77 6l113 409h533l-12 -68h-474l-81 -273q35 60 101.5 91t152.5 31q39 0 76 -6.5t75.5 -23t67 -42t46.5 -68.5t18 -97
q0 -56 -19 -104t-57.5 -88.5t-106 -63.5t-157.5 -23z" />
    <glyph glyph-name="six.tf.case" 
d="M447 481q54 0 103 -12t92.5 -38t69.5 -73.5t26 -111.5q0 -115 -83.5 -193t-239.5 -78q-52 0 -97.5 9t-90.5 32t-77 59t-52 94.5t-20 133.5q0 78 21.5 150.5t66 137.5t124.5 104.5t185 39.5q38 0 74 -5t75 -19.5t69 -37t52.5 -60t29.5 -85.5l-81 -18q-33 160 -219 160
q-69 0 -124 -21t-90 -55t-59 -79.5t-34.5 -90.5t-12.5 -93q36 69 112 109.5t180 40.5zM419 41q126 0 183 58t57 143q0 52 -20.5 88t-54.5 53t-67.5 24t-70.5 7q-104 0 -179.5 -45.5t-107.5 -124.5q30 -203 260 -203z" />
    <glyph glyph-name="seven.tf.case" 
d="M232 0l3 17q34 189 145 342.5t316 282.5h-551l13 68h652l-10 -61q-198 -106 -320.5 -269t-150.5 -359l-3 -21h-94z" />
    <glyph glyph-name="eight.tf.case" 
d="M568 377q35 -8 61.5 -19.5t53.5 -31.5t41.5 -52.5t14.5 -75.5q0 -97 -83.5 -160t-273.5 -63q-70 0 -128 10t-107.5 31.5t-77.5 61.5t-28 96q0 74 55 126t176 70q-144 42 -144 162q0 29 8 55t30 54t57.5 48t95.5 33t139 13q55 0 103.5 -7t101 -25t83 -56.5t30.5 -94.5
q0 -144 -208 -175zM207 543q0 -100 157 -129l119 -21q121 23 167.5 59.5t46.5 89.5q0 135 -227 135q-263 0 -263 -134zM389 41q83 0 140 14t83.5 38t37 47t10.5 50q0 116 -175 144l-125 18q-126 -14 -182 -61t-56 -108q0 -41 23.5 -70.5t64.5 -44.5t84.5 -21t94.5 -6z" />
    <glyph glyph-name="nine.tf.case" 
d="M432 735q47 0 89.5 -6.5t89.5 -27t80 -53.5t55 -90t22 -133q0 -60 -7.5 -114.5t-33 -118.5t-66.5 -109.5t-114.5 -76.5t-171.5 -31q-278 0 -306 195l82 18q5 -39 22 -67t38.5 -43t53.5 -24t58.5 -11t61.5 -2q72 0 128 24t88.5 60.5t53.5 87t28.5 96.5t8.5 96
q-88 -150 -305 -150q-53 0 -100 11t-91 35t-70 70t-26 109q0 50 17 93.5t54 81t103.5 59t157.5 21.5zM391 322q227 0 296 161q-32 187 -250 187q-75 0 -128.5 -16.5t-80 -45.5t-38 -60t-11.5 -67q0 -39 13.5 -68.5t34.5 -46t50.5 -27t56.5 -14t57 -3.5z" />
    <glyph glyph-name="zero.zero.case" horiz-adv-x="880" 
d="M478 735q69 0 131 -18t114.5 -55.5t83.5 -104t31 -154.5q0 -59 -13.5 -117.5t-45 -115t-76.5 -99.5t-113.5 -69.5t-151.5 -26.5q-55 0 -105.5 11t-97.5 36t-81.5 62.5t-55 94.5t-20.5 128q0 59 13.5 118t45 115.5t76.5 99t113.5 69t151.5 26.5zM480 670
q-70 0 -126.5 -23.5t-92.5 -60.5t-60 -86t-34 -96.5t-10 -95.5q0 -84 34 -146l506 425q-75 83 -217 83zM436 41q70 0 127 23.5t92.5 60.5t59.5 86t34 96.5t10 95.5q0 78 -28 134l-503 -423q76 -73 208 -73z" />
    <glyph glyph-name="zero.tf.zero.case" 
d="M440 735q65 0 123.5 -18t108.5 -55.5t79 -103.5t29 -154q0 -59 -13 -117.5t-42.5 -115.5t-72.5 -100t-108 -69.5t-144 -26.5q-52 0 -99.5 11t-91.5 36t-76.5 62.5t-52 94.5t-19.5 127q0 60 13 118.5t42.5 115t72 99.5t107.5 69.5t144 26.5zM442 670q-81 0 -142.5 -35
t-94.5 -91.5t-49 -116.5t-16 -121q0 -71 22 -123l501 377q-35 58 -94.5 84t-126.5 26zM398 41q81 0 142.5 35t95 91t49.5 116t16 121q0 60 -15 105l-498 -375q69 -93 210 -93z" />
    <glyph glyph-name="zero.osf" horiz-adv-x="872" 
d="M419 -24q-58 0 -109.5 8.5t-100 28.5t-83 50t-55.5 77t-21 107q0 61 24 115.5t72 99.5t129 71t185 26q73 0 135.5 -14t116.5 -44t85 -84.5t31 -128.5q0 -61 -24 -115.5t-72 -99.5t-128.5 -71t-184.5 -26zM422 41q86 0 151.5 21.5t102.5 58t55 78t18 86.5q0 47 -17 83.5
t-45 59.5t-66.5 38.5t-78.5 21.5t-85 6q-86 0 -152 -21.5t-102.5 -58t-54.5 -78t-18 -86.5q0 -58 25 -100t68.5 -65t92.5 -33.5t106 -10.5z" />
    <glyph glyph-name="one.osf" horiz-adv-x="772" 
d="M421 67h280l-12 -67h-644l13 67h289l62 350q-31 -40 -104.5 -67t-147.5 -27h-41l13 70h31q94 0 170 38.5t112 103.5h61z" />
    <glyph glyph-name="two.osf" horiz-adv-x="821" 
d="M33 70q307 78 444 131q89 33 130.5 71t41.5 93q0 129 -214 129q-127 0 -188 -44t-61 -115q0 -12 2 -24l-75 11q-2 12 -2 25q0 85 80.5 148.5t241.5 63.5q131 0 213 -46.5t82 -138.5q0 -128 -171 -201q-119 -53 -354 -106h517l-12 -67h-687z" />
    <glyph glyph-name="three.osf" horiz-adv-x="830" 
d="M380 -174q-72 0 -132 11t-111.5 35t-82.5 68t-34 105l79 10q6 -50 31.5 -83.5t67 -50.5t84.5 -23.5t98 -6.5q136 0 200 41.5t64 107.5q0 70 -57 97.5t-156 27.5h-98l12 65h102q229 0 229 137q0 127 -246 127q-245 0 -277 -178l-70 15q19 105 103.5 166.5t243.5 61.5
q65 0 120.5 -9.5t103 -30.5t74.5 -59t27 -91q0 -77 -59.5 -121t-151.5 -50q81 -7 130 -45t49 -112q0 -40 -16.5 -75.5t-53.5 -68t-107 -52t-166 -19.5z" />
    <glyph glyph-name="four.osf" horiz-adv-x="782" 
d="M464 -150l31 178h-518l10 54l575 454h96l-78 -447h162l-11 -61h-162l-31 -178h-74zM88 89h419l54 311q14 70 16 78h-3q-27 -32 -74 -68l-328 -260q-41 -31 -84 -61z" />
    <glyph glyph-name="five.osf" horiz-adv-x="797" 
d="M360 -174q-61 0 -113.5 10t-100.5 32.5t-81.5 63.5t-46.5 98l83 15q38 -154 267 -154q79 0 134.5 18t83 49.5t38.5 63t11 68.5q0 175 -223 175q-103 0 -165 -33.5t-109 -110.5l-78 6l119 408h573l-12 -68h-514l-80 -265q37 62 111 95t165 33q41 0 80 -6.5t78.5 -23
t68.5 -41.5t47.5 -66.5t18.5 -93.5q0 -117 -86.5 -195t-268.5 -78z" />
    <glyph glyph-name="six.osf" horiz-adv-x="841" 
d="M464 470q57 0 109.5 -12t99 -37t74.5 -71.5t28 -108.5q0 -113 -88 -189t-253 -76q-54 0 -102.5 8.5t-96.5 31t-82 57.5t-55 92.5t-21 130.5q0 60 13 117.5t44 114t77.5 98t118.5 67.5t162 26q52 0 99.5 -9t95.5 -30t81.5 -63t42.5 -101l-80 -18q-36 156 -239 156
q-73 0 -131.5 -20.5t-95 -53t-62 -77t-36.5 -88t-13 -90.5q38 66 119 105.5t191 39.5zM438 41q135 0 196.5 56.5t61.5 138.5q0 41 -15.5 72t-39 49t-56.5 29t-62 14.5t-60 3.5q-112 0 -192 -44.5t-113 -121.5q33 -197 280 -197z" />
    <glyph glyph-name="seven.osf" horiz-adv-x="705" 
d="M152 -150l3 16q66 362 458 601h-554l12 68h667l-10 -61q-197 -109 -321.5 -257.5t-159.5 -352.5l-2 -14h-93z" />
    <glyph glyph-name="eight.osf" horiz-adv-x="835" 
d="M587 369q29 -6 52 -14t47.5 -22t41 -32t27.5 -45.5t11 -61.5q0 -45 -18 -82t-58.5 -68.5t-115 -49.5t-176.5 -18q-72 0 -132 9.5t-111.5 30.5t-80.5 60t-29 93q0 158 235 193q-149 42 -149 158q0 36 14.5 68t49.5 63t106 49.5t171 18.5q57 0 107.5 -7t104 -24.5
t85.5 -55.5t32 -92q0 -141 -214 -171zM210 531q0 -97 169 -126l118 -20q127 22 176 57t49 87q0 132 -239 132q-273 0 -273 -130zM405 41q86 0 145.5 13.5t87.5 37.5t38.5 46t10.5 48q0 112 -187 140l-129 18q-131 -15 -187.5 -60.5t-56.5 -104.5q0 -40 24.5 -68.5t67.5 -43
t88 -20.5t98 -6z" />
    <glyph glyph-name="nine.osf" horiz-adv-x="843" 
d="M414 558q51 0 96 -6.5t95 -26.5t85 -52.5t58.5 -88.5t23.5 -130q0 -428 -412 -428q-38 0 -73 3.5t-76.5 14.5t-73.5 29.5t-57.5 51t-35.5 75.5l80 19q30 -128 228 -128q341 0 345 345q-92 -147 -322 -147q-56 0 -105 10.5t-95 33.5t-73 68t-27 107q0 49 17.5 91.5t55 79
t106 58t160.5 21.5zM378 156q241 0 313 156q-35 180 -268 180q-79 0 -134.5 -16t-83.5 -44t-39.5 -58t-11.5 -65q0 -46 21 -78t56.5 -47.5t70.5 -21.5t76 -6z" />
    <glyph glyph-name="one.ss02" horiz-adv-x="692" 
d="M375 71h266l-12 -71h-621l12 71h280l87 493q-36 -40 -106 -67.5t-160 -27.5h-30l12 70h19q100 0 178 42.5t119 113.5h66z" />
    <glyph glyph-name="zero.tosf" 
d="M384 -24q-53 0 -99.5 8.5t-90.5 28.5t-75.5 50t-50.5 77t-19 107q0 61 22 115.5t66 99.5t118 71t169 26q53 0 99.5 -8.5t90.5 -28.5t75.5 -50t50.5 -77t19 -107q0 -61 -22 -115.5t-66 -99.5t-118 -71t-169 -26zM387 41q77 0 136 21.5t92 58t49 78t16 86.5q0 58 -22 100
t-60 65t-81.5 33.5t-94.5 10.5q-77 0 -136 -21.5t-92 -58t-49 -78t-16 -86.5q0 -58 22 -100t60 -65t81.5 -33.5t94.5 -10.5z" />
    <glyph glyph-name="one.tosf" 
d="M441 60h224l-12 -60h-590l12 60h292l62 356q-31 -38 -104 -65.5t-147 -27.5h-42l13 70h32q93 0 169.5 38.5t111.5 103.5h62z" />
    <glyph glyph-name="two.tosf" 
d="M29 70q309 79 439 131q89 34 129.5 71.5t40.5 92.5q0 129 -210 129q-126 0 -185.5 -43t-59.5 -113q0 -13 2 -25l-76 12q-2 12 -2 25q0 84 80 146.5t239 62.5q129 0 210 -46.5t81 -138.5q0 -128 -168 -201q-116 -53 -350 -106h510l-11 -67h-681z" />
    <glyph glyph-name="three.tosf" 
d="M377 -174q-68 0 -125 11t-106 35t-78 68.5t-32 105.5l78 10q6 -50 30.5 -84t63 -51t78.5 -23.5t91 -6.5q126 0 185 41t59 107q0 127 -195 127h-115l13 64h118q211 0 211 136q0 128 -226 128t-257 -178l-70 15q18 105 97.5 166.5t229.5 61.5q61 0 113 -9.5t96.5 -30.5
t70 -59.5t25.5 -91.5q0 -76 -54.5 -120t-139.5 -50q74 -7 118.5 -45t44.5 -113q0 -39 -16 -74.5t-51 -68t-101 -52t-156 -19.5z" />
    <glyph glyph-name="four.tosf" 
d="M462 -153l31 177h-493l8 46l555 465h93l-79 -452h159l-11 -59h-158l-31 -177h-74zM107 83h396l57 324q11 55 16 76h-3q-12 -17 -56 -57l-345 -293q-30 -28 -65 -50z" />
    <glyph glyph-name="five.tosf" 
d="M365 -174q-80 0 -144.5 16.5t-116 60t-67.5 111.5l83 15q36 -138 253 -138q75 0 127.5 18t78 48.5t36 62.5t10.5 70q0 175 -210 175q-89 0 -148 -28t-102 -92l-78 6l111 384h528l-12 -66h-469l-76 -253q37 56 106.5 85t153.5 29q40 0 76.5 -6t73.5 -22.5t64.5 -42
t44.5 -67t17 -94.5q0 -117 -82.5 -194.5t-257.5 -77.5z" />
    <glyph glyph-name="six.tosf" 
d="M445 470q54 0 103 -12t93 -37t70 -71.5t26 -108.5q0 -113 -83 -189t-239 -76q-66 0 -122 15t-106.5 49t-80 99.5t-29.5 156.5q0 60 12.5 118t42 114t74 97.5t113 67.5t153.5 26q49 0 94 -9t90.5 -30t76.5 -63t40 -101l-81 -18q-33 156 -220 156q-68 0 -123 -20.5
t-89.5 -53t-58.5 -77t-34.5 -88t-12.5 -89.5q36 66 112 105t179 39zM419 41q65 0 113.5 16.5t75 45.5t38.5 62t12 71q0 41 -14.5 72t-36 49t-51.5 29t-56.5 14.5t-55.5 3.5q-105 0 -180 -44.5t-107 -122.5q9 -58 35.5 -98.5t65 -60.5t77.5 -28.5t84 -8.5z" />
    <glyph glyph-name="seven.tosf" 
d="M209 -150l3 16q35 192 146 338t294 263h-538l13 68h650l-11 -61q-397 -232 -460 -602l-4 -22h-93z" />
    <glyph glyph-name="eight.tosf" 
d="M568 369q76 -18 123 -56.5t47 -118.5q0 -45 -18 -82t-57 -68.5t-110.5 -49.5t-170.5 -18q-70 0 -128 9.5t-108 30.5t-78 60t-28 93q0 158 228 193q-142 42 -142 158q0 28 7.5 54t30 53t57.5 47t95 32.5t139 12.5q55 0 104 -7t101 -24.5t83 -55.5t31 -92q0 -141 -206 -171
zM205 531q0 -98 158 -126l118 -20q121 22 167.5 57t46.5 87q0 132 -228 132q-262 0 -262 -130zM389 41q83 0 140 13.5t83.5 37.5t36.5 46t10 48q0 112 -176 140l-127 18q-125 -15 -180 -60.5t-55 -104.5q0 -40 23.5 -68.5t65 -43t85 -20.5t94.5 -6z" />
    <glyph glyph-name="nine.tosf" 
d="M382 558q48 0 91 -6.5t90 -26.5t81 -52.5t56 -88.5t22 -130q0 -428 -386 -428q-47 0 -89.5 7.5t-90 26t-81 58.5t-45.5 98l81 20q29 -145 217 -145q314 0 318 343q-88 -145 -303 -145q-40 0 -76.5 6t-73.5 21.5t-63.5 39.5t-43.5 63t-17 89q0 105 75 177.5t238 72.5z
M346 156q224 0 295 155q-31 181 -250 181q-71 0 -121.5 -16t-75.5 -44t-35.5 -58t-10.5 -65q0 -46 18.5 -78t50 -47.5t62.5 -21.5t67 -6z" />
    <glyph glyph-name="zero.osf.zero" horiz-adv-x="872" 
d="M460 559q73 0 135.5 -14t116.5 -44t85 -84.5t31 -128.5q0 -61 -24 -115.5t-72 -99.5t-128.5 -71t-184.5 -26q-58 0 -109.5 8.5t-100 28.5t-83 50t-55.5 77t-21 107q0 61 24 115.5t72 99.5t129 71t185 26zM457 494q-86 0 -152 -21.5t-102.5 -58t-54.5 -78t-18 -86.5
q0 -73 41 -122l500 312q-77 54 -214 54zM422 41q86 0 151.5 21.5t102.5 58t55 78t18 86.5q0 73 -41 122l-501 -312q77 -54 215 -54z" />
    <glyph glyph-name="zero.tf.zero" 
d="M437 719q65 0 123.5 -18t108.5 -54.5t79.5 -101t29.5 -150.5q0 -58 -12.5 -115t-42 -112.5t-72 -97.5t-107.5 -68t-144 -26q-65 0 -123.5 18t-108 54.5t-79 101t-29.5 150.5q0 58 12.5 115t42 112.5t71.5 97.5t107 68t144 26zM439 654q-66 0 -118.5 -23t-85.5 -59.5
t-55.5 -84t-31.5 -94t-9 -93.5q0 -66 20 -115l494 373q-69 96 -214 96zM398 41q66 0 119 23t86 59.5t55.5 84t31.5 94.5t9 93q0 66 -20 115l-495 -373q69 -96 214 -96z" />
    <glyph glyph-name="zero.tosf.zero" 
d="M424 559q53 0 99.5 -8.5t90.5 -28.5t75.5 -50t50.5 -77t19 -107q0 -61 -22 -115.5t-66 -99.5t-118 -71t-169 -26q-53 0 -99.5 8.5t-90.5 28.5t-75.5 50t-50.5 77t-19 107q0 61 22 115.5t66 99.5t118 71t169 26zM422 494q-77 0 -136 -21.5t-92 -58t-49 -78t-16 -86.5
q0 -69 32 -117l454 304q-68 57 -193 57zM387 41q77 0 136 21.5t92 58t49 78t16 86.5q0 68 -32 116l-454 -304q70 -56 193 -56z" />
    <glyph glyph-name="zero.subs" horiz-adv-x="668" 
d="M292 -157q-51 0 -96.5 12t-84.5 38t-62 73t-23 110q0 54 17 106.5t51 99t95 75t140 28.5q51 0 96.5 -12t84.5 -38t62 -73t23 -111q0 -54 -17 -106t-51 -98.5t-95 -75t-140 -28.5zM291 -98q57 0 101.5 23.5t69.5 61.5t37 80t12 85q0 48 -16.5 83.5t-44 54t-57.5 27
t-63 8.5q-57 0 -101.5 -23.5t-69.5 -61.5t-37 -80t-12 -84q0 -64 29.5 -105t68 -55t83.5 -14z" />
    <glyph glyph-name="one.subs" horiz-adv-x="382" 
d="M125 -140l70 393q-16 -24 -54 -39.5t-87 -15.5h-33l12 69h23q127 0 170 100h69l-90 -507h-80z" />
    <glyph glyph-name="two.subs" horiz-adv-x="612" 
d="M-25 -140l11 59q234 91 318 138q149 83 149 164q0 104 -153 104q-85 0 -130 -38.5t-43 -109.5l-81 7q-4 100 66 150.5t193 50.5q45 0 84 -7t75 -23t56.5 -47t20.5 -74q0 -165 -413 -310h374l-11 -64h-516z" />
    <glyph glyph-name="three.subs" horiz-adv-x="631" 
d="M280 -157q-267 0 -273 170l84 7q4 -38 21.5 -63t46.5 -36.5t56.5 -15.5t64.5 -4q82 0 124.5 28t42.5 77q0 89 -144 89h-63l9 50h67q156 0 156 95q0 47 -47 67t-111 20q-164 0 -187 -123l-79 8q14 79 79.5 126t186.5 47q65 0 116 -11t89 -43.5t38 -83.5q0 -59 -44.5 -91
t-113.5 -37q133 -12 133 -113q0 -70 -64 -116.5t-188 -46.5z" />
    <glyph glyph-name="four.subs" horiz-adv-x="623" 
d="M558 -13h-126l-23 -127h-79l23 127h-376l9 53l422 327h90l-56 -323h126zM412 312l-337 -268h288z" />
    <glyph glyph-name="five.subs" horiz-adv-x="605" 
d="M256 -157q-44 0 -83 7t-76.5 22.5t-62 46t-30.5 73.5l82 10q21 -101 170 -101q95 0 137.5 40t42.5 96q0 44 -26 71t-57 34.5t-70 7.5q-66 0 -107.5 -21t-68.5 -66l-74 6l84 298h428l-11 -60h-366l-54 -181q55 79 192 79q39 0 73.5 -7.5t68 -24.5t53.5 -50.5t20 -79.5
q0 -83 -63.5 -141.5t-201.5 -58.5z" />
    <glyph glyph-name="six.subs" horiz-adv-x="639" 
d="M323 202q99 0 163 -41.5t64 -123.5q0 -83 -66.5 -138.5t-191.5 -55.5q-40 0 -76 6t-71.5 22.5t-61 41.5t-41.5 66.5t-16 94.5t15 103.5t48 99t97.5 78.5t151.5 30q38 0 74 -6.5t72 -21.5t61 -45t31 -71l-84 -11q-11 53 -55 75t-100 22q-60 0 -105 -19.5t-70.5 -53.5
t-38 -70.5t-15.5 -78.5q58 97 215 97zM293 -99q88 0 130.5 38t42.5 96q0 60 -44.5 85.5t-112.5 25.5q-147 0 -200 -103q20 -142 184 -142z" />
    <glyph glyph-name="seven.subs" horiz-adv-x="542" 
d="M108 -140l3 16q44 261 329 428h-408l12 63h495l-11 -60q-138 -75 -223 -183.5t-104 -243.5l-3 -20h-90z" />
    <glyph glyph-name="eight.subs" horiz-adv-x="636" 
d="M411 133q59 -13 94.5 -42t35.5 -87q0 -31 -12 -57.5t-40.5 -51t-84.5 -38.5t-136 -14q-49 0 -91.5 6t-83.5 20.5t-65 43.5t-24 69q0 53 41.5 89.5t130.5 48.5q-111 31 -111 116q0 62 57.5 105.5t194.5 43.5q43 0 82.5 -5.5t80 -19t65 -41t24.5 -66.5q0 -101 -158 -120z
M149 240q0 -65 112 -82l84 -13q139 21 139 97q0 90 -162 90q-173 0 -173 -92zM272 -102q101 0 143.5 29t42.5 72q0 75 -128 94l-87 13q-153 -23 -153 -109q0 -53 51 -76t131 -23z" />
    <glyph glyph-name="nine.subs" horiz-adv-x="639" 
d="M303 385q37 0 70 -4.5t70 -19t63 -37t43.5 -63t17.5 -93.5q0 -39 -4.5 -75t-23.5 -84.5t-50.5 -82.5t-92 -58.5t-141.5 -24.5q-40 0 -75.5 6t-72.5 21t-61 46.5t-29 75.5l85 12q3 -30 19.5 -51.5t41.5 -31.5t48.5 -14.5t47.5 -4.5q206 0 227 226q-73 -86 -221 -86
q-55 0 -102.5 14t-83.5 51.5t-36 94.5q0 34 12.5 64t40 58t80.5 44.5t127 16.5zM281 98q151 0 206 95q-3 41 -21.5 70t-47.5 42.5t-55.5 18.5t-56.5 5q-100 0 -139.5 -36.5t-39.5 -87.5q0 -31 15 -53t39.5 -33t49 -16t50.5 -5z" />
    <glyph glyph-name="zero.dnom" horiz-adv-x="547" 
d="M245 -14q-41 0 -76 8.5t-67.5 27.5t-51.5 56.5t-19 89.5q0 41 13 80t41 74t78.5 56.5t117.5 21.5q41 0 76.5 -8.5t68 -27.5t51.5 -55.5t19 -88.5q0 -42 -13.5 -81t-41 -74.5t-78.5 -57t-118 -21.5zM245 35q44 0 79.5 17t55.5 45t30.5 59.5t10.5 63.5q0 71 -42 101.5
t-98 30.5q-85 0 -130 -57t-45 -128t41.5 -101.5t97.5 -30.5z" />
    <glyph glyph-name="one.dnom" horiz-adv-x="323" 
d="M115 0l54 295q-11 -19 -44.5 -31.5t-67.5 -12.5h-29l9 59h19q104 0 139 77h61l-68 -387h-73z" />
    <glyph glyph-name="two.dnom" horiz-adv-x="506" 
d="M0 0l6 42q200 86 244 109q122 67 125 124q0 76 -118 76q-67 0 -103 -23t-33 -72l-69 6q0 138 211 138q33 0 61.5 -4.5t58.5 -16t48 -36t18 -60.5q0 -35 -24.5 -67t-81 -63.5t-94 -48.5t-117.5 -49q-8 -3 -12 -5h300l-7 -50h-413z" />
    <glyph glyph-name="three.dnom" horiz-adv-x="519" 
d="M248 -14q-35 0 -61.5 2t-59 10t-54 22t-37 39.5t-16.5 61.5l74 3q3 -31 17.5 -50.5t40 -27.5t45.5 -10.5t50 -2.5q126 0 126 78q0 28 -24.5 49t-88.5 21h-46l5 35h46q129 0 129 72q0 32 -37 49t-85 17q-132 0 -150 -91l-73 2q9 61 64.5 98t157.5 37q37 0 69 -4.5
t62.5 -15t48.5 -31.5t18 -51q0 -93 -135 -101q54 -4 83.5 -26.5t29.5 -60.5q0 -60 -52.5 -92t-146.5 -32z" />
    <glyph glyph-name="four.dnom" horiz-adv-x="539" 
d="M491 92h-115l-18 -92h-71l17 92h-308l7 46l350 249h74l-44 -248h115zM352 341l-283 -202h243z" />
    <glyph glyph-name="five.dnom" horiz-adv-x="494" 
d="M218 -14q-34 0 -64 4.5t-62 15.5t-52 34.5t-23 57.5l69 4q13 -69 127 -69q72 0 108.5 29t36.5 73q0 40 -38 58.5t-92 18.5q-94 0 -130 -56l-61 5l63 226h350l-8 -47h-296l-41 -141q42 56 151 56q44 0 80.5 -8.5t66.5 -36.5t30 -72q0 -60 -51.5 -106t-163.5 -46z" />
    <glyph glyph-name="six.dnom" horiz-adv-x="523" 
d="M277 258q87 0 135.5 -32t48.5 -90q0 -65 -54 -107.5t-158 -42.5q-41 0 -77 8t-69.5 26t-53 53.5t-19.5 84.5q0 29 5.5 58t22.5 63.5t44 60t74.5 43t109.5 17.5q44 0 83 -8.5t72 -33t38 -61.5l-73 -4q-5 28 -40 45t-82 17q-50 0 -86.5 -15.5t-55.5 -42.5t-28 -54.5
t-11 -59.5q44 75 174 75zM249 33q68 0 102.5 28t34.5 74q0 81 -129 81q-110 0 -153 -72q13 -111 145 -111z" />
    <glyph glyph-name="seven.dnom" horiz-adv-x="452" 
d="M116 0l2 15q13 96 80.5 179.5t176.5 140.5h-340l7 52h407l-8 -52q-221 -127 -248 -317l-3 -18h-74z" />
    <glyph glyph-name="eight.dnom" horiz-adv-x="524" 
d="M477 300q0 -78 -144 -89q57 -10 89 -33t32 -68q0 -124 -218 -124q-38 0 -72 4.5t-69.5 15t-56.5 32.5t-21 54q0 90 153 102q-107 20 -107 92q0 49 47 81.5t157 32.5q34 0 67.5 -4.5t67 -15t54.5 -31t21 -49.5zM296 216q106 13 106 74q0 27 -25.5 43.5t-52 20.5t-56.5 4
q-130 0 -130 -74q0 -28 23.5 -40t63.5 -18zM380 109q0 30 -25.5 44.5t-75.5 23.5l-63 10q-68 -11 -95.5 -28.5t-27.5 -49.5q0 -41 38.5 -61t104.5 -20q144 0 144 81z" />
    <glyph glyph-name="nine.dnom" horiz-adv-x="525" 
d="M261 400q37 0 69.5 -6t67.5 -21t56 -48.5t21 -81.5q0 -18 -1 -33.5t-6 -43.5t-14.5 -50t-28.5 -47.5t-45 -42.5t-67.5 -28.5t-92.5 -11.5q-33 0 -63.5 5.5t-60 17.5t-48.5 35.5t-20 56.5l74 3q2 -38 40 -53.5t87 -15.5q81 0 125 43t54 118q-56 -56 -180 -56
q-68 0 -126 31t-58 90q0 23 8.5 44.5t30 44t67.5 36.5t111 14zM249 181q112 0 162 60v4q0 61 -39 87t-112 26q-79 0 -110 -28t-31 -65q0 -42 42.5 -63t87.5 -21z" />
    <glyph glyph-name="zero.numr" horiz-adv-x="547" 
d="M302 309q-41 0 -76 8.5t-67.5 27.5t-51.5 56.5t-19 89.5q0 41 13 80t41 74t78.5 56.5t117.5 21.5q41 0 76.5 -8.5t68 -27.5t51.5 -55.5t19 -88.5q0 -42 -13.5 -81t-41 -74.5t-78.5 -57t-118 -21.5zM302 358q44 0 79.5 17t55.5 45t30.5 59.5t10.5 63.5q0 71 -42 101.5
t-98 30.5q-85 0 -130 -57t-45 -128t41.5 -101.5t97.5 -30.5z" />
    <glyph glyph-name="one.numr" horiz-adv-x="323" 
d="M172 323l54 295q-11 -19 -44.5 -31.5t-67.5 -12.5h-29l9 59h19q104 0 139 77h61l-68 -387h-73z" />
    <glyph glyph-name="two.numr" horiz-adv-x="506" 
d="M57 323l6 42q200 86 244 109q122 67 125 124q0 76 -118 76q-67 0 -103 -23t-33 -72l-69 6q0 138 211 138q33 0 61.5 -4.5t58.5 -16t48 -36t18 -60.5q0 -35 -24.5 -67t-81 -63.5t-94 -48.5t-117.5 -49q-8 -3 -12 -5h300l-7 -50h-413z" />
    <glyph glyph-name="three.numr" horiz-adv-x="519" 
d="M305 309q-35 0 -61.5 2t-59 10t-54 22t-37 39.5t-16.5 61.5l74 3q3 -31 17.5 -50.5t40 -27.5t45.5 -10.5t50 -2.5q126 0 126 78q0 28 -24.5 49t-88.5 21h-46l5 35h46q129 0 129 72q0 32 -37 49t-85 17q-132 0 -150 -91l-73 2q9 61 64.5 98t157.5 37q37 0 69 -4.5
t62.5 -15t48.5 -31.5t18 -51q0 -93 -135 -101q54 -4 83.5 -26.5t29.5 -60.5q0 -60 -52.5 -92t-146.5 -32z" />
    <glyph glyph-name="four.numr" horiz-adv-x="539" 
d="M548 415h-115l-18 -92h-71l17 92h-308l7 46l350 249h74l-44 -248h115zM409 664l-283 -202h243z" />
    <glyph glyph-name="five.numr" horiz-adv-x="494" 
d="M275 309q-34 0 -64 4.5t-62 15.5t-52 34.5t-23 57.5l69 4q13 -69 127 -69q72 0 108.5 29t36.5 73q0 40 -38 58.5t-92 18.5q-94 0 -130 -56l-61 5l63 226h350l-8 -47h-296l-41 -141q42 56 151 56q44 0 80.5 -8.5t66.5 -36.5t30 -72q0 -60 -51.5 -106t-163.5 -46z" />
    <glyph glyph-name="six.numr" horiz-adv-x="523" 
d="M334 581q87 0 135.5 -32t48.5 -90q0 -65 -54 -107.5t-158 -42.5q-41 0 -77 8t-69.5 26t-53 53.5t-19.5 84.5q0 29 5.5 58t22.5 63.5t44 60t74.5 43t109.5 17.5q44 0 83 -8.5t72 -33t38 -61.5l-73 -4q-5 28 -40 45t-82 17q-50 0 -86.5 -15.5t-55.5 -42.5t-28 -54.5
t-11 -59.5q44 75 174 75zM306 356q68 0 102.5 28t34.5 74q0 81 -129 81q-110 0 -153 -72q13 -111 145 -111z" />
    <glyph glyph-name="seven.numr" horiz-adv-x="452" 
d="M173 323l2 15q13 96 80.5 179.5t176.5 140.5h-340l7 52h407l-8 -52q-221 -127 -248 -317l-3 -18h-74z" />
    <glyph glyph-name="eight.numr" horiz-adv-x="524" 
d="M534 623q0 -78 -144 -89q57 -10 89 -33t32 -68q0 -124 -218 -124q-38 0 -72 4.5t-69.5 15t-56.5 32.5t-21 54q0 90 153 102q-107 20 -107 92q0 49 47 81.5t157 32.5q34 0 67.5 -4.5t67 -15t54.5 -31t21 -49.5zM353 539q106 13 106 74q0 27 -25.5 43.5t-52 20.5t-56.5 4
q-130 0 -130 -74q0 -28 23.5 -40t63.5 -18zM437 432q0 30 -25.5 44.5t-75.5 23.5l-63 10q-68 -11 -95.5 -28.5t-27.5 -49.5q0 -41 38.5 -61t104.5 -20q144 0 144 81z" />
    <glyph glyph-name="nine.numr" horiz-adv-x="525" 
d="M318 723q37 0 69.5 -6t67.5 -21t56 -48.5t21 -81.5q0 -18 -1 -33.5t-6 -43.5t-14.5 -50t-28.5 -47.5t-45 -42.5t-67.5 -28.5t-92.5 -11.5q-33 0 -63.5 5.5t-60 17.5t-48.5 35.5t-20 56.5l74 3q2 -38 40 -53.5t87 -15.5q81 0 125 43t54 118q-56 -56 -180 -56
q-68 0 -126 31t-58 90q0 23 8.5 44.5t30 44t67.5 36.5t111 14zM306 504q112 0 162 60v4q0 61 -39 87t-112 26q-79 0 -110 -28t-31 -65q0 -29 23.5 -49t51.5 -27.5t55 -7.5z" />
    <glyph glyph-name="zero.sups" horiz-adv-x="668" 
d="M371 293q-51 0 -96.5 12t-84.5 38t-62 73t-23 110q0 54 17 106.5t51 99t95 75t140 28.5q51 0 96.5 -12t84.5 -38t62 -73t23 -111q0 -54 -17 -106t-51 -98.5t-95 -75t-140 -28.5zM370 352q57 0 101.5 23.5t69.5 61.5t37 80t12 85q0 48 -16.5 83.5t-44 54t-57.5 27t-63 8.5
q-57 0 -101.5 -23.5t-69.5 -61.5t-37 -80t-12 -84q0 -64 29.5 -105t68 -55t83.5 -14z" />
    <glyph glyph-name="one.sups" horiz-adv-x="382" 
d="M204 310l70 393q-16 -24 -54 -39.5t-87 -15.5h-33l12 69h23q127 0 170 100h69l-90 -507h-80z" />
    <glyph glyph-name="two.sups" horiz-adv-x="612" 
d="M54 310l11 59q234 91 318 138q149 83 149 164q0 104 -153 104q-85 0 -130 -38.5t-43 -109.5l-81 7q-4 100 66 150.5t193 50.5q45 0 84 -7t75 -23t56.5 -47t20.5 -74q0 -165 -413 -310h374l-11 -64h-516z" />
    <glyph glyph-name="three.sups" horiz-adv-x="631" 
d="M359 293q-267 0 -273 170l84 7q4 -38 21.5 -63t46.5 -36.5t56.5 -15.5t64.5 -4q82 0 124.5 28t42.5 77q0 89 -144 89h-63l9 50h67q156 0 156 95q0 25 -14.5 42.5t-38.5 27t-50 13.5t-55 4q-164 0 -187 -123l-79 8q14 79 79.5 126t186.5 47q65 0 116 -11t89 -43.5
t38 -83.5q0 -59 -44.5 -91t-113.5 -37q133 -12 133 -113q0 -70 -64 -116.5t-188 -46.5z" />
    <glyph glyph-name="four.sups" horiz-adv-x="623" 
d="M637 437h-126l-23 -127h-79l23 127h-376l9 53l422 327h90l-56 -323h126zM491 762l-337 -268h288z" />
    <glyph glyph-name="five.sups" horiz-adv-x="605" 
d="M335 293q-44 0 -83 7t-76.5 22.5t-62 46t-30.5 73.5l82 10q21 -101 170 -101q95 0 137.5 40t42.5 96q0 44 -26 71t-57 34.5t-70 7.5q-66 0 -107.5 -21t-68.5 -66l-74 6l84 298h428l-11 -60h-366l-54 -181q55 79 192 79q39 0 73.5 -7.5t68 -24.5t53.5 -50.5t20 -79.5
q0 -83 -63.5 -141.5t-201.5 -58.5z" />
    <glyph glyph-name="six.sups" horiz-adv-x="639" 
d="M402 652q99 0 163 -41.5t64 -123.5q0 -83 -66.5 -138.5t-191.5 -55.5q-40 0 -76 6t-71.5 22.5t-61 41.5t-41.5 66.5t-16 94.5t15 103.5t48 99t97.5 78.5t151.5 30q38 0 74 -6.5t72 -21.5t61 -45t31 -71l-84 -11q-11 53 -55 75t-100 22q-60 0 -105 -19.5t-70.5 -53.5
t-38 -70.5t-15.5 -78.5q58 97 215 97zM372 351q88 0 130.5 38t42.5 96q0 60 -44.5 85.5t-112.5 25.5q-147 0 -200 -103q20 -142 184 -142z" />
    <glyph glyph-name="seven.sups" horiz-adv-x="542" 
d="M187 310l3 16q44 261 329 428h-408l12 63h495l-11 -60q-138 -75 -223 -183.5t-104 -243.5l-3 -20h-90z" />
    <glyph glyph-name="eight.sups" horiz-adv-x="636" 
d="M490 583q59 -13 94.5 -42t35.5 -87q0 -31 -12 -57.5t-40.5 -51t-84.5 -38.5t-136 -14q-49 0 -91.5 6t-83.5 20.5t-65 43.5t-24 69q0 53 41.5 89.5t130.5 48.5q-111 31 -111 116q0 62 57.5 105.5t194.5 43.5q43 0 82.5 -5.5t80 -19t65 -41t24.5 -66.5q0 -101 -158 -120z
M228 690q0 -65 112 -82l84 -13q139 21 139 97q0 90 -162 90q-173 0 -173 -92zM351 348q101 0 143.5 29t42.5 72q0 75 -128 94l-87 13q-153 -23 -153 -109q0 -53 51 -76t131 -23z" />
    <glyph glyph-name="nine.sups" horiz-adv-x="639" 
d="M382 835q37 0 70 -4.5t70 -19t63 -37t43.5 -63t17.5 -93.5q0 -39 -4.5 -75t-23.5 -84.5t-50.5 -82.5t-92 -58.5t-141.5 -24.5q-40 0 -75.5 6t-72.5 21t-61 46.5t-29 75.5l85 12q3 -30 19.5 -51.5t41.5 -31.5t48.5 -14.5t47.5 -4.5q206 0 227 226q-73 -86 -221 -86
q-55 0 -102.5 14t-83.5 51.5t-36 94.5q0 34 12.5 64t40 58t80.5 44.5t127 16.5zM360 548q151 0 206 95q-3 41 -21.5 70t-47.5 42.5t-55.5 18.5t-56.5 5q-100 0 -139.5 -36.5t-39.5 -87.5q0 -31 15 -53t39.5 -33t49 -16t50.5 -5z" />
    <glyph glyph-name="backslash.case" horiz-adv-x="947" 
d="M761 -87l-620 877h81l620 -877h-81z" />
    <glyph glyph-name="periodcentered.case" horiz-adv-x="312" 
d="M244 418l-20 -110h-116l19 110h117z" />
    <glyph glyph-name="bullet.case" horiz-adv-x="365" 
d="M203 284q-36 0 -59.5 22.5t-23.5 58.5q0 38 23.5 61t59.5 23t59.5 -23t23.5 -61q0 -36 -23.5 -58.5t-59.5 -22.5z" />
    <glyph glyph-name="colon.case" horiz-adv-x="312" 
d="M263 520l-20 -110h-116l19 110h117zM190 110l-20 -110h-116l19 110h117z" />
    <glyph glyph-name="exclamdown.case" horiz-adv-x="360" 
d="M187 618l19 107h116l-19 -107h-116zM258 524l-72 -524h-99l113 524h58z" />
    <glyph glyph-name="questiondown.case" horiz-adv-x="736" 
d="M521 710l-18 -107h-109l19 107h108zM479 541l-7 -45q-10 -56 -39 -89.5t-87 -51.5l-114 -35q-120 -38 -120 -138q0 -43 23 -73t61.5 -43.5t74.5 -19t77 -5.5q79 0 134 16.5t82 45.5t38 59t11 66q0 26 -3 42l83 -9q4 -13 4 -36q0 -46 -17 -87.5t-54 -79.5t-108 -60.5
t-169 -22.5q-59 0 -111 9t-101.5 30t-78.5 62t-29 99q0 149 182 206l93 30q42 14 62 35.5t26 57.5l6 37h81z" />
    <glyph glyph-name="semicolon.case" horiz-adv-x="320" 
d="M265 520l-20 -110h-116l19 110h117zM56 -134l-13 42q68 10 79 80l2 12h-64l21 119h118l-21 -118q-7 -37 -20.5 -63.5t-32 -40.5t-34 -20.5t-35.5 -10.5z" />
    <glyph glyph-name="slash.case" horiz-adv-x="639" 
d="M68 -87h-81l620 877h81z" />
    <glyph glyph-name="underscore.case" horiz-adv-x="643" 
d="M-49 -25h643l-10 -57h-642z" />
    <glyph glyph-name="asterisk.ss04" horiz-adv-x="317" 
d="M240 710l-47 -93h-97l69 -57l-47 -93l89 57l69 -57l-14 93l89 57h-97z" />
    <glyph glyph-name="braceleft.case" horiz-adv-x="369" 
d="M258 -86q-43 0 -73 6t-59 24t-39 57t0 98l26 142q4 29 3.5 49.5t-21.5 32.5t-66 12l10 57q66 1 86.5 20.5t28.5 69.5l28 154q15 85 62.5 124t149.5 39h57l-10 -61h-40q-77 0 -108.5 -25t-41.5 -83l-26 -146q-8 -49 -30.5 -78.5t-70.5 -40.5q43 -14 54 -46t3 -82l-25 -144
q-6 -39 0.5 -64.5t26 -36t38.5 -14t49 -3.5h37l-11 -61h-38z" />
    <glyph glyph-name="braceright.case" horiz-adv-x="368" 
d="M148 799q43 0 73 -6t59 -24t39 -57t0 -98l-26 -142q-4 -29 -3.5 -49.5t21.5 -32.5t66 -12l-10 -57q-66 -1 -86.5 -20.5t-28.5 -69.5l-28 -154q-15 -85 -62.5 -124t-149.5 -39h-57l10 61h40q77 0 108.5 25t41.5 83l26 146q8 49 30.5 78.5t70.5 40.5q-43 14 -54 46t-3 82
l25 144q6 39 -0.5 64.5t-26 36t-38.5 14t-49 3.5h-37l11 61h38z" />
    <glyph glyph-name="bracketleft.case" horiz-adv-x="399" 
d="M63 -86l156 884h262l-10 -61h-193l-134 -762h192l-11 -61h-262z" />
    <glyph glyph-name="bracketright.case" horiz-adv-x="398" 
d="M373 798l-156 -884h-262l10 61h193l134 762h-192l11 61h262z" />
    <glyph glyph-name="parenleft.case" horiz-adv-x="376" 
d="M244 -98q-164 167 -164 393q0 320 323 514l51 -47q-67 -44 -114 -84t-91 -95.5t-66.5 -127t-22.5 -158.5q0 -97 32 -181.5t114 -177.5z" />
    <glyph glyph-name="parenright.case" horiz-adv-x="376" 
d="M169 809q164 -167 164 -393q0 -320 -323 -514l-51 47q67 44 114 84t91 95.5t66.5 127t22.5 158.5q0 97 -32 181.5t-114 177.5z" />
    <glyph glyph-name="parenleft.subs" horiz-adv-x="309" 
d="M146 -237q-112 130 -112 290q0 229 229 373l53 -37q-47 -31 -78.5 -59t-63.5 -68t-48 -92t-16 -116q0 -138 100 -264z" />
    <glyph glyph-name="parenright.subs" horiz-adv-x="310" 
d="M109 426q112 -130 112 -290q0 -229 -229 -373l-53 37q46 32 78 59.5t64 67.5t48 92t16 116q0 137 -101 264z" />
    <glyph glyph-name="parenleft.sups" horiz-adv-x="309" 
d="M225 213q-112 130 -112 290q0 229 229 373l53 -37q-46 -32 -78 -59.5t-64 -67.5t-48 -92t-16 -116q0 -137 101 -264z" />
    <glyph glyph-name="parenright.sups" horiz-adv-x="310" 
d="M188 876q112 -130 112 -290q0 -229 -229 -373l-53 37q46 32 78 59.5t64 67.5t48 92t16 116q0 137 -101 264z" />
    <glyph glyph-name="emdash.case" horiz-adv-x="1087" 
d="M86 388h964l-11 -61h-964z" />
    <glyph glyph-name="endash.case" horiz-adv-x="806" 
d="M86 388h683l-11 -61h-683z" />
    <glyph glyph-name="hyphen.case" horiz-adv-x="632" 
d="M87 392h509l-12 -67h-509z" />
    </font>
</defs>
</svg>
