<svg xmlns="http://www.w3.org/2000/svg">
<defs>
<font id="GTAmerica-ExtendedRegular" horiz-adv-x="697" >
  <font-face 
    font-family="GT America Extended"
    font-weight="400"
    font-stretch="expanded"
    units-per-em="1000"
    panose-1="0 0 5 5 0 0 0 0 0 0"
    ascent="800"
    descent="-200"
    x-height="500"
    cap-height="710"
    bbox="-472 -239 1325 943"
    underline-thickness="50"
    underline-position="-200"
    unicode-range="U+000D-FB02"
  />
<missing-glyph horiz-adv-x="1018" 
d="M998 663h-552v-47h552v-48h-552v-47h552v-48h-552v-47h552v-47h-552v-48h552v-47h-978v426h978v-47zM67 667l13 9h-16l-5 15l-4 -15h-16l13 -9l-5 -15l12 9l13 -9zM142 676h-16l13 -9l-5 -15l12 10l13 -10l-5 15l12 9h-15l-5 15zM229 676h-16l13 -9l-5 -15l12 10l13 -10
l-5 15l12 9h-15l-5 15zM315 676h-15l13 -9l-5 -15l12 10l13 -10l-5 15l12 9h-15l-5 15zM415 667l12 9h-15l-5 15l-5 -15h-15l12 -9l-4 -15l12 10l13 -10zM98 632h-15l12 -9l-4 -14l12 9l12 -9l-4 14l12 9h-15l-5 15zM371 623l13 9h-16l-4 15l-5 -15h-15l12 -9l-5 -14l13 9
l12 -9zM273 364v93h94v80h-94v94h-80v-94h-93v-80h93v-93h80zM67 580l13 9h-16l-5 14l-4 -14h-16l13 -9l-5 -15l12 9l13 -9zM142 589h-16l13 -9l-5 -15l12 9l13 -9l-5 15l12 9h-15l-5 14zM315 589h-15l13 -9l-5 -15l12 9l13 -9l-5 15l12 9h-15l-5 14zM415 580l12 9h-15
l-5 14l-5 -14h-15l12 -9l-4 -15l12 9l13 -9zM67 492l13 10h-16l-5 14l-4 -14h-16l13 -10l-5 -14l12 9l13 -9zM415 492l12 10h-15l-5 14l-5 -14h-15l12 -10l-4 -14l12 9l13 -9zM67 405l13 9h-16l-5 15l-4 -15h-16l13 -9l-5 -14l12 9l13 -9zM154 405l12 9h-15l-5 15l-4 -15
h-16l13 -9l-5 -14l12 9l13 -9zM328 405l12 9h-15l-5 15l-5 -15h-15l13 -9l-5 -14l12 9l13 -9zM415 405l12 9h-15l-5 15l-5 -15h-15l12 -9l-4 -14l12 9l13 -9zM115 347l-4 15l12 9h-15l-5 14l-5 -14h-15l12 -9l-4 -15l12 9zM376 347l-5 15l13 9h-16l-4 14l-5 -14h-15l12 -9
l-5 -15l13 9zM72 303l-5 15l13 9h-16l-5 15l-4 -15h-16l13 -9l-5 -15l12 9zM159 303l-5 15l12 9h-15l-5 15l-4 -15h-16l13 -9l-5 -15l12 9zM246 303l-5 15l12 9h-15l-5 15l-4 -15h-16l13 -9l-5 -15l12 9zM333 303l-5 15l12 9h-15l-5 15l-5 -15h-15l13 -9l-5 -15l12 9z

<glyph glyph-name="fi" unicode="fi" horiz-adv-x="704" 
d="M401 500v-72h-172v-428h-88v428h-119v72h119v60q0 83 45.5 128t131.5 45q42 0 83 -9v-76q-34 7 -76 7q-51 0 -73.5 -23.5t-22.5 -76.5v-55h172zM511 592v111h103v-111h-103zM519 0v500h88v-500h-88z" />
    <glyph glyph-name="fl" unicode="fl" horiz-adv-x="714" 
d="M401 500v-72h-172v-428h-88v428h-119v72h119v60q0 83 45.5 128t131.5 45q42 0 83 -9v-76q-34 7 -76 7q-51 0 -73.5 -23.5t-22.5 -76.5v-55h172zM612 725v-725h-88v725h88z" />
    <glyph glyph-name="g_g.liga" unicode="gg" horiz-adv-x="1236" 
d="M444 492q10 41 42.5 65.5t84.5 24.5q18 0 37 -4v-75q-28 4 -42 4q-57 0 -77 -42q57 -47 57 -122q0 -79 -63.5 -127t-167.5 -48q-73 0 -126 24q-46 -16 -46 -50q0 -51 86 -51h168q92 0 135 -37t43 -101q0 -76 -67.5 -119.5t-205.5 -43.5q-123 0 -193 32.5t-70 100.5
q0 77 90 106q-67 25 -67 88q0 34 22.5 60t63.5 39q-63 47 -63 127t63 126.5t167 46.5q75 0 129 -24zM1168 509q-58 0 -77 -45q57 -48 57 -122q0 -79 -63 -126.5t-167 -47.5q-70 0 -119 21q-41 -16 -41 -48q0 -50 92 -50h174q92 0 135 -37t43 -101q0 -75 -70.5 -119
t-208.5 -44q-123 0 -193 32.5t-70 100.5q0 75 88 104q-71 25 -71 89q0 33 20 58t57 38q-67 48 -67 130q0 80 63 127t168 47q72 0 128 -24q11 41 43.5 65t83.5 24q20 0 37 -4v-73q-23 5 -42 5zM315 234q66 0 105 29.5t39 79.5t-39 78.5t-105 28.5t-105 -28.5t-39 -78.5
t39 -79.5t105 -29.5zM918 233q65 0 104 29.5t39 79.5q0 51 -38.5 79.5t-104.5 28.5t-105 -28.5t-39 -79.5q0 -50 39 -79.5t105 -29.5zM384 14h-158q-26 0 -48 3q-55 -24 -55 -72q0 -84 189 -84q177 0 177 85q0 36 -25 52t-80 16zM1011 13h-164q-18 0 -46 2q-57 -21 -57 -70
q0 -84 189 -84q183 0 183 84q0 36 -25 52t-80 16z" />
    <glyph glyph-name=".notdef" horiz-adv-x="1018" 
d="M998 663h-552v-47h552v-48h-552v-47h552v-48h-552v-47h552v-47h-552v-48h552v-47h-978v426h978v-47zM67 667l13 9h-16l-5 15l-4 -15h-16l13 -9l-5 -15l12 9l13 -9zM142 676h-16l13 -9l-5 -15l12 10l13 -10l-5 15l12 9h-15l-5 15zM229 676h-16l13 -9l-5 -15l12 10l13 -10
l-5 15l12 9h-15l-5 15zM315 676h-15l13 -9l-5 -15l12 10l13 -10l-5 15l12 9h-15l-5 15zM415 667l12 9h-15l-5 15l-5 -15h-15l12 -9l-4 -15l12 10l13 -10zM98 632h-15l12 -9l-4 -14l12 9l12 -9l-4 14l12 9h-15l-5 15zM371 623l13 9h-16l-4 15l-5 -15h-15l12 -9l-5 -14l13 9
l12 -9zM273 364v93h94v80h-94v94h-80v-94h-93v-80h93v-93h80zM67 580l13 9h-16l-5 14l-4 -14h-16l13 -9l-5 -15l12 9l13 -9zM142 589h-16l13 -9l-5 -15l12 9l13 -9l-5 15l12 9h-15l-5 14zM315 589h-15l13 -9l-5 -15l12 9l13 -9l-5 15l12 9h-15l-5 14zM415 580l12 9h-15
l-5 14l-5 -14h-15l12 -9l-4 -15l12 9l13 -9zM67 492l13 10h-16l-5 14l-4 -14h-16l13 -10l-5 -14l12 9l13 -9zM415 492l12 10h-15l-5 14l-5 -14h-15l12 -10l-4 -14l12 9l13 -9zM67 405l13 9h-16l-5 15l-4 -15h-16l13 -9l-5 -14l12 9l13 -9zM154 405l12 9h-15l-5 15l-4 -15
h-16l13 -9l-5 -14l12 9l13 -9zM328 405l12 9h-15l-5 15l-5 -15h-15l13 -9l-5 -14l12 9l13 -9zM415 405l12 9h-15l-5 15l-5 -15h-15l12 -9l-4 -14l12 9l13 -9zM115 347l-4 15l12 9h-15l-5 14l-5 -14h-15l12 -9l-4 -15l12 9zM376 347l-5 15l13 9h-16l-4 14l-5 -14h-15l12 -9
l-5 -15l13 9zM72 303l-5 15l13 9h-16l-5 15l-4 -15h-16l13 -9l-5 -15l12 9zM159 303l-5 15l12 9h-15l-5 15l-4 -15h-16l13 -9l-5 -15l12 9zM246 303l-5 15l12 9h-15l-5 15l-4 -15h-16l13 -9l-5 -15l12 9zM333 303l-5 15l12 9h-15l-5 15l-5 -15h-15l13 -9l-5 -15l12 9z
M420 303l-5 15l12 9h-15l-5 15l-5 -15h-15l12 -9l-4 -15l12 9zM20 189v48h977v-48h-977zM20 95v47h978v-47h-978zM20 0v47h978v-47h-978z" />
    <glyph glyph-name=".null" horiz-adv-x="0" 
 />
    <glyph glyph-name=".null" horiz-adv-x="0" 
 />
    <glyph glyph-name="nonmarkingreturn" horiz-adv-x="333" 
 />
    <glyph glyph-name="CR" unicode="&#xd;" horiz-adv-x="0" 
 />
    <glyph glyph-name="space" unicode=" " horiz-adv-x="328" 
 />
    <glyph glyph-name="exclam" unicode="!" horiz-adv-x="337" 
d="M135 193l-24 532h115l-25 -532h-66zM229 110v-110h-121v110h121z" />
    <glyph glyph-name="quotedbl" unicode="&#x22;" horiz-adv-x="430" 
d="M99 450l-18 260h98l-19 -260h-61zM270 450l-18 260h98l-19 -260h-61z" />
    <glyph glyph-name="numbersign" unicode="#" horiz-adv-x="677" 
d="M663 424h-142l-30 -153h138v-68h-151l-39 -203h-80l39 203h-177l-39 -203h-81l39 203h-126v68h139l30 153h-129v68h142l39 203h80l-39 -203h177l39 203h81l-39 -203h129v-68zM411 271l29 153h-177l-29 -153h177z" />
    <glyph glyph-name="dollar" unicode="$" horiz-adv-x="722" 
d="M675 183q0 -91 -75 -145.5t-210 -57.5v-84h-60v85q-250 17 -298 212l97 19q42 -134 201 -151v260l-46 5q-112 18 -165.5 66.5t-53.5 132.5q0 82 71 132.5t194 55.5v85h60v-86q225 -12 272 -186l-95 -27q-19 63 -61 96t-116 40v-235l49 -6q122 -20 179 -69.5t57 -141.5z
M327 408h3v229q-166 -6 -166 -110q0 -50 37.5 -77.5t125.5 -41.5zM390 59q187 3 187 124q0 56 -39.5 85t-133.5 44l-14 2v-255z" />
    <glyph glyph-name="percent" unicode="%" horiz-adv-x="889" 
d="M215 356q-87 0 -139.5 49.5t-51.5 133.5q-1 80 51.5 129.5t138.5 49.5q84 0 137.5 -50.5t53.5 -131.5t-53 -130.5t-137 -49.5zM144 -18l509 731h88l-509 -731h-88zM215 422q51 0 82 30.5t31 83.5q0 54 -31 85.5t-83 31.5q-53 0 -84.5 -31t-31.5 -83q0 -55 31.5 -86
t85.5 -31zM676 -17q-87 0 -139.5 49.5t-51.5 133.5q-1 80 51.5 129.5t138.5 49.5q84 0 137.5 -50.5t53.5 -131.5t-53 -130.5t-137 -49.5zM676 49q51 0 82 30.5t31 83.5q0 54 -31 85.5t-83 31.5q-53 0 -84.5 -31t-31.5 -83q0 -55 31.5 -86t85.5 -31z" />
    <glyph glyph-name="ampersand" unicode="&#x26;" horiz-adv-x="742" 
d="M681 72q30 0 46 5v-79q-25 -7 -57 -7q-85 0 -159 64q-101 -75 -227 -75q-121 0 -191 55.5t-70 141.5q0 64 37 110t115 87l13 7q-52 54 -75.5 96.5t-23.5 87.5q0 77 53.5 124.5t139.5 47.5q89 0 141 -44t52 -119q0 -56 -33 -103.5t-86 -76.5l-42 -24l201 -200
q66 88 78 226l82 -12q-9 -157 -102 -269q52 -43 108 -43zM181 569q0 -36 16.5 -67.5t65.5 -80.5l36 19q87 44 87 132q0 95 -105 95q-98 0 -100 -98zM116 184q0 -56 50 -91t124 -35q95 0 165 52l-215 218l-13 -7q-62 -35 -86.5 -64t-24.5 -73z" />
    <glyph glyph-name="quotesingle" unicode="'" horiz-adv-x="259" 
d="M99 450l-18 260h98l-19 -260h-61z" />
    <glyph glyph-name="parenleft" unicode="(" horiz-adv-x="336" 
d="M261 -138q-96 92 -148.5 214.5t-52.5 249.5t52.5 247t149.5 207l64 -39q-175 -186 -175 -417q0 -233 175 -422z" />
    <glyph glyph-name="parenright" unicode=")" horiz-adv-x="336" 
d="M75 -138l-65 40q175 189 175 422q0 231 -175 417l64 39q97 -87 149.5 -207t52.5 -247t-52.5 -249.5t-148.5 -214.5z" />
    <glyph glyph-name="asterisk" unicode="*" horiz-adv-x="352" 
d="M329 587l-114 -23l81 -85l-62 -46l-58 106l-58 -106l-62 46l82 86l-115 22l25 73l105 -51l-16 116h78l-16 -117l105 52z" />
    <glyph glyph-name="plus" unicode="+" horiz-adv-x="616" 
d="M563 367v-75h-212v-201h-86v201h-212v75h212v189h86v-189h212z" />
    <glyph glyph-name="comma" unicode="," horiz-adv-x="288" 
d="M108 -141l-23 47q37 14 50.5 34.5t13.5 56.5v3h-68v123h126v-111q0 -64 -22 -98.5t-77 -54.5z" />
    <glyph glyph-name="hyphen" unicode="-" horiz-adv-x="493" 
d="M53 319h386v-81h-386v81z" />
    <glyph glyph-name="period" unicode="." horiz-adv-x="288" 
d="M208 118v-118h-127v118h127z" />
    <glyph glyph-name="slash" unicode="/" horiz-adv-x="536" 
d="M133 -117h-88l359 877h87z" />
    <glyph glyph-name="zero" unicode="0" horiz-adv-x="737" 
d="M368 -19q-148 0 -231.5 99.5t-83.5 266.5q0 168 83.5 267.5t231.5 99.5t231.5 -99.5t83.5 -267.5q0 -167 -83.5 -266.5t-231.5 -99.5zM368 58q106 0 164 77.5t58 211.5q0 135 -58 212.5t-164 77.5t-163.5 -77.5t-57.5 -212.5q0 -133 57.5 -211t163.5 -78z" />
    <glyph glyph-name="one" unicode="1" horiz-adv-x="431" 
d="M213 0v544q-18 -24 -58.5 -39.5t-88.5 -15.5h-35v83h21q65 0 111 33t63 90h79v-695h-92z" />
    <glyph glyph-name="two" unicode="2" horiz-adv-x="654" 
d="M37 0v79q197 88 333 200q67 56 93.5 103t26.5 106q0 66 -43.5 106.5t-128.5 40.5q-81 0 -128 -40t-47 -109q0 -21 7 -56l-95 10q-6 26 -6 53q0 98 73.5 159.5t198.5 61.5q130 0 198.5 -61.5t68.5 -163.5q0 -137 -164 -266q-112 -84 -245 -139h423v-84h-565z" />
    <glyph glyph-name="three" unicode="3" horiz-adv-x="678" 
d="M338 -19q-131 0 -209 59.5t-87 160.5l92 11q9 -73 61 -113.5t145 -40.5t141 35t48 100q0 128 -189 128h-60v76h57q81 0 124 30.5t43 89.5q0 57 -44 88.5t-130 31.5q-89 0 -136.5 -43.5t-51.5 -120.5l-88 18q5 101 77.5 162t202.5 61q129 0 196.5 -51.5t67.5 -138.5
q0 -64 -41 -105.5t-107 -53.5q173 -24 173 -171q0 -96 -73 -154.5t-212 -58.5z" />
    <glyph glyph-name="four" unicode="4" horiz-adv-x="650" 
d="M637 177h-131v-177h-89v177h-405v63l385 455h109v-446h131v-72zM418 509q0 75 2 105h-2q-17 -36 -57 -84l-173 -200q-45 -55 -72 -81h302v260z" />
    <glyph glyph-name="five" unicode="5" horiz-adv-x="664" 
d="M333 -19q-113 0 -187.5 52t-94.5 143l96 14q15 -60 63.5 -95.5t125.5 -35.5q89 0 138.5 45t49.5 126t-47 126.5t-133 45.5q-137 0 -186 -121l-90 8l45 406h468v-80h-397l-29 -238q60 102 215 102q117 0 182.5 -64.5t65.5 -181.5q0 -114 -77.5 -183t-207.5 -69z" />
    <glyph glyph-name="six" unicode="6" horiz-adv-x="678" 
d="M371 468q121 0 190.5 -64t69.5 -176q0 -110 -76.5 -178.5t-197.5 -68.5q-148 0 -227.5 92.5t-79.5 265.5q0 179 80.5 277t226.5 98q108 0 178.5 -49t86.5 -137l-93 -21q-33 130 -173 130q-105 0 -160 -73.5t-55 -214.5q29 56 89.5 87.5t140.5 31.5zM357 58q82 0 131 46.5
t49 123.5t-47 119.5t-134 42.5q-81 0 -135.5 -41.5t-71.5 -117.5q17 -82 71 -127.5t137 -45.5z" />
    <glyph glyph-name="seven" unicode="7" horiz-adv-x="583" 
d="M164 0v12q0 313 292 600h-433v83h545v-72q-143 -128 -220.5 -281.5t-77.5 -321.5v-20h-106z" />
    <glyph glyph-name="eight" unicode="8" horiz-adv-x="686" 
d="M472 372q88 -27 128.5 -71.5t40.5 -113.5q0 -95 -79 -150.5t-215 -55.5q-141 0 -221.5 53.5t-80.5 145.5q0 142 166 182q-73 25 -107 65.5t-34 102.5q0 83 75 133.5t199 50.5t197.5 -49.5t73.5 -133.5q0 -60 -37 -101t-106 -58zM164 531q0 -46 34.5 -75t110.5 -46l71 -15
q78 25 109.5 55t31.5 78q0 56 -46.5 86.5t-131.5 30.5q-84 0 -131.5 -30.5t-47.5 -83.5zM347 56q94 0 147 34.5t53 96.5q0 51 -38 81.5t-125 50.5l-81 19q-87 -22 -125 -57t-38 -91q0 -62 55 -98t152 -36z" />
    <glyph glyph-name="nine" unicode="9" horiz-adv-x="679" 
d="M326 714q148 0 225.5 -91.5t77.5 -263.5q0 -173 -76 -275.5t-224 -102.5q-112 0 -184 51t-90 142l94 21q31 -137 181 -137q104 0 155.5 78.5t51.5 219.5v8q-29 -51 -87.5 -80.5t-138.5 -29.5q-121 0 -192.5 58.5t-71.5 167.5q0 104 76.5 169t202.5 65zM322 331
q81 0 137 40.5t70 105.5q-17 73 -67 116.5t-136 43.5t-136 -42t-50 -114t48.5 -111t133.5 -39z" />
    <glyph glyph-name="colon" unicode=":" horiz-adv-x="288" 
d="M208 500v-118h-127v118h127zM208 118v-118h-127v118h127z" />
    <glyph glyph-name="semicolon" unicode=";" horiz-adv-x="288" 
d="M208 500v-118h-127v118h127zM108 -141l-23 47q37 14 50.5 34.5t13.5 56.5v3h-68v123h126v-111q0 -64 -22 -98.5t-77 -54.5z" />
    <glyph glyph-name="less" unicode="&#x3c;" 
d="M581 84l-504 205v74l504 205v-82l-407 -159l407 -159v-84z" />
    <glyph glyph-name="equal" unicode="=" horiz-adv-x="616" 
d="M53 384v81h510v-81h-510zM53 193v81h510v-81h-510z" />
    <glyph glyph-name="greater" unicode="&#x3e;" 
d="M116 84v84l407 159l-407 159v82l504 -205v-74z" />
    <glyph glyph-name="question" unicode="?" horiz-adv-x="582" 
d="M232 181v44q0 78 79 131l64 41q40 25 62 54.5t22 77.5q0 55 -44.5 91.5t-119.5 36.5q-84 0 -133 -40.5t-49 -113.5q0 -26 7 -55l-96 11q-6 23 -6 54q0 101 72.5 162t204.5 61q125 0 194 -56t69 -149q0 -109 -119 -183l-63 -41q-28 -18 -40 -39t-12 -55v-32h-92zM221 0
v110h116v-110h-116z" />
    <glyph glyph-name="at" unicode="@" horiz-adv-x="923" 
d="M455 -106q-193 0 -304.5 102.5t-111.5 279.5q0 172 117.5 280t312.5 108q192 0 303.5 -101t111.5 -267q0 -103 -45 -164t-121 -61q-96 0 -121 82q-26 -43 -75 -66.5t-111 -23.5q-71 0 -117 34t-46 87q0 58 42 88.5t135 41.5l164 16v6q0 56 -28.5 80.5t-93.5 24.5
q-111 0 -119 -80h-83q3 64 60.5 104t145.5 40q99 0 146.5 -42t47.5 -132v-114q0 -45 14.5 -65t47.5 -20q40 0 63.5 43.5t23.5 118.5q0 143 -89.5 226t-252.5 83q-169 0 -265 -89t-96 -238q0 -148 94 -233.5t258 -85.5q120 0 217 41l28 -55q-100 -49 -253 -49zM428 125
q68 0 114.5 36t46.5 89v25l-153 -15q-57 -7 -80.5 -23t-23.5 -49q0 -28 26.5 -45.5t69.5 -17.5z" />
    <glyph glyph-name="A" unicode="A" horiz-adv-x="787" 
d="M663 0l-78 184h-383l-79 -184h-103l324 710h99l324 -710h-104zM237 266h313l-106 248q-37 70 -50 110h-2q-14 -44 -49 -110z" />
    <glyph glyph-name="B" unicode="B" horiz-adv-x="772" 
d="M569 367q70 -12 106.5 -57t36.5 -114q0 -84 -59 -140t-184 -56h-362v710h349q65 0 113 -16.5t73.5 -44.5t37.5 -59.5t12 -66.5q0 -55 -31.5 -98t-91.5 -58zM450 628h-245v-225h245q144 0 144 114q0 47 -32.5 79t-111.5 32zM462 82q79 0 115.5 33t36.5 88q0 118 -146 118
h-263v-239h257z" />
    <glyph glyph-name="C" unicode="C" horiz-adv-x="804" 
d="M417 -20q-179 0 -278.5 104.5t-99.5 271.5q0 169 102.5 271.5t279.5 102.5q143 0 230 -68t110 -189l-102 -10q-17 87 -80 135.5t-163 48.5q-128 0 -201 -78.5t-73 -211.5q0 -130 74.5 -211.5t202.5 -81.5q95 0 158.5 45.5t86.5 129.5l97 -17q-33 -113 -119 -177.5
t-225 -64.5z" />
    <glyph glyph-name="D" unicode="D" horiz-adv-x="828" 
d="M107 0v710h305q170 0 273.5 -93.5t103.5 -255.5t-104.5 -261.5t-272.5 -99.5h-305zM205 82h206q128 0 201 76.5t73 202.5q0 125 -75 196t-204 71h-201v-546z" />
    <glyph glyph-name="E" unicode="E" horiz-adv-x="723" 
d="M205 82h446v-82h-544v710h537v-82h-439v-223h422v-82h-422v-241z" />
    <glyph glyph-name="F" unicode="F" horiz-adv-x="689" 
d="M644 628h-439v-224h422v-82h-422v-322h-98v710h537v-82z" />
    <glyph glyph-name="G" unicode="G" horiz-adv-x="835" 
d="M405 -20q-167 0 -266.5 104t-99.5 271q0 169 103 272t281 103q142 0 227 -65.5t107 -156.5l-99 -16q-17 65 -78.5 110.5t-161.5 45.5q-129 0 -204 -80.5t-75 -213.5q0 -129 74.5 -210.5t205.5 -81.5q127 0 192.5 68.5t65.5 150.5v9h-260v82h348v-372h-73l-11 120
q-35 -65 -107.5 -102.5t-168.5 -37.5z" />
    <glyph glyph-name="H" unicode="H" horiz-adv-x="864" 
d="M757 710v-710h-98v322h-454v-322h-98v710h98v-306h454v306h98z" />
    <glyph glyph-name="I" unicode="I" horiz-adv-x="312" 
d="M205 0h-98v710h98v-710z" />
    <glyph glyph-name="J" unicode="J" horiz-adv-x="445" 
d="M359 220q0 -236 -235 -236q-71 0 -104 8v91q51 -8 103 -8q67 0 102.5 33.5t35.5 118.5v483h98v-490z" />
    <glyph glyph-name="K" unicode="K" horiz-adv-x="782" 
d="M638 0l-269 369l-164 -149v-220h-98v710h98v-374l397 374h130l-292 -271l319 -439h-121z" />
    <glyph glyph-name="L" unicode="L" horiz-adv-x="649" 
d="M107 0v710h98v-626h418v-84h-516z" />
    <glyph glyph-name="M" unicode="M" horiz-adv-x="1007" 
d="M107 0v710h145l229 -550q16 -41 20 -62h2q4 17 20 62l232 550h146v-710h-90v555q0 54 3 72h-4q-21 -64 -25 -72l-236 -555h-95l-235 556q-13 30 -21 71h-5q4 -36 4 -72v-555h-90z" />
    <glyph glyph-name="N" unicode="N" horiz-adv-x="860" 
d="M107 0v710h119l392 -524q34 -49 46 -81h2q-2 54 -2 91v514h89v-710h-113l-399 530q-35 52 -45 79h-2q2 -50 2 -87v-522h-89z" />
    <glyph glyph-name="O" unicode="O" horiz-adv-x="846" 
d="M423 -20q-173 0 -278.5 102.5t-105.5 272.5q0 172 105.5 273.5t278.5 101.5q174 0 279.5 -101.5t105.5 -273.5q0 -171 -105.5 -273t-279.5 -102zM423 62q129 0 205 79.5t76 213.5t-76 213.5t-205 79.5t-205 -79.5t-76 -213.5q0 -133 76 -213t205 -80z" />
    <glyph glyph-name="P" unicode="P" horiz-adv-x="718" 
d="M445 710q115 0 182.5 -58.5t67.5 -156.5q0 -100 -70.5 -159t-189.5 -59h-230v-277h-98v710h338zM431 359q74 0 117.5 36.5t43.5 99.5q0 61 -43 97t-117 36h-227v-269h226z" />
    <glyph glyph-name="Q" unicode="Q" horiz-adv-x="846" 
d="M580 6q50 -58 134 -58q30 0 65 6v-86q-38 -6 -72 -6q-70 0 -126 32t-87 91q-38 -5 -71 -5q-173 0 -278.5 102.5t-105.5 272.5q0 172 105.5 273.5t278.5 101.5q174 0 279.5 -101.5t105.5 -273.5q0 -128 -60.5 -219t-167.5 -130zM142 355q0 -133 76 -213t205 -80t205 79.5
t76 213.5t-76 213.5t-205 79.5t-205 -79.5t-76 -213.5z" />
    <glyph glyph-name="R" unicode="R" horiz-adv-x="767" 
d="M606 0l-187 292h-214v-292h-98v710h346q68 0 117.5 -18t75.5 -49t38 -66t12 -76q0 -67 -41 -122.5t-128 -73.5l194 -305h-115zM205 628v-255h234q81 0 117.5 36.5t36.5 92.5t-36 91t-117 35h-235z" />
    <glyph glyph-name="S" unicode="S" horiz-adv-x="730" 
d="M382 -20q-153 0 -240.5 61t-109.5 174l101 17q40 -171 251 -171q197 0 197 124q0 58 -37 85.5t-118 39.5l-156 21q-203 30 -203 195q0 95 77 149.5t214 54.5q275 0 321 -208l-98 -24q-38 153 -226 153q-88 0 -137.5 -30.5t-49.5 -86.5q0 -52 32.5 -79.5t108.5 -38.5
l152 -22q111 -17 166.5 -63t55.5 -137q0 -97 -77 -155.5t-224 -58.5z" />
    <glyph glyph-name="T" unicode="T" horiz-adv-x="660" 
d="M650 710v-83h-271v-627h-98v627h-271v83h640z" />
    <glyph glyph-name="U" unicode="U" horiz-adv-x="824" 
d="M86 710h98v-424q0 -98 61 -159.5t167 -61.5t166.5 61.5t60.5 159.5v424h99v-429q0 -135 -86 -218t-240 -83t-240 83t-86 218v429z" />
    <glyph glyph-name="V" unicode="V" horiz-adv-x="715" 
d="M303 0l-300 710h106l221 -535q20 -53 26 -82h3q8 37 26 82l220 535h107l-300 -710h-109z" />
    <glyph glyph-name="W" unicode="W" horiz-adv-x="1065" 
d="M228 0l-203 710h102l152 -571q1 -5 5 -20.5t5 -23.5h3q1 6 11 44l180 571h99l180 -571q9 -28 12 -44h2q2 10 11 44l152 571h102l-204 -710h-121l-171 554q-10 25 -10 41h-5q0 -14 -9 -41l-172 -554h-121z" />
    <glyph glyph-name="X" unicode="X" horiz-adv-x="750" 
d="M13 0l300 372l-278 338h122l191 -239q19 -26 27 -40h2q5 12 27 39l189 240h118l-274 -342l300 -368h-124l-208 263q-25 32 -31 47h-2q-9 -18 -32 -47l-209 -263h-118z" />
    <glyph glyph-name="Y" unicode="Y" horiz-adv-x="694" 
d="M296 0v271l-296 439h115l211 -318q15 -24 19 -39h2q4 15 19 39l213 318h115l-299 -439v-271h-99z" />
    <glyph glyph-name="Z" unicode="Z" horiz-adv-x="689" 
d="M44 85l482 543h-464v82h583v-84l-483 -544h501v-82h-619v85z" />
    <glyph glyph-name="bracketleft" unicode="[" horiz-adv-x="361" 
d="M107 -117v877h226v-72h-145v-733h145v-72h-226z" />
    <glyph glyph-name="backslash" unicode="\" horiz-adv-x="536" 
d="M403 -117l-358 877h87l359 -877h-88z" />
    <glyph glyph-name="bracketright" unicode="]" horiz-adv-x="361" 
d="M254 -117h-226v72h145v733h-145v72h226v-877z" />
    <glyph glyph-name="asciicircum" unicode="^" horiz-adv-x="478" 
d="M203 709h72l183 -269h-87l-132 199l-133 -199h-86z" />
    <glyph glyph-name="underscore" unicode="_" horiz-adv-x="520" 
d="M0 -94h520v-64h-520v64z" />
    <glyph glyph-name="grave" unicode="`" horiz-adv-x="600" 
d="M254 580h-87l-146 146h111z" />
    <glyph glyph-name="a" unicode="a" horiz-adv-x="655" 
d="M253 -15q-93 0 -148 40t-55 108q0 75 62 114q58 35 186 46l186 14v9q0 128 -155 128q-73 0 -116 -27t-50 -78h-96q8 79 79 127.5t183 48.5q123 0 183.5 -51.5t60.5 -157.5v-132q0 -113 15 -174h-92q-6 35 -8 97q-59 -112 -235 -112zM277 55q93 0 150.5 45t57.5 119v25
l-203 -19q-76 -8 -107 -29t-31 -61q0 -38 34.5 -59t98.5 -21z" />
    <glyph glyph-name="b" unicode="b" horiz-adv-x="704" 
d="M401 -15q-152 0 -214 106l-13 -91h-72v725h88v-319q28 50 85.5 79.5t130.5 29.5q116 0 185.5 -73.5t69.5 -191.5q0 -117 -72.5 -191t-187.5 -74zM376 62q88 0 140 51t52 137q0 87 -49.5 137.5t-138.5 50.5q-87 0 -139.5 -48t-52.5 -128v-25q0 -79 51.5 -127t136.5 -48z
" />
    <glyph glyph-name="c" unicode="c" horiz-adv-x="629" 
d="M323 -15q-128 0 -204.5 72t-76.5 193q0 122 76.5 193.5t206.5 71.5q224 0 261 -185l-93 -11q-27 120 -170 120q-89 0 -138 -49.5t-49 -138.5q0 -90 50 -140t139 -50q137 0 173 119l87 -14q-19 -85 -88 -133t-174 -48z" />
    <glyph glyph-name="d" unicode="d" horiz-adv-x="704" 
d="M300 -15q-113 0 -185 73.5t-72 191.5q0 117 73.5 191t191.5 74q138 0 206 -99v309h88v-725h-85v97q-64 -112 -217 -112zM324 62q86 0 139 48t53 127v23q0 81 -54 130t-142 49q-86 0 -135 -50.5t-49 -138.5t50.5 -138t137.5 -50z" />
    <glyph glyph-name="e" unicode="e" horiz-adv-x="643" 
d="M594 274v-50h-462q2 -75 54.5 -119t142.5 -44q135 0 185 99l74 -34q-73 -141 -263 -141q-132 0 -207.5 68t-75.5 191q0 128 75.5 199.5t203.5 71.5q129 0 201 -63t72 -178zM503 293v7q-1 70 -51 109t-132 39q-83 0 -133.5 -42t-54.5 -113h371z" />
    <glyph glyph-name="f" unicode="f" horiz-adv-x="422" 
d="M401 500v-72h-172v-428h-88v428h-119v72h119v60q0 83 45.5 128t131.5 45q42 0 83 -9v-76q-34 7 -76 7q-51 0 -73.5 -23.5t-22.5 -76.5v-55h172z" />
    <glyph glyph-name="g" unicode="g" horiz-adv-x="637" 
d="M571 506q-63 0 -81 -43q56 -47 56 -121q0 -78 -62 -126t-168 -48q-74 0 -126 24q-46 -16 -46 -51q0 -50 85 -50h197q178 0 178 -139q0 -162 -292 -162q-273 0 -273 138q0 77 84 103q-60 25 -60 85q0 73 84 101q-62 47 -62 125t62 125.5t169 47.5q74 0 129 -25
q11 43 44 67.5t86 24.5q17 0 36 -4v-76q-15 4 -40 4zM316 233q66 0 105 30t39 79t-39 78t-105 29q-67 0 -105.5 -28.5t-38.5 -78.5q0 -49 39 -79t105 -30zM409 14h-183q-26 0 -47 3q-56 -24 -56 -74q0 -82 194 -82q200 0 200 85q0 68 -108 68z" />
    <glyph glyph-name="h" unicode="h" horiz-adv-x="702" 
d="M102 0v725h88v-331q62 122 213 122q109 0 165 -62.5t56 -183.5v-270h-88v261q0 178 -161 178q-85 0 -135 -52t-50 -141v-246h-88z" />
    <glyph glyph-name="i" unicode="i" horiz-adv-x="282" 
d="M89 592v111h103v-111h-103zM97 0v500h88v-500h-88z" />
    <glyph glyph-name="j" unicode="j" horiz-adv-x="288" 
d="M94 592v111h103v-111h-103zM39 -203q-45 0 -69 6v76q27 -3 65 -3q36 0 52 21.5t16 79.5v523h88v-535q0 -168 -152 -168z" />
    <glyph glyph-name="k" unicode="k" horiz-adv-x="641" 
d="M508 0l-182 259l-136 -107v-152h-88v725h88v-476l292 251h122l-210 -185l224 -315h-110z" />
    <glyph glyph-name="l" unicode="l" horiz-adv-x="292" 
d="M190 725v-725h-88v725h88z" />
    <glyph glyph-name="m" unicode="m" horiz-adv-x="1010" 
d="M97 500h85v-100q48 116 182 116q140 0 181 -118q58 118 193 118q94 0 144 -56t50 -162v-298h-88v291q0 148 -131 148q-71 0 -112.5 -44t-41.5 -120v-275h-89v291q0 72 -33 110t-97 38q-71 0 -113 -46.5t-42 -124.5v-268h-88v500z" />
    <glyph glyph-name="n" unicode="n" 
d="M97 0v500h85v-109q62 125 218 125q107 0 163 -59t56 -173v-284h-88v271q0 168 -159 168q-86 0 -136.5 -52t-50.5 -141v-246h-88z" />
    <glyph glyph-name="o" unicode="o" horiz-adv-x="656" 
d="M328 -15q-129 0 -207.5 72t-78.5 193t78.5 193t207.5 72t207 -72t78 -193t-78 -193t-207 -72zM328 61q89 0 140.5 49.5t51.5 139.5t-51.5 139.5t-140.5 49.5t-140.5 -49.5t-51.5 -139.5t51.5 -139.5t140.5 -49.5z" />
    <glyph glyph-name="p" unicode="p" horiz-adv-x="699" 
d="M97 -195v695h85v-98q31 54 88.5 83.5t130.5 29.5q115 0 185 -72.5t70 -193.5q0 -118 -72.5 -191t-187.5 -73q-70 0 -127.5 28.5t-83.5 71.5v-280h-88zM372 62q89 0 140 50t51 137q0 88 -49.5 138.5t-135.5 50.5q-87 0 -141 -48.5t-54 -128.5v-23q0 -80 51.5 -128
t137.5 -48z" />
    <glyph glyph-name="q" unicode="q" horiz-adv-x="699" 
d="M514 -195v286q-27 -48 -83 -78t-129 -30q-116 0 -187.5 74.5t-71.5 192.5q0 121 72.5 194t189.5 73q151 0 212 -107l16 90h69v-695h-88zM326 60q89 0 139.5 49t50.5 128v26q0 77 -52 127t-142 50q-83 0 -134.5 -49t-51.5 -140v-1q0 -89 51 -139.5t139 -50.5z" />
    <glyph glyph-name="r" unicode="r" horiz-adv-x="418" 
d="M179 373q20 63 68 102t113 39q20 0 38 -3v-86q-20 2 -31 2q-85 0 -130 -48q-52 -53 -52 -176v-203h-88v500h82v-127z" />
    <glyph glyph-name="s" unicode="s" horiz-adv-x="602" 
d="M319 -15q-218 0 -276 162l83 27q42 -117 200 -117q138 0 138 80q0 35 -21 52t-70 21l-147 11q-80 7 -120.5 44t-40.5 99q0 71 61 111t167 40q102 0 169 -38.5t88 -105.5l-83 -28q-41 102 -179 102q-65 0 -101 -20.5t-36 -57.5q0 -62 96 -71l149 -11q155 -14 155 -141
q0 -75 -58.5 -117t-173.5 -42z" />
    <glyph glyph-name="t" unicode="t" horiz-adv-x="442" 
d="M16 428v72h120v131l89 37v-168h178v-72h-178v-258q0 -51 24 -74.5t75 -23.5q38 0 80 10v-79q-39 -13 -97 -13q-97 0 -134 46.5t-37 128.5v263h-120z" />
    <glyph glyph-name="u" unicode="u" horiz-adv-x="687" 
d="M296 -15q-218 0 -218 223v292h89v-283q0 -82 41 -119.5t105 -37.5q91 0 140 55.5t49 135.5v249h89v-500h-86v112q-24 -59 -80 -93t-129 -34z" />
    <glyph glyph-name="v" unicode="v" horiz-adv-x="578" 
d="M240 0l-234 500h98l166 -362q12 -29 18 -56h2q12 42 18 56l166 362h98l-234 -500h-98z" />
    <glyph glyph-name="w" unicode="w" horiz-adv-x="892" 
d="M197 0l-176 500h93l124 -369q7 -27 11 -51h2q0 4 13 51l133 369h97l134 -369q12 -44 13 -51h2q2 13 11 51l124 369h93l-176 -500h-102l-134 369q-10 25 -12 49h-2q-4 -26 -12 -49l-134 -369h-102z" />
    <glyph glyph-name="x" unicode="x" horiz-adv-x="591" 
d="M13 0l225 257l-212 243h110l127 -149q23 -30 31 -47h1q12 19 31 46l126 150h112l-211 -247l225 -253h-113l-137 157q-19 22 -34 47h-1q-6 -11 -35 -48l-136 -156h-109z" />
    <glyph glyph-name="y" unicode="y" horiz-adv-x="579" 
d="M98 -203q-28 0 -52 4v78q24 -3 43 -3q113 0 153 100l11 27l-247 497h102l173 -367q10 -25 16 -47h1q12 37 16 47l162 367h98l-244 -532q-42 -92 -97.5 -131.5t-134.5 -39.5z" />
    <glyph glyph-name="z" unicode="z" horiz-adv-x="574" 
d="M44 70l362 356h-347v74h463v-68l-362 -358h379v-74h-495v70z" />
    <glyph glyph-name="braceleft" unicode="{" horiz-adv-x="362" 
d="M287 -118q-78 0 -121.5 36t-43.5 106v167q0 26 -2 41.5t-10 31t-25 23t-45 8.5v68q53 1 67 23.5t14 76.5v157q0 73 45.5 110.5t128.5 37.5h37v-66h-25q-53 0 -77.5 -23t-24.5 -73v-136q0 -117 -78 -140q77 -28 77 -147v-142q0 -49 24.5 -70.5t75.5 -21.5h30v-67h-47z" />
    <glyph glyph-name="bar" unicode="|" horiz-adv-x="277" 
d="M102 -117v877h73v-877h-73z" />
    <glyph glyph-name="braceright" unicode="}" horiz-adv-x="362" 
d="M75 -118h-47v67h30q51 0 75.5 21.5t24.5 70.5v142q0 119 77 147q-78 23 -78 140v136q0 50 -24.5 73t-77.5 23h-25v66h37q83 0 128.5 -37.5t45.5 -110.5v-157q0 -54 14 -76.5t67 -23.5v-68q-28 -1 -45 -8.5t-25 -23t-10 -31t-2 -41.5v-167q0 -70 -43.5 -106t-121.5 -36z
" />
    <glyph glyph-name="asciitilde" unicode="~" 
d="M451 236q-42 0 -79 20t-67.5 39.5t-57.5 19.5q-63 0 -82 -69l-70 10q12 62 53.5 95.5t98.5 33.5q42 0 79 -20.5t68 -40.5t58 -20q60 0 81 74l68 -12q-15 -63 -55 -96.5t-95 -33.5z" />
    <glyph glyph-name="uni00A0" unicode="&#xa0;" horiz-adv-x="328" 
 />
    <glyph glyph-name="exclamdown" unicode="&#xa1;" horiz-adv-x="337" 
d="M229 470h-121v110h121v-110zM135 387h66l25 -532h-115z" />
    <glyph glyph-name="cent" unicode="&#xa2;" horiz-adv-x="650" 
d="M367 57q125 12 155 115l84 -15q-19 -76 -81 -120t-158 -51v-80h-60v80q-122 8 -193.5 79t-71.5 186q0 116 70.5 185.5t194.5 77.5v79h60v-79q101 -6 163 -51.5t78 -125.5l-89 -12q-25 105 -152 117v-385zM133 251q0 -85 45.5 -135.5t128.5 -58.5v385q-83 -8 -128.5 -57.5
t-45.5 -133.5z" />
    <glyph glyph-name="sterling" unicode="&#xa3;" horiz-adv-x="704" 
d="M606 171l85 -16q-13 -81 -66.5 -127t-135.5 -46q-46 0 -129 14.5t-146 14.5q-80 0 -175 -19l-19 64q151 48 151 184q0 48 -10 91h-116v63h101q-14 52 -14 100q0 102 68 160.5t187 58.5q206 0 250 -160l-91 -23q-32 106 -159 106q-157 0 -157 -139q0 -49 14 -103h238v-63
h-223q7 -39 7 -73q0 -65 -26.5 -108t-82.5 -71q42 9 92 9q47 0 120.5 -10t117.5 -10q50 0 81 27t38 76z" />
    <glyph glyph-name="currency" unicode="&#xa4;" horiz-adv-x="617" 
d="M568 303q0 -86 -52 -147l58 -58l-43 -39l-59 58q-66 -44 -159 -44q-98 0 -165 47l-62 -62l-44 39l63 62q-49 60 -49 144t50 145l-64 62l44 39l64 -61q67 45 163 45q92 0 157 -42l62 59l43 -39l-60 -59q53 -61 53 -149zM313 146q80 0 127.5 43t47.5 114t-47.5 114
t-127.5 43q-81 0 -129 -43t-48 -114t48 -114t129 -43z" />
    <glyph glyph-name="yen" unicode="&#xa5;" horiz-adv-x="669" 
d="M670 695l-281 -375h214v-61h-222v-56h222v-61h-222v-142h-93v142h-221v61h221v56h-221v61h214l-281 375h108l155 -211q44 -58 70 -106h3q26 46 70 106l155 211h109z" />
    <glyph glyph-name="brokenbar" unicode="&#xa6;" horiz-adv-x="276" 
d="M174 760v-378h-72v378h72zM174 261v-378h-72v378h72z" />
    <glyph glyph-name="section" unicode="&#xa7;" horiz-adv-x="596" 
d="M550 281q0 -72 -57 -115q37 -37 37 -97q0 -81 -63.5 -125t-180.5 -44q-218 0 -254 155l81 18q27 -101 179 -101q150 0 150 90q0 34 -20 54t-70 34l-153 40q-88 23 -125 57.5t-37 93.5q0 71 65 109q-47 36 -47 104q0 75 62.5 118t170.5 43q97 0 159 -37t78 -105l-84 -22
q-27 93 -158 93q-140 0 -140 -83q0 -35 21.5 -53t84.5 -36l152 -36q149 -38 149 -155zM260 251l128 -29q28 -8 50 -18q26 26 26 63q0 40 -25 62t-94 43l-147 36q-16 4 -36 11q-39 -25 -39 -67q0 -37 26.5 -56t110.5 -45z" />
    <glyph glyph-name="dieresis" unicode="&#xa8;" horiz-adv-x="600" 
d="M50 596v108h106v-108h-106zM302 596v108h106v-108h-106z" />
    <glyph glyph-name="copyright" unicode="&#xa9;" horiz-adv-x="883" 
d="M442 -20q-176 0 -289.5 101.5t-113.5 273.5t113.5 273.5t289.5 101.5t289.5 -101.5t113.5 -273.5t-113.5 -273.5t-289.5 -101.5zM442 27q152 0 250.5 89.5t98.5 238.5q0 150 -98.5 239t-250.5 89q-153 0 -251.5 -89t-98.5 -239q0 -149 99 -238.5t251 -89.5zM448 142
q-100 0 -158.5 57.5t-58.5 154.5q0 98 58.5 156t158.5 58q80 0 132 -37.5t57 -96.5l-72 -9q-6 38 -37.5 60.5t-81.5 22.5q-65 0 -103 -42t-38 -112q0 -69 38.5 -110.5t104.5 -41.5q46 0 78.5 22.5t40.5 58.5l73 -8q-13 -60 -65.5 -96.5t-126.5 -36.5z" />
    <glyph glyph-name="ordfeminine" unicode="&#xaa;" horiz-adv-x="516" 
d="M199 299q-69 0 -110 29.5t-41 78.5q0 56 44 80.5t126 33.5l145 12v8q0 91 -105 91q-104 0 -113 -75h-85q6 60 59.5 94.5t138.5 34.5q96 0 141.5 -37.5t45.5 -116.5v-102q0 -76 9 -120h-82q-4 37 -5 72q-18 -39 -62 -61t-106 -22zM226 352q61 0 100 30.5t39 78.5v30
l-132 -13q-102 -10 -102 -66q0 -28 25.5 -44t69.5 -16z" />
    <glyph glyph-name="guillemotleft" unicode="&#xab;" horiz-adv-x="565" 
d="M232 67l-201 208l203 208h98l-196 -208l195 -208h-99zM446 67l-201 208l203 208h98l-196 -208l195 -208h-99z" />
    <glyph glyph-name="logicalnot" unicode="&#xac;" 
d="M90 374h504v-243h-82v162h-422v81z" />
    <glyph glyph-name="registered" unicode="&#xae;" horiz-adv-x="883" 
d="M442 730q176 0 289.5 -101.5t113.5 -273.5t-113.5 -273.5t-289.5 -101.5t-289.5 101.5t-113.5 273.5t113.5 273.5t289.5 101.5zM442 27q152 0 250.5 89.5t98.5 238.5q0 150 -98.5 239t-250.5 89q-153 0 -251.5 -89t-98.5 -239q0 -149 99 -238.5t251 -89.5zM629 443
q0 -43 -25 -73t-69 -42l109 -172h-81l-100 167h-107v-167h-69v406h193q72 0 110.5 -31t38.5 -88zM356 505v-126h120q83 0 83 64q0 62 -83 62h-120z" />
    <glyph glyph-name="macron" unicode="&#xaf;" horiz-adv-x="600" 
d="M50 612v66h369v-66h-369z" />
    <glyph glyph-name="degree" unicode="&#xb0;" horiz-adv-x="445" 
d="M223 337q-83 0 -137.5 52.5t-54.5 137.5t54.5 137.5t137.5 52.5q82 0 136.5 -52.5t54.5 -137.5t-54.5 -137.5t-136.5 -52.5zM223 410q48 0 79.5 33t31.5 84q0 52 -31.5 84.5t-79.5 32.5q-49 0 -80.5 -32.5t-31.5 -84.5t31.5 -84.5t80.5 -32.5z" />
    <glyph glyph-name="plusminus" unicode="&#xb1;" 
d="M390 366h213v-74h-213v-160h-86v160h-210v74h210v161h86v-161zM94 0v81h509v-81h-509z" />
    <glyph glyph-name="acute" unicode="&#xb4;" horiz-adv-x="600" 
d="M49 580l122 146h111l-146 -146h-87z" />
    <glyph glyph-name="uni00B5" unicode="&#xb5;" horiz-adv-x="706" 
d="M521 500h89v-500h-86v112q-24 -59 -80 -93t-129 -34q-89 0 -140 36v-216h-78v695h89v-283q0 -82 41 -119.5t105 -37.5q91 0 140 55.5t49 135.5v249z" />
    <glyph glyph-name="paragraph" unicode="&#xb6;" horiz-adv-x="779" 
d="M329 360q-269 0 -269 179q0 92 73 136.5t201 44.5h371v-59h-116v-761h-70v761h-120v-761h-70v460z" />
    <glyph glyph-name="periodcentered" unicode="&#xb7;" horiz-adv-x="288" 
d="M208 400v-118h-127v118h127z" />
    <glyph glyph-name="cedilla" unicode="&#xb8;" horiz-adv-x="600" 
d="M125 7h56l-38 -56q19 12 51 12q41 0 64.5 -20.5t23.5 -56.5q0 -38 -33 -62t-85 -24q-89 0 -114 62l60 12q12 -28 53 -28q23 0 37 11t14 29q0 19 -13 30t-35 11q-26 0 -45 -16l-43 12z" />
    <glyph glyph-name="ordmasculine" unicode="&#xba;" horiz-adv-x="515" 
d="M258 299q-98 0 -157.5 52t-59.5 142t59 141.5t158 51.5q98 0 157 -51.5t59 -141.5t-59 -142t-157 -52zM258 357q62 0 98 36t36 100t-36 99.5t-98 35.5t-98 -35.5t-36 -99.5q0 -65 36 -100.5t98 -35.5z" />
    <glyph glyph-name="guillemotright" unicode="&#xbb;" horiz-adv-x="565" 
d="M119 67h-99l195 208l-196 208h98l203 -208zM333 67h-99l195 208l-196 208h98l203 -208z" />
    <glyph glyph-name="onequarter" unicode="&#xbc;" horiz-adv-x="881" 
d="M102 -17l498 744h83l-497 -744h-84zM135 327v287q-32 -40 -92 -40h-16v67h10q88 0 111 70h63v-384h-76zM855 89h-82v-89h-74v89h-241v52l235 243h80v-242h82v-53zM699 321l-175 -179h175v179z" />
    <glyph glyph-name="onehalf" unicode="&#xbd;" horiz-adv-x="917" 
d="M102 -17l498 744h83l-497 -744h-84zM135 327v287q-32 -40 -92 -40h-16v67h10q88 0 111 70h63v-384h-76zM528 0v52q57 29 85.5 44.5t69 40.5t59.5 43t33.5 41.5t14.5 47.5q0 33 -23.5 51.5t-65.5 18.5q-41 0 -67.5 -18t-26.5 -54q0 -11 3 -24l-78 6q-2 16 -2 26
q0 58 47.5 89t124.5 31t122 -30t45 -88q0 -115 -231 -221h240v-56h-350z" />
    <glyph glyph-name="threequarters" unicode="&#xbe;" horiz-adv-x="1020" 
d="M241 -17l498 744h83l-497 -744h-84zM213 317q-82 0 -130 34.5t-49 93.5l77 6q1 -37 28 -58t74 -21q101 0 101 66q0 57 -103 57h-40v54h39q95 0 95 56q0 31 -25 46.5t-68 15.5q-98 0 -100 -78l-76 5q1 59 48.5 93.5t129.5 34.5q78 0 123.5 -28t45.5 -81q0 -37 -27.5 -59.5
t-70.5 -27.5q52 -5 81 -28.5t29 -63.5q0 -56 -50 -86.5t-132 -30.5zM994 89h-82v-89h-74v89h-241v52l235 243h80v-242h82v-53zM838 321l-175 -179h175v179z" />
    <glyph glyph-name="questiondown" unicode="&#xbf;" horiz-adv-x="582" 
d="M361 580v-110h-116v110h116zM350 399v-44q0 -78 -79 -131l-64 -41q-40 -25 -62 -54.5t-22 -77.5q0 -55 44.5 -91.5t119.5 -36.5q84 0 133 40.5t49 113.5q0 26 -7 55l96 -11q6 -23 6 -54q0 -101 -72.5 -162t-204.5 -61q-125 0 -194 56t-69 149q0 109 119 183l63 41
q28 18 40 39t12 55v32h92z" />
    <glyph glyph-name="Agrave" unicode="&#xc0;" horiz-adv-x="787" 
d="M434 756h-90l-132 108h105zM663 0l-78 184h-383l-79 -184h-103l324 710h99l324 -710h-104zM237 266h313l-106 248q-37 70 -50 110h-2q-14 -44 -49 -110z" />
    <glyph glyph-name="Aacute" unicode="&#xc1;" horiz-adv-x="787" 
d="M570 864l-132 -108h-90l117 108h105zM663 0l-78 184h-383l-79 -184h-103l324 710h99l324 -710h-104zM237 266h313l-106 248q-37 70 -50 110h-2q-14 -44 -49 -110z" />
    <glyph glyph-name="Acircumflex" unicode="&#xc2;" horiz-adv-x="787" 
d="M393 828l-80 -72h-95l121 108h109l121 -108h-95zM663 0l-78 184h-383l-79 -184h-103l324 710h99l324 -710h-104zM237 266h313l-106 248q-37 70 -50 110h-2q-14 -44 -49 -110z" />
    <glyph glyph-name="Atilde" unicode="&#xc3;" horiz-adv-x="787" 
d="M316 804q-45 0 -57 -48l-62 11q19 102 121 102q42 0 85 -26.5t67 -26.5q44 0 56 48l62 -11q-19 -102 -121 -102q-41 0 -84.5 26.5t-66.5 26.5zM663 0l-78 184h-383l-79 -184h-103l324 710h99l324 -710h-104zM237 266h313l-106 248q-37 70 -50 110h-2q-14 -44 -49 -110z
" />
    <glyph glyph-name="Adieresis" unicode="&#xc4;" horiz-adv-x="787" 
d="M316 858v-102h-106v102h106zM577 858v-102h-106v102h106zM663 0l-78 184h-383l-79 -184h-103l324 710h99l324 -710h-104zM237 266h313l-106 248q-37 70 -50 110h-2q-14 -44 -49 -110z" />
    <glyph glyph-name="Aring" unicode="&#xc5;" horiz-adv-x="787" 
d="M393 738q-49 0 -79.5 28.5t-30.5 74.5q0 45 30.5 73.5t79.5 28.5t79.5 -28.5t30.5 -73.5q0 -46 -30.5 -74.5t-79.5 -28.5zM393 895q-23 0 -37.5 -15t-14.5 -39t14.5 -39t37.5 -15t37.5 15t14.5 39t-14.5 39t-37.5 15zM663 0l-78 184h-383l-79 -184h-103l324 710h99
l324 -710h-104zM237 266h313l-106 248q-37 70 -50 110h-2q-14 -44 -49 -110z" />
    <glyph glyph-name="AE" unicode="&#xc6;" horiz-adv-x="1178" 
d="M652 82h454v-82h-552v166h-333l-121 -166h-110l536 710h573v-82h-447v-223h430v-82h-430v-241zM280 247h274v375z" />
    <glyph glyph-name="Ccedilla" unicode="&#xc7;" horiz-adv-x="804" 
d="M419 64q95 0 158.5 45.5t86.5 129.5l97 -17q-31 -108 -110.5 -171.5t-206.5 -69.5l-20 -30q19 12 51 12q41 0 64.5 -20.5t23.5 -56.5q0 -38 -33 -62t-85 -24q-89 0 -114 62l60 12q12 -28 53 -28q23 0 37 11t14 29q0 19 -13 30t-35 11q-26 0 -45 -16l-43 12l32 58
q-167 7 -259.5 110.5t-92.5 264.5q0 169 102.5 271.5t279.5 102.5q143 0 230 -68t110 -189l-102 -10q-17 87 -80 135.5t-163 48.5q-128 0 -201 -78.5t-73 -211.5q0 -130 74.5 -211.5t202.5 -81.5z" />
    <glyph glyph-name="Egrave" unicode="&#xc8;" horiz-adv-x="723" 
d="M416 756h-90l-132 108h105zM205 82h446v-82h-544v710h537v-82h-439v-223h422v-82h-422v-241z" />
    <glyph glyph-name="Eacute" unicode="&#xc9;" horiz-adv-x="723" 
d="M552 864l-132 -108h-90l117 108h105zM205 82h446v-82h-544v710h537v-82h-439v-223h422v-82h-422v-241z" />
    <glyph glyph-name="Ecircumflex" unicode="&#xca;" horiz-adv-x="723" 
d="M375 828l-80 -72h-95l121 108h109l121 -108h-95zM205 82h446v-82h-544v710h537v-82h-439v-223h422v-82h-422v-241z" />
    <glyph glyph-name="Edieresis" unicode="&#xcb;" horiz-adv-x="723" 
d="M298 858v-102h-106v102h106zM559 858v-102h-106v102h106zM205 82h446v-82h-544v710h537v-82h-439v-223h422v-82h-422v-241z" />
    <glyph glyph-name="Igrave" unicode="&#xcc;" horiz-adv-x="312" 
d="M198 756h-85l-88 108h97zM205 0h-98v710h98v-710z" />
    <glyph glyph-name="Iacute" unicode="&#xcd;" horiz-adv-x="312" 
d="M114 756l76 108h97l-88 -108h-85zM205 0h-98v710h98v-710z" />
    <glyph glyph-name="Icircumflex" unicode="&#xce;" horiz-adv-x="312" 
d="M292 756h-87l-49 71l-48 -71h-87l82 108h107zM205 0h-98v710h98v-710z" />
    <glyph glyph-name="Idieresis" unicode="&#xcf;" horiz-adv-x="312" 
d="M23 756v102h105v-102h-105zM183 756v102h106v-102h-106zM205 0h-98v710h98v-710z" />
    <glyph glyph-name="Eth" unicode="&#xd0;" horiz-adv-x="828" 
d="M412 710q170 0 273.5 -93.5t103.5 -255.5t-104.5 -261.5t-272.5 -99.5h-305v333h-91v74h91v303h305zM411 82q128 0 201 76.5t73 202.5q0 125 -75 196t-204 71h-201v-221h235v-74h-235v-251h206z" />
    <glyph glyph-name="Ntilde" unicode="&#xd1;" horiz-adv-x="860" 
d="M504 751q-41 0 -84.5 26.5t-66.5 26.5q-45 0 -57 -48l-62 11q19 102 121 102q41 0 84.5 -26.5t67.5 -26.5q44 0 56 48l62 -11q-19 -102 -121 -102zM107 0v710h119l392 -524q34 -49 46 -81h2q-2 54 -2 91v514h89v-710h-113l-399 530q-35 52 -45 79h-2q2 -50 2 -87v-522
h-89z" />
    <glyph glyph-name="Ograve" unicode="&#xd2;" horiz-adv-x="846" 
d="M464 756h-90l-132 108h105zM423 -20q-173 0 -278.5 102.5t-105.5 272.5q0 172 105.5 273.5t278.5 101.5q174 0 279.5 -101.5t105.5 -273.5q0 -171 -105.5 -273t-279.5 -102zM423 62q129 0 205 79.5t76 213.5t-76 213.5t-205 79.5t-205 -79.5t-76 -213.5q0 -133 76 -213
t205 -80z" />
    <glyph glyph-name="Oacute" unicode="&#xd3;" horiz-adv-x="846" 
d="M378 756l117 108h105l-132 -108h-90zM423 -20q-173 0 -278.5 102.5t-105.5 272.5q0 172 105.5 273.5t278.5 101.5q174 0 279.5 -101.5t105.5 -273.5q0 -171 -105.5 -273t-279.5 -102zM423 62q129 0 205 79.5t76 213.5t-76 213.5t-205 79.5t-205 -79.5t-76 -213.5
q0 -133 76 -213t205 -80z" />
    <glyph glyph-name="Ocircumflex" unicode="&#xd4;" horiz-adv-x="846" 
d="M599 756h-95l-81 72l-80 -72h-95l121 108h109zM423 -20q-173 0 -278.5 102.5t-105.5 272.5q0 172 105.5 273.5t278.5 101.5q174 0 279.5 -101.5t105.5 -273.5q0 -171 -105.5 -273t-279.5 -102zM423 62q129 0 205 79.5t76 213.5t-76 213.5t-205 79.5t-205 -79.5
t-76 -213.5q0 -133 76 -213t205 -80z" />
    <glyph glyph-name="Otilde" unicode="&#xd5;" horiz-adv-x="846" 
d="M497 751q-41 0 -84.5 26.5t-66.5 26.5q-45 0 -57 -48l-62 11q19 102 121 102q42 0 85 -26.5t67 -26.5q44 0 56 48l62 -11q-19 -102 -121 -102zM423 -20q-173 0 -278.5 102.5t-105.5 272.5q0 172 105.5 273.5t278.5 101.5q174 0 279.5 -101.5t105.5 -273.5
q0 -171 -105.5 -273t-279.5 -102zM423 62q129 0 205 79.5t76 213.5t-76 213.5t-205 79.5t-205 -79.5t-76 -213.5q0 -133 76 -213t205 -80z" />
    <glyph glyph-name="Odieresis" unicode="&#xd6;" horiz-adv-x="846" 
d="M240 756v102h106v-102h-106zM501 756v102h106v-102h-106zM423 -20q-173 0 -278.5 102.5t-105.5 272.5q0 172 105.5 273.5t278.5 101.5q174 0 279.5 -101.5t105.5 -273.5q0 -171 -105.5 -273t-279.5 -102zM423 62q129 0 205 79.5t76 213.5t-76 213.5t-205 79.5t-205 -79.5
t-76 -213.5q0 -133 76 -213t205 -80z" />
    <glyph glyph-name="multiply" unicode="&#xd7;" 
d="M607 513l-199 -186l199 -186l-57 -57l-201 188l-202 -188l-57 57l199 186l-199 186l57 57l201 -188l201 188z" />
    <glyph glyph-name="Oslash" unicode="&#xd8;" horiz-adv-x="846" 
d="M719 611q89 -98 89 -256q0 -171 -105.5 -273t-279.5 -102q-144 0 -243 73l-67 -69l-52 45l68 70q-90 99 -90 256q0 172 105.5 273.5t278.5 101.5q145 0 245 -72l64 66l53 -44zM142 355q0 -112 54 -186l407 422q-71 57 -180 57q-129 0 -205 -79.5t-76 -213.5zM423 62
q129 0 205 79.5t76 213.5q0 111 -53 186l-408 -422q72 -57 180 -57z" />
    <glyph glyph-name="Ugrave" unicode="&#xd9;" horiz-adv-x="824" 
d="M453 756h-90l-132 108h105zM86 710h98v-424q0 -98 61 -159.5t167 -61.5t166.5 61.5t60.5 159.5v424h99v-429q0 -135 -86 -218t-240 -83t-240 83t-86 218v429z" />
    <glyph glyph-name="Uacute" unicode="&#xda;" horiz-adv-x="824" 
d="M367 756l117 108h105l-132 -108h-90zM86 710h98v-424q0 -98 61 -159.5t167 -61.5t166.5 61.5t60.5 159.5v424h99v-429q0 -135 -86 -218t-240 -83t-240 83t-86 218v429z" />
    <glyph glyph-name="Ucircumflex" unicode="&#xdb;" horiz-adv-x="824" 
d="M588 756h-95l-81 72l-80 -72h-95l121 108h109zM86 710h98v-424q0 -98 61 -159.5t167 -61.5t166.5 61.5t60.5 159.5v424h99v-429q0 -135 -86 -218t-240 -83t-240 83t-86 218v429z" />
    <glyph glyph-name="Udieresis" unicode="&#xdc;" horiz-adv-x="824" 
d="M229 756v102h106v-102h-106zM490 756v102h106v-102h-106zM86 710h98v-424q0 -98 61 -159.5t167 -61.5t166.5 61.5t60.5 159.5v424h99v-429q0 -135 -86 -218t-240 -83t-240 83t-86 218v429z" />
    <glyph glyph-name="Yacute" unicode="&#xdd;" horiz-adv-x="694" 
d="M302 756l117 108h105l-132 -108h-90zM296 0v271l-296 439h115l211 -318q15 -24 19 -39h2q4 15 19 39l213 318h115l-299 -439v-271h-99z" />
    <glyph glyph-name="Thorn" unicode="&#xde;" horiz-adv-x="671" 
d="M413 579q109 0 172 -55.5t63 -151.5q0 -94 -64 -151t-171 -57h-208v-164h-98v710h98v-131h208zM403 246q66 0 103 34t37 92t-37 91.5t-103 33.5h-198v-251h198z" />
    <glyph glyph-name="germandbls" unicode="&#xdf;" horiz-adv-x="695" 
d="M96 504q0 111 68.5 172t194.5 61q115 0 181 -47t66 -132q0 -67 -40 -110t-110 -53q95 -10 145.5 -58t50.5 -130q0 -105 -72.5 -160.5t-208.5 -55.5q-53 0 -106 10v71q48 -9 99 -9q196 0 196 142q0 144 -212 148h-86v71h77q172 4 172 128q0 55 -40.5 85t-115.5 30
q-171 0 -171 -166v-501h-88v504z" />
    <glyph glyph-name="agrave" unicode="&#xe0;" horiz-adv-x="655" 
d="M373 580h-87l-146 146h111zM253 -15q-93 0 -148 40t-55 108q0 75 62 114q58 35 186 46l186 14v9q0 128 -155 128q-73 0 -116 -27t-50 -78h-96q8 79 79 127.5t183 48.5q123 0 183.5 -51.5t60.5 -157.5v-132q0 -113 15 -174h-92q-6 35 -8 97q-59 -112 -235 -112zM277 55
q93 0 150.5 45t57.5 119v25l-203 -19q-76 -8 -107 -29t-31 -61q0 -38 34.5 -59t98.5 -21z" />
    <glyph glyph-name="aacute" unicode="&#xe1;" horiz-adv-x="655" 
d="M288 580l122 146h111l-146 -146h-87zM253 -15q-93 0 -148 40t-55 108q0 75 62 114q58 35 186 46l186 14v9q0 128 -155 128q-73 0 -116 -27t-50 -78h-96q8 79 79 127.5t183 48.5q123 0 183.5 -51.5t60.5 -157.5v-132q0 -113 15 -174h-92q-6 35 -8 97q-59 -112 -235 -112z
M277 55q93 0 150.5 45t57.5 119v25l-203 -19q-76 -8 -107 -29t-31 -61q0 -38 34.5 -59t98.5 -21z" />
    <glyph glyph-name="acircumflex" unicode="&#xe2;" horiz-adv-x="655" 
d="M510 580h-86l-94 104l-94 -104h-86l131 146h98zM253 -15q-93 0 -148 40t-55 108q0 75 62 114q58 35 186 46l186 14v9q0 128 -155 128q-73 0 -116 -27t-50 -78h-96q8 79 79 127.5t183 48.5q123 0 183.5 -51.5t60.5 -157.5v-132q0 -113 15 -174h-92q-6 35 -8 97
q-59 -112 -235 -112zM277 55q93 0 150.5 45t57.5 119v25l-203 -19q-76 -8 -107 -29t-31 -61q0 -38 34.5 -59t98.5 -21z" />
    <glyph glyph-name="atilde" unicode="&#xe3;" horiz-adv-x="655" 
d="M414 586q-37 0 -67 17t-55 34t-49 17q-48 0 -63 -59l-61 11q10 55 42.5 85t83.5 30q46 0 95 -34t76 -34q48 0 63 59l61 -11q-9 -54 -42 -84.5t-84 -30.5zM253 -15q-93 0 -148 40t-55 108q0 75 62 114q58 35 186 46l186 14v9q0 128 -155 128q-73 0 -116 -27t-50 -78h-96
q8 79 79 127.5t183 48.5q123 0 183.5 -51.5t60.5 -157.5v-132q0 -113 15 -174h-92q-6 35 -8 97q-59 -112 -235 -112zM277 55q93 0 150.5 45t57.5 119v25l-203 -19q-76 -8 -107 -29t-31 -61q0 -38 34.5 -59t98.5 -21z" />
    <glyph glyph-name="adieresis" unicode="&#xe4;" horiz-adv-x="655" 
d="M151 596v108h106v-108h-106zM403 596v108h106v-108h-106zM253 -15q-93 0 -148 40t-55 108q0 75 62 114q58 35 186 46l186 14v9q0 128 -155 128q-73 0 -116 -27t-50 -78h-96q8 79 79 127.5t183 48.5q123 0 183.5 -51.5t60.5 -157.5v-132q0 -113 15 -174h-92q-6 35 -8 97
q-59 -112 -235 -112zM277 55q93 0 150.5 45t57.5 119v25l-203 -19q-76 -8 -107 -29t-31 -61q0 -38 34.5 -59t98.5 -21z" />
    <glyph glyph-name="aring" unicode="&#xe5;" horiz-adv-x="655" 
d="M330 557q-59 0 -94.5 28t-35.5 74t35.5 74t94.5 28q58 0 93.5 -28t35.5 -74t-35.5 -74t-93.5 -28zM330 603q33 0 52.5 15t19.5 41q0 25 -19.5 40t-52.5 15t-52.5 -15t-19.5 -40q0 -26 19.5 -41t52.5 -15zM253 -15q-93 0 -148 40t-55 108q0 75 62 114q58 35 186 46l186 14
v9q0 128 -155 128q-73 0 -116 -27t-50 -78h-96q8 79 79 127.5t183 48.5q123 0 183.5 -51.5t60.5 -157.5v-132q0 -113 15 -174h-92q-6 35 -8 97q-59 -112 -235 -112zM277 55q93 0 150.5 45t57.5 119v25l-203 -19q-76 -8 -107 -29t-31 -61q0 -38 34.5 -59t98.5 -21z" />
    <glyph glyph-name="ae" unicode="&#xe6;" horiz-adv-x="1046" 
d="M997 266v-41h-434q2 -76 51 -120t132 -44q124 0 172 100l74 -34q-70 -142 -249 -142q-175 0 -237 128q-65 -128 -252 -128q-96 0 -150 38.5t-54 107.5q0 136 209 151l214 12v19q0 130 -152 130q-74 0 -115.5 -28t-46.5 -80h-92q9 85 76 132.5t179 47.5q151 0 206 -92
q67 92 211 92q121 0 189.5 -66t68.5 -183zM905 295q1 70 -45.5 111.5t-120.5 41.5q-76 0 -124 -41t-52 -112h342zM474 215v16l-197 -12q-71 -5 -102 -26t-31 -61q0 -35 33 -55.5t92 -20.5q87 0 146 41t59 118z" />
    <glyph glyph-name="ccedilla" unicode="&#xe7;" horiz-adv-x="629" 
d="M325 61q137 0 173 119l87 -14q-17 -79 -78.5 -126.5t-155.5 -53.5l-24 -35q19 12 51 12q41 0 64.5 -20.5t23.5 -56.5q0 -38 -33 -62t-85 -24q-89 0 -114 62l60 12q12 -28 53 -28q23 0 37 11t14 29q0 19 -13 30t-35 11q-26 0 -45 -16l-43 12l35 63q-117 8 -186 79t-69 185
q0 122 76.5 193.5t206.5 71.5q224 0 261 -185l-93 -11q-27 120 -170 120q-89 0 -138 -49.5t-49 -138.5q0 -90 50 -140t139 -50z" />
    <glyph glyph-name="egrave" unicode="&#xe8;" horiz-adv-x="643" 
d="M363 580h-87l-146 146h111zM594 274v-50h-462q2 -75 54.5 -119t142.5 -44q135 0 185 99l74 -34q-73 -141 -263 -141q-132 0 -207.5 68t-75.5 191q0 128 75.5 199.5t203.5 71.5q129 0 201 -63t72 -178zM503 293v7q-1 70 -51 109t-132 39q-83 0 -133.5 -42t-54.5 -113h371z
" />
    <glyph glyph-name="eacute" unicode="&#xe9;" horiz-adv-x="643" 
d="M511 726l-146 -146h-87l122 146h111zM594 274v-50h-462q2 -75 54.5 -119t142.5 -44q135 0 185 99l74 -34q-73 -141 -263 -141q-132 0 -207.5 68t-75.5 191q0 128 75.5 199.5t203.5 71.5q129 0 201 -63t72 -178zM503 293v7q-1 70 -51 109t-132 39q-83 0 -133.5 -42
t-54.5 -113h371z" />
    <glyph glyph-name="ecircumflex" unicode="&#xea;" horiz-adv-x="643" 
d="M320 684l-94 -104h-86l131 146h98l131 -146h-86zM594 274v-50h-462q2 -75 54.5 -119t142.5 -44q135 0 185 99l74 -34q-73 -141 -263 -141q-132 0 -207.5 68t-75.5 191q0 128 75.5 199.5t203.5 71.5q129 0 201 -63t72 -178zM503 293v7q-1 70 -51 109t-132 39
q-83 0 -133.5 -42t-54.5 -113h371z" />
    <glyph glyph-name="edieresis" unicode="&#xeb;" horiz-adv-x="643" 
d="M247 704v-108h-106v108h106zM499 704v-108h-106v108h106zM594 274v-50h-462q2 -75 54.5 -119t142.5 -44q135 0 185 99l74 -34q-73 -141 -263 -141q-132 0 -207.5 68t-75.5 191q0 128 75.5 199.5t203.5 71.5q129 0 201 -63t72 -178zM503 293v7q-1 70 -51 109t-132 39
q-83 0 -133.5 -42t-54.5 -113h371z" />
    <glyph glyph-name="igrave" unicode="&#xec;" horiz-adv-x="282" 
d="M181 580h-82l-88 146h96zM97 0v500h88v-500h-88z" />
    <glyph glyph-name="iacute" unicode="&#xed;" horiz-adv-x="282" 
d="M101 580l74 146h96l-88 -146h-82zM97 0v500h88v-500h-88z" />
    <glyph glyph-name="icircumflex" unicode="&#xee;" horiz-adv-x="282" 
d="M264 580h-75l-48 104l-48 -104h-75l78 147h90zM97 0v500h88v-500h-88z" />
    <glyph glyph-name="idieresis" unicode="&#xef;" horiz-adv-x="282" 
d="M11 596v108h106v-108h-106zM166 596v108h105v-108h-105zM97 0v500h88v-500h-88z" />
    <glyph glyph-name="eth" unicode="&#xf0;" horiz-adv-x="661" 
d="M477 611q134 -140 134 -349q0 -126 -78.5 -201.5t-210.5 -75.5q-131 0 -205 70.5t-74 192.5q0 120 73.5 190.5t199.5 70.5q124 0 184 -93h2q-21 94 -110 172l-170 -47l-18 46l139 38q-57 37 -116 57l55 56q85 -34 152 -87l105 29l18 -47zM325 62q93 0 145 49t52 137
q0 89 -53 139t-144 50q-89 0 -139 -50.5t-50 -138.5q0 -87 49.5 -136.5t139.5 -49.5z" />
    <glyph glyph-name="ntilde" unicode="&#xf1;" 
d="M477 586q-37 0 -67 17t-55 34t-49 17q-48 0 -63 -59l-61 11q10 55 42.5 85t83.5 30q46 0 95 -34t76 -34q48 0 63 59l61 -11q-9 -54 -42 -84.5t-84 -30.5zM97 0v500h85v-109q62 125 218 125q107 0 163 -59t56 -173v-284h-88v271q0 168 -159 168q-86 0 -136.5 -52
t-50.5 -141v-246h-88z" />
    <glyph glyph-name="ograve" unicode="&#xf2;" horiz-adv-x="656" 
d="M371 580h-87l-146 146h111zM328 -15q-129 0 -207.5 72t-78.5 193t78.5 193t207.5 72t207 -72t78 -193t-78 -193t-207 -72zM328 61q89 0 140.5 49.5t51.5 139.5t-51.5 139.5t-140.5 49.5t-140.5 -49.5t-51.5 -139.5t51.5 -139.5t140.5 -49.5z" />
    <glyph glyph-name="oacute" unicode="&#xf3;" horiz-adv-x="656" 
d="M286 580l122 146h111l-146 -146h-87zM328 -15q-129 0 -207.5 72t-78.5 193t78.5 193t207.5 72t207 -72t78 -193t-78 -193t-207 -72zM328 61q89 0 140.5 49.5t51.5 139.5t-51.5 139.5t-140.5 49.5t-140.5 -49.5t-51.5 -139.5t51.5 -139.5t140.5 -49.5z" />
    <glyph glyph-name="ocircumflex" unicode="&#xf4;" horiz-adv-x="656" 
d="M508 580h-86l-94 104l-94 -104h-86l131 146h98zM328 -15q-129 0 -207.5 72t-78.5 193t78.5 193t207.5 72t207 -72t78 -193t-78 -193t-207 -72zM328 61q89 0 140.5 49.5t51.5 139.5t-51.5 139.5t-140.5 49.5t-140.5 -49.5t-51.5 -139.5t51.5 -139.5t140.5 -49.5z" />
    <glyph glyph-name="otilde" unicode="&#xf5;" horiz-adv-x="656" 
d="M412 586q-37 0 -67 17t-55 34t-49 17q-48 0 -63 -59l-61 11q10 55 42.5 85t83.5 30q46 0 95 -34t76 -34q48 0 63 59l61 -11q-9 -54 -42 -84.5t-84 -30.5zM328 -15q-129 0 -207.5 72t-78.5 193t78.5 193t207.5 72t207 -72t78 -193t-78 -193t-207 -72zM328 61
q89 0 140.5 49.5t51.5 139.5t-51.5 139.5t-140.5 49.5t-140.5 -49.5t-51.5 -139.5t51.5 -139.5t140.5 -49.5z" />
    <glyph glyph-name="odieresis" unicode="&#xf6;" horiz-adv-x="656" 
d="M149 596v108h106v-108h-106zM401 596v108h106v-108h-106zM328 -15q-129 0 -207.5 72t-78.5 193t78.5 193t207.5 72t207 -72t78 -193t-78 -193t-207 -72zM328 61q89 0 140.5 49.5t51.5 139.5t-51.5 139.5t-140.5 49.5t-140.5 -49.5t-51.5 -139.5t51.5 -139.5t140.5 -49.5z
" />
    <glyph glyph-name="divide" unicode="&#xf7;" horiz-adv-x="616" 
d="M306 458q-23 0 -38 14.5t-15 37.5t15 38t38 15t38 -14.5t15 -38.5q0 -23 -15 -37.5t-38 -14.5zM53 287v78h510v-78h-510zM306 89q-23 0 -38 15t-15 38t15 37.5t38 14.5t38 -14.5t15 -37.5t-15 -38t-38 -15z" />
    <glyph glyph-name="oslash" unicode="&#xf8;" horiz-adv-x="656" 
d="M549 428q64 -70 64 -178q0 -121 -78 -193t-207 -72q-105 0 -180 50l-55 -54l-41 36l55 54q-65 70 -65 179q0 121 78.5 193t207.5 72q106 0 179 -50l54 53l43 -36zM136 250q0 -71 33 -118l279 275q-49 32 -120 32q-89 0 -140.5 -49.5t-51.5 -139.5zM328 61
q89 0 140.5 49.5t51.5 139.5q0 69 -33 118l-279 -274q46 -33 120 -33z" />
    <glyph glyph-name="ugrave" unicode="&#xf9;" horiz-adv-x="687" 
d="M377 580h-87l-146 146h111zM296 -15q-218 0 -218 223v292h89v-283q0 -82 41 -119.5t105 -37.5q91 0 140 55.5t49 135.5v249h89v-500h-86v112q-24 -59 -80 -93t-129 -34z" />
    <glyph glyph-name="uacute" unicode="&#xfa;" horiz-adv-x="687" 
d="M292 580l122 146h111l-146 -146h-87zM296 -15q-218 0 -218 223v292h89v-283q0 -82 41 -119.5t105 -37.5q91 0 140 55.5t49 135.5v249h89v-500h-86v112q-24 -59 -80 -93t-129 -34z" />
    <glyph glyph-name="ucircumflex" unicode="&#xfb;" horiz-adv-x="687" 
d="M514 580h-86l-94 104l-94 -104h-86l131 146h98zM296 -15q-218 0 -218 223v292h89v-283q0 -82 41 -119.5t105 -37.5q91 0 140 55.5t49 135.5v249h89v-500h-86v112q-24 -59 -80 -93t-129 -34z" />
    <glyph glyph-name="udieresis" unicode="&#xfc;" horiz-adv-x="687" 
d="M155 596v108h106v-108h-106zM407 596v108h106v-108h-106zM296 -15q-218 0 -218 223v292h89v-283q0 -82 41 -119.5t105 -37.5q91 0 140 55.5t49 135.5v249h89v-500h-86v112q-24 -59 -80 -93t-129 -34z" />
    <glyph glyph-name="yacute" unicode="&#xfd;" horiz-adv-x="579" 
d="M248 580l122 146h111l-146 -146h-87zM98 -203q-28 0 -52 4v78q24 -3 43 -3q113 0 153 100l11 27l-247 497h102l173 -367q10 -25 16 -47h1q12 37 16 47l162 367h98l-244 -532q-42 -92 -97.5 -131.5t-134.5 -39.5z" />
    <glyph glyph-name="thorn" unicode="&#xfe;" horiz-adv-x="704" 
d="M102 -195v920h88v-317q31 52 87.5 79.5t128.5 27.5q116 0 185.5 -74.5t69.5 -190.5q0 -114 -71.5 -189.5t-185.5 -75.5q-69 0 -126.5 26t-87.5 71v-277h-88zM378 62q87 0 138.5 52.5t51.5 135.5t-50 135.5t-136 52.5q-88 0 -141 -48t-53 -126v-26q0 -80 51.5 -128
t138.5 -48z" />
    <glyph glyph-name="ydieresis" unicode="&#xff;" horiz-adv-x="579" 
d="M111 596v108h106v-108h-106zM363 596v108h106v-108h-106zM98 -203q-28 0 -52 4v78q24 -3 43 -3q113 0 153 100l11 27l-247 497h102l173 -367q10 -25 16 -47h1q12 37 16 47l162 367h98l-244 -532q-42 -92 -97.5 -131.5t-134.5 -39.5z" />
    <glyph glyph-name="Amacron" unicode="&#x100;" horiz-adv-x="787" 
d="M569 831v-66h-352v66h352zM663 0l-78 184h-383l-79 -184h-103l324 710h99l324 -710h-104zM237 266h313l-106 248q-37 70 -50 110h-2q-14 -44 -49 -110z" />
    <glyph glyph-name="amacron" unicode="&#x101;" horiz-adv-x="655" 
d="M146 612v66h369v-66h-369zM253 -15q-93 0 -148 40t-55 108q0 75 62 114q58 35 186 46l186 14v9q0 128 -155 128q-73 0 -116 -27t-50 -78h-96q8 79 79 127.5t183 48.5q123 0 183.5 -51.5t60.5 -157.5v-132q0 -113 15 -174h-92q-6 35 -8 97q-59 -112 -235 -112zM277 55
q93 0 150.5 45t57.5 119v25l-203 -19q-76 -8 -107 -29t-31 -61q0 -38 34.5 -59t98.5 -21z" />
    <glyph glyph-name="Abreve" unicode="&#x102;" horiz-adv-x="787" 
d="M393 751q-71 0 -115.5 29.5t-49.5 83.5h74q8 -54 91 -54t91 54h74q-5 -54 -49.5 -83.5t-115.5 -29.5zM663 0l-78 184h-383l-79 -184h-103l324 710h99l324 -710h-104zM237 266h313l-106 248q-37 70 -50 110h-2q-14 -44 -49 -110z" />
    <glyph glyph-name="abreve" unicode="&#x103;" horiz-adv-x="655" 
d="M235 726q2 -46 27 -69t68 -23q89 0 95 92h73q-4 -75 -49.5 -113t-118.5 -38q-74 0 -119.5 38t-49.5 113h74zM253 -15q-93 0 -148 40t-55 108q0 75 62 114q58 35 186 46l186 14v9q0 128 -155 128q-73 0 -116 -27t-50 -78h-96q8 79 79 127.5t183 48.5q123 0 183.5 -51.5
t60.5 -157.5v-132q0 -113 15 -174h-92q-6 35 -8 97q-59 -112 -235 -112zM277 55q93 0 150.5 45t57.5 119v25l-203 -19q-76 -8 -107 -29t-31 -61q0 -38 34.5 -59t98.5 -21z" />
    <glyph glyph-name="Aogonek" unicode="&#x104;" horiz-adv-x="787" 
d="M718 -102l60 -11q-19 -89 -119 -89q-49 0 -78.5 24.5t-29.5 63.5q0 81 110 119l-76 179h-383l-79 -184h-103l324 710h99l324 -710h-20q-64 -14 -96 -43t-32 -62q0 -21 12.5 -33t32.5 -12q40 0 54 48zM237 266h313l-106 248q-37 70 -50 110h-2q-14 -44 -49 -110z" />
    <glyph glyph-name="aogonek" unicode="&#x105;" horiz-adv-x="655" 
d="M551 -102l60 -11q-19 -89 -119 -89q-49 0 -78.5 24.5t-29.5 63.5q0 82 111 119q-5 36 -7 92q-59 -112 -235 -112q-93 0 -148 40t-55 108q0 75 62 114q58 35 186 46l186 14v9q0 128 -155 128q-73 0 -116 -27t-50 -78h-96q8 79 79 127.5t183 48.5q123 0 183.5 -51.5
t60.5 -157.5v-132q0 -113 15 -174h-8q-64 -14 -96 -43t-32 -62q0 -21 12.5 -33t32.5 -12q41 0 54 48zM485 219v25l-203 -19q-76 -8 -107 -29t-31 -61q0 -38 34.5 -59t98.5 -21q93 0 150.5 45t57.5 119z" />
    <glyph glyph-name="Cacute" unicode="&#x106;" horiz-adv-x="804" 
d="M373 756l117 108h105l-132 -108h-90zM417 -20q-179 0 -278.5 104.5t-99.5 271.5q0 169 102.5 271.5t279.5 102.5q143 0 230 -68t110 -189l-102 -10q-17 87 -80 135.5t-163 48.5q-128 0 -201 -78.5t-73 -211.5q0 -130 74.5 -211.5t202.5 -81.5q95 0 158.5 45.5t86.5 129.5
l97 -17q-33 -113 -119 -177.5t-225 -64.5z" />
    <glyph glyph-name="cacute" unicode="&#x107;" horiz-adv-x="629" 
d="M272 580l122 146h111l-146 -146h-87zM323 -15q-128 0 -204.5 72t-76.5 193q0 122 76.5 193.5t206.5 71.5q224 0 261 -185l-93 -11q-27 120 -170 120q-89 0 -138 -49.5t-49 -138.5q0 -90 50 -140t139 -50q137 0 173 119l87 -14q-19 -85 -88 -133t-174 -48z" />
    <glyph glyph-name="Ccircumflex" unicode="&#x108;" horiz-adv-x="804" 
d="M594 756h-95l-81 72l-80 -72h-95l121 108h109zM417 -20q-179 0 -278.5 104.5t-99.5 271.5q0 169 102.5 271.5t279.5 102.5q143 0 230 -68t110 -189l-102 -10q-17 87 -80 135.5t-163 48.5q-128 0 -201 -78.5t-73 -211.5q0 -130 74.5 -211.5t202.5 -81.5q95 0 158.5 45.5
t86.5 129.5l97 -17q-33 -113 -119 -177.5t-225 -64.5z" />
    <glyph glyph-name="ccircumflex" unicode="&#x109;" horiz-adv-x="629" 
d="M494 580h-86l-94 104l-94 -104h-86l131 146h98zM323 -15q-128 0 -204.5 72t-76.5 193q0 122 76.5 193.5t206.5 71.5q224 0 261 -185l-93 -11q-27 120 -170 120q-89 0 -138 -49.5t-49 -138.5q0 -90 50 -140t139 -50q137 0 173 119l87 -14q-19 -85 -88 -133t-174 -48z" />
    <glyph glyph-name="Cdotaccent" unicode="&#x10a;" horiz-adv-x="804" 
d="M364 756v108h109v-108h-109zM417 -20q-179 0 -278.5 104.5t-99.5 271.5q0 169 102.5 271.5t279.5 102.5q143 0 230 -68t110 -189l-102 -10q-17 87 -80 135.5t-163 48.5q-128 0 -201 -78.5t-73 -211.5q0 -130 74.5 -211.5t202.5 -81.5q95 0 158.5 45.5t86.5 129.5l97 -17
q-33 -113 -119 -177.5t-225 -64.5z" />
    <glyph glyph-name="cdotaccent" unicode="&#x10b;" horiz-adv-x="629" 
d="M262 592v111h103v-111h-103zM323 -15q-128 0 -204.5 72t-76.5 193q0 122 76.5 193.5t206.5 71.5q224 0 261 -185l-93 -11q-27 120 -170 120q-89 0 -138 -49.5t-49 -138.5q0 -90 50 -140t139 -50q137 0 173 119l87 -14q-19 -85 -88 -133t-174 -48z" />
    <glyph glyph-name="Ccaron" unicode="&#x10c;" horiz-adv-x="804" 
d="M594 860l-121 -108h-109l-121 108h95l80 -72l81 72h95zM417 -20q-179 0 -278.5 104.5t-99.5 271.5q0 169 102.5 271.5t279.5 102.5q143 0 230 -68t110 -189l-102 -10q-17 87 -80 135.5t-163 48.5q-128 0 -201 -78.5t-73 -211.5q0 -130 74.5 -211.5t202.5 -81.5
q95 0 158.5 45.5t86.5 129.5l97 -17q-33 -113 -119 -177.5t-225 -64.5z" />
    <glyph glyph-name="ccaron" unicode="&#x10d;" horiz-adv-x="629" 
d="M134 721h86l94 -104l94 104h86l-131 -146h-98zM323 -15q-128 0 -204.5 72t-76.5 193q0 122 76.5 193.5t206.5 71.5q224 0 261 -185l-93 -11q-27 120 -170 120q-89 0 -138 -49.5t-49 -138.5q0 -90 50 -140t139 -50q137 0 173 119l87 -14q-19 -85 -88 -133t-174 -48z" />
    <glyph glyph-name="Dcaron" unicode="&#x10e;" horiz-adv-x="828" 
d="M582 860l-121 -108h-109l-121 108h95l80 -72l81 72h95zM107 0v710h305q170 0 273.5 -93.5t103.5 -255.5t-104.5 -261.5t-272.5 -99.5h-305zM205 82h206q128 0 201 76.5t73 202.5q0 125 -75 196t-204 71h-201v-546z" />
    <glyph glyph-name="dcaron" unicode="&#x10f;" horiz-adv-x="704" 
d="M300 -15q-113 0 -185 73.5t-72 191.5q0 117 73.5 191t191.5 74q138 0 206 -99v309h88v-725h-85v97q-64 -112 -217 -112zM680 531l-19 34q29 9 39 21.5t10 35.5h-56v88h102v-75q0 -43 -17 -67t-59 -37zM324 62q86 0 139 48t53 127v23q0 81 -54 130t-142 49
q-86 0 -135 -50.5t-49 -138.5t50.5 -138t137.5 -50z" />
    <glyph glyph-name="Dcroat" unicode="&#x110;" horiz-adv-x="828" 
d="M412 710q170 0 273.5 -93.5t103.5 -255.5t-104.5 -261.5t-272.5 -99.5h-305v333h-91v74h91v303h305zM411 82q128 0 201 76.5t73 202.5q0 125 -75 196t-204 71h-201v-221h235v-74h-235v-251h206z" />
    <glyph glyph-name="dcroat" unicode="&#x111;" horiz-adv-x="704" 
d="M711 641v-54h-109v-587h-85v97q-64 -112 -217 -112q-113 0 -185 73.5t-72 191.5q0 117 73.5 191t191.5 74q138 0 206 -99v171h-214v54h214v84h88v-84h109zM516 237v23q0 81 -54 130t-142 49q-86 0 -135 -50.5t-49 -138.5t50.5 -138t137.5 -50q86 0 139 48t53 127z" />
    <glyph glyph-name="Emacron" unicode="&#x112;" horiz-adv-x="723" 
d="M551 831v-66h-352v66h352zM205 82h446v-82h-544v710h537v-82h-439v-223h422v-82h-422v-241z" />
    <glyph glyph-name="emacron" unicode="&#x113;" horiz-adv-x="643" 
d="M505 678v-66h-369v66h369zM594 274v-50h-462q2 -75 54.5 -119t142.5 -44q135 0 185 99l74 -34q-73 -141 -263 -141q-132 0 -207.5 68t-75.5 191q0 128 75.5 199.5t203.5 71.5q129 0 201 -63t72 -178zM503 293v7q-1 70 -51 109t-132 39q-83 0 -133.5 -42t-54.5 -113h371z
" />
    <glyph glyph-name="Ebreve" unicode="&#x114;" horiz-adv-x="723" 
d="M375 751q-71 0 -115.5 29.5t-49.5 83.5h74q8 -54 91 -54t91 54h74q-5 -54 -49.5 -83.5t-115.5 -29.5zM205 82h446v-82h-544v710h537v-82h-439v-223h422v-82h-422v-241z" />
    <glyph glyph-name="ebreve" unicode="&#x115;" horiz-adv-x="643" 
d="M320 575q-74 0 -119.5 38t-49.5 113h74q2 -46 27 -69t68 -23q89 0 95 92h73q-4 -75 -49.5 -113t-118.5 -38zM594 274v-50h-462q2 -75 54.5 -119t142.5 -44q135 0 185 99l74 -34q-73 -141 -263 -141q-132 0 -207.5 68t-75.5 191q0 128 75.5 199.5t203.5 71.5
q129 0 201 -63t72 -178zM503 293v7q-1 70 -51 109t-132 39q-83 0 -133.5 -42t-54.5 -113h371z" />
    <glyph glyph-name="Edotaccent" unicode="&#x116;" horiz-adv-x="723" 
d="M430 864v-108h-109v108h109zM205 82h446v-82h-544v710h537v-82h-439v-223h422v-82h-422v-241z" />
    <glyph glyph-name="edotaccent" unicode="&#x117;" horiz-adv-x="643" 
d="M371 703v-111h-103v111h103zM594 274v-50h-462q2 -75 54.5 -119t142.5 -44q135 0 185 99l74 -34q-73 -141 -263 -141q-132 0 -207.5 68t-75.5 191q0 128 75.5 199.5t203.5 71.5q129 0 201 -63t72 -178zM503 293v7q-1 70 -51 109t-132 39q-83 0 -133.5 -42t-54.5 -113h371
z" />
    <glyph glyph-name="Eogonek" unicode="&#x118;" horiz-adv-x="723" 
d="M623 -102l60 -11q-19 -89 -119 -89q-49 0 -78.5 24.5t-29.5 63.5q0 77 97 114h-446v710h537v-82h-439v-223h422v-82h-422v-241h446v-82h1q-64 -14 -96 -43t-32 -62q0 -21 12.5 -33t32.5 -12q41 0 54 48z" />
    <glyph glyph-name="eogonek" unicode="&#x119;" horiz-adv-x="643" 
d="M594 274v-50h-462q2 -75 54.5 -119t142.5 -44q135 0 185 99l74 -34q-48 -94 -152 -126h1l-4 -1q-5 -2 -17 -4q-54 -16 -80.5 -43t-26.5 -57q0 -21 12.5 -33t32.5 -12q40 0 54 48l60 -11q-19 -89 -119 -89q-49 0 -78.5 24.5t-29.5 63.5q0 62 66 99q-124 5 -194.5 73
t-70.5 186q0 128 75.5 199.5t203.5 71.5q129 0 201 -63t72 -178zM503 293v7q-1 70 -51 109t-132 39q-83 0 -133.5 -42t-54.5 -113h371z" />
    <glyph glyph-name="Ecaron" unicode="&#x11a;" horiz-adv-x="723" 
d="M430 752h-109l-121 108h95l80 -72l81 72h95zM205 82h446v-82h-544v710h537v-82h-439v-223h422v-82h-422v-241z" />
    <glyph glyph-name="ecaron" unicode="&#x11b;" horiz-adv-x="643" 
d="M369 575h-98l-131 146h86l94 -104l94 104h86zM594 274v-50h-462q2 -75 54.5 -119t142.5 -44q135 0 185 99l74 -34q-73 -141 -263 -141q-132 0 -207.5 68t-75.5 191q0 128 75.5 199.5t203.5 71.5q129 0 201 -63t72 -178zM503 293v7q-1 70 -51 109t-132 39
q-83 0 -133.5 -42t-54.5 -113h371z" />
    <glyph glyph-name="Gcircumflex" unicode="&#x11c;" horiz-adv-x="835" 
d="M602 756h-95l-81 72l-80 -72h-95l121 108h109zM405 -20q-167 0 -266.5 104t-99.5 271q0 169 103 272t281 103q142 0 227 -65.5t107 -156.5l-99 -16q-17 65 -78.5 110.5t-161.5 45.5q-129 0 -204 -80.5t-75 -213.5q0 -129 74.5 -210.5t205.5 -81.5q127 0 192.5 68.5
t65.5 150.5v9h-260v82h348v-372h-73l-11 120q-35 -65 -107.5 -102.5t-168.5 -37.5z" />
    <glyph glyph-name="gcircumflex" unicode="&#x11d;" horiz-adv-x="637" 
d="M317 684l-94 -92h-86l131 134h98l131 -134h-86zM571 506q-63 0 -81 -43q56 -47 56 -121q0 -78 -62 -126t-168 -48q-74 0 -126 24q-46 -16 -46 -51q0 -50 85 -50h197q178 0 178 -139q0 -162 -292 -162q-273 0 -273 138q0 77 84 103q-60 25 -60 85q0 73 84 101
q-62 47 -62 125t62 125.5t169 47.5q74 0 129 -25q11 43 44 67.5t86 24.5q17 0 36 -4v-76q-15 4 -40 4zM316 233q66 0 105 30t39 79t-39 78t-105 29q-67 0 -105.5 -28.5t-38.5 -78.5q0 -49 39 -79t105 -30zM409 14h-183q-26 0 -47 3q-56 -24 -56 -74q0 -82 194 -82
q200 0 200 85q0 68 -108 68z" />
    <glyph glyph-name="Gbreve" unicode="&#x11e;" horiz-adv-x="835" 
d="M335 864q8 -54 91 -54t91 54h74q-5 -54 -49.5 -83.5t-115.5 -29.5t-115.5 29.5t-49.5 83.5h74zM405 -20q-167 0 -266.5 104t-99.5 271q0 169 103 272t281 103q142 0 227 -65.5t107 -156.5l-99 -16q-17 65 -78.5 110.5t-161.5 45.5q-129 0 -204 -80.5t-75 -213.5
q0 -129 74.5 -210.5t205.5 -81.5q127 0 192.5 68.5t65.5 150.5v9h-260v82h348v-372h-73l-11 120q-35 -65 -107.5 -102.5t-168.5 -37.5z" />
    <glyph glyph-name="gbreve" unicode="&#x11f;" horiz-adv-x="637" 
d="M317 575q-74 0 -119.5 38t-49.5 113h74q2 -46 27 -69t68 -23q89 0 95 92h73q-4 -75 -49.5 -113t-118.5 -38zM571 506q-63 0 -81 -43q56 -47 56 -121q0 -78 -62 -126t-168 -48q-74 0 -126 24q-46 -16 -46 -51q0 -50 85 -50h197q178 0 178 -139q0 -162 -292 -162
q-273 0 -273 138q0 77 84 103q-60 25 -60 85q0 73 84 101q-62 47 -62 125t62 125.5t169 47.5q74 0 129 -25q11 43 44 67.5t86 24.5q17 0 36 -4v-76q-15 4 -40 4zM316 233q66 0 105 30t39 79t-39 78t-105 29q-67 0 -105.5 -28.5t-38.5 -78.5q0 -49 39 -79t105 -30zM409 14
h-183q-26 0 -47 3q-56 -24 -56 -74q0 -82 194 -82q200 0 200 85q0 68 -108 68z" />
    <glyph glyph-name="Gdotaccent" unicode="&#x120;" horiz-adv-x="835" 
d="M372 756v108h109v-108h-109zM405 -20q-167 0 -266.5 104t-99.5 271q0 169 103 272t281 103q142 0 227 -65.5t107 -156.5l-99 -16q-17 65 -78.5 110.5t-161.5 45.5q-129 0 -204 -80.5t-75 -213.5q0 -129 74.5 -210.5t205.5 -81.5q127 0 192.5 68.5t65.5 150.5v9h-260v82
h348v-372h-73l-11 120q-35 -65 -107.5 -102.5t-168.5 -37.5z" />
    <glyph glyph-name="gdotaccent" unicode="&#x121;" horiz-adv-x="637" 
d="M368 703v-111h-103v111h103zM571 506q-63 0 -81 -43q56 -47 56 -121q0 -78 -62 -126t-168 -48q-74 0 -126 24q-46 -16 -46 -51q0 -50 85 -50h197q178 0 178 -139q0 -162 -292 -162q-273 0 -273 138q0 77 84 103q-60 25 -60 85q0 73 84 101q-62 47 -62 125t62 125.5
t169 47.5q74 0 129 -25q11 43 44 67.5t86 24.5q17 0 36 -4v-76q-15 4 -40 4zM316 233q66 0 105 30t39 79t-39 78t-105 29q-67 0 -105.5 -28.5t-38.5 -78.5q0 -49 39 -79t105 -30zM409 14h-183q-26 0 -47 3q-56 -24 -56 -74q0 -82 194 -82q200 0 200 85q0 68 -108 68z" />
    <glyph glyph-name="Gcommaaccent" unicode="&#x122;" horiz-adv-x="835" 
d="M405 -20q-167 0 -266.5 104t-99.5 271q0 169 103 272t281 103q142 0 227 -65.5t107 -156.5l-99 -16q-17 65 -78.5 110.5t-161.5 45.5q-129 0 -204 -80.5t-75 -213.5q0 -129 74.5 -210.5t205.5 -81.5q127 0 192.5 68.5t65.5 150.5v9h-260v82h348v-372h-73l-11 120
q-35 -65 -107.5 -102.5t-168.5 -37.5zM402 -237l-20 35q30 11 39.5 25t9.5 39h-56v88h102v-75q0 -44 -16 -70t-59 -42z" />
    <glyph glyph-name="gcommaaccent" unicode="&#x123;" horiz-adv-x="637" 
d="M368 668v-88h-102v75q0 44 16 70t59 42l20 -35q-30 -11 -39.5 -25t-9.5 -39h56zM571 506q-63 0 -81 -43q56 -47 56 -121q0 -78 -62 -126t-168 -48q-74 0 -126 24q-46 -16 -46 -51q0 -50 85 -50h197q178 0 178 -139q0 -162 -292 -162q-273 0 -273 138q0 77 84 103
q-60 25 -60 85q0 73 84 101q-62 47 -62 125t62 125.5t169 47.5q74 0 129 -25q11 43 44 67.5t86 24.5q17 0 36 -4v-76q-15 4 -40 4zM316 233q66 0 105 30t39 79t-39 78t-105 29q-67 0 -105.5 -28.5t-38.5 -78.5q0 -49 39 -79t105 -30zM409 14h-183q-26 0 -47 3
q-56 -24 -56 -74q0 -82 194 -82q200 0 200 85q0 68 -108 68z" />
    <glyph glyph-name="Hcircumflex" unicode="&#x124;" horiz-adv-x="864" 
d="M608 756h-95l-81 72l-80 -72h-95l121 108h109zM757 710v-710h-98v322h-454v-322h-98v710h98v-306h454v306h98z" />
    <glyph glyph-name="hcircumflex" unicode="&#x125;" horiz-adv-x="702" 
d="M322 756h-95l-81 72l-80 -72h-95l121 108h109zM102 0v725h88v-331q62 122 213 122q109 0 165 -62.5t56 -183.5v-270h-88v261q0 178 -161 178q-85 0 -135 -52t-50 -141v-246h-88z" />
    <glyph glyph-name="Hbar" unicode="&#x126;" horiz-adv-x="864" 
d="M841 577v-60h-84v-517h-98v322h-454v-322h-98v517h-84v60h84v133h98v-133h454v133h98v-133h84zM659 404v113h-454v-113h454z" />
    <glyph glyph-name="hbar" unicode="&#x127;" horiz-adv-x="689" 
d="M403 516q109 0 165 -62.5t56 -183.5v-270h-88v261q0 178 -161 178q-85 0 -135 -52t-50 -141v-246h-88v578h-95v54h95v93h88v-93h263v-54h-263v-184q62 122 213 122z" />
    <glyph glyph-name="Itilde" unicode="&#x128;" horiz-adv-x="312" 
d="M211 754q-32 0 -62.5 24.5t-45.5 24.5q-22 0 -25 -37l-58 11q2 43 25 67.5t58 24.5q31 0 62 -25t45 -25q22 0 25 38l59 -12q-2 -42 -25 -66.5t-58 -24.5zM205 0h-98v710h98v-710z" />
    <glyph glyph-name="itilde" unicode="&#x129;" horiz-adv-x="282" 
d="M192 587q-21 0 -39 16.5t-31 33t-24 16.5q-23 0 -28 -53l-59 12q14 110 86 110q22 0 39.5 -16.5t30.5 -33t24 -16.5q23 0 28 52l59 -12q-12 -109 -86 -109zM97 0v500h88v-500h-88z" />
    <glyph glyph-name="Imacron" unicode="&#x12a;" horiz-adv-x="312" 
d="M38 765v69h233v-69h-233zM205 0h-98v710h98v-710z" />
    <glyph glyph-name="imacron" unicode="&#x12b;" horiz-adv-x="282" 
d="M26 612v66h229v-66h-229zM97 0v500h88v-500h-88z" />
    <glyph glyph-name="Ibreve" unicode="&#x12c;" horiz-adv-x="312" 
d="M95 864q1 -25 16.5 -39.5t44.5 -14.5t44.5 14.5t16.5 39.5h73q-3 -54 -39 -83.5t-95 -29.5t-95 29.5t-39 83.5h73zM205 0h-98v710h98v-710z" />
    <glyph glyph-name="ibreve" unicode="&#x12d;" horiz-adv-x="282" 
d="M99 726q0 -50 10.5 -70t31.5 -20t31 20t10 70h74q-3 -151 -115 -151q-114 0 -115 151h73zM97 0v500h88v-500h-88z" />
    <glyph glyph-name="Iogonek" unicode="&#x12e;" horiz-adv-x="312" 
d="M162 -102l60 -11q-19 -89 -119 -89q-49 0 -78.5 24.5t-29.5 63.5q0 82 112 120v704h98v-710h-14q-64 -14 -96 -43t-32 -62q0 -21 12.5 -33t32.5 -12q40 0 54 48z" />
    <glyph glyph-name="iogonek" unicode="&#x12f;" horiz-adv-x="282" 
d="M192 703v-111h-103v111h103zM152 -102l60 -11q-19 -89 -119 -89q-49 0 -78.5 24.5t-29.5 63.5q0 82 112 120v494h88v-500h-4q-64 -14 -96 -43t-32 -62q0 -21 12.5 -33t32.5 -12q40 0 54 48z" />
    <glyph glyph-name="Idotaccent" unicode="&#x130;" horiz-adv-x="312" 
d="M102 756v108h109v-108h-109zM205 0h-98v710h98v-710z" />
    <glyph glyph-name="dotlessi" unicode="&#x131;" horiz-adv-x="282" 
d="M97 0v500h88v-500h-88z" />
    <glyph glyph-name="IJ" unicode="&#x132;" horiz-adv-x="757" 
d="M205 0h-98v710h98v-710zM671 220q0 -236 -235 -236q-71 0 -104 8v91q51 -8 103 -8q67 0 102.5 33.5t35.5 118.5v483h98v-490z" />
    <glyph glyph-name="ij" unicode="&#x133;" horiz-adv-x="570" 
d="M89 592v111h103v-111h-103zM376 592v111h103v-111h-103zM97 0v500h88v-500h-88zM321 -203q-45 0 -69 6v76q27 -3 65 -3q36 0 52 21.5t16 79.5v523h88v-535q0 -168 -152 -168z" />
    <glyph glyph-name="Jcircumflex" unicode="&#x134;" horiz-adv-x="445" 
d="M445 756h-87l-49 71l-48 -71h-87l82 108h107zM359 220q0 -236 -235 -236q-71 0 -104 8v91q51 -8 103 -8q67 0 102.5 33.5t35.5 118.5v483h98v-490z" />
    <glyph glyph-name="jcircumflex" unicode="&#x135;" horiz-adv-x="288" 
d="M269 580h-75l-48 104l-48 -104h-75l78 147h90zM39 -203q-45 0 -69 6v76q27 -3 65 -3q36 0 52 21.5t16 79.5v523h88v-535q0 -168 -152 -168z" />
    <glyph glyph-name="Kcommaaccent" unicode="&#x136;" horiz-adv-x="782" 
d="M440 439l319 -439h-121l-269 369l-164 -149v-220h-98v710h98v-374l397 374h130zM347 -138v88h102v-75q0 -44 -16 -70t-59 -42l-20 35q30 11 39.5 25t9.5 39h-56z" />
    <glyph glyph-name="kcommaaccent" unicode="&#x137;" horiz-adv-x="641" 
d="M394 315l224 -315h-110l-182 259l-136 -107v-152h-88v725h88v-476l292 251h122zM269 -138v88h102v-75q0 -44 -16 -70t-59 -42l-20 35q30 11 39.5 25t9.5 39h-56z" />
    <glyph glyph-name="kgreenlandic" unicode="&#x138;" horiz-adv-x="636" 
d="M503 0l-182 259l-136 -107v-152h-88v500h88v-251l292 251h122l-210 -185l224 -315h-110z" />
    <glyph glyph-name="Lacute" unicode="&#x139;" horiz-adv-x="649" 
d="M112 756l117 108h105l-132 -108h-90zM107 0v710h98v-626h418v-84h-516z" />
    <glyph glyph-name="lacute" unicode="&#x13a;" horiz-adv-x="292" 
d="M101 756l117 108h105l-132 -108h-90zM190 725v-725h-88v725h88z" />
    <glyph glyph-name="Lcommaaccent" unicode="&#x13b;" horiz-adv-x="649" 
d="M107 0v710h98v-626h418v-84h-516zM338 -237l-20 35q30 11 39.5 25t9.5 39h-56v88h102v-75q0 -44 -16 -70t-59 -42z" />
    <glyph glyph-name="lcommaaccent" unicode="&#x13c;" horiz-adv-x="292" 
d="M190 725v-725h-88v725h88zM122 -237l-20 35q30 11 39.5 25t9.5 39h-56v88h102v-75q0 -44 -16 -70t-59 -42z" />
    <glyph glyph-name="Lcaron" unicode="&#x13d;" horiz-adv-x="649" 
d="M107 0v710h98v-626h418v-84h-516zM319 531l-19 34q29 9 39 21.5t10 35.5h-56v88h102v-75q0 -43 -17 -67t-59 -37z" />
    <glyph glyph-name="lcaron" unicode="&#x13e;" horiz-adv-x="292" 
d="M190 725v-725h-88v725h88zM268 531l-19 34q29 9 39 21.5t10 35.5h-56v88h102v-75q0 -43 -17 -67t-59 -37z" />
    <glyph glyph-name="Ldot" unicode="&#x13f;" horiz-adv-x="649" 
d="M107 0v710h98v-626h418v-84h-516zM479 500v-118h-127v118h127z" />
    <glyph glyph-name="ldot" unicode="&#x140;" horiz-adv-x="374" 
d="M190 725v-725h-88v725h88zM396 500v-118h-127v118h127z" />
    <glyph glyph-name="Lslash" unicode="&#x141;" horiz-adv-x="649" 
d="M205 84h418v-84h-516v277l-109 -51v75l109 52v357h98v-311l256 121v-76l-256 -121v-239z" />
    <glyph glyph-name="lslash" unicode="&#x142;" horiz-adv-x="292" 
d="M248 518v-62l-58 -51v-405h-88v329l-58 -51v63l58 50v334h88v-257z" />
    <glyph glyph-name="Nacute" unicode="&#x143;" horiz-adv-x="860" 
d="M385 756l117 108h105l-132 -108h-90zM107 0v710h119l392 -524q34 -49 46 -81h2q-2 54 -2 91v514h89v-710h-113l-399 530q-35 52 -45 79h-2q2 -50 2 -87v-522h-89z" />
    <glyph glyph-name="nacute" unicode="&#x144;" 
d="M351 580l122 146h111l-146 -146h-87zM97 0v500h85v-109q62 125 218 125q107 0 163 -59t56 -173v-284h-88v271q0 168 -159 168q-86 0 -136.5 -52t-50.5 -141v-246h-88z" />
    <glyph glyph-name="Ncommaaccent" unicode="&#x145;" horiz-adv-x="860" 
d="M107 0v710h119l392 -524q34 -49 46 -81h2q-2 54 -2 91v514h89v-710h-113l-399 530q-35 52 -45 79h-2q2 -50 2 -87v-522h-89zM406 -237l-20 35q30 11 39.5 25t9.5 39h-56v88h102v-75q0 -44 -16 -70t-59 -42z" />
    <glyph glyph-name="ncommaaccent" unicode="&#x146;" 
d="M97 0v500h85v-109q62 125 218 125q107 0 163 -59t56 -173v-284h-88v271q0 168 -159 168q-86 0 -136.5 -52t-50.5 -141v-246h-88zM325 -237l-20 35q30 11 39.5 25t9.5 39h-56v88h102v-75q0 -44 -16 -70t-59 -42z" />
    <glyph glyph-name="Ncaron" unicode="&#x147;" horiz-adv-x="860" 
d="M606 860l-121 -108h-109l-121 108h95l80 -72l81 72h95zM107 0v710h119l392 -524q34 -49 46 -81h2q-2 54 -2 91v514h89v-710h-113l-399 530q-35 52 -45 79h-2q2 -50 2 -87v-522h-89z" />
    <glyph glyph-name="ncaron" unicode="&#x148;" 
d="M213 721h86l94 -104l94 104h86l-131 -146h-98zM97 0v500h85v-109q62 125 218 125q107 0 163 -59t56 -173v-284h-88v271q0 168 -159 168q-86 0 -136.5 -52t-50.5 -141v-246h-88z" />
    <glyph glyph-name="napostrophe" unicode="&#x149;" 
d="M60 531l-19 34q29 9 39 21.5t10 35.5h-56v88h102v-75q0 -43 -17 -67t-59 -37zM97 0v500h85v-109q62 125 218 125q107 0 163 -59t56 -173v-284h-88v271q0 168 -159 168q-86 0 -136.5 -52t-50.5 -141v-246h-88z" />
    <glyph glyph-name="Eng" unicode="&#x14a;" horiz-adv-x="860" 
d="M753 710v-710h-1v-11q0 -200 -210 -200q-44 0 -102 7v86q46 -7 103 -7q121 0 121 113v12h-24l-399 530q-35 52 -45 79h-2q2 -50 2 -87v-522h-89v710h119l392 -524q34 -49 46 -81h2q-2 54 -2 91v514h89z" />
    <glyph glyph-name="eng" unicode="&#x14b;" 
d="M400 516q107 0 163 -59t56 -173v-308q0 -84 -36.5 -131.5t-127.5 -47.5q-40 0 -67 6v74q24 -3 58 -3q45 0 64.5 22.5t19.5 78.5v137h1v159q0 168 -159 168q-86 0 -136.5 -52t-50.5 -141v-246h-88v500h85v-109q62 125 218 125z" />
    <glyph glyph-name="Omacron" unicode="&#x14c;" horiz-adv-x="846" 
d="M247 765v66h352v-66h-352zM423 -20q-173 0 -278.5 102.5t-105.5 272.5q0 172 105.5 273.5t278.5 101.5q174 0 279.5 -101.5t105.5 -273.5q0 -171 -105.5 -273t-279.5 -102zM423 62q129 0 205 79.5t76 213.5t-76 213.5t-205 79.5t-205 -79.5t-76 -213.5q0 -133 76 -213
t205 -80z" />
    <glyph glyph-name="omacron" unicode="&#x14d;" horiz-adv-x="656" 
d="M144 612v66h369v-66h-369zM328 -15q-129 0 -207.5 72t-78.5 193t78.5 193t207.5 72t207 -72t78 -193t-78 -193t-207 -72zM328 61q89 0 140.5 49.5t51.5 139.5t-51.5 139.5t-140.5 49.5t-140.5 -49.5t-51.5 -139.5t51.5 -139.5t140.5 -49.5z" />
    <glyph glyph-name="Obreve" unicode="&#x14e;" horiz-adv-x="846" 
d="M332 864q8 -54 91 -54t91 54h74q-5 -54 -49.5 -83.5t-115.5 -29.5t-115.5 29.5t-49.5 83.5h74zM423 -20q-173 0 -278.5 102.5t-105.5 272.5q0 172 105.5 273.5t278.5 101.5q174 0 279.5 -101.5t105.5 -273.5q0 -171 -105.5 -273t-279.5 -102zM423 62q129 0 205 79.5
t76 213.5t-76 213.5t-205 79.5t-205 -79.5t-76 -213.5q0 -133 76 -213t205 -80z" />
    <glyph glyph-name="obreve" unicode="&#x14f;" horiz-adv-x="656" 
d="M233 726q2 -46 27 -69t68 -23q89 0 95 92h73q-4 -75 -49.5 -113t-118.5 -38q-74 0 -119.5 38t-49.5 113h74zM328 -15q-129 0 -207.5 72t-78.5 193t78.5 193t207.5 72t207 -72t78 -193t-78 -193t-207 -72zM328 61q89 0 140.5 49.5t51.5 139.5t-51.5 139.5t-140.5 49.5
t-140.5 -49.5t-51.5 -139.5t51.5 -139.5t140.5 -49.5z" />
    <glyph glyph-name="Ohungarumlaut" unicode="&#x150;" horiz-adv-x="846" 
d="M298 756l110 108h94l-118 -108h-86zM463 756l111 108h93l-118 -108h-86zM423 -20q-173 0 -278.5 102.5t-105.5 272.5q0 172 105.5 273.5t278.5 101.5q174 0 279.5 -101.5t105.5 -273.5q0 -171 -105.5 -273t-279.5 -102zM423 62q129 0 205 79.5t76 213.5t-76 213.5
t-205 79.5t-205 -79.5t-76 -213.5q0 -133 76 -213t205 -80z" />
    <glyph glyph-name="ohungarumlaut" unicode="&#x151;" horiz-adv-x="656" 
d="M205 580l114 146h87l-120 -146h-81zM370 580l114 146h87l-120 -146h-81zM328 -15q-129 0 -207.5 72t-78.5 193t78.5 193t207.5 72t207 -72t78 -193t-78 -193t-207 -72zM328 61q89 0 140.5 49.5t51.5 139.5t-51.5 139.5t-140.5 49.5t-140.5 -49.5t-51.5 -139.5
t51.5 -139.5t140.5 -49.5z" />
    <glyph glyph-name="OE" unicode="&#x152;" horiz-adv-x="1206" 
d="M688 82h446v-82h-719q-172 0 -274 98t-102 263q0 164 103.5 256.5t277.5 92.5h707v-82h-439v-223h422v-82h-422v-241zM417 82h173v546h-168q-132 0 -206.5 -70.5t-74.5 -196.5q0 -129 74 -204t202 -75z" />
    <glyph glyph-name="oe" unicode="&#x153;" horiz-adv-x="1121" 
d="M1072 274v-50h-462q2 -75 54.5 -119t142.5 -44q135 0 185 99l74 -34q-73 -141 -263 -141q-169 0 -242 107q-71 -107 -233 -107q-132 0 -209 74.5t-77 190.5t76.5 190.5t209.5 74.5q163 0 235 -110q73 110 236 110q129 0 201 -63t72 -178zM981 293v7q-1 70 -51 109
t-132 39q-83 0 -133.5 -42t-54.5 -113h371zM328 61q91 0 141.5 51.5t50.5 137.5t-50.5 137.5t-141.5 51.5t-141.5 -51.5t-50.5 -137.5t50.5 -137.5t141.5 -51.5z" />
    <glyph glyph-name="Racute" unicode="&#x154;" horiz-adv-x="767" 
d="M544 864l-132 -108h-90l117 108h105zM606 0l-187 292h-214v-292h-98v710h346q68 0 117.5 -18t75.5 -49t38 -66t12 -76q0 -67 -41 -122.5t-128 -73.5l194 -305h-115zM205 628v-255h234q81 0 117.5 36.5t36.5 92.5t-36 91t-117 35h-235z" />
    <glyph glyph-name="racute" unicode="&#x155;" horiz-adv-x="418" 
d="M176 580l122 146h111l-146 -146h-87zM179 373q20 63 68 102t113 39q20 0 38 -3v-86q-20 2 -31 2q-85 0 -130 -48q-52 -53 -52 -176v-203h-88v500h82v-127z" />
    <glyph glyph-name="Rcommaaccent" unicode="&#x156;" horiz-adv-x="767" 
d="M527 305l194 -305h-115l-187 292h-214v-292h-98v710h346q68 0 117.5 -18t75.5 -49t38 -66t12 -76q0 -67 -41 -122.5t-128 -73.5zM205 628v-255h234q81 0 117.5 36.5t36.5 92.5t-36 91t-117 35h-235zM330 -138v88h102v-75q0 -44 -16 -70t-59 -42l-20 35q30 11 39.5 25
t9.5 39h-56z" />
    <glyph glyph-name="rcommaaccent" unicode="&#x157;" horiz-adv-x="418" 
d="M179 373q20 63 68 102t113 39q20 0 38 -3v-86q-20 2 -31 2q-85 0 -130 -48q-52 -53 -52 -176v-203h-88v500h82v-127zM117 -237l-20 35q30 11 39.5 25t9.5 39h-56v88h102v-75q0 -44 -16 -70t-59 -42z" />
    <glyph glyph-name="Rcaron" unicode="&#x158;" horiz-adv-x="767" 
d="M422 752h-109l-121 108h95l80 -72l81 72h95zM606 0l-187 292h-214v-292h-98v710h346q68 0 117.5 -18t75.5 -49t38 -66t12 -76q0 -67 -41 -122.5t-128 -73.5l194 -305h-115zM205 628v-255h234q81 0 117.5 36.5t36.5 92.5t-36 91t-117 35h-235z" />
    <glyph glyph-name="rcaron" unicode="&#x159;" horiz-adv-x="418" 
d="M38 721h86l94 -104l94 104h86l-131 -146h-98zM179 373q20 63 68 102t113 39q20 0 38 -3v-86q-20 2 -31 2q-85 0 -130 -48q-52 -53 -52 -176v-203h-88v500h82v-127z" />
    <glyph glyph-name="Sacute" unicode="&#x15a;" horiz-adv-x="730" 
d="M321 756l117 108h105l-132 -108h-90zM382 -20q-153 0 -240.5 61t-109.5 174l101 17q40 -171 251 -171q197 0 197 124q0 58 -37 85.5t-118 39.5l-156 21q-203 30 -203 195q0 95 77 149.5t214 54.5q275 0 321 -208l-98 -24q-38 153 -226 153q-88 0 -137.5 -30.5
t-49.5 -86.5q0 -52 32.5 -79.5t108.5 -38.5l152 -22q111 -17 166.5 -63t55.5 -137q0 -97 -77 -155.5t-224 -58.5z" />
    <glyph glyph-name="sacute" unicode="&#x15b;" horiz-adv-x="602" 
d="M257 580l122 146h111l-146 -146h-87zM319 -15q-218 0 -276 162l83 27q42 -117 200 -117q138 0 138 80q0 35 -21 52t-70 21l-147 11q-80 7 -120.5 44t-40.5 99q0 71 61 111t167 40q102 0 169 -38.5t88 -105.5l-83 -28q-41 102 -179 102q-65 0 -101 -20.5t-36 -57.5
q0 -62 96 -71l149 -11q155 -14 155 -141q0 -75 -58.5 -117t-173.5 -42z" />
    <glyph glyph-name="Scircumflex" unicode="&#x15c;" horiz-adv-x="730" 
d="M542 756h-95l-81 72l-80 -72h-95l121 108h109zM382 -20q-153 0 -240.5 61t-109.5 174l101 17q40 -171 251 -171q197 0 197 124q0 58 -37 85.5t-118 39.5l-156 21q-203 30 -203 195q0 95 77 149.5t214 54.5q275 0 321 -208l-98 -24q-38 153 -226 153q-88 0 -137.5 -30.5
t-49.5 -86.5q0 -52 32.5 -79.5t108.5 -38.5l152 -22q111 -17 166.5 -63t55.5 -137q0 -97 -77 -155.5t-224 -58.5z" />
    <glyph glyph-name="scircumflex" unicode="&#x15d;" horiz-adv-x="602" 
d="M479 580h-86l-94 104l-94 -104h-86l131 146h98zM319 -15q-218 0 -276 162l83 27q42 -117 200 -117q138 0 138 80q0 35 -21 52t-70 21l-147 11q-80 7 -120.5 44t-40.5 99q0 71 61 111t167 40q102 0 169 -38.5t88 -105.5l-83 -28q-41 102 -179 102q-65 0 -101 -20.5
t-36 -57.5q0 -62 96 -71l149 -11q155 -14 155 -141q0 -75 -58.5 -117t-173.5 -42z" />
    <glyph glyph-name="Scedilla" unicode="&#x15e;" horiz-adv-x="730" 
d="M683 194q0 -94 -71.5 -152t-209.5 -62l-20 -29q19 12 51 12q41 0 64.5 -20.5t23.5 -56.5q0 -38 -33 -62t-85 -24q-89 0 -114 62l60 12q12 -28 53 -28q23 0 37 11t14 29q0 19 -13 30t-35 11q-26 0 -45 -16l-43 12l32 58q-138 7 -217 67.5t-100 166.5l101 17
q40 -171 251 -171q197 0 197 124q0 58 -37 85.5t-118 39.5l-156 21q-203 30 -203 195q0 95 77 149.5t214 54.5q275 0 321 -208l-98 -24q-38 153 -226 153q-88 0 -137.5 -30.5t-49.5 -86.5q0 -52 32.5 -79.5t108.5 -38.5l152 -22q111 -17 166.5 -63t55.5 -137z" />
    <glyph glyph-name="scedilla" unicode="&#x15f;" horiz-adv-x="602" 
d="M551 144q0 -71 -54.5 -113t-160.5 -46l-23 -34q19 12 51 12q41 0 64.5 -20.5t23.5 -56.5q0 -38 -33 -62t-85 -24q-89 0 -114 62l60 12q12 -28 53 -28q23 0 37 11t14 29q0 19 -13 30t-35 11q-26 0 -45 -16l-43 12l35 63q-187 13 -240 161l83 27q42 -117 200 -117
q138 0 138 80q0 35 -21 52t-70 21l-147 11q-80 7 -120.5 44t-40.5 99q0 71 61 111t167 40q102 0 169 -38.5t88 -105.5l-83 -28q-41 102 -179 102q-65 0 -101 -20.5t-36 -57.5q0 -62 96 -71l149 -11q155 -14 155 -141z" />
    <glyph glyph-name="Scaron" unicode="&#x160;" horiz-adv-x="730" 
d="M542 860l-121 -108h-109l-121 108h95l80 -72l81 72h95zM382 -20q-153 0 -240.5 61t-109.5 174l101 17q40 -171 251 -171q197 0 197 124q0 58 -37 85.5t-118 39.5l-156 21q-203 30 -203 195q0 95 77 149.5t214 54.5q275 0 321 -208l-98 -24q-38 153 -226 153
q-88 0 -137.5 -30.5t-49.5 -86.5q0 -52 32.5 -79.5t108.5 -38.5l152 -22q111 -17 166.5 -63t55.5 -137q0 -97 -77 -155.5t-224 -58.5z" />
    <glyph glyph-name="scaron" unicode="&#x161;" horiz-adv-x="602" 
d="M119 721h86l94 -104l94 104h86l-131 -146h-98zM319 -15q-218 0 -276 162l83 27q42 -117 200 -117q138 0 138 80q0 35 -21 52t-70 21l-147 11q-80 7 -120.5 44t-40.5 99q0 71 61 111t167 40q102 0 169 -38.5t88 -105.5l-83 -28q-41 102 -179 102q-65 0 -101 -20.5
t-36 -57.5q0 -62 96 -71l149 -11q155 -14 155 -141q0 -75 -58.5 -117t-173.5 -42z" />
    <glyph glyph-name="uni0162" unicode="&#x162;" horiz-adv-x="660" 
d="M379 0h-23l-33 -49q19 12 51 12q41 0 64.5 -20.5t23.5 -56.5q0 -38 -33 -62t-85 -24q-89 0 -114 62l60 12q12 -28 53 -28q23 0 37 11t14 29q0 19 -13 30t-35 11q-26 0 -45 -16l-43 12l43 77h-20v627h-271v83h640v-83h-271v-627z" />
    <glyph glyph-name="uni0163" unicode="&#x163;" horiz-adv-x="442" 
d="M337 -37q41 0 64.5 -20.5t23.5 -56.5q0 -38 -33 -62t-85 -24q-89 0 -114 62l60 12q12 -28 53 -28q23 0 37 11t14 29q0 19 -13 30t-35 11q-26 0 -45 -16l-43 12l39 70q-70 12 -97 56.5t-27 115.5v263h-120v72h120v131l89 37v-168h178v-72h-178v-258q0 -51 24 -74.5
t75 -23.5q38 0 80 10v-79q-37 -13 -92 -13l-26 -39q19 12 51 12z" />
    <glyph glyph-name="Tcaron" unicode="&#x164;" horiz-adv-x="660" 
d="M386 752h-109l-121 108h95l80 -72l81 72h95zM650 710v-83h-271v-627h-98v627h-271v83h640z" />
    <glyph glyph-name="tcaron" unicode="&#x165;" horiz-adv-x="442" 
d="M312 531l-19 34q29 9 39 21.5t10 35.5h-56v88h102v-75q0 -43 -17 -67t-59 -37zM16 428v72h120v131l89 37v-168h178v-72h-178v-258q0 -51 24 -74.5t75 -23.5q38 0 80 10v-79q-39 -13 -97 -13q-97 0 -134 46.5t-37 128.5v263h-120z" />
    <glyph glyph-name="Tbar" unicode="&#x166;" horiz-adv-x="660" 
d="M650 627h-271v-180h198v-60h-198v-387h-98v387h-196v60h196v180h-271v83h640v-83z" />
    <glyph glyph-name="tbar" unicode="&#x167;" horiz-adv-x="445" 
d="M406 240h-181v-70q0 -51 24 -74.5t75 -23.5q38 0 80 10v-79q-39 -13 -97 -13q-97 0 -134 46.5t-37 128.5v75h-116v71h116v117h-120v72h120v131l89 37v-168h178v-72h-178v-117h181v-71z" />
    <glyph glyph-name="Utilde" unicode="&#x168;" horiz-adv-x="824" 
d="M486 751q-41 0 -84.5 26.5t-66.5 26.5q-45 0 -57 -48l-62 11q19 102 121 102q41 0 85 -26.5t67 -26.5q44 0 56 48l62 -11q-19 -102 -121 -102zM86 710h98v-424q0 -98 61 -159.5t167 -61.5t166.5 61.5t60.5 159.5v424h99v-429q0 -135 -86 -218t-240 -83t-240 83t-86 218
v429z" />
    <glyph glyph-name="utilde" unicode="&#x169;" horiz-adv-x="687" 
d="M418 586q-37 0 -67 17t-55 34t-49 17q-48 0 -63 -59l-61 11q10 55 42.5 85t83.5 30q46 0 95 -34t76 -34q48 0 63 59l61 -11q-9 -54 -42 -84.5t-84 -30.5zM296 -15q-218 0 -218 223v292h89v-283q0 -82 41 -119.5t105 -37.5q91 0 140 55.5t49 135.5v249h89v-500h-86v112
q-24 -59 -80 -93t-129 -34z" />
    <glyph glyph-name="Umacron" unicode="&#x16a;" horiz-adv-x="824" 
d="M236 765v66h352v-66h-352zM86 710h98v-424q0 -98 61 -159.5t167 -61.5t166.5 61.5t60.5 159.5v424h99v-429q0 -135 -86 -218t-240 -83t-240 83t-86 218v429z" />
    <glyph glyph-name="umacron" unicode="&#x16b;" horiz-adv-x="687" 
d="M150 612v66h369v-66h-369zM296 -15q-218 0 -218 223v292h89v-283q0 -82 41 -119.5t105 -37.5q91 0 140 55.5t49 135.5v249h89v-500h-86v112q-24 -59 -80 -93t-129 -34z" />
    <glyph glyph-name="Ubreve" unicode="&#x16c;" horiz-adv-x="824" 
d="M321 864q8 -54 91 -54t91 54h74q-5 -54 -49.5 -83.5t-115.5 -29.5t-115.5 29.5t-49.5 83.5h74zM86 710h98v-424q0 -98 61 -159.5t167 -61.5t166.5 61.5t60.5 159.5v424h99v-429q0 -135 -86 -218t-240 -83t-240 83t-86 218v429z" />
    <glyph glyph-name="ubreve" unicode="&#x16d;" horiz-adv-x="687" 
d="M239 726q2 -46 27 -69t68 -23q89 0 95 92h73q-4 -75 -49.5 -113t-118.5 -38q-74 0 -119.5 38t-49.5 113h74zM296 -15q-218 0 -218 223v292h89v-283q0 -82 41 -119.5t105 -37.5q91 0 140 55.5t49 135.5v249h89v-500h-86v112q-24 -59 -80 -93t-129 -34z" />
    <glyph glyph-name="Uring" unicode="&#x16e;" horiz-adv-x="824" 
d="M412 738q-49 0 -79.5 28.5t-30.5 74.5q0 45 30.5 73.5t79.5 28.5t79.5 -28.5t30.5 -73.5q0 -46 -30.5 -74.5t-79.5 -28.5zM412 787q23 0 37.5 15t14.5 39t-14.5 39t-37.5 15t-37.5 -15t-14.5 -39t14.5 -39t37.5 -15zM86 710h98v-424q0 -98 61 -159.5t167 -61.5
t166.5 61.5t60.5 159.5v424h99v-429q0 -135 -86 -218t-240 -83t-240 83t-86 218v429z" />
    <glyph glyph-name="uring" unicode="&#x16f;" horiz-adv-x="687" 
d="M334 557q-59 0 -94.5 28t-35.5 74t35.5 74t94.5 28q58 0 93.5 -28t35.5 -74t-35.5 -74t-93.5 -28zM334 603q33 0 52.5 15t19.5 41q0 25 -19.5 40t-52.5 15t-52.5 -15t-19.5 -40q0 -26 19.5 -41t52.5 -15zM296 -15q-218 0 -218 223v292h89v-283q0 -82 41 -119.5t105 -37.5
q91 0 140 55.5t49 135.5v249h89v-500h-86v112q-24 -59 -80 -93t-129 -34z" />
    <glyph glyph-name="Uhungarumlaut" unicode="&#x170;" horiz-adv-x="824" 
d="M287 756l110 108h94l-118 -108h-86zM452 756l111 108h93l-118 -108h-86zM86 710h98v-424q0 -98 61 -159.5t167 -61.5t166.5 61.5t60.5 159.5v424h99v-429q0 -135 -86 -218t-240 -83t-240 83t-86 218v429z" />
    <glyph glyph-name="uhungarumlaut" unicode="&#x171;" horiz-adv-x="687" 
d="M211 580l114 146h87l-120 -146h-81zM376 580l114 146h87l-120 -146h-81zM296 -15q-218 0 -218 223v292h89v-283q0 -82 41 -119.5t105 -37.5q91 0 140 55.5t49 135.5v249h89v-500h-86v112q-24 -59 -80 -93t-129 -34z" />
    <glyph glyph-name="Uogonek" unicode="&#x172;" horiz-adv-x="824" 
d="M639 710h99v-429q0 -114 -63 -193t-178 -100q-86 -33 -86 -93q0 -21 12.5 -33t32.5 -12q40 0 54 48l60 -11q-19 -89 -119 -89q-49 0 -78.5 24.5t-29.5 63.5q0 58 57 94q-149 4 -231.5 86t-82.5 215v429h98v-424q0 -98 61 -159.5t167 -61.5t166.5 61.5t60.5 159.5v424z
" />
    <glyph glyph-name="uogonek" unicode="&#x173;" horiz-adv-x="687" 
d="M560 -102l60 -11q-19 -89 -119 -89q-49 0 -78.5 24.5t-29.5 63.5q0 82 112 120v106q-24 -59 -80 -93t-129 -34q-218 0 -218 223v292h89v-283q0 -82 41 -119.5t105 -37.5q91 0 140 55.5t49 135.5v249h89v-500h-2q-64 -14 -96 -43t-32 -62q0 -21 12.5 -33t32.5 -12
q40 0 54 48z" />
    <glyph glyph-name="Wcircumflex" unicode="&#x174;" horiz-adv-x="1065" 
d="M709 756h-95l-81 72l-80 -72h-95l121 108h109zM228 0l-203 710h102l152 -571q1 -5 5 -20.5t5 -23.5h3q1 6 11 44l180 571h99l180 -571q9 -28 12 -44h2q2 10 11 44l152 571h102l-204 -710h-121l-171 554q-10 25 -10 41h-5q0 -14 -9 -41l-172 -554h-121z" />
    <glyph glyph-name="wcircumflex" unicode="&#x175;" horiz-adv-x="892" 
d="M626 580h-86l-94 104l-94 -104h-86l131 146h98zM197 0l-176 500h93l124 -369q7 -27 11 -51h2q0 4 13 51l133 369h97l134 -369q12 -44 13 -51h2q2 13 11 51l124 369h93l-176 -500h-102l-134 369q-10 25 -12 49h-2q-4 -26 -12 -49l-134 -369h-102z" />
    <glyph glyph-name="Ycircumflex" unicode="&#x176;" horiz-adv-x="694" 
d="M523 756h-95l-81 72l-80 -72h-95l121 108h109zM296 0v271l-296 439h115l211 -318q15 -24 19 -39h2q4 15 19 39l213 318h115l-299 -439v-271h-99z" />
    <glyph glyph-name="ycircumflex" unicode="&#x177;" horiz-adv-x="579" 
d="M470 580h-86l-94 104l-94 -104h-86l131 146h98zM98 -203q-28 0 -52 4v78q24 -3 43 -3q113 0 153 100l11 27l-247 497h102l173 -367q10 -25 16 -47h1q12 37 16 47l162 367h98l-244 -532q-42 -92 -97.5 -131.5t-134.5 -39.5z" />
    <glyph glyph-name="Ydieresis" unicode="&#x178;" horiz-adv-x="694" 
d="M164 756v102h106v-102h-106zM425 756v102h106v-102h-106zM296 0v271l-296 439h115l211 -318q15 -24 19 -39h2q4 15 19 39l213 318h115l-299 -439v-271h-99z" />
    <glyph glyph-name="Zacute" unicode="&#x179;" horiz-adv-x="689" 
d="M306 756l117 108h105l-132 -108h-90zM44 85l482 543h-464v82h583v-84l-483 -544h501v-82h-619v85z" />
    <glyph glyph-name="zacute" unicode="&#x17a;" horiz-adv-x="574" 
d="M248 580l122 146h111l-146 -146h-87zM44 70l362 356h-347v74h463v-68l-362 -358h379v-74h-495v70z" />
    <glyph glyph-name="Zdotaccent" unicode="&#x17b;" horiz-adv-x="689" 
d="M297 756v108h109v-108h-109zM44 85l482 543h-464v82h583v-84l-483 -544h501v-82h-619v85z" />
    <glyph glyph-name="zdotaccent" unicode="&#x17c;" horiz-adv-x="574" 
d="M238 592v111h103v-111h-103zM44 70l362 356h-347v74h463v-68l-362 -358h379v-74h-495v70z" />
    <glyph glyph-name="Zcaron" unicode="&#x17d;" horiz-adv-x="689" 
d="M527 860l-121 -108h-109l-121 108h95l80 -72l81 72h95zM44 85l482 543h-464v82h583v-84l-483 -544h501v-82h-619v85z" />
    <glyph glyph-name="zcaron" unicode="&#x17e;" horiz-adv-x="574" 
d="M110 721h86l94 -104l94 104h86l-131 -146h-98zM44 70l362 356h-347v74h463v-68l-362 -358h379v-74h-495v70z" />
    <glyph glyph-name="florin" unicode="&#x192;" horiz-adv-x="505" 
d="M419 632q-59 0 -84.5 -28t-36.5 -93l-13 -83h178v-68h-188l-77 -510h-90l77 510h-147v68h158l10 67q18 114 64 164.5t149 50.5q31 0 73 -10l-1 -78q-37 10 -72 10z" />
    <glyph glyph-name="AEacute" unicode="&#x1fc;" horiz-adv-x="1178" 
d="M981 864l-132 -108h-90l117 108h105zM652 82h454v-82h-552v166h-333l-121 -166h-110l536 710h573v-82h-447v-223h430v-82h-430v-241zM280 247h274v375z" />
    <glyph glyph-name="aeacute" unicode="&#x1fd;" horiz-adv-x="1046" 
d="M716 726l-146 -146h-87l122 146h111zM997 266v-41h-434q2 -76 51 -120t132 -44q124 0 172 100l74 -34q-70 -142 -249 -142q-175 0 -237 128q-65 -128 -252 -128q-96 0 -150 38.5t-54 107.5q0 136 209 151l214 12v19q0 130 -152 130q-74 0 -115.5 -28t-46.5 -80h-92
q9 85 76 132.5t179 47.5q151 0 206 -92q67 92 211 92q121 0 189.5 -66t68.5 -183zM905 295q1 70 -45.5 111.5t-120.5 41.5q-76 0 -124 -41t-52 -112h342zM474 215v16l-197 -12q-71 -5 -102 -26t-31 -61q0 -35 33 -55.5t92 -20.5q87 0 146 41t59 118z" />
    <glyph glyph-name="Oslashacute" unicode="&#x1fe;" horiz-adv-x="846" 
d="M601 864l-132 -108h-90l117 108h105zM719 611q89 -98 89 -256q0 -171 -105.5 -273t-279.5 -102q-144 0 -243 73l-67 -69l-52 45l68 70q-90 99 -90 256q0 172 105.5 273.5t278.5 101.5q145 0 245 -72l64 66l53 -44zM142 355q0 -112 54 -186l407 422q-71 57 -180 57
q-129 0 -205 -79.5t-76 -213.5zM423 62q129 0 205 79.5t76 213.5q0 111 -53 186l-408 -422q72 -57 180 -57z" />
    <glyph glyph-name="oslashacute" unicode="&#x1ff;" horiz-adv-x="656" 
d="M528 726l-146 -146h-87l122 146h111zM549 428q64 -70 64 -178q0 -121 -78 -193t-207 -72q-105 0 -180 50l-55 -54l-41 36l55 54q-65 70 -65 179q0 121 78.5 193t207.5 72q106 0 179 -50l54 53l43 -36zM136 250q0 -71 33 -118l279 275q-49 32 -120 32q-89 0 -140.5 -49.5
t-51.5 -139.5zM328 61q89 0 140.5 49.5t51.5 139.5q0 69 -33 118l-279 -274q46 -33 120 -33z" />
    <glyph glyph-name="Scommaaccent" unicode="&#x218;" horiz-adv-x="730" 
d="M382 -20q-153 0 -240.5 61t-109.5 174l101 17q40 -171 251 -171q197 0 197 124q0 58 -37 85.5t-118 39.5l-156 21q-203 30 -203 195q0 95 77 149.5t214 54.5q275 0 321 -208l-98 -24q-38 153 -226 153q-88 0 -137.5 -30.5t-49.5 -86.5q0 -52 32.5 -79.5t108.5 -38.5
l152 -22q111 -17 166.5 -63t55.5 -137q0 -97 -77 -155.5t-224 -58.5zM366 -237l-20 35q30 11 39.5 25t9.5 39h-56v88h102v-75q0 -44 -16 -70t-59 -42z" />
    <glyph glyph-name="scommaaccent" unicode="&#x219;" horiz-adv-x="602" 
d="M319 -15q-218 0 -276 162l83 27q42 -117 200 -117q138 0 138 80q0 35 -21 52t-70 21l-147 11q-80 7 -120.5 44t-40.5 99q0 71 61 111t167 40q102 0 169 -38.5t88 -105.5l-83 -28q-41 102 -179 102q-65 0 -101 -20.5t-36 -57.5q0 -62 96 -71l149 -11q155 -14 155 -141
q0 -75 -58.5 -117t-173.5 -42zM297 -237l-20 35q30 11 39.5 25t9.5 39h-56v88h102v-75q0 -44 -16 -70t-59 -42z" />
    <glyph glyph-name="uni021A" unicode="&#x21a;" horiz-adv-x="660" 
d="M10 710h640v-83h-271v-627h-98v627h-271v83zM280 -138v88h102v-75q0 -44 -16 -70t-59 -42l-20 35q30 11 39.5 25t9.5 39h-56z" />
    <glyph glyph-name="uni021B" unicode="&#x21b;" horiz-adv-x="442" 
d="M16 428v72h120v131l89 37v-168h178v-72h-178v-258q0 -51 24 -74.5t75 -23.5q38 0 80 10v-79q-39 -13 -97 -13q-97 0 -134 46.5t-37 128.5v263h-120zM270 -237l-20 35q30 11 39.5 25t9.5 39h-56v88h102v-75q0 -44 -16 -70t-59 -42z" />
    <glyph glyph-name="uni0237" unicode="&#x237;" horiz-adv-x="288" 
d="M39 -203q-45 0 -69 6v76q27 -3 65 -3q36 0 52 21.5t16 79.5v523h88v-535q0 -168 -152 -168z" />
    <glyph glyph-name="uni0243" unicode="&#x243;" horiz-adv-x="768" 
d="M708 195q0 -79 -52.5 -133.5t-161.5 -60.5v-105h-57v104h-122v-104h-56v104h-152v695h152v94h56v-94h122v94h57v-96q100 -9 147 -57.5t47 -119.5q0 -58 -30.5 -98.5t-91.5 -55.5q142 -26 142 -167zM447 616h-247v-222h248q143 0 143 114q0 108 -144 108zM461 79
q77 0 113.5 33t36.5 90q0 55 -37.5 86.5t-109.5 31.5h-264v-241h261z" />
    <glyph glyph-name="circumflex" unicode="&#x2c6;" horiz-adv-x="600" 
d="M397 580h-86l-94 104l-94 -104h-86l131 146h98z" />
    <glyph glyph-name="caron" unicode="&#x2c7;" horiz-adv-x="600" 
d="M37 721h86l94 -104l94 104h86l-131 -146h-98z" />
    <glyph glyph-name="breve" unicode="&#x2d8;" horiz-adv-x="600" 
d="M128 726q2 -46 27 -69t68 -23q89 0 95 92h73q-4 -75 -49.5 -113t-118.5 -38q-74 0 -119.5 38t-49.5 113h74z" />
    <glyph glyph-name="dotaccent" unicode="&#x2d9;" horiz-adv-x="600" 
d="M49 592v111h103v-111h-103z" />
    <glyph glyph-name="ring" unicode="&#x2da;" horiz-adv-x="600" 
d="M167 557q-59 0 -94.5 28t-35.5 74t35.5 74t94.5 28q58 0 93.5 -28t35.5 -74t-35.5 -74t-93.5 -28zM167 603q33 0 52.5 15t19.5 41q0 25 -19.5 40t-52.5 15t-52.5 -15t-19.5 -40q0 -26 19.5 -41t52.5 -15z" />
    <glyph glyph-name="ogonek" unicode="&#x2db;" horiz-adv-x="600" 
d="M277 -113q-19 -89 -119 -89q-49 0 -78.5 24.5t-29.5 63.5q0 82 113 120l83 -6q-64 -14 -96 -43t-32 -62q0 -21 12.5 -33t32.5 -12q41 0 54 48z" />
    <glyph glyph-name="tilde" unicode="&#x2dc;" horiz-adv-x="600" 
d="M347 586q-37 0 -67 17t-55 34t-49 17q-48 0 -63 -59l-61 11q10 55 42.5 85t83.5 30q46 0 95 -34t76 -34q48 0 63 59l61 -11q-9 -54 -42 -84.5t-84 -30.5z" />
    <glyph glyph-name="hungarumlaut" unicode="&#x2dd;" horiz-adv-x="600" 
d="M59 580l114 146h87l-120 -146h-81zM224 580l114 146h87l-120 -146h-81z" />
    <glyph glyph-name="gravecomb" unicode="&#x300;" horiz-adv-x="0" 
d="M-20 580h-87l-146 146h111z" />
    <glyph glyph-name="acutecomb" unicode="&#x301;" horiz-adv-x="0" 
d="M-255 580l122 146h111l-146 -146h-87z" />
    <glyph glyph-name="uni0302" unicode="&#x302;" horiz-adv-x="0" 
d="M-37 580h-86l-94 104l-94 -104h-86l131 146h98z" />
    <glyph glyph-name="tildecomb" unicode="&#x303;" horiz-adv-x="0" 
d="M-177 586q-37 0 -67 17t-55 34t-49 17q-48 0 -63 -59l-61 11q10 55 42.5 85t83.5 30q46 0 95 -34t76 -34q48 0 63 59l61 -11q-9 -54 -42 -84.5t-84 -30.5z" />
    <glyph glyph-name="uni0304" unicode="&#x304;" horiz-adv-x="0" 
d="M-413 612v66h369v-66h-369z" />
    <glyph glyph-name="uni0306" unicode="&#x306;" horiz-adv-x="0" 
d="M-316 726q2 -46 27 -69t68 -23q89 0 95 92h73q-4 -75 -49.5 -113t-118.5 -38q-74 0 -119.5 38t-49.5 113h74z" />
    <glyph glyph-name="uni0307" unicode="&#x307;" horiz-adv-x="0" 
d="M-153 592v111h103v-111h-103z" />
    <glyph glyph-name="uni0308" unicode="&#x308;" horiz-adv-x="0" 
d="M-405 596v108h106v-108h-106zM-153 596v108h106v-108h-106z" />
    <glyph glyph-name="uni030A" unicode="&#x30a;" horiz-adv-x="0" 
d="M-167 557q-59 0 -94.5 28t-35.5 74t35.5 74t94.5 28q58 0 93.5 -28t35.5 -74t-35.5 -74t-93.5 -28zM-167 603q33 0 52.5 15t19.5 41q0 25 -19.5 40t-52.5 15t-52.5 -15t-19.5 -40q0 -26 19.5 -41t52.5 -15z" />
    <glyph glyph-name="uni030B" unicode="&#x30b;" horiz-adv-x="0" 
d="M-393 580l114 146h87l-120 -146h-81zM-228 580l114 146h87l-120 -146h-81z" />
    <glyph glyph-name="uni030C" unicode="&#x30c;" horiz-adv-x="0" 
d="M-397 721h86l94 -104l94 104h86l-131 -146h-98z" />
    <glyph glyph-name="uni0312" unicode="&#x312;" horiz-adv-x="0" 
d="M-77 767l20 -35q-30 -11 -39.5 -25t-9.5 -39h56v-88h-102v75q0 44 16 70t59 42z" />
    <glyph glyph-name="uni0326" unicode="&#x326;" horiz-adv-x="0" 
d="M-125 -237l-20 35q30 11 39.5 25t9.5 39h-56v88h102v-75q0 -44 -16 -70t-59 -42z" />
    <glyph glyph-name="uni0327" unicode="&#x327;" horiz-adv-x="0" 
d="M-207 7h56l-38 -56q19 12 51 12q41 0 64.5 -20.5t23.5 -56.5q0 -38 -33 -62t-85 -24q-89 0 -114 62l60 12q12 -28 53 -28q23 0 37 11t14 29q0 19 -13 30t-35 11q-26 0 -45 -16l-43 12z" />
    <glyph glyph-name="uni0328" unicode="&#x328;" horiz-adv-x="0" 
d="M-50 -113q-19 -89 -119 -89q-49 0 -78.5 24.5t-29.5 63.5q0 82 113 120l83 -6q-64 -14 -96 -43t-32 -62q0 -21 12.5 -33t32.5 -12q40 0 54 48z" />
    <glyph glyph-name="uni0394" unicode="&#x394;" horiz-adv-x="732" 
d="M20 0l296 704h103l293 -704h-692zM366 609l-223 -532h441z" />
    <glyph glyph-name="uni03A9" unicode="&#x3a9;" horiz-adv-x="775" 
d="M707 0h-263l-15 220q100 13 154 68t54 144q0 100 -66 156t-184 56t-183.5 -56t-65.5 -156q0 -89 54 -144t154 -68l-15 -220h-263v81h189l7 87q-102 25 -159 95t-57 171q0 130 92.5 208.5t246.5 78.5q155 0 247.5 -78.5t92.5 -208.5q0 -100 -57.5 -170.5t-159.5 -95.5
l8 -87h189v-81z" />
    <glyph glyph-name="uni03BC" unicode="&#x3bc;" horiz-adv-x="706" 
d="M521 500h89v-500h-86v112q-24 -59 -80 -93t-129 -34q-89 0 -140 36v-216h-78v695h89v-283q0 -82 41 -119.5t105 -37.5q91 0 140 55.5t49 135.5v249z" />
    <glyph glyph-name="pi" unicode="&#x3c0;" horiz-adv-x="717" 
d="M680 -1q-27 -6 -56 -6q-76 0 -104 35t-28 94v308h-267v-430h-88v430h-101v70h645v-70h-100v-304q0 -57 57 -57q12 0 42 3v-73z" />
    <glyph glyph-name="uni0E3F" unicode="&#xe3f;" horiz-adv-x="768" 
d="M563 360q145 -24 145 -166q0 -91 -64 -142.5t-178 -51.5h-54v-104h-55v104h-250v695h250v94h55v-94h36q115 0 177.5 -46.5t62.5 -132.5q0 -60 -32.5 -100.5t-92.5 -55.5zM199 618v-226h158v226h-158zM447 618h-35v-226h35q144 0 144 118q0 53 -37 80.5t-107 27.5zM199 77
h158v242h-158v-242zM461 77q150 0 150 124q0 57 -37.5 87.5t-108.5 30.5h-53v-242h49z" />
    <glyph glyph-name="Wgrave" unicode="&#x1e80;" horiz-adv-x="1065" 
d="M574 756h-90l-132 108h105zM228 0l-203 710h102l152 -571q1 -5 5 -20.5t5 -23.5h3q1 6 11 44l180 571h99l180 -571q9 -28 12 -44h2q2 10 11 44l152 571h102l-204 -710h-121l-171 554q-10 25 -10 41h-5q0 -14 -9 -41l-172 -554h-121z" />
    <glyph glyph-name="wgrave" unicode="&#x1e81;" horiz-adv-x="892" 
d="M489 580h-87l-146 146h111zM197 0l-176 500h93l124 -369q7 -27 11 -51h2q0 4 13 51l133 369h97l134 -369q12 -44 13 -51h2q2 13 11 51l124 369h93l-176 -500h-102l-134 369q-10 25 -12 49h-2q-4 -26 -12 -49l-134 -369h-102z" />
    <glyph glyph-name="Wacute" unicode="&#x1e82;" horiz-adv-x="1065" 
d="M488 756l117 108h105l-132 -108h-90zM228 0l-203 710h102l152 -571q1 -5 5 -20.5t5 -23.5h3q1 6 11 44l180 571h99l180 -571q9 -28 12 -44h2q2 10 11 44l152 571h102l-204 -710h-121l-171 554q-10 25 -10 41h-5q0 -14 -9 -41l-172 -554h-121z" />
    <glyph glyph-name="wacute" unicode="&#x1e83;" horiz-adv-x="892" 
d="M404 580l122 146h111l-146 -146h-87zM197 0l-176 500h93l124 -369q7 -27 11 -51h2q0 4 13 51l133 369h97l134 -369q12 -44 13 -51h2q2 13 11 51l124 369h93l-176 -500h-102l-134 369q-10 25 -12 49h-2q-4 -26 -12 -49l-134 -369h-102z" />
    <glyph glyph-name="Wdieresis" unicode="&#x1e84;" horiz-adv-x="1065" 
d="M350 756v102h106v-102h-106zM611 756v102h106v-102h-106zM228 0l-203 710h102l152 -571q1 -5 5 -20.5t5 -23.5h3q1 6 11 44l180 571h99l180 -571q9 -28 12 -44h2q2 10 11 44l152 571h102l-204 -710h-121l-171 554q-10 25 -10 41h-5q0 -14 -9 -41l-172 -554h-121z" />
    <glyph glyph-name="wdieresis" unicode="&#x1e85;" horiz-adv-x="892" 
d="M267 596v108h106v-108h-106zM519 596v108h106v-108h-106zM197 0l-176 500h93l124 -369q7 -27 11 -51h2q0 4 13 51l133 369h97l134 -369q12 -44 13 -51h2q2 13 11 51l124 369h93l-176 -500h-102l-134 369q-10 25 -12 49h-2q-4 -26 -12 -49l-134 -369h-102z" />
    <glyph glyph-name="Ygrave" unicode="&#x1ef2;" horiz-adv-x="694" 
d="M388 756h-90l-132 108h105zM296 0v271l-296 439h115l211 -318q15 -24 19 -39h2q4 15 19 39l213 318h115l-299 -439v-271h-99z" />
    <glyph glyph-name="ygrave" unicode="&#x1ef3;" horiz-adv-x="579" 
d="M333 580h-87l-146 146h111zM98 -203q-28 0 -52 4v78q24 -3 43 -3q113 0 153 100l11 27l-247 497h102l173 -367q10 -25 16 -47h1q12 37 16 47l162 367h98l-244 -532q-42 -92 -97.5 -131.5t-134.5 -39.5z" />
    <glyph glyph-name="uni2002" unicode="&#x2002;" horiz-adv-x="500" 
 />
    <glyph glyph-name="uni2003" unicode="&#x2003;" horiz-adv-x="1000" 
 />
    <glyph glyph-name="uni2004" unicode="&#x2004;" horiz-adv-x="0" 
 />
    <glyph glyph-name="uni2005" unicode="&#x2005;" horiz-adv-x="250" 
 />
    <glyph glyph-name="uni2009" unicode="&#x2009;" horiz-adv-x="135" 
 />
    <glyph glyph-name="uni200A" unicode="&#x200a;" horiz-adv-x="75" 
 />
    <glyph glyph-name="endash" unicode="&#x2013;" horiz-adv-x="636" 
d="M53 313h530v-70h-530v70z" />
    <glyph glyph-name="emdash" unicode="&#x2014;" horiz-adv-x="918" 
d="M53 313h812v-70h-812v70z" />
    <glyph glyph-name="quoteleft" unicode="&#x2018;" horiz-adv-x="288" 
d="M180 725l23 -47q-37 -14 -50.5 -34.5t-13.5 -56.5v-3h68v-123h-126v111q0 64 22 98.5t77 54.5z" />
    <glyph glyph-name="quoteright" unicode="&#x2019;" horiz-adv-x="288" 
d="M108 446l-23 47q37 14 50.5 34.5t13.5 56.5v3h-68v123h126v-111q0 -64 -22 -98.5t-77 -54.5z" />
    <glyph glyph-name="quotesinglbase" unicode="&#x201a;" horiz-adv-x="288" 
d="M108 -141l-23 47q37 14 50.5 34.5t13.5 56.5v3h-68v123h126v-111q0 -64 -22 -98.5t-77 -54.5z" />
    <glyph glyph-name="quotedblleft" unicode="&#x201c;" horiz-adv-x="467" 
d="M180 726l23 -47q-37 -14 -50.5 -34.5t-13.5 -56.5v-3h68v-123h-126v111q0 64 22 98.5t77 54.5zM359 726l23 -47q-37 -14 -50.5 -34.5t-13.5 -56.5v-3h68v-123h-126v111q0 64 22 98.5t77 54.5z" />
    <glyph glyph-name="quotedblright" unicode="&#x201d;" horiz-adv-x="467" 
d="M108 446l-23 47q37 14 50.5 34.5t13.5 56.5v3h-68v123h126v-111q0 -64 -22 -98.5t-77 -54.5zM287 446l-23 47q37 14 50.5 34.5t13.5 56.5v3h-68v123h126v-111q0 -64 -22 -98.5t-77 -54.5z" />
    <glyph glyph-name="quotedblbase" unicode="&#x201e;" horiz-adv-x="467" 
d="M108 -141l-23 47q37 14 50.5 34.5t13.5 56.5v3h-68v123h126v-111q0 -64 -22 -98.5t-77 -54.5zM287 -141l-23 47q37 14 50.5 34.5t13.5 56.5v3h-68v123h126v-111q0 -64 -22 -98.5t-77 -54.5z" />
    <glyph glyph-name="dagger" unicode="&#x2020;" horiz-adv-x="564" 
d="M325 429v-528h-86v528h-170v71h170v220h86v-220h170v-71h-170z" />
    <glyph glyph-name="daggerdbl" unicode="&#x2021;" horiz-adv-x="564" 
d="M495 429h-170v-241h170v-71h-170v-216h-86v216h-169v71h169v241h-170v71h170v220h86v-220h170v-71z" />
    <glyph glyph-name="bullet" unicode="&#x2022;" horiz-adv-x="353" 
d="M176 251q-42 0 -68.5 26t-26.5 68q0 43 26.5 69.5t68.5 26.5q43 0 69.5 -26t26.5 -70q0 -42 -27 -68t-69 -26z" />
    <glyph glyph-name="ellipsis" unicode="&#x2026;" horiz-adv-x="900" 
d="M208 115v-115h-127v115h127zM514 115v-115h-127v115h127zM820 115v-115h-127v115h127z" />
    <glyph glyph-name="perthousand" unicode="&#x2030;" horiz-adv-x="1308" 
d="M215 356q-87 0 -139.5 49.5t-51.5 133.5q-1 80 51.5 129.5t138.5 49.5q84 0 137.5 -50.5t53.5 -131.5t-53 -130.5t-137 -49.5zM144 -18l509 731h88l-509 -731h-88zM215 422q51 0 82 30.5t31 83.5q0 54 -31 85.5t-83 31.5q-53 0 -84.5 -31t-31.5 -83q0 -55 31.5 -86
t85.5 -31zM676 -17q-87 0 -139.5 49.5t-51.5 133.5q-1 80 51.5 129.5t138.5 49.5q84 0 137.5 -50.5t53.5 -131.5t-53 -130.5t-137 -49.5zM1094 -17q-87 0 -139.5 49.5t-51.5 133.5q-1 80 51.5 129.5t138.5 49.5q84 0 137.5 -50.5t53.5 -131.5t-53 -130.5t-137 -49.5zM676 49
q51 0 82 30.5t31 83.5q0 54 -31 85.5t-83 31.5q-53 0 -84.5 -31t-31.5 -83q0 -55 31.5 -86t85.5 -31zM1094 49q51 0 82 30.5t31 83.5q0 54 -31 85.5t-83 31.5q-53 0 -84.5 -31t-31.5 -83q0 -55 31.5 -86t85.5 -31z" />
    <glyph glyph-name="guilsinglleft" unicode="&#x2039;" horiz-adv-x="352" 
d="M232 67l-201 208l203 208h98l-196 -208l195 -208h-99z" />
    <glyph glyph-name="guilsinglright" unicode="&#x203a;" horiz-adv-x="352" 
d="M120 67h-99l195 208l-196 208h98l203 -208z" />
    <glyph glyph-name="fraction" unicode="&#x2044;" horiz-adv-x="199" 
d="M-191 -17l498 744h83l-497 -744h-84z" />
    <glyph glyph-name="uni20A9" unicode="&#x20a9;" horiz-adv-x="1091" 
d="M1065 695l-74 -242h70v-57h-88l-25 -83h113v-57h-131l-78 -256h-108l-85 256h-227l-85 -256h-107l-79 256h-131v57h114l-26 83h-88v57h71l-75 242h94l69 -242h231l82 242h88l82 -242h231l69 242h93zM510 489l-12 -36h95l-12 36q-22 65 -33 131h-5q-8 -57 -33 -131z
M205 396l23 -83h144l28 83h-195zM451 313h189l-28 83h-133zM864 313l23 83h-196l28 -83h145zM329 186l24 70h-108l18 -65q21 -69 30 -119h2q8 46 34 114zM829 191l18 65h-109l24 -70q28 -73 34 -114h3q8 50 30 119z" />
    <glyph glyph-name="Euro" unicode="&#x20ac;" horiz-adv-x="775" 
d="M671 181l75 -44q-46 -73 -124 -114t-182 -41q-149 0 -237 75.5t-114 199.5h-78v60h70q-2 28 -2 41q0 24 1 36h-69v61h78q26 120 116.5 189t239.5 69q203 0 299 -142l-81 -49q-76 110 -225 110q-103 0 -166.5 -46.5t-85.5 -130.5h392v-61h-402q-1 -11 -1 -35q0 -14 2 -42
h401v-60h-391q24 -90 90 -142t166 -52q147 0 228 118z" />
    <glyph glyph-name="uni20B9" unicode="&#x20b9;" horiz-adv-x="648" 
d="M629 695v-67h-206q58 -37 67 -111h139v-59h-139q-9 -86 -76.5 -131.5t-187.5 -46.5h-28l276 -280h-117l-283 296v54h155q152 0 167 108h-322v59h322q-17 111 -152 111h-170v67h555z" />
    <glyph glyph-name="uni20BA" unicode="&#x20ba;" horiz-adv-x="644" 
d="M542 241l86 -17q-54 -224 -289 -224h-220v270l-89 -22v64l89 22v83l-89 -22v65l89 22v213h94v-190l306 75v-65l-306 -75v-83l306 76v-65l-306 -75v-211h111q52 0 91 13.5t63.5 38t38.5 49.5t25 58z" />
    <glyph glyph-name="uni20BD" unicode="&#x20bd;" horiz-adv-x="670" 
d="M404 282h-192v-82h227v-60h-227v-140h-93v140h-91v60h91v82h-90v69h90v344h285q112 0 177.5 -55.5t65.5 -150.5t-65.5 -151t-177.5 -56zM212 613v-262h187q69 0 110 36t41 97q0 59 -41 94t-110 35h-187z" />
    <glyph glyph-name="uni2105" unicode="&#x2105;" horiz-adv-x="956" 
d="M233 -13h-86l567 746h86zM39 544q0 85 51 136t145 51q69 0 116.5 -34.5t58.5 -93.5l-74 -14q-18 75 -104 75q-54 0 -85 -32t-31 -87q0 -57 31 -90t87 -33q43 0 69.5 20.5t33.5 57.5l72 -14q-13 -59 -58 -95t-117 -36q-91 0 -143 52.5t-52 136.5zM726 -7
q-87 0 -139.5 51.5t-52.5 137.5q0 85 53 136t139 51q85 0 138 -51.5t53 -136.5q0 -86 -53 -137t-138 -51zM840 181q0 57 -30.5 89.5t-83.5 32.5t-84.5 -32.5t-31.5 -88.5q0 -58 31 -90.5t85 -32.5q53 0 83.5 32.5t30.5 89.5z" />
    <glyph glyph-name="uni2113" unicode="&#x2113;" horiz-adv-x="467" 
d="M191 167q0 -50 24 -72.5t76 -22.5q35 0 79 7v-79q-44 -9 -97 -9q-95 0 -133 45t-38 129v42q-41 -17 -102 -37l-30 66q98 34 132 49v276q0 88 45.5 130t111.5 42q77 0 116.5 -46t39.5 -125q0 -195 -224 -314v-81zM191 578v-249q136 85 136 225q0 59 -17.5 84.5t-52.5 25.5
q-31 0 -48.5 -22.5t-17.5 -63.5z" />
    <glyph glyph-name="uni2116" unicode="&#x2116;" horiz-adv-x="1386" 
d="M107 0v710h119l392 -524q34 -49 46 -81h2q-2 54 -2 91v514h89v-710h-113l-399 530q-35 52 -45 79h-2q2 -50 2 -87v-522h-89zM1072 185q-116 0 -184.5 63.5t-68.5 164.5t68.5 164t184.5 63q115 0 184 -63.5t69 -163.5q0 -101 -68.5 -164.5t-184.5 -63.5zM1072 257
q77 0 120 42t43 114q0 71 -43 113t-120 42t-120.5 -42t-43.5 -113q0 -72 43.5 -114t120.5 -42zM819 0v77h505v-77h-505z" />
    <glyph glyph-name="trademark" unicode="&#x2122;" horiz-adv-x="970" 
d="M158 308v349h-153v57h383v-57h-162v-349h-68zM431 308v406h98l116 -285q14 -34 23 -67h2q9 33 23 67l115 285h99v-406h-64v283q0 43 3 70h-2q-6 -17 -25 -65l-118 -288h-65l-118 288q-24 63 -24 65h-2q3 -27 3 -70v-283h-64z" />
    <glyph glyph-name="uni2126" unicode="&#x2126;" horiz-adv-x="775" 
d="M707 0h-263l-15 220q100 13 154 68t54 144q0 100 -66 156t-184 56t-183.5 -56t-65.5 -156q0 -89 54 -144t154 -68l-15 -220h-263v81h189l7 87q-102 25 -159 95t-57 171q0 130 92.5 208.5t246.5 78.5q155 0 247.5 -78.5t92.5 -208.5q0 -100 -57.5 -170.5t-159.5 -95.5
l8 -87h189v-81z" />
    <glyph glyph-name="estimated" unicode="&#x212e;" horiz-adv-x="826" 
d="M787 354h-590v-232q85 -77 234 -77q97 0 166 31.5t125 102.5l45 -36q-112 -159 -336 -159q-80 0 -148.5 21.5t-124 64t-87.5 115t-32 166.5q0 175 111 271.5t275 96.5q166 0 264 -89t98 -236v-40zM640 588q-74 76 -220 76q-138 0 -223 -80v-172h443v176z" />
    <glyph glyph-name="uni2153" unicode="&#x2153;" horiz-adv-x="924" 
d="M102 -17l498 744h83l-497 -744h-84zM135 327v287q-32 -40 -92 -40h-16v67h10q88 0 111 70h63v-384h-76zM705 -10q-82 0 -130 34.5t-49 93.5l77 6q1 -37 28 -58t74 -21q101 0 101 66q0 57 -103 57h-40v54h39q95 0 95 56q0 31 -25 46.5t-68 15.5q-98 0 -100 -78l-76 5
q1 59 48.5 93.5t129.5 34.5q78 0 123.5 -28t45.5 -81q0 -37 -27.5 -59.5t-70.5 -27.5q52 -5 81 -28.5t29 -63.5q0 -56 -50 -86.5t-132 -30.5z" />
    <glyph glyph-name="uni2154" unicode="&#x2154;" horiz-adv-x="1056" 
d="M234 -17l498 744h83l-497 -744h-84zM36 327v52q57 29 85.5 44.5t69 40.5t59.5 43t33.5 41.5t14.5 47.5q0 33 -23.5 51.5t-65.5 18.5q-41 0 -67.5 -18t-26.5 -54q0 -10 3 -24l-78 6q-2 16 -2 26q0 58 47.5 89t124.5 31t122 -30t45 -88q0 -115 -231 -221h240v-56h-350z
M837 -10q-82 0 -130 34.5t-49 93.5l77 6q1 -37 28 -58t74 -21q101 0 101 66q0 57 -103 57h-40v54h39q95 0 95 56q0 31 -25 46.5t-68 15.5q-98 0 -100 -78l-76 5q1 59 48.5 93.5t129.5 34.5q78 0 123.5 -28t45.5 -81q0 -37 -27.5 -59.5t-70.5 -27.5q52 -5 81 -28.5t29 -63.5
q0 -56 -50 -86.5t-132 -30.5z" />
    <glyph glyph-name="oneeighth" unicode="&#x215b;" horiz-adv-x="930" 
d="M600 727h83l-497 -744h-84zM135 614q-32 -40 -92 -40h-16v67h10q88 0 111 70h63v-384h-76v287zM790 211q55 -14 80.5 -40t25.5 -69q0 -53 -49.5 -82.5t-137.5 -29.5q-85 0 -133.5 28.5t-48.5 78.5q0 74 99 95q-88 25 -88 97q0 48 46 77t123 29q80 0 127 -26.5t47 -72.5
q0 -65 -91 -85zM612 288q0 -48 85 -61l42 -7q38 10 53 24.5t15 39.5q0 29 -26.5 46t-72.5 17q-44 0 -70 -16t-26 -43zM711 40q49 0 78 17.5t29 47.5q0 53 -90 68l-44 8q-80 -21 -80 -72q0 -32 28.5 -50.5t78.5 -18.5z" />
    <glyph glyph-name="threeeighths" unicode="&#x215c;" horiz-adv-x="1069" 
d="M739 727h83l-497 -744h-84zM395 434q0 -56 -50 -86.5t-132 -30.5t-130 34.5t-49 93.5l77 6q1 -37 28 -58t74 -21q101 0 101 66q0 57 -103 57h-40v54h39q95 0 95 56q0 31 -25 46.5t-68 15.5q-98 0 -100 -78l-76 5q1 59 48.5 93.5t129.5 34.5q78 0 123.5 -28t45.5 -81
q0 -37 -27.5 -59.5t-70.5 -27.5q52 -5 81 -28.5t29 -63.5zM929 211q55 -14 80.5 -40t25.5 -69q0 -53 -49.5 -82.5t-137.5 -29.5q-85 0 -133.5 28.5t-48.5 78.5q0 74 99 95q-88 25 -88 97q0 48 46 77t123 29q80 0 127 -26.5t47 -72.5q0 -65 -91 -85zM751 288q0 -48 85 -61
l42 -7q38 10 53 24.5t15 39.5q0 29 -26.5 46t-72.5 17q-44 0 -70 -16t-26 -43zM850 40q49 0 78 17.5t29 47.5q0 53 -90 68l-44 8q-80 -21 -80 -72q0 -32 28.5 -50.5t78.5 -18.5z" />
    <glyph glyph-name="fiveeighths" unicode="&#x215d;" horiz-adv-x="1057" 
d="M727 727h83l-497 -744h-84zM385 456q0 -64 -48 -101.5t-129 -37.5q-71 0 -117.5 29t-54.5 78l73 9q6 -29 32 -45.5t66 -16.5q47 0 74.5 23t27.5 61t-26 60t-72 22q-35 0 -63 -16t-36 -39l-66 5l24 224h291v-54h-235l-13 -121q33 50 121 50q70 0 110.5 -35t40.5 -95z
M917 211q55 -14 80.5 -40t25.5 -69q0 -53 -49.5 -82.5t-137.5 -29.5q-85 0 -133.5 28.5t-48.5 78.5q0 74 99 95q-88 25 -88 97q0 48 46 77t123 29q80 0 127 -26.5t47 -72.5q0 -65 -91 -85zM739 288q0 -48 85 -61l42 -7q38 10 53 24.5t15 39.5q0 29 -26.5 46t-72.5 17
q-44 0 -70 -16t-26 -43zM838 40q49 0 78 17.5t29 47.5q0 53 -90 68l-44 8q-80 -21 -80 -72q0 -32 28.5 -50.5t78.5 -18.5z" />
    <glyph glyph-name="seveneighths" unicode="&#x215e;" horiz-adv-x="969" 
d="M639 727h83l-497 -744h-84zM119 331q0 94 45.5 177t126.5 145h-267v58h339v-57q-162 -130 -163 -320v-7h-81v4zM829 211q55 -14 80.5 -40t25.5 -69q0 -53 -49.5 -82.5t-137.5 -29.5q-85 0 -133.5 28.5t-48.5 78.5q0 74 99 95q-88 25 -88 97q0 48 46 77t123 29
q80 0 127 -26.5t47 -72.5q0 -65 -91 -85zM651 288q0 -48 85 -61l42 -7q38 10 53 24.5t15 39.5q0 29 -26.5 46t-72.5 17q-44 0 -70 -16t-26 -43zM750 40q49 0 78 17.5t29 47.5q0 53 -90 68l-44 8q-80 -21 -80 -72q0 -32 28.5 -50.5t78.5 -18.5z" />
    <glyph glyph-name="arrowleft" unicode="&#x2190;" horiz-adv-x="1166" 
d="M1059 301h-787v-95l-165 124l165 124v-95h787v-58z" />
    <glyph glyph-name="arrowup" unicode="&#x2191;" horiz-adv-x="461" 
d="M201 -35v620h-94l124 165l124 -165h-95v-620h-59z" />
    <glyph glyph-name="arrowright" unicode="&#x2192;" horiz-adv-x="1166" 
d="M107 359h787v95l165 -124l-165 -124v95h-787v58z" />
    <glyph glyph-name="arrowdown" unicode="&#x2193;" horiz-adv-x="461" 
d="M260 745v-620h94l-124 -165l-124 165h95v620h59z" />
    <glyph glyph-name="arrowboth" unicode="&#x2194;" horiz-adv-x="1164" 
d="M891 301h-619v-95l-165 124l165 124v-95h619v95l166 -124l-166 -124v95z" />
    <glyph glyph-name="arrowupdn" unicode="&#x2195;" horiz-adv-x="461" 
d="M107 125h94v460h-94l124 165l124 -165h-95v-460h95l-124 -165z" />
    <glyph glyph-name="uni2196" unicode="&#x2196;" horiz-adv-x="935" 
d="M186 587l-79 -81v204h202l-79 -80l598 -598l-43 -44z" />
    <glyph glyph-name="uni2197" unicode="&#x2197;" horiz-adv-x="935" 
d="M749 588l-599 -599l-43 44l598 598l-79 80h202v-204z" />
    <glyph glyph-name="uni2198" unicode="&#x2198;" horiz-adv-x="935" 
d="M749 134l79 81v-204h-202l79 80l-598 598l43 44z" />
    <glyph glyph-name="uni2199" unicode="&#x2199;" horiz-adv-x="935" 
d="M186 134l599 599l43 -44l-598 -598l79 -80h-202v204z" />
    <glyph glyph-name="uni21A9" unicode="&#x21a9;" horiz-adv-x="1116" 
d="M272 206l-165 124l165 124v-95h497q86 0 130.5 34.5t44.5 99.5q0 134 -175 134h-307v58h318q109 0 169.5 -50t60.5 -142t-61.5 -142t-176.5 -50h-500v-95z" />
    <glyph glyph-name="uni21AA" unicode="&#x21aa;" horiz-adv-x="1116" 
d="M844 206v95h-500q-115 0 -176.5 50t-61.5 142t60.5 142t169.5 50h318v-58h-307q-175 0 -175 -134q0 -65 44.5 -99.5t130.5 -34.5h497v95l165 -124z" />
    <glyph glyph-name="uni21B0" unicode="&#x21b0;" horiz-adv-x="1018" 
d="M851 0v571h-579v-95l-165 124l165 124v-95h639v-629h-60z" />
    <glyph glyph-name="uni21B1" unicode="&#x21b1;" horiz-adv-x="1018" 
d="M167 0h-60v629h639v95l165 -124l-165 -124v95h-579v-571z" />
    <glyph glyph-name="uni21B2" unicode="&#x21b2;" horiz-adv-x="1018" 
d="M851 710h60v-629h-639v-95l-165 124l165 124v-95h579v571z" />
    <glyph glyph-name="uni21B3" unicode="&#x21b3;" horiz-adv-x="1018" 
d="M167 710v-571h579v95l165 -124l-165 -124v95h-639v629h60z" />
    <glyph glyph-name="uni21B4" unicode="&#x21b4;" horiz-adv-x="1108" 
d="M908 711v-558h94l-124 -166l-124 166h94v500h-741v58h801z" />
    <glyph glyph-name="uni21BB" unicode="&#x21bb;" horiz-adv-x="1115" 
d="M885 188l-124 165h94q0 137 -99 222t-244 85t-242 -84t-97 -221t97 -222.5t242 -85.5q75 0 145.5 25.5t118.5 70.5l40 -50q-119 -108 -304 -108q-170 0 -287.5 103t-117.5 265q0 163 117 266t288 103q172 0 289 -103t117 -266h91z" />
    <glyph glyph-name="uni21C4" unicode="&#x21c4;" horiz-adv-x="1190" 
d="M1020 418h-748v-96l-165 124l165 124v-95h748v-57zM918 242v96l166 -124l-166 -124v95h-747v57h747z" />
    <glyph glyph-name="uni21C5" unicode="&#x21c5;" horiz-adv-x="695" 
d="M434 43v542h-94l124 165l124 -165h-94v-542h-60zM231 -40l-124 165h94v542h59v-542h95z" />
    <glyph glyph-name="partialdiff" unicode="&#x2202;" horiz-adv-x="678" 
d="M300 721q156 0 237 -98t81 -285q0 -166 -78 -260.5t-222 -94.5q-122 0 -195.5 66.5t-73.5 174.5q0 104 70 168.5t190 64.5q148 0 220 -99v1q0 139 -58.5 212t-171.5 73q-66 0 -135 -26l-29 71q80 32 165 32zM322 58q89 0 145.5 53.5t61.5 154.5q-66 116 -208 116
q-88 0 -135 -42.5t-47 -115.5q0 -76 49 -121t134 -45z" />
    <glyph glyph-name="emptyset" unicode="&#x2205;" horiz-adv-x="615" 
d="M573 511l-62 -58q53 -61 53 -149q0 -103 -70 -166.5t-186 -63.5q-93 0 -160 43l-64 -59l-42 39l63 58q-54 60 -54 149q0 103 70.5 166.5t186.5 63.5q94 0 160 -44l64 59zM131 304q0 -56 30 -97l251 231q-44 25 -104 25q-82 0 -129.5 -43.5t-47.5 -115.5zM484 304
q0 58 -30 97l-249 -231q42 -25 103 -25q82 0 129 43.5t47 115.5z" />
    <glyph glyph-name="uni2206" unicode="&#x2206;" horiz-adv-x="732" 
d="M20 0l296 704h103l293 -704h-692zM366 609l-223 -532h441z" />
    <glyph glyph-name="product" unicode="&#x220f;" horiz-adv-x="784" 
d="M593 -88v711h-402v-711h-89v793h580v-793h-89z" />
    <glyph glyph-name="summation" unicode="&#x2211;" horiz-adv-x="690" 
d="M50 -88v66l339 348l-326 314v65h566v-79h-437l317 -299l-339 -336h471v-79h-591z" />
    <glyph glyph-name="minus" unicode="&#x2212;" horiz-adv-x="616" 
d="M53 287v82h510v-82h-510z" />
    <glyph glyph-name="radical" unicode="&#x221a;" horiz-adv-x="695" 
d="M40 304h160l97 -283l269 713h87l-314 -828h-82l-120 327h-97v71z" />
    <glyph glyph-name="infinity" unicode="&#x221e;" horiz-adv-x="696" 
d="M493 469q61 0 100 -38t39 -102q0 -63 -40 -102.5t-100 -39.5q-89 0 -146 81q-61 -81 -144 -81q-60 0 -99 38t-39 102q0 63 40 102.5t100 39.5q88 0 145 -81q61 81 144 81zM211 260q32 0 53 16.5t44 50.5q-45 69 -100 69q-31 0 -50.5 -18t-19.5 -50q0 -31 20 -49.5
t53 -18.5zM487 260q31 0 50.5 18t19.5 50q0 31 -20 49.5t-52 18.5q-33 0 -54 -16.5t-44 -50.5q45 -69 100 -69z" />
    <glyph glyph-name="integral" unicode="&#x222b;" horiz-adv-x="608" 
d="M127 -116q-21 0 -46 3v76q18 -3 48 -3q71 0 100.5 31.5t29.5 114.5v391q0 105 51 160.5t154 54.5q31 0 59 -4v-75q-27 5 -59 5q-61 0 -88.5 -35t-27.5 -114v-391q0 -108 -54 -161t-167 -53z" />
    <glyph glyph-name="approxequal" unicode="&#x2248;" 
d="M471 363q-43 0 -124 26.5t-118 26.5q-80 0 -135 -44v81q22 19 60 31.5t74 12.5q50 0 128 -26.5t114 -26.5q78 0 133 44v-81q-20 -19 -57.5 -31.5t-74.5 -12.5zM471 171q-43 0 -124 26.5t-118 26.5q-80 0 -135 -44v81q22 19 60 31.5t74 12.5q50 0 128 -26.5t114 -26.5
q78 0 133 44v-81q-20 -19 -57.5 -31.5t-74.5 -12.5z" />
    <glyph glyph-name="notequal" unicode="&#x2260;" 
d="M588 384h-189l-51 -110h240v-81h-277l-60 -130h-60l60 130h-173v81h211l50 110h-261v81h299l58 126h59l-58 -126h152v-81z" />
    <glyph glyph-name="lessequal" unicode="&#x2264;" 
d="M596 131l-504 205v74l504 205v-82l-407 -159l407 -159v-84zM95 76h500v-76h-500v76z" />
    <glyph glyph-name="greaterequal" unicode="&#x2265;" 
d="M101 131v84l407 159l-407 159v82l504 -205v-74zM602 76v-76h-500v76h500z" />
    <glyph glyph-name="uni2460" unicode="&#x2460;" horiz-adv-x="883" 
d="M442 -20q-176 0 -289.5 101.5t-113.5 273.5t113.5 273.5t289.5 101.5t289.5 -101.5t113.5 -273.5t-113.5 -273.5t-289.5 -101.5zM442 27q152 0 250.5 89.5t98.5 238.5q0 150 -98.5 239t-250.5 89q-153 0 -251.5 -89t-98.5 -239q0 -149 99 -238.5t251 -89.5zM421 163v287
q-32 -40 -92 -40h-16v67h10q88 0 111 70h63v-384h-76z" />
    <glyph glyph-name="uni2461" unicode="&#x2461;" horiz-adv-x="883" 
d="M442 -20q-176 0 -289.5 101.5t-113.5 273.5t113.5 273.5t289.5 101.5t289.5 -101.5t113.5 -273.5t-113.5 -273.5t-289.5 -101.5zM442 27q152 0 250.5 89.5t98.5 238.5q0 150 -98.5 239t-250.5 89q-153 0 -251.5 -89t-98.5 -239q0 -149 99 -238.5t251 -89.5zM266 172v52
q57 29 85.5 44.5t69 40.5t59.5 43t33.5 41.5t14.5 47.5q0 33 -23.5 51.5t-65.5 18.5q-41 0 -67.5 -18t-26.5 -54q0 -11 3 -24l-78 6q-2 16 -2 26q0 58 47.5 89t124.5 31t122 -30t45 -88q0 -115 -231 -221h240v-56h-350z" />
    <glyph glyph-name="uni2462" unicode="&#x2462;" horiz-adv-x="883" 
d="M442 -20q-176 0 -289.5 101.5t-113.5 273.5t113.5 273.5t289.5 101.5t289.5 -101.5t113.5 -273.5t-113.5 -273.5t-289.5 -101.5zM442 27q152 0 250.5 89.5t98.5 238.5q0 150 -98.5 239t-250.5 89q-153 0 -251.5 -89t-98.5 -239q0 -149 99 -238.5t251 -89.5zM440 153
q-82 0 -130 34.5t-49 93.5l77 6q1 -37 28 -58t74 -21q101 0 101 66q0 57 -103 57h-40v54h39q95 0 95 56q0 31 -25 46.5t-68 15.5q-98 0 -100 -78l-76 5q1 59 48.5 93.5t129.5 34.5q78 0 123.5 -28t45.5 -81q0 -37 -27.5 -59.5t-70.5 -27.5q52 -5 81 -28.5t29 -63.5
q0 -56 -50 -86.5t-132 -30.5z" />
    <glyph glyph-name="uni2463" unicode="&#x2463;" horiz-adv-x="883" 
d="M442 -20q-176 0 -289.5 101.5t-113.5 273.5t113.5 273.5t289.5 101.5t289.5 -101.5t113.5 -273.5t-113.5 -273.5t-289.5 -101.5zM442 27q152 0 250.5 89.5t98.5 238.5q0 150 -98.5 239t-250.5 89q-153 0 -251.5 -89t-98.5 -239q0 -149 99 -238.5t251 -89.5zM621 262h-82
v-89h-74v89h-241v52l235 243h80v-242h82v-53zM465 494l-175 -179h175v179z" />
    <glyph glyph-name="uni2464" unicode="&#x2464;" horiz-adv-x="883" 
d="M442 -20q-176 0 -289.5 101.5t-113.5 273.5t113.5 273.5t289.5 101.5t289.5 -101.5t113.5 -273.5t-113.5 -273.5t-289.5 -101.5zM442 27q152 0 250.5 89.5t98.5 238.5q0 150 -98.5 239t-250.5 89q-153 0 -251.5 -89t-98.5 -239q0 -149 99 -238.5t251 -89.5zM440 158
q-71 0 -117.5 29t-54.5 78l73 9q6 -29 32 -45.5t66 -16.5q47 0 74.5 23t27.5 61t-26 60t-72 22q-35 0 -63 -16t-36 -39l-66 5l24 224h291v-54h-235l-13 -121q33 50 121 50q70 0 110.5 -35t40.5 -95q0 -64 -48 -101.5t-129 -37.5z" />
    <glyph glyph-name="uni2465" unicode="&#x2465;" horiz-adv-x="883" 
d="M442 730q176 0 289.5 -101.5t113.5 -273.5t-113.5 -273.5t-289.5 -101.5t-289.5 101.5t-113.5 273.5t113.5 273.5t289.5 101.5zM442 27q152 0 250.5 89.5t98.5 238.5q0 150 -98.5 239t-250.5 89q-153 0 -251.5 -89t-98.5 -239q0 -149 99 -238.5t251 -89.5zM469 422
q71 0 113 -35t42 -97t-47.5 -99.5t-128.5 -37.5q-91 0 -139.5 49.5t-48.5 146.5q0 98 49.5 153.5t140.5 55.5q141 0 166 -103l-74 -8q-16 58 -94 58q-116 0 -117 -150q34 67 138 67zM447 206q47 0 75 22t28 59q0 38 -27.5 60.5t-73.5 22.5q-42 0 -72.5 -19t-40.5 -53
q19 -92 111 -92z" />
    <glyph glyph-name="uni2466" unicode="&#x2466;" horiz-adv-x="883" 
d="M442 -20q-176 0 -289.5 101.5t-113.5 273.5t113.5 273.5t289.5 101.5t289.5 -101.5t113.5 -273.5t-113.5 -273.5t-289.5 -101.5zM442 27q152 0 250.5 89.5t98.5 238.5q0 150 -98.5 239t-250.5 89q-153 0 -251.5 -89t-98.5 -239q0 -149 99 -238.5t251 -89.5zM273 489v58
h339v-57q-162 -130 -163 -320v-7h-81v4q0 94 45.5 177t126.5 145h-267z" />
    <glyph glyph-name="uni2467" unicode="&#x2467;" horiz-adv-x="883" 
d="M442 730q176 0 289.5 -101.5t113.5 -273.5t-113.5 -273.5t-289.5 -101.5t-289.5 101.5t-113.5 273.5t113.5 273.5t289.5 101.5zM442 27q152 0 250.5 89.5t98.5 238.5q0 150 -98.5 239t-250.5 89q-153 0 -251.5 -89t-98.5 -239q0 -149 99 -238.5t251 -89.5zM520 374
q55 -14 80.5 -40t25.5 -69q0 -53 -49.5 -82.5t-137.5 -29.5q-85 0 -133.5 28.5t-48.5 78.5q0 74 99 95q-88 25 -88 97q0 48 46 77t123 29q80 0 127 -26.5t47 -72.5q0 -65 -91 -85zM342 451q0 -48 85 -61l42 -7q38 10 53 24.5t15 39.5q0 29 -26.5 46t-72.5 17q-44 0 -70 -16
t-26 -43zM441 203q49 0 78 17.5t29 47.5q0 53 -90 68l-44 8q-80 -21 -80 -72q0 -32 28.5 -50.5t78.5 -18.5z" />
    <glyph glyph-name="uni2468" unicode="&#x2468;" horiz-adv-x="883" 
d="M442 730q176 0 289.5 -101.5t113.5 -273.5t-113.5 -273.5t-289.5 -101.5t-289.5 101.5t-113.5 273.5t113.5 273.5t289.5 101.5zM442 27q152 0 250.5 89.5t98.5 238.5q0 150 -98.5 239t-250.5 89q-153 0 -251.5 -89t-98.5 -239q0 -149 99 -238.5t251 -89.5zM435 558
q188 0 188 -193q0 -212 -190 -212q-142 0 -164 106l73 9q16 -60 95 -60q109 0 115 139q-43 -48 -134 -48q-72 0 -115 35t-43 93q0 60 47 95.5t128 35.5zM436 349q77 0 114 56q-15 102 -112 102q-49 0 -77 -21.5t-28 -57.5t28 -57.5t75 -21.5z" />
    <glyph glyph-name="uni24EA" unicode="&#x24ea;" horiz-adv-x="883" 
d="M442 -20q-176 0 -289.5 101.5t-113.5 273.5t113.5 273.5t289.5 101.5t289.5 -101.5t113.5 -273.5t-113.5 -273.5t-289.5 -101.5zM442 27q152 0 250.5 89.5t98.5 238.5q0 150 -98.5 239t-250.5 89q-153 0 -251.5 -89t-98.5 -239q0 -149 99 -238.5t251 -89.5zM442 153
q-91 0 -144 53t-53 150q0 95 53 148.5t143 53.5q91 0 144.5 -53.5t53.5 -150.5q0 -96 -53 -148.5t-144 -52.5zM442 208q54 0 86 37.5t32 108.5q0 72 -32 110t-87 38q-54 0 -86 -37.5t-32 -108.5q0 -72 32 -110t87 -38z" />
    <glyph glyph-name="uni24FF" unicode="&#x24ff;" horiz-adv-x="883" 
d="M442 -20q-176 0 -289.5 101.5t-113.5 273.5t113.5 273.5t289.5 101.5t289.5 -101.5t113.5 -273.5t-113.5 -273.5t-289.5 -101.5zM443 152q90 0 144 53t54 149q0 97 -54 151t-145 54t-145 -53.5t-54 -149.5q0 -97 54 -150.5t146 -53.5zM443 212q-53 0 -84 36t-31 108
q0 70 31 106.5t83 36.5t83 -36.5t31 -108.5q0 -70 -30.5 -106t-82.5 -36z" />
    <glyph glyph-name="lozenge" unicode="&#x25ca;" horiz-adv-x="599" 
d="M338 -17h-79l-234 372l234 372h79l236 -372zM299 649l-181 -294l181 -294l183 294z" />
    <glyph glyph-name="circle" unicode="&#x25cb;" horiz-adv-x="883" 
d="M442 -20q-176 0 -289.5 101.5t-113.5 273.5t113.5 273.5t289.5 101.5t289.5 -101.5t113.5 -273.5t-113.5 -273.5t-289.5 -101.5zM442 27q152 0 250.5 89.5t98.5 238.5q0 150 -98.5 239t-250.5 89q-153 0 -251.5 -89t-98.5 -239q0 -149 99 -238.5t251 -89.5z" />
    <glyph glyph-name="uni2776" unicode="&#x2776;" horiz-adv-x="883" 
d="M442 -20q-176 0 -289.5 101.5t-113.5 273.5t113.5 273.5t289.5 101.5t289.5 -101.5t113.5 -273.5t-113.5 -273.5t-289.5 -101.5zM418 163h83v385h-68q-24 -71 -113 -71h-10v-71h16q60 0 92 39v-282z" />
    <glyph glyph-name="uni2777" unicode="&#x2777;" horiz-adv-x="883" 
d="M442 -20q-176 0 -289.5 101.5t-113.5 273.5t113.5 273.5t289.5 101.5t289.5 -101.5t113.5 -273.5t-113.5 -273.5t-289.5 -101.5zM265 168h354v60h-238q229 104 229 218q0 59 -46 88.5t-124 29.5q-77 0 -125.5 -31t-48.5 -89q0 -11 2 -25l83 -6q-2 8 -2 21q0 36 25.5 53
t64.5 17q40 0 62 -17.5t22 -49.5q0 -20 -7.5 -37.5t-27.5 -37t-36.5 -33t-54.5 -35.5t-60 -33.5t-72 -38.5v-54z" />
    <glyph glyph-name="uni2778" unicode="&#x2778;" horiz-adv-x="883" 
d="M442 -20q-176 0 -289.5 101.5t-113.5 273.5t113.5 273.5t289.5 101.5t289.5 -101.5t113.5 -273.5t-113.5 -273.5t-289.5 -101.5zM440 152q82 0 133 30.5t51 85.5q0 38 -29 63.5t-81 29.5q42 5 71 27.5t29 58.5q0 54 -47 83t-126 29q-83 0 -131.5 -35t-47.5 -94l83 -6
q-1 38 24.5 58t69.5 20q40 0 65 -17t25 -47q0 -27 -24 -41.5t-61 -14.5h-35v-47h38q48 0 69 -17.5t21 -40.5q0 -33 -26.5 -50t-69.5 -17q-45 0 -71.5 21t-25.5 57l-84 -5q0 -61 48.5 -96t131.5 -35z" />
    <glyph glyph-name="uni2779" unicode="&#x2779;" horiz-adv-x="883" 
d="M442 -20q-176 0 -289.5 101.5t-113.5 273.5t113.5 273.5t289.5 101.5t289.5 -101.5t113.5 -273.5t-113.5 -273.5t-289.5 -101.5zM468 169h80v88h84v57h-84v240h-86l-235 -242v-55h241v-88zM298 314l170 172v-172h-170z" />
    <glyph glyph-name="uni277A" unicode="&#x277a;" horiz-adv-x="883" 
d="M442 -20q-176 0 -289.5 101.5t-113.5 273.5t113.5 273.5t289.5 101.5t289.5 -101.5t113.5 -273.5t-113.5 -273.5t-289.5 -101.5zM439 158q82 0 130.5 37.5t48.5 101.5q0 60 -40.5 95t-110.5 35q-84 0 -120 -48l13 116h234v58h-295l-24 -224l71 -7q7 22 34 37t60 15
q45 0 70.5 -20.5t25.5 -57.5t-26.5 -59t-71.5 -22q-37 0 -62.5 16t-31.5 44l-79 -9q8 -50 55 -79t119 -29z" />
    <glyph glyph-name="uni277B" unicode="&#x277b;" horiz-adv-x="883" 
d="M442 -20q-176 0 -289.5 101.5t-113.5 273.5t113.5 273.5t289.5 101.5t289.5 -101.5t113.5 -273.5t-113.5 -273.5t-289.5 -101.5zM448 152q81 0 129.5 38.5t48.5 100.5q0 61 -41.5 96t-112.5 35q-104 0 -137 -65q3 145 113 145q75 0 90 -55l79 7q-24 105 -166 105
q-92 0 -143 -56t-51 -154t49.5 -147.5t141.5 -49.5zM447 209q-91 0 -108 93q27 64 109 64q44 0 71 -21.5t27 -56.5q0 -37 -26.5 -58t-72.5 -21z" />
    <glyph glyph-name="uni277C" unicode="&#x277c;" horiz-adv-x="883" 
d="M442 -20q-176 0 -289.5 101.5t-113.5 273.5t113.5 273.5t289.5 101.5t289.5 -101.5t113.5 -273.5t-113.5 -273.5t-289.5 -101.5zM367 163h87q-1 191 158 323v62h-341v-63h267q-169 -127 -171 -322z" />
    <glyph glyph-name="uni277D" unicode="&#x277d;" horiz-adv-x="883" 
d="M442 -20q-176 0 -289.5 101.5t-113.5 273.5t113.5 273.5t289.5 101.5t289.5 -101.5t113.5 -273.5t-113.5 -273.5t-289.5 -101.5zM439 152q89 0 139 30t50 83q0 89 -106 109q48 12 69.5 32t21.5 54q0 46 -48 72.5t-128 26.5q-78 0 -125 -29.5t-47 -78.5q0 -77 96 -97
q-106 -22 -106 -94q0 -50 49.5 -79t134.5 -29zM471 385l-41 6q-44 8 -64 21.5t-20 37.5q0 26 25 41.5t67 15.5q44 0 70 -16.5t26 -44.5q0 -24 -14 -38.5t-49 -22.5zM441 206q-48 0 -75.5 18t-27.5 49q0 49 75 69l43 -7q46 -8 67 -23.5t21 -42.5q0 -29 -28 -46t-75 -17z" />
    <glyph glyph-name="uni277E" unicode="&#x277e;" horiz-adv-x="883" 
d="M442 -20q-176 0 -289.5 101.5t-113.5 273.5t113.5 273.5t289.5 101.5t289.5 -101.5t113.5 -273.5t-113.5 -273.5t-289.5 -101.5zM433 152q193 0 193 214q0 193 -191 193q-81 0 -129 -36t-48 -96q0 -57 43.5 -92.5t115.5 -35.5q89 0 131 42q-7 -130 -110 -130
q-75 0 -92 57l-78 -8q23 -108 165 -108zM436 351q-44 0 -71 21.5t-27 55.5q0 35 27.5 56t73.5 21q50 0 76.5 -25t32.5 -80q-36 -49 -112 -49z" />
    <glyph glyph-name="uniE000" unicode="&#xe000;" horiz-adv-x="1108" 
d="M200 711h801v-58h-741v-500h94l-124 -166l-124 166h94v558z" />
    <glyph glyph-name="i.loclTRK" horiz-adv-x="282" 
d="M89 592v111h103v-111h-103zM97 0v500h88v-500h-88z" />
    <glyph glyph-name="dollar.tf" 
d="M646 181q0 -95 -68 -146.5t-193 -53.5v-85h-51v86q-118 8 -191.5 64.5t-92.5 155.5l96 18q32 -143 188 -159v255l-52 9q-202 39 -202 198q0 86 66.5 136t187.5 54v85h51v-86q216 -11 249 -187l-93 -26q-12 66 -49.5 98.5t-106.5 38.5v-242l60 -12q106 -22 153.5 -68.5
t47.5 -132.5zM315 407l19 -4v235q-161 -5 -161 -112q0 -50 33.5 -77t108.5 -42zM385 58q169 0 169 120q0 52 -32 79.5t-102 42.5l-35 6v-248z" />
    <glyph glyph-name="cent.tf" 
d="M383 58q113 12 142 122l85 -18q-21 -74 -78 -122.5t-149 -54.5v-74h-55v74q-117 8 -181 82.5t-64 184.5q0 109 63.5 182t181.5 82v78h55v-78q93 -5 152 -51t76 -126l-90 -14q-23 104 -138 118v-385zM174 253q0 -79 40.5 -132t113.5 -62v384q-74 -9 -114 -60.5t-40 -129.5
z" />
    <glyph glyph-name="sterling.tf" 
d="M573 171l83 -16q-14 -87 -69 -130t-132 -43q-38 0 -106 14.5t-120 14.5q-86 0 -175 -19l-19 64q151 47 151 184q0 50 -11 92h-115v62h99q-16 66 -16 106q0 101 64 157t174 56q93 0 152.5 -41.5t79.5 -118.5l-91 -23q-27 109 -142 109q-139 0 -139 -136q0 -41 16 -109h197
v-62h-182q8 -37 8 -74q0 -128 -109 -179q39 7 92 7q37 0 96 -10t94 -10q48 0 80 25.5t40 79.5z" />
    <glyph glyph-name="florin.tf" 
d="M510 636q-54 0 -80 -27t-36 -94l-12 -82h164v-68h-174l-76 -515h-91l76 515h-135v68h145l11 71q17 116 64 162.5t146 46.5q37 0 68 -9v-78q-31 10 -70 10z" />
    <glyph glyph-name="yen.tf" 
d="M661 695l-265 -383h215v-58h-216v-71h216v-59h-216v-124h-93v124h-217v59h217v71h-217v58h216l-265 383h106l169 -252q22 -33 36 -70h2q16 39 37 70l168 252h107z" />
    <glyph glyph-name="Euro.tf" 
d="M403 60q118 0 187 113l70 -42q-39 -71 -105.5 -110t-153.5 -39q-125 0 -203.5 73.5t-99.5 203.5h-83v58h76q-1 13 -1 39v2q0 24 1 36h-76v59h83q23 125 105 193.5t208 68.5q166 0 250 -138l-76 -50q-64 110 -181 110q-85 0 -138.5 -46.5t-71.5 -137.5h287v-59h-294
q-1 -11 -1 -35v-2q0 -27 1 -40h294v-58h-287q18 -98 72 -148.5t137 -50.5z" />
    <glyph glyph-name="perthousand.tf" 
d="M168 422q-61 0 -97.5 39.5t-36.5 104.5q0 66 36.5 105t97.5 39q62 0 98.5 -39t36.5 -105q0 -65 -37 -104.5t-98 -39.5zM597 660v-74l-533 -399v73zM168 654q-32 0 -50 -23t-18 -65q0 -41 18 -64t50 -23t50.5 23t18.5 64q0 42 -18.5 65t-50.5 23zM528 273q61 0 97.5 -39
t36.5 -105q0 -65 -36.5 -104.5t-97.5 -39.5q-63 0 -98 44q-36 -44 -98 -44q-61 0 -97.5 39.5t-36.5 104.5q0 66 36.5 105t97.5 39q63 0 98 -44q35 44 98 44zM332 41q32 0 50 23t18 65q0 41 -18 64.5t-50 23.5t-50 -23.5t-18 -64.5q0 -42 18 -65t50 -23zM528 41q32 0 50 23
t18 65q0 41 -18 64.5t-50 23.5t-50 -23.5t-18 -64.5q0 -42 18 -65t50 -23z" />
    <glyph glyph-name="zero.zero" horiz-adv-x="737" 
d="M368 714q148 0 231.5 -99.5t83.5 -267.5q0 -167 -83.5 -266.5t-231.5 -99.5t-231.5 99.5t-83.5 266.5q0 168 83.5 267.5t231.5 99.5zM368 637q-106 0 -163.5 -77.5t-57.5 -212.5q0 -89 26 -155l358 369q-59 76 -163 76zM368 58q106 0 164 77.5t58 211.5q0 87 -24 151
l-356 -368q58 -72 158 -72z" />
    <glyph glyph-name="zero.tf" 
d="M348 -19q-141 0 -219 93t-79 273q1 181 79 274t219 93q142 0 220 -93.5t79 -273.5q-1 -181 -79.5 -273.5t-219.5 -92.5zM348 56q206 0 207 291q-1 292 -207 292t-206 -292q0 -291 206 -291z" />
    <glyph glyph-name="one.tf" 
d="M420 84h206v-84h-531v84h234v464q-54 -67 -192 -67h-33v83h25q85 0 137.5 35.5t74.5 95.5h79v-611z" />
    <glyph glyph-name="two.tf" 
d="M71 0v72q203 114 321 219q64 56 89 102.5t25 104.5q0 64 -42 101.5t-120 37.5q-75 0 -121 -37t-49 -103q-1 -17 4 -49l-92 11q-4 24 -3 46q4 96 77.5 152.5t187.5 56.5q123 0 188.5 -58t65.5 -157q0 -126 -136 -249q-89 -80 -261 -170h415v-80h-549z" />
    <glyph glyph-name="three.tf" 
d="M351 -19q-127 0 -203 59t-82 154l89 11q9 -68 59 -108.5t139 -40.5q88 0 136 35.5t48 102.5q0 64 -48.5 96.5t-134.5 32.5h-54v72h51q75 0 118 34t43 92q0 55 -41.5 86.5t-123.5 31.5q-88 0 -133.5 -45t-47.5 -122l-88 17q0 95 72.5 159.5t200.5 64.5q121 0 187.5 -52
t66.5 -139q0 -59 -41.5 -101t-98.5 -53q73 -10 119 -55.5t46 -119.5q0 -96 -73.5 -154t-205.5 -58z" />
    <glyph glyph-name="four.tf" 
d="M430 0v178h-389v59l372 458h105v-446h131v-71h-131v-178h-88zM140 249h290v277q0 47 3 88h-2q-12 -27 -49 -79l-191 -229q-29 -37 -51 -57z" />
    <glyph glyph-name="five.tf" 
d="M346 -19q-111 0 -183 51t-89 137l93 10q13 -55 60.5 -88.5t123.5 -33.5q85 0 133 45.5t48 125.5q0 79 -44 125.5t-131 46.5q-133 0 -177 -110l-88 9l41 396h451v-77h-379l-26 -239q63 94 200 94q112 0 179 -65t67 -176q0 -112 -76 -181.5t-203 -69.5z" />
    <glyph glyph-name="six.tf" 
d="M377 468q116 0 184 -64t68 -176q0 -109 -73.5 -178t-192.5 -69q-144 0 -221 92.5t-77 265.5q0 178 77.5 276.5t220.5 98.5q104 0 172.5 -48t85.5 -134l-94 -21q-31 126 -165 126q-101 0 -153.5 -74t-53.5 -215q27 55 84.5 87.5t137.5 32.5zM364 58q79 0 125.5 47
t46.5 123q0 78 -46 120t-128 42q-78 0 -130 -41t-69 -116q17 -83 68.5 -129t132.5 -46z" />
    <glyph glyph-name="seven.tf" 
d="M226 0v12q0 313 284 600h-433v83h546v-72q-139 -128 -215 -281.5t-76 -321.5v-20h-106z" />
    <glyph glyph-name="eight.tf" 
d="M474 372q80 -26 121 -69.5t41 -115.5q0 -94 -76 -150t-207 -56q-137 0 -214.5 53t-77.5 146q0 142 160 182q-135 49 -135 168q0 83 72 133.5t192 50.5q118 0 189 -50t71 -133q0 -60 -35 -101t-101 -58zM180 531q0 -47 33 -75.5t102 -45.5l69 -15q72 25 102 55t30 78
q0 55 -44 86t-124 31t-124 -30t-44 -84zM353 56q90 0 139.5 34.5t49.5 96.5q0 52 -37.5 82.5t-115.5 49.5l-80 18q-82 -22 -117.5 -56.5t-35.5 -90.5q0 -62 52 -98t145 -36z" />
    <glyph glyph-name="nine.tf" 
d="M332 714q145 0 221 -91.5t76 -263.5q0 -173 -73 -275.5t-215 -102.5q-110 0 -181.5 48.5t-89.5 136.5l94 21q30 -129 178 -129q98 0 146.5 78.5t48.5 219.5v8q-29 -51 -85.5 -80.5t-132.5 -29.5q-117 0 -187 58.5t-70 167.5q0 104 74.5 169t195.5 65zM330 331
q77 0 131.5 41t67.5 105q-35 160 -197 160q-81 0 -129 -42t-48 -114t47.5 -111t127.5 -39z" />
    <glyph glyph-name="gcommaaccent.ss01" horiz-adv-x="699" 
d="M371 767l20 -35q-30 -11 -39.5 -25t-9.5 -39h56v-88h-102v75q0 44 16 70t59 42zM329 -210q-116 0 -185.5 42t-84.5 126h95q26 -94 178 -94q182 0 182 161v77q-27 -53 -82 -82.5t-129 -29.5q-114 0 -187 74.5t-73 191.5q0 116 72.5 187.5t188.5 71.5q72 0 127.5 -28
t84.5 -78l17 91h69v-477q0 -116 -70 -174.5t-203 -58.5zM325 64q85 0 138 50.5t53 131.5v21q0 76 -54 124t-139 48q-86 0 -136.5 -49.5t-50.5 -133.5q0 -87 51.5 -139.5t137.5 -52.5z" />
    <glyph glyph-name="gdotaccent.ss01" horiz-adv-x="699" 
d="M295 592v111h103v-111h-103zM329 -210q-116 0 -185.5 42t-84.5 126h95q26 -94 178 -94q182 0 182 161v77q-27 -53 -82 -82.5t-129 -29.5q-114 0 -187 74.5t-73 191.5q0 116 72.5 187.5t188.5 71.5q72 0 127.5 -28t84.5 -78l17 91h69v-477q0 -116 -70 -174.5t-203 -58.5z
M325 64q85 0 138 50.5t53 131.5v21q0 76 -54 124t-139 48q-86 0 -136.5 -49.5t-50.5 -133.5q0 -87 51.5 -139.5t137.5 -52.5z" />
    <glyph glyph-name="Iacute_J.loclNLD" horiz-adv-x="757" 
d="M114 756l76 108h97l-88 -108h-85zM579 756l76 108h97l-88 -108h-85zM205 0h-98v710h98v-710zM671 220q0 -236 -235 -236q-71 0 -104 8v91q51 -8 103 -8q67 0 102.5 33.5t35.5 118.5v483h98v-490z" />
    <glyph glyph-name="iacute_j.loclNLD" horiz-adv-x="570" 
d="M101 580l74 146h96l-88 -146h-82zM388 580l74 146h96l-88 -146h-82zM97 0v500h88v-500h-88zM321 -203q-45 0 -69 6v76q27 -3 65 -3q36 0 52 21.5t16 79.5v523h88v-535q0 -168 -152 -168z" />
    <glyph glyph-name="g.ss01" horiz-adv-x="699" 
d="M329 -210q-116 0 -185.5 42t-84.5 126h95q26 -94 178 -94q182 0 182 161v77q-27 -53 -82 -82.5t-129 -29.5q-114 0 -187 74.5t-73 191.5q0 116 72.5 187.5t188.5 71.5q72 0 127.5 -28t84.5 -78l17 91h69v-477q0 -116 -70 -174.5t-203 -58.5zM325 64q85 0 138 50.5
t53 131.5v21q0 76 -54 124t-139 48q-86 0 -136.5 -49.5t-50.5 -133.5q0 -87 51.5 -139.5t137.5 -52.5z" />
    <glyph glyph-name="gbreve.ss01" horiz-adv-x="699" 
d="M252 726q2 -46 27 -69t68 -23q89 0 95 92h73q-4 -75 -49.5 -113t-118.5 -38q-74 0 -119.5 38t-49.5 113h74zM329 -210q-116 0 -185.5 42t-84.5 126h95q26 -94 178 -94q182 0 182 161v77q-27 -53 -82 -82.5t-129 -29.5q-114 0 -187 74.5t-73 191.5q0 116 72.5 187.5
t188.5 71.5q72 0 127.5 -28t84.5 -78l17 91h69v-477q0 -116 -70 -174.5t-203 -58.5zM325 64q85 0 138 50.5t53 131.5v21q0 76 -54 124t-139 48q-86 0 -136.5 -49.5t-50.5 -133.5q0 -87 51.5 -139.5t137.5 -52.5z" />
    <glyph glyph-name="gcircumflex.ss01" horiz-adv-x="699" 
d="M527 580h-86l-94 104l-94 -104h-86l131 146h98zM329 -210q-116 0 -185.5 42t-84.5 126h95q26 -94 178 -94q182 0 182 161v77q-27 -53 -82 -82.5t-129 -29.5q-114 0 -187 74.5t-73 191.5q0 116 72.5 187.5t188.5 71.5q72 0 127.5 -28t84.5 -78l17 91h69v-477
q0 -116 -70 -174.5t-203 -58.5zM325 64q85 0 138 50.5t53 131.5v21q0 76 -54 124t-139 48q-86 0 -136.5 -49.5t-50.5 -133.5q0 -87 51.5 -139.5t137.5 -52.5z" />
    <glyph glyph-name="g.sups.ss01" horiz-adv-x="549" 
d="M258 157q-183 0 -204 121h84q17 -68 123 -68q128 0 128 115v60q-18 -36 -59.5 -57t-97.5 -21q-85 0 -137.5 53t-52.5 138t53 136.5t140 51.5q117 0 157 -79l8 68h71v-345q0 -173 -213 -173zM256 361q60 0 97.5 35.5t37.5 91.5v17q0 56 -37 90.5t-96 34.5q-61 0 -96 -35.5
t-35 -97.5t35.5 -99t93.5 -37z" />
    <glyph glyph-name="a.sups" horiz-adv-x="516" 
d="M199 299q-69 0 -110 29.5t-41 78.5q0 56 44 80.5t126 33.5l145 12v8q0 91 -105 91q-104 0 -113 -75h-85q6 60 59.5 94.5t138.5 34.5q96 0 141.5 -37.5t45.5 -116.5v-102q0 -76 9 -120h-82q-4 37 -5 72q-18 -39 -62 -61t-106 -22zM226 352q61 0 100 30.5t39 78.5v30
l-132 -13q-102 -10 -102 -66q0 -28 25.5 -44t69.5 -16z" />
    <glyph glyph-name="b.sups" horiz-adv-x="554" 
d="M319 299q-112 0 -156 77l-7 -66h-71v529h80v-229q42 76 159 76q86 0 137 -53t51 -140t-52.5 -140.5t-140.5 -53.5zM295 357q61 0 96.5 36.5t35.5 99.5q0 62 -34.5 98t-96.5 36q-60 0 -96.5 -35t-36.5 -91v-17q0 -57 36 -92t96 -35z" />
    <glyph glyph-name="c.sups" horiz-adv-x="500" 
d="M257 299q-100 0 -158 52.5t-58 141.5q0 90 58 141.5t160 51.5q82 0 134 -35t64 -99l-82 -13q-16 87 -120 87q-61 0 -95.5 -34.5t-34.5 -96.5q0 -64 35 -100t97 -36q101 0 120 87l80 -13q-13 -63 -66 -98.5t-134 -35.5z" />
    <glyph glyph-name="d.sups" horiz-adv-x="554" 
d="M231 299q-86 0 -137.5 53.5t-51.5 140.5q0 86 52.5 139.5t140.5 53.5q110 0 154 -73v226h80v-529h-78v71q-45 -82 -160 -82zM259 358q59 0 95 35t36 90v17q0 57 -36.5 92.5t-96.5 35.5q-61 0 -96 -36t-35 -99q0 -62 35.5 -98.5t97.5 -36.5z" />
    <glyph glyph-name="e.sups" horiz-adv-x="504" 
d="M459 497v-22h-337q2 -53 38.5 -84t98.5 -31q98 0 129 72l65 -28q-52 -105 -196 -105q-101 0 -158.5 51.5t-57.5 142.5q0 90 57 141.5t154 51.5q98 0 152.5 -50t54.5 -139zM122 525h252q0 50 -33.5 79.5t-89.5 29.5t-91.5 -29.5t-37.5 -79.5z" />
    <glyph glyph-name="f.sups" horiz-adv-x="351" 
d="M323 675v-57h-126v-308h-80v308h-87v57h87v41q0 129 143 129q36 0 63 -7v-59q-21 5 -52 5q-74 0 -74 -70v-39h126z" />
    <glyph glyph-name="g.sups" horiz-adv-x="510" 
d="M451 676q-46 0 -63 -25q47 -33 47 -89q0 -57 -49.5 -90.5t-134.5 -33.5q-56 0 -98 15q-29 -11 -29 -33q0 -36 58 -36l160 -1q136 0 136 -100q0 -126 -233 -126q-208 0 -208 94q0 53 68 72q-53 18 -53 65q0 58 71 79q-58 33 -58 95q0 57 50 90.5t136 33.5q61 0 104 -17
q20 66 104 66q15 0 22 -1v-60q-16 2 -30 2zM251 485q45 0 72.5 21t27.5 56q0 36 -27 56t-73 20q-47 0 -74 -20t-27 -56q0 -35 27.5 -56t73.5 -21zM328 313l-163 1q-16 0 -24 1q-32 -17 -32 -48q0 -60 144 -60q147 0 147 59q0 47 -72 47z" />
    <glyph glyph-name="h.sups" horiz-adv-x="554" 
d="M85 310v529h81v-235q42 83 158 83q79 0 120.5 -44.5t41.5 -129.5v-203h-81v194q0 120 -112 120q-59 0 -93 -35.5t-34 -96.5v-182h-81z" />
    <glyph glyph-name="i.sups" horiz-adv-x="242" 
d="M77 732v98h88v-98h-88zM81 310v365h81v-365h-81z" />
    <glyph glyph-name="j.sups" horiz-adv-x="247" 
d="M81 732v98h87v-98h-87zM40 162q-37 0 -53 5v61q20 -4 40 -4q57 0 57 72v379h82v-388q0 -125 -126 -125z" />
    <glyph glyph-name="k.sups" horiz-adv-x="504" 
d="M392 310l-131 184l-95 -77v-107h-81v529h81v-345l207 181h104l-155 -137l164 -228h-94z" />
    <glyph glyph-name="l.sups" horiz-adv-x="250" 
d="M165 839v-529h-80v529h80z" />
    <glyph glyph-name="m.sups" horiz-adv-x="789" 
d="M79 675h79v-70q35 82 139 82t133 -82q43 82 146 82q71 0 108 -42t37 -120v-215h-80v202q0 111 -96 111q-48 0 -76.5 -30.5t-28.5 -81.5v-201h-80v205q0 108 -94 108q-49 0 -77.5 -32.5t-28.5 -88.5v-192h-81v365z" />
    <glyph glyph-name="n.sups" horiz-adv-x="549" 
d="M79 310v365h79v-76q42 88 161 88q79 0 120.5 -44t41.5 -128v-205h-82v194q0 119 -111 119q-59 0 -93 -35t-34 -97v-181h-82z" />
    <glyph glyph-name="o.sups" horiz-adv-x="515" 
d="M258 299q-98 0 -157.5 52t-59.5 142t59 141.5t158 51.5q98 0 157 -51.5t59 -141.5t-59 -142t-157 -52zM258 357q62 0 98 36t36 100t-36 99.5t-98 35.5t-98 -35.5t-36 -99.5q0 -65 36 -100.5t98 -35.5z" />
    <glyph glyph-name="p.sups" horiz-adv-x="548" 
d="M79 168v507h78v-69q46 80 163 80q85 0 135.5 -53t50.5 -140q0 -88 -52 -141t-138 -53q-110 0 -156 72v-203h-81zM291 358q60 0 95.5 36t35.5 99t-34.5 99t-95.5 36q-60 0 -97 -36t-37 -93v-12q0 -57 36.5 -93t96.5 -36z" />
    <glyph glyph-name="q.sups" horiz-adv-x="548" 
d="M389 168v208q-44 -78 -159 -78q-85 0 -136.5 54t-51.5 141q0 88 52.5 141t138.5 53q114 0 159 -78l8 66h69v-507h-80zM257 357q61 0 97 35.5t36 92.5v17q0 56 -36.5 91.5t-98.5 35.5q-59 0 -94 -35.5t-35 -99.5t35.5 -100.5t95.5 -36.5z" />
    <glyph glyph-name="r.sups" horiz-adv-x="351" 
d="M153 574q15 51 52 80.5t91 29.5q17 0 28 -2v-75q-12 2 -33 2q-57 0 -88 -29q-43 -40 -43 -123v-147h-81v365h74v-101z" />
    <glyph glyph-name="s.sups" horiz-adv-x="465" 
d="M245 299q-164 0 -211 104l55 34q44 -79 161 -79q97 0 97 53q0 22 -14.5 33.5t-51.5 15.5l-108 10q-119 15 -119 106q0 52 45.5 81t128.5 29q145 0 196 -87l-52 -37q-42 67 -149 67q-92 0 -92 -49q0 -38 66 -46l108 -10q63 -7 91 -33.5t28 -74.5q0 -56 -45.5 -86.5
t-133.5 -30.5z" />
    <glyph glyph-name="t.sups" horiz-adv-x="357" 
d="M21 619v56h88v92l80 31v-123h127v-56h-127v-179q0 -74 74 -74q23 0 53 6v-60q-35 -10 -72 -10q-135 0 -135 123v194h-88z" />
    <glyph glyph-name="u.sups" horiz-adv-x="546" 
d="M389 387q-18 -41 -59.5 -64.5t-99.5 -23.5q-80 0 -121 41t-41 119v216h82v-201q0 -60 29.5 -86.5t77.5 -26.5q61 0 95 36.5t34 90.5v187h81v-365h-78v77z" />
    <glyph glyph-name="v.sups" horiz-adv-x="472" 
d="M191 310l-174 365h87l113 -250q13 -31 17 -46h3q12 38 17 47l114 249h87l-174 -365h-90z" />
    <glyph glyph-name="w.sups" 
d="M159 310l-132 365h81l85 -253q7 -22 10 -41h2q5 25 12 41l93 253h78l93 -253q6 -19 11 -41h2q5 22 11 41l85 253h80l-131 -365h-84l-94 252q-8 19 -11 37h-2q-3 -18 -11 -37l-94 -252h-84z" />
    <glyph glyph-name="x.sups" horiz-adv-x="483" 
d="M25 310l165 188l-156 177h97l84 -96q21 -26 27 -39h2q9 18 27 39l84 96h92l-154 -176l165 -189h-96l-95 107q-19 23 -28 37h-1q-4 -9 -27 -37l-95 -107h-91z" />
    <glyph glyph-name="y.sups" horiz-adv-x="470" 
d="M92 161q-28 0 -49 4v63q20 -4 39 -4q77 0 110 68l7 17l-182 366h91l112 -246q12 -29 20 -51h1q10 27 21 50l105 247h86l-177 -385q-32 -69 -74 -99t-110 -30z" />
    <glyph glyph-name="z.sups" horiz-adv-x="452" 
d="M42 363l261 255h-250v57h352v-52l-261 -255h271v-58h-373v53z" />
    <glyph glyph-name="g_g.liga.ss01" horiz-adv-x="1398" 
d="M329 -210q-116 0 -185.5 42t-84.5 126h95q26 -94 178 -94q182 0 182 161v77q-27 -53 -82 -82.5t-129 -29.5q-114 0 -187 74.5t-73 191.5q0 116 72.5 187.5t188.5 71.5q72 0 127.5 -28t84.5 -78l17 91h69v-477q0 -116 -70 -174.5t-203 -58.5zM1028 -210q-116 0 -185.5 42
t-84.5 126h95q26 -94 178 -94q182 0 182 161v77q-27 -53 -82 -82.5t-129 -29.5q-114 0 -187 74.5t-73 191.5q0 116 72.5 187.5t188.5 71.5q72 0 127.5 -28t84.5 -78l17 91h69v-477q0 -116 -70 -174.5t-203 -58.5zM325 64q85 0 138 50.5t53 131.5v21q0 76 -54 124t-139 48
q-86 0 -136.5 -49.5t-50.5 -133.5q0 -87 51.5 -139.5t137.5 -52.5zM1024 64q85 0 138 50.5t53 131.5v21q0 76 -54 124t-139 48q-86 0 -136.5 -49.5t-50.5 -133.5q0 -87 51.5 -139.5t137.5 -52.5z" />
    <glyph glyph-name="zero.case" horiz-adv-x="737" 
d="M368 -19q-148 0 -231.5 102t-83.5 273t83.5 272.5t231.5 101.5t231.5 -101.5t83.5 -272.5t-83.5 -273t-231.5 -102zM368 58q106 0 164 80t58 218t-58 217.5t-164 79.5t-163.5 -79.5t-57.5 -217.5t57.5 -218t163.5 -80z" />
    <glyph glyph-name="one.case" horiz-adv-x="431" 
d="M213 0v558q-18 -24 -59 -40t-88 -16h-35v83h21q65 0 111 33.5t63 91.5h79v-710h-92z" />
    <glyph glyph-name="two.case" horiz-adv-x="654" 
d="M37 0v79q197 89 333 203q67 58 93.5 106.5t26.5 110.5q0 69 -43.5 110.5t-128.5 41.5q-81 0 -128 -41.5t-47 -112.5q0 -21 7 -56l-95 10q-6 26 -6 52q0 101 73.5 164t198.5 63q131 0 199 -63t68 -167q0 -77 -42 -142.5t-122 -132.5q-114 -86 -245 -141h423v-84h-565z" />
    <glyph glyph-name="three.case" horiz-adv-x="678" 
d="M338 -19q-131 0 -209 61.5t-87 165.5l92 12q9 -77 61 -119.5t145 -42.5t141 36.5t48 103.5q0 132 -189 132h-60v76h57q81 0 124 31.5t43 93.5q0 58 -44 90t-130 32q-89 0 -136.5 -44.5t-51.5 -121.5l-88 18q5 102 77.5 163.5t202.5 61.5q129 0 196.5 -51.5t67.5 -140.5
q0 -66 -41 -108.5t-107 -54.5q173 -24 173 -176q0 -98 -73 -158t-212 -60z" />
    <glyph glyph-name="four.case" horiz-adv-x="650" 
d="M637 185h-131v-185h-89v185h-405v63l385 462h109v-453h131v-72zM418 523q0 76 2 105h-2q-15 -31 -57 -84l-173 -206q-45 -55 -72 -81h302v266z" />
    <glyph glyph-name="five.case" horiz-adv-x="664" 
d="M333 -19q-113 0 -187.5 54t-94.5 148l96 14q15 -64 63.5 -101t125.5 -37q89 0 138.5 46.5t49.5 129.5t-47 130t-133 47q-137 0 -186 -123l-90 9l45 412h468v-80h-397l-29 -244q60 103 215 103q117 0 182.5 -66t65.5 -185q0 -117 -77.5 -187t-207.5 -70z" />
    <glyph glyph-name="six.case" horiz-adv-x="678" 
d="M371 478q121 0 190.5 -65.5t69.5 -179.5q0 -112 -76 -182t-198 -70q-148 0 -227.5 94.5t-79.5 272.5q0 183 80.5 282.5t226.5 99.5q108 0 178.5 -50.5t86.5 -140.5l-93 -21q-33 135 -173 135q-105 0 -160 -75.5t-55 -220.5q29 57 89 89t141 32zM357 58q82 0 131 48
t49 127q0 80 -47 123.5t-134 43.5q-81 0 -135.5 -42.5t-71.5 -119.5q17 -86 71 -133t137 -47z" />
    <glyph glyph-name="seven.case" horiz-adv-x="583" 
d="M164 0v12q0 161 76.5 319t215.5 296h-433v83h545v-72q-142 -128 -220 -287.5t-78 -330.5v-20h-106z" />
    <glyph glyph-name="eight.case" horiz-adv-x="686" 
d="M472 381q89 -28 129 -74t40 -118q0 -95 -79.5 -151.5t-214.5 -56.5q-141 0 -221.5 53.5t-80.5 147.5q0 147 167 189q-74 26 -108 68t-34 106q0 84 75 134.5t199 50.5t197.5 -49.5t73.5 -134.5q0 -63 -37 -105.5t-106 -59.5zM164 546q0 -48 34.5 -78.5t110.5 -47.5l69 -16
q79 26 111 57.5t32 81.5q0 56 -46.5 87t-131.5 31t-132 -30t-47 -85zM347 56q94 0 147 35t53 97q0 55 -38.5 88t-124.5 52l-80 19q-87 -24 -125.5 -60.5t-38.5 -95.5q0 -63 55 -99t152 -36z" />
    <glyph glyph-name="nine.case" horiz-adv-x="679" 
d="M326 730q148 0 225.5 -93t77.5 -269q0 -179 -75 -283t-229 -104q-109 0 -181.5 53t-88.5 147l94 21q27 -144 177 -144q211 0 211 308v8q-29 -52 -87.5 -82t-138.5 -30q-121 0 -192.5 60t-71.5 171q0 105 76.5 171t202.5 66zM322 340q81 0 137.5 41t69.5 106
q-16 76 -66 121.5t-137 45.5q-85 0 -135.5 -43t-50.5 -117t48.5 -114t133.5 -40z" />
    <glyph glyph-name="one.ss02.case" horiz-adv-x="595" 
d="M372 84h205v-84h-530v84h234v479q-54 -67 -192 -67h-33v83h25q85 0 137.5 35.5t74.5 95.5h79v-626z" />
    <glyph glyph-name="zero.tf.case" 
d="M348 -19q-141 0 -219 95t-79 280q1 185 79 279.5t219 94.5q142 0 220 -94.5t79 -279.5q-1 -185 -79.5 -280t-219.5 -95zM348 56q206 0 207 300q-1 300 -207 300t-206 -300t206 -300z" />
    <glyph glyph-name="one.tf.case" 
d="M420 84h206v-84h-531v84h234v478q-55 -68 -192 -68h-33v83h25q85 0 137.5 36.5t74.5 96.5h79v-626z" />
    <glyph glyph-name="two.tf.case" 
d="M71 0v72q194 109 321 222q64 58 89 106t25 108q0 67 -42 106.5t-120 39.5q-75 0 -120.5 -39t-49.5 -108q-1 -16 4 -49l-92 11q-4 24 -3 46q4 99 77 157t188 58q123 0 188.5 -59t65.5 -161q0 -131 -136 -257q-93 -85 -261 -173h415v-80h-549z" />
    <glyph glyph-name="three.tf.case" 
d="M351 -19q-127 0 -203 61.5t-82 159.5l89 11q9 -72 59 -114.5t139 -42.5q88 0 136 37t48 106q0 67 -48.5 100.5t-134.5 33.5h-54v71h51q75 0 118 35.5t43 95.5q0 56 -41.5 88.5t-123.5 32.5q-88 0 -133.5 -46.5t-47.5 -126.5l-88 17q0 98 72.5 164t200.5 66
q122 0 188 -52.5t66 -141.5q0 -60 -41 -103t-99 -56q73 -10 119 -56t46 -122q0 -99 -73.5 -158.5t-205.5 -59.5z" />
    <glyph glyph-name="four.tf.case" 
d="M430 0v185h-389v59l372 466h105v-454h131v-71h-131v-185h-88zM140 256h290v284q0 48 3 88h-2q-13 -29 -49 -79l-191 -235q-28 -36 -51 -58z" />
    <glyph glyph-name="five.tf.case" 
d="M347 -19q-110 0 -183 52.5t-90 142.5l93 10q13 -59 61 -94t125 -35q85 0 132 46.5t47 129.5q0 81 -43 129t-132 48q-132 0 -177 -111l-88 8l41 403h451v-78h-379l-26 -244q62 95 200 95q113 0 179.5 -66t66.5 -180q0 -115 -74.5 -185.5t-203.5 -70.5z" />
    <glyph glyph-name="six.tf.case" 
d="M377 478q116 0 184 -65t68 -179q0 -112 -73 -182.5t-193 -70.5q-144 0 -221 95t-77 272q0 182 77.5 282t220.5 100q104 0 172.5 -49t85.5 -138l-94 -21q-31 131 -165 131q-101 0 -153.5 -76t-53.5 -220q27 56 84.5 88.5t137.5 32.5zM364 58q80 0 126 48t46 127
q0 80 -46 123.5t-128 43.5q-78 0 -130 -42t-69 -118q17 -87 68.5 -134.5t132.5 -47.5z" />
    <glyph glyph-name="seven.tf.case" 
d="M226 0v12q0 161 74.5 318.5t209.5 295.5h-433v84h546v-72q-139 -129 -215 -288t-76 -330v-20h-106z" />
    <glyph glyph-name="eight.tf.case" 
d="M474 381q80 -25 121 -69t41 -117q0 -98 -76 -156t-207 -58q-137 0 -214.5 55.5t-77.5 151.5q0 143 160 183q-135 49 -135 170q0 86 72 137.5t192 51.5q119 0 189.5 -51t70.5 -137q0 -61 -35.5 -102.5t-100.5 -58.5zM180 542q0 -49 33 -78t102 -44l68 -15q73 25 103 55
t30 79q0 58 -43.5 90t-124.5 32q-80 0 -124 -31.5t-44 -87.5zM353 56q90 0 139.5 36.5t49.5 101.5q0 54 -38 85.5t-115 48.5l-79 19q-82 -23 -118 -58.5t-36 -91.5q0 -66 52 -103.5t145 -37.5z" />
    <glyph glyph-name="nine.tf.case" 
d="M332 730q145 0 221 -93t76 -269q0 -177 -73 -282t-215 -105q-110 0 -181.5 51t-89.5 142l94 21q30 -137 178 -137q98 0 146.5 81t48.5 227v8q-29 -52 -85.5 -82t-132.5 -30q-117 0 -187 59t-70 169q0 106 74.5 173t195.5 67zM330 340q78 0 132.5 41.5t66.5 106.5
q-16 76 -64.5 121t-132.5 45q-81 0 -129 -44t-48 -119q0 -72 47.5 -111.5t127.5 -39.5z" />
    <glyph glyph-name="zero.zero.case" horiz-adv-x="737" 
d="M368 730q148 0 231.5 -101.5t83.5 -272.5t-83.5 -273t-231.5 -102t-231.5 102t-83.5 273t83.5 272.5t231.5 101.5zM368 653q-106 0 -163.5 -79.5t-57.5 -217.5q0 -88 25 -157l360 375q-59 79 -164 79zM368 58q106 0 164 80t58 218q0 88 -24 153l-358 -375q57 -76 160 -76
z" />
    <glyph glyph-name="zero.tf.zero.case" 
d="M348 730q142 0 220 -94.5t79 -279.5q-1 -185 -79.5 -280t-219.5 -95t-219 95t-79 280q1 185 79 279.5t219 94.5zM348 656q-206 0 -206 -300q0 -91 20 -156l344 375q-51 81 -158 81zM348 56q206 0 207 300q0 90 -20 155l-345 -375q52 -80 158 -80z" />
    <glyph glyph-name="zero.osf" horiz-adv-x="714" 
d="M358 -19q-142 0 -227.5 78t-85.5 209q0 130 85 208t227 78t227 -79t85 -210q0 -128 -85 -206t-226 -78zM358 58q101 0 160.5 56t59.5 150q0 97 -59.5 154t-161.5 57t-161.5 -56t-59.5 -152q0 -97 59.5 -153t162.5 -56z" />
    <glyph glyph-name="one.osf" horiz-adv-x="640" 
d="M388 79h216v-79h-532v79h227v321q-19 -26 -74.5 -46.5t-113.5 -22.5h-33v83h23q69 0 131 34.5t82 86.5h74v-456z" />
    <glyph glyph-name="two.osf" horiz-adv-x="671" 
d="M44 65q162 54 255 100q104 59 143 102t39 97q0 51 -41 82t-108 31q-78 0 -121.5 -32.5t-43.5 -91.5q0 -23 3 -41l-94 13q-3 21 -3 34q0 86 72 140.5t187 54.5q111 0 176.5 -50t65.5 -134q0 -89 -88 -159q-82 -62 -268 -132h395v-79h-569v65z" />
    <glyph glyph-name="three.osf" horiz-adv-x="678" 
d="M332 -169q-128 0 -205.5 56.5t-84.5 156.5l92 10q9 -72 60 -109t140 -37q92 0 143.5 35.5t51.5 96.5q0 124 -183 124h-62v76h59q77 0 119 30.5t42 85.5q0 59 -44.5 90t-128.5 31q-88 0 -138.5 -43.5t-52.5 -121.5l-87 17q0 101 77.5 163t204.5 62q123 0 193 -51t70 -141
q0 -57 -37 -98t-96 -53q74 -11 116 -56.5t42 -114.5q0 -93 -80 -151t-211 -58z" />
    <glyph glyph-name="four.osf" horiz-adv-x="650" 
d="M418 -150v177h-406v63l386 445h108v-436h132v-72h-132v-177h-88zM114 99h304v262q0 60 1 92h-3q-17 -35 -46 -70l-202 -227q-27 -31 -54 -57z" />
    <glyph glyph-name="five.osf" horiz-adv-x="672" 
d="M337 -169q-112 0 -187.5 49.5t-98.5 136.5l96 15q16 -58 67 -91t124 -33q91 0 142 46.5t51 129.5q0 73 -48.5 115.5t-132.5 42.5q-135 0 -188 -112l-91 6l47 399h467v-80h-393l-33 -240q26 49 82.5 76.5t133.5 27.5q115 0 182.5 -63.5t67.5 -171.5q0 -115 -78.5 -184
t-209.5 -69z" />
    <glyph glyph-name="six.osf" horiz-adv-x="678" 
d="M371 468q121 0 190.5 -64t69.5 -176q0 -110 -76.5 -178.5t-197.5 -68.5q-148 0 -227.5 92.5t-79.5 265.5q0 179 80.5 277t226.5 98q108 0 178.5 -49t86.5 -137l-93 -21q-33 130 -173 130q-105 0 -160 -73.5t-55 -214.5q29 56 89.5 87.5t140.5 31.5zM357 58q82 0 131 46.5
t49 123.5t-47 119.5t-134 42.5q-81 0 -135.5 -41.5t-71.5 -117.5q17 -82 71 -127.5t137 -45.5z" />
    <glyph glyph-name="seven.osf" horiz-adv-x="589" 
d="M170 -150v12q0 307 292 590h-439v83h551v-72q-146 -126 -222 -277.5t-76 -315.5v-20h-106z" />
    <glyph glyph-name="eight.osf" horiz-adv-x="686" 
d="M472 372q88 -27 128.5 -71.5t40.5 -113.5q0 -95 -79 -150.5t-215 -55.5q-141 0 -221.5 53.5t-80.5 145.5q0 142 166 182q-73 25 -107 65.5t-34 102.5q0 83 75 133.5t199 50.5t197.5 -49.5t73.5 -133.5q0 -60 -37 -101t-106 -58zM164 531q0 -46 34.5 -75t110.5 -46l71 -15
q78 25 109.5 55t31.5 78q0 56 -46.5 86.5t-131.5 30.5q-84 0 -131.5 -30.5t-47.5 -83.5zM347 56q94 0 147 34.5t53 96.5q0 51 -38 81.5t-125 50.5l-81 19q-87 -22 -125 -57t-38 -91q0 -62 55 -98t152 -36z" />
    <glyph glyph-name="nine.osf" horiz-adv-x="684" 
d="M331 553q147 0 225 -90.5t78 -263.5q0 -175 -81 -271.5t-229 -96.5q-109 0 -177 42.5t-88 123.5l91 21q31 -110 175 -110q107 0 162.5 73.5t55.5 216.5v10q-31 -52 -92 -82t-138 -30q-126 0 -196 60.5t-70 167.5q0 103 78.5 166t205.5 63zM329 173q79 0 136 40t70 104
q-35 160 -205 160q-88 0 -139 -41t-51 -111q0 -72 49.5 -112t139.5 -40z" />
    <glyph glyph-name="one.ss02" horiz-adv-x="595" 
d="M370 84h206v-84h-531v84h234v464q-54 -67 -192 -67h-33v83h25q85 0 137.5 35.5t74.5 95.5h79v-611z" />
    <glyph glyph-name="zero.tosf" 
d="M349 -19q-139 0 -220 79t-81 209q0 128 81.5 206.5t218.5 78.5q138 0 219.5 -79.5t81.5 -208.5q0 -128 -81.5 -206.5t-218.5 -78.5zM349 58q96 0 152.5 56t56.5 150q0 97 -56.5 154t-153.5 57t-153 -56t-56 -152t56 -152.5t154 -56.5z" />
    <glyph glyph-name="one.tosf" 
d="M416 76h198v-76h-506v76h219v324q-18 -26 -72 -46.5t-110 -22.5h-40v83h30q67 0 127 34.5t80 86.5h74v-459z" />
    <glyph glyph-name="two.tosf" 
d="M61 65q174 59 255 100q103 59 142 102t39 97q0 49 -39 81t-110 32q-78 0 -121 -32.5t-43 -91.5q0 -29 3 -41l-94 13q-2 12 -2 34q0 85 70 140t188 55q115 0 178 -51.5t63 -132.5q0 -92 -88 -159q-91 -69 -268 -132h395v-79h-568v65z" />
    <glyph glyph-name="three.tosf" 
d="M351 -169q-128 0 -203.5 58t-81.5 156l89 11q8 -72 58 -111t140 -39q86 0 135 36t49 97q0 64 -48.5 96t-134.5 32h-54v71h51q75 0 118 33.5t43 90.5q0 54 -41.5 85.5t-124.5 31.5q-87 0 -132.5 -44.5t-47.5 -121.5l-88 17q0 95 72.5 159.5t200.5 64.5q122 0 188 -52
t66 -140q0 -57 -41 -98t-99 -53q73 -10 119 -55t46 -118q0 -90 -74.5 -148.5t-204.5 -58.5z" />
    <glyph glyph-name="four.tosf" 
d="M436 -150v177h-395v59l376 449h107v-437h131v-71h-131v-177h-88zM141 98h295v276q0 55 3 84h-3q-15 -32 -47 -73l-194 -229q-31 -36 -54 -58z" />
    <glyph glyph-name="five.tosf" 
d="M347 -169q-110 0 -183 51t-90 137l93 10q13 -56 61.5 -89t122.5 -33q85 0 133 48.5t48 125.5q0 78 -43 123.5t-124 45.5q-67 2 -115.5 -28t-69.5 -82l-88 8l41 387h458v-77h-385l-27 -229q29 42 81.5 68t120.5 26q113 0 178.5 -64t65.5 -174q0 -108 -76 -181t-202 -73z
" />
    <glyph glyph-name="six.tosf" 
d="M377 468q116 0 184 -64t68 -176q0 -109 -73.5 -178t-192.5 -69q-144 0 -221 92.5t-77 265.5q0 178 77.5 276.5t220.5 98.5q104 0 172.5 -48t85.5 -134l-94 -21q-31 126 -165 126q-101 0 -153.5 -74t-53.5 -215q27 55 84.5 87.5t137.5 32.5zM364 58q79 0 125.5 47
t46.5 123q0 78 -46 120t-128 42q-78 0 -130 -41t-69 -116q17 -83 68.5 -129t132.5 -46z" />
    <glyph glyph-name="seven.tosf" 
d="M226 -150v12q0 308 284 590h-433v83h546v-72q-291 -264 -291 -593v-20h-106z" />
    <glyph glyph-name="eight.tosf" 
d="M474 372q80 -26 121 -69.5t41 -115.5q0 -94 -76 -150t-207 -56q-137 0 -214.5 53t-77.5 146q0 142 160 182q-135 49 -135 168q0 83 72 133.5t192 50.5q118 0 189 -50t71 -133q0 -60 -35 -101t-101 -58zM180 531q0 -47 33 -75.5t102 -45.5l69 -15q72 25 102 55t30 78
q0 55 -44 86t-124 31t-124 -30t-44 -84zM353 56q90 0 139.5 34.5t49.5 96.5q0 52 -37.5 82.5t-115.5 49.5l-80 18q-82 -22 -117.5 -56.5t-35.5 -90.5q0 -62 52 -98t145 -36z" />
    <glyph glyph-name="nine.tosf" 
d="M332 554q145 0 221 -91.5t76 -263.5q0 -169 -73 -268.5t-215 -99.5q-110 0 -181.5 48.5t-89.5 136.5l94 21q30 -129 178 -129q98 0 146.5 76.5t48.5 212.5v7q-29 -51 -85.5 -80.5t-132.5 -29.5q-117 0 -187 58.5t-70 167.5q0 104 74.5 169t195.5 65zM330 171
q77 0 131.5 41t67.5 105q-35 160 -197 160q-81 0 -129 -42t-48 -114q0 -71 47.5 -110.5t127.5 -39.5z" />
    <glyph glyph-name="zero.osf.zero" horiz-adv-x="714" 
d="M357 554q142 0 227 -79t85 -210q0 -128 -85 -206t-226 -78q-142 0 -227.5 78t-85.5 209q0 130 85 208t227 78zM357 475q-102 0 -161.5 -56t-59.5 -152q0 -81 44 -136l315 306q-55 38 -138 38zM358 58q101 0 160.5 56t59.5 150q0 82 -43 136l-314 -306q56 -36 137 -36z
" />
    <glyph glyph-name="zero.tf.zero" 
d="M348 714q142 0 220 -93.5t79 -273.5q-1 -181 -79.5 -273.5t-219.5 -92.5t-219 93t-79 273q1 181 79 274t219 93zM348 639q-206 0 -206 -292q0 -90 20 -153l343 368q-51 77 -157 77zM348 56q206 0 207 291q0 90 -20 153l-343 -369q53 -75 156 -75z" />
    <glyph glyph-name="zero.tosf.zero" 
d="M348 554q138 0 219.5 -79.5t81.5 -208.5q0 -128 -81.5 -206.5t-218.5 -78.5q-139 0 -220 79t-81 209q0 128 81.5 206.5t218.5 78.5zM348 475q-97 0 -153 -56t-56 -152q0 -78 38 -131l307 298q-55 41 -136 41zM349 58q96 0 152.5 56t56.5 150q0 78 -37 130l-306 -297
q55 -39 134 -39z" />
    <glyph glyph-name="zero.subs" horiz-adv-x="574" 
d="M287 -154q-111 0 -175 71.5t-64 195.5q0 125 64 196.5t175 71.5q112 0 175.5 -71.5t63.5 -196.5t-63.5 -196t-175.5 -71zM287 -90q72 0 113 53.5t41 149.5q0 97 -41 150.5t-113 53.5t-113 -53.5t-41 -150.5q0 -96 41 -149.5t113 -53.5z" />
    <glyph glyph-name="one.subs" horiz-adv-x="353" 
d="M169 -140v389q-35 -46 -112 -46h-23v73h13q50 0 86 24t50 67h67v-507h-81z" />
    <glyph glyph-name="two.subs" horiz-adv-x="518" 
d="M41 -140v61q63 33 101.5 54.5t87.5 54t76 59.5t46.5 60.5t19.5 66.5q0 46 -30.5 73.5t-87.5 27.5q-56 0 -89.5 -27t-33.5 -76q0 -19 4 -36l-84 7q-4 16 -4 37q0 73 57 116t151 43q96 0 150 -42.5t54 -117.5q0 -153 -288 -294h299v-67h-429z" />
    <glyph glyph-name="three.subs" horiz-adv-x="531" 
d="M263 -154q-100 0 -159 44.5t-63 120.5l84 8q3 -51 39.5 -80.5t99.5 -29.5t98 25t35 71q0 41 -33 64.5t-96 23.5h-46v55h42q55 0 86 21.5t31 62.5t-31.5 64t-89.5 23q-62 0 -95.5 -30t-34.5 -83l-82 10q1 75 57.5 120t156.5 45q97 0 150.5 -37.5t53.5 -104.5
q0 -47 -32.5 -77t-84.5 -38q63 -6 98 -38t35 -86q0 -71 -58 -112.5t-161 -41.5z" />
    <glyph glyph-name="four.subs" horiz-adv-x="528" 
d="M504 -15h-101v-125h-79v125h-302v55l290 327h91v-322h101v-60zM324 299l-221 -254h221v254z" />
    <glyph glyph-name="five.subs" horiz-adv-x="520" 
d="M258 -154q-86 0 -142.5 38.5t-68.5 104.5l82 10q8 -42 42.5 -66t87.5 -24q62 0 98 32t36 87t-34 86t-95 31q-48 0 -82 -21.5t-47 -59.5l-76 7l31 296h357v-64h-294l-19 -168q45 70 155 70q87 0 137 -46.5t50 -128.5q0 -83 -59.5 -133.5t-158.5 -50.5z" />
    <glyph glyph-name="six.subs" horiz-adv-x="533" 
d="M297 202q89 0 141 -47t52 -128t-58.5 -131t-153.5 -50q-112 0 -172 66.5t-60 194.5q0 130 61 202t172 72q85 0 137 -35t65 -101l-81 -12q-23 86 -122 86q-76 0 -115 -54t-38 -156q41 93 172 93zM278 -91q60 0 95 31.5t35 84.5q0 54 -34.5 85t-95.5 31q-55 0 -93.5 -27
t-51.5 -77q26 -128 145 -128z" />
    <glyph glyph-name="seven.subs" horiz-adv-x="464" 
d="M138 -140v10q0 239 217 429h-328v68h414v-63q-211 -183 -211 -426v-18h-92z" />
    <glyph glyph-name="eight.subs" horiz-adv-x="539" 
d="M366 135q68 -19 99 -52t31 -87q0 -70 -60.5 -110t-165.5 -40q-106 0 -166.5 38.5t-60.5 105.5q0 102 128 129q-58 18 -84.5 48t-26.5 78q0 62 56 99t151 37q96 0 152 -35.5t56 -95.5q0 -90 -109 -115zM142 244q0 -33 25.5 -53.5t81.5 -31.5l50 -9q52 15 73.5 35.5
t21.5 54.5q0 40 -33.5 62.5t-93.5 22.5q-58 0 -91.5 -22t-33.5 -59zM270 -94q66 0 103.5 24.5t37.5 67.5q0 36 -28 58.5t-90 35.5l-54 11q-58 -15 -84.5 -39.5t-26.5 -62.5q0 -45 38 -70t104 -25z" />
    <glyph glyph-name="nine.subs" horiz-adv-x="533" 
d="M256 381q113 0 172 -65t59 -192q0 -131 -58.5 -204.5t-172.5 -73.5q-84 0 -137.5 36.5t-66.5 104.5l81 13q21 -91 126 -91q145 0 148 204q-49 -70 -167 -70q-91 0 -144.5 44t-53.5 122t58.5 125t155.5 47zM255 104q52 0 91.5 21.5t56.5 59.5q-20 136 -145 136
q-62 0 -98 -30t-36 -81q0 -50 36 -78t95 -28z" />
    <glyph glyph-name="zero.dnom" horiz-adv-x="469" 
d="M235 -10q-91 0 -144 53t-53 150q0 95 53 148.5t143 53.5q91 0 144.5 -53.5t53.5 -150.5q0 -96 -53 -148.5t-144 -52.5zM235 45q54 0 86 37.5t32 108.5q0 72 -32 110t-87 38q-54 0 -86 -37.5t-32 -108.5q0 -72 32 -110t87 -38z" />
    <glyph glyph-name="one.dnom" horiz-adv-x="293" 
d="M135 0v287q-32 -40 -92 -40h-16v67h10q88 0 111 70h63v-384h-76z" />
    <glyph glyph-name="two.dnom" horiz-adv-x="425" 
d="M36 0v52q57 29 85.5 44.5t69 40.5t59.5 43t33.5 41.5t14.5 47.5q0 33 -23.5 51.5t-65.5 18.5q-41 0 -67.5 -18t-26.5 -54q0 -11 3 -24l-78 6q-2 16 -2 26q0 58 47.5 89t124.5 31t122 -30t45 -88q0 -115 -231 -221h240v-56h-350z" />
    <glyph glyph-name="three.dnom" horiz-adv-x="432" 
d="M213 -10q-82 0 -130 34.5t-49 93.5l77 6q1 -37 28 -58t74 -21q101 0 101 66q0 57 -103 57h-40v54h39q95 0 95 56q0 31 -25 46.5t-68 15.5q-98 0 -100 -78l-76 5q1 59 48.5 93.5t129.5 34.5q78 0 123.5 -28t45.5 -81q0 -37 -27.5 -59.5t-70.5 -27.5q52 -5 81 -28.5
t29 -63.5q0 -56 -50 -86.5t-132 -30.5z" />
    <glyph glyph-name="four.dnom" horiz-adv-x="446" 
d="M420 89h-82v-89h-74v89h-241v52l235 243h80v-242h82v-53zM264 321l-175 -179h175v179z" />
    <glyph glyph-name="five.dnom" horiz-adv-x="420" 
d="M208 -10q-71 0 -117.5 29t-54.5 78l73 9q6 -29 32 -45.5t66 -16.5q47 0 74.5 23t27.5 61t-26 60t-72 22q-35 0 -63 -16t-36 -39l-66 5l24 224h291v-54h-235l-13 -121q33 50 121 50q70 0 110.5 -35t40.5 -95q0 -64 -48 -101.5t-129 -37.5z" />
    <glyph glyph-name="six.dnom" horiz-adv-x="437" 
d="M247 259q71 0 113 -35t42 -97t-47.5 -99.5t-128.5 -37.5q-91 0 -139.5 49.5t-48.5 146.5q0 98 49.5 153.5t140.5 55.5q141 0 166 -103l-74 -8q-16 58 -94 58q-116 0 -117 -150q34 67 138 67zM225 43q47 0 75 22t28 59q0 38 -27.5 60.5t-73.5 22.5q-42 0 -72.5 -19
t-40.5 -53q19 -92 111 -92z" />
    <glyph glyph-name="seven.dnom" horiz-adv-x="386" 
d="M24 326v58h339v-57q-162 -130 -163 -320v-7h-81v4q0 94 45.5 177t126.5 145h-267z" />
    <glyph glyph-name="eight.dnom" horiz-adv-x="438" 
d="M298 211q55 -14 80.5 -40t25.5 -69q0 -53 -49.5 -82.5t-137.5 -29.5q-85 0 -133.5 28.5t-48.5 78.5q0 74 99 95q-88 25 -88 97q0 48 46 77t123 29q80 0 127 -26.5t47 -72.5q0 -65 -91 -85zM120 288q0 -48 85 -61l42 -7q38 10 53 24.5t15 39.5q0 29 -26.5 46t-72.5 17
q-44 0 -70 -16t-26 -43zM219 40q49 0 78 17.5t29 47.5q0 53 -90 68l-44 8q-80 -21 -80 -72q0 -32 28.5 -50.5t78.5 -18.5z" />
    <glyph glyph-name="nine.dnom" horiz-adv-x="437" 
d="M211 395q188 0 188 -193q0 -212 -190 -212q-142 0 -164 106l73 9q16 -60 95 -60q109 0 115 139q-43 -48 -134 -48q-72 0 -115 35t-43 93q0 60 47 95.5t128 35.5zM212 186q77 0 114 56q-15 102 -112 102q-49 0 -77 -21.5t-28 -57.5t28 -57.5t75 -21.5z" />
    <glyph glyph-name="zero.numr" horiz-adv-x="469" 
d="M235 317q-91 0 -144 53t-53 150q0 95 53 148.5t143 53.5q91 0 144.5 -53.5t53.5 -150.5q0 -96 -53 -148.5t-144 -52.5zM235 372q54 0 86 37.5t32 108.5q0 72 -32 110t-87 38q-54 0 -86 -37.5t-32 -108.5q0 -72 32 -110t87 -38z" />
    <glyph glyph-name="one.numr" horiz-adv-x="293" 
d="M135 327v287q-32 -40 -92 -40h-16v67h10q88 0 111 70h63v-384h-76z" />
    <glyph glyph-name="two.numr" horiz-adv-x="425" 
d="M36 327v52q57 29 85.5 44.5t69 40.5t59.5 43t33.5 41.5t14.5 47.5q0 33 -23.5 51.5t-65.5 18.5q-41 0 -67.5 -18t-26.5 -54q0 -10 3 -24l-78 6q-2 16 -2 26q0 58 47.5 89t124.5 31t122 -30t45 -88q0 -115 -231 -221h240v-56h-350z" />
    <glyph glyph-name="three.numr" horiz-adv-x="432" 
d="M213 317q-82 0 -130 34.5t-49 93.5l77 6q1 -37 28 -58t74 -21q101 0 101 66q0 57 -103 57h-40v54h39q95 0 95 56q0 31 -25 46.5t-68 15.5q-98 0 -100 -78l-76 5q1 59 48.5 93.5t129.5 34.5q78 0 123.5 -28t45.5 -81q0 -37 -27.5 -59.5t-70.5 -27.5q52 -5 81 -28.5
t29 -63.5q0 -56 -50 -86.5t-132 -30.5z" />
    <glyph glyph-name="four.numr" horiz-adv-x="446" 
d="M420 416h-82v-89h-74v89h-241v52l235 243h80v-242h82v-53zM264 648l-175 -179h175v179z" />
    <glyph glyph-name="five.numr" horiz-adv-x="420" 
d="M208 317q-71 0 -117.5 29t-54.5 78l73 9q6 -29 32 -45.5t66 -16.5q47 0 74.5 23t27.5 61t-26 60t-72 22q-35 0 -63 -16t-36 -39l-66 5l24 224h291v-54h-235l-13 -121q33 50 121 50q70 0 110.5 -35t40.5 -95q0 -64 -48 -101.5t-129 -37.5z" />
    <glyph glyph-name="six.numr" horiz-adv-x="437" 
d="M247 586q71 0 113 -35t42 -97t-47.5 -99.5t-128.5 -37.5q-91 0 -139.5 49.5t-48.5 146.5q0 98 49.5 153.5t140.5 55.5q141 0 166 -103l-74 -8q-16 58 -94 58q-116 0 -117 -150q34 67 138 67zM225 370q47 0 75 22t28 59q0 38 -27.5 60.5t-73.5 22.5q-42 0 -72.5 -19
t-40.5 -53q19 -92 111 -92z" />
    <glyph glyph-name="seven.numr" horiz-adv-x="386" 
d="M24 653v58h339v-57q-162 -130 -163 -320v-7h-81v4q0 94 45.5 177t126.5 145h-267z" />
    <glyph glyph-name="eight.numr" horiz-adv-x="438" 
d="M298 538q55 -14 80.5 -40t25.5 -69q0 -53 -49.5 -82.5t-137.5 -29.5q-85 0 -133.5 28.5t-48.5 78.5q0 74 99 95q-88 25 -88 97q0 48 46 77t123 29q80 0 127 -26.5t47 -72.5q0 -65 -91 -85zM120 615q0 -48 85 -61l42 -7q38 10 53 24.5t15 39.5q0 29 -26.5 46t-72.5 17
q-44 0 -70 -16t-26 -43zM219 367q49 0 78 17.5t29 47.5q0 53 -90 68l-44 8q-80 -21 -80 -72q0 -32 28.5 -50.5t78.5 -18.5z" />
    <glyph glyph-name="nine.numr" horiz-adv-x="437" 
d="M211 722q188 0 188 -193q0 -212 -190 -212q-142 0 -164 106l73 9q16 -60 95 -60q109 0 115 139q-43 -48 -134 -48q-72 0 -115 35t-43 93q0 60 47 95.5t128 35.5zM212 513q77 0 114 56q-15 102 -112 102q-49 0 -77 -21.5t-28 -57.5t28 -57.5t75 -21.5z" />
    <glyph glyph-name="zero.sups" horiz-adv-x="574" 
d="M287 296q-111 0 -175 71.5t-64 195.5q0 125 64 196.5t175 71.5q112 0 175.5 -71.5t63.5 -196.5t-63.5 -196t-175.5 -71zM287 360q72 0 113 53.5t41 149.5q0 97 -41 150.5t-113 53.5t-113 -53.5t-41 -150.5q0 -96 41 -149.5t113 -53.5z" />
    <glyph glyph-name="one.sups" horiz-adv-x="353" 
d="M169 310v389q-35 -46 -112 -46h-23v73h13q50 0 86 24t50 67h67v-507h-81z" />
    <glyph glyph-name="two.sups" horiz-adv-x="518" 
d="M41 310v61q63 33 101.5 54.5t87.5 54t76 59.5t46.5 60.5t19.5 66.5q0 46 -30.5 73.5t-87.5 27.5q-56 0 -89.5 -27t-33.5 -76q0 -19 4 -36l-84 7q-4 16 -4 37q0 73 57 116t151 43q96 0 150 -42.5t54 -117.5q0 -153 -288 -294h299v-67h-429z" />
    <glyph glyph-name="three.sups" horiz-adv-x="531" 
d="M263 296q-100 0 -159 44.5t-63 120.5l84 8q3 -51 39.5 -80.5t99.5 -29.5t98 25t35 71q0 41 -33 64.5t-96 23.5h-46v55h42q55 0 86 21.5t31 62.5t-31.5 64t-89.5 23q-62 0 -95.5 -30t-34.5 -83l-82 10q1 75 57.5 120t156.5 45q97 0 150.5 -37.5t53.5 -104.5
q0 -47 -32.5 -77t-84.5 -38q63 -6 98 -38t35 -86q0 -71 -58 -112.5t-161 -41.5z" />
    <glyph glyph-name="four.sups" horiz-adv-x="528" 
d="M504 435h-101v-125h-79v125h-302v55l290 327h91v-322h101v-60zM324 749l-221 -254h221v254z" />
    <glyph glyph-name="five.sups" horiz-adv-x="520" 
d="M258 296q-86 0 -142.5 38.5t-68.5 104.5l82 10q8 -42 42.5 -66t87.5 -24q62 0 98 32t36 87t-34 86t-95 31q-48 0 -82 -21.5t-47 -59.5l-76 7l31 296h357v-64h-294l-19 -168q45 70 155 70q87 0 137 -46.5t50 -128.5q0 -83 -59.5 -133.5t-158.5 -50.5z" />
    <glyph glyph-name="six.sups" horiz-adv-x="533" 
d="M297 652q89 0 141 -47t52 -128t-58.5 -131t-153.5 -50q-112 0 -172 66.5t-60 194.5q0 130 61 202t172 72q85 0 137 -35t65 -101l-81 -12q-23 86 -122 86q-76 0 -115 -54t-38 -156q41 93 172 93zM278 359q60 0 95 31.5t35 84.5q0 54 -34.5 85t-95.5 31q-55 0 -93.5 -27
t-51.5 -77q26 -128 145 -128z" />
    <glyph glyph-name="seven.sups" horiz-adv-x="464" 
d="M138 310v10q0 239 217 429h-328v68h414v-63q-211 -183 -211 -426v-18h-92z" />
    <glyph glyph-name="eight.sups" horiz-adv-x="539" 
d="M366 585q68 -19 99 -52t31 -87q0 -70 -60.5 -110t-165.5 -40q-106 0 -166.5 38.5t-60.5 105.5q0 102 128 129q-58 18 -84.5 48t-26.5 78q0 62 56 99t151 37q96 0 152 -35.5t56 -95.5q0 -90 -109 -115zM142 694q0 -33 25.5 -53.5t81.5 -31.5l50 -9q52 15 73.5 35.5
t21.5 54.5q0 40 -33.5 62.5t-93.5 22.5q-58 0 -91.5 -22t-33.5 -59zM270 356q66 0 103.5 24.5t37.5 67.5q0 36 -28 58.5t-90 35.5l-54 11q-58 -15 -84.5 -39.5t-26.5 -62.5q0 -45 38 -70t104 -25z" />
    <glyph glyph-name="nine.sups" horiz-adv-x="533" 
d="M256 831q113 0 172 -65t59 -192q0 -131 -58.5 -204.5t-172.5 -73.5q-84 0 -137.5 36.5t-66.5 104.5l81 13q21 -91 126 -91q145 0 148 204q-49 -70 -167 -70q-91 0 -144.5 44t-53.5 122t58.5 125t155.5 47zM255 554q52 0 91.5 21.5t56.5 59.5q-20 136 -145 136
q-62 0 -98 -30t-36 -81q0 -50 36 -78t95 -28z" />
    <glyph glyph-name="backslash.case" horiz-adv-x="536" 
d="M403 -87l-358 877h87l359 -877h-88z" />
    <glyph glyph-name="periodcentered.case" horiz-adv-x="288" 
d="M208 434v-118h-127v118h127z" />
    <glyph glyph-name="bullet.case" horiz-adv-x="353" 
d="M176 281q-42 0 -68.5 26t-26.5 68q0 43 26.5 69.5t68.5 26.5q43 0 69.5 -26t26.5 -70q0 -42 -27 -68t-69 -26z" />
    <glyph glyph-name="colon.case" horiz-adv-x="288" 
d="M208 550v-118h-127v118h127zM208 118v-118h-127v118h127z" />
    <glyph glyph-name="exclamdown.case" horiz-adv-x="337" 
d="M229 615h-121v110h121v-110zM135 532h66l25 -532h-115z" />
    <glyph glyph-name="questiondown.case" horiz-adv-x="582" 
d="M361 716v-110h-116v110h116zM350 535v-44q0 -78 -79 -131l-64 -41q-40 -25 -62 -54.5t-22 -77.5q0 -55 44.5 -91.5t119.5 -36.5q84 0 133 40.5t49 113.5q0 26 -7 55l96 -11q6 -23 6 -54q0 -101 -72.5 -162t-204.5 -61q-125 0 -194 56t-69 149q0 109 119 183l63 41
q28 18 40 39t12 55v32h92z" />
    <glyph glyph-name="semicolon.case" horiz-adv-x="288" 
d="M208 550v-118h-127v118h127zM108 -141l-23 47q37 14 50.5 34.5t13.5 56.5v3h-68v123h126v-111q0 -64 -22 -98.5t-77 -54.5z" />
    <glyph glyph-name="slash.case" horiz-adv-x="536" 
d="M133 -87h-88l359 877h87z" />
    <glyph glyph-name="underscore.case" horiz-adv-x="520" 
d="M0 -20h520v-64h-520v64z" />
    <glyph glyph-name="asterisk.ss04" horiz-adv-x="302" 
d="M151 710l-31 -93h-97l79 -57l-30 -93l79 57l79 -57l-31 93l79 57h-97z" />
    <glyph glyph-name="braceleft.case" horiz-adv-x="362" 
d="M287 -88q-78 0 -121.5 36t-43.5 107v167q0 26 -2 41.5t-10 31t-25 22.5t-45 8v68q53 1 67 23.5t14 76.5v157q0 73 45.5 110.5t128.5 37.5h37v-66h-25q-53 0 -77.5 -23t-24.5 -73v-135q0 -117 -78 -141q77 -27 77 -147v-142q0 -49 24.5 -70.5t75.5 -21.5h30v-67h-47z" />
    <glyph glyph-name="braceright.case" horiz-adv-x="362" 
d="M75 -88h-47v67h30q51 0 75.5 21.5t24.5 70.5v142q0 120 77 147q-78 24 -78 141v135q0 50 -24.5 73t-77.5 23h-25v66h37q83 0 128.5 -37.5t45.5 -110.5v-157q0 -54 14 -76.5t67 -23.5v-68q-28 -1 -45 -8t-25 -22.5t-10 -31t-2 -41.5v-167q0 -71 -43.5 -107t-121.5 -36z
" />
    <glyph glyph-name="bracketleft.case" horiz-adv-x="361" 
d="M107 -79v877h226v-72h-145v-733h145v-72h-226z" />
    <glyph glyph-name="bracketright.case" horiz-adv-x="361" 
d="M254 -79h-226v72h145v733h-145v72h226v-877z" />
    <glyph glyph-name="parenleft.case" horiz-adv-x="336" 
d="M261 -106q-96 92 -148.5 214.5t-52.5 249.5t52.5 247t149.5 207l64 -39q-175 -186 -175 -417q0 -233 175 -422z" />
    <glyph glyph-name="parenright.case" horiz-adv-x="336" 
d="M75 -106l-65 40q175 189 175 422q0 231 -175 417l64 39q97 -87 149.5 -207t52.5 -247t-52.5 -249.5t-148.5 -214.5z" />
    <glyph glyph-name="parenleft.subs" horiz-adv-x="285" 
d="M212 -239q-68 68 -105.5 156.5t-37.5 181.5t38 179t107 149l61 -25q-127 -133 -127 -303q0 -172 127 -312z" />
    <glyph glyph-name="parenright.subs" horiz-adv-x="285" 
d="M73 -239l-63 27q127 137 127 311q0 170 -127 303l61 25q69 -63 107 -149t38 -179q0 -92 -37.5 -181t-105.5 -157z" />
    <glyph glyph-name="parenleft.sups" horiz-adv-x="285" 
d="M212 211q-68 68 -105.5 157t-37.5 181q0 93 38 179t107 149l61 -25q-127 -133 -127 -303q0 -174 127 -311z" />
    <glyph glyph-name="parenright.sups" horiz-adv-x="285" 
d="M73 211l-63 27q127 137 127 311q0 170 -127 303l61 25q69 -63 107 -149t38 -179q0 -92 -37.5 -181t-105.5 -157z" />
    <glyph glyph-name="emdash.case" horiz-adv-x="918" 
d="M53 389h812v-70h-812v70z" />
    <glyph glyph-name="endash.case" horiz-adv-x="636" 
d="M53 389h530v-70h-530v70z" />
    <glyph glyph-name="hyphen.case" horiz-adv-x="493" 
d="M53 395h386v-81h-386v81z" />
    <glyph glyph-name="guillemotleft.case" horiz-adv-x="565" 
d="M232 143l-201 208l203 208h98l-196 -208l195 -208h-99zM446 143l-201 208l203 208h98l-196 -208l195 -208h-99z" />
    <glyph glyph-name="guillemotright.case" horiz-adv-x="565" 
d="M119 143h-99l195 208l-196 208h98l203 -208zM333 143h-99l195 208l-196 208h98l203 -208z" />
    <glyph glyph-name="guilsinglleft.case" horiz-adv-x="352" 
d="M232 143l-201 208l203 208h98l-196 -208l195 -208h-99z" />
    <glyph glyph-name="guilsinglright.case" horiz-adv-x="352" 
d="M120 143h-99l195 208l-196 208h98l203 -208z" />
    <glyph glyph-name="currency.case" horiz-adv-x="617" 
d="M568 353q0 -86 -52 -147l58 -58l-43 -39l-59 58q-66 -44 -159 -44q-98 0 -165 47l-62 -62l-44 39l63 62q-49 60 -49 144t50 145l-64 62l44 39l64 -61q67 45 163 45q92 0 157 -42l62 59l43 -39l-60 -59q53 -61 53 -149zM313 196q80 0 127.5 43t47.5 114t-47.5 114
t-127.5 43q-81 0 -129 -43t-48 -114t48 -114t129 -43z" />
    <glyph glyph-name="dollar.case" horiz-adv-x="722" 
d="M675 191q0 -95 -75 -151.5t-210 -59.5v-73h-60v74q-251 19 -298 220l97 19q42 -141 201 -159v269l-46 5q-112 19 -165.5 67.5t-53.5 133.5q0 84 71 136.5t194 57.5v74h60v-75q225 -13 272 -193l-95 -27q-19 66 -61 101t-116 42v-243l49 -6q122 -20 179 -70t57 -142z
M327 417h3v237q-166 -6 -166 -117q0 -50 38 -78.5t125 -41.5zM390 59q187 5 187 131q0 56 -39.5 85.5t-133.5 45.5l-14 2v-264z" />
    <glyph glyph-name="Euro.case" horiz-adv-x="775" 
d="M671 189l75 -44q-46 -77 -124 -120t-182 -43q-148 0 -236 75.5t-114 201.5h-79v61h70q-2 32 -2 48q0 24 1 36h-69v61h78q26 123 116.5 194t239.5 71q203 0 299 -148l-81 -49q-76 116 -225 116q-104 0 -167 -48.5t-85 -135.5h392v-61h-402q-1 -11 -1 -35q0 -25 3 -49h400
v-61h-389q25 -91 90 -143.5t164 -52.5q147 0 228 126z" />
    <glyph glyph-name="sterling.case" horiz-adv-x="704" 
d="M606 172l85 -16q-13 -81 -66.5 -127.5t-135.5 -46.5q-46 0 -129 14.5t-146 14.5q-80 0 -175 -19l-19 64q151 48 151 186q0 43 -9 92h-117v64h102q-15 64 -15 111q0 103 67.5 162t187.5 59q101 0 164.5 -41.5t85.5 -120.5l-91 -23q-32 109 -159 109q-157 0 -157 -142
q0 -48 15 -114h237v-64h-223q7 -40 7 -74q0 -127 -109 -181q42 9 92 9q47 0 120.5 -10t117.5 -10q50 0 81 27.5t38 76.5z" />
    <glyph glyph-name="currency.tf.case" 
d="M608 353q0 -86 -52 -147l58 -58l-43 -39l-60 57q-67 -43 -159 -43q-97 0 -164 47l-63 -62l-43 39l63 62q-49 60 -49 144t50 145l-64 62l43 39l65 -61q65 45 162 45q92 0 157 -42l62 59l43 -39l-60 -59q54 -60 54 -149zM352 196q81 0 128.5 43t47.5 114t-47.5 114
t-128.5 43t-128.5 -43t-47.5 -114t47.5 -114t128.5 -43z" />
    <glyph glyph-name="dollar.tf.case" 
d="M646 189q0 -99 -68 -152.5t-193 -55.5v-74h-51v75q-119 8 -192 66t-92 162l96 18q32 -149 188 -167v263l-52 10q-202 40 -202 199q0 89 66.5 140.5t187.5 55.5v75h51v-76q217 -11 249 -193l-93 -26q-12 68 -49.5 102t-106.5 41v-249l60 -12q105 -21 153 -68t48 -134z
M315 416l19 -4v242q-161 -5 -161 -117q0 -51 33.5 -78.5t108.5 -42.5zM385 58q169 0 169 128q0 52 -32 80t-102 42l-35 7v-257z" />
    <glyph glyph-name="Euro.tf.case" 
d="M403 60q118 0 187 120l70 -42q-39 -74 -105.5 -115t-153.5 -41q-123 0 -201.5 74t-101.5 205h-83v59h76q-1 15 -1 45v2q0 25 1 37h-76v59h83q23 127 104.5 197t208.5 70q167 0 250 -142l-76 -50q-64 114 -181 114q-86 0 -139.5 -47.5t-70.5 -141.5h287v-59h-294
q-1 -12 -1 -36v-2q0 -16 2 -46h293v-59h-286q19 -99 72.5 -150t135.5 -51z" />
    <glyph glyph-name="sterling.tf.case" 
d="M573 172l83 -16q-14 -88 -69 -131t-132 -43q-38 0 -106 14.5t-120 14.5q-86 0 -175 -19l-19 64q151 47 151 186q0 48 -10 93h-116v63h101q-18 65 -18 116q0 103 64 159.5t174 56.5q93 0 152.5 -42t79.5 -120l-91 -23q-28 112 -142 112q-139 0 -139 -140q0 -49 17 -119
h196v-63h-181q7 -40 7 -75q0 -128 -109 -181q39 7 92 7q37 0 96 -10t94 -10q48 0 80 25.5t40 80.5z" />
    <glyph glyph-name="yen.tf.case" 
d="M661 710l-265 -387h215v-58h-216v-81h216v-59h-216v-125h-93v125h-217v59h217v81h-217v58h216l-265 387h106l169 -255q24 -37 36 -70h2q14 34 37 70l168 255h107z" />
    <glyph glyph-name="yen.case" horiz-adv-x="669" 
d="M670 710l-282 -379h215v-60h-222v-67h222v-60h-222v-144h-93v144h-221v60h221v67h-221v60h214l-281 379h108l155 -214q44 -58 70 -106h3q26 46 70 106l155 214h109z" />
    <glyph glyph-name="currency.tf" 
d="M608 303q0 -86 -52 -147l58 -58l-43 -39l-60 57q-67 -43 -159 -43q-97 0 -164 47l-63 -62l-43 39l63 62q-49 60 -49 144t50 145l-64 62l43 39l65 -61q65 45 162 45q92 0 157 -42l62 59l43 -39l-60 -59q54 -60 54 -149zM352 146q81 0 128.5 43t47.5 114t-47.5 114
t-128.5 43t-128.5 -43t-47.5 -114t47.5 -114t128.5 -43z" />
    <glyph glyph-name="plus.case" horiz-adv-x="616" 
d="M563 417v-75h-212v-201h-86v201h-212v75h212v189h86v-189h212z" />
    <glyph glyph-name="minus.case" horiz-adv-x="616" 
d="M53 337v82h510v-82h-510z" />
    <glyph glyph-name="multiply.case" 
d="M607 563l-199 -186l199 -186l-57 -57l-201 188l-202 -188l-57 57l199 186l-199 186l57 57l201 -188l201 188z" />
    <glyph glyph-name="divide.case" horiz-adv-x="616" 
d="M306 508q-23 0 -38 14.5t-15 37.5t15 38t38 15t38 -14.5t15 -38.5q0 -23 -15 -37.5t-38 -14.5zM53 337v78h510v-78h-510zM306 139q-23 0 -38 15t-15 38t15 37.5t38 14.5t38 -14.5t15 -37.5t-15 -38t-38 -15z" />
    <glyph glyph-name="equal.case" horiz-adv-x="616" 
d="M53 434v81h510v-81h-510zM53 243v81h510v-81h-510z" />
    <glyph glyph-name="notequal.case" 
d="M588 434h-189l-51 -110h240v-81h-277l-60 -130h-60l60 130h-173v81h211l50 110h-261v81h299l58 126h59l-58 -126h152v-81z" />
    <glyph glyph-name="greater.case" 
d="M116 134v84l407 159l-407 159v82l504 -205v-74z" />
    <glyph glyph-name="less.case" 
d="M581 134l-504 205v74l504 205v-82l-407 -159l407 -159v-84z" />
    <glyph glyph-name="greaterequal.case" 
d="M101 181v84l407 159l-407 159v82l504 -205v-74zM602 126v-76h-500v76h500z" />
    <glyph glyph-name="lessequal.case" 
d="M596 181l-504 205v74l504 205v-82l-407 -159l407 -159v-84zM95 126h500v-76h-500v76z" />
    <glyph glyph-name="plusminus.case" 
d="M390 416h213v-74h-213v-160h-86v160h-210v74h210v161h86v-161zM94 50v81h509v-81h-509z" />
    <glyph glyph-name="approxequal.case" 
d="M471 413q-43 0 -124 26.5t-118 26.5q-80 0 -135 -44v81q22 19 60 31.5t74 12.5q50 0 128 -26.5t114 -26.5q78 0 133 44v-81q-20 -19 -57.5 -31.5t-74.5 -12.5zM471 221q-43 0 -124 26.5t-118 26.5q-80 0 -135 -44v81q22 19 60 31.5t74 12.5q50 0 128 -26.5t114 -26.5
q78 0 133 44v-81q-20 -19 -57.5 -31.5t-74.5 -12.5z" />
    <glyph glyph-name="asciitilde.case" 
d="M451 286q-42 0 -79 20t-67.5 39.5t-57.5 19.5q-63 0 -82 -69l-70 10q12 62 53.5 95.5t98.5 33.5q42 0 79 -20.5t68 -40.5t58 -20q60 0 81 74l68 -12q-15 -63 -55 -96.5t-95 -33.5z" />
    <glyph glyph-name="logicalnot.case" 
d="M90 424h504v-243h-82v162h-422v81z" />
    <glyph glyph-name="infinity.case" horiz-adv-x="696" 
d="M493 519q61 0 100 -38t39 -102q0 -63 -40 -102.5t-100 -39.5q-89 0 -146 81q-61 -81 -144 -81q-60 0 -99 38t-39 102q0 63 40 102.5t100 39.5q88 0 145 -81q61 81 144 81zM211 310q32 0 53 16.5t44 50.5q-45 69 -100 69q-31 0 -50.5 -18t-19.5 -50q0 -31 20 -49.5
t53 -18.5zM487 310q31 0 50.5 18t19.5 50q0 31 -20 49.5t-52 18.5q-33 0 -54 -16.5t-44 -50.5q45 -69 100 -69z" />
    <glyph glyph-name="emptyset.case" horiz-adv-x="615" 
d="M573 561l-62 -58q53 -61 53 -149q0 -103 -70 -166.5t-186 -63.5q-93 0 -160 43l-64 -59l-42 39l63 58q-54 60 -54 149q0 103 70.5 166.5t186.5 63.5q94 0 160 -44l64 59zM131 354q0 -56 30 -97l251 231q-44 25 -104 25q-82 0 -129.5 -43.5t-47.5 -115.5zM484 354
q0 58 -30 97l-249 -231q42 -25 103 -25q82 0 129 43.5t47 115.5z" />
    <glyph glyph-name="plus.tf.case" 
d="M603 417v-75h-212v-201h-86v201h-212v75h212v189h86v-189h212z" />
    <glyph glyph-name="minus.tf.case" 
d="M93 337v82h510v-82h-510z" />
    <glyph glyph-name="divide.tf.case" 
d="M346 508q-23 0 -38 14.5t-15 37.5t15 38t38 15t38 -14.5t15 -38.5q0 -23 -15 -37.5t-38 -14.5zM93 337v78h510v-78h-510zM346 139q-23 0 -38 15t-15 38t15 37.5t38 14.5t38 -14.5t15 -37.5t-15 -38t-38 -15z" />
    <glyph glyph-name="equal.tf.case" 
d="M78 434v81h510v-81h-510zM78 243v81h510v-81h-510z" />
    <glyph glyph-name="emptyset.tf.case" 
d="M614 561l-62 -58q53 -61 53 -149q0 -103 -70 -166.5t-187 -63.5q-93 0 -160 43l-64 -59l-41 39l62 58q-53 61 -53 149q0 103 70 166.5t186 63.5q94 0 161 -43l63 58zM172 354q0 -56 30 -97l250 231q-44 25 -104 25q-82 0 -129 -43.5t-47 -115.5zM525 354q0 56 -30 97
l-250 -231q42 -25 103 -25q82 0 129.5 43.5t47.5 115.5z" />
    <glyph glyph-name="plus.subs" horiz-adv-x="486" 
d="M437 128v-56h-163v-149h-63v149h-163v56h163v141h63v-141h163z" />
    <glyph glyph-name="minus.subs" horiz-adv-x="486" 
d="M48 71v58h389v-58h-389z" />
    <glyph glyph-name="multiply.subs" horiz-adv-x="539" 
d="M464 236l-150 -137l150 -137l-42 -42l-152 139l-151 -139l-43 41l151 137l-151 138l43 40l151 -138l151 138z" />
    <glyph glyph-name="divide.subs" horiz-adv-x="486" 
d="M241 195q-18 0 -29.5 11t-11.5 29q0 19 11.5 30.5t29.5 11.5t30 -11.5t12 -30.5q0 -17 -12 -28.5t-30 -11.5zM48 71v56h389v-56h-389zM241 -79q-18 0 -29.5 11t-11.5 30q0 18 11.5 29.5t29.5 11.5t30 -11.5t12 -29.5t-12 -29.5t-30 -11.5z" />
    <glyph glyph-name="plus.sups" horiz-adv-x="486" 
d="M437 578v-56h-163v-149h-63v149h-163v56h163v141h63v-141h163z" />
    <glyph glyph-name="minus.sups" horiz-adv-x="486" 
d="M48 521v58h389v-58h-389z" />
    <glyph glyph-name="multiply.sups" horiz-adv-x="539" 
d="M464 686l-150 -137l150 -137l-42 -42l-152 139l-151 -138l-43 40l151 137l-151 138l43 40l151 -138l151 138z" />
    <glyph glyph-name="divide.sups" horiz-adv-x="486" 
d="M241 645q-18 0 -29.5 11t-11.5 29q0 19 11.5 30.5t29.5 11.5t30 -11.5t12 -30.5q0 -17 -12 -28.5t-30 -11.5zM48 521v56h389v-56h-389zM241 371q-18 0 -29.5 11t-11.5 30q0 18 11.5 29.5t29.5 11.5t30 -11.5t12 -29.5t-12 -29.5t-30 -11.5z" />
    <glyph glyph-name="plus.tf" 
d="M603 367v-75h-212v-201h-86v201h-212v75h212v189h86v-189h212z" />
    <glyph glyph-name="minus.tf" 
d="M93 287v82h510v-82h-510z" />
    <glyph glyph-name="divide.tf" 
d="M346 458q-23 0 -38 14.5t-15 37.5t15 38t38 15t38 -14.5t15 -38.5q0 -23 -15 -37.5t-38 -14.5zM93 287v78h510v-78h-510zM346 89q-23 0 -38 15t-15 38t15 37.5t38 14.5t38 -14.5t15 -37.5t-15 -38t-38 -15z" />
    <glyph glyph-name="equal.tf" 
d="M78 384v81h510v-81h-510zM78 193v81h510v-81h-510z" />
    <glyph glyph-name="emptyset.tf" 
d="M614 511l-62 -58q53 -61 53 -149q0 -103 -70 -166.5t-187 -63.5q-93 0 -160 43l-64 -59l-41 39l62 58q-53 61 -53 149q0 103 70 166.5t186 63.5q94 0 161 -43l63 58zM172 304q0 -56 30 -97l250 231q-44 25 -104 25q-82 0 -129 -43.5t-47 -115.5zM525 304q0 56 -30 97
l-250 -231q42 -25 103 -25q82 0 129.5 43.5t47.5 115.5z" />
    <glyph glyph-name="percent.tf" 
d="M86 -16l449 746h76l-450 -746h-75zM178 388q-68 0 -108.5 45t-40.5 123q0 75 40.5 120t107.5 45q66 0 107 -46t41 -122q0 -75 -41 -120t-106 -45zM178 451q35 0 55 27t20 75v1q0 49 -20.5 77t-55.5 28t-56 -27.5t-21 -75.5q0 -50 21 -77.5t57 -27.5zM523 -10
q-68 0 -108.5 45t-40.5 123q0 75 40.5 120t107.5 45q66 0 107 -46t41 -122q0 -75 -41 -120t-106 -45zM523 53q35 0 55 27t20 75v1q0 49 -20.5 77t-55.5 28t-56 -27.5t-21 -75.5q0 -50 21 -77.5t57 -27.5z" />
    <glyph glyph-name="uni21BB.alt" horiz-adv-x="1059" 
d="M930 353h90l-124 -165l-124 165h95v11q0 130 -90 213t-244 83q-158 0 -267 -93l-41 48q120 107 316 107q174 0 281.5 -101.5t107.5 -256.5v-11zM524 47q158 0 267 93l41 -48q-120 -107 -316 -107q-174 0 -281.5 101.5t-107.5 256.5v8h-88l124 165l124 -165h-98v-8
q1 -130 90.5 -213t244.5 -83z" />
    <glyph glyph-name="arrowup.ss03" horiz-adv-x="790" 
d="M358 620l-203 -211l-48 52l289 289l288 -289l-50 -52l-202 211v-655h-74v655z" />
    <glyph glyph-name="uni2197.ss03" horiz-adv-x="936" 
d="M763 593l-605 -606l-51 52l606 606l-292 -5v70h408v-409h-71z" />
    <glyph glyph-name="arrowright.ss03" horiz-adv-x="1171" 
d="M934 294h-827v72h827l-209 202l50 51l289 -289l-289 -289l-51 50z" />
    <glyph glyph-name="uni2198.ss03" horiz-adv-x="936" 
d="M763 105l-5 292h71v-409h-408v70l292 -5l-606 606l51 52z" />
    <glyph glyph-name="arrowdown.ss03" horiz-adv-x="790" 
d="M358 90v655h74v-655l202 211l50 -52l-288 -289l-289 289l48 52z" />
    <glyph glyph-name="uni2199.ss03" horiz-adv-x="936" 
d="M173 105l605 606l51 -52l-606 -606l292 5v-70h-408v409h71z" />
    <glyph glyph-name="arrowleft.ss03" horiz-adv-x="1171" 
d="M237 294l210 -203l-51 -50l-289 289l289 289l50 -51l-209 -202h827v-72h-827z" />
    <glyph glyph-name="uni2196.ss03" horiz-adv-x="936" 
d="M173 593l5 -292h-71v409h408v-70l-292 5l606 -606l-51 -52z" />
    <glyph glyph-name="circle.invert" horiz-adv-x="883" 
d="M442 -20q-176 0 -289.5 101.5t-113.5 273.5t113.5 273.5t289.5 101.5t289.5 -101.5t113.5 -273.5t-113.5 -273.5t-289.5 -101.5z" />
    <glyph glyph-name="at.case" horiz-adv-x="923" 
d="M455 -37q-193 0 -304.5 102.5t-111.5 279.5q0 172 117.5 280t312.5 108q192 0 303.5 -101t111.5 -267q0 -103 -45 -164t-121 -61q-96 0 -121 82q-26 -43 -75 -66.5t-111 -23.5q-71 0 -117 34t-46 87q0 58 42 88.5t135 41.5l164 16v6q0 56 -28.5 80.5t-93.5 24.5
q-111 0 -119 -80h-83q3 64 60.5 104t145.5 40q99 0 146.5 -42t47.5 -132v-114q0 -45 14.5 -65t47.5 -20q40 0 63.5 43.5t23.5 118.5q0 143 -89.5 226t-252.5 83q-169 0 -265 -89t-96 -238q0 -148 94 -233.5t258 -85.5q120 0 217 41l28 -55q-100 -49 -253 -49zM428 194
q68 0 114.5 36t46.5 89v25l-153 -15q-57 -7 -80.5 -23t-23.5 -49q0 -28 26.5 -45.5t69.5 -17.5z" />
    <glyph glyph-name="section.case" horiz-adv-x="579" 
d="M470 233q51 -36 51 -104q0 -71 -60 -110t-169 -39q-210 0 -256 155l83 23q20 -56 62 -81.5t113 -25.5q139 0 139 75q0 31 -20 47t-71 29l-156 35q-142 37 -142 140q0 69 65 101q-54 39 -54 104q0 70 59.5 109t167.5 39q98 0 161 -36t80 -101l-83 -26q-35 92 -161 92
q-136 0 -136 -74q0 -30 22.5 -48t76.5 -32l160 -37q68 -17 99 -49t31 -85q0 -69 -62 -101zM215 311l165 -40q23 -5 36 -10q31 19 31 58q0 32 -18 50t-61 28l-164 40q-27 7 -41 13q-35 -19 -35 -58q0 -31 21 -50.5t66 -30.5z" />
    <glyph glyph-name="bar.case" horiz-adv-x="277" 
d="M102 -87v877h73v-877h-73z" />
    <glyph glyph-name="brokenbar.case" horiz-adv-x="276" 
d="M174 800v-378h-72v378h72zM174 301v-378h-72v378h72z" />
    <glyph glyph-name="dagger.case" horiz-adv-x="564" 
d="M325 469v-528h-86v528h-170v71h170v220h86v-220h170v-71h-170z" />
    <glyph glyph-name="daggerdbl.case" horiz-adv-x="564" 
d="M495 469h-170v-241h170v-71h-170v-216h-86v216h-169v71h169v241h-170v71h170v220h86v-220h170v-71z" />
    <glyph glyph-name="registered.ss04" horiz-adv-x="575" 
d="M288 730q115 0 189.5 -67.5t74.5 -180.5t-74.5 -180.5t-189.5 -67.5t-190 67.5t-75 180.5t75 180.5t190 67.5zM288 265q99 0 164 59.5t65 157.5q0 99 -65 158t-164 59t-164 -59t-65 -158q0 -98 65 -157.5t164 -59.5zM422 536q0 -60 -62 -75l66 -110h-63l-60 103h-68v-103
h-58v268h147q47 0 72.5 -22t25.5 -61zM235 579v-87h72q55 0 55 44q0 43 -51 43h-76z" />
    <glyph glyph-name="Bitcoin.case" horiz-adv-x="768" 
d="M708 199q0 -81 -52.5 -136.5t-161.5 -61.5v-87h-57v86h-122v-86h-56v86h-152v710h152v85h56v-85h122v85h57v-87q100 -9 147 -59t47 -122q0 -58 -30.5 -100t-91.5 -58q142 -26 142 -170zM447 631h-247v-229h248q143 0 143 117q0 112 -144 112zM461 79q77 0 113.5 34.5
t36.5 92.5q0 56 -37.5 88.5t-109.5 32.5h-264v-248h261z" />
    <glyph glyph-name="Baht.case" horiz-adv-x="768" 
d="M563 369q145 -24 145 -168q0 -95 -64 -148t-178 -53h-54v-93h-55v93h-250v710h250v85h55v-85h36q115 0 177.5 -48t62.5 -136q0 -60 -32.5 -101t-92.5 -56zM199 633v-232h158v232h-158zM447 633h-35v-232h35q70 0 107 30.5t37 88.5q0 55 -37 84t-107 29zM199 77h158v251
h-158v-251zM461 77q73 0 111.5 33.5t38.5 97.5q0 58 -38 89t-108 31h-53v-251h49z" />
    <glyph glyph-name="Lira.case" horiz-adv-x="644" 
d="M542 243l86 -17q-54 -226 -289 -226h-220v272l-89 -22v65l89 22v84l-89 -22v65l89 22v224h94v-201l306 76v-65l-306 -76v-84l306 76v-65l-306 -76v-213h111q52 0 91 13.5t63.5 38.5t38.5 50.5t25 58.5z" />
    <glyph glyph-name="Ruble.case" horiz-adv-x="670" 
d="M404 288h-192v-86h227v-61h-227v-141h-93v141h-91v61h91v86h-90v69h90v353h285q112 0 177.5 -56t65.5 -154q0 -97 -65.5 -154.5t-177.5 -57.5zM212 629v-272h187q69 0 110 38t41 100t-41 98t-110 36h-187z" />
    <glyph glyph-name="Rupee.case" horiz-adv-x="648" 
d="M629 710v-66h-208q61 -40 70 -122h138v-60h-139q-11 -87 -78.5 -133t-185.5 -46h-28l276 -283h-117l-283 300v53h155q148 0 166 109h-321v60h323q-14 122 -153 122h-170v66h555z" />
    <glyph glyph-name="Won.case" horiz-adv-x="1091" 
d="M1065 710l-76 -253h72v-57h-89l-25 -84h114v-57h-131l-78 -259h-108l-84 259h-229l-84 -259h-107l-78 259h-132v57h115l-26 84h-89v57h72l-76 253h94l70 -253h228l84 253h88l83 -253h229l70 253h93zM510 504l-15 -47h101l-15 47q-21 63 -33 131h-5q-9 -59 -33 -131z
M206 400l23 -84h143l27 84h-193zM449 316h193l-27 84h-139zM863 316l23 84h-194l28 -84h143zM329 187l24 72h-108l18 -67q23 -84 30 -120h2q7 41 34 115zM829 192l18 67h-109l24 -72q28 -72 34 -115h3q7 42 30 120z" />
    <glyph glyph-name="caronaccentcomb" horiz-adv-x="202" 
d="M76 531l-19 34q29 9 39 21.5t10 35.5h-56v88h102v-75q0 -43 -17 -67t-59 -37z" />
    <glyph glyph-name="Won.tf" 
d="M655 401h-45l-12 -81h57v-53h-64l-38 -267h-112l-41 267h-104l-41 -267h-112l-38 267h-64v53h57l-12 81h-45v54h38l-34 240h79l29 -240h108l38 240h98l38 -240h108l29 240h79l-34 -240h38v-54zM340 558l-16 -103h48l-16 103q-5 36 -6 59h-4q-1 -23 -6 -59zM160 401l9 -81
h70l13 81h-92zM304 320h88l-12 81h-64zM527 320l9 81h-92l13 -81h70zM208 125l23 142h-55l17 -142q5 -35 5 -50h4zM503 125l17 142h-55l23 -142l6 -50h4q0 15 5 50z" />
    <glyph glyph-name="Lira.tf" 
d="M551 241l86 -17q-50 -224 -276 -224h-213v271l-89 -22v65l89 22v82l-89 -22v65l89 22v212h94v-188l287 71v-64l-287 -72v-82l287 71v-65l-287 -71v-213h104q92 0 138 44t67 115z" />
    <glyph glyph-name="Ruble.tf" 
d="M403 284h-170v-86h220v-58h-220v-140h-93v140h-86v58h86v86h-85v65h85v346h262q122 0 182.5 -59.5t60.5 -146.5t-60.5 -146t-181.5 -59zM233 617v-268h165q75 0 113 39t38 96q0 56 -38 94.5t-113 38.5h-165z" />
    <glyph glyph-name="Rupee.tf" 
d="M639 695v-67h-231q58 -39 67 -113h164v-59h-164q-9 -83 -71.5 -131t-178.5 -48h-18l284 -277h-116l-291 292v54h131q151 0 167 110h-298v59h298q-16 113 -151 113h-147v67h555z" />
    <glyph glyph-name="Baht.tf" 
d="M491 356q69 -11 107 -54t38 -111q0 -94 -62 -142.5t-174 -48.5h-34v-107h-58v107h-217v695h217v89h58v-89h20q109 0 169.5 -45.5t60.5 -134.5q0 -59 -33.5 -100.5t-91.5 -58.5zM308 619h-128v-231h128v231zM385 619h-19v-231h15q141 0 141 123q0 58 -34 83t-103 25z
M180 76h128v238h-128v-238zM395 76q74 0 110.5 28.5t36.5 93.5q0 57 -37.5 86.5t-105.5 29.5h-33v-238h29z" />
    <glyph glyph-name="Bitcoin.tf" 
d="M637 191q0 -85 -50.5 -132.5t-143.5 -56.5v-109h-57v107h-101v-107h-58v107h-136v695h136v90h58v-90h101v90h57v-94q84 -11 129.5 -55.5t45.5 -120.5q0 -59 -34 -100.5t-94 -58.5q70 -11 108.5 -54t38.5 -111zM384 618h-203v-228h199q141 0 141 121q0 57 -34 82t-103 25z
M394 77q74 0 110.5 28t36.5 93q0 57 -37 87t-105 30h-218v-238h213z" />
    <glyph glyph-name="percentzerotfcomb" 
d="M178 378q-68 0 -108.5 45t-40.5 123q0 75 40.5 120t107.5 45q66 0 107 -46t41 -122q0 -75 -41 -120t-106 -45zM178 441q35 0 55 27t20 75v1q0 49 -20.5 77t-55.5 28t-56 -27.5t-21 -75.5q0 -50 21 -77.5t57 -27.5z" />
    <glyph glyph-name="Won.tf.case" 
d="M655 405h-46l-11 -82h57v-54h-65l-37 -269h-112l-40 269h-106l-40 -269h-112l-37 269h-65v54h57l-11 82h-46v54h39l-35 251h79l30 -251h106l39 251h98l39 -251h106l30 251h79l-35 -251h39v-54zM340 573l-17 -114h50l-17 114q-5 36 -6 59h-4q-1 -23 -6 -59zM160 405
l10 -82h69l13 82h-92zM303 323h90l-12 82h-66zM526 323l10 82h-92l13 -82h69zM208 125l22 144h-54l17 -144q5 -35 5 -50h4zM503 125l17 144h-54l22 -144l6 -50h4q0 15 5 50z" />
    <glyph glyph-name="Lira.tf.case" 
d="M551 243l86 -17q-50 -226 -276 -226h-213v274l-89 -23v65l89 22v85l-89 -23v65l89 22v223h94v-199l287 72v-64l-287 -73v-84l287 72v-64l-287 -73v-215h104q92 0 138 44.5t67 116.5z" />
    <glyph glyph-name="Ruble.tf.case" 
d="M403 289h-170v-89h220v-59h-220v-141h-93v141h-86v59h86v89h-85v66h85v355h262q112 0 177.5 -56t65.5 -153q0 -96 -66 -154t-176 -58zM233 632v-277h165q68 0 109.5 38.5t41.5 102.5q0 63 -40.5 99.5t-110.5 36.5h-165z" />
    <glyph glyph-name="Rupee.tf.case" 
d="M639 710v-66h-233q61 -40 70 -124h163v-59h-164q-10 -83 -72.5 -132t-177.5 -49h-18l284 -280h-116l-291 296v53h131q149 0 167 112h-298v59h298q-14 124 -151 124h-147v66h555z" />
    <glyph glyph-name="Baht.tf.case" 
d="M491 365q68 -11 106.5 -54.5t38.5 -111.5q0 -98 -62 -148.5t-174 -50.5h-34v-88h-58v88h-217v710h217v80h58v-80h20q109 0 169.5 -46.5t60.5 -137.5q0 -60 -33.5 -102t-91.5 -59zM308 634h-128v-237h128v237zM385 634h-19v-237h15q141 0 141 124q0 60 -34.5 86.5
t-102.5 26.5zM180 76h128v247h-128v-247zM395 76q74 0 110.5 30.5t36.5 99.5q0 57 -37.5 87t-105.5 30h-33v-247h29z" />
    <glyph glyph-name="Bitcoin.tf.case" 
d="M637 199q0 -88 -50.5 -138t-143.5 -59v-90h-57v88h-101v-88h-58v88h-136v710h136v81h58v-81h101v81h57v-85q83 -11 129 -56.5t46 -123.5q0 -60 -34 -102t-94 -59q70 -10 108.5 -54t38.5 -112zM384 633h-203v-234h199q141 0 141 122q0 60 -34 86t-103 26zM394 77
q74 0 110.5 30t36.5 99q0 58 -37 88t-105 30h-218v-247h213z" />
    </font>
</defs>
</svg>
