<?xml version="1.0" standalone="no"?>
<!DOCTYPE svg PUBLIC "-//W3C//DTD SVG 1.1//EN" "http://www.w3.org/Graphics/SVG/1.1/DTD/svg11.dtd" >
<svg xmlns="http://www.w3.org/2000/svg" xmlns:xlink="http://www.w3.org/1999/xlink" version="1.1">
<metadata>
Created by FontForge 20170731 at Sat Oct  8 16:41:30 2016
 By Aleksey,,,
(C) 2016 Sharp Type Corporation
</metadata>
<defs>
<font id="SharpGroteskBold25-Regular" horiz-adv-x="601" >
  <font-face 
    font-family="Sharp Grotesk Bold 25"
    font-weight="700"
    font-stretch="ultra-expanded"
    units-per-em="1000"
    panose-1="2 11 8 7 5 7 2 3 2 4"
    ascent="800"
    descent="-200"
    x-height="585"
    cap-height="720"
    bbox="-96 -378 2178 1200"
    underline-thickness="50"
    underline-position="-150"
    unicode-range="U+0020-3009"
  />
<missing-glyph horiz-adv-x="239" 
 />
    <glyph glyph-name=".notdef" horiz-adv-x="239" 
 />
    <glyph glyph-name=".null" horiz-adv-x="0" 
 />
    <glyph glyph-name="nonmarkingreturn" horiz-adv-x="333" 
 />
    <glyph glyph-name="space" unicode=" " horiz-adv-x="239" 
 />
    <glyph glyph-name="exclam" unicode="!" horiz-adv-x="434" 
d="M24 720v-57q0 -101 16 -177.5t37 -124.5q11 -24 19.5 -41t15.5 -26q16 3 44.5 5t62.5 2t59 -2t44 -5q15 18 35.5 67.5t36.5 125.5q8 38 12 82t4 94v57h-386zM214 -14q64 0 101 11t53 39q8 15 12 35.5t4 46.5q0 53 -16.5 82t-54.5 40q-18 6 -43 9t-56 3q-63 0 -100 -11.5
t-54 -40.5q-8 -15 -12 -35.5t-4 -46.5q0 -52 14 -81t51 -40q18 -5 44.5 -8t60.5 -3z" />
    <glyph glyph-name="quotedbl" unicode="&#x22;" horiz-adv-x="629" 
d="M65 425h187q4 6 10 33t12 67q6 39 10 85.5t4 91.5v18h-259v-18q0 -45 4 -91t10 -86q5 -40 11.5 -67t10.5 -33zM380 425h188q4 6 10 33t12 67q6 39 10 85.5t4 91.5v18h-259v-18q0 -45 4 -91t9 -86q6 -40 12 -67t10 -33z" />
    <glyph glyph-name="numbersign" unicode="#" horiz-adv-x="1075" 
d="M599 316h-136l15 83h136zM542 0h289l14 78h169v238h-126l15 83h150v238h-107l15 83h-289l-15 -83h-136l15 83h-289l-15 -83h-171v-238h128l-15 -83h-152v-238h109l-14 -78h289l14 78h136z" />
    <glyph glyph-name="dollar" unicode="$" horiz-adv-x="866" 
d="M578 -154v142q147 22 213 89t66 161q0 79 -37.5 126t-110.5 71q-36 12 -80.5 19.5t-97.5 11.5q-84 6 -125.5 10.5t-55.5 10.5q-6 2 -9.5 6t-3.5 8q0 11 15 20t56 9q47 0 75 -11t36 -33h330q-29 107 -95.5 165.5t-174.5 79.5v161h-289v-158q-128 -22 -199 -88t-71 -168
q0 -108 79.5 -159t239.5 -62q87 -6 130.5 -11t57.5 -12q8 -3 11.5 -7t3.5 -10q0 -12 -15.5 -18.5t-53.5 -6.5q-39 0 -75 10t-44 35h-352q10 -66 41 -117t90 -84q30 -16 69.5 -28t87.5 -19v-143h288z" />
    <glyph glyph-name="percent" unicode="%" horiz-adv-x="1038" 
d="M219 400q108 0 165.5 44.5t57.5 119.5q0 74 -57 120.5t-164 46.5q-108 0 -165.5 -46.5t-57.5 -120.5q0 -76 51.5 -120t169.5 -44zM-33 0h363l729 720h-347zM219 526q-22 0 -33.5 9.5t-11.5 28.5q0 21 11.5 31t33.5 10q23 0 34.5 -10t11.5 -31q0 -19 -11.5 -28.5
t-34.5 -9.5zM817 -5q108 0 165.5 44.5t57.5 119.5q0 74 -57 120.5t-164 46.5q-108 0 -165.5 -46.5t-57.5 -120.5q0 -76 51.5 -120t169.5 -44zM817 121q-22 0 -33.5 9.5t-11.5 28.5q0 21 11.5 31t33.5 10q23 0 34.5 -10t11.5 -31q0 -19 -11.5 -28.5t-34.5 -9.5z" />
    <glyph glyph-name="ampersand" unicode="&#x26;" horiz-adv-x="1052" 
d="M852 -19q75 0 124 18t71 42v174q-22 -22 -53.5 -35t-75.5 -13q-15 0 -32.5 2.5t-37.5 6.5q66 54 121 122t93 149h-251q-36 -58 -79.5 -102.5t-93.5 -76.5q-15 10 -29 20t-27 21q-3 2 -5.5 4.5l-4.5 4.5q95 30 144 81t49 126q0 89 -63 144.5t-190 55.5q-82 0 -142.5 -30
t-94.5 -85q-16 -27 -24.5 -58.5t-8.5 -68.5q0 -16 2.5 -32.5t6.5 -33.5q-121 -26 -181.5 -80.5t-60.5 -153.5q0 -103 85.5 -152.5t242.5 -49.5q68 0 140 15.5t145 44.5q55 -28 112 -44t118 -16zM462 493q0 20 10.5 32.5t28.5 12.5q17 0 25 -9.5t8 -23.5q0 -17 -14.5 -27.5
t-52.5 -18.5q-3 10 -4 18.5t-1 15.5zM345 185q-28 0 -42 8.5t-14 25.5q0 11 10.5 20.5t45.5 18.5q15 -17 32.5 -34.5t36.5 -34.5q-17 -2 -34.5 -3t-34.5 -1z" />
    <glyph glyph-name="quotesingle" unicode="'" horiz-adv-x="318" 
d="M65 425h187q4 6 10 33t12 67q6 39 10 85.5t4 91.5v18h-259v-18q0 -45 4 -91t10 -86q5 -40 11.5 -67t10.5 -33z" />
    <glyph glyph-name="parenleft" unicode="(" horiz-adv-x="486" 
d="M471 -170v284q-50 0 -78 14.5t-40 53.5q-5 19 -8 46.5t-3 63.5q0 78 9.5 122t37.5 63q14 9 34.5 13.5t47.5 4.5v268q-145 0 -245.5 -44t-152.5 -148q-26 -52 -39 -122.5t-13 -160.5q0 -122 23 -209t75 -142t138.5 -81t213.5 -26z" />
    <glyph glyph-name="parenright" unicode=")" horiz-adv-x="486" 
d="M15 -170q127 0 213.5 26t138.5 81t75 142t23 209q0 179 -52 283t-152 148q-50 22 -111.5 33t-134.5 11v-268q55 0 82.5 -18.5t36.5 -62.5q5 -22 7.5 -52.5t2.5 -69.5q0 -72 -11.5 -110.5t-39.5 -52.5q-14 -8 -33.5 -11.5t-44.5 -3.5v-284z" />
    <glyph glyph-name="asterisk" unicode="*" horiz-adv-x="665" 
d="M536 323l113 198l-220 49l220 52l-116 198l-151 -164l66 214h-229l65 -216l-153 163l-114 -197l221 -50l-221 -52l115 -198l152 164l-65 -213h229l-66 216z" />
    <glyph glyph-name="plus" unicode="+" horiz-adv-x="763" 
d="M706 240v272h-193v185h-263v-185h-194v-272h194v-187h263v187h193z" />
    <glyph glyph-name="comma" unicode="," horiz-adv-x="427" 
d="M79 -221q155 0 228.5 77t73.5 225q0 73 -15 115t-51 60q-18 9 -43 13.5t-57 4.5q-63 0 -101 -12t-55 -44q-8 -15 -12.5 -37t-4.5 -51q0 -60 13 -90t44 -40q16 -5 37.5 -7.5t48.5 -2.5h12t12 1q-8 -47 -38.5 -64t-91.5 -19v-129z" />
    <glyph glyph-name="hyphen" unicode="-" horiz-adv-x="628" 
d="M598 434h-568v-283h568v283z" />
    <glyph glyph-name="period" unicode="." horiz-adv-x="424" 
d="M212 -14q64 0 101 11.5t53 42.5q8 16 12 39.5t4 53.5q0 63 -16.5 95t-54.5 43q-18 5 -43 8t-56 3q-63 0 -100 -11t-54 -43q-8 -16 -12 -40t-4 -55q0 -62 14 -94t51 -42q18 -6 44.5 -8.5t60.5 -2.5z" />
    <glyph glyph-name="slash" unicode="/" horiz-adv-x="560" 
d="M317 0l269 720h-343l-268 -720h342z" />
    <glyph glyph-name="zero" unicode="0" horiz-adv-x="912" 
d="M456 -19q136 0 233.5 41t150.5 124q27 42 40 95t13 117q0 119 -54 204.5t-151 130.5q-48 23 -104.5 34.5t-121.5 11.5q-133 0 -233 -45.5t-155 -131.5q-27 -42 -41 -93t-14 -111q0 -192 115 -284.5t322 -92.5zM456 252q-51 0 -81.5 27.5t-30.5 78.5q0 49 30.5 78.5
t81.5 29.5t81.5 -29.5t30.5 -78.5q0 -51 -30.5 -78.5t-81.5 -27.5z" />
    <glyph glyph-name="one" unicode="1" horiz-adv-x="697" 
d="M683 0v278h-173v442h-253q-25 -59 -69 -88.5t-106 -35.5v-204h128v-114h-196v-278h669z" />
    <glyph glyph-name="two" unicode="2" horiz-adv-x="820" 
d="M800 0v257h-469q22 11 59.5 17t84.5 11q46 5 94.5 13t92.5 21q42 13 76 36t54 58q10 18 15 40t5 48q0 108 -91 171t-288 63q-196 0 -298.5 -70t-111.5 -220h312q2 21 21 34t71 13q47 0 61.5 -7.5t14.5 -19.5q0 -10 -20.5 -16t-54.5 -10q-17 -2 -36.5 -4.5t-40.5 -5.5
q-53 -7 -111 -20t-108 -38t-81.5 -67.5t-31.5 -107.5v-196h781z" />
    <glyph glyph-name="three" unicode="3" horiz-adv-x="849" 
d="M420 -19q213 0 314 64.5t101 174.5q0 74 -46 108.5t-118 47.5q74 17 111 54t37 95q0 62 -38 109t-120 74q-41 14 -95 20.5t-121 6.5q-134 0 -228 -26t-144 -88q-25 -30 -38 -72t-15 -95h301q1 18 19 28.5t70 10.5q51 0 67 -7.5t16 -19.5t-13.5 -19.5t-60.5 -7.5h-77v-151
h76q55 0 69.5 -5t14.5 -19q0 -13 -19 -22t-68 -9q-55 0 -71.5 8.5t-18.5 27.5h-319q1 -69 18.5 -123t61.5 -90q45 -37 125.5 -56t208.5 -19z" />
    <glyph glyph-name="four" unicode="4" horiz-adv-x="881" 
d="M864 109h-122v-109h-302v109h-423v211l464 400h261v-368h122v-243zM440 352v97l-115 -97h115z" />
    <glyph glyph-name="five" unicode="5" horiz-adv-x="812" 
d="M412 -15q191 0 287 67t96 183q0 106 -71.5 160.5t-211.5 54.5q-59 0 -103.5 -14t-76.5 -46l6 89h192q80 0 128 9.5t72 35.5q25 26 33 73.5t8 122.5h-722l-28 -381l301 -63q11 10 31.5 18t51.5 8q35 0 49.5 -9.5t14.5 -27.5q0 -17 -16 -28t-46 -11q-31 0 -47.5 7.5
t-19.5 20.5h-343q10 -85 51 -145t129 -92q43 -16 102 -24t133 -8z" />
    <glyph glyph-name="six" unicode="6" horiz-adv-x="857" 
d="M845 244q0 109 -68 153.5t-207 44.5q-72 0 -130 -14.5t-102 -43.5q2 50 24 79.5t72 29.5q29 0 44.5 -7t22.5 -18h343q-22 103 -74 161.5t-135 82.5q-42 13 -91 19t-107 6q-202 0 -310 -99t-108 -287q0 -119 40.5 -201.5t133.5 -125.5q46 -22 109 -32.5t142 -10.5
q118 0 208 29t142 88q25 29 38 65.5t13 80.5zM443 240q-28 0 -47.5 8.5t-31.5 22.5q21 14 47 24.5t59 10.5q29 0 40 -8t11 -22q0 -17 -17.5 -26.5t-60.5 -9.5z" />
    <glyph glyph-name="seven" unicode="7" horiz-adv-x="779" 
d="M449 0q28 84 59.5 149t69.5 119q39 54 87 104.5t110 105.5v242h-763v-283h350q-59 -50 -118 -116t-109 -147q-25 -40 -46 -83.5t-37 -90.5h397z" />
    <glyph glyph-name="eight" unicode="8" horiz-adv-x="852" 
d="M426 -15q215 0 316 53.5t101 165.5q0 55 -37.5 96.5t-108.5 63.5q60 17 92 53.5t32 94.5q0 105 -92.5 164t-299.5 59q-139 0 -225 -25.5t-125 -74.5q-19 -25 -29 -55.5t-10 -66.5q0 -57 30 -94.5t89 -55.5q-73 -22 -111.5 -65.5t-38.5 -103.5q0 -109 100 -159t317 -50z
M430 421q-46 0 -67 5.5t-21 21.5q0 15 22 22.5t66 7.5q48 0 68.5 -7.5t20.5 -22.5q0 -16 -21.5 -21.5t-67.5 -5.5zM430 242q-49 0 -72 5.5t-23 22.5q0 16 24 23.5t71 7.5q51 0 73 -7.5t22 -23.5q0 -17 -23 -22.5t-72 -5.5z" />
    <glyph glyph-name="nine" unicode="9" horiz-adv-x="857" 
d="M391 418q-28 0 -39.5 8.5t-11.5 22.5q0 17 17.5 29t61.5 12q32 0 53 -9.5t31 -29.5q-22 -15 -49.5 -24t-62.5 -9zM419 -19q210 0 314.5 94.5t104.5 283.5q0 181 -97.5 279.5t-307.5 98.5q-144 0 -236 -33t-137 -93q-22 -30 -33 -65.5t-11 -75.5q0 -102 72.5 -146.5
t201.5 -44.5q74 0 131 14t98 42q-1 -53 -21 -82.5t-73 -29.5q-31 0 -45.5 8t-19.5 22h-353q19 -104 72.5 -163.5t139.5 -84.5q42 -12 92.5 -18t107.5 -6z" />
    <glyph glyph-name="colon" unicode=":" horiz-adv-x="424" 
d="M211 324q64 0 101 10.5t53 40.5q8 15 12 36.5t4 50.5q0 59 -16.5 89t-54.5 40q-18 6 -43 8.5t-56 2.5q-62 0 -99.5 -10.5t-53.5 -40.5q-8 -15 -12 -37.5t-4 -51.5q0 -59 14 -88.5t50 -39.5q19 -5 45 -7.5t60 -2.5zM211 -14q64 0 101 10.5t53 40.5q8 15 12 36.5t4 50.5
q0 59 -16.5 89t-54.5 41q-18 5 -43 7.5t-56 2.5q-62 0 -99.5 -10.5t-53.5 -40.5q-8 -15 -12 -37t-4 -52q0 -58 14 -88t50 -40q19 -5 45 -7.5t60 -2.5z" />
    <glyph glyph-name="semicolon" unicode=";" horiz-adv-x="427" 
d="M211 324q64 0 101 12.5t53 42.5q8 15 12 36t4 47q0 54 -16.5 84.5t-54.5 43.5q-18 6 -43 9t-56 3q-94 0 -131.5 -30.5t-37.5 -109.5q0 -56 14 -86t50 -41q19 -5 45 -8t60 -3zM79 -221q155 0 228.5 77t73.5 225q0 65 -15 105.5t-51 58.5q-18 10 -43 14.5t-57 4.5
q-63 0 -101 -12t-55 -44q-8 -15 -12.5 -37.5t-4.5 -51.5q0 -55 13 -82.5t44 -37.5q16 -4 37.5 -6.5t48.5 -2.5h12t12 1q-8 -47 -38.5 -64t-91.5 -19v-129z" />
    <glyph glyph-name="less" unicode="&#x3c;" horiz-adv-x="724" 
d="M628 -8v279l-214 76l214 76v279l-539 -233v-250z" />
    <glyph glyph-name="equal" unicode="=" horiz-adv-x="763" 
d="M661 413v252h-560v-252h560zM661 80v252h-560v-252h560z" />
    <glyph glyph-name="greater" unicode="&#x3e;" horiz-adv-x="724" 
d="M95 -8l539 227v250l-539 233v-279l214 -76l-214 -76v-279z" />
    <glyph glyph-name="question" unicode="?" horiz-adv-x="816" 
d="M521 237q5 23 17 36.5t38 23.5q13 5 31.5 10.5t41.5 11.5q80 21 118 62.5t38 115.5q0 119 -95 179.5t-294 60.5q-201 0 -302.5 -69.5t-116.5 -225.5h317q3 16 12 27.5t31 17.5q11 3 27.5 4.5t37.5 1.5q48 0 60.5 -5.5t12.5 -13.5q0 -6 -7 -11t-29 -10l-27.5 -5t-39.5 -6
q-82 -10 -118.5 -40.5t-36.5 -100.5q0 -15 3.5 -32t7.5 -31q20 8 51 12t84 4q54 0 86 -4t52 -13zM383 -14q73 0 114.5 9.5t58.5 34.5q8 13 12.5 31t4.5 41q0 46 -18 71t-59 36q-21 5 -49 7.5t-64 2.5q-71 0 -112 -10.5t-59 -35.5q-8 -13 -12.5 -30.5t-4.5 -40.5
q0 -46 15 -71t55 -35q21 -5 50.5 -7.5t67.5 -2.5z" />
    <glyph glyph-name="at" unicode="@" horiz-adv-x="905" 
d="M446 -143q136 0 233.5 49.5t154.5 154.5h-205q-28 -36 -70.5 -51.5t-108.5 -15.5q-78 0 -132.5 22.5t-88.5 61.5q-34 38 -49.5 87t-15.5 101q0 125 78 198t224 73q140 0 207 -61t67 -156q0 -47 -10.5 -73t-31.5 -26q-15 0 -23 16t-8 47v160h-116l-24 -53
q-15 32 -46.5 47.5t-80.5 15.5q-81 0 -127.5 -51t-46.5 -136q0 -95 46.5 -141t124.5 -46q56 0 90 20.5t50 51.5q20 -31 56.5 -48t91.5 -17q98 0 152.5 62.5t54.5 177.5q0 70 -28 133t-82 112t-133.5 77t-182.5 28q-134 0 -236 -51t-160 -144q-28 -47 -42.5 -102t-14.5 -118
q0 -134 53.5 -224t151.5 -136q48 -22 105.5 -33.5t122.5 -11.5zM446 217q-25 0 -37.5 15.5t-12.5 35.5q0 22 12.5 38.5t37.5 16.5q23 0 36.5 -16t13.5 -39q0 -20 -13 -35.5t-37 -15.5z" />
    <glyph glyph-name="A" unicode="A" horiz-adv-x="871" 
d="M431 432l7 33l7 -34l44 -137h-103zM583 0h323l-280 720h-372l-288 -720h324l29 90h235z" />
    <glyph glyph-name="B" unicode="B" horiz-adv-x="875" 
d="M496 0q175 0 271 49t96 160q0 73 -42 111t-132 54q72 15 112 50.5t40 99.5q0 67 -35 110t-114 65q-39 10 -91.5 15.5t-118.5 5.5h-440v-720h454zM449 504q35 0 48 -10t12 -23q0 -13 -12 -24t-48 -11h-93v68h93zM444 294q45 0 60.5 -9t15.5 -25t-14.5 -26.5t-61.5 -10.5
h-88v71h88z" />
    <glyph glyph-name="C" unicode="C" horiz-adv-x="923" 
d="M910 329h-342q-3 -32 -30.5 -54.5t-77.5 -22.5q-55 0 -85.5 27.5t-30.5 78.5q0 49 31.5 78.5t86.5 29.5q50 0 76.5 -23.5t29.5 -55.5h342q-4 119 -62 197t-158 117q-49 19 -106 28.5t-122 9.5q-133 0 -233 -46t-155 -132q-27 -43 -41 -94t-14 -111q0 -194 114 -284.5
t323 -90.5q131 0 231.5 36t159.5 113q29 39 45 88.5t18 110.5z" />
    <glyph glyph-name="D" unicode="D" horiz-adv-x="882" 
d="M441 0q126 0 221 40.5t148 120.5q27 40 40 90t13 109q0 119 -52 199t-148 120q-47 21 -103 31t-121 10h-397v-720h399zM421 462q65 0 91 -24t26 -77q0 -46 -26 -72.5t-91 -26.5h-67v200h67z" />
    <glyph glyph-name="E" unicode="E" horiz-adv-x="778" 
d="M754 242h-414v53h387v144h-387v49h405v232h-703v-720h712v242z" />
    <glyph glyph-name="F" unicode="F" horiz-adv-x="736" 
d="M713 152v242h-372v63h372v263h-671v-720h299v152h372z" />
    <glyph glyph-name="G" unicode="G" horiz-adv-x="920" 
d="M604 0h287v400h-475v-125h141q-12 -24 -37 -36.5t-66 -12.5q-64 0 -87 30.5t-23 87.5q0 66 27 97t83 31q38 0 58 -10t31 -29h349q-16 160 -129 233t-303 73q-208 0 -324.5 -102.5t-116.5 -301.5q0 -177 78.5 -265.5t235.5 -88.5q79 0 131.5 21t81.5 69q15 24 25 56.5
t15 73.5z" />
    <glyph glyph-name="H" unicode="H" horiz-adv-x="894" 
d="M536 0h316v720h-316v-228h-176v228h-318v-720h318v223h176v-223z" />
    <glyph glyph-name="I" unicode="I" horiz-adv-x="691" 
d="M661 0v278h-164v163h164v279h-631v-279h162v-163h-162v-278h631z" />
    <glyph glyph-name="J" unicode="J" horiz-adv-x="807" 
d="M390 -19q186 0 284 88.5t98 282.5v368h-320v-372q0 -56 -15.5 -76t-46.5 -20q-32 0 -47 19t-15 71v44h-316v-46q0 -133 41.5 -212t125.5 -113q42 -17 95 -25.5t116 -8.5z" />
    <glyph glyph-name="K" unicode="K" horiz-adv-x="917" 
d="M566 0h355l-261 437l265 283h-373l-198 -222v222h-312v-720h312v188l64 71z" />
    <glyph glyph-name="L" unicode="L" horiz-adv-x="726" 
d="M705 0v291h-334v429h-329v-720h663z" />
    <glyph glyph-name="M" unicode="M" horiz-adv-x="988" 
d="M481 159h21l134 154v-313h310v720h-279l-169 -212l-174 212h-282v-720h311v311z" />
    <glyph glyph-name="N" unicode="N" horiz-adv-x="934" 
d="M602 0h290v720h-301v-320l-250 320h-299v-720h302v335z" />
    <glyph glyph-name="O" unicode="O" horiz-adv-x="912" 
d="M456 -19q136 0 233.5 41t150.5 124q27 42 40 95t13 117q0 119 -54 204.5t-151 130.5q-48 23 -104.5 34.5t-121.5 11.5q-133 0 -233 -45.5t-155 -131.5q-27 -42 -41 -93t-14 -111q0 -192 115 -284.5t322 -92.5zM456 252q-51 0 -81.5 27.5t-30.5 78.5q0 49 30.5 78.5
t81.5 29.5t81.5 -29.5t30.5 -78.5q0 -51 -30.5 -78.5t-81.5 -27.5z" />
    <glyph glyph-name="P" unicode="P" horiz-adv-x="847" 
d="M447 123q197 0 290.5 71.5t93.5 218.5q0 149 -92 228t-294 79h-403v-720h299v123h106zM441 467q47 0 65 -13.5t18 -42.5t-17.5 -42t-64.5 -13h-101v111h100z" />
    <glyph glyph-name="Q" unicode="Q" horiz-adv-x="912" 
d="M793 -140l-91 172q92 41 141.5 122t49.5 204q0 119 -54 204.5t-151 130.5q-48 23 -104.5 34.5t-121.5 11.5q-133 0 -233 -45.5t-155 -131.5q-27 -42 -41 -93t-14 -111q0 -183 103.5 -272.5t292.5 -97.5l58 -128h320zM456 252q-51 0 -81.5 27.5t-30.5 78.5q0 49 30.5 78.5
t81.5 29.5t81.5 -29.5t30.5 -78.5q0 -51 -30.5 -78.5t-81.5 -27.5z" />
    <glyph glyph-name="R" unicode="R" horiz-adv-x="861" 
d="M469 484q32 0 46 -12.5t14 -32.5q0 -21 -16 -33.5t-44 -12.5h-123v91h123zM433 177q43 0 58 -13.5t15 -52.5v-63q0 -13 6 -26.5t21 -21.5h331q-16 8 -25 23t-9 34v46q0 56 -9 93.5t-34 61.5q-12 11 -30.5 20t-43.5 15q68 26 99 71t31 111q0 83 -35 137.5t-118 80.5
q-42 14 -99.5 20.5t-130.5 6.5h-418v-720h304v177h87z" />
    <glyph glyph-name="S" unicode="S" horiz-adv-x="870" 
d="M444 -21q146 0 237 33.5t134 92.5q21 29 31.5 62.5t10.5 70.5q0 79 -37.5 126t-110.5 71q-36 12 -80.5 19.5t-97.5 11.5q-84 6 -125.5 10.5t-55.5 10.5q-6 2 -9.5 6t-3.5 8q0 11 15 20t56 9q47 0 75 -11t36 -33h330q-26 95 -81 151.5t-142 81.5q-43 12 -95 18.5t-113 6.5
q-124 0 -213 -31.5t-137 -91.5q-24 -30 -36 -65.5t-12 -77.5q0 -108 79.5 -159t239.5 -62q87 -6 130.5 -11t57.5 -12q8 -3 11.5 -7t3.5 -10q0 -12 -15.5 -18.5t-53.5 -6.5q-39 0 -75 10t-44 35h-352q13 -82 57.5 -139.5t136.5 -88.5q46 -15 108 -22.5t140 -7.5z" />
    <glyph glyph-name="T" unicode="T" horiz-adv-x="786" 
d="M763 443v277h-740v-277h208v-443h320v443h212z" />
    <glyph glyph-name="U" unicode="U" horiz-adv-x="878" 
d="M438 -19q197 0 301 91.5t104 296.5v351h-325v-351q0 -58 -20 -81.5t-58 -23.5q-40 0 -60 23.5t-20 81.5v351h-325v-351q0 -133 38.5 -219t126.5 -128q44 -20 103.5 -30.5t134.5 -10.5z" />
    <glyph glyph-name="V" unicode="V" horiz-adv-x="871" 
d="M618 0l287 720h-333l-131 -381l-7 -40l-7 41l-128 380h-332l278 -720h373z" />
    <glyph glyph-name="W" unicode="W" horiz-adv-x="1282" 
d="M742 0h299l271 720h-324l-110 -323l-111 323h-256l-127 -323l-86 323h-328l222 -720h296l139 339z" />
    <glyph glyph-name="X" unicode="X" horiz-adv-x="821" 
d="M511 0h355l-273 383l248 337h-340l-91 -136l-90 136h-341l252 -349l-276 -371h356l100 147z" />
    <glyph glyph-name="Y" unicode="Y" horiz-adv-x="763" 
d="M538 0v281l278 439h-332l-102 -174l-101 174h-334l271 -440v-280h320z" />
    <glyph glyph-name="Z" unicode="Z" horiz-adv-x="848" 
d="M816 0v261h-315l313 253v206h-762v-258h323l-344 -274v-188h785z" />
    <glyph glyph-name="bracketleft" unicode="[" horiz-adv-x="520" 
d="M505 67h-168v459h168v227h-469v-913h469v227z" />
    <glyph glyph-name="backslash" unicode="\" horiz-adv-x="560" 
d="M-31 720l288 -720h334l-288 720h-334z" />
    <glyph glyph-name="bracketright" unicode="]" horiz-adv-x="520" 
d="M484 -160v913h-469v-227h167v-459h-167v-227h469z" />
    <glyph glyph-name="asciicircum" unicode="^" horiz-adv-x="689" 
d="M402 379h210l-169 344h-195l-172 -344h204l64 154z" />
    <glyph glyph-name="uni005F" unicode="_" horiz-adv-x="800" 
d="M790 -107h-780v-247h780v247z" />
    <glyph glyph-name="grave" unicode="`" 
d="M260 663h185l-111 218h-266z" />
    <glyph glyph-name="a" unicode="a" horiz-adv-x="835" 
d="M370 158q-18 0 -26 7t-8 16q0 8 4 13.5t10 9.5t19 8.5t42 10.5q31 8 52.5 15t34.5 17v-9q0 -24 -19.5 -44t-48.5 -32q-15 -6 -30 -9t-30 -3zM529 0h271v329q0 139 -88 204t-280 65q-177 0 -282 -58t-118 -177h317q0 16 21.5 28t68.5 12q37 0 48 -6t11 -17
q0 -10 -12.5 -16t-49.5 -11q-19 -2 -47 -5t-65 -7q-54 -6 -93 -12t-68 -15q-15 -4 -29.5 -9.5t-28.5 -12.5q-46 -22 -69 -59.5t-23 -90.5q0 -78 53 -119.5t168 -41.5q102 0 167.5 31.5t96.5 83.5z" />
    <glyph glyph-name="b" unicode="b" horiz-adv-x="829" 
d="M528 -8q77 0 141.5 36t103.5 103q19 33 29 72.5t10 85.5q0 99 -36.5 167t-100.5 102q-32 18 -68 26.5t-76 8.5q-69 0 -117 -25t-75 -70v272h-303v-770h274l15 84q26 -42 74 -67t129 -25zM416 217q-38 0 -59.5 18t-21.5 52q0 38 21.5 57.5t59.5 19.5q37 0 59.5 -19.5
t22.5 -57.5q0 -34 -22 -52t-60 -18z" />
    <glyph glyph-name="c" unicode="c" horiz-adv-x="822" 
d="M816 266h-325q-7 -24 -26.5 -36.5t-52.5 -12.5q-38 0 -59.5 18t-21.5 52q0 38 21.5 57.5t59.5 19.5q33 0 52.5 -13t26.5 -39h325q-6 85 -54.5 149t-136.5 101q-44 18 -96.5 27t-114.5 9q-126 0 -214.5 -40t-135.5 -110q-24 -35 -35.5 -75.5t-11.5 -86.5
q0 -94 40.5 -162.5t127.5 -105.5q43 -18 100 -27.5t127 -9.5q190 0 293.5 76.5t110.5 208.5z" />
    <glyph glyph-name="d" unicode="d" horiz-adv-x="829" 
d="M413 217q-37 0 -59.5 18t-22.5 52q0 38 22.5 57.5t59.5 19.5q38 0 59.5 -19.5t21.5 -57.5q0 -34 -21.5 -52t-59.5 -18zM519 0h274v770h-303v-268q-25 44 -71 67.5t-117 23.5q-80 0 -145 -35.5t-102 -104.5q-19 -35 -28.5 -76.5t-9.5 -91.5q0 -91 38 -157t101 -101
q32 -17 67 -26t73 -9q83 0 132 27.5t74 72.5z" />
    <glyph glyph-name="e" unicode="e" horiz-adv-x="838" 
d="M820 198h-327q-7 -10 -20.5 -15.5t-45.5 -5.5q-46 0 -70.5 15t-32.5 44h499v52q0 64 -21 120t-67 99t-120.5 67t-181.5 24q-143 0 -235.5 -41t-136.5 -114q-22 -37 -33 -79.5t-11 -90.5q0 -60 18.5 -112.5t62.5 -93.5q44 -40 120.5 -63t192.5 -23q188 0 285 54t124 163z
M422 396q40 0 62 -10.5t30 -37.5h-185q10 23 32.5 35.5t60.5 12.5z" />
    <glyph glyph-name="f" unicode="f" horiz-adv-x="583" 
d="M562 234v248h-157q0 35 12 49t49 14h98v225h-144q-115 0 -182 -23t-95 -77q-15 -27 -22 -64t-7 -83v-41h-102v-248h102v-234h291v234h157z" />
    <glyph glyph-name="g" unicode="g" horiz-adv-x="813" 
d="M405 -238q218 0 317.5 54t99.5 173q0 62 -29.5 102t-95.5 60q-33 10 -77.5 15t-100.5 5h-209q-55 0 -70.5 2t-15.5 12q0 9 16.5 13.5t68.5 4.5h118q141 0 222 22t116 65q17 21 25.5 48t8.5 59q0 68 -35.5 107t-103.5 58q-20 6 -45 10t-55 7q71 0 117.5 3t72.5 14
q27 11 37.5 35t10.5 66v23h-317v-55q0 -43 -10.5 -55t-47.5 -12h-42q-190 0 -278 -52.5t-88 -147.5q0 -70 40.5 -108t132.5 -53q-95 -12 -136 -45.5t-41 -89.5q0 -54 44 -86t152 -39q-76 -2 -122 -16.5t-67 -36.5q-10 -12 -15 -24t-5 -25q0 -27 15.5 -48t53.5 -36
q38 -14 105.5 -21.5t171.5 -7.5h61zM411 365q-61 0 -83 5.5t-22 19.5q0 16 21 22t73 7h12q64 0 85.5 -6.5t21.5 -22.5q0 -13 -23 -19t-85 -6zM412 -77q-76 0 -104 6.5t-28 20.5q0 11 16 18t74 7h121q41 0 55 -5.5t14 -17.5v-1q0 -7 -9.5 -13.5t-35.5 -10.5q-13 -2 -32.5 -3
t-44.5 -1h-26z" />
    <glyph glyph-name="h" unicode="h" horiz-adv-x="811" 
d="M345 246q0 53 13.5 72.5t47.5 19.5q36 0 48.5 -19t12.5 -66v-253h308v350q0 121 -59.5 184.5t-174.5 63.5q-64 0 -115 -29t-83 -78v279h-307v-770h309v246z" />
    <glyph glyph-name="i" unicode="i" horiz-adv-x="394" 
d="M197 575q87 0 129 24.5t42 82.5q0 60 -44 84.5t-127 24.5q-84 0 -127.5 -24.5t-43.5 -84.5q0 -59 39 -83t132 -24zM37 0h320v581q-21 -19 -60 -29.5t-101 -10.5q-61 0 -100 10.5t-59 29.5v-581z" />
    <glyph glyph-name="j" unicode="j" horiz-adv-x="391" 
d="M196 575q87 0 127.5 24.5t40.5 82.5q0 60 -42.5 84.5t-125.5 24.5q-84 0 -127 -24.5t-43 -84.5q0 -59 38.5 -83t131.5 -24zM-96 -277h181q88 0 141.5 9.5t81.5 34.5q27 24 36.5 70t9.5 118v626q-21 -19 -58.5 -29.5t-99.5 -10.5q-61 0 -99.5 10.5t-58.5 29.5v-557
q0 -44 -12.5 -58t-49.5 -14h-72v-229z" />
    <glyph glyph-name="k" unicode="k" horiz-adv-x="816" 
d="M500 0h347l-223 365l217 220h-345l-138 -150l-27 -48l10 72v311h-305v-770h305v153l46 51z" />
    <glyph glyph-name="l" unicode="l" horiz-adv-x="385" 
d="M348 0v770h-311v-770h311z" />
    <glyph glyph-name="m" unicode="m" horiz-adv-x="1219" 
d="M345 219q0 53 9 85.5t50 32.5t49 -30t8 -80v-227h304v218q0 36 3 62.5t15 41.5q6 8 16 11.5t24 3.5q41 0 49 -30t8 -80v-227h304v342q0 121 -50.5 188.5t-167.5 67.5q-82 0 -136 -37t-79 -100q-22 67 -72 102t-134 35q-85 0 -139 -37t-77 -100l-31 124h-262v-585h309v219
z" />
    <glyph glyph-name="n" unicode="n" horiz-adv-x="811" 
d="M347 246q0 53 13.5 72.5t47.5 19.5q36 0 48 -19t12 -66v-253h308v350q0 121 -59 184.5t-174 63.5q-88 0 -138 -40t-71 -105l-33 132h-265v-585h311v246z" />
    <glyph glyph-name="o" unicode="o" horiz-adv-x="825" 
d="M412 -19q127 0 215 37.5t135 105.5q23 34 34.5 74.5t11.5 87.5q0 92 -46 162t-134 110q-44 20 -97.5 30t-116.5 10q-126 0 -214.5 -40t-135.5 -110q-24 -35 -35.5 -75.5t-11.5 -86.5q0 -94 40.5 -162.5t127.5 -105.5q43 -18 100 -27.5t127 -9.5zM412 217q-38 0 -59.5 18
t-21.5 52q0 38 21.5 57.5t59.5 19.5q37 0 59.5 -19.5t22.5 -57.5q0 -34 -22 -52t-60 -18z" />
    <glyph glyph-name="p" unicode="p" horiz-adv-x="829" 
d="M416 217q-40 0 -60.5 17.5t-20.5 52.5q0 39 20.5 58t60.5 19q38 0 60 -19.5t22 -57.5q0 -34 -21.5 -52t-60.5 -18zM529 -8q77 0 141 36t103 103q20 33 29.5 72.5t9.5 85.5q0 99 -36.5 167t-100.5 102q-32 18 -68 26.5t-76 8.5q-82 0 -135.5 -31.5t-81.5 -83.5l-21 107
h-257v-783h304v290q22 -46 66.5 -73t122.5 -27z" />
    <glyph glyph-name="q" unicode="q" horiz-adv-x="829" 
d="M793 -198v783h-257l-21 -106q-27 51 -80 82.5t-136 31.5q-80 0 -144 -37t-101 -107q-19 -35 -28 -77t-9 -92q0 -91 36.5 -155.5t99.5 -98.5q32 -17 67.5 -25.5t75.5 -8.5q79 0 125 27t68 72v-289h304zM413 217q-39 0 -60.5 18t-21.5 52q0 38 22 57.5t60 19.5q41 0 61 -19
t20 -58q0 -35 -20 -52.5t-61 -17.5z" />
    <glyph glyph-name="r" unicode="r" horiz-adv-x="621" 
d="M365 0v176q0 42 8.5 65.5t32.5 33.5q12 5 29.5 7.5t40.5 2.5h126v312h-54q-97 0 -148.5 -42.5t-62.5 -146.5l-42 177h-259v-585h329z" />
    <glyph glyph-name="s" unicode="s" horiz-adv-x="775" 
d="M384 -19q141 0 225.5 28t121.5 78q18 25 27.5 54.5t9.5 62.5q0 58 -31.5 94.5t-102.5 55.5q-35 10 -82.5 16.5t-107.5 9.5q-59 3 -100.5 9.5t-41.5 19.5q0 9 11.5 14.5t45.5 5.5q39 0 67 -7.5t39 -27.5h303q-38 107 -133 155.5t-267 48.5q-175 0 -264.5 -55.5
t-89.5 -159.5q0 -61 30.5 -97.5t99.5 -54.5q34 -9 81 -15t105 -10q86 -5 116.5 -11.5t30.5 -17.5q0 -7 -12 -13.5t-44 -6.5q-49 0 -75.5 6.5t-37.5 28.5h-316q15 -82 69.5 -128t137.5 -64q41 -10 87.5 -14.5t97.5 -4.5z" />
    <glyph glyph-name="t" unicode="t" horiz-adv-x="623" 
d="M596 242h-111q-46 0 -59.5 14t-13.5 51v29h185v249h-185v164h-229q-2 -28 -6 -53.5t-13 -48.5q-10 -25 -24 -38.5t-38 -23.5q-18 -7 -38 -10.5t-52 -5.5v-233h110v-46q0 -101 24 -165.5t85 -94.5q30 -15 73 -22.5t99 -7.5h193v242z" />
    <glyph glyph-name="u" unicode="u" horiz-adv-x="799" 
d="M499 0h264v585h-311v-252q0 -49 -12.5 -68t-45.5 -19q-34 0 -44.5 19t-10.5 66v254h-304v-350q0 -121 54.5 -184.5t170.5 -63.5q89 0 138 41.5t68 106.5z" />
    <glyph glyph-name="v" unicode="v" horiz-adv-x="777" 
d="M543 0l268 585h-329l-84 -224l-11 -55l-12 55l-80 224h-329l254 -585h323z" />
    <glyph glyph-name="w" unicode="w" horiz-adv-x="1106" 
d="M629 0h266l233 585h-298l-92 -251l-99 251h-187l-107 -249l-71 249h-300l189 -585h278l100 227z" />
    <glyph glyph-name="x" unicode="x" horiz-adv-x="777" 
d="M473 0h347l-246 299l237 287h-346l-71 -93l-72 93h-345l238 -283l-256 -303h359l77 104z" />
    <glyph glyph-name="y" unicode="y" horiz-adv-x="782" 
d="M224 -233q65 0 109 8t76 33q33 24 63.5 73t69.5 131l274 573h-317l-92 -224l-12 -41l-10 41l-89 224h-330l269 -550q-11 -22 -24.5 -28.5t-48.5 -6.5h-107v-233h169z" />
    <glyph glyph-name="z" unicode="z" horiz-adv-x="746" 
d="M725 0l1 217h-266l264 163v205h-688v-214h273l-289 -183v-188h705z" />
    <glyph glyph-name="braceleft" unicode="{" horiz-adv-x="585" 
d="M570 -160v225h-66q-38 0 -55.5 5t-17.5 23q0 13 11.5 23.5t26.5 21.5q14 12 25.5 29.5t11.5 44.5q0 20 -15 36t-53 25q-20 5 -47 7t-63 2v28q71 0 109.5 9t53.5 27q8 8 11.5 18.5t3.5 21.5q0 26 -13 42t-29 27q-17 10 -30 18.5t-13 20.5q0 17 17 25.5t61 8.5h71v225h-263
q-77 0 -121.5 -15.5t-63.5 -46.5q-10 -15 -14.5 -33.5t-4.5 -40.5q0 -30 13 -51t30 -36q16 -16 29 -30t13 -32q0 -20 -14.5 -31t-53.5 -11h-98v-259h113q39 0 53.5 -12t14.5 -33q0 -16 -15.5 -30.5t-36.5 -30.5t-36.5 -38t-15.5 -55q0 -66 45 -97t158 -31h268z" />
    <glyph glyph-name="bar" unicode="|" horiz-adv-x="412" 
d="M357 -50v826h-302v-826h302z" />
    <glyph glyph-name="braceright" unicode="}" horiz-adv-x="585" 
d="M15 -160h268q113 0 158 31t45 97q0 33 -15.5 55t-36.5 38t-36.5 30.5t-15.5 30.5q0 21 14.5 33t53.5 12h113v259h-98q-39 0 -53.5 11t-14.5 31q0 18 13 32t30 30q16 15 29 36t13 51q0 44 -19 74.5t-63 45.5q-23 8 -53 12t-69 4h-263v-225h71q44 0 61 -8.5t17 -25.5
q0 -12 -13 -20.5t-29 -18.5q-17 -11 -30 -27t-13 -42q0 -23 15 -40.5t53 -26.5q20 -5 47.5 -7t62.5 -2v-28q-71 1 -109.5 -8.5t-53.5 -25.5q-8 -8 -11.5 -17t-3.5 -19q0 -27 11.5 -44.5t26.5 -29.5q14 -11 25.5 -21.5t11.5 -23.5q0 -18 -17.5 -23t-55.5 -5h-66v-225z" />
    <glyph glyph-name="asciitilde" unicode="~" horiz-adv-x="717" 
d="M86 376h160q0 27 6.5 37t22.5 10q27 0 56 -13t65 -26q18 -6 38 -9.5t43 -3.5q88 0 123.5 52.5t35.5 176.5h-160q0 -25 -6.5 -33t-26.5 -8q-19 0 -47.5 12t-66.5 23q-18 6 -39 9t-44 3q-86 0 -123 -54t-37 -176z" />
    <glyph glyph-name="uni00A0" unicode="&#xa0;" horiz-adv-x="239" 
 />
    <glyph glyph-name="exclamdown" unicode="&#xa1;" horiz-adv-x="434" 
d="M220 598q-64 0 -101 -11t-53 -39q-8 -15 -12 -35t-4 -47q0 -52 16.5 -81.5t54.5 -40.5q18 -6 43 -9t56 -3q63 0 100.5 11.5t53.5 40.5q8 15 12 35.5t4 46.5q0 53 -14 81.5t-51 39.5q-18 5 -44.5 8t-60.5 3zM410 -136v57q0 102 -16 178t-37 124q-11 24 -19.5 41t-15.5 26
q-16 -3 -44.5 -5t-62.5 -2t-59 2t-44 5q-14 -18 -35 -67.5t-37 -125.5q-8 -38 -12 -82t-4 -94v-57h386z" />
    <glyph glyph-name="cent" unicode="&#xa2;" horiz-adv-x="812" 
d="M813 266h-330q-6 -21 -24 -34t-53 -13q-46 0 -64.5 21t-18.5 49q0 39 21.5 58t63.5 19q35 0 54 -13.5t23 -40.5h328q-9 106 -73.5 175t-179.5 95v135h-288v-133q-126 -29 -194.5 -108.5t-68.5 -189.5q0 -115 62 -191.5t198 -102.5v-142h288v146q115 26 179.5 95t76.5 175
z" />
    <glyph glyph-name="sterling" unicode="&#xa3;" horiz-adv-x="849" 
d="M616 -19q88 0 137.5 23.5t70.5 80.5q10 29 15 68.5t5 90.5h-285q0 -53 -8.5 -74.5t-48.5 -21.5q-13 0 -31 4t-39 11q5 17 7.5 35t2.5 37v18t-1 16h144v122h-189q-9 16 -15 27.5t-6 23.5q0 20 13 33t39 13q29 0 45 -16.5t20 -40.5h318q-11 88 -54 157t-123 109
q-40 20 -91.5 30t-113.5 10q-115 0 -186.5 -30t-105.5 -80q-16 -24 -24.5 -51t-8.5 -56q0 -41 16.5 -73t42.5 -56h-108v-122h210q12 -14 20 -29.5t9 -30.5q-33 10 -65.5 16.5t-61.5 6.5q-70 0 -110.5 -33t-40.5 -94q0 -55 36 -89.5t129 -34.5q53 0 97.5 17t78.5 46
q58 -24 125 -43.5t135 -19.5zM181 86q-20 0 -27.5 6t-7.5 14q0 9 5.5 13.5t15.5 4.5q11 0 28.5 -6.5t40.5 -17.5q-12 -7 -26 -10.5t-29 -3.5z" />
    <glyph glyph-name="currency" unicode="&#xa4;" horiz-adv-x="842" 
d="M422 268q-44 0 -68 20t-24 61v4q0 43 24 65t68 22q46 0 68.5 -21.5t22.5 -65.5v-4q0 -40 -22.5 -60.5t-68.5 -20.5zM422 99q36 0 67.5 6t59.5 18l99 -97l126 137l-97 91q8 22 12 46t4 51q0 29 -5 55.5t-14 49.5l103 101l-132 130l-103 -101q-26 11 -56 16.5t-64 5.5
t-64 -5t-56 -16l-105 102l-125 -139l97 -94q-9 -22 -13.5 -48t-4.5 -56q0 -29 4.5 -54.5t13.5 -48.5l-101 -100l135 -130l101 99q26 -9 55.5 -14t62.5 -5z" />
    <glyph glyph-name="yen" unicode="&#xa5;" horiz-adv-x="813" 
d="M759 83v120h-196v36h196v119h-180l261 362h-332l-102 -153l-100 153h-334l253 -362h-172v-119h190v-36h-190v-120h190v-83h320v83h196z" />
    <glyph glyph-name="brokenbar" unicode="&#xa6;" horiz-adv-x="412" 
d="M55 423h302v353h-302v-353zM55 327v-377h302v377h-302z" />
    <glyph glyph-name="section" unicode="&#xa7;" horiz-adv-x="906" 
d="M584 306q-98 9 -157.5 15t-85.5 14q-13 4 -19.5 10t-6.5 14q0 10 5.5 16.5t15.5 9.5h1q99 -9 158 -15t85 -14q13 -4 19.5 -10t6.5 -14q0 -10 -5 -16.5t-16 -9.5h-1zM458 -172q135 0 219 35.5t123 95.5q19 29 29 62t10 68q0 61 -23 101.5t-61 65.5q68 10 109 45.5t41 96.5
q0 60 -31.5 96t-98.5 55q-34 10 -78 17t-98 11q-74 6 -119 10.5t-68 9.5q-23 4 -31 9t-8 12q0 13 16.5 19.5t49.5 6.5q42 0 69.5 -9.5t31.5 -27.5h301q-31 118 -127.5 175t-250.5 57q-134 0 -216 -32.5t-118 -88.5q-19 -28 -28 -59.5t-9 -67.5q0 -52 25.5 -91.5t68.5 -66.5
q-76 -7 -123 -46t-47 -104q0 -60 30 -97t97 -57q33 -10 77 -17.5t98 -12.5q74 -6 119.5 -10.5t69.5 -7.5q24 -4 32.5 -8t8.5 -11q0 -13 -16.5 -19.5t-49.5 -6.5q-38 0 -65 8t-38 27h-325q15 -83 70 -136.5t141 -80.5q43 -13 91.5 -19.5t101.5 -6.5z" />
    <glyph glyph-name="dieresis" unicode="&#xa8;" 
d="M171 661q65 0 89.5 22.5t24.5 83.5q0 65 -26 87t-88 22t-87 -22t-25 -87q0 -42 9 -65t33 -32q12 -4 29.5 -6.5t40.5 -2.5zM432 661q65 0 89.5 22.5t24.5 83.5q0 65 -25.5 87t-88.5 22q-64 0 -88 -22t-24 -87q0 -42 9.5 -65t33.5 -32q12 -4 29.5 -6.5t39.5 -2.5z" />
    <glyph glyph-name="copyright" unicode="&#xa9;" horiz-adv-x="912" 
d="M456 -19q136 0 233.5 41t150.5 124q27 42 40 95t13 117q0 119 -54 204.5t-151 130.5q-48 23 -104.5 34.5t-121.5 11.5q-133 0 -233 -45.5t-155 -131.5q-27 -42 -41 -93t-14 -111q0 -192 115 -284.5t322 -92.5zM456 129q-126 0 -196 56.5t-70 173.5q0 73 33.5 124.5
t94.5 79.5q30 14 65.5 21t76.5 7q79 0 137.5 -28t91.5 -80q17 -26 25 -57t8 -67q0 -117 -71 -173.5t-195 -56.5zM689 341h-188q-2 -14 -13.5 -21t-31.5 -7q-24 0 -36 11.5t-12 34.5q0 26 12 38.5t36 12.5q20 0 32.5 -7.5t13.5 -24.5h187q-4 85 -65 135t-167 50
q-112 0 -171.5 -57t-59.5 -147q0 -93 53 -147t177 -54q110 0 170.5 49t62.5 134z" />
    <glyph glyph-name="ordfeminine" unicode="&#xaa;" horiz-adv-x="614" 
d="M280 437q-12 0 -18 4t-6 12q0 5 2.5 9t7.5 7q4 2 13 5.5t29 7.5q22 5 37 10t24 12v-6q0 -17 -13.5 -31t-34.5 -22q-10 -4 -20.5 -6t-20.5 -2zM390 327h208v228q0 95 -63.5 141t-212.5 46q-142 0 -217 -40.5t-84 -122.5h244q0 11 15 19.5t48 8.5q26 0 33.5 -4.5t7.5 -11.5
t-9 -11.5t-35 -7.5q-13 -2 -32 -4t-45 -4q-57 -7 -101.5 -14.5t-73.5 -21.5q-32 -16 -48.5 -41.5t-16.5 -60.5q0 -55 43 -83.5t134 -28.5q71 0 116.5 22.5t67.5 57.5z" />
    <glyph glyph-name="guillemotleft" unicode="&#xab;" horiz-adv-x="857" 
d="M468 65l-194 227l192 243h-248l-188 -234v-25l187 -211h251zM825 65l-200 235l187 235h-245l-180 -231v-27l191 -212h247z" />
    <glyph glyph-name="logicalnot" unicode="&#xac;" horiz-adv-x="757" 
d="M716 30v538h-694v-273h399v-265h295z" />
    <glyph glyph-name="uni00AD" unicode="&#xad;" horiz-adv-x="628" 
d="M598 434h-568v-283h568v283z" />
    <glyph glyph-name="registered" unicode="&#xae;" horiz-adv-x="530" 
d="M268 257q63 0 112.5 25t78.5 73q15 25 22 55t7 65v28q0 72 -29 121.5t-79 75.5q-25 13 -54 19.5t-61 6.5q-65 0 -115.5 -26.5t-78.5 -76.5q-15 -25 -22 -56t-7 -67v-25q0 -111 63 -164.5t163 -53.5zM268 333q-73 0 -110 34.5t-37 113.5v13q0 80 37 120.5t107 40.5
q71 0 108 -39.5t37 -117.5v-17q0 -79 -35.5 -113.5t-106.5 -34.5zM261 552q23 0 31 -5t8 -19q0 -15 -8 -20.5t-31 -5.5h-15v50h15zM259 442q21 0 26 -6t5 -27v-24q0 -4 1 -8.5t3 -6.5h74q-2 2 -3.5 5.5t-1.5 8.5v30q0 22 -6 36.5t-18 22.5q17 10 25 25t8 35q0 42 -22.5 62
t-74.5 20h-101v-245h72v72h13z" />
    <glyph glyph-name="macron" unicode="&#xaf;" 
d="M114 678h373v170h-373v-170z" />
    <glyph glyph-name="degree" unicode="&#xb0;" horiz-adv-x="440" 
d="M219 400q108 0 165.5 44.5t57.5 119.5q0 74 -57 120.5t-164 46.5q-108 0 -165.5 -46.5t-57.5 -120.5q0 -76 51.5 -120t169.5 -44zM219 526q-22 0 -33.5 9.5t-11.5 28.5q0 21 11.5 31t33.5 10q23 0 34.5 -10t11.5 -31q0 -19 -11.5 -28.5t-34.5 -9.5z" />
    <glyph glyph-name="plusminus" unicode="&#xb1;" horiz-adv-x="763" 
d="M631 391v259h-121v116h-257v-116h-122v-259h122v-118h257v118h121zM631 -49v264h-500v-264h500z" />
    <glyph glyph-name="twosuperior" unicode="&#xb2;" horiz-adv-x="437" 
d="M18 360zM409 360v127h-235q17 8 46.5 12.5t63.5 9.5q33 5 63 15.5t49 30.5q9 11 14 24.5t5 31.5q0 54 -46 85.5t-144 31.5q-97 0 -148.5 -35t-56.5 -110h167q1 9 9.5 14.5t30.5 5.5q20 0 26.5 -3t6.5 -8q0 -7 -17.5 -9t-45.5 -4q-27 -2 -58 -7.5t-58 -17.5
q-28 -12 -45.5 -35t-17.5 -61v-98h391z" />
    <glyph glyph-name="threesuperior" unicode="&#xb3;" horiz-adv-x="425" 
d="M2 350zM209 350q106 0 156 31.5t50 86.5q0 38 -23 55t-60 23q38 8 57 26.5t19 47.5q0 46 -43.5 75.5t-143.5 29.5t-154.5 -30.5t-57.5 -109.5h159q1 7 8 10.5t29 3.5q20 0 26.5 -3t6.5 -8q0 -4 -5.5 -7.5t-24.5 -3.5h-31v-75h32q23 0 29.5 -2.5t6.5 -7.5q0 -6 -8 -9.5
t-30 -3.5q-23 0 -29.5 3t-8.5 11h-167q1 -46 17.5 -78t60.5 -48q22 -9 54.5 -13t74.5 -4z" />
    <glyph glyph-name="acute" unicode="&#xb4;" 
d="M102 653h200l204 218h-265z" />
    <glyph glyph-name="paragraph" unicode="&#xb6;" horiz-adv-x="1043" 
d="M388 376q-32 0 -53.5 11.5t-21.5 34.5q0 22 21.5 33.5t55.5 11.5h23v-91h-25zM674 0v467h66v-467h261v720h-619q-132 0 -215.5 -36.5t-123.5 -103.5q-19 -33 -29 -72t-10 -84q0 -93 38.5 -160.5t121.5 -103.5q41 -18 94.5 -27.5t119.5 -9.5h35v-123h261z" />
    <glyph glyph-name="periodcentered" unicode="&#xb7;" horiz-adv-x="424" 
d="M212 140q64 0 101 11.5t53 43.5q8 16 12 39t4 54q0 62 -16.5 94t-54.5 44q-18 5 -43 8t-56 3q-63 0 -100 -11.5t-54 -43.5q-8 -16 -12 -39.5t-4 -54.5q0 -62 14 -94t51 -43q18 -6 44.5 -8.5t60.5 -2.5z" />
    <glyph glyph-name="cedilla" unicode="&#xb8;" 
d="M323 -328q118 0 180.5 47t62.5 123t-43 103.5t-126 30.5v39h-175v-145h116q28 0 38 -6t10 -21t-12.5 -24t-41.5 -9t-43 7t-22 27h-206q24 -92 90.5 -132t171.5 -40z" />
    <glyph glyph-name="onesuperior" unicode="&#xb9;" horiz-adv-x="372" 
d="M21 360zM346 360v144h-77v216h-133q-11 -32 -36 -47.5t-58 -17.5v-112h66v-39h-87v-144h325z" />
    <glyph glyph-name="ordmasculine" unicode="&#xba;" horiz-adv-x="573" 
d="M287 320q138 0 211 56.5t73 152.5q0 94 -72.5 153.5t-209.5 59.5q-91 0 -154.5 -27t-96.5 -75q-17 -24 -25 -52t-8 -59q0 -97 65.5 -153t216.5 -56zM287 481q-29 0 -43.5 12t-14.5 36q0 27 14.5 40t43.5 13q28 0 43.5 -13.5t15.5 -39.5q0 -24 -14.5 -36t-44.5 -12z" />
    <glyph glyph-name="guillemotright" unicode="&#xbb;" horiz-adv-x="857" 
d="M624 65l187 211v25l-187 234h-249l191 -242l-193 -228h251zM264 65l190 212v27l-179 231h-245l186 -234l-200 -236h248z" />
    <glyph glyph-name="onequarter" unicode="&#xbc;" horiz-adv-x="1130" 
d="M125 0zM688 397l396 212l-191 173l-256 -338zM527 352l-402 -230l193 -180l259 363zM458 354v144h-77v216h-133q-11 -32 -36 -47.5t-58 -17.5v-112h66v-39h-87v-144h325zM1002 51v120h-57v189h-135l-221 -205v-104h209v-51h147v51h57zM798 171h-51l51 50v-50z" />
    <glyph glyph-name="onehalf" unicode="&#xbd;" horiz-adv-x="1130" 
d="M125 0zM688 397l396 212l-191 173l-256 -338zM527 352l-402 -230l193 -180l259 363zM458 354v144h-77v216h-133q-11 -32 -36 -47.5t-58 -17.5v-112h66v-39h-87v-144h325zM1026 0v127h-235q17 8 46.5 12.5t63.5 9.5q33 5 63 15.5t49 30.5q9 11 14 24.5t5 31.5
q0 54 -46 85.5t-144 31.5q-97 0 -148.5 -35t-56.5 -110h167q1 9 9.5 14.5t30.5 5.5q20 0 26.5 -3t6.5 -8q0 -7 -17.5 -9t-45.5 -4q-27 -2 -58 -7.5t-58 -17.5q-28 -12 -45.5 -35t-17.5 -61v-98h391z" />
    <glyph glyph-name="threequarters" unicode="&#xbe;" horiz-adv-x="1130" 
d="M66 0zM688 397l396 212l-191 173l-256 -338zM527 352l-402 -230l193 -180l259 363zM273 344q106 0 156 31.5t50 86.5q0 38 -23 55t-60 23q38 8 57 26.5t19 47.5q0 46 -43.5 75.5t-143.5 29.5t-154.5 -30.5t-57.5 -109.5h159q1 7 8 10.5t29 3.5q20 0 26.5 -3t6.5 -8
q0 -4 -5.5 -7.5t-24.5 -3.5h-31v-75h32q23 0 29.5 -2.5t6.5 -7.5q0 -6 -8 -9.5t-30 -3.5q-23 0 -29.5 3t-8.5 11h-167q1 -46 17.5 -78t60.5 -48q22 -9 54.5 -13t74.5 -4zM1002 51v120h-57v189h-135l-221 -205v-104h209v-51h147v51h57zM798 171h-51l51 50v-50z" />
    <glyph glyph-name="questiondown" unicode="&#xbf;" horiz-adv-x="816" 
d="M300 346q-4 -22 -16.5 -36t-38.5 -24q-13 -5 -31.5 -10.5t-41.5 -11.5q-79 -21 -117.5 -62.5t-38.5 -115.5q0 -119 95 -179.5t294 -60.5q201 0 302.5 69.5t116.5 225.5h-317q-2 -16 -11.5 -27.5t-31.5 -17.5q-11 -3 -27.5 -4.5t-37.5 -1.5q-48 0 -60.5 5.5t-12.5 13.5
q0 6 7 11t29 10q11 2 28 5t39 6q82 11 118.5 41t36.5 100q0 15 -3 32t-8 31q-19 -7 -50.5 -11.5t-84.5 -4.5q-54 0 -86 4t-52 13zM438 597q-73 0 -114.5 -9.5t-58.5 -34.5q-8 -13 -12.5 -31t-4.5 -41q0 -45 18 -70.5t59 -36.5q21 -5 49.5 -7.5t63.5 -2.5q71 0 112 10.5
t59 35.5q8 13 12.5 30.5t4.5 40.5q0 46 -15 71t-55 35q-21 5 -50 7.5t-68 2.5z" />
    <glyph glyph-name="Agrave" unicode="&#xc0;" horiz-adv-x="871" 
d="M0 0zM431 432l7 33l7 -34l44 -137h-103zM583 0h323l-280 720h-372l-288 -720h324l29 90h235zM349 758h185l-111 218h-266z" />
    <glyph glyph-name="Aacute" unicode="&#xc1;" horiz-adv-x="871" 
d="M0 0zM431 432l7 33l7 -34l44 -137h-103zM583 0h323l-280 720h-372l-288 -720h324l29 90h235zM329 758h200l204 218h-265z" />
    <glyph glyph-name="Acircumflex" unicode="&#xc2;" horiz-adv-x="871" 
d="M0 0zM431 432l7 33l7 -34l44 -137h-103zM583 0h323l-280 720h-372l-288 -720h324l29 90h235zM486 758h194l-153 246h-176l-153 -246h189l51 100z" />
    <glyph glyph-name="Atilde" unicode="&#xc3;" horiz-adv-x="871" 
d="M0 0zM431 432l7 33l7 -34l44 -137h-103zM583 0h323l-280 720h-372l-288 -720h324l29 90h235zM164 762h161q0 27 6 37t23 10q26 0 55 -13t65 -26q18 -6 38.5 -9.5t43.5 -3.5q87 0 123 52.5t36 176.5h-160q0 -25 -7 -33t-26 -8q-20 0 -48.5 12t-65.5 23q-18 6 -39 9t-44 3
q-87 0 -124 -54t-37 -176z" />
    <glyph glyph-name="Adieresis" unicode="&#xc4;" horiz-adv-x="871" 
d="M0 0zM431 432l7 33l7 -34l44 -137h-103zM583 0h323l-280 720h-372l-288 -720h324l29 90h235zM305 756q65 0 89.5 22.5t24.5 83.5q0 65 -26 87t-88 22t-87 -22t-25 -87q0 -42 9 -65t33 -32q12 -4 29.5 -6.5t40.5 -2.5zM566 756q65 0 89.5 22.5t24.5 83.5q0 65 -25.5 87
t-88.5 22q-64 0 -88 -22t-24 -87q0 -42 9.5 -65t33.5 -32q12 -4 29.5 -6.5t39.5 -2.5z" />
    <glyph glyph-name="Aring" unicode="&#xc5;" horiz-adv-x="871" 
d="M0 0zM431 432l7 33l7 -34l44 -137h-103zM583 0h323l-280 720h-372l-288 -720h324l29 90h235zM436 755q98 0 153.5 45t55.5 124q0 80 -57.5 125.5t-149.5 45.5q-58 0 -104.5 -19.5t-74.5 -58.5q-13 -19 -20 -43t-7 -53q0 -82 55 -124t149 -42zM439 891q-21 0 -29.5 10
t-8.5 24t8.5 23.5t29.5 9.5q22 0 30 -9.5t8 -23.5t-8 -24t-30 -10z" />
    <glyph glyph-name="AE" unicode="&#xc6;" horiz-adv-x="1228" 
d="M510 432l12 33l2 -34l30 -137h-114zM618 0h586v242h-340l-15 53h328v144h-367l-14 49h399v232h-828l-407 -720h332l45 90h261z" />
    <glyph glyph-name="Ccedilla" unicode="&#xc7;" horiz-adv-x="923" 
d="M477 -347q118 0 180.5 47t62.5 123t-43 103.5t-126 30.5v29q105 11 184.5 51.5t124.5 112.5q23 36 35.5 81t14.5 98h-342q-3 -32 -30.5 -54.5t-77.5 -22.5q-55 0 -85.5 27.5t-30.5 78.5q0 49 31.5 78.5t86.5 29.5q50 0 76.5 -23.5t29.5 -55.5h342q-4 119 -62 197
t-158 117q-49 19 -106 28.5t-122 9.5q-133 0 -233 -46t-155 -132q-27 -43 -41 -94t-14 -111q0 -175 92.5 -265t264.5 -106v-134h116q28 0 38 -6t10 -21t-12.5 -24t-41.5 -9t-43 7t-22 27h-206q24 -92 90.5 -132t171.5 -40z" />
    <glyph glyph-name="Egrave" unicode="&#xc8;" horiz-adv-x="778" 
d="M42 0zM754 242h-414v53h387v144h-387v49h405v232h-703v-720h712v242zM312 758h185l-111 218h-266z" />
    <glyph glyph-name="Eacute" unicode="&#xc9;" horiz-adv-x="778" 
d="M42 0zM754 242h-414v53h387v144h-387v49h405v232h-703v-720h712v242zM292 758h200l204 218h-265z" />
    <glyph glyph-name="Ecircumflex" unicode="&#xca;" horiz-adv-x="778" 
d="M42 0zM754 242h-414v53h387v144h-387v49h405v232h-703v-720h712v242zM449 758h194l-153 246h-176l-153 -246h189l51 100z" />
    <glyph glyph-name="Edieresis" unicode="&#xcb;" horiz-adv-x="778" 
d="M42 0zM754 242h-414v53h387v144h-387v49h405v232h-703v-720h712v242zM268 756q65 0 89.5 22.5t24.5 83.5q0 65 -26 87t-88 22t-87 -22t-25 -87q0 -42 9 -65t33 -32q12 -4 29.5 -6.5t40.5 -2.5zM529 756q65 0 89.5 22.5t24.5 83.5q0 65 -25.5 87t-88.5 22q-64 0 -88 -22
t-24 -87q0 -42 9.5 -65t33.5 -32q12 -4 29.5 -6.5t39.5 -2.5z" />
    <glyph glyph-name="Igrave" unicode="&#xcc;" horiz-adv-x="691" 
d="M30 0zM661 0v278h-164v163h164v279h-631v-279h162v-163h-162v-278h631zM259 758h185l-111 218h-266z" />
    <glyph glyph-name="Iacute" unicode="&#xcd;" horiz-adv-x="691" 
d="M30 0zM661 0v278h-164v163h164v279h-631v-279h162v-163h-162v-278h631zM239 758h200l204 218h-265z" />
    <glyph glyph-name="Icircumflex" unicode="&#xce;" horiz-adv-x="691" 
d="M30 0zM661 0v278h-164v163h164v279h-631v-279h162v-163h-162v-278h631zM396 758h194l-153 246h-176l-153 -246h189l51 100z" />
    <glyph glyph-name="Idieresis" unicode="&#xcf;" horiz-adv-x="691" 
d="M30 0zM661 0v278h-164v163h164v279h-631v-279h162v-163h-162v-278h631zM215 756q65 0 89.5 22.5t24.5 83.5q0 65 -26 87t-88 22t-87 -22t-25 -87q0 -42 9 -65t33 -32q12 -4 29.5 -6.5t40.5 -2.5zM476 756q65 0 89.5 22.5t24.5 83.5q0 65 -25.5 87t-88.5 22q-64 0 -88 -22
t-24 -87q0 -42 9.5 -65t33.5 -32q12 -4 29.5 -6.5t39.5 -2.5z" />
    <glyph glyph-name="Eth" unicode="&#xd0;" horiz-adv-x="901" 
d="M460 0q126 0 221 40.5t148 120.5q27 40 40 90t13 109q0 119 -52 199t-148 120q-47 21 -103 31t-121 10h-397v-280h-63v-154h63v-286h399zM469 286v154h-96v42h67q65 0 91 -28.5t26 -92.5q0 -55 -26 -87t-91 -32h-67v44h96z" />
    <glyph glyph-name="Ntilde" unicode="&#xd1;" horiz-adv-x="934" 
d="M42 0zM602 0h290v720h-301v-320l-250 320h-299v-720h302v335zM211 753h161q0 27 6 37t23 10q26 0 55 -13t65 -26q18 -6 38.5 -9.5t43.5 -3.5q87 0 123 52.5t36 176.5h-160q0 -25 -7 -33t-26 -8q-20 0 -48.5 12t-65.5 23q-18 6 -39 9t-44 3q-87 0 -124 -54t-37 -176z" />
    <glyph glyph-name="Ograve" unicode="&#xd2;" horiz-adv-x="912" 
d="M19 0zM456 -19q136 0 233.5 41t150.5 124q27 42 40 95t13 117q0 119 -54 204.5t-151 130.5q-48 23 -104.5 34.5t-121.5 11.5q-133 0 -233 -45.5t-155 -131.5q-27 -42 -41 -93t-14 -111q0 -192 115 -284.5t322 -92.5zM456 252q-51 0 -81.5 27.5t-30.5 78.5q0 49 30.5 78.5
t81.5 29.5t81.5 -29.5t30.5 -78.5q0 -51 -30.5 -78.5t-81.5 -27.5zM374 777h185l-111 218h-266z" />
    <glyph glyph-name="Oacute" unicode="&#xd3;" horiz-adv-x="912" 
d="M19 0zM456 -19q136 0 233.5 41t150.5 124q27 42 40 95t13 117q0 119 -54 204.5t-151 130.5q-48 23 -104.5 34.5t-121.5 11.5q-133 0 -233 -45.5t-155 -131.5q-27 -42 -41 -93t-14 -111q0 -192 115 -284.5t322 -92.5zM456 252q-51 0 -81.5 27.5t-30.5 78.5q0 49 30.5 78.5
t81.5 29.5t81.5 -29.5t30.5 -78.5q0 -51 -30.5 -78.5t-81.5 -27.5zM365 779h200l204 218h-265z" />
    <glyph glyph-name="Ocircumflex" unicode="&#xd4;" horiz-adv-x="912" 
d="M19 0zM456 -19q136 0 233.5 41t150.5 124q27 42 40 95t13 117q0 119 -54 204.5t-151 130.5q-48 23 -104.5 34.5t-121.5 11.5q-133 0 -233 -45.5t-155 -131.5q-27 -42 -41 -93t-14 -111q0 -192 115 -284.5t322 -92.5zM456 252q-51 0 -81.5 27.5t-30.5 78.5q0 49 30.5 78.5
t81.5 29.5t81.5 -29.5t30.5 -78.5q0 -51 -30.5 -78.5t-81.5 -27.5zM511 777h194l-153 246h-176l-153 -246h189l51 100z" />
    <glyph glyph-name="Otilde" unicode="&#xd5;" horiz-adv-x="912" 
d="M19 0zM456 -19q136 0 233.5 41t150.5 124q27 42 40 95t13 117q0 119 -54 204.5t-151 130.5q-48 23 -104.5 34.5t-121.5 11.5q-133 0 -233 -45.5t-155 -131.5q-27 -42 -41 -93t-14 -111q0 -192 115 -284.5t322 -92.5zM456 252q-51 0 -81.5 27.5t-30.5 78.5q0 49 30.5 78.5
t81.5 29.5t81.5 -29.5t30.5 -78.5q0 -51 -30.5 -78.5t-81.5 -27.5zM189 781h161q0 27 6 37t23 10q26 0 55 -13t65 -26q18 -6 38.5 -9.5t43.5 -3.5q87 0 123 52.5t36 176.5h-160q0 -25 -7 -33t-26 -8q-20 0 -48.5 12t-65.5 23q-18 6 -39 9t-44 3q-87 0 -124 -54t-37 -176z
" />
    <glyph glyph-name="Odieresis" unicode="&#xd6;" horiz-adv-x="912" 
d="M19 0zM456 -19q136 0 233.5 41t150.5 124q27 42 40 95t13 117q0 119 -54 204.5t-151 130.5q-48 23 -104.5 34.5t-121.5 11.5q-133 0 -233 -45.5t-155 -131.5q-27 -42 -41 -93t-14 -111q0 -192 115 -284.5t322 -92.5zM456 252q-51 0 -81.5 27.5t-30.5 78.5q0 49 30.5 78.5
t81.5 29.5t81.5 -29.5t30.5 -78.5q0 -51 -30.5 -78.5t-81.5 -27.5zM328 764q65 0 89.5 22.5t24.5 83.5q0 65 -26 87t-88 22t-87 -22t-25 -87q0 -42 9 -65t33 -32q12 -4 29.5 -6.5t40.5 -2.5zM589 764q65 0 89.5 22.5t24.5 83.5q0 65 -25.5 87t-88.5 22q-64 0 -88 -22
t-24 -87q0 -42 9.5 -65t33.5 -32q12 -4 29.5 -6.5t39.5 -2.5z" />
    <glyph glyph-name="multiply" unicode="&#xd7;" horiz-adv-x="763" 
d="M532 56l171 177l-147 145l140 139l-170 173l-143 -142l-146 144l-170 -177l142 -140l-148 -148l170 -174l151 151z" />
    <glyph glyph-name="Oslash" unicode="&#xd8;" horiz-adv-x="912" 
d="M410 -135l47 116q135 0 233 41t150 124q27 42 40 95t13 117q0 86 -29.5 155t-82.5 118l87 205h-333l-39 -98q-8 1 -17 1h-17q-133 0 -233 -45.5t-155 -131.5q-27 -42 -41 -93t-14 -111q0 -102 33.5 -175.5t96.5 -120.5l-86 -197h347zM456 252q-51 0 -81.5 27.5
t-30.5 78.5q0 49 30.5 78.5t81.5 29.5t81.5 -29.5t30.5 -78.5q0 -51 -30.5 -78.5t-81.5 -27.5z" />
    <glyph glyph-name="Ugrave" unicode="&#xd9;" horiz-adv-x="878" 
d="M35 0zM438 -19q197 0 301 91.5t104 296.5v351h-325v-351q0 -58 -20 -81.5t-58 -23.5q-40 0 -60 23.5t-20 81.5v351h-325v-351q0 -133 38.5 -219t126.5 -128q44 -20 103.5 -30.5t134.5 -10.5zM352 758h185l-111 218h-266z" />
    <glyph glyph-name="Uacute" unicode="&#xda;" horiz-adv-x="878" 
d="M35 0zM438 -19q197 0 301 91.5t104 296.5v351h-325v-351q0 -58 -20 -81.5t-58 -23.5q-40 0 -60 23.5t-20 81.5v351h-325v-351q0 -133 38.5 -219t126.5 -128q44 -20 103.5 -30.5t134.5 -10.5zM332 758h200l204 218h-265z" />
    <glyph glyph-name="Ucircumflex" unicode="&#xdb;" horiz-adv-x="878" 
d="M35 0zM438 -19q197 0 301 91.5t104 296.5v351h-325v-351q0 -58 -20 -81.5t-58 -23.5q-40 0 -60 23.5t-20 81.5v351h-325v-351q0 -133 38.5 -219t126.5 -128q44 -20 103.5 -30.5t134.5 -10.5zM489 758h194l-153 246h-176l-153 -246h189l51 100z" />
    <glyph glyph-name="Udieresis" unicode="&#xdc;" horiz-adv-x="878" 
d="M35 0zM438 -19q197 0 301 91.5t104 296.5v351h-325v-351q0 -58 -20 -81.5t-58 -23.5q-40 0 -60 23.5t-20 81.5v351h-325v-351q0 -133 38.5 -219t126.5 -128q44 -20 103.5 -30.5t134.5 -10.5zM308 756q65 0 89.5 22.5t24.5 83.5q0 65 -26 87t-88 22t-87 -22t-25 -87
q0 -42 9 -65t33 -32q12 -4 29.5 -6.5t40.5 -2.5zM569 756q65 0 89.5 22.5t24.5 83.5q0 65 -25.5 87t-88.5 22q-64 0 -88 -22t-24 -87q0 -42 9.5 -65t33.5 -32q12 -4 29.5 -6.5t39.5 -2.5z" />
    <glyph glyph-name="Yacute" unicode="&#xdd;" horiz-adv-x="763" 
d="M0 0zM538 0v281l278 439h-332l-102 -174l-101 174h-334l271 -440v-280h320zM273 758h200l204 218h-265z" />
    <glyph glyph-name="Thorn" unicode="&#xde;" horiz-adv-x="846" 
d="M447 84q197 0 290.5 62.5t93.5 209.5q0 149 -92 218t-294 69h-104v77h-299v-720h299v84h106zM441 400q47 0 65 -9.5t18 -36.5q0 -25 -17.5 -35t-64.5 -10h-101v91h100z" />
    <glyph glyph-name="germandbls" unicode="&#xdf;" horiz-adv-x="853" 
d="M533 -5q115 0 182.5 24.5t97.5 72.5q14 24 21.5 54t7.5 66q0 82 -49.5 125.5t-133.5 58.5q75 19 112.5 62t37.5 111q0 60 -39.5 106.5t-120.5 73.5q-41 13 -93 19.5t-115 6.5q-141 0 -230.5 -25t-131.5 -85q-21 -30 -31.5 -71t-10.5 -93v-501h315v484q0 21 15 34t56 13
q43 0 56.5 -9.5t13.5 -28.5q0 -14 -12.5 -25t-55.5 -11h-17v-141h17q50 0 65 -8.5t15 -30.5q0 -21 -12.5 -32.5t-64.5 -11.5h-20v-231q23 -3 53.5 -5t71.5 -2z" />
    <glyph glyph-name="agrave" unicode="&#xe0;" horiz-adv-x="835" 
d="M13 0zM370 158q-18 0 -26 7t-8 16q0 8 4 13.5t10 9.5t19 8.5t42 10.5q31 8 52.5 15t34.5 17v-9q0 -24 -19.5 -44t-48.5 -32q-15 -6 -30 -9t-30 -3zM529 0h271v329q0 139 -88 204t-280 65q-177 0 -282 -58t-118 -177h317q0 16 21.5 28t68.5 12q37 0 48 -6t11 -17
q0 -10 -12.5 -16t-49.5 -11q-19 -2 -47 -5t-65 -7q-54 -6 -93 -12t-68 -15q-15 -4 -29.5 -9.5t-28.5 -12.5q-46 -22 -69 -59.5t-23 -90.5q0 -78 53 -119.5t168 -41.5q102 0 167.5 31.5t96.5 83.5zM345 636h185l-111 218h-266z" />
    <glyph glyph-name="aacute" unicode="&#xe1;" horiz-adv-x="835" 
d="M13 0zM370 158q-18 0 -26 7t-8 16q0 8 4 13.5t10 9.5t19 8.5t42 10.5q31 8 52.5 15t34.5 17v-9q0 -24 -19.5 -44t-48.5 -32q-15 -6 -30 -9t-30 -3zM529 0h271v329q0 139 -88 204t-280 65q-177 0 -282 -58t-118 -177h317q0 16 21.5 28t68.5 12q37 0 48 -6t11 -17
q0 -10 -12.5 -16t-49.5 -11q-19 -2 -47 -5t-65 -7q-54 -6 -93 -12t-68 -15q-15 -4 -29.5 -9.5t-28.5 -12.5q-46 -22 -69 -59.5t-23 -90.5q0 -78 53 -119.5t168 -41.5q102 0 167.5 31.5t96.5 83.5zM325 636h200l204 218h-265z" />
    <glyph glyph-name="acircumflex" unicode="&#xe2;" horiz-adv-x="835" 
d="M13 0zM370 158q-18 0 -26 7t-8 16q0 8 4 13.5t10 9.5t19 8.5t42 10.5q31 8 52.5 15t34.5 17v-9q0 -24 -19.5 -44t-48.5 -32q-15 -6 -30 -9t-30 -3zM529 0h271v329q0 139 -88 204t-280 65q-177 0 -282 -58t-118 -177h317q0 16 21.5 28t68.5 12q37 0 48 -6t11 -17
q0 -10 -12.5 -16t-49.5 -11q-19 -2 -47 -5t-65 -7q-54 -6 -93 -12t-68 -15q-15 -4 -29.5 -9.5t-28.5 -12.5q-46 -22 -69 -59.5t-23 -90.5q0 -78 53 -119.5t168 -41.5q102 0 167.5 31.5t96.5 83.5zM482 636h194l-153 246h-176l-153 -246h189l51 100z" />
    <glyph glyph-name="atilde" unicode="&#xe3;" horiz-adv-x="835" 
d="M13 0zM370 158q-18 0 -26 7t-8 16q0 8 4 13.5t10 9.5t19 8.5t42 10.5q31 8 52.5 15t34.5 17v-9q0 -24 -19.5 -44t-48.5 -32q-15 -6 -30 -9t-30 -3zM529 0h271v329q0 139 -88 204t-280 65q-177 0 -282 -58t-118 -177h317q0 16 21.5 28t68.5 12q37 0 48 -6t11 -17
q0 -10 -12.5 -16t-49.5 -11q-19 -2 -47 -5t-65 -7q-54 -6 -93 -12t-68 -15q-15 -4 -29.5 -9.5t-28.5 -12.5q-46 -22 -69 -59.5t-23 -90.5q0 -78 53 -119.5t168 -41.5q102 0 167.5 31.5t96.5 83.5zM160 640h161q0 27 6 37t23 10q26 0 55 -13t65 -26q18 -6 38.5 -9.5
t43.5 -3.5q87 0 123 52.5t36 176.5h-160q0 -25 -7 -33t-26 -8q-20 0 -48.5 12t-65.5 23q-18 6 -39 9t-44 3q-87 0 -124 -54t-37 -176z" />
    <glyph glyph-name="adieresis" unicode="&#xe4;" horiz-adv-x="835" 
d="M13 0zM370 158q-18 0 -26 7t-8 16q0 8 4 13.5t10 9.5t19 8.5t42 10.5q31 8 52.5 15t34.5 17v-9q0 -24 -19.5 -44t-48.5 -32q-15 -6 -30 -9t-30 -3zM529 0h271v329q0 139 -88 204t-280 65q-177 0 -282 -58t-118 -177h317q0 16 21.5 28t68.5 12q37 0 48 -6t11 -17
q0 -10 -12.5 -16t-49.5 -11q-19 -2 -47 -5t-65 -7q-54 -6 -93 -12t-68 -15q-15 -4 -29.5 -9.5t-28.5 -12.5q-46 -22 -69 -59.5t-23 -90.5q0 -78 53 -119.5t168 -41.5q102 0 167.5 31.5t96.5 83.5zM303 625q65 0 89.5 22.5t24.5 83.5q0 65 -26 87t-88 22t-87 -22t-25 -87
q0 -42 9 -65t33 -32q12 -4 29.5 -6.5t40.5 -2.5zM564 625q65 0 89.5 22.5t24.5 83.5q0 65 -25.5 87t-88.5 22q-64 0 -88 -22t-24 -87q0 -42 9.5 -65t33.5 -32q12 -4 29.5 -6.5t39.5 -2.5z" />
    <glyph glyph-name="aring" unicode="&#xe5;" horiz-adv-x="835" 
d="M13 0zM370 158q-18 0 -26 7t-8 16q0 8 4 13.5t10 9.5t19 8.5t42 10.5q31 8 52.5 15t34.5 17v-9q0 -24 -19.5 -44t-48.5 -32q-15 -6 -30 -9t-30 -3zM529 0h271v329q0 139 -88 204t-280 65q-177 0 -282 -58t-118 -177h317q0 16 21.5 28t68.5 12q37 0 48 -6t11 -17
q0 -10 -12.5 -16t-49.5 -11q-19 -2 -47 -5t-65 -7q-54 -6 -93 -12t-68 -15q-15 -4 -29.5 -9.5t-28.5 -12.5q-46 -22 -69 -59.5t-23 -90.5q0 -78 53 -119.5t168 -41.5q102 0 167.5 31.5t96.5 83.5zM434 639q98 0 153.5 45t55.5 124q0 80 -57.5 125.5t-149.5 45.5
q-58 0 -104.5 -19.5t-74.5 -58.5q-13 -19 -20 -43t-7 -53q0 -82 55 -124t149 -42zM437 775q-21 0 -29.5 10t-8.5 24t8.5 23.5t29.5 9.5q22 0 30 -9.5t8 -23.5t-8 -24t-30 -10z" />
    <glyph glyph-name="ae" unicode="&#xe6;" horiz-adv-x="1310" 
d="M1292 198h-327q-7 -10 -20.5 -15.5t-45.5 -5.5q-46 0 -70.5 15t-32.5 44h499v52q0 64 -21 120t-67 99t-120.5 67t-181.5 24q-71 0 -129.5 -10.5t-104.5 -30.5q-42 21 -102 31t-137 10q-177 0 -282 -58t-118 -177h317q0 16 21.5 28t68.5 12q37 0 48 -6t11 -17
q0 -10 -12.5 -16t-49.5 -11q-19 -2 -47 -5t-65 -7q-54 -6 -93 -12t-68 -15q-15 -4 -29.5 -9.5t-28.5 -12.5q-46 -22 -69 -59.5t-23 -90.5q0 -78 53 -119.5t168 -41.5q111 0 186.5 33.5t115.5 91.5q40 -56 122.5 -90.5t224.5 -34.5q188 0 285 54t124 163zM894 396
q40 0 62 -10.5t30 -37.5h-185q10 23 32.5 35.5t60.5 12.5zM370 158q-18 0 -26 7t-8 16q0 8 4 13.5t10 9.5t19 8.5t42 10.5q31 8 52.5 15t34.5 17v-9q0 -24 -19.5 -44t-48.5 -32q-15 -6 -30 -9t-30 -3z" />
    <glyph glyph-name="ccedilla" unicode="&#xe7;" horiz-adv-x="822" 
d="M423 -343q118 0 180.5 47t62.5 123t-43 103.5t-126 30.5v25q150 17 231 90.5t88 189.5h-325q-7 -24 -26.5 -36.5t-52.5 -12.5q-38 0 -59.5 18t-21.5 52q0 38 21.5 57.5t59.5 19.5q33 0 52.5 -13t26.5 -39h325q-6 85 -54.5 149t-136.5 101q-44 18 -96.5 27t-114.5 9
q-126 0 -214.5 -40t-135.5 -110q-24 -35 -35.5 -75.5t-11.5 -86.5q0 -124 72 -203.5t233 -96.5v-131h116q28 0 38 -6t10 -21t-12.5 -24t-41.5 -9t-43 7t-22 27h-206q24 -92 90.5 -132t171.5 -40z" />
    <glyph glyph-name="egrave" unicode="&#xe8;" horiz-adv-x="838" 
d="M17 0zM820 198h-327q-7 -10 -20.5 -15.5t-45.5 -5.5q-46 0 -70.5 15t-32.5 44h499v52q0 64 -21 120t-67 99t-120.5 67t-181.5 24q-143 0 -235.5 -41t-136.5 -114q-22 -37 -33 -79.5t-11 -90.5q0 -60 18.5 -112.5t62.5 -93.5q44 -40 120.5 -63t192.5 -23q188 0 285 54
t124 163zM422 396q40 0 62 -10.5t30 -37.5h-185q10 23 32.5 35.5t60.5 12.5zM345 636h185l-111 218h-266z" />
    <glyph glyph-name="eacute" unicode="&#xe9;" horiz-adv-x="838" 
d="M17 0zM820 198h-327q-7 -10 -20.5 -15.5t-45.5 -5.5q-46 0 -70.5 15t-32.5 44h499v52q0 64 -21 120t-67 99t-120.5 67t-181.5 24q-143 0 -235.5 -41t-136.5 -114q-22 -37 -33 -79.5t-11 -90.5q0 -60 18.5 -112.5t62.5 -93.5q44 -40 120.5 -63t192.5 -23q188 0 285 54
t124 163zM422 396q40 0 62 -10.5t30 -37.5h-185q10 23 32.5 35.5t60.5 12.5zM325 636h200l204 218h-265z" />
    <glyph glyph-name="ecircumflex" unicode="&#xea;" horiz-adv-x="838" 
d="M17 0zM820 198h-327q-7 -10 -20.5 -15.5t-45.5 -5.5q-46 0 -70.5 15t-32.5 44h499v52q0 64 -21 120t-67 99t-120.5 67t-181.5 24q-143 0 -235.5 -41t-136.5 -114q-22 -37 -33 -79.5t-11 -90.5q0 -60 18.5 -112.5t62.5 -93.5q44 -40 120.5 -63t192.5 -23q188 0 285 54
t124 163zM422 396q40 0 62 -10.5t30 -37.5h-185q10 23 32.5 35.5t60.5 12.5zM482 636h194l-153 246h-176l-153 -246h189l51 100z" />
    <glyph glyph-name="edieresis" unicode="&#xeb;" horiz-adv-x="838" 
d="M17 0zM820 198h-327q-7 -10 -20.5 -15.5t-45.5 -5.5q-46 0 -70.5 15t-32.5 44h499v52q0 64 -21 120t-67 99t-120.5 67t-181.5 24q-143 0 -235.5 -41t-136.5 -114q-22 -37 -33 -79.5t-11 -90.5q0 -60 18.5 -112.5t62.5 -93.5q44 -40 120.5 -63t192.5 -23q188 0 285 54
t124 163zM422 396q40 0 62 -10.5t30 -37.5h-185q10 23 32.5 35.5t60.5 12.5zM301 634q65 0 89.5 22.5t24.5 83.5q0 65 -26 87t-88 22t-87 -22t-25 -87q0 -42 9 -65t33 -32q12 -4 29.5 -6.5t40.5 -2.5zM562 634q65 0 89.5 22.5t24.5 83.5q0 65 -25.5 87t-88.5 22
q-64 0 -88 -22t-24 -87q0 -42 9.5 -65t33.5 -32q12 -4 29.5 -6.5t39.5 -2.5z" />
    <glyph glyph-name="igrave" unicode="&#xec;" horiz-adv-x="394" 
d="M0 0zM357 0v585h-320v-585h320zM116 623h185l-111 218h-266z" />
    <glyph glyph-name="iacute" unicode="&#xed;" horiz-adv-x="394" 
d="M37 0zM357 0v585h-320v-585h320zM90 622h200l204 218h-265z" />
    <glyph glyph-name="icircumflex" unicode="&#xee;" horiz-adv-x="394" 
d="M0 0zM357 0v585h-320v-585h320zM253 623h194l-153 246h-176l-153 -246h189l51 100z" />
    <glyph glyph-name="idieresis" unicode="&#xef;" horiz-adv-x="394" 
d="M0 0zM357 0v585h-320v-585h320zM72 621q65 0 89.5 22.5t24.5 83.5q0 65 -26 87t-88 22t-87 -22t-25 -87q0 -42 9 -65t33 -32q12 -4 29.5 -6.5t40.5 -2.5zM333 621q65 0 89.5 22.5t24.5 83.5q0 65 -25.5 87t-88.5 22q-64 0 -88 -22t-24 -87q0 -42 9.5 -65t33.5 -32
q12 -4 29.5 -6.5t39.5 -2.5z" />
    <glyph glyph-name="eth" unicode="&#xf0;" horiz-adv-x="833" 
d="M416 -19q193 0 296.5 84t103.5 239q0 83 -29.5 158.5t-81.5 142.5q-26 34 -55.5 65t-62.5 60l197 111h-228l-65 -37q-13 10 -27.5 19t-28.5 18h-403q69 -46 128.5 -85.5t108.5 -75.5l-198 -112h227l66 37q50 -42 85 -82.5t56 -83.5q-29 45 -77 71.5t-116 26.5
q-81 0 -148 -28.5t-107 -86.5q-20 -29 -30 -65.5t-10 -80.5q0 -141 94 -218t305 -77zM416 207q-42 0 -63.5 17.5t-21.5 52.5q0 39 21.5 58t63.5 19q41 0 63.5 -19.5t22.5 -57.5q0 -34 -22.5 -52t-63.5 -18z" />
    <glyph glyph-name="ntilde" unicode="&#xf1;" horiz-adv-x="811" 
d="M36 0zM347 246q0 53 13.5 72.5t47.5 19.5q36 0 48 -19t12 -66v-253h308v350q0 121 -59 184.5t-174 63.5q-88 0 -138 -40t-71 -105l-33 132h-265v-585h311v246zM143 632h161q0 27 6 37t23 10q26 0 55 -13t65 -26q18 -6 38.5 -9.5t43.5 -3.5q87 0 123 52.5t36 176.5h-160
q0 -25 -7 -33t-26 -8q-20 0 -48.5 12t-65.5 23q-18 6 -39 9t-44 3q-87 0 -124 -54t-37 -176z" />
    <glyph glyph-name="ograve" unicode="&#xf2;" horiz-adv-x="825" 
d="M17 0zM412 -19q127 0 215 37.5t135 105.5q23 34 34.5 74.5t11.5 87.5q0 92 -46 162t-134 110q-44 20 -97.5 30t-116.5 10q-126 0 -214.5 -40t-135.5 -110q-24 -35 -35.5 -75.5t-11.5 -86.5q0 -94 40.5 -162.5t127.5 -105.5q43 -18 100 -27.5t127 -9.5zM412 217
q-38 0 -59.5 18t-21.5 52q0 38 21.5 57.5t59.5 19.5q37 0 59.5 -19.5t22.5 -57.5q0 -34 -22 -52t-60 -18zM325 636h185l-111 218h-266z" />
    <glyph glyph-name="oacute" unicode="&#xf3;" horiz-adv-x="825" 
d="M17 0zM412 -19q127 0 215 37.5t135 105.5q23 34 34.5 74.5t11.5 87.5q0 92 -46 162t-134 110q-44 20 -97.5 30t-116.5 10q-126 0 -214.5 -40t-135.5 -110q-24 -35 -35.5 -75.5t-11.5 -86.5q0 -94 40.5 -162.5t127.5 -105.5q43 -18 100 -27.5t127 -9.5zM412 217
q-38 0 -59.5 18t-21.5 52q0 38 21.5 57.5t59.5 19.5q37 0 59.5 -19.5t22.5 -57.5q0 -34 -22 -52t-60 -18zM305 636h200l204 218h-265z" />
    <glyph glyph-name="ocircumflex" unicode="&#xf4;" horiz-adv-x="825" 
d="M17 0zM412 -19q127 0 215 37.5t135 105.5q23 34 34.5 74.5t11.5 87.5q0 92 -46 162t-134 110q-44 20 -97.5 30t-116.5 10q-126 0 -214.5 -40t-135.5 -110q-24 -35 -35.5 -75.5t-11.5 -86.5q0 -94 40.5 -162.5t127.5 -105.5q43 -18 100 -27.5t127 -9.5zM412 217
q-38 0 -59.5 18t-21.5 52q0 38 21.5 57.5t59.5 19.5q37 0 59.5 -19.5t22.5 -57.5q0 -34 -22 -52t-60 -18zM462 632h194l-153 246h-176l-153 -246h189l51 100z" />
    <glyph glyph-name="otilde" unicode="&#xf5;" horiz-adv-x="825" 
d="M17 0zM412 -19q127 0 215 37.5t135 105.5q23 34 34.5 74.5t11.5 87.5q0 92 -46 162t-134 110q-44 20 -97.5 30t-116.5 10q-126 0 -214.5 -40t-135.5 -110q-24 -35 -35.5 -75.5t-11.5 -86.5q0 -94 40.5 -162.5t127.5 -105.5q43 -18 100 -27.5t127 -9.5zM412 217
q-38 0 -59.5 18t-21.5 52q0 38 21.5 57.5t59.5 19.5q37 0 59.5 -19.5t22.5 -57.5q0 -34 -22 -52t-60 -18zM140 640h161q0 27 6 37t23 10q26 0 55 -13t65 -26q18 -6 38.5 -9.5t43.5 -3.5q87 0 123 52.5t36 176.5h-160q0 -25 -7 -33t-26 -8q-20 0 -48.5 12t-65.5 23
q-18 6 -39 9t-44 3q-87 0 -124 -54t-37 -176z" />
    <glyph glyph-name="odieresis" unicode="&#xf6;" horiz-adv-x="825" 
d="M17 0zM412 -19q127 0 215 37.5t135 105.5q23 34 34.5 74.5t11.5 87.5q0 92 -46 162t-134 110q-44 20 -97.5 30t-116.5 10q-126 0 -214.5 -40t-135.5 -110q-24 -35 -35.5 -75.5t-11.5 -86.5q0 -94 40.5 -162.5t127.5 -105.5q43 -18 100 -27.5t127 -9.5zM412 217
q-38 0 -59.5 18t-21.5 52q0 38 21.5 57.5t59.5 19.5q37 0 59.5 -19.5t22.5 -57.5q0 -34 -22 -52t-60 -18zM289 622q65 0 89.5 22.5t24.5 83.5q0 65 -26 87t-88 22t-87 -22t-25 -87q0 -42 9 -65t33 -32q12 -4 29.5 -6.5t40.5 -2.5zM550 622q65 0 89.5 22.5t24.5 83.5
q0 65 -25.5 87t-88.5 22q-64 0 -88 -22t-24 -87q0 -42 9.5 -65t33.5 -32q12 -4 29.5 -6.5t39.5 -2.5z" />
    <glyph glyph-name="divide" unicode="&#xf7;" horiz-adv-x="763" 
d="M381 546q59 0 92.5 8t48.5 30q7 11 10.5 26.5t3.5 36.5q0 43 -15 65.5t-49 31.5q-17 4 -40 6t-51 2q-58 0 -92 -8.5t-49 -30.5q-8 -12 -11.5 -28t-3.5 -38q0 -42 13 -63.5t46 -29.5q17 -4 41.5 -6t55.5 -2zM706 230v277h-650v-277h650zM381 -17q59 0 92.5 8.5t48.5 31.5
q7 11 10.5 27t3.5 37q0 42 -15 64.5t-49 30.5q-17 4 -40 6t-51 2q-58 0 -92 -8t-49 -31q-8 -11 -11.5 -27t-3.5 -37q0 -43 13 -65.5t46 -30.5q17 -4 41.5 -6t55.5 -2z" />
    <glyph glyph-name="oslash" unicode="&#xf8;" horiz-adv-x="825" 
d="M412 217q-38 0 -59.5 18t-21.5 52q0 38 21.5 57.5t59.5 19.5q37 0 59.5 -19.5t22.5 -57.5q0 -34 -22 -52t-60 -18zM412 -19q127 0 215 37.5t135 105.5q23 34 34.5 74.5t11.5 87.5q0 70 -25.5 126t-76.5 98l93 149h-269l-41 -65q-18 2 -36.5 3t-38.5 1q-126 0 -214.5 -40
t-135.5 -110q-24 -35 -35.5 -75.5t-11.5 -86.5q0 -75 25.5 -134t79.5 -99l-90 -142h268l46 72q16 -1 32.5 -1.5t33.5 -0.5z" />
    <glyph glyph-name="ugrave" unicode="&#xf9;" horiz-adv-x="799" 
d="M35 0zM499 0h264v585h-311v-252q0 -49 -12.5 -68t-45.5 -19q-34 0 -44.5 19t-10.5 66v254h-304v-350q0 -121 54.5 -184.5t170.5 -63.5q89 0 138 41.5t68 106.5zM311 623h185l-111 218h-266z" />
    <glyph glyph-name="uacute" unicode="&#xfa;" horiz-adv-x="799" 
d="M35 0zM499 0h264v585h-311v-252q0 -49 -12.5 -68t-45.5 -19q-34 0 -44.5 19t-10.5 66v254h-304v-350q0 -121 54.5 -184.5t170.5 -63.5q89 0 138 41.5t68 106.5zM291 623h200l204 218h-265z" />
    <glyph glyph-name="ucircumflex" unicode="&#xfb;" horiz-adv-x="799" 
d="M35 0zM499 0h264v585h-311v-252q0 -49 -12.5 -68t-45.5 -19q-34 0 -44.5 19t-10.5 66v254h-304v-350q0 -121 54.5 -184.5t170.5 -63.5q89 0 138 41.5t68 106.5zM448 623h194l-153 246h-176l-153 -246h189l51 100z" />
    <glyph glyph-name="udieresis" unicode="&#xfc;" horiz-adv-x="799" 
d="M35 0zM499 0h264v585h-311v-252q0 -49 -12.5 -68t-45.5 -19q-34 0 -44.5 19t-10.5 66v254h-304v-350q0 -121 54.5 -184.5t170.5 -63.5q89 0 138 41.5t68 106.5zM267 621q65 0 89.5 22.5t24.5 83.5q0 65 -26 87t-88 22t-87 -22t-25 -87q0 -42 9 -65t33 -32
q12 -4 29.5 -6.5t40.5 -2.5zM528 621q65 0 89.5 22.5t24.5 83.5q0 65 -25.5 87t-88.5 22q-64 0 -88 -22t-24 -87q0 -42 9.5 -65t33.5 -32q12 -4 29.5 -6.5t39.5 -2.5z" />
    <glyph glyph-name="yacute" unicode="&#xfd;" horiz-adv-x="782" 
d="M0 0zM224 -233q65 0 109 8t76 33q33 24 63.5 73t69.5 131l274 573h-317l-92 -224l-12 -41l-10 41l-89 224h-330l269 -550q-11 -22 -24.5 -28.5t-48.5 -6.5h-107v-233h169zM281 623h200l204 218h-265z" />
    <glyph glyph-name="thorn" unicode="&#xfe;" horiz-adv-x="830" 
d="M417 217q-40 0 -60.5 17.5t-20.5 52.5q0 39 20.5 58t60.5 19q38 0 60 -19.5t22 -57.5q0 -34 -21.5 -52t-60.5 -18zM530 -8q77 0 141 36t103 103q20 33 29.5 72.5t9.5 85.5q0 99 -35 167t-97 102q-31 18 -66.5 26.5t-75.5 8.5q-79 0 -126.5 -28.5t-71.5 -75.5v289h-304
v-976h304v290q22 -46 66.5 -73t122.5 -27z" />
    <glyph glyph-name="ydieresis" unicode="&#xff;" horiz-adv-x="782" 
d="M0 0zM224 -233q65 0 109 8t76 33q33 24 63.5 73t69.5 131l274 573h-317l-92 -224l-12 -41l-10 41l-89 224h-330l269 -550q-11 -22 -24.5 -28.5t-48.5 -6.5h-107v-233h169zM257 621q65 0 89.5 22.5t24.5 83.5q0 65 -26 87t-88 22t-87 -22t-25 -87q0 -42 9 -65t33 -32
q12 -4 29.5 -6.5t40.5 -2.5zM518 621q65 0 89.5 22.5t24.5 83.5q0 65 -25.5 87t-88.5 22q-64 0 -88 -22t-24 -87q0 -42 9.5 -65t33.5 -32q12 -4 29.5 -6.5t39.5 -2.5z" />
    <glyph glyph-name="Amacron" unicode="&#x100;" horiz-adv-x="871" 
d="M0 0zM431 432l7 33l7 -34l44 -137h-103zM583 0h323l-280 720h-372l-288 -720h324l29 90h235zM251 769h373v170h-373v-170z" />
    <glyph glyph-name="amacron" unicode="&#x101;" horiz-adv-x="835" 
d="M13 0zM370 158q-18 0 -26 7t-8 16q0 8 4 13.5t10 9.5t19 8.5t42 10.5q31 8 52.5 15t34.5 17v-9q0 -24 -19.5 -44t-48.5 -32q-15 -6 -30 -9t-30 -3zM529 0h271v329q0 139 -88 204t-280 65q-177 0 -282 -58t-118 -177h317q0 16 21.5 28t68.5 12q37 0 48 -6t11 -17
q0 -10 -12.5 -16t-49.5 -11q-19 -2 -47 -5t-65 -7q-54 -6 -93 -12t-68 -15q-15 -4 -29.5 -9.5t-28.5 -12.5q-46 -22 -69 -59.5t-23 -90.5q0 -78 53 -119.5t168 -41.5q102 0 167.5 31.5t96.5 83.5zM247 647h373v170h-373v-170z" />
    <glyph glyph-name="Abreve" unicode="&#x102;" horiz-adv-x="871" 
d="M0 0zM431 432l7 33l7 -34l44 -137h-103zM583 0h323l-280 720h-372l-288 -720h324l29 90h235zM436 756q112 0 175 55t63 167h-176q0 -34 -15 -46t-47 -12q-34 0 -48 12.5t-14 45.5h-174q0 -113 59.5 -167.5t176.5 -54.5z" />
    <glyph glyph-name="abreve" unicode="&#x103;" horiz-adv-x="835" 
d="M13 0zM370 158q-18 0 -26 7t-8 16q0 8 4 13.5t10 9.5t19 8.5t42 10.5q31 8 52.5 15t34.5 17v-9q0 -24 -19.5 -44t-48.5 -32q-15 -6 -30 -9t-30 -3zM529 0h271v329q0 139 -88 204t-280 65q-177 0 -282 -58t-118 -177h317q0 16 21.5 28t68.5 12q37 0 48 -6t11 -17
q0 -10 -12.5 -16t-49.5 -11q-19 -2 -47 -5t-65 -7q-54 -6 -93 -12t-68 -15q-15 -4 -29.5 -9.5t-28.5 -12.5q-46 -22 -69 -59.5t-23 -90.5q0 -78 53 -119.5t168 -41.5q102 0 167.5 31.5t96.5 83.5zM432 634q112 0 175 55t63 167h-176q0 -34 -15 -46t-47 -12q-34 0 -48 12.5
t-14 45.5h-174q0 -113 59.5 -167.5t176.5 -54.5z" />
    <glyph glyph-name="Aogonek" unicode="&#x104;" horiz-adv-x="871" 
d="M431 432l7 33l7 -34l44 -137h-103zM1028 -110h-219q-2 -28 -13.5 -39t-30.5 -11q-15 0 -23 6.5t-8 19.5q0 7 4.5 16t20.5 23q17 14 51.5 37t95.5 58l-280 720h-372l-288 -720h324l29 90h235l29 -90h37q-55 -39 -73 -74.5t-18 -72.5q0 -76 55.5 -121.5t168.5 -45.5
q118 0 188 53t87 151z" />
    <glyph glyph-name="aogonek" unicode="&#x105;" horiz-adv-x="835" 
d="M370 158q-18 0 -26 7t-8 16q0 8 4 13.5t10 9.5t19 8.5t42 10.5q31 8 52.5 15t34.5 17v-9q0 -24 -19.5 -44t-48.5 -32q-15 -6 -30 -9t-30 -3zM921 -110h-219q-2 -28 -13.5 -39t-30.5 -11q-15 0 -23 6.5t-8 19.5q0 7 4.5 16t20.5 23q17 14 51.5 37t95.5 58h1v329
q0 139 -88 204t-280 65q-177 0 -282 -58t-118 -177h317q0 16 21.5 28t68.5 12q37 0 48 -6t11 -17q0 -10 -12.5 -16t-49.5 -11q-19 -2 -47 -5t-65 -7q-54 -6 -93 -12t-68 -15q-15 -4 -29.5 -9.5t-28.5 -12.5q-46 -22 -69 -59.5t-23 -90.5q0 -78 53 -119.5t168 -41.5
q102 0 167.5 31.5t96.5 83.5l28 -87q-63 -42 -83.5 -79.5t-20.5 -76.5q0 -76 55.5 -121.5t168.5 -45.5q118 0 188 53t87 151z" />
    <glyph glyph-name="Cacute" unicode="&#x106;" horiz-adv-x="923" 
d="M19 0zM910 329h-342q-3 -32 -30.5 -54.5t-77.5 -22.5q-55 0 -85.5 27.5t-30.5 78.5q0 49 31.5 78.5t86.5 29.5q50 0 76.5 -23.5t29.5 -55.5h342q-4 119 -62 197t-158 117q-49 19 -106 28.5t-122 9.5q-133 0 -233 -46t-155 -132q-27 -43 -41 -94t-14 -111
q0 -194 114 -284.5t323 -90.5q131 0 231.5 36t159.5 113q29 39 45 88.5t18 110.5zM359 777h200l204 218h-265z" />
    <glyph glyph-name="cacute" unicode="&#x107;" horiz-adv-x="822" 
d="M17 0zM816 266h-325q-7 -24 -26.5 -36.5t-52.5 -12.5q-38 0 -59.5 18t-21.5 52q0 38 21.5 57.5t59.5 19.5q33 0 52.5 -13t26.5 -39h325q-6 85 -54.5 149t-136.5 101q-44 18 -96.5 27t-114.5 9q-126 0 -214.5 -40t-135.5 -110q-24 -35 -35.5 -75.5t-11.5 -86.5
q0 -94 40.5 -162.5t127.5 -105.5q43 -18 100 -27.5t127 -9.5q190 0 293.5 76.5t110.5 208.5zM309 636h200l204 218h-265z" />
    <glyph glyph-name="Ccircumflex" unicode="&#x108;" horiz-adv-x="923" 
d="M19 0zM910 329h-342q-3 -32 -30.5 -54.5t-77.5 -22.5q-55 0 -85.5 27.5t-30.5 78.5q0 49 31.5 78.5t86.5 29.5q50 0 76.5 -23.5t29.5 -55.5h342q-4 119 -62 197t-158 117q-49 19 -106 28.5t-122 9.5q-133 0 -233 -46t-155 -132q-27 -43 -41 -94t-14 -111
q0 -194 114 -284.5t323 -90.5q131 0 231.5 36t159.5 113q29 39 45 88.5t18 110.5zM516 777h194l-153 246h-176l-153 -246h189l51 100z" />
    <glyph glyph-name="ccircumflex" unicode="&#x109;" horiz-adv-x="822" 
d="M17 0zM816 266h-325q-7 -24 -26.5 -36.5t-52.5 -12.5q-38 0 -59.5 18t-21.5 52q0 38 21.5 57.5t59.5 19.5q33 0 52.5 -13t26.5 -39h325q-6 85 -54.5 149t-136.5 101q-44 18 -96.5 27t-114.5 9q-126 0 -214.5 -40t-135.5 -110q-24 -35 -35.5 -75.5t-11.5 -86.5
q0 -94 40.5 -162.5t127.5 -105.5q43 -18 100 -27.5t127 -9.5q190 0 293.5 76.5t110.5 208.5zM466 630h194l-153 246h-176l-153 -246h189l51 100z" />
    <glyph glyph-name="Cdotaccent" unicode="&#x10a;" horiz-adv-x="923" 
d="M19 0zM910 329h-342q-3 -32 -30.5 -54.5t-77.5 -22.5q-55 0 -85.5 27.5t-30.5 78.5q0 49 31.5 78.5t86.5 29.5q50 0 76.5 -23.5t29.5 -55.5h342q-4 119 -62 197t-158 117q-49 19 -106 28.5t-122 9.5q-133 0 -233 -46t-155 -132q-27 -43 -41 -94t-14 -111
q0 -194 114 -284.5t323 -90.5q131 0 231.5 36t159.5 113q29 39 45 88.5t18 110.5zM467 773q52 0 81.5 9.5t41.5 36.5q7 13 10 32.5t3 45.5q0 52 -13 79t-42 36q-15 5 -35 7.5t-46 2.5q-51 0 -81 -9.5t-42 -36.5q-7 -14 -10 -33.5t-3 -45.5q0 -52 11 -79t41 -36
q14 -4 35.5 -6.5t48.5 -2.5z" />
    <glyph glyph-name="cdotaccent" unicode="&#x10b;" horiz-adv-x="822" 
d="M17 0zM816 266h-325q-7 -24 -26.5 -36.5t-52.5 -12.5q-38 0 -59.5 18t-21.5 52q0 38 21.5 57.5t59.5 19.5q33 0 52.5 -13t26.5 -39h325q-6 85 -54.5 149t-136.5 101q-44 18 -96.5 27t-114.5 9q-126 0 -214.5 -40t-135.5 -110q-24 -35 -35.5 -75.5t-11.5 -86.5
q0 -94 40.5 -162.5t127.5 -105.5q43 -18 100 -27.5t127 -9.5q190 0 293.5 76.5t110.5 208.5zM417 632q52 0 81.5 9.5t41.5 36.5q7 13 10 32.5t3 45.5q0 52 -13 79t-42 36q-15 5 -35 7.5t-46 2.5q-51 0 -81 -9.5t-42 -36.5q-7 -14 -10 -33.5t-3 -45.5q0 -52 11 -79t41 -36
q14 -4 35.5 -6.5t48.5 -2.5z" />
    <glyph glyph-name="Ccaron" unicode="&#x10c;" horiz-adv-x="923" 
d="M19 0zM910 329h-342q-3 -32 -30.5 -54.5t-77.5 -22.5q-55 0 -85.5 27.5t-30.5 78.5q0 49 31.5 78.5t86.5 29.5q50 0 76.5 -23.5t29.5 -55.5h342q-4 119 -62 197t-158 117q-49 19 -106 28.5t-122 9.5q-133 0 -233 -46t-155 -132q-27 -43 -41 -94t-14 -111
q0 -194 114 -284.5t323 -90.5q131 0 231.5 36t159.5 113q29 39 45 88.5t18 110.5zM556 777l152 246h-189l-50 -100l-49 100h-193l153 -246h176z" />
    <glyph glyph-name="ccaron" unicode="&#x10d;" horiz-adv-x="822" 
d="M17 0zM816 266h-325q-7 -24 -26.5 -36.5t-52.5 -12.5q-38 0 -59.5 18t-21.5 52q0 38 21.5 57.5t59.5 19.5q33 0 52.5 -13t26.5 -39h325q-6 85 -54.5 149t-136.5 101q-44 18 -96.5 27t-114.5 9q-126 0 -214.5 -40t-135.5 -110q-24 -35 -35.5 -75.5t-11.5 -86.5
q0 -94 40.5 -162.5t127.5 -105.5q43 -18 100 -27.5t127 -9.5q190 0 293.5 76.5t110.5 208.5zM506 636l152 246h-189l-50 -100l-49 100h-193l153 -246h176z" />
    <glyph glyph-name="Dcaron" unicode="&#x10e;" horiz-adv-x="882" 
d="M42 0zM441 0q126 0 221 40.5t148 120.5q27 40 40 90t13 109q0 119 -52 199t-148 120q-47 21 -103 31t-121 10h-397v-720h399zM421 462q65 0 91 -24t26 -77q0 -46 -26 -72.5t-91 -26.5h-67v200h67zM519 758l152 246h-189l-50 -100l-49 100h-193l153 -246h176z" />
    <glyph glyph-name="dcaron" unicode="&#x10f;" horiz-adv-x="829" 
d="M17 0zM413 217q-37 0 -59.5 18t-22.5 52q0 38 22.5 57.5t59.5 19.5q38 0 59.5 -19.5t21.5 -57.5q0 -34 -21.5 -52t-59.5 -18zM519 0h274v770h-303v-268q-25 44 -71 67.5t-117 23.5q-80 0 -145 -35.5t-102 -104.5q-19 -35 -28.5 -76.5t-9.5 -91.5q0 -91 38 -157t101 -101
q32 -17 67 -26t73 -9q83 0 132 27.5t74 72.5zM822 551h167l153 218h-232z" />
    <glyph glyph-name="Dcroat" unicode="&#x110;" horiz-adv-x="901" 
d="M0 0zM460 0q126 0 221 40.5t148 120.5q27 40 40 90t13 109q0 119 -52 199t-148 120q-47 21 -103 31t-121 10h-397v-280h-63v-154h63v-286h399zM469 286v154h-96v42h67q65 0 91 -28.5t26 -92.5q0 -55 -26 -87t-91 -32h-67v44h96z" />
    <glyph glyph-name="dcroat" unicode="&#x111;" horiz-adv-x="829" 
d="M413 217q-37 0 -59.5 18t-22.5 52q0 38 22.5 57.5t59.5 19.5q38 0 59.5 -19.5t21.5 -57.5q0 -34 -21.5 -52t-59.5 -18zM502 92l17 -92h274v607h35v113h-35v50h-303v-50h-73v-113h73v-105q-25 44 -71 67.5t-117 23.5q-80 0 -145 -35.5t-102 -104.5q-19 -35 -28.5 -76.5
t-9.5 -91.5q0 -91 38 -157t101 -101q32 -17 67 -26t73 -9q83 0 132 27.5t74 72.5z" />
    <glyph glyph-name="Emacron" unicode="&#x112;" horiz-adv-x="778" 
d="M42 0zM754 242h-414v53h387v144h-387v49h405v232h-703v-720h712v242zM214 769h373v170h-373v-170z" />
    <glyph glyph-name="emacron" unicode="&#x113;" horiz-adv-x="838" 
d="M17 0zM820 198h-327q-7 -10 -20.5 -15.5t-45.5 -5.5q-46 0 -70.5 15t-32.5 44h499v52q0 64 -21 120t-67 99t-120.5 67t-181.5 24q-143 0 -235.5 -41t-136.5 -114q-22 -37 -33 -79.5t-11 -90.5q0 -60 18.5 -112.5t62.5 -93.5q44 -40 120.5 -63t192.5 -23q188 0 285 54
t124 163zM422 396q40 0 62 -10.5t30 -37.5h-185q10 23 32.5 35.5t60.5 12.5zM247 647h373v170h-373v-170z" />
    <glyph glyph-name="Ebreve" unicode="&#x114;" horiz-adv-x="778" 
d="M42 0zM754 242h-414v53h387v144h-387v49h405v232h-703v-720h712v242zM399 756q112 0 175 55t63 167h-176q0 -34 -15 -46t-47 -12q-34 0 -48 12.5t-14 45.5h-174q0 -113 59.5 -167.5t176.5 -54.5z" />
    <glyph glyph-name="ebreve" unicode="&#x115;" horiz-adv-x="838" 
d="M17 0zM820 198h-327q-7 -10 -20.5 -15.5t-45.5 -5.5q-46 0 -70.5 15t-32.5 44h499v52q0 64 -21 120t-67 99t-120.5 67t-181.5 24q-143 0 -235.5 -41t-136.5 -114q-22 -37 -33 -79.5t-11 -90.5q0 -60 18.5 -112.5t62.5 -93.5q44 -40 120.5 -63t192.5 -23q188 0 285 54
t124 163zM422 396q40 0 62 -10.5t30 -37.5h-185q10 23 32.5 35.5t60.5 12.5zM432 634q112 0 175 55t63 167h-176q0 -34 -15 -46t-47 -12q-34 0 -48 12.5t-14 45.5h-174q0 -113 59.5 -167.5t176.5 -54.5z" />
    <glyph glyph-name="Edotaccent" unicode="&#x116;" horiz-adv-x="778" 
d="M42 0zM754 242h-414v53h387v144h-387v49h405v232h-703v-720h712v242zM400 754q52 0 81.5 9.5t41.5 36.5q7 13 10 32.5t3 45.5q0 52 -13 79t-42 36q-15 5 -35 7.5t-46 2.5q-51 0 -81 -9.5t-42 -36.5q-7 -14 -10 -33.5t-3 -45.5q0 -52 11 -79t41 -36q14 -4 35.5 -6.5
t48.5 -2.5z" />
    <glyph glyph-name="edotaccent" unicode="&#x117;" horiz-adv-x="838" 
d="M17 0zM820 198h-327q-7 -10 -20.5 -15.5t-45.5 -5.5q-46 0 -70.5 15t-32.5 44h499v52q0 64 -21 120t-67 99t-120.5 67t-181.5 24q-143 0 -235.5 -41t-136.5 -114q-22 -37 -33 -79.5t-11 -90.5q0 -60 18.5 -112.5t62.5 -93.5q44 -40 120.5 -63t192.5 -23q188 0 285 54
t124 163zM422 396q40 0 62 -10.5t30 -37.5h-185q10 23 32.5 35.5t60.5 12.5zM433 632q52 0 81.5 9.5t41.5 36.5q7 13 10 32.5t3 45.5q0 52 -13 79t-42 36q-15 5 -35 7.5t-46 2.5q-51 0 -81 -9.5t-42 -36.5q-7 -14 -10 -33.5t-3 -45.5q0 -52 11 -79t41 -36q14 -4 35.5 -6.5
t48.5 -2.5z" />
    <glyph glyph-name="Eogonek" unicode="&#x118;" horiz-adv-x="778" 
d="M876 -110h-219q-2 -28 -13.5 -39t-30.5 -11q-15 0 -23 6.5t-8 19.5q0 7 4.5 16t20.5 23q17 14 51.5 37t95.5 58v242h-414v53h387v144h-387v49h405v232h-703v-720h426q-55 -39 -73 -74.5t-18 -72.5q0 -76 55.5 -121.5t168.5 -45.5q118 0 188 53t87 151z" />
    <glyph glyph-name="eogonek" unicode="&#x119;" horiz-adv-x="838" 
d="M515 -292q118 0 188 53t87 151h-219q-2 -28 -13.5 -39t-30.5 -11q-15 0 -23 6.5t-8 19.5q0 7 4.5 16t20.5 23t50.5 36.5t94.5 57.5q64 26 101 70.5t53 106.5h-327q-7 -10 -20.5 -15.5t-45.5 -5.5q-46 0 -70.5 15t-32.5 44h499v52q0 64 -21 120t-67 99t-120.5 67
t-181.5 24q-143 0 -235.5 -41t-136.5 -114q-22 -37 -33 -79.5t-11 -90.5q0 -54 15.5 -103t51.5 -88q36 -40 98 -65.5t155 -32.5q-27 -28 -36.5 -54.5t-9.5 -54.5q0 -76 55.5 -121.5t168.5 -45.5zM422 396q40 0 62 -10.5t30 -37.5h-185q10 23 32.5 35.5t60.5 12.5z" />
    <glyph glyph-name="Ecaron" unicode="&#x11a;" horiz-adv-x="778" 
d="M42 0zM754 242h-414v53h387v144h-387v49h405v232h-703v-720h712v242zM489 758l152 246h-189l-50 -100l-49 100h-193l153 -246h176z" />
    <glyph glyph-name="ecaron" unicode="&#x11b;" horiz-adv-x="838" 
d="M17 0zM820 198h-327q-7 -10 -20.5 -15.5t-45.5 -5.5q-46 0 -70.5 15t-32.5 44h499v52q0 64 -21 120t-67 99t-120.5 67t-181.5 24q-143 0 -235.5 -41t-136.5 -114q-22 -37 -33 -79.5t-11 -90.5q0 -60 18.5 -112.5t62.5 -93.5q44 -40 120.5 -63t192.5 -23q188 0 285 54
t124 163zM422 396q40 0 62 -10.5t30 -37.5h-185q10 23 32.5 35.5t60.5 12.5zM522 636l152 246h-189l-50 -100l-49 100h-193l153 -246h176z" />
    <glyph glyph-name="Gcircumflex" unicode="&#x11c;" horiz-adv-x="920" 
d="M19 0zM604 0h287v400h-475v-125h141q-12 -24 -37 -36.5t-66 -12.5q-64 0 -87 30.5t-23 87.5q0 66 27 97t83 31q38 0 58 -10t31 -29h349q-16 160 -129 233t-303 73q-208 0 -324.5 -102.5t-116.5 -301.5q0 -177 78.5 -265.5t235.5 -88.5q79 0 131.5 21t81.5 69
q15 24 25 56.5t15 73.5zM508 777h194l-153 246h-176l-153 -246h189l51 100z" />
    <glyph glyph-name="gcircumflex" unicode="&#x11d;" horiz-adv-x="813" 
d="M0 0zM405 -238q218 0 317.5 54t99.5 173q0 62 -29.5 102t-95.5 60q-33 10 -77.5 15t-100.5 5h-209q-55 0 -70.5 2t-15.5 12q0 9 16.5 13.5t68.5 4.5h118q141 0 222 22t116 65q17 21 25.5 48t8.5 59q0 68 -35.5 107t-103.5 58q-20 6 -45 10t-55 7q83 0 131 2.5t71 11.5
t29.5 27.5t6.5 49.5v3h-317v-18q0 -28 -4.5 -40t-16.5 -15q-6 -1 -15.5 -1.5t-21.5 -0.5h-42q-190 0 -278 -52.5t-88 -147.5q0 -70 40.5 -108t132.5 -53q-95 -12 -136 -45.5t-41 -89.5q0 -54 44 -86t152 -39q-76 -2 -122 -16.5t-67 -36.5q-10 -12 -15 -24t-5 -25
q0 -27 15.5 -48t53.5 -36q38 -14 105.5 -21.5t171.5 -7.5h61zM411 365q-61 0 -83 5.5t-22 19.5q0 16 21 22t73 7h12q64 0 85.5 -6.5t21.5 -22.5q0 -13 -23 -19t-85 -6zM412 -77q-76 0 -104 6.5t-28 20.5q0 11 16 18t74 7h121q41 0 55 -5.5t14 -17.5v-1q0 -7 -9.5 -13.5
t-35.5 -10.5q-13 -2 -32.5 -3t-44.5 -1h-26zM472 703h194l-153 246h-176l-153 -246h189l51 100z" />
    <glyph glyph-name="Gbreve" unicode="&#x11e;" horiz-adv-x="920" 
d="M19 0zM604 0h287v400h-475v-125h141q-12 -24 -37 -36.5t-66 -12.5q-64 0 -87 30.5t-23 87.5q0 66 27 97t83 31q38 0 58 -10t31 -29h349q-16 160 -129 233t-303 73q-208 0 -324.5 -102.5t-116.5 -301.5q0 -177 78.5 -265.5t235.5 -88.5q79 0 131.5 21t81.5 69
q15 24 25 56.5t15 73.5zM458 775q112 0 175 55t63 167h-176q0 -34 -15 -46t-47 -12q-34 0 -48 12.5t-14 45.5h-174q0 -113 59.5 -167.5t176.5 -54.5z" />
    <glyph glyph-name="gbreve" unicode="&#x11f;" horiz-adv-x="813" 
d="M0 0zM405 -238q218 0 317.5 54t99.5 173q0 62 -29.5 102t-95.5 60q-33 10 -77.5 15t-100.5 5h-209q-55 0 -70.5 2t-15.5 12q0 9 16.5 13.5t68.5 4.5h118q141 0 222 22t116 65q17 21 25.5 48t8.5 59q0 68 -35.5 107t-103.5 58q-20 6 -45 10t-55 7q83 0 131 2.5t71 11.5
t29.5 27.5t6.5 49.5v3h-317v-18q0 -28 -4.5 -40t-16.5 -15q-6 -1 -15.5 -1.5t-21.5 -0.5h-42q-190 0 -278 -52.5t-88 -147.5q0 -70 40.5 -108t132.5 -53q-95 -12 -136 -45.5t-41 -89.5q0 -54 44 -86t152 -39q-76 -2 -122 -16.5t-67 -36.5q-10 -12 -15 -24t-5 -25
q0 -27 15.5 -48t53.5 -36q38 -14 105.5 -21.5t171.5 -7.5h61zM411 365q-61 0 -83 5.5t-22 19.5q0 16 21 22t73 7h12q64 0 85.5 -6.5t21.5 -22.5q0 -13 -23 -19t-85 -6zM412 -77q-76 0 -104 6.5t-28 20.5q0 11 16 18t74 7h121q41 0 55 -5.5t14 -17.5v-1q0 -7 -9.5 -13.5
t-35.5 -10.5q-13 -2 -32.5 -3t-44.5 -1h-26zM420 691q112 0 175 55t63 167h-176q0 -34 -15 -46t-47 -12q-34 0 -48 12.5t-14 45.5h-174q0 -113 59.5 -167.5t176.5 -54.5z" />
    <glyph glyph-name="Gdotaccent" unicode="&#x120;" horiz-adv-x="920" 
d="M19 0zM604 0h287v400h-475v-125h141q-12 -24 -37 -36.5t-66 -12.5q-64 0 -87 30.5t-23 87.5q0 66 27 97t83 31q38 0 58 -10t31 -29h349q-16 160 -129 233t-303 73q-208 0 -324.5 -102.5t-116.5 -301.5q0 -177 78.5 -265.5t235.5 -88.5q79 0 131.5 21t81.5 69
q15 24 25 56.5t15 73.5zM459 773q52 0 81.5 9.5t41.5 36.5q7 13 10 32.5t3 45.5q0 52 -13 79t-42 36q-15 5 -35 7.5t-46 2.5q-51 0 -81 -9.5t-42 -36.5q-7 -14 -10 -33.5t-3 -45.5q0 -52 11 -79t41 -36q14 -4 35.5 -6.5t48.5 -2.5z" />
    <glyph glyph-name="gdotaccent" unicode="&#x121;" horiz-adv-x="813" 
d="M0 0zM405 -238q218 0 317.5 54t99.5 173q0 62 -29.5 102t-95.5 60q-33 10 -77.5 15t-100.5 5h-209q-55 0 -70.5 2t-15.5 12q0 9 16.5 13.5t68.5 4.5h118q141 0 222 22t116 65q17 21 25.5 48t8.5 59q0 68 -35.5 107t-103.5 58q-20 6 -45 10t-55 7q83 0 131 2.5t71 11.5
t29.5 27.5t6.5 49.5v3h-317v-18q0 -28 -4.5 -40t-16.5 -15q-6 -1 -15.5 -1.5t-21.5 -0.5h-42q-190 0 -278 -52.5t-88 -147.5q0 -70 40.5 -108t132.5 -53q-95 -12 -136 -45.5t-41 -89.5q0 -54 44 -86t152 -39q-76 -2 -122 -16.5t-67 -36.5q-10 -12 -15 -24t-5 -25
q0 -27 15.5 -48t53.5 -36q38 -14 105.5 -21.5t171.5 -7.5h61zM411 365q-61 0 -83 5.5t-22 19.5q0 16 21 22t73 7h12q64 0 85.5 -6.5t21.5 -22.5q0 -13 -23 -19t-85 -6zM412 -77q-76 0 -104 6.5t-28 20.5q0 11 16 18t74 7h121q41 0 55 -5.5t14 -17.5v-1q0 -7 -9.5 -13.5
t-35.5 -10.5q-13 -2 -32.5 -3t-44.5 -1h-26zM413 686q52 0 81.5 9.5t41.5 36.5q7 13 10 32.5t3 45.5q0 52 -13 79t-42 36q-15 5 -35 7.5t-46 2.5q-51 0 -81 -9.5t-42 -36.5q-7 -14 -10 -33.5t-3 -45.5q0 -52 11 -79t41 -36q14 -4 35.5 -6.5t48.5 -2.5z" />
    <glyph glyph-name="uni0122" unicode="&#x122;" horiz-adv-x="920" 
d="M19 0zM604 0h287v400h-475v-125h141q-12 -24 -37 -36.5t-66 -12.5q-64 0 -87 30.5t-23 87.5q0 66 27 97t83 31q38 0 58 -10t31 -29h349q-16 160 -129 233t-303 73q-208 0 -324.5 -102.5t-116.5 -301.5q0 -177 78.5 -265.5t235.5 -88.5q79 0 131.5 21t81.5 69
q15 24 25 56.5t15 73.5zM349 -372q94 0 146 22.5t73 65.5q10 22 15.5 48t5.5 57q0 48 -12.5 74.5t-42.5 37.5q-15 5 -35 7.5t-45 2.5q-74 0 -102 -21.5t-28 -72.5q0 -55 26 -71.5t86 -16.5q11 0 22.5 1t23.5 4q-7 -30 -39 -42t-94 -12v-84z" />
    <glyph glyph-name="uni0123" unicode="&#x123;" horiz-adv-x="813" 
d="M0 0zM405 -238q218 0 317.5 54t99.5 173q0 62 -29.5 102t-95.5 60q-33 10 -77.5 15t-100.5 5h-209q-55 0 -70.5 2t-15.5 12q0 9 16.5 13.5t68.5 4.5h118q141 0 222 22t116 65q17 21 25.5 48t8.5 59q0 68 -35.5 107t-103.5 58q-20 6 -45 10t-55 7q83 0 131 2.5t71 11.5
t29.5 27.5t6.5 49.5v3h-317v-18q0 -28 -4.5 -40t-16.5 -15q-6 -1 -15.5 -1.5t-21.5 -0.5h-42q-190 0 -278 -52.5t-88 -147.5q0 -70 40.5 -108t132.5 -53q-95 -12 -136 -45.5t-41 -89.5q0 -54 44 -86t152 -39q-76 -2 -122 -16.5t-67 -36.5q-10 -12 -15 -24t-5 -25
q0 -27 15.5 -48t53.5 -36q38 -14 105.5 -21.5t171.5 -7.5h61zM411 365q-61 0 -83 5.5t-22 19.5q0 16 21 22t73 7h12q64 0 85.5 -6.5t21.5 -22.5q0 -13 -23 -19t-85 -6zM412 -77q-76 0 -104 6.5t-28 20.5q0 11 16 18t74 7h121q41 0 55 -5.5t14 -17.5v-1q0 -7 -9.5 -13.5
t-35.5 -10.5q-13 -2 -32.5 -3t-44.5 -1h-26zM406 680q74 0 102 21.5t28 72.5q0 55 -26 71.5t-86 16.5q-11 0 -22.5 -1t-23.5 -4q7 30 39.5 42t93.5 12v84q-93 0 -145.5 -22.5t-73.5 -65.5q-10 -22 -15.5 -48t-5.5 -57q0 -48 12.5 -74.5t42.5 -36.5q15 -6 35 -8.5t45 -2.5z
" />
    <glyph glyph-name="Hcircumflex" unicode="&#x124;" horiz-adv-x="894" 
d="M42 0zM536 0h316v720h-316v-228h-176v228h-318v-720h318v223h176v-223zM495 758h194l-153 246h-176l-153 -246h189l51 100z" />
    <glyph glyph-name="hcircumflex" unicode="&#x125;" horiz-adv-x="811" 
d="M0 0zM345 246q0 53 13.5 72.5t47.5 19.5q36 0 48.5 -19t12.5 -66v-253h308v350q0 121 -59.5 184.5t-174.5 63.5q-64 0 -115 -29t-83 -78v279h-307v-770h309v246zM241 808h194l-153 246h-176l-153 -246h189l51 100z" />
    <glyph glyph-name="Hbar" unicode="&#x126;" horiz-adv-x="947" 
d="M568 353h-191v71h191v-71zM568 0h305v424h70v211h-70v85h-305v-85h-191v85h-307v-85h-66v-211h66v-424h307v149h191v-149z" />
    <glyph glyph-name="hbar" unicode="&#x127;" horiz-adv-x="811" 
d="M345 246q0 53 13.5 72.5t47.5 19.5q36 0 48.5 -19t12.5 -66v-253h308v350q0 121 -59.5 184.5t-174.5 63.5q-64 0 -115 -29t-83 -78v132h150v85h-150v62h-307v-62h-36v-85h36v-623h309v246z" />
    <glyph glyph-name="Itilde" unicode="&#x128;" horiz-adv-x="691" 
d="M30 0zM661 0v278h-164v163h164v279h-631v-279h162v-163h-162v-278h631zM74 762h161q0 27 6 37t23 10q26 0 55 -13t65 -26q18 -6 38.5 -9.5t43.5 -3.5q87 0 123 52.5t36 176.5h-160q0 -25 -7 -33t-26 -8q-20 0 -48.5 12t-65.5 23q-18 6 -39 9t-44 3q-87 0 -124 -54
t-37 -176z" />
    <glyph glyph-name="itilde" unicode="&#x129;" horiz-adv-x="394" 
d="M0 0zM357 0v585h-320v-585h320zM-69 627h161q0 27 6 37t23 10q26 0 55 -13t65 -26q18 -6 38.5 -9.5t43.5 -3.5q87 0 123 52.5t36 176.5h-160q0 -25 -7 -33t-26 -8q-20 0 -48.5 12t-65.5 23q-18 6 -39 9t-44 3q-87 0 -124 -54t-37 -176z" />
    <glyph glyph-name="Imacron" unicode="&#x12a;" horiz-adv-x="691" 
d="M30 0zM661 0v278h-164v163h164v279h-631v-279h162v-163h-162v-278h631zM161 769h373v170h-373v-170z" />
    <glyph glyph-name="imacron" unicode="&#x12b;" horiz-adv-x="394" 
d="M18 0zM357 0v585h-320v-585h320zM18 634h373v170h-373v-170z" />
    <glyph glyph-name="Ibreve" unicode="&#x12c;" horiz-adv-x="691" 
d="M30 0zM661 0v278h-164v163h164v279h-631v-279h162v-163h-162v-278h631zM346 756q112 0 175 55t63 167h-176q0 -34 -15 -46t-47 -12q-34 0 -48 12.5t-14 45.5h-174q0 -113 59.5 -167.5t176.5 -54.5z" />
    <glyph glyph-name="ibreve" unicode="&#x12d;" horiz-adv-x="394" 
d="M0 0zM357 0v585h-320v-585h320zM203 621q112 0 175 55t63 167h-176q0 -34 -15 -46t-47 -12q-34 0 -48 12.5t-14 45.5h-174q0 -113 59.5 -167.5t176.5 -54.5z" />
    <glyph glyph-name="Iogonek" unicode="&#x12e;" horiz-adv-x="691" 
d="M782 -110h-219q-2 -28 -13.5 -39t-30.5 -11q-15 0 -23 6.5t-8 19.5q0 7 4.5 16t20.5 23q17 14 51.5 37t95.5 58h1v278h-164v163h164v279h-631v-279h162v-163h-162v-278h344q-55 -39 -73 -74.5t-18 -72.5q0 -76 55.5 -121.5t168.5 -45.5q118 0 188 53t87 151z" />
    <glyph glyph-name="iogonek" unicode="&#x12f;" horiz-adv-x="394" 
d="M197 575q87 0 129 24.5t42 82.5q0 60 -44 84.5t-127 24.5q-84 0 -127.5 -24.5t-43.5 -84.5q0 -59 39 -83t132 -24zM479 -110h-219q-2 -28 -13.5 -39t-30.5 -11q-15 0 -23 6.5t-8 19.5q0 7 4.5 16t20.5 23q17 14 51.5 37t95.5 58v581q-21 -19 -60 -29.5t-101 -10.5
q-61 0 -100 10.5t-59 29.5v-581h34q-55 -39 -73 -74.5t-18 -72.5q0 -76 55.5 -121.5t168.5 -45.5q118 0 188 53t87 151z" />
    <glyph glyph-name="Idotaccent" unicode="&#x130;" horiz-adv-x="691" 
d="M30 0zM661 0v278h-164v163h164v279h-631v-279h162v-163h-162v-278h631zM347 754q52 0 81.5 9.5t41.5 36.5q7 13 10 32.5t3 45.5q0 52 -13 79t-42 36q-15 5 -35 7.5t-46 2.5q-51 0 -81 -9.5t-42 -36.5q-7 -14 -10 -33.5t-3 -45.5q0 -52 11 -79t41 -36q14 -4 35.5 -6.5
t48.5 -2.5z" />
    <glyph glyph-name="dotlessi" unicode="&#x131;" horiz-adv-x="394" 
d="M357 0v585h-320v-585h320z" />
    <glyph glyph-name="IJ" unicode="&#x132;" horiz-adv-x="1115" 
d="M645 0v278h-156v163h156v279h-615v-279h154v-163h-154v-278h615zM706 0h44q100 0 166 14.5t104 51.5q38 38 54 106.5t16 176.5v371h-320v-366q0 -34 -4.5 -50.5t-17.5 -22.5q-7 -2 -16 -3.5t-22 -1.5h-4v-276z" />
    <glyph glyph-name="ij" unicode="&#x133;" horiz-adv-x="811" 
d="M607 575q87 0 132 24.5t45 82.5q0 60 -47 84.5t-130 24.5q-84 0 -130.5 -24.5t-46.5 -84.5q0 -59 42 -83t135 -24zM202 575q87 0 132 24.5t45 82.5q0 60 -47 84.5t-130 24.5q-84 0 -130.5 -24.5t-46.5 -84.5q0 -59 42 -83t135 -24zM37 -280h452q88 0 144 10t87 35
q30 26 42 72t12 118v626q-21 -19 -63 -29.5t-104 -10.5t-103 10t-62 30v-557q0 -44 -12.5 -58t-49.5 -14h-343v-232zM37 0h332v581q-21 -19 -63 -29.5t-104 -10.5t-103 10t-62 30v-581z" />
    <glyph glyph-name="Jcircumflex" unicode="&#x134;" horiz-adv-x="807" 
d="M12 0zM390 -19q186 0 284 88.5t98 282.5v368h-320v-372q0 -56 -15.5 -76t-46.5 -20q-32 0 -47 19t-15 71v44h-316v-46q0 -133 41.5 -212t125.5 -113q42 -17 95 -25.5t116 -8.5zM664 758h194l-153 246h-176l-153 -246h189l51 100z" />
    <glyph glyph-name="jcircumflex" unicode="&#x135;" horiz-adv-x="391" 
d="M0 0zM-96 -277h181q88 0 141.5 9.5t81.5 34.5q27 24 36.5 70t9.5 118v630h-316v-561q0 -44 -12.5 -58t-49.5 -14h-72v-229zM252 623h194l-153 246h-176l-153 -246h189l51 100z" />
    <glyph glyph-name="uni0136" unicode="&#x136;" horiz-adv-x="917" 
d="M42 0zM566 0h355l-261 437l265 283h-373l-198 -222v222h-312v-720h312v188l64 71zM354 -339q94 0 146 22.5t73 65.5q10 22 15.5 48t5.5 57q0 48 -12.5 74.5t-42.5 37.5q-15 5 -35 7.5t-45 2.5q-74 0 -102 -21.5t-28 -72.5q0 -55 26 -71.5t86 -16.5q11 0 22.5 1t23.5 4
q-7 -30 -39 -42t-94 -12v-84z" />
    <glyph glyph-name="uni0137" unicode="&#x137;" horiz-adv-x="816" 
d="M36 0zM500 0h347l-223 365l217 220h-345l-138 -150l-27 -48l10 72v311h-305v-770h305v153l46 51zM311 -345q94 0 146 22.5t73 65.5q10 22 15.5 48t5.5 57q0 48 -12.5 74.5t-42.5 37.5q-15 5 -35 7.5t-45 2.5q-74 0 -102 -21.5t-28 -72.5q0 -55 26 -71.5t86 -16.5
q11 0 22.5 1t23.5 4q-7 -30 -39 -42t-94 -12v-84z" />
    <glyph glyph-name="kgreenlandic" unicode="&#x138;" horiz-adv-x="816" 
d="M500 0h347l-223 365l217 220h-345l-138 -150l-27 -48l10 72v126h-305v-585h305v153l46 51z" />
    <glyph glyph-name="Lacute" unicode="&#x139;" horiz-adv-x="726" 
d="M42 0zM705 0v291h-334v429h-329v-720h663zM92 758h200l204 218h-265z" />
    <glyph glyph-name="lacute" unicode="&#x13a;" horiz-adv-x="385" 
d="M37 0zM348 0v770h-311v-770h311zM87 808h200l204 218h-265z" />
    <glyph glyph-name="uni013B" unicode="&#x13b;" horiz-adv-x="726" 
d="M42 0zM705 0v291h-334v429h-329v-720h663zM266 -358q94 0 146 22.5t73 65.5q10 22 15.5 48t5.5 57q0 48 -12.5 74.5t-42.5 37.5q-15 5 -35 7.5t-45 2.5q-74 0 -102 -21.5t-28 -72.5q0 -55 26 -71.5t86 -16.5q11 0 22.5 1t23.5 4q-7 -30 -39 -42t-94 -12v-84z" />
    <glyph glyph-name="uni013C" unicode="&#x13c;" horiz-adv-x="385" 
d="M37 0zM348 0v770h-311v-770h311zM86 -358q94 0 146 22.5t73 65.5q10 22 15.5 48t5.5 57q0 48 -12.5 74.5t-42.5 37.5q-15 5 -35 7.5t-45 2.5q-74 0 -102 -21.5t-28 -72.5q0 -55 26 -71.5t86 -16.5q11 0 22.5 1t23.5 4q-7 -30 -39 -42t-94 -12v-84z" />
    <glyph glyph-name="Lcaron" unicode="&#x13d;" horiz-adv-x="726" 
d="M42 0zM705 0v291h-334v429h-329v-720h663zM420 501h167l153 218h-232z" />
    <glyph glyph-name="lcaron" unicode="&#x13e;" horiz-adv-x="385" 
d="M37 0zM348 0v770h-311v-770h311zM354 551h167l153 218h-232z" />
    <glyph glyph-name="Ldot" unicode="&#x13f;" horiz-adv-x="686" 
d="M665 0v301h-307v419h-316v-720h623zM539 340q52 0 81.5 9.5t41.5 36.5q7 13 10 32.5t3 45.5q0 52 -12.5 79t-42.5 36q-15 5 -35 7.5t-46 2.5q-51 0 -80.5 -9.5t-42.5 -36.5q-7 -14 -10 -33.5t-3 -45.5q0 -52 11 -79t41 -36q14 -4 35.5 -6.5t48.5 -2.5z" />
    <glyph glyph-name="ldot" unicode="&#x140;" horiz-adv-x="566" 
d="M37 0zM348 0v770h-311v-770h311z" />
    <glyph glyph-name="Lslash" unicode="&#x141;" horiz-adv-x="753" 
d="M732 0v291h-334v90l140 24l-33 187l-107 -19v147h-329v-204l-86 -15l33 -187l53 9v-323h663z" />
    <glyph glyph-name="lslash" unicode="&#x142;" horiz-adv-x="409" 
d="M360 0v263l67 16l-34 139l-33 -8v360h-311v-436l-69 -17l34 -139l35 9v-187h311z" />
    <glyph glyph-name="Nacute" unicode="&#x143;" horiz-adv-x="934" 
d="M42 0zM602 0h290v720h-301v-320l-250 320h-299v-720h302v335zM359 748h200l204 218h-265z" />
    <glyph glyph-name="nacute" unicode="&#x144;" horiz-adv-x="811" 
d="M36 0zM347 246q0 53 13.5 72.5t47.5 19.5q36 0 48 -19t12 -66v-253h308v350q0 121 -59 184.5t-174 63.5q-88 0 -138 -40t-71 -105l-33 132h-265v-585h311v246zM310 623h200l204 218h-265z" />
    <glyph glyph-name="uni0145" unicode="&#x145;" horiz-adv-x="934" 
d="M42 0zM602 0h290v720h-301v-320l-250 320h-299v-720h302v335zM372 -342q94 0 146 22.5t73 65.5q10 22 15.5 48t5.5 57q0 48 -12.5 74.5t-42.5 37.5q-15 5 -35 7.5t-45 2.5q-74 0 -102 -21.5t-28 -72.5q0 -55 26 -71.5t86 -16.5q11 0 22.5 1t23.5 4q-7 -30 -39 -42
t-94 -12v-84z" />
    <glyph glyph-name="uni0146" unicode="&#x146;" horiz-adv-x="811" 
d="M36 0zM347 246q0 53 13.5 72.5t47.5 19.5q36 0 48 -19t12 -66v-253h308v350q0 121 -59 184.5t-174 63.5q-88 0 -138 -40t-71 -105l-33 132h-265v-585h311v246zM302 -349q94 0 146 22.5t73 65.5q10 22 15.5 48t5.5 57q0 48 -12.5 74.5t-42.5 37.5q-15 5 -35 7.5t-45 2.5
q-74 0 -102 -21.5t-28 -72.5q0 -55 26 -71.5t86 -16.5q11 0 22.5 1t23.5 4q-7 -30 -39 -42t-94 -12v-84z" />
    <glyph glyph-name="Ncaron" unicode="&#x147;" horiz-adv-x="934" 
d="M42 0zM602 0h290v720h-301v-320l-250 320h-299v-720h302v335zM556 748l152 246h-189l-50 -100l-49 100h-193l153 -246h176z" />
    <glyph glyph-name="ncaron" unicode="&#x148;" horiz-adv-x="811" 
d="M36 0zM347 246q0 53 13.5 72.5t47.5 19.5q36 0 48 -19t12 -66v-253h308v350q0 121 -59 184.5t-174 63.5q-88 0 -138 -40t-71 -105l-33 132h-265v-585h311v246zM510 625l152 246h-189l-50 -100l-49 100h-193l153 -246h176z" />
    <glyph glyph-name="Eng" unicode="&#x14a;" horiz-adv-x="934" 
d="M537 -296q89 0 151 6t102 24t62 53.5t31 93.5q5 28 7 64t2 79v696h-301v-320l-250 320h-299v-720h302v334l248 -321q-2 -38 -16 -47t-58 -9h-61v-253h80z" />
    <glyph glyph-name="eng" unicode="&#x14b;" horiz-adv-x="811" 
d="M482 -286q107 0 171.5 20t93.5 72q15 26 22 63.5t7 85.5v395q0 121 -59 184.5t-174 63.5q-88 0 -138 -40t-71 -105l-33 132h-265v-585h311v246q0 53 13.5 72.5t47.5 19.5q36 0 48 -19t12 -66v-229q0 -44 -12.5 -58t-49.5 -14h-59v-238h135z" />
    <glyph glyph-name="Omacron" unicode="&#x14c;" horiz-adv-x="912" 
d="M19 0zM456 -19q136 0 233.5 41t150.5 124q27 42 40 95t13 117q0 119 -54 204.5t-151 130.5q-48 23 -104.5 34.5t-121.5 11.5q-133 0 -233 -45.5t-155 -131.5q-27 -42 -41 -93t-14 -111q0 -192 115 -284.5t322 -92.5zM456 252q-51 0 -81.5 27.5t-30.5 78.5q0 49 30.5 78.5
t81.5 29.5t81.5 -29.5t30.5 -78.5q0 -51 -30.5 -78.5t-81.5 -27.5zM276 788h373v170h-373v-170z" />
    <glyph glyph-name="omacron" unicode="&#x14d;" horiz-adv-x="825" 
d="M17 0zM412 -19q127 0 215 37.5t135 105.5q23 34 34.5 74.5t11.5 87.5q0 92 -46 162t-134 110q-44 20 -97.5 30t-116.5 10q-126 0 -214.5 -40t-135.5 -110q-24 -35 -35.5 -75.5t-11.5 -86.5q0 -94 40.5 -162.5t127.5 -105.5q43 -18 100 -27.5t127 -9.5zM412 217
q-38 0 -59.5 18t-21.5 52q0 38 21.5 57.5t59.5 19.5q37 0 59.5 -19.5t22.5 -57.5q0 -34 -22 -52t-60 -18zM227 647h373v170h-373v-170z" />
    <glyph glyph-name="Obreve" unicode="&#x14e;" horiz-adv-x="912" 
d="M19 0zM456 -19q136 0 233.5 41t150.5 124q27 42 40 95t13 117q0 119 -54 204.5t-151 130.5q-48 23 -104.5 34.5t-121.5 11.5q-133 0 -233 -45.5t-155 -131.5q-27 -42 -41 -93t-14 -111q0 -192 115 -284.5t322 -92.5zM456 252q-51 0 -81.5 27.5t-30.5 78.5q0 49 30.5 78.5
t81.5 29.5t81.5 -29.5t30.5 -78.5q0 -51 -30.5 -78.5t-81.5 -27.5zM461 775q112 0 175 55t63 167h-176q0 -34 -15 -46t-47 -12q-34 0 -48 12.5t-14 45.5h-174q0 -113 59.5 -167.5t176.5 -54.5z" />
    <glyph glyph-name="obreve" unicode="&#x14f;" horiz-adv-x="825" 
d="M17 0zM412 -19q127 0 215 37.5t135 105.5q23 34 34.5 74.5t11.5 87.5q0 92 -46 162t-134 110q-44 20 -97.5 30t-116.5 10q-126 0 -214.5 -40t-135.5 -110q-24 -35 -35.5 -75.5t-11.5 -86.5q0 -94 40.5 -162.5t127.5 -105.5q43 -18 100 -27.5t127 -9.5zM412 217
q-38 0 -59.5 18t-21.5 52q0 38 21.5 57.5t59.5 19.5q37 0 59.5 -19.5t22.5 -57.5q0 -34 -22 -52t-60 -18zM412 634q112 0 175 55t63 167h-176q0 -34 -15 -46t-47 -12q-34 0 -48 12.5t-14 45.5h-174q0 -113 59.5 -167.5t176.5 -54.5z" />
    <glyph glyph-name="Ohungarumlaut" unicode="&#x150;" horiz-adv-x="912" 
d="M19 0zM456 -19q136 0 233.5 41t150.5 124q27 42 40 95t13 117q0 119 -54 204.5t-151 130.5q-48 23 -104.5 34.5t-121.5 11.5q-133 0 -233 -45.5t-155 -131.5q-27 -42 -41 -93t-14 -111q0 -192 115 -284.5t322 -92.5zM456 252q-51 0 -81.5 27.5t-30.5 78.5q0 49 30.5 78.5
t81.5 29.5t81.5 -29.5t30.5 -78.5q0 -51 -30.5 -78.5t-81.5 -27.5zM800 991h-216l-87 -218h153zM548 991h-208l-70 -218h145z" />
    <glyph glyph-name="ohungarumlaut" unicode="&#x151;" horiz-adv-x="825" 
d="M17 0zM412 -19q127 0 215 37.5t135 105.5q23 34 34.5 74.5t11.5 87.5q0 92 -46 162t-134 110q-44 20 -97.5 30t-116.5 10q-126 0 -214.5 -40t-135.5 -110q-24 -35 -35.5 -75.5t-11.5 -86.5q0 -94 40.5 -162.5t127.5 -105.5q43 -18 100 -27.5t127 -9.5zM412 217
q-38 0 -59.5 18t-21.5 52q0 38 21.5 57.5t59.5 19.5q37 0 59.5 -19.5t22.5 -57.5q0 -34 -22 -52t-60 -18zM751 854h-216l-87 -218h153zM499 854h-208l-70 -218h145z" />
    <glyph glyph-name="OE" unicode="&#x152;" horiz-adv-x="1260" 
d="M1236 0v242h-414v53h387v144h-387v49h405v232h-622q-30 10 -65.5 14.5t-77.5 4.5q-133 0 -233 -45.5t-155 -131.5q-27 -42 -41 -93t-14 -111q0 -192 115 -284.5t322 -92.5q47 0 86.5 4.5t71.5 14.5h622zM456 252q-51 0 -81.5 27.5t-30.5 78.5q0 49 30.5 78.5t81.5 29.5
t81.5 -29.5t30.5 -78.5q0 -51 -30.5 -78.5t-81.5 -27.5z" />
    <glyph glyph-name="oe" unicode="&#x153;" horiz-adv-x="1317" 
d="M1299 198h-321q-7 -11 -22.5 -17.5t-48.5 -6.5q-48 0 -76 16t-36 47h507v51q0 64 -21.5 120t-68.5 99q-46 43 -121.5 67t-182.5 24q-91 0 -154.5 -19t-106.5 -54q-37 34 -93.5 53.5t-139.5 19.5q-126 0 -215 -40t-135 -110q-24 -35 -35.5 -75.5t-11.5 -86.5
q0 -94 40 -162.5t127 -105.5q44 -18 101 -27.5t127 -9.5q77 0 131.5 16.5t91.5 44.5q38 -28 99.5 -44.5t152.5 -16.5q188 0 286.5 54t125.5 163zM897 396q38 0 61.5 -8.5t32.5 -34.5h-190q12 22 36 32.5t60 10.5zM412 217q-40 0 -60.5 17.5t-20.5 52.5q0 39 20.5 58t60.5 19
q41 0 61.5 -19t20.5 -58q0 -35 -20.5 -52.5t-61.5 -17.5z" />
    <glyph glyph-name="Racute" unicode="&#x154;" horiz-adv-x="861" 
d="M42 0zM469 484q32 0 46 -12.5t14 -32.5q0 -21 -16 -33.5t-44 -12.5h-123v91h123zM433 177q43 0 58 -13.5t15 -52.5v-63q0 -13 6 -26.5t21 -21.5h331q-16 8 -25 23t-9 34v46q0 56 -9 93.5t-34 61.5q-12 11 -30.5 20t-43.5 15q68 26 99 71t31 111q0 83 -35 137.5t-118 80.5
q-42 14 -99.5 20.5t-130.5 6.5h-418v-720h304v177h87zM323 758h200l204 218h-265z" />
    <glyph glyph-name="racute" unicode="&#x155;" horiz-adv-x="621" 
d="M36 0zM365 0v176q0 42 8.5 65.5t32.5 33.5q12 5 29.5 7.5t40.5 2.5h126v312h-54q-97 0 -148.5 -42.5t-62.5 -146.5l-42 177h-259v-585h329zM224 623h200l204 218h-265z" />
    <glyph glyph-name="uni0156" unicode="&#x156;" horiz-adv-x="861" 
d="M42 0zM469 484q32 0 46 -12.5t14 -32.5q0 -21 -16 -33.5t-44 -12.5h-123v91h123zM433 177q43 0 58 -13.5t15 -52.5v-63q0 -13 6 -26.5t21 -21.5h331q-16 8 -25 23t-9 34v46q0 56 -9 93.5t-34 61.5q-12 11 -30.5 20t-43.5 15q68 26 99 71t31 111q0 83 -35 137.5t-118 80.5
q-42 14 -99.5 20.5t-130.5 6.5h-418v-720h304v177h87zM333 -345q94 0 146 22.5t73 65.5q10 22 15.5 48t5.5 57q0 48 -12.5 74.5t-42.5 37.5q-15 5 -35 7.5t-45 2.5q-74 0 -102 -21.5t-28 -72.5q0 -55 26 -71.5t86 -16.5q11 0 22.5 1t23.5 4q-7 -30 -39 -42t-94 -12v-84z" />
    <glyph glyph-name="uni0157" unicode="&#x157;" horiz-adv-x="621" 
d="M36 0zM365 0v176q0 42 8.5 65.5t32.5 33.5q12 5 29.5 7.5t40.5 2.5h126v312h-54q-97 0 -148.5 -42.5t-62.5 -146.5l-42 177h-259v-585h329zM100 -358q94 0 146 22.5t73 65.5q10 22 15.5 48t5.5 57q0 48 -12.5 74.5t-42.5 37.5q-15 5 -35 7.5t-45 2.5q-74 0 -102 -21.5
t-28 -72.5q0 -55 26 -71.5t86 -16.5q11 0 22.5 1t23.5 4q-7 -30 -39 -42t-94 -12v-84z" />
    <glyph glyph-name="Rcaron" unicode="&#x158;" horiz-adv-x="861" 
d="M42 0zM469 484q32 0 46 -12.5t14 -32.5q0 -21 -16 -33.5t-44 -12.5h-123v91h123zM433 177q43 0 58 -13.5t15 -52.5v-63q0 -13 6 -26.5t21 -21.5h331q-16 8 -25 23t-9 34v46q0 56 -9 93.5t-34 61.5q-12 11 -30.5 20t-43.5 15q68 26 99 71t31 111q0 83 -35 137.5t-118 80.5
q-42 14 -99.5 20.5t-130.5 6.5h-418v-720h304v177h87zM520 758l152 246h-189l-50 -100l-49 100h-193l153 -246h176z" />
    <glyph glyph-name="rcaron" unicode="&#x159;" horiz-adv-x="621" 
d="M36 0zM365 0v176q0 42 8.5 65.5t32.5 33.5q12 5 29.5 7.5t40.5 2.5h126v312h-54q-97 0 -148.5 -42.5t-62.5 -146.5l-42 177h-259v-585h329zM421 623l152 246h-189l-50 -100l-49 100h-193l153 -246h176z" />
    <glyph glyph-name="Sacute" unicode="&#x15a;" horiz-adv-x="870" 
d="M2 0zM444 -21q146 0 237 33.5t134 92.5q21 29 31.5 62.5t10.5 70.5q0 79 -37.5 126t-110.5 71q-36 12 -80.5 19.5t-97.5 11.5q-84 6 -125.5 10.5t-55.5 10.5q-6 2 -9.5 6t-3.5 8q0 11 15 20t56 9q47 0 75 -11t36 -33h330q-26 95 -81 151.5t-142 81.5q-43 12 -95 18.5
t-113 6.5q-124 0 -213 -31.5t-137 -91.5q-24 -30 -36 -65.5t-12 -77.5q0 -108 79.5 -159t239.5 -62q87 -6 130.5 -11t57.5 -12q8 -3 11.5 -7t3.5 -10q0 -12 -15.5 -18.5t-53.5 -6.5q-39 0 -75 10t-44 35h-352q13 -82 57.5 -139.5t136.5 -88.5q46 -15 108 -22.5t140 -7.5z
M312 782h200l204 218h-265z" />
    <glyph glyph-name="sacute" unicode="&#x15b;" horiz-adv-x="775" 
d="M0 0zM384 -19q141 0 225.5 28t121.5 78q18 25 27.5 54.5t9.5 62.5q0 58 -31.5 94.5t-102.5 55.5q-35 10 -82.5 16.5t-107.5 9.5q-59 3 -100.5 9.5t-41.5 19.5q0 9 11.5 14.5t45.5 5.5q39 0 67 -7.5t39 -27.5h303q-38 107 -133 155.5t-267 48.5q-175 0 -264.5 -55.5
t-89.5 -159.5q0 -61 30.5 -97.5t99.5 -54.5q34 -9 81 -15t105 -10q86 -5 116.5 -11.5t30.5 -17.5q0 -7 -12 -13.5t-44 -6.5q-49 0 -75.5 6.5t-37.5 28.5h-316q15 -82 69.5 -128t137.5 -64q41 -10 87.5 -14.5t97.5 -4.5zM276 636h200l204 218h-265z" />
    <glyph glyph-name="Scircumflex" unicode="&#x15c;" horiz-adv-x="870" 
d="M2 0zM444 -21q146 0 237 33.5t134 92.5q21 29 31.5 62.5t10.5 70.5q0 79 -37.5 126t-110.5 71q-36 12 -80.5 19.5t-97.5 11.5q-84 6 -125.5 10.5t-55.5 10.5q-6 2 -9.5 6t-3.5 8q0 11 15 20t56 9q47 0 75 -11t36 -33h330q-26 95 -81 151.5t-142 81.5q-43 12 -95 18.5
t-113 6.5q-124 0 -213 -31.5t-137 -91.5q-24 -30 -36 -65.5t-12 -77.5q0 -108 79.5 -159t239.5 -62q87 -6 130.5 -11t57.5 -12q8 -3 11.5 -7t3.5 -10q0 -12 -15.5 -18.5t-53.5 -6.5q-39 0 -75 10t-44 35h-352q13 -82 57.5 -139.5t136.5 -88.5q46 -15 108 -22.5t140 -7.5z
M476 778h194l-153 246h-176l-153 -246h189l51 100z" />
    <glyph glyph-name="scircumflex" unicode="&#x15d;" horiz-adv-x="775" 
d="M0 0zM384 -19q141 0 225.5 28t121.5 78q18 25 27.5 54.5t9.5 62.5q0 58 -31.5 94.5t-102.5 55.5q-35 10 -82.5 16.5t-107.5 9.5q-59 3 -100.5 9.5t-41.5 19.5q0 9 11.5 14.5t45.5 5.5q39 0 67 -7.5t39 -27.5h303q-38 107 -133 155.5t-267 48.5q-175 0 -264.5 -55.5
t-89.5 -159.5q0 -61 30.5 -97.5t99.5 -54.5q34 -9 81 -15t105 -10q86 -5 116.5 -11.5t30.5 -17.5q0 -7 -12 -13.5t-44 -6.5q-49 0 -75.5 6.5t-37.5 28.5h-316q15 -82 69.5 -128t137.5 -64q41 -10 87.5 -14.5t97.5 -4.5zM432 630h194l-153 246h-176l-153 -246h189l51 100z
" />
    <glyph glyph-name="uni015E" unicode="&#x15e;" horiz-adv-x="870" 
d="M448 -349q118 0 180.5 47t62.5 123t-43 103.5t-126 30.5v27q118 9 192 44t108 89q18 28 26.5 58.5t8.5 64.5q0 79 -37.5 126t-110.5 71q-36 12 -80.5 19.5t-97.5 11.5q-84 6 -125.5 10.5t-55.5 10.5q-6 2 -9.5 6t-3.5 8q0 11 15 20t56 9q47 0 75 -11t36 -33h330
q-26 95 -81 151.5t-142 81.5q-43 12 -95 18.5t-113 6.5q-124 0 -213 -31.5t-137 -91.5q-24 -30 -36 -65.5t-12 -77.5q0 -108 79.5 -159t239.5 -62q87 -6 130.5 -11t57.5 -12q8 -3 11.5 -7t3.5 -10q0 -12 -15.5 -18.5t-53.5 -6.5q-39 0 -75 10t-44 35h-352q11 -73 47 -126.5
t108 -86.5q36 -16 83.5 -26.5t106.5 -14.5v-134h116q28 0 38 -6t10 -21t-12.5 -24t-41.5 -9t-43 7t-22 27h-206q24 -92 90.5 -132t171.5 -40z" />
    <glyph glyph-name="uni015F" unicode="&#x15f;" horiz-adv-x="775" 
d="M417 -347q118 0 180.5 47t62.5 123t-43 103.5t-126 30.5v29q101 10 161.5 40t88.5 75q13 23 20 48.5t7 54.5q0 58 -31.5 94.5t-102.5 55.5q-35 10 -82.5 16.5t-107.5 9.5q-59 3 -100.5 9.5t-41.5 19.5q0 9 11.5 14.5t45.5 5.5q39 0 67 -7.5t39 -27.5h303
q-38 107 -133 155.5t-267 48.5q-175 0 -264.5 -55.5t-89.5 -159.5q0 -61 30.5 -97.5t99.5 -54.5q34 -9 81 -15t105 -10q86 -5 116.5 -11.5t30.5 -17.5q0 -7 -12 -13.5t-44 -6.5q-49 0 -75.5 6.5t-37.5 28.5h-316q14 -73 58 -117t113 -65q34 -11 72.5 -18t80.5 -9v-132h116
q28 0 38 -6t10 -21t-12.5 -24t-41.5 -9t-43 7t-22 27h-206q24 -92 90.5 -132t171.5 -40z" />
    <glyph glyph-name="Scaron" unicode="&#x160;" horiz-adv-x="870" 
d="M2 0zM444 -21q146 0 237 33.5t134 92.5q21 29 31.5 62.5t10.5 70.5q0 79 -37.5 126t-110.5 71q-36 12 -80.5 19.5t-97.5 11.5q-84 6 -125.5 10.5t-55.5 10.5q-6 2 -9.5 6t-3.5 8q0 11 15 20t56 9q47 0 75 -11t36 -33h330q-26 95 -81 151.5t-142 81.5q-43 12 -95 18.5
t-113 6.5q-124 0 -213 -31.5t-137 -91.5q-24 -30 -36 -65.5t-12 -77.5q0 -108 79.5 -159t239.5 -62q87 -6 130.5 -11t57.5 -12q8 -3 11.5 -7t3.5 -10q0 -12 -15.5 -18.5t-53.5 -6.5q-39 0 -75 10t-44 35h-352q13 -82 57.5 -139.5t136.5 -88.5q46 -15 108 -22.5t140 -7.5z
M509 782l152 246h-189l-50 -100l-49 100h-193l153 -246h176z" />
    <glyph glyph-name="scaron" unicode="&#x161;" horiz-adv-x="775" 
d="M0 0zM384 -19q141 0 225.5 28t121.5 78q18 25 27.5 54.5t9.5 62.5q0 58 -31.5 94.5t-102.5 55.5q-35 10 -82.5 16.5t-107.5 9.5q-59 3 -100.5 9.5t-41.5 19.5q0 9 11.5 14.5t45.5 5.5q39 0 67 -7.5t39 -27.5h303q-38 107 -133 155.5t-267 48.5q-175 0 -264.5 -55.5
t-89.5 -159.5q0 -61 30.5 -97.5t99.5 -54.5q34 -9 81 -15t105 -10q86 -5 116.5 -11.5t30.5 -17.5q0 -7 -12 -13.5t-44 -6.5q-49 0 -75.5 6.5t-37.5 28.5h-316q15 -82 69.5 -128t137.5 -64q41 -10 87.5 -14.5t97.5 -4.5zM473 636l152 246h-189l-50 -100l-49 100h-193
l153 -246h176z" />
    <glyph glyph-name="uni0162" unicode="&#x162;" horiz-adv-x="786" 
d="M23 0zM763 443v277h-740v-277h208v-443h320v443h212zM282 -358q94 0 146 22.5t73 65.5q10 22 15.5 48t5.5 57q0 48 -12.5 74.5t-42.5 37.5q-15 5 -35 7.5t-45 2.5q-74 0 -102 -21.5t-28 -72.5q0 -55 26 -71.5t86 -16.5q11 0 22.5 1t23.5 4q-7 -30 -39 -42t-94 -12v-84z
" />
    <glyph glyph-name="uni0163" unicode="&#x163;" horiz-adv-x="623" 
d="M12 0zM596 242h-111q-46 0 -59.5 14t-13.5 51v29h185v249h-185v164h-229q-2 -28 -6 -53.5t-13 -48.5q-10 -25 -24 -38.5t-38 -23.5q-18 -7 -38 -10.5t-52 -5.5v-233h110v-46q0 -101 24 -165.5t85 -94.5q30 -15 73 -22.5t99 -7.5h193v242zM238 -347q94 0 146 22.5t73 65.5
q10 22 15.5 48t5.5 57q0 48 -12.5 74.5t-42.5 37.5q-15 5 -35 7.5t-45 2.5q-74 0 -102 -21.5t-28 -72.5q0 -55 26 -71.5t86 -16.5q11 0 22.5 1t23.5 4q-7 -30 -39 -42t-94 -12v-84z" />
    <glyph glyph-name="Tcaron" unicode="&#x164;" horiz-adv-x="786" 
d="M23 0zM763 443v277h-740v-277h208v-443h320v443h212zM483 758l152 246h-189l-50 -100l-49 100h-193l153 -246h176z" />
    <glyph glyph-name="tcaron" unicode="&#x165;" horiz-adv-x="623" 
d="M12 0zM596 242h-111q-46 0 -59.5 14t-13.5 51v29h185v249h-185v164h-229q-2 -28 -6 -53.5t-13 -48.5q-10 -25 -24 -38.5t-38 -23.5q-18 -7 -38 -10.5t-52 -5.5v-233h110v-46q0 -101 24 -165.5t85 -94.5q30 -15 73 -22.5t99 -7.5h193v242zM448 627h167l153 218h-232z" />
    <glyph glyph-name="Tbar" unicode="&#x166;" horiz-adv-x="786" 
d="M662 147v221h-111v75h212v277h-740v-277h208v-75h-111v-221h111v-147h320v147h111z" />
    <glyph glyph-name="tbar" unicode="&#x167;" horiz-adv-x="623" 
d="M596 242h-107q-37 0 -55.5 6t-25.5 20h150v42h-156v26h195v249h-195v164h-222q-4 -28 -10 -52t-16 -43q-11 -20 -25.5 -36.5t-32.5 -28.5t-36.5 -18.5t-47.5 -11.5v-223h100v-26h-77v-42h78q4 -90 34 -149.5t97 -88.5q34 -15 80.5 -22.5t105.5 -7.5h166v242z" />
    <glyph glyph-name="Utilde" unicode="&#x168;" horiz-adv-x="878" 
d="M35 0zM438 -19q197 0 301 91.5t104 296.5v351h-325v-351q0 -58 -20 -81.5t-58 -23.5q-40 0 -60 23.5t-20 81.5v351h-325v-351q0 -133 38.5 -219t126.5 -128q44 -20 103.5 -30.5t134.5 -10.5zM167 762h161q0 27 6 37t23 10q26 0 55 -13t65 -26q18 -6 38.5 -9.5t43.5 -3.5
q87 0 123 52.5t36 176.5h-160q0 -25 -7 -33t-26 -8q-20 0 -48.5 12t-65.5 23q-18 6 -39 9t-44 3q-87 0 -124 -54t-37 -176z" />
    <glyph glyph-name="utilde" unicode="&#x169;" horiz-adv-x="803" 
d="M35 0zM499 0h264v585h-311v-252q0 -49 -12.5 -68t-45.5 -19q-34 0 -44.5 19t-10.5 66v254h-304v-350q0 -121 54.5 -184.5t170.5 -63.5q89 0 138 41.5t68 106.5zM126 627h161q0 27 6 37t23 10q26 0 55 -13t65 -26q18 -6 38.5 -9.5t43.5 -3.5q87 0 123 52.5t36 176.5h-160
q0 -25 -7 -33t-26 -8q-20 0 -48.5 12t-65.5 23q-18 6 -39 9t-44 3q-87 0 -124 -54t-37 -176z" />
    <glyph glyph-name="Umacron" unicode="&#x16a;" horiz-adv-x="878" 
d="M35 0zM438 -19q197 0 301 91.5t104 296.5v351h-325v-351q0 -58 -20 -81.5t-58 -23.5q-40 0 -60 23.5t-20 81.5v351h-325v-351q0 -133 38.5 -219t126.5 -128q44 -20 103.5 -30.5t134.5 -10.5zM254 769h373v170h-373v-170z" />
    <glyph glyph-name="umacron" unicode="&#x16b;" horiz-adv-x="799" 
d="M35 0zM499 0h264v585h-311v-252q0 -49 -12.5 -68t-45.5 -19q-34 0 -44.5 19t-10.5 66v254h-304v-350q0 -121 54.5 -184.5t170.5 -63.5q89 0 138 41.5t68 106.5zM213 634h373v170h-373v-170z" />
    <glyph glyph-name="Ubreve" unicode="&#x16c;" horiz-adv-x="878" 
d="M35 0zM438 -19q197 0 301 91.5t104 296.5v351h-325v-351q0 -58 -20 -81.5t-58 -23.5q-40 0 -60 23.5t-20 81.5v351h-325v-351q0 -133 38.5 -219t126.5 -128q44 -20 103.5 -30.5t134.5 -10.5zM439 756q112 0 175 55t63 167h-176q0 -34 -15 -46t-47 -12q-34 0 -48 12.5
t-14 45.5h-174q0 -113 59.5 -167.5t176.5 -54.5z" />
    <glyph glyph-name="ubreve" unicode="&#x16d;" horiz-adv-x="799" 
d="M35 0zM499 0h264v585h-311v-252q0 -49 -12.5 -68t-45.5 -19q-34 0 -44.5 19t-10.5 66v254h-304v-350q0 -121 54.5 -184.5t170.5 -63.5q89 0 138 41.5t68 106.5zM398 621q112 0 175 55t63 167h-176q0 -34 -15 -46t-47 -12q-34 0 -48 12.5t-14 45.5h-174
q0 -113 59.5 -167.5t176.5 -54.5z" />
    <glyph glyph-name="Uring" unicode="&#x16e;" horiz-adv-x="878" 
d="M35 0zM438 -19q197 0 301 91.5t104 296.5v351h-325v-351q0 -58 -20 -81.5t-58 -23.5q-40 0 -60 23.5t-20 81.5v351h-325v-351q0 -133 38.5 -219t126.5 -128q44 -20 103.5 -30.5t134.5 -10.5zM437 757q98 0 153.5 45t55.5 124q0 80 -57.5 125.5t-149.5 45.5
q-58 0 -104.5 -19.5t-74.5 -58.5q-13 -19 -20 -43t-7 -53q0 -82 55 -124t149 -42zM440 893q-21 0 -29.5 10t-8.5 24t8.5 23.5t29.5 9.5q22 0 30 -9.5t8 -23.5t-8 -24t-30 -10z" />
    <glyph glyph-name="uring" unicode="&#x16f;" horiz-adv-x="803" 
d="M35 0zM499 0h264v585h-311v-252q0 -49 -12.5 -68t-45.5 -19q-34 0 -44.5 19t-10.5 66v254h-304v-350q0 -121 54.5 -184.5t170.5 -63.5q89 0 138 41.5t68 106.5zM400 626q98 0 153.5 45t55.5 124q0 80 -57.5 125.5t-149.5 45.5q-58 0 -104.5 -19.5t-74.5 -58.5
q-13 -19 -20 -43t-7 -53q0 -82 55 -124t149 -42zM403 762q-21 0 -29.5 10t-8.5 24t8.5 23.5t29.5 9.5q22 0 30 -9.5t8 -23.5t-8 -24t-30 -10z" />
    <glyph glyph-name="Uhungarumlaut" unicode="&#x170;" horiz-adv-x="878" 
d="M35 0zM438 -19q197 0 301 91.5t104 296.5v351h-325v-351q0 -58 -20 -81.5t-58 -23.5q-40 0 -60 23.5t-20 81.5v351h-325v-351q0 -133 38.5 -219t126.5 -128q44 -20 103.5 -30.5t134.5 -10.5zM778 976h-216l-87 -218h153zM526 976h-208l-70 -218h145z" />
    <glyph glyph-name="uhungarumlaut" unicode="&#x171;" horiz-adv-x="799" 
d="M35 0zM499 0h264v585h-311v-252q0 -49 -12.5 -68t-45.5 -19q-34 0 -44.5 19t-10.5 66v254h-304v-350q0 -121 54.5 -184.5t170.5 -63.5q89 0 138 41.5t68 106.5zM737 841h-216l-87 -218h153zM485 841h-208l-70 -218h145z" />
    <glyph glyph-name="Uogonek" unicode="&#x172;" horiz-adv-x="878" 
d="M521 -283q118 0 188 53t87 151h-219q-2 -28 -13.5 -39t-30.5 -11q-15 0 -23 6.5t-8 19.5q0 7 4 15.5t18 20.5q14 13 43.5 33t80.5 50q96 39 145.5 125.5t49.5 227.5v351h-325v-351q0 -58 -20 -81.5t-58 -23.5q-40 0 -60 23.5t-20 81.5v351h-325v-351q0 -117 29.5 -197.5
t95.5 -126.5q33 -23 77.5 -37.5t99.5 -21.5q-23 -26 -31.5 -51t-8.5 -51q0 -76 55.5 -121.5t168.5 -45.5z" />
    <glyph glyph-name="uogonek" unicode="&#x173;" horiz-adv-x="799" 
d="M885 -110h-219q-2 -28 -13.5 -39t-30.5 -11q-15 0 -23 6.5t-8 19.5q0 7 4.5 16t20.5 23q17 14 51.5 37t95.5 58v585h-311v-252q0 -49 -12.5 -68t-45.5 -19q-34 0 -44.5 19t-10.5 66v254h-304v-350q0 -121 54.5 -184.5t170.5 -63.5q89 0 138 41.5t68 106.5l30 -122
q-67 -43 -88.5 -81.5t-21.5 -78.5q0 -76 55.5 -121.5t168.5 -45.5q118 0 188 53t87 151z" />
    <glyph glyph-name="Wcircumflex" unicode="&#x174;" horiz-adv-x="1282" 
d="M0 0zM742 0h299l271 720h-324l-110 -323l-111 323h-256l-127 -323l-86 323h-328l222 -720h296l139 339zM696 758h194l-153 246h-176l-153 -246h189l51 100z" />
    <glyph glyph-name="wcircumflex" unicode="&#x175;" horiz-adv-x="1106" 
d="M0 0zM629 0h266l233 585h-298l-92 -251l-99 251h-187l-107 -249l-71 249h-300l189 -585h278l100 227zM596 623h194l-153 246h-176l-153 -246h189l51 100z" />
    <glyph glyph-name="Ycircumflex" unicode="&#x176;" horiz-adv-x="763" 
d="M0 0zM538 0v281l278 439h-332l-102 -174l-101 174h-334l271 -440v-280h320zM430 758h194l-153 246h-176l-153 -246h189l51 100z" />
    <glyph glyph-name="ycircumflex" unicode="&#x177;" horiz-adv-x="782" 
d="M0 0zM224 -233q65 0 109 8t76 33q33 24 63.5 73t69.5 131l274 573h-317l-92 -224l-12 -41l-10 41l-89 224h-330l269 -550q-11 -22 -24.5 -28.5t-48.5 -6.5h-107v-233h169zM438 623h194l-153 246h-176l-153 -246h189l51 100z" />
    <glyph glyph-name="Ydieresis" unicode="&#x178;" horiz-adv-x="763" 
d="M0 0zM538 0v281l278 439h-332l-102 -174l-101 174h-334l271 -440v-280h320zM249 754q65 0 89.5 22.5t24.5 83.5q0 65 -26 87t-88 22t-87 -22t-25 -87q0 -42 9 -65t33 -32q12 -4 29.5 -6.5t40.5 -2.5zM510 754q65 0 89.5 22.5t24.5 83.5q0 65 -25.5 87t-88.5 22
q-64 0 -88 -22t-24 -87q0 -42 9.5 -65t33.5 -32q12 -4 29.5 -6.5t39.5 -2.5z" />
    <glyph glyph-name="Zacute" unicode="&#x179;" horiz-adv-x="848" 
d="M31 0zM816 0v261h-315l313 253v206h-762v-258h323l-344 -274v-188h785zM339 758h200l204 218h-265z" />
    <glyph glyph-name="zacute" unicode="&#x17a;" horiz-adv-x="746" 
d="M20 0zM725 0l1 217h-266l264 163v205h-688v-214h273l-289 -183v-188h705zM273 623h200l204 218h-265z" />
    <glyph glyph-name="Zdotaccent" unicode="&#x17b;" horiz-adv-x="848" 
d="M31 0zM816 0v261h-315l313 253v206h-762v-258h323l-344 -274v-188h785zM447 754q52 0 81.5 9.5t41.5 36.5q7 13 10 32.5t3 45.5q0 52 -13 79t-42 36q-15 5 -35 7.5t-46 2.5q-51 0 -81 -9.5t-42 -36.5q-7 -14 -10 -33.5t-3 -45.5q0 -52 11 -79t41 -36q14 -4 35.5 -6.5
t48.5 -2.5z" />
    <glyph glyph-name="zdotaccent" unicode="&#x17c;" horiz-adv-x="746" 
d="M20 0zM725 0l1 217h-266l264 163v205h-688v-214h273l-289 -183v-188h705zM381 619q52 0 81.5 9.5t41.5 36.5q7 13 10 32.5t3 45.5q0 52 -13 79t-42 36q-15 5 -35 7.5t-46 2.5q-51 0 -81 -9.5t-42 -36.5q-7 -14 -10 -33.5t-3 -45.5q0 -52 11 -79t41 -36q14 -4 35.5 -6.5
t48.5 -2.5z" />
    <glyph glyph-name="Zcaron" unicode="&#x17d;" horiz-adv-x="848" 
d="M31 0zM816 0v261h-315l313 253v206h-762v-258h323l-344 -274v-188h785zM536 758l152 246h-189l-50 -100l-49 100h-193l153 -246h176z" />
    <glyph glyph-name="zcaron" unicode="&#x17e;" horiz-adv-x="746" 
d="M20 0zM725 0l1 217h-266l264 163v205h-688v-214h273l-289 -183v-188h705zM470 623l152 246h-189l-50 -100l-49 100h-193l153 -246h176z" />
    <glyph glyph-name="uni0192" unicode="&#x192;" horiz-adv-x="560" 
d="M421 7l1 156h126v255h-125v36q0 44 12.5 58t49.5 14h65v238h-111q-160 0 -233.5 -62t-73.5 -201v-83h-122v-255h120v-109q0 -43 -12 -57.5t-50 -14.5h-56v-238h102q161 0 234 62t73 201z" />
    <glyph glyph-name="Aringacute" unicode="&#x1fa;" horiz-adv-x="871" 
d="M341 968h200l204 218h-265zM439 736q-21 0 -29.5 10t-8.5 24t8.5 23.5t29.5 9.5q22 0 30 -9.5t8 -23.5t-8 -24t-30 -10zM431 432l7 33l7 -34l44 -137h-103zM319 90h235l29 -90h323l-273 703q6 15 9 31.5t3 34.5q0 80 -57.5 125.5t-149.5 45.5q-58 0 -104.5 -19.5
t-74.5 -58.5q-13 -19 -20 -43t-7 -53q0 -20 3.5 -37.5t9.5 -31.5l-279 -697h324z" />
    <glyph glyph-name="aringacute" unicode="&#x1fb;" horiz-adv-x="835" 
d="M13 0zM370 158q-18 0 -26 7t-8 16q0 8 4 13.5t10 9.5t19 8.5t42 10.5q31 8 52.5 15t34.5 17v-9q0 -24 -19.5 -44t-48.5 -32q-15 -6 -30 -9t-30 -3zM529 0h271v329q0 139 -88 204t-280 65q-177 0 -282 -58t-118 -177h317q0 16 21.5 28t68.5 12q37 0 48 -6t11 -17
q0 -10 -12.5 -16t-49.5 -11q-19 -2 -47 -5t-65 -7q-54 -6 -93 -12t-68 -15q-15 -4 -29.5 -9.5t-28.5 -12.5q-46 -22 -69 -59.5t-23 -90.5q0 -78 53 -119.5t168 -41.5q102 0 167.5 31.5t96.5 83.5zM337 982h200l204 218h-265zM428 621q98 0 153.5 45t55.5 124
q0 80 -57.5 125.5t-149.5 45.5q-58 0 -104.5 -19.5t-74.5 -58.5q-13 -19 -20 -43t-7 -53q0 -82 55 -124t149 -42zM431 757q-21 0 -29.5 10t-8.5 24t8.5 23.5t29.5 9.5q22 0 30 -9.5t8 -23.5t-8 -24t-30 -10z" />
    <glyph glyph-name="AEacute" unicode="&#x1fc;" horiz-adv-x="1228" 
d="M0 0zM510 432l12 33l2 -34l30 -137h-114zM618 0h586v242h-340l-15 53h328v144h-367l-14 49h399v232h-828l-407 -720h332l45 90h261zM468 758h200l204 218h-265z" />
    <glyph glyph-name="Oslashacute" unicode="&#x1fe;" horiz-adv-x="912" 
d="M19 0zM410 -135l47 116q135 0 233 41t150 124q27 42 40 95t13 117q0 86 -29.5 155t-82.5 118l87 205h-333l-39 -98q-8 1 -17 1h-17q-133 0 -233 -45.5t-155 -131.5q-27 -42 -41 -93t-14 -111q0 -102 33.5 -175.5t96.5 -120.5l-86 -197h347zM456 252q-51 0 -81.5 27.5
t-30.5 78.5q0 49 30.5 78.5t81.5 29.5t81.5 -29.5t30.5 -78.5q0 -51 -30.5 -78.5t-81.5 -27.5zM262 790h200l204 218h-265z" />
    <glyph glyph-name="oslashacute" unicode="&#x1ff;" horiz-adv-x="825" 
d="M17 0zM412 217q-38 0 -59.5 18t-21.5 52q0 38 21.5 57.5t59.5 19.5q37 0 59.5 -19.5t22.5 -57.5q0 -34 -22 -52t-60 -18zM412 -19q127 0 215 37.5t135 105.5q23 34 34.5 74.5t11.5 87.5q0 70 -25.5 126t-76.5 98l93 149h-269l-41 -65q-18 2 -36.5 3t-38.5 1
q-126 0 -214.5 -40t-135.5 -110q-24 -35 -35.5 -75.5t-11.5 -86.5q0 -75 25.5 -134t79.5 -99l-90 -142h268l46 72q16 -1 32.5 -1.5t33.5 -0.5zM265 648h200l204 218h-265z" />
    <glyph glyph-name="uni0218" unicode="&#x218;" horiz-adv-x="870" 
d="M2 0zM444 -21q146 0 237 33.5t134 92.5q21 29 31.5 62.5t10.5 70.5q0 79 -37.5 126t-110.5 71q-36 12 -80.5 19.5t-97.5 11.5q-84 6 -125.5 10.5t-55.5 10.5q-6 2 -9.5 6t-3.5 8q0 11 15 20t56 9q47 0 75 -11t36 -33h330q-26 95 -81 151.5t-142 81.5q-43 12 -95 18.5
t-113 6.5q-124 0 -213 -31.5t-137 -91.5q-24 -30 -36 -65.5t-12 -77.5q0 -108 79.5 -159t239.5 -62q87 -6 130.5 -11t57.5 -12q8 -3 11.5 -7t3.5 -10q0 -12 -15.5 -18.5t-53.5 -6.5q-39 0 -75 10t-44 35h-352q13 -82 57.5 -139.5t136.5 -88.5q46 -15 108 -22.5t140 -7.5z
M341 -378q94 0 146 22.5t73 65.5q10 22 15.5 48t5.5 57q0 48 -12.5 74.5t-42.5 37.5q-15 5 -35 7.5t-45 2.5q-74 0 -102 -21.5t-28 -72.5q0 -55 26 -71.5t86 -16.5q11 0 22.5 1t23.5 4q-7 -30 -39 -42t-94 -12v-84z" />
    <glyph glyph-name="uni0219" unicode="&#x219;" horiz-adv-x="775" 
d="M0 0zM384 -19q141 0 225.5 28t121.5 78q18 25 27.5 54.5t9.5 62.5q0 58 -31.5 94.5t-102.5 55.5q-35 10 -82.5 16.5t-107.5 9.5q-59 3 -100.5 9.5t-41.5 19.5q0 9 11.5 14.5t45.5 5.5q39 0 67 -7.5t39 -27.5h303q-38 107 -133 155.5t-267 48.5q-175 0 -264.5 -55.5
t-89.5 -159.5q0 -61 30.5 -97.5t99.5 -54.5q34 -9 81 -15t105 -10q86 -5 116.5 -11.5t30.5 -17.5q0 -7 -12 -13.5t-44 -6.5q-49 0 -75.5 6.5t-37.5 28.5h-316q15 -82 69.5 -128t137.5 -64q41 -10 87.5 -14.5t97.5 -4.5zM298 -377q94 0 146 22.5t73 65.5q10 22 15.5 48
t5.5 57q0 48 -12.5 74.5t-42.5 37.5q-15 5 -35 7.5t-45 2.5q-74 0 -102 -21.5t-28 -72.5q0 -55 26 -71.5t86 -16.5q11 0 22.5 1t23.5 4q-7 -30 -39 -42t-94 -12v-84z" />
    <glyph glyph-name="uni0237" unicode="&#x237;" horiz-adv-x="391" 
d="M-96 -277h181q88 0 141.5 9.5t81.5 34.5q27 24 36.5 70t9.5 118v630h-316v-561q0 -44 -12.5 -58t-49.5 -14h-72v-229z" />
    <glyph glyph-name="uni0245" unicode="&#x245;" horiz-adv-x="871" 
d="M431 426l7 34l7 -35l136 -425h325l-280 720h-372l-288 -720h326z" />
    <glyph glyph-name="circumflex" unicode="&#x2c6;" 
d="M349 663h194l-153 246h-176l-153 -246h189l51 100z" />
    <glyph glyph-name="caron" unicode="&#x2c7;" 
d="M389 663l152 246h-189l-50 -100l-49 100h-193l153 -246h176z" />
    <glyph glyph-name="breve" unicode="&#x2d8;" 
d="M298 661q112 0 175 55t63 167h-176q0 -34 -15 -46t-47 -12q-34 0 -48 12.5t-14 45.5h-174q0 -113 59.5 -167.5t176.5 -54.5z" />
    <glyph glyph-name="dotaccent" unicode="&#x2d9;" 
d="M298 659q52 0 81.5 9.5t41.5 36.5q7 13 10 32.5t3 45.5q0 52 -13 79t-42 36q-15 5 -35 7.5t-46 2.5q-51 0 -81 -9.5t-42 -36.5q-7 -14 -10 -33.5t-3 -45.5q0 -52 11 -79t41 -36q14 -4 35.5 -6.5t48.5 -2.5z" />
    <glyph glyph-name="ring" unicode="&#x2da;" 
d="M300 656q98 0 153.5 45t55.5 124q0 80 -57.5 125.5t-149.5 45.5q-58 0 -104.5 -19.5t-74.5 -58.5q-13 -19 -20 -43t-7 -53q0 -82 55 -124t149 -42zM303 792q-21 0 -29.5 10t-8.5 24t8.5 23.5t29.5 9.5q22 0 30 -9.5t8 -23.5t-8 -24t-30 -10z" />
    <glyph glyph-name="ogonek" unicode="&#x2db;" 
d="M283 -314q118 0 188 53t87 151h-219q-2 -28 -13.5 -39t-30.5 -11q-15 0 -23 6.5t-8 19.5q0 7 4.5 16t20.5 23q17 14 51.5 37t95.5 58l-171 65q-85 -40 -129.5 -75.5t-60.5 -68.5q-8 -17 -12 -34t-4 -34q0 -76 55.5 -121.5t168.5 -45.5z" />
    <glyph glyph-name="tilde" unicode="&#x2dc;" 
d="M38 667h161q0 27 6 37t23 10q26 0 55 -13t65 -26q18 -6 38.5 -9.5t43.5 -3.5q87 0 123 52.5t36 176.5h-160q0 -25 -7 -33t-26 -8q-20 0 -48.5 12t-65.5 23q-18 6 -39 9t-44 3q-87 0 -124 -54t-37 -176z" />
    <glyph glyph-name="hungarumlaut" unicode="&#x2dd;" 
d="M595 881h-216l-87 -218h153zM343 881h-208l-70 -218h145z" />
    <glyph glyph-name="uni03BC" unicode="&#x3bc;" horiz-adv-x="813" 
d="M396 -14q35 0 57 21t32 70l21 -77h268v585h-311v-223q0 -54 -11.5 -86t-52.5 -32q-40 0 -50.5 30t-10.5 79v232h-305v-800h302v224q10 -12 25.5 -17.5t35.5 -5.5z" />
    <glyph glyph-name="pi" unicode="&#x3c0;" horiz-adv-x="973" 
d="M545 251q0 -96 24 -151t84 -77q30 -12 72 -17.5t95 -5.5h130v248h-57q-37 0 -49.5 14t-12.5 57v127h119v274h-927v-274h122v-446h286v446h114v-195z" />
    <glyph glyph-name="uni0E3F" unicode="&#xe3f;" horiz-adv-x="992" 
d="M614 0q175 0 271 49t96 160q0 73 -42 111t-132 54q72 15 112 50.5t40 99.5q0 67 -35 110t-114 65q-39 10 -91.5 15.5t-118.5 5.5h-44v113h-132v-113h-382v-720h382v-119h132v119h58zM567 504q35 0 48 -11.5t12 -24.5q0 -13 -12 -25.5t-48 -12.5h-11v74h11zM356 430v74h68
v-74h-68zM562 300q45 0 60.5 -10.5t15.5 -26.5t-14.5 -28t-61.5 -12h-6v77h6zM356 223v77h68v-77h-68z" />
    <glyph glyph-name="Wgrave" unicode="&#x1e80;" horiz-adv-x="1282" 
d="M0 0zM742 0h299l271 720h-324l-110 -323l-111 323h-256l-127 -323l-86 323h-328l222 -720h296l139 339zM559 758h185l-111 218h-266z" />
    <glyph glyph-name="wgrave" unicode="&#x1e81;" horiz-adv-x="1106" 
d="M0 0zM629 0h266l233 585h-298l-92 -251l-99 251h-187l-107 -249l-71 249h-300l189 -585h278l100 227zM459 623h185l-111 218h-266z" />
    <glyph glyph-name="Wacute" unicode="&#x1e82;" horiz-adv-x="1282" 
d="M0 0zM742 0h299l271 720h-324l-110 -323l-111 323h-256l-127 -323l-86 323h-328l222 -720h296l139 339zM539 758h200l204 218h-265z" />
    <glyph glyph-name="wacute" unicode="&#x1e83;" horiz-adv-x="1106" 
d="M0 0zM629 0h266l233 585h-298l-92 -251l-99 251h-187l-107 -249l-71 249h-300l189 -585h278l100 227zM439 623h200l204 218h-265z" />
    <glyph glyph-name="Wdieresis" unicode="&#x1e84;" horiz-adv-x="1282" 
d="M0 0zM742 0h299l271 720h-324l-110 -323l-111 323h-256l-127 -323l-86 323h-328l222 -720h296l139 339zM515 756q65 0 89.5 22.5t24.5 83.5q0 65 -26 87t-88 22t-87 -22t-25 -87q0 -42 9 -65t33 -32q12 -4 29.5 -6.5t40.5 -2.5zM776 756q65 0 89.5 22.5t24.5 83.5
q0 65 -25.5 87t-88.5 22q-64 0 -88 -22t-24 -87q0 -42 9.5 -65t33.5 -32q12 -4 29.5 -6.5t39.5 -2.5z" />
    <glyph glyph-name="wdieresis" unicode="&#x1e85;" horiz-adv-x="1106" 
d="M0 0zM629 0h266l233 585h-298l-92 -251l-99 251h-187l-107 -249l-71 249h-300l189 -585h278l100 227zM414 619q65 0 89.5 22.5t24.5 83.5q0 65 -26 87t-88 22t-87 -22t-25 -87q0 -42 9 -65t33 -32q12 -4 29.5 -6.5t40.5 -2.5zM675 619q65 0 89.5 22.5t24.5 83.5
q0 65 -25.5 87t-88.5 22q-64 0 -88 -22t-24 -87q0 -42 9.5 -65t33.5 -32q12 -4 29.5 -6.5t39.5 -2.5z" />
    <glyph glyph-name="Ygrave" unicode="&#x1ef2;" horiz-adv-x="763" 
d="M0 0zM538 0v281l278 439h-332l-102 -174l-101 174h-334l271 -440v-280h320zM293 758h185l-111 218h-266z" />
    <glyph glyph-name="ygrave" unicode="&#x1ef3;" horiz-adv-x="782" 
d="M0 0zM224 -233q65 0 109 8t76 33q33 24 63.5 73t69.5 131l274 573h-317l-92 -224l-12 -41l-10 41l-89 224h-330l269 -550q-11 -22 -24.5 -28.5t-48.5 -6.5h-107v-233h169zM301 623h185l-111 218h-266z" />
    <glyph glyph-name="figuredash" unicode="&#x2012;" horiz-adv-x="734" 
d="M704 434h-674v-283h674v283z" />
    <glyph glyph-name="endash" unicode="&#x2013;" horiz-adv-x="579" 
d="M549 434h-519v-283h519v283z" />
    <glyph glyph-name="emdash" unicode="&#x2014;" horiz-adv-x="849" 
d="M819 434h-789v-283h789v283z" />
    <glyph glyph-name="uni2015" unicode="&#x2015;" horiz-adv-x="1309" 
d="M1279 434h-1249v-283h1249v283z" />
    <glyph glyph-name="uni2016" unicode="&#x2016;" horiz-adv-x="727" 
d="M327 -42v818h-272v-818h272zM672 -42v818h-272v-818h272z" />
    <glyph glyph-name="underscoredbl" unicode="&#x2017;" horiz-adv-x="800" 
d="M790 246h-780v-246h780v246zM790 -62h-780v-247h780v247z" />
    <glyph glyph-name="quoteleft" unicode="&#x2018;" horiz-adv-x="358" 
d="M180 309q75 0 106 25t31 95q0 50 -10.5 74t-35.5 32q-13 4 -30.5 6t-39.5 2h-12q7 37 29.5 50t68.5 14v113q-124 0 -182.5 -64t-58.5 -186q0 -60 12 -95.5t41 -50.5q15 -7 35 -11t46 -4z" />
    <glyph glyph-name="quoteright" unicode="&#x2019;" horiz-adv-x="358" 
d="M73 312q124 0 182.5 64t58.5 186q0 61 -12 96t-41 50q-15 7 -35 11t-46 4q-75 0 -106 -25t-31 -95q0 -50 10.5 -74.5t35.5 -32.5q13 -4 30.5 -6t39.5 -2h12q-7 -36 -29 -49.5t-69 -14.5v-112z" />
    <glyph glyph-name="quotesinglbase" unicode="&#x201a;" horiz-adv-x="358" 
d="M73 -183q124 0 182.5 63.5t58.5 185.5q0 61 -12 96t-41 50q-15 7 -35 11t-46 4q-75 0 -106 -25t-31 -95q0 -49 10.5 -73.5t35.5 -32.5q13 -4 30.5 -6t39.5 -2h12q-7 -36 -29 -49.5t-69 -14.5v-112z" />
    <glyph glyph-name="uni201B" unicode="&#x201b;" horiz-adv-x="358" 
d="M285 424q-46 1 -68.5 14.5t-29.5 49.5h12q45 0 70 8t36 32q5 13 7.5 31.5t2.5 43.5q0 70 -31 95t-106 25q-52 0 -81 -15t-41 -50q-6 -18 -9 -42t-3 -54q0 -122 58.5 -186t182.5 -64v112z" />
    <glyph glyph-name="quotedblleft" unicode="&#x201c;" horiz-adv-x="681" 
d="M180 309q75 0 106 25t31 95q0 50 -10.5 74.5t-35.5 32.5q-13 4 -30.5 6t-39.5 2h-12q7 36 29.5 49.5t68.5 14.5v112q-124 0 -182.5 -64t-58.5 -186q0 -60 12 -95.5t41 -50.5q15 -7 35 -11t46 -4zM502 309q76 0 106.5 25t30.5 95q0 50 -10 74.5t-35 32.5q-13 4 -30.5 6
t-39.5 2h-12q6 36 28.5 49.5t69.5 14.5v112q-124 0 -183 -64t-59 -186q0 -60 12 -95.5t41 -50.5q15 -7 35 -11t46 -4z" />
    <glyph glyph-name="quotedblright" unicode="&#x201d;" horiz-adv-x="681" 
d="M395 312q124 0 183 64t59 186q0 61 -12 96t-41 50q-15 7 -35 11t-46 4q-76 0 -106.5 -25t-30.5 -95q0 -50 10 -74.5t35 -32.5q13 -4 30.5 -6t39.5 -2h12q-6 -36 -28.5 -49.5t-69.5 -14.5v-112zM73 312q124 0 182.5 64t58.5 186q0 61 -12 96t-41 50q-15 7 -35 11t-46 4
q-75 0 -106 -25t-31 -95q0 -50 10.5 -74.5t35.5 -32.5q13 -4 30.5 -6t39.5 -2h12q-7 -36 -29 -49.5t-69 -14.5v-112z" />
    <glyph glyph-name="quotedblbase" unicode="&#x201e;" horiz-adv-x="681" 
d="M395 -183q124 0 183 63.5t59 185.5q0 61 -12 96t-41 50q-15 7 -35 11t-46 4q-76 0 -106.5 -25t-30.5 -95q0 -49 10 -73.5t35 -32.5q13 -4 30.5 -6t39.5 -2h12q-6 -36 -28.5 -49.5t-69.5 -14.5v-112zM73 -183q124 0 182.5 63.5t58.5 185.5q0 61 -12 96t-41 50
q-15 7 -35 11t-46 4q-75 0 -106 -25t-31 -95q0 -49 10.5 -73.5t35.5 -32.5q13 -4 30.5 -6t39.5 -2h12q-7 -36 -29 -49.5t-69 -14.5v-112z" />
    <glyph glyph-name="uni201F" unicode="&#x201f;" horiz-adv-x="701" 
d="M285 424q-46 1 -68.5 14.5t-29.5 49.5h12q45 0 70 8t36 32q5 13 7.5 31.5t2.5 43.5q0 70 -31 95t-106 25q-52 0 -81 -15t-41 -50q-6 -18 -9 -42t-3 -54q0 -122 58.5 -186t182.5 -64v112zM628 424q-47 1 -69.5 14.5t-28.5 49.5h12q45 0 70 8t35 32q5 13 7.5 31.5t2.5 43.5
q0 70 -30.5 95t-106.5 25q-51 0 -80.5 -15t-41.5 -50q-6 -18 -9 -42t-3 -54q0 -122 59 -186t183 -64v112z" />
    <glyph glyph-name="dagger" unicode="&#x2020;" horiz-adv-x="828" 
d="M798 382v290h-232v236h-302v-236h-234v-290h234v-546h302v546h232z" />
    <glyph glyph-name="daggerdbl" unicode="&#x2021;" horiz-adv-x="828" 
d="M798 30v278h-232v119h232v275h-232v206h-302v-206h-234v-275h234v-119h-234v-278h234v-194h302v194h232z" />
    <glyph glyph-name="bullet" unicode="&#x2022;" horiz-adv-x="547" 
d="M273 114q90 0 131.5 36t41.5 130q0 96 -41 131.5t-132 35.5q-90 0 -131 -37.5t-41 -129.5q0 -63 16.5 -99.5t54.5 -51.5q19 -7 44 -11t57 -4z" />
    <glyph glyph-name="ellipsis" unicode="&#x2026;" horiz-adv-x="1119" 
d="M194 -14q59 0 91.5 11.5t44.5 42.5q7 16 10 39.5t3 53.5q0 63 -14 95t-47 43q-16 5 -38 8t-50 3q-55 0 -88.5 -11t-48.5 -43q-8 -16 -11.5 -40t-3.5 -55q0 -62 13.5 -94t46.5 -42q17 -6 40 -8.5t52 -2.5zM564 -14q59 0 92 11.5t47 42.5q6 16 9.5 39.5t3.5 53.5
q0 63 -15 95t-48 43q-17 5 -39 8t-50 3q-55 0 -88.5 -11t-48.5 -43q-8 -16 -11.5 -40t-3.5 -55q0 -62 13.5 -94t46.5 -42q17 -6 40 -8.5t52 -2.5zM928 -14q59 0 91.5 11.5t44.5 42.5q7 16 10 39.5t3 53.5q0 63 -14 95t-47 43q-16 5 -38 8t-50 3q-55 0 -88.5 -11t-48.5 -43
q-8 -16 -11.5 -40t-3.5 -55q0 -62 13.5 -94t46.5 -42q17 -6 40 -8.5t52 -2.5z" />
    <glyph glyph-name="perthousand" unicode="&#x2030;" horiz-adv-x="1513" 
d="M219 400q108 0 165.5 44.5t57.5 119.5q0 74 -57 120.5t-164 46.5q-108 0 -165.5 -46.5t-57.5 -120.5q0 -76 51.5 -120t169.5 -44zM-33 0h363l729 720h-347zM219 526q-22 0 -33.5 9.5t-11.5 28.5q0 21 11.5 31t33.5 10q23 0 34.5 -10t11.5 -31q0 -19 -11.5 -28.5
t-34.5 -9.5zM817 -5q108 0 165.5 44.5t57.5 119.5q0 74 -57 120.5t-164 46.5q-108 0 -165.5 -46.5t-57.5 -120.5q0 -76 51.5 -120t169.5 -44zM1293 -5q108 0 165.5 44.5t57.5 119.5q0 74 -57 120.5t-164 46.5q-108 0 -165.5 -46.5t-57.5 -120.5q0 -76 51.5 -120t169.5 -44z
M817 121q-22 0 -33.5 9.5t-11.5 28.5q0 21 11.5 31t33.5 10q23 0 34.5 -10t11.5 -31q0 -19 -11.5 -28.5t-34.5 -9.5zM1293 121q-22 0 -33.5 9.5t-11.5 28.5q0 21 11.5 31t33.5 10q23 0 34.5 -10t11.5 -31q0 -19 -11.5 -28.5t-34.5 -9.5z" />
    <glyph glyph-name="uni2032" unicode="&#x2032;" horiz-adv-x="296" 
d="M197 432l99 288h-240l-35 -288h176z" />
    <glyph glyph-name="uni2033" unicode="&#x2033;" horiz-adv-x="577" 
d="M197 432l100 288h-241l-35 -288h176zM480 432l96 288h-241l-31 -288h176z" />
    <glyph glyph-name="uni2034" unicode="&#x2034;" horiz-adv-x="944" 
d="M29 720v-18q0 -45 4 -91t10 -86q5 -40 11.5 -67t10.5 -33h187q4 6 10 33t12 67q6 39 10 85.5t4 91.5v18h-259zM345 720v-18q0 -45 4 -91t9 -86q6 -40 12 -67t10 -33h188q4 6 10 33t12 67q6 39 10 85.5t4 91.5v18h-259zM660 720v-18q0 -45 4 -91t10 -86q5 -40 11.5 -67
t10.5 -33h187q4 6 10 33t12 67q6 39 10 85.5t4 91.5v18h-259z" />
    <glyph glyph-name="guilsinglleft" unicode="&#x2039;" horiz-adv-x="508" 
d="M498 65l-205 241l185 229h-268l-180 -228v-25l186 -217h282z" />
    <glyph glyph-name="guilsinglright" unicode="&#x203a;" horiz-adv-x="508" 
d="M292 65l185 217v25l-180 228h-267l184 -229l-205 -241h283z" />
    <glyph glyph-name="exclamdbl" unicode="&#x203c;" horiz-adv-x="846" 
d="M54 720v-57q0 -160 18.5 -249.5t37.5 -119.5q16 3 44.5 4.5t62.5 1.5q33 0 58.5 -1.5t44.5 -4.5q20 30 40 121t20 248v57h-326zM475 720v-57q0 -160 19 -249.5t38 -119.5q15 3 43.5 4.5t62.5 1.5q33 0 59 -1.5t45 -4.5q19 30 39 121t20 248v57h-326zM212 -14q64 0 101 11
t53 39q8 15 12 35.5t4 46.5q0 53 -16.5 82t-54.5 40q-18 6 -43 9t-56 3q-63 0 -100 -11.5t-54 -40.5q-8 -15 -12 -35.5t-4 -46.5q0 -52 14 -81t51 -40q18 -5 44.5 -8t60.5 -3zM634 -14q64 0 101 11t52 39q8 15 12 35.5t4 46.5q0 53 -16.5 82t-53.5 40q-18 6 -43 9t-56 3
q-63 0 -100.5 -11.5t-53.5 -40.5q-8 -15 -12 -35.5t-4 -46.5q0 -52 14 -81t51 -40q18 -5 44.5 -8t60.5 -3z" />
    <glyph glyph-name="uni203D" unicode="&#x203d;" horiz-adv-x="781" 
d="M512 483q0 -16 -9 -23t-26 -20q2 20 3 42.5t2 45.5q15 -7 22.5 -18.5t7.5 -26.5zM405 254q32 0 50.5 -1t35.5 -3l8 31q7 26 29.5 41t53.5 26q31 10 63.5 21.5t60.5 29.5q29 18 46.5 48.5t17.5 80.5q0 104 -91 156.5t-288 52.5q-144 0 -229 -35t-123 -102
q-19 -34 -29.5 -75t-12.5 -89h264q0 30 9.5 51t27.5 34q1 -71 1.5 -110.5t1.5 -58.5q1 -9 1.5 -16t0.5 -11q2 -24 4.5 -41t7.5 -35q17 2 36 3.5t54 1.5zM403 -14q73 0 114.5 9.5t58.5 34.5q8 13 12.5 31t4.5 41q0 46 -18 71t-59 36q-21 5 -49 7.5t-64 2.5q-71 0 -112 -10.5
t-59 -35.5q-8 -13 -12.5 -30.5t-4.5 -40.5q0 -46 15 -71t55 -35q21 -5 50.5 -7.5t67.5 -2.5z" />
    <glyph glyph-name="fraction" unicode="&#x2044;" horiz-adv-x="1130" 
d="M670 397l396 212l-191 173l-256 -338zM509 352l-402 -230l193 -180l259 363z" />
    <glyph glyph-name="uni2070" unicode="&#x2070;" horiz-adv-x="458" 
d="M21 351zM227 351q96 0 151 46t55 142q0 89 -55.5 139t-147.5 50q-94 0 -151.5 -50t-57.5 -139q0 -96 54.5 -142t151.5 -46zM226 497q-18 0 -27.5 10.5t-9.5 31.5q0 18 9 30.5t28 12.5q21 0 29.5 -12.5t8.5 -30.5q0 -19 -8.5 -30.5t-29.5 -11.5z" />
    <glyph glyph-name="uni2074" unicode="&#x2074;" horiz-adv-x="444" 
d="M13 360zM426 411v120h-57v189h-135l-221 -205v-104h209v-51h147v51h57zM222 531h-51l51 50v-50z" />
    <glyph glyph-name="uni2075" unicode="&#x2075;" horiz-adv-x="443" 
d="M19 353zM221 353q109 0 154.5 32.5t45.5 92.5q0 54 -31.5 78.5t-100.5 24.5q-27 0 -50.5 -4.5t-43.5 -13.5l8 32h76q52 0 79 10t37 37q5 13 7.5 32.5t2.5 44.5v1h-341l-42 -209l174 -32q4 7 10 10t15 3q12 0 17.5 -5t5.5 -15q0 -9 -5 -13.5t-15 -4.5q-11 0 -16.5 4.5
t-5.5 13.5h-183q0 -60 46.5 -89.5t155.5 -29.5z" />
    <glyph glyph-name="uni2076" unicode="&#x2076;" horiz-adv-x="453" 
d="M21 351zM430 482q0 54 -32.5 76t-101.5 22q-35 0 -64 -7t-52 -21q0 23 11 38.5t37 15.5q13 0 21 -3t11 -10h170q-15 73 -64 104t-137 31q-100 0 -154 -49.5t-54 -143.5q0 -89 47 -136.5t165 -47.5q88 0 142.5 32.5t54.5 98.5zM232 480q-14 0 -23.5 4t-15.5 11
q11 8 23.5 13t29.5 5q14 0 18.5 -4t4.5 -11q0 -9 -7.5 -13.5t-29.5 -4.5z" />
    <glyph glyph-name="uni2077" unicode="&#x2077;" horiz-adv-x="382" 
d="M8 360zM211 360q16 45 36.5 84t50.5 78q15 19 34.5 39.5t42.5 41.5v117h-367v-137h179q-49 -48 -90.5 -103.5t-72.5 -119.5h187z" />
    <glyph glyph-name="uni2078" unicode="&#x2078;" horiz-adv-x="438" 
d="M9 353zM217 353q108 0 158.5 27t50.5 83q0 28 -18.5 48t-55.5 32q32 8 47.5 26.5t15.5 47.5q0 53 -46 82t-150 29q-105 0 -150 -28t-45 -83q0 -28 15 -47t45 -28q-37 -11 -56 -32t-19 -52q0 -55 49.5 -80t158.5 -25zM219 571q-22 0 -33 3.5t-11 10.5q0 8 11 11.5t33 3.5
q23 0 34 -3.5t11 -11.5q0 -7 -11 -10.5t-34 -3.5zM219 482q-25 0 -36 2.5t-11 11.5q0 8 12 11.5t35 3.5q24 0 36 -3.5t12 -11.5q0 -9 -11.5 -11.5t-36.5 -2.5z" />
    <glyph glyph-name="uni2079" unicode="&#x2079;" horiz-adv-x="452" 
d="M14 350zM205 567q-14 0 -19.5 4t-5.5 11q0 9 8.5 15t30.5 6q16 0 26.5 -5t15.5 -15q-11 -8 -25 -12t-31 -4zM219 350q105 0 157 47t52 141q0 89 -48.5 138.5t-153.5 49.5q-107 0 -157.5 -36.5t-50.5 -96.5q0 -51 36.5 -73t100.5 -22q37 0 65.5 7t48.5 21
q0 -25 -9.5 -40.5t-37.5 -15.5q-16 0 -23 4t-9 11h-176q14 -78 67 -106.5t138 -28.5z" />
    <glyph glyph-name="uni207A" unicode="&#x207a;" horiz-adv-x="391" 
d="M33 387zM353 472v141h-90v85h-140v-85h-90v-141h90v-85h140v85h90z" />
    <glyph glyph-name="uni207B" unicode="&#x207b;" horiz-adv-x="391" 
d="M33 466zM353 466v153h-320v-153h320z" />
    <glyph glyph-name="uni207C" unicode="&#x207c;" horiz-adv-x="393" 
d="M56 403zM333 567v121h-277v-121h277zM333 403v121h-277v-121h277z" />
    <glyph glyph-name="uni207D" unicode="&#x207d;" horiz-adv-x="332" 
d="M27 207zM292 207v190q-33 3 -54 14.5t-30 40.5q-5 14 -7.5 34.5t-2.5 47.5q0 54 9.5 83t30.5 42q10 6 23.5 11t30.5 8v171q-86 -7 -145 -36t-90 -96q-15 -33 -22.5 -79t-7.5 -106v-1q0 -93 19 -154.5t54 -97.5q35 -35 83.5 -51.5t108.5 -20.5z" />
    <glyph glyph-name="uni207E" unicode="&#x207e;" horiz-adv-x="332" 
d="M36 207zM36 207q60 4 108.5 20.5t83.5 51.5q35 36 54 97.5t19 154.5v1q0 119 -30.5 185.5t-89.5 95.5q-29 14 -65.5 23.5t-79.5 12.5v-171q34 -6 54.5 -19t29.5 -42q5 -15 7.5 -35.5t2.5 -47.5q0 -54 -9.5 -82.5t-30.5 -39.5q-10 -6 -23.5 -9.5t-30.5 -5.5v-190z" />
    <glyph glyph-name="uni2080" unicode="&#x2080;" horiz-adv-x="458" 
d="M229 -9q96 0 151 46t55 142q0 89 -55.5 139t-147.5 50q-94 0 -151.5 -50t-57.5 -139q0 -96 54.5 -142t151.5 -46zM228 137q-18 0 -27.5 10.5t-9.5 31.5q0 18 9 30.5t28 12.5q21 0 29.5 -12.5t8.5 -30.5q0 -19 -8.5 -30.5t-29.5 -11.5z" />
    <glyph glyph-name="uni2081" unicode="&#x2081;" horiz-adv-x="372" 
d="M348 0v144h-77v216h-133q-11 -32 -36 -47.5t-58 -17.5v-112h66v-39h-87v-144h325z" />
    <glyph glyph-name="uni2082" unicode="&#x2082;" horiz-adv-x="436" 
d="M410 0v127h-235q17 8 46.5 12.5t63.5 9.5q33 5 63 15.5t49 30.5q9 11 14 24.5t5 31.5q0 54 -46 85.5t-144 31.5q-97 0 -148.5 -35t-56.5 -110h167q1 9 9.5 14.5t30.5 5.5q20 0 26.5 -3t6.5 -8q0 -7 -17.5 -9t-45.5 -4q-27 -2 -58 -7.5t-58 -17.5q-28 -12 -45.5 -35
t-17.5 -61v-98h391z" />
    <glyph glyph-name="uni2083" unicode="&#x2083;" horiz-adv-x="425" 
d="M211 -10q106 0 156 31.5t50 86.5q0 38 -23 55t-60 23q38 8 57 26.5t19 47.5q0 46 -43.5 75.5t-143.5 29.5t-154.5 -30.5t-57.5 -109.5h159q1 7 8 10.5t29 3.5q20 0 26.5 -3t6.5 -8q0 -4 -5.5 -7.5t-24.5 -3.5h-31v-75h32q23 0 29.5 -2.5t6.5 -7.5q0 -6 -8 -9.5t-30 -3.5
q-23 0 -29.5 3t-8.5 11h-167q1 -46 17.5 -78t60.5 -48q22 -9 54.5 -13t74.5 -4z" />
    <glyph glyph-name="uni2084" unicode="&#x2084;" horiz-adv-x="444" 
d="M428 51v120h-57v189h-135l-221 -205v-104h209v-51h147v51h57zM224 171h-51l51 50v-50z" />
    <glyph glyph-name="uni2085" unicode="&#x2085;" horiz-adv-x="443" 
d="M223 -7q109 0 154.5 32.5t45.5 92.5q0 54 -31.5 78.5t-100.5 24.5q-27 0 -50.5 -4.5t-43.5 -13.5l8 32h76q52 0 79 10t37 37q5 13 7.5 32.5t2.5 44.5v1h-341l-42 -209l174 -32q4 7 10 10t15 3q12 0 17.5 -5t5.5 -15q0 -9 -5 -13.5t-15 -4.5q-11 0 -16.5 4.5t-5.5 13.5
h-183q0 -60 46.5 -89.5t155.5 -29.5z" />
    <glyph glyph-name="uni2086" unicode="&#x2086;" horiz-adv-x="453" 
d="M432 122q0 54 -32.5 76t-101.5 22q-35 0 -64 -7t-52 -21q0 23 11 38.5t37 15.5q13 0 21 -3t11 -10h170q-15 73 -64 104t-137 31q-100 0 -154 -49.5t-54 -143.5q0 -89 47 -136.5t165 -47.5q88 0 142.5 32.5t54.5 98.5zM234 120q-14 0 -23.5 4t-15.5 11q11 8 23.5 13
t29.5 5q14 0 18.5 -4t4.5 -11q0 -9 -7.5 -13.5t-29.5 -4.5z" />
    <glyph glyph-name="uni2087" unicode="&#x2087;" horiz-adv-x="382" 
d="M213 0q16 45 36.5 84t50.5 78q15 19 34.5 39.5t42.5 41.5v117h-367v-137h179q-49 -48 -90.5 -103.5t-72.5 -119.5h187z" />
    <glyph glyph-name="uni2088" unicode="&#x2088;" horiz-adv-x="438" 
d="M219 -7q108 0 158.5 27t50.5 83q0 28 -18.5 48t-55.5 32q32 8 47.5 26.5t15.5 47.5q0 53 -46 82t-150 29q-105 0 -150 -28t-45 -83q0 -28 15 -47t45 -28q-37 -11 -56 -32t-19 -52q0 -55 49.5 -80t158.5 -25zM221 211q-22 0 -33 3.5t-11 10.5q0 8 11 11.5t33 3.5
q23 0 34 -3.5t11 -11.5q0 -7 -11 -10.5t-34 -3.5zM221 122q-25 0 -36 2.5t-11 11.5q0 8 12 11.5t35 3.5q24 0 36 -3.5t12 -11.5q0 -9 -11.5 -11.5t-36.5 -2.5z" />
    <glyph glyph-name="uni2089" unicode="&#x2089;" horiz-adv-x="452" 
d="M207 207q-14 0 -19.5 4t-5.5 11q0 9 8.5 15t30.5 6q16 0 26.5 -5t15.5 -15q-11 -8 -25 -12t-31 -4zM221 -10q105 0 157 47t52 141q0 89 -48.5 138.5t-153.5 49.5q-107 0 -157.5 -36.5t-50.5 -96.5q0 -51 36.5 -73t100.5 -22q37 0 65.5 7t48.5 21q0 -25 -9.5 -40.5
t-37.5 -15.5q-16 0 -23 4t-9 11h-176q14 -78 67 -106.5t138 -28.5z" />
    <glyph glyph-name="uni208A" unicode="&#x208a;" horiz-adv-x="391" 
d="M355 112v141h-90v85h-140v-85h-90v-141h90v-85h140v85h90z" />
    <glyph glyph-name="uni208B" unicode="&#x208b;" horiz-adv-x="391" 
d="M355 106v153h-320v-153h320z" />
    <glyph glyph-name="uni208C" unicode="&#x208c;" horiz-adv-x="393" 
d="M335 207v121h-277v-121h277zM335 43v121h-277v-121h277z" />
    <glyph glyph-name="uni208D" unicode="&#x208d;" horiz-adv-x="332" 
d="M294 -153v190q-33 3 -54 14.5t-30 40.5q-5 14 -7.5 34.5t-2.5 47.5q0 54 9.5 83t30.5 42q10 6 23.5 11t30.5 8v171q-86 -7 -145 -36t-90 -96q-15 -33 -22.5 -79t-7.5 -106v-1q0 -93 19 -154.5t54 -97.5q35 -35 83.5 -51.5t108.5 -20.5z" />
    <glyph glyph-name="uni208E" unicode="&#x208e;" horiz-adv-x="332" 
d="M38 -153q60 4 108.5 20.5t83.5 51.5q35 36 54 97.5t19 154.5v1q0 119 -30.5 185.5t-89.5 95.5q-29 14 -65.5 23.5t-79.5 12.5v-171q34 -6 54.5 -19t29.5 -42q5 -15 7.5 -35.5t2.5 -47.5q0 -54 -9.5 -82.5t-30.5 -39.5q-10 -6 -23.5 -9.5t-30.5 -5.5v-190z" />
    <glyph glyph-name="uni20A1" unicode="&#x20a1;" horiz-adv-x="929" 
d="M346 -106h168l31 91q107 11 187.5 51.5t126.5 112.5q24 36 36.5 81t14.5 99h-342q-3 -32 -30.5 -54.5t-77.5 -22.5q-55 0 -85.5 27.5t-30.5 78.5q0 49 31.5 78.5t86.5 29.5q50 0 76.5 -23.5t29.5 -55.5h342q-3 83 -33 146.5t-83 107.5l61 167h-170l-33 -94q-13 4 -26.5 7
t-27.5 6l28 81h-169l-24 -70q-125 -5 -218.5 -52.5t-144.5 -131.5q-25 -42 -38 -91.5t-13 -106.5q0 -112 38.5 -189t111.5 -121l-53 -152h169l34 98l28 -4t29 -3z" />
    <glyph glyph-name="uni20A2" unicode="&#x20a2;" horiz-adv-x="808" 
d="M818 247h-253q-4 -14 -17 -24t-35 -16q1 29 6.5 43t21.5 18q8 3 20.5 4t28.5 1h92v179h-36q-72 0 -106.5 -19.5t-45.5 -69.5l-22 88h-154v-234q-30 17 -41.5 48t-11.5 82q0 85 40 123.5t114 38.5q53 0 83 -10t36 -30h271q-28 127 -125 193t-261 66q-199 0 -303 -97
t-104 -286q0 -188 100 -275.5t315 -87.5q169 0 265.5 66.5t121.5 198.5z" />
    <glyph glyph-name="franc" unicode="&#x20a3;" horiz-adv-x="747" 
d="M673 84v144h-332v54h332v144h-332v51h372v243h-671v-720h299v84h332z" />
    <glyph glyph-name="lira" unicode="&#x20a4;" horiz-adv-x="873" 
d="M632 -19q88 0 137.5 23.5t70.5 80.5q10 29 15 68.5t5 90.5h-285q0 -53 -8.5 -74.5t-48.5 -21.5q-15 0 -35.5 5t-45.5 12q5 17 7.5 34t2.5 35q0 10 -0.5 19t-1.5 18h203v58h-217q-1 6 -3.5 12t-4.5 12h225v58h-250q-3 8 -5 16t-2 15q0 20 13 33t39 13q29 0 45 -12t20 -37
h318q-11 88 -54 155t-126 105q-42 19 -96 28.5t-121 9.5q-95 0 -160 -19t-103 -51q-39 -31 -56 -70t-17 -78q0 -34 11 -60t27 -48h-87v-58h146q8 -6 15 -12l14 -12h-175v-58h232q10 -14 15.5 -30t6.5 -33q-36 10 -71 17t-65 7q-70 0 -110.5 -33t-40.5 -94q0 -55 36 -89.5
t129 -34.5q53 0 100 17.5t83 47.5q62 -25 132.5 -45t140.5 -20zM177 86q-20 0 -27.5 6t-7.5 14q0 9 5.5 13.5t15.5 4.5q11 0 29 -6.5t43 -17.5q-13 -7 -27.5 -10.5t-30.5 -3.5z" />
    <glyph glyph-name="uni20A6" unicode="&#x20a6;" horiz-adv-x="1085" 
d="M673 0h290v157h116v170h-116v52h116v170h-116v171h-301v-320l-250 320h-299v-171h-108v-170h108v-52h-108v-170h108v-157h302v335z" />
    <glyph glyph-name="peseta" unicode="&#x20a7;" horiz-adv-x="2214" 
d="M441 467q47 0 65 -13.5t18 -42.5t-17.5 -42t-64.5 -13h-101v111h100zM447 123q170 0 262.5 52.5t114.5 160.5h84v-106q0 -76 14.5 -122t50.5 -69q35 -23 97 -31t156 -8h568q141 0 225 24t122 70q18 23 27.5 51.5t9.5 61.5q0 59 -27.5 97.5t-98.5 56.5q-35 10 -84.5 14.5
t-113.5 4.5q-84 0 -113 8t-29 21q0 9 11.5 14.5t45.5 5.5q39 0 67 -7.5t39 -27.5h303q-38 107 -138.5 155.5t-272.5 48.5q-166 0 -254 -52.5t-88 -151.5q0 -41 12.5 -73t45.5 -55q33 -22 93.5 -34t157.5 -14q61 -1 94 -1.5t46 -2.5q6 -2 9.5 -4t3.5 -6q0 -7 -12 -10.5
t-51 -3.5h-539q-56 0 -71.5 14t-15.5 51v81h195v249h-195v164h-222q-4 -28 -10 -52t-16 -43q-11 -20 -25.5 -36.5t-32.5 -28.5t-40 -18.5t-50 -11.5q-37 79 -124.5 120t-232.5 41h-403v-720h299v123h106z" />
    <glyph glyph-name="uni20A8" unicode="&#x20a8;" horiz-adv-x="1620" 
d="M1234 -22q141 0 223.5 26.5t118.5 76.5q17 24 26 53.5t9 63.5q0 58 -25 95t-67 58t-91.5 31t-99.5 13q-49 4 -91 5.5t-67 6.5q-12 3 -18.5 7.5t-6.5 11.5q0 9 11.5 14.5t45.5 5.5q39 0 67 -7.5t39 -27.5h303q-38 107 -133 155.5t-267 48.5q-173 0 -263 -56t-90 -160
q0 -51 25 -84t66 -52t90.5 -28.5t98.5 -13.5q50 -4 91 -6t66 -6q12 -2 18.5 -6t6.5 -9q0 -7 -12 -13.5t-44 -6.5q-57 0 -110 3.5t-111 15.5q-29 5 -61.5 14t-68.5 21l-90 30t-77 23q-18 4 -39 8t-44 7q89 23 129 68.5t40 114.5q0 73 -37 127t-121 84q-42 15 -98 22.5
t-126 7.5h-408v-720h304v167q44 -1 88 -6.5t94 -17.5t112.5 -31.5t144.5 -47.5q65 -22 129.5 -41.5t140.5 -32.5q39 -6 83.5 -9t95.5 -3zM459 484q32 0 46 -12.5t14 -32.5q0 -21 -16 -33.5t-44 -12.5h-113v91h113z" />
    <glyph glyph-name="uni20A9" unicode="&#x20a9;" horiz-adv-x="1448" 
d="M836 0h299l59 157h240v170h-176l20 52h156v170h-92l64 171h-324l-110 -323l-111 323h-256l-127 -323l-86 323h-328l53 -171h-102v-170h154l16 -52h-170v-170h223l48 -157h296l139 339z" />
    <glyph glyph-name="uni20AA" unicode="&#x20aa;" horiz-adv-x="1162" 
d="M434 519q60 0 97.5 -11.5t56.5 -41.5q20 -29 27 -81.5t7 -133.5h59q61 0 98 13.5t54 48.5q9 17 13 42t4 57q0 113 -41.5 180.5t-125.5 97.5q-42 15 -94.5 22.5t-116.5 7.5h-432v-720h242v519h152zM741 0q198 0 296.5 98t98.5 310v312h-241v-286q0 -89 -18.5 -138
t-63.5 -68q-22 -10 -53 -14.5t-70 -4.5h-116v41q0 78 -6 123.5t-24 67.5q-17 22 -50.5 28.5t-88.5 6.5h-72v-476h408z" />
    <glyph glyph-name="Euro" unicode="&#x20ac;" horiz-adv-x="969" 
d="M945 258h-374q-9 -13 -25.5 -19.5t-45.5 -6.5q-36 0 -61.5 11t-39.5 37h334l35 70h-384v21h396l37 70h-415q14 24 37.5 34.5t52.5 10.5q33 0 51.5 -7t25.5 -18h376q-22 100 -81.5 161t-151.5 89q-45 14 -97.5 21t-112.5 7q-117 0 -208 -35.5t-150 -102.5q-29 -33 -48 -73
t-29 -87h-75v-70h67v-21h-67v-70h72q22 -154 133.5 -226.5t298.5 -72.5q122 0 215.5 27.5t153.5 88.5q30 30 50 70.5t30 90.5z" />
    <glyph glyph-name="uni20AE" unicode="&#x20ae;" horiz-adv-x="790" 
d="M652 110v124l-99 -12v54l99 12v124l-99 -12v43h212v277h-740v-277h208v-84l-97 -12v-124l97 12v-54l-97 -12v-124l97 12v-57h320v98z" />
    <glyph glyph-name="uni20B1" unicode="&#x20b1;" horiz-adv-x="901" 
d="M352 0v77h106q170 0 262.5 62.5t114.5 174.5h69v63h-62v26h62v63h-68q-20 118 -112 186t-268 68h-403v-254h-56v-63h56v-26h-56v-63h56v-314h299zM464 497q27 0 46 -8.5t30 -22.5h-188v31h112zM565 391v-7t-1 -7h-212v26h212q1 -3 1 -6v-6zM465 286h-113v28h186
q-11 -13 -29 -20.5t-44 -7.5z" />
    <glyph glyph-name="uni2105" unicode="&#x2105;" horiz-adv-x="1038" 
d="M-33 0h363l729 720h-347zM443 550h-181q-2 -12 -13 -18t-30 -6q-23 0 -34.5 9.5t-11.5 28.5q0 21 11.5 31t34.5 10q20 0 31 -6t13 -19h180q-4 67 -63.5 109t-159.5 42q-107 0 -164.5 -46.5t-57.5 -120.5q0 -76 51.5 -120t169.5 -44q101 0 161.5 42t62.5 108zM817 -5
q108 0 165.5 44.5t57.5 119.5q0 74 -57 120.5t-164 46.5q-108 0 -165.5 -46.5t-57.5 -120.5q0 -76 51.5 -120t169.5 -44zM817 121q-22 0 -33.5 9.5t-11.5 28.5q0 21 11.5 31t33.5 10q23 0 34.5 -10t11.5 -31q0 -19 -11.5 -28.5t-34.5 -9.5z" />
    <glyph glyph-name="uni2116" unicode="&#x2116;" horiz-adv-x="1541" 
d="M1228 295q137 0 210 60t73 162q0 66 -32.5 117t-95.5 79q-31 15 -69.5 22t-84.5 7q-91 0 -154 -28.5t-96 -79.5q-17 -26 -25 -55t-8 -62q0 -103 65.5 -162.5t216.5 -59.5zM1228 466q-29 0 -43.5 13t-14.5 38q0 28 14.5 41.5t43.5 13.5q27 0 42.5 -13.5t15.5 -41.5
q0 -25 -14.5 -38t-43.5 -13zM602 0h290v720h-301v-320l-250 320h-299v-720h302v335zM1483 247h-513v-247h513v247z" />
    <glyph glyph-name="uni2117" unicode="&#x2117;" horiz-adv-x="912" 
d="M456 -19q136 0 233.5 41t150.5 124q27 42 40 95t13 117q0 119 -54 204.5t-151 130.5q-48 23 -104.5 34.5t-121.5 11.5q-133 0 -233 -45.5t-155 -131.5q-27 -42 -41 -93t-14 -111q0 -192 115 -284.5t322 -92.5zM456 129q-59 0 -105 12t-79 35h149v62h57q107 0 157 36.5
t50 110.5q0 75 -49.5 115t-158.5 40h-199q36 26 81.5 38.5t100.5 12.5q79 0 137.5 -28t91.5 -80q17 -26 25 -57t8 -67q0 -117 -71 -173.5t-195 -56.5zM190 359q0 53 18 95t52 72v-340q-34 29 -52 72t-18 101zM475 412q26 0 35.5 -7t9.5 -21q0 -15 -9.5 -21.5t-34.5 -6.5h-55
v56h54z" />
    <glyph glyph-name="uni2120" unicode="&#x2120;" horiz-adv-x="816" 
d="M594 466h14l65 78v-128h132v304h-129l-74 -102l-75 102h-131v-304h133v130zM193 400q95 0 134 32t39 81q0 51 -36.5 73t-105.5 26q-55 5 -70 7.5t-15 8.5q0 5 6.5 8.5t24.5 3.5q21 0 33 -4.5t15 -14.5h145q-17 62 -63 87.5t-126 25.5q-81 0 -127.5 -30.5t-46.5 -85.5
q0 -47 35 -69.5t105 -27.5q56 -4 72 -7t16 -10q0 -5 -7.5 -8t-22.5 -3q-17 0 -32.5 4.5t-19.5 14.5h-154q8 -53 53 -82.5t148 -29.5z" />
    <glyph glyph-name="trademark" unicode="&#x2122;" horiz-adv-x="808" 
d="M320 577v143h-296v-143h73v-161h150v161h73zM556 466h14l65 78v-128h132v304h-129l-74 -102l-75 102h-131v-304h133v130z" />
    <glyph glyph-name="uni2126" unicode="&#x2126;" horiz-adv-x="1011" 
d="M480 248q-56 41 -75 68.5t-19 60.5q0 38 29.5 63.5t84.5 25.5q59 0 88 -26t29 -64q0 -22 -8 -40t-29 -39q-11 -10 -25.5 -22t-33.5 -27l110 -248h349v263h-140q40 29 67 74t27 112q1 80 -44 146t-141 105q-48 19 -110.5 29t-138.5 10q-114 0 -195.5 -24.5t-133.5 -66.5
q-51 -42 -75.5 -93.5t-24.5 -105.5q0 -67 25.5 -112t65.5 -74h-142v-263h366z" />
    <glyph glyph-name="uni2153" unicode="&#x2153;" horiz-adv-x="1130" 
d="M125 0zM688 397l396 212l-191 173l-256 -338zM527 352l-402 -230l193 -180l259 363zM458 354v144h-77v216h-133q-11 -32 -36 -47.5t-58 -17.5v-112h66v-39h-87v-144h325zM812 -10q106 0 156 31.5t50 86.5q0 38 -23 55t-60 23q38 8 57 26.5t19 47.5q0 46 -43.5 75.5
t-143.5 29.5t-154.5 -30.5t-57.5 -109.5h159q1 7 8 10.5t29 3.5q20 0 26.5 -3t6.5 -8q0 -4 -5.5 -7.5t-24.5 -3.5h-31v-75h32q23 0 29.5 -2.5t6.5 -7.5q0 -6 -8 -9.5t-30 -3.5q-23 0 -29.5 3t-8.5 11h-167q1 -46 17.5 -78t60.5 -48q22 -9 54.5 -13t74.5 -4z" />
    <glyph glyph-name="uni2154" unicode="&#x2154;" horiz-adv-x="1130" 
d="M91 0zM688 397l396 212l-191 173l-256 -338zM527 352l-402 -230l193 -180l259 363zM482 354v127h-235q17 8 46.5 12.5t63.5 9.5q33 5 63 15.5t49 30.5q9 11 14 24.5t5 31.5q0 54 -46 85.5t-144 31.5q-97 0 -148.5 -35t-56.5 -110h167q1 9 9.5 14.5t30.5 5.5q20 0 26.5 -3
t6.5 -8q0 -7 -17.5 -9t-45.5 -4q-27 -2 -58 -7.5t-58 -17.5q-28 -12 -45.5 -35t-17.5 -61v-98h391zM812 -10q106 0 156 31.5t50 86.5q0 38 -23 55t-60 23q38 8 57 26.5t19 47.5q0 46 -43.5 75.5t-143.5 29.5t-154.5 -30.5t-57.5 -109.5h159q1 7 8 10.5t29 3.5q20 0 26.5 -3
t6.5 -8q0 -4 -5.5 -7.5t-24.5 -3.5h-31v-75h32q23 0 29.5 -2.5t6.5 -7.5q0 -6 -8 -9.5t-30 -3.5q-23 0 -29.5 3t-8.5 11h-167q1 -46 17.5 -78t60.5 -48q22 -9 54.5 -13t74.5 -4z" />
    <glyph glyph-name="uni2155" unicode="&#x2155;" horiz-adv-x="1130" 
d="M125 0zM688 397l396 212l-191 173l-256 -338zM527 352l-402 -230l193 -180l259 363zM458 354v144h-77v216h-133q-11 -32 -36 -47.5t-58 -17.5v-112h66v-39h-87v-144h325zM826 -7q109 0 154.5 32.5t45.5 92.5q0 54 -31.5 78.5t-100.5 24.5q-27 0 -50.5 -4.5t-43.5 -13.5
l8 32h76q52 0 79 10t37 37q5 13 7.5 32.5t2.5 44.5v1h-341l-42 -209l174 -32q4 7 10 10t15 3q12 0 17.5 -5t5.5 -15q0 -9 -5 -13.5t-15 -4.5q-11 0 -16.5 4.5t-5.5 13.5h-183q0 -60 46.5 -89.5t155.5 -29.5z" />
    <glyph glyph-name="uni2156" unicode="&#x2156;" horiz-adv-x="1130" 
d="M91 0zM688 397l396 212l-191 173l-256 -338zM527 352l-402 -230l193 -180l259 363zM482 354v127h-235q17 8 46.5 12.5t63.5 9.5q33 5 63 15.5t49 30.5q9 11 14 24.5t5 31.5q0 54 -46 85.5t-144 31.5q-97 0 -148.5 -35t-56.5 -110h167q1 9 9.5 14.5t30.5 5.5q20 0 26.5 -3
t6.5 -8q0 -7 -17.5 -9t-45.5 -4q-27 -2 -58 -7.5t-58 -17.5q-28 -12 -45.5 -35t-17.5 -61v-98h391zM826 -7q109 0 154.5 32.5t45.5 92.5q0 54 -31.5 78.5t-100.5 24.5q-27 0 -50.5 -4.5t-43.5 -13.5l8 32h76q52 0 79 10t37 37q5 13 7.5 32.5t2.5 44.5v1h-341l-42 -209
l174 -32q4 7 10 10t15 3q12 0 17.5 -5t5.5 -15q0 -9 -5 -13.5t-15 -4.5q-11 0 -16.5 4.5t-5.5 13.5h-183q0 -60 46.5 -89.5t155.5 -29.5z" />
    <glyph glyph-name="uni2157" unicode="&#x2157;" horiz-adv-x="1130" 
d="M66 0zM688 397l396 212l-191 173l-256 -338zM527 352l-402 -230l193 -180l259 363zM273 344q106 0 156 31.5t50 86.5q0 38 -23 55t-60 23q38 8 57 26.5t19 47.5q0 46 -43.5 75.5t-143.5 29.5t-154.5 -30.5t-57.5 -109.5h159q1 7 8 10.5t29 3.5q20 0 26.5 -3t6.5 -8
q0 -4 -5.5 -7.5t-24.5 -3.5h-31v-75h32q23 0 29.5 -2.5t6.5 -7.5q0 -6 -8 -9.5t-30 -3.5q-23 0 -29.5 3t-8.5 11h-167q1 -46 17.5 -78t60.5 -48q22 -9 54.5 -13t74.5 -4zM826 -7q109 0 154.5 32.5t45.5 92.5q0 54 -31.5 78.5t-100.5 24.5q-27 0 -50.5 -4.5t-43.5 -13.5l8 32
h76q52 0 79 10t37 37q5 13 7.5 32.5t2.5 44.5v1h-341l-42 -209l174 -32q4 7 10 10t15 3q12 0 17.5 -5t5.5 -15q0 -9 -5 -13.5t-15 -4.5q-11 0 -16.5 4.5t-5.5 13.5h-183q0 -60 46.5 -89.5t155.5 -29.5z" />
    <glyph glyph-name="uni2158" unicode="&#x2158;" horiz-adv-x="1130" 
d="M90 0zM688 397l396 212l-191 173l-256 -338zM527 352l-402 -230l193 -180l259 363zM503 405v120h-57v189h-135l-221 -205v-104h209v-51h147v51h57zM299 525h-51l51 50v-50zM826 -7q109 0 154.5 32.5t45.5 92.5q0 54 -31.5 78.5t-100.5 24.5q-27 0 -50.5 -4.5t-43.5 -13.5
l8 32h76q52 0 79 10t37 37q5 13 7.5 32.5t2.5 44.5v1h-341l-42 -209l174 -32q4 7 10 10t15 3q12 0 17.5 -5t5.5 -15q0 -9 -5 -13.5t-15 -4.5q-11 0 -16.5 4.5t-5.5 13.5h-183q0 -60 46.5 -89.5t155.5 -29.5z" />
    <glyph glyph-name="uni2159" unicode="&#x2159;" horiz-adv-x="1130" 
d="M125 0zM688 397l396 212l-191 173l-256 -338zM527 352l-402 -230l193 -180l259 363zM458 354v144h-77v216h-133q-11 -32 -36 -47.5t-58 -17.5v-112h66v-39h-87v-144h325zM1018 122q0 54 -32.5 76t-101.5 22q-35 0 -64 -7t-52 -21q0 23 11 38.5t37 15.5q13 0 21 -3t11 -10
h170q-15 73 -64 104t-137 31q-100 0 -154 -49.5t-54 -143.5q0 -89 47 -136.5t165 -47.5q88 0 142.5 32.5t54.5 98.5zM820 120q-14 0 -23.5 4t-15.5 11q11 8 23.5 13t29.5 5q14 0 18.5 -4t4.5 -11q0 -9 -7.5 -13.5t-29.5 -4.5z" />
    <glyph glyph-name="uni215A" unicode="&#x215a;" horiz-adv-x="1130" 
d="M78 0zM688 397l396 212l-191 173l-256 -338zM527 352l-402 -230l193 -180l259 363zM280 347q109 0 154.5 32.5t45.5 92.5q0 54 -31.5 78.5t-100.5 24.5q-27 0 -50.5 -4.5t-43.5 -13.5l8 32h76q52 0 79 10t37 37q5 13 7.5 32.5t2.5 44.5v1h-341l-42 -209l174 -32
q4 7 10 10t15 3q12 0 17.5 -5t5.5 -15q0 -9 -5 -13.5t-15 -4.5q-11 0 -16.5 4.5t-5.5 13.5h-183q0 -60 46.5 -89.5t155.5 -29.5zM1018 122q0 54 -32.5 76t-101.5 22q-35 0 -64 -7t-52 -21q0 23 11 38.5t37 15.5q13 0 21 -3t11 -10h170q-15 73 -64 104t-137 31
q-100 0 -154 -49.5t-54 -143.5q0 -89 47 -136.5t165 -47.5q88 0 142.5 32.5t54.5 98.5zM820 120q-14 0 -23.5 4t-15.5 11q11 8 23.5 13t29.5 5q14 0 18.5 -4t4.5 -11q0 -9 -7.5 -13.5t-29.5 -4.5z" />
    <glyph glyph-name="uni215B" unicode="&#x215b;" horiz-adv-x="1130" 
d="M125 0zM688 397l396 212l-191 173l-256 -338zM527 352l-402 -230l193 -180l259 363zM458 354v144h-77v216h-133q-11 -32 -36 -47.5t-58 -17.5v-112h66v-39h-87v-144h325zM821 -7q108 0 158.5 27t50.5 83q0 28 -18.5 48t-55.5 32q32 8 47.5 26.5t15.5 47.5q0 53 -46 82
t-150 29q-105 0 -150 -28t-45 -83q0 -28 15 -47t45 -28q-37 -11 -56 -32t-19 -52q0 -55 49.5 -80t158.5 -25zM823 211q-22 0 -33 3.5t-11 10.5q0 8 11 11.5t33 3.5q23 0 34 -3.5t11 -11.5q0 -7 -11 -10.5t-34 -3.5zM823 122q-25 0 -36 2.5t-11 11.5q0 8 12 11.5t35 3.5
q24 0 36 -3.5t12 -11.5q0 -9 -11.5 -11.5t-36.5 -2.5z" />
    <glyph glyph-name="uni215C" unicode="&#x215c;" horiz-adv-x="1130" 
d="M66 0zM688 397l396 212l-191 173l-256 -338zM527 352l-402 -230l193 -180l259 363zM821 -7q108 0 158.5 27t50.5 83q0 28 -18.5 48t-55.5 32q32 8 47.5 26.5t15.5 47.5q0 53 -46 82t-150 29q-105 0 -150 -28t-45 -83q0 -28 15 -47t45 -28q-37 -11 -56 -32t-19 -52
q0 -55 49.5 -80t158.5 -25zM823 211q-22 0 -33 3.5t-11 10.5q0 8 11 11.5t33 3.5q23 0 34 -3.5t11 -11.5q0 -7 -11 -10.5t-34 -3.5zM823 122q-25 0 -36 2.5t-11 11.5q0 8 12 11.5t35 3.5q24 0 36 -3.5t12 -11.5q0 -9 -11.5 -11.5t-36.5 -2.5zM273 344q106 0 156 31.5
t50 86.5q0 38 -23 55t-60 23q38 8 57 26.5t19 47.5q0 46 -43.5 75.5t-143.5 29.5t-154.5 -30.5t-57.5 -109.5h159q1 7 8 10.5t29 3.5q20 0 26.5 -3t6.5 -8q0 -4 -5.5 -7.5t-24.5 -3.5h-31v-75h32q23 0 29.5 -2.5t6.5 -7.5q0 -6 -8 -9.5t-30 -3.5q-23 0 -29.5 3t-8.5 11h-167
q1 -46 17.5 -78t60.5 -48q22 -9 54.5 -13t74.5 -4z" />
    <glyph glyph-name="uni215D" unicode="&#x215d;" horiz-adv-x="1130" 
d="M78 0zM688 397l396 212l-191 173l-256 -338zM527 352l-402 -230l193 -180l259 363zM821 -7q108 0 158.5 27t50.5 83q0 28 -18.5 48t-55.5 32q32 8 47.5 26.5t15.5 47.5q0 53 -46 82t-150 29q-105 0 -150 -28t-45 -83q0 -28 15 -47t45 -28q-37 -11 -56 -32t-19 -52
q0 -55 49.5 -80t158.5 -25zM823 211q-22 0 -33 3.5t-11 10.5q0 8 11 11.5t33 3.5q23 0 34 -3.5t11 -11.5q0 -7 -11 -10.5t-34 -3.5zM823 122q-25 0 -36 2.5t-11 11.5q0 8 12 11.5t35 3.5q24 0 36 -3.5t12 -11.5q0 -9 -11.5 -11.5t-36.5 -2.5zM280 347q109 0 154.5 32.5
t45.5 92.5q0 54 -31.5 78.5t-100.5 24.5q-27 0 -50.5 -4.5t-43.5 -13.5l8 32h76q52 0 79 10t37 37q5 13 7.5 32.5t2.5 44.5v1h-341l-42 -209l174 -32q4 7 10 10t15 3q12 0 17.5 -5t5.5 -15q0 -9 -5 -13.5t-15 -4.5q-11 0 -16.5 4.5t-5.5 13.5h-183q0 -60 46.5 -89.5
t155.5 -29.5z" />
    <glyph glyph-name="uni215E" unicode="&#x215e;" horiz-adv-x="1130" 
d="M125 0zM688 397l396 212l-191 173l-256 -338zM527 352l-402 -230l193 -180l259 363zM821 -7q108 0 158.5 27t50.5 83q0 28 -18.5 48t-55.5 32q32 8 47.5 26.5t15.5 47.5q0 53 -46 82t-150 29q-105 0 -150 -28t-45 -83q0 -28 15 -47t45 -28q-37 -11 -56 -32t-19 -52
q0 -55 49.5 -80t158.5 -25zM823 211q-22 0 -33 3.5t-11 10.5q0 8 11 11.5t33 3.5q23 0 34 -3.5t11 -11.5q0 -7 -11 -10.5t-34 -3.5zM823 122q-25 0 -36 2.5t-11 11.5q0 8 12 11.5t35 3.5q24 0 36 -3.5t12 -11.5q0 -9 -11.5 -11.5t-36.5 -2.5zM368 354q16 45 36.5 84t50.5 78
q15 19 34.5 39.5t42.5 41.5v117h-367v-137h179q-49 -48 -90.5 -103.5t-72.5 -119.5h187z" />
    <glyph glyph-name="uni215F" unicode="&#x215f;" horiz-adv-x="1130" 
d="M125 0zM688 397l396 212l-191 173l-256 -338zM527 352l-402 -230l193 -180l259 363zM458 354v144h-77v216h-133q-11 -32 -36 -47.5t-58 -17.5v-112h66v-39h-87v-144h325z" />
    <glyph glyph-name="uni2190" unicode="&#x2190;" horiz-adv-x="1035" 
d="M924 240v257h-445q44 44 82 102t56 110h-312q-9 -41 -40.5 -91t-81.5 -102q-24 -26 -52.5 -50t-60.5 -47v-110q64 -45 114.5 -96t83.5 -100q16 -24 26.5 -46.5t14.5 -43.5h324q-11 36 -36.5 75t-57.5 76q-16 18 -32 35t-33 31h450z" />
    <glyph glyph-name="arrowup" unicode="&#x2191;" horiz-adv-x="1035" 
d="M865 248v312q-40 9 -90.5 40t-102.5 80q-26 24 -50 52.5t-47 60.5h-103q-45 -64 -97 -113t-102 -80q-26 -16 -48.5 -25.5t-43.5 -14.5v-312q63 22 117.5 61t94.5 86v-447h257v447q41 -47 96.5 -85.5t118.5 -61.5z" />
    <glyph glyph-name="uni2192" unicode="&#x2192;" horiz-adv-x="1035" 
d="M726 23q9 41 41.5 90t82.5 100q26 25 54.5 49t60.5 47v110q-64 46 -113.5 97.5t-80.5 101.5q-16 25 -26 48t-15 43h-312q18 -52 56.5 -110t81.5 -102h-445v-257h450q-33 -29 -65 -66t-57 -76q-13 -20 -22 -38.5t-15 -36.5h324z" />
    <glyph glyph-name="arrowdown" unicode="&#x2193;" horiz-adv-x="1035" 
d="M572 -72q46 64 98 113t102 80q25 16 48 26t43 14v312q-63 -22 -116.5 -60.5t-94.5 -85.5v446h-258v-447q-41 47 -96.5 86t-118.5 61v-312q41 -9 91.5 -40t101.5 -80q26 -24 50.5 -52.5t46.5 -60.5h103z" />
    <glyph glyph-name="uni2196" unicode="&#x2196;" horiz-adv-x="1035" 
d="M909 162l-317 317q63 -5 130 6.5t128 39.5l-222 222q-35 -22 -92.5 -36t-129.5 -16q-35 -1 -72 2t-76 9l-72 -72q13 -77 11 -149t-16 -129q-7 -29 -16 -52t-21 -41l221 -221q29 60 40 126t6 127l316 -315z" />
    <glyph glyph-name="uni2197" unicode="&#x2197;" horiz-adv-x="1035" 
d="M689 40l222 222q-22 35 -36 92.5t-16 128.5q-1 36 2 73t9 76l-72 72q-77 -13 -149 -11t-129 16q-29 7 -52 16t-41 20l-221 -220q60 -29 126 -40t127 -7l-315 -315l182 -183l317 317q-5 -63 6.5 -129.5t39.5 -127.5z" />
    <glyph glyph-name="uni2198" unicode="&#x2198;" horiz-adv-x="1035" 
d="M794 21l72 72q-12 78 -10.5 149.5t15.5 128.5q7 29 16.5 52.5t20.5 40.5l-221 221q-28 -60 -39 -125.5t-7 -127.5l-316 315l-182 -182l317 -317q-63 5 -129.5 -6.5t-128.5 -39.5l222 -222q36 23 93 36.5t129 15.5q35 1 72.5 -2t75.5 -9z" />
    <glyph glyph-name="uni2199" unicode="&#x2199;" horiz-adv-x="1035" 
d="M627 -20l220 221q-60 29 -125.5 40t-126.5 6l315 316l-182 182l-317 -316q5 62 -6.5 129t-40.5 128l-222 -222q23 -35 37 -92.5t15 -129.5q1 -35 -1.5 -72t-9.5 -76l72 -72q78 13 149.5 11t129.5 -16q29 -7 52.5 -16.5t40.5 -20.5z" />
    <glyph glyph-name="partialdiff" unicode="&#x2202;" horiz-adv-x="837" 
d="M418 -19q193 0 296.5 84t103.5 239q0 84 -30.5 160.5t-83.5 144.5t-121.5 126.5t-145.5 105.5h-403q129 -84 223.5 -151.5t156.5 -127.5q31 -30 54.5 -60.5t38.5 -62.5q-29 45 -77 71.5t-116 26.5q-81 0 -148 -28.5t-107 -86.5q-20 -29 -30 -65.5t-10 -80.5
q0 -141 94 -218t305 -77zM418 207q-42 0 -63.5 17.5t-21.5 52.5q0 39 21.5 58t63.5 19q41 0 63.5 -19.5t22.5 -57.5q0 -34 -22.5 -52t-63.5 -18z" />
    <glyph glyph-name="uni2206" unicode="&#x2206;" horiz-adv-x="1076" 
d="M1107 0l-567 747l-570 -747h1137zM639 224h-202l101 132z" />
    <glyph glyph-name="product" unicode="&#x220f;" horiz-adv-x="973" 
d="M545 0h286v446h118v274h-926v-274h122v-446h286v446h114v-446z" />
    <glyph glyph-name="summation" unicode="&#x2211;" horiz-adv-x="747" 
d="M716 265h-224l215 105l-218 99h216v251h-668v-247l259 -105l-272 -107v-261h692v265z" />
    <glyph glyph-name="minus" unicode="&#x2212;" horiz-adv-x="763" 
d="M706 238v276h-650v-276h650z" />
    <glyph glyph-name="radical" unicode="&#x221a;" horiz-adv-x="1000" 
d="M587 0l446 720h-335l-257 -436l-113 221h-301v-286h141l114 -219h305z" />
    <glyph glyph-name="infinity" unicode="&#x221e;" horiz-adv-x="1078" 
d="M783 295q-28 0 -51.5 17t-52.5 45q29 28 52.5 45t51.5 17q29 0 46 -18t17 -44t-17 -44t-46 -18zM293 296q-28 0 -44.5 18t-16.5 43q0 26 16.5 43.5t44.5 17.5q27 0 52.5 -16.5t54.5 -44.5q-29 -28 -54.5 -44.5t-52.5 -16.5zM283 93q57 0 98.5 15.5t77.5 42.5
q18 14 37.5 30.5t39.5 34.5q41 -37 78 -64.5t79 -42.5q21 -7 45.5 -11t52.5 -4q131 0 196.5 72.5t65.5 190.5q0 73 -34 131.5t-94 93.5q-30 17 -64.5 25.5t-73.5 8.5q-57 0 -97.5 -14.5t-75.5 -41.5q-17 -13 -36 -29.5t-40 -35.5q-41 38 -76 65t-75 42q-20 7 -44.5 10.5
t-53.5 3.5q-81 0 -141 -34.5t-94 -92.5q-16 -30 -24.5 -62.5t-8.5 -69.5q0 -79 27.5 -138.5t85.5 -92.5q29 -16 66.5 -24.5t82.5 -8.5z" />
    <glyph glyph-name="integral" unicode="&#x222b;" horiz-adv-x="560" 
d="M12 -256h102q161 0 234 62t73 201l2 447q0 44 12.5 58t49.5 14h65v238h-111q-160 0 -233.5 -62t-73.5 -201l-2 -447q0 -43 -12 -57.5t-50 -14.5h-56v-238z" />
    <glyph glyph-name="approxequal" unicode="&#x2248;" horiz-adv-x="724" 
d="M217 685q-38 0 -74 -13.5t-51 -38.5v-265q24 32 58 47t68 15q28 0 60.5 -10.5t69.5 -24.5q36 -15 75.5 -25.5t80.5 -10.5q40 0 75.5 14.5t51.5 39.5v263q-26 -36 -60.5 -49t-66.5 -13q-27 0 -62 10.5t-74 25.5q-39 14 -77.5 24.5t-73.5 10.5zM92 297v-265q24 35 58 48.5
t68 13.5q29 0 62 -10.5t69 -24.5q36 -15 75.5 -25.5t79.5 -10.5q38 0 74.5 15t52.5 40v263q-25 -36 -60 -49t-67 -13q-26 0 -61 10.5t-73 25.5q-39 14 -78 24.5t-74 10.5q-39 0 -75 -14t-51 -39z" />
    <glyph glyph-name="notequal" unicode="&#x2260;" horiz-adv-x="763" 
d="M661 77v256h-217l29 79h188v256h-96l31 87h-171l-31 -87h-293v-256h200l-28 -79h-172v-256h79l-37 -103h172l37 103h309z" />
    <glyph glyph-name="equivalence" unicode="&#x2261;" horiz-adv-x="763" 
d="M661 519v197h-560v-197h560zM661 261v196h-560v-196h560zM661 3v197h-560v-197h560z" />
    <glyph glyph-name="lessequal" unicode="&#x2264;" horiz-adv-x="724" 
d="M628 226v224l-255 73l255 74v224l-539 -203v-195zM628 -26v218h-542v-218h542z" />
    <glyph glyph-name="greaterequal" unicode="&#x2265;" horiz-adv-x="724" 
d="M95 226l539 197v195l-539 203v-224l255 -74l-255 -73v-224zM637 -26v218h-542v-218h542z" />
    <glyph glyph-name="uni22A0" unicode="&#x22a0;" horiz-adv-x="776" 
d="M28 0h720v720h-720v-720zM265 488h246v-255h-246v255zM450 256l40 40l-62 64l63 64l-41 40l-61 -63l-61 62l-41 -40l62 -63l-61 -63l40 -40l61 62z" />
    <glyph glyph-name="house" unicode="&#x2302;" horiz-adv-x="822" 
d="M737 0v406l-326 313l-326 -313v-406h652z" />
    <glyph glyph-name="uni25A0" unicode="&#x25a0;" horiz-adv-x="776" 
d="M28 0h720v720h-720v-720z" />
    <glyph glyph-name="uni25A1" unicode="&#x25a1;" horiz-adv-x="776" 
d="M28 0v720h720v-720h-720zM265 488v-255h246v255h-246z" />
    <glyph glyph-name="uni25AA" unicode="&#x25aa;" horiz-adv-x="639" 
d="M27 0h585v585h-585v-585z" />
    <glyph glyph-name="uni25AB" unicode="&#x25ab;" horiz-adv-x="639" 
d="M27 0h585v585h-585v-585zM227 389h185v-192h-185v192z" />
    <glyph glyph-name="triagup" unicode="&#x25b2;" horiz-adv-x="867" 
d="M862 0l-428 742l-429 -742h857z" />
    <glyph glyph-name="triagrt" unicode="&#x25ba;" horiz-adv-x="867" 
d="M85 -57l742 429l-742 428v-857z" />
    <glyph glyph-name="triagdn" unicode="&#x25bc;" horiz-adv-x="867" 
d="M5 730l429 -742l428 742h-857z" />
    <glyph glyph-name="triaglf" unicode="&#x25c4;" horiz-adv-x="867" 
d="M782 800l-742 -428l742 -429v857z" />
    <glyph glyph-name="lozenge" unicode="&#x25ca;" horiz-adv-x="960" 
d="M483 -129l477 477l-480 480l-477 -477zM366 349l113 114l115 -116l-113 -112z" />
    <glyph glyph-name="uni25CB" unicode="&#x25cb;" horiz-adv-x="825" 
d="M412 -11q82 0 150 27.5t118 77.5q49 49 76 116.5t27 147.5q0 81 -27.5 148.5t-76.5 116.5q-50 50 -118 77t-149 27q-82 0 -149.5 -27.5t-117.5 -77.5q-49 -50 -76 -117t-27 -147q0 -108 47 -191t131 -131q41 -23 89.5 -35t102.5 -12zM412 212q-64 0 -102 42.5t-38 103.5
q0 62 38 105t102 43q43 0 74 -20t49 -53q8 -17 12.5 -35.5t4.5 -39.5q0 -61 -38 -103.5t-102 -42.5z" />
    <glyph glyph-name="uni25CE" unicode="&#x25ce;" horiz-adv-x="883" 
d="M441 -10q81 0 148 27.5t117 76.5q49 50 75.5 117t26.5 147q0 81 -27 148t-77 117q-49 49 -116 76t-147 27q-81 0 -148 -27.5t-116 -76.5q-49 -50 -75.5 -117t-26.5 -147q0 -108 46.5 -191t129.5 -130q41 -23 88.5 -35t101.5 -12zM441 120q-66 0 -119.5 31t-84.5 85
q-15 27 -23 57.5t-8 64.5q0 68 31 122.5t84 85.5q27 16 57 24t63 8q68 0 121.5 -32.5t83.5 -86.5q16 -27 23.5 -57.5t7.5 -63.5q0 -68 -30.5 -122t-84.5 -85q-26 -15 -56.5 -23t-64.5 -8zM442 187q49 0 87.5 22.5t61.5 61.5q11 19 16.5 40.5t5.5 45.5q0 49 -22.5 87.5
t-61.5 60.5q-19 11 -41 16.5t-46 5.5q-48 0 -86.5 -22t-61.5 -61q-12 -19 -17.5 -40.5t-5.5 -46.5q0 -49 22 -87.5t61 -60.5q19 -11 41 -16.5t47 -5.5zM442 299q-24 0 -39 16.5t-15 41.5q0 26 15 42t39 16t39 -16t15 -42q0 -25 -15 -41.5t-39 -16.5z" />
    <glyph glyph-name="uni25CF" unicode="&#x25cf;" horiz-adv-x="825" 
d="M412 -11q82 0 150 27.5t118 77.5q49 49 76 116.5t27 147.5q0 81 -27.5 148.5t-76.5 116.5q-50 50 -118 77t-149 27q-82 0 -149.5 -27.5t-117.5 -77.5q-49 -50 -76 -117t-27 -147q0 -108 47 -191t131 -131q41 -23 89.5 -35t102.5 -12z" />
    <glyph glyph-name="uni25E2" unicode="&#x25e2;" horiz-adv-x="867" 
d="M858 533l-828 222l222 -828z" />
    <glyph glyph-name="uni25E3" unicode="&#x25e3;" horiz-adv-x="867" 
d="M617 -73l222 828l-828 -222z" />
    <glyph glyph-name="uni25E4" unicode="&#x25e4;" horiz-adv-x="867" 
d="M842 -54l-222 828l-606 -606z" />
    <glyph glyph-name="uni25E5" unicode="&#x25e5;" horiz-adv-x="867" 
d="M857 163l-605 607l-223 -828z" />
    <glyph glyph-name="uni2605" unicode="&#x2605;" horiz-adv-x="870" 
d="M547 303l187 134l-230 1l-71 218l-72 -218l-229 1l186 -135l-72 -219l186 135l187 -135z" />
    <glyph glyph-name="uni263C" unicode="&#x263c;" horiz-adv-x="898" 
d="M436 568h20l17 142h-54zM333 535l15 10l-55 133l-47 -28zM544 545l15 -10l87 115l-47 28zM258 455l10 15l-115 87l-28 -47zM624 471l10 -16l133 56l-30 46zM272 356q0 -47 23.5 -87t63.5 -63q20 -12 41.5 -18t45.5 -6q48 0 87.5 23.5t62.5 63.5q12 20 18 41.5t6 45.5
q0 48 -23.5 87.5t-63.5 62.5q-20 12 -41.5 18t-45.5 6q-47 0 -87 -23.5t-63 -63.5q-12 -20 -18 -41.5t-6 -45.5zM235 347v20l-142 17v-54zM657 367v-20l142 -17v54zM634 259l-10 -15l115 -87l28 47zM268 243l-10 16l-133 -56l30 -46zM559 179l-15 -10l55 -133l47 28z
M348 169l-15 10l-87 -115l47 -28zM456 146h-20l-17 -142h54z" />
    <glyph glyph-name="uni263E" unicode="&#x263e;" horiz-adv-x="757" 
d="M519 605q18 0 36 -3.5t35 -8.5q-38 27 -83.5 42t-94.5 15q-61 0 -114.5 -23t-94.5 -64t-64 -94.5t-23 -114.5t23 -114.5t64 -94.5t94.5 -64t114.5 -23q49 0 94.5 15t83.5 42q-17 -5 -35 -8.5t-36 -3.5q-66 0 -120 34t-87 91q-16 29 -24 60.5t-8 65.5q0 69 32.5 126
t86.5 91q27 17 57 25.5t63 8.5z" />
    <glyph glyph-name="spade" unicode="&#x2660;" horiz-adv-x="872" 
d="M468 284q13 -34 36.5 -64t58.5 -49q17 -10 38 -14.5t45 -4.5q43 0 77.5 21t55.5 56q11 17 16 36.5t5 40.5q0 56 -22 103.5t-71 97.5q-24 25 -56.5 54t-73.5 61l-137 109h-1l-137 -109q-81 -64 -132 -114.5t-75 -98.5q-12 -23 -18 -49t-6 -54q0 -42 23 -77.5t61 -56.5
q19 -10 40 -15.5t44 -5.5q45 0 77.5 19t54.5 50q11 15 19.5 31t14.5 33q0 -59 -17.5 -114.5t-39.5 -100.5q-11 -22 -20 -39t-16 -30h254q-9 19 -25.5 49t-32.5 68q-17 37 -28.5 80t-11.5 87z" />
    <glyph glyph-name="club" unicode="&#x2663;" horiz-adv-x="872" 
d="M632 128q48 0 87.5 24t62.5 63q11 20 17 42t6 46q0 48 -23 87t-62 63q-19 11 -41 17t-46 6q-12 0 -23.5 -2t-21.5 -6q8 20 13 42.5t5 44.5q0 48 -23 86.5t-62 61.5q-20 12 -41.5 17.5t-45.5 5.5q-47 0 -86.5 -23t-63.5 -62q-11 -19 -17 -40.5t-6 -45.5q0 -22 5.5 -43.5
t14.5 -41.5l-20 4t-21 2q-48 0 -87.5 -23.5t-62.5 -62.5q-12 -19 -18 -41t-6 -46q0 -48 23.5 -87.5t63.5 -63.5q19 -12 41 -18t46 -6q57 0 100.5 33.5t63.5 84.5q-6 -52 -23 -100t-36 -86q-10 -19 -18 -34t-14 -26h254q-11 22 -31 60t-39 86q-9 24 -15.5 48.5t-9.5 50.5
q20 -51 62 -84t98 -33z" />
    <glyph glyph-name="heart" unicode="&#x2665;" horiz-adv-x="872" 
d="M433 -17l138 154q82 91 132 160.5t73 127.5q12 30 17.5 59t5.5 57q0 51 -25.5 93t-67.5 67q-21 12 -44.5 18.5t-48.5 6.5q-50 0 -88.5 -20.5t-62.5 -56.5q-12 -18 -19 -38t-10 -42q-5 45 -29.5 80.5t-63.5 55.5q-19 11 -41 16t-47 5q-50 0 -91 -25t-65 -67
q-12 -21 -18 -44.5t-6 -48.5q0 -57 22 -115.5t71 -128.5q24 -35 56.5 -75t73.5 -85z" />
    <glyph glyph-name="diamond" unicode="&#x2666;" horiz-adv-x="872" 
d="M115 364l321 -374l320 374l-320 370z" />
    <glyph glyph-name="uni267B" unicode="&#x267b;" horiz-adv-x="799" 
d="M335 680l14 -2.5t32 -12.5q9 -5 17 -13.5t14 -19.5l61 -106l-34 -20l145 -27l53 142l-37 -21l-24 41q-16 29 -35 34t-42 6h-164v-1zM162 527l127 -73l98 170q-8 17 -32 29t-53 14q-14 1 -27.5 -2t-26.5 -11q-10 -5 -18 -13t-11 -13zM675 467l-126 -72l98 -170
q18 0 40.5 14t38.5 38q8 12 12 25.5t4 28.5q0 11 -2.5 21.5t-5.5 15.5zM151 125l-4.5 14t-4.5 35q0 10 3 20.5t9 21.5q1 2 10 18t21 37q12 20 21 35.5l9 15.5l35 -21l-50 141l-148 -26l36 -21l-24 -42q-16 -28 -11.5 -47t15.5 -39l81 -142h2zM724 246l-10 -11t-28 -22
q-9 -5 -19.5 -8t-23.5 -3h-123v42l-95 -115l95 -115v42h49q33 0 47 14t27 33l82 142zM371 56v146h-196q-9 -15 -8 -41.5t14 -52.5q6 -13 15.5 -23t22.5 -18q10 -6 20.5 -8.5t17.5 -2.5h114z" />
    <glyph glyph-name="uni267C" unicode="&#x267c;" horiz-adv-x="799" 
d="M738 354q0 71 -26 132.5t-73 108.5q-46 46 -107 72.5t-131 26.5t-132 -26.5t-108 -72.5q-47 -47 -73.5 -108.5t-26.5 -132.5q0 -70 26.5 -131t73.5 -108q46 -46 108 -72t132 -26t131 26t107 72q47 47 73 108t26 131zM344 612h127q19 0 33 -4.5t27 -26.5l19 -32l28 16
l-40 -110l-113 21l27 16l-48 82q-9 17 -23.5 24.5t-25.5 10.5q-5 1 -8 1.5l-3 0.5v1zM259 570q2 5 8 11t13 10q20 12 42.5 10t40.5 -11q9 -5 15.5 -10.5t9.5 -11.5l-75 -132l-99 57zM656 370q3 -5 5.5 -12.5t2.5 -16.5q0 -23 -12.5 -42t-30.5 -31q-8 -5 -16 -8t-15 -3
l-77 132l99 57zM204 181l-63 109q-8 17 -12 31.5t9 36.5l19 32l-28 17l114 19l39 -109l-27 17l-48 -82q-9 -17 -9 -33.5t4 -26.5q1 -6 2 -8.5l1 -2.5h-1zM650 273l-64 -109q-9 -15 -20 -25.5t-37 -10.5h-37v-33l-75 89l75 88v-31h94q20 0 34 8.5t22 16.5q3 4 5 6l2 2z
M284 128q-5 0 -13 2t-16 6q-20 12 -30 32t-11 40q-1 10 0.5 18.5t5.5 14.5h153v-113h-89z" />
    <glyph glyph-name="uni267D" unicode="&#x267d;" horiz-adv-x="799" 
d="M738 354q0 71 -26 132.5t-73 108.5q-46 46 -107 72.5t-131 26.5t-132 -26.5t-108 -72.5q-47 -47 -73.5 -108.5t-26.5 -132.5q0 -70 26.5 -131t73.5 -108q46 -46 108 -72t132 -26t131 26t107 72q47 47 73 108t26 131zM721 354q0 -67 -25 -125t-69 -102t-102 -69t-124 -25
q-67 0 -125.5 25t-103.5 69q-44 44 -69 102t-25 125t25 125.5t69 103.5q45 44 103.5 69t125.5 25q66 0 124 -25t102 -69q44 -45 69 -103.5t25 -125.5zM344 611l11 -2.5t25 -10.5q7 -4 13 -10t11 -14l48 -82l-27 -16l113 -21l40 110l-28 -16l-19 32q-13 22 -27 26.5t-33 4.5
h-127v-1zM214 493l99 -57l75 132q-6 13 -24.5 22t-41.5 11q-11 1 -21.5 -1.5t-20.5 -8.5q-7 -4 -13 -10t-8 -11zM612 446l-99 -57l77 -132q14 0 31.5 11.5t29.5 30.5q7 9 10 20t3 22q0 9 -2.5 16.5t-5.5 12.5zM205 181l-3.5 10.5t-3.5 27.5q0 8 2 16.5t7 16.5l48 82l27 -17
l-39 109l-114 -19l28 -17l-19 -32q-13 -22 -9 -36.5t12 -31.5l63 -109h1zM649 274l-7.5 -8t-21.5 -17q-7 -4 -15.5 -6t-18.5 -2h-94v31l-75 -88l75 -89v33h37q26 0 37 10.5t20 25.5l64 109zM373 128v113h-153q-7 -12 -6 -32.5t11 -40.5q5 -10 12.5 -18t17.5 -14q8 -4 16 -6
t13 -2h89z" />
    <glyph glyph-name="uni2E18" unicode="&#x2e18;" horiz-adv-x="781" 
d="M378 596q-73 0 -114.5 -9.5t-58.5 -34.5q-8 -13 -12.5 -31t-4.5 -41q0 -45 18 -70.5t59 -36.5q21 -5 49.5 -7.5t63.5 -2.5q71 0 112 10.5t59 35.5q8 13 12.5 30.5t4.5 40.5q0 46 -15 71t-55 35q-21 5 -50 7.5t-68 2.5zM390 -155q145 0 229.5 35t122.5 102q19 34 29.5 75
t12.5 89h-264q0 -30 -9 -51t-28 -34q0 72 -1 111.5t-2 57.5q-1 9 -1 16t-1 11q-2 24 -4.5 41t-7.5 35q-16 -2 -35.5 -3.5t-54.5 -1.5q-31 0 -50 1t-36 3l-8 -31q-7 -26 -29.5 -41.5t-53.5 -25.5q-31 -11 -63.5 -22.5t-60.5 -30.5q-29 -18 -46.5 -49t-17.5 -81
q0 -104 91 -155t288 -51zM269 99q0 17 9 23.5t26 19.5q-1 -20 -2.5 -42.5t-2.5 -45.5q-15 7 -22.5 18.5t-7.5 26.5z" />
    <glyph glyph-name="uni3008" unicode="&#x3008;" horiz-adv-x="510" 
d="M543 -160l-227 471l228 442h-308l-234 -444l221 -469h320z" />
    <glyph glyph-name="uni3009" unicode="&#x3009;" horiz-adv-x="510" 
d="M287 -160l221 469l-233 444h-307l227 -442l-227 -471h319z" />
    <glyph glyph-name="Aumlaut" horiz-adv-x="871" 
d="M86 540q53 0 75 23t22 65q0 53 -23 71.5t-74 18.5q-50 0 -70.5 -18.5t-20.5 -71.5t19 -70.5t72 -17.5zM784 540q55 0 75.5 17.5t20.5 70.5t-21.5 71.5t-74.5 18.5q-52 0 -71 -18.5t-19 -71.5q0 -40 19.5 -64t70.5 -24zM431 432l7 33l7 -34l44 -137h-103zM583 0h323
l-280 720h-372l-288 -720h324l29 90h235z" />
    <glyph glyph-name="Oumlaut" horiz-adv-x="912" 
d="M64 623q24 0 37.5 8.5t13.5 33.5q0 26 -13.5 34t-37.5 8q-23 0 -37 -8t-14 -34t13 -34t38 -8zM851 623q24 0 37.5 8.5t13.5 33.5q0 26 -14.5 34t-36.5 8q-24 0 -36.5 -8t-12.5 -34t12.5 -34t36.5 -8zM456 -19q136 0 233.5 41t150.5 124q27 42 40 95t13 117
q0 119 -54 204.5t-151 130.5q-48 23 -104.5 34.5t-121.5 11.5q-133 0 -233 -45.5t-155 -131.5q-27 -42 -41 -93t-14 -111q0 -192 115 -284.5t322 -92.5zM456 252q-51 0 -81.5 27.5t-30.5 78.5q0 49 30.5 78.5t81.5 29.5t81.5 -29.5t30.5 -78.5q0 -51 -30.5 -78.5
t-81.5 -27.5z" />
    <glyph glyph-name="Uumlaut" horiz-adv-x="878" 
d="M403 443q17 0 23 29t6 110q0 85 -7 114t-22 29q-11 0 -17.5 -12t-9.5 -43q-1 -16 -1.5 -38t-0.5 -50q0 -82 6 -110.5t23 -28.5zM474 443q17 0 24 29t7 110q0 85 -7 114t-24 29q-16 0 -22.5 -29t-6.5 -114q0 -82 5.5 -110.5t23.5 -28.5zM438 -19q197 0 301 91.5t104 296.5
v351h-325v-351q0 -58 -20 -81.5t-58 -23.5q-40 0 -60 23.5t-20 81.5v351h-325v-351q0 -133 38.5 -219t126.5 -128q44 -20 103.5 -30.5t134.5 -10.5z" />
    <glyph glyph-name="I.alt" horiz-adv-x="409" 
d="M364 0v720h-319v-720h319z" />
    <glyph glyph-name="Iacute.alt" horiz-adv-x="409" 
d="M45 0zM364 0v720h-319v-720h319zM98 758h200l204 218h-265z" />
    <glyph glyph-name="Ibreve.alt" horiz-adv-x="409" 
d="M0 0zM364 0v720h-319v-720h319zM205 756q112 0 175 55t63 167h-176q0 -34 -15 -46t-47 -12q-34 0 -48 12.5t-14 45.5h-174q0 -113 59.5 -167.5t176.5 -54.5z" />
    <glyph glyph-name="Icircumflex.alt" horiz-adv-x="409" 
d="M0 0zM364 0v720h-319v-720h319zM255 758h194l-153 246h-176l-153 -246h189l51 100z" />
    <glyph glyph-name="Idieresis.alt" horiz-adv-x="409" 
d="M0 0zM364 0v720h-319v-720h319zM74 756q65 0 89.5 22.5t24.5 83.5q0 65 -26 87t-88 22t-87 -22t-25 -87q0 -42 9 -65t33 -32q12 -4 29.5 -6.5t40.5 -2.5zM335 756q65 0 89.5 22.5t24.5 83.5q0 65 -25.5 87t-88.5 22q-64 0 -88 -22t-24 -87q0 -42 9.5 -65t33.5 -32
q12 -4 29.5 -6.5t39.5 -2.5z" />
    <glyph glyph-name="Idotaccent.alt" horiz-adv-x="409" 
d="M45 0zM364 0v720h-319v-720h319zM206 754q52 0 81.5 9.5t41.5 36.5q7 13 10 32.5t3 45.5q0 52 -13 79t-42 36q-15 5 -35 7.5t-46 2.5q-51 0 -81 -9.5t-42 -36.5q-7 -14 -10 -33.5t-3 -45.5q0 -52 11 -79t41 -36q14 -4 35.5 -6.5t48.5 -2.5z" />
    <glyph glyph-name="Igrave.alt" horiz-adv-x="409" 
d="M0 0zM364 0v720h-319v-720h319zM118 758h185l-111 218h-266z" />
    <glyph glyph-name="Imacron.alt" horiz-adv-x="409" 
d="M20 0zM364 0v720h-319v-720h319zM20 769h373v170h-373v-170z" />
    <glyph glyph-name="Iogonek.alt" horiz-adv-x="409" 
d="M485 -110h-219q-2 -28 -13.5 -39t-30.5 -11q-15 0 -23 6.5t-8 19.5q0 7 4.5 16t20.5 23q17 14 51.5 37t95.5 58h1v720h-319v-720h32q-55 -39 -73 -74.5t-18 -72.5q0 -76 55.5 -121.5t168.5 -45.5q118 0 188 53t87 151z" />
    <glyph glyph-name="Itilde.alt" horiz-adv-x="409" 
d="M0 0zM364 0v720h-319v-720h319zM-67 762h161q0 27 6 37t23 10q26 0 55 -13t65 -26q18 -6 38.5 -9.5t43.5 -3.5q87 0 123 52.5t36 176.5h-160q0 -25 -7 -33t-26 -8q-20 0 -48.5 12t-65.5 23q-18 6 -39 9t-44 3q-87 0 -124 -54t-37 -176z" />
    <glyph glyph-name="i.dot" horiz-adv-x="394" 
d="M26 0zM197 575q87 0 129 24.5t42 82.5q0 60 -44 84.5t-127 24.5q-84 0 -127.5 -24.5t-43.5 -84.5q0 -59 39 -83t132 -24zM37 0h320v581q-21 -19 -60 -29.5t-101 -10.5q-61 0 -100 10.5t-59 29.5v-581z" />
    <glyph glyph-name="cordinal" horiz-adv-x="576" 
d="M574 511h-231q-3 -15 -17 -22.5t-39 -7.5q-29 0 -43.5 12t-14.5 36q0 27 14.5 40t43.5 13q25 0 40 -8t17 -25h230q-4 89 -79.5 141t-205.5 52q-91 0 -154.5 -27t-96.5 -75q-17 -24 -25 -52t-8 -59q0 -97 65.5 -153t216.5 -56q132 0 208 51t79 140z" />
    <glyph glyph-name="g.alt" horiz-adv-x="813" 
d="M405 -238q218 0 317.5 54t99.5 173q0 62 -29.5 102t-95.5 60q-33 10 -77.5 15t-100.5 5h-209q-55 0 -70.5 2t-15.5 12q0 9 16.5 13.5t68.5 4.5h118q141 0 222 22t116 65q17 21 25.5 48t8.5 59q0 68 -35.5 107t-103.5 58q-20 6 -45 10t-55 7q83 0 131 2.5t71 11.5
t29.5 27.5t6.5 49.5v3h-317v-18q0 -28 -4.5 -40t-16.5 -15q-6 -1 -15.5 -1.5t-21.5 -0.5h-42q-190 0 -278 -52.5t-88 -147.5q0 -70 40.5 -108t132.5 -53q-95 -12 -136 -45.5t-41 -89.5q0 -54 44 -86t152 -39q-76 -2 -122 -16.5t-67 -36.5q-10 -12 -15 -24t-5 -25
q0 -27 15.5 -48t53.5 -36q38 -14 105.5 -21.5t171.5 -7.5h61zM411 365q-61 0 -83 5.5t-22 19.5q0 16 21 22t73 7h12q64 0 85.5 -6.5t21.5 -22.5q0 -13 -23 -19t-85 -6zM412 -77q-76 0 -104 6.5t-28 20.5q0 11 16 18t74 7h121q41 0 55 -5.5t14 -17.5v-1q0 -7 -9.5 -13.5
t-35.5 -10.5q-13 -2 -32.5 -3t-44.5 -1h-26z" />
    <glyph glyph-name="g.alt2" horiz-adv-x="829" 
d="M411 237q-39 0 -60.5 17t-21.5 50q0 36 22 54t60 18q40 0 60 -18t20 -54q0 -33 -20 -50t-60 -17zM410 -212q140 0 224 27.5t122 82.5q18 27 27.5 61t9.5 75v551h-260l-21 -100q-27 49 -80 78.5t-135 29.5q-79 0 -142.5 -35t-100.5 -101q-19 -33 -28 -73t-9 -87
q0 -86 36.5 -147t99.5 -93q31 -16 66.5 -24t74.5 -8q83 0 127.5 27.5t64.5 73.5v-109q0 -18 -11 -32t-54 -14q-33 0 -45 7.5t-12 21.5h-343q9 -51 30 -90.5t64 -66.5t114.5 -41t180.5 -14z" />
    <glyph glyph-name="uni0123.alt" horiz-adv-x="829" 
d="M17 0zM411 237q-39 0 -60.5 17t-21.5 50q0 36 22 54t60 18q40 0 60 -18t20 -54q0 -33 -20 -50t-60 -17zM410 -212q140 0 224 27.5t122 82.5q18 27 27.5 61t9.5 75v551h-260l-21 -100q-27 49 -80 78.5t-135 29.5q-79 0 -142.5 -35t-100.5 -101q-19 -33 -28 -73t-9 -87
q0 -86 36.5 -147t99.5 -93q31 -16 66.5 -24t74.5 -8q83 0 127.5 27.5t64.5 73.5v-109q0 -18 -11 -32t-54 -14q-33 0 -45 7.5t-12 21.5h-343q9 -51 30 -90.5t64 -66.5t114.5 -41t180.5 -14zM425 642q74 0 102 21.5t28 72.5q0 55 -26 71.5t-86 16.5q-11 0 -22.5 -1t-23.5 -4
q7 30 39.5 42t93.5 12v84q-93 0 -145.5 -22.5t-73.5 -65.5q-10 -22 -15.5 -48t-5.5 -57q0 -48 12.5 -74.5t42.5 -36.5q15 -6 35 -8.5t45 -2.5z" />
    <glyph glyph-name="gcircumflex.alt" horiz-adv-x="829" 
d="M17 0zM411 237q-39 0 -60.5 17t-21.5 50q0 36 22 54t60 18q40 0 60 -18t20 -54q0 -33 -20 -50t-60 -17zM410 -212q140 0 224 27.5t122 82.5q18 27 27.5 61t9.5 75v551h-260l-21 -100q-27 49 -80 78.5t-135 29.5q-79 0 -142.5 -35t-100.5 -101q-19 -33 -28 -73t-9 -87
q0 -86 36.5 -147t99.5 -93q31 -16 66.5 -24t74.5 -8q83 0 127.5 27.5t64.5 73.5v-109q0 -18 -11 -32t-54 -14q-33 0 -45 7.5t-12 21.5h-343q9 -51 30 -90.5t64 -66.5t114.5 -41t180.5 -14zM474 623h194l-153 246h-176l-153 -246h189l51 100z" />
    <glyph glyph-name="gdotaccent.alt" horiz-adv-x="829" 
d="M17 0zM411 237q-39 0 -60.5 17t-21.5 50q0 36 22 54t60 18q40 0 60 -18t20 -54q0 -33 -20 -50t-60 -17zM410 -212q140 0 224 27.5t122 82.5q18 27 27.5 61t9.5 75v551h-260l-21 -100q-27 49 -80 78.5t-135 29.5q-79 0 -142.5 -35t-100.5 -101q-19 -33 -28 -73t-9 -87
q0 -86 36.5 -147t99.5 -93q31 -16 66.5 -24t74.5 -8q83 0 127.5 27.5t64.5 73.5v-109q0 -18 -11 -32t-54 -14q-33 0 -45 7.5t-12 21.5h-343q9 -51 30 -90.5t64 -66.5t114.5 -41t180.5 -14zM425 619q52 0 81.5 9.5t41.5 36.5q7 13 10 32.5t3 45.5q0 52 -13 79t-42 36
q-15 5 -35 7.5t-46 2.5q-51 0 -81 -9.5t-42 -36.5q-7 -14 -10 -33.5t-3 -45.5q0 -52 11 -79t41 -36q14 -4 35.5 -6.5t48.5 -2.5z" />
    <glyph glyph-name="gbreve.alt" horiz-adv-x="829" 
d="M17 0zM411 237q-39 0 -60.5 17t-21.5 50q0 36 22 54t60 18q40 0 60 -18t20 -54q0 -33 -20 -50t-60 -17zM410 -212q140 0 224 27.5t122 82.5q18 27 27.5 61t9.5 75v551h-260l-21 -100q-27 49 -80 78.5t-135 29.5q-79 0 -142.5 -35t-100.5 -101q-19 -33 -28 -73t-9 -87
q0 -86 36.5 -147t99.5 -93q31 -16 66.5 -24t74.5 -8q83 0 127.5 27.5t64.5 73.5v-109q0 -18 -11 -32t-54 -14q-33 0 -45 7.5t-12 21.5h-343q9 -51 30 -90.5t64 -66.5t114.5 -41t180.5 -14zM424 621q112 0 175 55t63 167h-176q0 -34 -15 -46t-47 -12q-34 0 -48 12.5t-14 45.5
h-174q0 -113 59.5 -167.5t176.5 -54.5z" />
    <glyph glyph-name="caronSlovak" 
d="M151 676h167l153 218h-232z" />
    <glyph glyph-name="altcedilla" 
d="M304 -340q118 0 181 46.5t63 123.5q0 81 -54 118.5t-155 37.5h-117v-128h100q28 0 37 -6t9 -21t-12.5 -24t-41.5 -9t-43 7t-22 27h-206q24 -92 90 -132t171 -40z" />
    <glyph glyph-name="uni00200326" 
d="M187 -358q94 0 146 22.5t73 65.5q10 22 15.5 48t5.5 57q0 48 -12.5 74.5t-42.5 37.5q-15 5 -35 7.5t-45 2.5q-74 0 -102 -21.5t-28 -72.5q0 -55 26 -71.5t86 -16.5q11 0 22.5 1t23.5 4q-7 -30 -39 -42t-94 -12v-84z" />
    <glyph glyph-name="uni00200323" 
d="M302 -304q55 0 86.5 10t44.5 39q7 14 10.5 34.5t3.5 48.5q0 55 -13.5 84t-45.5 39q-16 5 -37.5 7.5t-48.5 2.5q-54 0 -86 -10t-45 -39q-7 -14 -10.5 -35t-3.5 -49q0 -56 12 -84.5t43 -37.5q16 -5 38.5 -7.5t51.5 -2.5z" />
    <glyph glyph-name="doublegrave" 
d="M149 663h149l-100 218h-218zM367 663h150l-66 218h-211z" />
    <glyph glyph-name="invertedbreve" 
d="M307 884q-115 0 -182 -55.5t-67 -165.5h182q0 34 15.5 47t48.5 13q35 0 49 -13t14 -47h183q0 110 -62 165.5t-181 55.5z" />
    <glyph glyph-name="uni00200326.alt" 
d="M303 672q74 0 102 21.5t28 72.5q0 55 -26 71.5t-86 16.5q-11 0 -22.5 -1t-23.5 -4q7 30 39.5 42t93.5 12v84q-93 0 -145.5 -22.5t-73.5 -65.5q-10 -22 -15.5 -48t-5.5 -57q0 -48 12.5 -74.5t42.5 -36.5q15 -6 35 -8.5t45 -2.5z" />
    <glyph glyph-name="exclamdown.cap" horiz-adv-x="434" 
d="M220 734q-64 0 -101 -11t-53 -39q-8 -15 -12 -35t-4 -47q0 -52 16.5 -81.5t54.5 -40.5q18 -6 43 -9t56 -3q63 0 100.5 11.5t53.5 40.5q8 15 12 35.5t4 46.5q0 53 -14 81.5t-51 39.5q-18 5 -44.5 8t-60.5 3zM410 0v57q0 102 -16 178t-37 124q-11 24 -19.5 41t-15.5 26
q-16 -3 -44.5 -5t-62.5 -2t-59 2t-44 5q-14 -18 -35 -67.5t-37 -125.5q-8 -38 -12 -82t-4 -94v-57h386z" />
    <glyph glyph-name="questiondown.cap" horiz-adv-x="816" 
d="M300 484q-4 -22 -16.5 -36t-38.5 -24q-13 -5 -31.5 -10.5t-41.5 -11.5q-79 -21 -117.5 -62.5t-38.5 -115.5q0 -119 95 -179.5t294 -60.5q201 0 302.5 69.5t116.5 225.5h-317q-2 -16 -11.5 -27.5t-31.5 -17.5q-11 -3 -27.5 -4.5t-37.5 -1.5q-48 0 -60.5 5.5t-12.5 13.5
q0 6 7 11t29 10q11 2 28 5t39 6q82 11 118.5 41t36.5 100q0 15 -3 32t-8 31q-19 -7 -50.5 -11.5t-84.5 -4.5q-54 0 -86 4t-52 13zM438 735q-73 0 -114.5 -9.5t-58.5 -34.5q-8 -13 -12.5 -31t-4.5 -41q0 -45 18 -70.5t59 -36.5q21 -5 49.5 -7.5t63.5 -2.5q71 0 112 10.5
t59 35.5q8 13 12.5 30.5t4.5 40.5q0 46 -15 71t-55 35q-21 5 -50 7.5t-68 2.5z" />
    <glyph glyph-name="uni2E18.cap" horiz-adv-x="781" 
d="M378 741q-73 0 -114.5 -9.5t-58.5 -34.5q-8 -13 -12.5 -31t-4.5 -41q0 -45 18 -70.5t59 -36.5q21 -5 49.5 -7.5t63.5 -2.5q71 0 112 10.5t59 35.5q8 13 12.5 30.5t4.5 40.5q0 46 -15 71t-55 35q-21 5 -50 7.5t-68 2.5zM390 -10q145 0 229.5 35t122.5 102q19 34 29.5 75
t12.5 89h-264q0 -30 -9 -51t-28 -34q0 72 -1 111.5t-2 57.5q-1 9 -1 16t-1 11q-2 24 -4.5 41t-7.5 35q-16 -2 -35.5 -3.5t-54.5 -1.5q-31 0 -50 1t-36 3l-8 -31q-7 -26 -29.5 -41.5t-53.5 -26.5q-31 -10 -63.5 -22t-60.5 -31q-29 -18 -46.5 -49t-17.5 -81q0 -103 91 -154
t288 -51zM269 244q0 17 9 23.5t26 19.5q-1 -20 -2.5 -42.5t-2.5 -45.5q-15 7 -22.5 18.5t-7.5 26.5z" />
    <glyph glyph-name="guilsinglleft.cap" horiz-adv-x="508" 
d="M498 133l-205 241l185 229h-268l-180 -229v-24l186 -217h282z" />
    <glyph glyph-name="guilsinglright.cap" horiz-adv-x="508" 
d="M292 138l185 217v24l-180 229h-267l184 -229l-205 -241h283z" />
    <glyph glyph-name="guillemotleft.cap" horiz-adv-x="857" 
d="M468 138l-194 227l192 243h-248l-188 -235v-24l187 -211h251zM825 138l-200 235l187 235h-245l-180 -231v-28l191 -211h247z" />
    <glyph glyph-name="guillemotright.cap" horiz-adv-x="857" 
d="M624 138l187 211v24l-187 235h-249l191 -242l-193 -228h251zM264 138l190 211v28l-179 231h-245l186 -235l-200 -235h248z" />
    <glyph glyph-name="slash.cap" horiz-adv-x="560" 
d="M317 0l269 720h-343l-268 -720h342z" />
    <glyph glyph-name="backslash.cap" horiz-adv-x="560" 
d="M-31 720l288 -720h334l-288 720h-334z" />
    <glyph glyph-name="bar.cap" horiz-adv-x="412" 
d="M357 -164v1072h-302v-1072h302z" />
    <glyph glyph-name="uni2016.cap" horiz-adv-x="727" 
d="M327 -171v1079h-272v-1079h272zM672 -171v1079h-272v-1079h272z" />
    <glyph glyph-name="brokenbar.cap" horiz-adv-x="412" 
d="M55 423h302v485h-302v-485zM357 327h-302v-491h302v491z" />
    <glyph glyph-name="bullet.cap" horiz-adv-x="547" 
d="M273 83q90 0 131.5 36t41.5 130q0 96 -41 131.5t-132 35.5q-90 0 -131 -37.5t-41 -129.5q0 -63 16.5 -99.5t54.5 -51.5q19 -7 44 -11t57 -4z" />
    <glyph glyph-name="onethirdemdash" horiz-adv-x="469" 
d="M439 434h-409v-283h409v283z" />
    <glyph glyph-name="threequarteremdash" horiz-adv-x="714" 
d="M684 434h-654v-283h654v283z" />
    <glyph glyph-name="periodcentered.cap" horiz-adv-x="424" 
d="M212 202q64 0 101 11.5t53 42.5q8 16 12 39.5t4 53.5q0 63 -16.5 95t-54.5 43q-18 5 -43 8t-56 3q-63 0 -100 -11t-54 -43q-8 -16 -12 -40t-4 -55q0 -62 14 -94t51 -42q18 -6 44.5 -8.5t60.5 -2.5z" />
    <glyph glyph-name="hyphen.cap" horiz-adv-x="628" 
d="M598 495h-568v-282h568v282z" />
    <glyph glyph-name="onethirdemdash.cap" horiz-adv-x="628" 
d="M598 495h-568v-282h568v282z" />
    <glyph glyph-name="endash.cap" horiz-adv-x="469" 
d="M439 495h-409v-282h409v282z" />
    <glyph glyph-name="threequarteremdash.cap" horiz-adv-x="579" 
d="M549 495h-519v-282h519v282z" />
    <glyph glyph-name="emdash.cap" horiz-adv-x="714" 
d="M684 495h-654v-282h654v282z" />
    <glyph glyph-name="figuredash.cap" horiz-adv-x="849" 
d="M819 495h-789v-282h789v282z" />
    <glyph glyph-name="uni2015.cap" horiz-adv-x="734" 
d="M704 495h-674v-282h674v282z" />
    <glyph glyph-name="periodcentered.smcp" horiz-adv-x="1309" 
d="M1279 495h-1249v-282h1249v282z" />
    <glyph glyph-name="parenleft.cap" horiz-adv-x="486" 
d="M471 -112v284q-50 0 -78 14.5t-40 53.5q-5 19 -8 46.5t-3 63.5q0 78 9.5 122.5t37.5 62.5q14 9 34.5 13.5t47.5 4.5v268q-145 0 -245.5 -44t-152.5 -148q-26 -52 -39 -122.5t-13 -160.5q0 -122 23 -209t75 -142t138.5 -81t213.5 -26z" />
    <glyph glyph-name="parenright.cap" horiz-adv-x="486" 
d="M15 -112q127 0 213.5 26t138.5 81t75 142t23 209q0 179 -52 283t-152 148q-50 22 -111.5 33t-134.5 11v-268q55 0 82.5 -18t36.5 -63q5 -22 7.5 -52.5t2.5 -69.5q0 -72 -11.5 -110.5t-39.5 -52.5q-14 -8 -33.5 -11.5t-44.5 -3.5v-284z" />
    <glyph glyph-name="bracketleft.cap" horiz-adv-x="520" 
d="M505 125h-168v459h168v227h-469v-913h469v227z" />
    <glyph glyph-name="bracketright.cap" horiz-adv-x="520" 
d="M484 -102v913h-469v-227h167v-459h-167v-227h469z" />
    <glyph glyph-name="braceleft.cap" horiz-adv-x="585" 
d="M570 -102v225h-66q-38 0 -55.5 5t-17.5 23q0 13 11.5 23.5t26.5 21.5q14 12 25.5 29.5t11.5 44.5q0 20 -15 36t-53 25q-20 5 -47 7t-63 2v28q71 0 109.5 9t53.5 27q8 8 11.5 18.5t3.5 21.5q0 26 -13 42t-29 27q-17 10 -30 18.5t-13 20.5q0 17 17 25.5t61 8.5h71v225h-263
q-77 0 -121.5 -15.5t-63.5 -46.5q-10 -15 -14.5 -33.5t-4.5 -40.5q0 -30 13 -51t30 -36q16 -16 29 -30t13 -32q0 -20 -14.5 -31t-53.5 -11h-98v-259h113q39 0 53.5 -12t14.5 -33q0 -16 -15.5 -30.5t-36.5 -30.5t-36.5 -38t-15.5 -55q0 -66 45 -97t158 -31h268z" />
    <glyph glyph-name="braceright.cap" horiz-adv-x="585" 
d="M15 -102h268q113 0 158 31t45 97q0 33 -15.5 55t-36.5 38t-36.5 30.5t-15.5 30.5q0 21 14.5 33t53.5 12h113v259h-98q-39 0 -53.5 11t-14.5 31q0 18 13 32t30 30q16 15 29 36t13 51q0 44 -19 74.5t-63 45.5q-23 8 -53 12t-69 4h-263v-225h71q44 0 61 -8.5t17 -25.5
q0 -12 -13 -20.5t-29 -18.5q-17 -11 -30 -27t-13 -42q0 -23 15 -40.5t53 -26.5q20 -5 47.5 -7t62.5 -2v-28q-71 1 -109.5 -8.5t-53.5 -25.5q-8 -8 -11.5 -17t-3.5 -19q0 -27 11.5 -44.5t26.5 -29.5q14 -11 25.5 -21.5t11.5 -23.5q0 -18 -17.5 -23t-55.5 -5h-66v-225z" />
    <glyph glyph-name="anglebracketleft.cap" horiz-adv-x="510" 
d="M543 -102l-227 471l228 442h-308l-234 -444l221 -469h320z" />
    <glyph glyph-name="anglebracketright.cap" horiz-adv-x="510" 
d="M287 -102l221 469l-233 444h-307l227 -442l-227 -471h319z" />
    <glyph glyph-name="underscore" horiz-adv-x="800" 
d="M790 246h-780v-246h780v246z" />
    <glyph glyph-name="at.cap" horiz-adv-x="898" 
d="M446 -68q136 0 234 49.5t154 154.5h-205q-28 -36 -70.5 -51.5t-108.5 -15.5q-78 0 -132.5 22.5t-88.5 61.5q-34 38 -49.5 87t-15.5 101q0 125 78 198t224 73q140 0 207 -61t67 -156q0 -47 -10.5 -73t-31.5 -26q-15 0 -23 16t-8 47v160h-116l-24 -53q-15 32 -46.5 47.5
t-80.5 15.5q-81 0 -127.5 -51t-46.5 -136q0 -95 46.5 -141t124.5 -46q56 0 90 20.5t50 51.5q20 -31 56.5 -48t91.5 -17q98 0 152.5 62.5t54.5 177.5q0 70 -28 133t-82 112t-133.5 77t-182.5 28q-134 0 -236 -51t-160 -144q-28 -47 -42.5 -102t-14.5 -118q0 -134 53.5 -224
t151.5 -136q48 -22 105.5 -33.5t122.5 -11.5zM446 292q-25 0 -37.5 15.5t-12.5 35.5q0 22 12.5 38.5t37.5 16.5q23 0 36.5 -16t13.5 -39q0 -20 -13 -35.5t-37 -15.5z" />
    <glyph glyph-name="registered.cap" horiz-adv-x="912" 
d="M456 -19q136 0 233.5 41t150.5 124q27 42 40 95t13 117q0 119 -54 204.5t-151 130.5q-48 23 -104.5 34.5t-121.5 11.5q-133 0 -233 -45.5t-155 -131.5q-27 -42 -41 -93t-14 -111q0 -192 115 -284.5t322 -92.5zM652 205v23q0 37 -9.5 59.5t-41.5 34.5q35 13 50.5 36
t15.5 55q0 63 -42 95t-150 32h-197q36 26 81.5 38.5t100.5 12.5q79 0 137.5 -28t91.5 -80q17 -26 25 -57t8 -67q0 -57 -17.5 -99.5t-50.5 -71.5q-1 4 -1.5 8.5t-0.5 8.5zM190 359q0 53 18.5 95.5t52.5 72.5v-342q-34 29 -52.5 72t-18.5 102zM470 421q16 0 23.5 -5.5
t7.5 -17.5q0 -11 -7.5 -17t-23.5 -6h-56v46h56zM456 129q-59 0 -105 12t-79 35h142v89h38q21 0 29 -6.5t8 -26.5v-32q0 -7 3 -13.5t10 -10.5h136q-34 -24 -80 -35.5t-102 -11.5z" />
    <glyph glyph-name="zero.inf" horiz-adv-x="458" 
d="M21 0zM227 -174q96 0 151 46t55 142q0 89 -55.5 139t-147.5 50q-94 0 -151.5 -50t-57.5 -139q0 -96 54.5 -142t151.5 -46zM226 -28q-18 0 -27.5 10.5t-9.5 31.5q0 18 9 30.5t28 12.5q21 0 29.5 -12.5t8.5 -30.5q0 -19 -8.5 -30.5t-29.5 -11.5z" />
    <glyph glyph-name="one.inf" horiz-adv-x="372" 
d="M21 0zM346 -165v144h-77v216h-133q-11 -32 -36 -47.5t-58 -17.5v-112h66v-39h-87v-144h325z" />
    <glyph glyph-name="two.inf" horiz-adv-x="437" 
d="M18 0zM409 -165v127h-235q17 8 46.5 12.5t63.5 9.5q33 5 63 15.5t49 30.5q9 11 14 24.5t5 31.5q0 54 -46 85.5t-144 31.5q-97 0 -148.5 -35t-56.5 -110h167q1 9 9.5 14.5t30.5 5.5q20 0 26.5 -3t6.5 -8q0 -7 -17.5 -9t-45.5 -4q-27 -2 -58 -7.5t-58 -17.5
q-28 -12 -45.5 -35t-17.5 -61v-98h391z" />
    <glyph glyph-name="three.inf" horiz-adv-x="425" 
d="M2 0zM209 -175q106 0 156 31.5t50 86.5q0 38 -23 55t-60 23q38 8 57 26.5t19 47.5q0 46 -43.5 75.5t-143.5 29.5t-154.5 -30.5t-57.5 -109.5h159q1 7 8 10.5t29 3.5q20 0 26.5 -3t6.5 -8q0 -4 -5.5 -7.5t-24.5 -3.5h-31v-75h32q23 0 29.5 -2.5t6.5 -7.5q0 -6 -8 -9.5
t-30 -3.5q-23 0 -29.5 3t-8.5 11h-167q1 -46 17.5 -78t60.5 -48q22 -9 54.5 -13t74.5 -4z" />
    <glyph glyph-name="four.inf" horiz-adv-x="444" 
d="M13 0zM426 -114v120h-57v189h-135l-221 -205v-104h209v-51h147v51h57zM222 6h-51l51 50v-50z" />
    <glyph glyph-name="five.inf" horiz-adv-x="443" 
d="M19 0zM221 -172q109 0 154.5 32.5t45.5 92.5q0 54 -31.5 78.5t-100.5 24.5q-27 0 -50.5 -4.5t-43.5 -13.5l8 32h76q52 0 79 10t37 37q5 13 7.5 32.5t2.5 44.5v1h-341l-42 -209l174 -32q4 7 10 10t15 3q12 0 17.5 -5t5.5 -15q0 -9 -5 -13.5t-15 -4.5q-11 0 -16.5 4.5
t-5.5 13.5h-183q0 -60 46.5 -89.5t155.5 -29.5z" />
    <glyph glyph-name="six.inf" horiz-adv-x="453" 
d="M21 0zM430 -43q0 54 -32.5 76t-101.5 22q-35 0 -64 -7t-52 -21q0 23 11 38.5t37 15.5q13 0 21 -3t11 -10h170q-15 73 -64 104t-137 31q-100 0 -154 -49.5t-54 -143.5q0 -89 47 -136.5t165 -47.5q88 0 142.5 32.5t54.5 98.5zM232 -45q-14 0 -23.5 4t-15.5 11q11 8 23.5 13
t29.5 5q14 0 18.5 -4t4.5 -11q0 -9 -7.5 -13.5t-29.5 -4.5z" />
    <glyph glyph-name="seven.inf" horiz-adv-x="382" 
d="M8 0zM211 -165q16 45 36.5 84t50.5 78q15 19 34.5 39.5t42.5 41.5v117h-367v-137h179q-49 -48 -90.5 -103.5t-72.5 -119.5h187z" />
    <glyph glyph-name="eight.inf" horiz-adv-x="438" 
d="M9 0zM217 -172q108 0 158.5 27t50.5 83q0 28 -18.5 48t-55.5 32q32 8 47.5 26.5t15.5 47.5q0 53 -46 82t-150 29q-105 0 -150 -28t-45 -83q0 -28 15 -47t45 -28q-37 -11 -56 -32t-19 -52q0 -55 49.5 -80t158.5 -25zM219 46q-22 0 -33 3.5t-11 10.5q0 8 11 11.5t33 3.5
q23 0 34 -3.5t11 -11.5q0 -7 -11 -10.5t-34 -3.5zM219 -43q-25 0 -36 2.5t-11 11.5q0 8 12 11.5t35 3.5q24 0 36 -3.5t12 -11.5q0 -9 -11.5 -11.5t-36.5 -2.5z" />
    <glyph glyph-name="nine.inf" horiz-adv-x="452" 
d="M14 0zM205 42q-14 0 -19.5 4t-5.5 11q0 9 8.5 15t30.5 6q16 0 26.5 -5t15.5 -15q-11 -8 -25 -12t-31 -4zM219 -175q105 0 157 47t52 141q0 89 -48.5 138.5t-153.5 49.5q-107 0 -157.5 -36.5t-50.5 -96.5q0 -51 36.5 -73t100.5 -22q37 0 65.5 7t48.5 21q0 -25 -9.5 -40.5
t-37.5 -15.5q-16 0 -23 4t-9 11h-176q14 -78 67 -106.5t138 -28.5z" />
    <glyph glyph-name="plus.inf" horiz-adv-x="391" 
d="M33 0zM353 -53v141h-90v85h-140v-85h-90v-141h90v-85h140v85h90z" />
    <glyph glyph-name="minus.inf" horiz-adv-x="391" 
d="M33 0zM353 -59v153h-320v-153h320z" />
    <glyph glyph-name="equal.inf" horiz-adv-x="393" 
d="M56 0zM333 42v121h-277v-121h277zM333 -122v121h-277v-121h277z" />
    <glyph glyph-name="parenleft.inf" horiz-adv-x="332" 
d="M27 0zM292 -318v190q-33 3 -54 14.5t-30 40.5q-5 14 -7.5 34.5t-2.5 47.5q0 54 9.5 83t30.5 42q10 6 23.5 11t30.5 8v171q-86 -7 -145 -36t-90 -96q-15 -33 -22.5 -79t-7.5 -106v-1q0 -93 19 -154.5t54 -97.5q35 -35 83.5 -51.5t108.5 -20.5z" />
    <glyph glyph-name="parenright.inf" horiz-adv-x="332" 
d="M36 0zM36 -318q60 4 108.5 20.5t83.5 51.5q35 36 54 97.5t19 154.5v1q0 119 -30.5 185.5t-89.5 95.5q-29 14 -65.5 23.5t-79.5 12.5v-171q34 -6 54.5 -19t29.5 -42q5 -15 7.5 -35.5t2.5 -47.5q0 -54 -9.5 -82.5t-30.5 -39.5q-10 -6 -23.5 -9.5t-30.5 -5.5v-190z" />
    <glyph glyph-name="onesixteenth" horiz-adv-x="1547" 
d="M460 354v144h-77v216h-133q-11 -32 -36 -47.5t-58 -17.5v-112h66v-39h-87v-144h325zM987 0v144h-77v216h-133q-11 -32 -36 -47.5t-58 -17.5v-112h66v-39h-87v-144h325zM1435 122q0 54 -32.5 76t-101.5 22q-35 0 -64 -7t-52 -21q0 23 11 38.5t37 15.5q13 0 21 -3t11 -10
h170q-15 73 -64 104t-137 31q-100 0 -154 -49.5t-54 -143.5q0 -89 47 -136.5t165 -47.5q88 0 142.5 32.5t54.5 98.5zM1237 120q-14 0 -23.5 4t-15.5 11q11 8 23.5 13t29.5 5q14 0 18.5 -4t4.5 -11q0 -9 -7.5 -13.5t-29.5 -4.5zM669 397l396 212l-191 173l-256 -338zM508 352
l-402 -230l193 -180l259 363z" />
    <glyph glyph-name="threesixteenths" horiz-adv-x="1547" 
d="M66 0zM688 397l396 212l-191 173l-256 -338zM527 352l-402 -230l193 -180l259 363zM1435 122q0 54 -32.5 76t-101.5 22q-35 0 -64 -7t-52 -21q0 23 11 38.5t37 15.5q13 0 21 -3t11 -10h170q-15 73 -64 104t-137 31q-100 0 -154 -49.5t-54 -143.5q0 -89 47 -136.5
t165 -47.5q88 0 142.5 32.5t54.5 98.5zM1237 120q-14 0 -23.5 4t-15.5 11q11 8 23.5 13t29.5 5q14 0 18.5 -4t4.5 -11q0 -9 -7.5 -13.5t-29.5 -4.5zM273 344q106 0 156 31.5t50 86.5q0 38 -23 55t-60 23q38 8 57 26.5t19 47.5q0 46 -43.5 75.5t-143.5 29.5t-154.5 -30.5
t-57.5 -109.5h159q1 7 8 10.5t29 3.5q20 0 26.5 -3t6.5 -8q0 -4 -5.5 -7.5t-24.5 -3.5h-31v-75h32q23 0 29.5 -2.5t6.5 -7.5q0 -6 -8 -9.5t-30 -3.5q-23 0 -29.5 3t-8.5 11h-167q1 -46 17.5 -78t60.5 -48q22 -9 54.5 -13t74.5 -4zM987 1v144h-77v216h-133q-11 -32 -36 -47.5
t-58 -17.5v-112h66v-39h-87v-144h325z" />
    <glyph glyph-name="fivesixteenths" horiz-adv-x="1547" 
d="M78 0zM688 397l396 212l-191 173l-256 -338zM527 352l-402 -230l193 -180l259 363zM1435 122q0 54 -32.5 76t-101.5 22q-35 0 -64 -7t-52 -21q0 23 11 38.5t37 15.5q13 0 21 -3t11 -10h170q-15 73 -64 104t-137 31q-100 0 -154 -49.5t-54 -143.5q0 -89 47 -136.5
t165 -47.5q88 0 142.5 32.5t54.5 98.5zM1237 120q-14 0 -23.5 4t-15.5 11q11 8 23.5 13t29.5 5q14 0 18.5 -4t4.5 -11q0 -9 -7.5 -13.5t-29.5 -4.5zM280 347q109 0 154.5 32.5t45.5 92.5q0 54 -31.5 78.5t-100.5 24.5q-27 0 -50.5 -4.5t-43.5 -13.5l8 32h76q52 0 79 10
t37 37q5 13 7.5 32.5t2.5 44.5v1h-341l-42 -209l174 -32q4 7 10 10t15 3q12 0 17.5 -5t5.5 -15q0 -9 -5 -13.5t-15 -4.5q-11 0 -16.5 4.5t-5.5 13.5h-183q0 -60 46.5 -89.5t155.5 -29.5zM987 1v144h-77v216h-133q-11 -32 -36 -47.5t-58 -17.5v-112h66v-39h-87v-144h325z" />
    <glyph glyph-name="sevensixteenths" horiz-adv-x="1547" 
d="M125 0zM688 397l396 212l-191 173l-256 -338zM527 352l-402 -230l193 -180l259 363zM1435 122q0 54 -32.5 76t-101.5 22q-35 0 -64 -7t-52 -21q0 23 11 38.5t37 15.5q13 0 21 -3t11 -10h170q-15 73 -64 104t-137 31q-100 0 -154 -49.5t-54 -143.5q0 -89 47 -136.5
t165 -47.5q88 0 142.5 32.5t54.5 98.5zM1237 120q-14 0 -23.5 4t-15.5 11q11 8 23.5 13t29.5 5q14 0 18.5 -4t4.5 -11q0 -9 -7.5 -13.5t-29.5 -4.5zM368 354q16 45 36.5 84t50.5 78q15 19 34.5 39.5t42.5 41.5v117h-367v-137h179q-49 -48 -90.5 -103.5t-72.5 -119.5h187z
M987 1v144h-77v216h-133q-11 -32 -36 -47.5t-58 -17.5v-112h66v-39h-87v-144h325z" />
    <glyph glyph-name="ninesixteenths" horiz-adv-x="1547" 
d="M116 0zM688 397l396 212l-191 173l-256 -338zM527 352l-402 -230l193 -180l259 363zM1435 122q0 54 -32.5 76t-101.5 22q-35 0 -64 -7t-52 -21q0 23 11 38.5t37 15.5q13 0 21 -3t11 -10h170q-15 73 -64 104t-137 31q-100 0 -154 -49.5t-54 -143.5q0 -89 47 -136.5
t165 -47.5q88 0 142.5 32.5t54.5 98.5zM1237 120q-14 0 -23.5 4t-15.5 11q11 8 23.5 13t29.5 5q14 0 18.5 -4t4.5 -11q0 -9 -7.5 -13.5t-29.5 -4.5zM307 561q-14 0 -19.5 4t-5.5 11q0 9 8.5 15t30.5 6q16 0 26.5 -5t15.5 -15q-11 -8 -25 -12t-31 -4zM321 344q105 0 157 47
t52 141q0 89 -48.5 138.5t-153.5 49.5q-107 0 -157.5 -36.5t-50.5 -96.5q0 -51 36.5 -73t100.5 -22q37 0 65.5 7t48.5 21q0 -25 -9.5 -40.5t-37.5 -15.5q-16 0 -23 4t-9 11h-176q14 -78 67 -106.5t138 -28.5zM987 1v144h-77v216h-133q-11 -32 -36 -47.5t-58 -17.5v-112h66
v-39h-87v-144h325z" />
    <glyph glyph-name="elevensixteenths" horiz-adv-x="1881" 
d="M822 354v144h-77v216h-133q-11 -32 -36 -47.5t-58 -17.5v-112h66v-39h-87v-144h325zM460 354v144h-77v216h-133q-11 -32 -36 -47.5t-58 -17.5v-112h66v-39h-87v-144h325zM1030 397l396 212l-191 173l-256 -338zM869 352l-402 -230l193 -180l259 363zM1349 0v144h-77v216
h-133q-11 -32 -36 -47.5t-58 -17.5v-112h66v-39h-87v-144h325zM1797 122q0 54 -32.5 76t-101.5 22q-35 0 -64 -7t-52 -21q0 23 11 38.5t37 15.5q13 0 21 -3t11 -10h170q-15 73 -64 104t-137 31q-100 0 -154 -49.5t-54 -143.5q0 -89 47 -136.5t165 -47.5q88 0 142.5 32.5
t54.5 98.5zM1599 120q-14 0 -23.5 4t-15.5 11q11 8 23.5 13t29.5 5q14 0 18.5 -4t4.5 -11q0 -9 -7.5 -13.5t-29.5 -4.5z" />
    <glyph glyph-name="thirteensixteenths" horiz-adv-x="1931" 
d="M449 344v144h-77v216h-133q-11 -32 -36 -47.5t-58 -17.5v-112h66v-39h-87v-144h325zM1081 397l396 212l-191 173l-256 -338zM920 352l-402 -230l193 -180l259 363zM1822 123q0 54 -32.5 76t-101.5 22q-35 0 -64 -7t-52 -21q0 23 11 38.5t37 15.5q13 0 21 -3t11 -10h170
q-15 73 -64 104t-137 31q-100 0 -154 -49.5t-54 -143.5q0 -89 47 -136.5t165 -47.5q88 0 142.5 32.5t54.5 98.5zM1624 121q-14 0 -23.5 4t-15.5 11q11 8 23.5 13t29.5 5q14 0 18.5 -4t4.5 -11q0 -9 -7.5 -13.5t-29.5 -4.5zM679 334q106 0 156 31.5t50 86.5q0 38 -23 55
t-60 23q38 8 57 26.5t19 47.5q0 46 -43.5 75.5t-143.5 29.5t-154.5 -30.5t-57.5 -109.5h159q1 7 8 10.5t29 3.5q20 0 26.5 -3t6.5 -8q0 -4 -5.5 -7.5t-24.5 -3.5h-31v-75h32q23 0 29.5 -2.5t6.5 -7.5q0 -6 -8 -9.5t-30 -3.5q-23 0 -29.5 3t-8.5 11h-167q1 -46 17.5 -78
t60.5 -48q22 -9 54.5 -13t74.5 -4zM1388 1v144h-77v216h-133q-11 -32 -36 -47.5t-58 -17.5v-112h66v-39h-87v-144h325z" />
    <glyph glyph-name="fifteensixteenths" horiz-adv-x="1927" 
d="M449 354v144h-77v216h-133q-11 -32 -36 -47.5t-58 -17.5v-112h66v-39h-87v-144h325zM1076 397l396 212l-191 173l-256 -338zM915 352l-402 -230l193 -180l259 363zM1818 123q0 54 -32.5 76t-101.5 22q-35 0 -64 -7t-52 -21q0 23 11 38.5t37 15.5q13 0 21 -3t11 -10h170
q-15 73 -64 104t-137 31q-100 0 -154 -49.5t-54 -143.5q0 -89 47 -136.5t165 -47.5q88 0 142.5 32.5t54.5 98.5zM1620 121q-14 0 -23.5 4t-15.5 11q11 8 23.5 13t29.5 5q14 0 18.5 -4t4.5 -11q0 -9 -7.5 -13.5t-29.5 -4.5zM684 347q109 0 154.5 32.5t45.5 92.5
q0 54 -31.5 78.5t-100.5 24.5q-27 0 -50.5 -4.5t-43.5 -13.5l8 32h76q52 0 79 10t37 37q5 13 7.5 32.5t2.5 44.5v1h-341l-42 -209l174 -32q4 7 10 10t15 3q12 0 17.5 -5t5.5 -15q0 -9 -5 -13.5t-15 -4.5q-11 0 -16.5 4.5t-5.5 13.5h-183q0 -60 46.5 -89.5t155.5 -29.5z
M1384 1v144h-77v216h-133q-11 -32 -36 -47.5t-58 -17.5v-112h66v-39h-87v-144h325z" />
    <glyph glyph-name="mediumwhitecircle" horiz-adv-x="615" 
d="M307 -10q92 0 160.5 39.5t106.5 107.5q19 34 28.5 73t9.5 82q0 89 -38.5 157.5t-107.5 106.5q-34 20 -74 29.5t-85 9.5q-91 0 -159.5 -39.5t-106.5 -107.5q-19 -35 -28.5 -73.5t-9.5 -82.5q0 -88 38 -156.5t107 -106.5q34 -20 74 -29.5t85 -9.5zM307 193q-43 0 -68 29
t-25 70q0 43 25 72t68 29q44 0 68.5 -29.5t24.5 -71.5q0 -41 -24.5 -70t-68.5 -29z" />
    <glyph glyph-name="mediumblackcircle" horiz-adv-x="615" 
d="M307 -10q92 0 160.5 39.5t106.5 107.5q19 34 28.5 73t9.5 82q0 89 -38.5 157.5t-107.5 106.5q-34 20 -74 29.5t-85 9.5q-91 0 -159.5 -39.5t-106.5 -107.5q-19 -35 -28.5 -73.5t-9.5 -82.5q0 -88 38 -156.5t107 -106.5q34 -20 74 -29.5t85 -9.5z" />
    <glyph glyph-name="ballotboxwithx" horiz-adv-x="639" 
d="M27 0h585v585h-585v-585zM227 389h185v-192h-185v192zM366 215l30 30l-46 47l47 49l-31 29l-46 -47l-46 47l-30 -30l46 -47l-46 -48l30 -30l46 47z" />
    <glyph glyph-name=".ttfautohint" horiz-adv-x="440" 
d="M0 0z" />
    </font>
</defs>
</svg>
