<?xml version="1.0" standalone="no"?>
<!DOCTYPE svg PUBLIC "-//W3C//DTD SVG 1.1//EN" "http://www.w3.org/Graphics/SVG/1.1/DTD/svg11.dtd" >
<svg xmlns="http://www.w3.org/2000/svg" xmlns:xlink="http://www.w3.org/1999/xlink" version="1.1">
<metadata>
Created by FontForge 20170731 at Sat Oct  8 16:41:34 2016
 By Aleksey,,,
(C) 2016 Sharp Type Corporation
</metadata>
<defs>
<font id="SharpGroteskBook20-Regular" horiz-adv-x="650" >
  <font-face 
    font-family="Sharp Grotesk Book 20"
    font-weight="400"
    font-stretch="expanded"
    units-per-em="1000"
    panose-1="2 11 5 5 5 7 2 3 2 4"
    ascent="800"
    descent="-200"
    x-height="571"
    cap-height="711"
    bbox="-75 -326 1556 1162"
    underline-thickness="50"
    underline-position="-150"
    unicode-range="U+0020-3009"
  />
<missing-glyph horiz-adv-x="60" 
 />
    <glyph glyph-name=".notdef" horiz-adv-x="60" 
 />
    <glyph glyph-name=".null" horiz-adv-x="0" 
 />
    <glyph glyph-name="nonmarkingreturn" horiz-adv-x="333" 
 />
    <glyph glyph-name="space" unicode=" " horiz-adv-x="319" 
 />
    <glyph glyph-name="exclam" unicode="!" horiz-adv-x="322" 
d="M106 714v-180q0 -84 3.5 -158t7.5 -125q2 -25 4 -41t3 -23q5 2 14 3t20 1t19.5 -1t14.5 -3q3 14 7 64.5t8 124.5q1 37 2 77t1 82v179h-104zM157 -11q35 0 53 17t18 55q0 39 -18 55t-53 16q-36 0 -54 -16t-18 -55q0 -40 17 -56t55 -16z" />
    <glyph glyph-name="quotedbl" unicode="&#x22;" horiz-adv-x="369" 
d="M238 467h63q3 14 6.5 47t6.5 75q1 21 1.5 41.5t0.5 40.5v40h-93v-40q0 -40 2 -82t6 -75q1 -17 3 -28.5t4 -18.5zM68 467h63q4 14 7 47t6 75q1 21 1.5 41.5t0.5 40.5v40h-92v-40q0 -40 2 -82t5 -75q2 -17 3.5 -28.5t3.5 -18.5z" />
    <glyph glyph-name="numbersign" unicode="#" horiz-adv-x="881" 
d="M516 263h-193l36 197h193zM467 0h94l33 180h203v83h-188l37 197h191v82h-176l31 169h-93l-31 -169h-193l31 169h-95l-31 -169h-197v-82h181l-36 -197h-185v-83h169l-33 -180h95l33 180h193z" />
    <glyph glyph-name="dollar" unicode="$" horiz-adv-x="629" 
d="M366 -122v109q74 7 123.5 37t75.5 75q12 23 18.5 47.5t6.5 51.5q0 58 -21.5 94.5t-56.5 58.5q-35 21 -77.5 33t-85.5 21q-50 10 -94 21.5t-72 34.5q-13 11 -20 27.5t-7 38.5q0 47 36.5 80t110.5 33q82 0 123.5 -35t46.5 -102h100q-4 89 -55.5 146t-150.5 70v118h-93v-115
q-71 -5 -119.5 -33t-72.5 -70q-12 -22 -18 -45t-6 -48q0 -56 20.5 -91t55.5 -56q34 -21 76 -32.5t85 -20.5q51 -9 96 -21t73 -36q14 -12 21 -30t7 -41q0 -51 -41 -88.5t-128 -37.5q-97 0 -141.5 44t-46.5 125h-104q4 -111 59 -177.5t182 -76.5v-109h94z" />
    <glyph glyph-name="percent" unicode="%" horiz-adv-x="739" 
d="M182 432q68 0 107.5 37.5t39.5 101.5v6q0 68 -40.5 106t-105.5 38q-62 0 -104.5 -37t-42.5 -107v-6q0 -66 38.5 -102.5t107.5 -36.5zM37 0h114q13 17 45.5 59t77.5 101q46 59 97.5 126.5t103.5 134.5q52 68 97.5 127t79.5 102q16 22 28 37t19 24h-109l-45.5 -59.5
t-78.5 -101.5t-98 -126.5t-105 -134.5q-52 -68 -98 -127t-80 -102q-17 -21 -29 -36t-19 -24zM182 497q-34 0 -54.5 20.5t-20.5 56.5v3q0 39 22.5 59t53.5 20q32 0 54 -20.5t22 -58.5v-3q0 -34 -20.5 -55.5t-56.5 -21.5zM552 -12q68 0 107.5 37t39.5 101v7q0 68 -40 105.5
t-106 37.5q-61 0 -103.5 -36.5t-42.5 -106.5v-7q0 -66 38.5 -102t106.5 -36zM553 52q-35 0 -55.5 21t-20.5 56v4q0 39 22.5 59t53.5 20q33 0 54.5 -21t21.5 -58v-4q0 -34 -20 -55.5t-56 -21.5z" />
    <glyph glyph-name="ampersand" unicode="&#x26;" horiz-adv-x="805" 
d="M293 539q0 53 29.5 82.5t71.5 29.5q38 0 60 -23t22 -58q0 -52 -40.5 -82t-118.5 -60q-12 30 -18 58t-6 53zM281 67q-64 0 -107.5 28t-43.5 93q1 54 40 83.5t103 55.5q14 -25 31 -51t36 -52q24 -32 48.5 -60.5t48.5 -52.5q-35 -21 -74.5 -32.5t-81.5 -11.5zM686 -9
q31 0 53.5 6t37.5 18v87q-19 -15 -38 -23t-49 -8q-28 0 -58 10t-62 30q78 71 132 167t76 193h-91q-12 -53 -37 -109.5t-62 -108.5q-18 -26 -38.5 -49t-43.5 -43q-23 22 -46.5 48t-46.5 57q-19 25 -35 48.5t-28 45.5q100 40 154.5 87t54.5 122q0 65 -43.5 109.5t-120.5 44.5
q-52 0 -94 -21.5t-67 -63.5q-12 -21 -18 -46.5t-6 -56.5t8 -66t22 -72q-55 -22 -102.5 -49.5t-75.5 -68.5q-15 -20 -22 -45.5t-7 -55.5q0 -67 31.5 -109t85.5 -62q27 -10 57 -15t64 -5q62 0 120 18.5t109 51.5q44 -32 90.5 -49t95.5 -17z" />
    <glyph glyph-name="quotesingle" unicode="'" horiz-adv-x="200" 
d="M68 467h63q4 14 7 47t6 75q1 21 1.5 41.5t0.5 40.5v40h-92v-40q0 -40 2 -82t5 -75q2 -17 3.5 -28.5t3.5 -18.5z" />
    <glyph glyph-name="parenleft" unicode="(" horiz-adv-x="425" 
d="M73 264q0 -149 39.5 -246.5t109.5 -147.5q35 -25 75.5 -39.5t85.5 -18.5v92q-59 6 -106.5 47t-74.5 120q-13 40 -20 89.5t-7 109.5v23q0 122 27 200.5t74 119.5q24 20 50.5 32.5t56.5 16.5v91q-87 -9 -157.5 -60.5t-111.5 -149.5q-20 -49 -30.5 -110.5t-10.5 -136.5v-32z
" />
    <glyph glyph-name="parenright" unicode=")" horiz-adv-x="425" 
d="M42 -188q91 7 161 57.5t109 148.5q20 48 30 110t10 136v32q0 149 -41 247t-111 149q-35 26 -74.5 41t-83.5 20v-92q60 -8 107 -49t74 -119q14 -40 20.5 -89.5t6.5 -110.5v-23q0 -120 -27.5 -199t-74.5 -120q-23 -20 -49.5 -32t-56.5 -15v-92z" />
    <glyph glyph-name="asterisk" unicode="*" horiz-adv-x="449" 
d="M357 454l39 68l-146 54l146 53l-40 68l-118 -99l27 153h-80l26 -152l-118 97l-39 -68l144 -53l-145 -53l40 -68l118 99l-26 -152h80l-27 152z" />
    <glyph glyph-name="plus" unicode="+" horiz-adv-x="562" 
d="M500 312v87h-176v168h-85v-168h-172v-87h172v-169h85v169h176z" />
    <glyph glyph-name="comma" unicode="," horiz-adv-x="300" 
d="M88 -142q68 15 102 60t34 112q0 53 -17 74t-56 21q-36 0 -53.5 -15t-17.5 -53q0 -39 14.5 -51.5t44.5 -12.5q5 0 10.5 0.5t10.5 2.5q-5 -34 -24.5 -56t-53.5 -32z" />
    <glyph glyph-name="hyphen" unicode="-" horiz-adv-x="563" 
d="M501 361h-438v-97h438v97z" />
    <glyph glyph-name="period" unicode="." horiz-adv-x="299" 
d="M149 -11q36 0 54 16.5t18 55.5t-18 55.5t-53 16.5q-36 0 -54.5 -16.5t-18.5 -55.5q0 -40 17 -56t55 -16z" />
    <glyph glyph-name="slash" unicode="/" horiz-adv-x="351" 
d="M125 0l209 711h-107l-209 -711h107z" />
    <glyph glyph-name="zero" unicode="0" horiz-adv-x="695" 
d="M347 -15q134 0 213.5 86.5t79.5 255.5v50q0 112 -36 189t-102 117q-33 20 -71.5 30t-83.5 10q-141 0 -216.5 -90t-75.5 -257v-49q0 -169 75 -255.5t217 -86.5zM347 75q-98 0 -144 65.5t-46 189.5v42q0 124 46 193t144 69q95 0 142.5 -69t47.5 -193v-41q0 -127 -49 -191.5
t-141 -64.5z" />
    <glyph glyph-name="one" unicode="1" horiz-adv-x="451" 
d="M430 0v94h-151v617h-80q-10 -58 -40 -86t-92 -31v-76h115v-424h-151v-94h399z" />
    <glyph glyph-name="two" unicode="2" horiz-adv-x="636" 
d="M597 0v90h-442q4 42 33.5 72t74.5 54q22 12 46 24t49 24q43 20 85 43t76 51q34 29 54.5 66.5t20.5 88.5q0 92 -67 150.5t-195 58.5q-133 0 -206 -63t-73 -184v-27h99v23q0 80 46.5 123t132.5 43q80 0 121 -33.5t41 -95.5q0 -43 -29 -73.5t-75 -54.5q-23 -12 -48 -24.5
t-51 -24.5q-45 -21 -89 -44t-80 -53t-57.5 -69.5t-21.5 -93.5v-71h555z" />
    <glyph glyph-name="three" unicode="3" horiz-adv-x="658" 
d="M323 -14q90 0 154 26.5t97 74.5q17 24 25.5 51.5t8.5 58.5q0 69 -31 110t-87 58q53 18 79 57.5t26 100.5q0 87 -68.5 143t-196.5 56q-133 0 -205 -64t-72 -169v-14h98v11q0 65 46 107t130 42q83 0 125 -34.5t42 -87.5q0 -55 -35 -85t-109 -30h-95v-78h95q75 0 114.5 -24
t39.5 -89q0 -60 -49 -96.5t-133 -36.5q-94 0 -138 37t-44 117v14h-100v-19q0 -121 67.5 -179t215.5 -58z" />
    <glyph glyph-name="four" unicode="4" horiz-adv-x="647" 
d="M396 257v316l-266 -316h266zM622 174h-129v-174h-97v174h-378v70l389 467h86v-454h129v-83z" />
    <glyph glyph-name="five" unicode="5" horiz-adv-x="665" 
d="M328 -14q87 0 151.5 30.5t100.5 87.5q17 28 26 62.5t9 74.5q0 77 -31.5 132.5t-89.5 84.5q-28 15 -61.5 22.5t-72.5 7.5q-72 0 -119 -22.5t-78 -56.5l28 214h266q56 0 83.5 5.5t37.5 24.5q4 9 6.5 23.5t2.5 34.5h-472l-50 -377l101 -28q1 1 2.5 3t2.5 3q24 38 66 66
t111 28q75 0 121.5 -41t46.5 -121q0 -84 -52 -127.5t-131 -43.5q-85 0 -128.5 41.5t-43.5 104.5v5h-105v-3q1 -106 67 -170.5t205 -64.5z" />
    <glyph glyph-name="six" unicode="6" horiz-adv-x="677" 
d="M625 220q0 74 -32.5 124t-88.5 76q-28 12 -59.5 18.5t-66.5 6.5q-81 0 -138.5 -32t-84.5 -85v45q0 124 51 193t151 69q69 -1 108.5 -29.5t48.5 -84.5h100q-10 98 -78.5 150t-175.5 52q-144 0 -226 -90t-82 -257v-49q0 -169 73 -255.5t223 -86.5q85 0 147 29.5t96 82.5
q17 27 25.5 57.5t8.5 65.5zM347 75q-78 0 -121.5 37t-60.5 108q6 40 31 72t66 51q20 9 43.5 14t49.5 5q46 0 84 -13.5t61 -43.5q11 -15 17 -35.5t6 -45.5q0 -69 -48.5 -109t-127.5 -40z" />
    <glyph glyph-name="seven" unicode="7" horiz-adv-x="571" 
d="M238 0q14 64 40 134.5t60 142.5t71 139t75 124q19 28 36.5 52.5t34.5 45.5v73h-533v-93h415q-37 -46 -83 -115.5t-91 -153.5q-46 -84 -84 -173.5t-60 -175.5h119z" />
    <glyph glyph-name="eight" unicode="8" horiz-adv-x="655" 
d="M326 -14q139 0 214 52t75 152q0 70 -36 112.5t-93 60.5q51 17 81.5 56t30.5 101q0 95 -71.5 148.5t-197.5 53.5q-124 0 -195 -53.5t-71 -148.5q0 -62 27.5 -101.5t79.5 -56.5q-58 -19 -93.5 -63.5t-35.5 -108.5q0 -103 73 -153.5t212 -50.5zM307 396q-75 0 -111 31
t-36 82q0 60 45.5 94t124.5 34q81 0 126 -33t45 -92q0 -55 -40.5 -85.5t-114.5 -30.5h-39zM327 75q-88 0 -136.5 31.5t-48.5 95.5q0 53 44 88t120 35h39q79 -1 125 -32.5t46 -90.5q0 -64 -50 -95.5t-139 -31.5z" />
    <glyph glyph-name="nine" unicode="9" horiz-adv-x="672" 
d="M321 338q-73 0 -121 34t-48 107t48 114.5t127 41.5q86 0 131.5 -45t58.5 -128q-10 -35 -38.5 -63.5t-69.5 -44.5q-20 -8 -42 -12t-46 -4zM325 -15q148 0 221.5 90.5t73.5 256.5v49q0 101 -30 178t-95 121q-32 21 -74.5 32t-95.5 11q-82 0 -144.5 -31t-96.5 -86
q-18 -28 -26.5 -59t-8.5 -67q0 -77 33.5 -126t90.5 -72q28 -12 60.5 -17.5t68.5 -5.5q79 0 135.5 29t84.5 79v-33q0 -125 -48 -193t-149 -68q-67 1 -111.5 31.5t-52.5 91.5h-102q11 -107 80 -159t186 -52z" />
    <glyph glyph-name="colon" unicode=":" horiz-adv-x="307" 
d="M153 395q38 0 54.5 15t16.5 55q0 41 -16.5 56t-54.5 15t-54.5 -15t-16.5 -56t16 -55.5t55 -14.5zM154 39q37 0 54 15t17 55q0 41 -16.5 55.5t-54.5 14.5q-39 0 -55 -14.5t-16 -55.5q0 -42 16 -56t55 -14z" />
    <glyph glyph-name="semicolon" unicode=";" horiz-adv-x="308" 
d="M153 395q38 0 54.5 15t16.5 55q0 41 -16.5 56t-54.5 15t-54.5 -15t-16.5 -56t16 -55.5t55 -14.5zM98 -142q67 15 99.5 60t32.5 112q0 53 -17 74t-56 21q-37 0 -54.5 -15t-17.5 -53q0 -39 15 -51.5t45 -12.5q5 0 10.5 0.5t10.5 2.5q-4 -35 -21.5 -56t-49.5 -29z" />
    <glyph glyph-name="less" unicode="&#x3c;" horiz-adv-x="582" 
d="M494 146v100l-311 120l311 119v95l-415 -173v-85z" />
    <glyph glyph-name="equal" unicode="=" horiz-adv-x="582" 
d="M507 450v83h-432v-83h432zM507 189v84h-432v-84h432z" />
    <glyph glyph-name="greater" unicode="&#x3e;" horiz-adv-x="582" 
d="M90 146l415 176v85l-415 173v-95l310 -119l-310 -120v-100z" />
    <glyph glyph-name="question" unicode="?" horiz-adv-x="678" 
d="M370 178l1 52q1 30 15.5 48.5t37.5 31.5q12 7 24.5 13.5t25.5 12.5q31 15 60.5 35t48.5 55q10 17 15 40t5 52q0 55 -27 101t-85 75q-28 14 -65 21t-82 7q-137 0 -203.5 -61.5t-66.5 -174.5v-20h99v15q0 75 40 115.5t129 40.5q86 0 123 -36.5t37 -88.5q0 -36 -16 -58
t-41 -36q-12 -7 -25 -14t-27 -13q-29 -13 -57 -30t-45 -44q-9 -13 -13.5 -31t-4.5 -40v-24q0 -10 0.5 -24.5t1.5 -19.5q5 5 18.5 7t29.5 2t29 -2t18 -7zM325 -11q35 0 53 17t18 55q0 39 -18 55.5t-53 16.5q-36 0 -54 -16.5t-18 -55.5q0 -40 17 -56t55 -16z" />
    <glyph glyph-name="at" unicode="@" horiz-adv-x="836" 
d="M419 -122q86 0 161 36t118 98l-86 26q-32 -37 -80 -59.5t-112 -22.5q-131 0 -208.5 75t-77.5 235v33q0 104 36.5 175t102.5 107q33 19 71.5 28t82.5 9q101 0 161 -37.5t87 -102.5q13 -33 19.5 -69t6.5 -77v-6q0 -92 -18 -130.5t-51 -38.5q-26 0 -40 16t-14 59v260h-46
l-15 -76q-12 35 -41 58t-77 23q-71 0 -112 -51t-41 -140v-37q0 -88 36.5 -138.5t112.5 -50.5q47 0 76.5 21t42.5 58q13 -37 43 -55t72 -18q69 0 110 60.5t41 182.5v9q0 74 -21.5 139t-64.5 114q-43 50 -109.5 78t-156.5 28q-108 0 -192 -46t-131 -134q-24 -43 -36 -96
t-12 -115v-47q0 -134 47 -218.5t129 -123.5q41 -19 87.5 -29t98.5 -10zM412 150q-46 0 -66.5 31.5t-20.5 89.5v33q0 61 24 92.5t68 31.5t64.5 -27.5t20.5 -87.5v-51q0 -56 -22.5 -84t-67.5 -28z" />
    <glyph glyph-name="A" unicode="A" horiz-adv-x="676" 
d="M332 594l3 14l2 -14l121 -325h-243zM559 0h100l-274 711h-101l-266 -711h100l67 185h305z" />
    <glyph glyph-name="B" unicode="B" horiz-adv-x="664" 
d="M357 0q138 0 203.5 51.5t65.5 147.5q0 69 -33.5 108.5t-95.5 56.5q57 19 86 59t29 106q0 88 -62 135t-200 47h-268v-711h275zM354 404h-177v226h176q86 0 124.5 -27.5t38.5 -82.5q0 -61 -42 -89t-120 -27zM348 324q89 0 134 -28t45 -90q0 -60 -42 -91t-139 -31h-169v240
h171z" />
    <glyph glyph-name="C" unicode="C" horiz-adv-x="707" 
d="M665 256h-104q-9 -82 -57 -130t-138 -48q-103 0 -157.5 64.5t-54.5 186.5v43q0 128 55.5 195.5t156.5 67.5q88 0 135 -44t57 -125h102q-14 128 -90 192.5t-204 64.5q-146 0 -229 -89.5t-83 -256.5v-52q0 -168 80 -254t228 -86q142 0 216 72.5t87 198.5z" />
    <glyph glyph-name="D" unicode="D" horiz-adv-x="693" 
d="M82 0h247q89 0 159 36.5t111 110.5q20 36 30 82t10 101v50q0 111 -43 184.5t-115 110.5q-36 18 -75.5 27t-82.5 9h-241v-711zM319 626q64 0 114 -28.5t79 -84.5q15 -28 22 -63t7 -77v-36q0 -84 -27.5 -139.5t-76.5 -83.5q-25 -14 -52.5 -21t-59.5 -7h-146v540h140z" />
    <glyph glyph-name="E" unicode="E" horiz-adv-x="619" 
d="M583 87h-406v229h332v85h-332v225h391v85h-486v-711h501v87z" />
    <glyph glyph-name="F" unicode="F" horiz-adv-x="588" 
d="M528 292v88h-351v243h375v88h-470v-711h95v292h351z" />
    <glyph glyph-name="G" unicode="G" horiz-adv-x="721" 
d="M579 0h74v358h-305v-84l204 -1q-1 -50 -20 -96t-61 -74q-21 -15 -49 -22t-63 -7q-100 0 -153 61t-52 190v49q0 131 52.5 196t157.5 65q90 0 134 -46t52 -117h101q-9 120 -83.5 185.5t-202.5 65.5q-145 0 -228 -87.5t-83 -257.5v-56q0 -172 73.5 -254.5t206.5 -82.5
q74 0 123 26t77 70q14 22 23.5 46t14.5 51z" />
    <glyph glyph-name="H" unicode="H" horiz-adv-x="716" 
d="M537 0h97v711h-97v-310h-358v310h-97v-711h97v308h358v-308z" />
    <glyph glyph-name="I" unicode="I" horiz-adv-x="458" 
d="M413 0v91h-137v532h137v88h-368v-88h137v-532h-137v-91h368z" />
    <glyph glyph-name="J" unicode="J" horiz-adv-x="582" 
d="M269 -15q115 0 177.5 64.5t62.5 205.5v456h-100v-453q0 -99 -34 -139t-106 -40q-68 0 -100 35t-37 99v4h-101v-3q5 -112 66 -170.5t172 -58.5z" />
    <glyph glyph-name="K" unicode="K" horiz-adv-x="670" 
d="M555 0h110l-265 451l247 260h-122l-346 -366v366h-97v-711h97v230l151 159z" />
    <glyph glyph-name="L" unicode="L" horiz-adv-x="571" 
d="M544 0v91h-364v620h-98v-711h462z" />
    <glyph glyph-name="M" unicode="M" horiz-adv-x="817" 
d="M183 552l215 -287h18l216 287l10 16v-568h94v710h-92l-235 -314l-235 315h-92v-711h93v566z" />
    <glyph glyph-name="N" unicode="N" horiz-adv-x="722" 
d="M175 550l-3 26l24 -47l355 -529h89v711h-93v-539l3 -32l-27 53l-347 518h-94v-711h93v550z" />
    <glyph glyph-name="O" unicode="O" horiz-adv-x="720" 
d="M359 -15q93 0 162 38t107 114q19 38 28.5 85.5t9.5 104.5v49q0 113 -38.5 190.5t-107.5 116.5q-34 20 -74.5 30t-86.5 10q-93 0 -161.5 -40.5t-105.5 -117.5q-19 -39 -28.5 -86t-9.5 -103v-49q0 -172 80 -257t225 -85zM359 75q-100 0 -152 65.5t-52 189.5v43
q0 125 52 193.5t152 68.5q99 0 152.5 -68t53.5 -195v-42q0 -124 -54 -189.5t-152 -65.5z" />
    <glyph glyph-name="P" unicode="P" horiz-adv-x="659" 
d="M343 626q91 0 135 -42t44 -110q0 -76 -45.5 -116t-128.5 -40h-170v308h165zM349 234q137 -1 203.5 64.5t66.5 175.5q0 70 -30 123.5t-91 83.5q-31 15 -69.5 22.5t-85.5 7.5h-261v-711h96v234h171z" />
    <glyph glyph-name="Q" unicode="Q" horiz-adv-x="717" 
d="M633 -118l-108 150q62 40 100 114t38 181v48q0 112 -39 189.5t-108 118.5q-34 20 -73.5 30t-84.5 10q-141 0 -222.5 -90.5t-81.5 -257.5v-48q0 -172 80 -257t221 -85q20 0 39.5 2t38.5 7l71 -112h129zM358 75q-100 0 -152 66t-52 190v41q0 123 52 193t152 70
q99 0 152.5 -69.5t53.5 -194.5v-40q0 -124 -55 -190t-151 -66z" />
    <glyph glyph-name="R" unicode="R" horiz-adv-x="681" 
d="M355 626q88 0 127.5 -34t39.5 -96q0 -68 -45 -102t-125 -34h-173v266h176zM349 276q84 0 119 -28.5t35 -102.5v-108q0 -12 3 -21.5t9 -15.5h105q-8 6 -12 15t-4 21v111q0 78 -27 118.5t-86 55.5q63 20 96.5 64t33.5 117q0 97 -62 153t-202 56h-275v-711h97v276h170z" />
    <glyph glyph-name="S" unicode="S" horiz-adv-x="629" 
d="M323 -15q88 0 147 29.5t89 78.5q15 24 22.5 51t7.5 56q0 58 -21 94t-56 57q-34 21 -77 33t-87 21q-50 11 -94 22t-71 33q-13 11 -20 27.5t-7 38.5q0 46 36 80t111 34q84 0 125.5 -35t45.5 -102h101q-5 102 -71.5 161t-198.5 59q-82 0 -137 -27.5t-83 -72.5
q-13 -23 -20 -47.5t-7 -50.5q0 -56 20.5 -91t54.5 -56q34 -20 76 -31.5t85 -20.5q51 -9 96 -21t73 -36q14 -12 21 -30t7 -41q0 -33 -17.5 -61.5t-54.5 -46.5q-19 -9 -42.5 -13.5t-52.5 -4.5q-97 0 -142 43.5t-47 124.5h-104q3 -80 32.5 -137.5t92.5 -87.5q32 -15 73.5 -22.5
t93.5 -7.5z" />
    <glyph glyph-name="T" unicode="T" horiz-adv-x="585" 
d="M555 624v87h-524v-87h208v-624h99v624h217z" />
    <glyph glyph-name="U" unicode="U" horiz-adv-x="692" 
d="M347 -15q135 0 204 79t69 245v402h-102v-398q0 -122 -39.5 -178t-131.5 -56t-133 56.5t-41 177.5v398h-100v-402q0 -166 66 -245t208 -79z" />
    <glyph glyph-name="V" unicode="V" horiz-adv-x="663" 
d="M384 0l261 711h-103l-206 -577l-211 577h-103l264 -711h98z" />
    <glyph glyph-name="W" unicode="W" horiz-adv-x="990" 
d="M675 0h92l196 711h-98l-150 -571l-191 571h-75l-197 -560l-128 560h-98l170 -711h92l198 554z" />
    <glyph glyph-name="X" unicode="X" horiz-adv-x="654" 
d="M527 0h114l-255 379l231 332h-113l-176 -261l-170 261h-113l224 -332l-260 -379h118l202 300z" />
    <glyph glyph-name="Y" unicode="Y" horiz-adv-x="635" 
d="M362 0v280l256 431h-107l-198 -339l-187 339h-107l242 -431v-280h101z" />
    <glyph glyph-name="Z" unicode="Z" horiz-adv-x="609" 
d="M570 0v92h-407l406 530v89h-504v-88h389l-417 -540v-83h533z" />
    <glyph glyph-name="bracketleft" unicode="[" horiz-adv-x="404" 
d="M361 -107h-171v778h171v81h-269v-939h269v80z" />
    <glyph glyph-name="backslash" unicode="\" horiz-adv-x="351" 
d="M17 711l211 -711h105l-211 711h-105z" />
    <glyph glyph-name="bracketright" unicode="]" horiz-adv-x="404" 
d="M312 -187v938h-269v-80h172v-778h-172v-80h269z" />
    <glyph glyph-name="asciicircum" unicode="^" horiz-adv-x="549" 
d="M372 431h88l-150 280h-73l-149 -280h89l97 197z" />
    <glyph glyph-name="uni005F" unicode="_" horiz-adv-x="640" 
d="M604 -67h-568v-98h568v98z" />
    <glyph glyph-name="grave" unicode="`" horiz-adv-x="549" 
d="M298 657h79l-135 187h-109z" />
    <glyph glyph-name="a" unicode="a" 
d="M264 62q-56 0 -83.5 23.5t-27.5 63.5q0 25 10.5 44t30.5 32q24 16 57.5 25t98.5 19q47 8 82 17.5t54 25.5v-42q0 -36 -16 -72.5t-46 -67.5q-29 -31 -70 -49.5t-90 -18.5zM500 0h79v394q0 88 -56.5 140.5t-189.5 52.5q-81 0 -139.5 -27t-91.5 -75q-16 -24 -25.5 -51.5
t-11.5 -58.5h99q4 60 46.5 97.5t126.5 37.5q80 0 114 -27.5t34 -73.5q0 -40 -40.5 -53.5t-115.5 -24.5q-57 -8 -95 -16t-64 -17q-13 -5 -25 -11t-24 -14q-34 -21 -54 -56t-20 -80q0 -69 47.5 -110.5t139.5 -41.5q95 0 160 45.5t95 111.5z" />
    <glyph glyph-name="b" unicode="b" horiz-adv-x="682" 
d="M378 -15q79 0 137 35.5t89 101.5q16 33 24 73t8 86v13q0 94 -32.5 159t-89.5 99q-28 17 -61 26t-70 9q-79 0 -132.5 -38.5t-79.5 -100.5v317h-94v-765h81l10 129q24 -64 77 -104t133 -40zM351 72q-85 0 -134.5 59.5t-49.5 157.5v8q0 59 23.5 106t65.5 74q21 13 46 20
t53 7q80 0 131 -56.5t51 -154.5v-11q0 -100 -48.5 -155t-137.5 -55z" />
    <glyph glyph-name="c" unicode="c" 
d="M332 -15q114 0 188.5 57t87.5 178v2h-101v-1q-13 -74 -56.5 -111.5t-117.5 -37.5q-87 0 -136.5 54.5t-49.5 151.5v11q0 103 52.5 158.5t134.5 55.5q70 0 115 -36.5t57 -112.5v-2h101v2q-13 119 -87 176t-187 57q-81 0 -146 -35t-102 -101q-19 -34 -28.5 -74t-9.5 -88v-13
q0 -137 75 -214t210 -77z" />
    <glyph glyph-name="d" unicode="d" horiz-adv-x="683" 
d="M326 72q-78 0 -128.5 54.5t-50.5 156.5v10q0 97 48 154t138 57q57 0 98 -27t63 -75q11 -24 16.5 -51.5t5.5 -59.5v-7q0 -62 -23 -110t-66 -75q-21 -13 -46.5 -20t-54.5 -7zM526 0h80v765h-94v-308q-25 59 -77 94t-129 35t-135.5 -34t-91.5 -99q-16 -33 -24 -72.5
t-8 -85.5v-13q0 -94 32 -160t89 -101q29 -17 62 -25.5t70 -8.5q83 0 137 41.5t78 105.5z" />
    <glyph glyph-name="e" unicode="e" horiz-adv-x="658" 
d="M336 508q82 0 127 -48.5t51 -129.5h-370q9 83 59.5 130.5t132.5 47.5zM603 170h-105q-16 -50 -58 -76.5t-104 -26.5q-88 0 -138 49t-55 137h468v46q0 77 -30 142.5t-91 105.5q-30 20 -69 30t-86 10q-88 0 -153 -37.5t-100 -104.5q-17 -34 -26 -73.5t-9 -84.5v-12
q0 -133 71.5 -211.5t213.5 -78.5q106 0 176 48.5t95 136.5z" />
    <glyph glyph-name="f" unicode="f" horiz-adv-x="375" 
d="M362 487v84h-154v14q0 55 8 82.5t31 36.5q12 5 28.5 7.5t38.5 2.5h48v80h-60q-68 0 -109 -18t-60 -62q-9 -21 -13.5 -50.5t-4.5 -67.5v-25h-107v-84h107v-487h93v487h154z" />
    <glyph glyph-name="g" unicode="g" horiz-adv-x="609" 
d="M302 -262q152 0 221.5 53t69.5 138q0 74 -52 117t-167 43h-134q-54 -1 -76.5 11.5t-22.5 36.5q0 17 11.5 29.5t42.5 18.5q15 4 37.5 5.5t51.5 1.5h19q119 0 186 52.5t67 142.5v4q0 41 -18.5 76.5t-54.5 60.5q-18 12 -40 20t-48 11h-2q63 2 98.5 15t49.5 39
q7 13 10.5 29.5t3.5 36.5v17h-110v-11q0 -36 -9 -58t-37 -34q-14 -5 -34.5 -8.5t-48.5 -5.5q-10 0 -26.5 -1t-24.5 -3q-99 -10 -153 -58.5t-54 -127.5v-1q0 -65 31 -106t93 -59q-63 -11 -95 -40t-32 -71q0 -40 26.5 -67t81.5 -35q-67 -17 -98 -51t-31 -81q0 -43 23.5 -74.5
t80.5 -48.5q28 -8 67 -12.5t88 -4.5h9zM303 264q-71 0 -109.5 31.5t-38.5 89.5v2q-1 57 36 89.5t98 36.5q5 1 10 1.5t12 0.5q40 0 73.5 -11.5t53.5 -39.5q10 -14 15.5 -33t5.5 -43v-2q0 -58 -40 -90t-116 -32zM285 -181q-82 0 -119 25.5t-37 62.5v1q0 41 33.5 67.5
t101.5 31.5h106q73 0 103 -23t30 -60q0 -47 -46.5 -76t-153.5 -29h-18z" />
    <glyph glyph-name="h" unicode="h" horiz-adv-x="668" 
d="M170 300q0 89 45 145.5t127 56.5q84 0 120.5 -49.5t36.5 -127.5v-325h97v349q0 109 -54.5 173.5t-164.5 64.5q-76 0 -128.5 -36t-78.5 -95v309h-93v-765h93v300z" />
    <glyph glyph-name="i" unicode="i" horiz-adv-x="252" 
d="M128 644q34 0 51 16t17 53q0 38 -17 53.5t-51 15.5t-51.5 -15.5t-17.5 -53.5t16 -53.5t53 -15.5zM176 0v571h-99v-571h99z" />
    <glyph glyph-name="j" unicode="j" horiz-adv-x="251" 
d="M127 644q34 0 51.5 16t17.5 53q0 38 -17 53.5t-51 15.5t-51.5 -15.5t-17.5 -53.5t16 -53.5t52 -15.5zM-21 -224q79 0 121 16.5t58 60.5q8 22 12 53.5t4 72.5v592h-95v-581q0 -55 -8 -81.5t-32 -34.5q-11 -5 -28.5 -7t-39.5 -2h-28v-89h36z" />
    <glyph glyph-name="k" unicode="k" horiz-adv-x="620" 
d="M498 0h112l-224 352l212 219h-122l-292 -301l-14 -17v512h-93v-765h93v148l142 148z" />
    <glyph glyph-name="l" unicode="l" horiz-adv-x="252" 
d="M174 0v765h-97v-765h97z" />
    <glyph glyph-name="m" unicode="m" horiz-adv-x="1020" 
d="M172 309q0 86 39 139.5t114 53.5q53 0 83.5 -23t44.5 -61q6 -19 9.5 -39.5t3.5 -43.5v-335h96v333q0 73 35.5 121t109.5 48q78 0 112 -48.5t34 -125.5v-328h97v352q0 109 -53.5 172t-157.5 63q-75 0 -124.5 -35.5t-69.5 -97.5q-18 62 -64 97.5t-125 35.5q-72 0 -120 -36
t-70 -95l-9 115h-82v-571h97v309z" />
    <glyph glyph-name="n" unicode="n" horiz-adv-x="670" 
d="M173 299q0 91 45 147t129 56q83 0 118.5 -48.5t35.5 -128.5v-325h98v347q0 108 -56.5 174t-166.5 66q-81 0 -133.5 -40t-75.5 -106l-10 130h-82v-571h98v299z" />
    <glyph glyph-name="o" unicode="o" horiz-adv-x="666" 
d="M333 -15q87 0 151 34.5t100 99.5q17 33 26 72t9 85v13q0 94 -36.5 160.5t-101.5 101.5q-32 18 -69 27t-79 9q-82 0 -147 -35t-102 -101q-18 -34 -27.5 -74t-9.5 -88v-13q0 -137 75 -214t211 -77zM333 72q-88 0 -137.5 54.5t-49.5 151.5v11q0 103 52.5 158.5t134.5 55.5
q83 0 135 -57.5t52 -156.5v-11q0 -97 -49 -151.5t-138 -54.5z" />
    <glyph glyph-name="p" unicode="p" horiz-adv-x="683" 
d="M351 71q-85 0 -134.5 59t-49.5 153v7q0 62 23.5 110t65.5 76q21 13 46 20t53 7q81 0 132 -56.5t51 -158.5v-11q0 -97 -49 -151.5t-138 -54.5zM379 -13q77 0 134.5 33.5t90.5 98.5q16 32 24 71t8 85v13q0 95 -31.5 161.5t-88.5 102.5q-28 17 -61.5 26t-72.5 9
q-82 0 -135.5 -40.5t-78.5 -104.5l-11 129h-80v-770h94v317q26 -60 78 -95.5t130 -35.5z" />
    <glyph glyph-name="q" unicode="q" horiz-adv-x="684" 
d="M606 -199v770h-80l-11 -129q-23 65 -75 105t-134 40q-79 0 -137.5 -36t-89.5 -103q-16 -33 -24 -73t-8 -86v-13q0 -94 32.5 -158.5t89.5 -97.5q29 -16 61.5 -24.5t69.5 -8.5q82 0 134.5 38.5t77.5 99.5v-324h94zM326 71q-79 0 -129.5 54.5t-50.5 151.5v11q0 101 48.5 158
t138.5 57q85 0 134 -59.5t49 -158.5v-7q0 -59 -23 -106t-66 -74q-21 -13 -46.5 -20t-54.5 -7z" />
    <glyph glyph-name="r" unicode="r" horiz-adv-x="430" 
d="M171 0v267q0 73 17 119t59 69q20 11 49 16.5t65 5.5h48v98h-35q-88 0 -138.5 -37.5t-68.5 -108.5l-13 142h-79v-571h96z" />
    <glyph glyph-name="s" unicode="s" horiz-adv-x="580" 
d="M299 -15q84 0 137.5 25t79.5 67q13 21 19.5 44.5t6.5 49.5q0 47 -19 75.5t-51 45.5q-32 16 -71 24.5t-78 14.5q-45 7 -84.5 14.5t-64.5 23.5q-13 9 -19 21.5t-6 28.5q0 35 28.5 62t101.5 27q69 0 107 -25.5t45 -76.5h99q-11 83 -72.5 132t-177.5 49q-77 0 -127.5 -23.5
t-75.5 -63.5q-12 -19 -18 -40.5t-6 -45.5q0 -46 19.5 -75t51.5 -46q32 -16 71 -24.5t78 -14.5q45 -6 84.5 -14t64.5 -25q12 -8 18 -20.5t6 -29.5q0 -40 -33 -68.5t-112 -28.5q-67 0 -113 29t-55 90h-105q12 -99 81 -150.5t190 -51.5z" />
    <glyph glyph-name="t" unicode="t" horiz-adv-x="409" 
d="M378 91h-41q-51 0 -78.5 10.5t-38.5 41.5q-5 15 -7.5 38t-2.5 54v250h168v86h-168v151h-82q0 -6 -0.5 -22t-0.5 -33q-1 -8 -1 -14.5v-10.5q-2 -32 -6.5 -48t-17.5 -21q-7 -3 -16.5 -4t-22.5 -1h-55v-83h112v-264q0 -85 17 -133t59 -68q21 -10 51 -15t68 -5h63v91z" />
    <glyph glyph-name="u" unicode="u" horiz-adv-x="649" 
d="M492 0h81v571h-97v-297q0 -88 -43 -144t-120 -56q-79 0 -112 49t-33 126v322h-97v-346q0 -109 53 -173.5t159 -64.5q76 0 126.5 37.5t72.5 98.5z" />
    <glyph glyph-name="v" unicode="v" horiz-adv-x="601" 
d="M339 0l243 571h-102l-183 -456l-177 456h-102l233 -571h88z" />
    <glyph glyph-name="w" unicode="w" horiz-adv-x="884" 
d="M595 0h87l182 571h-95l-138 -447l-159 447h-66l-172 -448l-118 448h-96l157 -571h89l171 428z" />
    <glyph glyph-name="x" unicode="x" horiz-adv-x="614" 
d="M478 0h115l-226 300l212 271h-114l-155 -203l-148 203h-115l207 -271l-235 -300h119l172 229z" />
    <glyph glyph-name="y" unicode="y" horiz-adv-x="600" 
d="M87 -210q57 0 93.5 6.5t62.5 24.5q25 19 46 54.5t46 93.5l257 602h-102l-183 -441l-1 -5l-1 4l-187 442h-104l244 -559l-11 -27q-21 -46 -39.5 -69.5t-45.5 -32.5q-14 -4 -32 -6t-42 -2h-50v-85h49z" />
    <glyph glyph-name="z" unicode="z" horiz-adv-x="566" 
d="M535 0v83h-378l375 411v77h-476v-81h358l-381 -415v-75h502z" />
    <glyph glyph-name="braceleft" unicode="{" horiz-adv-x="419" 
d="M378 -187v78h-66q-59 0 -80 22.5t-21 58.5q0 18 9 45t20 58q11 32 20 62t9 53q0 40 -25 70t-79 34q55 4 77.5 31t22.5 68q0 23 -8 50.5t-18 55.5t-18 52.5t-8 41.5q0 35 21.5 57.5t80.5 22.5h63v79h-110q-63 0 -97 -18.5t-46 -48.5q-7 -15 -10 -31t-3 -34q0 -25 8 -54
t19 -58q10 -29 18 -55.5t8 -45.5q0 -34 -18.5 -51.5t-56.5 -17.5h-63v-88h67q36 0 57 -18.5t21 -54.5q0 -19 -10 -48t-22 -62q-13 -34 -23 -66t-10 -57q0 -35 13 -65t47 -48q17 -9 41.5 -13.5t55.5 -4.5h114z" />
    <glyph glyph-name="bar" unicode="|" horiz-adv-x="273" 
d="M185 -96v879h-97v-879h97z" />
    <glyph glyph-name="braceright" unicode="}" horiz-adv-x="419" 
d="M156 -187q63 0 96.5 18t46.5 48q7 15 10 31t3 34q0 25 -10 57t-22 66q-13 33 -23 62t-10 48q0 36 21.5 54.5t57.5 18.5h66v88h-63q-37 0 -56 17.5t-19 51.5q0 19 8 45.5t19 55.5q10 29 18 58t8 54q0 35 -12.5 65t-46.5 49q-17 9 -41 13.5t-56 4.5h-109v-79h63
q59 0 80 -22.5t21 -57.5q0 -17 -8 -41.5t-18 -52.5t-18 -55.5t-8 -50.5q0 -41 23 -68t78 -31q-55 -4 -80 -34t-25 -70q0 -23 9 -53t21 -62q11 -31 20 -58t9 -45q0 -36 -21.5 -58.5t-80.5 -22.5h-65v-78h114z" />
    <glyph glyph-name="asciitilde" unicode="~" horiz-adv-x="549" 
d="M67 477h69q0 35 12 52.5t36 17.5q21 0 39.5 -11t38.5 -26q19 -15 43 -26t55 -11q65 0 91 39.5t26 105.5h-69q0 -35 -12 -53t-37 -18q-21 0 -39.5 11.5t-38.5 26.5q-20 14 -43.5 25.5t-53.5 11.5q-63 0 -90 -40.5t-27 -104.5z" />
    <glyph glyph-name="uni00A0" unicode="&#xa0;" horiz-adv-x="319" 
 />
    <glyph glyph-name="exclamdown" unicode="&#xa1;" horiz-adv-x="322" 
d="M159 589q-35 0 -53.5 -17t-18.5 -55q0 -39 18 -55t54 -16q35 0 53 16t18 55q0 41 -16.5 56.5t-54.5 15.5zM210 -136v180q0 84 -3.5 158t-7.5 125q-3 25 -4.5 41t-3.5 23q-4 -1 -13.5 -2.5t-20.5 -1.5t-19.5 1.5t-14.5 2.5q-2 -13 -6.5 -64t-7.5 -125q-1 -37 -2 -77
t-1 -82v-179h104z" />
    <glyph glyph-name="cent" unicode="&#xa2;" horiz-adv-x="655" 
d="M608 220v2h-102v-1q-13 -74 -56.5 -111.5t-117.5 -37.5q-87 0 -136 54.5t-49 151.5v11q0 103 52.5 158.5t133.5 55.5q70 0 115 -36.5t57 -112.5v-2h102v2q-13 106 -72.5 163t-154.5 67v120h-94v-120q-70 -9 -124 -46.5t-85 -99.5q-16 -32 -23.5 -69t-7.5 -80v-13
q0 -125 63 -200.5t177 -88.5v-140h93v141q95 10 156.5 67t72.5 165z" />
    <glyph glyph-name="sterling" unicode="&#xa3;" horiz-adv-x="680" 
d="M153 47q-29 0 -43 12.5t-14 29.5t11.5 28.5t35.5 11.5q22 0 44.5 -10t46.5 -25q-13 -22 -33 -34.5t-48 -12.5zM484 -13q88 0 127.5 43t39.5 144v25h-104v-11q0 -65 -20 -92t-68 -27q-37 0 -71.5 15.5t-69.5 34.5q5 17 7.5 34.5t2.5 35.5q0 38 -8 70t-19 60h157v74h-186
q-15 34 -27 68t-12 72q0 51 31 80.5t86 29.5q54 0 83.5 -28t34.5 -71h107q-12 89 -71 138t-156 49q-100 0 -157.5 -54.5t-57.5 -144.5q0 -41 10 -75t23 -64h-102v-74h138q19 -34 35 -67.5t16 -72.5v-12t-1 -11q-27 14 -55 23.5t-57 9.5q-56 0 -87.5 -28.5t-31.5 -72.5
q0 -46 29.5 -74t99.5 -28q45 0 80 20t58 53q41 -27 89.5 -49.5t106.5 -22.5z" />
    <glyph glyph-name="currency" unicode="&#xa4;" horiz-adv-x="762" 
d="M385 193q-48 0 -85 22.5t-58 61.5q-10 19 -15.5 40.5t-5.5 44.5q0 48 21 86t58 61q19 11 40 16.5t45 5.5q48 0 85 -22.5t59 -61.5q10 -19 15.5 -40t5.5 -45q0 -47 -21.5 -85.5t-58.5 -60.5q-18 -12 -39.5 -17.5t-45.5 -5.5zM385 107q41 0 78 11t67 30l111 -111l67 70
l-109 110q20 31 30.5 67.5t10.5 77.5q0 42 -11.5 79.5t-31.5 68.5l114 117l-72 67l-112 -116q-30 19 -65.5 29t-76.5 10t-77 -10t-66 -30l-118 116l-67 -71l115 -114q-19 -30 -30 -67t-11 -79t11 -79t30 -68l-117 -119l73 -68l114 117q30 -18 66 -28t77 -10z" />
    <glyph glyph-name="yen" unicode="&#xa5;" horiz-adv-x="635" 
d="M539 122v76h-175v90h177v78h-176l253 345h-110l-192 -270l-187 270h-110l244 -345h-168v-78h169v-90h-170v-76h170v-122h100v122h175z" />
    <glyph glyph-name="brokenbar" unicode="&#xa6;" horiz-adv-x="273" 
d="M88 401h97v382h-97v-382zM88 306v-402h97v402h-97z" />
    <glyph glyph-name="section" unicode="&#xa7;" horiz-adv-x="703" 
d="M340 265q-71 13 -118 27t-71 36q-11 11 -17 26t-6 34q0 29 21 54t71 32q29 -13 64 -21.5t73 -16.5q61 -11 111 -23t80 -35q15 -11 22.5 -26.5t7.5 -36.5q0 -30 -19.5 -54t-64.5 -33q-32 12 -71 21t-83 16zM359 -105q82 0 137.5 25t83.5 67q14 21 21.5 45t7.5 50
q0 43 -17 72t-46 48q56 14 89 49.5t33 83.5q0 54 -29.5 87t-85.5 53q-28 10 -62.5 18.5t-74.5 15.5q-58 10 -105.5 21.5t-74.5 31.5q-14 10 -21 24.5t-7 32.5q0 38 31 66t104 28q75 0 115 -29t45 -88h97q-6 90 -70 142t-186 52q-79 0 -130.5 -24t-75.5 -63q-13 -20 -19 -41
t-6 -44q0 -40 15.5 -68.5t42.5 -48.5q-65 -13 -100.5 -50t-35.5 -84q0 -54 27 -87t82 -53q28 -10 63 -19t77 -17q70 -13 121.5 -23.5t80.5 -28.5q15 -10 22 -24t7 -34q0 -45 -37 -75t-117 -30q-86 0 -131.5 35.5t-49.5 105.5h-99q5 -107 71 -164.5t207 -57.5z" />
    <glyph glyph-name="dieresis" unicode="&#xa8;" horiz-adv-x="552" 
d="M369 654q31 0 46.5 16t15.5 47q0 34 -15.5 49t-46.5 15t-47 -14.5t-16 -48.5q0 -35 14.5 -49.5t48.5 -14.5zM177 654q32 0 47.5 16t15.5 47q0 34 -15 49t-47 15q-31 0 -47.5 -14.5t-16.5 -48.5q0 -35 15 -49.5t48 -14.5z" />
    <glyph glyph-name="copyright" unicode="&#xa9;" horiz-adv-x="808" 
d="M409 -15q99 0 178.5 40t126.5 119q24 39 35.5 87.5t11.5 106.5v31q0 113 -47.5 193t-128.5 123q-41 22 -85.5 32.5t-94.5 10.5q-100 0 -180.5 -44t-126.5 -125q-24 -41 -35.5 -89t-11.5 -104v-28q0 -120 46.5 -198t127.5 -117q41 -19 87 -28.5t97 -9.5zM409 55
q-86 0 -151 33t-101 98q-18 32 -27 71.5t-9 86.5v16q0 93 36 159.5t100 101.5q32 18 69 27t79 9q84 0 148.5 -34.5t100.5 -100.5q19 -33 28 -72.5t9 -86.5v-19q0 -94 -35.5 -158.5t-98.5 -97.5q-32 -17 -69 -25t-79 -8zM587 312v1h-72q-7 -48 -35 -71t-69 -23
q-49 0 -81 35.5t-32 96.5v8q0 65 33 100.5t80 35.5q40 0 68.5 -22.5t35.5 -70.5h70v1q-8 81 -55.5 119.5t-119.5 38.5q-77 0 -128.5 -52t-51.5 -150v-10q0 -93 48 -144t133 -51q71 0 119 38t57 120z" />
    <glyph glyph-name="ordfeminine" unicode="&#xaa;" horiz-adv-x="453" 
d="M191 367q-31 0 -47.5 14t-16.5 39q0 17 6.5 29t19.5 20q14 9 34.5 14.5t57.5 10.5q25 4 45.5 9.5t34.5 13.5v-12q0 -30 -14.5 -62t-44.5 -54q-15 -11 -33.5 -16.5t-41.5 -5.5zM337 317h67v272q0 60 -41 98.5t-130 38.5q-88 0 -135.5 -41.5t-52.5 -106.5h86q3 38 28 60.5
t74 22.5q48 0 69.5 -17t21.5 -46q0 -27 -22.5 -35.5t-71.5 -15.5q-60 -9 -90 -16.5t-54 -23.5q-23 -14 -39 -38t-16 -58q0 -52 33.5 -78t99.5 -26q59 0 100.5 25t64.5 63z" />
    <glyph glyph-name="guillemotleft" unicode="&#xab;" horiz-adv-x="626" 
d="M581 94l-182 218l162 206h-92l-160 -204v-15l174 -205h98zM342 94l-177 215l163 209h-91l-161 -207v-14l167 -203h99z" />
    <glyph glyph-name="logicalnot" unicode="&#xac;" horiz-adv-x="631" 
d="M571 166v338h-534v-88h441v-250h93z" />
    <glyph glyph-name="uni00AD" unicode="&#xad;" horiz-adv-x="563" 
d="M501 361h-438v-97h438v97z" />
    <glyph glyph-name="registered" unicode="&#xae;" horiz-adv-x="489" 
d="M246 325q53 0 96 22t69 64q13 21 19.5 47t6.5 56v17q0 60 -26 103t-70 66q-22 12 -46 17.5t-51 5.5q-54 0 -97.5 -23.5t-68.5 -66.5q-13 -22 -19.5 -48t-6.5 -56v-15q0 -64 25.5 -106t69.5 -62q22 -11 47 -16t52 -5zM246 368q-66 0 -106 38t-40 111v9q0 72 40 112.5
t104 40.5t105 -39.5t41 -112.5v-10q0 -73 -40 -111t-104 -38zM247 591q21 0 31 -5.5t10 -21.5t-10 -24t-33 -8h-32v59h34zM246 494q23 0 29 -7t6 -25v-27q0 -5 1 -8t3 -4h44q-2 1 -3 4t-1 7v28q0 23 -8 35t-25 16q20 6 30 19t10 34q0 27 -18.5 45t-61.5 18h-82v-206h43v71
h33z" />
    <glyph glyph-name="macron" unicode="&#xaf;" horiz-adv-x="549" 
d="M121 664h308v74h-308v-74z" />
    <glyph glyph-name="degree" unicode="&#xb0;" horiz-adv-x="365" 
d="M182 432q68 0 107.5 37.5t39.5 101.5v6q0 68 -40.5 106t-105.5 38q-62 0 -104.5 -37t-42.5 -107v-6q0 -66 38.5 -102.5t107.5 -36.5zM182 497q-34 0 -54.5 20.5t-20.5 56.5v3q0 39 22.5 59t53.5 20q32 0 54 -20.5t22 -58.5v-3q0 -34 -20.5 -55.5t-56.5 -21.5z" />
    <glyph glyph-name="plusminus" unicode="&#xb1;" horiz-adv-x="562" 
d="M480 411v87h-156v146h-85v-146h-152v-87h152v-147h85v147h156zM481 106v87h-393v-87h393z" />
    <glyph glyph-name="twosuperior" unicode="&#xb2;" horiz-adv-x="334" 
d="M29 355zM307 355v62h-197q9 21 31 36t50 28q28 14 54 30t43 40q8 12 12.5 27t4.5 33q0 47 -32.5 76.5t-101.5 29.5q-65 0 -101.5 -32.5t-36.5 -92.5v-14h71v12q0 32 15.5 50t50.5 18t48.5 -12.5t13.5 -35.5q0 -27 -20.5 -44.5t-50.5 -32.5t-60.5 -32t-50.5 -43
q-11 -13 -16 -30t-5 -37v-36h278z" />
    <glyph glyph-name="threesuperior" unicode="&#xb3;" horiz-adv-x="345" 
d="M27 348zM171 348q68 0 105.5 29.5t37.5 76.5q0 34 -15.5 54.5t-42.5 29.5q26 10 38.5 29.5t12.5 49.5q0 44 -34.5 72t-99.5 28q-67 0 -103 -32t-36 -85v-6h72v4q0 26 16 42t50 16q33 0 48.5 -12t15.5 -32q0 -23 -12 -36t-41 -13h-49v-57h49q29 0 43.5 -11.5t14.5 -35.5
q0 -25 -17.5 -37.5t-53.5 -12.5q-38 0 -54 16t-16 44v7h-73v-9q0 -61 34.5 -90t109.5 -29z" />
    <glyph glyph-name="acute" unicode="&#xb4;" horiz-adv-x="549" 
d="M208 657h80l169 200h-108z" />
    <glyph glyph-name="paragraph" unicode="&#xb6;" horiz-adv-x="715" 
d="M444 0v630h97v-630h92v711h-317q-140 0 -208 -65t-68 -170q0 -110 67 -174.5t203 -63.5h43v-238h91zM312 320q-83 0 -129 40t-46 116q0 68 44 111t135 43h37v-310h-41z" />
    <glyph glyph-name="periodcentered" unicode="&#xb7;" horiz-adv-x="299" 
d="M149 238q36 0 54 17t18 55q0 40 -18 56.5t-53 16.5q-36 0 -54.5 -16.5t-18.5 -55.5q0 -40 17 -56.5t55 -16.5z" />
    <glyph glyph-name="cedilla" unicode="&#xb8;" horiz-adv-x="549" 
d="M274 -277q75 0 116 32.5t41 86.5q0 46 -33.5 73t-101.5 28v57h-72v-114h45q47 0 65.5 -12t18.5 -34q0 -27 -20 -40.5t-60 -13.5q-37 0 -59.5 15.5t-26.5 44.5h-89q10 -56 49.5 -89.5t126.5 -33.5z" />
    <glyph glyph-name="onesuperior" unicode="&#xb9;" horiz-adv-x="254" 
d="M23 355zM236 355v64h-71v292h-56q-5 -29 -22.5 -46.5t-49.5 -19.5v-55h63v-171h-77v-64h213z" />
    <glyph glyph-name="ordmasculine" unicode="&#xba;" horiz-adv-x="476" 
d="M238 307q89 0 144 53.5t55 148.5v9q0 66 -25.5 112.5t-70.5 70.5q-23 13 -48.5 19t-54.5 6q-57 0 -102 -24.5t-71 -70.5q-13 -23 -19.5 -51.5t-6.5 -61.5v-9q0 -95 52 -148.5t147 -53.5zM238 386q-54 0 -81 33t-27 92v7q0 63 29.5 96.5t78.5 33.5q51 0 80.5 -34.5
t29.5 -95.5v-7q0 -59 -27.5 -92t-82.5 -33z" />
    <glyph glyph-name="guillemotright" unicode="&#xbb;" horiz-adv-x="626" 
d="M150 94l174 205v15l-160 204h-92l162 -206l-182 -218h98zM390 94l167 203v14l-161 207h-91l163 -209l-177 -215h99z" />
    <glyph glyph-name="onequarter" unicode="&#xbc;" horiz-adv-x="853" 
d="M82 0zM497 401l290 267l-97 75l-225 -317zM384 338l-302 -281l99 -81l232 337zM634 259l4 5l-1 -7v-126h-111zM757 76v55h-58v225h-60l-193 -230v-50h191v-76h62v76h58zM312 355v64h-71v292h-56q-5 -29 -22.5 -46.5t-49.5 -19.5v-55h63v-171h-77v-64h213z" />
    <glyph glyph-name="onehalf" unicode="&#xbd;" horiz-adv-x="853" 
d="M82 0zM497 401l290 267l-97 75l-225 -317zM384 338l-302 -281l99 -81l232 337zM775 0v62h-197q9 21 31 36t50 28q28 14 54 30t43 40q8 12 12.5 27t4.5 33q0 47 -32.5 76.5t-101.5 29.5q-65 0 -101.5 -32.5t-36.5 -92.5v-14h71v12q0 32 15.5 50t50.5 18t48.5 -12.5
t13.5 -35.5q0 -27 -20.5 -44.5t-50.5 -32.5t-60.5 -32t-50.5 -43q-11 -13 -16 -30t-5 -37v-36h278zM312 355v64h-71v292h-56q-5 -29 -22.5 -46.5t-49.5 -19.5v-55h63v-171h-77v-64h213z" />
    <glyph glyph-name="threequarters" unicode="&#xbe;" horiz-adv-x="853" 
d="M62 0zM497 401l290 267l-97 75l-225 -317zM384 338l-302 -281l99 -81l232 337zM634 259l4 5l-1 -7v-126h-111zM757 76v55h-58v225h-60l-193 -230v-50h191v-76h62v76h58zM206 347q68 0 105.5 29.5t37.5 76.5q0 34 -15.5 54.5t-42.5 29.5q26 10 38.5 29.5t12.5 49.5
q0 44 -34.5 72t-99.5 28q-67 0 -103 -32t-36 -85v-6h72v4q0 26 16 42t50 16q33 0 48.5 -12t15.5 -32q0 -23 -12 -36t-41 -13h-49v-57h49q29 0 43.5 -11.5t14.5 -35.5q0 -25 -17.5 -37.5t-53.5 -12.5q-38 0 -54 16t-16 44v7h-73v-9q0 -61 34.5 -90t109.5 -29z" />
    <glyph glyph-name="questiondown" unicode="&#xbf;" horiz-adv-x="678" 
d="M335 360l-1 -52q-1 -29 -15.5 -48t-37.5 -32q-12 -7 -24.5 -13.5t-25.5 -12.5q-30 -15 -60 -35t-49 -55q-10 -17 -15 -40t-5 -52q0 -54 27.5 -100.5t84.5 -75.5q28 -14 65 -21t82 -7q137 0 203.5 61.5t66.5 174.5v20h-99v-15q0 -75 -40 -115.5t-129 -40.5
q-85 0 -122.5 36.5t-37.5 88.5q0 36 16 58t41 36q12 7 25 14t27 13q30 14 57.5 30.5t44.5 43.5q9 13 13.5 31t4.5 40v24q0 11 -0.5 25.5t-1.5 18.5q-4 -4 -18 -6.5t-30 -2.5t-29 2.5t-18 6.5zM380 549q-35 0 -53 -17t-18 -55q0 -39 18 -55.5t53 -16.5q36 0 54 16.5t18 55.5
q0 40 -17 56t-55 16z" />
    <glyph glyph-name="Agrave" unicode="&#xc0;" horiz-adv-x="676" 
d="M18 0zM332 594l3 14l2 -14l121 -325h-243zM559 0h100l-274 711h-101l-266 -711h100l67 185h305zM298 796h79l-135 187h-109z" />
    <glyph glyph-name="Aacute" unicode="&#xc1;" horiz-adv-x="676" 
d="M18 0zM332 594l3 14l2 -14l121 -325h-243zM559 0h100l-274 711h-101l-266 -711h100l67 185h305zM293 796h80l169 200h-108z" />
    <glyph glyph-name="Acircumflex" unicode="&#xc2;" horiz-adv-x="676" 
d="M18 0zM332 594l3 14l2 -14l121 -325h-243zM559 0h100l-274 711h-101l-266 -711h100l67 185h305zM421 795h88l-139 188h-74l-139 -188h89l88 122z" />
    <glyph glyph-name="Atilde" unicode="&#xc3;" horiz-adv-x="676" 
d="M18 0zM332 594l3 14l2 -14l121 -325h-243zM559 0h100l-274 711h-101l-266 -711h100l67 185h305zM131 796h68q0 32 11.5 47.5t33.5 15.5q20 0 39 -10t39 -23q19 -13 42.5 -23t52.5 -10q64 0 89.5 37.5t25.5 99.5h-68q0 -34 -11 -49t-36 -15q-19 0 -37.5 10t-38.5 24
q-20 13 -44 23t-53 10q-61 0 -87 -37.5t-26 -99.5z" />
    <glyph glyph-name="Adieresis" unicode="&#xc4;" horiz-adv-x="676" 
d="M18 0zM332 594l3 14l2 -14l121 -325h-243zM559 0h100l-274 711h-101l-266 -711h100l67 185h305zM430 793q31 0 46.5 16t15.5 47q0 34 -15.5 49t-46.5 15t-47 -14.5t-16 -48.5q0 -35 14.5 -49.5t48.5 -14.5zM238 793q32 0 47.5 16t15.5 47q0 34 -15 49t-47 15
q-31 0 -47.5 -14.5t-16.5 -48.5q0 -35 15 -49.5t48 -14.5z" />
    <glyph glyph-name="Aring" unicode="&#xc5;" horiz-adv-x="676" 
d="M18 0zM332 594l3 14l2 -14l121 -325h-243zM559 0h100l-274 711h-101l-266 -711h100l67 185h305zM334 783q58 0 92.5 33.5t34.5 90.5q0 60 -34.5 92.5t-92.5 32.5q-55 0 -90 -33.5t-35 -91.5t33.5 -91t91.5 -33zM334 850q-28 0 -42.5 15.5t-14.5 41.5q0 28 16 43.5
t41 15.5q26 0 42 -15.5t16 -43.5t-18 -42.5t-40 -14.5z" />
    <glyph glyph-name="AE" unicode="&#xc6;" horiz-adv-x="997" 
d="M418 594l5 14v-14l55 -325h-232zM523 0h438v87h-360l-39 229h324v85h-339l-39 225h437v85h-560l-387 -711h106l98 185h290z" />
    <glyph glyph-name="Ccedilla" unicode="&#xc7;" horiz-adv-x="707" 
d="M377 -292q75 0 116 32.5t41 86.5q0 46 -33.5 73t-101.5 28v58q124 10 188.5 81t77.5 189h-104q-9 -82 -57 -130t-138 -48q-103 0 -157.5 64.5t-54.5 186.5v43q0 128 55.5 195.5t156.5 67.5q88 0 135 -44t57 -125h102q-14 128 -90 192.5t-204 64.5q-146 0 -229 -89.5
t-83 -256.5v-52q0 -157 71 -243t202 -96v-115h45q47 0 65.5 -12t18.5 -34q0 -27 -20 -40.5t-60 -13.5q-37 0 -59.5 15.5t-26.5 44.5h-89q10 -56 49.5 -89.5t126.5 -33.5z" />
    <glyph glyph-name="Egrave" unicode="&#xc8;" horiz-adv-x="619" 
d="M82 0zM583 87h-406v229h332v85h-332v225h391v85h-486v-711h501v87zM298 796h79l-135 187h-109z" />
    <glyph glyph-name="Eacute" unicode="&#xc9;" horiz-adv-x="619" 
d="M82 0zM583 87h-406v229h332v85h-332v225h391v85h-486v-711h501v87zM293 796h80l169 200h-108z" />
    <glyph glyph-name="Ecircumflex" unicode="&#xca;" horiz-adv-x="619" 
d="M82 0zM583 87h-406v229h332v85h-332v225h391v85h-486v-711h501v87zM421 795h88l-139 188h-74l-139 -188h89l88 122z" />
    <glyph glyph-name="Edieresis" unicode="&#xcb;" horiz-adv-x="619" 
d="M82 0zM583 87h-406v229h332v85h-332v225h391v85h-486v-711h501v87zM429 793q31 0 46.5 16t15.5 47q0 34 -15.5 49t-46.5 15t-47 -14.5t-16 -48.5q0 -35 14.5 -49.5t48.5 -14.5zM237 793q32 0 47.5 16t15.5 47q0 34 -15 49t-47 15q-31 0 -47.5 -14.5t-16.5 -48.5
q0 -35 15 -49.5t48 -14.5z" />
    <glyph glyph-name="Igrave" unicode="&#xcc;" horiz-adv-x="458" 
d="M29 0zM413 0v91h-137v532h137v88h-368v-88h137v-532h-137v-91h368zM194 796h79l-135 187h-109z" />
    <glyph glyph-name="Iacute" unicode="&#xcd;" horiz-adv-x="458" 
d="M45 0zM413 0v91h-137v532h137v88h-368v-88h137v-532h-137v-91h368zM189 796h80l169 200h-108z" />
    <glyph glyph-name="Icircumflex" unicode="&#xce;" horiz-adv-x="458" 
d="M45 0zM413 0v91h-137v532h137v88h-368v-88h137v-532h-137v-91h368zM317 795h88l-139 188h-74l-139 -188h89l88 122z" />
    <glyph glyph-name="Idieresis" unicode="&#xcf;" horiz-adv-x="458" 
d="M45 0zM413 0v91h-137v532h137v88h-368v-88h137v-532h-137v-91h368zM326 793q31 0 46.5 16t15.5 47q0 34 -15.5 49t-46.5 15t-47 -14.5t-16 -48.5q0 -35 14.5 -49.5t48.5 -14.5zM134 793q32 0 47.5 16t15.5 47q0 34 -15 49t-47 15q-31 0 -47.5 -14.5t-16.5 -48.5
q0 -35 15 -49.5t48 -14.5z" />
    <glyph glyph-name="Eth" unicode="&#xd0;" horiz-adv-x="710" 
d="M346 0q89 0 159 36.5t111 110.5q20 36 30 82t10 101v50q0 111 -43 184.5t-115 110.5q-36 18 -75.5 27t-83.5 9h-240v-316h-101v-87h101v-308h247zM340 308v87h-145v231h140q64 0 114 -28.5t79 -84.5q15 -28 22 -63t7 -77v-36q0 -125 -60 -188t-155 -63h-147v222h145z" />
    <glyph glyph-name="Ntilde" unicode="&#xd1;" horiz-adv-x="722" 
d="M82 0zM175 550l-3 26l24 -47l355 -529h89v711h-93v-539l3 -32l-27 53l-347 518h-94v-711h93v550zM180 805h68q0 32 11.5 47.5t33.5 15.5q20 0 39 -10t39 -23q19 -13 42.5 -23t52.5 -10q64 0 89.5 37.5t25.5 99.5h-68q0 -34 -11 -49t-36 -15q-19 0 -37.5 10t-38.5 24
q-20 13 -44 23t-53 10q-61 0 -87 -37.5t-26 -99.5z" />
    <glyph glyph-name="Ograve" unicode="&#xd2;" horiz-adv-x="720" 
d="M54 0zM359 -15q93 0 162 38t107 114q19 38 28.5 85.5t9.5 104.5v49q0 113 -38.5 190.5t-107.5 116.5q-34 20 -74.5 30t-86.5 10q-93 0 -161.5 -40.5t-105.5 -117.5q-19 -39 -28.5 -86t-9.5 -103v-49q0 -172 80 -257t225 -85zM359 75q-100 0 -152 65.5t-52 189.5v43
q0 125 52 193.5t152 68.5q99 0 152.5 -68t53.5 -195v-42q0 -124 -54 -189.5t-152 -65.5zM324 808h79l-135 187h-109z" />
    <glyph glyph-name="Oacute" unicode="&#xd3;" horiz-adv-x="720" 
d="M54 0zM359 -15q93 0 162 38t107 114q19 38 28.5 85.5t9.5 104.5v49q0 113 -38.5 190.5t-107.5 116.5q-34 20 -74.5 30t-86.5 10q-93 0 -161.5 -40.5t-105.5 -117.5q-19 -39 -28.5 -86t-9.5 -103v-49q0 -172 80 -257t225 -85zM359 75q-100 0 -152 65.5t-52 189.5v43
q0 125 52 193.5t152 68.5q99 0 152.5 -68t53.5 -195v-42q0 -124 -54 -189.5t-152 -65.5zM327 810h80l169 200h-108z" />
    <glyph glyph-name="Ocircumflex" unicode="&#xd4;" horiz-adv-x="720" 
d="M54 0zM359 -15q93 0 162 38t107 114q19 38 28.5 85.5t9.5 104.5v49q0 113 -38.5 190.5t-107.5 116.5q-34 20 -74.5 30t-86.5 10q-93 0 -161.5 -40.5t-105.5 -117.5q-19 -39 -28.5 -86t-9.5 -103v-49q0 -172 80 -257t225 -85zM359 75q-100 0 -152 65.5t-52 189.5v43
q0 125 52 193.5t152 68.5q99 0 152.5 -68t53.5 -195v-42q0 -124 -54 -189.5t-152 -65.5zM447 807h88l-139 188h-74l-139 -188h89l88 122z" />
    <glyph glyph-name="Otilde" unicode="&#xd5;" horiz-adv-x="720" 
d="M54 0zM359 -15q93 0 162 38t107 114q19 38 28.5 85.5t9.5 104.5v49q0 113 -38.5 190.5t-107.5 116.5q-34 20 -74.5 30t-86.5 10q-93 0 -161.5 -40.5t-105.5 -117.5q-19 -39 -28.5 -86t-9.5 -103v-49q0 -172 80 -257t225 -85zM359 75q-100 0 -152 65.5t-52 189.5v43
q0 125 52 193.5t152 68.5q99 0 152.5 -68t53.5 -195v-42q0 -124 -54 -189.5t-152 -65.5zM157 808h68q0 32 11.5 47.5t33.5 15.5q20 0 39 -10t39 -23q19 -13 42.5 -23t52.5 -10q64 0 89.5 37.5t25.5 99.5h-68q0 -34 -11 -49t-36 -15q-19 0 -37.5 10t-38.5 24q-20 13 -44 23
t-53 10q-61 0 -87 -37.5t-26 -99.5z" />
    <glyph glyph-name="Odieresis" unicode="&#xd6;" horiz-adv-x="720" 
d="M54 0zM359 -15q93 0 162 38t107 114q19 38 28.5 85.5t9.5 104.5v49q0 113 -38.5 190.5t-107.5 116.5q-34 20 -74.5 30t-86.5 10q-93 0 -161.5 -40.5t-105.5 -117.5q-19 -39 -28.5 -86t-9.5 -103v-49q0 -172 80 -257t225 -85zM359 75q-100 0 -152 65.5t-52 189.5v43
q0 125 52 193.5t152 68.5q99 0 152.5 -68t53.5 -195v-42q0 -124 -54 -189.5t-152 -65.5zM456 805q31 0 46.5 16t15.5 47q0 34 -15.5 49t-46.5 15t-47 -14.5t-16 -48.5q0 -35 14.5 -49.5t48.5 -14.5zM264 805q32 0 47.5 16t15.5 47q0 34 -15 49t-47 15q-31 0 -47.5 -14.5
t-16.5 -48.5q0 -35 15 -49.5t48 -14.5z" />
    <glyph glyph-name="multiply" unicode="&#xd7;" horiz-adv-x="556" 
d="M427 152l57 58l-151 156l147 148l-57 59l-147 -148l-140 145l-57 -60l139 -143l-156 -157l57 -59l156 157z" />
    <glyph glyph-name="Oslash" unicode="&#xd8;" horiz-adv-x="720" 
d="M155 330v41q0 124 52 194t152 70q25 0 46.5 -4.5t40.5 -12.5l-224 -494q-33 33 -50 84.5t-17 121.5zM359 75q-21 0 -40 3t-36 9l222 486q30 -35 45 -85.5t15 -117.5v-40q0 -124 -54 -189.5t-152 -65.5zM359 -15q93 0 162 38t107 114q19 38 28.5 85.5t9.5 104.5v47
q0 101 -31 174t-87 116l59 129h-81l-42 -93q-29 12 -60.5 17.5t-64.5 5.5q-93 0 -161.5 -41t-105.5 -119q-19 -39 -28.5 -86t-9.5 -103v-47q0 -107 32.5 -180.5t91.5 -113.5l-58 -123h82l42 92q27 -9 56 -13t59 -4z" />
    <glyph glyph-name="Ugrave" unicode="&#xd9;" horiz-adv-x="692" 
d="M73 0zM347 -15q135 0 204 79t69 245v402h-102v-398q0 -122 -39.5 -178t-131.5 -56t-133 56.5t-41 177.5v398h-100v-402q0 -166 66 -245t208 -79zM313 785h79l-135 187h-109z" />
    <glyph glyph-name="Uacute" unicode="&#xda;" horiz-adv-x="692" 
d="M73 0zM347 -15q135 0 204 79t69 245v402h-102v-398q0 -122 -39.5 -178t-131.5 -56t-133 56.5t-41 177.5v398h-100v-402q0 -166 66 -245t208 -79zM308 785h80l169 200h-108z" />
    <glyph glyph-name="Ucircumflex" unicode="&#xdb;" horiz-adv-x="692" 
d="M73 0zM347 -15q135 0 204 79t69 245v402h-102v-398q0 -122 -39.5 -178t-131.5 -56t-133 56.5t-41 177.5v398h-100v-402q0 -166 66 -245t208 -79zM436 784h88l-139 188h-74l-139 -188h89l88 122z" />
    <glyph glyph-name="Udieresis" unicode="&#xdc;" horiz-adv-x="692" 
d="M73 0zM347 -15q135 0 204 79t69 245v402h-102v-398q0 -122 -39.5 -178t-131.5 -56t-133 56.5t-41 177.5v398h-100v-402q0 -166 66 -245t208 -79zM444 782q31 0 46.5 16t15.5 47q0 34 -15.5 49t-46.5 15t-47 -14.5t-16 -48.5q0 -35 14.5 -49.5t48.5 -14.5zM252 782
q32 0 47.5 16t15.5 47q0 34 -15 49t-47 15q-31 0 -47.5 -14.5t-16.5 -48.5q0 -35 15 -49.5t48 -14.5z" />
    <glyph glyph-name="Yacute" unicode="&#xdd;" horiz-adv-x="635" 
d="M19 0zM362 0v280l256 431h-107l-198 -339l-187 339h-107l242 -431v-280h101zM273 789h80l169 200h-108z" />
    <glyph glyph-name="Thorn" unicode="&#xde;" horiz-adv-x="643" 
d="M331 218h-153v295h149q91 0 135 -38.5t44 -106.5q0 -76 -46 -113.5t-129 -36.5zM333 134q137 -1 203.5 61.5t66.5 172.5q0 105 -68 167t-208 62h-149v114h-96v-711h96v134h155z" />
    <glyph glyph-name="germandbls" unicode="&#xdf;" horiz-adv-x="671" 
d="M392 -5q128 0 186.5 60t58.5 157q0 75 -37.5 121t-112.5 63q58 17 84 56.5t26 100.5q1 55 -25 99.5t-82 71.5q-28 14 -64.5 20.5t-81.5 6.5q-93 0 -152 -30t-87 -83q-14 -27 -21 -57t-7 -64v-517h97v512q0 68 38.5 112.5t130.5 44.5q61 0 96 -16.5t49 -44.5
q8 -15 11.5 -31t3.5 -34q0 -56 -35 -88t-115 -32h-50v-73h71q83 0 124.5 -32.5t41.5 -97.5q0 -67 -38 -103.5t-126 -36.5q-28 0 -49.5 2t-41.5 6v-84q22 -5 47.5 -7t59.5 -2z" />
    <glyph glyph-name="agrave" unicode="&#xe0;" 
d="M47 0zM264 62q-56 0 -83.5 23.5t-27.5 63.5q0 25 10.5 44t30.5 32q24 16 57.5 25t98.5 19q47 8 82 17.5t54 25.5v-42q0 -36 -16 -72.5t-46 -67.5q-29 -31 -70 -49.5t-90 -18.5zM500 0h79v394q0 88 -56.5 140.5t-189.5 52.5q-81 0 -139.5 -27t-91.5 -75
q-16 -24 -25.5 -51.5t-11.5 -58.5h99q4 60 46.5 97.5t126.5 37.5q80 0 114 -27.5t34 -73.5q0 -40 -40.5 -53.5t-115.5 -24.5q-57 -8 -95 -16t-64 -17q-13 -5 -25 -11t-24 -14q-34 -21 -54 -56t-20 -80q0 -69 47.5 -110.5t139.5 -41.5q95 0 160 45.5t95 111.5zM297 672h79
l-135 187h-109z" />
    <glyph glyph-name="aacute" unicode="&#xe1;" 
d="M47 0zM264 62q-56 0 -83.5 23.5t-27.5 63.5q0 25 10.5 44t30.5 32q24 16 57.5 25t98.5 19q47 8 82 17.5t54 25.5v-42q0 -36 -16 -72.5t-46 -67.5q-29 -31 -70 -49.5t-90 -18.5zM500 0h79v394q0 88 -56.5 140.5t-189.5 52.5q-81 0 -139.5 -27t-91.5 -75
q-16 -24 -25.5 -51.5t-11.5 -58.5h99q4 60 46.5 97.5t126.5 37.5q80 0 114 -27.5t34 -73.5q0 -40 -40.5 -53.5t-115.5 -24.5q-57 -8 -95 -16t-64 -17q-13 -5 -25 -11t-24 -14q-34 -21 -54 -56t-20 -80q0 -69 47.5 -110.5t139.5 -41.5q95 0 160 45.5t95 111.5zM292 672h80
l169 200h-108z" />
    <glyph glyph-name="acircumflex" unicode="&#xe2;" 
d="M47 0zM264 62q-56 0 -83.5 23.5t-27.5 63.5q0 25 10.5 44t30.5 32q24 16 57.5 25t98.5 19q47 8 82 17.5t54 25.5v-42q0 -36 -16 -72.5t-46 -67.5q-29 -31 -70 -49.5t-90 -18.5zM500 0h79v394q0 88 -56.5 140.5t-189.5 52.5q-81 0 -139.5 -27t-91.5 -75
q-16 -24 -25.5 -51.5t-11.5 -58.5h99q4 60 46.5 97.5t126.5 37.5q80 0 114 -27.5t34 -73.5q0 -40 -40.5 -53.5t-115.5 -24.5q-57 -8 -95 -16t-64 -17q-13 -5 -25 -11t-24 -14q-34 -21 -54 -56t-20 -80q0 -69 47.5 -110.5t139.5 -41.5q95 0 160 45.5t95 111.5zM420 671h88
l-139 188h-74l-139 -188h89l88 122z" />
    <glyph glyph-name="atilde" unicode="&#xe3;" 
d="M47 0zM264 62q-56 0 -83.5 23.5t-27.5 63.5q0 25 10.5 44t30.5 32q24 16 57.5 25t98.5 19q47 8 82 17.5t54 25.5v-42q0 -36 -16 -72.5t-46 -67.5q-29 -31 -70 -49.5t-90 -18.5zM500 0h79v394q0 88 -56.5 140.5t-189.5 52.5q-81 0 -139.5 -27t-91.5 -75
q-16 -24 -25.5 -51.5t-11.5 -58.5h99q4 60 46.5 97.5t126.5 37.5q80 0 114 -27.5t34 -73.5q0 -40 -40.5 -53.5t-115.5 -24.5q-57 -8 -95 -16t-64 -17q-13 -5 -25 -11t-24 -14q-34 -21 -54 -56t-20 -80q0 -69 47.5 -110.5t139.5 -41.5q95 0 160 45.5t95 111.5zM130 672h68
q0 32 11.5 47.5t33.5 15.5q20 0 39 -10t39 -23q19 -13 42.5 -23t52.5 -10q64 0 89.5 37.5t25.5 99.5h-68q0 -34 -11 -49t-36 -15q-19 0 -37.5 10t-38.5 24q-20 13 -44 23t-53 10q-61 0 -87 -37.5t-26 -99.5z" />
    <glyph glyph-name="adieresis" unicode="&#xe4;" 
d="M47 0zM264 62q-56 0 -83.5 23.5t-27.5 63.5q0 25 10.5 44t30.5 32q24 16 57.5 25t98.5 19q47 8 82 17.5t54 25.5v-42q0 -36 -16 -72.5t-46 -67.5q-29 -31 -70 -49.5t-90 -18.5zM500 0h79v394q0 88 -56.5 140.5t-189.5 52.5q-81 0 -139.5 -27t-91.5 -75
q-16 -24 -25.5 -51.5t-11.5 -58.5h99q4 60 46.5 97.5t126.5 37.5q80 0 114 -27.5t34 -73.5q0 -40 -40.5 -53.5t-115.5 -24.5q-57 -8 -95 -16t-64 -17q-13 -5 -25 -11t-24 -14q-34 -21 -54 -56t-20 -80q0 -69 47.5 -110.5t139.5 -41.5q95 0 160 45.5t95 111.5zM429 669
q31 0 46.5 16t15.5 47q0 34 -15.5 49t-46.5 15t-47 -14.5t-16 -48.5q0 -35 14.5 -49.5t48.5 -14.5zM237 669q32 0 47.5 16t15.5 47q0 34 -15 49t-47 15q-31 0 -47.5 -14.5t-16.5 -48.5q0 -35 15 -49.5t48 -14.5z" />
    <glyph glyph-name="aring" unicode="&#xe5;" 
d="M47 0zM264 62q-56 0 -83.5 23.5t-27.5 63.5q0 25 10.5 44t30.5 32q24 16 57.5 25t98.5 19q47 8 82 17.5t54 25.5v-42q0 -36 -16 -72.5t-46 -67.5q-29 -31 -70 -49.5t-90 -18.5zM500 0h79v394q0 88 -56.5 140.5t-189.5 52.5q-81 0 -139.5 -27t-91.5 -75
q-16 -24 -25.5 -51.5t-11.5 -58.5h99q4 60 46.5 97.5t126.5 37.5q80 0 114 -27.5t34 -73.5q0 -40 -40.5 -53.5t-115.5 -24.5q-57 -8 -95 -16t-64 -17q-13 -5 -25 -11t-24 -14q-34 -21 -54 -56t-20 -80q0 -69 47.5 -110.5t139.5 -41.5q95 0 160 45.5t95 111.5zM330 670
q58 0 92.5 33.5t34.5 90.5q0 60 -34.5 92.5t-92.5 32.5q-55 0 -90 -33.5t-35 -91.5t33.5 -91t91.5 -33zM330 737q-28 0 -42.5 15.5t-14.5 41.5q0 28 16 43.5t41 15.5q26 0 42 -15.5t16 -43.5t-18 -42.5t-40 -14.5z" />
    <glyph glyph-name="ae" unicode="&#xe6;" horiz-adv-x="1092" 
d="M770 508q82 0 127 -48.5t51 -129.5h-370q9 83 59.5 130.5t132.5 47.5zM264 62q-56 0 -84.5 23.5t-28.5 63.5q0 24 10.5 43t31.5 33q23 16 57.5 23.5t99.5 17.5q44 8 78 16.5t54 23.5q-1 -12 -1 -22v-14q0 -36 -15.5 -72.5t-43.5 -67.5q-29 -31 -69 -49.5t-89 -18.5z
M1037 170h-105q-16 -50 -58 -76.5t-104 -26.5q-88 0 -138 49t-55 137h468v46q0 77 -30 142.5t-91 105.5q-30 20 -69 30t-86 10q-76 0 -132.5 -27t-93.5 -77q-22 49 -73 76.5t-137 27.5q-126 0 -193.5 -59.5t-74.5 -152.5h97q5 56 48.5 96t122.5 40q75 0 113.5 -30.5
t38.5 -77.5q0 -26 -19.5 -39t-54.5 -19q-17 -4 -37.5 -7t-44.5 -7q-57 -8 -95 -16t-64 -17q-13 -5 -25 -11t-24 -14q-34 -21 -54 -55t-20 -79q0 -69 48.5 -111.5t146.5 -42.5q63 0 115.5 21t89.5 58q19 18 33 38.5t23 43.5q29 -76 94.5 -118.5t168.5 -42.5q106 0 176 48.5
t95 136.5z" />
    <glyph glyph-name="ccedilla" unicode="&#xe7;" 
d="M347 -292q75 0 116 32.5t41 86.5q0 46 -33.5 73t-101.5 28v59q99 8 163 64.5t76 168.5v2h-101v-1q-13 -74 -56.5 -111.5t-117.5 -37.5q-87 0 -136.5 54.5t-49.5 151.5v11q0 103 52.5 158.5t134.5 55.5q70 0 115 -36.5t57 -112.5v-2h101v2q-13 119 -87 176t-187 57
q-81 0 -146 -35t-102 -101q-19 -34 -28.5 -74t-9.5 -88v-13q0 -128 65.5 -204t184.5 -86v-115h45q47 0 65.5 -12t18.5 -34q0 -27 -20 -40.5t-60 -13.5q-37 0 -59.5 15.5t-26.5 44.5h-89q10 -56 49.5 -89.5t126.5 -33.5z" />
    <glyph glyph-name="egrave" unicode="&#xe8;" horiz-adv-x="658" 
d="M47 0zM336 508q82 0 127 -48.5t51 -129.5h-370q9 83 59.5 130.5t132.5 47.5zM603 170h-105q-16 -50 -58 -76.5t-104 -26.5q-88 0 -138 49t-55 137h468v46q0 77 -30 142.5t-91 105.5q-30 20 -69 30t-86 10q-88 0 -153 -37.5t-100 -104.5q-17 -34 -26 -73.5t-9 -84.5v-12
q0 -133 71.5 -211.5t213.5 -78.5q106 0 176 48.5t95 136.5zM300 672h79l-135 187h-109z" />
    <glyph glyph-name="eacute" unicode="&#xe9;" horiz-adv-x="658" 
d="M47 0zM336 508q82 0 127 -48.5t51 -129.5h-370q9 83 59.5 130.5t132.5 47.5zM603 170h-105q-16 -50 -58 -76.5t-104 -26.5q-88 0 -138 49t-55 137h468v46q0 77 -30 142.5t-91 105.5q-30 20 -69 30t-86 10q-88 0 -153 -37.5t-100 -104.5q-17 -34 -26 -73.5t-9 -84.5v-12
q0 -133 71.5 -211.5t213.5 -78.5q106 0 176 48.5t95 136.5zM295 672h80l169 200h-108z" />
    <glyph glyph-name="ecircumflex" unicode="&#xea;" horiz-adv-x="658" 
d="M47 0zM336 508q82 0 127 -48.5t51 -129.5h-370q9 83 59.5 130.5t132.5 47.5zM603 170h-105q-16 -50 -58 -76.5t-104 -26.5q-88 0 -138 49t-55 137h468v46q0 77 -30 142.5t-91 105.5q-30 20 -69 30t-86 10q-88 0 -153 -37.5t-100 -104.5q-17 -34 -26 -73.5t-9 -84.5v-12
q0 -133 71.5 -211.5t213.5 -78.5q106 0 176 48.5t95 136.5zM423 671h88l-139 188h-74l-139 -188h89l88 122z" />
    <glyph glyph-name="edieresis" unicode="&#xeb;" horiz-adv-x="658" 
d="M47 0zM336 508q82 0 127 -48.5t51 -129.5h-370q9 83 59.5 130.5t132.5 47.5zM603 170h-105q-16 -50 -58 -76.5t-104 -26.5q-88 0 -138 49t-55 137h468v46q0 77 -30 142.5t-91 105.5q-30 20 -69 30t-86 10q-88 0 -153 -37.5t-100 -104.5q-17 -34 -26 -73.5t-9 -84.5v-12
q0 -133 71.5 -211.5t213.5 -78.5q106 0 176 48.5t95 136.5zM432 669q31 0 46.5 16t15.5 47q0 34 -15.5 49t-46.5 15t-47 -14.5t-16 -48.5q0 -35 14.5 -49.5t48.5 -14.5zM240 669q32 0 47.5 16t15.5 47q0 34 -15 49t-47 15q-31 0 -47.5 -14.5t-16.5 -48.5q0 -35 15 -49.5
t48 -14.5z" />
    <glyph glyph-name="igrave" unicode="&#xec;" horiz-adv-x="252" 
d="M0 0zM176 0v571h-99v-571h99zM93 657h79l-135 187h-109z" />
    <glyph glyph-name="iacute" unicode="&#xed;" horiz-adv-x="252" 
d="M77 0zM176 0v571h-99v-571h99zM88 657h80l169 200h-108z" />
    <glyph glyph-name="icircumflex" unicode="&#xee;" horiz-adv-x="252" 
d="M0 0zM176 0v571h-99v-571h99zM215 656h88l-139 188h-74l-139 -188h89l88 122z" />
    <glyph glyph-name="idieresis" unicode="&#xef;" horiz-adv-x="252" 
d="M0 0zM176 0v571h-99v-571h99zM224 654q31 0 46.5 16t15.5 47q0 34 -15.5 49t-46.5 15t-47 -14.5t-16 -48.5q0 -35 14.5 -49.5t48.5 -14.5zM32 654q32 0 47.5 16t15.5 47q0 34 -15 49t-47 15q-31 0 -47.5 -14.5t-16.5 -48.5q0 -35 15 -49.5t48 -14.5z" />
    <glyph glyph-name="eth" unicode="&#xf0;" horiz-adv-x="673" 
d="M335 -15q140 0 215 76t75 222v4q0 116 -47 213.5t-147 188.5l126 85h-107l-66 -45q-14 11 -29.5 22.5t-31.5 22.5h-148q38 -25 72.5 -48.5t63.5 -45.5l-124 -84h108l66 45q52 -42 87 -82t54 -84q-28 36 -71.5 56t-102.5 20q-80 0 -143.5 -31.5t-100.5 -94.5
q-19 -31 -28 -69.5t-9 -84.5v-11q0 -84 34.5 -146t99.5 -95q32 -17 70.5 -25.5t83.5 -8.5zM337 72q-88 0 -139.5 51t-51.5 139v9q0 97 52.5 147.5t137.5 50.5q88 0 141 -52.5t53 -141.5v-7q0 -95 -50.5 -145.5t-142.5 -50.5z" />
    <glyph glyph-name="ntilde" unicode="&#xf1;" horiz-adv-x="670" 
d="M75 0zM173 299q0 91 45 147t129 56q83 0 118.5 -48.5t35.5 -128.5v-325h98v347q0 108 -56.5 174t-166.5 66q-81 0 -133.5 -40t-75.5 -106l-10 130h-82v-571h98v299zM134 668h68q0 32 11.5 47.5t33.5 15.5q20 0 39 -10t39 -23q19 -13 42.5 -23t52.5 -10q64 0 89.5 37.5
t25.5 99.5h-68q0 -34 -11 -49t-36 -15q-19 0 -37.5 10t-38.5 24q-20 13 -44 23t-53 10q-61 0 -87 -37.5t-26 -99.5z" />
    <glyph glyph-name="ograve" unicode="&#xf2;" horiz-adv-x="666" 
d="M47 0zM333 -15q87 0 151 34.5t100 99.5q17 33 26 72t9 85v13q0 94 -36.5 160.5t-101.5 101.5q-32 18 -69 27t-79 9q-82 0 -147 -35t-102 -101q-18 -34 -27.5 -74t-9.5 -88v-13q0 -137 75 -214t211 -77zM333 72q-88 0 -137.5 54.5t-49.5 151.5v11q0 103 52.5 158.5
t134.5 55.5q83 0 135 -57.5t52 -156.5v-11q0 -97 -49 -151.5t-138 -54.5zM298 672h79l-135 187h-109z" />
    <glyph glyph-name="oacute" unicode="&#xf3;" horiz-adv-x="666" 
d="M47 0zM333 -15q87 0 151 34.5t100 99.5q17 33 26 72t9 85v13q0 94 -36.5 160.5t-101.5 101.5q-32 18 -69 27t-79 9q-82 0 -147 -35t-102 -101q-18 -34 -27.5 -74t-9.5 -88v-13q0 -137 75 -214t211 -77zM333 72q-88 0 -137.5 54.5t-49.5 151.5v11q0 103 52.5 158.5
t134.5 55.5q83 0 135 -57.5t52 -156.5v-11q0 -97 -49 -151.5t-138 -54.5zM293 672h80l169 200h-108z" />
    <glyph glyph-name="ocircumflex" unicode="&#xf4;" horiz-adv-x="666" 
d="M47 0zM333 -15q87 0 151 34.5t100 99.5q17 33 26 72t9 85v13q0 94 -36.5 160.5t-101.5 101.5q-32 18 -69 27t-79 9q-82 0 -147 -35t-102 -101q-18 -34 -27.5 -74t-9.5 -88v-13q0 -137 75 -214t211 -77zM333 72q-88 0 -137.5 54.5t-49.5 151.5v11q0 103 52.5 158.5
t134.5 55.5q83 0 135 -57.5t52 -156.5v-11q0 -97 -49 -151.5t-138 -54.5zM420 671h88l-139 188h-74l-139 -188h89l88 122z" />
    <glyph glyph-name="otilde" unicode="&#xf5;" horiz-adv-x="666" 
d="M47 0zM333 -15q87 0 151 34.5t100 99.5q17 33 26 72t9 85v13q0 94 -36.5 160.5t-101.5 101.5q-32 18 -69 27t-79 9q-82 0 -147 -35t-102 -101q-18 -34 -27.5 -74t-9.5 -88v-13q0 -137 75 -214t211 -77zM333 72q-88 0 -137.5 54.5t-49.5 151.5v11q0 103 52.5 158.5
t134.5 55.5q83 0 135 -57.5t52 -156.5v-11q0 -97 -49 -151.5t-138 -54.5zM130 672h68q0 32 11.5 47.5t33.5 15.5q20 0 39 -10t39 -23q19 -13 42.5 -23t52.5 -10q64 0 89.5 37.5t25.5 99.5h-68q0 -34 -11 -49t-36 -15q-19 0 -37.5 10t-38.5 24q-20 13 -44 23t-53 10
q-61 0 -87 -37.5t-26 -99.5z" />
    <glyph glyph-name="odieresis" unicode="&#xf6;" horiz-adv-x="666" 
d="M47 0zM333 -15q87 0 151 34.5t100 99.5q17 33 26 72t9 85v13q0 94 -36.5 160.5t-101.5 101.5q-32 18 -69 27t-79 9q-82 0 -147 -35t-102 -101q-18 -34 -27.5 -74t-9.5 -88v-13q0 -137 75 -214t211 -77zM333 72q-88 0 -137.5 54.5t-49.5 151.5v11q0 103 52.5 158.5
t134.5 55.5q83 0 135 -57.5t52 -156.5v-11q0 -97 -49 -151.5t-138 -54.5zM429 669q31 0 46.5 16t15.5 47q0 34 -15.5 49t-46.5 15t-47 -14.5t-16 -48.5q0 -35 14.5 -49.5t48.5 -14.5zM237 669q32 0 47.5 16t15.5 47q0 34 -15 49t-47 15q-31 0 -47.5 -14.5t-16.5 -48.5
q0 -35 15 -49.5t48 -14.5z" />
    <glyph glyph-name="divide" unicode="&#xf7;" horiz-adv-x="562" 
d="M281 486q27 0 41 13t14 43q0 31 -14 44t-41 13q-28 0 -42 -13t-14 -43q0 -31 13 -44t43 -13zM508 312v87h-450v-87h450zM280 112q28 0 41.5 13t13.5 43q0 31 -13.5 44t-41.5 13t-42 -13t-14 -43q0 -31 13.5 -44t42.5 -13z" />
    <glyph glyph-name="oslash" unicode="&#xf8;" horiz-adv-x="666" 
d="M146 278v11q0 103 52.5 158.5t134.5 55.5q16 0 31 -2t28 -7l-178 -385q-34 27 -51 69.5t-17 99.5zM333 72q-14 0 -27.5 1.5t-25.5 4.5l175 380q31 -28 48 -70.5t17 -98.5v-11q0 -97 -49 -151.5t-138 -54.5zM333 -15q85 0 149.5 34.5t100.5 99.5q18 33 27 72t9 85v13
q0 89 -33 153.5t-92 101.5l52 113h-80l-38 -83q-22 6 -45.5 9.5t-49.5 3.5q-82 0 -147 -35t-102 -101q-18 -34 -27.5 -74t-9.5 -88v-13q0 -92 32 -155.5t95 -98.5l-52 -112h81l39 85q21 -5 43.5 -7.5t47.5 -2.5z" />
    <glyph glyph-name="ugrave" unicode="&#xf9;" horiz-adv-x="649" 
d="M71 0zM492 0h81v571h-97v-297q0 -88 -43 -144t-120 -56q-79 0 -112 49t-33 126v322h-97v-346q0 -109 53 -173.5t159 -64.5q76 0 126.5 37.5t72.5 98.5zM287 646h79l-135 187h-109z" />
    <glyph glyph-name="uacute" unicode="&#xfa;" horiz-adv-x="649" 
d="M71 0zM492 0h81v571h-97v-297q0 -88 -43 -144t-120 -56q-79 0 -112 49t-33 126v322h-97v-346q0 -109 53 -173.5t159 -64.5q76 0 126.5 37.5t72.5 98.5zM282 646h80l169 200h-108z" />
    <glyph glyph-name="ucircumflex" unicode="&#xfb;" horiz-adv-x="649" 
d="M71 0zM492 0h81v571h-97v-297q0 -88 -43 -144t-120 -56q-79 0 -112 49t-33 126v322h-97v-346q0 -109 53 -173.5t159 -64.5q76 0 126.5 37.5t72.5 98.5zM410 645h88l-139 188h-74l-139 -188h89l88 122z" />
    <glyph glyph-name="udieresis" unicode="&#xfc;" horiz-adv-x="649" 
d="M71 0zM492 0h81v571h-97v-297q0 -88 -43 -144t-120 -56q-79 0 -112 49t-33 126v322h-97v-346q0 -109 53 -173.5t159 -64.5q76 0 126.5 37.5t72.5 98.5zM418 643q31 0 46.5 16t15.5 47q0 34 -15.5 49t-46.5 15t-47 -14.5t-16 -48.5q0 -35 14.5 -49.5t48.5 -14.5zM226 643
q32 0 47.5 16t15.5 47q0 34 -15 49t-47 15q-31 0 -47.5 -14.5t-16.5 -48.5q0 -35 15 -49.5t48 -14.5z" />
    <glyph glyph-name="yacute" unicode="&#xfd;" horiz-adv-x="600" 
d="M14 0zM87 -210q57 0 93.5 6.5t62.5 24.5q25 19 46 54.5t46 93.5l257 602h-102l-183 -441l-1 -5l-1 4l-187 442h-104l244 -559l-11 -27q-21 -46 -39.5 -69.5t-45.5 -32.5q-14 -4 -32 -6t-42 -2h-50v-85h49zM264 648h80l169 200h-108z" />
    <glyph glyph-name="thorn" unicode="&#xfe;" horiz-adv-x="683" 
d="M352 71q-85 0 -134.5 59t-49.5 153v13q0 59 23 106.5t65 74.5q21 14 46 21t54 7q53 0 94 -25.5t65 -73.5q11 -24 17 -52t6 -61v-16q0 -97 -49 -151.5t-137 -54.5zM379 -13q76 0 134 33.5t90 98.5q17 32 25 71t8 85v19q0 94 -32 159t-89 99q-28 17 -61 26t-71 9
q-77 0 -131.5 -38.5t-80.5 -100.5v295h-94v-942h94v317q26 -60 78 -95.5t130 -35.5z" />
    <glyph glyph-name="ydieresis" unicode="&#xff;" horiz-adv-x="600" 
d="M14 0zM87 -210q57 0 93.5 6.5t62.5 24.5q25 19 46 54.5t46 93.5l257 602h-102l-183 -441l-1 -5l-1 4l-187 442h-104l244 -559l-11 -27q-21 -46 -39.5 -69.5t-45.5 -32.5q-14 -4 -32 -6t-42 -2h-50v-85h49zM400 645q31 0 46.5 16t15.5 47q0 34 -15.5 49t-46.5 15
t-47 -14.5t-16 -48.5q0 -35 14.5 -49.5t48.5 -14.5zM208 645q32 0 47.5 16t15.5 47q0 34 -15 49t-47 15q-31 0 -47.5 -14.5t-16.5 -48.5q0 -35 15 -49.5t48 -14.5z" />
    <glyph glyph-name="Amacron" unicode="&#x100;" horiz-adv-x="676" 
d="M18 0zM332 594l3 14l2 -14l121 -325h-243zM559 0h100l-274 711h-101l-266 -711h100l67 185h305zM182 803h308v74h-308v-74z" />
    <glyph glyph-name="amacron" unicode="&#x101;" 
d="M47 0zM264 62q-56 0 -83.5 23.5t-27.5 63.5q0 25 10.5 44t30.5 32q24 16 57.5 25t98.5 19q47 8 82 17.5t54 25.5v-42q0 -36 -16 -72.5t-46 -67.5q-29 -31 -70 -49.5t-90 -18.5zM500 0h79v394q0 88 -56.5 140.5t-189.5 52.5q-81 0 -139.5 -27t-91.5 -75
q-16 -24 -25.5 -51.5t-11.5 -58.5h99q4 60 46.5 97.5t126.5 37.5q80 0 114 -27.5t34 -73.5q0 -40 -40.5 -53.5t-115.5 -24.5q-57 -8 -95 -16t-64 -17q-13 -5 -25 -11t-24 -14q-34 -21 -54 -56t-20 -80q0 -69 47.5 -110.5t139.5 -41.5q95 0 160 45.5t95 111.5zM181 679h308
v74h-308v-74z" />
    <glyph glyph-name="Abreve" unicode="&#x102;" horiz-adv-x="676" 
d="M18 0zM332 594l3 14l2 -14l121 -325h-243zM559 0h100l-274 711h-101l-266 -711h100l67 185h305zM331 792q99 0 144.5 54.5t46.5 139.5h-74q-1 -57 -29.5 -90.5t-86.5 -34.5q-60 1 -86 34.5t-28 90.5h-73q1 -56 18 -100t57 -69q20 -13 48 -19t63 -6z" />
    <glyph glyph-name="abreve" unicode="&#x103;" 
d="M47 0zM264 62q-56 0 -83.5 23.5t-27.5 63.5q0 25 10.5 44t30.5 32q24 16 57.5 25t98.5 19q47 8 82 17.5t54 25.5v-42q0 -36 -16 -72.5t-46 -67.5q-29 -31 -70 -49.5t-90 -18.5zM500 0h79v394q0 88 -56.5 140.5t-189.5 52.5q-81 0 -139.5 -27t-91.5 -75
q-16 -24 -25.5 -51.5t-11.5 -58.5h99q4 60 46.5 97.5t126.5 37.5q80 0 114 -27.5t34 -73.5q0 -40 -40.5 -53.5t-115.5 -24.5q-57 -8 -95 -16t-64 -17q-13 -5 -25 -11t-24 -14q-34 -21 -54 -56t-20 -80q0 -69 47.5 -110.5t139.5 -41.5q95 0 160 45.5t95 111.5zM330 668
q99 0 144.5 54.5t46.5 139.5h-74q-1 -57 -29.5 -90.5t-86.5 -34.5q-60 1 -86 34.5t-28 90.5h-73q1 -56 18 -100t57 -69q20 -13 48 -19t63 -6z" />
    <glyph glyph-name="Aogonek" unicode="&#x104;" horiz-adv-x="676" 
d="M332 594l3 14l2 -14l121 -325h-243zM766 -123h-89q-10 -22 -29.5 -35.5t-47.5 -13.5q-30 0 -48 14t-18 37q0 18 11 35t38 37q14 10 33 22t43 27l-274 711h-101l-266 -711h100l67 185h305l65 -175q-59 -35 -80 -69.5t-21 -68.5q0 -52 37.5 -80t103.5 -28q63 0 105.5 28
t65.5 85z" />
    <glyph glyph-name="aogonek" unicode="&#x105;" 
d="M264 62q-56 0 -83.5 23.5t-27.5 63.5q0 25 10.5 44t30.5 32q24 16 57.5 25t98.5 19q47 8 82 17.5t54 25.5v-42q0 -36 -16 -72.5t-46 -67.5q-29 -31 -70 -49.5t-90 -18.5zM685 -123h-89q-10 -22 -29.5 -35.5t-47.5 -13.5q-30 0 -48 14t-18 37q0 18 11 35t38 37
q14 10 33 22t43 27h1v394q0 88 -56.5 140.5t-189.5 52.5q-81 0 -139.5 -27t-91.5 -75q-16 -24 -25.5 -51.5t-11.5 -58.5h99q4 60 46.5 97.5t126.5 37.5q80 0 114 -27.5t34 -73.5q0 -40 -40.5 -53.5t-115.5 -24.5q-57 -8 -95 -16t-64 -17q-13 -5 -25 -11t-24 -14
q-34 -21 -54 -56t-20 -80q0 -69 47.5 -110.5t139.5 -41.5q95 0 160 45.5t95 111.5l9 -118q-74 -39 -99.5 -76.5t-25.5 -75.5q0 -52 37.5 -80t103.5 -28q63 0 105.5 28t65.5 85z" />
    <glyph glyph-name="Cacute" unicode="&#x106;" horiz-adv-x="707" 
d="M54 0zM665 256h-104q-9 -82 -57 -130t-138 -48q-103 0 -157.5 64.5t-54.5 186.5v43q0 128 55.5 195.5t156.5 67.5q88 0 135 -44t57 -125h102q-14 128 -90 192.5t-204 64.5q-146 0 -229 -89.5t-83 -256.5v-52q0 -168 80 -254t228 -86q142 0 216 72.5t87 198.5zM326 808h80
l169 200h-108z" />
    <glyph glyph-name="cacute" unicode="&#x107;" 
d="M47 0zM332 -15q114 0 188.5 57t87.5 178v2h-101v-1q-13 -74 -56.5 -111.5t-117.5 -37.5q-87 0 -136.5 54.5t-49.5 151.5v11q0 103 52.5 158.5t134.5 55.5q70 0 115 -36.5t57 -112.5v-2h101v2q-13 119 -87 176t-187 57q-81 0 -146 -35t-102 -101q-19 -34 -28.5 -74
t-9.5 -88v-13q0 -137 75 -214t210 -77zM292 672h80l169 200h-108z" />
    <glyph glyph-name="Ccircumflex" unicode="&#x108;" horiz-adv-x="707" 
d="M54 0zM665 256h-104q-9 -82 -57 -130t-138 -48q-103 0 -157.5 64.5t-54.5 186.5v43q0 128 55.5 195.5t156.5 67.5q88 0 135 -44t57 -125h102q-14 128 -90 192.5t-204 64.5q-146 0 -229 -89.5t-83 -256.5v-52q0 -168 80 -254t228 -86q142 0 216 72.5t87 198.5zM454 807h88
l-139 188h-74l-139 -188h89l88 122z" />
    <glyph glyph-name="ccircumflex" unicode="&#x109;" 
d="M47 0zM332 -15q114 0 188.5 57t87.5 178v2h-101v-1q-13 -74 -56.5 -111.5t-117.5 -37.5q-87 0 -136.5 54.5t-49.5 151.5v11q0 103 52.5 158.5t134.5 55.5q70 0 115 -36.5t57 -112.5v-2h101v2q-13 119 -87 176t-187 57q-81 0 -146 -35t-102 -101q-19 -34 -28.5 -74
t-9.5 -88v-13q0 -137 75 -214t210 -77zM420 671h88l-139 188h-74l-139 -188h89l88 122z" />
    <glyph glyph-name="Cdotaccent" unicode="&#x10a;" horiz-adv-x="707" 
d="M54 0zM665 256h-104q-9 -82 -57 -130t-138 -48q-103 0 -157.5 64.5t-54.5 186.5v43q0 128 55.5 195.5t156.5 67.5q88 0 135 -44t57 -125h102q-14 128 -90 192.5t-204 64.5q-146 0 -229 -89.5t-83 -256.5v-52q0 -168 80 -254t228 -86q142 0 216 72.5t87 198.5zM365 805
q35 0 52.5 16.5t17.5 53.5t-17.5 53.5t-51.5 16.5q-35 0 -53 -16t-18 -54q0 -39 16.5 -54.5t53.5 -15.5z" />
    <glyph glyph-name="cdotaccent" unicode="&#x10b;" 
d="M47 0zM332 -15q114 0 188.5 57t87.5 178v2h-101v-1q-13 -74 -56.5 -111.5t-117.5 -37.5q-87 0 -136.5 54.5t-49.5 151.5v11q0 103 52.5 158.5t134.5 55.5q70 0 115 -36.5t57 -112.5v-2h101v2q-13 119 -87 176t-187 57q-81 0 -146 -35t-102 -101q-19 -34 -28.5 -74
t-9.5 -88v-13q0 -137 75 -214t210 -77zM331 669q35 0 52.5 16.5t17.5 53.5t-17.5 53.5t-51.5 16.5q-35 0 -53 -16t-18 -54q0 -39 16.5 -54.5t53.5 -15.5z" />
    <glyph glyph-name="Ccaron" unicode="&#x10c;" horiz-adv-x="707" 
d="M54 0zM665 256h-104q-9 -82 -57 -130t-138 -48q-103 0 -157.5 64.5t-54.5 186.5v43q0 128 55.5 195.5t156.5 67.5q88 0 135 -44t57 -125h102q-14 128 -90 192.5t-204 64.5q-146 0 -229 -89.5t-83 -256.5v-52q0 -168 80 -254t228 -86q142 0 216 72.5t87 198.5zM399 807
l141 186h-89l-87 -118l-85 118h-89l139 -186h70z" />
    <glyph glyph-name="ccaron" unicode="&#x10d;" 
d="M47 0zM332 -15q114 0 188.5 57t87.5 178v2h-101v-1q-13 -74 -56.5 -111.5t-117.5 -37.5q-87 0 -136.5 54.5t-49.5 151.5v11q0 103 52.5 158.5t134.5 55.5q70 0 115 -36.5t57 -112.5v-2h101v2q-13 119 -87 176t-187 57q-81 0 -146 -35t-102 -101q-19 -34 -28.5 -74
t-9.5 -88v-13q0 -137 75 -214t210 -77zM365 671l141 186h-89l-87 -118l-85 118h-89l139 -186h70z" />
    <glyph glyph-name="Dcaron" unicode="&#x10e;" horiz-adv-x="693" 
d="M82 0zM82 0h247q89 0 159 36.5t111 110.5q20 36 30 82t10 101v50q0 111 -43 184.5t-115 110.5q-36 18 -75.5 27t-82.5 9h-241v-711zM319 626q64 0 114 -28.5t79 -84.5q15 -28 22 -63t7 -77v-36q0 -84 -27.5 -139.5t-76.5 -83.5q-25 -14 -52.5 -21t-59.5 -7h-146v540h140z
M384 795l141 186h-89l-87 -118l-85 118h-89l139 -186h70z" />
    <glyph glyph-name="dcaron" unicode="&#x10f;" horiz-adv-x="683" 
d="M47 0zM326 72q-78 0 -128.5 54.5t-50.5 156.5v10q0 97 48 154t138 57q57 0 98 -27t63 -75q11 -24 16.5 -51.5t5.5 -59.5v-7q0 -62 -23 -110t-66 -75q-21 -13 -46.5 -20t-54.5 -7zM526 0h80v765h-94v-308q-25 59 -77 94t-129 35t-135.5 -34t-91.5 -99q-16 -33 -24 -72.5
t-8 -85.5v-13q0 -94 32 -160t89 -101q29 -17 62 -25.5t70 -8.5q83 0 137 41.5t78 105.5zM684 665h67l68 181h-89z" />
    <glyph glyph-name="Dcroat" unicode="&#x110;" horiz-adv-x="710" 
d="M0 0zM346 0q89 0 159 36.5t111 110.5q20 36 30 82t10 101v50q0 111 -43 184.5t-115 110.5q-36 18 -75.5 27t-83.5 9h-240v-316h-101v-87h101v-308h247zM340 308v87h-145v231h140q64 0 114 -28.5t79 -84.5q15 -28 22 -63t7 -77v-36q0 -125 -60 -188t-155 -63h-147v222h145
z" />
    <glyph glyph-name="dcroat" unicode="&#x111;" horiz-adv-x="683" 
d="M326 72q-78 0 -128.5 54.5t-50.5 156.5v10q0 97 48 154t138 57q57 0 98 -27t63 -75q11 -24 16.5 -51.5t5.5 -59.5v-7q0 -62 -23 -110t-66 -75q-21 -13 -46.5 -20t-54.5 -7zM515 134l11 -134h80v627h81v54h-81v84h-94v-84h-103v-54h103v-170q-25 59 -77 94t-129 35
t-135.5 -34t-91.5 -99q-16 -33 -24 -72.5t-8 -85.5v-13q0 -94 32 -160t89 -101q29 -17 62 -25.5t70 -8.5q83 0 137 41.5t78 105.5z" />
    <glyph glyph-name="Emacron" unicode="&#x112;" horiz-adv-x="619" 
d="M82 0zM583 87h-406v229h332v85h-332v225h391v85h-486v-711h501v87zM181 803h308v74h-308v-74z" />
    <glyph glyph-name="emacron" unicode="&#x113;" horiz-adv-x="658" 
d="M47 0zM336 508q82 0 127 -48.5t51 -129.5h-370q9 83 59.5 130.5t132.5 47.5zM603 170h-105q-16 -50 -58 -76.5t-104 -26.5q-88 0 -138 49t-55 137h468v46q0 77 -30 142.5t-91 105.5q-30 20 -69 30t-86 10q-88 0 -153 -37.5t-100 -104.5q-17 -34 -26 -73.5t-9 -84.5v-12
q0 -133 71.5 -211.5t213.5 -78.5q106 0 176 48.5t95 136.5zM184 679h308v74h-308v-74z" />
    <glyph glyph-name="Ebreve" unicode="&#x114;" horiz-adv-x="619" 
d="M82 0zM583 87h-406v229h332v85h-332v225h391v85h-486v-711h501v87zM331 792q99 0 144.5 54.5t46.5 139.5h-74q-1 -57 -29.5 -90.5t-86.5 -34.5q-60 1 -86 34.5t-28 90.5h-73q1 -56 18 -100t57 -69q20 -13 48 -19t63 -6z" />
    <glyph glyph-name="ebreve" unicode="&#x115;" horiz-adv-x="658" 
d="M47 0zM336 508q82 0 127 -48.5t51 -129.5h-370q9 83 59.5 130.5t132.5 47.5zM603 170h-105q-16 -50 -58 -76.5t-104 -26.5q-88 0 -138 49t-55 137h468v46q0 77 -30 142.5t-91 105.5q-30 20 -69 30t-86 10q-88 0 -153 -37.5t-100 -104.5q-17 -34 -26 -73.5t-9 -84.5v-12
q0 -133 71.5 -211.5t213.5 -78.5q106 0 176 48.5t95 136.5zM333 668q99 0 144.5 54.5t46.5 139.5h-74q-1 -57 -29.5 -90.5t-86.5 -34.5q-60 1 -86 34.5t-28 90.5h-73q1 -56 18 -100t57 -69q20 -13 48 -19t63 -6z" />
    <glyph glyph-name="Edotaccent" unicode="&#x116;" horiz-adv-x="619" 
d="M82 0zM583 87h-406v229h332v85h-332v225h391v85h-486v-711h501v87zM332 793q35 0 52.5 16.5t17.5 53.5t-17.5 53.5t-51.5 16.5q-35 0 -53 -16t-18 -54q0 -39 16.5 -54.5t53.5 -15.5z" />
    <glyph glyph-name="edotaccent" unicode="&#x117;" horiz-adv-x="658" 
d="M47 0zM336 508q82 0 127 -48.5t51 -129.5h-370q9 83 59.5 130.5t132.5 47.5zM603 170h-105q-16 -50 -58 -76.5t-104 -26.5q-88 0 -138 49t-55 137h468v46q0 77 -30 142.5t-91 105.5q-30 20 -69 30t-86 10q-88 0 -153 -37.5t-100 -104.5q-17 -34 -26 -73.5t-9 -84.5v-12
q0 -133 71.5 -211.5t213.5 -78.5q106 0 176 48.5t95 136.5zM334 669q35 0 52.5 16.5t17.5 53.5t-17.5 53.5t-51.5 16.5q-35 0 -53 -16t-18 -54q0 -39 16.5 -54.5t53.5 -15.5z" />
    <glyph glyph-name="Eogonek" unicode="&#x118;" horiz-adv-x="619" 
d="M690 -123h-89q-10 -22 -29.5 -35.5t-47.5 -13.5q-30 0 -48 14t-18 37q0 18 11 35t38 37q14 10 33 22t43 27v87h-406v229h332v85h-332v225h391v85h-486v-711h381q-49 -32 -67 -64t-18 -64q0 -52 37.5 -80t103.5 -28q63 0 105.5 28t65.5 85z" />
    <glyph glyph-name="eogonek" unicode="&#x119;" horiz-adv-x="658" 
d="M413 -218q63 0 105.5 28t65.5 85h-89q-10 -22 -29.5 -35.5t-47.5 -13.5q-30 0 -48 14t-18 37q0 26 23 49.5t85 61.5q55 22 90.5 62.5t52.5 99.5h-105q-16 -50 -58 -76.5t-104 -26.5q-88 0 -138 49t-55 137h468v46q0 77 -30 142.5t-91 105.5q-30 20 -69 30t-86 10
q-88 0 -153 -37.5t-100 -104.5q-17 -34 -26 -73.5t-9 -84.5v-12q0 -129 67.5 -207t200.5 -83q-24 -24 -33.5 -47.5t-9.5 -47.5q0 -52 37.5 -80t103.5 -28zM336 508q82 0 127 -48.5t51 -129.5h-370q9 83 59.5 130.5t132.5 47.5z" />
    <glyph glyph-name="Ecaron" unicode="&#x11a;" horiz-adv-x="619" 
d="M82 0zM583 87h-406v229h332v85h-332v225h391v85h-486v-711h501v87zM366 795l141 186h-89l-87 -118l-85 118h-89l139 -186h70z" />
    <glyph glyph-name="ecaron" unicode="&#x11b;" horiz-adv-x="658" 
d="M47 0zM336 508q82 0 127 -48.5t51 -129.5h-370q9 83 59.5 130.5t132.5 47.5zM603 170h-105q-16 -50 -58 -76.5t-104 -26.5q-88 0 -138 49t-55 137h468v46q0 77 -30 142.5t-91 105.5q-30 20 -69 30t-86 10q-88 0 -153 -37.5t-100 -104.5q-17 -34 -26 -73.5t-9 -84.5v-12
q0 -133 71.5 -211.5t213.5 -78.5q106 0 176 48.5t95 136.5zM368 671l141 186h-89l-87 -118l-85 118h-89l139 -186h70z" />
    <glyph glyph-name="Gcircumflex" unicode="&#x11c;" horiz-adv-x="721" 
d="M54 0zM579 0h74v358h-305v-84l204 -1q-1 -50 -20 -96t-61 -74q-21 -15 -49 -22t-63 -7q-100 0 -153 61t-52 190v49q0 131 52.5 196t157.5 65q90 0 134 -46t52 -117h101q-9 120 -83.5 185.5t-202.5 65.5q-145 0 -228 -87.5t-83 -257.5v-56q0 -172 73.5 -254.5t206.5 -82.5
q74 0 123 26t77 70q14 22 23.5 46t14.5 51zM453 807h88l-139 188h-74l-139 -188h89l88 122z" />
    <glyph glyph-name="gcircumflex" unicode="&#x11d;" horiz-adv-x="614" 
d="M34 0zM383 710h88l-139 188h-74l-139 -188h89l88 122zM306 -262q102 0 166.5 25t94.5 68q16 22 23.5 46.5t7.5 52.5q0 74 -52.5 116.5t-166.5 42.5h-135q-54 -1 -78 11.5t-24 36.5q0 17 12 29t44 19q16 4 38.5 5.5t51.5 1.5h19q119 0 186 52.5t67 142.5v4q0 41 -18 76.5
t-53 60.5q-17 12 -39 20t-48 11l-4 1q61 2 95 12.5t48 32.5q7 11 10.5 26t3.5 34v9h-110v-15q0 -30 -9 -45t-36 -21q-13 -3 -33 -6t-47 -5q-10 0 -26.5 -1.5t-24.5 -3.5q-107 -13 -158 -66t-51 -127v-2q0 -61 30 -100.5t90 -57.5q-59 -13 -91.5 -42t-32.5 -70t26.5 -67.5
t81.5 -34.5q-68 -17 -99 -51t-31 -81q0 -43 23.5 -74.5t80.5 -48.5q28 -8 67 -12.5t89 -4.5h12zM307 264q-71 0 -109.5 31.5t-38.5 89.5v2q-1 57 36 89.5t98 36.5q5 1 10 1.5t12 0.5q40 0 73.5 -11.5t53.5 -39.5q10 -14 15.5 -33t5.5 -43v-2q0 -58 -40 -90t-116 -32z
M285 -181q-82 0 -119 25.5t-37 62.5v1q0 41 34 67.5t103 31.5h109q73 0 102.5 -22t29.5 -60q0 -44 -47 -75t-154 -31h-21z" />
    <glyph glyph-name="Gbreve" unicode="&#x11e;" horiz-adv-x="721" 
d="M54 0zM579 0h74v358h-305v-84l204 -1q-1 -50 -20 -96t-61 -74q-21 -15 -49 -22t-63 -7q-100 0 -153 61t-52 190v49q0 131 52.5 196t157.5 65q90 0 134 -46t52 -117h101q-9 120 -83.5 185.5t-202.5 65.5q-145 0 -228 -87.5t-83 -257.5v-56q0 -172 73.5 -254.5t206.5 -82.5
q74 0 123 26t77 70q14 22 23.5 46t14.5 51zM363 804q99 0 144.5 54.5t46.5 139.5h-74q-1 -57 -29.5 -90.5t-86.5 -34.5q-60 1 -86 34.5t-28 90.5h-73q1 -56 18 -100t57 -69q20 -13 48 -19t63 -6z" />
    <glyph glyph-name="gbreve" unicode="&#x11f;" horiz-adv-x="614" 
d="M34 0zM300 691q99 0 144.5 54.5t46.5 139.5h-74q-1 -57 -29.5 -90.5t-86.5 -34.5q-60 1 -86 34.5t-28 90.5h-73q1 -56 18 -100t57 -69q20 -13 48 -19t63 -6zM306 -262q102 0 166.5 25t94.5 68q16 22 23.5 46.5t7.5 52.5q0 74 -52.5 116.5t-166.5 42.5h-135
q-54 -1 -78 11.5t-24 36.5q0 17 12 29t44 19q16 4 38.5 5.5t51.5 1.5h19q119 0 186 52.5t67 142.5v4q0 41 -18 76.5t-53 60.5q-17 12 -39 20t-48 11l-4 1q61 2 95 12.5t48 32.5q7 11 10.5 26t3.5 34v9h-110v-15q0 -30 -9 -45t-36 -21q-13 -3 -33 -6t-47 -5q-10 0 -26.5 -1.5
t-24.5 -3.5q-107 -13 -158 -66t-51 -127v-2q0 -61 30 -100.5t90 -57.5q-59 -13 -91.5 -42t-32.5 -70t26.5 -67.5t81.5 -34.5q-68 -17 -99 -51t-31 -81q0 -43 23.5 -74.5t80.5 -48.5q28 -8 67 -12.5t89 -4.5h12zM307 264q-71 0 -109.5 31.5t-38.5 89.5v2q-1 57 36 89.5
t98 36.5q5 1 10 1.5t12 0.5q40 0 73.5 -11.5t53.5 -39.5q10 -14 15.5 -33t5.5 -43v-2q0 -58 -40 -90t-116 -32zM285 -181q-82 0 -119 25.5t-37 62.5v1q0 41 34 67.5t103 31.5h109q73 0 102.5 -22t29.5 -60q0 -44 -47 -75t-154 -31h-21z" />
    <glyph glyph-name="Gdotaccent" unicode="&#x120;" horiz-adv-x="721" 
d="M54 0zM579 0h74v358h-305v-84l204 -1q-1 -50 -20 -96t-61 -74q-21 -15 -49 -22t-63 -7q-100 0 -153 61t-52 190v49q0 131 52.5 196t157.5 65q90 0 134 -46t52 -117h101q-9 120 -83.5 185.5t-202.5 65.5q-145 0 -228 -87.5t-83 -257.5v-56q0 -172 73.5 -254.5t206.5 -82.5
q74 0 123 26t77 70q14 22 23.5 46t14.5 51zM364 805q35 0 52.5 16.5t17.5 53.5t-17.5 53.5t-51.5 16.5q-35 0 -53 -16t-18 -54q0 -39 16.5 -54.5t53.5 -15.5z" />
    <glyph glyph-name="gdotaccent" unicode="&#x121;" horiz-adv-x="614" 
d="M34 0zM286 686q35 0 52.5 16.5t17.5 53.5t-17.5 53.5t-51.5 16.5q-35 0 -53 -16t-18 -54q0 -39 16.5 -54.5t53.5 -15.5zM306 -262q102 0 166.5 25t94.5 68q16 22 23.5 46.5t7.5 52.5q0 74 -52.5 116.5t-166.5 42.5h-135q-54 -1 -78 11.5t-24 36.5q0 17 12 29t44 19
q16 4 38.5 5.5t51.5 1.5h19q119 0 186 52.5t67 142.5v4q0 41 -18 76.5t-53 60.5q-17 12 -39 20t-48 11l-4 1q61 2 95 12.5t48 32.5q7 11 10.5 26t3.5 34v9h-110v-15q0 -30 -9 -45t-36 -21q-13 -3 -33 -6t-47 -5q-10 0 -26.5 -1.5t-24.5 -3.5q-107 -13 -158 -66t-51 -127v-2
q0 -61 30 -100.5t90 -57.5q-59 -13 -91.5 -42t-32.5 -70t26.5 -67.5t81.5 -34.5q-68 -17 -99 -51t-31 -81q0 -43 23.5 -74.5t80.5 -48.5q28 -8 67 -12.5t89 -4.5h12zM307 264q-71 0 -109.5 31.5t-38.5 89.5v2q-1 57 36 89.5t98 36.5q5 1 10 1.5t12 0.5q40 0 73.5 -11.5
t53.5 -39.5q10 -14 15.5 -33t5.5 -43v-2q0 -58 -40 -90t-116 -32zM285 -181q-82 0 -119 25.5t-37 62.5v1q0 41 34 67.5t103 31.5h109q73 0 102.5 -22t29.5 -60q0 -44 -47 -75t-154 -31h-21z" />
    <glyph glyph-name="uni0122" unicode="&#x122;" horiz-adv-x="721" 
d="M54 0zM579 0h74v358h-305v-84l204 -1q-1 -50 -20 -96t-61 -74q-21 -15 -49 -22t-63 -7q-100 0 -153 61t-52 190v49q0 131 52.5 196t157.5 65q90 0 134 -46t52 -117h101q-9 120 -83.5 185.5t-202.5 65.5q-145 0 -228 -87.5t-83 -257.5v-56q0 -172 73.5 -254.5t206.5 -82.5
q74 0 123 26t77 70q14 22 23.5 46t14.5 51zM301 -325q60 13 90.5 56.5t30.5 102.5q0 46 -15 65.5t-50 19.5q-32 0 -48 -14t-16 -47q0 -35 13 -45.5t40 -10.5h6.5t6.5 1q-4 -30 -19 -49.5t-44 -27.5z" />
    <glyph glyph-name="uni0123" unicode="&#x123;" horiz-adv-x="614" 
d="M34 0zM295 680q33 0 48.5 14t15.5 47q0 35 -12.5 46t-40.5 11h-6.5t-6.5 -1q4 30 19.5 49.5t43.5 27.5l-4 50q-61 -13 -91 -56.5t-30 -102.5q0 -46 15 -65.5t49 -19.5zM306 -262q102 0 166.5 25t94.5 68q16 22 23.5 46.5t7.5 52.5q0 74 -52.5 116.5t-166.5 42.5h-135
q-54 -1 -78 11.5t-24 36.5q0 17 12 29t44 19q16 4 38.5 5.5t51.5 1.5h19q119 0 186 52.5t67 142.5v4q0 41 -18 76.5t-53 60.5q-17 12 -39 20t-48 11l-4 1q61 2 95 12.5t48 32.5q7 11 10.5 26t3.5 34v9h-110v-15q0 -30 -9 -45t-36 -21q-13 -3 -33 -6t-47 -5q-10 0 -26.5 -1.5
t-24.5 -3.5q-107 -13 -158 -66t-51 -127v-2q0 -61 30 -100.5t90 -57.5q-59 -13 -91.5 -42t-32.5 -70t26.5 -67.5t81.5 -34.5q-68 -17 -99 -51t-31 -81q0 -43 23.5 -74.5t80.5 -48.5q28 -8 67 -12.5t89 -4.5h12zM307 264q-71 0 -109.5 31.5t-38.5 89.5v2q-1 57 36 89.5
t98 36.5q5 1 10 1.5t12 0.5q40 0 73.5 -11.5t53.5 -39.5q10 -14 15.5 -33t5.5 -43v-2q0 -58 -40 -90t-116 -32zM285 -181q-82 0 -119 25.5t-37 62.5v1q0 41 34 67.5t103 31.5h109q73 0 102.5 -22t29.5 -60q0 -44 -47 -75t-154 -31h-21z" />
    <glyph glyph-name="Hcircumflex" unicode="&#x124;" horiz-adv-x="716" 
d="M82 0zM537 0h97v711h-97v-310h-358v310h-97v-711h97v308h358v-308zM446 782h88l-139 188h-74l-139 -188h89l88 122z" />
    <glyph glyph-name="hcircumflex" unicode="&#x125;" horiz-adv-x="668" 
d="M0 0zM170 300q0 89 45 145.5t127 56.5q84 0 120.5 -49.5t36.5 -127.5v-325h97v349q0 109 -54.5 173.5t-164.5 64.5q-76 0 -128.5 -36t-78.5 -95v309h-93v-765h93v300zM210 827h88l-139 188h-74l-139 -188h89l88 122z" />
    <glyph glyph-name="Hbar" unicode="&#x126;" horiz-adv-x="749" 
d="M554 366h-358v121h358v-121zM554 0h96v487h101v80h-101v144h-96v-144h-358v144h-97v-144h-101v-80h101v-487h97v282h358v-282z" />
    <glyph glyph-name="hbar" unicode="&#x127;" horiz-adv-x="668" 
d="M170 300q0 89 45 145.5t127 56.5q84 0 120.5 -49.5t36.5 -127.5v-325h97v349q0 109 -54.5 173.5t-164.5 64.5q-76 0 -128.5 -36t-78.5 -95v172h108v53h-108v84h-93v-84h-73v-53h73v-628h93v300z" />
    <glyph glyph-name="Itilde" unicode="&#x128;" horiz-adv-x="458" 
d="M27 0zM413 0v91h-137v532h137v88h-368v-88h137v-532h-137v-91h368zM27 796h68q0 32 11.5 47.5t33.5 15.5q20 0 39 -10t39 -23q19 -13 42.5 -23t52.5 -10q64 0 89.5 37.5t25.5 99.5h-68q0 -34 -11 -49t-36 -15q-19 0 -37.5 10t-38.5 24q-20 13 -44 23t-53 10
q-61 0 -87 -37.5t-26 -99.5z" />
    <glyph glyph-name="itilde" unicode="&#x129;" horiz-adv-x="252" 
d="M0 0zM176 0v571h-99v-571h99zM-75 657h68q0 32 11.5 47.5t33.5 15.5q20 0 39 -10t39 -23q19 -13 42.5 -23t52.5 -10q64 0 89.5 37.5t25.5 99.5h-68q0 -34 -11 -49t-36 -15q-19 0 -37.5 10t-38.5 24q-20 13 -44 23t-53 10q-61 0 -87 -37.5t-26 -99.5z" />
    <glyph glyph-name="Imacron" unicode="&#x12a;" horiz-adv-x="458" 
d="M45 0zM413 0v91h-137v532h137v88h-368v-88h137v-532h-137v-91h368zM78 803h308v74h-308v-74z" />
    <glyph glyph-name="imacron" unicode="&#x12b;" horiz-adv-x="252" 
d="M0 0zM176 0v571h-99v-571h99zM-24 664h308v74h-308v-74z" />
    <glyph glyph-name="Ibreve" unicode="&#x12c;" horiz-adv-x="458" 
d="M41 0zM413 0v91h-137v532h137v88h-368v-88h137v-532h-137v-91h368zM227 792q99 0 144.5 54.5t46.5 139.5h-74q-1 -57 -29.5 -90.5t-86.5 -34.5q-60 1 -86 34.5t-28 90.5h-73q1 -56 18 -100t57 -69q20 -13 48 -19t63 -6z" />
    <glyph glyph-name="ibreve" unicode="&#x12d;" horiz-adv-x="252" 
d="M0 0zM176 0v571h-99v-571h99zM125 653q99 0 144.5 54.5t46.5 139.5h-74q-1 -57 -29.5 -90.5t-86.5 -34.5q-60 1 -86 34.5t-28 90.5h-73q1 -56 18 -100t57 -69q20 -13 48 -19t63 -6z" />
    <glyph glyph-name="Iogonek" unicode="&#x12e;" horiz-adv-x="458" 
d="M520 -123h-89q-10 -22 -29.5 -35.5t-47.5 -13.5q-30 0 -48 14t-18 37q0 18 11 35t38 37q14 10 33 22t43 27v91h-137v532h137v88h-368v-88h137v-532h-137v-91h248q-49 -32 -67 -64t-18 -64q0 -52 37.5 -80t103.5 -28q63 0 105.5 28t65.5 85z" />
    <glyph glyph-name="iogonek" unicode="&#x12f;" horiz-adv-x="252" 
d="M128 644q34 0 51 16t17 53q0 38 -17 53.5t-51 15.5t-51.5 -15.5t-17.5 -53.5t16 -53.5t53 -15.5zM282 -123h-89q-10 -22 -29.5 -35.5t-47.5 -13.5q-30 0 -48 14t-18 37q0 18 11 35t38 37q14 10 33 22t43 27h1v571h-99v-557q-63 -37 -85 -72t-22 -70q0 -52 37.5 -80
t103.5 -28q63 0 105.5 28t65.5 85z" />
    <glyph glyph-name="Idotaccent" unicode="&#x130;" horiz-adv-x="458" 
d="M45 0zM413 0v91h-137v532h137v88h-368v-88h137v-532h-137v-91h368zM228 793q35 0 52.5 16.5t17.5 53.5t-17.5 53.5t-51.5 16.5q-35 0 -53 -16t-18 -54q0 -39 16.5 -54.5t53.5 -15.5z" />
    <glyph glyph-name="dotlessi" unicode="&#x131;" horiz-adv-x="252" 
d="M176 0v571h-99v-571h99z" />
    <glyph glyph-name="IJ" unicode="&#x132;" horiz-adv-x="781" 
d="M494 0h10q66 0 106 8.5t62 31.5q21 23 28.5 66.5t7.5 114.5v490h-100v-486q0 -59 -6 -88t-28 -37q-11 -5 -28.5 -7t-41.5 -2h-10v-91zM420 0v91h-144v532h137v88h-368v-88h137v-532h-137v-91h375z" />
    <glyph glyph-name="ij" unicode="&#x133;" horiz-adv-x="530" 
d="M127 645q33 0 49.5 17.5t16.5 51.5q0 37 -16.5 52.5t-49.5 15.5t-49.5 -15.5t-16.5 -52.5q0 -38 15 -53.5t51 -15.5zM404 645q33 0 49.5 17.5t16.5 51.5q0 37 -16.5 52.5t-49.5 15.5t-49.5 -15.5t-16.5 -52.5q0 -38 15 -53.5t51 -15.5zM175 0v571h-98v-571h98zM256 -224
q79 0 121 16.5t58 60.5q8 22 11.5 53.5t3.5 72.5v592h-94v-581q0 -55 -8.5 -81.5t-31.5 -34.5q-12 -5 -29 -7t-40 -2h-54v-89h63z" />
    <glyph glyph-name="Jcircumflex" unicode="&#x134;" horiz-adv-x="582" 
d="M31 0zM269 -15q115 0 177.5 64.5t62.5 205.5v456h-100v-453q0 -99 -34 -139t-106 -40q-68 0 -100 35t-37 99v4h-101v-3q5 -112 66 -170.5t172 -58.5zM548 795h88l-139 188h-74l-139 -188h89l88 122z" />
    <glyph glyph-name="jcircumflex" unicode="&#x135;" horiz-adv-x="251" 
d="M0 0zM-57 -224h36q79 0 121 16.5t58 60.5q8 22 12 53.5t4 72.5v592h-95v-581q0 -55 -8 -81.5t-32 -34.5q-11 -5 -28.5 -7t-39.5 -2h-28v-89zM215 656h88l-139 188h-74l-139 -188h89l88 122z" />
    <glyph glyph-name="uni0136" unicode="&#x136;" horiz-adv-x="670" 
d="M82 0zM555 0h110l-265 451l247 260h-122l-346 -366v366h-97v-711h97v230l151 159zM304 -300q60 13 90.5 56.5t30.5 102.5q0 46 -15 65.5t-50 19.5q-32 0 -48 -14t-16 -47q0 -35 13 -45.5t40 -10.5h6.5t6.5 1q-4 -30 -19 -49.5t-44 -27.5z" />
    <glyph glyph-name="uni0137" unicode="&#x137;" horiz-adv-x="620" 
d="M77 0zM498 0h112l-224 352l212 219h-122l-292 -301l-14 -17v512h-93v-765h93v148l142 148zM272 -303q60 13 90.5 56.5t30.5 102.5q0 46 -15 65.5t-50 19.5q-32 0 -48 -14t-16 -47q0 -35 13 -45.5t40 -10.5h6.5t6.5 1q-4 -30 -19 -49.5t-44 -27.5z" />
    <glyph glyph-name="kgreenlandic" unicode="&#x138;" horiz-adv-x="620" 
d="M498 0h112l-224 352l212 219h-122l-292 -301l-14 -17v318h-93v-571h93v148l142 148z" />
    <glyph glyph-name="Lacute" unicode="&#x139;" horiz-adv-x="571" 
d="M82 0zM544 0v91h-364v620h-98v-711h462zM92 796h80l169 200h-108z" />
    <glyph glyph-name="lacute" unicode="&#x13a;" horiz-adv-x="252" 
d="M77 0zM174 0v765h-97v-765h97zM87 843h80l169 200h-108z" />
    <glyph glyph-name="uni013B" unicode="&#x13b;" horiz-adv-x="571" 
d="M82 0zM544 0v91h-364v620h-98v-711h462zM263 -311q60 13 90.5 56.5t30.5 102.5q0 46 -15 65.5t-50 19.5q-32 0 -48 -14t-16 -47q0 -35 13 -45.5t40 -10.5h6.5t6.5 1q-4 -30 -19 -49.5t-44 -27.5z" />
    <glyph glyph-name="uni013C" unicode="&#x13c;" horiz-adv-x="252" 
d="M71 0zM174 0v765h-97v-765h97zM79 -311q60 13 90.5 56.5t30.5 102.5q0 46 -15 65.5t-50 19.5q-32 0 -48 -14t-16 -47q0 -35 13 -45.5t40 -10.5h6.5t6.5 1q-4 -30 -19 -49.5t-44 -27.5z" />
    <glyph glyph-name="Lcaron" unicode="&#x13d;" horiz-adv-x="571" 
d="M82 0zM544 0v91h-364v620h-98v-711h462zM411 637h67l68 181h-89z" />
    <glyph glyph-name="lcaron" unicode="&#x13e;" horiz-adv-x="252" 
d="M77 0zM174 0v765h-97v-765h97zM251 665h67l68 181h-89z" />
    <glyph glyph-name="Ldot" unicode="&#x13f;" horiz-adv-x="571" 
d="M544 0v91h-364v620h-98v-711h462zM479 260q35 0 52.5 16.5t17.5 53.5t-17.5 53.5t-51.5 16.5q-35 0 -53 -16t-18 -54q0 -39 16.5 -54.5t53.5 -15.5z" />
    <glyph glyph-name="ldot" unicode="&#x140;" horiz-adv-x="252" 
d="M77 0zM174 0v765h-97v-765h97zM320 230q35 0 52.5 16.5t17.5 53.5t-17.5 53.5t-51.5 16.5q-35 0 -53 -16t-18 -54q0 -39 16.5 -54.5t53.5 -15.5z" />
    <glyph glyph-name="Lslash" unicode="&#x141;" horiz-adv-x="588" 
d="M561 0v91h-364v254l177 56l-23 78l-154 -49v281h-98v-312l-108 -35l23 -76l85 27v-315h462z" />
    <glyph glyph-name="lslash" unicode="&#x142;" horiz-adv-x="278" 
d="M187 0v317l95 27l-14 54l-81 -23v390h-97v-417l-93 -26l14 -54l79 22v-290h97z" />
    <glyph glyph-name="Nacute" unicode="&#x143;" horiz-adv-x="722" 
d="M82 0zM175 550l-3 26l24 -47l355 -529h89v711h-93v-539l3 -32l-27 53l-347 518h-94v-711h93v550zM334 780h80l169 200h-108z" />
    <glyph glyph-name="nacute" unicode="&#x144;" horiz-adv-x="670" 
d="M75 0zM173 299q0 91 45 147t129 56q83 0 118.5 -48.5t35.5 -128.5v-325h98v347q0 108 -56.5 174t-166.5 66q-81 0 -133.5 -40t-75.5 -106l-10 130h-82v-571h98v299zM297 668h80l169 200h-108z" />
    <glyph glyph-name="uni0145" unicode="&#x145;" horiz-adv-x="722" 
d="M82 0zM175 550l-3 26l24 -47l355 -529h89v711h-93v-539l3 -32l-27 53l-347 518h-94v-711h93v550zM303 -300q60 13 90.5 56.5t30.5 102.5q0 46 -15 65.5t-50 19.5q-32 0 -48 -14t-16 -47q0 -35 13 -45.5t40 -10.5h6.5t6.5 1q-4 -30 -19 -49.5t-44 -27.5z" />
    <glyph glyph-name="uni0146" unicode="&#x146;" horiz-adv-x="670" 
d="M75 0zM173 299q0 91 45 147t129 56q83 0 118.5 -48.5t35.5 -128.5v-325h98v347q0 108 -56.5 174t-166.5 66q-81 0 -133.5 -40t-75.5 -106l-10 130h-82v-571h98v299zM287 -304q60 13 90.5 56.5t30.5 102.5q0 46 -15 65.5t-50 19.5q-32 0 -48 -14t-16 -47q0 -35 13 -45.5
t40 -10.5h6.5t6.5 1q-4 -30 -19 -49.5t-44 -27.5z" />
    <glyph glyph-name="Ncaron" unicode="&#x147;" horiz-adv-x="722" 
d="M82 0zM175 550l-3 26l24 -47l355 -529h89v711h-93v-539l3 -32l-27 53l-347 518h-94v-711h93v550zM407 779l141 186h-89l-87 -118l-85 118h-89l139 -186h70z" />
    <glyph glyph-name="ncaron" unicode="&#x148;" horiz-adv-x="670" 
d="M75 0zM173 299q0 91 45 147t129 56q83 0 118.5 -48.5t35.5 -128.5v-325h98v347q0 108 -56.5 174t-166.5 66q-81 0 -133.5 -40t-75.5 -106l-10 130h-82v-571h98v299zM369 667l141 186h-89l-87 -118l-85 118h-89l139 -186h70z" />
    <glyph glyph-name="Eng" unicode="&#x14a;" horiz-adv-x="735" 
d="M459 -224q79 0 121 16.5t58 60.5q8 22 11.5 53.5t3.5 72.5v732h-92v-539l2 -26l-30 53l-357 512h-94v-711h93v550l-2 19l27 -48l358 -512v-19q0 -54 -8 -80.5t-32 -34.5q-11 -4 -28 -6t-40 -2h-28v-91h37z" />
    <glyph glyph-name="eng" unicode="&#x14b;" horiz-adv-x="669" 
d="M402 -224q79 0 121 16.5t59 60.5q8 22 12 53.5t4 72.5v368q0 108 -56 174t-166 66q-81 0 -133.5 -40t-75.5 -106l-10 130h-82v-571h98v299q0 91 45 147t129 56q83 0 118.5 -48.5t35.5 -128.5v-335q0 -55 -8 -81.5t-32 -34.5q-11 -5 -28 -7t-40 -2h-28v-89h37z" />
    <glyph glyph-name="Omacron" unicode="&#x14c;" horiz-adv-x="720" 
d="M54 0zM359 -15q93 0 162 38t107 114q19 38 28.5 85.5t9.5 104.5v49q0 113 -38.5 190.5t-107.5 116.5q-34 20 -74.5 30t-86.5 10q-93 0 -161.5 -40.5t-105.5 -117.5q-19 -39 -28.5 -86t-9.5 -103v-49q0 -172 80 -257t225 -85zM359 75q-100 0 -152 65.5t-52 189.5v43
q0 125 52 193.5t152 68.5q99 0 152.5 -68t53.5 -195v-42q0 -124 -54 -189.5t-152 -65.5zM208 815h308v74h-308v-74z" />
    <glyph glyph-name="omacron" unicode="&#x14d;" horiz-adv-x="666" 
d="M47 0zM333 -15q87 0 151 34.5t100 99.5q17 33 26 72t9 85v13q0 94 -36.5 160.5t-101.5 101.5q-32 18 -69 27t-79 9q-82 0 -147 -35t-102 -101q-18 -34 -27.5 -74t-9.5 -88v-13q0 -137 75 -214t211 -77zM333 72q-88 0 -137.5 54.5t-49.5 151.5v11q0 103 52.5 158.5
t134.5 55.5q83 0 135 -57.5t52 -156.5v-11q0 -97 -49 -151.5t-138 -54.5zM181 679h308v74h-308v-74z" />
    <glyph glyph-name="Obreve" unicode="&#x14e;" horiz-adv-x="720" 
d="M54 0zM359 -15q93 0 162 38t107 114q19 38 28.5 85.5t9.5 104.5v49q0 113 -38.5 190.5t-107.5 116.5q-34 20 -74.5 30t-86.5 10q-93 0 -161.5 -40.5t-105.5 -117.5q-19 -39 -28.5 -86t-9.5 -103v-49q0 -172 80 -257t225 -85zM359 75q-100 0 -152 65.5t-52 189.5v43
q0 125 52 193.5t152 68.5q99 0 152.5 -68t53.5 -195v-42q0 -124 -54 -189.5t-152 -65.5zM357 804q99 0 144.5 54.5t46.5 139.5h-74q-1 -57 -29.5 -90.5t-86.5 -34.5q-60 1 -86 34.5t-28 90.5h-73q1 -56 18 -100t57 -69q20 -13 48 -19t63 -6z" />
    <glyph glyph-name="obreve" unicode="&#x14f;" horiz-adv-x="666" 
d="M47 0zM333 -15q87 0 151 34.5t100 99.5q17 33 26 72t9 85v13q0 94 -36.5 160.5t-101.5 101.5q-32 18 -69 27t-79 9q-82 0 -147 -35t-102 -101q-18 -34 -27.5 -74t-9.5 -88v-13q0 -137 75 -214t211 -77zM333 72q-88 0 -137.5 54.5t-49.5 151.5v11q0 103 52.5 158.5
t134.5 55.5q83 0 135 -57.5t52 -156.5v-11q0 -97 -49 -151.5t-138 -54.5zM330 668q99 0 144.5 54.5t46.5 139.5h-74q-1 -57 -29.5 -90.5t-86.5 -34.5q-60 1 -86 34.5t-28 90.5h-73q1 -56 18 -100t57 -69q20 -13 48 -19t63 -6z" />
    <glyph glyph-name="Ohungarumlaut" unicode="&#x150;" horiz-adv-x="720" 
d="M54 0zM359 -15q93 0 162 38t107 114q19 38 28.5 85.5t9.5 104.5v49q0 113 -38.5 190.5t-107.5 116.5q-34 20 -74.5 30t-86.5 10q-93 0 -161.5 -40.5t-105.5 -117.5q-19 -39 -28.5 -86t-9.5 -103v-49q0 -172 80 -257t225 -85zM359 75q-100 0 -152 65.5t-52 189.5v43
q0 125 52 193.5t152 68.5q99 0 152.5 -68t53.5 -195v-42q0 -124 -54 -189.5t-152 -65.5zM476 996h-104l-133 -188h73zM649 996h-104l-140 -188h75z" />
    <glyph glyph-name="ohungarumlaut" unicode="&#x151;" horiz-adv-x="666" 
d="M47 0zM333 -15q87 0 151 34.5t100 99.5q17 33 26 72t9 85v13q0 94 -36.5 160.5t-101.5 101.5q-32 18 -69 27t-79 9q-82 0 -147 -35t-102 -101q-18 -34 -27.5 -74t-9.5 -88v-13q0 -137 75 -214t211 -77zM333 72q-88 0 -137.5 54.5t-49.5 151.5v11q0 103 52.5 158.5
t134.5 55.5q83 0 135 -57.5t52 -156.5v-11q0 -97 -49 -151.5t-138 -54.5zM449 860h-104l-133 -188h73zM622 860h-104l-140 -188h75z" />
    <glyph glyph-name="OE" unicode="&#x152;" horiz-adv-x="1100" 
d="M359 75q-100 0 -152 66t-52 190v41q0 123 52 193t152 70q99 0 152.5 -69.5t53.5 -194.5v-40q0 -124 -54 -190t-152 -66zM563 0h501v87h-407v229h332v85h-332v225h391v85h-485v-95q-30 54 -83 80.5t-129 26.5q-89 0 -156 -41t-104 -119q-18 -39 -27.5 -86t-9.5 -102v-48
q0 -172 81 -257t218 -85q76 0 128.5 26t81.5 78v-89z" />
    <glyph glyph-name="oe" unicode="&#x153;" horiz-adv-x="1130" 
d="M808 508q82 0 127 -48.5t51 -129.5h-370q9 83 59.5 130.5t132.5 47.5zM333 72q-88 0 -137.5 54.5t-49.5 151.5v11q0 103 52.5 158.5t134.5 55.5q83 0 135 -57.5t52 -156.5v-11q0 -97 -49 -151.5t-138 -54.5zM1074 170h-104q-17 -51 -57.5 -77t-105.5 -26q-88 0 -137.5 49
t-54.5 137h467v46q0 77 -29.5 142.5t-90.5 105.5q-31 20 -69.5 30t-85.5 10q-85 0 -146.5 -34.5t-93.5 -96.5q-31 63 -92 97t-142 34q-82 0 -147 -35t-102 -101q-18 -34 -27.5 -74t-9.5 -88v-13q0 -137 74.5 -214t211.5 -77q82 0 141.5 33t90.5 94q29 -60 88.5 -93.5
t150.5 -33.5q106 0 176 48.5t94 136.5z" />
    <glyph glyph-name="Racute" unicode="&#x154;" horiz-adv-x="681" 
d="M82 0zM355 626q88 0 127.5 -34t39.5 -96q0 -68 -45 -102t-125 -34h-173v266h176zM349 276q84 0 119 -28.5t35 -102.5v-108q0 -12 3 -21.5t9 -15.5h105q-8 6 -12 15t-4 21v111q0 78 -27 118.5t-86 55.5q63 20 96.5 64t33.5 117q0 97 -62 153t-202 56h-275v-711h97v276h170
zM304 796h80l169 200h-108z" />
    <glyph glyph-name="racute" unicode="&#x155;" horiz-adv-x="430" 
d="M75 0zM171 0v267q0 73 17 119t59 69q20 11 49 16.5t65 5.5h48v98h-35q-88 0 -138.5 -37.5t-68.5 -108.5l-13 142h-79v-571h96zM194 649h80l169 200h-108z" />
    <glyph glyph-name="uni0156" unicode="&#x156;" horiz-adv-x="681" 
d="M82 0zM355 626q88 0 127.5 -34t39.5 -96q0 -68 -45 -102t-125 -34h-173v266h176zM349 276q84 0 119 -28.5t35 -102.5v-108q0 -12 3 -21.5t9 -15.5h105q-8 6 -12 15t-4 21v111q0 78 -27 118.5t-86 55.5q63 20 96.5 64t33.5 117q0 97 -62 153t-202 56h-275v-711h97v276h170
zM293 -301q60 13 90.5 56.5t30.5 102.5q0 46 -15 65.5t-50 19.5q-32 0 -48 -14t-16 -47q0 -35 13 -45.5t40 -10.5h6.5t6.5 1q-4 -30 -19 -49.5t-44 -27.5z" />
    <glyph glyph-name="uni0157" unicode="&#x157;" horiz-adv-x="430" 
d="M61 0zM171 0v267q0 73 17 119t59 69q20 11 49 16.5t65 5.5h48v98h-35q-88 0 -138.5 -37.5t-68.5 -108.5l-13 142h-79v-571h96zM69 -311q60 13 90.5 56.5t30.5 102.5q0 46 -15 65.5t-50 19.5q-32 0 -48 -14t-16 -47q0 -35 13 -45.5t40 -10.5h6.5t6.5 1q-4 -30 -19 -49.5
t-44 -27.5z" />
    <glyph glyph-name="Rcaron" unicode="&#x158;" horiz-adv-x="681" 
d="M82 0zM355 626q88 0 127.5 -34t39.5 -96q0 -68 -45 -102t-125 -34h-173v266h176zM349 276q84 0 119 -28.5t35 -102.5v-108q0 -12 3 -21.5t9 -15.5h105q-8 6 -12 15t-4 21v111q0 78 -27 118.5t-86 55.5q63 20 96.5 64t33.5 117q0 97 -62 153t-202 56h-275v-711h97v276h170
zM376 795l141 186h-89l-87 -118l-85 118h-89l139 -186h70z" />
    <glyph glyph-name="rcaron" unicode="&#x159;" horiz-adv-x="430" 
d="M58 0zM171 0v267q0 73 17 119t59 69q20 11 49 16.5t65 5.5h48v98h-35q-88 0 -138.5 -37.5t-68.5 -108.5l-13 142h-79v-571h96zM267 648l141 186h-89l-87 -118l-85 118h-89l139 -186h70z" />
    <glyph glyph-name="Sacute" unicode="&#x15a;" horiz-adv-x="629" 
d="M31 0zM323 -15q88 0 147 29.5t89 78.5q15 24 22.5 51t7.5 56q0 58 -21 94t-56 57q-34 21 -77 33t-87 21q-50 11 -94 22t-71 33q-13 11 -20 27.5t-7 38.5q0 46 36 80t111 34q84 0 125.5 -35t45.5 -102h101q-5 102 -71.5 161t-198.5 59q-82 0 -137 -27.5t-83 -72.5
q-13 -23 -20 -47.5t-7 -50.5q0 -56 20.5 -91t54.5 -56q34 -20 76 -31.5t85 -20.5q51 -9 96 -21t73 -36q14 -12 21 -30t7 -41q0 -33 -17.5 -61.5t-54.5 -46.5q-19 -9 -42.5 -13.5t-52.5 -4.5q-97 0 -142 43.5t-47 124.5h-104q3 -80 32.5 -137.5t92.5 -87.5q32 -15 73.5 -22.5
t93.5 -7.5zM265 808h80l169 200h-108z" />
    <glyph glyph-name="sacute" unicode="&#x15b;" horiz-adv-x="580" 
d="M28 0zM299 -15q84 0 137.5 25t79.5 67q13 21 19.5 44.5t6.5 49.5q0 47 -19 75.5t-51 45.5q-32 16 -71 24.5t-78 14.5q-45 7 -84.5 14.5t-64.5 23.5q-13 9 -19 21.5t-6 28.5q0 35 28.5 62t101.5 27q69 0 107 -25.5t45 -76.5h99q-11 83 -72.5 132t-177.5 49
q-77 0 -127.5 -23.5t-75.5 -63.5q-12 -19 -18 -40.5t-6 -45.5q0 -46 19.5 -75t51.5 -46q32 -16 71 -24.5t78 -14.5q45 -6 84.5 -14t64.5 -25q12 -8 18 -20.5t6 -29.5q0 -40 -33 -68.5t-112 -28.5q-67 0 -113 29t-55 90h-105q12 -99 81 -150.5t190 -51.5zM240 672h80l169 200
h-108z" />
    <glyph glyph-name="Scircumflex" unicode="&#x15c;" horiz-adv-x="629" 
d="M31 0zM323 -15q88 0 147 29.5t89 78.5q15 24 22.5 51t7.5 56q0 58 -21 94t-56 57q-34 21 -77 33t-87 21q-50 11 -94 22t-71 33q-13 11 -20 27.5t-7 38.5q0 46 36 80t111 34q84 0 125.5 -35t45.5 -102h101q-5 102 -71.5 161t-198.5 59q-82 0 -137 -27.5t-83 -72.5
q-13 -23 -20 -47.5t-7 -50.5q0 -56 20.5 -91t54.5 -56q34 -20 76 -31.5t85 -20.5q51 -9 96 -21t73 -36q14 -12 21 -30t7 -41q0 -33 -17.5 -61.5t-54.5 -46.5q-19 -9 -42.5 -13.5t-52.5 -4.5q-97 0 -142 43.5t-47 124.5h-104q3 -80 32.5 -137.5t92.5 -87.5q32 -15 73.5 -22.5
t93.5 -7.5zM396 807h88l-139 188h-74l-139 -188h89l88 122z" />
    <glyph glyph-name="scircumflex" unicode="&#x15d;" horiz-adv-x="580" 
d="M28 0zM299 -15q84 0 137.5 25t79.5 67q13 21 19.5 44.5t6.5 49.5q0 47 -19 75.5t-51 45.5q-32 16 -71 24.5t-78 14.5q-45 7 -84.5 14.5t-64.5 23.5q-13 9 -19 21.5t-6 28.5q0 35 28.5 62t101.5 27q69 0 107 -25.5t45 -76.5h99q-11 83 -72.5 132t-177.5 49
q-77 0 -127.5 -23.5t-75.5 -63.5q-12 -19 -18 -40.5t-6 -45.5q0 -46 19.5 -75t51.5 -46q32 -16 71 -24.5t78 -14.5q45 -6 84.5 -14t64.5 -25q12 -8 18 -20.5t6 -29.5q0 -40 -33 -68.5t-112 -28.5q-67 0 -113 29t-55 90h-105q12 -99 81 -150.5t190 -51.5zM368 671h88
l-139 188h-74l-139 -188h89l88 122z" />
    <glyph glyph-name="uni015E" unicode="&#x15e;" horiz-adv-x="629" 
d="M331 -291q75 0 116 32.5t41 86.5q0 46 -33.5 73t-101.5 28v57q78 5 130.5 35.5t79.5 76.5q13 24 19.5 49.5t6.5 52.5q0 58 -21 94t-56 57q-34 21 -77 33t-87 21q-50 11 -94 22t-71 33q-13 11 -20 27.5t-7 38.5q0 46 36 80t111 34q84 0 125.5 -35t45.5 -102h101
q-5 102 -71.5 161t-198.5 59q-82 0 -137 -27.5t-83 -72.5q-13 -23 -20 -47.5t-7 -50.5q0 -56 20.5 -91t54.5 -56q34 -20 76 -31.5t85 -20.5q51 -9 96 -21t73 -36q14 -12 21 -30t7 -41q0 -33 -17.5 -61.5t-54.5 -46.5q-19 -9 -42.5 -13.5t-52.5 -4.5q-97 0 -142 43.5
t-47 124.5h-104q5 -113 63 -180t193 -74h-6v-114h45q47 0 65.5 -12t18.5 -34q0 -27 -20 -40.5t-60 -13.5q-37 0 -59.5 15.5t-26.5 44.5h-89q10 -56 49.5 -89.5t126.5 -33.5z" />
    <glyph glyph-name="uni015F" unicode="&#x15f;" horiz-adv-x="580" 
d="M314 -292q75 0 116 32.5t41 86.5q0 46 -33.5 73t-101.5 28v58q106 9 156 61t50 124q0 47 -19 75.5t-51 45.5q-32 16 -71 24.5t-78 14.5q-45 7 -84.5 14.5t-64.5 23.5q-13 9 -19 21.5t-6 28.5q0 35 28.5 62t101.5 27q69 0 107 -25.5t45 -76.5h99q-11 83 -72.5 132
t-177.5 49q-77 0 -127.5 -23.5t-75.5 -63.5q-12 -19 -18 -40.5t-6 -45.5q0 -46 19.5 -75t51.5 -46q32 -16 71 -24.5t78 -14.5q45 -6 84.5 -14t64.5 -25q12 -8 18 -20.5t6 -29.5q0 -40 -33 -68.5t-112 -28.5q-67 0 -113 29t-55 90h-105q11 -93 70 -143t166 -58v-115h45
q47 0 65.5 -12t18.5 -34q0 -27 -20 -40.5t-60 -13.5q-37 0 -59.5 15.5t-26.5 44.5h-89q10 -56 49.5 -89.5t126.5 -33.5z" />
    <glyph glyph-name="Scaron" unicode="&#x160;" horiz-adv-x="629" 
d="M31 0zM323 -15q88 0 147 29.5t89 78.5q15 24 22.5 51t7.5 56q0 58 -21 94t-56 57q-34 21 -77 33t-87 21q-50 11 -94 22t-71 33q-13 11 -20 27.5t-7 38.5q0 46 36 80t111 34q84 0 125.5 -35t45.5 -102h101q-5 102 -71.5 161t-198.5 59q-82 0 -137 -27.5t-83 -72.5
q-13 -23 -20 -47.5t-7 -50.5q0 -56 20.5 -91t54.5 -56q34 -20 76 -31.5t85 -20.5q51 -9 96 -21t73 -36q14 -12 21 -30t7 -41q0 -33 -17.5 -61.5t-54.5 -46.5q-19 -9 -42.5 -13.5t-52.5 -4.5q-97 0 -142 43.5t-47 124.5h-104q3 -80 32.5 -137.5t92.5 -87.5q32 -15 73.5 -22.5
t93.5 -7.5zM337 807l141 186h-89l-87 -118l-85 118h-89l139 -186h70z" />
    <glyph glyph-name="scaron" unicode="&#x161;" horiz-adv-x="580" 
d="M28 0zM299 -15q84 0 137.5 25t79.5 67q13 21 19.5 44.5t6.5 49.5q0 47 -19 75.5t-51 45.5q-32 16 -71 24.5t-78 14.5q-45 7 -84.5 14.5t-64.5 23.5q-13 9 -19 21.5t-6 28.5q0 35 28.5 62t101.5 27q69 0 107 -25.5t45 -76.5h99q-11 83 -72.5 132t-177.5 49
q-77 0 -127.5 -23.5t-75.5 -63.5q-12 -19 -18 -40.5t-6 -45.5q0 -46 19.5 -75t51.5 -46q32 -16 71 -24.5t78 -14.5q45 -6 84.5 -14t64.5 -25q12 -8 18 -20.5t6 -29.5q0 -40 -33 -68.5t-112 -28.5q-67 0 -113 29t-55 90h-105q12 -99 81 -150.5t190 -51.5zM313 671l141 186
h-89l-87 -118l-85 118h-89l139 -186h70z" />
    <glyph glyph-name="uni0162" unicode="&#x162;" horiz-adv-x="585" 
d="M31 0zM555 624v87h-524v-87h208v-624h99v624h217zM236 -311q60 13 90.5 56.5t30.5 102.5q0 46 -15 65.5t-50 19.5q-32 0 -48 -14t-16 -47q0 -35 13 -45.5t40 -10.5h6.5t6.5 1q-4 -30 -19 -49.5t-44 -27.5z" />
    <glyph glyph-name="uni0163" unicode="&#x163;" horiz-adv-x="409" 
d="M8 0zM378 91h-41q-51 0 -78.5 10.5t-38.5 41.5q-5 15 -7.5 38t-2.5 54v250h168v86h-168v151h-82q0 -6 -0.5 -22t-0.5 -33q-1 -8 -1 -14.5v-10.5q-2 -32 -6.5 -48t-17.5 -21q-7 -3 -16.5 -4t-22.5 -1h-55v-83h112v-264q0 -85 17 -133t59 -68q21 -10 51 -15t68 -5h63v91z
M195 -310q60 13 90.5 56.5t30.5 102.5q0 46 -15 65.5t-50 19.5q-32 0 -48 -14t-16 -47q0 -35 13 -45.5t40 -10.5h6.5t6.5 1q-4 -30 -19 -49.5t-44 -27.5z" />
    <glyph glyph-name="Tcaron" unicode="&#x164;" horiz-adv-x="585" 
d="M31 0zM555 624v87h-524v-87h208v-624h99v624h217zM321 795l141 186h-89l-87 -118l-85 118h-89l139 -186h70z" />
    <glyph glyph-name="tcaron" unicode="&#x165;" horiz-adv-x="409" 
d="M8 0zM378 91h-41q-51 0 -78.5 10.5t-38.5 41.5q-5 15 -7.5 38t-2.5 54v250h168v86h-168v151h-82q0 -6 -0.5 -22t-0.5 -33q-1 -8 -1 -14.5v-10.5q-2 -32 -6.5 -48t-17.5 -21q-7 -3 -16.5 -4t-22.5 -1h-55v-83h112v-264q0 -85 17 -133t59 -68q21 -10 51 -15t68 -5h63v91z
M319 679h67l68 181h-89z" />
    <glyph glyph-name="Tbar" unicode="&#x166;" horiz-adv-x="585" 
d="M458 317v80h-120v227h217v87h-524v-87h208v-227h-120v-80h120v-317h99v317h120z" />
    <glyph glyph-name="tbar" unicode="&#x167;" horiz-adv-x="409" 
d="M378 91h-41q-51 0 -78.5 10.5t-38.5 41.5q-5 15 -7.5 38t-2.5 54v21h111v77h-111v152h168v86h-168v151h-82q0 -6 -0.5 -22t-0.5 -33q-1 -8 -1 -14.5v-10.5q-2 -32 -6.5 -48t-17.5 -21q-7 -3 -16.5 -4t-22.5 -1h-55v-83h112v-152h-82v-77h82v-35q0 -85 17 -133t59 -68
q21 -10 51 -15t68 -5h63v91z" />
    <glyph glyph-name="Utilde" unicode="&#x168;" horiz-adv-x="692" 
d="M73 0zM347 -15q135 0 204 79t69 245v402h-102v-398q0 -122 -39.5 -178t-131.5 -56t-133 56.5t-41 177.5v398h-100v-402q0 -166 66 -245t208 -79zM146 785h68q0 32 11.5 47.5t33.5 15.5q20 0 39 -10t39 -23q19 -13 42.5 -23t52.5 -10q64 0 89.5 37.5t25.5 99.5h-68
q0 -34 -11 -49t-36 -15q-19 0 -37.5 10t-38.5 24q-20 13 -44 23t-53 10q-61 0 -87 -37.5t-26 -99.5z" />
    <glyph glyph-name="utilde" unicode="&#x169;" horiz-adv-x="649" 
d="M71 0zM492 0h81v571h-97v-297q0 -88 -43 -144t-120 -56q-79 0 -112 49t-33 126v322h-97v-346q0 -109 53 -173.5t159 -64.5q76 0 126.5 37.5t72.5 98.5zM120 646h68q0 32 11.5 47.5t33.5 15.5q20 0 39 -10t39 -23q19 -13 42.5 -23t52.5 -10q64 0 89.5 37.5t25.5 99.5h-68
q0 -34 -11 -49t-36 -15q-19 0 -37.5 10t-38.5 24q-20 13 -44 23t-53 10q-61 0 -87 -37.5t-26 -99.5z" />
    <glyph glyph-name="Umacron" unicode="&#x16a;" horiz-adv-x="692" 
d="M73 0zM347 -15q135 0 204 79t69 245v402h-102v-398q0 -122 -39.5 -178t-131.5 -56t-133 56.5t-41 177.5v398h-100v-402q0 -166 66 -245t208 -79zM196 792h308v74h-308v-74z" />
    <glyph glyph-name="umacron" unicode="&#x16b;" horiz-adv-x="649" 
d="M71 0zM492 0h81v571h-97v-297q0 -88 -43 -144t-120 -56q-79 0 -112 49t-33 126v322h-97v-346q0 -109 53 -173.5t159 -64.5q76 0 126.5 37.5t72.5 98.5zM170 653h308v74h-308v-74z" />
    <glyph glyph-name="Ubreve" unicode="&#x16c;" horiz-adv-x="692" 
d="M73 0zM347 -15q135 0 204 79t69 245v402h-102v-398q0 -122 -39.5 -178t-131.5 -56t-133 56.5t-41 177.5v398h-100v-402q0 -166 66 -245t208 -79zM346 781q99 0 144.5 54.5t46.5 139.5h-74q-1 -57 -29.5 -90.5t-86.5 -34.5q-60 1 -86 34.5t-28 90.5h-73q1 -56 18 -100
t57 -69q20 -13 48 -19t63 -6z" />
    <glyph glyph-name="ubreve" unicode="&#x16d;" horiz-adv-x="649" 
d="M71 0zM492 0h81v571h-97v-297q0 -88 -43 -144t-120 -56q-79 0 -112 49t-33 126v322h-97v-346q0 -109 53 -173.5t159 -64.5q76 0 126.5 37.5t72.5 98.5zM320 642q99 0 144.5 54.5t46.5 139.5h-74q-1 -57 -29.5 -90.5t-86.5 -34.5q-60 1 -86 34.5t-28 90.5h-73
q1 -56 18 -100t57 -69q20 -13 48 -19t63 -6z" />
    <glyph glyph-name="Uring" unicode="&#x16e;" horiz-adv-x="692" 
d="M73 0zM347 -15q135 0 204 79t69 245v402h-102v-398q0 -122 -39.5 -178t-131.5 -56t-133 56.5t-41 177.5v398h-100v-402q0 -166 66 -245t208 -79zM346 783q58 0 92.5 33.5t34.5 90.5q0 60 -34.5 92.5t-92.5 32.5q-55 0 -90 -33.5t-35 -91.5t33.5 -91t91.5 -33zM346 850
q-28 0 -42.5 15.5t-14.5 41.5q0 28 16 43.5t41 15.5q26 0 42 -15.5t16 -43.5t-18 -42.5t-40 -14.5z" />
    <glyph glyph-name="uring" unicode="&#x16f;" horiz-adv-x="649" 
d="M71 0zM492 0h81v571h-97v-297q0 -88 -43 -144t-120 -56q-79 0 -112 49t-33 126v322h-97v-346q0 -109 53 -173.5t159 -64.5q76 0 126.5 37.5t72.5 98.5zM320 644q58 0 92.5 33.5t34.5 90.5q0 60 -34.5 92.5t-92.5 32.5q-55 0 -90 -33.5t-35 -91.5t33.5 -91t91.5 -33z
M320 711q-28 0 -42.5 15.5t-14.5 41.5q0 28 16 43.5t41 15.5q26 0 42 -15.5t16 -43.5t-18 -42.5t-40 -14.5z" />
    <glyph glyph-name="Uhungarumlaut" unicode="&#x170;" horiz-adv-x="692" 
d="M73 0zM347 -15q135 0 204 79t69 245v402h-102v-398q0 -122 -39.5 -178t-131.5 -56t-133 56.5t-41 177.5v398h-100v-402q0 -166 66 -245t208 -79zM465 973h-104l-133 -188h73zM638 973h-104l-140 -188h75z" />
    <glyph glyph-name="uhungarumlaut" unicode="&#x171;" horiz-adv-x="649" 
d="M71 0zM492 0h81v571h-97v-297q0 -88 -43 -144t-120 -56q-79 0 -112 49t-33 126v322h-97v-346q0 -109 53 -173.5t159 -64.5q76 0 126.5 37.5t72.5 98.5zM439 834h-104l-133 -188h73zM612 834h-104l-140 -188h75z" />
    <glyph glyph-name="Uogonek" unicode="&#x172;" horiz-adv-x="692" 
d="M409 -227q63 0 105.5 28t65.5 85h-89q-10 -22 -29.5 -35.5t-47.5 -13.5q-30 0 -48 14t-18 37q0 18 10.5 34.5t35.5 35.5q13 9 30.5 20.5t40.5 25.5q77 29 116 104.5t39 200.5v402h-102v-398q0 -122 -39.5 -178t-131.5 -56t-133 56.5t-41 177.5v398h-100v-402
q0 -159 60 -237.5t188 -85.5q-30 -26 -41.5 -52.5t-11.5 -52.5q0 -52 37.5 -80t103.5 -28z" />
    <glyph glyph-name="uogonek" unicode="&#x173;" horiz-adv-x="649" 
d="M680 -123h-89q-10 -22 -29.5 -35.5t-47.5 -13.5q-30 0 -48 14t-18 37q0 18 11 35t38 37q14 10 33 22t43 27v571h-97v-297q0 -88 -43 -144t-120 -56q-79 0 -112 49t-33 126v322h-97v-346q0 -109 53 -173.5t159 -64.5q76 0 126.5 37.5t72.5 98.5l8 -101q-72 -38 -97 -75.5
t-25 -74.5q0 -52 37.5 -80t103.5 -28q63 0 105.5 28t65.5 85z" />
    <glyph glyph-name="Wcircumflex" unicode="&#x174;" horiz-adv-x="990" 
d="M26 0zM675 0h92l196 711h-98l-150 -571l-191 571h-75l-197 -560l-128 560h-98l170 -711h92l198 554zM576 795h88l-139 188h-74l-139 -188h89l88 122z" />
    <glyph glyph-name="wcircumflex" unicode="&#x175;" horiz-adv-x="884" 
d="M20 0zM595 0h87l182 571h-95l-138 -447l-159 447h-66l-172 -448l-118 448h-96l157 -571h89l171 428zM527 656h88l-139 188h-74l-139 -188h89l88 122z" />
    <glyph glyph-name="Ycircumflex" unicode="&#x176;" horiz-adv-x="635" 
d="M19 0zM362 0v280l256 431h-107l-198 -339l-187 339h-107l242 -431v-280h101zM400 788h88l-139 188h-74l-139 -188h89l88 122z" />
    <glyph glyph-name="ycircumflex" unicode="&#x177;" horiz-adv-x="600" 
d="M14 0zM87 -210q57 0 93.5 6.5t62.5 24.5q25 19 46 54.5t46 93.5l257 602h-102l-183 -441l-1 -5l-1 4l-187 442h-104l244 -559l-11 -27q-21 -46 -39.5 -69.5t-45.5 -32.5q-14 -4 -32 -6t-42 -2h-50v-85h49zM391 647h88l-139 188h-74l-139 -188h89l88 122z" />
    <glyph glyph-name="Ydieresis" unicode="&#x178;" horiz-adv-x="635" 
d="M19 0zM362 0v280l256 431h-107l-198 -339l-187 339h-107l242 -431v-280h101zM409 786q31 0 46.5 16t15.5 47q0 34 -15.5 49t-46.5 15t-47 -14.5t-16 -48.5q0 -35 14.5 -49.5t48.5 -14.5zM217 786q32 0 47.5 16t15.5 47q0 34 -15 49t-47 15q-31 0 -47.5 -14.5t-16.5 -48.5
q0 -35 15 -49.5t48 -14.5z" />
    <glyph glyph-name="Zacute" unicode="&#x179;" horiz-adv-x="609" 
d="M37 0zM570 0v92h-407l406 530v89h-504v-88h389l-417 -540v-83h533zM273 796h80l169 200h-108z" />
    <glyph glyph-name="zacute" unicode="&#x17a;" horiz-adv-x="566" 
d="M33 0zM535 0v83h-378l375 411v77h-476v-81h358l-381 -415v-75h502zM254 657h80l169 200h-108z" />
    <glyph glyph-name="Zdotaccent" unicode="&#x17b;" horiz-adv-x="609" 
d="M37 0zM570 0v92h-407l406 530v89h-504v-88h389l-417 -540v-83h533zM312 793q35 0 52.5 16.5t17.5 53.5t-17.5 53.5t-51.5 16.5q-35 0 -53 -16t-18 -54q0 -39 16.5 -54.5t53.5 -15.5z" />
    <glyph glyph-name="zdotaccent" unicode="&#x17c;" horiz-adv-x="566" 
d="M33 0zM535 0v83h-378l375 411v77h-476v-81h358l-381 -415v-75h502zM293 654q35 0 52.5 16.5t17.5 53.5t-17.5 53.5t-51.5 16.5q-35 0 -53 -16t-18 -54q0 -39 16.5 -54.5t53.5 -15.5z" />
    <glyph glyph-name="Zcaron" unicode="&#x17d;" horiz-adv-x="609" 
d="M37 0zM570 0v92h-407l406 530v89h-504v-88h389l-417 -540v-83h533zM346 795l141 186h-89l-87 -118l-85 118h-89l139 -186h70z" />
    <glyph glyph-name="zcaron" unicode="&#x17e;" horiz-adv-x="566" 
d="M33 0zM535 0v83h-378l375 411v77h-476v-81h358l-381 -415v-75h502zM327 656l141 186h-89l-87 -118l-85 118h-89l139 -186h70z" />
    <glyph glyph-name="uni0192" unicode="&#x192;" horiz-adv-x="461" 
d="M274 66v265h155v86h-155v172q0 55 8 82.5t31 36.5q12 5 28.5 7.5t38.5 2.5h48v80h-60q-68 0 -109.5 -18t-59.5 -62q-10 -21 -14.5 -50.5t-4.5 -67.5v-183h-144v-86h144v-254q0 -55 -8 -81.5t-32 -35.5q-11 -4 -28 -6t-40 -2h-55v-90h63q79 0 121 16.5t57 60.5q8 22 12 54
t4 73z" />
    <glyph glyph-name="Aringacute" unicode="&#x1fa;" horiz-adv-x="676" 
d="M299 952h80l169 200h-108zM336 711q-28 0 -42.5 15.5t-14.5 41.5q0 28 16 43.5t41 15.5q26 0 42 -15.5t16 -43.5t-18 -42.5t-40 -14.5zM332 594l3 14l2 -14l121 -325h-243zM185 185h305l69 -185h100l-254 660q27 15 42.5 43t15.5 65q0 60 -34.5 92.5t-92.5 32.5
q-55 0 -90 -33.5t-35 -91.5q0 -38 13.5 -64.5t40.5 -42.5l-247 -661h100z" />
    <glyph glyph-name="aringacute" unicode="&#x1fb;" 
d="M47 0zM264 62q-56 0 -83.5 23.5t-27.5 63.5q0 25 10.5 44t30.5 32q24 16 57.5 25t98.5 19q47 8 82 17.5t54 25.5v-42q0 -36 -16 -72.5t-46 -67.5q-29 -31 -70 -49.5t-90 -18.5zM500 0h79v394q0 88 -56.5 140.5t-189.5 52.5q-81 0 -139.5 -27t-91.5 -75
q-16 -24 -25.5 -51.5t-11.5 -58.5h99q4 60 46.5 97.5t126.5 37.5q80 0 114 -27.5t34 -73.5q0 -40 -40.5 -53.5t-115.5 -24.5q-57 -8 -95 -16t-64 -17q-13 -5 -25 -11t-24 -14q-34 -21 -54 -56t-20 -80q0 -69 47.5 -110.5t139.5 -41.5q95 0 160 45.5t95 111.5zM337 655
q58 0 92.5 33.5t34.5 90.5q0 60 -34.5 92.5t-92.5 32.5q-55 0 -90 -33.5t-35 -91.5t33.5 -91t91.5 -33zM337 722q-28 0 -42.5 15.5t-14.5 41.5q0 28 16 43.5t41 15.5q26 0 42 -15.5t16 -43.5t-18 -42.5t-40 -14.5zM298 962h80l169 200h-108z" />
    <glyph glyph-name="AEacute" unicode="&#x1fc;" horiz-adv-x="997" 
d="M0 0zM418 594l5 14v-14l55 -325h-232zM523 0h438v87h-360l-39 229h324v85h-339l-39 225h437v85h-560l-387 -711h106l98 185h290zM401 796h80l169 200h-108z" />
    <glyph glyph-name="aeacute" unicode="&#x1fd;" horiz-adv-x="1092" 
d="M47 0zM770 508q82 0 127 -48.5t51 -129.5h-370q9 83 59.5 130.5t132.5 47.5zM264 62q-56 0 -84.5 23.5t-28.5 63.5q0 24 10.5 43t31.5 33q23 16 57.5 23.5t99.5 17.5q44 8 78 16.5t54 23.5q-1 -12 -1 -22v-14q0 -36 -15.5 -72.5t-43.5 -67.5q-29 -31 -69 -49.5t-89 -18.5
zM1037 170h-105q-16 -50 -58 -76.5t-104 -26.5q-88 0 -138 49t-55 137h468v46q0 77 -30 142.5t-91 105.5q-30 20 -69 30t-86 10q-76 0 -132.5 -27t-93.5 -77q-22 49 -73 76.5t-137 27.5q-126 0 -193.5 -59.5t-74.5 -152.5h97q5 56 48.5 96t122.5 40q75 0 113.5 -30.5
t38.5 -77.5q0 -26 -19.5 -39t-54.5 -19q-17 -4 -37.5 -7t-44.5 -7q-57 -8 -95 -16t-64 -17q-13 -5 -25 -11t-24 -14q-34 -21 -54 -55t-20 -79q0 -69 48.5 -111.5t146.5 -42.5q63 0 115.5 21t89.5 58q19 18 33 38.5t23 43.5q29 -76 94.5 -118.5t168.5 -42.5q106 0 176 48.5
t95 136.5zM510 639h80l169 200h-108z" />
    <glyph glyph-name="Oslashacute" unicode="&#x1fe;" horiz-adv-x="720" 
d="M54 0zM155 330v41q0 124 52 194t152 70q25 0 46.5 -4.5t40.5 -12.5l-224 -494q-33 33 -50 84.5t-17 121.5zM359 75q-21 0 -40 3t-36 9l222 486q30 -35 45 -85.5t15 -117.5v-40q0 -124 -54 -189.5t-152 -65.5zM359 -15q93 0 162 38t107 114q19 38 28.5 85.5t9.5 104.5v47
q0 101 -31 174t-87 116l59 129h-81l-42 -93q-29 12 -60.5 17.5t-64.5 5.5q-93 0 -161.5 -41t-105.5 -119q-19 -39 -28.5 -86t-9.5 -103v-47q0 -107 32.5 -180.5t91.5 -113.5l-58 -123h82l42 92q27 -9 56 -13t59 -4zM319 809h80l169 200h-108z" />
    <glyph glyph-name="oslashacute" unicode="&#x1ff;" horiz-adv-x="666" 
d="M47 0zM146 278v11q0 103 52.5 158.5t134.5 55.5q16 0 31 -2t28 -7l-178 -385q-34 27 -51 69.5t-17 99.5zM333 72q-14 0 -27.5 1.5t-25.5 4.5l175 380q31 -28 48 -70.5t17 -98.5v-11q0 -97 -49 -151.5t-138 -54.5zM333 -15q85 0 149.5 34.5t100.5 99.5q18 33 27 72t9 85
v13q0 89 -33 153.5t-92 101.5l52 113h-80l-38 -83q-22 6 -45.5 9.5t-49.5 3.5q-82 0 -147 -35t-102 -101q-18 -34 -27.5 -74t-9.5 -88v-13q0 -92 32 -155.5t95 -98.5l-52 -112h81l39 85q21 -5 43.5 -7.5t47.5 -2.5zM292 672h80l169 200h-108z" />
    <glyph glyph-name="uni0218" unicode="&#x218;" horiz-adv-x="629" 
d="M31 0zM323 -15q88 0 147 29.5t89 78.5q15 24 22.5 51t7.5 56q0 58 -21 94t-56 57q-34 21 -77 33t-87 21q-50 11 -94 22t-71 33q-13 11 -20 27.5t-7 38.5q0 46 36 80t111 34q84 0 125.5 -35t45.5 -102h101q-5 102 -71.5 161t-198.5 59q-82 0 -137 -27.5t-83 -72.5
q-13 -23 -20 -47.5t-7 -50.5q0 -56 20.5 -91t54.5 -56q34 -20 76 -31.5t85 -20.5q51 -9 96 -21t73 -36q14 -12 21 -30t7 -41q0 -33 -17.5 -61.5t-54.5 -46.5q-19 -9 -42.5 -13.5t-52.5 -4.5q-97 0 -142 43.5t-47 124.5h-104q3 -80 32.5 -137.5t92.5 -87.5q32 -15 73.5 -22.5
t93.5 -7.5zM267 -326q60 13 90.5 56.5t30.5 102.5q0 46 -15 65.5t-50 19.5q-32 0 -48 -14t-16 -47q0 -35 13 -45.5t40 -10.5h6.5t6.5 1q-4 -30 -19 -49.5t-44 -27.5z" />
    <glyph glyph-name="uni0219" unicode="&#x219;" horiz-adv-x="580" 
d="M28 0zM299 -15q84 0 137.5 25t79.5 67q13 21 19.5 44.5t6.5 49.5q0 47 -19 75.5t-51 45.5q-32 16 -71 24.5t-78 14.5q-45 7 -84.5 14.5t-64.5 23.5q-13 9 -19 21.5t-6 28.5q0 35 28.5 62t101.5 27q69 0 107 -25.5t45 -76.5h99q-11 83 -72.5 132t-177.5 49
q-77 0 -127.5 -23.5t-75.5 -63.5q-12 -19 -18 -40.5t-6 -45.5q0 -46 19.5 -75t51.5 -46q32 -16 71 -24.5t78 -14.5q45 -6 84.5 -14t64.5 -25q12 -8 18 -20.5t6 -29.5q0 -40 -33 -68.5t-112 -28.5q-67 0 -113 29t-55 90h-105q12 -99 81 -150.5t190 -51.5zM244 -326
q60 13 90.5 56.5t30.5 102.5q0 46 -15 65.5t-50 19.5q-32 0 -48 -14t-16 -47q0 -35 13 -45.5t40 -10.5h6.5t6.5 1q-4 -30 -19 -49.5t-44 -27.5z" />
    <glyph glyph-name="uni0237" unicode="&#x237;" horiz-adv-x="251" 
d="M-57 -224h36q79 0 121 16.5t58 60.5q8 22 12 53.5t4 72.5v592h-95v-581q0 -55 -8 -81.5t-32 -34.5q-11 -5 -28.5 -7t-39.5 -2h-28v-89z" />
    <glyph glyph-name="uni0245" unicode="&#x245;" horiz-adv-x="676" 
d="M333 594l2 9l1 -9l223 -594h100l-274 711h-101l-266 -711h101z" />
    <glyph glyph-name="circumflex" unicode="&#x2c6;" horiz-adv-x="549" 
d="M362 656h88l-139 188h-74l-139 -188h89l88 122z" />
    <glyph glyph-name="caron" unicode="&#x2c7;" horiz-adv-x="549" 
d="M308 656l141 186h-89l-87 -118l-85 118h-89l139 -186h70z" />
    <glyph glyph-name="breve" unicode="&#x2d8;" horiz-adv-x="549" 
d="M271 653q99 0 144.5 54.5t46.5 139.5h-74q-1 -57 -29.5 -90.5t-86.5 -34.5q-60 1 -86 34.5t-28 90.5h-73q1 -56 18 -100t57 -69q20 -13 48 -19t63 -6z" />
    <glyph glyph-name="dotaccent" unicode="&#x2d9;" horiz-adv-x="552" 
d="M265 654q35 0 52.5 16.5t17.5 53.5t-17.5 53.5t-51.5 16.5q-35 0 -53 -16t-18 -54q0 -39 16.5 -54.5t53.5 -15.5z" />
    <glyph glyph-name="ring" unicode="&#x2da;" horiz-adv-x="549" 
d="M271 655q58 0 92.5 33.5t34.5 90.5q0 60 -34.5 92.5t-92.5 32.5q-55 0 -90 -33.5t-35 -91.5t33.5 -91t91.5 -33zM271 722q-28 0 -42.5 15.5t-14.5 41.5q0 28 16 43.5t41 15.5q26 0 42 -15.5t16 -43.5t-18 -42.5t-40 -14.5z" />
    <glyph glyph-name="ogonek" unicode="&#x2db;" horiz-adv-x="549" 
d="M267 -236q63 0 105.5 28t65.5 85h-89q-10 -22 -29.5 -35.5t-47.5 -13.5q-30 0 -48 14t-18 37q0 18 11 35t38 37q14 10 33 22t43 27l-60 34q-57 -28 -88.5 -55t-44.5 -53q-6 -14 -9 -27.5t-3 -26.5q0 -52 37.5 -80t103.5 -28z" />
    <glyph glyph-name="tilde" unicode="&#x2dc;" horiz-adv-x="549" 
d="M72 657h68q0 32 11.5 47.5t33.5 15.5q20 0 39 -10t39 -23q19 -13 42.5 -23t52.5 -10q64 0 89.5 37.5t25.5 99.5h-68q0 -34 -11 -49t-36 -15q-19 0 -37.5 10t-38.5 24q-20 13 -44 23t-53 10q-61 0 -87 -37.5t-26 -99.5z" />
    <glyph glyph-name="hungarumlaut" unicode="&#x2dd;" horiz-adv-x="549" 
d="M320 845h-104l-133 -188h73zM493 845h-104l-140 -188h75z" />
    <glyph glyph-name="uni03BC" unicode="&#x3bc;" horiz-adv-x="651" 
d="M302 -13q74 0 119 35t64 93l9 -115h81v571h-97v-297q0 -88 -43 -144t-120 -56q-79 0 -112 49t-33 126v322h-97v-770h94v255q21 -33 54.5 -51t80.5 -18z" />
    <glyph glyph-name="pi" unicode="&#x3c0;" horiz-adv-x="732" 
d="M463 203q0 -82 17 -126t61 -61q21 -8 52 -12t70 -4h33v90h-24q-44 0 -68.5 8.5t-34.5 35.5q-4 13 -6.5 33t-2.5 47v405h146v92h-680v-92h135v-619h98v619h204v-416z" />
    <glyph glyph-name="uni0E3F" unicode="&#xe3f;" horiz-adv-x="684" 
d="M387 -122v122q133 0 196 51.5t63 147.5q0 69 -32 108.5t-94 56.5q56 19 84 59t28 106q0 86 -57 133t-188 49v122h-75v-122h-230v-711h230v-122h75zM312 404h-135v226h135v-226zM536 520q0 -59 -37.5 -87t-111.5 -29v226q80 -1 114.5 -29t34.5 -81zM177 84v240h135v-240
h-135zM547 206q0 -57 -36.5 -88t-123.5 -34v240q80 -2 120 -30.5t40 -87.5z" />
    <glyph glyph-name="Wgrave" unicode="&#x1e80;" horiz-adv-x="990" 
d="M26 0zM675 0h92l196 711h-98l-150 -571l-191 571h-75l-197 -560l-128 560h-98l170 -711h92l198 554zM453 796h79l-135 187h-109z" />
    <glyph glyph-name="wgrave" unicode="&#x1e81;" horiz-adv-x="884" 
d="M20 0zM595 0h87l182 571h-95l-138 -447l-159 447h-66l-172 -448l-118 448h-96l157 -571h89l171 428zM405 657h79l-135 187h-109z" />
    <glyph glyph-name="Wacute" unicode="&#x1e82;" horiz-adv-x="990" 
d="M26 0zM675 0h92l196 711h-98l-150 -571l-191 571h-75l-197 -560l-128 560h-98l170 -711h92l198 554zM448 796h80l169 200h-108z" />
    <glyph glyph-name="wacute" unicode="&#x1e83;" horiz-adv-x="884" 
d="M20 0zM595 0h87l182 571h-95l-138 -447l-159 447h-66l-172 -448l-118 448h-96l157 -571h89l171 428zM400 657h80l169 200h-108z" />
    <glyph glyph-name="Wdieresis" unicode="&#x1e84;" horiz-adv-x="990" 
d="M26 0zM675 0h92l196 711h-98l-150 -571l-191 571h-75l-197 -560l-128 560h-98l170 -711h92l198 554zM584 793q31 0 46.5 16t15.5 47q0 34 -15.5 49t-46.5 15t-47 -14.5t-16 -48.5q0 -35 14.5 -49.5t48.5 -14.5zM392 793q32 0 47.5 16t15.5 47q0 34 -15 49t-47 15
q-31 0 -47.5 -14.5t-16.5 -48.5q0 -35 15 -49.5t48 -14.5z" />
    <glyph glyph-name="wdieresis" unicode="&#x1e85;" horiz-adv-x="884" 
d="M20 0zM595 0h87l182 571h-95l-138 -447l-159 447h-66l-172 -448l-118 448h-96l157 -571h89l171 428zM536 654q31 0 46.5 16t15.5 47q0 34 -15.5 49t-46.5 15t-47 -14.5t-16 -48.5q0 -35 14.5 -49.5t48.5 -14.5zM344 654q32 0 47.5 16t15.5 47q0 34 -15 49t-47 15
q-31 0 -47.5 -14.5t-16.5 -48.5q0 -35 15 -49.5t48 -14.5z" />
    <glyph glyph-name="Ygrave" unicode="&#x1ef2;" horiz-adv-x="635" 
d="M19 0zM362 0v280l256 431h-107l-198 -339l-187 339h-107l242 -431v-280h101zM278 785h79l-135 187h-109z" />
    <glyph glyph-name="ygrave" unicode="&#x1ef3;" horiz-adv-x="600" 
d="M14 0zM87 -210q57 0 93.5 6.5t62.5 24.5q25 19 46 54.5t46 93.5l257 602h-102l-183 -441l-1 -5l-1 4l-187 442h-104l244 -559l-11 -27q-21 -46 -39.5 -69.5t-45.5 -32.5q-14 -4 -32 -6t-42 -2h-50v-85h49zM269 648h79l-135 187h-109z" />
    <glyph glyph-name="figuredash" unicode="&#x2012;" horiz-adv-x="675" 
d="M613 361h-550v-97h550v97z" />
    <glyph glyph-name="endash" unicode="&#x2013;" horiz-adv-x="525" 
d="M463 361h-400v-97h400v97z" />
    <glyph glyph-name="emdash" unicode="&#x2014;" horiz-adv-x="725" 
d="M663 361h-600v-97h600v97z" />
    <glyph glyph-name="uni2015" unicode="&#x2015;" horiz-adv-x="1025" 
d="M963 361h-900v-97h900v97z" />
    <glyph glyph-name="uni2016" unicode="&#x2016;" horiz-adv-x="532" 
d="M445 -96v879h-98v-879h98zM185 -96v879h-97v-879h97z" />
    <glyph glyph-name="underscoredbl" unicode="&#x2017;" horiz-adv-x="640" 
d="M604 71h-568v-71h568v71zM604 -75h-568v-71h568v71z" />
    <glyph glyph-name="quoteleft" unicode="&#x2018;" horiz-adv-x="285" 
d="M146 466q32 0 47 14.5t15 48.5q0 35 -13 46.5t-41 11.5q-4 0 -8.5 -0.5t-8.5 -1.5q3 36 19 58.5t46 32.5l-12 42q-57 -16 -84 -57t-27 -105q0 -50 15.5 -70t51.5 -20z" />
    <glyph glyph-name="quoteright" unicode="&#x2019;" horiz-adv-x="285" 
d="M97 468q56 16 84 56t28 105q0 50 -15.5 70t-51.5 20q-32 0 -47 -14t-15 -48q0 -36 13 -47.5t41 -11.5q5 0 8.5 0.5t7.5 1.5q-3 -35 -19 -57.5t-46 -32.5z" />
    <glyph glyph-name="quotesinglbase" unicode="&#x201a;" horiz-adv-x="300" 
d="M97 -132q58 13 88 55.5t30 106.5q0 50 -15.5 69.5t-50.5 19.5q-32 0 -47.5 -14.5t-15.5 -48.5q0 -35 13.5 -46.5t41.5 -11.5q4 0 7.5 0.5t7.5 1.5q-4 -37 -21.5 -59t-48.5 -30z" />
    <glyph glyph-name="uni201B" unicode="&#x201b;" horiz-adv-x="285" 
d="M200 510q-30 10 -46 32.5t-19 57.5q4 -1 8 -1.5t8 -0.5q28 0 41.5 12.5t13.5 47.5q0 34 -15 47.5t-47 13.5q-34 0 -51 -22.5t-17 -67.5q0 -65 28 -105t84 -56z" />
    <glyph glyph-name="quotedblleft" unicode="&#x201c;" horiz-adv-x="473" 
d="M334 466q32 0 47 14.5t15 48.5q0 35 -13 46.5t-41 11.5q-4 0 -8 -0.5t-8 -1.5q2 36 18 58.5t46 32.5l-12 42q-57 -16 -84 -57t-27 -105q0 -50 15.5 -70t51.5 -20zM146 466q32 0 47 14.5t15 48.5q0 35 -13 46.5t-41 11.5q-4 0 -8.5 -0.5t-8.5 -1.5q3 36 19 58.5t46 32.5
l-12 42q-57 -16 -84 -57t-27 -105q0 -50 15.5 -70t51.5 -20z" />
    <glyph glyph-name="quotedblright" unicode="&#x201d;" horiz-adv-x="473" 
d="M97 468q57 16 84 56.5t27 104.5q0 50 -16 70t-51 20q-32 0 -47.5 -14t-15.5 -48q0 -36 13.5 -47.5t41.5 -11.5q5 0 8.5 0.5t7.5 1.5q-3 -35 -19 -57.5t-45 -32.5zM285 468q57 16 84 56.5t27 104.5q0 50 -15.5 70t-50.5 20q-33 0 -48 -14t-15 -48q0 -36 13.5 -47.5
t41.5 -11.5q4 0 8 0.5t8 1.5q-3 -35 -19 -57.5t-46 -32.5z" />
    <glyph glyph-name="quotedblbase" unicode="&#x201e;" horiz-adv-x="488" 
d="M90 -132q59 13 88 55.5t29 106.5q0 50 -15.5 69.5t-50.5 19.5q-32 0 -47.5 -14.5t-15.5 -48.5q0 -35 13.5 -46.5t41.5 -11.5q4 0 7.5 0.5t7.5 1.5q-2 -36 -20.5 -59t-48.5 -30zM294 -132q59 13 88 55.5t29 106.5q0 50 -15.5 69.5t-50.5 19.5q-32 0 -47.5 -14.5
t-15.5 -48.5q0 -35 13.5 -46.5t41.5 -11.5q4 0 7.5 0.5t7.5 1.5q-3 -37 -20.5 -59t-48.5 -30z" />
    <glyph glyph-name="uni201F" unicode="&#x201f;" horiz-adv-x="486" 
d="M400 510q-29 10 -45.5 32.5t-19.5 57.5q4 -1 8 -1.5t8 -0.5q28 0 41.5 12t13.5 48q0 34 -15 47.5t-47 13.5q-35 0 -51 -22t-16 -68q0 -64 26.5 -104.5t84.5 -56.5zM198 510q-30 10 -46 32.5t-19 57.5q4 -1 8 -1.5t8 -0.5q28 0 41.5 12t13.5 48q0 34 -15 47.5t-47 13.5
q-35 0 -51 -22t-16 -68q0 -64 27 -104.5t84 -56.5z" />
    <glyph glyph-name="dagger" unicode="&#x2020;" horiz-adv-x="551" 
d="M491 474v93h-168v190h-97v-190h-166v-93h166v-516h97v516h168z" />
    <glyph glyph-name="daggerdbl" unicode="&#x2021;" horiz-adv-x="551" 
d="M491 153v93h-169v228h169v93h-169v190h-96v-190h-166v-93h166v-228h-166v-93h166v-195h96v195h169z" />
    <glyph glyph-name="bullet" unicode="&#x2022;" horiz-adv-x="325" 
d="M162 204q43 0 64.5 20t21.5 65q0 47 -21.5 66t-64.5 19q-42 0 -63.5 -19.5t-21.5 -65.5t19.5 -65.5t65.5 -19.5z" />
    <glyph glyph-name="ellipsis" unicode="&#x2026;" horiz-adv-x="752" 
d="M607 -9q34 0 49 14.5t15 53.5t-14.5 53.5t-49.5 14.5t-50.5 -14.5t-15.5 -53.5q0 -40 15.5 -54t50.5 -14zM377 -9q35 0 50 14.5t15 53.5t-15 53.5t-50 14.5q-34 0 -49.5 -14.5t-15.5 -53.5q0 -40 15.5 -54t49.5 -14zM147 -9q34 0 49 14.5t15 53.5t-14.5 53.5t-49.5 14.5
t-50.5 -14.5t-15.5 -53.5q0 -40 15.5 -54t50.5 -14z" />
    <glyph glyph-name="perthousand" unicode="&#x2030;" horiz-adv-x="1112" 
d="M182 432q67 0 107 37.5t40 101.5v6q0 68 -40.5 106t-105.5 38q-61 0 -104 -37t-43 -107v-6q0 -66 39 -102.5t107 -36.5zM37 0h114q13 17 45.5 59t77.5 101q46 59 97.5 126.5t103.5 134.5q52 68 97.5 127t79.5 102q16 22 28 37t19 24h-109l-45.5 -59.5t-78.5 -101.5
t-98 -126.5t-105 -134.5q-52 -68 -98 -127t-80 -102q-17 -21 -29 -36t-19 -24zM182 497q-34 0 -54.5 20.5t-20.5 56.5v3q0 39 22.5 59t53.5 20q32 0 54 -20.5t22 -58.5v-3q0 -34 -20.5 -55.5t-56.5 -21.5zM925 -12q68 0 107.5 37t39.5 101v7q0 68 -40.5 105.5t-105.5 37.5
q-61 0 -104 -36.5t-43 -106.5v-7q0 -66 39.5 -102t106.5 -36zM552 -12q68 0 107.5 37t39.5 101v7q0 68 -40.5 105.5t-105.5 37.5q-61 0 -103.5 -36.5t-42.5 -106.5v-7q0 -66 39 -102t106 -36zM926 52q-35 0 -55.5 21t-20.5 56v4q0 39 22.5 59t53.5 20q33 0 54.5 -21
t21.5 -58v-4q0 -34 -20.5 -55.5t-55.5 -21.5zM553 52q-35 0 -55.5 21t-20.5 56v4q0 39 22.5 59t53.5 20q33 0 54.5 -21t21.5 -58v-4q0 -34 -20 -55.5t-56 -21.5z" />
    <glyph glyph-name="uni2032" unicode="&#x2032;" horiz-adv-x="171" 
d="M86 509l65 202h-92l-38 -202h65z" />
    <glyph glyph-name="uni2033" unicode="&#x2033;" horiz-adv-x="309" 
d="M225 509l66 202h-92l-38 -202h64zM85 509l66 202h-92l-38 -202h64z" />
    <glyph glyph-name="uni2034" unicode="&#x2034;" horiz-adv-x="539" 
d="M392 711v-40q0 -40 2.5 -82t5.5 -75q2 -17 3.5 -28.5t3.5 -18.5h63q4 14 7 47t6 75q1 21 1.5 41.5t0.5 40.5v40h-93zM223 711v-40q0 -40 2 -82t6 -75q1 -17 3 -28.5t4 -18.5h63q3 14 6.5 47t6.5 75q1 21 1.5 41.5t0.5 40.5v40h-93zM54 711v-40q0 -40 2 -82t5 -75
q2 -17 3.5 -28.5t3.5 -18.5h63q4 14 7 47t6 75q1 21 1.5 41.5t0.5 40.5v40h-92z" />
    <glyph glyph-name="guilsinglleft" unicode="&#x2039;" horiz-adv-x="396" 
d="M342 94l-176 211l164 213h-94l-160 -209v-15l167 -200h99z" />
    <glyph glyph-name="guilsinglright" unicode="&#x203a;" horiz-adv-x="396" 
d="M152 94l167 200v15l-159 209h-94l163 -213l-175 -211h98z" />
    <glyph glyph-name="exclamdbl" unicode="&#x203c;" horiz-adv-x="576" 
d="M367 714v-180q0 -84 3.5 -158t7.5 -124q2 -25 4 -41t3 -23q5 2 13.5 2.5t20.5 0.5q11 0 19.5 -0.5t14.5 -2.5q3 14 7 64t8 124q1 37 2 77t1 82v179h-104zM106 714v-180q0 -84 3.5 -158t7.5 -124q2 -25 4 -41t3 -23q5 2 13.5 2.5t20.5 0.5q11 0 19.5 -0.5t14.5 -2.5
q3 14 7 64t8 124q1 37 2 77t1 82v179h-104zM418 -11q35 0 53 17t18 55q0 39 -18 55.5t-53 16.5q-36 0 -54 -16.5t-18 -55.5q0 -40 17 -56t55 -16zM157 -11q35 0 53 17t18 55q0 39 -18 55.5t-53 16.5q-36 0 -54 -16.5t-18 -55.5q0 -40 17 -56t55 -16z" />
    <glyph glyph-name="uni203D" unicode="&#x203d;" horiz-adv-x="678" 
d="M369 183l1 47q1 33 18.5 52.5t43.5 32.5q27 14 56.5 27.5t55.5 34.5q26 20 42.5 54t16.5 87q0 55 -27 101t-85 75q-28 14 -65 21t-82 7q-137 0 -203.5 -61.5t-66.5 -174.5v-20h97v15q0 66 28 106t92 50v-103q0 -75 0.5 -143.5t1.5 -118.5q1 -34 2.5 -57t2.5 -32q5 1 15 2
t20 1t20 -1t16 -2zM376 535v104q70 -7 100.5 -43t30.5 -84q0 -35 -13 -57t-34 -36q-21 -15 -44.5 -27t-44.5 -27q2 36 3.5 78t1.5 92zM334 -11q35 0 53 17t18 55q0 39 -18 55.5t-53 16.5t-53 -16.5t-18 -55.5q0 -40 17 -56t54 -16z" />
    <glyph glyph-name="fraction" unicode="&#x2044;" horiz-adv-x="853" 
d="M497 401l290 267l-97 75l-225 -317zM384 338l-302 -281l99 -81l232 337z" />
    <glyph glyph-name="uni2070" unicode="&#x2070;" horiz-adv-x="363" 
d="M34 347zM181 347q71 0 109.5 43.5t38.5 128.5v25q0 84 -40 128.5t-108 44.5q-70 0 -108.5 -45t-38.5 -129v-24q0 -86 37 -129t110 -43zM181 416q-38 0 -55 27t-17 76v24q0 49 17 77t55 28q37 0 55 -28t18 -77v-23q0 -49 -18.5 -76.5t-54.5 -27.5z" />
    <glyph glyph-name="uni2074" unicode="&#x2074;" horiz-adv-x="339" 
d="M16 355zM204 614l4 5l-1 -7v-126h-111zM327 431v55h-58v225h-60l-193 -230v-50h191v-76h62v76h58z" />
    <glyph glyph-name="uni2075" unicode="&#x2075;" horiz-adv-x="348" 
d="M33 348zM177 348q73 0 109.5 35t36.5 97q0 58 -33.5 86.5t-86.5 28.5q-34 0 -57.5 -10.5t-39.5 -27.5l13 90h115q37 0 51 15t14 49h-234l-22 -195l61 -17l2 3q12 15 30 27t46 12q32 0 52.5 -14t20.5 -49q0 -33 -19.5 -52.5t-57.5 -19.5q-35 0 -52 16t-17 43v2h-76v-1
q1 -56 34 -87t110 -31z" />
    <glyph glyph-name="uni2076" unicode="&#x2076;" horiz-adv-x="361" 
d="M34 347zM327 470q0 56 -33 82t-94 26q-35 0 -59.5 -13.5t-39.5 -40.5v18q0 58 21.5 87t63.5 29q27 0 41.5 -11.5t18.5 -30.5h74q-5 49 -40.5 75t-95.5 26q-73 0 -111.5 -45t-38.5 -129v-24q0 -86 38.5 -129t115.5 -43q65 0 102 34.5t37 88.5zM188 408q-35 0 -55.5 18
t-27.5 53q7 23 28.5 36t55.5 13q32 0 51.5 -13.5t19.5 -44.5q0 -28 -17.5 -45t-54.5 -17z" />
    <glyph glyph-name="uni2077" unicode="&#x2077;" horiz-adv-x="301" 
d="M18 355zM141 355q12 54 35 108.5t52 103.5q14 25 28.5 46.5t28.5 40.5v57h-267v-64h195q-26 -32 -56 -79.5t-56 -102.5q-13 -28 -23 -55t-17 -55h80z" />
    <glyph glyph-name="uni2078" unicode="&#x2078;" horiz-adv-x="356" 
d="M31 348zM176 348q73 0 111.5 26t38.5 76q0 35 -18.5 56.5t-47.5 31.5q26 8 42 27.5t16 49.5q0 49 -38 75.5t-101 26.5t-100 -27t-37 -75q0 -30 14 -49.5t41 -28.5q-29 -10 -47.5 -32.5t-18.5 -54.5q0 -51 35.5 -76.5t109.5 -25.5zM169 560q-28 0 -44 13t-16 36
q0 25 19 39t51 14q35 0 53 -14t18 -38q0 -25 -17 -37.5t-46 -12.5h-18zM178 404q-38 0 -57.5 14t-19.5 39q0 23 17 38.5t50 15.5h19q35 0 52.5 -13.5t17.5 -40.5q0 -25 -20.5 -39t-58.5 -14z" />
    <glyph glyph-name="uni2079" unicode="&#x2079;" horiz-adv-x="352" 
d="M29 347zM167 536q-31 0 -51 13.5t-20 44.5q0 29 18.5 45.5t54.5 16.5q33 0 53.5 -16.5t28.5 -49.5q-7 -25 -27.5 -39.5t-56.5 -14.5zM172 347q76 0 113 45t37 129v24q0 87 -41 129.5t-115 42.5q-67 0 -102 -35t-35 -88q0 -55 33 -81.5t94 -26.5q36 0 60.5 15t38.5 44v-23
q0 -58 -21 -87t-64 -29q-28 0 -43 13t-19 34h-75q6 -52 42 -79t97 -27z" />
    <glyph glyph-name="uni207A" unicode="&#x207a;" horiz-adv-x="351" 
d="M46 398zM302 497v58h-99v95h-60v-95h-97v-58h97v-99h60v99h99z" />
    <glyph glyph-name="uni207B" unicode="&#x207b;" horiz-adv-x="351" 
d="M46 495zM302 495v62h-256v-62h256z" />
    <glyph glyph-name="uni207C" unicode="&#x207c;" horiz-adv-x="351" 
d="M49 431zM299 562v60h-250v-60h250zM299 431v59h-250v-59h250z" />
    <glyph glyph-name="uni207D" unicode="&#x207d;" horiz-adv-x="258" 
d="M50 248zM50 507q0 -128 54.5 -191t140.5 -68v71q-56 5 -92 49.5t-36 144.5v23q0 101 35 148t93 53v67q-85 -7 -140 -72.5t-55 -192.5v-32z" />
    <glyph glyph-name="uni207E" unicode="&#x207e;" horiz-adv-x="258" 
d="M13 248zM13 248q86 5 140.5 68t54.5 191v32q0 127 -54.5 192.5t-140.5 72.5v-68q59 -6 93.5 -52.5t34.5 -147.5v-23q0 -100 -36 -145t-92 -50v-70z" />
    <glyph glyph-name="uni2080" unicode="&#x2080;" horiz-adv-x="363" 
d="M181 -8q71 0 109.5 43.5t38.5 128.5v25q0 84 -40 128.5t-108 44.5q-70 0 -108.5 -45t-38.5 -129v-24q0 -86 37 -129t110 -43zM181 61q-38 0 -55 27t-17 76v24q0 49 17 77t55 28q37 0 55 -28t18 -77v-23q0 -49 -18.5 -76.5t-54.5 -27.5z" />
    <glyph glyph-name="uni2081" unicode="&#x2081;" horiz-adv-x="254" 
d="M236 0v64h-71v292h-56q-5 -29 -22.5 -46.5t-49.5 -19.5v-55h63v-171h-77v-64h213z" />
    <glyph glyph-name="uni2082" unicode="&#x2082;" horiz-adv-x="334" 
d="M307 0v62h-197q9 21 31 36t50 28q28 14 54 30t43 40q8 12 12.5 27t4.5 33q0 47 -32.5 76.5t-101.5 29.5q-65 0 -101.5 -32.5t-36.5 -92.5v-14h71v12q0 32 15.5 50t50.5 18t48.5 -12.5t13.5 -35.5q0 -27 -20.5 -44.5t-50.5 -32.5t-60.5 -32t-50.5 -43q-11 -13 -16 -30
t-5 -37v-36h278z" />
    <glyph glyph-name="uni2083" unicode="&#x2083;" horiz-adv-x="345" 
d="M171 -7q68 0 105.5 29.5t37.5 76.5q0 34 -15.5 54.5t-42.5 29.5q26 10 38.5 29.5t12.5 49.5q0 44 -34.5 72t-99.5 28q-67 0 -103 -32t-36 -85v-6h72v4q0 26 16 42t50 16q33 0 48.5 -12t15.5 -32q0 -23 -12 -36t-41 -13h-49v-57h49q29 0 43.5 -11.5t14.5 -35.5
q0 -25 -17.5 -37.5t-53.5 -12.5q-38 0 -54 16t-16 44v7h-73v-9q0 -61 34.5 -90t109.5 -29z" />
    <glyph glyph-name="uni2084" unicode="&#x2084;" horiz-adv-x="339" 
d="M204 259l4 5l-1 -7v-126h-111zM327 76v55h-58v225h-60l-193 -230v-50h191v-76h62v76h58z" />
    <glyph glyph-name="uni2085" unicode="&#x2085;" horiz-adv-x="348" 
d="M177 -7q73 0 109.5 35t36.5 97q0 58 -33.5 86.5t-86.5 28.5q-34 0 -57.5 -10.5t-39.5 -27.5l13 90h115q37 0 51 15t14 49h-234l-22 -195l61 -17l2 3q12 15 30 27t46 12q32 0 52.5 -14t20.5 -49q0 -33 -19.5 -52.5t-57.5 -19.5q-35 0 -52 16t-17 43v2h-76v-1q1 -56 34 -87
t110 -31z" />
    <glyph glyph-name="uni2086" unicode="&#x2086;" horiz-adv-x="361" 
d="M327 115q0 56 -33 82t-94 26q-35 0 -59.5 -13.5t-39.5 -40.5v18q0 58 21.5 87t63.5 29q27 0 41.5 -11.5t18.5 -30.5h74q-5 49 -40.5 75t-95.5 26q-73 0 -111.5 -45t-38.5 -129v-24q0 -86 38.5 -129t115.5 -43q65 0 102 34.5t37 88.5zM188 53q-35 0 -55.5 18t-27.5 53
q7 23 28.5 36t55.5 13q32 0 51.5 -13.5t19.5 -44.5q0 -28 -17.5 -45t-54.5 -17z" />
    <glyph glyph-name="uni2087" unicode="&#x2087;" horiz-adv-x="301" 
d="M141 0q12 54 35 108.5t52 103.5q14 25 28.5 46.5t28.5 40.5v57h-267v-64h195q-26 -32 -56 -79.5t-56 -102.5q-13 -28 -23 -55t-17 -55h80z" />
    <glyph glyph-name="uni2088" unicode="&#x2088;" horiz-adv-x="356" 
d="M176 -7q73 0 111.5 26t38.5 76q0 35 -18.5 56.5t-47.5 31.5q26 8 42 27.5t16 49.5q0 49 -38 75.5t-101 26.5t-100 -27t-37 -75q0 -30 14 -49.5t41 -28.5q-29 -10 -47.5 -32.5t-18.5 -54.5q0 -51 35.5 -76.5t109.5 -25.5zM169 205q-28 0 -44 13t-16 36q0 25 19 39t51 14
q35 0 53 -14t18 -38q0 -25 -17 -37.5t-46 -12.5h-18zM178 49q-38 0 -57.5 14t-19.5 39q0 23 17 38.5t50 15.5h19q35 0 52.5 -13.5t17.5 -40.5q0 -25 -20.5 -39t-58.5 -14z" />
    <glyph glyph-name="uni2089" unicode="&#x2089;" horiz-adv-x="352" 
d="M167 181q-31 0 -51 13.5t-20 44.5q0 29 18.5 45.5t54.5 16.5q33 0 53.5 -16.5t28.5 -49.5q-7 -25 -27.5 -39.5t-56.5 -14.5zM172 -8q76 0 113 45t37 129v24q0 87 -41 129.5t-115 42.5q-67 0 -102 -35t-35 -88q0 -55 33 -81.5t94 -26.5q36 0 60.5 15t38.5 44v-23
q0 -58 -21 -87t-64 -29q-28 0 -43 13t-19 34h-75q6 -52 42 -79t97 -27z" />
    <glyph glyph-name="uni208A" unicode="&#x208a;" horiz-adv-x="351" 
d="M302 142v58h-99v95h-60v-95h-97v-58h97v-99h60v99h99z" />
    <glyph glyph-name="uni208B" unicode="&#x208b;" horiz-adv-x="351" 
d="M302 140v62h-256v-62h256z" />
    <glyph glyph-name="uni208C" unicode="&#x208c;" horiz-adv-x="351" 
d="M299 207v60h-250v-60h250zM299 76v59h-250v-59h250z" />
    <glyph glyph-name="uni208D" unicode="&#x208d;" horiz-adv-x="258" 
d="M50 152q0 -128 54.5 -191t140.5 -68v71q-56 5 -92 49.5t-36 144.5v23q0 101 35 148t93 53v67q-85 -7 -140 -72.5t-55 -192.5v-32z" />
    <glyph glyph-name="uni208E" unicode="&#x208e;" horiz-adv-x="258" 
d="M13 -107q86 5 140.5 68t54.5 191v32q0 127 -54.5 192.5t-140.5 72.5v-68q59 -6 93.5 -52.5t34.5 -147.5v-23q0 -100 -36 -145t-92 -50v-70z" />
    <glyph glyph-name="uni20A1" unicode="&#x20a1;" horiz-adv-x="707" 
d="M319 79q-19 3 -36.5 9.5t-33.5 15.5l140 533q21 -2 39 -6t33 -10zM151 329v43q0 116 45.5 183.5t131.5 79.5l-127 -488q-25 33 -37.5 78.5t-12.5 103.5zM269 -112h60l25 97h8q142 0 216 73t87 198h-99q-9 -79 -55 -128t-133 -53l134 511q21 -22 33.5 -52t17.5 -68h97
q-9 77 -40.5 131.5t-84.5 85.5l35 133h-60l-29 -110q-17 6 -35 10t-38 5l25 95h-60l-24 -93q-139 -5 -217 -95t-78 -251v-52q0 -102 30 -174t87 -113l-39 -150h60l32 121q17 -7 34.5 -11.5t36.5 -7.5z" />
    <glyph glyph-name="uni20A2" unicode="&#x20a2;" horiz-adv-x="707" 
d="M662 237h-99q-11 -69 -51.5 -112t-113.5 -51v107q0 54 11 85t39 44q15 6 35.5 9.5t47.5 3.5h54v91h-43q-59 0 -97 -24t-52 -78l-11 99h-72v-334q-78 16 -117 78.5t-39 172.5v44q0 128 55.5 195.5t156.5 67.5q81 0 129 -37.5t61 -108.5h100q-19 116 -93.5 175t-196.5 59
q-146 0 -229 -89.5t-83 -256.5v-52q0 -168 80 -254t228 -86q136 0 210 67t90 185z" />
    <glyph glyph-name="franc" unicode="&#x20a3;" horiz-adv-x="588" 
d="M512 181v88h-335v100h335v88h-335v166h375v88h-470v-711h95v181h335z" />
    <glyph glyph-name="lira" unicode="&#x20a4;" horiz-adv-x="685" 
d="M151 47q-26 0 -40.5 11t-14.5 28t12 28t36 11q20 0 42.5 -8.5t45.5 -22.5q-13 -23 -33.5 -35t-47.5 -12zM487 -13q90 0 129.5 43t39.5 138v25h-104v-12q0 -58 -19.5 -85t-69.5 -27q-37 0 -74.5 17t-75.5 37q5 17 7.5 36t2.5 39q0 15 -1.5 29.5t-4.5 28.5h135v63h-153
q-7 19 -14 37l-14 36h181v64h-205q-6 20 -9.5 39.5t-3.5 39.5q0 53 30 82t85 29q53 0 82 -28t34 -71h106q-12 89 -70 138t-154 49q-100 0 -155.5 -53.5t-55.5 -146.5q0 -20 3.5 -39.5t8.5 -38.5h-84v-64h110q9 -19 18.5 -37t18.5 -36h-147v-63h175q6 -17 9.5 -35t3.5 -37
v-14t-1 -14q-27 13 -54.5 21t-55.5 8q-55 0 -87 -28t-32 -72q0 -46 29.5 -72.5t96.5 -26.5q45 0 80 20.5t57 54.5q44 -27 94 -50.5t108 -23.5z" />
    <glyph glyph-name="uni20A6" unicode="&#x20a6;" horiz-adv-x="808" 
d="M214 557l-4 56l18 -41l60 -95h-74v80zM395 308h-181v105h115zM608 308h-118l-66 105h184v-105zM590 0h107v244h87v64h-87v105h87v64h-87v234h-89v-234h-224l-148 234h-111v-234h-103v-64h103v-105h-103v-64h103v-244h89v244h222zM590 150l-59 94h77v-78l4 -65z" />
    <glyph glyph-name="peseta" unicode="&#x20a7;" horiz-adv-x="1599" 
d="M333 627q91 0 135 -42.5t44 -110.5q0 -76 -45.5 -116t-128.5 -40h-160v309h155zM339 234q133 -1 199.5 61t70.5 167h127v-168q0 -80 14.5 -136t53.5 -91t110 -51t185 -16h121q101 0 166.5 13.5t102.5 38.5q37 24 52 57.5t15 73.5q0 56 -28 85.5t-72 42.5q-22 7 -44.5 12
t-46.5 8q-48 7 -92 14t-72 24q-14 8 -21 21.5t-7 31.5q0 22 11 41.5t39 32.5q13 6 32.5 9t43.5 3q69 0 104.5 -25.5t42.5 -73.5h99q-11 80 -69.5 129t-175.5 49q-78 0 -127 -23.5t-73 -62.5q-11 -19 -17 -40.5t-6 -44.5q0 -58 27.5 -89t70.5 -45q22 -7 44.5 -12t46.5 -8
q47 -6 90.5 -11.5t70.5 -20.5q14 -7 21 -19t7 -29q0 -21 -9 -39t-35 -31t-75 -20.5t-130 -7.5h-96q-89 0 -144.5 10.5t-85.5 35.5t-41.5 67t-11.5 105v160h168v86h-168v162h-74q0 -10 -1.5 -34.5t-3.5 -47.5q-1 -12 -2 -20t-2 -12q-5 -27 -13.5 -36.5t-33.5 -12.5
q-6 -1 -23 -2t-37 -2h-19h-17q-19 77 -85.5 122.5t-182.5 45.5h-251v-711h96v234h161z" />
    <glyph glyph-name="uni20A8" unicode="&#x20a8;" horiz-adv-x="1259" 
d="M957 -18q91 0 146.5 24.5t80.5 66.5q13 21 19.5 45t6.5 51q0 49 -21 79t-55 47q-34 16 -75 24.5t-82 13.5q-41 6 -75 14.5t-55 24.5q-11 8 -16 20t-5 27q0 35 27.5 62t99.5 27q65 0 101.5 -25.5t44.5 -76.5h99q-11 83 -70.5 132t-173.5 49q-76 0 -126 -23.5t-74 -63.5
q-12 -19 -18 -40.5t-6 -45.5q0 -49 21 -79t55 -46q34 -17 75 -25t82 -14t75 -14t55 -25q11 -8 16 -20t5 -27q0 -43 -35.5 -71t-123.5 -28q-63 0 -110 14.5t-86 40.5q-19 13 -37.5 28.5t-37.5 32.5q-4 3 -14 13t-14 13q-44 42 -85.5 70.5t-94.5 41.5q71 18 108 63.5t37 119.5
q0 97 -62 153t-202 56h-275v-711h97v276h137q64 0 109 -16t84 -46q20 -15 41 -33t43 -39q4 -3 13.5 -12.5l12.5 -12.5q42 -39 88 -69.5t106 -48.5q30 -8 66 -12.5t78 -4.5zM352 361h-173v265h176q88 0 127.5 -34t39.5 -96q0 -68 -45 -102t-125 -33z" />
    <glyph glyph-name="uni20A9" unicode="&#x20a9;" horiz-adv-x="1043" 
d="M512 566l2 9l2 -9l33 -95h-71zM346 322h-115l-20 85h165zM601 322h-177l31 85h116zM799 322h-121l-29 85h173zM277 127l-31 131h77zM713 0h85l70 258h156v64h-138l23 85h115v64h-97l65 240h-90l-63 -240h-212l-82 240h-61l-85 -240h-203l-56 240h-91l58 -240h-90v-64h106
l21 -85h-127v-64h142l63 -258h87l93 258h221zM745 124l-46 134h84l-36 -135l-1 -5z" />
    <glyph glyph-name="uni20AA" unicode="&#x20aa;" horiz-adv-x="811" 
d="M291 627q69 0 105.5 -25t49.5 -73q7 -24 10.5 -53.5t3.5 -64.5v-223q37 0 56.5 10.5t27.5 36.5q3 13 5 31.5t2 42.5v109q0 146 -57.5 219.5t-198.5 73.5h-221v-711h90v627h127zM489 0q133 0 193.5 77.5t60.5 220.5v416h-92v-410q0 -116 -41 -167.5t-124 -51.5h-129v312
q0 53 -6 80.5t-25 37.5q-10 5 -24.5 7.5t-34.5 2.5v-525h222z" />
    <glyph glyph-name="Euro" unicode="&#x20ac;" horiz-adv-x="704" 
d="M680 205h-106q-17 -60 -56.5 -95.5t-116.5 -35.5q-81 0 -127 39.5t-62 118.5h226l31 68h-264q-1 8 -1 15.5v14.5v42v18t1 17h304l31 68h-326q17 77 62 118t124 41q73 0 110 -28.5t53 -84.5h106q-21 96 -89.5 149t-175.5 53q-122 0 -194.5 -64.5t-92.5 -183.5h-93v-68h86
q-1 -7 -1 -15v-16v-76h-85v-68h91q19 -123 90.5 -185t195.5 -62q110 0 183 57t96 163z" />
    <glyph glyph-name="uni20AE" unicode="&#x20ae;" horiz-adv-x="585" 
d="M478 310v65l-140 -60v97l140 60v64l-140 -59v147h224v87h-538v-87h215v-189l-139 -59v-65l139 59v-97l-139 -59v-65l139 59v-208h99v250z" />
    <glyph glyph-name="uni20B1" unicode="&#x20b1;" horiz-adv-x="710" 
d="M331 628q65 0 107.5 -22.5t62.5 -59.5h-295v82h125zM521 464v-40v-12t-1 -11h-314v86h314q1 -5 1 -11v-12zM336 255h-130v87h297q-20 -40 -62.5 -63.5t-104.5 -23.5zM335 174q115 -1 180.5 45.5t86.5 122.5h93v59h-84q1 5 1 11v12v40v12t-1 11h84v59h-94
q-22 74 -89 119.5t-183 45.5h-218v-165h-92v-59h92v-86h-92v-59h92v-342h95v174h129z" />
    <glyph glyph-name="uni2105" unicode="&#x2105;" horiz-adv-x="739" 
d="M37 0h114q13 17 45.5 59t77.5 101q46 59 97.5 126.5t103.5 134.5q52 68 97.5 127t79.5 102q16 22 28 37t19 24h-109l-45.5 -59.5t-78.5 -101.5t-98 -126.5t-105 -134.5q-52 -68 -98 -127t-80 -102q-17 -21 -29 -36t-19 -24zM328 546h-79q-4 -22 -21.5 -35.5t-45.5 -13.5
q-34 0 -54.5 20.5t-20.5 56.5v3q0 39 22.5 59t53.5 20q27 0 43 -12t22 -37h79q-8 54 -46.5 84t-97.5 30q-62 0 -104.5 -37t-42.5 -107v-6q0 -66 38.5 -102.5t107.5 -36.5q61 0 100 30t46 84zM552 -12q68 0 107.5 37t39.5 101v7q0 68 -40 105.5t-106 37.5q-61 0 -103.5 -36.5
t-42.5 -106.5v-7q0 -66 38.5 -102t106.5 -36zM553 52q-35 0 -55.5 21t-20.5 56v4q0 39 22.5 59t53.5 20q33 0 54.5 -21t21.5 -58v-4q0 -34 -20 -55.5t-56 -21.5z" />
    <glyph glyph-name="uni2116" unicode="&#x2116;" horiz-adv-x="1215" 
d="M966 307q89 0 144 53.5t55 148.5v9q0 66 -25.5 112.5t-70.5 70.5q-23 13 -48.5 19t-54.5 6q-57 0 -102 -24.5t-71 -70.5q-13 -23 -19.5 -51.5t-6.5 -61.5v-9q0 -95 51.5 -148.5t147.5 -53.5zM966 386q-54 0 -81.5 33t-27.5 92v7q0 63 29.5 96.5t79.5 33.5
q51 0 80.5 -34.5t29.5 -95.5v-7q0 -59 -28 -92t-82 -33zM175 550l-1 10l4 -8l386 -552h89v711h-92v-539l2 -19l-9 17l-378 541h-94v-711h93v550zM1152 214h-370v-81h370v81z" />
    <glyph glyph-name="uni2117" unicode="&#x2117;" horiz-adv-x="808" 
d="M404 -15q99 0 179 40.5t127 118.5q23 39 35 87t12 104v31q0 112 -47.5 192t-128.5 122q-40 22 -84.5 32.5t-93.5 10.5q-100 0 -179.5 -43.5t-126.5 -124.5q-23 -40 -34.5 -88t-11.5 -103v-29q0 -118 46 -196t125 -116q40 -19 85.5 -28.5t96.5 -9.5zM404 54q-85 0 -149 33
t-99 97q-17 32 -26 71.5t-9 85.5v16q0 92 35.5 158.5t99.5 101.5q32 18 68.5 27t78.5 9q83 0 147 -34.5t101 -99.5q18 -33 27 -72.5t9 -86.5v-19q0 -93 -35.5 -157t-99.5 -97q-32 -16 -69 -24.5t-79 -8.5zM428 490q43 0 62.5 -19.5t19.5 -54.5q0 -38 -20.5 -57.5
t-62.5 -19.5h-86v151h87zM428 281q77 0 113 37t36 98q0 60 -36 96t-113 36h-153v-388h66v121h87z" />
    <glyph glyph-name="uni2120" unicode="&#x2120;" horiz-adv-x="674" 
d="M469 498h11l85 117v-208h57v303h-50l-97 -133l-97 134h-50v-304h57v205zM145 398q57 0 88 27t31 69q0 44 -25.5 64.5t-69.5 27.5q-37 7 -58 14.5t-21 30.5q0 16 11.5 28t39.5 12t41 -12.5t15 -35.5h62q-2 44 -31.5 70.5t-86.5 26.5q-55 0 -82.5 -26t-27.5 -63
q0 -44 25 -63t68 -27q41 -7 61 -15t20 -32q0 -20 -14.5 -32t-43.5 -12q-33 0 -48 15.5t-17 45.5h-63q2 -53 31 -83t95 -30z" />
    <glyph glyph-name="trademark" unicode="&#x2122;" horiz-adv-x="646" 
d="M241 654v57h-224v-57h81v-247h60v247h83zM356 614l85 -116h11l84 116v-207h57v303h-49l-97 -133l-98 134h-50v-304h57v207z" />
    <glyph glyph-name="uni2126" unicode="&#x2126;" horiz-adv-x="796" 
d="M338 73q-43 51 -78.5 104.5t-57.5 111.5q-10 29 -15.5 59t-5.5 61q0 66 25.5 116.5t72.5 78.5q24 14 52 21t60 7q66 0 113.5 -28t73.5 -79q13 -25 19.5 -54t6.5 -62q0 -63 -21.5 -120t-56.5 -111q-18 -26 -37.5 -52.5t-40.5 -52.5l42 -73h282v88h-196q52 62 90.5 144
t39.5 175q0 93 -38 164t-109 112q-35 20 -77 30t-91 10q-96 0 -166 -41t-107 -112q-19 -36 -28.5 -76.5t-9.5 -86.5q0 -97 38.5 -178t90.5 -141h-195v-88h289z" />
    <glyph glyph-name="uni2153" unicode="&#x2153;" horiz-adv-x="853" 
d="M82 0zM497 401l290 267l-97 75l-225 -317zM384 338l-302 -281l99 -81l232 337zM629 -7q68 0 105.5 29.5t37.5 76.5q0 34 -15.5 54.5t-42.5 29.5q26 10 38.5 29.5t12.5 49.5q0 44 -34.5 72t-99.5 28q-67 0 -103 -32t-36 -85v-6h72v4q0 26 16 42t50 16q33 0 48.5 -12
t15.5 -32q0 -23 -12 -36t-41 -13h-49v-57h49q29 0 43.5 -11.5t14.5 -35.5q0 -25 -17.5 -37.5t-53.5 -12.5q-38 0 -54 16t-16 44v7h-73v-9q0 -61 34.5 -90t109.5 -29zM312 355v64h-71v292h-56q-5 -29 -22.5 -46.5t-49.5 -19.5v-55h63v-171h-77v-64h213z" />
    <glyph glyph-name="uni2154" unicode="&#x2154;" horiz-adv-x="853" 
d="M66 0zM497 401l290 267l-97 75l-225 -317zM384 338l-302 -281l99 -81l232 337zM629 -7q68 0 105.5 29.5t37.5 76.5q0 34 -15.5 54.5t-42.5 29.5q26 10 38.5 29.5t12.5 49.5q0 44 -34.5 72t-99.5 28q-67 0 -103 -32t-36 -85v-6h72v4q0 26 16 42t50 16q33 0 48.5 -12
t15.5 -32q0 -23 -12 -36t-41 -13h-49v-57h49q29 0 43.5 -11.5t14.5 -35.5q0 -25 -17.5 -37.5t-53.5 -12.5q-38 0 -54 16t-16 44v7h-73v-9q0 -61 34.5 -90t109.5 -29zM344 354v62h-197q9 21 31 36t50 28q28 14 54 30t43 40q8 12 12.5 27t4.5 33q0 47 -32.5 76.5t-101.5 29.5
q-65 0 -101.5 -32.5t-36.5 -92.5v-14h71v12q0 32 15.5 50t50.5 18t48.5 -12.5t13.5 -35.5q0 -27 -20.5 -44.5t-50.5 -32.5t-60.5 -32t-50.5 -43q-11 -13 -16 -30t-5 -37v-36h278z" />
    <glyph glyph-name="uni2155" unicode="&#x2155;" horiz-adv-x="853" 
d="M82 0zM497 401l290 267l-97 75l-225 -317zM384 338l-302 -281l99 -81l232 337zM635 -7q73 0 109.5 35t36.5 97q0 58 -33.5 86.5t-86.5 28.5q-34 0 -57.5 -10.5t-39.5 -27.5l13 90h115q37 0 51 15t14 49h-234l-22 -195l61 -17l2 3q12 15 30 27t46 12q32 0 52.5 -14
t20.5 -49q0 -33 -19.5 -52.5t-57.5 -19.5q-35 0 -52 16t-17 43v2h-76v-1q1 -56 34 -87t110 -31zM312 355v64h-71v292h-56q-5 -29 -22.5 -46.5t-49.5 -19.5v-55h63v-171h-77v-64h213z" />
    <glyph glyph-name="uni2156" unicode="&#x2156;" horiz-adv-x="853" 
d="M66 0zM497 401l290 267l-97 75l-225 -317zM384 338l-302 -281l99 -81l232 337zM635 -7q73 0 109.5 35t36.5 97q0 58 -33.5 86.5t-86.5 28.5q-34 0 -57.5 -10.5t-39.5 -27.5l13 90h115q37 0 51 15t14 49h-234l-22 -195l61 -17l2 3q12 15 30 27t46 12q32 0 52.5 -14
t20.5 -49q0 -33 -19.5 -52.5t-57.5 -19.5q-35 0 -52 16t-17 43v2h-76v-1q1 -56 34 -87t110 -31zM344 354v62h-197q9 21 31 36t50 28q28 14 54 30t43 40q8 12 12.5 27t4.5 33q0 47 -32.5 76.5t-101.5 29.5q-65 0 -101.5 -32.5t-36.5 -92.5v-14h71v12q0 32 15.5 50t50.5 18
t48.5 -12.5t13.5 -35.5q0 -27 -20.5 -44.5t-50.5 -32.5t-60.5 -32t-50.5 -43q-11 -13 -16 -30t-5 -37v-36h278z" />
    <glyph glyph-name="uni2157" unicode="&#x2157;" horiz-adv-x="853" 
d="M62 0zM497 401l290 267l-97 75l-225 -317zM384 338l-302 -281l99 -81l232 337zM635 -7q73 0 109.5 35t36.5 97q0 58 -33.5 86.5t-86.5 28.5q-34 0 -57.5 -10.5t-39.5 -27.5l13 90h115q37 0 51 15t14 49h-234l-22 -195l61 -17l2 3q12 15 30 27t46 12q32 0 52.5 -14
t20.5 -49q0 -33 -19.5 -52.5t-57.5 -19.5q-35 0 -52 16t-17 43v2h-76v-1q1 -56 34 -87t110 -31zM206 347q68 0 105.5 29.5t37.5 76.5q0 34 -15.5 54.5t-42.5 29.5q26 10 38.5 29.5t12.5 49.5q0 44 -34.5 72t-99.5 28q-67 0 -103 -32t-36 -85v-6h72v4q0 26 16 42t50 16
q33 0 48.5 -12t15.5 -32q0 -23 -12 -36t-41 -13h-49v-57h49q29 0 43.5 -11.5t14.5 -35.5q0 -25 -17.5 -37.5t-53.5 -12.5q-38 0 -54 16t-16 44v7h-73v-9q0 -61 34.5 -90t109.5 -29z" />
    <glyph glyph-name="uni2158" unicode="&#x2158;" horiz-adv-x="853" 
d="M55 0zM497 401l290 267l-97 75l-225 -317zM384 338l-302 -281l99 -81l232 337zM635 -7q73 0 109.5 35t36.5 97q0 58 -33.5 86.5t-86.5 28.5q-34 0 -57.5 -10.5t-39.5 -27.5l13 90h115q37 0 51 15t14 49h-234l-22 -195l61 -17l2 3q12 15 30 27t46 12q32 0 52.5 -14
t20.5 -49q0 -33 -19.5 -52.5t-57.5 -19.5q-35 0 -52 16t-17 43v2h-76v-1q1 -56 34 -87t110 -31zM243 614l4 5l-1 -7v-126h-111zM366 431v55h-58v225h-60l-193 -230v-50h191v-76h62v76h58z" />
    <glyph glyph-name="uni2159" unicode="&#x2159;" horiz-adv-x="853" 
d="M82 0zM497 401l290 267l-97 75l-225 -317zM384 338l-302 -281l99 -81l232 337zM777 115q0 56 -33 82t-94 26q-35 0 -59.5 -13.5t-39.5 -40.5v18q0 58 21.5 87t63.5 29q27 0 41.5 -11.5t18.5 -30.5h74q-5 49 -40.5 75t-95.5 26q-73 0 -111.5 -45t-38.5 -129v-24
q0 -86 38.5 -129t115.5 -43q65 0 102 34.5t37 88.5zM638 53q-35 0 -55.5 18t-27.5 53q7 23 28.5 36t55.5 13q32 0 51.5 -13.5t19.5 -44.5q0 -28 -17.5 -45t-54.5 -17zM312 355v64h-71v292h-56q-5 -29 -22.5 -46.5t-49.5 -19.5v-55h63v-171h-77v-64h213z" />
    <glyph glyph-name="uni215A" unicode="&#x215a;" horiz-adv-x="853" 
d="M64 0zM497 401l290 267l-97 75l-225 -317zM384 338l-302 -281l99 -81l232 337zM777 115q0 56 -33 82t-94 26q-35 0 -59.5 -13.5t-39.5 -40.5v18q0 58 21.5 87t63.5 29q27 0 41.5 -11.5t18.5 -30.5h74q-5 49 -40.5 75t-95.5 26q-73 0 -111.5 -45t-38.5 -129v-24
q0 -86 38.5 -129t115.5 -43q65 0 102 34.5t37 88.5zM638 53q-35 0 -55.5 18t-27.5 53q7 23 28.5 36t55.5 13q32 0 51.5 -13.5t19.5 -44.5q0 -28 -17.5 -45t-54.5 -17zM208 348q73 0 109.5 35t36.5 97q0 58 -33.5 86.5t-86.5 28.5q-34 0 -57.5 -10.5t-39.5 -27.5l13 90h115
q37 0 51 15t14 49h-234l-22 -195l61 -17l2 3q12 15 30 27t46 12q32 0 52.5 -14t20.5 -49q0 -33 -19.5 -52.5t-57.5 -19.5q-35 0 -52 16t-17 43v2h-76v-1q1 -56 34 -87t110 -31z" />
    <glyph glyph-name="uni215B" unicode="&#x215b;" horiz-adv-x="853" 
d="M82 0zM497 401l290 267l-97 75l-225 -317zM384 338l-302 -281l99 -81l232 337zM630 -7q73 0 111.5 26t38.5 76q0 35 -18.5 56.5t-47.5 31.5q26 8 42 27.5t16 49.5q0 49 -38 75.5t-101 26.5t-100 -27t-37 -75q0 -30 14 -49.5t41 -28.5q-29 -10 -47.5 -32.5t-18.5 -54.5
q0 -51 35.5 -76.5t109.5 -25.5zM623 205q-28 0 -44 13t-16 36q0 25 19 39t51 14q35 0 53 -14t18 -38q0 -25 -17 -37.5t-46 -12.5h-18zM632 49q-38 0 -57.5 14t-19.5 39q0 23 17 38.5t50 15.5h19q35 0 52.5 -13.5t17.5 -40.5q0 -25 -20.5 -39t-58.5 -14zM312 355v64h-71v292
h-56q-5 -29 -22.5 -46.5t-49.5 -19.5v-55h63v-171h-77v-64h213z" />
    <glyph glyph-name="uni215C" unicode="&#x215c;" horiz-adv-x="853" 
d="M62 0zM497 401l290 267l-97 75l-225 -317zM384 338l-302 -281l99 -81l232 337zM630 -7q73 0 111.5 26t38.5 76q0 35 -18.5 56.5t-47.5 31.5q26 8 42 27.5t16 49.5q0 49 -38 75.5t-101 26.5t-100 -27t-37 -75q0 -30 14 -49.5t41 -28.5q-29 -10 -47.5 -32.5t-18.5 -54.5
q0 -51 35.5 -76.5t109.5 -25.5zM623 205q-28 0 -44 13t-16 36q0 25 19 39t51 14q35 0 53 -14t18 -38q0 -25 -17 -37.5t-46 -12.5h-18zM632 49q-38 0 -57.5 14t-19.5 39q0 23 17 38.5t50 15.5h19q35 0 52.5 -13.5t17.5 -40.5q0 -25 -20.5 -39t-58.5 -14zM206 347
q68 0 105.5 29.5t37.5 76.5q0 34 -15.5 54.5t-42.5 29.5q26 10 38.5 29.5t12.5 49.5q0 44 -34.5 72t-99.5 28q-67 0 -103 -32t-36 -85v-6h72v4q0 26 16 42t50 16q33 0 48.5 -12t15.5 -32q0 -23 -12 -36t-41 -13h-49v-57h49q29 0 43.5 -11.5t14.5 -35.5q0 -25 -17.5 -37.5
t-53.5 -12.5q-38 0 -54 16t-16 44v7h-73v-9q0 -61 34.5 -90t109.5 -29z" />
    <glyph glyph-name="uni215D" unicode="&#x215d;" horiz-adv-x="853" 
d="M64 0zM497 401l290 267l-97 75l-225 -317zM384 338l-302 -281l99 -81l232 337zM630 -7q73 0 111.5 26t38.5 76q0 35 -18.5 56.5t-47.5 31.5q26 8 42 27.5t16 49.5q0 49 -38 75.5t-101 26.5t-100 -27t-37 -75q0 -30 14 -49.5t41 -28.5q-29 -10 -47.5 -32.5t-18.5 -54.5
q0 -51 35.5 -76.5t109.5 -25.5zM623 205q-28 0 -44 13t-16 36q0 25 19 39t51 14q35 0 53 -14t18 -38q0 -25 -17 -37.5t-46 -12.5h-18zM632 49q-38 0 -57.5 14t-19.5 39q0 23 17 38.5t50 15.5h19q35 0 52.5 -13.5t17.5 -40.5q0 -25 -20.5 -39t-58.5 -14zM208 348
q73 0 109.5 35t36.5 97q0 58 -33.5 86.5t-86.5 28.5q-34 0 -57.5 -10.5t-39.5 -27.5l13 90h115q37 0 51 15t14 49h-234l-22 -195l61 -17l2 3q12 15 30 27t46 12q32 0 52.5 -14t20.5 -49q0 -33 -19.5 -52.5t-57.5 -19.5q-35 0 -52 16t-17 43v2h-76v-1q1 -56 34 -87t110 -31z
" />
    <glyph glyph-name="uni215E" unicode="&#x215e;" horiz-adv-x="853" 
d="M82 0zM497 401l290 267l-97 75l-225 -317zM384 338l-302 -281l99 -81l232 337zM630 -7q73 0 111.5 26t38.5 76q0 35 -18.5 56.5t-47.5 31.5q26 8 42 27.5t16 49.5q0 49 -38 75.5t-101 26.5t-100 -27t-37 -75q0 -30 14 -49.5t41 -28.5q-29 -10 -47.5 -32.5t-18.5 -54.5
q0 -51 35.5 -76.5t109.5 -25.5zM623 205q-28 0 -44 13t-16 36q0 25 19 39t51 14q35 0 53 -14t18 -38q0 -25 -17 -37.5t-46 -12.5h-18zM632 49q-38 0 -57.5 14t-19.5 39q0 23 17 38.5t50 15.5h19q35 0 52.5 -13.5t17.5 -40.5q0 -25 -20.5 -39t-58.5 -14zM245 355
q12 54 35 108.5t52 103.5q14 25 28.5 46.5t28.5 40.5v57h-267v-64h195q-26 -32 -56 -79.5t-56 -102.5q-13 -28 -23 -55t-17 -55h80z" />
    <glyph glyph-name="uni215F" unicode="&#x215f;" horiz-adv-x="853" 
d="M82 0zM497 401l290 267l-97 75l-225 -317zM384 338l-302 -281l99 -81l232 337zM312 355v64h-71v292h-56q-5 -29 -22.5 -46.5t-49.5 -19.5v-55h63v-171h-77v-64h213z" />
    <glyph glyph-name="uni2190" unicode="&#x2190;" horiz-adv-x="872" 
d="M800 319v92h-595q30 24 61.5 58t57.5 74q14 20 24.5 40t17.5 40h-106q-13 -39 -43.5 -83.5t-71.5 -85.5q-21 -21 -42 -38t-43 -31v-44q44 -27 86.5 -68t74.5 -86q16 -22 27.5 -43t17.5 -41h106q-16 41 -44.5 81.5t-61.5 75.5q-17 18 -33 32.5t-31 26.5h598z" />
    <glyph glyph-name="arrowup" unicode="&#x2191;" horiz-adv-x="872" 
d="M691 411v106q-39 13 -83.5 43t-84.5 71q-21 21 -38 42.5t-31 43.5h-44q-28 -44 -69 -85.5t-86 -71.5q-22 -16 -43 -26.5t-41 -17.5v-106q40 15 80.5 42t76.5 59q17 16 32 31.5t27 30.5v-573h92v572q24 -30 58 -61.5t74 -58.5q20 -13 40 -23.5t40 -17.5z" />
    <glyph glyph-name="uni2192" unicode="&#x2192;" horiz-adv-x="872" 
d="M603 103q13 40 44.5 84.5t74.5 84.5q21 21 43 38t44 31v44q-44 28 -85 69t-71 85q-16 23 -26.5 44t-17.5 40h-106q15 -39 41.5 -79t58.5 -74q15 -18 30.5 -32.5t30.5 -26.5h-595v-92h598q-31 -23 -64.5 -58t-62.5 -76q-14 -21 -24.5 -41t-18.5 -41h106z" />
    <glyph glyph-name="arrowdown" unicode="&#x2193;" horiz-adv-x="872" 
d="M453 -6q28 44 68.5 85t85.5 72q23 16 44 27t40 17v106q-39 -15 -79.5 -42t-76.5 -59q-17 -16 -32 -31.5t-27 -30.5v573h-92v-573q-23 30 -57.5 62t-74.5 59q-20 13 -40.5 23.5t-40.5 17.5v-106q40 -12 84.5 -42.5t84.5 -71.5q21 -21 38 -42.5t31 -43.5h44z" />
    <glyph glyph-name="uni2196" unicode="&#x2196;" horiz-adv-x="872" 
d="M725 135l-423 421q38 -5 85 -3t95 11q23 5 45 12t41 16l-75 75q-36 -19 -89 -29t-111 -10q-29 0 -56 3t-53 9l-31 -31q12 -50 11.5 -108t-9.5 -112q-5 -26 -12.5 -48.5t-16.5 -41.5l75 -76q18 40 27.5 87.5t11.5 95.5q2 23 1.5 44.5t-2.5 40.5l421 -421z" />
    <glyph glyph-name="uni2197" unicode="&#x2197;" horiz-adv-x="872" 
d="M652 226l75 74q-18 37 -28 90t-10 111q0 29 3 56t8 53l-31 31q-50 -12 -108 -12t-112 10q-26 5 -48.5 12t-41.5 16l-75 -75q39 -17 86.5 -26.5t95.5 -11.5q23 -2 44.5 -1.5t40.5 2.5l-421 -422l65 -64l421 421q-4 -38 -2.5 -85t11.5 -94q4 -23 11 -44.5t16 -40.5z" />
    <glyph glyph-name="uni2198" unicode="&#x2198;" horiz-adv-x="872" 
d="M671 93l31 31q-12 51 -12 108.5t10 111.5q5 26 12 49t16 41l-75 75q-17 -39 -26.5 -86.5t-11.5 -95.5q-2 -23 -1.5 -44.5t2.5 -40.5l-422 421l-64 -65l421 -421q-38 5 -85 3t-94 -12q-23 -4 -44.5 -11t-40.5 -16l74 -75q37 19 90 28.5t111 9.5q29 0 56 -2.5t53 -8.5z" />
    <glyph glyph-name="uni2199" unicode="&#x2199;" horiz-adv-x="872" 
d="M495 65l75 75q-39 17 -86.5 26.5t-95.5 12.5q-23 1 -44.5 0.5t-40.5 -2.5l421 422l-65 64l-421 -421q5 38 3 85t-12 94q-4 23 -11 44.5t-16 40.5l-75 -74q19 -37 28.5 -90t9.5 -111q0 -29 -2.5 -56t-8.5 -53l31 -31q51 12 108.5 12t111.5 -10q26 -5 49 -12t41 -16z" />
    <glyph glyph-name="partialdiff" unicode="&#x2202;" horiz-adv-x="673" 
d="M335 -15q140 0 215 76t75 222v4q0 143 -72.5 260.5t-229.5 226.5h-148q89 -58 153.5 -107t107.5 -95q22 -23 38.5 -47.5t27.5 -49.5q-28 36 -71.5 56t-102.5 20q-80 0 -143.5 -31.5t-100.5 -94.5q-19 -31 -28 -69.5t-9 -84.5v-11q0 -84 34.5 -146t99.5 -95
q32 -17 70.5 -25.5t83.5 -8.5zM337 72q-88 0 -139.5 51t-51.5 139v9q0 97 52.5 147.5t137.5 50.5q88 0 141 -52.5t53 -141.5v-7q0 -95 -50.5 -145.5t-142.5 -50.5z" />
    <glyph glyph-name="uni2206" unicode="&#x2206;" horiz-adv-x="852" 
d="M843 0l-417 723l-418 -723h835zM692 85h-530l265 460z" />
    <glyph glyph-name="product" unicode="&#x220f;" horiz-adv-x="732" 
d="M470 0h98v619h138v92h-680v-92h136v-619h97v619h211v-619z" />
    <glyph glyph-name="summation" unicode="&#x2211;" horiz-adv-x="546" 
d="M510 87h-372l249 278l-234 261h341v85h-452v-96l222 -250l-230 -259v-106h476v87z" />
    <glyph glyph-name="minus" unicode="&#x2212;" horiz-adv-x="562" 
d="M515 311v88h-466v-88h466z" />
    <glyph glyph-name="radical" unicode="&#x221a;" horiz-adv-x="742" 
d="M372 0l345 711h-106l-283 -595l-142 378h-156v-89h92l155 -405h95z" />
    <glyph glyph-name="infinity" unicode="&#x221e;" horiz-adv-x="844" 
d="M223 201q41 0 76 16t66 40q16 12 30.5 24.5t27.5 24.5q27 -24 57.5 -48.5t64.5 -40.5q18 -8 36.5 -12t38.5 -4q74 0 118.5 46t44.5 117q0 73 -44 118t-119 45q-39 0 -74 -16.5t-65 -41.5q-16 -12 -30 -24.5t-28 -24.5q-27 25 -58 49.5t-66 40.5q-17 9 -36 13t-39 4
q-48 0 -85 -21.5t-59 -58.5q-10 -18 -15.5 -39t-5.5 -44q0 -75 44 -119t120 -44zM620 285q-37 0 -72.5 25t-66.5 53q32 28 67 53.5t72 25.5q35 0 56.5 -23t21.5 -56q0 -32 -22 -55t-56 -23zM224 285q-34 0 -56 23t-22 55q0 33 22 56t56 23q38 0 73.5 -25.5t66.5 -53.5
q-30 -28 -66 -53t-74 -25z" />
    <glyph glyph-name="integral" unicode="&#x222b;" horiz-adv-x="383" 
d="M-24 -172h60q79 0 120.5 16.5t56.5 60.5q8 22 12 53.5t4 72.5l1 581q0 55 8 82.5t30 37.5q12 4 28.5 6.5t38.5 2.5h45v81h-57q-68 0 -109 -18.5t-60 -61.5q-9 -22 -13.5 -51.5t-4.5 -67.5v-580q0 -55 -8.5 -82t-31.5 -35q-12 -5 -29 -7t-40 -2h-51v-89z" />
    <glyph glyph-name="approxequal" unicode="&#x2248;" horiz-adv-x="582" 
d="M178 545q-31 0 -58.5 -13.5t-38.5 -31.5v-94q16 26 43 39t54 13q31 0 67.5 -14t77.5 -29q20 -7 41 -10.5t42 -3.5q31 0 58 13t37 31v95q-16 -27 -41 -39.5t-54 -12.5q-31 0 -70 14.5t-79 28.5q-21 7 -40.5 10.5t-38.5 3.5zM81 254v-95q16 24 42 38.5t54 14.5
q32 0 68.5 -14t77.5 -29q20 -7 41 -10.5t42 -3.5q32 0 58.5 13t36.5 31v94q-18 -27 -42.5 -39t-52.5 -12q-31 0 -69.5 14.5t-79.5 28.5q-21 7 -41 10.5t-39 3.5q-31 0 -58 -13t-38 -32z" />
    <glyph glyph-name="notequal" unicode="&#x2260;" horiz-adv-x="582" 
d="M507 189v84h-214l49 177h165v83h-142l29 104h-60l-29 -104h-230v-83h207l-49 -177h-158v-84h134l-33 -119h60l33 119h238z" />
    <glyph glyph-name="equivalence" unicode="&#x2261;" horiz-adv-x="582" 
d="M507 497v83h-432v-83h432zM507 319v84h-432v-84h432zM507 142v84h-432v-84h432z" />
    <glyph glyph-name="lessequal" unicode="&#x2264;" horiz-adv-x="582" 
d="M496 241v96l-310 114l310 113v92l-416 -167v-79zM497 77v84h-415v-84h415z" />
    <glyph glyph-name="greaterequal" unicode="&#x2265;" horiz-adv-x="582" 
d="M86 241l416 169v79l-416 167v-92l310 -113l-310 -114v-96zM500 77v84h-415v-84h415z" />
    <glyph glyph-name="uni22A0" unicode="&#x22a0;" horiz-adv-x="876" 
d="M86 0h705v711h-705v-711zM182 620h513v-530h-513v530zM575 160l58 57l-139 142l137 141l-57 56l-135 -140l-136 139l-58 -55l138 -142l-139 -143l57 -56l137 142z" />
    <glyph glyph-name="house" unicode="&#x2302;" horiz-adv-x="817" 
d="M730 0v401l-321 309l-322 -309v-401h643z" />
    <glyph glyph-name="uni25A0" unicode="&#x25a0;" horiz-adv-x="876" 
d="M86 0h705v711h-705v-711z" />
    <glyph glyph-name="uni25A1" unicode="&#x25a1;" horiz-adv-x="876" 
d="M86 0v711h705v-711h-705zM182 620v-530h513v530h-513z" />
    <glyph glyph-name="uni25AA" unicode="&#x25aa;" horiz-adv-x="736" 
d="M87 0h562v562h-562v-562z" />
    <glyph glyph-name="uni25AB" unicode="&#x25ab;" horiz-adv-x="736" 
d="M87 0h562v562h-562v-562zM183 473h371v-383h-371v383z" />
    <glyph glyph-name="triagup" unicode="&#x25b2;" horiz-adv-x="851" 
d="M843 0l-416 725l-419 -725h835z" />
    <glyph glyph-name="triagrt" unicode="&#x25ba;" horiz-adv-x="851" 
d="M86 -55l724 418l-724 418v-836z" />
    <glyph glyph-name="triagdn" unicode="&#x25bc;" horiz-adv-x="851" 
d="M8 713l419 -725l416 725h-835z" />
    <glyph glyph-name="triaglf" unicode="&#x25c4;" horiz-adv-x="851" 
d="M766 781l-725 -418l725 -418v836z" />
    <glyph glyph-name="lozenge" unicode="&#x25ca;" horiz-adv-x="785" 
d="M392 -16l369 369l-371 371l-369 -369zM144 356l244 245l249 -249l-245 -244z" />
    <glyph glyph-name="uni25CB" unicode="&#x25cb;" horiz-adv-x="874" 
d="M436 -10q79 0 145.5 27t114.5 75q49 49 75.5 115t26.5 144q0 79 -27 145t-75 115q-49 48 -115 75t-145 27q-78 0 -144 -27t-114 -76q-49 -48 -75.5 -114.5t-26.5 -144.5q0 -105 46.5 -186.5t127.5 -128.5q40 -23 87 -34.5t99 -11.5zM436 85q-75 0 -134.5 35t-94.5 95
q-17 30 -25.5 64t-8.5 72q0 77 34.5 138t94.5 96q30 17 63.5 26t70.5 9q77 0 136.5 -36t94.5 -97q17 -30 25.5 -64t8.5 -72q0 -75 -34.5 -135.5t-94.5 -95.5q-30 -17 -64 -26t-72 -9z" />
    <glyph glyph-name="uni25CE" unicode="&#x25ce;" horiz-adv-x="877" 
d="M437 -10q80 0 146.5 27t115.5 76q48 49 74.5 115.5t26.5 144.5q0 80 -27 146.5t-75 115.5q-49 48 -115.5 75t-145.5 27t-145 -27t-114 -77q-48 -49 -74.5 -115.5t-26.5 -144.5q0 -106 46 -188t127 -128q41 -24 87.5 -35.5t99.5 -11.5zM437 119q-65 0 -117.5 30.5
t-82.5 83.5q-16 27 -23.5 57t-7.5 63q0 67 30.5 120.5t83.5 85.5q26 15 55.5 23t61.5 8q68 0 120.5 -32t83.5 -86q15 -27 22.5 -56.5t7.5 -62.5q0 -67 -30.5 -120t-83.5 -83q-26 -16 -56 -23.5t-64 -7.5zM438 184q49 0 87.5 22t60.5 60q11 19 16.5 40.5t5.5 45.5
q0 48 -22.5 86t-60.5 60q-19 11 -41 16.5t-46 5.5q-47 0 -85 -22t-61 -60q-11 -19 -16.5 -40.5t-5.5 -45.5q0 -48 22 -86t60 -60q19 -11 40.5 -16.5t45.5 -5.5zM438 295q-22 0 -37 16.5t-15 40.5q0 26 15 42t37 16q24 0 39 -16t15 -42q0 -24 -15 -40.5t-39 -16.5z" />
    <glyph glyph-name="uni25CF" unicode="&#x25cf;" horiz-adv-x="874" 
d="M436 -10q79 0 145.5 27t114.5 75q49 49 75.5 115t26.5 144q0 79 -27 145t-75 115q-49 48 -115 75t-145 27q-78 0 -144 -27t-114 -76q-49 -48 -75.5 -114.5t-26.5 -144.5q0 -105 46.5 -186.5t127.5 -128.5q40 -23 87 -34.5t99 -11.5z" />
    <glyph glyph-name="uni25E2" unicode="&#x25e2;" horiz-adv-x="851" 
d="M839 520l-806 217l215 -808z" />
    <glyph glyph-name="uni25E3" unicode="&#x25e3;" horiz-adv-x="851" 
d="M605 -71l216 808l-807 -217z" />
    <glyph glyph-name="uni25E4" unicode="&#x25e4;" horiz-adv-x="851" 
d="M824 -52l-216 807l-591 -592z" />
    <glyph glyph-name="uni25E5" unicode="&#x25e5;" horiz-adv-x="851" 
d="M838 159l-590 592l-216 -807z" />
    <glyph glyph-name="uni2605" unicode="&#x2605;" horiz-adv-x="864" 
d="M542 299l186 133l-228 1l-69 214l-72 -214l-225 1l183 -134l-72 -216l185 133l184 -133z" />
    <glyph glyph-name="uni263C" unicode="&#x263c;" horiz-adv-x="892" 
d="M433 560h19l17 141h-52zM539 538l15 -10l86 113l-46 28zM332 528l14 10l-54 131l-47 -28zM619 464l10 -16l130 56l-29 45zM257 448l10 15l-114 86l-26 -46zM271 351q0 -47 23.5 -86t62.5 -63q19 -11 40.5 -17t44.5 -6q47 0 86.5 23.5t62.5 62.5q12 19 18 41t6 45
q0 47 -23.5 86t-63.5 63q-19 11 -40.5 17t-45.5 6q-46 0 -85 -23.5t-63 -62.5q-11 -19 -17 -40.5t-6 -45.5zM651 362v-19l140 -17v53zM235 343v19l-140 17v-53zM267 240l-10 15l-130 -55l28 -46zM629 255l-10 -14l113 -87l27 47zM346 166l-14 10l-87 -113l47 -27zM554 176
l-15 -10l55 -130l46 27zM452 145h-19l-16 -141h52z" />
    <glyph glyph-name="uni263E" unicode="&#x263e;" horiz-adv-x="752" 
d="M515 597q17 0 35 -3.5t35 -8.5q-39 28 -82.5 42t-92.5 14q-61 0 -114 -22.5t-93 -63.5q-40 -40 -62.5 -93t-22.5 -113t22.5 -113t62.5 -93q40 -41 93 -63.5t114 -22.5q47 0 92.5 15t82.5 42q-17 -5 -35 -8.5t-35 -3.5q-65 0 -118.5 33.5t-85.5 89.5q-16 28 -24 59t-8 65
q0 68 32 124.5t85 89.5q27 17 57 25.5t62 8.5z" />
    <glyph glyph-name="spade" unicode="&#x2660;" horiz-adv-x="866" 
d="M464 280q13 -33 36 -63t58 -49q17 -10 37.5 -14.5t44.5 -4.5q43 0 77 21t55 55q10 18 15 37t5 40q0 56 -21.5 102.5t-70.5 95.5q-24 25 -56 53.5t-72 60.5l-136 108l-135 -108q-80 -64 -130.5 -113.5t-74.5 -96.5q-11 -23 -17 -48.5t-6 -53.5q0 -42 22.5 -76.5
t60.5 -55.5q18 -11 39 -16t43 -5q45 0 77.5 19t53.5 49q11 15 19.5 30.5t14.5 32.5q0 -58 -17.5 -113t-39.5 -99l-19.5 -39t-15.5 -29h250q-9 18 -25 47.5t-33 67.5q-16 37 -27.5 79t-11.5 86z" />
    <glyph glyph-name="club" unicode="&#x2663;" horiz-adv-x="866" 
d="M627 127q48 0 86.5 23t60.5 62q12 20 17.5 41.5t5.5 45.5q0 48 -22.5 86.5t-60.5 60.5q-19 12 -40.5 17.5t-45.5 5.5q-12 0 -23.5 -2t-22.5 -6q10 21 14.5 42.5t4.5 44.5q0 47 -23 85t-61 61q-19 12 -40.5 17.5t-44.5 5.5q-47 0 -86.5 -23t-62.5 -61q-11 -19 -17 -40.5
t-6 -44.5q0 -22 5.5 -43.5t14.5 -41.5q-9 2 -19.5 4t-21.5 2q-47 0 -86 -22.5t-62 -61.5q-12 -19 -17.5 -40.5t-5.5 -45.5q0 -48 23 -87t62 -62q19 -11 40.5 -17t45.5 -6q56 0 99.5 32.5t63.5 83.5q-6 -51 -23 -98.5t-36 -85.5q-9 -18 -17 -33t-14 -26h250q-11 22 -31 59
t-38 84q-9 24 -15.5 48.5t-9.5 50.5q20 -50 61.5 -82.5t97.5 -32.5z" />
    <glyph glyph-name="heart" unicode="&#x2665;" horiz-adv-x="866" 
d="M431 -17l135 153q81 89 130.5 158t72.5 126q11 29 16.5 57.5t5.5 56.5q0 50 -25 91.5t-66 66.5q-21 13 -44 19t-48 6q-76 0 -123 -46t-54 -114q-4 46 -28 82t-63 57q-20 10 -42 15.5t-47 5.5q-50 0 -90 -25t-64 -66q-11 -21 -17 -44t-6 -48q0 -56 21.5 -113.5
t70.5 -126.5q24 -35 56 -74t72 -84z" />
    <glyph glyph-name="diamond" unicode="&#x2666;" horiz-adv-x="866" 
d="M117 359l316 -369l315 369l-315 366z" />
    <glyph glyph-name="uni267B" unicode="&#x267b;" horiz-adv-x="794" 
d="M333 671l14 -2.5t32 -12.5q9 -5 17 -13t14 -19l59 -105l-33 -20l143 -27l52 141l-36 -21l-24 41q-16 28 -34.5 33t-41.5 6h-162v-1zM162 520l126 -72l97 168q-8 16 -31.5 28t-52.5 14q-15 1 -28 -2t-26 -11q-10 -4 -17.5 -12t-10.5 -13zM669 460l-125 -70l97 -168
q18 0 40 14t38 38q8 12 12 25t4 28q0 11 -2.5 21t-4.5 15zM151 124l-4 13.5t-4 33.5q0 10 2.5 20.5t8.5 21.5q1 2 10 18t21 36t21 35.5l9 15.5l34 -21l-49 140l-146 -26l36 -21l-24 -42q-16 -27 -11.5 -46t15.5 -39l79 -139h2zM718 243l-10 -11t-28 -22q-9 -5 -19.5 -8
t-23.5 -3h-121v42l-93 -113l93 -114v41h48q33 0 47 14t26 33l82 140zM369 55v144h-194q-9 -15 -8 -41t14 -51q6 -13 15.5 -23t22.5 -18q10 -6 20 -8.5t17 -2.5h113z" />
    <glyph glyph-name="uni267C" unicode="&#x267c;" horiz-adv-x="794" 
d="M731 349q0 70 -26 131t-71 107q-46 46 -106 72t-129 26q-70 0 -131 -26t-107 -72t-72 -107t-26 -131q0 -69 26 -129.5t72 -105.5q46 -46 107 -71.5t131 -25.5q69 0 129 25.5t106 71.5q45 45 71 105.5t26 129.5zM342 604h125q19 0 33 -4.5t27 -26.5l18 -31l28 15l-39 -109
l-111 21l25 16l-46 81q-9 17 -23.5 24.5t-25.5 10.5q-5 1 -8 1.5l-3 0.5v1zM258 562q2 5 8 11t13 10q20 12 42 10t40 -11q9 -5 15.5 -10.5t9.5 -11.5l-74 -129l-98 55zM650 365q3 -5 5.5 -12.5t2.5 -15.5q0 -23 -12.5 -42t-29.5 -31q-8 -5 -16 -8t-15 -3l-76 131l98 57z
M204 178l-63 108q-7 17 -11 31t8 36l19 32l-26 17l111 19l39 -108l-27 17l-47 -81q-9 -17 -9 -33.5t4 -26.5q1 -6 2 -8.5l1 -2.5h-1zM644 269l-63 -108q-9 -13 -19.5 -23.5t-36.5 -10.5h-37v-33l-73 87l73 87v-30h93q20 0 34 8t21 16q3 4 5 6l2 2zM283 127q-5 0 -13 2t-16 6
q-19 11 -29 30.5t-11 39.5q-1 10 0.5 18.5t5.5 14.5h151v-111h-88z" />
    <glyph glyph-name="uni267D" unicode="&#x267d;" horiz-adv-x="794" 
d="M731 349q0 70 -26 131t-71 107q-46 46 -106 72t-129 26q-70 0 -131 -26t-107 -72t-72 -107t-26 -131q0 -69 26 -129.5t72 -105.5q46 -46 107 -71.5t131 -25.5q69 0 129 25.5t106 71.5q45 45 71 105.5t26 129.5zM715 349q0 -66 -24.5 -123.5t-68.5 -100.5
q-43 -43 -100.5 -67.5t-122.5 -24.5q-66 0 -124 24.5t-102 67.5t-68.5 100.5t-24.5 123.5t24.5 124t68.5 102t102 68.5t124 24.5q65 0 122.5 -24.5t100.5 -68.5q44 -44 68.5 -102t24.5 -124zM342 603l11 -2.5t25 -10.5q7 -4 13 -10t11 -14l46 -81l-25 -16l111 -21l39 109
l-28 -15l-18 31q-13 22 -27 26.5t-33 4.5h-125v-1zM214 486l98 -55l74 129q-6 13 -24.5 22t-40.5 11q-11 1 -21.5 -1.5t-20.5 -8.5q-7 -4 -13 -10t-8 -11zM607 441l-98 -57l76 -131q14 0 31 11.5t30 30.5q6 9 9 20t3 22q0 8 -2.5 15.5t-5.5 12.5zM205 178l-3.5 10.5
t-3.5 27.5q0 8 2 16.5t7 16.5l47 81l27 -17l-39 108l-111 -19l26 -17l-19 -32q-12 -22 -8 -36t11 -31l63 -108h1zM643 270l-7 -8t-21 -16q-7 -4 -15.5 -6t-18.5 -2h-93v30l-73 -87l73 -87v33h37q26 0 36.5 10.5t19.5 23.5l63 108zM371 127v111h-151q-7 -12 -6 -32.5
t11 -40.5q5 -10 12 -17.5t17 -12.5q8 -4 16 -6t13 -2h88z" />
    <glyph glyph-name="uni2E18" unicode="&#x2e18;" horiz-adv-x="678" 
d="M343 548q-35 0 -53 -17t-18 -55q0 -39 18 -55.5t54 -16.5q35 0 53 16.5t18 55.5q0 40 -17 56t-55 16zM334 -185q137 0 203.5 61.5t66.5 174.5v20h-97v-15q0 -66 -28 -106t-93 -50v103q0 90 -0.5 169.5t-2.5 128.5q-1 20 -1.5 33.5t-1.5 19.5q-4 -1 -14.5 -2t-20.5 -1
t-20.5 1t-15.5 2l-1 -47q-1 -32 -18.5 -52t-43.5 -33q-27 -14 -56.5 -27.5t-55.5 -34.5q-26 -20 -42.5 -53.5t-16.5 -87.5t27.5 -100.5t84.5 -75.5q28 -14 65 -21t82 -7zM171 25q0 35 13 57t34 36q20 14 43.5 26.5t44.5 27.5q-1 -36 -2.5 -78t-1.5 -92v-104q-70 7 -100.5 43
t-30.5 84z" />
    <glyph glyph-name="uni3008" unicode="&#x3008;" horiz-adv-x="383" 
d="M364 -188l-210 472l200 468h-104l-203 -470l208 -470h109z" />
    <glyph glyph-name="uni3009" unicode="&#x3009;" horiz-adv-x="383" 
d="M130 -188l206 470l-201 470h-106l200 -468l-209 -472h110z" />
    <glyph glyph-name="Aumlaut" horiz-adv-x="676" 
d="M556 594q31 0 47 14.5t16 48.5t-15.5 48.5t-47.5 14.5q-31 0 -47 -14.5t-16 -48.5q0 -35 14.5 -49t48.5 -14zM111 594q32 0 47.5 14.5t15.5 48.5t-15.5 48.5t-47.5 14.5q-31 0 -47 -14.5t-16 -48.5q0 -35 15 -49t48 -14zM332 594l3 14l2 -14l121 -325h-243zM559 0h100
l-274 711h-101l-266 -711h100l67 185h305z" />
    <glyph glyph-name="Oumlaut" horiz-adv-x="720" 
d="M635 651q21 0 31 10t10 30t-10 30t-30 10t-30.5 -10t-10.5 -30q0 -22 9.5 -31t30.5 -9zM86 651q20 0 30 10t10 30t-10 30t-30 10t-30 -10t-10 -30q0 -22 10 -31t30 -9zM359 -15q93 0 162 38t107 114q19 38 28.5 85.5t9.5 104.5v49q0 113 -38.5 190.5t-107.5 116.5
q-34 20 -74.5 30t-86.5 10q-93 0 -161.5 -40.5t-105.5 -117.5q-19 -39 -28.5 -86t-9.5 -103v-49q0 -172 80 -257t225 -85zM359 75q-100 0 -152 65.5t-52 189.5v43q0 125 52 193.5t152 68.5q99 0 152.5 -68t53.5 -195v-42q0 -124 -54 -189.5t-152 -65.5z" />
    <glyph glyph-name="Uumlaut" horiz-adv-x="692" 
d="M414 585q23 0 35.5 15.5t12.5 49.5q0 35 -12 50.5t-35 15.5q-24 0 -36 -15.5t-12 -50.5q0 -36 11 -50.5t36 -14.5zM274 585q24 0 36 15.5t12 49.5q0 35 -11.5 50.5t-35.5 15.5q-23 0 -35.5 -15.5t-12.5 -50.5q0 -36 11 -50.5t36 -14.5zM347 -15q135 0 204 79t69 245v402
h-102v-398q0 -122 -39.5 -178t-131.5 -56t-133 56.5t-41 177.5v398h-100v-402q0 -166 66 -245t208 -79z" />
    <glyph glyph-name="I.alt" horiz-adv-x="265" 
d="M182 0v711h-99v-711h99z" />
    <glyph glyph-name="Iacute.alt" horiz-adv-x="265" 
d="M83 0zM182 0v711h-99v-711h99zM94 796h80l169 200h-108z" />
    <glyph glyph-name="Ibreve.alt" horiz-adv-x="265" 
d="M0 0zM182 0v711h-99v-711h99zM131 792q99 0 144.5 54.5t46.5 139.5h-74q-1 -57 -29.5 -90.5t-86.5 -34.5q-60 1 -86 34.5t-28 90.5h-73q1 -56 18 -100t57 -69q20 -13 48 -19t63 -6z" />
    <glyph glyph-name="Icircumflex.alt" horiz-adv-x="265" 
d="M0 0zM182 0v711h-99v-711h99zM221 795h88l-139 188h-74l-139 -188h89l88 122z" />
    <glyph glyph-name="Idieresis.alt" horiz-adv-x="265" 
d="M0 0zM182 0v711h-99v-711h99zM230 793q31 0 46.5 16t15.5 47q0 34 -15.5 49t-46.5 15t-47 -14.5t-16 -48.5q0 -35 14.5 -49.5t48.5 -14.5zM38 793q32 0 47.5 16t15.5 47q0 34 -15 49t-47 15q-31 0 -47.5 -14.5t-16.5 -48.5q0 -35 15 -49.5t48 -14.5z" />
    <glyph glyph-name="Idotaccent.alt" horiz-adv-x="265" 
d="M63 0zM182 0v711h-99v-711h99zM133 793q35 0 52.5 16.5t17.5 53.5t-17.5 53.5t-51.5 16.5q-35 0 -53 -16t-18 -54q0 -39 16.5 -54.5t53.5 -15.5z" />
    <glyph glyph-name="Igrave.alt" horiz-adv-x="265" 
d="M0 0zM182 0v711h-99v-711h99zM99 796h79l-135 187h-109z" />
    <glyph glyph-name="Imacron.alt" horiz-adv-x="265" 
d="M0 0zM182 0v711h-99v-711h99zM-18 803h308v74h-308v-74z" />
    <glyph glyph-name="Iogonek.alt" horiz-adv-x="265" 
d="M289 -123h-89q-10 -22 -29.5 -35.5t-47.5 -13.5q-30 0 -48 14t-18 37q0 18 11 35t38 37q14 10 33 22t43 27v711h-99v-698q-62 -36 -84 -71t-22 -70q0 -52 37.5 -80t103.5 -28q63 0 105.5 28t65.5 85z" />
    <glyph glyph-name="Itilde.alt" horiz-adv-x="265" 
d="M0 0zM182 0v711h-99v-711h99zM-69 796h68q0 32 11.5 47.5t33.5 15.5q20 0 39 -10t39 -23q19 -13 42.5 -23t52.5 -10q64 0 89.5 37.5t25.5 99.5h-68q0 -34 -11 -49t-36 -15q-19 0 -37.5 10t-38.5 24q-20 13 -44 23t-53 10q-61 0 -87 -37.5t-26 -99.5z" />
    <glyph glyph-name="i.dot" horiz-adv-x="252" 
d="M59 0zM128 644q34 0 51 16t17 53q0 38 -17 53.5t-51 15.5t-51.5 -15.5t-17.5 -53.5t16 -53.5t53 -15.5zM176 0v571h-99v-571h99z" />
    <glyph glyph-name="cordinal" horiz-adv-x="468" 
d="M435 471v1h-93q-7 -41 -33 -63.5t-71 -22.5q-54 0 -81 34t-27 92v7q0 62 29 95.5t79 33.5q42 0 69 -23t34 -62h93q-10 81 -63.5 122t-132.5 41q-57 0 -102 -24.5t-71 -70.5q-13 -23 -19.5 -51.5t-6.5 -61.5v-9q0 -95 52 -148.5t147 -53.5q80 0 134 41t63 123z" />
    <glyph glyph-name="g.alt" horiz-adv-x="608" 
d="M302 -262q102 0 166.5 25t94.5 68q16 22 23.5 46.5t7.5 52.5q0 74 -52.5 116.5t-166.5 42.5h-135q-54 -1 -78 11.5t-24 36.5q0 17 12 29t44 19q16 4 38.5 5.5t51.5 1.5h19q119 0 186 52.5t67 142.5v4q0 41 -18 76.5t-53 60.5q-17 12 -39 20t-48 11l-4 1q61 2 95 12.5
t48 32.5q7 11 10.5 26t3.5 34v9h-110v-15q0 -30 -9 -45t-36 -21q-13 -3 -33 -6t-47 -5q-10 0 -26.5 -1.5t-24.5 -3.5q-107 -13 -158 -66t-51 -127v-2q0 -61 30 -100.5t90 -57.5q-59 -13 -91.5 -42t-32.5 -70t26.5 -67.5t81.5 -34.5q-68 -17 -99 -51t-31 -81
q0 -43 23.5 -74.5t80.5 -48.5q28 -8 67 -12.5t89 -4.5h12zM303 264q-71 0 -109.5 31.5t-38.5 89.5v2q-1 57 36 89.5t98 36.5q5 1 10 1.5t12 0.5q40 0 73.5 -11.5t53.5 -39.5q10 -14 15.5 -33t5.5 -43v-2q0 -58 -40 -90t-116 -32zM281 -181q-82 0 -119 25.5t-37 62.5v1
q0 41 34 67.5t103 31.5h109q73 0 102.5 -22t29.5 -60q0 -44 -47 -75t-154 -31h-21z" />
    <glyph glyph-name="g.alt2" horiz-adv-x="684" 
d="M326 71q-80 0 -130 54.5t-50 151.5v11q0 101 48.5 158t138.5 57q85 0 134 -59.5t49 -158.5v-7q0 -59 -23 -106t-66 -74q-21 -13 -46.5 -20t-54.5 -7zM335 -249q96 0 155.5 31.5t87.5 86.5q14 27 21 58.5t7 67.5v576h-80l-11 -129q-23 65 -75 105t-134 40
q-79 0 -137.5 -36t-89.5 -103q-16 -33 -24 -73t-8 -86v-13q0 -94 32.5 -158.5t89.5 -97.5q29 -16 61.5 -24.5t69.5 -8.5q82 0 134.5 38.5t77.5 99.5v-140q0 -41 -17.5 -75.5t-55.5 -56.5q-19 -10 -44 -15.5t-56 -5.5q-82 0 -121 27t-51 77h-103q19 -96 83.5 -140.5
t187.5 -44.5z" />
    <glyph glyph-name="uni0123.alt" horiz-adv-x="684" 
d="M47 0zM326 71q-80 0 -130 54.5t-50 151.5v11q0 101 48.5 158t138.5 57q85 0 134 -59.5t49 -158.5v-7q0 -59 -23 -106t-66 -74q-21 -13 -46.5 -20t-54.5 -7zM335 -249q96 0 155.5 31.5t87.5 86.5q14 27 21 58.5t7 67.5v576h-80l-11 -129q-23 65 -75 105t-134 40
q-79 0 -137.5 -36t-89.5 -103q-16 -33 -24 -73t-8 -86v-13q0 -94 32.5 -158.5t89.5 -97.5q29 -16 61.5 -24.5t69.5 -8.5q82 0 134.5 38.5t77.5 99.5v-140q0 -41 -17.5 -75.5t-55.5 -56.5q-19 -10 -44 -15.5t-56 -5.5q-82 0 -121 27t-51 77h-103q19 -96 83.5 -140.5
t187.5 -44.5zM332 667q33 0 48.5 14t15.5 47q0 35 -12.5 46t-40.5 11h-6.5t-6.5 -1q4 30 19.5 49.5t43.5 27.5l-4 50q-61 -13 -91 -56.5t-30 -102.5q0 -46 15 -65.5t49 -19.5z" />
    <glyph glyph-name="gcircumflex.alt" horiz-adv-x="684" 
d="M47 0zM326 71q-80 0 -130 54.5t-50 151.5v11q0 101 48.5 158t138.5 57q85 0 134 -59.5t49 -158.5v-7q0 -59 -23 -106t-66 -74q-21 -13 -46.5 -20t-54.5 -7zM335 -249q96 0 155.5 31.5t87.5 86.5q14 27 21 58.5t7 67.5v576h-80l-11 -129q-23 65 -75 105t-134 40
q-79 0 -137.5 -36t-89.5 -103q-16 -33 -24 -73t-8 -86v-13q0 -94 32.5 -158.5t89.5 -97.5q29 -16 61.5 -24.5t69.5 -8.5q82 0 134.5 38.5t77.5 99.5v-140q0 -41 -17.5 -75.5t-55.5 -56.5q-19 -10 -44 -15.5t-56 -5.5q-82 0 -121 27t-51 77h-103q19 -96 83.5 -140.5
t187.5 -44.5zM423 669h88l-139 188h-74l-139 -188h89l88 122z" />
    <glyph glyph-name="gdotaccent.alt" horiz-adv-x="684" 
d="M47 0zM326 71q-80 0 -130 54.5t-50 151.5v11q0 101 48.5 158t138.5 57q85 0 134 -59.5t49 -158.5v-7q0 -59 -23 -106t-66 -74q-21 -13 -46.5 -20t-54.5 -7zM335 -249q96 0 155.5 31.5t87.5 86.5q14 27 21 58.5t7 67.5v576h-80l-11 -129q-23 65 -75 105t-134 40
q-79 0 -137.5 -36t-89.5 -103q-16 -33 -24 -73t-8 -86v-13q0 -94 32.5 -158.5t89.5 -97.5q29 -16 61.5 -24.5t69.5 -8.5q82 0 134.5 38.5t77.5 99.5v-140q0 -41 -17.5 -75.5t-55.5 -56.5q-19 -10 -44 -15.5t-56 -5.5q-82 0 -121 27t-51 77h-103q19 -96 83.5 -140.5
t187.5 -44.5zM334 667q35 0 52.5 16.5t17.5 53.5t-17.5 53.5t-51.5 16.5q-35 0 -53 -16t-18 -54q0 -39 16.5 -54.5t53.5 -15.5z" />
    <glyph glyph-name="gbreve.alt" horiz-adv-x="684" 
d="M47 0zM326 71q-80 0 -130 54.5t-50 151.5v11q0 101 48.5 158t138.5 57q85 0 134 -59.5t49 -158.5v-7q0 -59 -23 -106t-66 -74q-21 -13 -46.5 -20t-54.5 -7zM335 -249q96 0 155.5 31.5t87.5 86.5q14 27 21 58.5t7 67.5v576h-80l-11 -129q-23 65 -75 105t-134 40
q-79 0 -137.5 -36t-89.5 -103q-16 -33 -24 -73t-8 -86v-13q0 -94 32.5 -158.5t89.5 -97.5q29 -16 61.5 -24.5t69.5 -8.5q82 0 134.5 38.5t77.5 99.5v-140q0 -41 -17.5 -75.5t-55.5 -56.5q-19 -10 -44 -15.5t-56 -5.5q-82 0 -121 27t-51 77h-103q19 -96 83.5 -140.5
t187.5 -44.5zM333 666q99 0 144.5 54.5t46.5 139.5h-74q-1 -57 -29.5 -90.5t-86.5 -34.5q-60 1 -86 34.5t-28 90.5h-73q1 -56 18 -100t57 -69q20 -13 48 -19t63 -6z" />
    <glyph glyph-name="caronSlovak" horiz-adv-x="549" 
d="M223 665h67l68 181h-89z" />
    <glyph glyph-name="altcedilla" horiz-adv-x="549" 
d="M274 -277q77 0 117 32.5t40 87.5q0 48 -35 79t-109 31h-62v-60h45q47 0 65 -15t18 -38q0 -27 -20 -40.5t-60 -13.5q-37 0 -59.5 15.5t-26.5 44.5h-89q10 -56 49.5 -89.5t126.5 -33.5z" />
    <glyph glyph-name="uni00200326" horiz-adv-x="552" 
d="M209 -311q60 13 90.5 56.5t30.5 102.5q0 46 -15 65.5t-50 19.5q-32 0 -48 -14t-16 -47q0 -35 13 -45.5t40 -10.5h6.5t6.5 1q-4 -30 -19 -49.5t-44 -27.5z" />
    <glyph glyph-name="uni00200323" horiz-adv-x="552" 
d="M265 -233q35 0 52.5 16t17.5 53t-17.5 53.5t-51.5 16.5q-35 0 -53 -16t-18 -53q0 -39 16.5 -54.5t53.5 -15.5z" />
    <glyph glyph-name="doublegrave" horiz-adv-x="549" 
d="M393 656h75l-125 188h-106zM226 656h75l-129 188h-106z" />
    <glyph glyph-name="invertedbreve" horiz-adv-x="549" 
d="M273 846q-93 0 -139.5 -53t-48.5 -136h73q2 62 31 93t84 32q55 -1 83.5 -32t30.5 -93h74q-1 83 -50 136t-138 53z" />
    <glyph glyph-name="uni00200326.alt" horiz-adv-x="550" 
d="M270 654q33 0 48.5 14t15.5 47q0 35 -12.5 46t-40.5 11h-6.5t-6.5 -1q4 30 19.5 49.5t43.5 27.5l-4 50q-61 -13 -91 -56.5t-30 -102.5q0 -46 15 -65.5t49 -19.5z" />
    <glyph glyph-name="exclamdown.cap" horiz-adv-x="322" 
d="M159 725q-35 0 -53.5 -17t-18.5 -55q0 -39 18 -55t54 -16q35 0 53 16t18 55q0 41 -16.5 56.5t-54.5 15.5zM210 0v180q0 84 -3.5 158t-7.5 125q-3 25 -4.5 41t-3.5 23q-4 -1 -13.5 -2.5t-20.5 -1.5t-19.5 1.5t-14.5 2.5q-2 -13 -6.5 -64t-7.5 -125q-1 -37 -2 -77t-1 -82
v-179h104z" />
    <glyph glyph-name="questiondown.cap" horiz-adv-x="678" 
d="M335 532l-1 -52q-1 -29 -15.5 -48t-37.5 -32q-12 -7 -24.5 -13.5t-25.5 -12.5q-30 -15 -60 -35t-49 -55q-10 -17 -15 -40t-5 -52q0 -54 27.5 -100.5t84.5 -75.5q28 -14 65 -21t82 -7q137 0 203.5 62t66.5 174v20h-99v-15q0 -75 -40 -115.5t-129 -40.5q-85 0 -122.5 36.5
t-37.5 88.5q0 36 16 58t41 36q12 7 25 14t27 13q30 14 57.5 30.5t44.5 43.5q9 13 13.5 31t4.5 40v24q0 11 -0.5 25.5t-1.5 18.5q-4 -4 -18 -6.5t-30 -2.5t-29 2.5t-18 6.5zM380 721q-35 0 -53 -17t-18 -55q0 -39 18 -55.5t53 -16.5q36 0 54 16.5t18 55.5q0 40 -17 56t-55 16
z" />
    <glyph glyph-name="uni2E18.cap" horiz-adv-x="678" 
d="M343 720q-35 0 -53 -17t-18 -55q0 -39 18 -55t54 -16q35 0 53 16t18 55q0 40 -17 56t-55 16zM334 -13q137 0 203.5 62t66.5 174v20h-97v-15q0 -65 -28 -105t-93 -51v103q0 93 -0.5 175t-2.5 130q-1 18 -1.5 29.5t-1.5 16.5q-6 -1 -14.5 -1.5t-20.5 -0.5q-11 0 -20 0.5
t-16 1.5l-1 -46q-1 -33 -18.5 -52.5t-43.5 -33.5q-27 -13 -56.5 -27t-55.5 -34q-26 -21 -42.5 -54t-16.5 -87q0 -55 27.5 -101.5t84.5 -75.5q28 -14 65 -21t82 -7zM171 197q0 35 13 57t34 36q20 15 43.5 27t44.5 28q-1 -37 -2.5 -78.5t-1.5 -91.5v-105q-70 8 -100.5 43.5
t-30.5 83.5z" />
    <glyph glyph-name="guilsinglleft.cap" horiz-adv-x="409" 
d="M348 142l-175 212l163 212h-94l-159 -208v-15l167 -201h98z" />
    <glyph glyph-name="guilsinglright.cap" horiz-adv-x="409" 
d="M159 142l167 201v15l-159 208h-94l163 -212l-175 -212h98z" />
    <glyph glyph-name="guillemotleft.cap" horiz-adv-x="640" 
d="M588 142l-183 218l162 206h-92l-159 -203v-15l173 -206h99zM348 142l-176 215l162 209h-90l-161 -207v-14l167 -203h98z" />
    <glyph glyph-name="guillemotright.cap" horiz-adv-x="640" 
d="M157 142l173 206v15l-159 203h-92l162 -206l-182 -218h98zM396 142l167 203v14l-160 207h-91l162 -209l-176 -215h98z" />
    <glyph glyph-name="slash.cap" horiz-adv-x="351" 
d="M125 0l209 711h-107l-209 -711h107z" />
    <glyph glyph-name="backslash.cap" horiz-adv-x="351" 
d="M17 711l211 -711h105l-211 711h-105z" />
    <glyph glyph-name="bar.cap" horiz-adv-x="273" 
d="M185 -96v879h-97v-879h97z" />
    <glyph glyph-name="uni2016.cap" horiz-adv-x="532" 
d="M445 -96v879h-98v-879h98zM185 -96v879h-97v-879h97z" />
    <glyph glyph-name="brokenbar.cap" horiz-adv-x="273" 
d="M88 401h97v382h-97v-382zM185 306h-97v-402h97v402z" />
    <glyph glyph-name="bullet.cap" horiz-adv-x="325" 
d="M162 204q43 0 64.5 20t21.5 65q0 47 -21.5 66t-64.5 19q-42 0 -63.5 -19.5t-21.5 -65.5t19.5 -65.5t65.5 -19.5z" />
    <glyph glyph-name="onethirdemdash" horiz-adv-x="445" 
d="M383 361h-320v-97h320v97z" />
    <glyph glyph-name="threequarteremdash" horiz-adv-x="625" 
d="M563 361h-500v-97h500v97z" />
    <glyph glyph-name="periodcentered.cap" horiz-adv-x="299" 
d="M149 282q36 0 54 16.5t18 55.5t-18 55.5t-53 16.5q-36 0 -54.5 -16.5t-18.5 -55.5q0 -40 17 -56t55 -16z" />
    <glyph glyph-name="hyphen.cap" horiz-adv-x="563" 
d="M501 404h-438v-96h438v96z" />
    <glyph glyph-name="onethirdemdash.cap" horiz-adv-x="563" 
d="M501 404h-438v-96h438v96z" />
    <glyph glyph-name="endash.cap" horiz-adv-x="445" 
d="M383 404h-320v-96h320v96z" />
    <glyph glyph-name="threequarteremdash.cap" horiz-adv-x="525" 
d="M463 404h-400v-96h400v96z" />
    <glyph glyph-name="emdash.cap" horiz-adv-x="625" 
d="M563 404h-500v-96h500v96z" />
    <glyph glyph-name="figuredash.cap" horiz-adv-x="725" 
d="M663 404h-600v-96h600v96z" />
    <glyph glyph-name="uni2015.cap" horiz-adv-x="675" 
d="M613 404h-550v-96h550v96z" />
    <glyph glyph-name="periodcentered.smcp" horiz-adv-x="1025" 
d="M963 404h-900v-96h900v96z" />
    <glyph glyph-name="parenleft.cap" horiz-adv-x="425" 
d="M383 -125v93q-59 6 -106.5 47t-74.5 120q-13 40 -20 89.5t-7 109.5v23q0 121 27 199.5t74 119.5q24 21 50.5 33.5t56.5 16.5v91q-87 -9 -157.5 -61t-111.5 -150q-20 -49 -30.5 -110.5t-10.5 -135.5v-32q0 -149 39.5 -246.5t109.5 -148.5q35 -25 75.5 -39.5t85.5 -18.5z
" />
    <glyph glyph-name="parenright.cap" horiz-adv-x="425" 
d="M42 -125q91 8 161 58.5t109 148.5q20 48 30 110t10 136v32q0 149 -41 246.5t-111 149.5q-35 25 -74.5 40.5t-83.5 19.5v-91q60 -8 107 -49t74 -119q14 -40 20.5 -89.5t6.5 -110.5v-23q0 -120 -27.5 -199t-74.5 -120q-23 -20 -49.5 -32t-56.5 -15v-93z" />
    <glyph glyph-name="bracketleft.cap" horiz-adv-x="404" 
d="M361 -43h-171v778h171v80h-269v-938h269v80z" />
    <glyph glyph-name="bracketright.cap" horiz-adv-x="404" 
d="M312 -123v937h-269v-79h172v-778h-172v-80h269z" />
    <glyph glyph-name="braceleft.cap" horiz-adv-x="419" 
d="M378 -123v78h-66q-59 0 -80 22t-21 58q0 18 9 45t20 59q11 31 20 61.5t9 53.5q0 39 -25 69.5t-79 34.5q55 4 77.5 30.5t22.5 68.5q0 31 -13 68.5t-26 72.5q-6 18 -9.5 32.5t-3.5 25.5q0 35 21.5 58t80.5 23h63v78h-110q-63 0 -97 -18t-46 -48q-7 -15 -10 -31t-3 -34
q0 -25 8 -54t19 -58q10 -30 18 -56t8 -46q0 -34 -18.5 -51t-56.5 -17h-63v-88h67q36 0 57 -19t21 -55q0 -19 -10 -48t-22 -62q-13 -33 -23 -65t-10 -57q0 -36 13 -65.5t47 -47.5q17 -9 41.5 -13.5t55.5 -4.5h114z" />
    <glyph glyph-name="braceright.cap" horiz-adv-x="419" 
d="M156 -123q63 0 96.5 18t46.5 48q7 15 10 31t3 34q0 25 -10 57t-22 65q-13 33 -23 62t-10 48q0 36 21.5 55t57.5 19h66v88h-63q-37 0 -56 17t-19 51q0 20 8 46t19 56q10 29 18 58t8 54q0 35 -12.5 65t-46.5 48q-17 9 -41 13.5t-56 4.5h-109v-78h63q59 0 80 -23t21 -58
q0 -23 -13 -58t-26 -72q-6 -19 -9.5 -36t-3.5 -33q0 -42 23 -68.5t78 -30.5q-55 -4 -80 -34.5t-25 -69.5q0 -23 9 -53.5t21 -61.5q11 -32 20 -59t9 -45q0 -36 -21.5 -58t-80.5 -22h-65v-78h114z" />
    <glyph glyph-name="anglebracketleft.cap" horiz-adv-x="383" 
d="M361 -124l-209 472l200 468h-98l-201 -471l206 -469h102z" />
    <glyph glyph-name="anglebracketright.cap" horiz-adv-x="383" 
d="M124 -124l207 469l-202 471h-97l200 -468l-210 -472h102z" />
    <glyph glyph-name="underscore" horiz-adv-x="640" 
d="M604 97h-568v-97h568v97z" />
    <glyph glyph-name="at.cap" horiz-adv-x="836" 
d="M419 -61q86 0 161 36t118 98l-86 26q-32 -37 -80 -59.5t-112 -22.5q-131 0 -208.5 75t-77.5 235v33q0 104 36.5 175t102.5 107q33 19 71.5 28t82.5 9q101 0 161 -37.5t87 -102.5q13 -33 19.5 -69t6.5 -77v-6q0 -92 -18 -130.5t-51 -38.5q-26 0 -40 16t-14 59v260h-46
l-15 -76q-12 35 -41 58t-77 23q-71 0 -112 -51t-41 -140v-37q0 -88 36.5 -138.5t112.5 -50.5q47 0 76.5 21t42.5 58q13 -37 43 -55t72 -18q69 0 110 60.5t41 182.5v9q0 74 -21.5 139t-64.5 114q-43 50 -109.5 78t-156.5 28q-108 1 -192 -45.5t-131 -133.5q-24 -44 -36 -97
t-12 -115v-47q0 -134 47 -218.5t129 -123.5q41 -19 87.5 -29t98.5 -10zM412 211q-46 0 -66.5 31.5t-20.5 89.5v33q0 61 24 92.5t68 31.5t64.5 -27.5t20.5 -87.5v-51q0 -56 -22.5 -84t-67.5 -28z" />
    <glyph glyph-name="registered.cap" horiz-adv-x="808" 
d="M406 -15q99 0 178.5 40t125.5 118q24 39 35.5 87t11.5 105v31q0 112 -47.5 192t-128.5 122q-40 22 -84.5 32.5t-93.5 10.5q-100 0 -179.5 -43.5t-126.5 -124.5q-23 -40 -34.5 -88t-11.5 -103v-29q0 -118 46.5 -196t126.5 -116q40 -19 85.5 -28.5t96.5 -9.5zM406 54
q-85 0 -149.5 33t-99.5 97q-18 32 -27 71.5t-9 85.5v16q0 92 35.5 158.5t99.5 101.5q32 18 68.5 27t78.5 9q83 0 147 -34.5t101 -99.5q18 -33 27 -72.5t9 -86.5v-19q0 -93 -35 -157t-98 -97q-32 -17 -69 -25t-79 -8zM417 489q43 0 61.5 -14.5t18.5 -46.5q0 -33 -20.5 -50
t-61.5 -17h-86v128h88zM413 303q43 0 58 -12.5t15 -51.5v-60q0 -7 2 -12t5 -8h69q-4 3 -6 8t-2 12v60q0 42 -12.5 64.5t-42.5 30.5q32 11 49 35t17 63q0 53 -35 84t-112 31h-155v-388h66v144h84z" />
    <glyph glyph-name="zero.inf" horiz-adv-x="363" 
d="M34 0zM181 -168q71 0 109.5 43.5t38.5 128.5v25q0 84 -40 128.5t-108 44.5q-70 0 -108.5 -45t-38.5 -129v-24q0 -86 37 -129t110 -43zM181 -99q-38 0 -55 27t-17 76v24q0 49 17 77t55 28q37 0 55 -28t18 -77v-23q0 -49 -18.5 -76.5t-54.5 -27.5z" />
    <glyph glyph-name="one.inf" horiz-adv-x="254" 
d="M23 0zM236 -160v64h-71v292h-56q-5 -29 -22.5 -46.5t-49.5 -19.5v-55h63v-171h-77v-64h213z" />
    <glyph glyph-name="two.inf" horiz-adv-x="334" 
d="M29 0zM307 -160v62h-197q9 21 31 36t50 28q28 14 54 30t43 40q8 12 12.5 27t4.5 33q0 47 -32.5 76.5t-101.5 29.5q-65 0 -101.5 -32.5t-36.5 -92.5v-14h71v12q0 32 15.5 50t50.5 18t48.5 -12.5t13.5 -35.5q0 -27 -20.5 -44.5t-50.5 -32.5t-60.5 -32t-50.5 -43
q-11 -13 -16 -30t-5 -37v-36h278z" />
    <glyph glyph-name="three.inf" horiz-adv-x="345" 
d="M27 0zM171 -167q68 0 105.5 29.5t37.5 76.5q0 34 -15.5 54.5t-42.5 29.5q26 10 38.5 29.5t12.5 49.5q0 44 -34.5 72t-99.5 28q-67 0 -103 -32t-36 -85v-6h72v4q0 26 16 42t50 16q33 0 48.5 -12t15.5 -32q0 -23 -12 -36t-41 -13h-49v-57h49q29 0 43.5 -11.5t14.5 -35.5
q0 -25 -17.5 -37.5t-53.5 -12.5q-38 0 -54 16t-16 44v7h-73v-9q0 -61 34.5 -90t109.5 -29z" />
    <glyph glyph-name="four.inf" horiz-adv-x="339" 
d="M16 0zM204 99l4 5l-1 -7v-126h-111zM327 -84v55h-58v225h-60l-193 -230v-50h191v-76h62v76h58z" />
    <glyph glyph-name="five.inf" horiz-adv-x="348" 
d="M33 0zM177 -167q73 0 109.5 35t36.5 97q0 58 -33.5 86.5t-86.5 28.5q-34 0 -57.5 -10.5t-39.5 -27.5l13 90h115q37 0 51 15t14 49h-234l-22 -195l61 -17l2 3q12 15 30 27t46 12q32 0 52.5 -14t20.5 -49q0 -33 -19.5 -52.5t-57.5 -19.5q-35 0 -52 16t-17 43v2h-76v-1
q1 -56 34 -87t110 -31z" />
    <glyph glyph-name="six.inf" horiz-adv-x="361" 
d="M34 0zM327 -45q0 56 -33 82t-94 26q-35 0 -59.5 -13.5t-39.5 -40.5v18q0 58 21.5 87t63.5 29q27 0 41.5 -11.5t18.5 -30.5h74q-5 49 -40.5 75t-95.5 26q-73 0 -111.5 -45t-38.5 -129v-24q0 -86 38.5 -129t115.5 -43q65 0 102 34.5t37 88.5zM188 -107q-35 0 -55.5 18
t-27.5 53q7 23 28.5 36t55.5 13q32 0 51.5 -13.5t19.5 -44.5q0 -28 -17.5 -45t-54.5 -17z" />
    <glyph glyph-name="seven.inf" horiz-adv-x="301" 
d="M18 0zM141 -160q12 54 35 108.5t52 103.5q14 25 28.5 46.5t28.5 40.5v57h-267v-64h195q-26 -32 -56 -79.5t-56 -102.5q-13 -28 -23 -55t-17 -55h80z" />
    <glyph glyph-name="eight.inf" horiz-adv-x="356" 
d="M31 0zM176 -167q73 0 111.5 26t38.5 76q0 35 -18.5 56.5t-47.5 31.5q26 8 42 27.5t16 49.5q0 49 -38 75.5t-101 26.5t-100 -27t-37 -75q0 -30 14 -49.5t41 -28.5q-29 -10 -47.5 -32.5t-18.5 -54.5q0 -51 35.5 -76.5t109.5 -25.5zM169 45q-28 0 -44 13t-16 36q0 25 19 39
t51 14q35 0 53 -14t18 -38q0 -25 -17 -37.5t-46 -12.5h-18zM178 -111q-38 0 -57.5 14t-19.5 39q0 23 17 38.5t50 15.5h19q35 0 52.5 -13.5t17.5 -40.5q0 -25 -20.5 -39t-58.5 -14z" />
    <glyph glyph-name="nine.inf" horiz-adv-x="352" 
d="M29 0zM167 21q-31 0 -51 13.5t-20 44.5q0 29 18.5 45.5t54.5 16.5q33 0 53.5 -16.5t28.5 -49.5q-7 -25 -27.5 -39.5t-56.5 -14.5zM172 -168q76 0 113 45t37 129v24q0 87 -41 129.5t-115 42.5q-67 0 -102 -35t-35 -88q0 -55 33 -81.5t94 -26.5q36 0 60.5 15t38.5 44v-23
q0 -58 -21 -87t-64 -29q-28 0 -43 13t-19 34h-75q6 -52 42 -79t97 -27z" />
    <glyph glyph-name="plus.inf" horiz-adv-x="351" 
d="M46 0zM302 -18v58h-99v95h-60v-95h-97v-58h97v-99h60v99h99z" />
    <glyph glyph-name="minus.inf" horiz-adv-x="351" 
d="M46 0zM302 -20v62h-256v-62h256z" />
    <glyph glyph-name="equal.inf" horiz-adv-x="351" 
d="M49 0zM299 47v60h-250v-60h250zM299 -84v59h-250v-59h250z" />
    <glyph glyph-name="parenleft.inf" horiz-adv-x="258" 
d="M50 0zM50 -8q0 -128 54.5 -191t140.5 -68v71q-56 5 -92 49.5t-36 144.5v23q0 101 35 148t93 53v67q-85 -7 -140 -72.5t-55 -192.5v-32z" />
    <glyph glyph-name="parenright.inf" horiz-adv-x="258" 
d="M13 0zM13 -267q86 5 140.5 68t54.5 191v32q0 127 -54.5 192.5t-140.5 72.5v-68q59 -6 93.5 -52.5t34.5 -147.5v-23q0 -100 -36 -145t-92 -50v-70z" />
    <glyph glyph-name="onesixteenth" horiz-adv-x="1136" 
d="M312 355v64h-71v292h-56q-5 -29 -22.5 -47t-49.5 -20v-54h63v-171h-77v-64h213zM497 401l290 267l-97 75l-225 -317zM384 338l-302 -281l99 -81l232 337zM1060 115q0 56 -33 82t-94 26q-35 0 -59.5 -13.5t-39.5 -40.5v18q0 58 21.5 87t63.5 29q27 0 41.5 -11.5
t18.5 -30.5h74q-5 49 -40.5 75t-95.5 26q-73 0 -111.5 -45t-38.5 -129v-24q0 -86 38.5 -129t115.5 -43q65 0 102 34.5t37 88.5zM921 53q-35 0 -55.5 18t-27.5 53q7 23 28.5 36t55.5 13q32 0 51.5 -13.5t19.5 -44.5q0 -28 -17.5 -45t-54.5 -17zM714 0v64h-71v292h-56
q-5 -29 -22.5 -46.5t-49.5 -19.5v-55h63v-171h-77v-64h213z" />
    <glyph glyph-name="threesixteenths" horiz-adv-x="1136" 
d="M62 0zM497 401l290 267l-97 75l-225 -317zM384 338l-302 -281l99 -81l232 337zM1060 115q0 56 -33 82t-94 26q-35 0 -59.5 -13.5t-39.5 -40.5v18q0 58 21.5 87t63.5 29q27 0 41.5 -11.5t18.5 -30.5h74q-5 49 -40.5 75t-95.5 26q-73 0 -111.5 -45t-38.5 -129v-24
q0 -86 38.5 -129t115.5 -43q65 0 102 34.5t37 88.5zM921 53q-35 0 -55.5 18t-27.5 53q7 23 28.5 36t55.5 13q32 0 51.5 -13.5t19.5 -44.5q0 -28 -17.5 -45t-54.5 -17zM714 1v64h-71v292h-56q-5 -29 -22.5 -46.5t-49.5 -19.5v-55h63v-171h-77v-64h213zM206 347
q68 0 105.5 29.5t37.5 76.5q0 34 -15.5 54.5t-42.5 29.5q26 10 38.5 29.5t12.5 49.5q0 44 -34.5 72t-99.5 28q-67 0 -103 -32t-36 -85v-6h72v4q0 26 16 42t50 16q33 0 48.5 -12t15.5 -32q0 -23 -12 -36t-41 -13h-49v-57h49q29 0 43.5 -11.5t14.5 -35.5q0 -25 -17.5 -37.5
t-53.5 -12.5q-38 0 -54 16t-16 44v7h-73v-9q0 -61 34.5 -90t109.5 -29z" />
    <glyph glyph-name="fivesixteenths" horiz-adv-x="1136" 
d="M64 0zM497 401l290 267l-97 75l-225 -317zM384 338l-302 -281l99 -81l232 337zM1060 115q0 56 -33 82t-94 26q-35 0 -59.5 -13.5t-39.5 -40.5v18q0 58 21.5 87t63.5 29q27 0 41.5 -11.5t18.5 -30.5h74q-5 49 -40.5 75t-95.5 26q-73 0 -111.5 -45t-38.5 -129v-24
q0 -86 38.5 -129t115.5 -43q65 0 102 34.5t37 88.5zM921 53q-35 0 -55.5 18t-27.5 53q7 23 28.5 36t55.5 13q32 0 51.5 -13.5t19.5 -44.5q0 -28 -17.5 -45t-54.5 -17zM714 1v64h-71v292h-56q-5 -29 -22.5 -46.5t-49.5 -19.5v-55h63v-171h-77v-64h213zM208 348q73 0 109.5 35
t36.5 97q0 58 -33.5 86.5t-86.5 28.5q-34 0 -57.5 -10.5t-39.5 -27.5l13 90h115q37 0 51 15t14 49h-234l-22 -195l61 -17l2 3q12 15 30 27t46 12q32 0 52.5 -14t20.5 -49q0 -33 -19.5 -52.5t-57.5 -19.5q-35 0 -52 16t-17 43v2h-76v-1q1 -56 34 -87t110 -31z" />
    <glyph glyph-name="sevensixteenths" horiz-adv-x="1136" 
d="M82 0zM497 401l290 267l-97 75l-225 -317zM384 338l-302 -281l99 -81l232 337zM1060 115q0 56 -33 82t-94 26q-35 0 -59.5 -13.5t-39.5 -40.5v18q0 58 21.5 87t63.5 29q27 0 41.5 -11.5t18.5 -30.5h74q-5 49 -40.5 75t-95.5 26q-73 0 -111.5 -45t-38.5 -129v-24
q0 -86 38.5 -129t115.5 -43q65 0 102 34.5t37 88.5zM921 53q-35 0 -55.5 18t-27.5 53q7 23 28.5 36t55.5 13q32 0 51.5 -13.5t19.5 -44.5q0 -28 -17.5 -45t-54.5 -17zM714 1v64h-71v292h-56q-5 -29 -22.5 -46.5t-49.5 -19.5v-55h63v-171h-77v-64h213zM245 355
q12 54 35 108.5t52 103.5q14 25 28.5 46.5t28.5 40.5v57h-267v-64h195q-26 -32 -56 -79.5t-56 -102.5q-13 -28 -23 -55t-17 -55h80z" />
    <glyph glyph-name="ninesixteenths" horiz-adv-x="1136" 
d="M78 0zM497 401l290 267l-97 75l-225 -317zM384 338l-302 -281l99 -81l232 337zM1060 115q0 56 -33 82t-94 26q-35 0 -59.5 -13.5t-39.5 -40.5v18q0 58 21.5 87t63.5 29q27 0 41.5 -11.5t18.5 -30.5h74q-5 49 -40.5 75t-95.5 26q-73 0 -111.5 -45t-38.5 -129v-24
q0 -86 38.5 -129t115.5 -43q65 0 102 34.5t37 88.5zM921 53q-35 0 -55.5 18t-27.5 53q7 23 28.5 36t55.5 13q32 0 51.5 -13.5t19.5 -44.5q0 -28 -17.5 -45t-54.5 -17zM714 1v64h-71v292h-56q-5 -29 -22.5 -46.5t-49.5 -19.5v-55h63v-171h-77v-64h213zM216 536
q-31 0 -51 13.5t-20 44.5q0 29 18.5 45.5t54.5 16.5q33 0 53.5 -16.5t28.5 -49.5q-7 -25 -27.5 -39.5t-56.5 -14.5zM221 347q76 0 113 45t37 129v24q0 87 -41 129.5t-115 42.5q-67 0 -102 -35t-35 -88q0 -55 33 -81.5t94 -26.5q36 0 60.5 15t38.5 44v-23q0 -58 -21 -87
t-64 -29q-28 0 -43 13t-19 34h-75q6 -52 42 -79t97 -27z" />
    <glyph glyph-name="elevensixteenths" horiz-adv-x="1404" 
d="M312 355v64h-71v292h-56q-4 -29 -21.5 -47t-49.5 -20v-54q8 0 27 2.5t35 6.5v-180h-77v-64h213zM580 355v64h-71v292h-56q-4 -29 -21.5 -47t-49.5 -20v-54q8 0 27 2.5t35 6.5v-180h-77v-64h213zM765 401l290 267l-97 75l-225 -317zM652 338l-302 -281l99 -81l232 337z
M1328 115q0 56 -33 82t-94 26q-35 0 -59.5 -13.5t-39.5 -40.5v18q0 58 21.5 87t63.5 29q27 0 41.5 -11.5t18.5 -30.5h74q-5 49 -40.5 75t-95.5 26q-73 0 -111.5 -45t-38.5 -129v-24q0 -86 38.5 -129t115.5 -43q65 0 102 34.5t37 88.5zM1189 53q-35 0 -55.5 18t-27.5 53
q7 23 28.5 36t55.5 13q32 0 51.5 -13.5t19.5 -44.5q0 -28 -17.5 -45t-54.5 -17zM982 0v64h-71v292h-56q-5 -29 -22.5 -46.5t-49.5 -19.5v-55h63v-171h-77v-64h213z" />
    <glyph glyph-name="thirteensixteenths" horiz-adv-x="1438" 
d="M312 355v64h-71v292h-56q-4 -29 -21.5 -47t-49.5 -20v-54q8 0 27 2.5t35 6.5v-180h-77v-64h213zM799 401l290 267l-97 75l-225 -317zM686 338l-302 -281l99 -81l232 337zM1362 115q0 56 -33 82t-94 26q-35 0 -59.5 -13.5t-39.5 -40.5v18q0 58 21.5 87t63.5 29
q27 0 41.5 -11.5t18.5 -30.5h74q-5 49 -40.5 75t-95.5 26q-73 0 -111.5 -45t-38.5 -129v-24q0 -86 38.5 -129t115.5 -43q65 0 102 34.5t37 88.5zM1223 53q-35 0 -55.5 18t-27.5 53q7 23 28.5 36t55.5 13q32 0 51.5 -13.5t19.5 -44.5q0 -28 -17.5 -45t-54.5 -17zM1016 1v64
h-71v292h-56q-5 -29 -22.5 -46.5t-49.5 -19.5v-55h63v-171h-77v-64h213zM513 347q68 0 105.5 29.5t37.5 76.5q0 34 -15.5 54.5t-42.5 29.5q26 10 38.5 29.5t12.5 49.5q0 44 -34.5 72t-99.5 28q-67 0 -103 -32t-36 -85v-6h72v4q0 26 16 42t50 16q33 0 48.5 -12t15.5 -32
q0 -23 -12 -36t-41 -13h-49v-57h49q29 0 43.5 -11.5t14.5 -35.5q0 -25 -17.5 -37.5t-53.5 -12.5q-38 0 -54 16t-16 44v7h-73v-9q0 -61 34.5 -90t109.5 -29z" />
    <glyph glyph-name="fifteensixteenths" horiz-adv-x="1438" 
d="M312 355v64h-71v292h-56q-4 -29 -21.5 -47t-49.5 -20v-54q8 0 27 2.5t35 6.5v-180h-77v-64h213zM799 401l290 267l-97 75l-225 -317zM686 338l-302 -281l99 -81l232 337zM1362 115q0 56 -33 82t-94 26q-35 0 -59.5 -13.5t-39.5 -40.5v18q0 58 21.5 87t63.5 29
q27 0 41.5 -11.5t18.5 -30.5h74q-5 49 -40.5 75t-95.5 26q-73 0 -111.5 -45t-38.5 -129v-24q0 -86 38.5 -129t115.5 -43q65 0 102 34.5t37 88.5zM1223 53q-35 0 -55.5 18t-27.5 53q7 23 28.5 36t55.5 13q32 0 51.5 -13.5t19.5 -44.5q0 -28 -17.5 -45t-54.5 -17zM1016 1v64
h-71v292h-56q-5 -29 -22.5 -46.5t-49.5 -19.5v-55h63v-171h-77v-64h213zM515 348q73 0 109.5 35t36.5 97q0 58 -33.5 86.5t-86.5 28.5q-34 0 -57.5 -10.5t-39.5 -27.5l13 90h115q37 0 51 15t14 49h-234l-22 -195l61 -17l2 3q12 15 30 27t46 12q32 0 52.5 -14t20.5 -49
q0 -33 -19.5 -52.5t-57.5 -19.5q-35 0 -52 16t-17 43v2h-76v-1q1 -56 34 -87t110 -31z" />
    <glyph glyph-name="mediumwhitecircle" horiz-adv-x="737" 
d="M368 -10q84 0 150.5 38.5t105.5 104.5q19 33 28.5 70.5t9.5 78.5q0 85 -39 151t-105 105q-34 19 -71 28.5t-79 9.5q-82 0 -149 -38.5t-106 -104.5q-19 -34 -29 -71.5t-10 -79.5q0 -83 38 -149.5t105 -104.5q33 -19 71 -28.5t80 -9.5zM368 78q-58 0 -102.5 27t-69.5 73
q-12 23 -18.5 49t-6.5 55q0 60 25 106.5t70 72.5q22 14 47.5 20.5t54.5 6.5q57 0 102 -26.5t71 -72.5q13 -23 19.5 -50t6.5 -57q0 -58 -26 -104.5t-71 -72.5q-22 -14 -47.5 -20.5t-54.5 -6.5z" />
    <glyph glyph-name="mediumblackcircle" horiz-adv-x="737" 
d="M368 -10q84 0 150.5 38.5t105.5 104.5q19 33 28.5 70.5t9.5 78.5q0 85 -39 151t-105 105q-34 19 -71 28.5t-79 9.5q-82 0 -149 -38.5t-106 -104.5q-19 -34 -29 -71.5t-10 -79.5q0 -83 38 -149.5t105 -104.5q33 -19 71 -28.5t80 -9.5z" />
    <glyph glyph-name="ballotboxwithx" horiz-adv-x="736" 
d="M87 0h562v562h-562v-562zM183 473h371v-383h-371v383zM453 145l50 50l-84 84l83 85l-49 51l-85 -86l-85 85l-49 -50l85 -85l-85 -86l50 -51l85 87z" />
    <glyph glyph-name=".ttfautohint" horiz-adv-x="365" 
d="M0 0z" />
    </font>
</defs>
</svg>
