<?xml version="1.0" standalone="no"?>
<!DOCTYPE svg PUBLIC "-//W3C//DTD SVG 1.1//EN" "http://www.w3.org/Graphics/SVG/1.1/DTD/svg11.dtd" >
<svg>
<metadata>
Created by FontForge 20090622 at Wed Apr  3 03:16:41 2019
 By deploy user
&#194;&#169; 2018 Klim Type Foundry. All Rights Reserved.
</metadata>
<defs>
<font id="TiemposFineBlack" horiz-adv-x="500" >
  <font-face 
    font-family="Tiempos Fine Black"
    font-weight="900"
    font-stretch="normal"
    units-per-em="1000"
    panose-1="2 2 10 3 6 3 3 6 4 3"
    ascent="800"
    descent="-200"
    x-height="540"
    cap-height="701"
    bbox="-199 -253 1347 953"
    underline-thickness="30"
    underline-position="-115"
    unicode-range="U+000D-U+FB04"
  />
<missing-glyph horiz-adv-x="960" 
d="M870 0h-780v780h780v-780zM759 714h-558l279 -279zM160 115l275 275l-275 275v-550zM800 665l-275 -275l275 -275v550zM759 66l-279 279l-279 -279h558z" />
    <glyph glyph-name="ff" unicode="ff" horiz-adv-x="712" 
d="M272 493l3 -444q0 -12 4 -19q5 -8 12 -12q5 -2 12 -3t24 -3v-14h-312v14q17 2 24 3t12 3q7 4 12 12q4 7 4 19v443h-71v6l71 53v4q0 50 20 93t57 71q34 25 80 39q47 14 98 14q57 0 92 -16q37 -17 50 -48q16 17 41 34q22 15 50 24q26 8 52 12q30 5 56 5q34 0 57 -4
q27 -5 45 -13q29 -12 42 -33q14 -22 14 -49q0 -10 -3 -21q-2 -7 -8 -21q-4 -10 -12 -18t-15 -12h-103q2 20 3 31q2 22 2 33q0 22 -1 30q-2 16 -3 23q-4 19 -12 28q-7 9 -19 9q-20 0 -29 -18t-9 -58v-159h114v-40h-114v-438q0 -13 6 -21t21 -12q6 -2 18 -4l29 -3v-14h-334v14
q16 1 24 3l12 3q8 5 12 12t4 19v443h-132zM275 681l-1 -151h132v23q0 14 1 22q2 13 3 28h-71q2 20 3 31q2 22 2 33v31q0 9 -2 21q-3 21 -10 29q-8 9 -19 9q-20 0 -29 -18t-9 -58z" />
    <glyph glyph-name="fi" unicode="fi" horiz-adv-x="672" 
d="M272 640v-111h208l126 20h4v-503q0 -12 4 -19t12 -12l12 -3t24 -3v-14h-312v14q16 1 24 3l12 3q8 5 12 12t4 19v443h-132v-443q0 -12 4 -19t12 -12l12 -3t24 -3v-14h-312v14q16 1 24 3l12 3q8 5 12 12t4 19v443h-71v6l71 53v4q0 55 23 101q23 45 69 75q37 25 89 39
q53 14 109 14q40 0 67 -4q30 -5 54 -12q34 -13 52 -36t18 -52q0 -11 -3 -21q-3 -12 -10 -21q-6 -11 -15 -18t-18 -12h-121q6 20 8 35q3 18 3 34q0 50 -12 72q-12 23 -37 23q-20 0 -33 -12t-21 -36q-6 -15 -9 -36t-3 -45z" />
    <glyph glyph-name="fl" unicode="fl" horiz-adv-x="672" 
d="M288 20l5 -4q5 -2 12 -3t24 -3v-14h-312v14q17 2 24 3t12 3q7 4 12 12q4 7 4 19v443h-71v6l71 53v4q0 55 21 98q21 44 62 74q36 27 85 42t102 15q27 0 41 -1q26 -2 40 -4q27 -5 44 -9q20 -4 33 -12l110 27h4v-733q0 -12 4 -19q5 -7 12 -12q5 -1 12 -3t24 -3v-14h-312v14
q17 1 24 3t12 3q7 5 12 12q4 7 4 19v674q-8 20 -24 32q-17 12 -40 12q-33 0 -50 -26t-17 -78v-130h92v-40h-92v-443q0 -12 4 -19q4 -8 12 -12z" />
    <glyph glyph-name="ffi" unicode="ffi" horiz-adv-x="1010" 
d="M272 493l2 -447q0 -12 4 -19t12 -12l12 -3t24 -3v-14h-312v14q16 1 24 3l12 3q8 5 12 12t4 19v443h-71v6l71 53v4q0 50 20 93t57 71q34 25 80 39q47 14 98 14q24 0 45 -3q22 -3 38 -9q22 -9 38 -23q15 -14 21 -33q22 21 48 35q29 16 59 26q31 10 60 14q35 5 64 5
q40 0 67 -4q30 -5 54 -12q34 -13 52 -36t18 -52q0 -11 -3 -21q-3 -12 -10 -21q-6 -11 -15 -18t-18 -12h-121q6 20 8 35q3 18 3 34q0 50 -12 72q-12 23 -37 23q-20 0 -33 -12t-21 -36q-6 -15 -9 -36t-3 -45v-107h208l126 20h4v-503q0 -12 4 -19t12 -12l12 -3t24 -3v-14h-312
v14q16 1 24 3l12 3q8 5 12 12t4 19v443h-132v-443q0 -12 4 -19t12 -12l12 -3t24 -3v-14h-312v14q16 1 24 3l12 3q8 5 12 12t4 19v443h-132zM274 678l-1 -149h132v23q0 8 2 24l3 24h-72q2 20 3 31q2 22 2 33v31q0 9 -2 21q-3 21 -10 29q-8 9 -19 9q-20 0 -29 -18t-9 -58z" />
    <glyph glyph-name="ffl" unicode="ffl" horiz-adv-x="1010" 
d="M272 493l5 -448q0 -12 4 -19q5 -8 12 -12q5 -2 12 -3t24 -3v-14h-312v14q17 2 24 3t12 3q7 4 12 12q4 7 4 19v443h-71v6l71 53v4q0 50 20 93t57 71q34 25 80 39q47 14 98 14q24 0 45 -3q22 -3 38 -9q23 -9 37 -22t22 -33q21 21 45 35q28 17 55 26q28 10 54 14q32 5 59 5
t41 -1q26 -2 40 -4q27 -5 44 -9q20 -5 33 -12l110 27h4v-733q0 -12 4 -19q5 -8 12 -12q5 -2 12 -3t24 -3v-14h-312v14q17 2 24 3t12 3q7 4 12 12q4 7 4 19v674q-8 20 -24 32t-40 12q-33 0 -50 -26t-17 -78v-130h92v-40h-92v-443q0 -12 4 -19t12 -12l12 -3t24 -3v-14h-312v14
q16 1 24 3l12 3q8 5 12 12t4 19v443h-132zM277 677l-1 -149h132v23q0 8 2 24l3 24h-72q2 20 3 31q2 22 2 33v31q0 9 -2 21q-3 21 -10 29q-7 9 -19 9q-20 0 -29 -18t-9 -58z" />
    <glyph glyph-name="f_b" unicode="fb" horiz-adv-x="997" 
d="M830 30l4 -2q-34 -20 -75 -30q-39 -10 -84 -10q-37 0 -72 3q-31 3 -66 11q-39 8 -72 21q-32 13 -57 32v666q-8 20 -24 32q-17 12 -40 12q-33 0 -50 -26t-17 -78v-130h92v-40h-92v-443q0 -12 4 -19q5 -7 12 -12q5 -1 12 -3t24 -3v-14h-312v14q17 1 24 3t12 3q7 5 12 12
q4 7 4 19v443h-71v6l71 53v4q0 54 21 98t62 74q36 27 85 42t102 15q27 0 41 -1q26 -2 40 -4q27 -5 44 -9q20 -5 33 -12l110 27h4v-339q10 21 29 42q18 20 41 35q24 16 48 23q27 8 53 8q47 0 87 -20q39 -19 66 -57q22 -32 34 -76q12 -43 12 -94q0 -44 -9 -85q-9 -42 -28 -75
q-20 -38 -48 -66q-30 -30 -66 -50zM675 5v-2q29 0 50 24t33 71q8 28 12 63q4 31 4 75q0 35 -5 72q-4 32 -15 58q-13 37 -38 57t-56 20q-14 0 -24 -3q-14 -4 -21 -7v-316q0 -55 15 -83q15 -29 45 -29z" />
    <glyph glyph-name="f_f_b" unicode="ffb" horiz-adv-x="1335" 
d="M272 493l4 -446q0 -12 4 -19q4 -8 12 -12q4 -2 12 -3l24 -3v-14h-312v14l24 3t12 3q8 4 12 12q4 7 4 19v443h-71v6l71 53v4q0 50 20 93t57 71q34 25 80 39q47 14 98 14q24 0 45 -3q22 -3 38 -9q23 -9 37 -22t22 -33q21 21 45 35q28 17 55 26q28 10 54 14q32 5 59 5t41 -1
q26 -2 40 -4q27 -5 44 -9q19 -5 33 -12l110 27h4v-339q10 21 29 42q18 20 41 35q24 16 48 23q27 8 53 8q47 0 87 -20q39 -19 66 -57q22 -32 34 -76q12 -43 12 -94q0 -44 -9 -85q-9 -42 -28 -75q-19 -38 -48 -66q-30 -30 -66 -50q-35 -20 -75 -30q-39 -10 -84 -10
q-38 0 -72 3q-31 3 -66 11q-39 8 -72 21q-32 13 -57 32v666q-8 20 -24 32t-40 12q-33 0 -50 -26t-17 -78v-130h92v-40h-92v-443q0 -12 4 -19t12 -12l12 -3t24 -3v-14h-312v14q16 1 24 3l12 3q8 5 12 12t4 19v443h-132zM276 679l-1 -149h132v23q0 8 2 24l3 24h-72q2 20 3 31
q2 22 2 33v31q0 9 -2 21q-3 21 -10 29q-8 9 -19 9q-20 0 -29 -18t-9 -58zM1012 4v-2q29 0 50 24t33 71q7 29 12 63q4 31 4 75q0 35 -5 72q-4 32 -15 58q-13 37 -38 57t-56 20q-13 0 -24 -3q-14 -4 -21 -7v-316q0 -54 15 -83t45 -29z" />
    <glyph glyph-name="f_h" unicode="fh" horiz-adv-x="1011" 
d="M288 20l6 -5l12 -3t24 -3v-14h-312v14q16 1 24 3l12 3q8 5 12 12t4 19v443h-71v6l71 53v4q0 54 21 98t62 74q36 27 85 42q50 15 102 15q27 0 41 -1q26 -2 40 -4q27 -5 44 -9q19 -5 33 -12l110 27h4v-343q13 20 35 42q19 19 47 37q29 18 54 26q27 9 54 9q36 0 65 -12
t48 -34q19 -21 30 -51q10 -29 10 -67v-339q0 -12 4 -19q5 -7 12 -12q5 -1 12 -3t24 -3v-14h-312v14q17 1 24 3t12 3q7 5 12 12q4 7 4 19v331q0 33 -16 49t-49 16q-18 0 -34 -3q-18 -3 -37 -10v-383q0 -12 4 -19q5 -7 12 -12q5 -1 12 -3t24 -3v-14h-312v14q17 1 24 3t12 3
q7 5 12 12q4 7 4 19v674q-8 20 -24 32q-17 12 -40 12q-33 0 -50 -26t-17 -78v-130h92v-40h-92v-443q0 -12 4 -19q4 -8 12 -12z" />
    <glyph glyph-name="f_f_h" unicode="ffh" horiz-adv-x="1349" 
d="M272 493l6 -449q0 -12 4 -19t12 -12l12 -3t24 -3v-14h-312v14q16 1 24 3l12 3q8 5 12 12t4 19v443h-71v6l71 53v4q0 50 20 93t57 71q34 25 80 39q47 14 98 14q24 0 45 -3q22 -3 38 -9q23 -9 37 -22t22 -33q21 21 45 35q28 17 55 26q28 10 54 14q32 5 59 5t41 -1
q26 -2 40 -4q27 -5 44 -9q19 -4 33 -12l110 27h4v-343q13 20 35 42q19 19 47 37q29 18 54 26q27 9 54 9q36 0 65 -12t48 -34q19 -21 30 -51q10 -29 10 -67v-339q0 -12 4 -19q5 -8 12 -12q5 -2 12 -3t24 -3v-14h-312v14q17 2 24 3t12 3q7 4 12 12q4 7 4 19v331q0 33 -16 49
t-49 16q-18 0 -34 -3q-18 -3 -37 -10v-383q0 -12 4 -19q5 -8 12 -12q5 -2 12 -3t24 -3v-14h-312v14q17 2 24 3t12 3q7 4 12 12q4 7 4 19v674q-8 20 -24 32t-40 12q-33 0 -50 -26t-17 -78v-130h92v-40h-92v-443q0 -12 4 -19t12 -12l12 -3t24 -3v-14h-312v14q16 1 24 3l12 3
q8 5 12 12t4 19v443h-132zM278 676l-1 -149h132v23q0 8 2 24l3 24h-72q2 20 3 31q2 22 2 33v31q0 9 -2 21q-3 21 -10 29q-7 9 -19 9q-20 0 -29 -18t-9 -58z" />
    <glyph glyph-name="f_idieresis" unicode="f&#xef;" horiz-adv-x="672" 
d="M310 769h3q-20 0 -29 -18t-9 -58v-159h208l126 20h4v-503q0 -12 4 -19q5 -8 12 -12q5 -2 12 -3t24 -3v-14h-312v14q17 2 24 3t12 3q7 4 12 12q4 7 4 19v443h-132v-443q0 -12 4 -19q5 -8 12 -12q5 -2 12 -3t24 -3v-14h-312v14q17 2 24 3t12 3q7 4 12 12q4 7 4 19v443h-71
v6l71 53v4q0 54 19 96q20 43 57 75q34 28 81 43q46 15 99 15q38 0 62 -4q29 -5 48 -13q32 -12 47 -33t15 -49q0 -11 -3 -21q-2 -7 -8 -21q-4 -11 -12 -18t-15 -12h-115q2 20 3 31q2 22 2 33q0 22 -1 30q-2 16 -3 23q-4 19 -12 28q-7 9 -19 9zM558 629l-1 -2q-11 12 -19 30
q-7 15 -7 33t7 33q8 18 19 30q12 11 30 19q15 7 33 7t35 -6t30 -18q13 -13 21 -30q7 -15 7 -34t-7 -34q-8 -17 -21 -30q-13 -12 -30 -18t-34 -6q-18 0 -33 7q-18 8 -30 19z" />
    <glyph glyph-name="f_f_idieresis" unicode="ff&#xef;" horiz-adv-x="1010" 
d="M272 493l3 -442q0 -12 4 -19q5 -8 12 -12q5 -2 12 -3t24 -3v-14h-312v14q17 2 24 3t12 3q7 4 12 12q4 7 4 19v443h-71v6l71 53v4q0 50 20 93t57 71q34 25 80 39q47 14 98 14q57 0 92 -16q37 -17 50 -48q16 17 41 34q22 15 50 24q26 8 52 12q30 5 56 5q38 0 62 -4
q29 -5 48 -13q32 -12 47 -33t15 -49q0 -10 -3 -21q-2 -7 -8 -21q-4 -10 -12 -18t-15 -12h-115q2 20 3 31q2 22 2 33q0 22 -1 30q-2 16 -3 23q-4 19 -12 28t-19 9q-20 0 -29 -18t-9 -58v-159h208l126 20h4v-503q0 -12 4 -19t12 -12l12 -3t24 -3v-14h-312v14q16 1 24 3l12 3
q8 5 12 12t4 19v443h-132v-443q0 -12 4 -19t12 -12l12 -3t24 -3v-14h-312v14q16 1 24 3l12 3q8 5 12 12t4 19v443h-132zM896 630l-1 -2q-11 12 -19 30q-7 15 -7 33t7 33q8 18 19 30q12 11 30 19q15 7 33 7t35 -6t30 -18q13 -14 21 -30q7 -15 7 -34t-7 -34q-8 -16 -21 -30
q-13 -12 -30 -18t-34 -6q-18 0 -33 7q-18 8 -30 19zM274 681l-1 -151h132v23q0 14 1 22q2 13 3 28h-71q2 20 3 31q2 22 2 33v31q0 9 -2 21q-3 21 -10 29q-8 9 -19 9q-20 0 -29 -18t-9 -58z" />
    <glyph glyph-name="f_j" unicode="fj" horiz-adv-x="651" 
d="M610 553v-497q0 -57 -21 -105q-21 -47 -63 -85q-35 -31 -82 -54q-48 -24 -108 -39l-2 4q12 13 21 27q11 16 17 30q8 14 12 30l9 33q4 19 5 32q2 17 3 36q1 7 1 24v43v457h-132v-443q0 -12 4 -19t12 -12l12 -3t24 -3v-14h-312v14q16 1 24 3l12 3q8 5 12 12t4 19v443h-71v6
l71 53v4q0 55 23 101q23 45 69 75q37 25 89 39q53 14 109 14q40 0 67 -4q30 -5 54 -12q34 -13 52 -36t18 -52q0 -11 -3 -21q-3 -12 -10 -21q-6 -11 -15 -18t-18 -12h-121q6 20 8 35q3 18 3 34q0 50 -12 72q-12 23 -37 23q-20 0 -33 -12t-21 -36q-6 -15 -9 -36t-3 -45v-107
h208l126 20h4z" />
    <glyph glyph-name="f_f_j" unicode="ffj" horiz-adv-x="989" 
d="M272 493l2 -448q0 -12 4 -19q4 -8 12 -12q4 -2 12 -3l24 -3v-14h-312v14l24 3t12 3q8 4 12 12q4 7 4 19v443h-71v6l71 53v4q0 50 20 93t57 71q34 25 80 39q47 14 98 14q24 0 45 -3q22 -3 38 -9q22 -9 38 -23q15 -13 21 -33q22 21 48 35q29 16 59 26q31 10 60 14
q35 5 64 5q40 0 67 -4q30 -4 54 -12q34 -13 52 -36q18 -22 18 -52q0 -10 -3 -21q-3 -12 -10 -21q-6 -10 -15 -18t-18 -12h-121q6 20 8 35q3 18 3 34q0 49 -12 72t-37 23q-20 0 -33 -12t-21 -36q-6 -15 -9 -36t-3 -45v-107h208l126 20h4v-492q0 -57 -21 -105q-21 -47 -63 -85
q-35 -31 -82 -54q-48 -24 -108 -39l-2 4q12 13 21 27q11 16 17 30q8 14 12 30l9 33q4 19 5 32q2 17 3 36q1 7 1 24v43v457h-132v-443q0 -12 4 -19t12 -12l12 -3t24 -3v-14h-312v14q16 1 24 3l12 3q8 5 12 12t4 19v443h-132zM274 677l-1 -149h132v23q0 8 2 24l3 24h-72
q2 20 3 31q2 22 2 33v31q0 9 -2 21q-3 21 -10 29q-8 9 -19 9q-20 0 -29 -18t-9 -58z" />
    <glyph glyph-name="f_k" unicode="fk" horiz-adv-x="989" 
d="M288 20l5 -4q5 -2 12 -3t24 -3v-14h-312v14q17 2 24 3t12 3q7 4 12 12q4 7 4 19v443h-71v6l71 53v4q0 55 21 98q21 44 62 74q36 27 85 42t102 15q27 0 41 -1q26 -2 40 -4q27 -5 44 -9q20 -4 33 -12l110 27h4v-733q0 -12 4 -19q5 -7 12 -12q5 -1 12 -3t24 -3v-14h-312v14
q17 1 24 3t12 3q7 5 12 12q4 7 4 19v674q-8 20 -24 32q-17 12 -40 12q-33 0 -50 -26t-17 -78v-130h92v-40h-92v-443q0 -12 4 -19q4 -8 12 -12zM784 -4l-159 270l152 147l15 15q12 12 15 16q11 11 15 19t4 18q0 11 -7 19q-7 9 -21 15q-7 3 -21 7q-9 2 -25 4v14h233v-14
q-35 -3 -62 -16q-30 -14 -53 -36l-93 -85l231 -389v-4h-224z" />
    <glyph glyph-name="f_f_k" unicode="ffk" horiz-adv-x="1327" 
d="M272 493l5 -448q0 -12 4 -19q5 -8 12 -12q5 -2 12 -3t24 -3v-14h-312v14q17 2 24 3t12 3q7 4 12 12q4 7 4 19v443h-71v6l71 53v4q0 50 20 93t57 71q34 25 80 39q47 14 98 14q24 0 45 -3q22 -3 38 -9q23 -9 37 -22t22 -33q21 21 45 35q28 17 55 26q28 10 54 14q32 5 59 5
t41 -1q26 -2 40 -4q27 -5 44 -9q20 -5 33 -12l110 27h4v-733q0 -12 4 -19q5 -8 12 -12q5 -2 12 -3t24 -3v-14h-312v14q17 2 24 3t12 3q7 4 12 12q4 7 4 19v674q-8 20 -24 32t-40 12q-33 0 -50 -26t-17 -78v-130h92v-40h-92v-443q0 -12 4 -19t12 -12l12 -3t24 -3v-14h-312v14
q16 1 24 3l12 3q8 5 12 12t4 19v443h-132zM277 677l-1 -149h132v23q0 8 2 24l3 24h-72q2 20 3 31q2 22 2 33v31q0 9 -2 21q-3 21 -10 29q-7 9 -19 9q-20 0 -29 -18t-9 -58zM1121 -5l-159 270l152 147l15 15q12 12 15 16q11 11 15 19t4 18q0 11 -7 19q-8 9 -21 15q-7 4 -21 7
q-9 2 -25 4v14h233v-14q-35 -3 -62 -16q-30 -14 -53 -36l-93 -85l231 -389v-4h-224z" />
    <glyph glyph-name=".notdef" horiz-adv-x="960" 
d="M870 0h-780v780h780v-780zM759 714h-558l279 -279zM160 115l275 275l-275 275v-550zM800 665l-275 -275l275 -275v550zM759 66l-279 279l-279 -279h558z" />
    <glyph glyph-name=".null" horiz-adv-x="0" 
 />
    <glyph glyph-name="uni000D" unicode="&#xd;" horiz-adv-x="165" 
 />
    <glyph glyph-name="NULL" horiz-adv-x="0" 
 />
    <glyph glyph-name="NULL" horiz-adv-x="0" 
 />
    <glyph glyph-name="space" unicode=" " horiz-adv-x="165" 
 />
    <glyph glyph-name="exclam" unicode="!" horiz-adv-x="305" 
d="M289 702l-128 -461h-17l-128 461h273zM73 21l-2 -1q-17 17 -24 37q-8 22 -8 44t8 44q7 20 23 36q17 15 37 24q21 9 44 9t44 -9q20 -9 37 -24q16 -16 23 -36q8 -22 8 -44q0 -21 -8 -43q-7 -20 -24 -37q-16 -16 -36 -23q-22 -8 -43 -8t-43 8q-20 7 -36 23z" />
    <glyph glyph-name="quotedbl" unicode="&#x22;" horiz-adv-x="390" 
d="M157 595l-56 -180h-4l-56 178q-8 24 -16 56q-6 24 -6 38q0 17 6 32q7 17 16 26q11 12 25 18q15 6 33 6t33 -6q14 -6 25 -18q10 -10 16 -25t6 -32q0 -14 -6 -38q-7 -28 -16 -55zM349 593l-56 -180h-4l-56 178q-8 24 -16 56q-6 24 -6 38q0 17 6 32q7 17 16 26q11 12 25 18
q15 6 33 6t33 -6q14 -6 25 -18q10 -10 16 -25t6 -32q0 -14 -6 -38q-7 -28 -16 -55z" />
    <glyph glyph-name="numbersign" unicode="#" horiz-adv-x="551" 
d="M75 -5l-23 6l72 228h-104v25h112l63 200h-104v25h112l74 234l23 -6l-72 -228h174l74 234l23 -6l-72 -228h104v-25h-112l-63 -200h104v-25h-112l-74 -234l-23 6l72 228h-174zM220 454l-63 -200h174l63 200h-174z" />
    <glyph glyph-name="dollar" unicode="$" horiz-adv-x="572" 
d="M214 -103l-31 -4l17 96q-22 1 -49 8q-32 8 -47 13q-21 7 -48 20q-22 10 -39 24l-12 185h11q9 -36 26 -74q17 -37 39 -65q25 -35 57 -58q30 -22 66 -31l45 250q-14 6 -38 14l-43 15q-24 8 -43 18q-15 8 -33 20q-18 13 -33 29q-14 16 -23 35q-8 16 -13 39q-4 19 -4 45
q0 52 21 96t60 75q37 29 85 46q47 16 100 16h25q8 0 24 -2l17 95h21l-18 -98q42 -6 76 -19q36 -13 66 -33l4 -167h-10q-8 36 -19 63q-11 28 -27 55q-20 30 -42 51q-23 22 -50 32l-39 -214q1 -1 19 -7q25 -9 29 -10l27 -9q16 -6 23 -9q13 -6 24 -12l21 -12l21 -15
q7 -5 19 -15q12 -14 17 -21q10 -14 14 -21q3 -7 9 -23t8 -25q2 -16 3 -25q2 -18 2 -27q0 -39 -10 -72q-11 -36 -31 -63q-20 -28 -48 -51q-28 -22 -64 -37q-32 -14 -67 -21q-34 -7 -73 -7h-16q-6 0 -9 1zM288 692l-1 -2q-26 0 -47 -6t-37 -19q-18 -13 -27 -33t-9 -45
q0 -23 9 -41t30 -33q11 -8 32 -19t48 -20l39 213q-7 1 -19 3t-18 2zM341 28h-1q20 15 30 36q10 20 10 47q0 25 -8 47q-8 21 -24 39q-15 15 -33 26q-19 12 -48 24l-44 -246q6 -1 15 -1h11q29 0 51 7q25 8 41 21z" />
    <glyph glyph-name="percent" unicode="%" horiz-adv-x="664" 
d="M110 -10h-34l478 722h34zM72 452q-24 22 -35 49q-12 29 -12 60t12 60q11 27 35 49q22 21 51 33t59 12t59 -12t51 -33q24 -22 35 -49q12 -29 12 -60t-12 -60q-11 -27 -35 -49q-22 -21 -51 -33q-28 -12 -59 -12q-30 0 -59 12t-51 33zM137 640v-2q-5 -17 -6 -37
q-2 -28 -2 -43t2 -43q1 -20 6 -37q8 -30 19 -44q12 -15 27 -15t27 15q11 14 19 44q4 16 6 38q2 28 2 43t-2 43q-2 22 -6 38q-8 30 -19 44q-12 15 -27 15t-27 -15q-11 -14 -19 -44zM592 248q24 -22 35 -49q12 -29 12 -60t-12 -60q-11 -27 -35 -49q-22 -21 -51 -33t-59 -12
t-59 12t-51 33q-24 22 -35 49q-12 29 -12 60t12 60q11 27 35 49q22 21 51 33t59 12t59 -12t51 -33zM527 60v-2q4 16 6 38q2 28 2 43t-2 43q-2 22 -6 38q-8 30 -19 44q-12 15 -27 15t-27 -15q-11 -14 -19 -44q-5 -17 -6 -37q-2 -28 -2 -43t2 -43q1 -20 6 -37q8 -30 19 -44
q12 -15 27 -15t27 15q11 14 19 44z" />
    <glyph glyph-name="ampersand" unicode="&#x26;" horiz-adv-x="762" 
d="M771 0l-278 -6q-18 16 -26 24q-16 16 -23 24q-42 -28 -90 -43q-46 -15 -95 -15t-92 12q-45 12 -78 34q-39 26 -61 65q-21 37 -21 84q0 66 47 110q46 43 141 66q-18 24 -27 40q-12 20 -18 34q-10 21 -15 42q-4 19 -4 42q0 43 18 81t53 65q32 24 72 36t86 12q43 0 75 -7
q36 -8 63 -22q34 -20 54 -48q19 -28 19 -66q0 -32 -15 -57t-45 -43q-25 -15 -52 -23q-33 -10 -66 -14l175 -218q14 30 20 56q6 27 6 53q0 23 -19 33q-20 11 -60 11v15h212v-15q-25 0 -42 -3t-29 -9q-15 -8 -24 -22q-9 -15 -15 -37q-6 -24 -15 -48q-10 -26 -21 -47l60 -75
l13.5 -16t12 -15t8.5 -10q8 -9 23 -24q21 -20 39 -30q17 -10 34 -10v-16zM355 473l-2 -4l7 -9q7 -9 12 -14l12 -14l1 -1q26 25 38 57q12 33 12 76q0 22 -3 42t-9 35q-8 21 -23 34q-14 12 -33 12q-14 0 -27 -7t-22 -21q-8 -11 -12 -24q-4 -12 -4 -30q0 -8 2 -24q1 -8 5 -24
q2 -7 8 -21q3 -7 11 -21q4 -11 12 -21zM182 254l2 -1q0 -39 12 -75q11 -34 35 -64q25 -31 59 -48t71 -17q15 0 30 3t30 9q-13 13 -37 41q-10 11 -37 47l-146 191q-11 -17 -15 -37q-4 -19 -4 -49z" />
    <glyph glyph-name="quotesingle" unicode="'" horiz-adv-x="198" 
d="M157 595l-56 -180h-4l-56 178q-8 24 -16 56q-6 24 -6 38q0 17 6 32q7 17 16 26q11 12 25 18q15 6 33 6t33 -6q14 -6 25 -18q10 -10 16 -25t6 -32q0 -14 -6 -38q-7 -28 -16 -55z" />
    <glyph glyph-name="parenleft" unicode="(" horiz-adv-x="378" 
d="M143 52l-1 -4q-41 63 -62 128q-21 66 -21 134t21 134q21 65 62 128q38 57 88 105t113 90h15q-70 -76 -105 -191q-35 -116 -35 -264t35 -264q35 -115 105 -191h-15q-60 39 -112 90q-50 48 -88 105z" />
    <glyph glyph-name="parenright" unicode=")" horiz-adv-x="378" 
d="M235 576l-1 4q41 -63 62 -128q21 -66 21 -134t-21 -134q-21 -65 -62 -128q-38 -57 -88 -105q-52 -51 -112 -90h-15q70 76 105 191q35 116 35 264t-35 264q-35 115 -105 191h15q63 -42 113 -90t88 -105z" />
    <glyph glyph-name="asterisk" unicode="*" horiz-adv-x="452" 
d="M414 613l-2 -4q-8 -11 -19 -18q-12 -8 -28 -12l-134 -30l134 -30q16 -4 28 -12q11 -7 19 -18t8 -24t-8 -27q-7 -13 -19 -19q-13 -6 -25 -5q-13 1 -25 9q-14 9 -23 19l-93 100l42 -130q5 -18 5 -30t-5 -24q-6 -13 -18 -19t-27 -6t-27 6t-18 20q-5 12 -5 24t5 30l42 130
l-93 -100q-9 -10 -23 -19q-12 -8 -25 -9q-12 -1 -25 5q-11 5 -19 20q-8 14 -8 27t8 24t19 18q12 8 28 12l133 30l-133 30q-16 4 -28 12q-11 7 -19 18t-8 24t8 27q8 15 19 20q13 6 25 5q13 -1 25 -9q14 -9 23 -19l93 -101l-42 131q-4 15 -4 30q0 12 5 24q6 14 18 20t27 6
t27 -6t18 -19q5 -12 5 -24q0 -15 -4 -30l-42 -131l93 101q9 10 23 19q12 8 25 9q12 1 25 -5q12 -6 19 -19q8 -14 8 -27t-8 -24z" />
    <glyph glyph-name="plus" unicode="+" horiz-adv-x="564" 
d="M271 350h-208v22h208v208h22v-208h208v-22h-208v-208h-22v208z" />
    <glyph glyph-name="comma" unicode="," horiz-adv-x="282" 
d="M114 -73l2 -2q19 18 29 37q11 21 12 43h-42q-18 5 -33 12q-13 7 -25 20q-10 11 -16 27q-6 15 -6 35t8 39q7 17 21 31q15 14 34 21q18 7 40 7q27 0 48 -10q22 -10 37 -28q16 -19 23 -41q8 -24 8 -50q0 -40 -18 -76q-18 -35 -53 -63q-32 -23 -70 -36q-39 -14 -82 -15v9
q25 3 45 13q22 11 38 27z" />
    <glyph glyph-name="hyphen" unicode="-" horiz-adv-x="320" 
d="M290 343v-66h-260v66h260z" />
    <glyph glyph-name="period" unicode="." horiz-adv-x="282" 
d="M62 21l-2 -1q-17 17 -24 37q-8 22 -8 44t8 44q7 20 23 36q17 15 37 24q21 9 44 9t44 -9q20 -9 37 -24q16 -16 23 -36q8 -22 8 -44q0 -21 -8 -43q-7 -20 -24 -37q-16 -16 -36 -23q-22 -8 -43 -8t-43 8q-20 7 -36 23z" />
    <glyph glyph-name="slash" unicode="/" horiz-adv-x="387" 
d="M328 770h31l-300 -911h-31z" />
    <glyph glyph-name="zero" unicode="0" horiz-adv-x="686" 
d="M514 39l-2 -3q-38 -24 -81 -36t-90 -12t-90 12t-81 36q-37 23 -66 59q-28 35 -48 78q-15 36 -25 83q-9 44 -9 93t9 94q9 44 26 83q19 44 48 78q29 36 66 59q37 24 81 36t90 12t90 -12t81 -36q38 -25 66 -58q29 -35 48 -78q17 -41 26 -83q9 -44 9 -93t-9 -94
q-9 -46 -25 -82q-20 -43 -48 -78q-28 -33 -66 -58zM259 157l-2 -2q9 -79 30 -118t53 -39t53 39t30 119q4 36 6 83q2 62 2 108t-2 108q-2 47 -6 83q-9 80 -30 119t-52 39t-52 -39t-30 -118q-4 -36 -6 -83q-2 -62 -2 -108t2 -108q2 -47 6 -83z" />
    <glyph glyph-name="one" unicode="1" horiz-adv-x="436" 
d="M422 16l-4 -15h-397v16q18 2 29 3l20 3q17 2 26 6q8 4 13 14q2 5 4 15q1 6 1 32v454h-91v14l36 6q37 6 75 18q35 11 72 32q36 19 67 45q30 25 51 54h8v-623q0 -14 2 -28q1 -8 5 -16q5 -10 13 -15q9 -6 25 -9q7 -2 18 -3t27 -3z" />
    <glyph glyph-name="two" unicode="2" horiz-adv-x="565" 
d="M252 224l-2 -3q-10 -7 -24 -15l-64 -37h227h27q7 0 17 2q10 1 20 8q6 4 18 14q3 3 13 15q8 9 15 21q3 5 11 17q6 9 12 21h10l-19 -271h-511v8l196 221q26 31 44 56t30 51q14 29 22 61q7 29 7 66q0 30 -9 54q-9 25 -24 41q-16 18 -39 27t-51 9q-17 0 -39 -5
q-18 -4 -36 -14q-19 -10 -32 -22q-15 -13 -27 -30l-12 7q22 42 48 74t59 57q34 25 74 39q38 13 83 13q46 0 85 -12t68 -35q32 -26 48 -61t16 -81q0 -26 -7 -48q-8 -25 -21 -47q-11 -19 -27 -39q-19 -22 -39 -41l-36 -31q-19 -16 -45 -33l-39 -27z" />
    <glyph glyph-name="three" unicode="3" horiz-adv-x="555" 
d="M420 456h-4q-24 -16 -58 -28q-30 -11 -69 -19q50 -2 90 -13q43 -12 74 -33q40 -26 59 -63q20 -38 20 -82q0 -37 -12 -68q-13 -34 -34 -59q-20 -25 -48 -45t-63 -33q-30 -12 -64 -18q-35 -6 -69 -6q-28 0 -54 3q-19 2 -48 8q-27 7 -52 18q-23 10 -40 24q-21 17 -34 41
q-12 23 -12 48q0 15 4 27t12 25q8 12 18 20q11 10 23 14h124q-13 -18 -19 -42q-6 -22 -6 -49q0 -20 5 -43q4 -20 15 -37q12 -19 29 -30q16 -10 38 -10q27 0 46 12q18 11 31 38q8 18 12 42q5 27 5 54q0 39 -10 72q-11 34 -30 60q-22 28 -54 43q-31 15 -69 15h-22l-4 11
q70 25 105 63t35 85q0 23 -6 41t-19 31q-14 14 -33 20q-20 6 -42 6q-40 0 -72 -19q-35 -20 -62 -58l-11 6q17 39 44 75q25 33 57 58q34 25 74 39t83 14q38 0 71 -9q34 -9 57 -25q29 -20 44 -48t15 -64q0 -32 -18 -61t-52 -51z" />
    <glyph glyph-name="four" unicode="4" horiz-adv-x="653" 
d="M298 42h-5q1 5 3 17t2 24v135h-298v8l337 476h173v-456h113v-28h-113v-135q0 -18 1 -24q2 -10 4 -15q3 -8 11 -15q7 -5 21 -7q7 -2 18 -3t24 -3v-16h-365v16q14 2 24 3t18 3q11 3 20 8q8 4 12 12zM298 598l-250 -352h250v352z" />
    <glyph glyph-name="five" unicode="5" horiz-adv-x="554" 
d="M188 47l-3 -5q14 -20 31 -30t39 -10q25 0 44 10t33 30q12 16 18 39t6 48q0 83 -75 123q-76 41 -225 41l64 405h303q14 0 26 2q8 1 16 6q7 4 13 13q1 2 13 23h13l-41 -218h-349l-10 -56q81 3 152 -5q68 -8 119 -27q77 -29 114 -79q38 -52 38 -126q0 -55 -22 -100
q-22 -46 -64 -79q-36 -29 -87 -46q-48 -16 -105 -16q-29 0 -54 3q-19 2 -48 8q-27 7 -52 18q-23 10 -40 24q-21 17 -34 41q-12 22 -12 48q0 15 4 27t12 25q8 12 18 20q11 10 23 14h124q-13 -18 -19 -42q-6 -22 -6 -49q0 -22 6 -43q5 -19 17 -37z" />
    <glyph glyph-name="six" unicode="6" horiz-adv-x="622" 
d="M543 386l-4 -6q28 -28 43 -66t15 -81q0 -54 -20 -102q-19 -46 -59 -81q-37 -34 -84 -50q-49 -17 -103 -17q-40 0 -82 11q-39 10 -75 32q-35 20 -64 51t-48 67q-19 35 -28 76q-9 40 -9 84q0 59 20 117q19 57 57 105q36 45 84 81q47 36 107 60q54 22 113 32q63 11 123 11
l3 -12q-57 -10 -108 -38q-49 -27 -85 -70q-35 -41 -57 -91q-23 -51 -33 -112q30 29 67 42q39 14 81 14q43 0 80 -15t66 -42zM244 370q-2 -13 -4 -41q-1 -14 -1 -42q0 -20 2 -56q1 -27 3 -51q4 -28 9 -58q5 -27 12 -48q12 -37 29 -57q16 -19 38 -19q35 0 53 45t18 131
q0 40 -7 71q-8 34 -21 59q-18 34 -45 52t-61 18q-8 0 -12 -1q-8 -2 -13 -3z" />
    <glyph glyph-name="seven" unicode="7" horiz-adv-x="525" 
d="M122 0l312 496h-319q-20 0 -34 -7q-16 -8 -27 -22q-7 -9 -15 -26q-8 -16 -15 -37h-15l45 298h479v-6l-299 -696h-112z" />
    <glyph glyph-name="eight" unicode="8" horiz-adv-x="609" 
d="M562 326l-7 1q12 -21 18 -46t6 -54q0 -32 -11 -67q-10 -31 -32 -61q-20 -26 -47 -47q-28 -22 -60 -35q-31 -13 -66 -21q-32 -7 -69 -7q-35 0 -62 4q-29 4 -58 12q-32 8 -59 21q-28 14 -47 30q-26 23 -39 49t-13 56q0 29 15 53q15 25 43 42q24 15 51 23q29 9 60 12
q-33 15 -61 35q-26 18 -42 39q-20 26 -30 55t-10 66q0 32 10 61q10 30 30 57q20 26 45 45q26 20 55 33q28 14 60 21q29 7 63 7q30 0 57 -3t51 -9q27 -7 53 -20t41 -28q21 -20 32 -44q11 -25 11 -51q0 -27 -13 -49t-39 -39q-20 -14 -46 -21q-25 -7 -55 -7q37 -14 54 -22
q23 -11 39 -21q24 -15 42 -33q19 -19 30 -37zM227 671l-1 -2q-15 -14 -22 -34q-7 -18 -7 -42q0 -21 8 -42q7 -19 24 -34q11 -11 30 -22t43 -21q4 -2 47 -19q30 -12 32 -12q18 24 27 53q9 28 9 60q0 28 -7 52q-8 26 -21 45q-16 22 -39 34q-22 12 -48 12q-24 0 -42 -7
q-20 -8 -33 -21zM195 286h-1q-14 -20 -21 -51q-8 -34 -8 -66q0 -31 8 -63q7 -29 24 -52q18 -25 44 -39q25 -13 57 -13q23 0 45 8q21 7 38 23t26 36q9 21 9 45q0 27 -10 47q-11 22 -31 39q-15 12 -36 24q-19 11 -52 25q-3 1 -17 6.5l-26 10.5q-12 4 -49 20z" />
    <glyph glyph-name="nine" unicode="9" horiz-adv-x="622" 
d="M559 554l-1 3q21 -38 29 -76q9 -41 9 -84q0 -59 -20 -117q-20 -57 -57 -105q-36 -45 -84 -81q-47 -36 -107 -60q-55 -22 -112 -32q-63 -11 -123 -11l-3 12q57 10 108 38q49 27 85 70q34 40 57 92q22 51 33 113q-30 -29 -67 -42q-36 -13 -81 -13q-41 0 -79 15t-66 42
q-28 28 -43 66t-15 81q0 54 20 102q19 46 59 81q36 32 84 48q49 17 104 17q43 0 82 -10q42 -11 75 -31q37 -22 65 -51q29 -31 48 -67zM286 702l-4 -1q-35 0 -53 -45t-18 -130q0 -40 7 -71q8 -34 21 -59q18 -34 45 -52t61 -18q8 0 12 1t14 3q4 25 5 41q2 28 2 42q0 38 -1 56
q-1 27 -3 51q-4 28 -9 58q-5 27 -12 48q-12 37 -29 57q-16 19 -38 19z" />
    <glyph glyph-name="colon" unicode=":" horiz-adv-x="282" 
d="M62 21l-2 -1q-17 17 -24 37q-8 22 -8 44t8 44q7 20 23 36q17 15 37 24q21 9 44 9t44 -9q20 -9 37 -24q16 -16 23 -36q8 -22 8 -44q0 -21 -8 -43q-7 -20 -24 -37q-16 -16 -36 -23q-22 -8 -43 -8t-43 8q-20 7 -36 23zM60 322l-2 -1q-17 17 -24 37q-8 22 -8 44t8 44
q7 20 23 36q17 15 37 24q21 9 44 9t44 -9q20 -9 37 -24q16 -16 23 -36q8 -22 8 -44q0 -21 -8 -43q-7 -20 -24 -37q-16 -16 -36 -23q-22 -8 -43 -8t-43 8q-20 7 -36 23z" />
    <glyph glyph-name="semicolon" unicode=";" horiz-adv-x="282" 
d="M114 -73l2 -2q19 18 29 37q11 21 12 43h-42q-18 5 -33 12q-13 7 -25 20q-10 11 -16 27q-6 15 -6 35t8 39q7 17 21 31q15 14 34 21q18 7 40 7q27 0 48 -10q22 -10 37 -28q16 -19 23 -41q8 -24 8 -50q0 -40 -18 -76q-18 -35 -53 -63q-32 -23 -70 -36q-39 -14 -82 -15v9
q25 3 45 13q22 11 38 27zM64 321l-2 -1q-17 17 -24 37q-8 22 -8 44t8 44q7 20 23 36q17 15 37 24q21 9 44 9t44 -9q20 -9 37 -24q16 -16 23 -36q8 -22 8 -44q0 -21 -8 -43q-7 -20 -24 -37q-16 -16 -36 -23q-22 -8 -43 -8t-43 8q-20 7 -36 23z" />
    <glyph glyph-name="less" unicode="&#x3c;" horiz-adv-x="436" 
d="M373 169l-310 189v8l310 189v-31l-272 -162l272 -162v-31z" />
    <glyph glyph-name="equal" unicode="=" horiz-adv-x="564" 
d="M501 420h-438v22h438v-22zM501 280h-438v22h438v-22z" />
    <glyph glyph-name="greater" unicode="&#x3e;" horiz-adv-x="436" 
d="M373 366v-8l-310 -189v31l272 162l-272 162v31z" />
    <glyph glyph-name="question" unicode="?" horiz-adv-x="496" 
d="M291 558l-7 -4q6 12 9 26t3 29q0 18 -3 33q-3 17 -10 26q-8 14 -20 20t-29 6t-31 -9q-13 -9 -22 -27q-6 -14 -9 -31q-3 -18 -3 -37q0 -18 5 -45q4 -21 14 -43h-128q-12 5 -20 12q-9 8 -15 18q-6 9 -9 20q-3 10 -3 21q0 36 22 62q23 28 63 47q28 13 65 21q34 7 77 7
q48 0 87 -10q41 -10 72 -30q39 -24 60 -60t21 -78q0 -33 -12 -60q-12 -26 -36 -52q-16 -16 -40 -34q-25 -19 -61 -39q-21 -11 -28 -16l-15 -10q-12 -8 -22 -18q-8 -8 -13 -18q-5 -11 -6 -22q-1 -12 0 -27h-9q-23 4 -44 14q-20 9 -33 22q-16 13 -25 33q-9 19 -9 42q0 13 3 27
t9 26q4 7 14 21q7 11 18 21q10 10 16 15l27 21l27 21q6 5 16 15q13 12 20 21q8 12 14 23zM147 17l-2 -1q-17 17 -24 37q-8 22 -8 44t8 44q7 20 23 36q17 15 37 24q21 9 44 9t44 -9q20 -9 37 -24q16 -16 23 -36q8 -22 8 -44q0 -21 -8 -43q-7 -20 -24 -37q-16 -16 -36 -23
q-22 -8 -43 -8t-43 8q-20 7 -36 23z" />
    <glyph glyph-name="at" unicode="@" horiz-adv-x="894" 
d="M735 106l-8 -7q-31 -24 -66 -36t-67 -12q-35 0 -62 11q-26 11 -41 33q-14 20 -17 48q-3 29 3 63q-14 -32 -30 -56q-18 -27 -34 -45q-23 -26 -50 -40q-25 -13 -53 -13q-23 0 -45 11q-21 11 -36 30q-12 17 -18 39t-6 48q0 35 9 71q9 35 29 69q18 31 44 59q23 25 56 46
q33 22 66 32q36 11 69 11q27 0 51 -11q23 -11 38 -30l110 32h14l-35 -94l-57 -198q-13 -49 -9 -72q4 -22 27 -22t45 18t42 50q13 22 24 50q10 26 18 59q7 25 10 57q3 29 3 57q0 36 -8 74q-7 35 -23 68q-18 37 -40 62q-25 28 -55 45q-30 19 -67 28q-36 9 -76 9
q-53 0 -101 -15t-91 -46q-40 -29 -72 -69t-54 -90q-20 -47 -30 -97q-10 -49 -10 -105q0 -76 21 -139q21 -62 62 -108q43 -47 105 -72q60 -25 135 -25q36 0 78 5q33 4 70 14q33 10 69 26q30 13 64 38l5 -8q-59 -53 -138 -82q-77 -28 -170 -28q-56 0 -103 10q-50 11 -93 30
q-48 22 -87 56q-38 34 -63 76q-25 41 -39 90q-13 48 -13 105q0 62 15 120t45 111q31 54 72 95t95 72q52 30 111 45t120 15q49 0 92 -9q42 -9 83 -26q41 -19 76 -48q33 -28 58 -66q26 -37 39 -81q13 -42 13 -88q0 -39 -7 -73q-8 -37 -22 -67q-16 -32 -39 -61q-22 -27 -51 -49
zM363 155h2q4 -9 11 -16q6 -6 14 -6q16 0 36 20q18 18 37 56q11 23 21 48t18 54q9 31 14 53q8 36 11 54q-3 16 -12 25t-24 9q-20 0 -39 -16q-21 -18 -38 -46q-10 -17 -22 -45q-11 -27 -18 -52q-8 -26 -12 -52q-4 -24 -4 -51q0 -7 2 -19q1 -6 3 -16z" />
    <glyph glyph-name="A" unicode="A" horiz-adv-x="760" 
d="M466 63l-5 -1q0 4 -2 16q-1 8 -6 22l-57 157h-230l-56 -157q-2 -6 -4 -18q-1 -6 -1 -16q0 -24 27 -36q28 -13 82 -14v-16h-222v16l23 3q6 1 16 5q12 6 17 10q8 6 14 14q6 10 9 16t9 20l191 527l-33 91h233l232 -644q5 -12 10 -18q6 -7 14 -12q5 -4 15 -7q6 -2 23 -4v-16
h-375v16q18 2 29 3q10 1 21 5q14 6 20 15t6 23zM279 576l-106 -298h215z" />
    <glyph glyph-name="B" unicode="B" horiz-adv-x="708" 
d="M409 0h-389v16l23 3q6 1 16 3q12 5 17 9q7 5 8 12q2 6 3 15q1 6 1 25v536v24q0 6 -2 14q-3 10 -9 14q-6 5 -18 9q-10 2 -16 3q-10 2 -22 3v16h371q56 0 95 -7q44 -8 74 -22q44 -21 66 -55q23 -35 23 -79q0 -39 -18 -70t-53 -54q-29 -18 -66 -30q-35 -11 -78 -16
q49 -2 92 -12q43 -11 78 -30q45 -23 70 -59q24 -34 24 -78q0 -53 -25 -91q-26 -39 -75 -63q-36 -18 -84 -27t-106 -9zM417 637l1 -1q-17 24 -40 35q-24 12 -56 12h-13v-310h14q60 0 91 39q31 38 31 117q0 36 -7 61q-8 28 -21 47zM487 187l-1 1q0 82 -36 123t-109 41h-32
v-257q0 -38 17 -58q16 -19 51 -19h3q28 0 51 15q22 15 36 44q11 21 15 48q5 30 5 62z" />
    <glyph glyph-name="C" unicode="C" horiz-adv-x="685" 
d="M553 619l-1 -7q-30 37 -65 57t-69 20q-46 0 -82 -36q-35 -35 -58 -105q-14 -44 -21 -97q-7 -50 -7 -114q0 -57 8 -115q7 -52 23 -96q23 -63 60 -96t87 -33q27 0 54 12t53 35q19 17 40 42q17 21 34 53q13 25 24 54t18 60h11l-18 -203q-23 -17 -52 -30q-30 -14 -64 -21
q-29 -8 -61 -12q-29 -4 -66 -4q-52 0 -100 9q-46 9 -90 29q-47 21 -82 52t-61 72q-25 39 -37 87q-12 46 -12 99q0 57 13 105q14 50 39 93t63 78q39 36 84 59q43 21 95 33q51 12 104 12q59 0 113 -15q56 -16 98 -43l4 -181h-10q-9 40 -27 78t-42 69z" />
    <glyph glyph-name="D" unicode="D" horiz-adv-x="797" 
d="M381 0l-361 1v16l23 3q6 1 16 3q12 5 17 9q7 5 8 12q2 6 3 15q1 6 1 25v536v24q0 6 -2 14q-3 10 -9 14t-18 9q-10 2 -16 3q-10 2 -22 3v16h332q94 0 167 -19q75 -20 129 -57q63 -45 96 -112t33 -154q0 -56 -13 -102q-14 -49 -39 -89q-26 -42 -63 -75q-36 -31 -86 -55
q-43 -20 -93 -30q-47 -10 -103 -10zM504 563l-2 1q-31 60 -76 89q-46 30 -106 30h-13v-589q0 -20 3 -33q3 -12 11 -24q7 -10 20 -15q11 -4 32 -4h3q33 0 61 16q29 16 51 48q18 24 29 54q13 34 20 69q7 27 10 63q3 33 3 69q0 68 -12 125q-13 59 -34 101z" />
    <glyph glyph-name="E" unicode="E" horiz-adv-x="654" 
d="M645 227l-37 -231h-591v16l23 3q6 1 16 3q12 5 17 9q7 5 8 12q1 6 3 15q1 6 1 25v536v24q0 6 -2 14q-3 10 -9 14q-6 5 -18 9q-10 2 -16 3q-10 2 -22 3v16h586l5 -199h-12q-18 43 -36 75q-19 33 -37 51q-26 27 -57 39t-75 12h-86v-310h83q26 0 45 8t29 24q9 14 15 33
q5 16 10 51h14v-246h-14q-5 35 -10 51q-6 19 -15 33q-10 16 -29 24t-45 8h-83v-265q0 -18 5 -33q5 -14 15 -21q8 -7 23 -10q13 -3 36 -3h22q39 0 75 17q34 17 66 51q20 24 42 59q18 28 43 80h12z" />
    <glyph glyph-name="F" unicode="F" horiz-adv-x="615" 
d="M86 44l-1 -6q1 6 3 15q1 6 1 25v536v24q0 6 -2 14q-3 10 -9 14t-18 9q-10 2 -16 3q-10 2 -22 3v16h579l5 -209h-12q-10 28 -21 51t-21 42q-17 28 -31 44q-17 19 -36 29q-20 12 -43 18q-24 6 -54 6h-79v-310h76q26 0 45 8t29 24q9 14 15 33q5 16 10 51h14v-246h-14
q-5 35 -10 51q-6 19 -15 33q-10 16 -29 24t-45 8h-76v-269q0 -18 4 -27q5 -11 13 -18q7 -5 19 -10q9 -3 29 -7q14 -2 22 -3q11 -1 29 -3v-16h-403v16l23 3q6 1 16 3q12 5 17 9q7 5 8 12z" />
    <glyph glyph-name="G" unicode="G" horiz-adv-x="742" 
d="M464 13l-10 237v24q0 6 -2 14q-3 10 -9 14t-18 9q-10 2 -16 3q-10 2 -22 3v16h342v-16l-23 -3q-6 -1 -16 -3q-12 -5 -17 -9q-7 -5 -8 -12q-1 -6 -3 -15q-1 -6 -1 -25v-195q-26 -17 -58 -30q-31 -13 -70 -22q-32 -7 -68 -12q-31 -4 -69 -4q-52 0 -100 9q-47 9 -88 27
q-46 19 -82 51q-35 31 -61 72q-24 40 -36 87t-12 99q0 53 14 104q13 50 39 93q26 42 65 78t84 59q47 23 96 35q51 12 105 12q62 0 117 -15q57 -15 99 -43l4 -181h-10q-9 40 -27 78q-20 41 -40 68q-30 37 -65 57t-71 20q-51 0 -90 -33q-38 -32 -61 -96q-14 -38 -22 -93
q-7 -49 -7 -114q0 -38 3 -74q3 -37 9 -68q8 -44 19 -75q13 -36 28 -60q22 -38 51 -57q28 -19 63 -19q18 0 24 1q14 2 20 4z" />
    <glyph glyph-name="H" unicode="H" horiz-adv-x="850" 
d="M313 658q-1 -6 -3 -15q-1 -6 -1 -25v-249h232v249v24q0 6 -2 14q-3 10 -9 14t-18 9q-10 2 -16 3q-10 2 -22 3v16h357v-16l-23 -3q-6 -1 -16 -3q-12 -5 -17 -9q-7 -5 -8 -12q-1 -6 -3 -15q-1 -6 -1 -25v-536v-24q0 -6 2 -14q3 -10 9 -14t18 -9q10 -2 16 -3q10 -2 22 -3
v-16h-357v16l23 3q6 1 16 3q12 5 17 9q7 5 8 12q1 6 3 15q1 6 1 25v265h-232v-265v-24q0 -6 2 -14q3 -10 9 -14t18 -9q10 -2 16 -3q10 -2 22 -3v-16h-357v16l23 3q6 1 16 3q12 5 17 9q7 5 8 12q1 6 3 15q1 6 1 25v536v24q0 6 -2 14q-3 10 -9 14t-18 9q-10 2 -16 3
q-10 2 -22 3v16h357v-16l-23 -3q-6 -1 -16 -3q-12 -5 -17 -9q-7 -5 -8 -12z" />
    <glyph glyph-name="I" unicode="I" horiz-adv-x="399" 
d="M313 658q-1 -6 -3 -15q-1 -6 -1 -25v-536v-24q0 -6 2 -14q3 -10 9 -14t18 -9q10 -2 16 -3q10 -2 22 -3v-16h-357v16l23 3q6 1 16 3q12 5 17 9q7 5 8 12q1 6 3 15q1 6 1 25v536v24q0 6 -2 14q-3 10 -9 14t-18 9q-10 2 -16 3q-10 2 -22 3v16h357v-16l-23 -3q-6 -1 -16 -3
q-12 -5 -17 -9q-7 -5 -8 -12z" />
    <glyph glyph-name="J" unicode="J" horiz-adv-x="596" 
d="M297 163l-6 449v24q0 6 -2 14q-3 10 -9 14t-18 9q-10 2 -16 3q-10 2 -22 3v16h357v-16l-23 -3q-6 -1 -16 -3q-12 -5 -17 -9q-7 -5 -8 -12q-1 -6 -3 -15q-1 -6 -1 -25v-389q0 -61 -21 -108q-22 -48 -61 -77q-35 -26 -87 -40q-49 -13 -115 -13q-45 0 -87 8q-36 7 -70 23
q-42 20 -63 51q-21 32 -21 74q0 16 4 29q4 15 12 27q8 13 18 24q11 11 22 18h139l-7 -49q-3 -23 -3 -46q0 -24 3 -45q3 -18 8 -38q8 -28 21 -41q14 -14 33 -14q22 0 36 15t18 48q2 12 4 37q1 14 1 57z" />
    <glyph glyph-name="K" unicode="K" horiz-adv-x="791" 
d="M403 193l-84 147l255 265q13 13 19 25t6 22q0 9 -6 15q-5 5 -19 10q-6 1 -15 3t-21 3q-10 2 -17 2q-6 0 -20 2v16h252v-16q-19 0 -36 -3t-31 -10q-14 -8 -27 -18q-12 -9 -28 -27l-152 -158l216 -345l29 -44q2 -3 17 -24q17 -20 33 -30t33 -12v-16h-271q-18 15 -52 64
q-34 50 -81 129zM315 658q-1 -6 -3 -15q-1 -6 -1 -25v-536v-24q0 -6 2 -14q3 -10 9 -14t18 -9q10 -2 16 -3q10 -2 22 -3v-16h-357v16l23 3q6 1 16 3q12 5 17 9q7 5 8 12q1 6 3 15q1 6 1 25v536v24q0 6 -2 14q-3 10 -9 14t-18 9q-10 2 -16 3q-10 2 -22 3v16h357v-16l-23 -3
q-6 -1 -16 -3q-12 -5 -17 -9q-7 -5 -8 -12z" />
    <glyph glyph-name="L" unicode="L" horiz-adv-x="648" 
d="M646 247l-42 -248h-587v16l23 3q6 1 16 3q12 5 17 9q7 5 8 12q1 6 3 15q1 6 1 25v536v24q0 6 -2 14q-3 10 -9 14t-18 9q-10 2 -16 3q-10 2 -22 3v16h357v-16l-23 -3q-6 -1 -16 -3q-12 -5 -17 -9q-7 -5 -8 -12q-1 -6 -3 -15q-1 -6 -1 -25v-532q0 -18 5 -33q4 -13 15 -21
q8 -7 23 -10q14 -3 36 -3h18q32 0 57 9q26 9 48 28q18 15 36 36q17 20 36 53q16 25 26 45q13 26 27 57h12z" />
    <glyph glyph-name="M" unicode="M" horiz-adv-x="968" 
d="M668 54l-3 -4q1 5 1 20q0 6 -2 30l-58 487l-193 -592h-38l-212 591l-57 -486q-2 -20 0 -33q1 -13 6 -22q5 -11 17 -17q10 -5 32 -10q7 -1 23 -3q11 -1 35 -3v-16h-224v16q25 2 35 4q11 2 24 8q12 8 18 19q7 13 8 31l64 536q0 21 -5 36q-4 13 -17 21q-10 8 -24 11
q-19 4 -39 5v16h302q1 -9 5 -29q2 -10 11 -37l117 -325l104 326q4 15 6 21q2 8 3 11q1 4 4 17l2 16h296v-16q-28 -2 -39 -4q-16 -3 -24 -10q-13 -8 -17 -21q-5 -15 -5 -36l64 -536q1 -19 8 -32q6 -12 18 -18q8 -4 22 -7q10 -2 36 -4v-16h-388v16l32 3l20 3q16 5 23 12t9 21z
" />
    <glyph glyph-name="N" unicode="N" horiz-adv-x="747" 
d="M641 308l-1 310q0 20 -4 29q-5 11 -13 18q-8 5 -19 9q-12 5 -31 6q-14 2 -22 3q-11 1 -29 3v16h230v-16q-13 -1 -25 -3q-11 -1 -18 -3q-14 -4 -21 -7q-8 -4 -13 -12q-5 -6 -6 -16q-2 -14 -2 -25v-629h-47l-494 589v-496q0 -17 5 -29q5 -11 15 -18q7 -4 20 -9q12 -4 30 -6
q10 -2 24 -3q15 -2 31 -3v-16h-237v16l26 3q10 1 18 3q10 2 21 8q10 5 14 12q5 6 6 16q2 14 2 25v526q-22 24 -27 29l-18 18q-17 17 -28 23q-14 8 -25 9v14h310z" />
    <glyph glyph-name="O" unicode="O" horiz-adv-x="748" 
d="M198 663v-1q42 24 89 36t96 12q47 0 94 -11q43 -10 84 -32q41 -24 71 -55q32 -34 54 -73q20 -39 30 -84q11 -47 11 -92q0 -51 -12 -99q-12 -50 -34 -90q-24 -44 -57 -78t-75 -60q-42 -24 -89 -36q-46 -12 -96 -12q-47 0 -94 11q-43 10 -84 32q-41 24 -71 55
q-31 32 -54 74q-19 39 -30 84q-11 47 -11 92q0 51 12 99q12 50 34 90q24 43 57 78t75 60zM482 542h-1q-15 78 -43 116q-28 39 -69 39q-37 0 -63 -36t-39 -106q-7 -39 -12 -87q-4 -43 -4 -103q0 -67 4 -114q5 -53 12 -93q15 -76 44 -116q29 -39 69 -39q38 0 63 36
q26 36 39 106q8 39 12 87q4 43 4 103q0 67 -4 114q-4 53 -12 93z" />
    <glyph glyph-name="P" unicode="P" horiz-adv-x="677" 
d="M21 686l-2 16h364q59 0 107 -9t84 -27q50 -24 75 -64t25 -93q0 -57 -27 -99q-28 -43 -79 -68q-37 -18 -89 -27q-51 -9 -115 -9h-57v-222q0 -18 4 -27q5 -11 13 -18q7 -5 19 -10q9 -3 29 -7q14 -2 22 -3q11 -1 29 -3v-16h-403v16l23 3q6 1 16 3q12 5 17 9q7 5 8 12
q2 6 3 15q1 6 1 25v536v24q0 6 -2 14q-3 10 -9 14q-6 5 -18 9q-10 2 -16 3q-10 2 -22 3zM320 683l-12 -2v-357h13q33 0 63 14q28 13 46 42q16 24 23 54q8 34 8 69t-8 69q-7 32 -24 54q-18 27 -46 42q-29 15 -63 15z" />
    <glyph glyph-name="Q" unicode="Q" horiz-adv-x="748" 
d="M198 663l-2 -3q42 24 89 36t96 12q47 0 94 -11q43 -10 84 -32q41 -24 71 -55q32 -34 54 -73q20 -39 30 -84q11 -47 11 -92q0 -65 -18 -123q-17 -56 -53 -106t-87 -84q-50 -34 -111 -49l109 -65l39 -22q14 -8 24 -12q15 -7 33 -10q17 -3 35 -3v-4q-14 -18 -33 -34
q-16 -14 -39 -25q-21 -10 -45 -15q-27 -5 -48 -5q-30 0 -60 11q-29 11 -57 30q-21 17 -42 39q-17 18 -43 53l-44 59q-62 12 -110 43q-49 31 -84 78q-35 48 -53 102q-18 55 -18 117q0 51 12 99q12 50 34 90q24 43 57 78t75 60zM480 540h-1q-15 78 -43 116q-28 39 -69 39
q-37 0 -63 -36t-39 -106q-7 -39 -12 -87q-4 -43 -4 -103q0 -67 4 -114q5 -53 12 -93q15 -76 44 -116q29 -39 69 -39q38 0 63 36q26 36 39 106q8 39 12 87q4 43 4 103q0 67 -4 114q-4 53 -12 93z" />
    <glyph glyph-name="R" unicode="R" horiz-adv-x="768" 
d="M21 686l-2 14h379q56 0 102 -9q47 -9 83 -27q48 -24 74 -62t26 -86q0 -30 -11 -58q-10 -26 -33 -49q-18 -18 -45 -34q-24 -14 -57 -25l136 -227l27 -41q10 -15 20 -26q16 -20 33 -30t33 -12v-16h-271q-19 16 -48 63q-26 42 -70 132l-65 130h-22v-240v-24q0 -6 2 -14
q3 -10 9 -14q6 -5 18 -9q10 -2 16 -3q10 -2 22 -3v-16h-357v16l23 3q6 1 16 3q12 5 17 9q7 5 8 12q2 6 3 15q1 6 1 25v536v24q0 6 -2 14q-3 10 -9 14q-6 5 -18 9q-10 2 -16 3q-10 2 -22 3zM434 631l-1 -2q-19 26 -45 38q-27 12 -61 12h-21v-340h22q33 0 61 14q27 13 45 41
q16 24 23 52q8 32 8 67q0 34 -8 66q-7 28 -23 52z" />
    <glyph glyph-name="S" unicode="S" horiz-adv-x="582" 
d="M439 626l1 -1q-28 34 -61 52t-71 18q-24 0 -45 -6t-37 -19q-17 -14 -26 -33t-9 -43q0 -18 6 -33q5 -13 20 -28q11 -9 24 -18q15 -10 33 -17q10 -4 24 -9q10 -3 40 -15q39 -14 51 -19l30 -13q27 -12 41 -22q20 -13 32 -24q18 -16 31 -34q14 -19 21 -37q8 -19 12 -42
q4 -20 4 -46q0 -39 -10 -72q-11 -36 -31 -63q-19 -28 -48 -51q-28 -22 -64 -37q-32 -14 -67 -21q-34 -7 -73 -7q-33 0 -61 4q-34 5 -60 13q-34 9 -61 22q-30 14 -48 28l-12 185h11q11 -44 31 -85q21 -42 49 -73q33 -38 72 -57q40 -20 83 -20q27 0 48 7q23 8 39 21
q19 13 30 35q10 20 10 47q0 23 -6 41q-6 19 -19 33q-11 15 -27 26q-18 13 -39 23q-12 6 -27 12l-47 18l-46 18q-15 6 -27 12q-17 7 -37 20q-17 10 -30 21q-15 12 -28 30q-11 16 -19 34q-7 15 -10 36q-3 19 -3 42q0 53 21 96t60 75q37 29 85 46q47 16 100 16q59 0 113 -15
q52 -14 97 -44l4 -167h-10q-10 44 -25 77q-16 36 -39 63z" />
    <glyph glyph-name="T" unicode="T" horiz-adv-x="713" 
d="M10 441l12 262h663l15 -261h-11q-18 50 -34 84q-19 40 -37 66q-29 47 -61 69t-70 22h-24v-604q0 -11 2 -23q1 -9 6 -15q5 -7 12 -12q6 -4 21 -7q6 -2 15 -3t24 -3v-16h-377v16q15 1 25 3q6 1 16 3q13 2 20 6t12 11q5 6 6 15q2 12 2 24v604h-24q-38 0 -70 -22t-61 -69
q-18 -26 -37 -66q-16 -34 -34 -84h-11z" />
    <glyph glyph-name="U" unicode="U" horiz-adv-x="753" 
d="M302 658l-6 -2q-2 -6 -3 -15q-1 -6 -1 -25v-342q0 -44 9 -82q9 -36 26 -63q21 -31 54 -48q32 -16 76 -16t80 15t60 45q23 28 35 65q12 38 12 84v341q0 20 -4 29q-5 11 -13 18q-7 4 -20 9q-12 5 -30 6q-11 1 -24 3t-30 3v16h230v-16q-13 -1 -24 -3t-18 -3q-15 -3 -21 -7
q-8 -4 -12 -12q-5 -6 -6 -16q-2 -14 -2 -25v-358q0 -62 -21 -113q-21 -52 -61 -87q-37 -34 -90 -52q-52 -18 -114 -18q-66 0 -123 17q-55 16 -96 48q-44 36 -66 88q-23 54 -23 118v358v24q0 6 -2 14q-3 10 -9 14t-18 9q-10 2 -16 3q-10 2 -22 3v16h357v-16l-23 -3
q-6 -1 -16 -3q-12 -5 -17 -9q-7 -5 -8 -12z" />
    <glyph glyph-name="V" unicode="V" horiz-adv-x="728" 
d="M524 702l206 -1v-16q-18 -2 -29 -7q-12 -6 -22 -16q-8 -8 -15 -19t-15 -29l-257 -619h-39l-295 631q-12 21 -13 23q-6 9 -12 15q-7 7 -17 12q-7 4 -24 7v16h381v-16q-15 -1 -28 -3q-11 -1 -20 -5q-17 -5 -24 -12t-7 -18q0 -3 2 -13l3 -15q1 -3 5 -11q1 -2 7 -16l156 -362
l141 348q10 24 15 41q4 13 4 27t-10 23q-10 8 -33 13q-10 2 -24 3t-36 3v16z" />
    <glyph glyph-name="W" unicode="W" horiz-adv-x="1017" 
d="M789 261l110 318q5 13 6 21q1 5 3 13q5 16 5 18q2 10 2 15q0 14 -10 23q-10 8 -33 13q-10 2 -24 3t-36 3v16h208v-16q-18 -2 -29 -7q-12 -6 -22 -16q-8 -8 -15 -19t-15 -29l-226 -619h-34l-170 426l-156 -426h-34l-260 631q-12 21 -13 23q-6 9 -12 15q-7 7 -17 12
q-7 4 -24 7v16h358v-16q-15 -2 -22 -4q-6 -2 -16 -6q-11 -4 -15 -12q-5 -8 -5 -18q0 -12 3 -25q4 -17 10 -33l124 -327l68 196l-68 170l-12 24q-1 2 -3.5 6t-3.5 6q-8 10 -15 14q-9 6 -19 8v16h361v-16q-15 -1 -28 -3q-11 -1 -20 -5q-16 -5 -24 -12q-7 -7 -7 -18t3 -25
q4 -17 10 -33z" />
    <glyph glyph-name="X" unicode="X" horiz-adv-x="753" 
d="M436 69l-1 -1l-9 14q-6 9 -6 10l-129 209l-113 -155l-18 -25q-8 -11 -12 -18q-10 -17 -15 -27q-4 -9 -4 -20q0 -14 10 -21q11 -7 33 -12q10 -1 24 -3q13 -1 35 -3v-16h-244v16q24 2 40 7q18 6 33 18q12 8 27 23q11 11 28 33l167 223l-206 333q-8 12 -23 22q-14 10 -33 11
v16h374v-16q-30 0 -45 -7q-16 -7 -16 -21q0 -2 2 -10q1 -5 6 -13q1 -2 6 -9q1 -2 2.5 -4.5t3 -4.5t2.5 -3l98 -159l101 132q16 21 24 36q8 16 8 27q0 13 -9 21t-30 12q-11 2 -24 3q-14 2 -34 3v16h225v-16q-17 -2 -32 -9q-14 -7 -31 -21q-10 -9 -22 -22l-27 -31l-138 -172
l233 -378q7 -12 13 -18q8 -7 15 -12q6 -4 18 -7q8 -2 24 -4v-16h-396v16q35 0 54 8q18 8 18 21q0 3 -2 11q0 1 -5 13z" />
    <glyph glyph-name="Y" unicode="Y" horiz-adv-x="724" 
d="M471 355l117 219q13 23 17 37q5 18 5 30q0 14 -10 23q-11 10 -33 14l-26 3q-16 2 -37 3v16h220v-16q-17 -2 -28 -7q-14 -7 -23 -16q-8 -8 -15 -19l-18 -28l-167 -298v-240q0 -11 2 -23q1 -9 6 -15q5 -8 12 -12q6 -4 21 -7q6 -1 15 -3t24 -3v-16h-372v16q15 1 25 3
q6 1 16 3q13 2 20 6t12 11q4 6 6 15q2 12 2 24v235l-202 315l-17 26q-5 7 -9 12q-8 9 -17 14q-9 4 -23 6v16h390v-16q-18 -2 -29 -3q-12 -2 -21 -3q-16 -5 -24 -12q-8 -8 -8 -19q0 -9 5 -22q3 -9 17 -31z" />
    <glyph glyph-name="Z" unicode="Z" horiz-adv-x="633" 
d="M367 682l-111 -1q-30 0 -54 -6q-23 -6 -43 -18q-19 -10 -36 -29q-14 -16 -31 -44q-9 -16 -21 -41q-11 -23 -21 -51h-12l5 209h569v-10l-368 -672h138q32 0 57 9q26 9 48 28q18 15 36 36q17 20 36 53q16 25 26 45q13 26 27 57h12l-38 -247h-586v9z" />
    <glyph glyph-name="bracketleft" unicode="[" horiz-adv-x="342" 
d="M226 738v2q-6 -6 -9 -15t-3 -26v-763q0 -17 3 -26t9 -15q4 -6 15 -9q13 -4 27 -5q5 -1 17 -3q9 -2 27 -3v-14h-227v911h227v-14q-17 -1 -28 -3q-10 -1 -18 -3q-14 -1 -25 -5q-9 -3 -15 -9z" />
    <glyph glyph-name="backslash" unicode="\" horiz-adv-x="387" 
d="M359 -141h-31l-300 911h31z" />
    <glyph glyph-name="bracketright" unicode="]" horiz-adv-x="342" 
d="M127 -67v761q0 17 -3 26t-9 15q-5 6 -15 9q-13 4 -27 5q-5 1 -17 3q-9 2 -27 3v14h227v-911h-227v14q17 1 28 3q11 1 18 3q14 1 25 5q9 3 15 9t9 15t3 26z" />
    <glyph glyph-name="asciicircum" unicode="^" horiz-adv-x="470" 
d="M195 770h80l165 -290h-27l-178 231l-178 -231h-27z" />
    <glyph glyph-name="underscore" unicode="_" horiz-adv-x="320" 
d="M290 -66v-66h-260v66h260z" />
    <glyph glyph-name="grave" unicode="`" 
d="M108 768v4h237l47 -179h-6z" />
    <glyph glyph-name="a" unicode="a" horiz-adv-x="553" 
d="M427 520v-4q36 -23 54 -58q18 -36 18 -88v-266q0 -20 9 -30t27 -10q10 0 14 1q8 2 12 4l4 -5q-9 -14 -26 -31q-15 -15 -34 -25q-18 -10 -40 -16q-21 -6 -42 -6q-18 0 -40 5q-19 5 -36 15t-30 26q-12 15 -18 33q-12 -16 -28 -31q-15 -14 -36 -25q-19 -10 -41 -15
q-23 -5 -42 -5q-30 0 -57 9q-25 8 -46 26q-23 18 -33 43q-11 27 -11 55q0 32 12 56q12 25 36 44q19 16 43 27q29 13 60 23l141 47v135q0 41 -10 60t-33 19q-24 0 -37 -24q-13 -23 -13 -67q0 -20 3 -45q3 -22 8 -42l-130 -16q-11 5 -21 12t-18 18q-7 8 -10 21q-3 12 -3 25
q0 35 22 63t64 46q30 14 67 21q35 7 76 7q53 0 96 -8q40 -8 69 -24zM215 110l-2 -1q9 -19 24 -30q14 -10 34 -10q5 0 15 2q6 1 10 5v225l-30 -12q-19 -7 -31 -18q-11 -10 -19 -24q-7 -11 -10 -28t-3 -37q0 -22 3 -40q3 -19 9 -32z" />
    <glyph glyph-name="b" unicode="b" horiz-adv-x="637" 
d="M44 58l1 602l-53 61v4l255 60h4v-339q10 21 29 42q18 20 41 35q24 16 48 23q27 8 53 8q47 0 87 -20q39 -20 66 -57q22 -32 34 -76t12 -94q0 -45 -9 -85q-9 -42 -28 -75q-20 -37 -48 -66q-30 -30 -66 -50q-34 -19 -75 -30q-39 -10 -84 -10q-37 0 -72 3q-31 3 -66 11
q-39 7 -72 21q-32 13 -57 32zM312 9v-2q29 0 50 24t33 71q7 28 12 63q4 31 4 75q0 35 -5 72q-4 32 -15 58q-13 37 -38 57t-56 20q-13 0 -24 -3q-14 -4 -21 -7v-316q0 -55 15 -83q15 -29 45 -29z" />
    <glyph glyph-name="c" unicode="c" horiz-adv-x="509" 
d="M336 484l-5 -2q-8 26 -19 39q-12 13 -29 13q-22 0 -42 -20q-19 -19 -33 -56q-8 -22 -13 -52q-4 -25 -4 -57q0 -48 9 -87q8 -37 26 -67q21 -36 54 -54t77 -18q42 0 78 17q34 16 60 50l4 -2q-7 -45 -27 -81t-50 -62q-31 -26 -70 -40q-38 -13 -85 -13q-55 0 -104 20
q-47 19 -82 57q-34 37 -50 85q-17 51 -17 108q0 38 9 76q8 35 29 70q20 34 46 60q27 27 59 47q35 19 72 30q36 10 75 10q37 0 66 -7q32 -8 57 -21q31 -17 48 -42q17 -26 17 -57q0 -13 -3 -25q-3 -11 -9 -22q-8 -13 -16 -21t-19 -13h-108q4 20 5 29q2 18 2 30q0 16 -2 42
q-2 20 -6 36z" />
    <glyph glyph-name="d" unicode="d" horiz-adv-x="653" 
d="M648 24l-259 -39h-4l3 109q-11 -22 -29 -45q-15 -19 -38 -34q-21 -14 -48 -22q-24 -7 -54 -7q-47 0 -87 21t-69 59q-25 33 -37 78q-12 44 -12 93q0 44 9 83q9 38 26 74t45 67q27 30 62 50t73 30q37 10 82 10q14 0 20 -1t20 -3q14 -4 20 -6q10 -3 15 -7v123l-53 61v4
l255 60h4v-694q0 -16 3 -25t9 -15q6 -4 18 -7q10 -3 26 -3v-14zM377 489h-1q-8 19 -21 30q-14 11 -31 11q-28 0 -49 -24t-33 -70q-8 -31 -11 -63q-3 -35 -3 -73q0 -36 5 -73q4 -30 14 -58q15 -38 39 -58q23 -19 57 -19q13 0 24 3q7 2 21 8v316q0 21 -3 39q-2 14 -8 31z" />
    <glyph glyph-name="e" unicode="e" horiz-adv-x="531" 
d="M515 190h2q-8 -46 -28 -82q-21 -38 -54 -63q-31 -25 -72 -39q-39 -13 -87 -13q-55 0 -106 20q-49 19 -85 57q-36 36 -54 86t-18 108q0 38 9 74t27 69q17 33 42 60q27 28 57 47q31 19 68 30q38 11 73 11q50 0 92 -15q43 -15 72 -43q31 -29 47 -69q17 -42 17 -89v-6h-320
q1 -45 12 -81q10 -35 29 -63q23 -32 55 -48t75 -16q45 0 84 17q38 16 63 48zM332 460l3 -2q-7 39 -23 59q-15 20 -36 20q-22 0 -39 -20q-17 -19 -27 -57q-6 -23 -9 -49q-2 -19 -4 -58h145q0 32 -3 59q-4 32 -7 48z" />
    <glyph glyph-name="f" unicode="f" horiz-adv-x="374" 
d="M272 493l3 -440q0 -13 6 -21t21 -12q6 -2 18 -4l29 -3v-14h-334v14q17 1 24 3t12 3q7 5 12 12q4 7 4 19v443h-71v6l71 53v4q0 54 19 96q20 44 57 75q34 28 81 43q46 15 99 15q34 0 57 -4q27 -5 45 -13q29 -12 42 -33q14 -22 14 -49q0 -10 -3 -21q-2 -7 -8 -21
q-4 -10 -12 -18t-15 -12h-103q2 20 3 31q2 22 2 33q0 22 -1 30q-2 16 -3 23q-4 19 -12 28q-7 9 -19 9q-20 0 -29 -18t-9 -58v-159h114v-40h-114z" />
    <glyph glyph-name="g" unicode="g" horiz-adv-x="553" 
d="M423 240l-3 1q-33 -21 -76 -33q-44 -12 -91 -12q-28 0 -61 5q-29 4 -55 15q-13 -10 -21 -24q-7 -13 -7 -25q0 -6 3 -12q3 -7 7 -9q5 -5 10 -6q4 -1 13 -1h228q94 0 142 -36t48 -107q0 -38 -13 -70q-13 -33 -39 -60q-24 -24 -54 -41q-32 -18 -70 -30q-34 -10 -68 -14
q-40 -5 -75 -5q-36 0 -78 5q-37 5 -69 12q-51 13 -78 36t-27 53q0 17 11 33t30 26q18 10 36 14q22 5 39 5q-48 20 -72 48t-24 66q0 26 9 48q9 23 28 42q15 16 36 30q20 13 47 24q-25 10 -45 24t-33 30q-17 20 -24 42q-8 24 -8 48q0 45 21 81q21 37 60 62q33 21 76 33
q44 12 91 12q21 0 44 -3q25 -3 45 -10l190 12v-76h-7l-106 27q35 -25 53 -54q18 -30 18 -63q0 -45 -21 -81q-21 -37 -60 -62zM210 291l-3 4q7 -40 21 -61t32 -21t30 15q13 16 17 48q2 18 3 37q2 28 2 49q0 20 -2 54q-2 26 -6 47q-8 40 -21 59q-14 20 -31 20q-18 0 -29 -15
q-11 -16 -17 -46q-2 -18 -3 -37q-1 -14 -1 -48q0 -21 2 -57q2 -27 6 -48zM424 -98l-3 -1q0 30 -18 45t-55 15h-243q-11 -8 -15 -19t-4 -31q0 -28 15 -52q14 -23 44 -40q23 -12 51 -18t60 -6t59 6q30 7 50 16q29 14 44 35t15 50z" />
    <glyph glyph-name="h" unicode="h" horiz-adv-x="669" 
d="M388 20l3 -1q7 5 12 12q4 7 4 19v331q0 33 -16 49t-49 16q-18 0 -34 -3q-18 -3 -37 -10v-383q0 -12 4 -19q5 -7 12 -12q5 -1 12 -3t24 -3v-14h-312v14q17 1 24 3t12 3q7 5 12 12q4 7 4 19v608l-53 61v4l255 60h4v-343q13 20 35 42q19 19 47 37q29 18 54 26q27 9 54 9
q37 0 65 -12q29 -12 48 -34q20 -21 30 -51q10 -29 10 -67v-339q0 -12 4 -19q4 -8 12 -12q4 -2 12 -3l24 -3v-14h-312v14l24 3t12 3z" />
    <glyph glyph-name="i" unicode="i" horiz-adv-x="334" 
d="M247 617v-4q-13 -13 -33 -21q-18 -7 -42 -7t-42 7q-20 8 -33 21q-16 14 -23 33q-8 21 -8 40t8 40q7 19 23 33q13 13 33 21q18 7 42 7t42 -7q20 -8 33 -21q15 -14 23 -32q8 -19 8 -39t-8 -39q-8 -18 -23 -32zM268 549h6v-503q0 -12 4 -19t12 -12l12 -3t24 -3v-14h-312v14
q16 1 24 3l12 3q8 5 12 12t4 19v378l-53 61v4z" />
    <glyph glyph-name="j" unicode="j" horiz-adv-x="297" 
d="M231 617v-4q-13 -13 -33 -21q-18 -7 -42 -7t-42 7q-20 8 -33 21q-16 14 -23 33q-8 21 -8 40t8 40q7 19 23 33q13 13 33 21q18 7 42 7t42 -7q20 -8 33 -21q15 -14 23 -32q8 -19 8 -39t-8 -39q-8 -18 -23 -32zM50 32l2 391l-53 61v4l255 60h4v-492q0 -57 -21 -105
q-21 -47 -63 -85q-35 -31 -82 -54q-48 -24 -108 -39l-2 4q12 13 21 27q11 16 17 30q8 14 12 30l9 33q4 19 5 32q2 17 3 36q1 7 1 24v43z" />
    <glyph glyph-name="k" unicode="k" horiz-adv-x="648" 
d="M264 783h6v-733q0 -12 4 -19t12 -12l12 -3t24 -3v-14h-312v14q16 1 24 3l12 3q8 5 12 12t4 19v608l-53 61v4zM439 0l-159 270l152 147l15 15q12 12 15 16q11 11 15 19t4 18q0 11 -7 19q-8 9 -21 15q-7 3 -21 7q-9 2 -25 4v14h233v-14q-35 -3 -62 -16q-30 -14 -53 -36
l-93 -85l231 -389v-4h-224z" />
    <glyph glyph-name="l" unicode="l" horiz-adv-x="330" 
d="M264 783h6v-733q0 -12 4 -19t12 -12l12 -3t24 -3v-14h-312v14q16 1 24 3l12 3q8 5 12 12t4 19v608l-53 61v4z" />
    <glyph glyph-name="m" unicode="m" horiz-adv-x="987" 
d="M928 389l-1 -347q0 -12 4 -19q5 -7 12 -12q5 -1 12 -3t24 -3v-14h-307v14q16 2 23 3q7 2 12 3q6 4 10 11q3 6 3 20v331q0 33 -15 49t-45 16q-16 0 -31 -3q-17 -3 -33 -10v-383q0 -13 3 -19t10 -10q5 -1 12 -3q7 -1 23 -3v-14h-302v14q16 2 23 3q7 2 12 3q6 4 10 11
q3 6 3 20v331q0 33 -15 49t-45 16q-16 0 -31 -3q-17 -3 -33 -10v-383q0 -13 3 -19t10 -10q5 -1 12 -3q7 -1 23 -3v-14h-307v14q17 1 24 3t12 3q7 5 12 12q4 7 4 19v378l-53 61v4l259 60h4l-4 -113q13 22 34 43q20 20 44 36q28 18 52 26q27 9 54 9q30 0 52 -7q23 -7 43 -21
q20 -15 33 -36q13 -19 19 -47q13 22 34 43q20 20 44 36q27 17 53 26q27 9 54 9q35 0 63 -12t48 -35q18 -21 27 -51t9 -66z" />
    <glyph glyph-name="n" unicode="n" horiz-adv-x="673" 
d="M392 20l3 -1q7 5 12 12q4 7 4 19v331q0 33 -16 49t-49 16q-18 0 -34 -3q-18 -3 -37 -10v-383q0 -12 4 -19q5 -7 12 -12q5 -1 12 -3t24 -3v-14h-312v14q17 1 24 3t12 3q7 5 12 12q4 7 4 19v378l-53 61v4l259 60h4l-4 -113q13 20 35 42q19 19 47 37q29 18 54 26q27 9 54 9
q37 0 65 -12q29 -12 48 -34q20 -21 30 -51q10 -29 10 -67v-339q0 -12 4 -19q4 -8 12 -12q4 -2 12 -3l24 -3v-14h-312v14l24 3t12 3z" />
    <glyph glyph-name="o" unicode="o" horiz-adv-x="612" 
d="M160 515l-1 -1q33 20 69 29q38 9 77 9q61 0 114 -18q52 -18 92 -53q42 -39 62 -88q21 -51 21 -112q0 -41 -9 -78t-27 -70q-20 -34 -46 -60q-26 -27 -61 -46q-30 -19 -69 -28q-38 -9 -76 -9q-62 0 -114 18t-92 53q-42 39 -62 88q-21 51 -21 112q0 41 9 78t27 70
q20 34 46 60t61 46zM234 315h-2q0 -158 19 -234q19 -78 57 -78q24 0 39 24q14 23 22 75q4 28 5 54q2 42 2 72q0 158 -19 234q-19 78 -57 78q-24 0 -39 -24q-14 -23 -22 -75q-2 -17 -4 -54q-1 -21 -1 -72z" />
    <glyph glyph-name="p" unicode="p" horiz-adv-x="652" 
d="M265 8l4 -167q0 -13 6 -21t21 -12q6 -2 18 -4l29 -3v-14h-334v14q17 1 24 3t12 3q7 5 12 12q4 7 4 19v590l-53 61v4l259 60h4l-4 -109q10 21 29 42q18 20 41 35q24 16 48 23q27 8 53 8q47 0 87 -20q39 -20 66 -57q22 -32 34 -76q12 -43 12 -94q0 -43 -9 -84
q-9 -42 -25 -75q-17 -36 -45 -67q-27 -30 -62 -50t-73 -30q-37 -10 -82 -10q-23 0 -45 5q-18 4 -31 14zM330 5v-2q29 0 50 24t33 71q7 28 12 63q4 31 4 75q0 35 -5 72q-4 32 -15 58q-13 37 -38 57t-56 20q-13 0 -24 -3q-14 -4 -21 -7v-316q0 -55 15 -83q15 -29 45 -29z" />
    <glyph glyph-name="q" unicode="q" horiz-adv-x="637" 
d="M160 513h4q34 19 74 30q37 10 83 10q25 0 44 -4q22 -5 41 -12q22 -8 40 -19q20 -12 36 -27l117 61h4l-5 -127v-588q0 -12 4 -19q4 -8 12 -12q4 -2 12 -3l24 -3v-14h-334v14l29 3q9 1 18 5q15 4 21 12t6 21v256q-11 -22 -29 -45q-15 -19 -38 -34q-21 -14 -48 -22
q-24 -7 -54 -7q-47 0 -87 21t-69 59q-25 33 -37 78q-12 43 -12 93q0 44 9 84q9 39 26 75q18 38 46 66q29 29 63 48zM380 494h-1q-7 20 -21 30q-14 11 -31 11q-28 0 -49 -24t-33 -70q-8 -31 -11 -63q-3 -34 -3 -73q0 -36 5 -73q4 -30 14 -58q15 -38 39 -58q23 -19 57 -19
q14 0 24 3q7 2 21 8v316q0 21 -3 39q-2 14 -8 31z" />
    <glyph glyph-name="r" unicode="r" horiz-adv-x="472" 
d="M276 553l-4 -198q6 35 17 69q10 30 24 55q20 35 45 53q26 18 57 18q13 0 27 -3t24 -9v-165h-26q-38 0 -51 -1q-17 -1 -34 -3q-25 -3 -45 -9t-36 -15v-292q0 -13 6 -21t21 -12q6 -2 18 -4l29 -3v-14h-334v14q16 1 24 3l12 3q8 5 12 12t4 19v378l-53 61v4l259 60h4z" />
    <glyph glyph-name="s" unicode="s" horiz-adv-x="469" 
d="M381 40l-4 -2q-31 -23 -73 -37q-40 -13 -88 -13q-26 0 -51 3t-51 9q-27 7 -52 18q-27 12 -41 22l-6 157h10q9 -41 25 -72q17 -34 39 -59q26 -29 60 -46q32 -16 69 -16q20 0 36 6q17 6 28 16q12 10 18 26q6 15 6 34q0 14 -5 27t-15 23q-8 8 -19 15q-13 8 -28 15
q-7 4 -18 9l-33 12l-39 15q-13 4 -24 9q-14 6 -30 17q-13 9 -24 18q-11 10 -22 26q-9 13 -15 29q-6 15 -9 32t-3 35q0 42 18 78t52 61q33 24 70 35q39 12 82 12q48 0 91 -12q45 -12 78 -34v-130h-10q-5 29 -19 56q-15 28 -36 51q-24 26 -52 39q-30 14 -57 14q-14 0 -31 -5
q-14 -4 -25 -15q-10 -9 -16 -22q-6 -14 -6 -30q0 -13 5 -26q4 -11 15 -22q8 -8 19 -15l27 -15q1 0 7.5 -2.5t10.5 -4.5l32 -12q30 -12 40 -15q13 -4 24 -9q20 -10 32 -18q18 -12 26 -19q15 -13 24 -25q10 -12 16 -30q7 -14 10 -31q3 -16 3 -36q0 -44 -18 -82
q-17 -36 -53 -64z" />
    <glyph glyph-name="t" unicode="t" horiz-adv-x="391" 
d="M255 689l5 -5v-156h120v-40h-120v-331q0 -38 18 -56t55 -18q15 0 33 5q16 4 30 12l4 -5q-17 -27 -37 -45q-22 -20 -43 -33q-24 -14 -52 -22q-25 -7 -56 -7q-37 0 -67 12q-29 12 -51 35q-20 23 -30 54q-10 30 -10 69v335h-54v18q30 11 66 30t72 45q39 27 66 52
q30 27 51 51z" />
    <glyph glyph-name="u" unicode="u" horiz-adv-x="661" 
d="M605 553l-11 -142v-332q0 -16 3 -25t9 -15q6 -4 18 -7q10 -3 26 -3v-14l-260 -34h-4l3 109q-15 -22 -36 -43q-20 -20 -40 -33q-25 -16 -51 -24q-27 -8 -53 -8q-37 0 -67 12q-31 12 -50 36q-18 22 -27 54q-9 31 -9 70v263q0 17 -3 27q-3 12 -7 18q-7 9 -15 14
q-10 7 -24 11v10l258 52h4l-6 -132v-254q0 -37 17 -57q16 -19 51 -19q15 0 32 5q15 4 29 14v315q0 17 -3 27q-3 12 -7 18q-7 9 -15 14q-10 7 -24 11v10l258 52h4z" />
    <glyph glyph-name="v" unicode="v" horiz-adv-x="588" 
d="M415 543l182 -4v-14q-17 -3 -27 -9q-12 -7 -20 -16q-7 -7 -13 -19q-1 -3 -4 -8t-5.5 -10t-4.5 -10l-197 -460h-39l-235 472q-8 17 -12 24q-6 10 -9 14q-6 7 -15 12t-24 9v14h342v-14q-14 -2 -24 -3q-12 -2 -18 -4q-14 -5 -19 -10q-6 -6 -6 -15q0 -3 2 -13q1 -7 6 -16
l115 -265l103 253q4 9 5 17q2 12 2 16q0 13 -8 23t-24 14q-12 4 -22 5q-15 2 -31 3v14z" />
    <glyph glyph-name="w" unicode="w" horiz-adv-x="865" 
d="M692 543l179 -6v-14q-17 -3 -27 -9q-11 -6 -18 -16q-7 -7 -13 -19q-3 -6 -13 -28l-187 -460h-39l-138 328l-133 -328h-39l-212 472q-5 11 -12 25q-5 9 -11 14q-6 8 -15 12q-8 4 -23 9v14h299v-14q-10 -2 -14 -4q-6 -3 -10 -7q-5 -5 -6 -10q-2 -8 -2 -13q0 -3 2 -13
q1 -7 6 -16l104 -251l55 140l-48 114q-8 20 -10 24q-5 9 -9 15q-6 9 -14 14q-9 5 -20 8v14h318v-14q-14 -2 -24 -3q-12 -2 -18 -4q-13 -5 -19 -10q-6 -6 -6 -15v-6q0 -2 2 -8l2 -4l3 -9l95 -251l92 240q5 8 6 15q2 10 2 15q0 13 -8 23t-24 14q-11 4 -22 5q-15 2 -31 3v14z
" />
    <glyph glyph-name="x" unicode="x" horiz-adv-x="614" 
d="M202 0l-214 -2v14q30 4 58 23t51 49l122 161l-153 223l-6.5 9t-5.5 8.5t-4 5.5q-8 10 -10 12q-10 10 -18 14q-9 5 -21 9v14h340v-14q-35 -3 -51 -12q-17 -9 -17 -24q0 -6 3 -13t9 -15l89 -129l87 118q8 11 13 22q4 9 4 19q0 11 -7 17q-9 7 -22 11q-8 2 -19 3q-16 2 -25 3
v14h197v-14q-32 -5 -56 -22q-27 -19 -50 -49l-106 -140l167 -244q4 -6 17 -21q5 -6 15 -16q9 -8 18 -12q8 -4 23 -9v-14h-349v14q31 3 48 14t17 26q0 4 -2 12q-2 6 -6 12l-103 150l-102 -139q-8 -10 -13 -21q-4 -8 -4 -16q0 -17 21 -26q22 -10 65 -11v-14z" />
    <glyph glyph-name="y" unicode="y" horiz-adv-x="588" 
d="M294 -38l8 12l-251 489q-8 16 -14 26q-5 7 -9 12q-8 7 -15 12q-7 4 -23 9v14h342v-14q-14 -2 -24 -3q-12 -2 -18 -4q-14 -5 -19 -10q-6 -6 -6 -15q0 -3 2 -13q1 -7 6 -16l117 -269l95 246q1 3 3 8t3 9t2 7q3 10 3 21q0 12 -8 22t-24 14q-13 4 -24 5q-15 2 -31 3v14h186
v-14q-17 -3 -27 -9q-12 -7 -20 -16q-7 -7 -13 -19q-3 -6 -13 -28l-216 -516q-17 -40 -28 -60q-14 -25 -27 -45q-24 -31 -46 -44q-25 -14 -53 -14q-14 0 -27 3q-12 3 -24 11q-13 8 -20 18q-8 11 -12 22v69l26 -6q7 -2 19 -4l24 -3q8 -1 24 -1q29 0 45 4q19 5 33 13
q16 9 30 24t24 36z" />
    <glyph glyph-name="z" unicode="z" horiz-adv-x="532" 
d="M507 0l-502 -1v10l289 512h-68q-34 0 -63 -15q-28 -15 -54 -47q-19 -23 -35 -51q-20 -37 -35 -70h-8l14 236h6l32 -32h439v-10l-283 -512h92q32 0 60 16q29 17 57 49q17 20 36 50q16 26 39 68h8z" />
    <glyph glyph-name="braceleft" unicode="{" horiz-adv-x="373" 
d="M50 310l-2 4q41 6 62 32t21 69v224q0 39 18 66q17 26 56 43q25 10 60 15q38 5 78 5v-11q-22 -3 -36 -10t-25 -21q-8 -11 -13 -28q-4 -15 -4 -39v-225q0 -28 -17 -51q-16 -23 -51 -39q-23 -10 -51 -18q-33 -9 -66 -14q33 -5 66 -14q28 -8 51 -18q35 -16 51 -39
q17 -23 17 -51v-224q0 -21 5 -39q4 -15 14 -28q11 -14 25 -21t36 -10v-11q-40 0 -78 5q-35 4 -60 15q-39 17 -56 43q-18 27 -18 66v223q0 43 -21 69t-62 32z" />
    <glyph glyph-name="bar" unicode="|" horiz-adv-x="210" 
d="M90 770h30v-911h-30v911z" />
    <glyph glyph-name="braceright" unicode="}" horiz-adv-x="373" 
d="M323 318l-2 -10q-42 -6 -62 -31q-21 -25 -21 -69v-223q0 -39 -18 -66q-17 -26 -56 -43q-26 -10 -60 -15q-38 -5 -78 -5v11q20 3 36 11q14 7 25 21q10 13 14 29q5 18 5 39v224q0 28 17 51q17 22 51 39q22 11 51 18q33 9 66 14q-33 5 -66 14q-29 7 -51 18q-34 17 -51 39
q-17 23 -17 51v225q0 24 -4 39q-5 18 -13 29q-11 14 -25 21q-16 8 -36 11v11q40 0 78 -5q34 -4 60 -15q39 -17 56 -43q18 -27 18 -66v-224q0 -44 21 -69q20 -25 62 -31z" />
    <glyph glyph-name="asciitilde" unicode="~" horiz-adv-x="448" 
d="M411 414l4 -5q-4 -28 -14 -58q-10 -29 -22 -48q-16 -28 -39 -43q-22 -15 -50 -15q-8 0 -24 2q-13 2 -23 6q-6 2 -18 8l-25 14l-21 12q-8 5 -13 6q-11 5 -19 6q-12 2 -18 2q-28 0 -52 -15q-23 -14 -40 -42l-7 3q4 28 14 58q9 27 23 47q18 29 41 44q22 15 50 15q8 0 24 -2
q12 -1 24 -6q15 -6 17 -7t6.5 -3t9.5 -4.5t10 -5.5l20 -12q6 -4 14 -6q9 -5 18 -6q12 -2 18 -2q28 0 52 15q23 14 40 42z" />
    <glyph glyph-name="uni00A0" unicode="&#xa0;" horiz-adv-x="165" 
 />
    <glyph glyph-name="exclamdown" unicode="&#xa1;" horiz-adv-x="305" 
d="M72 422l-2 -1q-16 16 -23 36q-8 22 -8 44t8 44q7 20 24 37q16 16 36 23q22 8 44 8t44 -8q20 -7 36 -23q17 -17 24 -37q8 -22 8 -43q0 -22 -8 -44q-7 -20 -23 -36q-17 -15 -37 -24q-21 -9 -43 -9t-43 9q-20 9 -37 24zM142 361h17l128 -461h-273z" />
    <glyph glyph-name="cent" unicode="&#xa2;" horiz-adv-x="537" 
d="M231 -117l-25 -8l19 110q-48 7 -90 32q-41 24 -69 63q-26 35 -40 82q-13 45 -13 99q0 42 10 78q11 37 30 72q19 33 47 63q27 28 60 48q36 22 72 32q39 11 78 11h8h7l18 107h20l-18 -109q32 -3 59 -12t47 -23q25 -16 39 -41t14 -53q0 -13 -3 -25q-3 -13 -9 -23
q-10 -14 -16 -20q-8 -8 -19 -13h-93q4 17 6 33q2 22 2 33q0 38 -8 70q-7 29 -24 46l-66 -387q21 -14 45 -21q22 -7 52 -7q43 0 78 18t62 56l4 -2q-8 -48 -28 -84q-22 -39 -52 -65q-31 -26 -72 -40q-39 -13 -89 -13h-15q-7 0 -10 1zM297 545l1 -1q-27 0 -49 -19
q-23 -19 -39 -54q-10 -24 -16 -55q-6 -30 -6 -63q0 -66 17 -117q16 -48 50 -79l65 384q-6 2 -10 3t-13 1z" />
    <glyph glyph-name="sterling" unicode="&#xa3;" horiz-adv-x="696" 
d="M180 344l-111 -1l6 22h96l-3 39q-1 13 -1 39q0 64 18 115q17 50 56 85q36 35 87 51q53 17 116 17q37 0 70 -6q30 -5 58 -17q36 -16 54 -42t18 -58q0 -15 -4 -27t-12 -25q-9 -11 -20 -20q-9 -8 -23 -13h-102q9 16 15 41q6 24 6 50q0 51 -11 78q-10 25 -33 25
q-15 0 -25 -10q-11 -11 -18 -31q-3 -9 -6 -26q-3 -14 -6 -38l-25 -225v-2h154l-6 -22h-151q-7 -48 -21 -94q-14 -45 -33 -84q78 -13 123 -18q50 -5 73 -5q19 0 36 3q16 3 29 11q16 8 23 21q8 14 8 32q0 8 -2 20q-1 8 -6 19l7 2q14 -8 24 -19q11 -13 18 -25q8 -15 11 -28
q3 -15 3 -31q0 -34 -12 -64q-11 -28 -35 -52q-23 -22 -53 -32q-31 -11 -65 -11q-19 0 -40 3q-19 3 -42 11q-24 10 -36 16q-21 10 -38 21q-11 6 -28 18l-40 28q-37 -47 -78 -71q-42 -24 -86 -24q-24 0 -45 6q-20 6 -36 20q-18 14 -27 33t-9 44q0 23 9 42t27 33t37 20
q21 6 45 6q14 0 24 -1q16 -2 44 -6v37q0 27 -1 42q-1 16 -3 44q0 7 -0.5 15t-1 12.5t-0.5 6.5zM38 149q-11 -11 -17 -24t-6 -30q0 -13 5 -26q4 -12 12 -21q10 -10 21 -14q13 -5 26 -5q44 0 68 29q24 28 30 87q-23 11 -42 15q-22 5 -39 5q-20 0 -33 -4q-14 -4 -25 -12z" />
    <glyph glyph-name="yen" unicode="&#xa5;" horiz-adv-x="714" 
d="M258 203l-165 -2v22h158v103h-158v23h144l-178 277l-17 26q-4 8 -9 12q-8 9 -17 14q-9 4 -23 6v16h390v-16q-18 -2 -29 -3q-12 -1 -21 -3q-17 -4 -24 -12q-8 -8 -8 -19q0 -3 2 -13q1 -8 6 -15q2 -3 6 -11q3 -6 9 -15l134 -228l115 212q13 24 17 38q5 17 5 29q0 14 -10 23
q-11 10 -33 14l-26 3q-16 2 -37 3v16h220v-16q-17 -2 -28 -7q-14 -7 -23 -16q-8 -8 -15 -19q-14 -22 -17 -28l-145 -265h146v-23h-158v-103h158v-22h-158v-125q0 -11 2 -23q1 -9 6 -15q5 -7 12 -12q6 -4 21 -7q6 -2 15 -3t24 -3v-16h-372v16q15 1 25 3q6 1 16 3q13 2 20 6
t12 11q4 6 6 15q2 12 2 24v125z" />
    <glyph glyph-name="brokenbar" unicode="&#xa6;" horiz-adv-x="210" 
d="M90 770h30v-376h-30v376zM90 235h30v-376h-30v376z" />
    <glyph glyph-name="section" unicode="&#xa7;" horiz-adv-x="531" 
d="M220 99l-34 36q-9 11 -18 26q-28 39 -52 78q-19 32 -34 66q-19 39 -28 81q-9 40 -9 81q0 52 19 96q20 46 55 78q34 31 81 49q46 18 96 18q32 0 60 -6t51 -18q27 -14 43 -38q15 -22 15 -51q0 -22 -12 -37q-13 -16 -34 -23h-94v56q0 23 -3 39q-2 13 -8 28q-9 16 -23 24
t-33 8q-28 0 -43 -17t-15 -48q0 -17 5 -39q4 -19 15 -40q6 -14 18 -34q9 -15 24 -37l18 -24l32 -41l32 -40q12 -16 18 -25q28 -39 52 -78q23 -37 35 -66q19 -39 28 -81q9 -40 9 -81q0 -52 -19 -96q-20 -46 -55 -78q-34 -31 -81 -49t-96 -18q-31 0 -60 6t-51 18
q-27 14 -43 38q-15 22 -15 51q0 23 12 38q13 16 34 23h94v-56q0 -22 3 -39q3 -16 9 -28q8 -17 21 -24q14 -8 33 -8q28 0 43 17q15 16 15 48q0 22 -4 39q-5 20 -15 41q-6 14 -18 34q-12 21 -24 38l-18 24zM416 180l-3 -1q-13 30 -33 63q-21 35 -48 71l-31 41q-23 29 -29 38
q-17 21 -33 44q-12 17 -24 38q-14 24 -25 49q-10 24 -15 45q-6 29 -5 51q2 25 9 47q-27 -16 -47 -36q-22 -22 -35 -47q-13 -24 -19 -54q-6 -29 -6 -60q0 -37 9 -75q8 -35 26 -75q13 -30 33 -63q18 -31 48 -70l32 -41q23 -29 29 -38q17 -21 33 -44q12 -17 24 -38
q14 -24 25 -49q11 -24 15 -45q6 -29 5 -51q-2 -25 -9 -47q27 16 47 36q21 21 35 47q14 27 20 54q6 28 6 60q0 38 -9 75q-10 40 -25 75z" />
    <glyph glyph-name="dieresis" unicode="&#xa8;" 
d="M208 619v-2q-12 -11 -30 -19q-15 -7 -34 -7t-34 7q-18 8 -30 19q-11 11 -19 29q-7 15 -7 33t7 33q8 18 19 29q12 11 30 19q15 7 34 7t34 -7q18 -8 30 -19t19 -28q7 -15 7 -33t-7 -33q-7 -16 -19 -28zM418 617v-2q-12 -11 -30 -19q-15 -7 -34 -7t-34 7q-18 8 -30 19
q-11 11 -19 29q-7 15 -7 33t7 33q8 18 19 29q12 11 30 19q15 7 34 7t34 -7q18 -8 30 -19t19 -28q7 -15 7 -33t-7 -33q-7 -16 -19 -28z" />
    <glyph glyph-name="copyright" unicode="&#xa9;" horiz-adv-x="776" 
d="M76 170l-2 -1q-22 39 -34 87q-12 46 -12 96t12 95q12 44 35 86q21 40 56 76q32 34 74 57t87 35q46 12 96 12t96 -12q45 -12 87 -35t74 -57q35 -36 56 -76q23 -42 35 -87q12 -46 12 -96q0 -49 -12 -94q-13 -48 -34 -86q-21 -40 -56 -76q-32 -34 -74 -57t-87 -35
q-47 -12 -96 -12t-96 12q-45 12 -87 35t-74 57q-35 36 -56 76zM91 521h-2q-22 -39 -32 -81q-11 -46 -11 -90t11 -90q10 -42 32 -81q23 -41 54 -72t71 -54q38 -23 81 -33q46 -11 90 -11t90 11q43 10 81 33q40 23 71 54t54 72q22 39 32 81q11 46 11 90t-11 90q-10 42 -32 81
q-23 41 -54 72q-32 32 -70 54q-37 23 -81 33q-46 11 -90 11t-90 -11q-44 -10 -81 -33q-38 -22 -70 -54q-31 -31 -54 -72zM333 230l2 2q13 -35 36 -55q22 -19 51 -19q22 0 42 13q22 14 38 36q13 17 24 41q12 25 17 48h10l-9 -115q-28 -19 -66 -30q-36 -10 -81 -10
q-44 0 -84 14q-39 13 -68 41q-31 28 -48 66q-16 36 -16 81t17 87q17 41 48 71q32 31 72 47q42 17 84 17q18 0 36 -3q24 -4 35 -7q19 -6 36 -15t28 -19v-106h-9q-3 23 -12 45q-8 21 -21 40q-17 23 -36 35t-39 12q-27 0 -49 -19q-23 -20 -36 -57q-10 -24 -16 -55
q-6 -30 -6 -63q0 -31 5 -66q4 -31 15 -57z" />
    <glyph glyph-name="ordfeminine" unicode="&#xaa;" horiz-adv-x="429" 
d="M312 688l-7 -4q22 -13 33 -38t11 -60v-166q0 -14 6 -21t17 -7q4 0 12 2q7 2 14 6l3 -7q-16 -24 -41 -40q-24 -15 -52 -15q-18 0 -30 4q-14 4 -24 12q-13 10 -20 21q-8 12 -12 27q-8 -14 -19 -25q-11 -12 -25 -19q-13 -7 -29 -12q-13 -4 -32 -4t-36 6q-15 5 -28 17
q-12 11 -19 29q-6 16 -6 36q0 22 9 38t27 30q11 8 32 19q15 8 42 16l85 26v62q0 20 -1 27q-2 14 -3 20q-3 15 -10 22t-19 7q-16 0 -24 -12q-7 -11 -7 -37q0 -14 3 -31q4 -20 7 -30l-90 -13q-5 2 -13 8q-4 3 -10 11q-4 7 -6 15q-2 10 -2 15q0 24 15 42t43 30q19 7 44 12
q27 5 53 5q37 0 64 -6t45 -18zM162 423l-3 -1q5 -9 14 -16q7 -6 18 -6q6 0 14 2q7 2 11 6v135l-25 -11q-12 -4 -20 -11q-7 -6 -12 -15q-5 -8 -6 -18q-2 -14 -2 -24q0 -12 3 -22q2 -7 8 -19zM318 278h-244v22h244v-22z" />
    <glyph glyph-name="guillemotleft" unicode="&#xab;" horiz-adv-x="460" 
d="M250 71l-230 202v6l230 202h7l-82 -205l82 -205h-7zM433 71l-230 202v6l230 202h7l-82 -205l82 -205h-7z" />
    <glyph glyph-name="registered" unicode="&#xae;" horiz-adv-x="515" 
d="M95 322h-2q-31 31 -48 74t-17 88q0 46 17 89q16 41 48 73t73 48q43 17 89 17t89 -17t74 -48t48 -74t17 -89q0 -45 -17 -88q-16 -41 -48 -73t-73 -48q-43 -17 -89 -17q-45 0 -88 17q-41 16 -73 48zM107 632h-1q-28 -28 -43 -67t-15 -81t15 -81q14 -37 44 -67
q29 -29 66 -44t81 -15t81 15t66 44t44 68t15 81q0 43 -15 81q-15 37 -44 66t-66 44t-81 15t-81 -15t-66 -44zM140 599l4 6h120q20 0 36 -3q17 -3 29 -9q18 -10 26 -22q9 -13 9 -31q0 -12 -4 -21q-4 -11 -13 -19q-6 -6 -18 -13q-11 -6 -21 -9l54 -80q8 -10 15 -15t15 -6v-9
h-77q-6 4 -16 15q-9 11 -15 21l-37 68h-12v-69q0 -10 1 -13t3 -7q1 -1 6 -3q3 -1 12 -1v-9h-116v9q9 0 12 1q6 2 8 4q2 1 4 6q1 3 1 14v170q0 10 -1 13q-2 5 -4 6q-1 1 -6 3t-15 3zM280 577l-1 -5q-6 8 -15 12q-8 4 -21 4h-7v-111h7q13 0 21 4t16 12q6 7 9 18t3 24t-3 24
t-9 18z" />
    <glyph glyph-name="macron" unicode="&#xaf;" 
d="M397 634h-294v51h294v-51z" />
    <glyph glyph-name="degree" unicode="&#xb0;" horiz-adv-x="264" 
d="M212 680l-2 -2q15 -15 24 -36t9 -43t-9 -43t-24 -36q-17 -17 -37 -24q-22 -8 -43 -8t-43 8q-20 7 -37 24q-15 15 -24 36t-9 44t9 44t24 36q17 17 37 24q22 8 44 8t44 -8q20 -7 37 -24zM197 533q13 13 21 30q7 15 7 36t-7 36q-8 17 -21 30q-14 14 -31 21t-37 7t-37 -7
t-31 -21q-13 -13 -21 -30q-7 -15 -7 -36t7 -36q8 -17 21 -30q14 -14 31 -21t37 -7t37 7t31 21z" />
    <glyph glyph-name="plusminus" unicode="&#xb1;" horiz-adv-x="564" 
d="M271 420h-208v22h208v158h22v-158h208v-22h-208v-158h-22v158zM501 170h-438v22h438v-22z" />
    <glyph glyph-name="uni00B2" unicode="&#xb2;" horiz-adv-x="399" 
d="M227 497l-2 -1q-11 -5 -43 -21q-28 -14 -29 -15h119q9 0 17 2q6 2 12 6q6 6 9 10q8 10 11 16h6l-9 -127h-258v8l91 94q4 5 13.5 14.5t12.5 13.5q11 12 14 18q11 13 15 27q5 15 5 27q0 14 -4 23q-5 10 -12 18t-18 12q-9 4 -24 4q-22 0 -40 -9q-19 -9 -33 -28l-6 4
q6 22 20 44q14 21 33 36q21 17 42 26q23 9 48 9q23 0 42 -6q18 -6 33 -17q16 -13 23 -30q8 -19 8 -40q0 -20 -7 -37q-8 -18 -22 -34q-14 -14 -28 -23z" />
    <glyph glyph-name="uni00B3" unicode="&#xb3;" horiz-adv-x="394" 
d="M278 579l-3 -3q-14 -9 -27 -14q-15 -6 -33 -9q26 0 43 -4q20 -5 33 -12q19 -10 28 -27q9 -16 9 -37q0 -26 -13 -48q-13 -23 -39 -39q-20 -14 -45 -21q-24 -7 -53 -7q-22 0 -42 3q-19 3 -34 9q-22 9 -34 24t-12 33q0 6 2 14q2 7 6 11q2 4 8 10q3 3 11 7h64l-3 -15
q-1 -5 -1 -16q0 -10 2 -24q1 -10 6 -18q5 -11 14 -17t20 -6t20 6t15 17q4 7 7 21q3 12 3 25q0 16 -5 33q-5 16 -15 26q-11 11 -24 17q-14 6 -30 6h-12l-3 7q11 4 24 11q11 6 18 12q10 7 15 17t5 23q0 10 -3 18q-4 9 -10 14q-7 5 -15 8q-9 3 -19 3q-20 0 -36 -9t-30 -27l-8 3
q7 21 20 42q11 19 29 33q18 17 39 24q22 8 44 8q21 0 36 -4q18 -5 29 -13q14 -11 21 -25t7 -34q0 -17 -7 -31q-7 -15 -22 -25z" />
    <glyph glyph-name="acute" unicode="&#xb4;" 
d="M155 772h237v-4l-278 -175h-6z" />
    <glyph glyph-name="paragraph" unicode="&#xb6;" horiz-adv-x="617" 
d="M339 -197l-28 1v391q-40 0 -72 7q-37 8 -65 22q-32 14 -61 38q-25 21 -46 53q-19 27 -28 63q-9 35 -9 71q0 37 9 71q9 33 29 63q21 32 46 53q28 24 60 38q28 14 65 22q32 7 72 7h278v-18q-21 0 -29 -1q-12 -2 -21 -3q-14 -3 -25 -8q-8 -4 -15 -14q-4 -6 -7 -19
q-3 -12 -3 -29v-808h-26v880h-124v-880zM222 308l-2 2q14 -44 36 -69t53 -30v480q-29 -4 -52 -30q-23 -25 -36 -69q-11 -30 -15 -66q-4 -32 -4 -76q0 -36 5 -76q5 -36 15 -66z" />
    <glyph glyph-name="periodcentered" unicode="&#xb7;" horiz-adv-x="275" 
d="M61 229v-3q-16 14 -23 33q-8 21 -8 42t8 42q7 20 23 35q14 16 33 23q21 8 42 8t42 -8q20 -8 35 -21q15 -15 23 -35q8 -21 8 -42t-8 -42q-7 -18 -23 -34q-14 -14 -35 -22q-18 -7 -42 -7q-21 0 -42 8q-19 7 -33 23z" />
    <glyph glyph-name="cedilla" unicode="&#xb8;" 
d="M269 -209l1 -2q-24 -8 -55 -12q-28 -4 -66 -4l-4 12q22 2 33 4q12 2 27 8q17 8 26 20t9 26q0 13 -7 20t-21 12q-8 2 -19 3q-13 2 -28 3l54 120h10l-9 -41q20 0 43 -5q19 -4 37 -14q22 -13 32 -28q11 -17 11 -36q0 -31 -19 -51q-20 -22 -55 -35z" />
    <glyph glyph-name="uni00B9" unicode="&#xb9;" horiz-adv-x="347" 
d="M142 653v-1q27 10 51 26q22 14 36 32h10v-288q0 -9 2 -17q1 -5 6 -10q3 -4 9 -7q4 -2 17 -4q3 -1 11 -1q10 0 18 -1v-15h-262v15q6 1 15 1q8 0 11 1q10 2 12 2q3 0 9 2q6 1 12 5q5 3 6 7q2 6 2 9v15v189h-66v14q28 3 53 9q23 5 48 17z" />
    <glyph glyph-name="ordmasculine" unicode="&#xba;" horiz-adv-x="431" 
d="M350 393l-2 -1q-27 -26 -63 -39q-35 -13 -77 -13q-40 0 -73 13q-35 13 -60 39q-25 24 -39 57q-13 32 -13 72q0 43 15 77t42 60t63 39q37 14 77 14q41 0 74 -13q34 -14 60 -39q26 -24 39 -57q14 -34 14 -72q0 -40 -15 -76q-15 -35 -42 -61zM169 438l1 -1q7 -41 20 -63
q12 -21 30 -21q16 0 27 17q11 16 15 51q2 12 4 38q1 14 1 48q0 22 -2 58q-1 20 -5 49q-8 42 -21 63t-30 21t-27 -16t-15 -51q-2 -12 -4 -38q-1 -14 -1 -48q0 -22 2 -58q1 -20 5 -49zM336 281h-244v22h244v-22z" />
    <glyph glyph-name="guillemotright" unicode="&#xbb;" horiz-adv-x="460" 
d="M440 279v-6l-230 -202h-7l82 205l-82 205h7zM257 279v-6l-230 -202h-7l82 205l-82 205h7z" />
    <glyph glyph-name="onequarter" unicode="&#xbc;" horiz-adv-x="688" 
d="M142 653v-1q27 10 51 26q22 14 36 32h10v-288q0 -9 2 -17q1 -5 6 -10q3 -4 9 -7q4 -2 17 -4q3 -1 11 -1q10 0 18 -1v-15h-262v15q6 1 15 1q8 0 11 1q10 2 12 2q3 0 9 2q6 1 12 5q5 3 6 7q2 6 2 9v15v189h-66v14q28 3 53 9q23 5 48 17zM120 -11h-34l478 722h34zM621 15
l-5 -16h-225v16l17 2h11q10 2 14 3q5 1 9 5q4 3 6 9q2 8 2 15v55h-165v13l194 225h85v-216h77v-22h-77v-55q0 -7 2 -15q1 -4 5 -10q4 -4 9 -5q6 -1 15 -3h10q9 0 16 -1zM447 276l-130 -149h130v149z" />
    <glyph glyph-name="onehalf" unicode="&#xbd;" horiz-adv-x="654" 
d="M142 653v-1q27 10 51 26q22 14 36 32h10v-288q0 -9 2 -17q1 -5 6 -10q3 -4 9 -7q4 -2 17 -4q3 -1 11 -1q10 0 18 -1v-15h-262v15q6 1 15 1q8 0 11 1q10 2 12 2q3 0 9 2q6 1 12 5q5 3 6 7q2 6 2 9v15v189h-66v14q28 3 53 9q23 5 48 17zM120 -11h-34l478 722h34zM507 128
l-2 -1q-11 -5 -43 -21q-28 -14 -29 -15h119q9 0 17 2q6 1 12 6q6 6 9 10q8 10 11 16h6l-9 -127h-258v8l91 94q4 5 13.5 14.5t12.5 13.5q11 12 14 18q11 14 15 27q5 15 5 27q0 14 -4 23q-5 11 -12 18t-18 12q-9 4 -24 4q-22 0 -40 -9q-19 -9 -33 -28l-6 4q6 22 20 44
q14 21 33 36q21 17 42 26q23 9 48 9q23 0 42 -6q18 -6 33 -17q16 -13 23 -30q8 -19 8 -40q0 -20 -7 -37q-8 -18 -22 -34q-14 -14 -28 -23z" />
    <glyph glyph-name="threequarters" unicode="&#xbe;" horiz-adv-x="688" 
d="M120 -10h-34l478 722h34zM278 579l-3 -3q-14 -9 -27 -14q-15 -6 -33 -9q26 0 43 -4q20 -5 33 -12q19 -10 28 -27q9 -16 9 -37q0 -26 -13 -48q-13 -23 -39 -39q-20 -14 -45 -21q-24 -7 -53 -7q-22 0 -42 3q-19 3 -34 9q-22 9 -34 24t-12 33q0 6 2 14q2 7 6 11q2 4 8 10
q3 3 11 7h64l-3 -15q-1 -5 -1 -16q0 -10 2 -24q1 -10 6 -18q5 -11 14 -17t20 -6t20 6t15 17q4 7 7 21q3 12 3 25q0 16 -5 33q-5 16 -15 26q-11 11 -24 17q-14 6 -30 6h-12l-3 7q11 4 24 11q11 6 18 12q10 7 15 17t5 23q0 10 -3 18q-4 9 -10 14q-7 5 -15 8q-9 3 -19 3
q-20 0 -36 -9t-30 -27l-8 3q7 21 20 42q11 19 29 33q18 17 39 24q22 8 44 8q21 0 36 -4q18 -5 29 -13q14 -11 21 -25t7 -34q0 -17 -7 -31q-7 -15 -22 -25zM618 13l-5 -16h-225v16l17 2h11q10 2 14 3q5 1 9 5q5 3 6 9q2 8 2 15v55h-165v13l194 225h85v-216h77v-22h-77v-55
q0 -7 2 -15q1 -4 5 -10q4 -4 9 -5q6 -1 15 -3h10q9 0 16 -1zM444 274l-130 -149h130v149z" />
    <glyph glyph-name="questiondown" unicode="&#xbf;" horiz-adv-x="496" 
d="M342 582l-2 -1q17 -17 24 -37q8 -22 8 -43q0 -22 -8 -44q-7 -20 -23 -36q-17 -15 -37 -24q-21 -9 -43 -9t-43 9q-20 9 -37 24q-16 16 -23 36q-8 22 -8 44t8 44q7 20 24 37q16 16 36 23q22 8 44 8t44 -8q20 -7 36 -23zM203 44l-1 -10q-6 -12 -9 -25t-3 -28q0 -18 3 -33
q3 -13 11 -25q7 -12 20 -19q12 -6 29 -6q19 0 32 9q14 9 23 27q6 14 9 31q3 18 3 38q0 18 -5 45q-4 21 -14 43h128q12 -5 20 -12q9 -7 15 -18q6 -9 9 -20t3 -21q0 -35 -22 -61t-63 -46q-28 -13 -65 -21q-34 -7 -76 -7q-48 0 -87 10q-41 11 -72 30q-39 24 -60 60t-21 78
q0 33 12 60q12 28 36 53q17 17 41 35q23 17 62 39q13 7 28 17q3 2 15 11q12 8 22 18t14 18q5 11 6 22q2 12 0 27h9q27 -5 44 -13q20 -9 33 -22q17 -14 26 -33t9 -42q0 -13 -3 -27q-3 -13 -9 -25q-4 -7 -14 -21q-7 -10 -18 -21q-10 -10 -16 -15q-9 -8 -27 -21t-27 -21
q-6 -5 -16 -15q-13 -12 -20 -21q-10 -14 -14 -22z" />
    <glyph glyph-name="Agrave" unicode="&#xc0;" horiz-adv-x="760" 
d="M466 63l-5 -1q0 4 -2 16q-1 8 -6 22l-57 157h-230l-56 -157q-2 -6 -4 -18q-1 -6 -1 -16q0 -24 27 -36q28 -13 82 -14v-16h-222v16l23 3q6 1 16 5q12 6 17 10q8 6 14 14q6 10 9 16t9 20l191 527l-33 91h233l232 -644q5 -12 10 -18q6 -7 14 -12q5 -4 15 -7q6 -2 23 -4v-16
h-375v16q18 2 29 3q10 1 21 5q14 6 20 15t6 23zM279 576l-106 -298h215zM167 885v4h237l27 -149h-4z" />
    <glyph glyph-name="Aacute" unicode="&#xc1;" horiz-adv-x="760" 
d="M466 63l-5 -1q0 4 -2 16q-1 8 -6 22l-57 157h-230l-56 -157q-2 -6 -4 -18q-1 -6 -1 -16q0 -24 27 -36q28 -13 82 -14v-16h-222v16l23 3q6 1 16 5q12 6 17 10q8 6 14 14q6 10 9 16t9 20l191 527l-33 91h233l232 -644q5 -12 10 -18q6 -7 14 -12q5 -4 15 -7q6 -2 23 -4v-16
h-375v16q18 2 29 3q10 1 21 5q14 6 20 15t6 23zM279 576l-106 -298h215zM324 889h237v-4l-260 -145h-4z" />
    <glyph glyph-name="Acircumflex" unicode="&#xc2;" horiz-adv-x="760" 
d="M466 63l-5 -1q0 4 -2 16q-1 8 -6 22l-57 157h-230l-56 -157q-2 -6 -4 -18q-1 -6 -1 -16q0 -24 27 -36q28 -13 82 -14v-16h-222v16l23 3q6 1 16 5q12 6 17 10q8 6 14 14q6 10 9 16t9 20l191 527l-33 91h233l232 -644q5 -12 10 -18q6 -7 14 -12q5 -4 15 -7q6 -2 23 -4v-16
h-375v16q18 2 29 3q10 1 21 5q14 6 20 15t6 23zM279 576l-106 -298h215zM285 889h136l118 -149h-6l-180 65l-180 -65h-6z" />
    <glyph glyph-name="Atilde" unicode="&#xc3;" horiz-adv-x="760" 
d="M466 63l-5 -1q0 4 -2 16q-1 8 -6 22l-57 157h-230l-56 -157q-2 -6 -4 -18q-1 -6 -1 -16q0 -24 27 -36q28 -13 82 -14v-16h-222v16l23 3q6 1 16 5q12 6 17 10q8 6 14 14q6 10 9 16t9 20l191 527l-33 91h233l232 -644q5 -12 10 -18q6 -7 14 -12q5 -4 15 -7q6 -2 23 -4v-16
h-375v16q18 2 29 3q10 1 21 5q14 6 20 15t6 23zM279 576l-106 -298h215zM530 906l6 -5q-5 -31 -12 -56q-8 -27 -18 -47q-17 -30 -37 -44q-21 -15 -45 -15q-7 0 -21 2q-11 1 -21 6q-5 2 -15 8l-23 14q-12 7 -18 12q-6 4 -11 6q-9 5 -18 6q-12 2 -16 2q-25 0 -46 -15t-36 -42
l-8 3q5 31 12 56q8 27 18 47q17 29 38 44t45 15q7 0 21 -2q11 -1 21 -6q10 -4 15 -7q2 -1 9.5 -5.5t13.5 -7.5q12 -7 18 -12q6 -4 11 -6q9 -5 18 -6q12 -2 17 -2q25 0 46 15t36 42z" />
    <glyph glyph-name="Adieresis" unicode="&#xc4;" horiz-adv-x="760" 
d="M466 63l-5 -1q0 4 -2 16q-1 8 -6 22l-57 157h-230l-56 -157q-2 -6 -4 -18q-1 -6 -1 -16q0 -24 27 -36q28 -13 82 -14v-16h-222v16l23 3q6 1 16 5q12 6 17 10q8 6 14 14q6 10 9 16t9 20l191 527l-33 91h233l232 -644q5 -12 10 -18q6 -7 14 -12q5 -4 15 -7q6 -2 23 -4v-16
h-375v16q18 2 29 3q10 1 21 5q14 6 20 15t6 23zM279 576l-106 -298h215zM306 766v-2q-12 -11 -30 -19q-15 -7 -34 -7t-34 7q-18 8 -30 19q-11 11 -19 29q-7 15 -7 33t7 33q8 18 19 29q12 11 30 19q15 7 34 7t34 -7q18 -8 30 -19t19 -28q7 -15 7 -33t-7 -33q-7 -16 -19 -28z
M516 764v-2q-12 -11 -30 -19q-15 -7 -34 -7t-34 7q-18 8 -30 19q-11 11 -19 29q-7 15 -7 33t7 33q8 18 19 29q12 11 30 19q15 7 34 7t34 -7q18 -8 30 -19t19 -28q7 -15 7 -33t-7 -33q-7 -16 -19 -28z" />
    <glyph glyph-name="Aring" unicode="&#xc5;" horiz-adv-x="760" 
d="M466 63l-5 -1q0 4 -2 16q-1 8 -6 22l-57 157h-230l-56 -157q-2 -6 -4 -18q-1 -6 -1 -16q0 -24 27 -36q28 -13 82 -14v-16h-222v16l23 3q6 1 16 5q12 6 17 10q8 6 14 14q6 10 9 16t9 20l191 527l-33 91h233l232 -644q5 -12 10 -18q6 -7 14 -12q5 -4 15 -7q6 -2 23 -4v-16
h-375v16q18 2 29 3q10 1 21 5q14 6 20 15t6 23zM279 576l-106 -298h215zM439 916q17 -16 26 -36q9 -21 9 -44t-9 -44q-9 -20 -26 -36q-16 -16 -38 -24t-45 -8t-45 8t-38 24q-17 16 -26 36q-9 21 -9 44t9 44q9 20 26 36q16 16 38 24t45 8t45 -8t38 -24zM420 772l-2 -4
q14 12 20 29q6 16 6 35q0 18 -6 35q-7 18 -19 29q-13 12 -30 18t-36 6t-36 -6t-30 -18t-19 -28t-6 -34t6 -34q5 -15 20 -28q14 -12 30 -18t36 -6t36 6t30 18z" />
    <glyph glyph-name="AE" unicode="&#xc6;" horiz-adv-x="1018" 
d="M118 65l-6 -3q0 -24 24 -36q23 -11 76 -13v-16h-223v16q19 1 33 6q13 4 24 14q11 8 20 20q14 19 20 28l342 559q-9 20 -36 30t-72 12v16h648l5 -199h-12q-18 43 -36 75q-19 33 -37 51q-26 27 -57 39t-75 12h-86v-310h83q26 0 45 8t29 24q9 14 15 33q5 16 10 51h14v-246
h-14q-5 35 -10 51q-6 19 -15 33q-10 16 -29 24t-45 8h-83v-265q0 -18 5 -33q5 -14 15 -21q8 -7 23 -10q13 -3 36 -3h22q39 0 75 17q34 17 66 51q20 24 42 59q18 28 43 80h12l-33 -227h-591v16l23 3q6 1 16 3q12 5 17 9q7 5 8 12q1 6 3 15q1 6 1 25v204h-211l-104 -170
q-10 -18 -15 -30q-5 -13 -5 -22zM448 306v325l-198 -325h198z" />
    <glyph glyph-name="Ccedilla" unicode="&#xc7;" horiz-adv-x="685" 
d="M432 -209l-1 -7q-24 -8 -55 -12q-28 -4 -66 -4l-4 12q22 2 33 4q12 2 27 8q17 8 26 20t9 26q0 13 -7 20q-8 8 -21 12q-8 2 -19 3q-13 2 -28 3l48 108q-75 4 -141 29q-63 23 -112 68q-49 46 -75 110t-26 138q0 57 13 105q13 50 39 93t63 78q39 36 84 59q43 21 95 33
q51 12 104 12q59 0 113 -15q56 -16 98 -43l4 -181h-10q-9 40 -27 78t-42 69q-30 37 -65 57t-69 20q-46 0 -82 -36q-35 -35 -58 -105q-14 -44 -21 -97q-7 -50 -7 -114q0 -57 8 -115q7 -52 23 -96q23 -63 60 -96t87 -33q27 0 54 12t53 35q19 17 40 42q17 21 34 53q13 26 24 54
t18 60h11l-18 -203q-23 -17 -52 -30q-30 -14 -64 -21q-29 -8 -61 -12q-29 -4 -66 -4h-7h-7l-6 -28q20 0 43 -5q19 -4 37 -14q22 -13 32 -28q11 -17 11 -36q0 -31 -19 -51q-20 -22 -55 -35z" />
    <glyph glyph-name="Egrave" unicode="&#xc8;" horiz-adv-x="654" 
d="M645 227l-37 -231h-591v16l23 3q6 1 16 3q12 5 17 9q7 5 8 12q1 6 3 15q1 6 1 25v536v24q0 6 -2 14q-3 10 -9 14q-6 5 -18 9q-10 2 -16 3q-10 2 -22 3v16h586l5 -199h-12q-18 43 -36 75q-19 33 -37 51q-26 27 -57 39t-75 12h-86v-310h83q26 0 45 8t29 24q9 14 15 33
q5 16 10 51h14v-246h-14q-5 35 -10 51q-6 19 -15 33q-10 16 -29 24t-45 8h-83v-265q0 -18 5 -33q5 -14 15 -21q8 -7 23 -10q13 -3 36 -3h22q39 0 75 17q34 17 66 51q20 24 42 59q18 28 43 80h12zM158 882v4h237l27 -149h-4z" />
    <glyph glyph-name="Eacute" unicode="&#xc9;" horiz-adv-x="654" 
d="M645 227l-37 -231h-591v16l23 3q6 1 16 3q12 5 17 9q7 5 8 12q1 6 3 15q1 6 1 25v536v24q0 6 -2 14q-3 10 -9 14q-6 5 -18 9q-10 2 -16 3q-10 2 -22 3v16h586l5 -199h-12q-18 43 -36 75q-19 33 -37 51q-26 27 -57 39t-75 12h-86v-310h83q26 0 45 8t29 24q9 14 15 33
q5 16 10 51h14v-246h-14q-5 35 -10 51q-6 19 -15 33q-10 16 -29 24t-45 8h-83v-265q0 -18 5 -33q5 -14 15 -21q8 -7 23 -10q13 -3 36 -3h22q39 0 75 17q34 17 66 51q20 24 42 59q18 28 43 80h12zM315 886h237v-4l-260 -145h-4z" />
    <glyph glyph-name="Ecircumflex" unicode="&#xca;" horiz-adv-x="654" 
d="M645 227l-37 -231h-591v16l23 3q6 1 16 3q12 5 17 9q7 5 8 12q1 6 3 15q1 6 1 25v536v24q0 6 -2 14q-3 10 -9 14q-6 5 -18 9q-10 2 -16 3q-10 2 -22 3v16h586l5 -199h-12q-18 43 -36 75q-19 33 -37 51q-26 27 -57 39t-75 12h-86v-310h83q26 0 45 8t29 24q9 14 15 33
q5 16 10 51h14v-246h-14q-5 35 -10 51q-6 19 -15 33q-10 16 -29 24t-45 8h-83v-265q0 -18 5 -33q5 -14 15 -21q8 -7 23 -10q13 -3 36 -3h22q39 0 75 17q34 17 66 51q20 24 42 59q18 28 43 80h12zM276 886h136l118 -149h-6l-180 65l-180 -65h-6z" />
    <glyph glyph-name="Edieresis" unicode="&#xcb;" horiz-adv-x="654" 
d="M645 227l-37 -231h-591v16l23 3q6 1 16 3q12 5 17 9q7 5 8 12q1 6 3 15q1 6 1 25v536v24q0 6 -2 14q-3 10 -9 14q-6 5 -18 9q-10 2 -16 3q-10 2 -22 3v16h586l5 -199h-12q-18 43 -36 75q-19 33 -37 51q-26 27 -57 39t-75 12h-86v-310h83q26 0 45 8t29 24q9 14 15 33
q5 16 10 51h14v-246h-14q-5 35 -10 51q-6 19 -15 33q-10 16 -29 24t-45 8h-83v-265q0 -18 5 -33q5 -14 15 -21q8 -7 23 -10q13 -3 36 -3h22q39 0 75 17q34 17 66 51q20 24 42 59q18 28 43 80h12zM297 763v-2q-12 -11 -30 -19q-15 -7 -34 -7t-34 7q-18 8 -30 19
q-11 11 -19 29q-7 15 -7 33t7 33q8 18 19 29q12 11 30 19q15 7 34 7t34 -7q18 -8 30 -19q11 -11 19 -28q7 -15 7 -33t-7 -33q-8 -16 -19 -28zM507 761v-2q-12 -11 -30 -19q-15 -7 -34 -7t-34 7q-18 8 -30 19q-11 11 -19 29q-7 15 -7 33t7 33q8 18 19 29q12 11 30 19
q15 7 34 7t34 -7q18 -8 30 -19t19 -28q7 -15 7 -33t-7 -33q-7 -17 -19 -28z" />
    <glyph glyph-name="Igrave" unicode="&#xcc;" horiz-adv-x="399" 
d="M313 658q-1 -6 -3 -15q-1 -6 -1 -25v-536v-24q0 -6 2 -14q3 -10 9 -14t18 -9q10 -2 16 -3q10 -2 22 -3v-16h-357v16l23 3q6 1 16 3q12 5 17 9q7 5 8 12q1 6 3 15q1 6 1 25v536v24q0 6 -2 14q-3 10 -9 14t-18 9q-10 2 -16 3q-10 2 -22 3v16h357v-16l-23 -3q-6 -1 -16 -3
q-12 -5 -17 -9q-7 -5 -8 -12zM18 886v4h237l27 -149h-4z" />
    <glyph glyph-name="Iacute" unicode="&#xcd;" horiz-adv-x="399" 
d="M313 658q-1 -6 -3 -15q-1 -6 -1 -25v-536v-24q0 -6 2 -14q3 -10 9 -14t18 -9q10 -2 16 -3q10 -2 22 -3v-16h-357v16l23 3q6 1 16 3q12 5 17 9q7 5 8 12q1 6 3 15q1 6 1 25v536v24q0 6 -2 14q-3 10 -9 14t-18 9q-10 2 -16 3q-10 2 -22 3v16h357v-16l-23 -3q-6 -1 -16 -3
q-12 -5 -17 -9q-7 -5 -8 -12zM175 890h237v-4l-260 -145h-4z" />
    <glyph glyph-name="Icircumflex" unicode="&#xce;" horiz-adv-x="399" 
d="M313 658q-1 -6 -3 -15q-1 -6 -1 -25v-536v-24q0 -6 2 -14q3 -10 9 -14t18 -9q10 -2 16 -3q10 -2 22 -3v-16h-357v16l23 3q6 1 16 3q12 5 17 9q7 5 8 12q1 6 3 15q1 6 1 25v536v24q0 6 -2 14q-3 10 -9 14t-18 9q-10 2 -16 3q-10 2 -22 3v16h357v-16l-23 -3q-6 -1 -16 -3
q-12 -5 -17 -9q-7 -5 -8 -12zM136 890h136l118 -149h-6l-180 65l-180 -65h-6z" />
    <glyph glyph-name="Idieresis" unicode="&#xcf;" horiz-adv-x="399" 
d="M313 658q-1 -6 -3 -15q-1 -6 -1 -25v-536v-24q0 -6 2 -14q3 -10 9 -14t18 -9q10 -2 16 -3q10 -2 22 -3v-16h-357v16l23 3q6 1 16 3q12 5 17 9q7 5 8 12q1 6 3 15q1 6 1 25v536v24q0 6 -2 14q-3 10 -9 14t-18 9q-10 2 -16 3q-10 2 -22 3v16h357v-16l-23 -3q-6 -1 -16 -3
q-12 -5 -17 -9q-7 -5 -8 -12zM157 767v-2q-12 -11 -30 -19q-15 -7 -34 -7t-34 7q-18 8 -30 19q-11 11 -19 29q-7 15 -7 33t7 33q8 18 19 29q12 11 30 19q15 7 34 7t34 -7q18 -8 30 -19q11 -11 19 -28q7 -15 7 -33t-7 -33q-8 -16 -19 -28zM367 765v-2q-12 -11 -30 -19
q-15 -7 -34 -7t-34 7q-18 8 -30 19q-11 11 -19 29q-7 15 -7 33t7 33q8 18 19 29q12 11 30 19q15 7 34 7t34 -7q18 -8 30 -19q11 -11 19 -28q7 -15 7 -33t-7 -33q-8 -16 -19 -28z" />
    <glyph glyph-name="Eth" unicode="&#xd0;" horiz-adv-x="817" 
d="M391 0l-361 1v16l23 3q6 1 16 3q12 5 17 9q7 5 8 12q2 6 3 15q1 6 1 25v265h-64v22h64v249v24q0 6 -2 14q-3 10 -9 14t-18 9q-10 2 -16 3q-10 2 -22 3v16h332q94 0 167 -19q75 -20 129 -57q63 -45 96 -112t33 -154q0 -56 -13 -102q-14 -49 -39 -89q-26 -42 -63 -75
q-36 -31 -86 -55q-43 -20 -93 -30q-47 -10 -103 -10zM514 563l-2 1q-31 60 -76 89q-47 30 -106 30h-13v-312h121v-22h-121v-255q0 -20 3 -33q3 -12 11 -24q7 -10 20 -15q11 -4 32 -4h3q33 0 61 16q29 16 51 48q18 24 29 54q13 34 20 69q7 27 10 63q3 33 3 69q0 68 -12 125
q-13 59 -34 101z" />
    <glyph glyph-name="Ntilde" unicode="&#xd1;" horiz-adv-x="747" 
d="M641 308l-1 310q0 20 -4 29q-5 11 -13 18q-8 5 -19 9q-12 5 -31 6q-14 2 -22 3q-11 1 -29 3v16h230v-16q-13 -1 -25 -3q-11 -1 -18 -3q-14 -4 -21 -7q-8 -4 -13 -12q-5 -6 -6 -16q-2 -14 -2 -25v-629h-47l-494 589v-496q0 -17 5 -29q5 -11 15 -18q7 -4 20 -9q12 -4 30 -6
q10 -2 24 -3q15 -2 31 -3v-16h-237v16l26 3q10 1 18 3q10 2 21 8q10 5 14 12q5 6 6 16q2 14 2 25v526q-22 24 -27 29l-18 18q-17 17 -28 23q-14 8 -25 9v14h310zM567 906l6 -5q-5 -31 -12 -56q-8 -27 -18 -47q-17 -30 -37 -44q-21 -15 -45 -15q-7 0 -21 2q-10 1 -21 6
q-5 2 -15 8l-23 14q-12 7 -18 12q-6 4 -11 6q-9 5 -18 6q-12 2 -16 2q-25 0 -46 -15t-36 -42l-8 3q5 31 12 56q8 27 18 47q17 29 38 44t45 15q7 0 21 -2q10 -1 21 -6q10 -4 15 -7q2 -1 9.5 -5.5t13.5 -7.5q12 -7 18 -12q6 -4 11 -6q9 -5 18 -6q12 -2 17 -2q25 0 46 15t36 42
z" />
    <glyph glyph-name="Ograve" unicode="&#xd2;" horiz-adv-x="748" 
d="M198 663v-1q42 24 89 36t96 12q47 0 94 -11q43 -10 84 -32q41 -24 71 -55q32 -34 54 -73q20 -39 30 -84q11 -47 11 -92q0 -51 -12 -99q-12 -50 -34 -90q-24 -44 -57 -78t-75 -60q-42 -24 -89 -36q-46 -12 -96 -12q-47 0 -94 11q-43 10 -84 32q-41 24 -71 55
q-31 32 -54 74q-19 39 -30 84q-11 47 -11 92q0 51 12 99q12 50 34 90q24 43 57 78t75 60zM482 542h-1q-15 78 -43 116q-28 39 -69 39q-37 0 -63 -36t-39 -106q-7 -39 -12 -87q-4 -43 -4 -103q0 -67 4 -114q5 -53 12 -93q15 -76 44 -116q29 -39 69 -39q38 0 63 36
q26 36 39 106q8 39 12 87q4 43 4 103q0 67 -4 114q-4 53 -12 93zM196 885v4h237l27 -149h-4z" />
    <glyph glyph-name="Oacute" unicode="&#xd3;" horiz-adv-x="748" 
d="M198 663v-1q42 24 89 36t96 12q47 0 94 -11q43 -10 84 -32q41 -24 71 -55q32 -34 54 -73q20 -39 30 -84q11 -47 11 -92q0 -51 -12 -99q-12 -50 -34 -90q-24 -44 -57 -78t-75 -60q-42 -24 -89 -36q-46 -12 -96 -12q-47 0 -94 11q-43 10 -84 32q-41 24 -71 55
q-31 32 -54 74q-19 39 -30 84q-11 47 -11 92q0 51 12 99q12 50 34 90q24 43 57 78t75 60zM482 542h-1q-15 78 -43 116q-28 39 -69 39q-37 0 -63 -36t-39 -106q-7 -39 -12 -87q-4 -43 -4 -103q0 -67 4 -114q5 -53 12 -93q15 -76 44 -116q29 -39 69 -39q38 0 63 36
q26 36 39 106q8 39 12 87q4 43 4 103q0 67 -4 114q-4 53 -12 93zM353 889h237v-4l-260 -145h-4z" />
    <glyph glyph-name="Ocircumflex" unicode="&#xd4;" horiz-adv-x="748" 
d="M198 663v-1q42 24 89 36t96 12q47 0 94 -11q43 -10 84 -32q41 -24 71 -55q32 -34 54 -73q20 -39 30 -84q11 -47 11 -92q0 -51 -12 -99q-12 -50 -34 -90q-24 -44 -57 -78t-75 -60q-42 -24 -89 -36q-46 -12 -96 -12q-47 0 -94 11q-43 10 -84 32q-41 24 -71 55
q-31 32 -54 74q-19 39 -30 84q-11 47 -11 92q0 51 12 99q12 50 34 90q24 43 57 78t75 60zM482 542h-1q-15 78 -43 116q-28 39 -69 39q-37 0 -63 -36t-39 -106q-7 -39 -12 -87q-4 -43 -4 -103q0 -67 4 -114q5 -53 12 -93q15 -76 44 -116q29 -39 69 -39q38 0 63 36
q26 36 39 106q8 39 12 87q4 43 4 103q0 67 -4 114q-4 53 -12 93zM314 889h136l118 -149h-6l-180 65l-180 -65h-6z" />
    <glyph glyph-name="Otilde" unicode="&#xd5;" horiz-adv-x="748" 
d="M198 663v-1q42 24 89 36t96 12q47 0 94 -11q43 -10 84 -32q41 -24 71 -55q32 -34 54 -73q20 -39 30 -84q11 -47 11 -92q0 -51 -12 -99q-12 -50 -34 -90q-24 -44 -57 -78t-75 -60q-42 -24 -89 -36q-46 -12 -96 -12q-47 0 -94 11q-43 10 -84 32q-41 24 -71 55
q-31 32 -54 74q-19 39 -30 84q-11 47 -11 92q0 51 12 99q12 50 34 90q24 43 57 78t75 60zM482 542h-1q-15 78 -43 116q-28 39 -69 39q-37 0 -63 -36t-39 -106q-7 -39 -12 -87q-4 -43 -4 -103q0 -67 4 -114q5 -53 12 -93q15 -76 44 -116q29 -39 69 -39q38 0 63 36
q26 36 39 106q8 39 12 87q4 43 4 103q0 67 -4 114q-4 53 -12 93zM568 906l6 -5q-5 -31 -12 -56q-8 -27 -18 -47q-17 -30 -37 -44q-21 -15 -45 -15q-7 0 -21 2q-11 1 -21 6q-5 2 -15 8l-23 14q-12 7 -18 12q-6 4 -11 6q-9 5 -18 6q-12 2 -16 2q-25 0 -46 -15t-36 -42l-8 3
q5 31 12 56q8 27 18 47q17 29 38 44t45 15q7 0 21 -2q11 -1 21 -6q10 -4 15 -7q2 -1 9.5 -5.5t13.5 -7.5q12 -7 18 -12q6 -4 11 -6q9 -5 18 -6q12 -2 17 -2q25 0 46 15t36 42z" />
    <glyph glyph-name="Odieresis" unicode="&#xd6;" horiz-adv-x="748" 
d="M198 663v-1q42 24 89 36t96 12q47 0 94 -11q43 -10 84 -32q41 -24 71 -55q32 -34 54 -73q20 -39 30 -84q11 -47 11 -92q0 -51 -12 -99q-12 -50 -34 -90q-24 -44 -57 -78t-75 -60q-42 -24 -89 -36q-46 -12 -96 -12q-47 0 -94 11q-43 10 -84 32q-41 24 -71 55
q-31 32 -54 74q-19 39 -30 84q-11 47 -11 92q0 51 12 99q12 50 34 90q24 43 57 78t75 60zM482 542h-1q-15 78 -43 116q-28 39 -69 39q-37 0 -63 -36t-39 -106q-7 -39 -12 -87q-4 -43 -4 -103q0 -67 4 -114q5 -53 12 -93q15 -76 44 -116q29 -39 69 -39q38 0 63 36
q26 36 39 106q8 39 12 87q4 43 4 103q0 67 -4 114q-4 53 -12 93zM335 766v-2q-12 -11 -30 -19q-15 -7 -34 -7t-34 7q-18 8 -30 19q-11 11 -19 29q-7 15 -7 33t7 33q8 18 19 29q12 11 30 19q15 7 34 7t34 -7q18 -8 30 -19q11 -11 19 -28q7 -15 7 -33t-7 -33q-8 -16 -19 -28z
M545 764v-2q-12 -11 -30 -19q-15 -7 -34 -7t-34 7q-18 8 -30 19q-11 11 -19 29q-7 15 -7 33t7 33q8 18 19 29q12 11 30 19q15 7 34 7t34 -7q18 -8 30 -19q11 -11 19 -28q7 -15 7 -33t-7 -33q-8 -16 -19 -28z" />
    <glyph glyph-name="multiply" unicode="&#xd7;" horiz-adv-x="488" 
d="M244 346l-154 -154l-16 16l154 154l-154 154l16 16l154 -154l154 154l16 -16l-154 -154l154 -154l-16 -16z" />
    <glyph glyph-name="Oslash" unicode="&#xd8;" horiz-adv-x="748" 
d="M198 663l-1 -3q42 24 89 36q46 12 96 12q63 0 115 -16q53 -16 97 -48l69 89l16 -13l-69 -89q29 -25 51 -55q21 -30 37 -66q14 -34 21 -72q8 -40 8 -76q0 -51 -12 -99q-12 -50 -34 -90q-24 -43 -57 -78t-75 -60q-42 -24 -89 -36q-46 -12 -96 -12q-58 0 -109 15
q-49 14 -94 44l-77 -100l-16 13l77 100q-31 25 -54 55t-40 69q-16 36 -23 74q-8 42 -8 79q0 51 12 99q12 50 34 90q24 43 57 78t75 60zM368 695l-1 -1q-37 0 -63 -36t-39 -106q-7 -39 -12 -87q-4 -43 -4 -103q0 -28 2 -80q1 -38 6 -76l230 298q-14 96 -43 143q-30 48 -76 48
zM480 142q8 39 12 87q4 43 4 103q0 53 -1 77q-1 36 -6 66l-229 -297q15 -88 45 -133t73 -45q38 0 63 36q26 36 39 106z" />
    <glyph glyph-name="Ugrave" unicode="&#xd9;" horiz-adv-x="753" 
d="M302 658l-6 -2q-2 -6 -3 -15q-1 -6 -1 -25v-342q0 -44 9 -82q9 -36 26 -63q21 -31 54 -48q32 -16 76 -16t80 15t60 45q23 28 35 65q12 38 12 84v341q0 20 -4 29q-5 11 -13 18q-7 4 -20 9q-12 5 -30 6q-11 1 -24 3t-30 3v16h230v-16q-13 -1 -24 -3t-18 -3q-15 -3 -21 -7
q-8 -4 -12 -12q-5 -6 -6 -16q-2 -14 -2 -25v-358q0 -62 -21 -113q-21 -52 -61 -87q-37 -34 -90 -52q-52 -18 -114 -18q-66 0 -123 17q-55 16 -96 48q-44 36 -66 88q-23 54 -23 118v358v24q0 6 -2 14q-3 10 -9 14t-18 9q-10 2 -16 3q-10 2 -22 3v16h357v-16l-23 -3
q-6 -1 -16 -3q-12 -5 -17 -9q-7 -5 -8 -12zM233 884v4h237l27 -149h-4z" />
    <glyph glyph-name="Uacute" unicode="&#xda;" horiz-adv-x="753" 
d="M302 658l-6 -2q-2 -6 -3 -15q-1 -6 -1 -25v-342q0 -44 9 -82q9 -36 26 -63q21 -31 54 -48q32 -16 76 -16t80 15t60 45q23 28 35 65q12 38 12 84v341q0 20 -4 29q-5 11 -13 18q-7 4 -20 9q-12 5 -30 6q-11 1 -24 3t-30 3v16h230v-16q-13 -1 -24 -3t-18 -3q-15 -3 -21 -7
q-8 -4 -12 -12q-5 -6 -6 -16q-2 -14 -2 -25v-358q0 -62 -21 -113q-21 -52 -61 -87q-37 -34 -90 -52q-52 -18 -114 -18q-66 0 -123 17q-55 16 -96 48q-44 36 -66 88q-23 54 -23 118v358v24q0 6 -2 14q-3 10 -9 14t-18 9q-10 2 -16 3q-10 2 -22 3v16h357v-16l-23 -3
q-6 -1 -16 -3q-12 -5 -17 -9q-7 -5 -8 -12zM390 888h237v-4l-260 -145h-4z" />
    <glyph glyph-name="Ucircumflex" unicode="&#xdb;" horiz-adv-x="753" 
d="M302 658l-6 -2q-2 -6 -3 -15q-1 -6 -1 -25v-342q0 -44 9 -82q9 -36 26 -63q21 -31 54 -48q32 -16 76 -16t80 15t60 45q23 28 35 65q12 38 12 84v341q0 20 -4 29q-5 11 -13 18q-7 4 -20 9q-12 5 -30 6q-11 1 -24 3t-30 3v16h230v-16q-13 -1 -24 -3t-18 -3q-15 -3 -21 -7
q-8 -4 -12 -12q-5 -6 -6 -16q-2 -14 -2 -25v-358q0 -62 -21 -113q-21 -52 -61 -87q-37 -34 -90 -52q-52 -18 -114 -18q-66 0 -123 17q-55 16 -96 48q-44 36 -66 88q-23 54 -23 118v358v24q0 6 -2 14q-3 10 -9 14t-18 9q-10 2 -16 3q-10 2 -22 3v16h357v-16l-23 -3
q-6 -1 -16 -3q-12 -5 -17 -9q-7 -5 -8 -12zM351 888h136l118 -149h-6l-180 65l-180 -65h-6z" />
    <glyph glyph-name="Udieresis" unicode="&#xdc;" horiz-adv-x="753" 
d="M302 658l-6 -2q-2 -6 -3 -15q-1 -6 -1 -25v-342q0 -44 9 -82q9 -36 26 -63q21 -31 54 -48q32 -16 76 -16t80 15t60 45q23 28 35 65q12 38 12 84v341q0 20 -4 29q-5 11 -13 18q-7 4 -20 9q-12 5 -30 6q-11 1 -24 3t-30 3v16h230v-16q-13 -1 -24 -3t-18 -3q-15 -3 -21 -7
q-8 -4 -12 -12q-5 -6 -6 -16q-2 -14 -2 -25v-358q0 -62 -21 -113q-21 -52 -61 -87q-37 -34 -90 -52q-52 -18 -114 -18q-66 0 -123 17q-55 16 -96 48q-44 36 -66 88q-23 54 -23 118v358v24q0 6 -2 14q-3 10 -9 14t-18 9q-10 2 -16 3q-10 2 -22 3v16h357v-16l-23 -3
q-6 -1 -16 -3q-12 -5 -17 -9q-7 -5 -8 -12zM372 765v-2q-12 -11 -30 -19q-15 -7 -34 -7t-34 7q-18 8 -30 19q-11 11 -19 29q-7 15 -7 33t7 33q8 18 19 29q12 11 30 19q15 7 34 7t34 -7q18 -8 30 -19t19 -28q7 -15 7 -33t-7 -33q-7 -16 -19 -28zM582 763v-2q-12 -11 -30 -19
q-15 -7 -34 -7t-34 7q-18 8 -30 19q-11 11 -19 29q-7 15 -7 33t7 33q8 18 19 29q12 11 30 19q15 7 34 7t34 -7q18 -8 30 -19t19 -28q7 -15 7 -33t-7 -33q-7 -16 -19 -28z" />
    <glyph glyph-name="Yacute" unicode="&#xdd;" horiz-adv-x="724" 
d="M471 355l117 219q13 23 17 37q5 18 5 30q0 14 -10 23q-11 10 -33 14l-26 3q-16 2 -37 3v16h220v-16q-17 -2 -28 -7q-14 -7 -23 -16q-8 -8 -15 -19l-18 -28l-167 -298v-240q0 -11 2 -23q1 -9 6 -15q5 -8 12 -12q6 -4 21 -7q6 -1 15 -3t24 -3v-16h-372v16q15 1 25 3
q6 1 16 3q13 2 20 6t12 11q4 6 6 15q2 12 2 24v235l-202 315l-17 26q-5 7 -9 12q-8 9 -17 14q-9 4 -23 6v16h390v-16q-18 -2 -29 -3q-12 -2 -21 -3q-16 -5 -24 -12q-8 -8 -8 -19q0 -9 5 -22q3 -9 17 -31zM361 887h237v-4l-260 -145h-4z" />
    <glyph glyph-name="Thorn" unicode="&#xde;" horiz-adv-x="689" 
d="M313 658h-3q-2 -6 -3 -15q-1 -6 -1 -25v-47h76q59 0 107 -9t84 -27q50 -24 75 -64t25 -93q0 -57 -27 -99q-28 -43 -79 -68q-37 -18 -89 -27q-51 -9 -115 -9h-57v-92q0 -18 4 -27q5 -11 13 -18q7 -5 19 -10q9 -3 29 -7q14 -2 22 -3q11 -1 29 -3v-16h-403v16l23 3q6 1 16 3
q12 5 17 9q7 5 8 12q1 6 3 15q1 6 1 25v536v24q0 6 -2 14q-3 10 -9 14t-18 9q-10 2 -16 3q-10 2 -22 3v16h357v-16l-23 -3q-6 -1 -16 -3q-12 -5 -17 -9q-7 -5 -8 -12zM319 553l-12 -2v-357h13q33 0 63 14q28 13 46 42q16 24 23 54q8 34 8 69t-8 69q-8 32 -24 54
q-18 27 -46 42t-63 15z" />
    <glyph glyph-name="germandbls" unicode="&#xdf;" horiz-adv-x="736" 
d="M372 73l-6 -5q26 -34 55 -51q30 -18 60 -18q17 0 34 6q15 5 28 17q12 12 18 27t6 33q0 16 -4 27q-5 12 -12 24q-7 9 -18 18t-24 18q-1 1 -7.5 5t-10.5 6q-21 12 -31 17q-22 12 -37 21q-2 2 -10 6.5t-11 6.5q-16 11 -29 23q-14 14 -20 25q-8 14 -13 31q-4 15 -4 36
q0 14 3 27q2 9 8 27q6 14 10 21q6 11 15 24q3 5 11 17q6 9 21 27q16 19 24 30q10 14 14 21q9 13 18 29q7 13 12 29q6 20 8 30q3 15 3 32q0 24 -7 42q-8 20 -21 33t-33 21q-21 8 -42 8q-32 0 -54 -13t-36 -39q-9 -18 -16 -47q-6 -27 -6 -61v-608h-259v14q17 2 24 3t12 3
q7 4 12 12q4 7 4 19v443h-71v6l71 53v4q0 56 27 101t77 75q42 26 93 38q52 12 114 12q41 0 79 -6q39 -6 66 -19q41 -17 62 -45q21 -29 21 -64q0 -16 -4 -28q-4 -13 -12 -24q-7 -9 -18 -19q-9 -8 -24 -16q-6 -3 -20 -9l-32 -14q-20 -8 -26 -12l-14 -7q-13 -7 -19 -15
q-6 -7 -6 -17t9 -21t29 -23q3 -2 9 -5t9 -5q11 -6 36 -18l44 -21q15 -7 27 -15q20 -12 36 -24t30 -24q14 -11 28 -29q13 -16 20 -32q8 -17 13 -37q4 -17 4 -40q0 -44 -19 -82t-54 -67q-32 -26 -73 -39q-40 -13 -88 -13q-51 0 -93 13q-44 14 -81 39l-6 157h10q7 -35 23 -68
t34 -57z" />
    <glyph glyph-name="agrave" unicode="&#xe0;" horiz-adv-x="553" 
d="M427 520v-4q36 -23 54 -58q18 -36 18 -88v-266q0 -20 9 -30t27 -10q10 0 14 1q8 2 12 4l4 -5q-9 -14 -26 -31q-15 -15 -34 -25q-18 -10 -40 -16q-21 -6 -42 -6q-18 0 -40 5q-19 5 -36 15t-30 26q-12 15 -18 33q-12 -16 -28 -31q-15 -14 -36 -25q-19 -10 -41 -15
q-23 -5 -42 -5q-30 0 -57 9q-25 8 -46 26q-23 18 -33 43q-11 27 -11 55q0 32 12 56q12 25 36 44q19 16 43 27q29 13 60 23l141 47v135q0 41 -10 60t-33 19q-24 0 -37 -24q-13 -23 -13 -67q0 -20 3 -45q3 -22 8 -42l-130 -16q-11 5 -21 12t-18 18q-7 8 -10 21q-3 12 -3 25
q0 35 22 63t64 46q30 14 67 21q35 7 76 7q53 0 96 -8q40 -8 69 -24zM215 110l-2 -1q9 -19 24 -30q14 -10 34 -10q5 0 15 2q6 1 10 5v225l-30 -12q-19 -7 -31 -18q-11 -10 -19 -24q-7 -11 -10 -28t-3 -37q0 -22 3 -40q3 -19 9 -32zM87 763v4h237l47 -179h-6z" />
    <glyph glyph-name="aacute" unicode="&#xe1;" horiz-adv-x="553" 
d="M427 520v-4q36 -23 54 -58q18 -36 18 -88v-266q0 -20 9 -30t27 -10q10 0 14 1q8 2 12 4l4 -5q-9 -14 -26 -31q-15 -15 -34 -25q-18 -10 -40 -16q-21 -6 -42 -6q-18 0 -40 5q-19 5 -36 15t-30 26q-12 15 -18 33q-12 -16 -28 -31q-15 -14 -36 -25q-19 -10 -41 -15
q-23 -5 -42 -5q-30 0 -57 9q-25 8 -46 26q-23 18 -33 43q-11 27 -11 55q0 32 12 56q12 25 36 44q19 16 43 27q29 13 60 23l141 47v135q0 41 -10 60t-33 19q-24 0 -37 -24q-13 -23 -13 -67q0 -20 3 -45q3 -22 8 -42l-130 -16q-11 5 -21 12t-18 18q-7 8 -10 21q-3 12 -3 25
q0 35 22 63t64 46q30 14 67 21q35 7 76 7q53 0 96 -8q40 -8 69 -24zM215 110l-2 -1q9 -19 24 -30q14 -10 34 -10q5 0 15 2q6 1 10 5v225l-30 -12q-19 -7 -31 -18q-11 -10 -19 -24q-7 -11 -10 -28t-3 -37q0 -22 3 -40q3 -19 9 -32zM258 767h237v-4l-278 -175h-6z" />
    <glyph glyph-name="acircumflex" unicode="&#xe2;" horiz-adv-x="553" 
d="M427 520v-4q36 -23 54 -58q18 -36 18 -88v-266q0 -20 9 -30t27 -10q10 0 14 1q8 2 12 4l4 -5q-9 -14 -26 -31q-15 -15 -34 -25q-18 -10 -40 -16q-21 -6 -42 -6q-18 0 -40 5q-19 5 -36 15t-30 26q-12 15 -18 33q-12 -16 -28 -31q-15 -14 -36 -25q-19 -10 -41 -15
q-23 -5 -42 -5q-30 0 -57 9q-25 8 -46 26q-23 18 -33 43q-11 27 -11 55q0 32 12 56q12 25 36 44q19 16 43 27q29 13 60 23l141 47v135q0 41 -10 60t-33 19q-24 0 -37 -24q-13 -23 -13 -67q0 -20 3 -45q3 -22 8 -42l-130 -16q-11 5 -21 12t-18 18q-7 8 -10 21q-3 12 -3 25
q0 35 22 63t64 46q30 14 67 21q35 7 76 7q53 0 96 -8q40 -8 69 -24zM215 110l-2 -1q9 -19 24 -30q14 -10 34 -10q5 0 15 2q6 1 10 5v225l-30 -12q-19 -7 -31 -18q-11 -10 -19 -24q-7 -11 -10 -28t-3 -37q0 -22 3 -40q3 -19 9 -32zM211 767h136l118 -179h-6l-180 90l-180 -90
h-6z" />
    <glyph glyph-name="atilde" unicode="&#xe3;" horiz-adv-x="553" 
d="M427 520v-4q36 -23 54 -58q18 -36 18 -88v-266q0 -20 9 -30t27 -10q10 0 14 1q8 2 12 4l4 -5q-9 -14 -26 -31q-15 -15 -34 -25q-18 -10 -40 -16q-21 -6 -42 -6q-18 0 -40 5q-19 5 -36 15t-30 26q-12 15 -18 33q-12 -16 -28 -31q-15 -14 -36 -25q-19 -10 -41 -15
q-23 -5 -42 -5q-30 0 -57 9q-25 8 -46 26q-23 18 -33 43q-11 27 -11 55q0 32 12 56q12 25 36 44q19 16 43 27q29 13 60 23l141 47v135q0 41 -10 60t-33 19q-24 0 -37 -24q-13 -23 -13 -67q0 -20 3 -45q3 -22 8 -42l-130 -16q-11 5 -21 12t-18 18q-7 8 -10 21q-3 12 -3 25
q0 35 22 63t64 46q30 14 67 21q35 7 76 7q53 0 96 -8q40 -8 69 -24zM215 110l-2 -1q9 -19 24 -30q14 -10 34 -10q5 0 15 2q6 1 10 5v225l-30 -12q-19 -7 -31 -18q-11 -10 -19 -24q-7 -11 -10 -28t-3 -37q0 -22 3 -40q3 -19 9 -32zM452 763l6 -5q-5 -31 -12 -56
q-8 -27 -18 -47q-17 -30 -37 -44q-21 -15 -45 -15q-7 0 -21 2q-11 2 -21 6q-5 2 -15 8l-23 14l-18 12t-11 6q-9 4 -18 6q-12 2 -16 2q-25 0 -46 -15t-36 -42l-8 3q5 31 12 56q8 27 18 47q17 29 38 44t45 15q7 0 21 -2q11 -2 21 -6t15 -7q2 -1 9.5 -5.5t13.5 -7.5l18 -12
t11 -6q9 -4 18 -6q12 -2 17 -2q25 0 46 15t36 42z" />
    <glyph glyph-name="adieresis" unicode="&#xe4;" horiz-adv-x="553" 
d="M427 520v-4q36 -23 54 -58q18 -36 18 -88v-266q0 -20 9 -30t27 -10q10 0 14 1q8 2 12 4l4 -5q-9 -14 -26 -31q-15 -15 -34 -25q-18 -10 -40 -16q-21 -6 -42 -6q-18 0 -40 5q-19 5 -36 15t-30 26q-12 15 -18 33q-12 -16 -28 -31q-15 -14 -36 -25q-19 -10 -41 -15
q-23 -5 -42 -5q-30 0 -57 9q-25 8 -46 26q-23 18 -33 43q-11 27 -11 55q0 32 12 56q12 25 36 44q19 16 43 27q29 13 60 23l141 47v135q0 41 -10 60t-33 19q-24 0 -37 -24q-13 -23 -13 -67q0 -20 3 -45q3 -22 8 -42l-130 -16q-11 5 -21 12t-18 18q-7 8 -10 21q-3 12 -3 25
q0 35 22 63t64 46q30 14 67 21q35 7 76 7q53 0 96 -8q40 -8 69 -24zM215 110l-2 -1q9 -19 24 -30q14 -10 34 -10q5 0 15 2q6 1 10 5v225l-30 -12q-19 -7 -31 -18q-11 -10 -19 -24q-7 -11 -10 -28t-3 -37q0 -22 3 -40q3 -19 9 -32zM232 614v-2q-12 -11 -30 -19q-15 -7 -34 -7
t-34 7q-18 8 -30 19q-11 11 -19 29q-7 15 -7 33t7 33q8 18 19 29q12 11 30 19q15 7 34 7t34 -7q18 -8 30 -19t19 -28q7 -15 7 -33t-7 -33q-7 -16 -19 -28zM442 612v-2q-12 -11 -30 -19q-15 -7 -34 -7t-34 7q-18 8 -30 19q-11 11 -19 29q-7 15 -7 33t7 33q8 18 19 29
q12 11 30 19q15 7 34 7t34 -7q18 -8 30 -19t19 -28q7 -15 7 -33t-7 -33q-7 -16 -19 -28z" />
    <glyph glyph-name="aring" unicode="&#xe5;" horiz-adv-x="553" 
d="M427 520v-4q36 -23 54 -58q18 -36 18 -88v-266q0 -20 9 -30t27 -10q10 0 14 1q8 2 12 4l4 -5q-9 -14 -26 -31q-15 -15 -34 -25q-18 -10 -40 -16q-21 -6 -42 -6q-18 0 -40 5q-19 5 -36 15t-30 26q-12 15 -18 33q-12 -16 -28 -31q-15 -14 -36 -25q-19 -10 -41 -15
q-23 -5 -42 -5q-30 0 -57 9q-25 8 -46 26q-23 18 -33 43q-11 27 -11 55q0 32 12 56q12 25 36 44q19 16 43 27q29 13 60 23l141 47v135q0 41 -10 60t-33 19q-24 0 -37 -24q-13 -23 -13 -67q0 -20 3 -45q3 -22 8 -42l-130 -16q-11 5 -21 12t-18 18q-7 8 -10 21q-3 12 -3 25
q0 35 22 63t64 46q30 14 67 21q35 7 76 7q53 0 96 -8q40 -8 69 -24zM215 110l-2 -1q9 -19 24 -30q14 -10 34 -10q5 0 15 2q6 1 10 5v225l-30 -12q-19 -7 -31 -18q-11 -10 -19 -24q-7 -11 -10 -28t-3 -37q0 -22 3 -40q3 -19 9 -32zM344 604l-2 -3q-14 -13 -33 -21
q-18 -7 -42 -7q-21 0 -42 8q-19 7 -33 21q-17 15 -24 34q-8 21 -8 42t8 42q8 20 23 35q15 13 35 21q21 8 42 8q24 0 42 -7q20 -8 35 -21q16 -16 23 -34q8 -21 8 -42t-8 -42q-7 -19 -24 -34zM207 618v-1q11 -10 27 -16q15 -6 32 -6t32 6q14 6 27 17q11 11 17 26t6 32t-6 32
t-17 26t-26 17t-33 6t-33 -6t-26 -17t-17 -26t-6 -32t6 -32t17 -26z" />
    <glyph glyph-name="ae" unicode="&#xe6;" horiz-adv-x="811" 
d="M795 190l1 -7q-8 -46 -28 -82q-21 -37 -54 -63q-32 -26 -72 -39q-39 -13 -87 -13q-32 0 -62 6q-28 6 -57 20q-27 13 -52 33q-24 19 -42 45q-16 -23 -38 -42q-21 -18 -45 -30q-24 -13 -52 -19q-27 -6 -57 -6t-57 9q-25 8 -46 26q-22 18 -34 43t-12 55q0 32 12 56
q12 25 36 44q19 16 43 27q29 13 60 23l148 49q4 16 8 29q4 12 6 17q2 29 -1 50q-4 30 -7 45q-8 35 -22 52q-15 18 -34 18q-24 0 -37 -24q-13 -23 -13 -67q0 -19 3 -45q3 -22 8 -42l-130 -16q-11 4 -21 12t-18 18q-7 8 -10 21q-3 12 -3 25q0 35 22 63t64 46q30 14 67 21
q35 7 76 7q52 0 93 -12q39 -12 69 -35q34 23 71 35t78 12q50 0 92 -15q43 -15 72 -43q31 -29 47 -69q17 -42 17 -89v-6h-320q1 -45 12 -81q10 -35 29 -63q23 -32 55 -48t75 -16q45 0 84 17q38 16 63 48zM611 453l3 -2q-7 39 -23 59q-15 20 -36 20q-22 0 -39 -20
q-16 -20 -27 -57q-6 -23 -9 -49q-2 -20 -4 -58h145q0 32 -3 59q-4 32 -7 48zM220 251l1 1q-11 -14 -15 -31q-4 -16 -4 -40q0 -19 5 -39q4 -16 14 -31q10 -16 26 -24t35 -8q15 0 30 5q13 4 26 14q-20 30 -31 71q-10 37 -10 84v24q0 9 2 23l-19 -7q-21 -7 -36 -18t-24 -24z
" />
    <glyph glyph-name="ccedilla" unicode="&#xe7;" horiz-adv-x="509" 
d="M280 -209l-4 -6q-24 -8 -55 -12q-28 -4 -66 -4l-4 12q22 2 33 4q12 2 27 8q17 8 26 20t9 26q0 13 -7 20t-21 12q-8 2 -19 3q-13 2 -28 3l50 110q-51 8 -90 31q-41 24 -69 61q-25 34 -39 80q-13 43 -13 97q0 38 9 76q8 35 29 70q20 34 46 60q28 28 59 47q35 19 72 30
q36 10 75 10q37 0 66 -7q32 -8 57 -21q31 -17 48 -42q17 -26 17 -57q0 -13 -3 -25q-3 -11 -9 -22q-8 -13 -16 -21t-19 -13h-108q4 20 5 29q2 18 2 30q0 16 -2 42q-2 20 -6 36q-8 26 -19 39q-12 13 -29 13q-22 0 -42 -20q-19 -19 -33 -56q-8 -22 -13 -52q-4 -25 -4 -57
q0 -48 9 -87q8 -37 26 -67q21 -36 54 -54t77 -18q42 0 78 17q34 16 60 50l4 -2q-8 -45 -27 -81q-20 -36 -50 -62q-31 -26 -70 -40q-38 -13 -85 -13h-12q-2 0 -18 2l-7 -30q20 0 43 -5q19 -4 37 -14q22 -13 32 -28q11 -17 11 -36q0 -31 -19 -51q-20 -22 -55 -35z" />
    <glyph glyph-name="egrave" unicode="&#xe8;" horiz-adv-x="531" 
d="M515 190h2q-8 -46 -28 -82q-21 -38 -54 -63q-31 -25 -72 -39q-39 -13 -87 -13q-55 0 -106 20q-49 19 -85 57q-36 36 -54 86t-18 108q0 38 9 74t27 69q17 33 42 60q27 28 57 47q31 19 68 30q38 11 73 11q50 0 92 -15q43 -15 72 -43q31 -29 47 -69q17 -42 17 -89v-6h-320
q1 -45 12 -81q10 -35 29 -63q23 -32 55 -48t75 -16q45 0 84 17q38 16 63 48zM332 460l3 -2q-7 39 -23 59q-15 20 -36 20q-22 0 -39 -20q-17 -19 -27 -57q-6 -23 -9 -49q-2 -19 -4 -58h145q0 32 -3 59q-4 32 -7 48zM95 768v4h237l47 -179h-6z" />
    <glyph glyph-name="eacute" unicode="&#xe9;" horiz-adv-x="531" 
d="M515 190h2q-8 -46 -28 -82q-21 -38 -54 -63q-31 -25 -72 -39q-39 -13 -87 -13q-55 0 -106 20q-49 19 -85 57q-36 36 -54 86t-18 108q0 38 9 74t27 69q17 33 42 60q27 28 57 47q31 19 68 30q38 11 73 11q50 0 92 -15q43 -15 72 -43q31 -29 47 -69q17 -42 17 -89v-6h-320
q1 -45 12 -81q10 -35 29 -63q23 -32 55 -48t75 -16q45 0 84 17q38 16 63 48zM332 460l3 -2q-7 39 -23 59q-15 20 -36 20q-22 0 -39 -20q-17 -19 -27 -57q-6 -23 -9 -49q-2 -19 -4 -58h145q0 32 -3 59q-4 32 -7 48zM266 772h237v-4l-278 -175h-6z" />
    <glyph glyph-name="ecircumflex" unicode="&#xea;" horiz-adv-x="531" 
d="M515 190h2q-8 -46 -28 -82q-21 -38 -54 -63q-31 -25 -72 -39q-39 -13 -87 -13q-55 0 -106 20q-49 19 -85 57q-36 36 -54 86t-18 108q0 38 9 74t27 69q17 33 42 60q27 28 57 47q31 19 68 30q38 11 73 11q50 0 92 -15q43 -15 72 -43q31 -29 47 -69q17 -42 17 -89v-6h-320
q1 -45 12 -81q10 -35 29 -63q23 -32 55 -48t75 -16q45 0 84 17q38 16 63 48zM332 460l3 -2q-7 39 -23 59q-15 20 -36 20q-22 0 -39 -20q-17 -19 -27 -57q-6 -23 -9 -49q-2 -19 -4 -58h145q0 32 -3 59q-4 32 -7 48zM219 772h136l118 -179h-6l-180 90l-180 -90h-6z" />
    <glyph glyph-name="edieresis" unicode="&#xeb;" horiz-adv-x="531" 
d="M515 190h2q-8 -46 -28 -82q-21 -38 -54 -63q-31 -25 -72 -39q-39 -13 -87 -13q-55 0 -106 20q-49 19 -85 57q-36 36 -54 86t-18 108q0 38 9 74t27 69q17 33 42 60q27 28 57 47q31 19 68 30q38 11 73 11q50 0 92 -15q43 -15 72 -43q31 -29 47 -69q17 -42 17 -89v-6h-320
q1 -45 12 -81q10 -35 29 -63q23 -32 55 -48t75 -16q45 0 84 17q38 16 63 48zM332 460l3 -2q-7 39 -23 59q-15 20 -36 20q-22 0 -39 -20q-17 -19 -27 -57q-6 -23 -9 -49q-2 -19 -4 -58h145q0 32 -3 59q-4 32 -7 48zM241 619v-2q-12 -11 -30 -19q-15 -7 -34 -7t-34 7
q-18 8 -30 19q-11 11 -19 29q-7 15 -7 33t7 33q8 18 19 29q12 11 30 19q15 7 34 7t34 -7q18 -8 30 -19q11 -11 19 -28q7 -15 7 -33t-7 -33q-8 -16 -19 -28zM451 617v-2q-12 -11 -30 -19q-15 -7 -34 -7t-34 7q-18 8 -30 19q-11 11 -19 29q-7 15 -7 33t7 33q8 18 19 29
q12 11 30 19q15 7 34 7t34 -7q18 -8 30 -19q11 -11 19 -28q7 -15 7 -33t-7 -33q-8 -16 -19 -28z" />
    <glyph glyph-name="igrave" unicode="&#xec;" horiz-adv-x="334" 
d="M268 553h6v-503q0 -12 4 -19t12 -12l12 -3t24 -3v-14h-312v14q16 1 24 3l12 3q8 5 12 12t4 19v378l-53 61v4zM-8 768v4h237l47 -179h-6z" />
    <glyph glyph-name="iacute" unicode="&#xed;" horiz-adv-x="334" 
d="M268 553h6v-503q0 -12 4 -19t12 -12l12 -3t24 -3v-14h-312v14q16 1 24 3l12 3q8 5 12 12t4 19v378l-53 61v4zM163 772h237v-4l-278 -175h-6z" />
    <glyph glyph-name="icircumflex" unicode="&#xee;" horiz-adv-x="334" 
d="M268 553h4v-503q0 -12 4 -19q5 -7 12 -11q1 -1 5 -3q2 -1 8 -3q3 -1 10 -1q9 0 14 -1v-14h-312v14q5 1 14 1q7 0 10 1q6 2 8 3q4 2 5 3q7 4 12 11q4 7 4 19v378l-53 61v4zM114 772h124l107 -177h-5l-164 89l-164 -89h-6z" />
    <glyph glyph-name="idieresis" unicode="&#xef;" horiz-adv-x="334" 
d="M7 629l-2 -2q-11 11 -19 29q-7 15 -7 33t7 33q8 18 19 29q12 11 30 19q15 7 34 7q20 0 35 -7q18 -8 29 -19q14 -12 21 -28q7 -15 7 -33t-7 -33q-7 -16 -21 -28q-11 -11 -28 -19q-15 -7 -34 -7t-34 7q-18 8 -30 19zM215 627l-1 -2q-11 12 -19 30q-7 15 -7 33t7 33
q8 18 19 30q12 11 30 19q15 7 33 7q19 0 35 -6t30 -18q14 -13 21 -30q7 -15 7 -34t-7 -34q-7 -17 -21 -30q-14 -12 -30 -18t-34 -6t-33 7q-18 8 -30 19zM265 549h6v-503q0 -12 4 -19q5 -7 12 -12q5 -1 12 -3t24 -3v-14h-312v14q17 1 24 3t12 3q7 5 12 12q4 7 4 19v378
l-53 61v4z" />
    <glyph glyph-name="eth" unicode="&#xf0;" horiz-adv-x="612" 
d="M292 666l-149 -53l-6 20l144 47q-33 34 -72 56q-41 22 -87 33l11 12q72 -8 129 -25q62 -19 111 -46l96 32l6 -20l-79 -26q49 -31 86 -69q38 -39 63 -87q26 -47 39 -100q14 -56 14 -109q0 -48 -7 -87q-7 -41 -24 -79q-16 -39 -42 -73q-25 -33 -58 -55q-35 -24 -75 -36
t-84 -12q-59 0 -113 20q-53 19 -93 57q-41 38 -62 90t-21 111q0 39 9 75q9 37 27 68q17 32 44 60q25 26 59 45q33 20 68 29q36 9 74 9q11 0 18 -1q12 -2 19 -4q11 -4 18 -9q8 -5 12 -10q-11 40 -30 74q-19 35 -45 63zM239 313h-2q0 -158 19 -234q20 -78 57 -78q24 0 39 24
q14 23 22 75q4 28 5 54q2 42 2 72q0 158 -19 234q-20 78 -57 78q-24 0 -39 -24q-14 -23 -22 -75q-2 -17 -4 -54q-1 -21 -1 -72z" />
    <glyph glyph-name="ntilde" unicode="&#xf1;" horiz-adv-x="673" 
d="M392 20l3 -1q7 5 12 12q4 7 4 19v331q0 33 -16 49t-49 16q-18 0 -34 -3q-18 -3 -37 -10v-383q0 -12 4 -19q5 -7 12 -12q5 -1 12 -3t24 -3v-14h-312v14q17 1 24 3t12 3q7 5 12 12q4 7 4 19v378l-53 61v4l259 60h4l-4 -113q13 20 35 42q19 19 47 37q29 18 54 26q27 9 54 9
q37 0 65 -12q29 -12 48 -34q20 -21 30 -51q10 -29 10 -67v-339q0 -12 4 -19q4 -8 12 -12q4 -2 12 -3l24 -3v-14h-312v14l24 3t12 3zM517 767l6 -5q-5 -31 -12 -56q-8 -27 -18 -47q-17 -30 -37 -44q-21 -15 -45 -15q-7 0 -21 2q-10 2 -21 6q-5 2 -15 8l-23 14l-18 12t-11 6
q-9 4 -18 6q-12 2 -16 2q-25 0 -46 -15t-36 -42l-8 3q5 31 12 56q8 27 18 47q17 29 38 44t45 15q7 0 21 -2q10 -2 21 -6q10 -4 15 -7q2 -1 9.5 -5.5t13.5 -7.5l18 -12t11 -6q9 -4 18 -6q12 -2 17 -2q25 0 46 15t36 42z" />
    <glyph glyph-name="ograve" unicode="&#xf2;" horiz-adv-x="612" 
d="M160 515l-1 -1q33 20 69 29q38 9 77 9q61 0 114 -18q52 -18 92 -53q42 -39 62 -88q21 -51 21 -112q0 -41 -9 -78t-27 -70q-20 -34 -46 -60q-26 -27 -61 -46q-30 -19 -69 -28q-38 -9 -76 -9q-62 0 -114 18t-92 53q-42 39 -62 88q-21 51 -21 112q0 41 9 78t27 70
q20 34 46 60t61 46zM234 315h-2q0 -158 19 -234q19 -78 57 -78q24 0 39 24q14 23 22 75q4 28 5 54q2 42 2 72q0 158 -19 234q-19 78 -57 78q-24 0 -39 -24q-14 -23 -22 -75q-2 -17 -4 -54q-1 -21 -1 -72zM99 767v4h237l47 -179h-6z" />
    <glyph glyph-name="oacute" unicode="&#xf3;" horiz-adv-x="612" 
d="M160 515l-1 -1q33 20 69 29q38 9 77 9q61 0 114 -18q52 -18 92 -53q42 -39 62 -88q21 -51 21 -112q0 -41 -9 -78t-27 -70q-20 -34 -46 -60q-26 -27 -61 -46q-30 -19 -69 -28q-38 -9 -76 -9q-62 0 -114 18t-92 53q-42 39 -62 88q-21 51 -21 112q0 41 9 78t27 70
q20 34 46 60t61 46zM234 315h-2q0 -158 19 -234q19 -78 57 -78q24 0 39 24q14 23 22 75q4 28 5 54q2 42 2 72q0 158 -19 234q-19 78 -57 78q-24 0 -39 -24q-14 -23 -22 -75q-2 -17 -4 -54q-1 -21 -1 -72zM297 771h237v-4l-278 -175h-6z" />
    <glyph glyph-name="ocircumflex" unicode="&#xf4;" horiz-adv-x="612" 
d="M160 515l-1 -1q33 20 69 29q38 9 77 9q61 0 114 -18q52 -18 92 -53q42 -39 62 -88q21 -51 21 -112q0 -41 -9 -78t-27 -70q-20 -34 -46 -60q-26 -27 -61 -46q-30 -19 -69 -28q-38 -9 -76 -9q-62 0 -114 18t-92 53q-42 39 -62 88q-21 51 -21 112q0 41 9 78t27 70
q20 34 46 60t61 46zM234 315h-2q0 -158 19 -234q19 -78 57 -78q24 0 39 24q14 23 22 75q4 28 5 54q2 42 2 72q0 158 -19 234q-19 78 -57 78q-24 0 -39 -24q-14 -23 -22 -75q-2 -17 -4 -54q-1 -21 -1 -72zM235 771h136l118 -179h-6l-180 90l-180 -90h-6z" />
    <glyph glyph-name="otilde" unicode="&#xf5;" horiz-adv-x="612" 
d="M160 515l-1 -1q33 20 69 29q38 9 77 9q61 0 114 -18q52 -18 92 -53q42 -39 62 -88q21 -51 21 -112q0 -41 -9 -78t-27 -70q-20 -34 -46 -60q-26 -27 -61 -46q-30 -19 -69 -28q-38 -9 -76 -9q-62 0 -114 18t-92 53q-42 39 -62 88q-21 51 -21 112q0 41 9 78t27 70
q20 34 46 60t61 46zM234 315h-2q0 -158 19 -234q19 -78 57 -78q24 0 39 24q14 23 22 75q4 28 5 54q2 42 2 72q0 158 -19 234q-19 78 -57 78q-24 0 -39 -24q-14 -23 -22 -75q-2 -17 -4 -54q-1 -21 -1 -72zM484 767l6 -5q-5 -31 -12 -56q-8 -27 -18 -47q-17 -30 -37 -44
q-21 -15 -45 -15q-7 0 -21 2q-11 2 -21 6q-5 2 -15 8l-23 14l-18 12t-11 6q-9 4 -18 6q-12 2 -16 2q-25 0 -46 -15t-36 -42l-8 3q5 31 12 56q8 27 18 47q17 29 38 44t45 15q7 0 21 -2q11 -2 21 -6t15 -7q2 -1 9.5 -5.5t13.5 -7.5l18 -12t11 -6q9 -4 18 -6q12 -2 17 -2
q25 0 46 15t36 42z" />
    <glyph glyph-name="odieresis" unicode="&#xf6;" horiz-adv-x="612" 
d="M160 515l-1 -1q33 20 69 29q38 9 77 9q61 0 114 -18q52 -18 92 -53q42 -39 62 -88q21 -51 21 -112q0 -41 -9 -78t-27 -70q-20 -34 -46 -60q-26 -27 -61 -46q-30 -19 -69 -28q-38 -9 -76 -9q-62 0 -114 18t-92 53q-42 39 -62 88q-21 51 -21 112q0 41 9 78t27 70
q20 34 46 60t61 46zM234 315h-2q0 -158 19 -234q19 -78 57 -78q24 0 39 24q14 23 22 75q4 28 5 54q2 42 2 72q0 158 -19 234q-19 78 -57 78q-24 0 -39 -24q-14 -23 -22 -75q-2 -17 -4 -54q-1 -21 -1 -72zM261 618v-2q-12 -11 -30 -19q-15 -7 -34 -7t-34 7q-18 8 -30 19
q-11 11 -19 29q-7 15 -7 33t7 33q8 18 19 29q12 11 30 19q15 7 34 7t34 -7q18 -8 30 -19q11 -12 19 -28q7 -15 7 -33t-7 -33q-8 -16 -19 -28zM471 616v-2q-12 -11 -30 -19q-15 -7 -34 -7t-34 7q-18 8 -30 19q-11 11 -19 29q-7 15 -7 33t7 33q8 18 19 29q12 11 30 19
q15 7 34 7t34 -7q18 -8 30 -19q11 -12 19 -28q7 -15 7 -33t-7 -33q-8 -16 -19 -28z" />
    <glyph glyph-name="divide" unicode="&#xf7;" horiz-adv-x="564" 
d="M307 493l-4 -4q-3 -3 -11 -7q-6 -3 -13 -3t-13 3t-11 8q-3 3 -7 11q-3 6 -3 14t3 14t8 11t11 8t14 3t14 -3q8 -4 11 -7q5 -5 8 -11t3 -13t-3 -13q-4 -8 -7 -11zM497 346h-438v22h438v-22zM303 175l-4 -4q-3 -3 -11 -7q-6 -3 -13 -3t-13 3t-11 8q-3 3 -7 11q-3 6 -3 14
t3 14t8 11t11 8t14 3t14 -3q8 -4 11 -7q5 -5 8 -11t3 -13t-3 -13q-4 -8 -7 -11z" />
    <glyph glyph-name="oslash" unicode="&#xf8;" horiz-adv-x="612" 
d="M160 515l-2 -3q33 20 69 29q38 9 77 9q47 0 86 -10q40 -10 75 -30l58 79l18 -12l-58 -79q28 -20 48 -43q22 -25 35 -53q14 -27 21 -58q7 -29 7 -66q0 -40 -9 -78q-9 -37 -27 -70q-20 -34 -46 -60t-61 -46q-30 -19 -69 -28q-38 -9 -76 -9q-45 0 -87 11q-41 10 -75 30
l-59 -80l-18 12l58 80q-28 20 -48 43t-34 52q-14 30 -20 60q-6 31 -6 66q0 41 9 78t27 70q20 34 46 60t61 46zM239 438l-1 2q-2 -17 -4 -54q-1 -21 -1 -72q0 -41 1 -61q1 -27 3 -55l133 181q-8 81 -25 119q-18 39 -45 39q-24 0 -39 -24q-14 -23 -22 -75zM308 3l-4 -3
q24 0 39 24q14 23 22 75q4 28 5 54q2 42 2 72v63q0 21 -2 57l-133 -181q7 -79 26 -121q18 -40 45 -40z" />
    <glyph glyph-name="ugrave" unicode="&#xf9;" horiz-adv-x="661" 
d="M605 553l-11 -142v-332q0 -16 3 -25t9 -15q6 -4 18 -7q10 -3 26 -3v-14l-260 -34h-4l3 109q-15 -22 -36 -43q-20 -20 -40 -33q-25 -16 -51 -24q-27 -8 -53 -8q-37 0 -67 12q-31 12 -50 36q-18 22 -27 54q-9 31 -9 70v263q0 17 -3 27q-3 12 -7 18q-7 9 -15 14
q-10 7 -24 11v10l258 52h4l-6 -132v-254q0 -37 17 -57q16 -19 51 -19q15 0 32 5q15 4 29 14v315q0 17 -3 27q-3 12 -7 18q-7 9 -15 14q-10 7 -24 11v10l258 52h4zM137 758v4h237l47 -179h-6z" />
    <glyph glyph-name="uacute" unicode="&#xfa;" horiz-adv-x="661" 
d="M605 553l-11 -142v-332q0 -16 3 -25t9 -15q6 -4 18 -7q10 -3 26 -3v-14l-260 -34h-4l3 109q-15 -22 -36 -43q-20 -20 -40 -33q-25 -16 -51 -24q-27 -8 -53 -8q-37 0 -67 12q-31 12 -50 36q-18 22 -27 54q-9 31 -9 70v263q0 17 -3 27q-3 12 -7 18q-7 9 -15 14
q-10 7 -24 11v10l258 52h4l-6 -132v-254q0 -37 17 -57q16 -19 51 -19q15 0 32 5q15 4 29 14v315q0 17 -3 27q-3 12 -7 18q-7 9 -15 14q-10 7 -24 11v10l258 52h4zM308 762h237v-4l-278 -175h-6z" />
    <glyph glyph-name="ucircumflex" unicode="&#xfb;" horiz-adv-x="661" 
d="M605 553l-11 -142v-332q0 -16 3 -25t9 -15q6 -4 18 -7q10 -3 26 -3v-14l-260 -34h-4l3 109q-15 -22 -36 -43q-20 -20 -40 -33q-25 -16 -51 -24q-27 -8 -53 -8q-37 0 -67 12q-31 12 -50 36q-18 22 -27 54q-9 31 -9 70v263q0 17 -3 27q-3 12 -7 18q-7 9 -15 14
q-10 7 -24 11v10l258 52h4l-6 -132v-254q0 -37 17 -57q16 -19 51 -19q15 0 32 5q15 4 29 14v315q0 17 -3 27q-3 12 -7 18q-7 9 -15 14q-10 7 -24 11v10l258 52h4zM261 762h136l118 -179h-6l-180 90l-180 -90h-6z" />
    <glyph glyph-name="udieresis" unicode="&#xfc;" horiz-adv-x="661" 
d="M605 553l-11 -142v-332q0 -16 3 -25t9 -15q6 -4 18 -7q10 -3 26 -3v-14l-260 -34h-4l3 109q-15 -22 -36 -43q-20 -20 -40 -33q-25 -16 -51 -24q-27 -8 -53 -8q-37 0 -67 12q-31 12 -50 36q-18 22 -27 54q-9 31 -9 70v263q0 17 -3 27q-3 12 -7 18q-7 9 -15 14
q-10 7 -24 11v10l258 52h4l-6 -132v-254q0 -37 17 -57q16 -19 51 -19q15 0 32 5q15 4 29 14v315q0 17 -3 27q-3 12 -7 18q-7 9 -15 14q-10 7 -24 11v10l258 52h4zM282 609v-2q-12 -11 -30 -19q-15 -7 -34 -7t-34 7q-18 8 -30 19q-11 11 -19 29q-7 15 -7 33t7 33q8 18 19 29
q12 11 30 19q15 7 34 7t34 -7q18 -8 30 -19t19 -28q7 -15 7 -33t-7 -33q-7 -17 -19 -28zM492 607v-2q-12 -11 -30 -19q-15 -7 -34 -7t-34 7q-18 8 -30 19q-11 11 -19 29q-7 15 -7 33t7 33q8 18 19 29q12 11 30 19q15 7 34 7t34 -7q18 -8 30 -19t19 -28q7 -15 7 -33t-7 -33
q-7 -17 -19 -28z" />
    <glyph glyph-name="yacute" unicode="&#xfd;" horiz-adv-x="588" 
d="M294 -38l8 12l-251 489q-8 16 -14 26q-5 7 -9 12q-8 7 -15 12q-7 4 -23 9v14h342v-14q-14 -2 -24 -3q-12 -2 -18 -4q-14 -5 -19 -10q-6 -6 -6 -15q0 -3 2 -13q1 -7 6 -16l117 -269l95 246q1 3 3 8t3 9t2 7q3 10 3 21q0 12 -8 22t-24 14q-13 4 -24 5q-15 2 -31 3v14h186
v-14q-17 -3 -27 -9q-12 -7 -20 -16q-7 -7 -13 -19q-3 -6 -13 -28l-216 -516q-17 -40 -28 -60q-14 -25 -27 -45q-24 -31 -46 -44q-25 -14 -53 -14q-14 0 -27 3q-12 3 -24 11q-13 8 -20 18q-8 11 -12 22v69l26 -6q7 -2 19 -4l24 -3q8 -1 24 -1q29 0 45 4q19 5 33 13
q16 9 30 24t24 36zM332 766h237v-4l-278 -175h-6z" />
    <glyph glyph-name="thorn" unicode="&#xfe;" horiz-adv-x="652" 
d="M293 -190l4 -2q6 -2 18 -4l29 -3v-14h-334v14q16 1 24 3l12 3q8 5 12 12t4 19v820l-53 61v4l255 60h4v-339q10 21 29 42q18 20 41 35q24 16 48 23q27 8 53 8q47 0 87 -20q39 -20 66 -57q22 -32 34 -76q12 -43 12 -94q0 -43 -9 -84q-9 -42 -25 -75q-17 -36 -45 -67
q-27 -30 -62 -50t-73 -30q-37 -10 -82 -10q-23 0 -45 5q-18 4 -31 14v-165q0 -13 6 -21t21 -12zM330 5v-2q29 0 50 24t33 71q7 28 12 63q4 31 4 75q0 35 -5 72q-4 32 -15 58q-13 37 -38 57t-56 20q-13 0 -24 -3q-14 -4 -21 -7v-316q0 -55 15 -83q15 -29 45 -29z" />
    <glyph glyph-name="ydieresis" unicode="&#xff;" horiz-adv-x="588" 
d="M294 -38l8 12l-251 489q-8 16 -14 26q-5 7 -9 12q-8 7 -15 12q-7 4 -23 9v14h342v-14q-14 -2 -24 -3q-12 -2 -18 -4q-14 -5 -19 -10q-6 -6 -6 -15q0 -3 2 -13q1 -7 6 -16l117 -269l95 246q1 3 3 8t3 9t2 7q3 10 3 21q0 12 -8 22t-24 14q-13 4 -24 5q-15 2 -31 3v14h186
v-14q-17 -3 -27 -9q-12 -7 -20 -16q-7 -7 -13 -19q-3 -6 -13 -28l-216 -516q-17 -40 -28 -60q-14 -25 -27 -45q-24 -31 -46 -44q-25 -14 -53 -14q-14 0 -27 3q-12 3 -24 11q-13 8 -20 18q-8 11 -12 22v69l26 -6q7 -2 19 -4l24 -3q8 -1 24 -1q29 0 45 4q19 5 33 13
q16 9 30 24t24 36zM306 613v-2q-12 -11 -30 -19q-15 -7 -34 -7t-34 7q-18 8 -30 19q-11 11 -19 29q-7 15 -7 33t7 33q8 18 19 29q12 11 30 19q15 7 34 7t34 -7q18 -8 30 -19t19 -28q7 -15 7 -33t-7 -33q-7 -17 -19 -28zM516 611v-2q-12 -11 -30 -19q-15 -7 -34 -7t-34 7
q-18 8 -30 19q-11 11 -19 29q-7 15 -7 33t7 33q8 18 19 29q12 11 30 19q15 7 34 7t34 -7q18 -8 30 -19t19 -28q7 -15 7 -33t-7 -33q-7 -17 -19 -28z" />
    <glyph glyph-name="Amacron" unicode="&#x100;" horiz-adv-x="760" 
d="M466 63l-5 -1q0 4 -2 16q-1 8 -6 22l-57 157h-230l-56 -157q-2 -6 -4 -18q-1 -6 -1 -16q0 -24 27 -36q28 -13 82 -14v-16h-222v16l23 3q6 1 16 5q12 6 17 10q8 6 14 14q6 10 9 16t9 20l191 527l-33 91h233l232 -644q5 -12 10 -18q6 -7 14 -12q5 -4 15 -7q6 -2 23 -4v-16
h-375v16q18 2 29 3q10 1 21 5q14 6 20 15t6 23zM279 576l-106 -298h215zM503 763h-314v51h314v-51z" />
    <glyph glyph-name="amacron" unicode="&#x101;" horiz-adv-x="553" 
d="M427 520v-4q36 -23 54 -58q18 -36 18 -88v-266q0 -20 9 -30t27 -10q10 0 14 1q8 2 12 4l4 -5q-9 -14 -26 -31q-15 -15 -34 -25q-18 -10 -40 -16q-21 -6 -42 -6q-18 0 -40 5q-19 5 -36 15t-30 26q-12 15 -18 33q-12 -16 -28 -31q-15 -14 -36 -25q-19 -10 -41 -15
q-23 -5 -42 -5q-30 0 -57 9q-25 8 -46 26q-23 18 -33 43q-11 27 -11 55q0 32 12 56q12 25 36 44q19 16 43 27q29 13 60 23l141 47v135q0 41 -10 60t-33 19q-24 0 -37 -24q-13 -23 -13 -67q0 -20 3 -45q3 -22 8 -42l-130 -16q-11 5 -21 12t-18 18q-7 8 -10 21q-3 12 -3 25
q0 35 22 63t64 46q30 14 67 21q35 7 76 7q53 0 96 -8q40 -8 69 -24zM215 110l-2 -1q9 -19 24 -30q14 -10 34 -10q5 0 15 2q6 1 10 5v225l-30 -12q-19 -7 -31 -18q-11 -10 -19 -24q-7 -11 -10 -28t-3 -37q0 -22 3 -40q3 -19 9 -32zM419 629h-294v51h294v-51z" />
    <glyph glyph-name="Abreve" unicode="&#x102;" horiz-adv-x="760" 
d="M466 63l-5 -1q0 4 -2 16q-1 8 -6 22l-57 157h-230l-56 -157q-2 -6 -4 -18q-1 -6 -1 -16q0 -24 27 -36q28 -13 82 -14v-16h-222v16l23 3q6 1 16 5q12 6 17 10q8 6 14 14q6 10 9 16t9 20l191 527l-33 91h233l232 -644q5 -12 10 -18q6 -7 14 -12q5 -4 15 -7q6 -2 23 -4v-16
h-375v16q18 2 29 3q10 1 21 5q14 6 20 15t6 23zM279 576l-106 -298h215zM466 787h2q-21 -23 -50 -35q-28 -12 -63 -12t-63 12q-29 12 -50 35q-22 23 -32 53q-11 31 -11 63h4q8 -17 24 -29q17 -13 41 -20q18 -6 40 -9t46 -3t46 3t40 9q24 7 41 20q16 12 24 29h4
q0 -32 -11 -63q-10 -30 -32 -53z" />
    <glyph glyph-name="abreve" unicode="&#x103;" horiz-adv-x="553" 
d="M427 520v-4q36 -23 54 -58q18 -36 18 -88v-266q0 -20 9 -30t27 -10q10 0 14 1q8 2 12 4l4 -5q-9 -14 -26 -31q-15 -15 -34 -25q-18 -10 -40 -16q-21 -6 -42 -6q-18 0 -40 5q-19 5 -36 15t-30 26q-12 15 -18 33q-12 -16 -28 -31q-15 -14 -36 -25q-19 -10 -41 -15
q-23 -5 -42 -5q-30 0 -57 9q-25 8 -46 26q-23 18 -33 43q-11 27 -11 55q0 32 12 56q12 25 36 44q19 16 43 27q29 13 60 23l141 47v135q0 41 -10 60t-33 19q-24 0 -37 -24q-13 -23 -13 -67q0 -20 3 -45q3 -22 8 -42l-130 -16q-11 5 -21 12t-18 18q-7 8 -10 21q-3 12 -3 25
q0 35 22 63t64 46q30 14 67 21q35 7 76 7q53 0 96 -8q40 -8 69 -24zM215 110l-2 -1q9 -19 24 -30q14 -10 34 -10q5 0 15 2q6 1 10 5v225l-30 -12q-19 -7 -31 -18q-11 -10 -19 -24q-7 -11 -10 -28t-3 -37q0 -22 3 -40q3 -19 9 -32zM394 641l-4 -1q-20 -26 -48 -39
q-27 -13 -66 -13q-36 0 -66 14q-28 14 -48 39q-16 21 -25 54q-9 31 -9 71h5q13 -38 50 -58q35 -19 95 -19t95 19q37 20 50 58h5q0 -40 -9 -71q-9 -33 -25 -54z" />
    <glyph glyph-name="Aogonek" unicode="&#x104;" horiz-adv-x="760" 
d="M457 -125l-2 -7q-27 -44 -60 -66q-32 -22 -70 -22q-19 0 -36 6q-15 6 -30 17q-13 12 -21 27q-7 14 -7 35q0 45 39 81q40 37 114 59q26 8 29 10q11 5 18 9q13 7 22 17q7 8 7 21q0 4 -2 16q-1 8 -6 22l-57 157h-230l-56 -157q-2 -6 -4 -18q-1 -6 -1 -16q0 -24 27 -36
q28 -13 82 -14v-16h-222v16l23 3q6 1 16 5q12 6 17 10q8 6 14 14q6 10 9 16t9 20l191 527l-33 91h233l232 -644q5 -12 10 -18q6 -7 14 -12q5 -4 15 -7q6 -2 23 -4v-16h-362q-28 -16 -43 -40t-15 -55q0 -12 3 -22t11 -18q7 -7 17 -12q8 -4 21 -4q19 0 34 6q16 6 27 19z
M278 575l-106 -298h215z" />
    <glyph glyph-name="aogonek" unicode="&#x105;" horiz-adv-x="553" 
d="M411 -217v-3q-19 0 -36 6q-15 6 -30 17q-13 12 -21 27q-7 14 -7 35q0 36 30 66t91 57q-26 0 -45 4q-23 5 -38 13q-23 11 -35 25q-14 15 -21 36q-12 -16 -28 -31q-15 -14 -36 -25q-19 -10 -41 -15q-23 -5 -42 -5q-30 0 -57 9q-25 8 -46 26q-23 18 -33 43q-11 27 -11 55
q0 32 12 56q12 25 36 44q19 16 43 27q29 13 60 23l141 47v135q0 41 -10 60t-33 19q-24 0 -37 -24q-13 -23 -13 -67q0 -19 3 -45q3 -22 8 -42l-130 -16q-11 4 -21 12t-18 18q-7 8 -10 21q-3 12 -3 25q0 35 22 63t64 46q30 14 67 21q35 7 76 7q53 0 96 -8q40 -7 69 -24
q36 -23 54 -58q18 -36 18 -88v-266q0 -19 9 -30q9 -10 27 -10q10 0 14 1q8 2 12 4l4 -5q-2 -1 -6 -4t-11 -7.5l-13 -8.5q-23 -15 -33 -24q-20 -15 -33 -27q-14 -13 -21 -22q-12 -16 -18 -33t-6 -36q0 -11 3 -22q3 -10 11 -18q7 -7 17 -12q8 -4 21 -4q19 0 34 6q16 6 27 19
l4 -5q-27 -43 -60 -66q-32 -22 -70 -22zM215 111l-2 -1q9 -20 24 -30q14 -10 34 -10q5 0 15 2q6 1 10 5v225l-30 -12q-19 -7 -31 -18q-11 -10 -19 -24q-7 -11 -10 -28q-3 -16 -3 -37q0 -22 3 -40q3 -19 9 -32z" />
    <glyph glyph-name="Cacute" unicode="&#x106;" horiz-adv-x="685" 
d="M553 619l-1 -7q-30 37 -65 57t-69 20q-46 0 -82 -36q-35 -35 -58 -105q-14 -44 -21 -97q-7 -50 -7 -114q0 -57 8 -115q7 -52 23 -96q23 -63 60 -96t87 -33q27 0 54 12t53 35q19 17 40 42q17 21 34 53q13 25 24 54t18 60h11l-18 -203q-23 -17 -52 -30q-30 -14 -64 -21
q-29 -8 -61 -12q-29 -4 -66 -4q-52 0 -100 9q-46 9 -90 29q-47 21 -82 52t-61 72q-25 39 -37 87q-12 46 -12 99q0 57 13 105q14 50 39 93t63 78q39 36 84 59q43 21 95 33q51 12 104 12q59 0 113 -15q56 -16 98 -43l4 -181h-10q-9 40 -27 78t-42 69zM387 883h237v-4
l-260 -145h-4z" />
    <glyph glyph-name="cacute" unicode="&#x107;" horiz-adv-x="509" 
d="M336 484l-5 -2q-8 26 -19 39q-12 13 -29 13q-22 0 -42 -20q-19 -19 -33 -56q-8 -22 -13 -52q-4 -25 -4 -57q0 -48 9 -87q8 -37 26 -67q21 -36 54 -54t77 -18q42 0 78 17q34 16 60 50l4 -2q-7 -45 -27 -81t-50 -62q-31 -26 -70 -40q-38 -13 -85 -13q-55 0 -104 20
q-47 19 -82 57q-34 37 -50 85q-17 51 -17 108q0 38 9 76q8 35 29 70q20 34 46 60q27 27 59 47q35 19 72 30q36 10 75 10q37 0 66 -7q32 -8 57 -21q31 -17 48 -42q17 -26 17 -57q0 -13 -3 -25q-3 -11 -9 -22q-8 -13 -16 -21t-19 -13h-108q4 20 5 29q2 18 2 30q0 16 -2 42
q-2 20 -6 36zM275 770h237v-4l-278 -175h-6z" />
    <glyph glyph-name="Ccircumflex" unicode="&#x108;" horiz-adv-x="685" 
d="M553 619l-1 -7q-30 37 -65 57t-69 20q-46 0 -82 -36q-35 -35 -58 -105q-14 -44 -21 -97q-7 -50 -7 -114q0 -57 8 -115q7 -52 23 -96q23 -63 60 -96t87 -33q27 0 54 12t53 35q19 17 40 42q17 21 34 53q13 25 24 54t18 60h11l-18 -203q-23 -17 -52 -30q-30 -14 -64 -21
q-29 -8 -61 -12q-29 -4 -66 -4q-52 0 -100 9q-46 9 -90 29q-47 21 -82 52t-61 72q-25 39 -37 87q-12 46 -12 99q0 57 13 105q14 50 39 93t63 78q39 36 84 59q43 21 95 33q51 12 104 12q59 0 113 -15q56 -16 98 -43l4 -181h-10q-9 40 -27 78t-42 69zM348 883h136l118 -149h-6
l-180 65l-180 -65h-6z" />
    <glyph glyph-name="ccircumflex" unicode="&#x109;" horiz-adv-x="509" 
d="M336 484l-5 -2q-8 26 -19 39q-12 13 -29 13q-22 0 -42 -20q-19 -19 -33 -56q-8 -22 -13 -52q-4 -25 -4 -57q0 -48 9 -87q8 -37 26 -67q21 -36 54 -54t77 -18q42 0 78 17q34 16 60 50l4 -2q-7 -45 -27 -81t-50 -62q-31 -26 -70 -40q-38 -13 -85 -13q-55 0 -104 20
q-47 19 -82 57q-34 37 -50 85q-17 51 -17 108q0 38 9 76q8 35 29 70q20 34 46 60q27 27 59 47q35 19 72 30q36 10 75 10q37 0 66 -7q32 -8 57 -21q31 -17 48 -42q17 -26 17 -57q0 -13 -3 -25q-3 -11 -9 -22q-8 -13 -16 -21t-19 -13h-108q4 20 5 29q2 18 2 30q0 16 -2 42
q-2 20 -6 36zM218 770h136l118 -179h-6l-180 90l-180 -90h-6z" />
    <glyph glyph-name="Cdotaccent" unicode="&#x10a;" horiz-adv-x="685" 
d="M553 619l-1 -7q-30 37 -65 57t-69 20q-46 0 -82 -36q-35 -35 -58 -105q-14 -44 -21 -97q-7 -50 -7 -114q0 -57 8 -115q7 -52 23 -96q23 -63 60 -96t87 -33q27 0 54 12t53 35q19 17 40 42q17 21 34 53q13 25 24 54t18 60h11l-18 -203q-23 -17 -52 -30q-30 -14 -64 -21
q-29 -8 -61 -12q-29 -4 -66 -4q-52 0 -100 9q-46 9 -90 29q-47 21 -82 52t-61 72q-25 39 -37 87q-12 46 -12 99q0 57 13 105q14 50 39 93t63 78q39 36 84 59q43 21 95 33q51 12 104 12q59 0 113 -15q56 -16 98 -43l4 -181h-10q-9 40 -27 78t-42 69zM490 761v-4
q-14 -13 -33 -21q-18 -7 -42 -7t-42 7q-19 8 -33 21q-16 14 -23 33q-8 21 -8 40t8 40q7 19 23 33q14 13 33 21q18 7 42 7t42 -7q19 -8 33 -21q15 -14 23 -32q8 -19 8 -39t-8 -39q-8 -18 -23 -32z" />
    <glyph glyph-name="cdotaccent" unicode="&#x10b;" horiz-adv-x="509" 
d="M336 484l-5 -2q-8 26 -19 39q-12 13 -29 13q-22 0 -42 -20q-19 -19 -33 -56q-8 -22 -13 -52q-4 -25 -4 -57q0 -48 9 -87q8 -37 26 -67q21 -36 54 -54t77 -18q42 0 78 17q34 16 60 50l4 -2q-7 -45 -27 -81t-50 -62q-31 -26 -70 -40q-38 -13 -85 -13q-55 0 -104 20
q-47 19 -82 57q-34 37 -50 85q-17 51 -17 108q0 38 9 76q8 35 29 70q20 34 46 60q27 27 59 47q35 19 72 30q36 10 75 10q37 0 66 -7q32 -8 57 -21q31 -17 48 -42q17 -26 17 -57q0 -13 -3 -25q-3 -11 -9 -22q-8 -13 -16 -21t-19 -13h-108q4 20 5 29q2 18 2 30q0 16 -2 42
q-2 20 -6 36zM365 615v-4q-13 -13 -33 -21q-18 -7 -42 -7t-42 7q-20 8 -33 21q-16 14 -23 33q-8 21 -8 40t8 40q7 19 23 33q13 13 33 21q18 7 42 7t42 -7q20 -8 33 -21q15 -14 23 -32q8 -19 8 -39t-8 -39q-8 -18 -23 -32z" />
    <glyph glyph-name="Ccaron" unicode="&#x10c;" horiz-adv-x="685" 
d="M553 619l-1 -7q-30 37 -65 57t-69 20q-46 0 -82 -36q-35 -35 -58 -105q-14 -44 -21 -97q-7 -50 -7 -114q0 -57 8 -115q7 -52 23 -96q23 -63 60 -96t87 -33q27 0 54 12t53 35q19 17 40 42q17 21 34 53q13 25 24 54t18 60h11l-18 -203q-23 -17 -52 -30q-30 -14 -64 -21
q-29 -8 -61 -12q-29 -4 -66 -4q-52 0 -100 9q-46 9 -90 29q-47 21 -82 52t-61 72q-25 39 -37 87q-12 46 -12 99q0 57 13 105q14 50 39 93t63 78q39 36 84 59q43 21 95 33q51 12 104 12q59 0 113 -15q56 -16 98 -43l4 -181h-10q-9 40 -27 78t-42 69zM602 883l-118 -149h-136
l-118 149h6l180 -65l180 65h6z" />
    <glyph glyph-name="ccaron" unicode="&#x10d;" horiz-adv-x="509" 
d="M336 484l-5 -2q-8 26 -19 39q-12 13 -29 13q-22 0 -42 -20q-19 -19 -33 -56q-8 -22 -13 -52q-4 -25 -4 -57q0 -48 9 -87q8 -37 26 -67q21 -36 54 -54t77 -18q42 0 78 17q34 16 60 50l4 -2q-7 -45 -27 -81t-50 -62q-31 -26 -70 -40q-38 -13 -85 -13q-55 0 -104 20
q-47 19 -82 57q-34 37 -50 85q-17 51 -17 108q0 38 9 76q8 35 29 70q20 34 46 60q27 27 59 47q35 19 72 30q36 10 75 10q37 0 66 -7q32 -8 57 -21q31 -17 48 -42q17 -26 17 -57q0 -13 -3 -25q-3 -11 -9 -22q-8 -13 -16 -21t-19 -13h-108q4 20 5 29q2 18 2 30q0 16 -2 42
q-2 20 -6 36zM478 770l-118 -179h-136l-118 179h6l180 -90l180 90h6z" />
    <glyph glyph-name="Dcaron" unicode="&#x10e;" horiz-adv-x="797" 
d="M381 0l-361 1v16l23 3q6 1 16 3q12 5 17 9q7 5 8 12q2 6 3 15q1 6 1 25v536v24q0 6 -2 14q-3 10 -9 14t-18 9q-10 2 -16 3q-10 2 -22 3v16h332q94 0 167 -19q75 -20 129 -57q63 -45 96 -112t33 -154q0 -56 -13 -102q-14 -49 -39 -89q-26 -42 -63 -75q-36 -31 -86 -55
q-43 -20 -93 -30q-47 -10 -103 -10zM504 563l-2 1q-31 60 -76 89q-46 30 -106 30h-13v-589q0 -20 3 -33q3 -12 11 -24q7 -10 20 -15q11 -4 32 -4h3q33 0 61 16q29 16 51 48q18 24 29 54q13 34 20 69q7 27 10 63q3 33 3 69q0 68 -12 125q-13 59 -34 101zM555 892l-118 -149
h-136l-118 149h6l180 -65l180 65h6z" />
    <glyph glyph-name="dcaron" unicode="&#x10f;" horiz-adv-x="653" 
d="M648 24l-259 -39h-4l3 109q-11 -22 -29 -45q-15 -19 -38 -34q-21 -14 -48 -22q-24 -7 -54 -7q-47 0 -87 21t-69 59q-25 33 -37 78q-12 44 -12 93q0 44 9 83q9 38 26 74t45 67q27 30 62 50t73 30q37 10 82 10q14 0 20 -1t20 -3q14 -4 20 -6q10 -3 15 -7v123l-53 61v4
l255 60h4v-694q0 -16 3 -25t9 -15q6 -4 18 -7q10 -3 26 -3v-14zM377 489h-1q-8 19 -21 30q-14 11 -31 11q-28 0 -49 -24t-33 -70q-8 -31 -11 -63q-3 -35 -3 -73q0 -36 5 -73q4 -30 14 -58q15 -38 39 -58q23 -19 57 -19q13 0 24 3q7 2 21 8v316q0 21 -3 39q-2 14 -8 31z
M799 767v-4l-158 -251h-8l11 255h155z" />
    <glyph glyph-name="Dcroat" unicode="&#x110;" horiz-adv-x="817" 
d="M391 0l-361 1v16l23 3q6 1 16 3q12 5 17 9q7 5 8 12q2 6 3 15q1 6 1 25v265h-64v22h64v249v24q0 6 -2 14q-3 10 -9 14t-18 9q-10 2 -16 3q-10 2 -22 3v16h332q94 0 167 -19q75 -20 129 -57q63 -45 96 -112t33 -154q0 -56 -13 -102q-14 -49 -39 -89q-26 -42 -63 -75
q-36 -31 -86 -55q-43 -20 -93 -30q-47 -10 -103 -10zM514 563l-2 1q-31 60 -76 89q-47 30 -106 30h-13v-312h121v-22h-121v-255q0 -20 3 -33q3 -12 11 -24q7 -10 20 -15q11 -4 32 -4h3q33 0 61 16q29 16 51 48q18 24 29 54q13 34 20 69q7 27 10 63q3 33 3 69q0 68 -12 125
q-13 59 -34 101z" />
    <glyph glyph-name="dcroat" unicode="&#x111;" horiz-adv-x="660" 
d="M648 24l-259 -39h-4l3 109q-11 -22 -29 -45q-15 -19 -38 -34q-21 -14 -48 -22q-24 -7 -54 -7q-47 0 -87 21t-69 59q-25 33 -37 78q-12 44 -12 93q0 44 9 83q9 38 26 74t45 67q27 30 62 50t73 30q37 10 82 10q14 0 20 -1t20 -3q14 -4 20 -6q10 -3 15 -7v66h-108v22h108v35
l-53 61v4l255 60h4v-160h42v-22h-42v-512q0 -16 3 -25t9 -15q6 -4 18 -7q10 -3 26 -3v-14zM377 489h-1q-8 19 -21 30q-14 11 -31 11q-28 0 -49 -24t-33 -70q-8 -31 -11 -63q-3 -35 -3 -73q0 -36 5 -73q4 -30 14 -58q15 -38 39 -58q23 -19 57 -19q13 0 24 3q7 2 21 8v316
q0 21 -3 39q-2 14 -8 31z" />
    <glyph glyph-name="Emacron" unicode="&#x112;" horiz-adv-x="654" 
d="M645 227l-37 -231h-591v16l23 3q6 1 16 3q12 5 17 9q7 5 8 12q1 6 3 15q1 6 1 25v536v24q0 6 -2 14q-3 10 -9 14q-6 5 -18 9q-10 2 -16 3q-10 2 -22 3v16h586l5 -199h-12q-18 43 -36 75q-19 33 -37 51q-26 27 -57 39t-75 12h-86v-310h83q26 0 45 8t29 24q9 14 15 33
q5 16 10 51h14v-246h-14q-5 35 -10 51q-6 19 -15 33q-10 16 -29 24t-45 8h-83v-265q0 -18 5 -33q5 -14 15 -21q8 -7 23 -10q13 -3 36 -3h22q39 0 75 17q34 17 66 51q20 24 42 59q18 28 43 80h12zM494 760h-314v51h314v-51z" />
    <glyph glyph-name="emacron" unicode="&#x113;" horiz-adv-x="531" 
d="M515 190h2q-8 -46 -28 -82q-21 -38 -54 -63q-31 -25 -72 -39q-39 -13 -87 -13q-55 0 -106 20q-49 19 -85 57q-36 36 -54 86t-18 108q0 38 9 74t27 69q17 33 42 60q27 28 57 47q31 19 68 30q38 11 73 11q50 0 92 -15q43 -15 72 -43q31 -29 47 -69q17 -42 17 -89v-6h-320
q1 -45 12 -81q10 -35 29 -63q23 -32 55 -48t75 -16q45 0 84 17q38 16 63 48zM332 460l3 -2q-7 39 -23 59q-15 20 -36 20q-22 0 -39 -20q-17 -19 -27 -57q-6 -23 -9 -49q-2 -19 -4 -58h145q0 32 -3 59q-4 32 -7 48zM427 634h-294v51h294v-51z" />
    <glyph glyph-name="Ebreve" unicode="&#x114;" horiz-adv-x="654" 
d="M645 227l-37 -231h-591v16l23 3q6 1 16 3q12 5 17 9q7 5 8 12q1 6 3 15q1 6 1 25v536v24q0 6 -2 14q-3 10 -9 14q-6 5 -18 9q-10 2 -16 3q-10 2 -22 3v16h586l5 -199h-12q-18 43 -36 75q-19 33 -37 51q-26 27 -57 39t-75 12h-86v-310h83q26 0 45 8t29 24q9 14 15 33
q5 16 10 51h14v-246h-14q-5 35 -10 51q-6 19 -15 33q-10 16 -29 24t-45 8h-83v-265q0 -18 5 -33q5 -14 15 -21q8 -7 23 -10q13 -3 36 -3h22q39 0 75 17q34 17 66 51q20 24 42 59q18 28 43 80h12zM457 784h2q-21 -23 -50 -35t-63 -12t-63 12t-50 35q-22 23 -32 53
q-11 31 -11 63h4q8 -17 24 -29q17 -13 41 -20q18 -6 40 -9q23 -3 46 -3t46 3q22 3 40 9q24 7 41 20q16 12 24 29h4q0 -32 -11 -63q-10 -30 -32 -53z" />
    <glyph glyph-name="ebreve" unicode="&#x115;" horiz-adv-x="531" 
d="M515 190h2q-8 -46 -28 -82q-21 -38 -54 -63q-31 -25 -72 -39q-39 -13 -87 -13q-55 0 -106 20q-49 19 -85 57q-36 36 -54 86t-18 108q0 38 9 74t27 69q17 33 42 60q27 28 57 47q31 19 68 30q38 11 73 11q50 0 92 -15q43 -15 72 -43q31 -29 47 -69q17 -42 17 -89v-6h-320
q1 -45 12 -81q10 -35 29 -63q23 -32 55 -48t75 -16q45 0 84 17q38 16 63 48zM332 460l3 -2q-7 39 -23 59q-15 20 -36 20q-22 0 -39 -20q-17 -19 -27 -57q-6 -23 -9 -49q-2 -19 -4 -58h145q0 32 -3 59q-4 32 -7 48zM402 646l-4 -1q-20 -25 -48 -39q-27 -13 -66 -13
q-36 0 -66 14q-28 13 -48 39q-16 21 -25 54q-9 31 -9 71h5q13 -38 50 -58q35 -19 95 -19t95 19q37 20 50 58h5q0 -39 -9 -71q-9 -33 -25 -54z" />
    <glyph glyph-name="Edotaccent" unicode="&#x116;" horiz-adv-x="654" 
d="M645 227l-37 -231h-591v16l23 3q6 1 16 3q12 5 17 9q7 5 8 12q1 6 3 15q1 6 1 25v536v24q0 6 -2 14q-3 10 -9 14q-6 5 -18 9q-10 2 -16 3q-10 2 -22 3v16h586l5 -199h-12q-18 43 -36 75q-19 33 -37 51q-26 27 -57 39t-75 12h-86v-310h83q26 0 45 8t29 24q9 14 15 33
q5 16 10 51h14v-246h-14q-5 35 -10 51q-6 19 -15 33q-10 16 -29 24t-45 8h-83v-265q0 -18 5 -33q5 -14 15 -21q8 -7 23 -10q13 -3 36 -3h22q39 0 75 17q34 17 66 51q20 24 42 59q18 28 43 80h12zM418 764v-4q-14 -14 -33 -21q-18 -7 -42 -7t-42 7q-19 7 -33 21
q-16 14 -23 33q-8 21 -8 40t8 40q7 19 23 33q14 14 33 21q18 7 42 7t42 -7q19 -7 33 -21q15 -14 23 -32q8 -19 8 -39t-8 -39q-8 -18 -23 -32z" />
    <glyph glyph-name="edotaccent" unicode="&#x117;" horiz-adv-x="531" 
d="M515 190h2q-8 -46 -28 -82q-21 -38 -54 -63q-31 -25 -72 -39q-39 -13 -87 -13q-55 0 -106 20q-49 19 -85 57q-36 36 -54 86t-18 108q0 38 9 74t27 69q17 33 42 60q27 28 57 47q31 19 68 30q38 11 73 11q50 0 92 -15q43 -15 72 -43q31 -29 47 -69q17 -42 17 -89v-6h-320
q1 -45 12 -81q10 -35 29 -63q23 -32 55 -48t75 -16q45 0 84 17q38 16 63 48zM332 460l3 -2q-7 39 -23 59q-15 20 -36 20q-22 0 -39 -20q-17 -19 -27 -57q-6 -23 -9 -49q-2 -19 -4 -58h145q0 32 -3 59q-4 32 -7 48zM361 617v-4q-13 -13 -33 -21q-18 -7 -42 -7t-42 7
q-20 8 -33 21q-16 14 -23 33q-8 21 -8 40t8 40q7 19 23 33q13 13 33 21q18 7 42 7t42 -7q20 -8 33 -21q15 -14 23 -32q8 -19 8 -39t-8 -39q-8 -18 -23 -32z" />
    <glyph glyph-name="Eogonek" unicode="&#x118;" horiz-adv-x="654" 
d="M645 227l-39 -231h-138q-31 -20 -44 -43q-14 -25 -14 -52q0 -11 3 -22q3 -10 11 -18q7 -7 17 -12q8 -4 21 -4q19 0 34 6q16 6 27 19l4 -5q-27 -43 -60 -66q-32 -22 -70 -22q-19 0 -36 6q-15 6 -30 17q-13 12 -21 27q-7 14 -7 35q0 25 13 45q14 22 39 41q20 15 42 26
q19 9 53 22h-433v16l23 3q6 1 16 3q12 5 17 9q7 5 8 12q1 6 3 15q1 6 1 25v536v24q0 6 -2 14q-3 10 -9 14q-6 5 -18 9q-10 2 -16 3q-10 2 -22 3v16h586l5 -199h-12q-18 43 -36 75q-19 33 -37 51q-26 27 -57 39t-75 12h-86v-310h83q26 0 45 8t29 24q9 14 15 33q5 16 10 51h14
v-246h-14q-5 35 -10 51q-6 19 -15 33q-10 16 -29 24t-45 8h-83v-265q0 -18 5 -33q5 -14 15 -21q8 -7 23 -10q13 -3 36 -3h22q39 0 75 17q34 17 66 51q20 24 42 59q18 28 43 80h12z" />
    <glyph glyph-name="eogonek" unicode="&#x119;" horiz-adv-x="531" 
d="M422 -125v-4q-27 -43 -60 -66q-32 -22 -70 -22q-20 0 -36 6q-15 6 -30 17q-14 10 -21 27q-7 15 -7 36q0 22 11 44q10 20 33 40q17 14 38 26q20 12 47 21q-7 -1 -26 -3q-24 -2 -27 -2q-55 0 -106 20q-49 19 -85 57q-36 36 -54 86t-18 108q0 38 9 74t27 69q17 33 42 60
q27 28 57 47q31 19 68 30q38 11 73 11q50 0 92 -15q43 -15 72 -43q31 -29 47 -69q17 -42 17 -89v-6h-320q1 -45 12 -81q10 -35 29 -63q23 -32 55 -48t75 -16q45 0 84 17q38 16 63 48l5 -2q-4 -30 -15 -57q-10 -26 -27 -49q-17 -24 -39 -41q-23 -19 -49 -30q-40 -23 -60 -48
q-19 -25 -19 -59q0 -12 3 -22t11 -18q7 -7 17 -12q8 -4 21 -4q19 0 34 6q16 6 27 19zM331 459l3 -2q-7 39 -23 59q-15 20 -36 20q-22 0 -39 -20q-16 -20 -27 -57q-6 -23 -9 -49q-2 -19 -4 -58h145q0 32 -3 59q-4 32 -7 48z" />
    <glyph glyph-name="Ecaron" unicode="&#x11a;" horiz-adv-x="654" 
d="M645 227l-37 -231h-591v16l23 3q6 1 16 3q12 5 17 9q7 5 8 12q1 6 3 15q1 6 1 25v536v24q0 6 -2 14q-3 10 -9 14q-6 5 -18 9q-10 2 -16 3q-10 2 -22 3v16h586l5 -199h-12q-18 43 -36 75q-19 33 -37 51q-26 27 -57 39t-75 12h-86v-310h83q26 0 45 8t29 24q9 14 15 33
q5 16 10 51h14v-246h-14q-5 35 -10 51q-6 19 -15 33q-10 16 -29 24t-45 8h-83v-265q0 -18 5 -33q5 -14 15 -21q8 -7 23 -10q13 -3 36 -3h22q39 0 75 17q34 17 66 51q20 24 42 59q18 28 43 80h12zM530 886l-118 -149h-136l-118 149h6l180 -65l180 65h6z" />
    <glyph glyph-name="ecaron" unicode="&#x11b;" horiz-adv-x="531" 
d="M515 190h2q-8 -46 -28 -82q-21 -38 -54 -63q-31 -25 -72 -39q-39 -13 -87 -13q-55 0 -106 20q-49 19 -85 57q-36 36 -54 86t-18 108q0 38 9 74t27 69q17 33 42 60q27 28 57 47q31 19 68 30q38 11 73 11q50 0 92 -15q43 -15 72 -43q31 -29 47 -69q17 -42 17 -89v-6h-320
q1 -45 12 -81q10 -35 29 -63q23 -32 55 -48t75 -16q45 0 84 17q38 16 63 48zM332 460l3 -2q-7 39 -23 59q-15 20 -36 20q-22 0 -39 -20q-17 -19 -27 -57q-6 -23 -9 -49q-2 -19 -4 -58h145q0 32 -3 59q-4 32 -7 48zM473 772l-118 -179h-136l-118 179h6l180 -90l180 90h6z" />
    <glyph glyph-name="Gcircumflex" unicode="&#x11c;" horiz-adv-x="742" 
d="M464 13l-10 237v24q0 6 -2 14q-3 10 -9 14t-18 9q-10 2 -16 3q-10 2 -22 3v16h342v-16l-23 -3q-6 -1 -16 -3q-12 -5 -17 -9q-7 -5 -8 -12q-1 -6 -3 -15q-1 -6 -1 -25v-195q-26 -17 -58 -30q-31 -13 -70 -22q-32 -7 -68 -12q-31 -4 -69 -4q-52 0 -100 9q-47 9 -88 27
q-46 19 -82 51q-35 31 -61 72q-24 40 -36 87t-12 99q0 53 14 104q13 50 39 93q26 42 65 78t84 59q47 23 96 35q51 12 105 12q62 0 117 -15q57 -15 99 -43l4 -181h-10q-9 40 -27 78q-20 41 -40 68q-30 37 -65 57t-71 20q-51 0 -90 -33q-38 -32 -61 -96q-14 -38 -22 -93
q-7 -49 -7 -114q0 -38 3 -74q3 -37 9 -68q8 -44 19 -75q13 -36 28 -60q22 -38 51 -57q28 -19 63 -19q18 0 24 1q14 2 20 4zM349 889h136l118 -149h-6l-180 65l-180 -65h-6z" />
    <glyph glyph-name="gcircumflex" unicode="&#x11d;" horiz-adv-x="553" 
d="M423 240l-3 1q-33 -21 -76 -33q-44 -12 -91 -12q-28 0 -61 5q-29 4 -55 15q-13 -10 -21 -24q-7 -13 -7 -25q0 -6 3 -12q3 -7 7 -9q5 -5 10 -6q4 -1 13 -1h228q94 0 142 -36t48 -107q0 -38 -13 -70q-13 -33 -39 -60q-24 -24 -54 -41q-32 -18 -70 -30q-34 -10 -68 -14
q-40 -5 -75 -5q-36 0 -78 5q-37 5 -69 12q-51 13 -78 36t-27 53q0 17 11 33t30 26q18 10 36 14q22 5 39 5q-48 20 -72 48t-24 66q0 26 9 48q9 23 28 42q15 16 36 30q20 13 47 24q-25 10 -45 24t-33 30q-17 20 -24 42q-8 24 -8 48q0 45 21 81q21 37 60 62q33 21 76 33
q44 12 91 12q21 0 44 -3q25 -3 45 -10l190 12v-76h-7l-106 27q35 -25 53 -54q18 -30 18 -63q0 -45 -21 -81q-21 -37 -60 -62zM210 291l-3 4q7 -40 21 -61t32 -21t30 15q13 16 17 48q2 18 3 37q2 28 2 49q0 20 -2 54q-2 26 -6 47q-8 40 -21 59q-14 20 -31 20q-18 0 -29 -15
q-11 -16 -17 -46q-2 -18 -3 -37q-1 -14 -1 -48q0 -21 2 -57q2 -27 6 -48zM424 -98l-3 -1q0 30 -18 45t-55 15h-243q-11 -8 -15 -19t-4 -31q0 -28 15 -52q14 -23 44 -40q23 -12 51 -18t60 -6t59 6q30 7 50 16q29 14 44 35t15 50zM188 776h136l118 -179h-6l-180 90l-180 -90
h-6z" />
    <glyph glyph-name="Gbreve" unicode="&#x11e;" horiz-adv-x="742" 
d="M464 13l-10 237v24q0 6 -2 14q-3 10 -9 14t-18 9q-10 2 -16 3q-10 2 -22 3v16h342v-16l-23 -3q-6 -1 -16 -3q-12 -5 -17 -9q-7 -5 -8 -12q-1 -6 -3 -15q-1 -6 -1 -25v-195q-26 -17 -58 -30q-31 -13 -70 -22q-32 -7 -68 -12q-31 -4 -69 -4q-52 0 -100 9q-47 9 -88 27
q-46 19 -82 51q-35 31 -61 72q-24 40 -36 87t-12 99q0 53 14 104q13 50 39 93q26 42 65 78t84 59q47 23 96 35q51 12 105 12q62 0 117 -15q57 -15 99 -43l4 -181h-10q-9 40 -27 78q-20 41 -40 68q-30 37 -65 57t-71 20q-51 0 -90 -33q-38 -32 -61 -96q-14 -38 -22 -93
q-7 -49 -7 -114q0 -38 3 -74q3 -37 9 -68q8 -44 19 -75q13 -36 28 -60q22 -38 51 -57q28 -19 63 -19q18 0 24 1q14 2 20 4zM530 787h2q-21 -23 -50 -35q-28 -12 -63 -12t-63 12q-29 12 -50 35q-22 23 -32 53q-11 31 -11 63h4q8 -17 24 -29q17 -13 41 -20q18 -6 40 -9t46 -3
t46 3t40 9q24 7 41 20q16 12 24 29h4q0 -32 -11 -63q-10 -30 -32 -53z" />
    <glyph glyph-name="gbreve" unicode="&#x11f;" horiz-adv-x="553" 
d="M423 240l-3 1q-33 -21 -76 -33q-44 -12 -91 -12q-28 0 -61 5q-29 4 -55 15q-13 -10 -21 -24q-7 -13 -7 -25q0 -6 3 -12q3 -7 7 -9q5 -5 10 -6q4 -1 13 -1h228q94 0 142 -36t48 -107q0 -38 -13 -70q-13 -33 -39 -60q-24 -24 -54 -41q-32 -18 -70 -30q-34 -10 -68 -14
q-40 -5 -75 -5q-36 0 -78 5q-37 5 -69 12q-51 13 -78 36t-27 53q0 17 11 33t30 26q18 10 36 14q22 5 39 5q-48 20 -72 48t-24 66q0 26 9 48q9 23 28 42q15 16 36 30q20 13 47 24q-25 10 -45 24t-33 30q-17 20 -24 42q-8 24 -8 48q0 45 21 81q21 37 60 62q33 21 76 33
q44 12 91 12q21 0 44 -3q25 -3 45 -10l190 12v-76h-7l-106 27q35 -25 53 -54q18 -30 18 -63q0 -45 -21 -81q-21 -37 -60 -62zM210 291l-3 4q7 -40 21 -61t32 -21t30 15q13 16 17 48q2 18 3 37q2 28 2 49q0 20 -2 54q-2 26 -6 47q-8 40 -21 59q-14 20 -31 20q-18 0 -29 -15
q-11 -16 -17 -46q-2 -18 -3 -37q-1 -14 -1 -48q0 -21 2 -57q2 -27 6 -48zM424 -98l-3 -1q0 30 -18 45t-55 15h-243q-11 -8 -15 -19t-4 -31q0 -28 15 -52q14 -23 44 -40q23 -12 51 -18t60 -6t59 6q30 7 50 16q29 14 44 35t15 50zM365 650l-4 -1q-19 -25 -48 -39
q-27 -13 -66 -13q-36 0 -66 14q-29 13 -48 39q-16 21 -25 54q-9 32 -9 71h5q13 -38 50 -58q35 -19 95 -19t95 19q37 20 50 58h5q0 -39 -9 -71q-9 -33 -25 -54z" />
    <glyph glyph-name="Gdotaccent" unicode="&#x120;" horiz-adv-x="742" 
d="M464 13l-10 237v24q0 6 -2 14q-3 10 -9 14t-18 9q-10 2 -16 3q-10 2 -22 3v16h342v-16l-23 -3q-6 -1 -16 -3q-12 -5 -17 -9q-7 -5 -8 -12q-1 -6 -3 -15q-1 -6 -1 -25v-195q-26 -17 -58 -30q-31 -13 -70 -22q-32 -7 -68 -12q-31 -4 -69 -4q-52 0 -100 9q-47 9 -88 27
q-46 19 -82 51q-35 31 -61 72q-24 40 -36 87t-12 99q0 53 14 104q13 50 39 93q26 42 65 78t84 59q47 23 96 35q51 12 105 12q62 0 117 -15q57 -15 99 -43l4 -181h-10q-9 40 -27 78q-20 41 -40 68q-30 37 -65 57t-71 20q-51 0 -90 -33q-38 -32 -61 -96q-14 -38 -22 -93
q-7 -49 -7 -114q0 -38 3 -74q3 -37 9 -68q8 -44 19 -75q13 -36 28 -60q22 -38 51 -57q28 -19 63 -19q18 0 24 1q14 2 20 4zM491 767v-4q-13 -13 -33 -21q-18 -7 -42 -7t-42 7q-20 8 -33 21q-16 14 -23 33q-8 21 -8 40t8 40q7 19 23 33q13 13 33 21q18 7 42 7t42 -7
q20 -8 33 -21q15 -14 23 -32q8 -19 8 -39t-8 -39q-8 -18 -23 -32z" />
    <glyph glyph-name="gdotaccent" unicode="&#x121;" horiz-adv-x="553" 
d="M423 240l-3 1q-33 -21 -76 -33q-44 -12 -91 -12q-28 0 -61 5q-29 4 -55 15q-13 -10 -21 -24q-7 -13 -7 -25q0 -6 3 -12q3 -7 7 -9q5 -5 10 -6q4 -1 13 -1h228q94 0 142 -36t48 -107q0 -38 -13 -70q-13 -33 -39 -60q-24 -24 -54 -41q-32 -18 -70 -30q-34 -10 -68 -14
q-40 -5 -75 -5q-36 0 -78 5q-37 5 -69 12q-51 13 -78 36t-27 53q0 17 11 33t30 26q18 10 36 14q22 5 39 5q-48 20 -72 48t-24 66q0 26 9 48q9 23 28 42q15 16 36 30q20 13 47 24q-25 10 -45 24t-33 30q-17 20 -24 42q-8 24 -8 48q0 45 21 81q21 37 60 62q33 21 76 33
q44 12 91 12q21 0 44 -3q25 -3 45 -10l190 12v-76h-7l-106 27q35 -25 53 -54q18 -30 18 -63q0 -45 -21 -81q-21 -37 -60 -62zM210 291l-3 4q7 -40 21 -61t32 -21t30 15q13 16 17 48q2 18 3 37q2 28 2 49q0 20 -2 54q-2 26 -6 47q-8 40 -21 59q-14 20 -31 20q-18 0 -29 -15
q-11 -16 -17 -46q-2 -18 -3 -37q-1 -14 -1 -48q0 -21 2 -57q2 -27 6 -48zM424 -98l-3 -1q0 30 -18 45t-55 15h-243q-11 -8 -15 -19t-4 -31q0 -28 15 -52q14 -23 44 -40q23 -12 51 -18t60 -6t59 6q30 7 50 16q29 14 44 35t15 50zM324 621v-4q-14 -13 -33 -21q-18 -7 -42 -7
t-42 7q-19 8 -33 21q-16 14 -23 33q-8 21 -8 40t8 40q7 19 23 33q14 13 33 21q18 7 42 7t42 -7q19 -8 33 -21q15 -14 23 -32q8 -19 8 -39t-8 -39q-8 -18 -23 -32z" />
    <glyph glyph-name="Gcommaaccent" unicode="&#x122;" horiz-adv-x="742" 
d="M464 13l-10 237v24q0 6 -2 14q-3 10 -9 14t-18 9q-10 2 -16 3q-10 2 -22 3v16h342v-16l-23 -3q-6 -1 -16 -3q-12 -5 -17 -9q-7 -5 -8 -12q-1 -6 -3 -15q-1 -6 -1 -25v-195q-26 -17 -58 -30q-31 -13 -70 -22q-32 -7 -68 -12q-31 -4 -69 -4q-52 0 -100 9q-47 9 -88 27
q-46 19 -82 51q-35 31 -61 72q-24 40 -36 87t-12 99q0 53 14 104q13 50 39 93q26 42 65 78t84 59q47 23 96 35q51 12 105 12q62 0 117 -15q57 -15 99 -43l4 -181h-10q-9 40 -27 78q-20 41 -40 68q-30 37 -65 57t-71 20q-51 0 -90 -33q-38 -32 -61 -96q-14 -38 -22 -93
q-7 -49 -7 -114q0 -38 3 -74q3 -37 9 -68q8 -44 19 -75q13 -36 28 -60q22 -38 51 -57q28 -19 63 -19q18 0 24 1q14 2 20 4zM414 -200l-1 -3q7 11 12 21q4 10 6 20h-66q-17 7 -28 23q-10 14 -10 33q0 16 7 29q8 14 21 23q11 10 26 14q17 5 32 5q19 0 36 -6t30 -18t21 -29
q7 -15 7 -36q0 -28 -15 -54q-15 -25 -43 -43q-23 -13 -51 -21q-27 -7 -63 -7v8q10 1 23 5q10 3 21 9q9 4 19 12q6 5 16 15z" />
    <glyph glyph-name="gcommaaccent" unicode="&#x123;" horiz-adv-x="553" 
d="M423 240l-3 1q-33 -21 -76 -33q-44 -12 -91 -12q-28 0 -61 5q-29 4 -55 15q-13 -10 -21 -24q-7 -13 -7 -25q0 -6 3 -12q3 -7 7 -9q5 -5 10 -6q4 -1 13 -1h228q94 0 142 -36t48 -107q0 -38 -13 -70q-13 -33 -39 -60q-24 -24 -54 -41q-32 -18 -70 -30q-34 -10 -68 -14
q-40 -5 -75 -5q-36 0 -78 5q-37 5 -69 12q-51 13 -78 36t-27 53q0 17 11 33t30 26q18 10 36 14q22 5 39 5q-48 20 -72 48t-24 66q0 26 9 48q9 23 28 42q15 16 36 30q20 13 47 24q-25 10 -45 24t-33 30q-17 20 -24 42q-8 24 -8 48q0 45 21 81q21 37 60 62q33 21 76 33
q44 12 91 12q21 0 44 -3q25 -3 45 -10l190 12v-76h-7l-106 27q35 -25 53 -54q18 -30 18 -63q0 -45 -21 -81q-21 -37 -60 -62zM210 291l-3 4q7 -40 21 -61t32 -21t30 15q13 16 17 48q2 18 3 37q2 28 2 49q0 20 -2 54q-2 26 -6 47q-8 40 -21 59q-14 20 -31 20q-18 0 -29 -15
q-11 -16 -17 -46q-2 -18 -3 -37q-1 -14 -1 -48q0 -21 2 -57q2 -27 6 -48zM424 -98l-3 -1q0 30 -18 45t-55 15h-243q-11 -8 -15 -19t-4 -31q0 -28 15 -52q14 -23 44 -40q23 -12 51 -18t60 -6t59 6q30 7 50 16q29 14 44 35t15 50zM252 760v-1q-8 -11 -12 -21t-6 -20h66
q17 -7 28 -23q10 -14 10 -33q0 -16 -7 -29q-8 -14 -21 -23q-9 -8 -26 -13q-13 -4 -32 -4q-20 0 -36 6t-30 18q-13 12 -21 29q-7 15 -7 36q0 28 15 54q16 27 43 44q22 14 51 21q30 8 63 8v-8q-8 -1 -22 -5q-10 -3 -21 -9q-9 -4 -19 -12q-6 -5 -16 -15z" />
    <glyph glyph-name="Hcircumflex" unicode="&#x124;" horiz-adv-x="850" 
d="M313 658q-1 -6 -3 -15q-1 -6 -1 -25v-249h232v249v24q0 6 -2 14q-3 10 -9 14t-18 9q-10 2 -16 3q-10 2 -22 3v16h357v-16l-23 -3q-6 -1 -16 -3q-12 -5 -17 -9q-7 -5 -8 -12q-1 -6 -3 -15q-1 -6 -1 -25v-536v-24q0 -6 2 -14q3 -10 9 -14t18 -9q10 -2 16 -3q10 -2 22 -3
v-16h-357v16l23 3q6 1 16 3q12 5 17 9q7 5 8 12q1 6 3 15q1 6 1 25v265h-232v-265v-24q0 -6 2 -14q3 -10 9 -14t18 -9q10 -2 16 -3q10 -2 22 -3v-16h-357v16l23 3q6 1 16 3q12 5 17 9q7 5 8 12q1 6 3 15q1 6 1 25v536v24q0 6 -2 14q-3 10 -9 14t-18 9q-10 2 -16 3
q-10 2 -22 3v16h357v-16l-23 -3q-6 -1 -16 -3q-12 -5 -17 -9q-7 -5 -8 -12zM362 890h136l118 -149h-6l-180 65l-180 -65h-6z" />
    <glyph glyph-name="hcircumflex" unicode="&#x125;" horiz-adv-x="669" 
d="M388 20l3 -1q7 5 12 12q4 7 4 19v331q0 33 -16 49t-49 16q-18 0 -34 -3q-18 -3 -37 -10v-383q0 -12 4 -19q5 -7 12 -12q5 -1 12 -3t24 -3v-14h-312v14q17 1 24 3t12 3q7 5 12 12q4 7 4 19v608l-53 61v4l255 60h4v-343q13 20 35 42q19 19 47 37q29 18 54 26q27 9 54 9
q37 0 65 -12q29 -12 48 -34q20 -21 30 -51q10 -29 10 -67v-339q0 -12 4 -19q4 -8 12 -12q4 -2 12 -3l24 -3v-14h-312v14l24 3t12 3zM280 951h136l118 -149h-6l-180 65l-180 -65h-6z" />
    <glyph glyph-name="Hbar" unicode="&#x126;" horiz-adv-x="870" 
d="M100 498h-64v22h64v99v24q0 6 -2 14q-3 10 -9 14q-6 5 -18 9q-10 2 -16 3q-10 2 -22 3v16h357v-16l-23 -3q-6 -1 -16 -3q-12 -5 -17 -9q-7 -5 -8 -12q-2 -6 -3 -15q-1 -6 -1 -25v-99h232v99v24q0 6 -2 14q-3 10 -9 14q-6 5 -18 9q-10 2 -16 3q-10 2 -22 3v16h357v-16
l-23 -3q-6 -1 -16 -3q-12 -5 -17 -9q-7 -5 -8 -12q-2 -6 -3 -15q-1 -6 -1 -25v-99h64v-22h-64v-415v-24q0 -6 2 -14q3 -10 9 -14q6 -5 18 -9q10 -2 16 -3q10 -2 22 -3v-16h-357v16l23 3q6 1 16 3q12 5 17 9q7 5 8 12q2 6 3 15q1 6 1 25v265h-232v-265v-24q0 -6 2 -14
q3 -10 9 -14q6 -5 18 -9q10 -2 16 -3q10 -2 22 -3v-16h-357v16l23 3q6 1 16 3q12 5 17 9q7 5 8 12q2 6 3 15q1 6 1 25v415zM319 498v-128h232v128h-232z" />
    <glyph glyph-name="hbar" unicode="&#x127;" horiz-adv-x="680" 
d="M388 20l3 -1q7 5 12 12q4 7 4 19v331q0 33 -16 49t-49 16q-18 0 -34 -3q-18 -3 -37 -10v-383q0 -12 4 -19q5 -7 12 -12q5 -1 12 -3t24 -3v-14h-312v14q17 1 24 3t12 3q7 5 12 12q4 7 4 19v551h-42v22h42v35l-53 61v4l255 60h4v-160h108v-22h-108v-161q13 20 35 42
q19 19 47 37q29 18 54 26q27 9 54 9q37 0 65 -12q29 -12 48 -34q20 -21 30 -51q10 -29 10 -67v-339q0 -12 4 -19q4 -8 12 -12q4 -2 12 -3l24 -3v-14h-312v14l24 3t12 3z" />
    <glyph glyph-name="Itilde" unicode="&#x128;" horiz-adv-x="399" 
d="M313 658q-1 -6 -3 -15q-1 -6 -1 -25v-536v-24q0 -6 2 -14q3 -10 9 -14t18 -9q10 -2 16 -3q10 -2 22 -3v-16h-357v16l23 3q6 1 16 3q12 5 17 9q7 5 8 12q1 6 3 15q1 6 1 25v536v24q0 6 -2 14q-3 10 -9 14t-18 9q-10 2 -16 3q-10 2 -22 3v16h357v-16l-23 -3q-6 -1 -16 -3
q-12 -5 -17 -9q-7 -5 -8 -12zM381 907l6 -5q-5 -31 -12 -56q-8 -27 -18 -47q-17 -30 -37 -44q-21 -15 -45 -15q-7 0 -21 2q-10 2 -21 6q-5 2 -15 8l-23 14l-18 12t-11 6q-9 4 -18 6q-12 2 -16 2q-25 0 -46 -15t-36 -42l-8 3q5 31 12 56q8 27 18 47q17 29 38 44t45 15
q7 0 21 -2q10 -2 21 -6q10 -4 15 -7q2 -1 9.5 -5.5t13.5 -7.5l18 -12t11 -6q9 -4 18 -6q12 -2 17 -2q25 0 46 15t36 42z" />
    <glyph glyph-name="itilde" unicode="&#x129;" horiz-adv-x="334" 
d="M268 553h6v-503q0 -12 4 -19t12 -12l12 -3t24 -3v-14h-312v14q16 1 24 3l12 3q8 5 12 12t4 19v378l-53 61v4zM339 768l6 -5q-5 -31 -12 -56q-8 -27 -18 -47q-17 -30 -37 -44q-21 -15 -45 -15q-7 0 -21 2q-10 1 -21 6q-5 2 -15 8l-23 14q-12 7 -18 12q-6 4 -11 6
q-9 5 -18 6q-12 2 -16 2q-25 0 -46 -15t-36 -42l-8 3q5 31 12 56q8 27 18 47q17 29 38 44t45 15q7 0 21 -2q10 -1 21 -6q10 -4 15 -7q2 -1 9.5 -5.5t13.5 -7.5q12 -7 18 -12q6 -4 11 -6q9 -5 18 -6q12 -2 17 -2q25 0 46 15t36 42z" />
    <glyph glyph-name="Imacron" unicode="&#x12a;" horiz-adv-x="399" 
d="M313 658q-1 -6 -3 -15q-1 -6 -1 -25v-536v-24q0 -6 2 -14q3 -10 9 -14t18 -9q10 -2 16 -3q10 -2 22 -3v-16h-357v16l23 3q6 1 16 3q12 5 17 9q7 5 8 12q1 6 3 15q1 6 1 25v536v24q0 6 -2 14q-3 10 -9 14t-18 9q-10 2 -16 3q-10 2 -22 3v16h357v-16l-23 -3q-6 -1 -16 -3
q-12 -5 -17 -9q-7 -5 -8 -12zM354 764h-314v51h314v-51z" />
    <glyph glyph-name="imacron" unicode="&#x12b;" horiz-adv-x="334" 
d="M268 553h6v-503q0 -12 4 -19t12 -12l12 -3t24 -3v-14h-312v14q16 1 24 3l12 3q8 5 12 12t4 19v378l-53 61v4zM324 634h-294v51h294v-51z" />
    <glyph glyph-name="Ibreve" unicode="&#x12c;" horiz-adv-x="399" 
d="M313 658q-1 -6 -3 -15q-1 -6 -1 -25v-536v-24q0 -6 2 -14q3 -10 9 -14t18 -9q10 -2 16 -3q10 -2 22 -3v-16h-357v16l23 3q6 1 16 3q12 5 17 9q7 5 8 12q1 6 3 15q1 6 1 25v536v24q0 6 -2 14q-3 10 -9 14t-18 9q-10 2 -16 3q-10 2 -22 3v16h357v-16l-23 -3q-6 -1 -16 -3
q-12 -5 -17 -9q-7 -5 -8 -12zM317 788h2q-21 -23 -50 -35t-63 -12t-63 12t-50 35q-22 23 -32 53q-11 31 -11 63h4q8 -17 24 -29q17 -13 41 -20q18 -6 40 -9q23 -3 46 -3t46 3q22 3 40 9q24 7 41 20q16 12 24 29h4q0 -32 -11 -63q-10 -30 -32 -53z" />
    <glyph glyph-name="ibreve" unicode="&#x12d;" horiz-adv-x="334" 
d="M268 553h6v-503q0 -12 4 -19t12 -12l12 -3t24 -3v-14h-312v14q16 1 24 3l12 3q8 5 12 12t4 19v378l-53 61v4zM299 646l-4 -1q-19 -25 -48 -39q-27 -13 -66 -13q-36 0 -66 14q-29 13 -48 39q-16 21 -25 54q-9 32 -9 71h5q13 -38 50 -58q35 -19 95 -19t95 19q37 20 50 58h5
q0 -39 -9 -71q-9 -33 -25 -54z" />
    <glyph glyph-name="Iogonek" unicode="&#x12e;" horiz-adv-x="399" 
d="M313 658h-2q-1 -6 -3 -15q-1 -6 -1 -25v-536v-24q0 -6 2 -14q3 -10 9 -14t18 -9q10 -2 16 -3q10 -2 22 -3v-16h-124q-31 -20 -44 -43q-14 -25 -14 -52q0 -12 3 -22t11 -18q7 -7 17 -12q8 -4 21 -4q19 0 34 6q16 6 27 19l4 -5q-27 -44 -60 -66q-32 -22 -70 -22
q-19 0 -36 6q-15 6 -30 17q-13 12 -21 27q-7 14 -7 35q0 25 13 45q14 22 39 41q20 15 42 26q19 9 53 22h-213v16l23 3q6 1 16 3q12 5 17 9q7 5 8 12q1 6 3 15q1 6 1 25v536v24q0 6 -2 14q-3 10 -9 14t-18 9q-10 2 -16 3q-10 2 -22 3v16h357v-16l-23 -3q-6 -1 -16 -3
q-12 -5 -17 -9q-7 -5 -8 -12z" />
    <glyph glyph-name="iogonek" unicode="&#x12f;" horiz-adv-x="334" 
d="M247 617v-4q-13 -13 -33 -21q-18 -7 -42 -7t-42 7q-20 8 -33 21q-16 14 -23 33q-8 21 -8 40t8 40q7 19 23 33q13 13 33 21q18 7 42 7t42 -7q20 -8 33 -21q15 -14 23 -32q8 -19 8 -39t-8 -39q-8 -18 -23 -32zM268 549h4v-503q0 -12 4 -19t12 -12l12 -3t24 -3v-14h-97
q-31 -20 -44 -43q-14 -25 -14 -52q0 -12 3 -22t11 -18q7 -7 17 -12q8 -4 21 -4q19 0 34 6q16 6 27 19l4 -5q-27 -44 -60 -66q-32 -22 -70 -22q-20 0 -36 6q-15 6 -30 17q-14 12 -21 27q-7 14 -7 35q0 25 13 45q14 22 39 41q20 15 42 26q19 9 53 22h-195v14q16 1 24 3l12 3
q8 5 12 12t4 19v378l-53 61v4z" />
    <glyph glyph-name="Idotaccent" unicode="&#x130;" horiz-adv-x="399" 
d="M313 658q-1 -6 -3 -15q-1 -6 -1 -25v-536v-24q0 -6 2 -14q3 -10 9 -14t18 -9q10 -2 16 -3q10 -2 22 -3v-16h-357v16l23 3q6 1 16 3q12 5 17 9q7 5 8 12q1 6 3 15q1 6 1 25v536v24q0 6 -2 14q-3 10 -9 14t-18 9q-10 2 -16 3q-10 2 -22 3v16h357v-16l-23 -3q-6 -1 -16 -3
q-12 -5 -17 -9q-7 -5 -8 -12zM278 768v-4q-14 -14 -33 -21q-18 -7 -42 -7t-42 7q-19 7 -33 21q-16 14 -23 33q-8 21 -8 40t8 40q7 19 23 33q14 14 33 21q18 7 42 7t42 -7q19 -7 33 -21q15 -14 23 -32q8 -19 8 -39t-8 -39q-8 -18 -23 -32z" />
    <glyph glyph-name="dotlessi" unicode="&#x131;" horiz-adv-x="334" 
d="M268 553h6v-503q0 -12 4 -19t12 -12l12 -3t24 -3v-14h-312v14q16 1 24 3l12 3q8 5 12 12t4 19v378l-53 61v4z" />
    <glyph glyph-name="IJ" unicode="&#x132;" horiz-adv-x="985" 
d="M313 658q-1 -6 -3 -15q-1 -6 -1 -25v-536v-24q0 -6 2 -14q3 -10 9 -14t18 -9q10 -2 16 -3q10 -2 22 -3v-16h-357v16l23 3q6 1 16 3q12 5 17 9q7 5 8 12q1 6 3 15q1 6 1 25v536v24q0 6 -2 14q-3 10 -9 14t-18 9q-10 2 -16 3q-10 2 -22 3v16h357v-16l-23 -3q-6 -1 -16 -3
q-12 -5 -17 -9q-7 -5 -8 -12zM686 163l-6 449v24q0 6 -2 14q-3 10 -9 14t-18 9q-10 2 -16 3q-10 2 -22 3v16h357v-16l-23 -3q-6 -1 -16 -3q-12 -5 -17 -9q-7 -5 -8 -12q-2 -6 -3 -15q-1 -6 -1 -25v-389q0 -61 -21 -108q-22 -48 -61 -77q-35 -26 -87 -40q-49 -13 -115 -13
q-45 0 -87 8q-36 7 -70 23q-42 20 -63 51t-21 74q0 16 4 29q5 15 12 27q7 13 18 24t22 18h139l-7 -49q-3 -23 -3 -46q0 -24 3 -45q3 -18 8 -38q8 -28 21 -41q14 -14 33 -14q23 0 36 15t18 48q2 12 4 37q1 14 1 57z" />
    <glyph glyph-name="ij" unicode="&#x133;" horiz-adv-x="618" 
d="M247 617v-4q-13 -13 -33 -21q-18 -7 -42 -7t-42 7q-20 8 -33 21q-16 14 -23 33q-8 21 -8 40t8 40q7 19 23 33q13 13 33 21q18 7 42 7t42 -7q20 -8 33 -21q15 -14 23 -32q8 -19 8 -39t-8 -39q-8 -18 -23 -32zM268 549h6v-503q0 -12 4 -19t12 -12l12 -3t24 -3v-14h-312v14
q16 1 24 3l12 3q8 5 12 12t4 19v378l-53 61v4zM554 613v-4q-14 -13 -33 -21q-18 -7 -42 -7t-42 7q-19 8 -33 21q-16 14 -23 33q-8 21 -8 40t8 40q7 19 23 33q14 13 33 21q18 7 42 7t42 -7q19 -8 33 -21q15 -14 23 -32q8 -19 8 -39t-8 -39q-8 -18 -23 -32zM373 28l2 391
l-53 61v4l255 60h4v-492q0 -57 -21 -105q-21 -47 -63 -85q-35 -31 -82 -54q-48 -24 -108 -39l-2 4q12 13 21 27q11 16 17 30q7 14 12 30l9 33q4 19 5 32q1 17 3 36q1 7 1 24v43z" />
    <glyph glyph-name="Jcircumflex" unicode="&#x134;" horiz-adv-x="596" 
d="M297 163l-6 449v24q0 6 -2 14q-3 10 -9 14t-18 9q-10 2 -16 3q-10 2 -22 3v16h357v-16l-23 -3q-6 -1 -16 -3q-12 -5 -17 -9q-7 -5 -8 -12q-1 -6 -3 -15q-1 -6 -1 -25v-389q0 -61 -21 -108q-22 -48 -61 -77q-35 -26 -87 -40q-49 -13 -115 -13q-45 0 -87 8q-36 7 -70 23
q-42 20 -63 51q-21 32 -21 74q0 16 4 29q4 15 12 27q8 13 18 24q11 11 22 18h139l-7 -49q-3 -23 -3 -46q0 -24 3 -45q3 -18 8 -38q8 -28 21 -41q14 -14 33 -14q22 0 36 15t18 48q2 12 4 37q1 14 1 57zM338 883h136l118 -149h-6l-180 65l-180 -65h-6z" />
    <glyph glyph-name="jcircumflex" unicode="&#x135;" horiz-adv-x="297" 
d="M50 36l-2 392l-53 61v4l255 60h4v-492q0 -57 -21 -105q-21 -46 -63 -84q-34 -32 -81 -54q-50 -23 -107 -38l-2 4q2 2 5.5 6.5t5.5 6.5q6 8 9 13l9 15l9 15q6 10 8 15q4 10 5 15l9 33l3 15l3 15q2 17 3 36q1 3 1 11v13v43zM91 772h124l107 -177h-5l-164 89l-164 -89h-6z
" />
    <glyph glyph-name="Kcommaaccent" unicode="&#x136;" horiz-adv-x="791" 
d="M403 193l-84 147l255 265q13 13 19 25t6 22q0 9 -6 15q-5 5 -19 10q-6 1 -15 3t-21 3q-10 2 -17 2q-6 0 -20 2v16h252v-16q-19 0 -36 -3t-31 -10q-14 -8 -27 -18q-12 -9 -28 -27l-152 -158l216 -345l29 -44q2 -3 17 -24q17 -20 33 -30t33 -12v-16h-271q-18 15 -52 64
q-34 50 -81 129zM315 658q-1 -6 -3 -15q-1 -6 -1 -25v-536v-24q0 -6 2 -14q3 -10 9 -14t18 -9q10 -2 16 -3q10 -2 22 -3v-16h-357v16l23 3q6 1 16 3q12 5 17 9q7 5 8 12q1 6 3 15q1 6 1 25v536v24q0 6 -2 14q-3 10 -9 14t-18 9q-10 2 -16 3q-10 2 -22 3v16h357v-16l-23 -3
q-6 -1 -16 -3q-12 -5 -17 -9q-7 -5 -8 -12zM408 -199l-1 -3q7 10 12 21q4 10 6 20h-66q-17 7 -28 23q-10 14 -10 33q0 16 7 29q8 14 21 23q11 10 26 14q17 5 32 5q19 0 36 -6t30 -18t21 -29q7 -15 7 -36q0 -29 -15 -54t-43 -43q-23 -14 -51 -21q-27 -7 -63 -7v8q10 1 23 5
q10 3 21 9q9 4 19 12q6 5 16 15z" />
    <glyph glyph-name="kcommaaccent" unicode="&#x137;" horiz-adv-x="648" 
d="M264 783h6v-733q0 -12 4 -19t12 -12l12 -3t24 -3v-14h-312v14q16 1 24 3l12 3q8 5 12 12t4 19v608l-53 61v4zM439 0l-159 270l152 147l15 15q12 12 15 16q11 11 15 19t4 18q0 11 -7 19q-8 9 -21 15q-7 3 -21 7q-9 2 -25 4v14h233v-14q-35 -3 -62 -16q-30 -14 -53 -36
l-93 -85l231 -389v-4h-224zM339 -202l-1 -3q8 11 12 21t6 20h-66q-17 7 -28 23q-10 14 -10 33q0 16 7 29q8 14 21 23q11 10 26 14q17 5 32 5q20 0 36 -6t30 -18q13 -12 21 -29q7 -15 7 -36q0 -28 -15 -54q-15 -25 -43 -43q-22 -13 -51 -21q-27 -7 -63 -7v8q10 1 23 5
q11 3 21 9q9 4 19 12q6 5 16 15z" />
    <glyph glyph-name="kgreenlandic" unicode="&#x138;" horiz-adv-x="652" 
d="M268 553h6v-503q0 -12 4 -19t12 -12l12 -3t24 -3v-14h-312v14q16 1 24 3l12 3q8 5 12 12t4 19v378l-53 61v4zM443 0l-159 270l152 147l15 15q12 12 15 16q11 11 15 19t4 18q0 11 -7 19q-8 9 -21 15q-7 3 -21 7q-9 2 -25 4v14h233v-14q-35 -3 -62 -16q-30 -14 -53 -36
l-93 -85l231 -389v-4h-224z" />
    <glyph glyph-name="Lacute" unicode="&#x139;" horiz-adv-x="648" 
d="M646 247l-42 -248h-587v16l23 3q6 1 16 3q12 5 17 9q7 5 8 12q1 6 3 15q1 6 1 25v536v24q0 6 -2 14q-3 10 -9 14t-18 9q-10 2 -16 3q-10 2 -22 3v16h357v-16l-23 -3q-6 -1 -16 -3q-12 -5 -17 -9q-7 -5 -8 -12q-1 -6 -3 -15q-1 -6 -1 -25v-532q0 -18 5 -33q4 -13 15 -21
q8 -7 23 -10q14 -3 36 -3h18q32 0 57 9q26 9 48 28q18 15 36 36q17 20 36 53q16 25 26 45q13 26 27 57h12zM203 889h237v-4l-260 -145h-4z" />
    <glyph glyph-name="lacute" unicode="&#x13a;" horiz-adv-x="330" 
d="M264 783h6v-733q0 -12 4 -19t12 -12l12 -3t24 -3v-14h-312v14q16 1 24 3l12 3q8 5 12 12t4 19v608l-53 61v4zM147 953h237v-4l-260 -145h-4z" />
    <glyph glyph-name="Lcommaaccent" unicode="&#x13b;" horiz-adv-x="648" 
d="M646 247l-42 -248h-587v16l23 3q6 1 16 3q12 5 17 9q7 5 8 12q1 6 3 15q1 6 1 25v536v24q0 6 -2 14q-3 10 -9 14t-18 9q-10 2 -16 3q-10 2 -22 3v16h357v-16l-23 -3q-6 -1 -16 -3q-12 -5 -17 -9q-7 -5 -8 -12q-1 -6 -3 -15q-1 -6 -1 -25v-532q0 -18 5 -33q4 -13 15 -21
q8 -7 23 -10q14 -3 36 -3h18q32 0 57 9q26 9 48 28q18 15 36 36q17 20 36 53q16 25 26 45q13 26 27 57h12zM331 -200l-1 -3q8 11 12 21t6 20h-66q-17 7 -28 23q-10 14 -10 33q0 16 7 29q8 14 21 23q11 10 26 14q17 5 32 5q20 0 36 -6t30 -18q13 -12 21 -29q7 -15 7 -36
q0 -28 -15 -54q-15 -25 -43 -43q-22 -13 -51 -21q-27 -7 -63 -7v8q10 1 23 5q11 3 21 9q9 4 19 12q6 5 16 15z" />
    <glyph glyph-name="lcommaaccent" unicode="&#x13c;" horiz-adv-x="330" 
d="M264 783h6v-733q0 -12 4 -19t12 -12l12 -3t24 -3v-14h-312v14q16 1 24 3l12 3q8 5 12 12t4 19v608l-53 61v4zM162 -199l-1 -3q7 10 12 21q4 10 6 20h-66q-17 7 -28 23q-10 14 -10 33q0 16 7 29q8 14 21 23q11 10 26 14q17 5 32 5q19 0 36 -6t30 -18t21 -29q7 -15 7 -36
q0 -29 -15 -54t-43 -43q-23 -14 -51 -21q-27 -7 -63 -7v8q10 1 23 5q10 3 21 9q9 4 19 12q6 5 16 15z" />
    <glyph glyph-name="Lcaron" unicode="&#x13d;" horiz-adv-x="648" 
d="M646 247l-42 -248h-587v16l23 3q6 1 16 3q12 5 17 9q7 5 8 12q1 6 3 15q1 6 1 25v536v24q0 6 -2 14q-3 10 -9 14t-18 9q-10 2 -16 3q-10 2 -22 3v16h357v-16l-23 -3q-6 -1 -16 -3q-12 -5 -17 -9q-7 -5 -8 -12q-1 -6 -3 -15q-1 -6 -1 -25v-532q0 -18 5 -33q4 -13 15 -21
q8 -7 23 -10q14 -3 36 -3h18q32 0 57 9q26 9 48 28q18 15 36 36q17 20 36 53q16 25 26 45q13 26 27 57h12zM599 701v-4l-158 -251h-8l11 255h155z" />
    <glyph glyph-name="lcaron" unicode="&#x13e;" horiz-adv-x="330" 
d="M264 783h6v-733q0 -12 4 -19t12 -12l12 -3t24 -3v-14h-312v14q16 1 24 3l12 3q8 5 12 12t4 19v608l-53 61v4zM476 772v-4l-158 -251h-8l11 255h155z" />
    <glyph glyph-name="Ldot" unicode="&#x13f;" horiz-adv-x="658" 
d="M471 334h2q-14 13 -22 33q-8 22 -8 41t8 41q7 19 21 34q13 13 33 22q22 8 41 8t41 -8q20 -9 33 -22q5 -5 13 -15q5 -6 10 -18q7 -17 7 -41t-7 -41t-24 -34q-13 -14 -33 -21q-17 -7 -41 -7t-41 7q-20 7 -33 21zM648 247l-42 -248h-587v16l23 3q6 1 16 3q12 5 17 9
q7 5 8 12q1 6 3 15q1 6 1 25v536v24q0 6 -2 14q-3 10 -9 14t-18 9q-10 2 -16 3q-10 2 -22 3v16h357v-16l-23 -3q-6 -1 -16 -3q-12 -5 -17 -9q-7 -5 -8 -12q-1 -6 -3 -15q-1 -6 -1 -25v-532q0 -18 5 -33q4 -13 15 -21q8 -7 23 -10q14 -3 36 -3h18q32 0 57 9q26 9 48 28
q18 15 36 36q17 20 36 53q16 25 26 45q13 26 27 57h12z" />
    <glyph glyph-name="ldot" unicode="&#x140;" horiz-adv-x="505" 
d="M264 783h4v-733q0 -12 4 -19q5 -7 12 -11q1 -1 5 -3q2 -1 8 -3q3 -1 10 -1q9 0 14 -1v-14h-312v14q5 1 14 1q7 0 10 1q6 2 8 3q4 2 5 3q7 4 12 11q4 7 4 19v608l-53 61v4zM339 315h2q-14 13 -22 33q-8 22 -8 41t8 41q7 19 21 34q13 13 33 22q22 8 41 8t41 -8
q20 -9 33 -22q5 -5 13 -15q5 -6 10 -18q7 -17 7 -41t-7 -41t-24 -34q-13 -13 -33 -21q-17 -7 -41 -7t-41 7q-20 8 -33 21z" />
    <glyph glyph-name="Lslash" unicode="&#x141;" horiz-adv-x="658" 
d="M656 247l-42 -248h-587v16l23 3q6 1 16 3q12 5 17 9q7 5 8 12q1 6 3 15q1 6 1 25v223l-64 -24v22l64 24v291v24q0 6 -2 14q-3 10 -9 14t-18 9q-10 2 -16 3q-10 2 -22 3v16h357v-16l-23 -3q-6 -1 -16 -3q-12 -5 -17 -9q-7 -5 -8 -12q-1 -6 -3 -15q-1 -6 -1 -25v-222
l131 50v-22l-131 -50v-288q0 -18 5 -33q4 -13 15 -21q8 -7 23 -10q14 -3 36 -3h18q32 0 57 9q26 9 48 28q18 15 36 36q17 20 36 53q16 25 26 45q13 26 27 57h12z" />
    <glyph glyph-name="lslash" unicode="&#x142;" horiz-adv-x="341" 
d="M336 545l2 -25l-61 -27v-443q0 -12 4 -19q5 -7 12 -12q5 -1 12 -3t24 -3v-14h-312v14q17 1 24 3t12 3q7 5 12 12q4 7 4 19v363l-64 -28v25l64 28v220l-53 61v4l255 60h4v-265z" />
    <glyph glyph-name="Nacute" unicode="&#x143;" horiz-adv-x="747" 
d="M641 308l-1 310q0 20 -4 29q-5 11 -13 18q-8 5 -19 9q-12 5 -31 6q-14 2 -22 3q-11 1 -29 3v16h230v-16q-13 -1 -25 -3q-11 -1 -18 -3q-14 -4 -21 -7q-8 -4 -13 -12q-5 -6 -6 -16q-2 -14 -2 -25v-629h-47l-494 589v-496q0 -17 5 -29q5 -11 15 -18q7 -4 20 -9q12 -4 30 -6
q10 -2 24 -3q15 -2 31 -3v-16h-237v16l26 3q10 1 18 3q10 2 21 8q10 5 14 12q5 6 6 16q2 14 2 25v526q-22 24 -27 29l-18 18q-17 17 -28 23q-14 8 -25 9v14h310zM361 889h237v-4l-260 -145h-4z" />
    <glyph glyph-name="nacute" unicode="&#x144;" horiz-adv-x="673" 
d="M392 20l3 -1q7 5 12 12q4 7 4 19v331q0 33 -16 49t-49 16q-18 0 -34 -3q-18 -3 -37 -10v-383q0 -12 4 -19q5 -7 12 -12q5 -1 12 -3t24 -3v-14h-312v14q17 1 24 3t12 3q7 5 12 12q4 7 4 19v378l-53 61v4l259 60h4l-4 -113q13 20 35 42q19 19 47 37q29 18 54 26q27 9 54 9
q37 0 65 -12q29 -12 48 -34q20 -21 30 -51q10 -29 10 -67v-339q0 -12 4 -19q4 -8 12 -12q4 -2 12 -3l24 -3v-14h-312v14l24 3t12 3zM323 771h237v-4l-278 -175h-6z" />
    <glyph glyph-name="Ncommaaccent" unicode="&#x145;" horiz-adv-x="747" 
d="M641 308l-1 310q0 20 -4 29q-5 11 -13 18q-8 5 -19 9q-12 5 -31 6q-14 2 -22 3q-11 1 -29 3v16h230v-16q-13 -1 -25 -3q-11 -1 -18 -3q-14 -4 -21 -7q-8 -4 -13 -12q-5 -6 -6 -16q-2 -14 -2 -25v-629h-47l-494 589v-496q0 -17 5 -29q5 -11 15 -18q7 -4 20 -9q12 -4 30 -6
q10 -2 24 -3q15 -2 31 -3v-16h-237v16l26 3q10 1 18 3q10 2 21 8q10 5 14 12q5 6 6 16q2 14 2 25v526q-22 24 -27 29l-18 18q-17 17 -28 23q-14 8 -25 9v14h310zM387 -200l-1 -3q8 11 12 21t6 20h-66q-17 7 -28 23q-10 14 -10 33q0 16 7 29q8 14 21 23q11 10 26 14
q17 5 32 5q20 0 36 -6t30 -18q13 -12 21 -29q7 -15 7 -36q0 -28 -15 -54q-15 -25 -43 -43q-22 -13 -51 -21q-27 -7 -63 -7v8q10 1 23 5q11 3 21 9q9 4 19 12q6 5 16 15z" />
    <glyph glyph-name="ncommaaccent" unicode="&#x146;" horiz-adv-x="673" 
d="M392 20l3 -1q7 5 12 12q4 7 4 19v331q0 33 -16 49t-49 16q-18 0 -34 -3q-18 -3 -37 -10v-383q0 -12 4 -19q5 -7 12 -12q5 -1 12 -3t24 -3v-14h-312v14q17 1 24 3t12 3q7 5 12 12q4 7 4 19v378l-53 61v4l259 60h4l-4 -113q13 20 35 42q19 19 47 37q29 18 54 26q27 9 54 9
q37 0 65 -12q29 -12 48 -34q20 -21 30 -51q10 -29 10 -67v-339q0 -12 4 -19q4 -8 12 -12q4 -2 12 -3l24 -3v-14h-312v14l24 3t12 3zM345 -200l-1 -3q8 11 12 21t6 20h-66q-17 7 -28 23q-10 14 -10 33q0 16 7 29q8 14 21 23q11 10 26 14q17 5 32 5q20 0 36 -6t30 -18
q13 -12 21 -29q7 -15 7 -36q0 -28 -15 -54q-15 -25 -43 -43q-22 -13 -51 -21q-27 -7 -63 -7v8q10 1 23 5q11 3 21 9q9 4 19 12q6 5 16 15z" />
    <glyph glyph-name="Ncaron" unicode="&#x147;" horiz-adv-x="747" 
d="M641 308l-1 310q0 20 -4 29q-5 11 -13 18q-8 5 -19 9q-12 5 -31 6q-14 2 -22 3q-11 1 -29 3v16h230v-16q-13 -1 -25 -3q-11 -1 -18 -3q-14 -4 -21 -7q-8 -4 -13 -12q-5 -6 -6 -16q-2 -14 -2 -25v-629h-47l-494 589v-496q0 -17 5 -29q5 -11 15 -18q7 -4 20 -9q12 -4 30 -6
q10 -2 24 -3q15 -2 31 -3v-16h-237v16l26 3q10 1 18 3q10 2 21 8q10 5 14 12q5 6 6 16q2 14 2 25v526q-22 24 -27 29l-18 18q-17 17 -28 23q-14 8 -25 9v14h310zM576 889l-118 -149h-136l-118 149h6l180 -65l180 65h6z" />
    <glyph glyph-name="ncaron" unicode="&#x148;" horiz-adv-x="673" 
d="M392 20l3 -1q7 5 12 12q4 7 4 19v331q0 33 -16 49t-49 16q-18 0 -34 -3q-18 -3 -37 -10v-383q0 -12 4 -19q5 -7 12 -12q5 -1 12 -3t24 -3v-14h-312v14q17 1 24 3t12 3q7 5 12 12q4 7 4 19v378l-53 61v4l259 60h4l-4 -113q13 20 35 42q19 19 47 37q29 18 54 26q27 9 54 9
q37 0 65 -12q29 -12 48 -34q20 -21 30 -51q10 -29 10 -67v-339q0 -12 4 -19q4 -8 12 -12q4 -2 12 -3l24 -3v-14h-312v14l24 3t12 3zM530 771l-118 -179h-136l-118 179h6l180 -90l180 90h6z" />
    <glyph glyph-name="Eng" unicode="&#x14a;" horiz-adv-x="747" 
d="M615 -108l-2 -6q-23 -31 -52 -56q-31 -26 -79 -58l-4 3q24 24 41 54q19 34 32 69q12 36 17 69q6 36 6 72l-451 538v-496q0 -17 5 -29q4 -10 15 -18q7 -4 20 -9q12 -5 30 -6q11 -1 24 -3q15 -2 31 -3v-16h-237v16l26 3q11 2 18 3q10 3 21 8q10 5 14 12q5 6 6 16q2 14 2 25
v526q-22 24 -27 29l-18 18q-17 17 -28 23q-14 8 -25 9v14h310l328 -394v311q0 20 -4 29q-5 11 -13 18q-8 5 -19 9q-12 5 -31 6q-14 2 -22 3q-11 1 -29 3v16h230v-16q-13 -1 -25 -3q-11 -1 -18 -3q-14 -4 -21 -7q-8 -4 -13 -12q-5 -6 -6 -16q-2 -14 -2 -25v-562
q0 -48 -12 -89q-12 -39 -38 -75z" />
    <glyph glyph-name="eng" unicode="&#x14b;" horiz-adv-x="655" 
d="M614 389l3 -330q0 -57 -21 -105q-21 -47 -63 -85q-35 -31 -82 -54q-48 -24 -108 -39l-2 4q12 14 21 27q11 16 17 30q7 13 12 30l9 33q4 19 5 32q1 16 3 36q1 7 1 24v43v345q0 33 -16 49t-49 16q-18 0 -34 -3q-18 -3 -37 -10v-383q0 -12 4 -19q5 -8 12 -12q5 -2 12 -3
t24 -3v-14h-312v14q17 2 24 3t12 3q7 4 12 12q4 7 4 19v378l-53 61v4l259 60h4l-4 -113q13 20 35 42q19 19 47 37q29 18 54 26q27 9 54 9q36 0 65 -12t48 -34q20 -21 30 -51q10 -29 10 -67z" />
    <glyph glyph-name="Omacron" unicode="&#x14c;" horiz-adv-x="748" 
d="M198 663v-1q42 24 89 36t96 12q47 0 94 -11q43 -10 84 -32q41 -24 71 -55q32 -34 54 -73q20 -39 30 -84q11 -47 11 -92q0 -51 -12 -99q-12 -50 -34 -90q-24 -44 -57 -78t-75 -60q-42 -24 -89 -36q-46 -12 -96 -12q-47 0 -94 11q-43 10 -84 32q-41 24 -71 55
q-31 32 -54 74q-19 39 -30 84q-11 47 -11 92q0 51 12 99q12 50 34 90q24 43 57 78t75 60zM482 542h-1q-15 78 -43 116q-28 39 -69 39q-37 0 -63 -36t-39 -106q-7 -39 -12 -87q-4 -43 -4 -103q0 -67 4 -114q5 -53 12 -93q15 -76 44 -116q29 -39 69 -39q38 0 63 36
q26 36 39 106q8 39 12 87q4 43 4 103q0 67 -4 114q-4 53 -12 93zM532 763h-314v51h314v-51z" />
    <glyph glyph-name="omacron" unicode="&#x14d;" horiz-adv-x="612" 
d="M160 515l-1 -1q33 20 69 29q38 9 77 9q61 0 114 -18q52 -18 92 -53q42 -39 62 -88q21 -51 21 -112q0 -41 -9 -78t-27 -70q-20 -34 -46 -60q-26 -27 -61 -46q-30 -19 -69 -28q-38 -9 -76 -9q-62 0 -114 18t-92 53q-42 39 -62 88q-21 51 -21 112q0 41 9 78t27 70
q20 34 46 60t61 46zM234 315h-2q0 -158 19 -234q19 -78 57 -78q24 0 39 24q14 23 22 75q4 28 5 54q2 42 2 72q0 158 -19 234q-19 78 -57 78q-24 0 -39 -24q-14 -23 -22 -75q-2 -17 -4 -54q-1 -21 -1 -72zM450 633h-294v51h294v-51z" />
    <glyph glyph-name="Obreve" unicode="&#x14e;" horiz-adv-x="748" 
d="M198 663v-1q42 24 89 36t96 12q47 0 94 -11q43 -10 84 -32q41 -24 71 -55q32 -34 54 -73q20 -39 30 -84q11 -47 11 -92q0 -51 -12 -99q-12 -50 -34 -90q-24 -44 -57 -78t-75 -60q-42 -24 -89 -36q-46 -12 -96 -12q-47 0 -94 11q-43 10 -84 32q-41 24 -71 55
q-31 32 -54 74q-19 39 -30 84q-11 47 -11 92q0 51 12 99q12 50 34 90q24 43 57 78t75 60zM482 542h-1q-15 78 -43 116q-28 39 -69 39q-37 0 -63 -36t-39 -106q-7 -39 -12 -87q-4 -43 -4 -103q0 -67 4 -114q5 -53 12 -93q15 -76 44 -116q29 -39 69 -39q38 0 63 36
q26 36 39 106q8 39 12 87q4 43 4 103q0 67 -4 114q-4 53 -12 93zM495 787h2q-21 -23 -50 -35t-63 -12t-63 12t-50 35q-22 23 -32 53q-11 31 -11 63h4q8 -17 24 -29q17 -13 41 -20q18 -6 40 -9q23 -3 46 -3t46 3q22 3 40 9q24 7 41 20q16 12 24 29h4q0 -32 -11 -63
q-10 -30 -32 -53z" />
    <glyph glyph-name="obreve" unicode="&#x14f;" horiz-adv-x="612" 
d="M160 515l-1 -1q33 20 69 29q38 9 77 9q61 0 114 -18q52 -18 92 -53q42 -39 62 -88q21 -51 21 -112q0 -41 -9 -78t-27 -70q-20 -34 -46 -60q-26 -27 -61 -46q-30 -19 -69 -28q-38 -9 -76 -9q-62 0 -114 18t-92 53q-42 39 -62 88q-21 51 -21 112q0 41 9 78t27 70
q20 34 46 60t61 46zM234 315h-2q0 -158 19 -234q19 -78 57 -78q24 0 39 24q14 23 22 75q4 28 5 54q2 42 2 72q0 158 -19 234q-19 78 -57 78q-24 0 -39 -24q-14 -23 -22 -75q-2 -17 -4 -54q-1 -21 -1 -72zM418 645l-4 -1q-20 -26 -48 -39q-27 -13 -66 -13q-36 0 -66 14
q-28 14 -48 39q-16 21 -25 54q-9 31 -9 71h5q13 -38 50 -58q35 -19 95 -19t95 19q37 20 50 58h5q0 -40 -9 -71q-9 -33 -25 -54z" />
    <glyph glyph-name="Ohungarumlaut" unicode="&#x150;" horiz-adv-x="748" 
d="M198 663v-1q42 24 89 36t96 12q47 0 94 -11q43 -10 84 -32q41 -24 71 -55q32 -34 54 -73q20 -39 30 -84q11 -47 11 -92q0 -51 -12 -99q-12 -50 -34 -90q-24 -44 -57 -78t-75 -60q-42 -24 -89 -36q-46 -12 -96 -12q-47 0 -94 11q-43 10 -84 32q-41 24 -71 55
q-31 32 -54 74q-19 39 -30 84q-11 47 -11 92q0 51 12 99q12 50 34 90q24 43 57 78t75 60zM482 542h-1q-15 78 -43 116q-28 39 -69 39q-37 0 -63 -36t-39 -106q-7 -39 -12 -87q-4 -43 -4 -103q0 -67 4 -114q5 -53 12 -93q15 -76 44 -116q29 -39 69 -39q38 0 63 36
q26 36 39 106q8 39 12 87q4 43 4 103q0 67 -4 114q-4 53 -12 93zM257 740l48 149h162v-4l-203 -145h-7zM445 740l48 149h162v-4l-203 -145h-7z" />
    <glyph glyph-name="ohungarumlaut" unicode="&#x151;" horiz-adv-x="612" 
d="M160 515l-1 -1q33 20 69 29q38 9 77 9q61 0 114 -18q52 -18 92 -53q42 -39 62 -88q21 -51 21 -112q0 -41 -9 -78t-27 -70q-20 -34 -46 -60q-26 -27 -61 -46q-30 -19 -69 -28q-38 -9 -76 -9q-62 0 -114 18t-92 53q-42 39 -62 88q-21 51 -21 112q0 41 9 78t27 70
q20 34 46 60t61 46zM234 315h-2q0 -158 19 -234q19 -78 57 -78q24 0 39 24q14 23 22 75q4 28 5 54q2 42 2 72q0 158 -19 234q-19 78 -57 78q-24 0 -39 -24q-14 -23 -22 -75q-2 -17 -4 -54q-1 -21 -1 -72zM174 592l48 179h162v-4l-203 -175h-7zM362 592l48 179h162v-4
l-203 -175h-7z" />
    <glyph glyph-name="OE" unicode="&#x152;" horiz-adv-x="1052" 
d="M1010 0l-571 -7q-93 0 -166 19q-75 20 -129 57q-63 45 -96 113t-33 155q0 56 13 102q14 49 39 89q25 42 63 75q36 31 86 55q44 20 93 30q47 10 104 10h589l5 -199h-12q-18 43 -36 75q-19 33 -37 51q-26 27 -57 39t-75 12h-86v-310h83q26 0 45 8t29 24q9 14 15 33
q5 16 10 51h14v-246h-14q-5 35 -10 51q-6 19 -15 33q-10 16 -29 24t-45 8h-83v-265q0 -18 5 -33q5 -14 15 -21q8 -7 23 -10q13 -3 36 -3h22q39 0 75 17q34 17 66 51q20 24 42 59q18 28 43 80h12zM287 133l-3 -2q30 -59 77 -89q46 -30 107 -30h13v589q0 19 -3 33
q-3 15 -10 24q-8 11 -19 15q-13 5 -32 5h-3q-33 0 -61 -16q-29 -16 -51 -48q-18 -24 -29 -54q-13 -34 -20 -69q-7 -27 -10 -63q-3 -33 -3 -69q0 -68 12 -125q12 -56 35 -101z" />
    <glyph glyph-name="oe" unicode="&#x153;" horiz-adv-x="913" 
d="M160 515l-2 2q33 20 69 29q38 9 77 9q56 0 106 -19t91 -54q41 36 84 54t87 18q50 0 92 -15q43 -15 72 -43q31 -29 47 -69q17 -42 17 -89v-6h-320q2 -45 12 -81q10 -35 29 -63q23 -32 55 -48t75 -16q45 0 84 17q37 17 63 48l5 -2q-8 -46 -28 -82q-21 -37 -54 -63
q-31 -26 -72 -39q-39 -13 -87 -13t-93 18q-44 18 -82 51q-41 -33 -87 -51q-47 -18 -94 -18q-62 0 -114 18t-92 53q-42 39 -62 88q-21 51 -21 112q0 41 9 78t27 70q20 34 46 60t61 46zM233 318h-2q0 -158 19 -234q20 -78 57 -78q24 0 39 24q14 23 22 75q4 28 5 54q2 42 2 72
q0 158 -19 234q-20 78 -57 78q-24 0 -39 -24q-14 -23 -22 -75q-2 -17 -4 -54q-1 -21 -1 -72zM713 460l3 -2q-7 39 -23 59q-15 20 -36 20q-22 0 -39 -20q-16 -19 -27 -57q-6 -23 -9 -49q-2 -19 -4 -58h145q0 32 -3 59q-4 32 -7 48z" />
    <glyph glyph-name="Racute" unicode="&#x154;" horiz-adv-x="768" 
d="M21 686l-2 14h379q56 0 102 -9q47 -9 83 -27q48 -24 74 -62t26 -86q0 -30 -11 -58q-10 -26 -33 -49q-18 -18 -45 -34q-24 -14 -57 -25l136 -227l27 -41q10 -15 20 -26q16 -20 33 -30t33 -12v-16h-271q-19 16 -48 63q-26 42 -70 132l-65 130h-22v-240v-24q0 -6 2 -14
q3 -10 9 -14q6 -5 18 -9q10 -2 16 -3q10 -2 22 -3v-16h-357v16l23 3q6 1 16 3q12 5 17 9q7 5 8 12q2 6 3 15q1 6 1 25v536v24q0 6 -2 14q-3 10 -9 14q-6 5 -18 9q-10 2 -16 3q-10 2 -22 3zM434 631l-1 -2q-19 26 -45 38q-27 12 -61 12h-21v-340h22q33 0 61 14q27 13 45 41
q16 24 23 52q8 32 8 67q0 34 -8 66q-7 28 -23 52zM342 886h237v-4l-260 -145h-4z" />
    <glyph glyph-name="racute" unicode="&#x155;" horiz-adv-x="472" 
d="M276 553l-4 -198q6 35 17 69q10 30 24 55q20 35 45 53q26 18 57 18q13 0 27 -3t24 -9v-165h-26q-38 0 -51 -1q-17 -1 -34 -3q-25 -3 -45 -9t-36 -15v-292q0 -13 6 -21t21 -12q6 -2 18 -4l29 -3v-14h-334v14q16 1 24 3l12 3q8 5 12 12t4 19v378l-53 61v4l259 60h4z
M248 768h237v-4l-278 -175h-6z" />
    <glyph glyph-name="Rcommaaccent" unicode="&#x156;" horiz-adv-x="768" 
d="M21 686l-2 14h379q56 0 102 -9q47 -9 83 -27q48 -24 74 -62t26 -86q0 -30 -11 -58q-10 -26 -33 -49q-18 -18 -45 -34q-24 -14 -57 -25l136 -227l27 -41q10 -15 20 -26q16 -20 33 -30t33 -12v-16h-271q-19 16 -48 63q-26 42 -70 132l-65 130h-22v-240v-24q0 -6 2 -14
q3 -10 9 -14q6 -5 18 -9q10 -2 16 -3q10 -2 22 -3v-16h-357v16l23 3q6 1 16 3q12 5 17 9q7 5 8 12q2 6 3 15q1 6 1 25v536v24q0 6 -2 14q-3 10 -9 14q-6 5 -18 9q-10 2 -16 3q-10 2 -22 3zM434 631l-1 -2q-19 26 -45 38q-27 12 -61 12h-21v-340h22q33 0 61 14q27 13 45 41
q16 24 23 52q8 32 8 67q0 34 -8 66q-7 28 -23 52zM386 -203l-1 -3q7 10 12 21q4 10 6 20h-66q-17 7 -28 23q-10 14 -10 33q0 16 7 29q8 14 21 23q11 10 26 14q17 5 32 5q19 0 36 -6t30 -18t21 -29q7 -15 7 -36q0 -29 -15 -54t-43 -43q-23 -14 -51 -21q-27 -7 -63 -7v8
q10 1 23 5q10 3 21 9q9 4 19 12q6 5 16 15z" />
    <glyph glyph-name="rcommaaccent" unicode="&#x157;" horiz-adv-x="472" 
d="M276 553l-4 -198q6 35 17 69q10 30 24 55q20 35 45 53q26 18 57 18q13 0 27 -3t24 -9v-165h-26q-38 0 -51 -1q-17 -1 -34 -3q-25 -3 -45 -9t-36 -15v-292q0 -13 6 -21t21 -12q6 -2 18 -4l29 -3v-14h-334v14q16 1 24 3l12 3q8 5 12 12t4 19v378l-53 61v4l259 60h4z
M170 -203l-1 -3q7 10 12 21q4 10 6 20h-66q-17 7 -28 23q-10 14 -10 33q0 16 7 29q8 14 21 23q11 10 26 14q17 5 32 5q19 0 36 -6t30 -18t21 -29q7 -15 7 -36q0 -29 -15 -54t-43 -43q-23 -14 -51 -21q-27 -7 -63 -7v8q10 1 23 5q10 3 21 9q9 4 19 12q6 5 16 15z" />
    <glyph glyph-name="Rcaron" unicode="&#x158;" horiz-adv-x="768" 
d="M21 686l-2 14h379q56 0 102 -9q47 -9 83 -27q48 -24 74 -62t26 -86q0 -30 -11 -58q-10 -26 -33 -49q-18 -18 -45 -34q-24 -14 -57 -25l136 -227l27 -41q10 -15 20 -26q16 -20 33 -30t33 -12v-16h-271q-19 16 -48 63q-26 42 -70 132l-65 130h-22v-240v-24q0 -6 2 -14
q3 -10 9 -14q6 -5 18 -9q10 -2 16 -3q10 -2 22 -3v-16h-357v16l23 3q6 1 16 3q12 5 17 9q7 5 8 12q2 6 3 15q1 6 1 25v536v24q0 6 -2 14q-3 10 -9 14q-6 5 -18 9q-10 2 -16 3q-10 2 -22 3zM434 631l-1 -2q-19 26 -45 38q-27 12 -61 12h-21v-340h22q33 0 61 14q27 13 45 41
q16 24 23 52q8 32 8 67q0 34 -8 66q-7 28 -23 52zM557 886l-118 -149h-136l-118 149h6l180 -65l180 65h6z" />
    <glyph glyph-name="rcaron" unicode="&#x159;" horiz-adv-x="472" 
d="M276 553l-4 -198q6 35 17 69q10 30 24 55q20 35 45 53q26 18 57 18q13 0 27 -3t24 -9v-165h-26q-38 0 -51 -1q-17 -1 -34 -3q-25 -3 -45 -9t-36 -15v-292q0 -13 6 -21t21 -12q6 -2 18 -4l29 -3v-14h-334v14q16 1 24 3l12 3q8 5 12 12t4 19v378l-53 61v4l259 60h4z
M455 768l-118 -179h-136l-118 179h6l180 -90l180 90h6z" />
    <glyph glyph-name="Sacute" unicode="&#x15a;" horiz-adv-x="582" 
d="M439 626l1 -1q-28 34 -61 52t-71 18q-24 0 -45 -6t-37 -19q-17 -14 -26 -33t-9 -43q0 -18 6 -33q5 -13 20 -28q11 -9 24 -18q15 -10 33 -17q10 -4 24 -9q10 -3 40 -15q39 -14 51 -19l30 -13q27 -12 41 -22q20 -13 32 -24q18 -16 31 -34q14 -19 21 -37q8 -19 12 -42
q4 -20 4 -46q0 -39 -10 -72q-11 -36 -31 -63q-19 -28 -48 -51q-28 -22 -64 -37q-32 -14 -67 -21q-34 -7 -73 -7q-33 0 -61 4q-34 5 -60 13q-34 9 -61 22q-30 14 -48 28l-12 185h11q11 -44 31 -85q21 -42 49 -73q33 -38 72 -57q40 -20 83 -20q27 0 48 7q23 8 39 21
q19 13 30 35q10 20 10 47q0 23 -6 41q-6 19 -19 33q-11 15 -27 26q-18 13 -39 23q-12 6 -27 12l-47 18l-46 18q-15 6 -27 12q-17 7 -37 20q-17 10 -30 21q-15 12 -28 30q-11 16 -19 34q-7 15 -10 36q-3 19 -3 42q0 53 21 96t60 75q37 29 85 46q47 16 100 16q59 0 113 -15
q52 -14 97 -44l4 -167h-10q-10 44 -25 77q-16 36 -39 63zM286 889h237v-4l-260 -145h-4z" />
    <glyph glyph-name="sacute" unicode="&#x15b;" horiz-adv-x="469" 
d="M381 40l-4 -2q-31 -23 -73 -37q-40 -13 -88 -13q-26 0 -51 3t-51 9q-27 7 -52 18q-27 12 -41 22l-6 157h10q9 -41 25 -72q17 -34 39 -59q26 -29 60 -46q32 -16 69 -16q20 0 36 6q17 6 28 16q12 10 18 26q6 15 6 34q0 14 -5 27t-15 23q-8 8 -19 15q-13 8 -28 15
q-7 4 -18 9l-33 12l-39 15q-13 4 -24 9q-14 6 -30 17q-13 9 -24 18q-11 10 -22 26q-9 13 -15 29q-6 15 -9 32t-3 35q0 42 18 78t52 61q33 24 70 35q39 12 82 12q48 0 91 -12q45 -12 78 -34v-130h-10q-5 29 -19 56q-15 28 -36 51q-24 26 -52 39q-30 14 -57 14q-14 0 -31 -5
q-14 -4 -25 -15q-10 -9 -16 -22q-6 -14 -6 -30q0 -13 5 -26q4 -11 15 -22q8 -8 19 -15l27 -15q1 0 7.5 -2.5t10.5 -4.5l32 -12q30 -12 40 -15q13 -4 24 -9q20 -10 32 -18q18 -12 26 -19q15 -13 24 -25q10 -12 16 -30q7 -14 10 -31q3 -16 3 -36q0 -44 -18 -82
q-17 -36 -53 -64zM228 770h237v-4l-278 -175h-6z" />
    <glyph glyph-name="Scircumflex" unicode="&#x15c;" horiz-adv-x="582" 
d="M439 626l1 -1q-28 34 -61 52t-71 18q-24 0 -45 -6t-37 -19q-17 -14 -26 -33t-9 -43q0 -18 6 -33q5 -13 20 -28q11 -9 24 -18q15 -10 33 -17q10 -4 24 -9q10 -3 40 -15q39 -14 51 -19l30 -13q27 -12 41 -22q20 -13 32 -24q18 -16 31 -34q14 -19 21 -37q8 -19 12 -42
q4 -20 4 -46q0 -39 -10 -72q-11 -36 -31 -63q-19 -28 -48 -51q-28 -22 -64 -37q-32 -14 -67 -21q-34 -7 -73 -7q-33 0 -61 4q-34 5 -60 13q-34 9 -61 22q-30 14 -48 28l-12 185h11q11 -44 31 -85q21 -42 49 -73q33 -38 72 -57q40 -20 83 -20q27 0 48 7q23 8 39 21
q19 13 30 35q10 20 10 47q0 23 -6 41q-6 19 -19 33q-11 15 -27 26q-18 13 -39 23q-12 6 -27 12l-47 18l-46 18q-15 6 -27 12q-17 7 -37 20q-17 10 -30 21q-15 12 -28 30q-11 16 -19 34q-7 15 -10 36q-3 19 -3 42q0 53 21 96t60 75q37 29 85 46q47 16 100 16q59 0 113 -15
q52 -14 97 -44l4 -167h-10q-10 44 -25 77q-16 36 -39 63zM238 889h136l118 -149h-6l-180 65l-180 -65h-6z" />
    <glyph glyph-name="scircumflex" unicode="&#x15d;" horiz-adv-x="469" 
d="M381 40l-4 -2q-31 -23 -73 -37q-40 -13 -88 -13q-26 0 -51 3t-51 9q-27 7 -52 18q-27 12 -41 22l-6 157h10q9 -41 25 -72q17 -34 39 -59q26 -29 60 -46q32 -16 69 -16q20 0 36 6q17 6 28 16q12 10 18 26q6 15 6 34q0 14 -5 27t-15 23q-8 8 -19 15q-13 8 -28 15
q-7 4 -18 9l-33 12l-39 15q-13 4 -24 9q-14 6 -30 17q-13 9 -24 18q-11 10 -22 26q-9 13 -15 29q-6 15 -9 32t-3 35q0 42 18 78t52 61q33 24 70 35q39 12 82 12q48 0 91 -12q45 -12 78 -34v-130h-10q-5 29 -19 56q-15 28 -36 51q-24 26 -52 39q-30 14 -57 14q-14 0 -31 -5
q-14 -4 -25 -15q-10 -9 -16 -22q-6 -14 -6 -30q0 -13 5 -26q4 -11 15 -22q8 -8 19 -15l27 -15q1 0 7.5 -2.5t10.5 -4.5l32 -12q30 -12 40 -15q13 -4 24 -9q20 -10 32 -18q18 -12 26 -19q15 -13 24 -25q10 -12 16 -30q7 -14 10 -31q3 -16 3 -36q0 -44 -18 -82
q-17 -36 -53 -64zM170 770h136l118 -179h-6l-180 90l-180 -90h-6z" />
    <glyph glyph-name="Scedilla" unicode="&#x15e;" horiz-adv-x="582" 
d="M301 -209l2 -1q-24 -8 -55 -12q-28 -4 -66 -4l-4 12q22 2 33 4q12 2 27 8q17 8 26 20t9 26q0 13 -7 20q-8 8 -21 12q-8 2 -19 3q-13 2 -28 3l48 107q-28 1 -57 6q-27 4 -55 12q-28 9 -54 21q-23 11 -45 26l-12 185h11q11 -44 31 -85q21 -42 49 -73q33 -37 72 -57
q40 -20 83 -20q27 0 48 7q23 7 39 21q19 13 30 35q10 20 10 47q0 23 -6 41q-6 19 -19 33q-11 15 -27 26q-18 13 -39 23q-12 6 -27 12l-47 18l-46 18q-15 6 -27 12q-17 7 -37 20q-17 11 -30 21q-15 12 -28 30q-11 16 -19 34q-7 15 -10 36q-3 20 -3 42q0 52 21 96t60 75
q37 29 85 46q47 16 100 16q59 0 113 -15q52 -14 97 -44l4 -167h-10q-10 44 -25 77q-16 36 -39 63q-28 34 -61 52t-71 18q-24 0 -45 -6t-37 -19q-17 -14 -26 -33t-9 -43q0 -18 6 -33q5 -13 20 -28q10 -9 24 -18q15 -10 33 -17l24 -9q10 -3 40 -15q39 -14 51 -19l30 -13
q27 -12 41 -22q20 -13 32 -24q18 -16 31 -34q14 -19 21 -37q7 -19 12 -42q4 -20 4 -46q0 -39 -10 -72q-11 -36 -31 -63q-20 -28 -48 -51q-28 -22 -64 -37q-32 -14 -67 -21q-34 -7 -73 -7h-3h-3l-6 -28q20 0 43 -5q19 -4 37 -14q22 -13 32 -28q11 -17 11 -36q0 -31 -19 -51
q-20 -22 -55 -35z" />
    <glyph glyph-name="scedilla" unicode="&#x15f;" horiz-adv-x="469" 
d="M381 40l-3 -5q-31 -23 -73 -37q-40 -13 -88 -13h-7h-7l-6 -28q20 0 43 -5q19 -4 37 -14q22 -13 32 -28q11 -17 11 -36q0 -31 -19 -51q-20 -22 -55 -35q-24 -8 -55 -12q-28 -4 -66 -4l-4 12q22 2 33 4q12 2 27 8q17 8 26 20t9 26q0 13 -7 20q-7 8 -21 12q-8 2 -19 3
q-13 2 -28 3l49 108q-22 2 -45 6q-27 5 -43 10q-28 9 -45 16q-19 8 -36 20l-6 157h10q9 -41 25 -72q17 -34 39 -59q26 -29 60 -46q32 -16 69 -16q20 0 36 6q17 6 28 16q12 10 18 26q6 15 6 34q0 14 -5 27t-15 23q-8 8 -19 15q-13 8 -28 15q-7 4 -18 9l-33 12l-39 15
q-13 4 -24 9q-14 6 -30 17q-13 9 -24 18q-11 10 -22 26q-9 13 -15 29q-6 15 -9 32t-3 35q0 42 18 78t52 61q33 24 70 35q39 12 82 12q48 0 91 -12q45 -12 78 -34v-130h-10q-5 29 -19 56q-15 28 -36 51q-24 26 -52 39q-30 14 -57 14q-14 0 -31 -5q-14 -4 -25 -15
q-10 -9 -16 -22q-6 -14 -6 -30q0 -13 5 -26q4 -11 15 -22q8 -8 19 -15l27 -15q1 0 7.5 -2.5t10.5 -4.5l32 -12q30 -12 40 -15q13 -4 24 -9q20 -10 32 -18q18 -12 26 -19q15 -13 24 -25q10 -12 16 -30q7 -14 10 -31q3 -16 3 -36q0 -44 -18 -82q-17 -36 -53 -64z" />
    <glyph glyph-name="Scaron" unicode="&#x160;" horiz-adv-x="582" 
d="M439 626l1 -1q-28 34 -61 52t-71 18q-24 0 -45 -6t-37 -19q-17 -14 -26 -33t-9 -43q0 -18 6 -33q5 -13 20 -28q11 -9 24 -18q15 -10 33 -17q10 -4 24 -9q10 -3 40 -15q39 -14 51 -19l30 -13q27 -12 41 -22q20 -13 32 -24q18 -16 31 -34q14 -19 21 -37q8 -19 12 -42
q4 -20 4 -46q0 -39 -10 -72q-11 -36 -31 -63q-19 -28 -48 -51q-28 -22 -64 -37q-32 -14 -67 -21q-34 -7 -73 -7q-33 0 -61 4q-34 5 -60 13q-34 9 -61 22q-30 14 -48 28l-12 185h11q11 -44 31 -85q21 -42 49 -73q33 -38 72 -57q40 -20 83 -20q27 0 48 7q23 8 39 21
q19 13 30 35q10 20 10 47q0 23 -6 41q-6 19 -19 33q-11 15 -27 26q-18 13 -39 23q-12 6 -27 12l-47 18l-46 18q-15 6 -27 12q-17 7 -37 20q-17 10 -30 21q-15 12 -28 30q-11 16 -19 34q-7 15 -10 36q-3 19 -3 42q0 53 21 96t60 75q37 29 85 46q47 16 100 16q59 0 113 -15
q52 -14 97 -44l4 -167h-10q-10 44 -25 77q-16 36 -39 63zM491 889l-118 -149h-136l-118 149h6l180 -65l180 65h6z" />
    <glyph glyph-name="scaron" unicode="&#x161;" horiz-adv-x="469" 
d="M381 40l-4 -2q-31 -23 -73 -37q-40 -13 -88 -13q-26 0 -51 3t-51 9q-27 7 -52 18q-27 12 -41 22l-6 157h10q9 -41 25 -72q17 -34 39 -59q26 -29 60 -46q32 -16 69 -16q20 0 36 6q17 6 28 16q12 10 18 26q6 15 6 34q0 14 -5 27t-15 23q-8 8 -19 15q-13 8 -28 15
q-7 4 -18 9l-33 12l-39 15q-13 4 -24 9q-14 6 -30 17q-13 9 -24 18q-11 10 -22 26q-9 13 -15 29q-6 15 -9 32t-3 35q0 42 18 78t52 61q33 24 70 35q39 12 82 12q48 0 91 -12q45 -12 78 -34v-130h-10q-5 29 -19 56q-15 28 -36 51q-24 26 -52 39q-30 14 -57 14q-14 0 -31 -5
q-14 -4 -25 -15q-10 -9 -16 -22q-6 -14 -6 -30q0 -13 5 -26q4 -11 15 -22q8 -8 19 -15l27 -15q1 0 7.5 -2.5t10.5 -4.5l32 -12q30 -12 40 -15q13 -4 24 -9q20 -10 32 -18q18 -12 26 -19q15 -13 24 -25q10 -12 16 -30q7 -14 10 -31q3 -16 3 -36q0 -44 -18 -82
q-17 -36 -53 -64zM425 770l-118 -179h-136l-118 179h6l180 -90l180 90h6z" />
    <glyph glyph-name="uni0162" unicode="&#x162;" horiz-adv-x="713" 
d="M382 -209l-2 -1q-24 -8 -55 -12q-28 -4 -66 -4l-4 12q22 2 33 4q12 2 27 8q17 8 26 20t9 26q0 13 -7 20q-7 8 -21 12q-8 2 -19 3q-13 2 -28 3l53 117h-163v16q15 1 25 3q6 1 16 3q13 2 20 6t12 11q4 6 6 15q2 12 2 24v604h-24q-38 0 -70 -22t-61 -69q-18 -26 -37 -66
q-16 -34 -34 -84h-11l15 261h663l15 -261h-11q-18 50 -34 84q-19 40 -37 66q-29 47 -61 69t-70 22h-24v-604q0 -11 2 -23q1 -9 6 -15q5 -7 12 -12q6 -4 21 -7q6 -2 15 -3t24 -3v-16h-204l-8 -38q20 0 43 -5q19 -4 37 -14q22 -13 32 -28q11 -17 11 -36q0 -31 -19 -51
q-20 -22 -55 -35z" />
    <glyph glyph-name="uni0163" unicode="&#x163;" horiz-adv-x="391" 
d="M226 -209l-3 -7q-24 -8 -55 -12q-28 -4 -66 -4l-4 12q22 2 33 4q12 2 27 8q17 8 26 20t9 26q0 13 -7 20q-8 8 -21 12q-8 2 -19 3q-13 2 -28 3l50 111q-28 6 -51 21t-38 38q-13 21 -21 48q-7 25 -7 59v335h-54v18q30 10 66 30t72 45q39 27 66 52q30 27 51 51h8v-156h120
v-40h-120v-331q0 -38 18 -56t55 -18q15 0 33 5q16 4 30 12l4 -5q-17 -27 -37 -45q-22 -20 -43 -33q-24 -14 -52 -22q-25 -7 -56 -7h-12q-2 0 -16 2l-7 -30q20 0 43 -5q19 -4 37 -14q22 -13 32 -28q11 -17 11 -36q0 -31 -19 -51q-20 -22 -55 -35z" />
    <glyph glyph-name="Tcaron" unicode="&#x164;" horiz-adv-x="713" 
d="M10 441l12 262h663l15 -261h-11q-18 50 -34 84q-19 40 -37 66q-29 47 -61 69t-70 22h-24v-604q0 -11 2 -23q1 -9 6 -15q5 -7 12 -12q6 -4 21 -7q6 -2 15 -3t24 -3v-16h-377v16q15 1 25 3q6 1 16 3q13 2 20 6t12 11q5 6 6 15q2 12 2 24v604h-24q-38 0 -70 -22t-61 -69
q-18 -26 -37 -66q-16 -34 -34 -84h-11zM544 891l-118 -149h-136l-118 149h6l180 -65l180 65h6z" />
    <glyph glyph-name="tcaron" unicode="&#x165;" horiz-adv-x="391" 
d="M255 689l5 -5v-156h120v-40h-120v-331q0 -38 18 -56t55 -18q15 0 33 5q16 4 30 12l4 -5q-17 -27 -37 -45q-22 -20 -43 -33q-24 -14 -52 -22q-25 -7 -56 -7q-37 0 -67 12q-29 12 -51 35q-20 23 -30 54q-10 30 -10 69v335h-54v18q30 11 66 30t72 45q39 27 66 52
q30 27 51 51zM455 807v-4l-158 -251h-8l11 255h155z" />
    <glyph glyph-name="Tbar" unicode="&#x166;" horiz-adv-x="723" 
d="M247 348l-105 1v22h102v312h-24q-38 0 -70 -22t-61 -69q-18 -26 -37 -66q-16 -34 -34 -84h-11l15 261h663l15 -261h-11q-18 50 -34 84q-19 40 -37 66q-29 47 -61 69t-70 22h-24v-312h102v-22h-102v-270q0 -11 2 -23q1 -9 6 -15q5 -7 12 -12q6 -4 21 -7q6 -2 15 -3t24 -3
v-16h-377v16q15 1 25 3q6 1 16 3q13 2 20 6t12 11q5 6 6 15q2 12 2 24v270z" />
    <glyph glyph-name="tbar" unicode="&#x167;" horiz-adv-x="415" 
d="M59 351l-60 -5v32h57v110h-54v18q30 10 66 30t72 45q39 27 66 52q30 27 51 51h8v-156h120v-40h-120v-110h116v-32h-116v-189q0 -38 18 -56t55 -18q15 0 33 5q17 4 30 12l4 -5q-17 -27 -37 -45q-22 -20 -43 -33q-24 -14 -52 -22q-25 -7 -56 -7q-37 0 -67 12q-29 12 -51 35
q-19 23 -30 54q-10 30 -10 69v193z" />
    <glyph glyph-name="Utilde" unicode="&#x168;" horiz-adv-x="753" 
d="M302 658l-6 -2q-2 -6 -3 -15q-1 -6 -1 -25v-342q0 -44 9 -82q9 -36 26 -63q21 -31 54 -48q32 -16 76 -16t80 15t60 45q23 28 35 65q12 38 12 84v341q0 20 -4 29q-5 11 -13 18q-7 4 -20 9q-12 5 -30 6q-11 1 -24 3t-30 3v16h230v-16q-13 -1 -24 -3t-18 -3q-15 -3 -21 -7
q-8 -4 -12 -12q-5 -6 -6 -16q-2 -14 -2 -25v-358q0 -62 -21 -113q-21 -52 -61 -87q-37 -34 -90 -52q-52 -18 -114 -18q-66 0 -123 17q-55 16 -96 48q-44 36 -66 88q-23 54 -23 118v358v24q0 6 -2 14q-3 10 -9 14t-18 9q-10 2 -16 3q-10 2 -22 3v16h357v-16l-23 -3
q-6 -1 -16 -3q-12 -5 -17 -9q-7 -5 -8 -12zM596 905l6 -5q-5 -31 -12 -56q-8 -27 -18 -47q-17 -30 -37 -44q-21 -15 -45 -15q-7 0 -21 2q-11 2 -21 6q-5 2 -15 8l-23 14l-18 12t-11 6q-9 4 -18 6q-12 2 -16 2q-25 0 -46 -15t-36 -42l-8 3q5 31 12 56q8 27 18 47q17 29 38 44
t45 15q7 0 21 -2q11 -2 21 -6t15 -7q2 -1 9.5 -5.5t13.5 -7.5l18 -12t11 -6q9 -4 18 -6q12 -2 17 -2q25 0 46 15t36 42z" />
    <glyph glyph-name="utilde" unicode="&#x169;" horiz-adv-x="661" 
d="M605 553l-11 -142v-332q0 -16 3 -25t9 -15q6 -4 18 -7q10 -3 26 -3v-14l-260 -34h-4l3 109q-15 -22 -36 -43q-20 -20 -40 -33q-25 -16 -51 -24q-27 -8 -53 -8q-37 0 -67 12q-31 12 -50 36q-18 22 -27 54q-9 31 -9 70v263q0 17 -3 27q-3 12 -7 18q-7 9 -15 14
q-10 7 -24 11v10l258 52h4l-6 -132v-254q0 -37 17 -57q16 -19 51 -19q15 0 32 5q15 4 29 14v315q0 17 -3 27q-3 12 -7 18q-7 9 -15 14q-10 7 -24 11v10l258 52h4zM502 758l6 -5q-5 -31 -12 -56q-8 -27 -18 -47q-17 -30 -37 -44q-21 -15 -45 -15q-7 0 -21 2q-11 1 -21 6
q-5 2 -15 8l-23 14q-12 7 -18 12q-6 4 -11 6q-9 5 -18 6q-12 2 -16 2q-25 0 -46 -15t-36 -42l-8 3q5 31 12 56q8 27 18 47q17 29 38 44t45 15q7 0 21 -2q11 -1 21 -6q10 -4 15 -7q2 -1 9.5 -5.5t13.5 -7.5q12 -7 18 -12q6 -4 11 -6q9 -5 18 -6q12 -2 17 -2q25 0 46 15t36 42
z" />
    <glyph glyph-name="Umacron" unicode="&#x16a;" horiz-adv-x="753" 
d="M302 658l-6 -2q-2 -6 -3 -15q-1 -6 -1 -25v-342q0 -44 9 -82q9 -36 26 -63q21 -31 54 -48q32 -16 76 -16t80 15t60 45q23 28 35 65q12 38 12 84v341q0 20 -4 29q-5 11 -13 18q-7 4 -20 9q-12 5 -30 6q-11 1 -24 3t-30 3v16h230v-16q-13 -1 -24 -3t-18 -3q-15 -3 -21 -7
q-8 -4 -12 -12q-5 -6 -6 -16q-2 -14 -2 -25v-358q0 -62 -21 -113q-21 -52 -61 -87q-37 -34 -90 -52q-52 -18 -114 -18q-66 0 -123 17q-55 16 -96 48q-44 36 -66 88q-23 54 -23 118v358v24q0 6 -2 14q-3 10 -9 14t-18 9q-10 2 -16 3q-10 2 -22 3v16h357v-16l-23 -3
q-6 -1 -16 -3q-12 -5 -17 -9q-7 -5 -8 -12zM569 762h-314v51h314v-51z" />
    <glyph glyph-name="umacron" unicode="&#x16b;" horiz-adv-x="661" 
d="M605 553l-11 -142v-332q0 -16 3 -25t9 -15q6 -4 18 -7q10 -3 26 -3v-14l-260 -34h-4l3 109q-15 -22 -36 -43q-20 -20 -40 -33q-25 -16 -51 -24q-27 -8 -53 -8q-37 0 -67 12q-31 12 -50 36q-18 22 -27 54q-9 31 -9 70v263q0 17 -3 27q-3 12 -7 18q-7 9 -15 14
q-10 7 -24 11v10l258 52h4l-6 -132v-254q0 -37 17 -57q16 -19 51 -19q15 0 32 5q15 4 29 14v315q0 17 -3 27q-3 12 -7 18q-7 9 -15 14q-10 7 -24 11v10l258 52h4zM469 624h-294v51h294v-51z" />
    <glyph glyph-name="Ubreve" unicode="&#x16c;" horiz-adv-x="753" 
d="M302 658l-6 -2q-2 -6 -3 -15q-1 -6 -1 -25v-342q0 -44 9 -82q9 -36 26 -63q21 -31 54 -48q32 -16 76 -16t80 15t60 45q23 28 35 65q12 38 12 84v341q0 20 -4 29q-5 11 -13 18q-7 4 -20 9q-12 5 -30 6q-11 1 -24 3t-30 3v16h230v-16q-13 -1 -24 -3t-18 -3q-15 -3 -21 -7
q-8 -4 -12 -12q-5 -6 -6 -16q-2 -14 -2 -25v-358q0 -62 -21 -113q-21 -52 -61 -87q-37 -34 -90 -52q-52 -18 -114 -18q-66 0 -123 17q-55 16 -96 48q-44 36 -66 88q-23 54 -23 118v358v24q0 6 -2 14q-3 10 -9 14t-18 9q-10 2 -16 3q-10 2 -22 3v16h357v-16l-23 -3
q-6 -1 -16 -3q-12 -5 -17 -9q-7 -5 -8 -12zM532 786h2q-21 -23 -50 -35q-28 -12 -63 -12t-63 12q-29 12 -50 35q-22 23 -32 53q-11 31 -11 63h4q8 -17 24 -29q17 -13 41 -20q18 -6 40 -9q23 -3 46 -3q24 0 46 3t40 9q24 7 41 20q16 12 24 29h4q0 -32 -11 -63
q-10 -30 -32 -53z" />
    <glyph glyph-name="ubreve" unicode="&#x16d;" horiz-adv-x="661" 
d="M605 553l-11 -142v-332q0 -16 3 -25t9 -15q6 -4 18 -7q10 -3 26 -3v-14l-260 -34h-4l3 109q-15 -22 -36 -43q-20 -20 -40 -33q-25 -16 -51 -24q-27 -8 -53 -8q-37 0 -67 12q-31 12 -50 36q-18 22 -27 54q-9 31 -9 70v263q0 17 -3 27q-3 12 -7 18q-7 9 -15 14
q-10 7 -24 11v10l258 52h4l-6 -132v-254q0 -37 17 -57q16 -19 51 -19q15 0 32 5q15 4 29 14v315q0 17 -3 27q-3 12 -7 18q-7 9 -15 14q-10 7 -24 11v10l258 52h4zM444 636l-4 -1q-20 -25 -48 -39q-27 -13 -66 -13q-36 0 -66 14q-28 13 -48 39q-16 21 -25 54q-9 32 -9 71h5
q13 -38 50 -58q35 -19 95 -19t95 19q37 20 50 58h5q0 -39 -9 -71q-9 -33 -25 -54z" />
    <glyph glyph-name="Uring" unicode="&#x16e;" horiz-adv-x="753" 
d="M302 658l-6 -2q-2 -6 -3 -15q-1 -6 -1 -25v-342q0 -44 9 -82q9 -36 26 -63q21 -31 54 -48q32 -16 76 -16t80 15t60 45q23 28 35 65q12 38 12 84v341q0 20 -4 29q-5 11 -13 18q-7 4 -20 9q-12 5 -30 6q-11 1 -24 3t-30 3v16h230v-16q-13 -1 -24 -3t-18 -3q-15 -3 -21 -7
q-8 -4 -12 -12q-5 -6 -6 -16q-2 -14 -2 -25v-358q0 -62 -21 -113q-21 -52 -61 -87q-37 -34 -90 -52q-52 -18 -114 -18q-66 0 -123 17q-55 16 -96 48q-44 36 -66 88q-23 54 -23 118v358v24q0 6 -2 14q-3 10 -9 14t-18 9q-10 2 -16 3q-10 2 -22 3v16h357v-16l-23 -3
q-6 -1 -16 -3q-12 -5 -17 -9q-7 -5 -8 -12zM492 915q17 -16 26 -36q9 -21 9 -44t-9 -44q-9 -20 -26 -36q-16 -16 -38 -24t-45 -8t-45 8t-38 24q-17 16 -26 36q-9 21 -9 44t9 44q9 20 26 36q16 16 38 24t45 8t45 -8t38 -24zM473 771l-2 -4q14 12 20 29q6 16 6 35q0 18 -6 35
q-7 18 -19 29q-14 12 -30 18t-36 6t-36 -6t-30 -18q-13 -12 -19 -28q-6 -17 -6 -34t6 -34q5 -15 20 -28q13 -12 30 -18t36 -6t36 6t30 18z" />
    <glyph glyph-name="uring" unicode="&#x16f;" horiz-adv-x="661" 
d="M605 553l-11 -142v-332q0 -16 3 -25t9 -15q6 -4 18 -7q10 -3 26 -3v-14l-260 -34h-4l3 109q-15 -22 -36 -43q-20 -20 -40 -33q-25 -16 -51 -24q-27 -8 -53 -8q-37 0 -67 12q-31 12 -50 36q-18 22 -27 54q-9 31 -9 70v263q0 17 -3 27q-3 12 -7 18q-7 9 -15 14
q-10 7 -24 11v10l258 52h4l-6 -132v-254q0 -37 17 -57q16 -19 51 -19q15 0 32 5q15 4 29 14v315q0 17 -3 27q-3 12 -7 18q-7 9 -15 14q-10 7 -24 11v10l258 52h4zM394 599l-2 -3q-14 -14 -33 -21q-18 -7 -42 -7q-21 0 -42 8q-19 8 -33 21q-17 15 -24 34q-8 21 -8 42t8 42
q8 20 23 35q15 13 35 21q21 8 42 8q24 0 42 -7q20 -8 35 -21q16 -16 23 -34q8 -21 8 -42t-8 -42q-7 -19 -24 -34zM257 613v-1q11 -10 27 -16q15 -6 32 -6t32 6q14 6 27 17q11 11 17 26t6 32t-6 32t-17 26t-26 17t-33 6t-33 -6t-26 -17t-17 -26t-6 -32t6 -32t17 -26z" />
    <glyph glyph-name="Uhungarumlaut" unicode="&#x170;" horiz-adv-x="753" 
d="M302 658l-6 -2q-2 -6 -3 -15q-1 -6 -1 -25v-342q0 -44 9 -82q9 -36 26 -63q21 -31 54 -48q32 -16 76 -16t80 15t60 45q23 28 35 65q12 38 12 84v341q0 20 -4 29q-5 11 -13 18q-7 4 -20 9q-12 5 -30 6q-11 1 -24 3t-30 3v16h230v-16q-13 -1 -24 -3t-18 -3q-15 -3 -21 -7
q-8 -4 -12 -12q-5 -6 -6 -16q-2 -14 -2 -25v-358q0 -62 -21 -113q-21 -52 -61 -87q-37 -34 -90 -52q-52 -18 -114 -18q-66 0 -123 17q-55 16 -96 48q-44 36 -66 88q-23 54 -23 118v358v24q0 6 -2 14q-3 10 -9 14t-18 9q-10 2 -16 3q-10 2 -22 3v16h357v-16l-23 -3
q-6 -1 -16 -3q-12 -5 -17 -9q-7 -5 -8 -12zM294 739l48 149h162v-4l-203 -145h-7zM482 739l48 149h162v-4l-203 -145h-7z" />
    <glyph glyph-name="uhungarumlaut" unicode="&#x171;" horiz-adv-x="661" 
d="M605 553l-11 -142v-332q0 -16 3 -25t9 -15q6 -4 18 -7q10 -3 26 -3v-14l-260 -34h-4l3 109q-15 -22 -36 -43q-20 -20 -40 -33q-25 -16 -51 -24q-27 -8 -53 -8q-37 0 -67 12q-31 12 -50 36q-18 22 -27 54q-9 31 -9 70v263q0 17 -3 27q-3 12 -7 18q-7 9 -15 14
q-10 7 -24 11v10l258 52h4l-6 -132v-254q0 -37 17 -57q16 -19 51 -19q15 0 32 5q15 4 29 14v315q0 17 -3 27q-3 12 -7 18q-7 9 -15 14q-10 7 -24 11v10l258 52h4zM192 583l48 179h162v-4l-203 -175h-7zM380 583l48 179h162v-4l-203 -175h-7z" />
    <glyph glyph-name="Uogonek" unicode="&#x172;" horiz-adv-x="753" 
d="M302 658l-9 -1q-1 -6 -3 -15q-1 -6 -1 -25v-342q0 -45 9 -82q9 -36 26 -63q21 -32 54 -48q32 -16 76 -16t80 15t60 45q23 28 35 65t12 84v341q0 20 -4 29q-5 11 -13 18q-7 4 -20 9q-12 4 -30 6q-10 2 -24 3t-30 3v16h230v-16q-14 -2 -24 -3t-18 -3q-15 -3 -21 -7
q-7 -5 -12 -12q-5 -6 -6 -16q-2 -14 -2 -25v-358q0 -45 -10 -81q-11 -37 -30 -69q-18 -31 -50 -58q-28 -24 -68 -40q-19 -10 -33 -21q-15 -12 -23 -21q-12 -15 -18 -31q-6 -17 -6 -34q0 -11 3 -22q3 -10 11 -18q7 -7 17 -12q8 -4 21 -4q19 0 34 6q16 6 27 19l4 -5
q-27 -43 -60 -66q-32 -22 -70 -22q-20 0 -36 6q-15 6 -30 17q-14 12 -21 27q-7 14 -7 35q0 41 37 74q38 34 108 59q-15 -3 -40 -7q-21 -3 -43 -3q-66 0 -123 17q-55 16 -96 48q-44 36 -66 88q-23 54 -23 118v358v24q0 6 -2 14q-3 10 -9 14t-18 9q-10 2 -16 3q-10 2 -22 3v16
h357v-16l-23 -3q-6 -1 -16 -3q-12 -5 -17 -9q-7 -5 -8 -12z" />
    <glyph glyph-name="uogonek" unicode="&#x173;" horiz-adv-x="661" 
d="M351 -217l-8 -13q-19 0 -36 6q-16 6 -29 17q-14 11 -21 27q-7 15 -7 36q0 40 33 72t100 54l3 107q-15 -22 -36 -43q-20 -20 -40 -33q-26 -17 -51 -24q-27 -8 -53 -8q-37 0 -67 12q-31 12 -50 36q-18 23 -27 54t-9 70v263q0 16 -3 27q-3 12 -7 18q-7 9 -15 14
q-10 7 -24 11v10l258 52h4l-6 -132v-254q0 -37 17 -57q16 -19 51 -19q15 0 32 5q15 4 29 14v315q0 16 -3 27q-3 12 -7 18q-7 9 -15 14q-10 7 -24 11v10l258 52h4l-6 -132v-332q0 -16 3 -25t9 -15q6 -4 18 -7q10 -3 26 -3v-14l-180 -23q-25 -3 -43 -9q-17 -6 -32 -14
q-18 -10 -27 -27t-9 -39q0 -14 3 -24t11 -18q8 -10 18 -14q12 -5 23 -5q19 0 34 6q16 6 27 19l4 -5q-27 -43 -60 -66q-32 -22 -70 -22z" />
    <glyph glyph-name="Wcircumflex" unicode="&#x174;" horiz-adv-x="1017" 
d="M789 261l110 318q5 13 6 21q1 5 3 13q5 16 5 18q2 10 2 15q0 14 -10 23q-10 8 -33 13q-10 2 -24 3t-36 3v16h208v-16q-18 -2 -29 -7q-12 -6 -22 -16q-8 -8 -15 -19t-15 -29l-226 -619h-34l-170 426l-156 -426h-34l-260 631q-12 21 -13 23q-6 9 -12 15q-7 7 -17 12
q-7 4 -24 7v16h358v-16q-15 -2 -22 -4q-6 -2 -16 -6q-11 -4 -15 -12q-5 -8 -5 -18q0 -12 3 -25q4 -17 10 -33l124 -327l68 196l-68 170l-12 24q-1 2 -3.5 6t-3.5 6q-8 10 -15 14q-9 6 -19 8v16h361v-16q-15 -1 -28 -3q-11 -1 -20 -5q-16 -5 -24 -12q-7 -7 -7 -18t3 -25
q4 -17 10 -33zM477 892h136l118 -149h-6l-180 65l-180 -65h-6z" />
    <glyph glyph-name="wcircumflex" unicode="&#x175;" horiz-adv-x="865" 
d="M692 543l179 -6v-14q-17 -3 -27 -9q-11 -6 -18 -16q-7 -7 -13 -19q-3 -6 -13 -28l-187 -460h-39l-138 328l-133 -328h-39l-212 472q-5 11 -12 25q-5 9 -11 14q-6 8 -15 12q-8 4 -23 9v14h299v-14q-10 -2 -14 -4q-6 -3 -10 -7q-5 -5 -6 -10q-2 -8 -2 -13q0 -3 2 -13
q1 -7 6 -16l104 -251l55 140l-48 114q-8 20 -10 24q-5 9 -9 15q-6 9 -14 14q-9 5 -20 8v14h318v-14q-14 -2 -24 -3q-12 -2 -18 -4q-13 -5 -19 -10q-6 -6 -6 -15v-6q0 -2 2 -8l2 -4l3 -9l95 -251l92 240q5 8 6 15q2 10 2 15q0 13 -8 23t-24 14q-11 4 -22 5q-15 2 -31 3v14z
M402 766h136l118 -179h-6l-180 90l-180 -90h-6z" />
    <glyph glyph-name="Ycircumflex" unicode="&#x176;" horiz-adv-x="724" 
d="M471 355l117 219q13 23 17 37q5 18 5 30q0 14 -10 23q-11 10 -33 14l-26 3q-16 2 -37 3v16h220v-16q-17 -2 -28 -7q-14 -7 -23 -16q-8 -8 -15 -19l-18 -28l-167 -298v-240q0 -11 2 -23q1 -9 6 -15q5 -8 12 -12q6 -4 21 -7q6 -1 15 -3t24 -3v-16h-372v16q15 1 25 3
q6 1 16 3q13 2 20 6t12 11q4 6 6 15q2 12 2 24v235l-202 315l-17 26q-5 7 -9 12q-8 9 -17 14q-9 4 -23 6v16h390v-16q-18 -2 -29 -3q-12 -2 -21 -3q-16 -5 -24 -12q-8 -8 -8 -19q0 -9 5 -22q3 -9 17 -31zM332 887h136l118 -149h-6l-180 65l-180 -65h-6z" />
    <glyph glyph-name="ycircumflex" unicode="&#x177;" horiz-adv-x="588" 
d="M294 -38l8 12l-251 489q-8 16 -14 26q-5 7 -9 12q-8 7 -15 12q-7 4 -23 9v14h342v-14q-14 -2 -24 -3q-12 -2 -18 -4q-14 -5 -19 -10q-6 -6 -6 -15q0 -3 2 -13q1 -7 6 -16l117 -269l95 246q1 3 3 8t3 9t2 7q3 10 3 21q0 12 -8 22t-24 14q-13 4 -24 5q-15 2 -31 3v14h186
v-14q-17 -3 -27 -9q-12 -7 -20 -16q-7 -7 -13 -19q-3 -6 -13 -28l-216 -516q-17 -40 -28 -60q-14 -25 -27 -45q-24 -31 -46 -44q-25 -14 -53 -14q-14 0 -27 3q-12 3 -24 11q-13 8 -20 18q-8 11 -12 22v69l26 -6q7 -2 19 -4l24 -3q8 -1 24 -1q29 0 45 4q19 5 33 13
q16 9 30 24t24 36zM285 766h136l118 -179h-6l-180 90l-180 -90h-6z" />
    <glyph glyph-name="Ydieresis" unicode="&#x178;" horiz-adv-x="724" 
d="M471 355l117 219q13 23 17 37q5 18 5 30q0 14 -10 23q-11 10 -33 14l-26 3q-16 2 -37 3v16h220v-16q-17 -2 -28 -7q-14 -7 -23 -16q-8 -8 -15 -19l-18 -28l-167 -298v-240q0 -11 2 -23q1 -9 6 -15q5 -8 12 -12q6 -4 21 -7q6 -1 15 -3t24 -3v-16h-372v16q15 1 25 3
q6 1 16 3q13 2 20 6t12 11q4 6 6 15q2 12 2 24v235l-202 315l-17 26q-5 7 -9 12q-8 9 -17 14q-9 4 -23 6v16h390v-16q-18 -2 -29 -3q-12 -2 -21 -3q-16 -5 -24 -12q-8 -8 -8 -19q0 -9 5 -22q3 -9 17 -31zM353 764v-2q-12 -11 -30 -19q-15 -7 -34 -7t-34 7q-18 8 -30 19
q-11 11 -19 29q-7 15 -7 33t7 33q8 18 19 29q12 11 30 19q15 7 34 7t34 -7q18 -8 30 -19q11 -11 19 -28q7 -15 7 -33t-7 -33q-8 -16 -19 -28zM563 762v-2q-12 -11 -30 -19q-15 -7 -34 -7t-34 7q-18 8 -30 19q-11 11 -19 29q-7 15 -7 33t7 33q8 18 19 29q12 11 30 19
q15 7 34 7t34 -7q18 -8 30 -19q11 -11 19 -28q7 -15 7 -33t-7 -33q-8 -16 -19 -28z" />
    <glyph glyph-name="Zacute" unicode="&#x179;" horiz-adv-x="633" 
d="M367 682l-111 -1q-30 0 -54 -6q-23 -6 -43 -18q-19 -10 -36 -29q-14 -16 -31 -44q-9 -16 -21 -41q-11 -23 -21 -51h-12l5 209h569v-10l-368 -672h138q32 0 57 9q26 9 48 28q18 15 36 36q17 20 36 53q16 25 26 45q13 26 27 57h12l-38 -247h-586v9zM305 889h237v-4
l-260 -145h-4z" />
    <glyph glyph-name="zacute" unicode="&#x17a;" horiz-adv-x="532" 
d="M507 0l-502 -1v10l289 512h-68q-34 0 -63 -15q-28 -15 -54 -47q-19 -23 -35 -51q-20 -37 -35 -70h-8l14 236h6l32 -32h439v-10l-283 -512h92q32 0 60 16q29 17 57 49q17 20 36 50q16 26 39 68h8zM279 771h237v-4l-278 -175h-6z" />
    <glyph glyph-name="Zdotaccent" unicode="&#x17b;" horiz-adv-x="633" 
d="M367 682l-111 -1q-30 0 -54 -6q-23 -6 -43 -18q-19 -10 -36 -29q-14 -16 -31 -44q-9 -16 -21 -41q-11 -23 -21 -51h-12l5 209h569v-10l-368 -672h138q32 0 57 9q26 9 48 28q18 15 36 36q17 20 36 53q16 25 26 45q13 26 27 57h12l-38 -247h-586v9zM408 767v-4
q-14 -13 -33 -21q-18 -7 -42 -7t-42 7q-19 8 -33 21q-16 14 -23 33q-8 21 -8 40t8 40q7 19 23 33q14 13 33 21q18 7 42 7t42 -7q19 -8 33 -21q15 -14 23 -32q8 -19 8 -39t-8 -39q-8 -18 -23 -32z" />
    <glyph glyph-name="zdotaccent" unicode="&#x17c;" horiz-adv-x="532" 
d="M507 0l-502 -1v10l289 512h-68q-34 0 -63 -15q-28 -15 -54 -47q-19 -23 -35 -51q-20 -37 -35 -70h-8l14 236h6l32 -32h439v-10l-283 -512h92q32 0 60 16q29 17 57 49q17 20 36 50q16 26 39 68h8zM374 616v-4q-14 -14 -33 -21q-18 -7 -42 -7t-42 7q-19 7 -33 21
q-16 14 -23 33q-8 21 -8 40t8 40q7 19 23 33q14 14 33 21q18 7 42 7t42 -7q19 -7 33 -21q15 -14 23 -32q8 -19 8 -39t-8 -39q-8 -18 -23 -32z" />
    <glyph glyph-name="Zcaron" unicode="&#x17d;" horiz-adv-x="633" 
d="M367 682l-111 -1q-30 0 -54 -6q-23 -6 -43 -18q-19 -10 -36 -29q-14 -16 -31 -44q-9 -16 -21 -41q-11 -23 -21 -51h-12l5 209h569v-10l-368 -672h138q32 0 57 9q26 9 48 28q18 15 36 36q17 20 36 53q16 25 26 45q13 26 27 57h12l-38 -247h-586v9zM520 889l-118 -149h-136
l-118 149h6l180 -65l180 65h6z" />
    <glyph glyph-name="zcaron" unicode="&#x17e;" horiz-adv-x="532" 
d="M507 0l-502 -1v10l289 512h-68q-34 0 -63 -15q-28 -15 -54 -47q-19 -23 -35 -51q-20 -37 -35 -70h-8l14 236h6l32 -32h439v-10l-283 -512h92q32 0 60 16q29 17 57 49q17 20 36 50q16 26 39 68h8zM486 771l-118 -179h-136l-118 179h6l180 -90l180 90h6z" />
    <glyph glyph-name="florin" unicode="&#x192;" horiz-adv-x="554" 
d="M57 -166l-3 -2q16 0 27 15q11 16 14 45l42 425h-81l4 22h79l5 51q17 160 82 239q66 80 182 80q31 0 52 -4q26 -5 42 -13q24 -10 36 -30t12 -45q0 -11 -3 -22t-10 -19q-8 -10 -16 -15q-7 -5 -21 -10h-73q3 14 7 42q3 23 2 39q0 32 -9 48q-9 17 -25 17t-27 -15t-15 -46
l-36 -296h125l-4 -22h-124l-15 -122q-5 -39 -14 -91q-7 -41 -18 -76q-14 -49 -33 -87q-20 -39 -43 -63q-28 -31 -66 -46t-84 -15q-25 0 -52 5q-22 4 -42 14q-24 11 -36 30t-12 45q0 12 3 23q3 10 11 20q7 8 17 15q7 5 21 10h73q-3 -14 -7 -42q-3 -19 -1 -39q0 -31 9 -48
t25 -17z" />
    <glyph glyph-name="AEacute" unicode="&#x1fc;" horiz-adv-x="1018" 
d="M118 65l-6 -3q0 -24 24 -36q23 -11 76 -13v-16h-223v16q19 1 33 6q13 4 24 14q11 8 20 20q14 19 20 28l342 559q-9 20 -36 30t-72 12v16h648l5 -199h-12q-18 43 -36 75q-19 33 -37 51q-26 27 -57 39t-75 12h-86v-310h83q26 0 45 8t29 24q9 14 15 33q5 16 10 51h14v-246
h-14q-5 35 -10 51q-6 19 -15 33q-10 16 -29 24t-45 8h-83v-265q0 -18 5 -33q5 -14 15 -21q8 -7 23 -10q13 -3 36 -3h22q39 0 75 17q34 17 66 51q20 24 42 59q18 28 43 80h12l-33 -227h-591v16l23 3q6 1 16 3q12 5 17 9q7 5 8 12q1 6 3 15q1 6 1 25v204h-211l-104 -170
q-10 -18 -15 -30q-5 -13 -5 -22zM448 306v325l-198 -325h198zM605 887h237v-4l-260 -145h-4z" />
    <glyph glyph-name="aeacute" unicode="&#x1fd;" horiz-adv-x="811" 
d="M795 190l1 -7q-8 -46 -28 -82q-21 -37 -54 -63q-32 -26 -72 -39q-39 -13 -87 -13q-32 0 -62 6q-28 6 -57 20q-27 13 -52 33q-24 19 -42 45q-16 -23 -38 -42q-21 -18 -45 -30q-24 -13 -52 -19q-27 -6 -57 -6t-57 9q-25 8 -46 26q-22 18 -34 43t-12 55q0 32 12 56
q12 25 36 44q19 16 43 27q29 13 60 23l148 49q4 16 8 29q4 12 6 17q2 29 -1 50q-4 30 -7 45q-8 35 -22 52q-15 18 -34 18q-24 0 -37 -24q-13 -23 -13 -67q0 -19 3 -45q3 -22 8 -42l-130 -16q-11 4 -21 12t-18 18q-7 8 -10 21q-3 12 -3 25q0 35 22 63t64 46q30 14 67 21
q35 7 76 7q52 0 93 -12q39 -12 69 -35q34 23 71 35t78 12q50 0 92 -15q43 -15 72 -43q31 -29 47 -69q17 -42 17 -89v-6h-320q1 -45 12 -81q10 -35 29 -63q23 -32 55 -48t75 -16q45 0 84 17q38 16 63 48zM611 453l3 -2q-7 39 -23 59q-15 20 -36 20q-22 0 -39 -20
q-16 -20 -27 -57q-6 -23 -9 -49q-2 -20 -4 -58h145q0 32 -3 59q-4 32 -7 48zM220 251l1 1q-11 -14 -15 -31q-4 -16 -4 -40q0 -19 5 -39q4 -16 14 -31q10 -16 26 -24t35 -8q15 0 30 5q13 4 26 14q-20 30 -31 71q-10 37 -10 84v24q0 9 2 23l-19 -7q-21 -7 -36 -18t-24 -24z
M398 766h237v-4l-278 -175h-6z" />
    <glyph glyph-name="Oslashacute" unicode="&#x1fe;" horiz-adv-x="748" 
d="M198 663l-1 -3q42 24 89 36q46 12 96 12q63 0 115 -16q53 -16 97 -48l69 89l16 -13l-69 -89q29 -25 51 -55q21 -30 37 -66q14 -34 21 -72q8 -40 8 -76q0 -51 -12 -99q-12 -50 -34 -90q-24 -43 -57 -78t-75 -60q-42 -24 -89 -36q-46 -12 -96 -12q-58 0 -109 15
q-49 14 -94 44l-77 -100l-16 13l77 100q-31 25 -54 55t-40 69q-16 36 -23 74q-8 42 -8 79q0 51 12 99q12 50 34 90q24 43 57 78t75 60zM368 695l-1 -1q-37 0 -63 -36t-39 -106q-7 -39 -12 -87q-4 -43 -4 -103q0 -28 2 -80q1 -38 6 -76l230 298q-14 96 -43 143q-30 48 -76 48
zM480 142q8 39 12 87q4 43 4 103q0 53 -1 77q-1 36 -6 66l-229 -297q15 -88 45 -133t73 -45q38 0 63 36q26 36 39 106zM358 886h237v-4l-260 -145h-4z" />
    <glyph glyph-name="oslashacute" unicode="&#x1ff;" horiz-adv-x="612" 
d="M160 515l-2 -3q33 20 69 29q38 9 77 9q47 0 86 -10q40 -10 75 -30l58 79l18 -12l-58 -79q28 -20 48 -43q22 -25 35 -53q14 -27 21 -58q7 -29 7 -66q0 -40 -9 -78q-9 -37 -27 -70q-20 -34 -46 -60t-61 -46q-30 -19 -69 -28q-38 -9 -76 -9q-45 0 -87 11q-41 10 -75 30
l-59 -80l-18 12l58 80q-28 20 -48 43t-34 52q-14 30 -20 60q-6 31 -6 66q0 41 9 78t27 70q20 34 46 60t61 46zM239 438l-1 2q-2 -17 -4 -54q-1 -21 -1 -72q0 -41 1 -61q1 -27 3 -55l133 181q-8 81 -25 119q-18 39 -45 39q-24 0 -39 -24q-14 -23 -22 -75zM308 3l-4 -3
q24 0 39 24q14 23 22 75q4 28 5 54q2 42 2 72v63q0 21 -2 57l-133 -181q7 -79 26 -121q18 -40 45 -40zM282 768h237v-4l-278 -175h-6z" />
    <glyph glyph-name="Scommaaccent" unicode="&#x218;" horiz-adv-x="582" 
d="M439 626l1 -1q-28 34 -61 52t-71 18q-24 0 -45 -6t-37 -19q-17 -14 -26 -33t-9 -43q0 -18 6 -33q5 -13 20 -28q11 -9 24 -18q15 -10 33 -17q10 -4 24 -9q10 -3 40 -15q39 -14 51 -19l30 -13q27 -12 41 -22q20 -13 32 -24q18 -16 31 -34q14 -19 21 -37q8 -19 12 -42
q4 -20 4 -46q0 -39 -10 -72q-11 -36 -31 -63q-19 -28 -48 -51q-28 -22 -64 -37q-32 -14 -67 -21q-34 -7 -73 -7q-33 0 -61 4q-34 5 -60 13q-34 9 -61 22q-30 14 -48 28l-12 185h11q11 -44 31 -85q21 -42 49 -73q33 -38 72 -57q40 -20 83 -20q27 0 48 7q23 8 39 21
q19 13 30 35q10 20 10 47q0 23 -6 41q-6 19 -19 33q-11 15 -27 26q-18 13 -39 23q-12 6 -27 12l-47 18l-46 18q-15 6 -27 12q-17 7 -37 20q-17 10 -30 21q-15 12 -28 30q-11 16 -19 34q-7 15 -10 36q-3 19 -3 42q0 53 21 96t60 75q37 29 85 46q47 16 100 16q59 0 113 -15
q52 -14 97 -44l4 -167h-10q-10 44 -25 77q-16 36 -39 63zM288 -200l-1 -3q7 11 12 21q4 10 6 20h-66q-17 7 -28 23q-10 14 -10 33q0 16 7 29q8 14 21 23q11 10 26 14q17 5 32 5q19 0 36 -6t30 -18t21 -29q7 -15 7 -36q0 -28 -15 -54q-15 -25 -43 -43q-23 -13 -51 -21
q-27 -7 -63 -7v8q10 1 23 5q10 3 21 9q9 4 19 12q6 5 16 15z" />
    </font>
</defs>
</svg>
