<?xml version="1.0" standalone="no"?>
<!DOCTYPE svg PUBLIC "-//W3C//DTD SVG 1.1//EN" "http://www.w3.org/Graphics/SVG/1.1/DTD/svg11.dtd" >
<svg xmlns="http://www.w3.org/2000/svg" xmlns:xlink="http://www.w3.org/1999/xlink" version="1.1">
<metadata>
Created by FontForge 20170731 at Wed Oct  9 22:26:26 2019
 By Aleksey,,,
Copyright 2020, Kris Sowersby, Klim Type Foundry.
</metadata>
<defs>
<font id="Sohne-Dreiviertelfett" horiz-adv-x="380" >
  <font-face 
    font-family="Copyright Klim Type Foundry"
    font-weight="700"
    font-stretch="normal"
    units-per-em="1000"
    panose-1="2 11 8 3 3 2 2 6 2 3"
    ascent="780"
    descent="-220"
    x-height="527"
    cap-height="718"
    bbox="-217 -214 1000 1020"
    underline-thickness="116"
    underline-position="-364"
    unicode-range="U+000D-F6C3"
  />
<missing-glyph horiz-adv-x="600" 
d="M0 0v718h600v-718h-600zM132 242l51 -51l117 117l118 -117l50 51l-116 118l116 117l-50 51l-118 -117l-117 117l-51 -51l117 -117z" />
    <glyph glyph-name="f_idieresis" unicode="f&#xef;" horiz-adv-x="602" 
d="M304 727q25 0 55 -3.5t54 -8.5v-124q-36 5 -58 7t-40 2q-44 0 -63.5 -14t-19.5 -43v-16h97v-132h-97v-395h-160v395h-68v132h68v22q0 87 59 132.5t173 45.5zM645 581h-152v137h152v-137zM389 527h160v-527h-160v527z" />
    <glyph glyph-name=".notdef" horiz-adv-x="600" 
d="M0 0v718h600v-718h-600zM132 242l51 -51l117 117l118 -117l50 51l-116 118l116 117l-50 51l-118 -117l-117 117l-51 -51l117 -117z" />
    <glyph glyph-name=".null" horiz-adv-x="0" 
 />
    <glyph glyph-name="uni000D" unicode="&#xd;" horiz-adv-x="199" 
 />
    <glyph glyph-name="space" unicode=" " horiz-adv-x="199" 
 />
    <glyph glyph-name="exclam" unicode="!" horiz-adv-x="250" 
d="M187 232h-124l-37 486h198zM217 0h-184v175h184v-175z" />
    <glyph glyph-name="quotedbl" unicode="&#x22;" horiz-adv-x="423" 
d="M163 414h-111l-34 304h178zM371 414h-111l-34 304h178z" />
    <glyph glyph-name="numbersign" unicode="#" horiz-adv-x="701" 
d="M205 0h-135l42 178h-86v118h114l31 126h-117v118h145l42 178h136l-43 -178h118l43 178h136l-42 -178h86v-118h-114l-30 -126h117v-118h-145l-42 -178h-138l43 178h-118zM306 422l-30 -126h118l30 126h-118z" />
    <glyph glyph-name="dollar" unicode="$" horiz-adv-x="610" 
d="M-2 124l97 112q32 -44 74 -71t92 -36v177q-59 11 -94.5 23.5t-61.5 29.5q-36 24 -54 59t-18 83q0 88 62 147t166 73v97h107v-97q74 -9 133 -39t91 -76l-96 -109q-24 34 -56.5 57.5t-71.5 34.5v-165q59 -11 96 -23.5t62 -30.5q36 -24 53.5 -60t17.5 -85q0 -89 -62 -150.5
t-167 -77.5v-99h-107v97q-85 8 -155 42t-108 87zM181 515q0 -25 18.5 -41.5t61.5 -28.5v148q-38 -7 -59 -27.5t-21 -50.5zM454 212q0 26 -20 43.5t-66 29.5v-157q43 8 64.5 29t21.5 55z" />
    <glyph glyph-name="percent" unicode="%" horiz-adv-x="788" 
d="M181 348q-74 0 -116 51t-42 139t42.5 139.5t115.5 51.5t115 -51.5t42 -139.5t-42 -139t-115 -51zM570 718h127l-479 -718h-126zM181 634q-22 0 -33.5 -25t-11.5 -71t11.5 -71t33.5 -25q21 0 32.5 25t11.5 71t-11.5 71t-32.5 25zM608 370q73 0 115 -51t42 -139t-42 -139.5
t-115 -51.5q-74 0 -116 51.5t-42 139.5t42 139t116 51zM608 276q-22 0 -33.5 -25t-11.5 -71t11.5 -71t33.5 -25q21 0 32.5 25t11.5 71t-11.5 71t-32.5 25z" />
    <glyph glyph-name="ampersand" unicode="&#x26;" horiz-adv-x="721" 
d="M542 397l148 -25q-8 -60 -32 -118t-62 -107l149 -147h-202l-52 51q-47 -31 -101.5 -46.5t-113.5 -15.5q-116 0 -187.5 55t-71.5 146q0 61 32.5 107.5t103.5 86.5q-37 40 -53 75t-16 73q0 44 18.5 81.5t52.5 64.5q32 25 72.5 38t86.5 13q43 0 80.5 -11.5t67.5 -32.5
q33 -25 51 -60t18 -74q0 -59 -34 -100.5t-121 -84.5l118 -118q18 32 30.5 70t17.5 79zM315 615q-33 0 -54.5 -20.5t-21.5 -52.5q0 -20 9.5 -38.5t44.5 -55.5q56 25 75.5 45.5t19.5 52.5q0 29 -21 49t-52 20zM178 209q0 -42 31 -67.5t81 -25.5q29 0 55.5 7t50.5 21l-159 156
q-31 -18 -45 -40t-14 -51z" />
    <glyph glyph-name="quotesingle" unicode="'" horiz-adv-x="215" 
d="M163 414h-111l-34 304h178z" />
    <glyph glyph-name="parenleft" unicode="(" horiz-adv-x="357" 
d="M202 320q0 -111 41 -221t114 -197h-148q-87 88 -134 195.5t-47 222.5t47 222.5t134 195.5h148q-73 -88 -114 -197.5t-41 -220.5z" />
    <glyph glyph-name="parenright" unicode=")" horiz-adv-x="357" 
d="M155 320q0 111 -41 220.5t-114 197.5h148q87 -88 134 -195.5t47 -222.5t-47 -222.5t-134 -195.5h-148q73 87 114 197t41 221z" />
    <glyph glyph-name="asterisk" unicode="*" horiz-adv-x="462" 
d="M400 379l-85 -61l-84 116l-84 -116l-85 61l85 116l-137 44l33 99l136 -43v143h104v-143l137 43l32 -99l-137 -44z" />
    <glyph glyph-name="plus" unicode="+" horiz-adv-x="608" 
d="M569 409v-127h-202v-202h-126v202h-203v127h203v203h126v-203h202z" />
    <glyph glyph-name="comma" unicode="," horiz-adv-x="254" 
d="M109 0h-74v179h184v-166q0 -77 -49 -120.5t-135 -44.5v82q37 2 55.5 17.5t18.5 46.5v6z" />
    <glyph glyph-name="hyphen" unicode="-" horiz-adv-x="376" 
d="M336 221h-296v144h296v-144z" />
    <glyph glyph-name="period" unicode="." horiz-adv-x="254" 
d="M219 0h-184v179h184v-179z" />
    <glyph glyph-name="slash" unicode="/" horiz-adv-x="471" 
d="M171 -98h-161l290 836h161z" />
    <glyph glyph-name="zero" unicode="0" horiz-adv-x="646" 
d="M323 -11q-136 0 -215 100t-79 270t79 270t215 100q137 0 216 -100t79 -270t-79 -270t-216 -100zM323 587q-62 0 -94.5 -58.5t-32.5 -169.5t32.5 -169.5t94.5 -58.5q63 0 95.5 58.5t32.5 169.5t-32.5 169.5t-95.5 58.5z" />
    <glyph glyph-name="one" unicode="1" horiz-adv-x="409" 
d="M221 721h127v-721h-166v470h-166v125l60 5q71 5 104.5 32.5t40.5 88.5z" />
    <glyph glyph-name="two" unicode="2" horiz-adv-x="584" 
d="M35 0v122l192 159q44 36 65 54.5t36 34.5q31 32 45.5 60t14.5 56q0 45 -26.5 73t-71.5 28q-44 0 -72 -30.5t-28 -77.5q0 -17 3 -33t8 -32h-158q-7 19 -10 37t-3 39q0 52 21 97t60 78q36 31 83.5 47.5t100.5 16.5q117 0 188 -64t71 -168q0 -67 -38 -129t-128 -134
l-114 -91h283v-143h-522z" />
    <glyph glyph-name="three" unicode="3" horiz-adv-x="586" 
d="M479 42q-36 -26 -82 -39.5t-99 -13.5q-118 0 -194.5 59t-90.5 164l163 26q6 -51 38 -81t81 -30q48 0 77 24.5t29 66.5q0 40 -29.5 61t-86.5 21h-67v133h65q51 0 77.5 20t26.5 58q0 37 -24.5 58.5t-66.5 21.5q-44 0 -74 -28.5t-38 -77.5l-153 18q7 50 30 92.5t60 73.5
q37 29 83 44.5t99 15.5q51 0 94 -13t76 -38q36 -28 55.5 -68t19.5 -88q0 -52 -27 -93.5t-70 -58.5q55 -21 84 -63.5t29 -102.5q0 -48 -22 -90.5t-63 -71.5z" />
    <glyph glyph-name="four" unicode="4" horiz-adv-x="619" 
d="M495 168v-168h-155v168h-330v125l277 425h209v-416h113v-134h-114zM336 569l-172 -267h172v267z" />
    <glyph glyph-name="five" unicode="5" horiz-adv-x="586" 
d="M298 351q-29 0 -52 -11.5t-38 -32.5l-151 18l33 393h426v-143h-299l-12 -132q24 19 54.5 29.5t63.5 10.5q53 0 97 -17.5t76 -50.5q32 -32 48.5 -77t16.5 -97q0 -54 -20.5 -101t-58.5 -82q-37 -34 -85.5 -51.5t-103.5 -17.5q-115 0 -189 58.5t-89 161.5l162 26
q7 -51 37.5 -80t77.5 -29q48 0 80 31.5t32 79.5q0 50 -29.5 82t-76.5 32z" />
    <glyph glyph-name="six" unicode="6" horiz-adv-x="603" 
d="M335 729q92 0 153.5 -41t91.5 -122l-131 -58q-13 42 -43.5 64.5t-73.5 22.5q-64 0 -105.5 -53t-41.5 -133q26 32 67 49.5t88 17.5q50 0 93.5 -17t76.5 -49q33 -33 50.5 -76.5t17.5 -92.5q0 -54 -20 -101.5t-57 -81.5t-85 -51.5t-104 -17.5q-69 0 -124.5 29t-93.5 85
q-32 47 -48.5 109.5t-16.5 134.5q0 77 18.5 143.5t54.5 116.5q41 60 101 91t132 31zM311 121q50 0 83 32.5t33 81.5t-33 82t-82 33t-82.5 -33t-33.5 -82t33 -81.5t82 -32.5z" />
    <glyph glyph-name="seven" unicode="7" horiz-adv-x="570" 
d="M387 578h-235v-108h-142v248h550v-143q-61 -64 -102 -128.5t-64 -135.5q-21 -63 -31 -137.5t-10 -173.5h-170q0 184 49.5 324t154.5 254z" />
    <glyph glyph-name="eight" unicode="8" horiz-adv-x="609" 
d="M135 678q33 25 77 38t93 13t92.5 -13t77.5 -38q37 -28 57 -67.5t20 -86.5q0 -49 -24 -88t-70 -63q58 -21 92.5 -67t34.5 -105q0 -51 -24 -92.5t-68 -70.5q-38 -24 -86 -36.5t-102 -12.5q-124 0 -202 58.5t-78 153.5q0 59 34 105t92 67q-46 24 -70 63t-24 88q0 47 20 86.5
t58 67.5zM207 521q0 -38 27 -61t71 -23t71 23.5t27 60.5t-27 60.5t-71 23.5t-71 -23t-27 -61zM421 214q0 42 -32 68.5t-84 26.5t-84 -26.5t-32 -68.5q0 -44 32 -70.5t84 -26.5t84 27t32 70z" />
    <glyph glyph-name="nine" unicode="9" horiz-adv-x="603" 
d="M268 -11q-92 0 -153.5 41t-91.5 122l131 58q13 -42 43.5 -64.5t73.5 -22.5q64 0 105.5 53t41.5 133q-26 -32 -67 -49.5t-88 -17.5q-50 0 -93.5 17t-76.5 49q-33 33 -50.5 76.5t-17.5 92.5q0 54 20 101.5t57 81.5t85 51.5t104 17.5q69 0 124.5 -29t93.5 -85
q32 -47 48.5 -109.5t16.5 -134.5q0 -77 -18.5 -143.5t-54.5 -116.5q-41 -60 -101 -91t-132 -31zM292 597q-50 0 -83 -32.5t-33 -81.5t33 -82t82 -33t82.5 33t33.5 82t-33 81.5t-82 32.5z" />
    <glyph glyph-name="colon" unicode=":" horiz-adv-x="254" 
d="M219 0h-184v179h184v-179zM219 329h-184v179h184v-179z" />
    <glyph glyph-name="semicolon" unicode=";" horiz-adv-x="254" 
d="M109 0h-74v179h184v-166q0 -77 -49 -120.5t-135 -44.5v82q37 2 55.5 17.5t18.5 46.5v6zM219 329h-184v179h184v-179z" />
    <glyph glyph-name="less" unicode="&#x3c;" horiz-adv-x="608" 
d="M568 37l-528 220v178l528 219v-149l-407 -159l407 -159v-150z" />
    <glyph glyph-name="equal" unicode="=" horiz-adv-x="608" 
d="M569 401h-531v120h531v-120zM569 171h-531v119h531v-119z" />
    <glyph glyph-name="greater" unicode="&#x3e;" horiz-adv-x="608" 
d="M568 435v-178l-528 -220v150l407 159l-407 159v149z" />
    <glyph glyph-name="question" unicode="?" horiz-adv-x="554" 
d="M368 495q0 41 -25 65t-68 24q-45 0 -74 -29t-34 -80l-167 23q7 52 31.5 96t65.5 75q37 30 85 45t104 15q113 0 184 -60.5t71 -158.5q0 -78 -48.5 -133t-124.5 -68v-77h-158l2 168q78 0 117 23.5t39 71.5zM380 0h-183v175h183v-175z" />
    <glyph glyph-name="at" unicode="@" horiz-adv-x="907" 
d="M677 147q22 0 41.5 16.5t31.5 46.5q9 21 13.5 46.5t4.5 55.5q0 119 -76.5 186.5t-210.5 67.5q-70 0 -132.5 -25.5t-109.5 -73.5q-46 -47 -70.5 -109.5t-24.5 -133.5q0 -67 23.5 -121.5t68.5 -92.5q42 -36 99.5 -54.5t125.5 -18.5q72 0 131.5 17t111.5 53l55 -87
q-58 -45 -133 -67.5t-164 -22.5q-91 0 -170 26t-138 75q-63 53 -96 127.5t-33 164.5q0 92 35 175t101 146q64 62 148 95t178 33q80 0 151 -23.5t124 -67.5q58 -48 89 -114.5t31 -144.5q0 -56 -14.5 -104.5t-41.5 -86.5q-32 -43 -77 -66.5t-95 -23.5q-46 0 -80 14.5t-55 42.5
q-19 -26 -52.5 -40.5t-74.5 -14.5q-71 0 -115.5 49t-44.5 128q0 46 14 89t40 78q29 38 68 59t83 21q37 0 66 -14.5t44 -39.5l10 44h134l-46 -257q-5 -27 3 -40t29 -13zM433 154q26 0 44.5 22t27.5 64q6 30 8 42t2 20q0 24 -13.5 39.5t-35.5 15.5q-38 0 -62.5 -38t-24.5 -95
q0 -34 14 -52t40 -18z" />
    <glyph glyph-name="A" unicode="A" horiz-adv-x="733" 
d="M6 0l265 718h191l264 -718h-169l-52 144h-282l-52 -144h-165zM454 282l-91 251l-90 -251h181z" />
    <glyph glyph-name="B" unicode="B" horiz-adv-x="649" 
d="M384 0h-327v718h309q117 0 179 -49.5t62 -143.5q0 -53 -26 -93t-71 -59q55 -20 86.5 -65.5t31.5 -105.5q0 -95 -64.5 -148.5t-179.5 -53.5zM217 581v-151h132q49 0 75 19.5t26 56.5t-25.5 56t-75.5 19h-132zM369 300h-152v-162h152q46 0 72.5 22t26.5 59t-26.5 59
t-72.5 22z" />
    <glyph glyph-name="C" unicode="C" horiz-adv-x="674" 
d="M362 584q-76 0 -123.5 -62t-47.5 -163t47.5 -163t123.5 -62q55 0 93 32.5t51 90.5l157 -52q-35 -104 -112.5 -160t-187.5 -56q-74 0 -138 28t-111 82q-44 50 -67 116.5t-23 143.5t23 143.5t67 116.5q47 54 111 82t138 28q110 0 187.5 -56t112.5 -160l-157 -52
q-13 58 -51 90.5t-93 32.5z" />
    <glyph glyph-name="D" unicode="D" horiz-adv-x="703" 
d="M312 0h-255v718h255q83 0 150.5 -24t116.5 -71q49 -48 74.5 -115t25.5 -149t-25.5 -149t-74.5 -115q-49 -47 -116.5 -71t-150.5 -24zM220 577v-436h92q95 0 148.5 58.5t53.5 159.5q0 102 -54 160t-149 58h-91z" />
    <glyph glyph-name="E" unicode="E" horiz-adv-x="599" 
d="M57 0v718h507v-143h-343v-138h286v-141h-286v-153h343v-143h-507z" />
    <glyph glyph-name="F" unicode="F" horiz-adv-x="584" 
d="M221 272v-272h-164v718h503v-143h-339v-163h282v-140h-282z" />
    <glyph glyph-name="G" unicode="G" horiz-adv-x="734" 
d="M681 0h-148v64q-22 -34 -70.5 -54.5t-110.5 -20.5q-72 0 -134.5 28.5t-107.5 81.5q-42 49 -64 115t-22 141q0 77 23.5 144.5t67.5 118.5q47 54 111.5 82.5t139.5 28.5q113 0 191 -55.5t113 -159.5l-159 -51q-12 58 -49.5 89.5t-94.5 31.5q-79 0 -127.5 -62.5
t-48.5 -164.5t49 -164.5t130 -62.5q59 0 99 35.5t47 93.5h-159v137h324v-396z" />
    <glyph glyph-name="H" unicode="H" horiz-adv-x="740" 
d="M516 438v280h167v-718h-167v296h-292v-296h-167v718h167v-280h292z" />
    <glyph glyph-name="I" unicode="I" horiz-adv-x="281" 
d="M57 718h167v-718h-167v718z" />
    <glyph glyph-name="J" unicode="J" horiz-adv-x="410" 
d="M115 -6q-27 0 -50 2t-43 5v144q25 -4 40 -5t32 -1q55 0 78.5 22.5t23.5 74.5v482h167v-507q0 -107 -63 -162t-185 -55z" />
    <glyph glyph-name="K" unicode="K" horiz-adv-x="684" 
d="M57 718h167v-311l256 311h194l-259 -302l276 -416h-194l-193 287l-80 -93v-194h-167v718z" />
    <glyph glyph-name="L" unicode="L" horiz-adv-x="561" 
d="M545 0h-488v718h167v-575h321v-143z" />
    <glyph glyph-name="M" unicode="M" horiz-adv-x="868" 
d="M652 497l-158 -497h-120l-158 497v-497h-159v718h233l146 -471l146 471h229v-718h-159v497z" />
    <glyph glyph-name="N" unicode="N" horiz-adv-x="735" 
d="M518 718h160v-718h-145l-316 463v-463h-160v718h167l294 -439v439z" />
    <glyph glyph-name="O" unicode="O" horiz-adv-x="736" 
d="M116 97q-45 51 -68.5 118t-23.5 144t23.5 144t68.5 118q47 52 112 80t140 28q76 0 140.5 -28t111.5 -80q45 -50 68.5 -117.5t23.5 -144.5t-23.5 -144.5t-68.5 -117.5q-47 -52 -111.5 -80t-140.5 -28q-75 0 -140 28t-112 80zM368 134q79 0 128 61.5t49 163.5t-49 163.5
t-128 61.5t-127.5 -61.5t-48.5 -163.5t48.5 -163.5t127.5 -61.5z" />
    <glyph glyph-name="P" unicode="P" horiz-adv-x="646" 
d="M360 250h-136v-250h-167v718h303q131 0 202.5 -61t71.5 -173t-72 -173t-202 -61zM224 577v-187h127q58 0 88.5 24.5t30.5 69.5t-30.5 69t-88.5 24h-127z" />
    <glyph glyph-name="Q" unicode="Q" horiz-adv-x="736" 
d="M116 97q-45 51 -68.5 118t-23.5 144t23.5 144t68.5 118q47 52 112 80t140 28q76 0 140.5 -28t111.5 -80q45 -50 68.5 -117.5t23.5 -144.5q0 -93 -33.5 -169.5t-95.5 -127.5q21 -26 53 -44t77 -30l-96 -118q-51 15 -96 50.5t-67 78.5q-19 -5 -40.5 -7.5t-45.5 -2.5
q-75 0 -140 28t-112 80zM368 134q79 0 128 61.5t49 163.5t-49 163.5t-128 61.5t-127.5 -61.5t-48.5 -163.5t48.5 -163.5t127.5 -61.5z" />
    <glyph glyph-name="R" unicode="R" horiz-adv-x="666" 
d="M308 255h-84v-255h-167v718h303q130 0 202 -60.5t72 -170.5q0 -79 -39 -134t-113 -80l173 -273h-191zM224 577v-186h127q58 0 88.5 24t30.5 69t-30.5 69t-88.5 24h-127z" />
    <glyph glyph-name="S" unicode="S" horiz-adv-x="601" 
d="M296 -11q-93 0 -179 37t-129 96l103 115q41 -52 96.5 -81t115.5 -29q55 0 86.5 22t31.5 60q0 24 -15.5 39t-53.5 26q-8 3 -33.5 9t-67.5 15q-59 13 -94 26.5t-60 31.5q-34 25 -51 61t-17 83q0 52 22 96.5t64 75.5q37 28 85.5 42.5t103.5 14.5q85 0 158 -32t117 -88
l-101 -110q-36 46 -81 69t-98 23q-48 0 -77.5 -20t-29.5 -54q0 -21 12.5 -35t42.5 -24q12 -4 28 -8t58 -13q75 -16 110.5 -28.5t61.5 -28.5q41 -26 61 -64t20 -90q0 -55 -23.5 -101t-67.5 -78q-39 -28 -90 -43t-109 -15z" />
    <glyph glyph-name="T" unicode="T" horiz-adv-x="637" 
d="M621 718v-143h-219v-575h-167v575h-220v143h606z" />
    <glyph glyph-name="U" unicode="U" horiz-adv-x="700" 
d="M350 -11q-143 0 -222.5 79t-79.5 222v428h166v-424q0 -78 35 -118.5t101 -40.5t100.5 40.5t34.5 118.5v424h167v-428q0 -143 -79.5 -222t-222.5 -79z" />
    <glyph glyph-name="V" unicode="V" horiz-adv-x="710" 
d="M704 718l-262 -718h-173l-263 718h178l174 -503l174 503h172z" />
    <glyph glyph-name="W" unicode="W" horiz-adv-x="955" 
d="M295 249l114 469h141l115 -469l115 469h169l-191 -718h-161l-120 459l-118 -459h-161l-192 718h173z" />
    <glyph glyph-name="X" unicode="X" horiz-adv-x="702" 
d="M501 718h183l-236 -352l247 -366h-188l-159 241l-159 -241h-182l246 366l-236 352h188l148 -227z" />
    <glyph glyph-name="Y" unicode="Y" horiz-adv-x="677" 
d="M177 718l164 -278l164 278h176l-259 -430v-288h-167v288l-259 430h181z" />
    <glyph glyph-name="Z" unicode="Z" horiz-adv-x="640" 
d="M250 143h360v-143h-576v126l360 449h-356v143h568v-125z" />
    <glyph glyph-name="bracketleft" unicode="[" horiz-adv-x="327" 
d="M317 616h-122v-593h122v-121h-277v836h277v-122z" />
    <glyph glyph-name="backslash" unicode="\" horiz-adv-x="471" 
d="M300.011 -98h160.99l-289.982 836h-160.99z" />
    <glyph glyph-name="bracketright" unicode="]" horiz-adv-x="327" 
d="M132 23v593h-122v122h277v-836h-277v121h122z" />
    <glyph glyph-name="asciicircum" unicode="^" horiz-adv-x="503" 
d="M13 405l162 313h153l162 -313h-153l-86 172l-85 -172h-153z" />
    <glyph glyph-name="underscore" unicode="_" horiz-adv-x="460" 
d="M416 -177h-372v128h372v-128z" />
    <glyph glyph-name="grave" unicode="`" horiz-adv-x="600" 
d="M377 718l54 -148h-126l-118 148h190z" />
    <glyph glyph-name="a" unicode="a" horiz-adv-x="557" 
d="M357 47q-27 -28 -66.5 -42.5t-89.5 -14.5q-80 0 -131 44t-51 113q0 70 50.5 112t152.5 57l118 20v9q0 32 -18.5 48t-54.5 16q-34 0 -53 -15t-27 -48l-153 23q19 77 83.5 123t156.5 46q107 0 165 -48.5t58 -137.5v-203q0 -20 9 -27t32 -4v-118q-68 -11 -114.5 1t-66.5 46z
M238 107q44 0 73 22.5t29 59.5v44l-92 -17q-39 -6 -56 -20t-17 -38t17 -37.5t46 -13.5z" />
    <glyph glyph-name="b" unicode="b" horiz-adv-x="606" 
d="M526 74q-30 -41 -74 -63t-97 -22q-44 0 -81.5 16.5t-61.5 46.5v-52h-160v718h160v-244q24 31 61.5 47.5t81.5 16.5q53 0 97 -22t75 -64q27 -37 41 -85.5t14 -103.5t-14.5 -103.5t-41.5 -85.5zM314 401q-47 0 -75 -33.5t-28 -90.5v-28q0 -57 28 -90.5t75 -33.5
q50 0 78.5 37t28.5 101t-28.5 101t-78.5 37z" />
    <glyph glyph-name="c" unicode="c" horiz-adv-x="531" 
d="M290 406q-51 0 -80 -38t-29 -105q0 -66 29 -104t80 -38q36 0 60.5 23t33.5 64l139 -54q-18 -74 -82 -119.5t-152 -45.5q-58 0 -107.5 20t-85.5 58q-36 37 -54.5 87.5t-18.5 108.5q0 59 18.5 109t54.5 88t85.5 58t107.5 20q88 0 151 -45t82 -118l-138 -56q-9 41 -33.5 64
t-60.5 23z" />
    <glyph glyph-name="d" unicode="d" horiz-adv-x="606" 
d="M251 -11q-53 0 -97 22t-74 63q-27 37 -41.5 85.5t-14.5 103.5t14 103.5t41 85.5q31 42 75 64t97 22q44 0 81.5 -16.5t61.5 -47.5v244h160v-718h-160v52q-24 -30 -61.5 -46.5t-81.5 -16.5zM395 249v28q0 57 -28 90.5t-75 33.5q-50 0 -78.5 -37t-28.5 -101t28.5 -101
t78.5 -37q47 0 75 33.5t28 90.5z" />
    <glyph glyph-name="e" unicode="e" horiz-adv-x="555" 
d="M290 -11q-59 0 -108.5 20t-86.5 57q-35 37 -53.5 88t-18.5 110q0 56 19 106t55 88q36 39 85 59.5t105 20.5q57 0 103.5 -20t80.5 -58q30 -35 46.5 -83.5t16.5 -105.5v-42h-357q8 -53 38.5 -83t76.5 -30q39 0 66 18t38 52l134 -43q-28 -72 -92.5 -113t-147.5 -41zM285 414
q-38 0 -64.5 -22.5t-38.5 -64.5h194q-1 39 -25.5 63t-65.5 24z" />
    <glyph glyph-name="f" unicode="f" horiz-adv-x="337" 
d="M271 727q14 0 27 -0.5t32 -2.5v-125q-7 1 -13.5 1h-22.5q-35 0 -48.5 -13t-13.5 -44v-16h97v-132h-97v-395h-160v395h-68v132h68v25q0 88 49.5 131.5t149.5 43.5z" />
    <glyph glyph-name="g" unicode="g" horiz-adv-x="609" 
d="M556 527v-464q0 -117 -74.5 -183.5t-202.5 -66.5q-100 0 -165 40.5t-86 116.5l152 36q10 -34 37.5 -53t66.5 -19q54 0 82.5 28.5t28.5 82.5v34q-20 -28 -58.5 -45t-83.5 -17q-52 0 -95.5 20t-74.5 58q-27 35 -42 82t-15 100t15 100t42 82q31 39 74.5 59t95.5 20
q44 0 83 -17.5t59 -45.5v52h161zM397 269v16q0 56 -28 88.5t-75 32.5q-50 0 -77.5 -34t-27.5 -94t28 -94.5t77 -34.5q47 0 75 32.5t28 87.5z" />
    <glyph glyph-name="h" unicode="h" horiz-adv-x="583" 
d="M212 0h-160v718h160v-244q26 30 63.5 47t81.5 17q80 0 128 -51.5t48 -138.5v-348h-160v302q0 44 -19 68t-55 24q-38 0 -62.5 -25.5t-24.5 -67.5v-301z" />
    <glyph glyph-name="i" unicode="i" horiz-adv-x="265" 
d="M214 581h-163v137h163v-137zM52 527h160v-527h-160v527z" />
    <glyph glyph-name="j" unicode="j" horiz-adv-x="265" 
d="M214 581h-163v137h163v-137zM-6 -58q31 0 44.5 12t13.5 39v534h160v-541q0 -82 -47 -125.5t-135 -43.5q-14 0 -27.5 0.5t-41.5 3.5v123q17 -2 22 -2h11z" />
    <glyph glyph-name="k" unicode="k" horiz-adv-x="577" 
d="M52 718h160v-380l168 189h188l-189 -198l204 -329h-183l-132 212l-56 -59v-153h-160v718z" />
    <glyph glyph-name="l" unicode="l" horiz-adv-x="265" 
d="M52 718h160v-718h-160v718z" />
    <glyph glyph-name="m" unicode="m" horiz-adv-x="892" 
d="M295 394q-36 0 -59.5 -25.5t-23.5 -67.5v-301h-160v527h160v-53q26 31 63 47.5t81 16.5q46 0 84 -19t61 -53q32 35 73.5 53.5t89.5 18.5q80 0 129 -52t49 -138v-348h-160v302q0 44 -18.5 68t-53.5 24q-36 0 -59.5 -25.5t-23.5 -67.5v-301h-160v302q0 45 -18.5 68.5
t-53.5 23.5z" />
    <glyph glyph-name="n" unicode="n" horiz-adv-x="583" 
d="M212 0h-160v527h160v-53q26 30 63.5 47t81.5 17q80 0 128 -51.5t48 -138.5v-348h-160v302q0 44 -19 68t-55 24q-38 0 -62.5 -25.5t-24.5 -67.5v-301z" />
    <glyph glyph-name="o" unicode="o" horiz-adv-x="574" 
d="M479 460q35 -38 53.5 -88t18.5 -109t-18.5 -109t-53.5 -87q-35 -38 -84.5 -58t-107.5 -20t-107.5 20t-85.5 58q-34 37 -52.5 87t-18.5 109t18.5 109.5t52.5 87.5q36 38 85.5 58t107.5 20t107.5 -20t84.5 -58zM287 407q-49 0 -77 -38t-28 -106t28 -106t77 -38t77 38
t28 106t-28 106t-77 38z" />
    <glyph glyph-name="p" unicode="p" horiz-adv-x="606" 
d="M526 74q-30 -41 -74 -63t-97 -22q-44 0 -81.5 16.5t-61.5 46.5v-228h-160v703h160v-53q24 31 61.5 47.5t81.5 16.5q53 0 97 -22t75 -64q27 -37 41 -85.5t14 -103.5t-14.5 -103.5t-41.5 -85.5zM314 401q-47 0 -75 -33.5t-28 -90.5v-28q0 -57 28 -90.5t75 -33.5
q50 0 78.5 37t28.5 101t-28.5 101t-78.5 37z" />
    <glyph glyph-name="q" unicode="q" horiz-adv-x="606" 
d="M251 -11q-53 0 -97 22t-74 63q-27 37 -41.5 85.5t-14.5 103.5t14 103.5t41 85.5q31 42 75 64t97 22q44 0 81.5 -16.5t61.5 -47.5v53h160v-703h-160v228q-24 -30 -61.5 -46.5t-81.5 -16.5zM395 249v28q0 57 -28 90.5t-75 33.5q-50 0 -78.5 -37t-28.5 -101t28.5 -101
t78.5 -37q47 0 75 33.5t28 90.5z" />
    <glyph glyph-name="r" unicode="r" horiz-adv-x="401" 
d="M348 530q8 0 15.5 -0.5t19.5 -1.5v-154q-13 2 -23 3t-24 1q-55 0 -89.5 -32.5t-34.5 -86.5v-259h-160v527h160v-69q19 33 55.5 52.5t80.5 19.5z" />
    <glyph glyph-name="s" unicode="s" horiz-adv-x="509" 
d="M249 -11q-75 0 -143 24t-102 64l83 108q31 -34 77.5 -54.5t90.5 -20.5q35 0 56 11.5t21 30.5q0 16 -10.5 25t-38.5 16q-7 1 -16 3t-54 10q-50 10 -77.5 19.5t-46.5 21.5q-28 19 -42 47t-14 66q0 79 63 128.5t162 49.5q67 0 127.5 -23t95.5 -61l-80 -103q-30 31 -67.5 48
t-76.5 17q-29 0 -46.5 -10.5t-17.5 -28.5q0 -13 8.5 -20.5t30.5 -13.5q5 -1 13 -2.5t43 -8.5q58 -12 86.5 -21.5t49.5 -21.5q33 -20 49 -49t16 -69q0 -82 -67 -132t-173 -50z" />
    <glyph glyph-name="t" unicode="t" horiz-adv-x="361" 
d="M241 -5q-91 0 -131 34.5t-40 111.5v254h-67v132h67v146h158v-146h103v-132h-103v-213q0 -28 13.5 -40t49.5 -12q11 0 19.5 0.5t26.5 2.5v-131q-26 -4 -49 -5.5t-47 -1.5z" />
    <glyph glyph-name="u" unicode="u" horiz-adv-x="583" 
d="M371 527h160v-527h-160v52q-27 -30 -63.5 -46.5t-78.5 -16.5q-81 0 -130 51.5t-49 137.5v349h160v-311q0 -42 19 -64.5t56 -22.5t61.5 25.5t24.5 67.5v305z" />
    <glyph glyph-name="v" unicode="v" horiz-adv-x="538" 
d="M538 527l-190 -527h-158l-190 527h165l107 -332l107 332h159z" />
    <glyph glyph-name="w" unicode="w" horiz-adv-x="760" 
d="M244 218l79 309h120l80 -309l81 309h156l-160 -527h-137l-83 292l-83 -292h-137l-160 527h161z" />
    <glyph glyph-name="x" unicode="x" horiz-adv-x="544" 
d="M546 0h-176l-102 154l-100 -154h-170l182 272l-171 255h176l89 -138l91 138h170l-171 -255z" />
    <glyph glyph-name="y" unicode="y" horiz-adv-x="538" 
d="M538 527l-201 -539q-35 -96 -83.5 -133.5t-128.5 -37.5q-18 0 -31 0.5t-29 2.5v127q12 -2 21 -2.5t19 -0.5q29 0 44.5 10.5t24.5 34.5l13 34l-187 504h165l108 -324l106 324h159z" />
    <glyph glyph-name="z" unicode="z" horiz-adv-x="514" 
d="M237 132h244v-132h-449v116l252 279h-249v132h444v-116z" />
    <glyph glyph-name="braceleft" unicode="{" horiz-adv-x="379" 
d="M67 256h-47v128h47q25 0 37.5 16t12.5 48v115q0 83 52 129t146 46h54v-122h-23q-43 0 -63.5 -20.5t-20.5 -64.5v-93q0 -44 -16.5 -72.5t-51.5 -45.5q35 -17 51.5 -45.5t16.5 -72.5v-93q0 -44 20.5 -64.5t63.5 -20.5h23v-122h-54q-94 0 -146 46t-52 129v115q0 32 -12.5 48
t-37.5 16z" />
    <glyph glyph-name="bar" unicode="|" horiz-adv-x="280" 
d="M218 -98h-156v836h156v-836z" />
    <glyph glyph-name="braceright" unicode="}" horiz-adv-x="379" 
d="M359 384v-128h-47q-25 0 -37.5 -16t-12.5 -48v-115q0 -83 -52 -129t-146 -46h-54v122h23q43 0 63.5 20.5t20.5 64.5v93q0 44 16.5 72.5t51.5 45.5q-35 17 -51.5 45.5t-16.5 72.5v93q0 44 -20.5 64.5t-63.5 20.5h-23v122h54q94 0 146 -46t52 -129v-115q0 -32 12.5 -48
t37.5 -16h47z" />
    <glyph glyph-name="asciitilde" unicode="~" horiz-adv-x="515" 
d="M180 423q17 0 34 -6.5t45 -25.5q21 -14 31.5 -18.5t19.5 -4.5q20 0 31 13t16 43h118q-3 -92 -40.5 -147.5t-99.5 -55.5q-17 0 -34 6.5t-45 26.5q-21 14 -31 18.5t-19 4.5q-20 0 -31 -13t-17 -43h-118q3 92 40.5 147t99.5 55z" />
    <glyph glyph-name="uni00A0" unicode="&#xa0;" horiz-adv-x="199" 
 />
    <glyph glyph-name="exclamdown" unicode="&#xa1;" horiz-adv-x="250" 
d="M187 486.014h-124l-37 -485.97h198zM217 718h-184v-174.989h184v174.989z" />
    <glyph glyph-name="cent" unicode="&#xa2;" horiz-adv-x="569" 
d="M354 -101h-108v95q-101 17 -162.5 93.5t-61.5 185.5t61.5 185t162.5 93v102h108v-101q68 -11 118.5 -50t77.5 -101l-110 -71q-10 34 -32 58t-54 35v-302q31 11 53.5 35t32.5 59l110 -71q-26 -62 -76.5 -101t-119.5 -50v-94zM162 273q0 -54 22 -92.5t62 -55.5v294
q-40 -17 -62 -55t-22 -91z" />
    <glyph glyph-name="sterling" unicode="&#xa3;" horiz-adv-x="648" 
d="M191 281h-123v104h63q-18 30 -26 56.5t-8 53.5q0 51 20.5 95.5t58.5 76.5q36 30 83 46t101 16q111 0 181 -63t70 -166q0 -20 -3 -38t-9 -40h-156q6 14 9.5 31.5t3.5 34.5q0 47 -26 75t-70 28q-46 0 -74 -29.5t-28 -76.5q0 -13 3 -25.5t9 -26.5q6 -12 16.5 -29.5
t10.5 -18.5h128v-104h-90q1 -10 1.5 -16.5t0.5 -12.5q0 -21 -3.5 -43.5t-10.5 -45.5q26 -16 48.5 -23.5t45.5 -7.5q40 0 59.5 23.5t21.5 72.5h142q0 -110 -52.5 -174.5t-141.5 -64.5q-49 0 -92.5 16.5t-84.5 50.5q-27 -33 -60.5 -50t-70.5 -17q-61 0 -100 35.5t-38 93.5
q0 55 39.5 91t99.5 36q17 0 32.5 -3t30.5 -8q-1 12 -3.5 23.5t-7.5 23.5zM144 154q-17 0 -27 -9t-10 -25q0 -13 9 -21.5t22 -8.5q16 0 29 11t21 32q-13 11 -23.5 16t-20.5 5z" />
    <glyph glyph-name="yen" unicode="&#xa5;" horiz-adv-x="656" 
d="M246 173h-162v104h162v51h-162v104h107l-191 286h188l143 -230l143 230h182l-190 -286h107v-104h-162v-51h162v-104h-162v-173h-165v173z" />
    <glyph glyph-name="section" unicode="&#xa7;" horiz-adv-x="530" 
d="M253 -12q-73 0 -141 24.5t-104 64.5l77 104q32 -33 80.5 -53.5t93.5 -20.5q37 0 57 11.5t20 33.5q0 16 -10.5 25t-39.5 15q-13 4 -41 9t-29 5q-47 9 -75.5 18.5t-48.5 23.5q-29 19 -43 46.5t-14 65.5q0 30 12 57t36 49q-17 18 -25.5 41.5t-8.5 52.5q0 75 61.5 122
t158.5 47q69 0 129.5 -23t95.5 -61l-81 -96q-29 31 -66.5 47.5t-78.5 16.5q-30 0 -47.5 -11.5t-17.5 -31.5q0 -13 9 -21t31 -14q5 -1 19.5 -4t38.5 -8q56 -11 85.5 -20.5t50.5 -21.5q33 -20 49 -49t16 -69q0 -30 -10 -56t-29 -47q16 -16 24 -38.5t8 -50.5q0 -83 -67.5 -133
t-174.5 -50zM224 340q7 -2 17.5 -4.5t45.5 -9.5q16 -3 31.5 -6t31.5 -6q7 6 10.5 13t3.5 17q0 18 -11.5 27.5t-41.5 17.5q-7 1 -26 5t-50 10q-8 1 -17 3t-20 5q-10 -7 -15 -15.5t-5 -18.5q0 -14 10 -22.5t36 -15.5z" />
    <glyph glyph-name="dieresis" unicode="&#xa8;" horiz-adv-x="600" 
d="M276 581h-156v137h156v-137zM480 581h-156v137h156v-137z" />
    <glyph glyph-name="copyright" unicode="&#xa9;" horiz-adv-x="810" 
d="M669 623q51 -51 78.5 -119t27.5 -145t-27.5 -144.5t-78.5 -119.5q-52 -51 -120 -78.5t-144 -27.5t-144 27.5t-120 78.5q-51 51 -78.5 119t-27.5 145t27.5 145t78.5 119t119.5 78.5t144.5 27.5t144.5 -27.5t119.5 -78.5zM611 152q40 41 61.5 94t21.5 113t-21.5 113.5
t-61.5 93.5q-40 41 -93 62.5t-113 21.5t-113.5 -21.5t-93.5 -61.5q-40 -41 -61.5 -94t-21.5 -114q0 -60 21.5 -113.5t61.5 -93.5q41 -41 94 -62.5t113 -21.5q59 0 112.5 22t93.5 62zM410 148q-89 0 -145 59t-56 153t56 153t145 59q66 0 112.5 -32.5t67.5 -92.5l-118 -42
q-5 25 -21.5 40t-40.5 15q-34 0 -54.5 -27t-20.5 -73t20.5 -73t54.5 -27q24 0 41 15t21 40l118 -42q-21 -61 -67 -93t-113 -32z" />
    <glyph glyph-name="ordfeminine" unicode="&#xaa;" horiz-adv-x="422" 
d="M267 374q-19 -20 -47.5 -30.5t-63.5 -10.5q-58 0 -94.5 31.5t-36.5 80.5q0 51 36.5 81.5t111.5 40.5l82 13v7q0 23 -12.5 34t-37.5 11q-24 0 -38 -10.5t-19 -33.5l-113 16q13 55 60 88t115 33q77 0 118.5 -34t41.5 -98v-144q0 -14 7 -19t23 -3v-86q-49 -9 -83.5 -0.5
t-49.5 33.5zM184 419q31 0 51 15.5t20 41.5v30l-65 -12q-26 -5 -38 -14.5t-12 -25.5q0 -17 11.5 -26t32.5 -9zM399 184h-371v98h371v-98z" />
    <glyph glyph-name="guillemotleft" unicode="&#xab;" horiz-adv-x="489" 
d="M225 49l-202 141v140l202 141v-150l-77 -61l77 -61v-150zM466 49l-202 141v140l202 141v-150l-77 -61l77 -61v-150z" />
    <glyph glyph-name="registered" unicode="&#xae;" horiz-adv-x="520" 
d="M420 664q32 -31 48.5 -72t16.5 -88t-16.5 -88t-48.5 -72q-31 -32 -72.5 -48.5t-87.5 -16.5t-87.5 17t-72.5 48t-48 72.5t-17 87.5t17 87.5t48 72.5t72.5 48t87.5 17t87.5 -16.5t72.5 -48.5zM392 371q25 27 39 61t14 72q0 39 -13.5 73t-39.5 60q-26 27 -60 41t-72 14
t-72 -14t-60 -41q-25 -26 -38.5 -60t-13.5 -73q0 -38 13.5 -72t39.5 -60q25 -27 59 -41t72 -14t72 14t60 40zM320 485l56 -91h-80l-40 72h-27v-72h-72v227h114q44 0 68 -19.5t24 -55.5q0 -21 -10.5 -36t-32.5 -25zM289 541q0 11 -7.5 17t-21.5 6h-31v-47h31q14 0 21.5 6
t7.5 18z" />
    <glyph glyph-name="macron" unicode="&#xaf;" horiz-adv-x="600" 
d="M461 702v-119h-322v119h322z" />
    <glyph glyph-name="degree" unicode="&#xb0;" horiz-adv-x="334" 
d="M10 571q0 66 46 112t111 46t111 -46t46 -112t-46 -112.5t-111 -46.5t-111 46.5t-46 112.5zM100 571q0 -27 20 -47t47 -20q28 0 47 19.5t19 47.5t-19 48t-47 20t-47.5 -20t-19.5 -48z" />
    <glyph glyph-name="uni00B2" unicode="&#xb2;" 
d="M39 320v89l133 103q28 21 39 37t11 34q0 17 -10.5 27.5t-27.5 10.5t-28 -11.5t-11 -29.5q0 -8 2 -18t5 -16h-109q-4 10 -6 19.5t-2 20.5q0 60 44 99t109 39q67 0 107 -36t40 -95q0 -35 -18.5 -66t-59.5 -63l-56 -43h140v-101h-302z" />
    <glyph glyph-name="uni00B3" unicode="&#xb3;" 
d="M343 434q0 -53 -41.5 -86.5t-107.5 -33.5q-68 0 -111.5 33t-50.5 92l118 17q1 -20 12.5 -32t29.5 -12t29 9.5t11 25.5t-12 25t-32 9h-37v80h33q20 0 31.5 9t11.5 24q0 14 -9.5 23t-25.5 9q-17 0 -28.5 -11.5t-13.5 -30.5l-111 9q7 58 49.5 94.5t107.5 36.5t104.5 -33.5
t39.5 -86.5q0 -27 -16 -50.5t-40 -31.5q29 -12 44 -34.5t15 -53.5z" />
    <glyph glyph-name="acute" unicode="&#xb4;" horiz-adv-x="600" 
d="M295 570h-126l54 148h190z" />
    <glyph glyph-name="paragraph" unicode="&#xb6;" horiz-adv-x="622" 
d="M517 0h-146v591h-65v-292h-66q-98 0 -158 56.5t-60 149.5q0 96 64.5 154.5t170.5 58.5h339v-127h-79v-591z" />
    <glyph glyph-name="periodcentered" unicode="&#xb7;" horiz-adv-x="264" 
d="M224 203h-184v179h184v-179z" />
    <glyph glyph-name="cedilla" unicode="&#xb8;" horiz-adv-x="600" 
d="M412 -98q0 -39 -35.5 -64t-89.5 -25q-34 0 -62.5 9.5t-47.5 26.5l45 66q10 -12 24 -18.5t28 -6.5q18 0 27 5.5t9 15.5q0 12 -15.5 19t-50.5 9l22 73h71l-9 -31q41 -6 62.5 -26t21.5 -53z" />
    <glyph glyph-name="uni00B9" unicode="&#xb9;" 
d="M145 421v153h-91v79l38 3q35 2 53.5 17t24.5 45h93v-297h71v-101h-277v101h88z" />
    <glyph glyph-name="ordmasculine" unicode="&#xba;" horiz-adv-x="437" 
d="M218 725q85 0 137.5 -54t52.5 -142t-53 -142.5t-137 -54.5t-137 54.5t-53 142.5t52.5 142t137.5 54zM218 630q-34 0 -53.5 -26.5t-19.5 -74.5t19 -74t54 -26t54 26t19 74t-19.5 74.5t-53.5 26.5zM394 184h-350v98h350v-98z" />
    <glyph glyph-name="guillemotright" unicode="&#xbb;" horiz-adv-x="489" 
d="M466 330v-140l-202 -141v150l77 61l-77 61v150zM225 330v-140l-202 -141v150l77 61l-77 61v150z" />
    <glyph glyph-name="onequarter" unicode="&#xbc;" horiz-adv-x="885" 
d="M816 83v-83h-107v83h-182v84l144 231h145v-225h52v-90h-52zM706 310l-88 -137h88v137zM163 0l502 718h119l-501 -718h-120zM145 421v153h-91v79l38 3q35 2 53.5 17t24.5 45h93v-297h71v-101h-277v101h88z" />
    <glyph glyph-name="onehalf" unicode="&#xbd;" horiz-adv-x="915" 
d="M163 0l502 718h119l-501 -718h-120zM573 0v89l133 103q28 21 39 37t11 34q0 17 -10.5 27.5t-27.5 10.5t-28 -11.5t-11 -29.5q0 -8 2 -18t5 -16h-109q-4 10 -6 19.5t-2 20.5q0 60 44 99t109 39q67 0 107 -36t40 -95q0 -35 -18.5 -66t-59.5 -63l-56 -43h140v-101h-302z
M145 421v153h-91v79l38 3q35 2 53.5 17t24.5 45h93v-297h71v-101h-277v101h88z" />
    <glyph glyph-name="threequarters" unicode="&#xbe;" horiz-adv-x="865" 
d="M802 83v-83h-107v83h-182v84l144 231h145v-225h52v-90h-52zM692 310l-88 -137h88v137zM149 0l502 718h119l-501 -718h-120zM343 434q0 -53 -41.5 -86.5t-107.5 -33.5q-68 0 -111.5 33t-50.5 92l118 17q1 -20 12.5 -32t29.5 -12t29 9.5t11 25.5t-12 25t-32 9h-37v80h33
q20 0 31.5 9t11.5 24q0 14 -9.5 23t-25.5 9q-17 0 -28.5 -11.5t-13.5 -30.5l-111 9q7 58 49.5 94.5t107.5 36.5t104.5 -33.5t39.5 -86.5q0 -27 -16 -50.5t-40 -31.5q29 -12 44 -34.5t15 -53.5z" />
    <glyph glyph-name="questiondown" unicode="&#xbf;" horiz-adv-x="554" 
d="M186.022 231.03q0 -40.9971 24.998 -64.9961q24.999 -23.999 67.9961 -23.999q44.9971 0 73.9961 28.999q28.998 28.998 33.9971 79.9951l166.99 -22.999q-7 -51.9971 -31.498 -95.9941t-65.4961 -74.9951q-36.998 -29.998 -84.9951 -44.9971t-103.993 -14.999
q-112.993 0 -183.989 60.4961q-70.9951 60.4961 -70.9951 158.49q0 77.9951 48.4971 132.992q48.4971 54.9961 124.492 67.9951v76.9951h157.99l-2 -167.989q-77.9951 0 -116.992 -23.499q-38.998 -23.498 -38.998 -71.4951zM174.023 726h182.988v-174.989h-182.988v174.989
z" />
    <glyph glyph-name="Agrave" unicode="&#xc0;" horiz-adv-x="733" 
d="M6 0l265 718h191l264 -718h-169l-52 144h-282l-52 -144h-165zM454 282l-91 251l-90 -251h181zM359 914l77 -158h-132l-156 158h211z" />
    <glyph glyph-name="Aacute" unicode="&#xc1;" horiz-adv-x="733" 
d="M6 0l265 718h191l264 -718h-169l-52 144h-282l-52 -144h-165zM454 282l-91 251l-90 -251h181zM433 756h-132l77 158h211z" />
    <glyph glyph-name="Acircumflex" unicode="&#xc2;" horiz-adv-x="733" 
d="M6 0l265 718h191l264 -718h-169l-52 144h-282l-52 -144h-165zM454 282l-91 251l-90 -251h181zM283 914h166l115 -158h-119l-79 64l-79 -64h-119z" />
    <glyph glyph-name="Atilde" unicode="&#xc3;" horiz-adv-x="733" 
d="M6 0l265 718h191l264 -718h-169l-52 144h-282l-52 -144h-165zM454 282l-91 251l-90 -251h181zM295 930q18 0 35 -6t44 -25q20 -13 29.5 -17t17.5 -4q17 0 27 12.5t15 39.5h105q-2 -79 -36.5 -126t-91.5 -47q-18 0 -35 6t-44 24q-19 13 -28.5 17t-17.5 4q-18 0 -28 -12.5
t-14 -38.5h-106q2 79 37 126t91 47z" />
    <glyph glyph-name="Adieresis" unicode="&#xc4;" horiz-adv-x="733" 
d="M6 0l265 718h191l264 -718h-169l-52 144h-282l-52 -144h-165zM454 282l-91 251l-90 -251h181zM339 756h-156v143h156v-143zM549 756h-156v143h156v-143z" />
    <glyph glyph-name="Aring" unicode="&#xc5;" horiz-adv-x="733" 
d="M224 793q0 56 40.5 94.5t101.5 38.5t101.5 -38.5t40.5 -94.5q0 -27 -10 -51.5t-29 -42.5l257 -699h-169l-52 144h-282l-52 -144h-165l258 698q-19 19 -29.5 44t-10.5 51zM366 844q-22 0 -36 -14.5t-14 -36.5q0 -23 13.5 -37t36.5 -14t36.5 14t13.5 37q0 22 -14 36.5
t-36 14.5zM454 282l-91 251l-90 -251h181z" />
    <glyph glyph-name="AE" unicode="&#xc6;" horiz-adv-x="1035" 
d="M0 0l398 718h602v-143h-343v-138h286v-141h-286v-153h343v-143h-507v150h-235l-83 -150h-175zM493 575l-159 -287h159v287z" />
    <glyph glyph-name="Ccedilla" unicode="&#xc7;" horiz-adv-x="674" 
d="M362 584q-76 0 -123.5 -62t-47.5 -163t47.5 -163t123.5 -62q55 0 93 32.5t51 90.5l157 -52q-34 -100 -107.5 -156t-177.5 -60l-2 -8q41 -6 62.5 -26t21.5 -53q0 -39 -35.5 -64t-89.5 -25q-34 0 -62.5 9.5t-47.5 26.5l45 66q10 -12 24 -18.5t28 -6.5q18 0 27 5.5t9 15.5
q0 12 -15.5 19t-50.5 9l16 54q-64 10 -118.5 42.5t-92.5 84.5q-36 48 -54.5 109t-18.5 130q0 77 23 143.5t67 116.5q47 54 111 82t138 28q110 0 187.5 -56t112.5 -160l-157 -52q-13 58 -51 90.5t-93 32.5z" />
    <glyph glyph-name="Egrave" unicode="&#xc8;" horiz-adv-x="599" 
d="M57 0v718h507v-143h-343v-138h286v-141h-286v-153h343v-143h-507zM337 914l77 -158h-132l-156 158h211z" />
    <glyph glyph-name="Eacute" unicode="&#xc9;" horiz-adv-x="599" 
d="M57 0v718h507v-143h-343v-138h286v-141h-286v-153h343v-143h-507zM353 756h-132l77 158h211z" />
    <glyph glyph-name="Ecircumflex" unicode="&#xca;" horiz-adv-x="599" 
d="M57 0v718h507v-143h-343v-138h286v-141h-286v-153h343v-143h-507zM232 914h166l115 -158h-119l-79 64l-79 -64h-119z" />
    <glyph glyph-name="Edieresis" unicode="&#xcb;" horiz-adv-x="599" 
d="M57 0v718h507v-143h-343v-138h286v-141h-286v-153h343v-143h-507zM285 756h-156v143h156v-143zM495 756h-156v143h156v-143z" />
    <glyph glyph-name="Igrave" unicode="&#xcc;" horiz-adv-x="281" 
d="M57 718h167v-718h-167v718zM143 914l77 -158h-132l-156 158h211z" />
    <glyph glyph-name="Iacute" unicode="&#xcd;" horiz-adv-x="281" 
d="M57 718h167v-718h-167v718zM201 756h-132l77 158h211z" />
    <glyph glyph-name="Icircumflex" unicode="&#xce;" horiz-adv-x="281" 
d="M57 718h167v-718h-167v718zM57 914h166l115 -158h-119l-79 64l-79 -64h-119z" />
    <glyph glyph-name="Idieresis" unicode="&#xcf;" horiz-adv-x="281" 
d="M57 718h167v-718h-167v718zM113 756h-156v143h156v-143zM323 756h-156v143h156v-143z" />
    <glyph glyph-name="Eth" unicode="&#xd0;" horiz-adv-x="717" 
d="M326 0h-255v295h-56v143h56v280h255q83 0 150.5 -24t116.5 -71q49 -48 74.5 -115t25.5 -149t-25.5 -149t-74.5 -115q-49 -47 -116.5 -71t-150.5 -24zM234 295v-154h92q95 0 148.5 58.5t53.5 159.5q0 102 -54 160t-149 58h-91v-139h112v-143h-112z" />
    <glyph glyph-name="Ntilde" unicode="&#xd1;" horiz-adv-x="735" 
d="M518 718h160v-718h-145l-316 463v-463h-160v718h167l294 -439v439zM297 930q18 0 35 -6t44 -25q20 -13 29.5 -17t17.5 -4q17 0 27 12.5t15 39.5h105q-2 -79 -36.5 -126t-91.5 -47q-18 0 -35 6t-44 24q-19 13 -28.5 17t-17.5 4q-18 0 -28 -12.5t-14 -38.5h-106
q2 79 37 126t91 47z" />
    <glyph glyph-name="Ograve" unicode="&#xd2;" horiz-adv-x="736" 
d="M116 97q-45 51 -68.5 118t-23.5 144t23.5 144t68.5 118q47 52 112 80t140 28q76 0 140.5 -28t111.5 -80q45 -50 68.5 -117.5t23.5 -144.5t-23.5 -144.5t-68.5 -117.5q-47 -52 -111.5 -80t-140.5 -28q-75 0 -140 28t-112 80zM368 134q79 0 128 61.5t49 163.5t-49 163.5
t-128 61.5t-127.5 -61.5t-48.5 -163.5t48.5 -163.5t127.5 -61.5zM366 914l77 -158h-132l-156 158h211z" />
    <glyph glyph-name="Oacute" unicode="&#xd3;" horiz-adv-x="736" 
d="M116 97q-45 51 -68.5 118t-23.5 144t23.5 144t68.5 118q47 52 112 80t140 28q76 0 140.5 -28t111.5 -80q45 -50 68.5 -117.5t23.5 -144.5t-23.5 -144.5t-68.5 -117.5q-47 -52 -111.5 -80t-140.5 -28q-75 0 -140 28t-112 80zM368 134q79 0 128 61.5t49 163.5t-49 163.5
t-128 61.5t-127.5 -61.5t-48.5 -163.5t48.5 -163.5t127.5 -61.5zM429 756h-132l77 158h211z" />
    <glyph glyph-name="Ocircumflex" unicode="&#xd4;" horiz-adv-x="736" 
d="M116 97q-45 51 -68.5 118t-23.5 144t23.5 144t68.5 118q47 52 112 80t140 28q76 0 140.5 -28t111.5 -80q45 -50 68.5 -117.5t23.5 -144.5t-23.5 -144.5t-68.5 -117.5q-47 -52 -111.5 -80t-140.5 -28q-75 0 -140 28t-112 80zM368 134q79 0 128 61.5t49 163.5t-49 163.5
t-128 61.5t-127.5 -61.5t-48.5 -163.5t48.5 -163.5t127.5 -61.5zM285 914h166l115 -158h-119l-79 64l-79 -64h-119z" />
    <glyph glyph-name="Otilde" unicode="&#xd5;" horiz-adv-x="736" 
d="M116 97q-45 51 -68.5 118t-23.5 144t23.5 144t68.5 118q47 52 112 80t140 28q76 0 140.5 -28t111.5 -80q45 -50 68.5 -117.5t23.5 -144.5t-23.5 -144.5t-68.5 -117.5q-47 -52 -111.5 -80t-140.5 -28q-75 0 -140 28t-112 80zM368 134q79 0 128 61.5t49 163.5t-49 163.5
t-128 61.5t-127.5 -61.5t-48.5 -163.5t48.5 -163.5t127.5 -61.5zM296 930q18 0 35 -6t44 -25q20 -13 29.5 -17t17.5 -4q17 0 27 12.5t15 39.5h105q-2 -79 -36.5 -126t-91.5 -47q-18 0 -35 6t-44 24q-19 13 -28.5 17t-17.5 4q-18 0 -28 -12.5t-14 -38.5h-106q2 79 37 126
t91 47z" />
    <glyph glyph-name="Odieresis" unicode="&#xd6;" horiz-adv-x="736" 
d="M116 97q-45 51 -68.5 118t-23.5 144t23.5 144t68.5 118q47 52 112 80t140 28q76 0 140.5 -28t111.5 -80q45 -50 68.5 -117.5t23.5 -144.5t-23.5 -144.5t-68.5 -117.5q-47 -52 -111.5 -80t-140.5 -28q-75 0 -140 28t-112 80zM368 134q79 0 128 61.5t49 163.5t-49 163.5
t-128 61.5t-127.5 -61.5t-48.5 -163.5t48.5 -163.5t127.5 -61.5zM341 756h-156v143h156v-143zM551 756h-156v143h156v-143z" />
    <glyph glyph-name="multiply" unicode="&#xd7;" horiz-adv-x="608" 
d="M53 184l162 162l-162 162l90 89l162 -161l161 161l89 -90l-161 -161l161 -161l-89 -90l-161 161l-162 -161z" />
    <glyph glyph-name="Oslash" unicode="&#xd8;" horiz-adv-x="736" 
d="M123 -31l-93 75l66 79q-35 48 -53.5 108t-18.5 128q0 77 23.5 144t68.5 118q47 52 112 80t140 28q52 0 100.5 -13.5t89.5 -40.5l52 62l93 -75l-59 -71q33 -48 50.5 -107t17.5 -125q0 -77 -23.5 -144.5t-68.5 -117.5q-47 -52 -111.5 -80t-140.5 -28q-52 0 -99 13t-86 39z
M368 586q-81 0 -129.5 -62t-48.5 -165q0 -28 4 -54t12 -51l255 305q-21 13 -44.5 20t-48.5 7zM368 132q81 0 129.5 62t48.5 165q0 27 -3.5 52t-10.5 47l-252 -302q19 -12 41 -18t47 -6z" />
    <glyph glyph-name="Ugrave" unicode="&#xd9;" horiz-adv-x="700" 
d="M350 -11q-143 0 -222.5 79t-79.5 222v428h166v-424q0 -78 35 -118.5t101 -40.5t100.5 40.5t34.5 118.5v424h167v-428q0 -143 -79.5 -222t-222.5 -79zM358 914l77 -158h-132l-156 158h211z" />
    <glyph glyph-name="Uacute" unicode="&#xda;" horiz-adv-x="700" 
d="M350 -11q-143 0 -222.5 79t-79.5 222v428h166v-424q0 -78 35 -118.5t101 -40.5t100.5 40.5t34.5 118.5v424h167v-428q0 -143 -79.5 -222t-222.5 -79zM404 756h-132l77 158h211z" />
    <glyph glyph-name="Ucircumflex" unicode="&#xdb;" horiz-adv-x="700" 
d="M350 -11q-143 0 -222.5 79t-79.5 222v428h166v-424q0 -78 35 -118.5t101 -40.5t100.5 40.5t34.5 118.5v424h167v-428q0 -143 -79.5 -222t-222.5 -79zM267 914h166l115 -158h-119l-79 64l-79 -64h-119z" />
    <glyph glyph-name="Udieresis" unicode="&#xdc;" horiz-adv-x="700" 
d="M350 -11q-143 0 -222.5 79t-79.5 222v428h166v-424q0 -78 35 -118.5t101 -40.5t100.5 40.5t34.5 118.5v424h167v-428q0 -143 -79.5 -222t-222.5 -79zM323 756h-156v143h156v-143zM533 756h-156v143h156v-143z" />
    <glyph glyph-name="Yacute" unicode="&#xdd;" horiz-adv-x="677" 
d="M177 718l164 -278l164 278h176l-259 -430v-288h-167v288l-259 430h181zM399 756h-132l77 158h211z" />
    <glyph glyph-name="Thorn" unicode="&#xde;" horiz-adv-x="646" 
d="M634 369q0 -112 -72 -173.5t-202 -61.5h-136v-134h-167v718h167v-115h136q131 0 202.5 -61t71.5 -173zM351 464h-127v-191h127q57 0 88 25t31 71t-31 70.5t-88 24.5z" />
    <glyph glyph-name="germandbls" unicode="&#xdf;" horiz-adv-x="599" 
d="M309 730q101 0 164 -52t63 -135q0 -52 -21 -89t-62 -58q62 -23 95.5 -70.5t33.5 -114.5q0 -50 -18 -91t-52 -70q-32 -28 -75.5 -42.5t-92.5 -14.5q-26 0 -47.5 1.5t-42.5 5.5v124q17 -3 32 -4.5t34 -1.5q51 0 80.5 26.5t29.5 74.5q0 50 -32 75.5t-93 25.5h-48v130h35
q45 0 70 21t25 58q0 34 -21.5 53t-58.5 19q-47 0 -72 -32.5t-25 -93.5v-475h-158v473q0 118 69 187.5t188 69.5z" />
    <glyph glyph-name="agrave" unicode="&#xe0;" horiz-adv-x="557" 
d="M357 47q-27 -28 -66.5 -42.5t-89.5 -14.5q-80 0 -131 44t-51 113q0 70 50.5 112t152.5 57l118 20v9q0 32 -18.5 48t-54.5 16q-34 0 -53 -15t-27 -48l-153 23q19 77 83.5 123t156.5 46q107 0 165 -48.5t58 -137.5v-203q0 -20 9 -27t32 -4v-118q-68 -11 -114.5 1t-66.5 46z
M238 107q44 0 73 22.5t29 59.5v44l-92 -17q-39 -6 -56 -20t-17 -38t17 -37.5t46 -13.5zM293 718l54 -148h-126l-118 148h190z" />
    <glyph glyph-name="aacute" unicode="&#xe1;" horiz-adv-x="557" 
d="M357 47q-27 -28 -66.5 -42.5t-89.5 -14.5q-80 0 -131 44t-51 113q0 70 50.5 112t152.5 57l118 20v9q0 32 -18.5 48t-54.5 16q-34 0 -53 -15t-27 -48l-153 23q19 77 83.5 123t156.5 46q107 0 165 -48.5t58 -137.5v-203q0 -20 9 -27t32 -4v-118q-68 -11 -114.5 1t-66.5 46z
M238 107q44 0 73 22.5t29 59.5v44l-92 -17q-39 -6 -56 -20t-17 -38t17 -37.5t46 -13.5zM339 570h-126l54 148h190z" />
    <glyph glyph-name="acircumflex" unicode="&#xe2;" horiz-adv-x="557" 
d="M357 47q-27 -28 -66.5 -42.5t-89.5 -14.5q-80 0 -131 44t-51 113q0 70 50.5 112t152.5 57l118 20v9q0 32 -18.5 48t-54.5 16q-34 0 -53 -15t-27 -48l-153 23q19 77 83.5 123t156.5 46q107 0 165 -48.5t58 -137.5v-203q0 -20 9 -27t32 -4v-118q-68 -11 -114.5 1t-66.5 46z
M238 107q44 0 73 22.5t29 59.5v44l-92 -17q-39 -6 -56 -20t-17 -38t17 -37.5t46 -13.5zM199 718h158l101 -148h-118l-62 52l-62 -52h-118z" />
    <glyph glyph-name="atilde" unicode="&#xe3;" horiz-adv-x="557" 
d="M357 47q-27 -28 -66.5 -42.5t-89.5 -14.5q-80 0 -131 44t-51 113q0 70 50.5 112t152.5 57l118 20v9q0 32 -18.5 48t-54.5 16q-34 0 -53 -15t-27 -48l-153 23q19 77 83.5 123t156.5 46q107 0 165 -48.5t58 -137.5v-203q0 -20 9 -27t32 -4v-118q-68 -11 -114.5 1t-66.5 46z
M238 107q44 0 73 22.5t29 59.5v44l-92 -17q-39 -6 -56 -20t-17 -38t17 -37.5t46 -13.5zM212 727q16 0 31 -6t39 -23q16 -12 23.5 -15.5t14.5 -3.5q15 0 24 11.5t13 36.5h97q-2 -73 -33 -115t-82 -42q-16 0 -31 5.5t-39 22.5q-16 12 -23.5 15.5t-14.5 3.5q-15 0 -24 -11
t-13 -36h-97q2 72 33 114.5t82 42.5z" />
    <glyph glyph-name="adieresis" unicode="&#xe4;" horiz-adv-x="557" 
d="M357 47q-27 -28 -66.5 -42.5t-89.5 -14.5q-80 0 -131 44t-51 113q0 70 50.5 112t152.5 57l118 20v9q0 32 -18.5 48t-54.5 16q-34 0 -53 -15t-27 -48l-153 23q19 77 83.5 123t156.5 46q107 0 165 -48.5t58 -137.5v-203q0 -20 9 -27t32 -4v-118q-68 -11 -114.5 1t-66.5 46z
M238 107q44 0 73 22.5t29 59.5v44l-92 -17q-39 -6 -56 -20t-17 -38t17 -37.5t46 -13.5zM251 581h-156v137h156v-137zM455 581h-156v137h156v-137z" />
    <glyph glyph-name="aring" unicode="&#xe5;" horiz-adv-x="557" 
d="M357 47q-27 -28 -66.5 -42.5t-89.5 -14.5q-80 0 -131 44t-51 113q0 70 50.5 112t152.5 57l118 20v9q0 32 -18.5 48t-54.5 16q-34 0 -53 -15t-27 -48l-153 23q19 77 83.5 123t156.5 46q107 0 165 -48.5t58 -137.5v-203q0 -20 9 -27t32 -4v-118q-68 -11 -114.5 1t-66.5 46z
M238 107q44 0 73 22.5t29 59.5v44l-92 -17q-39 -6 -56 -20t-17 -38t17 -37.5t46 -13.5zM272 560q-50 0 -83 32t-33 79t33 78.5t83 31.5t83 -31.5t33 -78.5t-33 -79t-83 -32zM272 713q-17 0 -29 -12.5t-12 -29.5q0 -18 11.5 -30t29.5 -12t29.5 12t11.5 30q0 17 -12 29.5
t-29 12.5z" />
    <glyph glyph-name="ae" unicode="&#xe6;" horiz-adv-x="870" 
d="M19 148q0 83 68 130.5t184 47.5h69v15q0 34 -18.5 51t-54.5 17q-33 0 -53 -15.5t-28 -47.5l-152 25q20 75 85 121t155 46q52 0 93 -16t68 -46q35 30 77.5 46t88.5 16q57 0 103.5 -20t80.5 -58q30 -35 46.5 -83.5t16.5 -105.5v-43h-356q7 -52 37.5 -82t76.5 -30
q39 0 66.5 18.5t38.5 51.5l133 -43q-27 -72 -91.5 -113t-148.5 -41q-61 0 -112 22t-86 63q-30 -40 -81 -62t-116 -22q-84 0 -137 44t-53 114zM600 414q-39 0 -66 -23t-38 -65h195q-2 40 -26.5 64t-64.5 24zM175 166q0 -26 18 -41t47 -15q42 0 71 25.5t29 64.5v28h-60
q-55 0 -80 -15t-25 -47z" />
    <glyph glyph-name="ccedilla" unicode="&#xe7;" horiz-adv-x="531" 
d="M290 406q-51 0 -80 -38t-29 -105q0 -66 29 -104t80 -38q36 0 60.5 23t33.5 64l139 -54q-17 -70 -76 -115t-142 -50l-2 -8q41 -6 62.5 -26t21.5 -53q0 -39 -35.5 -64t-89.5 -25q-34 0 -62.5 9.5t-47.5 26.5l45 66q10 -12 24 -18.5t28 -6.5q18 0 27 5.5t9 15.5
q0 12 -15.5 19t-50.5 9l16 55q-96 17 -154 90t-58 179q0 59 18.5 109t54.5 88t85.5 58t107.5 20q88 0 151 -45t82 -118l-138 -56q-9 41 -33.5 64t-60.5 23z" />
    <glyph glyph-name="egrave" unicode="&#xe8;" horiz-adv-x="555" 
d="M290 -11q-59 0 -108.5 20t-86.5 57q-35 37 -53.5 88t-18.5 110q0 56 19 106t55 88q36 39 85 59.5t105 20.5q57 0 103.5 -20t80.5 -58q30 -35 46.5 -83.5t16.5 -105.5v-42h-357q8 -53 38.5 -83t76.5 -30q39 0 66 18t38 52l134 -43q-28 -72 -92.5 -113t-147.5 -41zM285 414
q-38 0 -64.5 -22.5t-38.5 -64.5h194q-1 39 -25.5 63t-65.5 24zM302 718l54 -148h-126l-118 148h190z" />
    <glyph glyph-name="eacute" unicode="&#xe9;" horiz-adv-x="555" 
d="M290 -11q-59 0 -108.5 20t-86.5 57q-35 37 -53.5 88t-18.5 110q0 56 19 106t55 88q36 39 85 59.5t105 20.5q57 0 103.5 -20t80.5 -58q30 -35 46.5 -83.5t16.5 -105.5v-42h-357q8 -53 38.5 -83t76.5 -30q39 0 66 18t38 52l134 -43q-28 -72 -92.5 -113t-147.5 -41zM285 414
q-38 0 -64.5 -22.5t-38.5 -64.5h194q-1 39 -25.5 63t-65.5 24zM349 570h-126l54 148h190z" />
    <glyph glyph-name="ecircumflex" unicode="&#xea;" horiz-adv-x="555" 
d="M290 -11q-59 0 -108.5 20t-86.5 57q-35 37 -53.5 88t-18.5 110q0 56 19 106t55 88q36 39 85 59.5t105 20.5q57 0 103.5 -20t80.5 -58q30 -35 46.5 -83.5t16.5 -105.5v-42h-357q8 -53 38.5 -83t76.5 -30q39 0 66 18t38 52l134 -43q-28 -72 -92.5 -113t-147.5 -41zM285 414
q-38 0 -64.5 -22.5t-38.5 -64.5h194q-1 39 -25.5 63t-65.5 24zM211 718h158l101 -148h-118l-62 52l-62 -52h-118z" />
    <glyph glyph-name="edieresis" unicode="&#xeb;" horiz-adv-x="555" 
d="M290 -11q-59 0 -108.5 20t-86.5 57q-35 37 -53.5 88t-18.5 110q0 56 19 106t55 88q36 39 85 59.5t105 20.5q57 0 103.5 -20t80.5 -58q30 -35 46.5 -83.5t16.5 -105.5v-42h-357q8 -53 38.5 -83t76.5 -30q39 0 66 18t38 52l134 -43q-28 -72 -92.5 -113t-147.5 -41zM285 414
q-38 0 -64.5 -22.5t-38.5 -64.5h194q-1 39 -25.5 63t-65.5 24zM266 581h-156v137h156v-137zM470 581h-156v137h156v-137z" />
    <glyph glyph-name="igrave" unicode="&#xec;" horiz-adv-x="265" 
d="M52 527h160v-527h-160v527zM143 718l54 -148h-126l-118 148h190z" />
    <glyph glyph-name="iacute" unicode="&#xed;" horiz-adv-x="265" 
d="M52 527h160v-527h-160v527zM196 570h-126l54 148h190z" />
    <glyph glyph-name="icircumflex" unicode="&#xee;" horiz-adv-x="265" 
d="M53 718h159l96 -148h-117l-59 52l-58 -52h-117zM52 527h160v-527h-160v527z" />
    <glyph glyph-name="idieresis" unicode="&#xef;" horiz-adv-x="265" 
d="M109 581h-153v137h153v-137zM308 581h-152v137h152v-137zM52 527h160v-527h-160v527z" />
    <glyph glyph-name="eth" unicode="&#xf0;" horiz-adv-x="574" 
d="M277 527q18 0 34 -3.5t28 -9.5q-9 14 -21 28.5t-28 29.5l-184 -48v106l81 21q-19 13 -39 26.5t-41 26.5l168 25q16 -10 30.5 -20t27.5 -20l144 37v-106l-53 -14q64 -69 95.5 -148.5t31.5 -171.5q0 -64 -17 -117t-49 -93q-35 -42 -86 -64.5t-112 -22.5q-58 0 -107.5 20
t-85.5 58q-34 37 -52.5 87t-18.5 109q0 58 17.5 106t51.5 84t81.5 55t103.5 19zM287 407q-49 0 -77 -38t-28 -106t28 -106t77 -38t77 38t28 106t-28 106t-77 38z" />
    <glyph glyph-name="ntilde" unicode="&#xf1;" horiz-adv-x="583" 
d="M212 0h-160v527h160v-53q26 30 63.5 47t81.5 17q80 0 128 -51.5t48 -138.5v-348h-160v302q0 44 -19 68t-55 24q-38 0 -62.5 -25.5t-24.5 -67.5v-301zM238 727q16 0 31 -6t39 -23q16 -12 23.5 -15.5t14.5 -3.5q15 0 24 11.5t13 36.5h97q-2 -73 -33 -115t-82 -42
q-16 0 -31 5.5t-39 22.5q-16 12 -23.5 15.5t-14.5 3.5q-15 0 -24 -11t-13 -36h-97q2 72 33 114.5t82 42.5z" />
    <glyph glyph-name="ograve" unicode="&#xf2;" horiz-adv-x="574" 
d="M479 460q35 -38 53.5 -88t18.5 -109t-18.5 -109t-53.5 -87q-35 -38 -84.5 -58t-107.5 -20t-107.5 20t-85.5 58q-34 37 -52.5 87t-18.5 109t18.5 109.5t52.5 87.5q36 38 85.5 58t107.5 20t107.5 -20t84.5 -58zM287 407q-49 0 -77 -38t-28 -106t28 -106t77 -38t77 38
t28 106t-28 106t-77 38zM305 718l54 -148h-126l-118 148h190z" />
    <glyph glyph-name="oacute" unicode="&#xf3;" horiz-adv-x="574" 
d="M479 460q35 -38 53.5 -88t18.5 -109t-18.5 -109t-53.5 -87q-35 -38 -84.5 -58t-107.5 -20t-107.5 20t-85.5 58q-34 37 -52.5 87t-18.5 109t18.5 109.5t52.5 87.5q36 38 85.5 58t107.5 20t107.5 -20t84.5 -58zM287 407q-49 0 -77 -38t-28 -106t28 -106t77 -38t77 38
t28 106t-28 106t-77 38zM344 570h-126l54 148h190z" />
    <glyph glyph-name="ocircumflex" unicode="&#xf4;" horiz-adv-x="574" 
d="M479 460q35 -38 53.5 -88t18.5 -109t-18.5 -109t-53.5 -87q-35 -38 -84.5 -58t-107.5 -20t-107.5 20t-85.5 58q-34 37 -52.5 87t-18.5 109t18.5 109.5t52.5 87.5q36 38 85.5 58t107.5 20t107.5 -20t84.5 -58zM287 407q-49 0 -77 -38t-28 -106t28 -106t77 -38t77 38
t28 106t-28 106t-77 38zM208 718h158l101 -148h-118l-62 52l-62 -52h-118z" />
    <glyph glyph-name="otilde" unicode="&#xf5;" horiz-adv-x="574" 
d="M479 460q35 -38 53.5 -88t18.5 -109t-18.5 -109t-53.5 -87q-35 -38 -84.5 -58t-107.5 -20t-107.5 20t-85.5 58q-34 37 -52.5 87t-18.5 109t18.5 109.5t52.5 87.5q36 38 85.5 58t107.5 20t107.5 -20t84.5 -58zM287 407q-49 0 -77 -38t-28 -106t28 -106t77 -38t77 38
t28 106t-28 106t-77 38zM223 727q16 0 31 -6t39 -23q16 -12 23.5 -15.5t14.5 -3.5q15 0 24 11.5t13 36.5h97q-2 -73 -33 -115t-82 -42q-16 0 -31 5.5t-39 22.5q-16 12 -23.5 15.5t-14.5 3.5q-15 0 -24 -11t-13 -36h-97q2 72 33 114.5t82 42.5z" />
    <glyph glyph-name="odieresis" unicode="&#xf6;" horiz-adv-x="574" 
d="M479 460q35 -38 53.5 -88t18.5 -109t-18.5 -109t-53.5 -87q-35 -38 -84.5 -58t-107.5 -20t-107.5 20t-85.5 58q-34 37 -52.5 87t-18.5 109t18.5 109.5t52.5 87.5q36 38 85.5 58t107.5 20t107.5 -20t84.5 -58zM287 407q-49 0 -77 -38t-28 -106t28 -106t77 -38t77 38
t28 106t-28 106t-77 38zM263 581h-156v137h156v-137zM467 581h-156v137h156v-137z" />
    <glyph glyph-name="divide" unicode="&#xf7;" horiz-adv-x="608" 
d="M385 485h-164v157h164v-157zM570 282h-532v127h532v-127zM385 49h-164v158h164v-158z" />
    <glyph glyph-name="oslash" unicode="&#xf8;" horiz-adv-x="574" 
d="M23 263q0 59 18.5 109.5t52.5 87.5q36 38 85.5 58t107.5 20q37 0 70 -8t61 -24l44 54l81 -64l-46 -57q27 -36 40.5 -80.5t13.5 -95.5q0 -59 -18.5 -109t-53.5 -87q-35 -38 -84.5 -58t-107.5 -20q-36 0 -69.5 8t-62.5 23l-43 -52l-80 64l45 55q-27 36 -40.5 80.5
t-13.5 95.5zM287 418q-53 0 -83 -41t-30 -114q0 -11 1 -22.5t3 -28.5l159 194q-11 6 -23.5 9t-26.5 3zM287 108q53 0 83 41t30 114q0 13 -1 25.5t-4 26.5l-159 -195q11 -6 24 -9t27 -3z" />
    <glyph glyph-name="ugrave" unicode="&#xf9;" horiz-adv-x="583" 
d="M371 527h160v-527h-160v52q-27 -30 -63.5 -46.5t-78.5 -16.5q-81 0 -130 51.5t-49 137.5v349h160v-311q0 -42 19 -64.5t56 -22.5t61.5 25.5t24.5 67.5v305zM304 718l54 -148h-126l-118 148h190z" />
    <glyph glyph-name="uacute" unicode="&#xfa;" horiz-adv-x="583" 
d="M371 527h160v-527h-160v52q-27 -30 -63.5 -46.5t-78.5 -16.5q-81 0 -130 51.5t-49 137.5v349h160v-311q0 -42 19 -64.5t56 -22.5t61.5 25.5t24.5 67.5v305zM353 570h-126l54 148h190z" />
    <glyph glyph-name="ucircumflex" unicode="&#xfb;" horiz-adv-x="583" 
d="M371 527h160v-527h-160v52q-27 -30 -63.5 -46.5t-78.5 -16.5q-81 0 -130 51.5t-49 137.5v349h160v-311q0 -42 19 -64.5t56 -22.5t61.5 25.5t24.5 67.5v305zM211 718h158l101 -148h-118l-62 52l-62 -52h-118z" />
    <glyph glyph-name="udieresis" unicode="&#xfc;" horiz-adv-x="583" 
d="M371 527h160v-527h-160v52q-27 -30 -63.5 -46.5t-78.5 -16.5q-81 0 -130 51.5t-49 137.5v349h160v-311q0 -42 19 -64.5t56 -22.5t61.5 25.5t24.5 67.5v305zM266 581h-156v137h156v-137zM470 581h-156v137h156v-137z" />
    <glyph glyph-name="yacute" unicode="&#xfd;" horiz-adv-x="538" 
d="M538 527l-201 -539q-35 -96 -83.5 -133.5t-128.5 -37.5q-18 0 -31 0.5t-29 2.5v127q12 -2 21 -2.5t19 -0.5q29 0 44.5 10.5t24.5 34.5l13 34l-187 504h165l108 -324l106 324h159zM339 570h-126l54 148h190z" />
    <glyph glyph-name="thorn" unicode="&#xfe;" horiz-adv-x="606" 
d="M526 74q-30 -41 -74 -63t-97 -22q-44 0 -81.5 16.5t-61.5 46.5v-228h-160v894h160v-244q24 31 61.5 47.5t81.5 16.5q53 0 97 -22t75 -64q27 -37 41 -85.5t14 -103.5t-14.5 -103.5t-41.5 -85.5zM314 401q-47 0 -75 -33.5t-28 -90.5v-28q0 -57 28 -90.5t75 -33.5
q50 0 78.5 37t28.5 101t-28.5 101t-78.5 37z" />
    <glyph glyph-name="ydieresis" unicode="&#xff;" horiz-adv-x="538" 
d="M538 527l-201 -539q-35 -96 -83.5 -133.5t-128.5 -37.5q-18 0 -31 0.5t-29 2.5v127q12 -2 21 -2.5t19 -0.5q29 0 44.5 10.5t24.5 34.5l13 34l-187 504h165l108 -324l106 324h159zM251 581h-156v137h156v-137zM455 581h-156v137h156v-137z" />
    <glyph glyph-name="Amacron" unicode="&#x100;" horiz-adv-x="733" 
d="M6 0l265 718h191l264 -718h-169l-52 144h-282l-52 -144h-165zM454 282l-91 251l-90 -251h181zM544 883v-121h-356v121h356z" />
    <glyph glyph-name="amacron" unicode="&#x101;" horiz-adv-x="557" 
d="M357 47q-27 -28 -66.5 -42.5t-89.5 -14.5q-80 0 -131 44t-51 113q0 70 50.5 112t152.5 57l118 20v9q0 32 -18.5 48t-54.5 16q-34 0 -53 -15t-27 -48l-153 23q19 77 83.5 123t156.5 46q107 0 165 -48.5t58 -137.5v-203q0 -20 9 -27t32 -4v-118q-68 -11 -114.5 1t-66.5 46z
M238 107q44 0 73 22.5t29 59.5v44l-92 -17q-39 -6 -56 -20t-17 -38t17 -37.5t46 -13.5zM437 702v-119h-322v119h322z" />
    <glyph glyph-name="Abreve" unicode="&#x102;" horiz-adv-x="733" 
d="M6 0l265 718h191l264 -718h-169l-52 144h-282l-52 -144h-165zM454 282l-91 251l-90 -251h181zM366 857q27 0 45 17t18 44h115q0 -75 -48 -119.5t-130 -44.5t-130 44.5t-48 119.5h115q0 -27 18 -44t45 -17z" />
    <glyph glyph-name="abreve" unicode="&#x103;" horiz-adv-x="557" 
d="M357 47q-27 -28 -66.5 -42.5t-89.5 -14.5q-80 0 -131 44t-51 113q0 70 50.5 112t152.5 57l118 20v9q0 32 -18.5 48t-54.5 16q-34 0 -53 -15t-27 -48l-153 23q19 77 83.5 123t156.5 46q107 0 165 -48.5t58 -137.5v-203q0 -20 9 -27t32 -4v-118q-68 -11 -114.5 1t-66.5 46z
M238 107q44 0 73 22.5t29 59.5v44l-92 -17q-39 -6 -56 -20t-17 -38t17 -37.5t46 -13.5zM277 668q24 0 39 14t15 36h109q0 -70 -43 -110t-120 -40t-120 40t-43 110h109q0 -22 15 -36t39 -14z" />
    <glyph glyph-name="Aogonek" unicode="&#x104;" horiz-adv-x="733" 
d="M588 -183q-46 0 -76 25t-30 66q0 31 17 57.5t52 51.5l-46 127h-282l-52 -144h-165l265 718h191l264 -718h-82q-32 -20 -45 -34.5t-13 -29.5q0 -13 9 -20t24 -7q10 0 18.5 1.5t20.5 4.5v-89q-17 -5 -33 -7t-37 -2zM454 282l-91 251l-90 -251h181z" />
    <glyph glyph-name="aogonek" unicode="&#x105;" horiz-adv-x="557" 
d="M357 47q-27 -28 -66.5 -42.5t-89.5 -14.5q-80 0 -131 44t-51 113q0 70 50.5 112t152.5 57l118 20v9q0 32 -18.5 48t-54.5 16q-34 0 -53 -15t-27 -48l-153 23q19 77 83.5 123t156.5 46q107 0 165 -48.5t58 -137.5v-203q0 -20 9 -27t32 -4v-118q-3 -1 -7 -1.5l-20 -2.5
q-29 -18 -41 -31.5t-12 -28.5q0 -13 9 -20t24 -7q10 0 18.5 1.5t20.5 4.5v-89q-17 -5 -33 -7t-37 -2q-46 0 -76 25t-30 66q0 27 13 51.5t41 46.5q-17 7 -30 17t-21 24zM238 107q44 0 73 22.5t29 59.5v44l-92 -17q-39 -6 -56 -20t-17 -38t17 -37.5t46 -13.5z" />
    <glyph glyph-name="Cacute" unicode="&#x106;" horiz-adv-x="674" 
d="M362 584q-76 0 -123.5 -62t-47.5 -163t47.5 -163t123.5 -62q55 0 93 32.5t51 90.5l157 -52q-35 -104 -112.5 -160t-187.5 -56q-74 0 -138 28t-111 82q-44 50 -67 116.5t-23 143.5t23 143.5t67 116.5q47 54 111 82t138 28q110 0 187.5 -56t112.5 -160l-157 -52
q-13 58 -51 90.5t-93 32.5zM425 756h-132l77 158h211z" />
    <glyph glyph-name="cacute" unicode="&#x107;" horiz-adv-x="531" 
d="M290 406q-51 0 -80 -38t-29 -105q0 -66 29 -104t80 -38q36 0 60.5 23t33.5 64l139 -54q-18 -74 -82 -119.5t-152 -45.5q-58 0 -107.5 20t-85.5 58q-36 37 -54.5 87.5t-18.5 108.5q0 59 18.5 109t54.5 88t85.5 58t107.5 20q88 0 151 -45t82 -118l-138 -56q-9 41 -33.5 64
t-60.5 23zM342 570h-126l54 148h190z" />
    <glyph glyph-name="Ccircumflex" unicode="&#x108;" horiz-adv-x="674" 
d="M362 584q-76 0 -123.5 -62t-47.5 -163t47.5 -163t123.5 -62q55 0 93 32.5t51 90.5l157 -52q-35 -104 -112.5 -160t-187.5 -56q-74 0 -138 28t-111 82q-44 50 -67 116.5t-23 143.5t23 143.5t67 116.5q47 54 111 82t138 28q110 0 187.5 -56t112.5 -160l-157 -52
q-13 58 -51 90.5t-93 32.5zM283 914h166l115 -158h-119l-79 64l-79 -64h-119z" />
    <glyph glyph-name="ccircumflex" unicode="&#x109;" horiz-adv-x="531" 
d="M290 406q-51 0 -80 -38t-29 -105q0 -66 29 -104t80 -38q36 0 60.5 23t33.5 64l139 -54q-18 -74 -82 -119.5t-152 -45.5q-58 0 -107.5 20t-85.5 58q-36 37 -54.5 87.5t-18.5 108.5q0 59 18.5 109t54.5 88t85.5 58t107.5 20q88 0 151 -45t82 -118l-138 -56q-9 41 -33.5 64
t-60.5 23zM211 718h158l101 -148h-118l-62 52l-62 -52h-118z" />
    <glyph glyph-name="Cdotaccent" unicode="&#x10a;" horiz-adv-x="674" 
d="M362 584q-76 0 -123.5 -62t-47.5 -163t47.5 -163t123.5 -62q55 0 93 32.5t51 90.5l157 -52q-35 -104 -112.5 -160t-187.5 -56q-74 0 -138 28t-111 82q-44 50 -67 116.5t-23 143.5t23 143.5t67 116.5q47 54 111 82t138 28q110 0 187.5 -56t112.5 -160l-157 -52
q-13 58 -51 90.5t-93 32.5zM450 756h-164v143h164v-143z" />
    <glyph glyph-name="cdotaccent" unicode="&#x10b;" horiz-adv-x="531" 
d="M290 406q-51 0 -80 -38t-29 -105q0 -66 29 -104t80 -38q36 0 60.5 23t33.5 64l139 -54q-18 -74 -82 -119.5t-152 -45.5q-58 0 -107.5 20t-85.5 58q-36 37 -54.5 87.5t-18.5 108.5q0 59 18.5 109t54.5 88t85.5 58t107.5 20q88 0 151 -45t82 -118l-138 -56q-9 41 -33.5 64
t-60.5 23zM371 581h-162v137h162v-137z" />
    <glyph glyph-name="Ccaron" unicode="&#x10c;" horiz-adv-x="674" 
d="M362 584q-76 0 -123.5 -62t-47.5 -163t47.5 -163t123.5 -62q55 0 93 32.5t51 90.5l157 -52q-35 -104 -112.5 -160t-187.5 -56q-74 0 -138 28t-111 82q-44 50 -67 116.5t-23 143.5t23 143.5t67 116.5q47 54 111 82t138 28q110 0 187.5 -56t112.5 -160l-157 -52
q-13 58 -51 90.5t-93 32.5zM567 915l-115 -158h-166l-115 158h119l79 -64l79 64h119z" />
    <glyph glyph-name="ccaron" unicode="&#x10d;" horiz-adv-x="531" 
d="M290 406q-51 0 -80 -38t-29 -105q0 -66 29 -104t80 -38q36 0 60.5 23t33.5 64l139 -54q-18 -74 -82 -119.5t-152 -45.5q-58 0 -107.5 20t-85.5 58q-36 37 -54.5 87.5t-18.5 108.5q0 59 18.5 109t54.5 88t85.5 58t107.5 20q88 0 151 -45t82 -118l-138 -56q-9 41 -33.5 64
t-60.5 23zM473 718l-101 -148h-158l-101 148h118l62 -52l62 52h118z" />
    <glyph glyph-name="Dcaron" unicode="&#x10e;" horiz-adv-x="703" 
d="M312 0h-255v718h255q83 0 150.5 -24t116.5 -71q49 -48 74.5 -115t25.5 -149t-25.5 -149t-74.5 -115q-49 -47 -116.5 -71t-150.5 -24zM220 577v-436h92q95 0 148.5 58.5t53.5 159.5q0 102 -54 160t-149 58h-91zM523 915l-115 -158h-166l-115 158h119l79 -64l79 64h119z
" />
    <glyph glyph-name="dcaron" unicode="&#x10f;" horiz-adv-x="758" 
d="M251 -11q-53 0 -97 22t-74 63q-27 37 -41.5 85.5t-14.5 103.5t14 103.5t41 85.5q31 42 75 64t97 22q44 0 81.5 -16.5t61.5 -47.5v244h160v-718h-160v52q-24 -30 -61.5 -46.5t-81.5 -16.5zM395 249v28q0 57 -28 90.5t-75 33.5q-50 0 -78.5 -37t-28.5 -101t28.5 -101
t78.5 -37q47 0 75 33.5t28 90.5zM702 550h-108l17 168h171z" />
    <glyph glyph-name="Dcroat" unicode="&#x110;" horiz-adv-x="717" 
d="M326 0h-255v295h-56v143h56v280h255q83 0 150.5 -24t116.5 -71q49 -48 74.5 -115t25.5 -149t-25.5 -149t-74.5 -115q-49 -47 -116.5 -71t-150.5 -24zM234 295v-154h92q95 0 148.5 58.5t53.5 159.5q0 102 -54 160t-149 58h-91v-139h112v-143h-112z" />
    <glyph glyph-name="dcroat" unicode="&#x111;" horiz-adv-x="607" 
d="M251 -11q-53 0 -97 22t-74 63q-27 37 -41.5 85.5t-14.5 103.5t14 103.5t41 85.5q31 42 75 64t97 22q44 0 81.5 -16.5t61.5 -47.5v89h-117v108h117v47h160v-47h51v-108h-51v-563h-160v52q-24 -30 -61.5 -46.5t-81.5 -16.5zM395 249v28q0 57 -28 90.5t-75 33.5
q-50 0 -78.5 -37t-28.5 -101t28.5 -101t78.5 -37q47 0 75 33.5t28 90.5z" />
    <glyph glyph-name="Emacron" unicode="&#x112;" horiz-adv-x="599" 
d="M57 0v718h507v-143h-343v-138h286v-141h-286v-153h343v-143h-507zM490 883v-121h-356v121h356z" />
    <glyph glyph-name="emacron" unicode="&#x113;" horiz-adv-x="555" 
d="M290 -11q-59 0 -108.5 20t-86.5 57q-35 37 -53.5 88t-18.5 110q0 56 19 106t55 88q36 39 85 59.5t105 20.5q57 0 103.5 -20t80.5 -58q30 -35 46.5 -83.5t16.5 -105.5v-42h-357q8 -53 38.5 -83t76.5 -30q39 0 66 18t38 52l134 -43q-28 -72 -92.5 -113t-147.5 -41zM285 414
q-38 0 -64.5 -22.5t-38.5 -64.5h194q-1 39 -25.5 63t-65.5 24zM448 702v-119h-322v119h322z" />
    <glyph glyph-name="Ebreve" unicode="&#x114;" horiz-adv-x="599" 
d="M57 0v718h507v-143h-343v-138h286v-141h-286v-153h343v-143h-507zM315 857q27 0 45 17t18 44h115q0 -75 -48 -119.5t-130 -44.5t-130 44.5t-48 119.5h115q0 -27 18 -44t45 -17z" />
    <glyph glyph-name="ebreve" unicode="&#x115;" horiz-adv-x="555" 
d="M290 -11q-59 0 -108.5 20t-86.5 57q-35 37 -53.5 88t-18.5 110q0 56 19 106t55 88q36 39 85 59.5t105 20.5q57 0 103.5 -20t80.5 -58q30 -35 46.5 -83.5t16.5 -105.5v-42h-357q8 -53 38.5 -83t76.5 -30q39 0 66 18t38 52l134 -43q-28 -72 -92.5 -113t-147.5 -41zM285 414
q-38 0 -64.5 -22.5t-38.5 -64.5h194q-1 39 -25.5 63t-65.5 24zM289 668q24 0 39 14t15 36h109q0 -70 -43 -110t-120 -40t-120 40t-43 110h109q0 -22 15 -36t39 -14z" />
    <glyph glyph-name="Edotaccent" unicode="&#x116;" horiz-adv-x="599" 
d="M57 0v718h507v-143h-343v-138h286v-141h-286v-153h343v-143h-507zM398 756h-164v143h164v-143z" />
    <glyph glyph-name="edotaccent" unicode="&#x117;" horiz-adv-x="555" 
d="M290 -11q-59 0 -108.5 20t-86.5 57q-35 37 -53.5 88t-18.5 110q0 56 19 106t55 88q36 39 85 59.5t105 20.5q57 0 103.5 -20t80.5 -58q30 -35 46.5 -83.5t16.5 -105.5v-42h-357q8 -53 38.5 -83t76.5 -30q39 0 66 18t38 52l134 -43q-28 -72 -92.5 -113t-147.5 -41zM285 414
q-38 0 -64.5 -22.5t-38.5 -64.5h194q-1 39 -25.5 63t-65.5 24zM368 581h-162v137h162v-137z" />
    <glyph glyph-name="Eogonek" unicode="&#x118;" horiz-adv-x="599" 
d="M451 -183q-46 0 -76 25t-30 66q0 26 11.5 48.5t35.5 43.5h-335v718h507v-143h-343v-138h286v-141h-286v-153h343v-143h-57q-32 -20 -45 -34.5t-13 -29.5q0 -13 9 -20t24 -7q10 0 18.5 1.5t20.5 4.5v-89q-17 -5 -33 -7t-37 -2z" />
    <glyph glyph-name="eogonek" unicode="&#x119;" horiz-adv-x="555" 
d="M319 -183q-46 0 -76 25t-30 66q0 23 9 43.5t28 39.5q-103 13 -165 87t-62 186q0 56 19 106t55 88q36 39 85 59.5t105 20.5q57 0 103.5 -20t80.5 -58q30 -35 46.5 -83.5t16.5 -105.5v-42h-357q8 -53 38.5 -83t76.5 -30q39 0 66 18t38 52l134 -43q-19 -50 -58 -86t-92 -54
q-35 -22 -49 -36.5t-14 -30.5q0 -13 9 -20t24 -7q10 0 18.5 1.5t20.5 4.5v-89q-17 -5 -33 -7t-37 -2zM285 414q-38 0 -64.5 -22.5t-38.5 -64.5h194q-1 39 -25.5 63t-65.5 24z" />
    <glyph glyph-name="Ecaron" unicode="&#x11a;" horiz-adv-x="599" 
d="M57 0v718h507v-143h-343v-138h286v-141h-286v-153h343v-143h-507zM514 915l-115 -158h-166l-115 158h119l79 -64l79 64h119z" />
    <glyph glyph-name="ecaron" unicode="&#x11b;" horiz-adv-x="555" 
d="M290 -11q-59 0 -108.5 20t-86.5 57q-35 37 -53.5 88t-18.5 110q0 56 19 106t55 88q36 39 85 59.5t105 20.5q57 0 103.5 -20t80.5 -58q30 -35 46.5 -83.5t16.5 -105.5v-42h-357q8 -53 38.5 -83t76.5 -30q39 0 66 18t38 52l134 -43q-28 -72 -92.5 -113t-147.5 -41zM285 414
q-38 0 -64.5 -22.5t-38.5 -64.5h194q-1 39 -25.5 63t-65.5 24zM470 718l-101 -148h-158l-101 148h118l62 -52l62 52h118z" />
    <glyph glyph-name="Gcircumflex" unicode="&#x11c;" horiz-adv-x="734" 
d="M681 0h-148v64q-22 -34 -70.5 -54.5t-110.5 -20.5q-72 0 -134.5 28.5t-107.5 81.5q-42 49 -64 115t-22 141q0 77 23.5 144.5t67.5 118.5q47 54 111.5 82.5t139.5 28.5q113 0 191 -55.5t113 -159.5l-159 -51q-12 58 -49.5 89.5t-94.5 31.5q-79 0 -127.5 -62.5
t-48.5 -164.5t49 -164.5t130 -62.5q59 0 99 35.5t47 93.5h-159v137h324v-396zM290 914h166l115 -158h-119l-79 64l-79 -64h-119z" />
    <glyph glyph-name="gcircumflex" unicode="&#x11d;" horiz-adv-x="609" 
d="M556 527v-464q0 -117 -74.5 -183.5t-202.5 -66.5q-100 0 -165 40.5t-86 116.5l152 36q10 -34 37.5 -53t66.5 -19q54 0 82.5 28.5t28.5 82.5v34q-20 -28 -58.5 -45t-83.5 -17q-52 0 -95.5 20t-74.5 58q-27 35 -42 82t-15 100t15 100t42 82q31 39 74.5 59t95.5 20
q44 0 83 -17.5t59 -45.5v52h161zM397 269v16q0 56 -28 88.5t-75 32.5q-50 0 -77.5 -34t-27.5 -94t28 -94.5t77 -34.5q47 0 75 32.5t28 87.5zM234 718h158l101 -148h-118l-62 52l-62 -52h-118z" />
    <glyph glyph-name="Gbreve" unicode="&#x11e;" horiz-adv-x="734" 
d="M681 0h-148v64q-22 -34 -70.5 -54.5t-110.5 -20.5q-72 0 -134.5 28.5t-107.5 81.5q-42 49 -64 115t-22 141q0 77 23.5 144.5t67.5 118.5q47 54 111.5 82.5t139.5 28.5q113 0 191 -55.5t113 -159.5l-159 -51q-12 58 -49.5 89.5t-94.5 31.5q-79 0 -127.5 -62.5
t-48.5 -164.5t49 -164.5t130 -62.5q59 0 99 35.5t47 93.5h-159v137h324v-396zM373 857q27 0 45 17t18 44h115q0 -75 -48 -119.5t-130 -44.5t-130 44.5t-48 119.5h115q0 -27 18 -44t45 -17z" />
    <glyph glyph-name="gbreve" unicode="&#x11f;" horiz-adv-x="609" 
d="M556 527v-464q0 -117 -74.5 -183.5t-202.5 -66.5q-100 0 -165 40.5t-86 116.5l152 36q10 -34 37.5 -53t66.5 -19q54 0 82.5 28.5t28.5 82.5v34q-20 -28 -58.5 -45t-83.5 -17q-52 0 -95.5 20t-74.5 58q-27 35 -42 82t-15 100t15 100t42 82q31 39 74.5 59t95.5 20
q44 0 83 -17.5t59 -45.5v52h161zM397 269v16q0 56 -28 88.5t-75 32.5q-50 0 -77.5 -34t-27.5 -94t28 -94.5t77 -34.5q47 0 75 32.5t28 87.5zM314 668q24 0 39 14t15 36h109q0 -70 -43 -110t-120 -40t-120 40t-43 110h109q0 -22 15 -36t39 -14z" />
    <glyph glyph-name="Gdotaccent" unicode="&#x120;" horiz-adv-x="734" 
d="M681 0h-148v64q-22 -34 -70.5 -54.5t-110.5 -20.5q-72 0 -134.5 28.5t-107.5 81.5q-42 49 -64 115t-22 141q0 77 23.5 144.5t67.5 118.5q47 54 111.5 82.5t139.5 28.5q113 0 191 -55.5t113 -159.5l-159 -51q-12 58 -49.5 89.5t-94.5 31.5q-79 0 -127.5 -62.5
t-48.5 -164.5t49 -164.5t130 -62.5q59 0 99 35.5t47 93.5h-159v137h324v-396zM455 756h-164v143h164v-143z" />
    <glyph glyph-name="gdotaccent" unicode="&#x121;" horiz-adv-x="609" 
d="M556 527v-464q0 -117 -74.5 -183.5t-202.5 -66.5q-100 0 -165 40.5t-86 116.5l152 36q10 -34 37.5 -53t66.5 -19q54 0 82.5 28.5t28.5 82.5v34q-20 -28 -58.5 -45t-83.5 -17q-52 0 -95.5 20t-74.5 58q-27 35 -42 82t-15 100t15 100t42 82q31 39 74.5 59t95.5 20
q44 0 83 -17.5t59 -45.5v52h161zM397 269v16q0 56 -28 88.5t-75 32.5q-50 0 -77.5 -34t-27.5 -94t28 -94.5t77 -34.5q47 0 75 32.5t28 87.5zM396 581h-162v137h162v-137z" />
    <glyph glyph-name="uni0122" unicode="&#x122;" horiz-adv-x="734" 
d="M681 0h-148v64q-22 -34 -70.5 -54.5t-110.5 -20.5q-72 0 -134.5 28.5t-107.5 81.5q-42 49 -64 115t-22 141q0 77 23.5 144.5t67.5 118.5q47 54 111.5 82.5t139.5 28.5q113 0 191 -55.5t113 -159.5l-159 -51q-12 58 -49.5 89.5t-94.5 31.5q-79 0 -127.5 -62.5
t-48.5 -164.5t49 -164.5t130 -62.5q59 0 99 35.5t47 93.5h-159v137h324v-396zM340 -123h-57v90h160v-51q0 -63 -41 -96.5t-119 -33.5v59q26 0 39.5 7.5t17.5 24.5z" />
    <glyph glyph-name="uni0123" unicode="&#x123;" horiz-adv-x="609" 
d="M556 527v-464q0 -117 -74.5 -183.5t-202.5 -66.5q-100 0 -165 40.5t-86 116.5l152 36q10 -34 37.5 -53t66.5 -19q54 0 82.5 28.5t28.5 82.5v34q-20 -28 -58.5 -45t-83.5 -17q-52 0 -95.5 20t-74.5 58q-27 35 -42 82t-15 100t15 100t42 82q31 39 74.5 59t95.5 20
q44 0 83 -17.5t59 -45.5v52h161zM397 269v16q0 56 -28 88.5t-75 32.5q-50 0 -77.5 -34t-27.5 -94t28 -94.5t77 -34.5q47 0 75 32.5t28 87.5zM336 660h57v-90h-160v51q0 63 41 96.5t119 33.5v-59q-26 0 -39.5 -7.5t-17.5 -24.5z" />
    <glyph glyph-name="Hcircumflex" unicode="&#x124;" horiz-adv-x="740" 
d="M516 438v280h167v-718h-167v296h-292v-296h-167v718h167v-280h292zM288 914h166l115 -158h-119l-79 64l-79 -64h-119z" />
    <glyph glyph-name="hcircumflex" unicode="&#x125;" horiz-adv-x="583" 
d="M212 0h-160v718h160v-244q26 30 63.5 47t81.5 17q80 0 128 -51.5t48 -138.5v-348h-160v302q0 44 -19 68t-55 24q-38 0 -62.5 -25.5t-24.5 -67.5v-301zM217 914h166l115 -158h-119l-79 64l-79 -64h-119z" />
    <glyph glyph-name="Hbar" unicode="&#x126;" horiz-adv-x="760" 
d="M745 596v-141h-52v-455h-167v220h-292v-220h-167v455h-52v141h52v122h167v-122h292v122h167v-122h52zM234 455v-94h292v94h-292z" />
    <glyph glyph-name="hbar" unicode="&#x127;" horiz-adv-x="585" 
d="M214 0h-160v563h-52v108h52v47h160v-47h116v-108h-116v-89q26 30 63.5 47t81.5 17q80 0 128 -51.5t48 -138.5v-348h-160v302q0 44 -19 68t-55 24q-38 0 -62.5 -25.5t-24.5 -67.5v-301z" />
    <glyph glyph-name="Itilde" unicode="&#x128;" horiz-adv-x="281" 
d="M57 718h167v-718h-167v718zM67 930q18 0 35 -6t44 -25q20 -13 29.5 -17t17.5 -4q17 0 27 12.5t15 39.5h105q-2 -79 -36.5 -126t-91.5 -47q-18 0 -35 6t-44 24q-19 13 -28.5 17t-17.5 4q-18 0 -28 -12.5t-14 -38.5h-106q2 79 37 126t91 47z" />
    <glyph glyph-name="itilde" unicode="&#x129;" horiz-adv-x="265" 
d="M73 727q15 0 28.5 -5.5t33.5 -23.5q14 -12 21.5 -15.5t14.5 -3.5q13 0 20.5 10t12.5 38h94q-2 -73 -30.5 -115t-76.5 -42q-15 0 -29 5.5t-34 22.5q-14 12 -21 15.5t-14 3.5q-14 0 -21.5 -10.5t-11.5 -36.5h-94q2 73 30.5 115t76.5 42zM52 527h160v-527h-160v527z" />
    <glyph glyph-name="Imacron" unicode="&#x12a;" horiz-adv-x="281" 
d="M57 718h167v-718h-167v718zM318 883v-121h-356v121h356z" />
    <glyph glyph-name="imacron" unicode="&#x12b;" horiz-adv-x="265" 
d="M283 702v-119h-301v119h301zM52 527h160v-527h-160v527z" />
    <glyph glyph-name="Ibreve" unicode="&#x12c;" horiz-adv-x="281" 
d="M57 718h167v-718h-167v718zM140 857q27 0 45 17t18 44h115q0 -75 -48 -119.5t-130 -44.5t-130 44.5t-48 119.5h115q0 -27 18 -44t45 -17z" />
    <glyph glyph-name="ibreve" unicode="&#x12d;" horiz-adv-x="265" 
d="M132 668q23 0 36.5 13.5t13.5 36.5h109q0 -70 -42 -110t-117 -40q-74 0 -116 40t-42 110h108q0 -23 14 -36.5t36 -13.5zM52 527h160v-527h-160v527z" />
    <glyph glyph-name="Iogonek" unicode="&#x12e;" horiz-adv-x="281" 
d="M154 -183q-46 0 -76 25t-30 66q0 26 11.5 48.5t35.5 43.5h-38v718h167v-718h-14q-32 -20 -45 -34.5t-13 -29.5q0 -13 9 -20t24 -7q10 0 18.5 1.5t20.5 4.5v-89q-17 -5 -33 -7t-37 -2z" />
    <glyph glyph-name="iogonek" unicode="&#x12f;" horiz-adv-x="265" 
d="M214 581h-163v137h163v-137zM143 -183q-46 0 -76 25t-30 66q0 26 11.5 48.5t35.5 43.5h-32v527h160v-527h-13q-32 -20 -45 -34.5t-13 -29.5q0 -13 9 -20t24 -7q10 0 18.5 1.5t20.5 4.5v-89q-17 -5 -33 -7t-37 -2z" />
    <glyph glyph-name="Idotaccent" unicode="&#x130;" horiz-adv-x="281" 
d="M57 718h167v-718h-167v718zM222 756h-164v143h164v-143z" />
    <glyph glyph-name="dotlessi" unicode="&#x131;" horiz-adv-x="265" 
d="M52 527h160v-527h-160v527z" />
    <glyph glyph-name="Jcircumflex" unicode="&#x134;" horiz-adv-x="410" 
d="M115 -6q-27 0 -50 2t-43 5v144q25 -4 40 -5t32 -1q55 0 78.5 22.5t23.5 74.5v482h167v-507q0 -107 -63 -162t-185 -55zM189 914h166l115 -158h-119l-79 64l-79 -64h-119z" />
    <glyph glyph-name="jcircumflex" unicode="&#x135;" horiz-adv-x="265" 
d="M-6 -58q31 0 44.5 12t13.5 39v534h160v-541q0 -82 -47 -125.5t-135 -43.5q-14 0 -27.5 0.5t-41.5 3.5v123q17 -2 22 -2h11zM51 718h158l101 -148h-118l-62 52l-62 -52h-118z" />
    <glyph glyph-name="uni0136" unicode="&#x136;" horiz-adv-x="684" 
d="M57 718h167v-311l256 311h194l-259 -302l276 -416h-194l-193 287l-80 -93v-194h-167v718zM330 -123h-57v90h160v-51q0 -63 -41 -96.5t-119 -33.5v59q26 0 39.5 7.5t17.5 24.5z" />
    <glyph glyph-name="uni0137" unicode="&#x137;" horiz-adv-x="577" 
d="M52 718h160v-380l168 189h188l-189 -198l204 -329h-183l-132 212l-56 -59v-153h-160v718zM270 -123h-57v90h160v-51q0 -63 -41 -96.5t-119 -33.5v59q26 0 39.5 7.5t17.5 24.5z" />
    <glyph glyph-name="kgreenlandic" unicode="&#x138;" horiz-adv-x="577" 
d="M52 527h160v-190l170 190h186l-189 -198l204 -329h-183l-132 212l-56 -59v-153h-160v527z" />
    <glyph glyph-name="Lacute" unicode="&#x139;" horiz-adv-x="561" 
d="M545 0h-488v718h167v-575h321v-143zM207 756h-132l77 158h211z" />
    <glyph glyph-name="lacute" unicode="&#x13a;" horiz-adv-x="265" 
d="M52 718h160v-718h-160v718zM197 756h-132l77 158h211z" />
    <glyph glyph-name="uni013B" unicode="&#x13b;" horiz-adv-x="561" 
d="M545 0h-488v718h167v-575h321v-143zM283 -123h-57v90h160v-51q0 -63 -41 -96.5t-119 -33.5v59q26 0 39.5 7.5t17.5 24.5z" />
    <glyph glyph-name="uni013C" unicode="&#x13c;" horiz-adv-x="265" 
d="M52 718h160v-718h-160v718zM111 -123h-57v90h160v-51q0 -63 -41 -96.5t-119 -33.5v59q26 0 39.5 7.5t17.5 24.5z" />
    <glyph glyph-name="Lcaron" unicode="&#x13d;" horiz-adv-x="561" 
d="M545 0h-488v718h167v-575h321v-143zM441 550h-108l17 168h171z" />
    <glyph glyph-name="lcaron" unicode="&#x13e;" horiz-adv-x="418" 
d="M52 718h160v-718h-160v718zM361 550h-108l17 168h171z" />
    <glyph glyph-name="Ldot" unicode="&#x13f;" horiz-adv-x="561" 
d="M545 0h-488v718h167v-575h321v-143zM501 316h-162v137h162v-137z" />
    <glyph glyph-name="ldot" unicode="&#x140;" horiz-adv-x="451" 
d="M52 718h160v-718h-160v718zM434 271h-162v137h162v-137z" />
    <glyph glyph-name="Lslash" unicode="&#x141;" horiz-adv-x="571" 
d="M555 0h-488v231l-52 -21v141l52 21v346h167v-277l149 62v-141l-149 -62v-157h321v-143z" />
    <glyph glyph-name="lslash" unicode="&#x142;" horiz-adv-x="319" 
d="M304 536v-134l-65 -38v-364h-160v285l-64 -37v134l64 37v299h160v-220z" />
    <glyph glyph-name="Nacute" unicode="&#x143;" horiz-adv-x="735" 
d="M518 718h160v-718h-145l-316 463v-463h-160v718h167l294 -439v439zM401 756h-132l77 158h211z" />
    <glyph glyph-name="nacute" unicode="&#x144;" horiz-adv-x="583" 
d="M212 0h-160v527h160v-53q26 30 63.5 47t81.5 17q80 0 128 -51.5t48 -138.5v-348h-160v302q0 44 -19 68t-55 24q-38 0 -62.5 -25.5t-24.5 -67.5v-301zM342 570h-126l54 148h190z" />
    <glyph glyph-name="uni0145" unicode="&#x145;" horiz-adv-x="735" 
d="M518 718h160v-718h-145l-316 463v-463h-160v718h167l294 -439v439zM344 -123h-57v90h160v-51q0 -63 -41 -96.5t-119 -33.5v59q26 0 39.5 7.5t17.5 24.5z" />
    <glyph glyph-name="uni0146" unicode="&#x146;" horiz-adv-x="583" 
d="M212 0h-160v527h160v-53q26 30 63.5 47t81.5 17q80 0 128 -51.5t48 -138.5v-348h-160v302q0 44 -19 68t-55 24q-38 0 -62.5 -25.5t-24.5 -67.5v-301zM273 -123h-57v90h160v-51q0 -63 -41 -96.5t-119 -33.5v59q26 0 39.5 7.5t17.5 24.5z" />
    <glyph glyph-name="Ncaron" unicode="&#x147;" horiz-adv-x="735" 
d="M518 718h160v-718h-145l-316 463v-463h-160v718h167l294 -439v439zM565 915l-115 -158h-166l-115 158h119l79 -64l79 64h119z" />
    <glyph glyph-name="ncaron" unicode="&#x148;" horiz-adv-x="583" 
d="M212 0h-160v527h160v-53q26 30 63.5 47t81.5 17q80 0 128 -51.5t48 -138.5v-348h-160v302q0 44 -19 68t-55 24q-38 0 -62.5 -25.5t-24.5 -67.5v-301zM481 718l-101 -148h-158l-101 148h118l62 -52l62 52h118z" />
    <glyph glyph-name="Eng" unicode="&#x14a;" horiz-adv-x="735" 
d="M518 281v437h160v-732q0 -82 -47.5 -125.5t-134.5 -43.5q-14 0 -27 0.5t-42 3.5v123q11 -1 19 -1.5t13 -0.5q32 0 45.5 12t13.5 39v29l-301 439v-461h-160v718h167z" />
    <glyph glyph-name="eng" unicode="&#x14b;" horiz-adv-x="583" 
d="M357 538q80 0 128 -51.5t48 -138.5v-362q0 -82 -47 -125.5t-135 -43.5q-14 0 -27.5 0.5t-41.5 3.5v123q17 -2 22 -2h11q31 0 44.5 12t13.5 39v309q0 44 -19 68t-55 24q-38 0 -62.5 -25.5t-24.5 -67.5v-301h-160v527h160v-53q26 30 63.5 47t81.5 17z" />
    <glyph glyph-name="Omacron" unicode="&#x14c;" horiz-adv-x="736" 
d="M116 97q-45 51 -68.5 118t-23.5 144t23.5 144t68.5 118q47 52 112 80t140 28q76 0 140.5 -28t111.5 -80q45 -50 68.5 -117.5t23.5 -144.5t-23.5 -144.5t-68.5 -117.5q-47 -52 -111.5 -80t-140.5 -28q-75 0 -140 28t-112 80zM368 134q79 0 128 61.5t49 163.5t-49 163.5
t-128 61.5t-127.5 -61.5t-48.5 -163.5t48.5 -163.5t127.5 -61.5zM546 883v-121h-356v121h356z" />
    <glyph glyph-name="omacron" unicode="&#x14d;" horiz-adv-x="574" 
d="M479 460q35 -38 53.5 -88t18.5 -109t-18.5 -109t-53.5 -87q-35 -38 -84.5 -58t-107.5 -20t-107.5 20t-85.5 58q-34 37 -52.5 87t-18.5 109t18.5 109.5t52.5 87.5q36 38 85.5 58t107.5 20t107.5 -20t84.5 -58zM287 407q-49 0 -77 -38t-28 -106t28 -106t77 -38t77 38
t28 106t-28 106t-77 38zM448 702v-119h-322v119h322z" />
    <glyph glyph-name="Obreve" unicode="&#x14e;" horiz-adv-x="736" 
d="M116 97q-45 51 -68.5 118t-23.5 144t23.5 144t68.5 118q47 52 112 80t140 28q76 0 140.5 -28t111.5 -80q45 -50 68.5 -117.5t23.5 -144.5t-23.5 -144.5t-68.5 -117.5q-47 -52 -111.5 -80t-140.5 -28q-75 0 -140 28t-112 80zM368 134q79 0 128 61.5t49 163.5t-49 163.5
t-128 61.5t-127.5 -61.5t-48.5 -163.5t48.5 -163.5t127.5 -61.5zM368 857q27 0 45 17t18 44h115q0 -75 -48 -119.5t-130 -44.5t-130 44.5t-48 119.5h115q0 -27 18 -44t45 -17z" />
    <glyph glyph-name="obreve" unicode="&#x14f;" horiz-adv-x="574" 
d="M479 460q35 -38 53.5 -88t18.5 -109t-18.5 -109t-53.5 -87q-35 -38 -84.5 -58t-107.5 -20t-107.5 20t-85.5 58q-34 37 -52.5 87t-18.5 109t18.5 109.5t52.5 87.5q36 38 85.5 58t107.5 20t107.5 -20t84.5 -58zM287 407q-49 0 -77 -38t-28 -106t28 -106t77 -38t77 38
t28 106t-28 106t-77 38zM287 668q24 0 39 14t15 36h109q0 -70 -43 -110t-120 -40t-120 40t-43 110h109q0 -22 15 -36t39 -14z" />
    <glyph glyph-name="Ohungarumlaut" unicode="&#x150;" horiz-adv-x="736" 
d="M116 97q-45 51 -68.5 118t-23.5 144t23.5 144t68.5 118q47 52 112 80t140 28q76 0 140.5 -28t111.5 -80q45 -50 68.5 -117.5t23.5 -144.5t-23.5 -144.5t-68.5 -117.5q-47 -52 -111.5 -80t-140.5 -28q-75 0 -140 28t-112 80zM368 134q79 0 128 61.5t49 163.5t-49 163.5
t-128 61.5t-127.5 -61.5t-48.5 -163.5t48.5 -163.5t127.5 -61.5zM532 760h-121l77 158h174zM317 760h-121l77 158h174z" />
    <glyph glyph-name="ohungarumlaut" unicode="&#x151;" horiz-adv-x="574" 
d="M479 460q35 -38 53.5 -88t18.5 -109t-18.5 -109t-53.5 -87q-35 -38 -84.5 -58t-107.5 -20t-107.5 20t-85.5 58q-34 37 -52.5 87t-18.5 109t18.5 109.5t52.5 87.5q36 38 85.5 58t107.5 20t107.5 -20t84.5 -58zM287 407q-49 0 -77 -38t-28 -106t28 -106t77 -38t77 38
t28 106t-28 106t-77 38zM438 570h-115l58 148h168zM241 570h-115l58 148h168z" />
    <glyph glyph-name="OE" unicode="&#x152;" horiz-adv-x="1026" 
d="M124 95q-49 48 -74.5 115t-25.5 149t25.5 149t74.5 115q48 47 116 71t151 24h599v-143h-343v-138h286v-141h-286v-153h343v-143h-599q-83 0 -151 24t-116 71zM483 141v436h-92q-95 0 -148.5 -58t-53.5 -160t53.5 -160t148.5 -58h92z" />
    <glyph glyph-name="oe" unicode="&#x153;" horiz-adv-x="929" 
d="M663 -11q-59 0 -109 20q-46 18 -81 51q-33 -33 -79 -51q-49 -20 -107 -20t-107.5 20t-85.5 58q-34 37 -52.5 87t-18.5 109t18.5 109.5t52.5 87.5q36 38 85.5 58t107.5 20t107 -20q47 -19 81 -54q35 34 80 53q49 21 105 21q57 0 103.5 -20t80.5 -58q30 -35 46.5 -83.5
t16.5 -105.5v-42h-357q8 -53 38.5 -83t76.5 -30q39 0 66 18t38 52l134 -43q-28 -72 -92.5 -113t-147.5 -41zM287 407q-49 0 -77 -38t-28 -106t28 -106t77 -38t77 38t28 106t-28 106t-77 38zM658 414q-38 0 -64.5 -22.5t-38.5 -64.5h194q-1 39 -25.5 63t-65.5 24z" />
    <glyph glyph-name="Racute" unicode="&#x154;" horiz-adv-x="666" 
d="M308 255h-84v-255h-167v718h303q130 0 202 -60.5t72 -170.5q0 -79 -39 -134t-113 -80l173 -273h-191zM224 577v-186h127q58 0 88.5 24t30.5 69t-30.5 69t-88.5 24h-127zM360 756h-132l77 158h211z" />
    <glyph glyph-name="racute" unicode="&#x155;" horiz-adv-x="401" 
d="M348 530q8 0 15.5 -0.5t19.5 -1.5v-154q-13 2 -23 3t-24 1q-55 0 -89.5 -32.5t-34.5 -86.5v-259h-160v527h160v-69q19 33 55.5 52.5t80.5 19.5zM269 570h-126l54 148h190z" />
    <glyph glyph-name="uni0156" unicode="&#x156;" horiz-adv-x="666" 
d="M308 255h-84v-255h-167v718h303q130 0 202 -60.5t72 -170.5q0 -79 -39 -134t-113 -80l173 -273h-191zM224 577v-186h127q58 0 88.5 24t30.5 69t-30.5 69t-88.5 24h-127zM310 -123h-57v90h160v-51q0 -63 -41 -96.5t-119 -33.5v59q26 0 39.5 7.5t17.5 24.5z" />
    <glyph glyph-name="uni0157" unicode="&#x157;" horiz-adv-x="401" 
d="M348 530q8 0 15.5 -0.5t19.5 -1.5v-154q-13 2 -23 3t-24 1q-55 0 -89.5 -32.5t-34.5 -86.5v-259h-160v527h160v-69q19 33 55.5 52.5t80.5 19.5zM110 -123h-57v90h160v-51q0 -63 -41 -96.5t-119 -33.5v59q26 0 39.5 7.5t17.5 24.5z" />
    <glyph glyph-name="Rcaron" unicode="&#x158;" horiz-adv-x="666" 
d="M308 255h-84v-255h-167v718h303q130 0 202 -60.5t72 -170.5q0 -79 -39 -134t-113 -80l173 -273h-191zM224 577v-186h127q58 0 88.5 24t30.5 69t-30.5 69t-88.5 24h-127zM520 915l-115 -158h-166l-115 158h119l79 -64l79 64h119z" />
    <glyph glyph-name="rcaron" unicode="&#x159;" horiz-adv-x="401" 
d="M348 530q8 0 15.5 -0.5t19.5 -1.5v-154q-13 2 -23 3t-24 1q-55 0 -89.5 -32.5t-34.5 -86.5v-259h-160v527h160v-69q19 33 55.5 52.5t80.5 19.5zM407 718l-101 -148h-158l-101 148h118l62 -52l62 52h118z" />
    <glyph glyph-name="Sacute" unicode="&#x15a;" horiz-adv-x="601" 
d="M296 -11q-93 0 -179 37t-129 96l103 115q41 -52 96.5 -81t115.5 -29q55 0 86.5 22t31.5 60q0 24 -15.5 39t-53.5 26q-8 3 -33.5 9t-67.5 15q-59 13 -94 26.5t-60 31.5q-34 25 -51 61t-17 83q0 52 22 96.5t64 75.5q37 28 85.5 42.5t103.5 14.5q85 0 158 -32t117 -88
l-101 -110q-36 46 -81 69t-98 23q-48 0 -77.5 -20t-29.5 -54q0 -21 12.5 -35t42.5 -24q12 -4 28 -8t58 -13q75 -16 110.5 -28.5t61.5 -28.5q41 -26 61 -64t20 -90q0 -55 -23.5 -101t-67.5 -78q-39 -28 -90 -43t-109 -15zM371 756h-132l77 158h211z" />
    <glyph glyph-name="sacute" unicode="&#x15b;" horiz-adv-x="508" 
d="M249 -11q-75 0 -143 24t-102 64l83 108q31 -34 77.5 -54.5t90.5 -20.5q35 0 56 11.5t21 30.5q0 16 -10.5 25t-38.5 16q-7 1 -16 3t-54 10q-50 10 -77.5 19.5t-46.5 21.5q-28 19 -42 47t-14 66q0 79 63 128.5t162 49.5q67 0 127.5 -23t95.5 -61l-80 -103q-30 31 -67.5 48
t-76.5 17q-29 0 -46.5 -10.5t-17.5 -28.5q0 -13 8.5 -20.5t30.5 -13.5q5 -1 13 -2.5t43 -8.5q58 -12 86.5 -21.5t49.5 -21.5q33 -20 49 -49t16 -69q0 -82 -67 -132t-173 -50zM318 570h-126l54 148h190z" />
    <glyph glyph-name="Scircumflex" unicode="&#x15c;" horiz-adv-x="601" 
d="M296 -11q-93 0 -179 37t-129 96l103 115q41 -52 96.5 -81t115.5 -29q55 0 86.5 22t31.5 60q0 24 -15.5 39t-53.5 26q-8 3 -33.5 9t-67.5 15q-59 13 -94 26.5t-60 31.5q-34 25 -51 61t-17 83q0 52 22 96.5t64 75.5q37 28 85.5 42.5t103.5 14.5q85 0 158 -32t117 -88
l-101 -110q-36 46 -81 69t-98 23q-48 0 -77.5 -20t-29.5 -54q0 -21 12.5 -35t42.5 -24q12 -4 28 -8t58 -13q75 -16 110.5 -28.5t61.5 -28.5q41 -26 61 -64t20 -90q0 -55 -23.5 -101t-67.5 -78q-39 -28 -90 -43t-109 -15zM232 914h166l115 -158h-119l-79 64l-79 -64h-119z
" />
    <glyph glyph-name="scircumflex" unicode="&#x15d;" horiz-adv-x="508" 
d="M249 -11q-75 0 -143 24t-102 64l83 108q31 -34 77.5 -54.5t90.5 -20.5q35 0 56 11.5t21 30.5q0 16 -10.5 25t-38.5 16q-7 1 -16 3t-54 10q-50 10 -77.5 19.5t-46.5 21.5q-28 19 -42 47t-14 66q0 79 63 128.5t162 49.5q67 0 127.5 -23t95.5 -61l-80 -103q-30 31 -67.5 48
t-76.5 17q-29 0 -46.5 -10.5t-17.5 -28.5q0 -13 8.5 -20.5t30.5 -13.5q5 -1 13 -2.5t43 -8.5q58 -12 86.5 -21.5t49.5 -21.5q33 -20 49 -49t16 -69q0 -82 -67 -132t-173 -50zM181 718h158l101 -148h-118l-62 52l-62 -52h-118z" />
    <glyph glyph-name="Scedilla" unicode="&#x15e;" horiz-adv-x="601" 
d="M-12 122l103 115q41 -52 96.5 -81t115.5 -29q55 0 86.5 22t31.5 60q0 24 -15.5 39t-53.5 26q-8 3 -33.5 9t-67.5 15q-59 13 -94 26.5t-60 31.5q-34 25 -51 61t-17 83q0 52 22 96.5t64 75.5q37 28 85.5 42.5t103.5 14.5q85 0 158 -32t117 -88l-101 -110q-36 46 -81 69
t-98 23q-48 0 -77.5 -20t-29.5 -54q0 -21 12.5 -35t42.5 -24q12 -4 28 -8t58 -13q75 -16 110.5 -28.5t61.5 -28.5q41 -26 61 -64t20 -90q0 -100 -72.5 -164.5t-189.5 -71.5l-3 -9q41 -6 62.5 -26t21.5 -53q0 -39 -35.5 -64t-89.5 -25q-34 0 -62.5 9.5t-47.5 26.5l45 66
q10 -12 24 -18.5t28 -6.5q18 0 27 5.5t9 15.5q0 12 -15.5 19t-50.5 9l16 52q-84 9 -156 44t-109 87z" />
    <glyph glyph-name="scedilla" unicode="&#x15f;" horiz-adv-x="508" 
d="M4 77l83 108q31 -34 77.5 -54.5t90.5 -20.5q35 0 56 11.5t21 30.5q0 16 -10.5 25t-38.5 16q-7 1 -16 3t-54 10q-50 10 -77.5 19.5t-46.5 21.5q-28 19 -42 47t-14 66q0 79 63 128.5t162 49.5q67 0 127.5 -23t95.5 -61l-80 -103q-30 31 -67.5 48t-76.5 17
q-29 0 -46.5 -10.5t-17.5 -28.5q0 -13 8.5 -20.5t30.5 -13.5q5 -1 13 -2.5t43 -8.5q58 -12 86.5 -21.5t49.5 -21.5q33 -20 49 -49t16 -69q0 -79 -62 -128.5t-163 -53.5l-2 -8q41 -6 62.5 -26t21.5 -53q0 -39 -35.5 -64t-89.5 -25q-34 0 -62.5 9.5t-47.5 26.5l45 66
q10 -12 24 -18.5t28 -6.5q18 0 27 5.5t9 15.5q0 12 -15.5 19t-50.5 9l16 54q-61 7 -112 29.5t-78 54.5z" />
    <glyph glyph-name="Scaron" unicode="&#x160;" horiz-adv-x="601" 
d="M296 -11q-93 0 -179 37t-129 96l103 115q41 -52 96.5 -81t115.5 -29q55 0 86.5 22t31.5 60q0 24 -15.5 39t-53.5 26q-8 3 -33.5 9t-67.5 15q-59 13 -94 26.5t-60 31.5q-34 25 -51 61t-17 83q0 52 22 96.5t64 75.5q37 28 85.5 42.5t103.5 14.5q85 0 158 -32t117 -88
l-101 -110q-36 46 -81 69t-98 23q-48 0 -77.5 -20t-29.5 -54q0 -21 12.5 -35t42.5 -24q12 -4 28 -8t58 -13q75 -16 110.5 -28.5t61.5 -28.5q41 -26 61 -64t20 -90q0 -55 -23.5 -101t-67.5 -78q-39 -28 -90 -43t-109 -15zM514 915l-115 -158h-166l-115 158h119l79 -64l79 64
h119z" />
    <glyph glyph-name="scaron" unicode="&#x161;" horiz-adv-x="508" 
d="M249 -11q-75 0 -143 24t-102 64l83 108q31 -34 77.5 -54.5t90.5 -20.5q35 0 56 11.5t21 30.5q0 16 -10.5 25t-38.5 16q-7 1 -16 3t-54 10q-50 10 -77.5 19.5t-46.5 21.5q-28 19 -42 47t-14 66q0 79 63 128.5t162 49.5q67 0 127.5 -23t95.5 -61l-80 -103q-30 31 -67.5 48
t-76.5 17q-29 0 -46.5 -10.5t-17.5 -28.5q0 -13 8.5 -20.5t30.5 -13.5q5 -1 13 -2.5t43 -8.5q58 -12 86.5 -21.5t49.5 -21.5q33 -20 49 -49t16 -69q0 -82 -67 -132t-173 -50zM442 718l-101 -148h-158l-101 148h118l62 -52l62 52h118z" />
    <glyph glyph-name="uni0162" unicode="&#x162;" horiz-adv-x="637" 
d="M428 -98q0 -39 -35.5 -64t-89.5 -25q-34 0 -62.5 9.5t-47.5 26.5l45 66q10 -12 24 -18.5t28 -6.5q18 0 27 5.5t9 15.5q0 12 -15.5 19t-50.5 9l18 61h-43v575h-220v143h606v-143h-219v-575h-52l-6 -19q41 -6 62.5 -26t21.5 -53z" />
    <glyph glyph-name="uni0163" unicode="&#x163;" horiz-adv-x="361" 
d="M70 141v254h-67v132h67v146h158v-146h103v-132h-103v-213q0 -28 13.5 -40t49.5 -12q11 0 19.5 0.5t26.5 2.5v-131q-25 -4 -47.5 -5.5t-43.5 -1.5l-4 -14q41 -6 62.5 -26t21.5 -53q0 -39 -35.5 -64t-89.5 -25q-34 0 -62.5 9.5t-47.5 26.5l45 66q10 -12 24 -18.5t28 -6.5
q18 0 27 5.5t9 15.5q0 12 -15.5 19t-50.5 9l18 61q-55 11 -80.5 45t-25.5 96z" />
    <glyph glyph-name="Tcaron" unicode="&#x164;" horiz-adv-x="637" 
d="M621 718v-143h-219v-575h-167v575h-220v143h606zM516 915l-115 -158h-166l-115 158h119l79 -64l79 64h119z" />
    <glyph glyph-name="tcaron" unicode="&#x165;" horiz-adv-x="361" 
d="M241 -5q-91 0 -131 34.5t-40 111.5v254h-67v132h67v146h158v-146h103v-132h-103v-213q0 -28 13.5 -40t49.5 -12q11 0 19.5 0.5t26.5 2.5v-131q-26 -4 -49 -5.5t-47 -1.5zM369 570h-108l17 168h171z" />
    <glyph glyph-name="Tbar" unicode="&#x166;" horiz-adv-x="637" 
d="M496 430v-143h-94v-287h-167v287h-94v143h94v145h-220v143h606v-143h-219v-145h94z" />
    <glyph glyph-name="tbar" unicode="&#x167;" horiz-adv-x="382" 
d="M255 -5q-91 0 -131 34.5t-40 111.5v87h-78v120h78v59h-78v120h78v146h157v-146h110v-120h-110v-59h110v-120h-110v-43q0 -28 13.5 -39.5t50.5 -11.5q15 0 26.5 1t24.5 3v-136q-23 -3 -49 -5t-52 -2z" />
    <glyph glyph-name="Utilde" unicode="&#x168;" horiz-adv-x="700" 
d="M350 -11q-143 0 -222.5 79t-79.5 222v428h166v-424q0 -78 35 -118.5t101 -40.5t100.5 40.5t34.5 118.5v424h167v-428q0 -143 -79.5 -222t-222.5 -79zM277 930q18 0 35 -6t44 -25q20 -13 29.5 -17t17.5 -4q17 0 27 12.5t15 39.5h105q-2 -79 -36.5 -126t-91.5 -47
q-18 0 -35 6t-44 24q-19 13 -28.5 17t-17.5 4q-18 0 -28 -12.5t-14 -38.5h-106q2 79 37 126t91 47z" />
    <glyph glyph-name="utilde" unicode="&#x169;" horiz-adv-x="583" 
d="M371 527h160v-527h-160v52q-27 -30 -63.5 -46.5t-78.5 -16.5q-81 0 -130 51.5t-49 137.5v349h160v-311q0 -42 19 -64.5t56 -22.5t61.5 25.5t24.5 67.5v305zM226 727q16 0 31 -6t39 -23q16 -12 23.5 -15.5t14.5 -3.5q15 0 24 11.5t13 36.5h97q-2 -73 -33 -115t-82 -42
q-16 0 -31 5.5t-39 22.5q-16 12 -23.5 15.5t-14.5 3.5q-15 0 -24 -11t-13 -36h-97q2 72 33 114.5t82 42.5z" />
    <glyph glyph-name="Umacron" unicode="&#x16a;" horiz-adv-x="700" 
d="M350 -11q-143 0 -222.5 79t-79.5 222v428h166v-424q0 -78 35 -118.5t101 -40.5t100.5 40.5t34.5 118.5v424h167v-428q0 -143 -79.5 -222t-222.5 -79zM528 883v-121h-356v121h356z" />
    <glyph glyph-name="umacron" unicode="&#x16b;" horiz-adv-x="583" 
d="M371 527h160v-527h-160v52q-27 -30 -63.5 -46.5t-78.5 -16.5q-81 0 -130 51.5t-49 137.5v349h160v-311q0 -42 19 -64.5t56 -22.5t61.5 25.5t24.5 67.5v305zM451 702v-119h-322v119h322z" />
    <glyph glyph-name="Ubreve" unicode="&#x16c;" horiz-adv-x="700" 
d="M350 -11q-143 0 -222.5 79t-79.5 222v428h166v-424q0 -78 35 -118.5t101 -40.5t100.5 40.5t34.5 118.5v424h167v-428q0 -143 -79.5 -222t-222.5 -79zM350 857q27 0 45 17t18 44h115q0 -75 -48 -119.5t-130 -44.5t-130 44.5t-48 119.5h115q0 -27 18 -44t45 -17z" />
    <glyph glyph-name="ubreve" unicode="&#x16d;" horiz-adv-x="583" 
d="M371 527h160v-527h-160v52q-27 -30 -63.5 -46.5t-78.5 -16.5q-81 0 -130 51.5t-49 137.5v349h160v-311q0 -42 19 -64.5t56 -22.5t61.5 25.5t24.5 67.5v305zM290 668q24 0 39 14t15 36h109q0 -70 -43 -110t-120 -40t-120 40t-43 110h109q0 -22 15 -36t39 -14z" />
    <glyph glyph-name="Uring" unicode="&#x16e;" horiz-adv-x="700" 
d="M350 -11q-143 0 -222.5 79t-79.5 222v428h166v-424q0 -78 35 -118.5t101 -40.5t100.5 40.5t34.5 118.5v424h167v-428q0 -143 -79.5 -222t-222.5 -79zM350 726q-61 0 -101.5 39.5t-40.5 95.5t40.5 94.5t101.5 38.5t101.5 -38.5t40.5 -94.5q0 -57 -40.5 -96t-101.5 -39z
M350 912q-22 0 -36 -14.5t-14 -36.5q0 -23 13.5 -37t36.5 -14t36.5 14t13.5 37q0 22 -14 36.5t-36 14.5z" />
    <glyph glyph-name="uring" unicode="&#x16f;" horiz-adv-x="583" 
d="M371 527h160v-527h-160v52q-27 -30 -63.5 -46.5t-78.5 -16.5q-81 0 -130 51.5t-49 137.5v349h160v-311q0 -42 19 -64.5t56 -22.5t61.5 25.5t24.5 67.5v305zM290 560q-50 0 -83 32t-33 79t33 78.5t83 31.5t83 -31.5t33 -78.5t-33 -79t-83 -32zM290 713q-17 0 -29 -12.5
t-12 -29.5q0 -18 11.5 -30t29.5 -12t29.5 12t11.5 30q0 17 -12 29.5t-29 12.5z" />
    <glyph glyph-name="Uhungarumlaut" unicode="&#x170;" horiz-adv-x="700" 
d="M350 -11q-143 0 -222.5 79t-79.5 222v428h166v-424q0 -78 35 -118.5t101 -40.5t100.5 40.5t34.5 118.5v424h167v-428q0 -143 -79.5 -222t-222.5 -79zM512 760h-121l77 158h174zM297 760h-121l77 158h174z" />
    <glyph glyph-name="uhungarumlaut" unicode="&#x171;" horiz-adv-x="583" 
d="M371 527h160v-527h-160v52q-27 -30 -63.5 -46.5t-78.5 -16.5q-81 0 -130 51.5t-49 137.5v349h160v-311q0 -42 19 -64.5t56 -22.5t61.5 25.5t24.5 67.5v305zM443 570h-115l58 148h168zM246 570h-115l58 148h168z" />
    <glyph glyph-name="Uogonek" unicode="&#x172;" horiz-adv-x="700" 
d="M396 -183q-46 0 -76 25t-30 66q0 23 9 43t27 39q-132 6 -205 84.5t-73 215.5v428h166v-424q0 -78 35 -118.5t101 -40.5t100.5 40.5t34.5 118.5v424h167v-428q0 -113 -50.5 -187t-145.5 -100q-35 -22 -48.5 -37t-13.5 -30q0 -13 9 -20t24 -7q10 0 18.5 1.5t20.5 4.5v-89
q-17 -5 -33 -7t-37 -2z" />
    <glyph glyph-name="uogonek" unicode="&#x173;" horiz-adv-x="583" 
d="M423 -183q-46 0 -76 25t-30 66q0 27 13 51.5t41 46.5v46q-27 -30 -63.5 -46.5t-78.5 -16.5q-81 0 -130 51.5t-49 137.5v349h160v-311q0 -42 19 -64.5t56 -22.5t61.5 25.5t24.5 67.5v305h160v-527h-52q-32 -20 -45 -34.5t-13 -29.5q0 -13 9 -20t24 -7q10 0 18.5 1.5
t20.5 4.5v-89q-17 -5 -33 -7t-37 -2z" />
    <glyph glyph-name="Wcircumflex" unicode="&#x174;" horiz-adv-x="955" 
d="M295 249l114 469h141l115 -469l115 469h169l-191 -718h-161l-120 459l-118 -459h-161l-192 718h173zM394 914h166l115 -158h-119l-79 64l-79 -64h-119z" />
    <glyph glyph-name="wcircumflex" unicode="&#x175;" horiz-adv-x="760" 
d="M244 218l79 309h120l80 -309l81 309h156l-160 -527h-137l-83 292l-83 -292h-137l-160 527h161zM305 718h158l101 -148h-118l-62 52l-62 -52h-118z" />
    <glyph glyph-name="Ycircumflex" unicode="&#x176;" horiz-adv-x="677" 
d="M177 718l164 -278l164 278h176l-259 -430v-288h-167v288l-259 430h181zM255 914h166l115 -158h-119l-79 64l-79 -64h-119z" />
    <glyph glyph-name="ycircumflex" unicode="&#x177;" horiz-adv-x="538" 
d="M538 527l-201 -539q-35 -96 -83.5 -133.5t-128.5 -37.5q-18 0 -31 0.5t-29 2.5v127q12 -2 21 -2.5t19 -0.5q29 0 44.5 10.5t24.5 34.5l13 34l-187 504h165l108 -324l106 324h159zM196 718h158l101 -148h-118l-62 52l-62 -52h-118z" />
    <glyph glyph-name="Ydieresis" unicode="&#x178;" horiz-adv-x="677" 
d="M177 718l164 -278l164 278h176l-259 -430v-288h-167v288l-259 430h181zM311 756h-156v143h156v-143zM521 756h-156v143h156v-143z" />
    <glyph glyph-name="Zacute" unicode="&#x179;" horiz-adv-x="640" 
d="M250 143h360v-143h-576v126l360 449h-356v143h568v-125zM369 756h-132l77 158h211z" />
    <glyph glyph-name="zacute" unicode="&#x17a;" horiz-adv-x="514" 
d="M237 132h244v-132h-449v116l252 279h-249v132h444v-116zM303 570h-126l54 148h190z" />
    <glyph glyph-name="Zdotaccent" unicode="&#x17b;" horiz-adv-x="640" 
d="M250 143h360v-143h-576v126l360 449h-356v143h568v-125zM411 756h-164v143h164v-143z" />
    <glyph glyph-name="zdotaccent" unicode="&#x17c;" horiz-adv-x="514" 
d="M237 132h244v-132h-449v116l252 279h-249v132h444v-116zM333 581h-162v137h162v-137z" />
    <glyph glyph-name="Zcaron" unicode="&#x17d;" horiz-adv-x="640" 
d="M250 143h360v-143h-576v126l360 449h-356v143h568v-125zM530 915l-115 -158h-166l-115 158h119l79 -64l79 64h119z" />
    <glyph glyph-name="zcaron" unicode="&#x17e;" horiz-adv-x="514" 
d="M237 132h244v-132h-449v116l252 279h-249v132h444v-116zM436 718l-101 -148h-158l-101 148h118l62 -52l62 52h118z" />
    <glyph glyph-name="florin" unicode="&#x192;" horiz-adv-x="571" 
d="M197 321h-89v111h102l10 84q11 103 66.5 158t148.5 55q42 0 78.5 -12.5t63.5 -35.5l-58 -111q-12 13 -28 20.5t-32 7.5q-29 0 -47.5 -22t-23.5 -62l-10 -82h100v-111h-113l-14 -119q-10 -103 -66 -158t-149 -55q-42 0 -78 12.5t-64 35.5l59 111q12 -13 28 -20.5t32 -7.5
q29 0 47 22t23 62z" />
    <glyph glyph-name="AEacute" unicode="&#x1fc;" horiz-adv-x="1035" 
d="M0 0l398 718h602v-143h-343v-138h286v-141h-286v-153h343v-143h-507v150h-235l-83 -150h-175zM493 575l-159 -287h159v287zM754 756h-132l77 158h211z" />
    <glyph glyph-name="aeacute" unicode="&#x1fd;" horiz-adv-x="870" 
d="M19 148q0 83 68 130.5t184 47.5h69v15q0 34 -18.5 51t-54.5 17q-33 0 -53 -15.5t-28 -47.5l-152 25q20 75 85 121t155 46q52 0 93 -16t68 -46q35 30 77.5 46t88.5 16q57 0 103.5 -20t80.5 -58q30 -35 46.5 -83.5t16.5 -105.5v-43h-356q7 -52 37.5 -82t76.5 -30
q39 0 66.5 18.5t38.5 51.5l133 -43q-27 -72 -91.5 -113t-148.5 -41q-61 0 -112 22t-86 63q-30 -40 -81 -62t-116 -22q-84 0 -137 44t-53 114zM600 414q-39 0 -66 -23t-38 -65h195q-2 40 -26.5 64t-64.5 24zM175 166q0 -26 18 -41t47 -15q42 0 71 25.5t29 64.5v28h-60
q-55 0 -80 -15t-25 -47zM487 570h-126l54 148h190z" />
    <glyph glyph-name="Oslashacute" unicode="&#x1fe;" horiz-adv-x="736" 
d="M123 -31l-93 75l66 79q-35 48 -53.5 108t-18.5 128q0 77 23.5 144t68.5 118q47 52 112 80t140 28q52 0 100.5 -13.5t89.5 -40.5l52 62l93 -75l-59 -71q33 -48 50.5 -107t17.5 -125q0 -77 -23.5 -144.5t-68.5 -117.5q-47 -52 -111.5 -80t-140.5 -28q-52 0 -99 13t-86 39z
M368 586q-81 0 -129.5 -62t-48.5 -165q0 -28 4 -54t12 -51l255 305q-21 13 -44.5 20t-48.5 7zM368 132q81 0 129.5 62t48.5 165q0 27 -3.5 52t-10.5 47l-252 -302q19 -12 41 -18t47 -6zM423 756h-132l77 158h211z" />
    <glyph glyph-name="oslashacute" unicode="&#x1ff;" horiz-adv-x="574" 
d="M23 263q0 59 18.5 109.5t52.5 87.5q36 38 85.5 58t107.5 20q37 0 70 -8t61 -24l44 54l81 -64l-46 -57q27 -36 40.5 -80.5t13.5 -95.5q0 -59 -18.5 -109t-53.5 -87q-35 -38 -84.5 -58t-107.5 -20q-36 0 -69.5 8t-62.5 23l-43 -52l-80 64l45 55q-27 36 -40.5 80.5
t-13.5 95.5zM287 418q-53 0 -83 -41t-30 -114q0 -11 1 -22.5t3 -28.5l159 194q-11 6 -23.5 9t-26.5 3zM287 108q53 0 83 41t30 114q0 13 -1 25.5t-4 26.5l-159 -195q11 -6 24 -9t27 -3zM344 570h-126l54 148h190z" />
    <glyph glyph-name="uni0218" unicode="&#x218;" horiz-adv-x="601" 
d="M296 -11q-93 0 -179 37t-129 96l103 115q41 -52 96.5 -81t115.5 -29q55 0 86.5 22t31.5 60q0 24 -15.5 39t-53.5 26q-8 3 -33.5 9t-67.5 15q-59 13 -94 26.5t-60 31.5q-34 25 -51 61t-17 83q0 52 22 96.5t64 75.5q37 28 85.5 42.5t103.5 14.5q85 0 158 -32t117 -88
l-101 -110q-36 46 -81 69t-98 23q-48 0 -77.5 -20t-29.5 -54q0 -21 12.5 -35t42.5 -24q12 -4 28 -8t58 -13q75 -16 110.5 -28.5t61.5 -28.5q41 -26 61 -64t20 -90q0 -55 -23.5 -101t-67.5 -78q-39 -28 -90 -43t-109 -15zM285 -123h-57v90h160v-51q0 -63 -41 -96.5
t-119 -33.5v59q26 0 39.5 7.5t17.5 24.5z" />
    <glyph glyph-name="uni0219" unicode="&#x219;" horiz-adv-x="508" 
d="M249 -11q-75 0 -143 24t-102 64l83 108q31 -34 77.5 -54.5t90.5 -20.5q35 0 56 11.5t21 30.5q0 16 -10.5 25t-38.5 16q-7 1 -16 3t-54 10q-50 10 -77.5 19.5t-46.5 21.5q-28 19 -42 47t-14 66q0 79 63 128.5t162 49.5q67 0 127.5 -23t95.5 -61l-80 -103q-30 31 -67.5 48
t-76.5 17q-29 0 -46.5 -10.5t-17.5 -28.5q0 -13 8.5 -20.5t30.5 -13.5q5 -1 13 -2.5t43 -8.5q58 -12 86.5 -21.5t49.5 -21.5q33 -20 49 -49t16 -69q0 -82 -67 -132t-173 -50zM231 -123h-57v90h160v-51q0 -63 -41 -96.5t-119 -33.5v59q26 0 39.5 7.5t17.5 24.5z" />
    <glyph glyph-name="uni021A" unicode="&#x21a;" horiz-adv-x="637" 
d="M621 718v-143h-219v-575h-167v575h-220v143h606zM295 -123h-57v90h160v-51q0 -63 -41 -96.5t-119 -33.5v59q26 0 39.5 7.5t17.5 24.5z" />
    <glyph glyph-name="uni021B" unicode="&#x21b;" horiz-adv-x="361" 
d="M241 -5q-91 0 -131 34.5t-40 111.5v254h-67v132h67v146h158v-146h103v-132h-103v-213q0 -28 13.5 -40t49.5 -12q11 0 19.5 0.5t26.5 2.5v-131q-26 -4 -49 -5.5t-47 -1.5zM190 -123h-57v90h160v-51q0 -63 -41 -96.5t-119 -33.5v59q26 0 39.5 7.5t17.5 24.5z" />
    <glyph glyph-name="uni0237" unicode="&#x237;" horiz-adv-x="265" 
d="M-6 -58q31 0 44.5 12t13.5 39v534h160v-541q0 -82 -47 -125.5t-135 -43.5q-14 0 -27.5 0.5t-41.5 3.5v123q17 -2 22 -2h11z" />
    <glyph glyph-name="circumflex" unicode="&#x2c6;" horiz-adv-x="600" 
d="M221 718h158l101 -148h-118l-62 52l-62 -52h-118z" />
    <glyph glyph-name="caron" unicode="&#x2c7;" horiz-adv-x="600" 
d="M480 718l-101 -148h-158l-101 148h118l62 -52l62 52h118z" />
    <glyph glyph-name="breve" unicode="&#x2d8;" horiz-adv-x="600" 
d="M300 668q24 0 39 14t15 36h109q0 -70 -43 -110t-120 -40t-120 40t-43 110h109q0 -22 15 -36t39 -14z" />
    <glyph glyph-name="dotaccent" unicode="&#x2d9;" horiz-adv-x="600" 
d="M381 581h-162v137h162v-137z" />
    <glyph glyph-name="ring" unicode="&#x2da;" horiz-adv-x="600" 
d="M300 560q-50 0 -83 32t-33 79t33 78.5t83 31.5t83 -31.5t33 -78.5t-33 -79t-83 -32zM300 713q-17 0 -29 -12.5t-12 -29.5q0 -18 11.5 -30t29.5 -12t29.5 12t11.5 30q0 17 -12 29.5t-29 12.5z" />
    <glyph glyph-name="ogonek" unicode="&#x2db;" horiz-adv-x="600" 
d="M315 -183q-46 0 -76 25t-30 66t30 75t100 69l37 -49q-35 -22 -49 -36.5t-14 -30.5q0 -13 9 -20t24 -7q10 0 18.5 1.5t20.5 4.5v-89q-17 -5 -33 -7t-37 -2z" />
    <glyph glyph-name="tilde" unicode="&#x2dc;" horiz-adv-x="600" 
d="M236 727q16 0 31 -6t39 -23q16 -12 23.5 -15.5t14.5 -3.5q15 0 24 11.5t13 36.5h97q-2 -73 -33 -115t-82 -42q-16 0 -31 5.5t-39 22.5q-16 12 -23.5 15.5t-14.5 3.5q-15 0 -24 -11t-13 -36h-97q2 72 33 114.5t82 42.5z" />
    <glyph glyph-name="hungarumlaut" unicode="&#x2dd;" horiz-adv-x="600" 
d="M397 570h-115l58 148h168zM200 570h-115l58 148h168z" />
    <glyph glyph-name="gravecmb" unicode="&#x300;" horiz-adv-x="0" 
d="M68 718l54 -148h-126l-118 148h190z" />
    <glyph glyph-name="acutecmb" unicode="&#x301;" horiz-adv-x="0" 
d="M4 570h-126l54 148h190z" />
    <glyph glyph-name="uni0302" unicode="&#x302;" horiz-adv-x="0" 
d="M-79 718h158l101 -148h-118l-62 52l-62 -52h-118z" />
    <glyph glyph-name="tildecmb" unicode="&#x303;" horiz-adv-x="0" 
d="M-64 727q16 0 31 -6t39 -23q16 -12 23.5 -15.5t14.5 -3.5q15 0 24 11.5t13 36.5h97q-2 -73 -33 -115t-82 -42q-16 0 -31 5.5t-39 22.5q-16 12 -23.5 15.5t-14.5 3.5q-15 0 -24 -11t-13 -36h-97q2 72 33 114.5t82 42.5z" />
    <glyph glyph-name="uni0304" unicode="&#x304;" horiz-adv-x="0" 
d="M161 702v-119h-322v119h322z" />
    <glyph glyph-name="uni0306" unicode="&#x306;" horiz-adv-x="0" 
d="M0 668q24 0 39 14t15 36h109q0 -70 -43 -110t-120 -40t-120 40t-43 110h109q0 -22 15 -36t39 -14z" />
    <glyph glyph-name="uni0307" unicode="&#x307;" horiz-adv-x="0" 
d="M81 581h-162v137h162v-137z" />
    <glyph glyph-name="uni0308" unicode="&#x308;" horiz-adv-x="0" 
d="M-24 581h-156v137h156v-137zM180 581h-156v137h156v-137z" />
    <glyph glyph-name="uni030A" unicode="&#x30a;" horiz-adv-x="0" 
d="M0 560q-50 0 -83 32t-33 79t33 78.5t83 31.5t83 -31.5t33 -78.5t-33 -79t-83 -32zM0 713q-17 0 -29 -12.5t-12 -29.5q0 -18 11.5 -30t29.5 -12t29.5 12t11.5 30q0 17 -12 29.5t-29 12.5z" />
    <glyph glyph-name="uni030B" unicode="&#x30b;" horiz-adv-x="0" 
d="M101 570h-115l58 148h168zM-96 570h-115l58 148h168z" />
    <glyph glyph-name="uni030C" unicode="&#x30c;" horiz-adv-x="0" 
d="M180 718l-101 -148h-158l-101 148h118l62 -52l62 52h118z" />
    <glyph glyph-name="uni0315" unicode="&#x315;" horiz-adv-x="0" 
d="M14 550h-108l17 168h171z" />
    <glyph glyph-name="uni0327" unicode="&#x327;" horiz-adv-x="0" 
d="M118 -98q0 -39 -35.5 -64t-89.5 -25q-34 0 -62.5 9.5t-47.5 26.5l45 66q10 -12 24 -18.5t28 -6.5q18 0 27 5.5t9 15.5q0 12 -15.5 19t-50.5 9l22 73h71l-9 -31q41 -6 62.5 -26t21.5 -53z" />
    <glyph glyph-name="uni0328" unicode="&#x328;" horiz-adv-x="0" 
d="M18 -183q-46 0 -76 25t-30 66t30 75t100 69l37 -49q-35 -22 -49 -36.5t-14 -30.5q0 -13 9 -20t24 -7q10 0 18.5 1.5t20.5 4.5v-89q-17 -5 -33 -7t-37 -2z" />
    <glyph glyph-name="Wgrave" unicode="&#x1e80;" horiz-adv-x="955" 
d="M295 249l114 469h141l115 -469l115 469h169l-191 -718h-161l-120 459l-118 -459h-161l-192 718h173zM467 914l77 -158h-132l-156 158h211z" />
    <glyph glyph-name="wgrave" unicode="&#x1e81;" horiz-adv-x="760" 
d="M244 218l79 309h120l80 -309l81 309h156l-160 -527h-137l-83 292l-83 -292h-137l-160 527h161zM391 718l54 -148h-126l-118 148h190z" />
    <glyph glyph-name="Wacute" unicode="&#x1e82;" horiz-adv-x="955" 
d="M295 249l114 469h141l115 -469l115 469h169l-191 -718h-161l-120 459l-118 -459h-161l-192 718h173zM542 756h-132l77 158h211z" />
    <glyph glyph-name="wacute" unicode="&#x1e83;" horiz-adv-x="760" 
d="M244 218l79 309h120l80 -309l81 309h156l-160 -527h-137l-83 292l-83 -292h-137l-160 527h161zM455 570h-126l54 148h190z" />
    <glyph glyph-name="Wdieresis" unicode="&#x1e84;" horiz-adv-x="955" 
d="M295 249l114 469h141l115 -469l115 469h169l-191 -718h-161l-120 459l-118 -459h-161l-192 718h173zM450 756h-156v143h156v-143zM660 756h-156v143h156v-143z" />
    <glyph glyph-name="wdieresis" unicode="&#x1e85;" horiz-adv-x="760" 
d="M244 218l79 309h120l80 -309l81 309h156l-160 -527h-137l-83 292l-83 -292h-137l-160 527h161zM360 581h-156v137h156v-137zM564 581h-156v137h156v-137z" />
    <glyph glyph-name="Ygrave" unicode="&#x1ef2;" horiz-adv-x="677" 
d="M177 718l164 -278l164 278h176l-259 -430v-288h-167v288l-259 430h181zM347 914l77 -158h-132l-156 158h211z" />
    <glyph glyph-name="ygrave" unicode="&#x1ef3;" horiz-adv-x="538" 
d="M538 527l-201 -539q-35 -96 -83.5 -133.5t-128.5 -37.5q-18 0 -31 0.5t-29 2.5v127q12 -2 21 -2.5t19 -0.5q29 0 44.5 10.5t24.5 34.5l13 34l-187 504h165l108 -324l106 324h159zM292 718l54 -148h-126l-118 148h190z" />
    <glyph glyph-name="uni2009" unicode="&#x2009;" horiz-adv-x="100" 
 />
    <glyph glyph-name="endash" unicode="&#x2013;" horiz-adv-x="542" 
d="M502 228h-462v130h462v-130z" />
    <glyph glyph-name="emdash" unicode="&#x2014;" horiz-adv-x="976" 
d="M936 228h-896v130h896v-130z" />
    <glyph glyph-name="quoteleft" unicode="&#x2018;" horiz-adv-x="230" 
d="M135 568h72v-169h-184v165q0 71 49.5 112t134.5 42v-82q-36 -2 -54 -17t-18 -42v-9z" />
    <glyph glyph-name="quoteright" unicode="&#x2019;" horiz-adv-x="230" 
d="M95 549h-72v169h184v-165q0 -71 -49.5 -112t-134.5 -42v82q36 2 54 17t18 42v9z" />
    <glyph glyph-name="quotesinglbase" unicode="&#x201a;" horiz-adv-x="230" 
d="M95 12h-72v169h184v-165q0 -71 -49.5 -112t-134.5 -42v82q36 2 54 17t18 42v9z" />
    <glyph glyph-name="quotedblleft" unicode="&#x201c;" horiz-adv-x="462" 
d="M135 568h72v-169h-184v165q0 71 49.5 112t134.5 42v-82q-36 -2 -54 -17t-18 -42v-9zM367 568h72v-169h-184v165q0 71 49.5 112t134.5 42v-82q-36 -2 -54 -17t-18 -42v-9z" />
    <glyph glyph-name="quotedblright" unicode="&#x201d;" horiz-adv-x="462" 
d="M327 549h-72v169h184v-165q0 -71 -49.5 -112t-134.5 -42v82q36 2 54 17t18 42v9zM95 549h-72v169h184v-165q0 -71 -49.5 -112t-134.5 -42v82q36 2 54 17t18 42v9z" />
    <glyph glyph-name="quotedblbase" unicode="&#x201e;" horiz-adv-x="462" 
d="M327 12h-72v169h184v-165q0 -71 -49.5 -112t-134.5 -42v82q36 2 54 17t18 42v9zM95 12h-72v169h184v-165q0 -71 -49.5 -112t-134.5 -42v82q36 2 54 17t18 42v9z" />
    <glyph glyph-name="dagger" unicode="&#x2020;" horiz-adv-x="414" 
d="M264 278h-114v221h-130v115h130v124h114v-124h130v-115h-130v-221z" />
    <glyph glyph-name="daggerdbl" unicode="&#x2021;" horiz-adv-x="414" 
d="M266 278h-118v85h-128v108h128v75h-128v108h128v84h118v-84h128v-108h-128v-75h128v-108h-128v-85z" />
    <glyph glyph-name="bullet" unicode="&#x2022;" horiz-adv-x="442" 
d="M87 427q26 25 61 39t74 14t73 -14t60 -40t39.5 -60.5t13.5 -73.5t-14 -73t-39 -60q-26 -25 -60.5 -39t-72.5 -14q-39 0 -73.5 13.5t-60.5 39.5q-27 25 -41 59.5t-14 73.5q0 40 14 74.5t40 60.5z" />
    <glyph glyph-name="ellipsis" unicode="&#x2026;" horiz-adv-x="745" 
d="M219 0h-184v179h184v-179zM464 0h-184v179h184v-179zM710 0h-184v179h184v-179z" />
    <glyph glyph-name="guilsinglleft" unicode="&#x2039;" horiz-adv-x="248" 
d="M225 49l-202 141v140l202 141v-150l-77 -61l77 -61v-150z" />
    <glyph glyph-name="guilsinglright" unicode="&#x203a;" horiz-adv-x="248" 
d="M225 330v-140l-202 -141v150l77 61l-77 61v150z" />
    <glyph glyph-name="fraction" unicode="&#x2044;" horiz-adv-x="187" 
d="M-217 0l502 718h119l-501 -718h-120z" />
    <glyph glyph-name="uni2070" unicode="&#x2070;" 
d="M189 314q-73 0 -115 55t-42 150t42 150t115 55q74 0 116 -55t42 -150t-42 -150t-116 -55zM189 622q-20 0 -30.5 -26.5t-10.5 -76.5q0 -52 10 -77.5t31 -25.5t31.5 25.5t10.5 77.5t-10.5 77.5t-31.5 25.5z" />
    <glyph glyph-name="uni2074" unicode="&#x2074;" 
d="M308 403v-83h-107v83h-182v84l144 231h145v-225h52v-90h-52zM198 630l-88 -137h88v137z" />
    <glyph glyph-name="uni2075" unicode="&#x2075;" 
d="M193 499q-11 0 -20 -5t-14 -15l-108 12l18 227h243v-97h-158l-5 -64q18 13 37 19.5t38 6.5q54 0 87.5 -35t33.5 -92q0 -62 -44 -102t-111 -40t-110 33t-50 91l117 18q1 -20 12.5 -31.5t30.5 -11.5q18 0 30 12t12 30q0 19 -10.5 31.5t-28.5 12.5z" />
    <glyph glyph-name="uni2076" unicode="&#x2076;" 
d="M208 724q52 0 88 -24t53 -69l-93 -36q-6 17 -18.5 26t-30.5 9q-27 0 -43 -19.5t-16 -50.5v-9.5t1 -6.5q8 16 27 25t45 9q55 0 90.5 -34.5t35.5 -87.5q0 -63 -41.5 -102.5t-108.5 -39.5q-75 0 -119 54t-44 142q0 95 48 154.5t126 59.5zM195 404q20 0 32.5 13.5t12.5 34.5
t-12.5 34.5t-32.5 13.5t-33 -13.5t-13 -34.5t13 -34.5t33 -13.5z" />
    <glyph glyph-name="uni2077" unicode="&#x2077;" 
d="M229 622h-95v-49h-96v145h307v-98q-31 -32 -51.5 -65.5t-31.5 -72.5q-9 -31 -13 -68t-4 -94h-125q0 94 26.5 168t82.5 134z" />
    <glyph glyph-name="uni2078" unicode="&#x2078;" 
d="M49 604q0 54 39.5 87t100.5 33t101 -33t40 -87q0 -25 -12.5 -45.5t-35.5 -34.5q30 -12 48 -36.5t18 -54.5q0 -53 -44.5 -86t-114.5 -33t-114.5 33t-44.5 86q0 30 18 54.5t48 36.5q-23 13 -35 33.5t-12 46.5zM148 602q0 -18 11 -28t30 -10t30 10t11 28q0 17 -11.5 27
t-29.5 10t-29.5 -10t-11.5 -27zM235 443q0 18 -13 30t-33 12t-33 -12t-13 -30q0 -19 12.5 -30t33.5 -11t33.5 11t12.5 30z" />
    <glyph glyph-name="uni2079" unicode="&#x2079;" 
d="M171 314q-52 0 -88 24t-53 69l93 36q6 -17 18.5 -26t30.5 -9q27 0 43 19.5t16 50.5v9.5t-1 6.5q-8 -16 -27 -25t-45 -9q-55 0 -90.5 34.5t-35.5 87.5q0 63 41.5 102.5t108.5 39.5q75 0 119 -54t44 -142q0 -95 -48 -154.5t-126 -59.5zM184 634q-20 0 -32.5 -13.5
t-12.5 -34.5t12.5 -34.5t32.5 -13.5t33 13.5t13 34.5t-13 34.5t-33 13.5z" />
    <glyph glyph-name="uni2080" unicode="&#x2080;" 
d="M189 -126q-73 0 -115 55t-42 150t42 150t115 55q74 0 116 -55t42 -150t-42 -150t-116 -55zM189 182q-20 0 -30.5 -26.5t-10.5 -76.5q0 -52 10 -77.5t31 -25.5t31.5 25.5t10.5 77.5t-10.5 77.5t-31.5 25.5z" />
    <glyph glyph-name="uni2081" unicode="&#x2081;" 
d="M145 -19v153h-91v79l38 3q35 2 53.5 17t24.5 45h93v-297h71v-101h-277v101h88z" />
    <glyph glyph-name="uni2082" unicode="&#x2082;" 
d="M39 -120v89l133 103q28 21 39 37t11 34q0 17 -10.5 27.5t-27.5 10.5t-28 -11.5t-11 -29.5q0 -8 2 -18t5 -16h-109q-4 10 -6 19.5t-2 20.5q0 60 44 99t109 39q67 0 107 -36t40 -95q0 -35 -18.5 -66t-59.5 -63l-56 -43h140v-101h-302z" />
    <glyph glyph-name="uni2083" unicode="&#x2083;" 
d="M343 -6q0 -53 -41.5 -86.5t-107.5 -33.5q-68 0 -111.5 33t-50.5 92l118 17q1 -20 12.5 -32t29.5 -12t29 9.5t11 25.5t-12 25t-32 9h-37v80h33q20 0 31.5 9t11.5 24q0 14 -9.5 23t-25.5 9q-17 0 -28.5 -11.5t-13.5 -30.5l-111 9q7 58 49.5 94.5t107.5 36.5t104.5 -33.5
t39.5 -86.5q0 -27 -16 -50.5t-40 -31.5q29 -12 44 -34.5t15 -53.5z" />
    <glyph glyph-name="uni2084" unicode="&#x2084;" 
d="M308 -37v-83h-107v83h-182v84l144 231h145v-225h52v-90h-52zM198 190l-88 -137h88v137z" />
    <glyph glyph-name="uni2085" unicode="&#x2085;" 
d="M193 59q-11 0 -20 -5t-14 -15l-108 12l18 227h243v-97h-158l-5 -64q18 13 37 19.5t38 6.5q54 0 87.5 -35t33.5 -92q0 -62 -44 -102t-111 -40t-110 33t-50 91l117 18q1 -20 12.5 -31.5t30.5 -11.5q18 0 30 12t12 30q0 19 -10.5 31.5t-28.5 12.5z" />
    <glyph glyph-name="uni2086" unicode="&#x2086;" 
d="M208 284q52 0 88 -24t53 -69l-93 -36q-6 17 -18.5 26t-30.5 9q-27 0 -43 -19.5t-16 -50.5v-9.5t1 -6.5q8 16 27 25t45 9q55 0 90.5 -34.5t35.5 -87.5q0 -63 -41.5 -102.5t-108.5 -39.5q-75 0 -119 54t-44 142q0 95 48 154.5t126 59.5zM195 -36q20 0 32.5 13.5t12.5 34.5
t-12.5 34.5t-32.5 13.5t-33 -13.5t-13 -34.5t13 -34.5t33 -13.5z" />
    <glyph glyph-name="uni2087" unicode="&#x2087;" 
d="M229 182h-95v-49h-96v145h307v-98q-31 -32 -51.5 -65.5t-31.5 -72.5q-9 -31 -13 -68t-4 -94h-125q0 94 26.5 168t82.5 134z" />
    <glyph glyph-name="uni2088" unicode="&#x2088;" 
d="M49 164q0 54 39.5 87t100.5 33t101 -33t40 -87q0 -25 -12.5 -45.5t-35.5 -34.5q30 -12 48 -36.5t18 -54.5q0 -53 -44.5 -86t-114.5 -33t-114.5 33t-44.5 86q0 30 18 54.5t48 36.5q-23 13 -35 33.5t-12 46.5zM148 162q0 -18 11 -28t30 -10t30 10t11 28q0 17 -11.5 27
t-29.5 10t-29.5 -10t-11.5 -27zM235 3q0 18 -13 30t-33 12t-33 -12t-13 -30q0 -19 12.5 -30t33.5 -11t33.5 11t12.5 30z" />
    <glyph glyph-name="uni2089" unicode="&#x2089;" 
d="M171 -126q-52 0 -88 24t-53 69l93 36q6 -17 18.5 -26t30.5 -9q27 0 43 19.5t16 50.5v9.5t-1 6.5q-8 -16 -27 -25t-45 -9q-55 0 -90.5 34.5t-35.5 87.5q0 63 41.5 102.5t108.5 39.5q75 0 119 -54t44 -142q0 -95 -48 -154.5t-126 -59.5zM184 194q-20 0 -32.5 -13.5
t-12.5 -34.5t12.5 -34.5t32.5 -13.5t33 13.5t13 34.5t-13 34.5t-33 13.5z" />
    <glyph glyph-name="Euro" unicode="&#x20ac;" horiz-adv-x="658" 
d="M90 235h-72v100h59v12v12v16.5t1 10.5h-60v100h73q27 115 101 179t182 64q99 0 168 -51.5t99 -148.5l-148 -51q-14 57 -44 85.5t-77 28.5q-43 0 -74 -27t-48 -79h174l-21 -100h-169q-1 -5 -1 -10.5v-16.5v-12v-12h159l-20 -100h-123q17 -53 48 -81t75 -28q47 0 77 28.5
t44 85.5l148 -51q-30 -97 -99 -148.5t-168 -51.5q-108 0 -182.5 64.5t-101.5 181.5z" />
    <glyph glyph-name="trademark" unicode="&#x2122;" horiz-adv-x="793" 
d="M231 616v-242h-114v242h-97v102h307v-102h-96zM653 572l-64 -198h-61l-64 198v-198h-100v344h143l53 -179l53 179h140v-344h-100v198z" />
    <glyph glyph-name="uni2153" unicode="&#x2153;" horiz-adv-x="903" 
d="M873 114q0 -53 -41.5 -86.5t-107.5 -33.5q-68 0 -111.5 33t-50.5 92l118 17q1 -20 12.5 -32t29.5 -12t29 9.5t11 25.5t-12 25t-32 9h-37v80h33q20 0 31.5 9t11.5 24q0 14 -9.5 23t-25.5 9q-17 0 -28.5 -11.5t-13.5 -30.5l-111 9q7 58 49.5 94.5t107.5 36.5t104.5 -33.5
t39.5 -86.5q0 -27 -16 -50.5t-40 -31.5q29 -12 44 -34.5t15 -53.5zM163 0l502 718h119l-501 -718h-120zM145 421v153h-91v79l38 3q35 2 53.5 17t24.5 45h93v-297h71v-101h-277v101h88z" />
    <glyph glyph-name="uni2154" unicode="&#x2154;" horiz-adv-x="913" 
d="M883 114q0 -53 -41.5 -86.5t-107.5 -33.5q-68 0 -111.5 33t-50.5 92l118 17q1 -20 12.5 -32t29.5 -12t29 9.5t11 25.5t-12 25t-32 9h-37v80h33q20 0 31.5 9t11.5 24q0 14 -9.5 23t-25.5 9q-17 0 -28.5 -11.5t-13.5 -30.5l-111 9q7 58 49.5 94.5t107.5 36.5t104.5 -33.5
t39.5 -86.5q0 -27 -16 -50.5t-40 -31.5q29 -12 44 -34.5t15 -53.5zM173 0l502 718h119l-501 -718h-120zM39 320v89l133 103q28 21 39 37t11 34q0 17 -10.5 27.5t-27.5 10.5t-28 -11.5t-11 -29.5q0 -8 2 -18t5 -16h-109q-4 10 -6 19.5t-2 20.5q0 60 44 99t109 39
q67 0 107 -36t40 -95q0 -35 -18.5 -66t-59.5 -63l-56 -43h140v-101h-302z" />
    <glyph glyph-name="uni215B" unicode="&#x215b;" horiz-adv-x="906" 
d="M579 284q0 54 39.5 87t100.5 33t101 -33t40 -87q0 -25 -12.5 -45.5t-35.5 -34.5q30 -12 48 -36.5t18 -54.5q0 -53 -44.5 -86t-114.5 -33t-114.5 33t-44.5 86q0 30 18 54.5t48 36.5q-23 13 -35 33.5t-12 46.5zM678 282q0 -18 11 -28t30 -10t30 10t11 28q0 17 -11.5 27
t-29.5 10t-29.5 -10t-11.5 -27zM765 123q0 18 -13 30t-33 12t-33 -12t-13 -30q0 -19 12.5 -30t33.5 -11t33.5 11t12.5 30zM163 0l502 718h119l-501 -718h-120zM145 421v153h-91v79l38 3q35 2 53.5 17t24.5 45h93v-297h71v-101h-277v101h88z" />
    <glyph glyph-name="uni215C" unicode="&#x215c;" horiz-adv-x="888" 
d="M567 284q0 54 39.5 87t100.5 33t101 -33t40 -87q0 -25 -12.5 -45.5t-35.5 -34.5q30 -12 48 -36.5t18 -54.5q0 -53 -44.5 -86t-114.5 -33t-114.5 33t-44.5 86q0 30 18 54.5t48 36.5q-23 13 -35 33.5t-12 46.5zM666 282q0 -18 11 -28t30 -10t30 10t11 28q0 17 -11.5 27
t-29.5 10t-29.5 -10t-11.5 -27zM753 123q0 18 -13 30t-33 12t-33 -12t-13 -30q0 -19 12.5 -30t33.5 -11t33.5 11t12.5 30zM149 0l502 718h119l-501 -718h-120zM343 434q0 -53 -41.5 -86.5t-107.5 -33.5q-68 0 -111.5 33t-50.5 92l118 17q1 -20 12.5 -32t29.5 -12t29 9.5
t11 25.5t-12 25t-32 9h-37v80h33q20 0 31.5 9t11.5 24q0 14 -9.5 23t-25.5 9q-17 0 -28.5 -11.5t-13.5 -30.5l-111 9q7 58 49.5 94.5t107.5 36.5t104.5 -33.5t39.5 -86.5q0 -27 -16 -50.5t-40 -31.5q29 -12 44 -34.5t15 -53.5z" />
    <glyph glyph-name="uni215D" unicode="&#x215d;" horiz-adv-x="888" 
d="M561 284q0 54 39.5 87t100.5 33t101 -33t40 -87q0 -25 -12.5 -45.5t-35.5 -34.5q30 -12 48 -36.5t18 -54.5q0 -53 -44.5 -86t-114.5 -33t-114.5 33t-44.5 86q0 30 18 54.5t48 36.5q-23 13 -35 33.5t-12 46.5zM660 282q0 -18 11 -28t30 -10t30 10t11 28q0 17 -11.5 27
t-29.5 10t-29.5 -10t-11.5 -27zM747 123q0 18 -13 30t-33 12t-33 -12t-13 -30q0 -19 12.5 -30t33.5 -11t33.5 11t12.5 30zM143 0l502 718h119l-501 -718h-120zM193 499q-11 0 -20 -5t-14 -15l-108 12l18 227h243v-97h-158l-5 -64q18 13 37 19.5t38 6.5q54 0 87.5 -35
t33.5 -92q0 -62 -44 -102t-111 -40t-110 33t-50 91l117 18q1 -20 12.5 -31.5t30.5 -11.5q18 0 30 12t12 30q0 19 -10.5 31.5t-28.5 12.5z" />
    <glyph glyph-name="uni215E" unicode="&#x215e;" horiz-adv-x="848" 
d="M521 284q0 54 39.5 87t100.5 33t101 -33t40 -87q0 -25 -12.5 -45.5t-35.5 -34.5q30 -12 48 -36.5t18 -54.5q0 -53 -44.5 -86t-114.5 -33t-114.5 33t-44.5 86q0 30 18 54.5t48 36.5q-23 13 -35 33.5t-12 46.5zM620 282q0 -18 11 -28t30 -10t30 10t11 28q0 17 -11.5 27
t-29.5 10t-29.5 -10t-11.5 -27zM707 123q0 18 -13 30t-33 12t-33 -12t-13 -30q0 -19 12.5 -30t33.5 -11t33.5 11t12.5 30zM103 0l502 718h119l-501 -718h-120zM229 622h-95v-49h-96v145h307v-98q-31 -32 -51.5 -65.5t-31.5 -72.5q-9 -31 -13 -68t-4 -94h-125q0 94 26.5 168
t82.5 134z" />
    <glyph glyph-name="minus" unicode="&#x2212;" horiz-adv-x="608" 
d="M569 282h-531v127h531v-127z" />
    <glyph glyph-name="uniF6C3" unicode="&#xf6c3;" horiz-adv-x="600" 
d="M276 -123h-57v90h160v-51q0 -63 -41 -96.5t-119 -33.5v59q26 0 39.5 7.5t17.5 24.5z" />
    <glyph glyph-name="a.1" horiz-adv-x="549" 
d="M499 374v-243q0 -39 2 -71.5t6 -59.5h-152q-2 10 -2.5 20t-0.5 20q-26 -25 -64 -37.5t-85 -12.5q-80 0 -130.5 44t-50.5 113q0 71 50 113t153 57l118 20v20q0 27 -17.5 40.5t-53.5 13.5t-54.5 -14.5t-20.5 -43.5h-155q5 87 68 136t170 49q105 0 162 -42.5t57 -121.5z
M240 108q45 0 74 22.5t29 59.5v43l-93 -16q-40 -8 -56 -21.5t-16 -37.5t16.5 -37t45.5 -13z" />
    <glyph glyph-name="aogonek.1" horiz-adv-x="549" 
d="M412 -183q-46 0 -76 25t-30 66q0 27 12 50t37 44q-1 9 -2 18.5t-1 19.5q-26 -25 -64 -37.5t-85 -12.5q-80 0 -130.5 44t-50.5 113q0 71 50 113t153 57l118 20v20q0 27 -17.5 40.5t-53.5 13.5t-54.5 -14.5t-20.5 -43.5h-155q5 87 68 136t170 49q105 0 162 -42.5t57 -121.5
v-243q0 -39 2 -71.5t6 -59.5h-39q-32 -20 -45 -34.5t-13 -29.5q0 -13 9 -20t24 -7q10 0 18.5 1.5t20.5 4.5v-89q-17 -5 -33 -7t-37 -2zM240 108q45 0 74 22.5t29 59.5v43l-93 -16q-40 -8 -56 -21.5t-16 -37.5t16.5 -37t45.5 -13z" />
    <glyph glyph-name="aacute.1" horiz-adv-x="549" 
d="M339 570h-126l54 148h190zM499 374v-243q0 -39 2 -71.5t6 -59.5h-152q-2 10 -2.5 20t-0.5 20q-26 -25 -64 -37.5t-85 -12.5q-80 0 -130.5 44t-50.5 113q0 71 50 113t153 57l118 20v20q0 27 -17.5 40.5t-53.5 13.5t-54.5 -14.5t-20.5 -43.5h-155q5 87 68 136t170 49
q105 0 162 -42.5t57 -121.5zM240 108q45 0 74 22.5t29 59.5v43l-93 -16q-40 -8 -56 -21.5t-16 -37.5t16.5 -37t45.5 -13z" />
    <glyph glyph-name="adieresis.1" horiz-adv-x="549" 
d="M252 581h-156v137h156v-137zM456 581h-156v137h156v-137zM499 374v-243q0 -39 2 -71.5t6 -59.5h-152q-2 10 -2.5 20t-0.5 20q-26 -25 -64 -37.5t-85 -12.5q-80 0 -130.5 44t-50.5 113q0 71 50 113t153 57l118 20v20q0 27 -17.5 40.5t-53.5 13.5t-54.5 -14.5t-20.5 -43.5
h-155q5 87 68 136t170 49q105 0 162 -42.5t57 -121.5zM240 108q45 0 74 22.5t29 59.5v43l-93 -16q-40 -8 -56 -21.5t-16 -37.5t16.5 -37t45.5 -13z" />
    <glyph glyph-name="acircumflex.1" horiz-adv-x="549" 
d="M199 718h158l101 -148h-118l-62 52l-62 -52h-118zM499 374v-243q0 -39 2 -71.5t6 -59.5h-152q-2 10 -2.5 20t-0.5 20q-26 -25 -64 -37.5t-85 -12.5q-80 0 -130.5 44t-50.5 113q0 71 50 113t153 57l118 20v20q0 27 -17.5 40.5t-53.5 13.5t-54.5 -14.5t-20.5 -43.5h-155
q5 87 68 136t170 49q105 0 162 -42.5t57 -121.5zM240 108q45 0 74 22.5t29 59.5v43l-93 -16q-40 -8 -56 -21.5t-16 -37.5t16.5 -37t45.5 -13z" />
    <glyph glyph-name="aring.1" horiz-adv-x="549" 
d="M272 560q-50 0 -83 32t-33 79t33 78.5t83 31.5t83 -31.5t33 -78.5t-33 -79t-83 -32zM272 713q-17 0 -29 -12.5t-12 -29.5q0 -18 11.5 -30t29.5 -12t29.5 12t11.5 30q0 17 -12 29.5t-29 12.5zM499 374v-243q0 -39 2 -71.5t6 -59.5h-152q-2 10 -2.5 20t-0.5 20
q-26 -25 -64 -37.5t-85 -12.5q-80 0 -130.5 44t-50.5 113q0 71 50 113t153 57l118 20v20q0 27 -17.5 40.5t-53.5 13.5t-54.5 -14.5t-20.5 -43.5h-155q5 87 68 136t170 49q105 0 162 -42.5t57 -121.5zM240 108q45 0 74 22.5t29 59.5v43l-93 -16q-40 -8 -56 -21.5t-16 -37.5
t16.5 -37t45.5 -13z" />
    <glyph glyph-name="abreve.1" horiz-adv-x="549" 
d="M277 668q24 0 39 14t15 36h109q0 -70 -43 -110t-120 -40t-120 40t-43 110h109q0 -22 15 -36t39 -14zM499 374v-243q0 -39 2 -71.5t6 -59.5h-152q-2 10 -2.5 20t-0.5 20q-26 -25 -64 -37.5t-85 -12.5q-80 0 -130.5 44t-50.5 113q0 71 50 113t153 57l118 20v20
q0 27 -17.5 40.5t-53.5 13.5t-54.5 -14.5t-20.5 -43.5h-155q5 87 68 136t170 49q105 0 162 -42.5t57 -121.5zM240 108q45 0 74 22.5t29 59.5v43l-93 -16q-40 -8 -56 -21.5t-16 -37.5t16.5 -37t45.5 -13z" />
    <glyph glyph-name="agrave.1" horiz-adv-x="549" 
d="M296 718l54 -148h-126l-118 148h190zM499 374v-243q0 -39 2 -71.5t6 -59.5h-152q-2 10 -2.5 20t-0.5 20q-26 -25 -64 -37.5t-85 -12.5q-80 0 -130.5 44t-50.5 113q0 71 50 113t153 57l118 20v20q0 27 -17.5 40.5t-53.5 13.5t-54.5 -14.5t-20.5 -43.5h-155q5 87 68 136
t170 49q105 0 162 -42.5t57 -121.5zM240 108q45 0 74 22.5t29 59.5v43l-93 -16q-40 -8 -56 -21.5t-16 -37.5t16.5 -37t45.5 -13z" />
    <glyph glyph-name="atilde.1" horiz-adv-x="549" 
d="M212 727q16 0 31 -6t39 -23q16 -12 23.5 -15.5t14.5 -3.5q15 0 24 11.5t13 36.5h97q-2 -73 -33 -115t-82 -42q-16 0 -31 5.5t-39 22.5q-16 12 -23.5 15.5t-14.5 3.5q-15 0 -24 -11t-13 -36h-97q2 72 33 114.5t82 42.5zM499 374v-243q0 -39 2 -71.5t6 -59.5h-152
q-2 10 -2.5 20t-0.5 20q-26 -25 -64 -37.5t-85 -12.5q-80 0 -130.5 44t-50.5 113q0 71 50 113t153 57l118 20v20q0 27 -17.5 40.5t-53.5 13.5t-54.5 -14.5t-20.5 -43.5h-155q5 87 68 136t170 49q105 0 162 -42.5t57 -121.5zM240 108q45 0 74 22.5t29 59.5v43l-93 -16
q-40 -8 -56 -21.5t-16 -37.5t16.5 -37t45.5 -13z" />
    <glyph glyph-name="amacron.1" horiz-adv-x="549" 
d="M438 702v-119h-322v119h322zM499 374v-243q0 -39 2 -71.5t6 -59.5h-152q-2 10 -2.5 20t-0.5 20q-26 -25 -64 -37.5t-85 -12.5q-80 0 -130.5 44t-50.5 113q0 71 50 113t153 57l118 20v20q0 27 -17.5 40.5t-53.5 13.5t-54.5 -14.5t-20.5 -43.5h-155q5 87 68 136t170 49
q105 0 162 -42.5t57 -121.5zM240 108q45 0 74 22.5t29 59.5v43l-93 -16q-40 -8 -56 -21.5t-16 -37.5t16.5 -37t45.5 -13z" />
    <glyph glyph-name="i.loclTRK" horiz-adv-x="265" 
d="M214 581h-163v137h163v-137zM52 527h160v-527h-160v527z" />
    <glyph glyph-name="ordfeminine.1" horiz-adv-x="425" 
d="M372 607v-172q0 -41 1 -60.5t4 -34.5h-112q-1 11 -1.5 17t-0.5 11q-20 -17 -46.5 -26t-59.5 -9q-58 0 -94.5 31.5t-36.5 80.5q0 51 36 81.5t112 41.5l82 14v13q0 19 -12 28.5t-37 9.5t-37.5 -10t-14.5 -31h-114q4 63 49 98t123 35q76 0 117.5 -30.5t41.5 -87.5zM184 420
q32 0 52 15.5t20 41.5v29l-64 -11q-27 -5 -39 -14.5t-12 -26.5q0 -16 11.5 -25t31.5 -9zM374 184h-346v98h346v-98z" />
    <glyph glyph-name="a.ord" horiz-adv-x="422" 
d="M267 374q-19 -20 -47.5 -30.5t-63.5 -10.5q-58 0 -94.5 31.5t-36.5 80.5q0 51 36.5 81.5t111.5 40.5l82 13v7q0 23 -12.5 34t-37.5 11q-24 0 -38 -10.5t-19 -33.5l-113 16q13 55 60 88t115 33q77 0 118.5 -34t41.5 -98v-144q0 -14 7 -19t23 -3v-86q-49 -9 -83.5 -0.5
t-49.5 33.5zM184 419q31 0 51 15.5t20 41.5v30l-65 -12q-26 -5 -38 -14.5t-12 -25.5q0 -17 11.5 -26t32.5 -9z" />
    <glyph glyph-name="a.1.ord" horiz-adv-x="425" 
d="M372 607v-172q0 -41 1 -60.5t4 -34.5h-112q-1 11 -1.5 17t-0.5 11q-20 -17 -46.5 -26t-59.5 -9q-58 0 -94.5 31.5t-36.5 80.5q0 51 36 81.5t112 41.5l82 14v13q0 19 -12 28.5t-37 9.5t-37.5 -10t-14.5 -31h-114q4 63 49 98t123 35q76 0 117.5 -30.5t41.5 -87.5zM184 420
q32 0 52 15.5t20 41.5v29l-64 -11q-27 -5 -39 -14.5t-12 -26.5q0 -16 11.5 -25t31.5 -9z" />
    <glyph glyph-name="b.ord" horiz-adv-x="470" 
d="M441 529q0 -87 -45 -142t-118 -55q-31 0 -58 12t-44 33v-37h-118v515h118v-174q16 21 42.5 32.5t59.5 11.5q74 0 118.5 -54.5t44.5 -141.5zM247 625q-33 0 -52.5 -23.5t-19.5 -63.5v-19q0 -39 20 -63t52 -24q34 0 54.5 26.5t20.5 70.5t-20 70t-55 26z" />
    <glyph glyph-name="c.ord" horiz-adv-x="404" 
d="M222 629q-36 0 -57 -27t-21 -73q0 -47 21 -73.5t57 -26.5q25 0 42 16.5t23 45.5l101 -39q-13 -53 -58.5 -86.5t-109.5 -33.5q-84 0 -137.5 55t-53.5 142t53.5 141.5t137.5 54.5q64 0 109.5 -32t58.5 -85l-101 -40q-6 28 -23 44.5t-42 16.5z" />
    <glyph glyph-name="d.ord" horiz-adv-x="470" 
d="M192 332q-73 0 -118 55t-45 142t44.5 141.5t118.5 54.5q33 0 59.5 -11.5t42.5 -32.5v174h118v-515h-118v37q-17 -21 -44 -33t-58 -12zM295 519v19q0 40 -19.5 63.5t-52.5 23.5q-35 0 -55 -26t-20 -70t20.5 -70.5t54.5 -26.5q32 0 52 24t20 63z" />
    <glyph glyph-name="e.ord" horiz-adv-x="425" 
d="M221 332q-86 0 -139 54.5t-53 142.5q0 84 54 140t136 56t130 -52.5t48 -138.5v-30h-254q5 -37 26.5 -57.5t53.5 -20.5q27 0 46 12.5t27 36.5l98 -32q-19 -52 -65.5 -81.5t-107.5 -29.5zM218 635q-26 0 -44.5 -15.5t-26.5 -44.5h135q-2 27 -19 43.5t-45 16.5z" />
    <glyph glyph-name="f.ord" horiz-adv-x="259" 
d="M203 861h11.5t31.5 -2v-91q-4 0 -12 0.5t-14 0.5q-24 0 -33.5 -9t-9.5 -31v-11h69v-97h-69v-281h-118v281h-49v97h49v17q0 64 35.5 95t108.5 31z" />
    <glyph glyph-name="g.ord" horiz-adv-x="473" 
d="M414 718v-332q0 -84 -54 -132t-146 -48q-72 0 -119 29.5t-61 83.5l111 26q8 -24 27 -37t46 -13q37 0 57.5 20t20.5 57v25q-14 -20 -41.5 -32t-59.5 -12q-74 0 -118.5 52t-44.5 134t44.5 134t118.5 52q32 0 59.5 -12t41.5 -32v37h118zM297 533v12q0 39 -19.5 61.5
t-51.5 22.5q-35 0 -54.5 -24t-19.5 -65q0 -43 19.5 -67t54.5 -24q32 0 51.5 22.5t19.5 61.5z" />
    <glyph glyph-name="h.ord" horiz-adv-x="462" 
d="M176 340h-118v515h118v-174q19 21 46 32.5t57 11.5q59 0 93.5 -37t34.5 -99v-249h-118v217q0 30 -13.5 46.5t-38.5 16.5q-26 0 -43.5 -18t-17.5 -47v-215z" />
    <glyph glyph-name="i.ord" horiz-adv-x="234" 
d="M176 755h-119v100h119v-100zM58 718h118v-378h-118v378z" />
    <glyph glyph-name="j.ord" horiz-adv-x="208" 
d="M151 755h-120v100h120v-100zM-9 301q22 0 31.5 8t9.5 27v382h118v-386q0 -60 -34 -91.5t-98 -31.5q-14 0 -31 1.5t-20 1.5v90q5 -1 9 -1h15z" />
    <glyph glyph-name="k.ord" horiz-adv-x="443" 
d="M58 855h118v-270l118 133h138l-134 -141l144 -237h-134l-93 150l-39 -41v-109h-118v515z" />
    <glyph glyph-name="l.ord" horiz-adv-x="235" 
d="M58 855h118v-515h-118v515z" />
    <glyph glyph-name="m.ord" horiz-adv-x="683" 
d="M234 620q-25 0 -41.5 -18t-16.5 -47v-215h-118v378h118v-37q17 21 44 32.5t59 11.5q34 0 61 -13.5t43 -37.5q23 25 52.5 38t64.5 13q58 0 93 -37t35 -99v-249h-118v217q0 30 -13 46.5t-37 16.5q-25 0 -41.5 -18t-16.5 -47v-215h-118v217q0 30 -13 46.5t-37 16.5z" />
    <glyph glyph-name="n.ord" horiz-adv-x="462" 
d="M176 340h-118v378h118v-37q19 21 46 32.5t57 11.5q59 0 93.5 -37t34.5 -99v-249h-118v217q0 30 -13.5 46.5t-38.5 16.5q-26 0 -43.5 -18t-17.5 -47v-215z" />
    <glyph glyph-name="o.ord" horiz-adv-x="438" 
d="M219 725q85 0 137.5 -54t52.5 -142t-53 -142.5t-137 -54.5t-137 54.5t-53 142.5t52.5 142t137.5 54zM219 630q-34 0 -53.5 -26.5t-19.5 -74.5t19 -74t54 -26t54 26t19 74t-19.5 74.5t-53.5 26.5z" />
    <glyph glyph-name="p.ord" horiz-adv-x="470" 
d="M441 529q0 -87 -45 -142t-118 -55q-31 0 -58 12t-44 33v-163h-118v504h118v-37q16 21 42.5 32.5t59.5 11.5q74 0 118.5 -54.5t44.5 -141.5zM247 625q-33 0 -52.5 -23.5t-19.5 -63.5v-19q0 -39 20 -63t52 -24q34 0 54.5 26.5t20.5 70.5t-20 70t-55 26z" />
    <glyph glyph-name="q.ord" horiz-adv-x="470" 
d="M192 332q-73 0 -118 55t-45 142t44.5 141.5t118.5 54.5q33 0 59.5 -11.5t42.5 -32.5v37h118v-504h-118v163q-17 -21 -44 -33t-58 -12zM295 519v19q0 40 -19.5 63.5t-52.5 23.5q-35 0 -55 -26t-20 -70t20.5 -70.5t54.5 -26.5q32 0 52 24t20 63z" />
    <glyph glyph-name="r.ord" horiz-adv-x="323" 
d="M273 720q5 0 13 -0.5t12 -0.5v-113q-7 1 -13.5 1.5t-20.5 0.5q-39 0 -63.5 -22.5t-24.5 -60.5v-185h-118v378h118v-49q14 24 40 37.5t57 13.5z" />
    <glyph glyph-name="s.ord" horiz-adv-x="385" 
d="M185 332q-51 0 -100 17t-75 45l55 77q23 -23 58 -37.5t67 -14.5q27 0 40.5 8t13.5 24q0 11 -7.5 16.5t-28.5 10.5q-8 2 -25.5 5.5l-22.5 4.5q-36 7 -55.5 13.5t-33.5 15.5q-21 13 -31 33t-10 48q0 57 45.5 92t117.5 35q49 0 92.5 -16t68.5 -43l-57 -70q-22 21 -49 32.5
t-55 11.5q-21 0 -33 -7.5t-12 -21.5q0 -9 6 -14.5t22 -9.5q4 -1 9 -2t31 -6q40 -7 61.5 -14t36.5 -16q23 -15 34.5 -35.5t11.5 -49.5q0 -60 -49 -96t-126 -36z" />
    <glyph glyph-name="t.ord" horiz-adv-x="281" 
d="M180 337q-65 0 -94 25t-29 80v179h-48v97h48v104h116v-104h74v-97h-74v-149q0 -19 10 -27.5t35 -8.5q9 0 19.5 1t12.5 1v-96q-18 -3 -34.5 -4t-35.5 -1z" />
    <glyph glyph-name="u.ord" horiz-adv-x="461" 
d="M285 718h118v-378h-118v38q-18 -22 -44 -34t-57 -12q-58 0 -93 37t-35 99v250h117v-222q0 -29 13.5 -45t39.5 -16t42.5 17.5t16.5 47.5v218z" />
    <glyph glyph-name="v.ord" horiz-adv-x="400" 
d="M394 718l-136 -378h-116l-136 378h121l75 -234l75 234h117z" />
    <glyph glyph-name="w.ord" horiz-adv-x="560" 
d="M183 500l55 218h88l56 -218l57 218h115l-115 -378h-101l-58 206l-58 -206h-102l-114 378h118z" />
    <glyph glyph-name="x.ord" horiz-adv-x="404" 
d="M400 340h-130l-71 108l-70 -108h-125l130 195l-122 183h130l61 -97l64 97h125l-122 -183z" />
    <glyph glyph-name="y.ord" horiz-adv-x="400" 
d="M394 718l-143 -383q-25 -71 -60.5 -98.5t-93.5 -27.5q-9 0 -17 0.5t-27 1.5v93q16 -2 20 -2h9q20 0 31 7t18 24l9 24l-134 361h121l76 -229l74 229h117z" />
    <glyph glyph-name="z.ord" horiz-adv-x="401" 
d="M190 437h172v-97h-324v85l179 196h-176v97h319v-85z" />
    <glyph glyph-name="caron.Slovak" horiz-adv-x="600" 
d="M307 550h-108l17 168h171z" />
    <glyph glyph-name="commaturn" horiz-adv-x="600" 
d="M323 660h57v-90h-160v51q0 63 41 96.5t119 33.5v-59q-26 0 -39.5 -7.5t-17.5 -24.5z" />
    <glyph glyph-name="grave.cap" horiz-adv-x="600" 
d="M367 914l77 -158h-132l-156 158h211z" />
    <glyph glyph-name="acute.cap" horiz-adv-x="600" 
d="M279 756h-132l77 158h211z" />
    <glyph glyph-name="circumflex.cap" horiz-adv-x="600" 
d="M217 914h166l115 -158h-119l-79 64l-79 -64h-119z" />
    <glyph glyph-name="caron.cap" horiz-adv-x="600" 
d="M498 915l-115 -158h-166l-115 158h119l79 -64l79 64h119z" />
    <glyph glyph-name="tilde.cap" horiz-adv-x="600" 
d="M227 930q18 0 35 -6t44 -25q20 -13 29.5 -17t17.5 -4q17 0 27 12.5t15 39.5h105q-2 -79 -36.5 -126t-91.5 -47q-18 0 -35 6t-44 24q-19 13 -28.5 17t-17.5 4q-18 0 -28 -12.5t-14 -38.5h-106q2 79 37 126t91 47z" />
    <glyph glyph-name="macron.cap" horiz-adv-x="600" 
d="M478 883v-121h-356v121h356z" />
    <glyph glyph-name="breve.cap" horiz-adv-x="600" 
d="M300 857q27 0 45 17t18 44h115q0 -75 -48 -119.5t-130 -44.5t-130 44.5t-48 119.5h115q0 -27 18 -44t45 -17z" />
    <glyph glyph-name="dotaccent.cap" horiz-adv-x="600" 
d="M382 756h-164v143h164v-143z" />
    <glyph glyph-name="dieresis.cap" horiz-adv-x="600" 
d="M273 756h-156v143h156v-143zM483 756h-156v143h156v-143z" />
    <glyph glyph-name="ring.cap" horiz-adv-x="600" 
d="M300 752q-61 0 -101.5 39.5t-40.5 95.5t40.5 94.5t101.5 38.5t101.5 -38.5t40.5 -94.5q0 -57 -40.5 -96t-101.5 -39zM300 938q-22 0 -36 -14.5t-14 -36.5q0 -23 13.5 -37t36.5 -14t36.5 14t13.5 37q0 22 -14 36.5t-36 14.5z" />
    <glyph glyph-name="hungarumlaut.cap" horiz-adv-x="600" 
d="M409 760h-121l77 158h174zM194 760h-121l77 158h174z" />
    <glyph glyph-name="guilsinglleft.cap" horiz-adv-x="248" 
d="M225 118l-202 141v140l202 141v-150l-77 -61l77 -61v-150z" />
    <glyph glyph-name="guilsinglright.cap" horiz-adv-x="248" 
d="M23.0137 118l201.987 141v140l-201.987 141v-150l76.9951 -61l-76.9951 -61v-150z" />
    <glyph glyph-name="guillemotleft.cap" horiz-adv-x="489" 
d="M225 118l-202 141v140l202 141v-150l-77 -61l77 -61v-150zM466 118l-202 141v140l202 141v-150l-77 -61l77 -61v-150z" />
    <glyph glyph-name="guillemotright.cap" horiz-adv-x="489" 
d="M466 399v-140l-202 -141v150l77 61l-77 61v150zM225 399v-140l-202 -141v150l77 61l-77 61v150z" />
    <glyph glyph-name="slash.cap" horiz-adv-x="471" 
d="M171 -64h-161l290 836h161z" />
    <glyph glyph-name="backslash.cap" horiz-adv-x="471" 
d="M300.011 -64h160.99l-289.982 836h-160.99z" />
    <glyph glyph-name="bar.cap" horiz-adv-x="280" 
d="M218 -64h-156v836h156v-836z" />
    <glyph glyph-name="periodcentered.cap" horiz-adv-x="264" 
d="M224 272h-184v179h184v-179z" />
    <glyph glyph-name="bullet.cap" horiz-adv-x="442" 
d="M87 492q26 25 61 39t74 14t73 -14t60 -40t39.5 -60.5t13.5 -73.5t-14 -73t-39 -60q-26 -25 -60.5 -39t-72.5 -14q-39 0 -73.5 13.5t-60.5 39.5q-27 25 -41 59.5t-14 73.5q0 40 14 74.5t40 60.5z" />
    <glyph glyph-name="hyphen.cap" horiz-adv-x="376" 
d="M336 286h-296v144h296v-144z" />
    <glyph glyph-name="endash.cap" horiz-adv-x="542" 
d="M502 293h-462v130h462v-130z" />
    <glyph glyph-name="emdash.cap" horiz-adv-x="976" 
d="M936 293h-896v130h896v-130z" />
    <glyph glyph-name="parenleft.cap" horiz-adv-x="357" 
d="M202 354q0 -111 41 -221t114 -197h-148q-87 88 -134 195.5t-47 222.5t47 222.5t134 195.5h148q-73 -88 -114 -197.5t-41 -220.5z" />
    <glyph glyph-name="parenright.cap" horiz-adv-x="357" 
d="M155.013 354q0 -111 -40.998 -221q-40.9971 -110 -113.993 -197h147.991q86.9951 88 133.992 195.5t46.9971 222.5t-46.9971 222.5t-133.992 195.5h-147.991q72.9961 -88 113.993 -197.5q40.998 -109.5 40.998 -220.5z" />
    <glyph glyph-name="bracketleft.cap" horiz-adv-x="327" 
d="M317 650h-122v-593h122v-121h-277v836h277v-122z" />
    <glyph glyph-name="bracketright.cap" horiz-adv-x="327" 
d="M10.0195 650h121.992v-593h-121.992v-121h276.982v836h-276.982v-122z" />
    <glyph glyph-name="braceleft.cap" horiz-adv-x="379" 
d="M67 290h-47v128h47q25 0 37.5 16t12.5 48v115q0 83 52 129t146 46h54v-122h-23q-43 0 -63.5 -20.5t-20.5 -64.5v-93q0 -44 -16.5 -72.5t-51.5 -45.5q35 -17 51.5 -45.5t16.5 -72.5v-93q0 -44 20.5 -64.5t63.5 -20.5h23v-122h-54q-94 0 -146 46t-52 129v115q0 32 -12.5 48
t-37.5 16z" />
    <glyph glyph-name="braceright.cap" horiz-adv-x="379" 
d="M312.004 290h46.9971v128h-46.9971q-24.998 0 -37.4971 16q-12.5 16 -12.5 48v115q0 83 -51.9961 129q-51.9971 46 -145.991 46h-53.9971v-122h22.999q42.9971 0 63.4961 -20.5q20.498 -20.5 20.498 -64.5v-93q0 -44 16.499 -72.5t51.4971 -45.5
q-34.998 -17 -51.4971 -45.5t-16.499 -72.5v-93q0 -44 -20.498 -64.5q-20.499 -20.5 -63.4961 -20.5h-22.999v-122h53.9971q93.9941 0 145.991 46q51.9961 46 51.9961 129v115q0 32 12.5 48q12.499 16 37.4971 16z" />
    <glyph glyph-name="at.cap" horiz-adv-x="907" 
d="M677 247q22 0 41.5 16.5t31.5 46.5q9 21 13.5 46.5t4.5 55.5q0 119 -76.5 186.5t-210.5 67.5q-70 0 -132.5 -25.5t-109.5 -73.5q-46 -47 -70.5 -109.5t-24.5 -133.5q0 -67 23.5 -121.5t68.5 -92.5q42 -36 99.5 -54.5t125.5 -18.5q72 0 131.5 17t111.5 53l55 -87
q-58 -45 -133 -67.5t-164 -22.5q-91 0 -170 26t-138 75q-63 53 -96 127.5t-33 164.5q0 92 35 175t101 146q64 62 148 95t178 33q80 0 151 -23.5t124 -67.5q58 -48 89 -114.5t31 -144.5q0 -56 -14.5 -104.5t-41.5 -86.5q-32 -43 -77 -66.5t-95 -23.5q-46 0 -80 14.5t-55 42.5
q-19 -26 -52.5 -40.5t-74.5 -14.5q-71 0 -115.5 49t-44.5 128q0 46 14 89t40 78q29 38 68 59t83 21q37 0 66 -14.5t44 -39.5l10 44h134l-46 -257q-5 -27 3 -40t29 -13zM433 254q26 0 44.5 22t27.5 64q6 30 8 42t2 20q0 24 -13.5 39.5t-35.5 15.5q-38 0 -62.5 -38t-24.5 -95
q0 -34 14 -52t40 -18z" />
    <glyph glyph-name="zero.dnom" 
d="M189 -6q-73 0 -115 55t-42 150t42 150t115 55q74 0 116 -55t42 -150t-42 -150t-116 -55zM189 302q-20 0 -30.5 -26.5t-10.5 -76.5q0 -52 10 -77.5t31 -25.5t31.5 25.5t10.5 77.5t-10.5 77.5t-31.5 25.5z" />
    <glyph glyph-name="one.dnom" 
d="M145 101v153h-91v79l38 3q35 2 53.5 17t24.5 45h93v-297h71v-101h-277v101h88z" />
    <glyph glyph-name="two.dnom" 
d="M39 0v89l133 103q28 21 39 37t11 34q0 17 -10.5 27.5t-27.5 10.5t-28 -11.5t-11 -29.5q0 -8 2 -18t5 -16h-109q-4 10 -6 19.5t-2 20.5q0 60 44 99t109 39q67 0 107 -36t40 -95q0 -35 -18.5 -66t-59.5 -63l-56 -43h140v-101h-302z" />
    <glyph glyph-name="three.dnom" 
d="M343 114q0 -53 -41.5 -86.5t-107.5 -33.5q-68 0 -111.5 33t-50.5 92l118 17q1 -20 12.5 -32t29.5 -12t29 9.5t11 25.5t-12 25t-32 9h-37v80h33q20 0 31.5 9t11.5 24q0 14 -9.5 23t-25.5 9q-17 0 -28.5 -11.5t-13.5 -30.5l-111 9q7 58 49.5 94.5t107.5 36.5t104.5 -33.5
t39.5 -86.5q0 -27 -16 -50.5t-40 -31.5q29 -12 44 -34.5t15 -53.5z" />
    <glyph glyph-name="four.dnom" 
d="M308 83v-83h-107v83h-182v84l144 231h145v-225h52v-90h-52zM198 310l-88 -137h88v137z" />
    <glyph glyph-name="five.dnom" 
d="M193 179q-11 0 -20 -5t-14 -15l-108 12l18 227h243v-97h-158l-5 -64q18 13 37 19.5t38 6.5q54 0 87.5 -35t33.5 -92q0 -62 -44 -102t-111 -40t-110 33t-50 91l117 18q1 -20 12.5 -31.5t30.5 -11.5q18 0 30 12t12 30q0 19 -10.5 31.5t-28.5 12.5z" />
    <glyph glyph-name="six.dnom" 
d="M208 404q52 0 88 -24t53 -69l-93 -36q-6 17 -18.5 26t-30.5 9q-27 0 -43 -19.5t-16 -50.5v-9.5t1 -6.5q8 16 27 25t45 9q55 0 90.5 -34.5t35.5 -87.5q0 -63 -41.5 -102.5t-108.5 -39.5q-75 0 -119 54t-44 142q0 95 48 154.5t126 59.5zM195 84q20 0 32.5 13.5t12.5 34.5
t-12.5 34.5t-32.5 13.5t-33 -13.5t-13 -34.5t13 -34.5t33 -13.5z" />
    <glyph glyph-name="seven.dnom" 
d="M229 302h-95v-49h-96v145h307v-98q-31 -32 -51.5 -65.5t-31.5 -72.5q-9 -31 -13 -68t-4 -94h-125q0 94 26.5 168t82.5 134z" />
    <glyph glyph-name="eight.dnom" 
d="M49 284q0 54 39.5 87t100.5 33t101 -33t40 -87q0 -25 -12.5 -45.5t-35.5 -34.5q30 -12 48 -36.5t18 -54.5q0 -53 -44.5 -86t-114.5 -33t-114.5 33t-44.5 86q0 30 18 54.5t48 36.5q-23 13 -35 33.5t-12 46.5zM148 282q0 -18 11 -28t30 -10t30 10t11 28q0 17 -11.5 27
t-29.5 10t-29.5 -10t-11.5 -27zM235 123q0 18 -13 30t-33 12t-33 -12t-13 -30q0 -19 12.5 -30t33.5 -11t33.5 11t12.5 30z" />
    <glyph glyph-name="nine.dnom" 
d="M171 -6q-52 0 -88 24t-53 69l93 36q6 -17 18.5 -26t30.5 -9q27 0 43 19.5t16 50.5v9.5t-1 6.5q-8 -16 -27 -25t-45 -9q-55 0 -90.5 34.5t-35.5 87.5q0 63 41.5 102.5t108.5 39.5q75 0 119 -54t44 -142q0 -95 -48 -154.5t-126 -59.5zM184 314q-20 0 -32.5 -13.5
t-12.5 -34.5t12.5 -34.5t32.5 -13.5t33 13.5t13 34.5t-13 34.5t-33 13.5z" />
    <glyph glyph-name="colon.mid" horiz-adv-x="247" 
d="M219 106h-184v179h184v-179zM219 435h-184v179h184v-179z" />
    <glyph glyph-name="commaturncmb" horiz-adv-x="0" 
d="M23 660h57v-90h-160v51q0 63 41 96.5t119 33.5v-59q-26 0 -39.5 -7.5t-17.5 -24.5z" />
    <glyph glyph-name="commaaccentcmb" horiz-adv-x="0" 
d="M-23 -123h-57v90h160v-51q0 -63 -41 -96.5t-119 -33.5v59q26 0 39.5 7.5t17.5 24.5z" />
    <glyph glyph-name="g.1" horiz-adv-x="579" 
d="M98 229q-28 25 -42.5 57.5t-14.5 69.5q0 82 62.5 132t163.5 50q50 0 92.5 -13.5t73.5 -38.5q22 32 62.5 46.5t84.5 8.5v-144q-29 11 -53.5 7.5t-35.5 -21.5l1.5 -16.5t0.5 -10.5q0 -81 -62.5 -131.5t-163.5 -50.5q-23 0 -43 2.5t-38 7.5q-10 -4 -15.5 -10.5t-5.5 -14.5
q0 -12 8.5 -18.5t23.5 -6.5h211q77 0 119 -35.5t42 -100.5q0 -86 -81.5 -135.5t-221.5 -49.5q-127 0 -194.5 35t-67.5 101q0 31 16.5 55.5t47.5 39.5q-21 16 -32 37.5t-11 47.5q0 32 19.5 58.5t53.5 41.5zM269 289q34 0 54.5 18t20.5 49t-20.5 49t-54.5 18q-35 0 -55.5 -18
t-20.5 -49t20.5 -49t55.5 -18zM156 -31q0 -25 29.5 -37t90.5 -12q67 0 103.5 13.5t36.5 38.5q0 18 -11 26.5t-37 8.5h-163q-23 0 -36 -10t-13 -28z" />
    <glyph glyph-name="ae.1" horiz-adv-x="872" 
d="M713 186l133 -43q-27 -72 -91.5 -113t-147.5 -41q-61 0 -112 22t-86 63q-30 -40 -81 -62t-117 -22q-83 0 -136 44t-53 114q0 84 67.5 131t184.5 47h69v31q0 27 -17.5 40.5t-53.5 13.5t-54.5 -14.5t-20.5 -43.5h-155q5 87 67.5 136t167.5 49q51 0 91.5 -16t67.5 -47
q36 31 78.5 47t88.5 16q57 0 104 -19.5t80 -57.5q31 -35 47.5 -84t16.5 -106v-43h-356q7 -52 37.5 -82t76.5 -30q39 0 66 18t38 52zM602 414q-39 0 -65.5 -23t-37.5 -65h194q-1 39 -25.5 63.5t-65.5 24.5zM243 110q42 0 71 25.5t29 64.5v28h-60q-55 0 -80.5 -15t-25.5 -47
q0 -26 18 -41t48 -15z" />
    <glyph glyph-name="aeacute.1" horiz-adv-x="872" 
d="M487 570h-126l54 148h190zM713 186l133 -43q-27 -72 -91.5 -113t-147.5 -41q-61 0 -112 22t-86 63q-30 -40 -81 -62t-117 -22q-83 0 -136 44t-53 114q0 84 67.5 131t184.5 47h69v31q0 27 -17.5 40.5t-53.5 13.5t-54.5 -14.5t-20.5 -43.5h-155q5 87 67.5 136t167.5 49
q51 0 91.5 -16t67.5 -47q36 31 78.5 47t88.5 16q57 0 104 -19.5t80 -57.5q31 -35 47.5 -84t16.5 -106v-43h-356q7 -52 37.5 -82t76.5 -30q39 0 66 18t38 52zM602 414q-39 0 -65.5 -23t-37.5 -65h194q-1 39 -25.5 63.5t-65.5 24.5zM243 110q42 0 71 25.5t29 64.5v28h-60
q-55 0 -80.5 -15t-25.5 -47q0 -26 18 -41t48 -15z" />
    <glyph glyph-name="gbreve.1" horiz-adv-x="579" 
d="M98 229q-28 25 -42.5 57.5t-14.5 69.5q0 82 62.5 132t163.5 50q50 0 92.5 -13.5t73.5 -38.5q22 32 62.5 46.5t84.5 8.5v-144q-29 11 -53.5 7.5t-35.5 -21.5l1.5 -16.5t0.5 -10.5q0 -81 -62.5 -131.5t-163.5 -50.5q-23 0 -43 2.5t-38 7.5q-10 -4 -15.5 -10.5t-5.5 -14.5
q0 -12 8.5 -18.5t23.5 -6.5h211q77 0 119 -35.5t42 -100.5q0 -86 -81.5 -135.5t-221.5 -49.5q-127 0 -194.5 35t-67.5 101q0 31 16.5 55.5t47.5 39.5q-21 16 -32 37.5t-11 47.5q0 32 19.5 58.5t53.5 41.5zM269 289q34 0 54.5 18t20.5 49t-20.5 49t-54.5 18q-35 0 -55.5 -18
t-20.5 -49t20.5 -49t55.5 -18zM156 -31q0 -25 29.5 -37t90.5 -12q67 0 103.5 13.5t36.5 38.5q0 18 -11 26.5t-37 8.5h-163q-23 0 -36 -10t-13 -28zM280 668q24 0 39 14t15 36h109q0 -70 -43 -110t-120 -40t-120 40t-43 110h109q0 -22 15 -36t39 -14z" />
    <glyph glyph-name="gcircumflex.1" horiz-adv-x="579" 
d="M98 229q-28 25 -42.5 57.5t-14.5 69.5q0 82 62.5 132t163.5 50q50 0 92.5 -13.5t73.5 -38.5q22 32 62.5 46.5t84.5 8.5v-144q-29 11 -53.5 7.5t-35.5 -21.5l1.5 -16.5t0.5 -10.5q0 -81 -62.5 -131.5t-163.5 -50.5q-23 0 -43 2.5t-38 7.5q-10 -4 -15.5 -10.5t-5.5 -14.5
q0 -12 8.5 -18.5t23.5 -6.5h211q77 0 119 -35.5t42 -100.5q0 -86 -81.5 -135.5t-221.5 -49.5q-127 0 -194.5 35t-67.5 101q0 31 16.5 55.5t47.5 39.5q-21 16 -32 37.5t-11 47.5q0 32 19.5 58.5t53.5 41.5zM269 289q34 0 54.5 18t20.5 49t-20.5 49t-54.5 18q-35 0 -55.5 -18
t-20.5 -49t20.5 -49t55.5 -18zM156 -31q0 -25 29.5 -37t90.5 -12q67 0 103.5 13.5t36.5 38.5q0 18 -11 26.5t-37 8.5h-163q-23 0 -36 -10t-13 -28zM200 718h158l101 -148h-118l-62 52l-62 -52h-118z" />
    <glyph glyph-name="uni0123.1" horiz-adv-x="579" 
d="M98 229q-28 25 -42.5 57.5t-14.5 69.5q0 82 62.5 132t163.5 50q50 0 92.5 -13.5t73.5 -38.5q22 32 62.5 46.5t84.5 8.5v-144q-29 11 -53.5 7.5t-35.5 -21.5l1.5 -16.5t0.5 -10.5q0 -81 -62.5 -131.5t-163.5 -50.5q-23 0 -43 2.5t-38 7.5q-10 -4 -15.5 -10.5t-5.5 -14.5
q0 -12 8.5 -18.5t23.5 -6.5h211q77 0 119 -35.5t42 -100.5q0 -86 -81.5 -135.5t-221.5 -49.5q-127 0 -194.5 35t-67.5 101q0 31 16.5 55.5t47.5 39.5q-21 16 -32 37.5t-11 47.5q0 32 19.5 58.5t53.5 41.5zM269 289q34 0 54.5 18t20.5 49t-20.5 49t-54.5 18q-35 0 -55.5 -18
t-20.5 -49t20.5 -49t55.5 -18zM156 -31q0 -25 29.5 -37t90.5 -12q67 0 103.5 13.5t36.5 38.5q0 18 -11 26.5t-37 8.5h-163q-23 0 -36 -10t-13 -28zM302 660h57v-90h-160v51q0 63 41 96.5t119 33.5v-59q-26 0 -39.5 -7.5t-17.5 -24.5z" />
    <glyph glyph-name="gdotaccent.1" horiz-adv-x="579" 
d="M98 229q-28 25 -42.5 57.5t-14.5 69.5q0 82 62.5 132t163.5 50q50 0 92.5 -13.5t73.5 -38.5q22 32 62.5 46.5t84.5 8.5v-144q-29 11 -53.5 7.5t-35.5 -21.5l1.5 -16.5t0.5 -10.5q0 -81 -62.5 -131.5t-163.5 -50.5q-23 0 -43 2.5t-38 7.5q-10 -4 -15.5 -10.5t-5.5 -14.5
q0 -12 8.5 -18.5t23.5 -6.5h211q77 0 119 -35.5t42 -100.5q0 -86 -81.5 -135.5t-221.5 -49.5q-127 0 -194.5 35t-67.5 101q0 31 16.5 55.5t47.5 39.5q-21 16 -32 37.5t-11 47.5q0 32 19.5 58.5t53.5 41.5zM269 289q34 0 54.5 18t20.5 49t-20.5 49t-54.5 18q-35 0 -55.5 -18
t-20.5 -49t20.5 -49t55.5 -18zM156 -31q0 -25 29.5 -37t90.5 -12q67 0 103.5 13.5t36.5 38.5q0 18 -11 26.5t-37 8.5h-163q-23 0 -36 -10t-13 -28zM362 581h-162v137h162v-137z" />
    <glyph glyph-name="g.1.ord" horiz-adv-x="441" 
d="M82 503q-20 17 -30 40.5t-10 50.5q0 59 44.5 95t118.5 36q36 0 66.5 -9t52.5 -27q16 23 45 33.5t61 5.5v-104q-20 8 -37.5 5t-25.5 -15q1 -4 1 -8v-12q0 -58 -45 -94.5t-118 -36.5q-17 0 -31.5 2t-26.5 5q-7 -2 -11 -6.5t-4 -10.5q0 -8 6.5 -12.5t17.5 -4.5h151
q55 0 85.5 -26t30.5 -73q0 -62 -59 -98t-160 -36q-91 0 -140.5 25.5t-49.5 72.5q0 22 12 39.5t35 29.5q-15 12 -23 27.5t-8 33.5q0 23 14 42t38 30zM206 548q24 0 38.5 12.5t14.5 33.5q0 22 -14.5 34.5t-38.5 12.5t-38 -12.5t-14 -34.5q0 -21 14 -33.5t38 -12.5zM125 316
q0 -18 20.5 -26t65.5 -8q46 0 71.5 9.5t25.5 26.5q0 12 -8 18t-25 6h-115q-17 0 -26 -6.5t-9 -19.5z" />
    <glyph glyph-name="Euro.lt" horiz-adv-x="608" 
d="M88 235h-69v100h57v12v12v16.5t1 10.5h-58v100h70q25 116 94 179.5t169 63.5q92 0 155.5 -52t91.5 -148l-144 -51q-12 60 -37 87t-67 27q-40 0 -68.5 -27t-43.5 -79h171l-20 -100h-165q-1 -5 -1 -10.5v-16.5v-12v-12h155l-19 -100h-122q15 -54 43.5 -81.5t69.5 -27.5
q42 0 67 27t37 87l144 -51q-28 -96 -91.5 -148t-155.5 -52q-101 0 -170 65t-94 181z" />
    <glyph glyph-name="dollar.lt" horiz-adv-x="608" 
d="M2 124l95 112q33 -46 74 -73t89 -36v178q-59 12 -94 24.5t-60 29.5q-35 25 -52.5 60t-17.5 82q0 88 61.5 147.5t162.5 72.5v97h105v-97q73 -8 130 -38t90 -76l-94 -108q-24 34 -56 57t-70 34v-165q59 -11 95 -24t61 -31q35 -25 52 -61t17 -84q0 -90 -61 -151t-164 -77
v-99h-105v97q-84 8 -153 42.5t-105 86.5zM181 517q0 -25 18.5 -42t60.5 -29v148q-38 -7 -58.5 -27t-20.5 -50zM449 210q0 27 -20 44.5t-64 29.5v-157q41 8 62.5 29.5t21.5 53.5z" />
    <glyph glyph-name="cent.lt" horiz-adv-x="608" 
d="M378 -101h-108v95q-101 17 -162 93.5t-61 185.5t61 185t162 93v102h108v-101q68 -11 118.5 -50t78.5 -101l-111 -71q-10 35 -32.5 59t-53.5 34v-302q31 11 53.5 35t32.5 59l111 -71q-27 -63 -78 -101.5t-119 -49.5v-94zM186 273q0 -54 22 -92.5t62 -55.5v294
q-40 -16 -62 -54t-22 -92z" />
    <glyph glyph-name="sterling.lt" horiz-adv-x="608" 
d="M184 281h-118v104h61q-17 30 -24.5 56.5t-7.5 53.5q0 50 18.5 94t53.5 76q33 31 78 47.5t97 16.5q104 0 169.5 -63t65.5 -166q0 -22 -2.5 -40t-8.5 -38h-146q6 15 9 32.5t3 33.5q0 47 -24.5 75t-66.5 28q-43 0 -69 -29.5t-26 -76.5q0 -13 3 -26t9 -26q2 -5 8.5 -17
t17.5 -31h119v-104h-82q1 -10 1.5 -16.5t0.5 -12.5q0 -21 -3.5 -44.5t-10.5 -47.5q23 -15 43 -21.5t40 -6.5q37 0 54 22.5t19 73.5h135q0 -109 -49 -174t-132 -65q-46 0 -86 16t-77 49q-24 -32 -55 -48.5t-66 -16.5q-58 0 -95.5 36t-37.5 93q1 55 39 91t95 36
q16 0 30.5 -2.5t27.5 -8.5q-1 11 -3 22t-7 25zM138 154q-15 0 -24.5 -9t-9.5 -25q0 -13 8.5 -21.5t20.5 -8.5q15 0 27.5 11t19.5 31q-12 11 -22.5 16.5t-19.5 5.5z" />
    <glyph glyph-name="yen.lt" horiz-adv-x="608" 
d="M222 173h-162v104h162v51h-162v104h113l-169 286h178l125 -230l126 230h172l-169 -286h113v-104h-162v-51h162v-104h-162v-173h-165v173z" />
    <glyph glyph-name="florin.lt" horiz-adv-x="608" 
d="M219 321h-89v111h101l10 84q12 103 67.5 158t147.5 55q42 0 78.5 -12.5t63.5 -35.5l-58 -111q-12 13 -28 20.5t-32 7.5q-29 0 -47.5 -22t-23.5 -62l-10 -82h100v-111h-113l-14 -119q-10 -103 -65.5 -158t-148.5 -55q-42 0 -78.5 12.5t-64.5 35.5l59 111q11 -12 28 -20
t32 -8q29 0 47 21.5t24 62.5z" />
    <glyph glyph-name="zero.lt" horiz-adv-x="608" 
d="M304 -11q-128 0 -202 100t-74 270t74 270t202 100t202 -100t74 -270t-74 -270t-202 -100zM304 588q-56 0 -85 -59t-29 -170t29 -170t85 -59t85 59t29 170t-29 170t-85 59z" />
    <glyph glyph-name="one.lt" horiz-adv-x="608" 
d="M286 721h125v-581h152v-140h-492v140h179v335h-172v122l69 5q66 5 97.5 32t41.5 87z" />
    <glyph glyph-name="two.lt" horiz-adv-x="608" 
d="M44 0v122l191 159q43 35 64.5 54t36.5 35q31 32 45 60t14 56q0 45 -26.5 73t-70.5 28t-72 -30.5t-28 -77.5q0 -17 3 -33t8 -32h-157q-7 19 -10 37t-3 39q0 52 20.5 97t59.5 78q36 31 83.5 47.5t100.5 16.5q116 0 186.5 -64t70.5 -168q0 -67 -37.5 -128.5t-127.5 -134.5
l-114 -91h282v-143h-519z" />
    <glyph glyph-name="three.lt" horiz-adv-x="608" 
d="M489 42q-35 -26 -80.5 -39.5t-98.5 -13.5q-117 0 -193 59t-90 164l161 26q7 -51 39 -81t80 -30t77 24.5t29 66.5q0 41 -29.5 62t-86.5 21h-66v131h66q51 0 77 19.5t26 57.5t-24.5 60t-66.5 22q-45 0 -75 -28.5t-38 -77.5l-151 18q6 50 29 93t60 73q36 29 82.5 44.5
t99.5 15.5q51 0 94 -13t75 -38q37 -28 56.5 -68t19.5 -88q0 -51 -28 -93t-71 -59q54 -21 82.5 -63.5t28.5 -102.5q0 -48 -22 -90t-62 -72z" />
    <glyph glyph-name="four.lt" horiz-adv-x="608" 
d="M488 166v-166h-151v166h-319v120l266 432h205v-423h103v-129h-104zM334 574l-167 -279h167v279z" />
    <glyph glyph-name="five.lt" horiz-adv-x="608" 
d="M308 351q-28 0 -51.5 -12t-37.5 -32l-152 18l34 393h425v-143h-299l-12 -132q25 19 55.5 29.5t63.5 10.5q52 0 96.5 -17.5t76.5 -50.5q31 -33 48 -77.5t17 -96.5q0 -54 -20.5 -101t-58.5 -82q-37 -34 -86 -51.5t-104 -17.5q-114 0 -188 58.5t-89 161.5l162 26
q6 -50 37 -79.5t78 -29.5q48 0 79.5 31.5t31.5 79.5q0 50 -29.5 82t-76.5 32z" />
    <glyph glyph-name="six.lt" horiz-adv-x="608" 
d="M340 729q91 0 152.5 -41t90.5 -122l-130 -58q-13 42 -43.5 64.5t-73.5 22.5q-64 0 -105 -53t-41 -133q25 31 66 49t89 18q50 0 93.5 -17t75.5 -49q32 -33 49.5 -76.5t17.5 -92.5q0 -54 -20 -101.5t-57 -81.5q-36 -34 -84 -51.5t-104 -17.5q-69 0 -124 29t-93 85
q-31 47 -47.5 109.5t-16.5 134.5q0 77 18.5 143t53.5 117q42 59 101.5 90.5t131.5 31.5zM316 121q49 0 82 32.5t33 81.5t-33 82t-82 33q-48 0 -81.5 -33.5t-33.5 -81.5q0 -49 33 -81.5t82 -32.5z" />
    <glyph glyph-name="seven.lt" horiz-adv-x="608" 
d="M416 578h-244v-108h-142v248h558v-143q-61 -64 -102 -128.5t-64 -135.5q-21 -63 -31 -137.5t-10 -173.5h-170q0 184 49.5 324t155.5 254z" />
    <glyph glyph-name="eight.lt" horiz-adv-x="608" 
d="M136 678q33 25 76 38t92 13t92 -13t76 -38q36 -28 55.5 -67.5t19.5 -86.5q0 -51 -24 -89.5t-71 -61.5q59 -21 94.5 -67t35.5 -105q0 -95 -78 -153.5t-200 -58.5t-200 58.5t-78 153.5q0 59 35.5 105t94.5 67q-47 23 -71 61.5t-24 89.5q0 47 19.5 86.5t55.5 67.5zM207 521
q0 -37 27 -60.5t70 -23.5t70 23t27 61t-27 61t-70 23t-70 -23.5t-27 -60.5zM420 214q0 42 -32 68.5t-84 26.5t-84 -26.5t-32 -68.5q0 -43 32 -70t84 -27t84 27t32 70z" />
    <glyph glyph-name="nine.lt" horiz-adv-x="608" 
d="M268 -11q-91 0 -152.5 41t-90.5 122l130 58q13 -42 43.5 -64.5t73.5 -22.5q64 0 105 53t41 133q-25 -31 -66 -49t-89 -18q-50 0 -93.5 17t-75.5 49q-32 33 -49.5 76.5t-17.5 92.5q0 54 20 101.5t57 81.5q36 34 84 51.5t104 17.5q69 0 124 -29t93 -85q31 -47 47.5 -109.5
t16.5 -134.5q0 -77 -18.5 -143t-53.5 -117q-42 -59 -101.5 -90.5t-131.5 -31.5zM292 597q-49 0 -82 -32.5t-33 -81.5t33 -82t82 -33q48 0 81.5 33.5t33.5 81.5q0 49 -33 81.5t-82 32.5z" />
    <glyph glyph-name="period.tab" horiz-adv-x="304" 
d="M243 0h-184v179h184v-179z" />
    <glyph glyph-name="comma.tab" horiz-adv-x="304" 
d="M133 0h-74v179h184v-166q0 -77 -49 -120.5t-135 -44.5v82q37 2 55.5 17.5t18.5 46.5v6z" />
    <glyph glyph-name="colon.tab" horiz-adv-x="251" 
d="M243 0h-184v179h184v-179zM243 329h-184v179h184v-179z" />
    <glyph glyph-name="semicolon.tab" horiz-adv-x="251" 
d="M243 329h-184v179h184v-179zM133 0h-74v179h184v-166q0 -77 -49 -120.5t-135 -44.5v82q37 2 55.5 17.5t18.5 46.5v6z" />
    <glyph glyph-name="space.tab" horiz-adv-x="304" 
 />
    <glyph glyph-name="percent.lt" horiz-adv-x="608" 
d="M140 378q-62 0 -97 47t-35 129q0 81 35 128t97 47q61 0 96 -47t35 -128t-35 -128.5t-96 -47.5zM130 0h-119l471 718h119zM140 468q18 0 26.5 20.5t8.5 65.5t-8.5 65.5t-26.5 20.5q-19 0 -28 -21t-9 -65q0 -45 9 -65.5t28 -20.5zM472 340q61 0 96.5 -47.5t35.5 -128.5
t-35.5 -128t-96.5 -47q-62 0 -97 47t-35 128q0 82 35 129t97 47zM472 250q-19 0 -27.5 -20t-8.5 -66q0 -45 8.5 -65.5t27.5 -20.5t27.5 20.5t8.5 65.5q0 46 -8.5 66t-27.5 20z" />
    </font>
</defs>
</svg>
