<?xml version="1.0" standalone="no"?>
<!DOCTYPE svg PUBLIC "-//W3C//DTD SVG 1.1//EN" "http://www.w3.org/Graphics/SVG/1.1/DTD/svg11.dtd" >
<svg xmlns="http://www.w3.org/2000/svg" xmlns:xlink="http://www.w3.org/1999/xlink" version="1.1">
<metadata>
Created by FontForge 20170731 at Wed Oct  9 20:33:10 2019
 By Aleksey,,,
Copyright 2020, Kris Sowersby, Klim Type Foundry.
</metadata>
<defs>
<font id="SohneBreit-Fett" horiz-adv-x="600" >
  <font-face 
    font-family="Copyright Klim Type Foundry"
    font-weight="800"
    font-stretch="expanded"
    units-per-em="1000"
    panose-1="2 11 9 5 3 2 2 6 2 3"
    ascent="780"
    descent="-220"
    x-height="528"
    cap-height="718"
    bbox="-270 -224 1423 1028"
    underline-thickness="134"
    underline-position="-461"
    unicode-range="U+000D-FB04"
  />
<missing-glyph 
d="M0 0v718h600v-718h-600zM132 242l51 -51l117 117l118 -117l50 51l-116 118l116 117l-50 51l-118 -117l-117 117l-51 -51l117 -117z" />
    <glyph glyph-name="ff" unicode="ff" horiz-adv-x="907" 
d="M109 528v7q0 95 67 145t195 50q36 0 70 -5t58 -13l-21 -139q-24 6 -46.5 8.5t-44.5 2.5q-45 0 -67 -13t-22 -39v-4h222v7q0 95 67 145t195 50q39 0 76.5 -6t63.5 -16l-21 -139q-24 7 -50.5 11t-52.5 4q-45 0 -67 -13t-22 -39v-4h185v-154h-185v-374h-189v374h-222v-374
h-189v374h-110v154h110z" />
    <glyph glyph-name="fi" unicode="fi" horiz-adv-x="760" 
d="M109 528v7q0 95 67 145t195 50q29 0 59 -3.5t56 -10.5l-24 -140q-20 4 -38 6t-37 2q-45 0 -67 -13t-22 -39v-4h168v-154h-168v-374h-189v374h-110v154h110zM712 570h-192v148h192v-148zM521 528h190v-528h-190v528z" />
    <glyph glyph-name="fl" unicode="fl" horiz-adv-x="760" 
d="M109 528v7q0 95 67 145t195 50q29 0 59 -3.5t56 -10.5l-24 -140q-20 4 -38 6t-37 2q-45 0 -67 -13t-22 -39v-4h168v-154h-168v-374h-189v374h-110v154h110zM521 718h190v-718h-190v718z" />
    <glyph glyph-name="ffi" unicode="ffi" horiz-adv-x="1164" 
d="M109 528v7q0 95 67 145t195 50q36 0 70 -5t58 -13l-21 -139q-24 6 -46.5 8.5t-44.5 2.5q-45 0 -67 -13t-22 -39v-4h222v7q0 95 67 145t195 50q29 0 59 -3.5t56 -10.5l-24 -140q-20 4 -38 6t-37 2q-45 0 -67 -13t-22 -39v-4h168v-154h-168v-374h-189v374h-222v-374h-189
v374h-110v154h110zM1123 570h-192v148h192v-148zM932 528h190v-528h-190v528z" />
    <glyph glyph-name="ffl" unicode="ffl" horiz-adv-x="1164" 
d="M109 528v7q0 95 67 145t195 50q36 0 70 -5t58 -13l-21 -139q-24 6 -46.5 8.5t-44.5 2.5q-45 0 -67 -13t-22 -39v-4h222v7q0 95 67 145t195 50q29 0 59 -3.5t56 -10.5l-24 -140q-20 4 -38 6t-37 2q-45 0 -67 -13t-22 -39v-4h168v-154h-168v-374h-189v374h-222v-374h-189
v374h-110v154h110zM932 718h190v-718h-190v718z" />
    <glyph glyph-name="f_b" unicode="fb" horiz-adv-x="1191" 
d="M371 730q29 0 59 -3.5t56 -10.5l-24 -140q-20 4 -38 6t-37 2q-45 0 -67 -13t-22 -39v-4h168v-154h-168v-374h-189v374h-110v154h110v7q0 95 67 145t195 50zM892 -12q-57 0 -105.5 18t-75.5 49v-55h-190v718h190v-245q27 31 75.5 49t105.5 18q127 0 204.5 -77t77.5 -199
t-77.5 -199t-204.5 -77zM846 389q-60 0 -100 -34.5t-40 -87.5v-6q0 -53 40 -87.5t100 -34.5q62 0 101.5 34t39.5 91t-39.5 91t-101.5 34z" />
    <glyph glyph-name="f_h" unicode="fh" horiz-adv-x="1171" 
d="M371 730q29 0 59 -3.5t56 -10.5l-24 -140q-20 4 -38 6t-37 2q-45 0 -67 -13t-22 -39v-4h168v-154h-168v-374h-189v374h-110v154h110v7q0 95 67 145t195 50zM711 0h-190v718h190v-250q33 35 82 53.5t107 18.5q103 0 167.5 -63t64.5 -167v-310h-190v244q0 64 -28 97t-82 33
q-58 0 -89.5 -34t-31.5 -97v-243z" />
    <glyph glyph-name="f_idieresis" unicode="f&#xef;" horiz-adv-x="765" 
d="M371 730q39 0 76.5 -6t63.5 -16l-21 -139q-24 7 -50.5 11t-52.5 4q-45 0 -67 -13t-22 -39v-4h185v-154h-185v-374h-189v374h-110v154h110v7q0 95 67 145t195 50zM841 570h-184v148h184v-148zM532 528h190v-528h-190v528z" />
    <glyph glyph-name="f_j" unicode="fj" horiz-adv-x="753" 
d="M371 730q29 0 59 -3.5t56 -10.5l-24 -140q-20 4 -38 6t-37 2q-45 0 -67 -13t-22 -39v-4h168v-154h-168v-374h-189v374h-110v154h110v7q0 95 67 145t195 50zM712 570h-192v148h192v-148zM711 528v-504q0 -104 -62 -156t-186 -52q-33 0 -69 5.5t-57 13.5l27 133
q22 -6 40.5 -9t37.5 -3q43 0 61 17t18 56v499h190z" />
    <glyph glyph-name="f_k" unicode="fk" horiz-adv-x="1173" 
d="M371 730q29 0 59 -3.5t56 -10.5l-24 -140q-20 4 -38 6t-37 2q-45 0 -67 -13t-22 -39v-4h168v-154h-168v-374h-189v374h-110v154h110v7q0 95 67 145t195 50zM521 718h190v-385l219 195h252l-250 -214l254 -314h-231l-160 197l-84 -72v-125h-190v718z" />
    <glyph glyph-name=".notdef" 
d="M0 0v718h600v-718h-600zM132 242l51 -51l117 117l118 -117l50 51l-116 118l116 117l-50 51l-118 -117l-117 117l-51 -51l117 -117z" />
    <glyph glyph-name=".null" horiz-adv-x="0" 
 />
    <glyph glyph-name="uni000D" unicode="&#xd;" horiz-adv-x="287" 
 />
    <glyph glyph-name="space" unicode=" " horiz-adv-x="287" 
 />
    <glyph glyph-name="exclam" unicode="!" horiz-adv-x="309" 
d="M229 240h-149l-49 478h247zM263 0h-218v194h218v-194z" />
    <glyph glyph-name="quotedbl" unicode="&#x22;" horiz-adv-x="490" 
d="M191 389h-134l-41 329h216zM433 389h-134l-41 329h216z" />
    <glyph glyph-name="numbersign" unicode="#" horiz-adv-x="806" 
d="M228 0h-156l46 168h-98v133h134l32 116h-138v133h174l46 168h157l-46 -168h159l46 168h157l-46 -168h92v-133h-128l-32 -116h132v-133h-168l-46 -168h-158l46 168h-159zM342 417l-31 -116h159l31 116h-159z" />
    <glyph glyph-name="dollar" unicode="$" horiz-adv-x="828" 
d="M-13 131l114 135q44 -41 106 -68.5t135 -38.5v131q-168 17 -238.5 64.5t-70.5 134.5q0 98 81 157.5t228 70.5v98h159v-102q92 -11 170 -41t126 -72l-114 -127q-31 29 -78 50.5t-104 32.5v-119q168 -17 240.5 -66t72.5 -137q0 -101 -80 -159.5t-233 -71.5v-102h-159v101
q-112 10 -209.5 45.5t-145.5 83.5zM219 508q0 -25 26 -36t97 -19v115q-62 -3 -92.5 -18t-30.5 -42zM622 215q0 27 -24.5 38.5t-96.5 20.5v-121q61 5 91 20.5t30 41.5z" />
    <glyph glyph-name="percent" unicode="%" horiz-adv-x="986" 
d="M234 343q-91 0 -151.5 55.5t-60.5 137.5q0 83 60.5 138t151.5 55t152 -55t61 -138q0 -82 -61 -137.5t-152 -55.5zM699 718h155l-567 -718h-155zM234 613q-34 0 -54 -20.5t-20 -56.5t20 -56.5t54 -20.5t54 20.5t20 56.5t-20 56.5t-54 20.5zM751 375q91 0 152 -55.5
t61 -137.5q0 -83 -61 -138t-152 -55t-151.5 55t-60.5 138q0 82 61 137.5t151 55.5zM751 259q-34 0 -54 -21t-20 -56q0 -36 20 -56.5t54 -20.5q35 0 55 20.5t20 56.5t-20.5 56.5t-54.5 20.5z" />
    <glyph glyph-name="ampersand" unicode="&#x26;" horiz-adv-x="920" 
d="M712 421l173 -39q-17 -61 -47.5 -115t-71.5 -99q28 -11 59 -13.5t86 3.5v-151q-85 -14 -153.5 -2.5t-132.5 52.5q-64 -34 -136.5 -51.5t-152.5 -17.5q-147 0 -235 60t-88 160q0 77 49.5 132t135.5 77q-18 27 -27 54t-9 56q0 89 72.5 146t188.5 57q120 0 189.5 -52
t69.5 -139q0 -63 -42.5 -111.5t-124.5 -78.5l113 -88q30 34 51 74t33 86zM425 599q-39 0 -62.5 -19t-23.5 -49q0 -23 12 -42.5t43 -44.5q59 10 88.5 32t29.5 55q0 31 -23 49.5t-64 18.5zM199 229q0 -41 42 -65.5t114 -24.5q33 0 65.5 6t65.5 18l-185 151q-48 -5 -75 -27.5
t-27 -57.5z" />
    <glyph glyph-name="quotesingle" unicode="'" horiz-adv-x="248" 
d="M191 389h-134l-41 329h216z" />
    <glyph glyph-name="parenleft" unicode="(" horiz-adv-x="426" 
d="M214 320q0 -122 52.5 -225.5t159.5 -192.5h-190q-104 68 -162 177.5t-58 240.5t58 240.5t162 177.5h190q-108 -90 -160 -193.5t-52 -224.5z" />
    <glyph glyph-name="parenright" unicode=")" horiz-adv-x="426" 
d="M212 320q0 121 -52 224.5t-160 193.5h190q104 -68 162 -177.5t58 -240.5t-58 -240.5t-162 -177.5h-190q107 89 159.5 192.5t52.5 225.5z" />
    <glyph glyph-name="asterisk" unicode="*" horiz-adv-x="476" 
d="M414 372l-93 -67l-83 114l-83 -114l-93 67l83 115l-135 43l36 109l134 -42v141h116v-141l134 42l36 -109l-136 -43z" />
    <glyph glyph-name="plus" unicode="+" horiz-adv-x="800" 
d="M744 437v-158h-266v-266h-157v266h-266v158h266v266h157v-266h266z" />
    <glyph glyph-name="comma" unicode="," horiz-adv-x="276" 
d="M111 0h-79v204h213v-177q0 -87 -56.5 -136t-156.5 -49v93q40 1 59.5 16t19.5 45v4z" />
    <glyph glyph-name="hyphen" unicode="-" horiz-adv-x="389" 
d="M349 208h-309v173h309v-173z" />
    <glyph glyph-name="period" unicode="." horiz-adv-x="276" 
d="M245 0h-213v204h213v-204z" />
    <glyph glyph-name="slash" unicode="/" horiz-adv-x="629" 
d="M225 -98h-208l387 836h208z" />
    <glyph glyph-name="zero" unicode="0" horiz-adv-x="867" 
d="M433 -12q-180 0 -298 105t-118 266t118 266t298 105q181 0 298.5 -105t117.5 -266t-117.5 -266t-298.5 -105zM433 560q-97 0 -157.5 -55.5t-60.5 -145.5t60.5 -145.5t157.5 -55.5t157 55.5t60 145.5t-60 145.5t-157 55.5z" />
    <glyph glyph-name="one" unicode="1" horiz-adv-x="489" 
d="M290 720h150v-720h-196v448h-233v148l112 4q80 3 118.5 30t48.5 90z" />
    <glyph glyph-name="two" unicode="2" horiz-adv-x="770" 
d="M30 0v148l337 174q52 27 70.5 37t31.5 19q34 21 49 42.5t15 46.5q0 44 -37 69.5t-103 25.5q-76 0 -131 -42.5t-70 -114.5l-179 39q18 125 125 205t265 80q144 0 236 -67.5t92 -175.5q0 -78 -53.5 -139t-174.5 -117l-132 -64h377v-166h-718z" />
    <glyph glyph-name="three" unicode="3" horiz-adv-x="809" 
d="M797 206q0 -95 -107 -156.5t-278 -61.5q-152 0 -259 52t-151 146l177 81q23 -52 87.5 -84t147.5 -32q76 0 123.5 19.5t47.5 53.5q0 32 -42.5 48.5t-125.5 16.5h-135v150h129q78 0 117 15.5t39 46.5q0 30 -41.5 47t-112.5 17q-76 0 -135 -28.5t-81 -74.5l-168 77
q40 85 148.5 138t247.5 53q160 0 257.5 -58.5t97.5 -153.5q0 -52 -32.5 -92.5t-88.5 -57.5q70 -23 104 -63t34 -99z" />
    <glyph glyph-name="four" unicode="4" horiz-adv-x="830" 
d="M653 163v-163h-186v163h-457v151l393 404h250v-400h167v-155h-167zM467 557l-235 -239h235v239z" />
    <glyph glyph-name="five" unicode="5" horiz-adv-x="774" 
d="M389 338q-51 0 -98 -13t-83 -36l-166 26l51 403h621v-166h-472l-15 -106q38 21 89 32.5t106 11.5q156 0 249.5 -66.5t93.5 -178.5q0 -113 -105.5 -185t-267.5 -72q-147 0 -253.5 53.5t-142.5 147.5l178 74q27 -55 83 -84t137 -29q80 0 128.5 24.5t48.5 67.5
q0 45 -48.5 70.5t-133.5 25.5z" />
    <glyph glyph-name="six" unicode="6" horiz-adv-x="828" 
d="M452 730q119 0 211.5 -36t143.5 -102l-126 -115q-39 46 -98 70t-134 24q-103 0 -170.5 -44.5t-72.5 -111.5q44 34 109.5 53t142.5 19q156 0 256 -68t100 -174q0 -115 -107.5 -186t-282.5 -71q-188 0 -297.5 96.5t-109.5 258.5q0 175 118.5 281t316.5 106zM421 144
q90 0 144 26t54 70t-54.5 70.5t-142.5 26.5t-142 -26.5t-54 -70.5t53.5 -70t141.5 -26z" />
    <glyph glyph-name="seven" unicode="7" horiz-adv-x="775" 
d="M551 555h-376v-134h-165v297h755v-174q-140 -114 -206 -246.5t-66 -297.5h-200q0 164 64.5 303t193.5 252z" />
    <glyph glyph-name="eight" unicode="8" horiz-adv-x="819" 
d="M53 517q0 97 99.5 155t256.5 58q158 0 257.5 -58t99.5 -155q0 -46 -27.5 -83t-83.5 -64q73 -23 112.5 -66t39.5 -100q0 -101 -108 -158.5t-290 -57.5q-181 0 -289 57.5t-108 158.5q0 57 39.5 100t112.5 66q-56 27 -83.5 64t-27.5 83zM246 514q0 -34 43 -52t120 -18
t120.5 18.5t43.5 51.5t-43.5 51.5t-120.5 18.5t-120 -18t-43 -52zM611 219q0 37 -53 57.5t-149 20.5t-148.5 -20.5t-52.5 -57.5q0 -39 52.5 -59.5t148.5 -20.5q97 0 149.5 20.5t52.5 59.5z" />
    <glyph glyph-name="nine" unicode="9" horiz-adv-x="828" 
d="M376 -12q-119 0 -211.5 36t-143.5 102l126 115q39 -46 98 -70t134 -24q103 0 170.5 44.5t72.5 111.5q-44 -34 -109.5 -53t-142.5 -19q-156 0 -256 68t-100 174q0 115 107.5 186t282.5 71q188 0 297.5 -96.5t109.5 -258.5q0 -175 -118.5 -281t-316.5 -106zM407 574
q-90 0 -144 -26t-54 -70t54.5 -70.5t142.5 -26.5t142 26.5t54 70.5t-53.5 70t-141.5 26z" />
    <glyph glyph-name="colon" unicode=":" horiz-adv-x="276" 
d="M245 0h-213v204h213v-204zM245 315h-213v204h213v-204z" />
    <glyph glyph-name="semicolon" unicode=";" horiz-adv-x="276" 
d="M111 0h-79v204h213v-177q0 -87 -56.5 -136t-156.5 -49v93q40 1 59.5 16t19.5 45v4zM245 315h-213v204h213v-204z" />
    <glyph glyph-name="less" unicode="&#x3c;" horiz-adv-x="800" 
d="M749 8l-698 223v252l698 222v-190l-541 -159l541 -158v-190z" />
    <glyph glyph-name="equal" unicode="=" horiz-adv-x="800" 
d="M745 410h-690v157h690v-157zM745 137h-690v157h690v-157z" />
    <glyph glyph-name="greater" unicode="&#x3e;" horiz-adv-x="800" 
d="M749 483v-252l-698 -223v190l541 158l-541 159v190z" />
    <glyph glyph-name="question" unicode="?" horiz-adv-x="761" 
d="M537 490q0 35 -37.5 54t-108.5 19q-73 0 -121 -27t-54 -71l-209 31q16 106 122 170t274 64q159 0 253.5 -62t94.5 -166q0 -83 -66.5 -139t-182.5 -72v-51h-203v174q128 0 183 18t55 58zM513 0h-219v194h219v-194z" />
    <glyph glyph-name="at" unicode="@" horiz-adv-x="1101" 
d="M834 462l-46 -238q-6 -31 2.5 -45.5t34.5 -14.5q49 0 81.5 43.5t32.5 111.5q0 110 -92.5 171t-258.5 61q-194 0 -306 -87t-112 -233q0 -131 102 -202.5t287 -71.5q95 0 186.5 19t159.5 52l67 -112q-73 -42 -186 -66.5t-235 -24.5q-247 0 -390 108.5t-143 297.5
q0 105 48 194t137 151q76 52 175 79t214 27q226 0 358.5 -95t132.5 -260q0 -129 -84 -208.5t-212 -78.5q-52 1 -92.5 16.5t-63.5 43.5q-26 -28 -68 -42.5t-94 -14.5q-95 0 -151 52t-56 138q0 101 72.5 170t182.5 69q48 0 84.5 -14t59.5 -41l9 45h164zM445 245
q0 -33 23.5 -53t63.5 -20q46 0 76 29t30 70q0 34 -23.5 53.5t-63.5 19.5q-45 0 -75.5 -29t-30.5 -70z" />
    <glyph glyph-name="A" unicode="A" horiz-adv-x="912" 
d="M-9 0l353 718h225l352 -718h-215l-65 135h-377l-65 -135h-208zM566 292l-112 234l-113 -234h225z" />
    <glyph glyph-name="B" unicode="B" horiz-adv-x="821" 
d="M562 0h-513v718h496q120 0 184.5 -50.5t64.5 -145.5q0 -49 -27 -89t-71 -61q55 -22 86.5 -67t31.5 -102q0 -96 -66.5 -149.5t-185.5 -53.5zM237 559v-122h288q41 0 62.5 15.5t21.5 45.5t-21.5 45.5t-62.5 15.5h-288zM543 290h-306v-130h306q38 0 60 17.5t22 47.5
t-22 47.5t-60 17.5z" />
    <glyph glyph-name="C" unicode="C" horiz-adv-x="842" 
d="M446 560q-100 0 -164.5 -56t-64.5 -145t64.5 -145t164.5 -56q80 0 136 38.5t79 106.5l179 -80q-42 -112 -145 -173.5t-249 -61.5q-187 0 -308 105t-121 266t121 266t308 105q146 0 249 -61.5t145 -173.5l-179 -80q-23 68 -79 106.5t-136 38.5z" />
    <glyph glyph-name="D" unicode="D" horiz-adv-x="867" 
d="M427 0h-378v718h378q195 0 308.5 -96.5t113.5 -262.5t-113.5 -262.5t-308.5 -96.5zM241 553v-388h186q106 0 166.5 52t60.5 142q0 91 -60.5 142.5t-167.5 51.5h-185z" />
    <glyph glyph-name="E" unicode="E" horiz-adv-x="772" 
d="M49 0v718h698v-166h-506v-107h449v-162h-449v-117h506v-166h-698z" />
    <glyph glyph-name="F" unicode="F" horiz-adv-x="762" 
d="M241 251v-251h-192v718h694v-166h-502v-139h445v-162h-445z" />
    <glyph glyph-name="G" unicode="G" horiz-adv-x="902" 
d="M866 0h-182v62q-30 -32 -94.5 -53t-138.5 -21q-190 0 -312 105t-122 267t124 266t319 104q143 0 247.5 -60t146.5 -167l-189 -69q-23 61 -77.5 94t-134.5 33q-102 0 -168.5 -57t-66.5 -148q0 -89 65.5 -145t168.5 -56q80 0 140.5 27.5t76.5 71.5h-274v153h471v-407z" />
    <glyph glyph-name="H" unicode="H" horiz-adv-x="884" 
d="M639 447v271h196v-718h-196v282h-394v-282h-196v718h196v-271h394z" />
    <glyph glyph-name="I" unicode="I" horiz-adv-x="294" 
d="M49 718h196v-718h-196v718z" />
    <glyph glyph-name="J" unicode="J" horiz-adv-x="747" 
d="M353 -11q-124 0 -219.5 54t-133.5 145l174 109q19 -63 67 -99t114 -36q77 0 119 37.5t42 107.5v411h196v-429q0 -137 -97.5 -218.5t-261.5 -81.5z" />
    <glyph glyph-name="K" unicode="K" horiz-adv-x="856" 
d="M49 718h196v-303l334 303h267l-332 -298l357 -420h-249l-249 294l-128 -115v-179h-196v718z" />
    <glyph glyph-name="L" unicode="L" horiz-adv-x="720" 
d="M701 0h-652v718h196v-552h456v-166z" />
    <glyph glyph-name="M" unicode="M" horiz-adv-x="1074" 
d="M835 516l-219 -516h-158l-218 516v-516h-191v718h292l198 -478l198 478h288v-718h-190v516z" />
    <glyph glyph-name="N" unicode="N" horiz-adv-x="879" 
d="M639 718h191v-718h-173l-417 466v-466h-191v718h196l394 -442v442z" />
    <glyph glyph-name="O" unicode="O" horiz-adv-x="897" 
d="M17 359q0 161 122 266t310 105q187 0 309 -105t122 -266t-122 -266t-309 -105q-188 0 -310 105t-122 266zM680 359q0 90 -64.5 145.5t-166.5 55.5t-166.5 -55.5t-64.5 -145.5t64.5 -145.5t166.5 -55.5t166.5 55.5t64.5 145.5z" />
    <glyph glyph-name="P" unicode="P" horiz-adv-x="809" 
d="M506 229h-261v-229h-196v718h457q137 0 213.5 -64.5t76.5 -180.5t-76.5 -180t-213.5 -64zM245 554v-162h250q51 0 79.5 21.5t28.5 59.5q0 39 -28 60t-80 21h-250z" />
    <glyph glyph-name="Q" unicode="Q" horiz-adv-x="897" 
d="M449 -12q-188 0 -310 105t-122 266t122 266t310 105q187 0 309 -105t122 -266q0 -85 -36 -157t-104 -124q22 -22 54 -35.5t82 -22.5l-101 -139q-67 14 -127.5 46t-91.5 71q-24 -5 -51 -7.5t-56 -2.5zM449 158q102 0 166.5 55.5t64.5 145.5t-64.5 145.5t-166.5 55.5
t-166.5 -55.5t-64.5 -145.5t64.5 -145.5t166.5 -55.5z" />
    <glyph glyph-name="R" unicode="R" horiz-adv-x="825" 
d="M440 238h-195v-238h-196v718h464q135 0 212.5 -64t77.5 -176q0 -78 -41.5 -135t-116.5 -84l174 -259h-225zM245 554v-161h258q50 0 78.5 21.5t28.5 58.5q0 39 -28 60t-79 21h-258z" />
    <glyph glyph-name="S" unicode="S" horiz-adv-x="795" 
d="M400 -12q-124 0 -243.5 36.5t-174.5 92.5l115 148q56 -55 139 -84.5t176 -29.5q76 0 119.5 16.5t43.5 45.5q0 24 -22 36.5t-83 20.5l-31.5 4.5t-100.5 11.5q-167 17 -237 66t-70 137q0 111 97 176t262 65q117 0 220.5 -32t161.5 -86l-115 -137q-46 43 -121.5 68.5
t-160.5 25.5q-70 0 -108 -15.5t-38 -44.5q0 -24 36 -36t185 -28q190 -22 262 -71.5t72 -139.5q0 -117 -101.5 -181.5t-282.5 -64.5z" />
    <glyph glyph-name="T" unicode="T" horiz-adv-x="833" 
d="M817 718v-166h-302v-552h-196v552h-302v166h800z" />
    <glyph glyph-name="U" unicode="U" horiz-adv-x="832" 
d="M416 -11q-181 0 -281 87t-100 244v398h196v-379q0 -89 47 -134.5t138 -45.5t138 45.5t47 134.5v379h196v-398q0 -157 -100 -244t-281 -87z" />
    <glyph glyph-name="V" unicode="V" horiz-adv-x="900" 
d="M909 718l-350 -718h-219l-349 718h218l244 -509l245 509h211z" />
    <glyph glyph-name="W" unicode="W" horiz-adv-x="1178" 
d="M352 245l146 473h188l145 -473l158 473h198l-242 -718h-211l-145 470l-146 -470h-210l-242 718h204z" />
    <glyph glyph-name="X" unicode="X" horiz-adv-x="889" 
d="M626 718h243l-302 -343l332 -375h-247l-209 244l-209 -244h-244l331 375l-303 343h246l181 -212z" />
    <glyph glyph-name="Y" unicode="Y" horiz-adv-x="882" 
d="M223 718l222 -268l221 268h226l-353 -431v-287h-196v287l-353 431h233z" />
    <glyph glyph-name="Z" unicode="Z" horiz-adv-x="814" 
d="M318 166h463v-166h-749v146l459 406h-455v166h740v-145z" />
    <glyph glyph-name="bracketleft" unicode="[" horiz-adv-x="396" 
d="M386 597h-167v-555h167v-140h-346v836h346v-141z" />
    <glyph glyph-name="backslash" unicode="\" horiz-adv-x="629" 
d="M17 738h208l387 -836h-208z" />
    <glyph glyph-name="bracketright" unicode="]" horiz-adv-x="396" 
d="M177 42v555h-167v141h346v-836h-346v140h167z" />
    <glyph glyph-name="asciicircum" unicode="^" horiz-adv-x="618" 
d="M12 402l209 316h176l209 -316h-184l-113 172l-113 -172h-184z" />
    <glyph glyph-name="underscore" unicode="_" horiz-adv-x="512" 
d="M465 -192h-418v148h418v-148z" />
    <glyph glyph-name="grave" unicode="`" 
d="M368 718l92 -153h-156l-168 153h232z" />
    <glyph glyph-name="a" unicode="a" horiz-adv-x="687" 
d="M453 49q-36 -29 -91 -44.5t-120 -15.5q-105 0 -166.5 43.5t-61.5 118.5t59 118.5t166 50.5l197 14v3q0 28 -26.5 44t-75.5 16q-46 0 -78.5 -15.5t-43.5 -42.5l-177 34q26 77 108.5 122t198.5 45q135 0 206.5 -52.5t71.5 -151.5v-171q0 -23 14 -29q7 -3 18 -3t28 3v-136
q-45 -8 -83 -8q-32 0 -58 6q-58 13 -86 51zM285 120q63 0 107 23.5t44 58.5v15l-172 -14q-35 -2 -50.5 -11.5t-15.5 -28.5q0 -21 22 -32t65 -11z" />
    <glyph glyph-name="b" unicode="b" horiz-adv-x="713" 
d="M696 264q0 -122 -77.5 -199t-204.5 -77q-57 0 -105.5 18t-75.5 49v-55h-190v718h190v-245q27 31 75.5 49t105.5 18q127 0 204.5 -77t77.5 -199zM368 389q-60 0 -100 -34.5t-40 -87.5v-6q0 -53 40 -87.5t100 -34.5q62 0 101.5 34t39.5 91t-39.5 91t-101.5 34z" />
    <glyph glyph-name="c" unicode="c" horiz-adv-x="647" 
d="M343 388q-63 0 -101 -34t-38 -90t38 -90t101 -34q48 0 83 25t49 67l170 -63q-22 -78 -105 -129.5t-196 -51.5q-145 0 -236 76.5t-91 199.5t91 199.5t236 76.5q114 0 196.5 -51.5t104.5 -130.5l-170 -62q-14 42 -49 67t-83 25z" />
    <glyph glyph-name="d" unicode="d" horiz-adv-x="713" 
d="M299 -12q-127 0 -204.5 77t-77.5 199t77.5 199t204.5 77q57 0 105.5 -18t75.5 -49v245h190v-718h-190v55q-27 -31 -75.5 -49t-105.5 -18zM485 261v6q0 53 -40 87.5t-100 34.5q-62 0 -101.5 -34t-39.5 -91t39.5 -91t101.5 -34q60 0 100 34.5t40 87.5z" />
    <glyph glyph-name="e" unicode="e" horiz-adv-x="674" 
d="M346 -12q-146 0 -237.5 77t-91.5 200q0 119 92.5 197t234.5 78q141 0 226.5 -77.5t85.5 -198.5v-46h-451q13 -40 49.5 -62t90.5 -22q45 0 79 17.5t49 48.5l175 -51q-30 -74 -113 -117.5t-189 -43.5zM340 398q-47 0 -81.5 -20t-50.5 -56h254q-5 32 -39 54t-83 22z" />
    <glyph glyph-name="f" unicode="f" horiz-adv-x="496" 
d="M371 730q39 0 76.5 -6t63.5 -16l-21 -139q-24 7 -50.5 11t-52.5 4q-45 0 -67 -13t-22 -39v-4h185v-154h-185v-374h-189v374h-110v154h110v7q0 95 67 145t195 50z" />
    <glyph glyph-name="g" unicode="g" horiz-adv-x="711" 
d="M668 528v-442q0 -126 -94.5 -198.5t-255.5 -72.5q-107 0 -187 33.5t-114 93.5l151 81q22 -32 60.5 -48.5t91.5 -16.5q69 0 113.5 29.5t44.5 79.5v13q-28 -30 -75.5 -47t-104.5 -17q-127 0 -204.5 72.5t-77.5 187.5q0 116 77.5 190t204.5 74q56 0 103.5 -17t76.5 -47v52
h190zM484 275v3q0 52 -40 84.5t-101 32.5q-62 0 -101 -32.5t-39 -86.5q0 -53 39.5 -86t100.5 -33t101 33t40 85z" />
    <glyph glyph-name="h" unicode="h" horiz-adv-x="694" 
d="M233 0h-190v718h190v-250q33 35 82 53.5t107 18.5q103 0 167.5 -63t64.5 -167v-310h-190v244q0 64 -28 97t-82 33q-58 0 -89.5 -34t-31.5 -97v-243z" />
    <glyph glyph-name="i" unicode="i" horiz-adv-x="276" 
d="M234 570h-192v148h192v-148zM43 528h190v-528h-190v528z" />
    <glyph glyph-name="j" unicode="j" horiz-adv-x="276" 
d="M234 570h-192v148h192v-148zM-36 -44q43 0 61 17t18 56v499h190v-504q0 -104 -62 -156t-186 -52q-33 0 -69 5.5t-57 13.5l27 133q22 -6 40.5 -9t37.5 -3z" />
    <glyph glyph-name="k" unicode="k" horiz-adv-x="696" 
d="M43 718h190v-385l219 195h252l-250 -214l254 -314h-231l-160 197l-84 -72v-125h-190v718z" />
    <glyph glyph-name="l" unicode="l" horiz-adv-x="276" 
d="M43 718h190v-718h-190v718z" />
    <glyph glyph-name="m" unicode="m" horiz-adv-x="1073" 
d="M342 375q-53 0 -81 -31.5t-28 -91.5v-252h-190v528h190v-59q31 34 76.5 52.5t99.5 18.5q57 0 107 -23t77 -63q41 44 92.5 65t115.5 21q106 0 169 -62.5t63 -169.5v-308h-190v252q0 61 -25.5 92t-75.5 31q-52 0 -80.5 -32t-28.5 -91v-252h-190v252q0 61 -25.5 92t-75.5 31
z" />
    <glyph glyph-name="n" unicode="n" horiz-adv-x="694" 
d="M233 0h-190v528h190v-60q33 35 82 53.5t107 18.5q103 0 167.5 -63t64.5 -167v-310h-190v244q0 64 -28 97t-82 33q-58 0 -89.5 -34t-31.5 -97v-243z" />
    <glyph glyph-name="o" unicode="o" horiz-adv-x="685" 
d="M342 540q144 0 235 -76.5t91 -199.5t-91 -199.5t-235 -76.5q-142 0 -233.5 77t-91.5 199q0 123 91 199.5t234 76.5zM342 388q-61 0 -99.5 -34t-38.5 -90t38.5 -90t99.5 -34q62 0 100.5 34t38.5 90t-38.5 90t-100.5 34z" />
    <glyph glyph-name="p" unicode="p" horiz-adv-x="713" 
d="M696 264q0 -122 -77.5 -199t-204.5 -77q-57 0 -105.5 18t-75.5 49v-228h-190v701h190v-55q27 31 75.5 49t105.5 18q127 0 204.5 -77t77.5 -199zM368 389q-60 0 -100 -34.5t-40 -87.5v-6q0 -53 40 -87.5t100 -34.5q62 0 101.5 34t39.5 91t-39.5 91t-101.5 34z" />
    <glyph glyph-name="q" unicode="q" horiz-adv-x="713" 
d="M299 -12q-127 0 -204.5 77t-77.5 199t77.5 199t204.5 77q57 0 105.5 -18t75.5 -49v55h190v-701h-190v228q-27 -31 -75.5 -49t-105.5 -18zM485 261v6q0 53 -40 87.5t-100 34.5q-62 0 -101.5 -34t-39.5 -91t39.5 -91t101.5 -34q60 0 100 34.5t40 87.5z" />
    <glyph glyph-name="r" unicode="r" horiz-adv-x="492" 
d="M423 531q13 0 25 -1t33 -3v-182q-24 4 -36.5 5t-29.5 1q-90 0 -136 -38t-46 -113v-200h-190v528h190v-88q34 48 79.5 69.5t110.5 21.5z" />
    <glyph glyph-name="s" unicode="s" horiz-adv-x="611" 
d="M291 -12q-87 0 -168 22.5t-127 59.5l69 128q52 -36 116 -55t131 -19q50 0 74.5 8t24.5 25q0 12 -15 18t-62 12q-6 1 -36.5 4t-51.5 6q-127 16 -176 52.5t-49 103.5q0 87 77 137t210 50q84 0 157.5 -20t124.5 -57l-88 -113q-41 28 -93 42.5t-111 14.5q-41 0 -63.5 -8.5
t-22.5 -23.5q0 -12 17.5 -18t126.5 -18q139 -16 193.5 -54t54.5 -107q0 -91 -82 -140.5t-231 -49.5z" />
    <glyph glyph-name="t" unicode="t" horiz-adv-x="534" 
d="M325 -10q-102 0 -158.5 45.5t-56.5 129.5v209h-110v154h110v140h187v-140h208v-154h-208v-156q0 -35 20.5 -51.5t64.5 -16.5q28 0 57.5 5.5t56.5 15.5l35 -146q-45 -17 -96.5 -26t-109.5 -9z" />
    <glyph glyph-name="u" unicode="u" horiz-adv-x="689" 
d="M456 528h190v-528h-190v60q-34 -35 -82 -53.5t-106 -18.5q-102 0 -165 62.5t-63 166.5v311h190v-262q0 -59 26.5 -88t80.5 -29q57 0 88 31t31 89v259z" />
    <glyph glyph-name="v" unicode="v" horiz-adv-x="698" 
d="M704 528l-255 -528h-200l-256 528h212l150 -329l149 329h200z" />
    <glyph glyph-name="w" unicode="w" horiz-adv-x="983" 
d="M307 224l103 304h173l102 -304l109 304h196l-210 -528h-180l-108 309l-109 -309h-179l-211 528h205z" />
    <glyph glyph-name="x" unicode="x" horiz-adv-x="716" 
d="M719 0h-234l-127 145l-130 -145h-231l245 269l-234 259h234l116 -132l118 132h231l-232 -256z" />
    <glyph glyph-name="y" unicode="y" horiz-adv-x="697" 
d="M704 528l-257 -535q-47 -100 -106 -138.5t-159 -38.5q-32 0 -68 6.5t-59 15.5l29 144q20 -9 38.5 -14t36.5 -5q32 0 51 10t28 32l4 12l-249 511h213l149 -331l149 331h200z" />
    <glyph glyph-name="z" unicode="z" horiz-adv-x="646" 
d="M313 154h303v-154h-586v139l313 235h-309v154h580v-139z" />
    <glyph glyph-name="braceleft" unicode="{" horiz-adv-x="449" 
d="M74 246h-54v148h54q21 0 31.5 12.5t10.5 37.5v117q0 83 54 130t152 47h117v-141h-79q-37 0 -55.5 -18t-18.5 -55v-97q0 -38 -15 -64.5t-47 -42.5q32 -16 47 -42.5t15 -64.5v-97q0 -37 18.5 -55t55.5 -18h79v-141h-117q-98 0 -152 47t-54 130v117q0 25 -10.5 37.5
t-31.5 12.5z" />
    <glyph glyph-name="bar" unicode="|" horiz-adv-x="301" 
d="M244 -98h-188v836h188v-836z" />
    <glyph glyph-name="braceright" unicode="}" horiz-adv-x="449" 
d="M429 394v-148h-54q-21 0 -31.5 -12.5t-10.5 -37.5v-117q0 -83 -54 -130t-152 -47h-117v141h79q37 0 55.5 18t18.5 55v97q0 38 15 64.5t47 42.5q-32 16 -47 42.5t-15 64.5v97q0 37 -18.5 55t-55.5 18h-79v141h117q98 0 152 -47t54 -130v-117q0 -25 10.5 -37.5t31.5 -12.5
h54z" />
    <glyph glyph-name="asciitilde" unicode="~" horiz-adv-x="539" 
d="M186 420q17 0 34 -5.5t48 -23.5q22 -12 32.5 -16t18.5 -4q19 0 29 11.5t14 37.5h137q-2 -96 -41 -154t-105 -58q-17 0 -34 5.5t-48 23.5q-22 12 -32.5 16t-18.5 4q-19 0 -29 -11.5t-14 -37.5h-137q2 95 41.5 153.5t104.5 58.5z" />
    <glyph glyph-name="uni00A0" unicode="&#xa0;" horiz-adv-x="287" 
 />
    <glyph glyph-name="exclamdown" unicode="&#xa1;" horiz-adv-x="309" 
d="M45 524v194h218v-194h-218zM31 0l49 478h149l49 -478h-247z" />
    <glyph glyph-name="cent" unicode="&#xa2;" horiz-adv-x="722" 
d="M467 -96h-151v88q-131 17 -209.5 93.5t-78.5 187.5q0 112 78 188.5t210 93.5v94h151v-95q89 -13 153.5 -54t92.5 -104l-131 -77q-18 32 -47 53.5t-68 32.5v-263q40 11 68.5 32.5t46.5 54.5l131 -78q-28 -63 -92.5 -104.5t-153.5 -53.5v-89zM197 273q0 -48 31.5 -82.5
t87.5 -49.5v265q-56 -15 -87.5 -50t-31.5 -83z" />
    <glyph glyph-name="sterling" unicode="&#xa3;" horiz-adv-x="902" 
d="M263 279h-171v111h81q-17 24 -25.5 48.5t-8.5 51.5q0 104 98.5 172t258.5 68q164 0 260 -70.5t96 -191.5q0 -11 -1 -23l-2 -24h-188l1.5 16.5t0.5 10.5q0 58 -42 88.5t-120 30.5q-74 0 -120 -28t-46 -73q0 -17 8 -34.5t28 -41.5h229v-111h-166q2 -8 2.5 -17t0.5 -18
q0 -12 -1 -23t-3 -21q72 -26 106.5 -33.5t64.5 -7.5q55 0 82.5 24.5t31.5 75.5h173q3 -127 -65 -199t-188 -72q-64 0 -120.5 19t-139.5 76q-37 -45 -90 -70t-113 -25q-79 0 -125.5 36.5t-46.5 98.5q0 63 50.5 99.5t135.5 36.5q19 0 40.5 -2t47.5 -7q-3 7 -6.5 14zM190 161
q-25 0 -40.5 -8.5t-15.5 -22.5t13.5 -23t35.5 -9q28 0 50 12.5t35 35.5q-21 8 -40 11.5t-38 3.5z" />
    <glyph glyph-name="yen" unicode="&#xa5;" horiz-adv-x="962" 
d="M385 160h-270v115h270v40h-270v114h167l-285 289h240l248 -261l248 261h233l-285 -289h167v-114h-270v-40h270v-115h-270v-160h-193v160z" />
    <glyph glyph-name="section" unicode="&#xa7;" horiz-adv-x="804" 
d="M734 266q20 -18 30 -42t10 -52q0 -87 -89 -135.5t-254 -48.5q-133 0 -248.5 25.5t-174.5 67.5l83 135q66 -41 153 -62t191 -21q68 0 103 9.5t35 28.5q0 14 -14.5 22t-47.5 10l-286 17q-88 5 -136 42t-48 100q0 27 11 52t32 45q-16 17 -24.5 38.5t-8.5 48.5
q0 87 89.5 135.5t254.5 48.5q115 0 211 -20.5t156 -56.5l-79 -129q-64 30 -137.5 44.5t-161.5 14.5q-68 0 -100.5 -8.5t-32.5 -26.5q0 -12 13.5 -19t40.5 -8l251 -14q111 -6 163.5 -42t52.5 -105q0 -28 -9.5 -51t-28.5 -43zM252 347l290 -16q20 -1 38 -3t34 -6q4 5 6.5 11
t2.5 12q0 18 -17.5 26.5t-59.5 10.5l-275 15q-29 2 -44 4t-26 4q-6 -4 -9 -9.5t-3 -13.5q0 -16 15.5 -24.5t47.5 -10.5z" />
    <glyph glyph-name="dieresis" unicode="&#xa8;" 
d="M270 570h-184v148h184v-148zM514 570h-184v148h184v-148z" />
    <glyph glyph-name="copyright" unicode="&#xa9;" horiz-adv-x="897" 
d="M450 730q176 0 295.5 -106t119.5 -265q0 -158 -120 -264.5t-295 -106.5q-177 0 -297 106.5t-120 264.5q0 160 119.5 265.5t297.5 105.5zM450 79q137 0 230 80.5t93 199.5q0 120 -93 200t-230 80q-139 0 -232.5 -80t-93.5 -200q0 -119 94 -199.5t232 -80.5zM454 147
q-110 0 -181 60t-71 153t71 153t181 60q85 0 147 -35t83 -94l-133 -50q-10 26 -36 40.5t-63 14.5q-49 0 -78.5 -24.5t-29.5 -64.5t29.5 -64.5t79.5 -24.5q37 0 62.5 14.5t35.5 40.5l133 -50q-21 -60 -82.5 -94.5t-147.5 -34.5z" />
    <glyph glyph-name="ordfeminine" unicode="&#xaa;" horiz-adv-x="522" 
d="M335 373q-27 -21 -66 -32t-85 -11q-75 0 -119.5 31.5t-44.5 85.5t42.5 85.5t119.5 36.5l142 9v2q0 20 -19.5 31t-54.5 11q-32 0 -55 -11t-30 -29l-130 23q18 56 77.5 88.5t144.5 32.5q97 0 148.5 -37.5t51.5 -108.5v-122q0 -17 10 -22q5 -2 13 -2t20 3v-99q-33 -6 -60 -6
q-24 0 -43 4q-42 9 -62 37zM216 425q44 0 76 16.5t32 41.5v11l-124 -10q-25 -2 -35.5 -9t-10.5 -20q0 -15 16 -22.5t46 -7.5zM496 178h-469v104h469v-104z" />
    <glyph glyph-name="guillemotleft" unicode="&#xab;" horiz-adv-x="666" 
d="M317 33l-284 149v156l284 149v-172l-106 -55l106 -55v-172zM633 33l-284 149v156l284 149v-172l-106 -55l106 -55v-172z" />
    <glyph glyph-name="registered" unicode="&#xae;" horiz-adv-x="543" 
d="M272 730q112 0 183.5 -64.5t71.5 -164.5t-71.5 -164t-183.5 -64q-113 0 -184.5 64t-71.5 164t71.5 164.5t184.5 64.5zM272 328q86 0 140 48.5t54 124.5t-54 125t-140 49t-140 -49t-54 -125t54 -124.5t140 -48.5zM355 481l53 -91h-88l-36 70h-53v-70h-77v230h147
q45 0 70.5 -20t25.5 -57q0 -21 -10.5 -36.5t-31.5 -25.5zM316 536q0 10 -7 16t-19 6h-59v-43h59q13 0 19.5 5.5t6.5 15.5z" />
    <glyph glyph-name="macron" unicode="&#xaf;" 
d="M488 710v-136h-376v136h376z" />
    <glyph glyph-name="degree" unicode="&#xb0;" horiz-adv-x="418" 
d="M13 565q0 74 54 119.5t142 45.5t142 -45.5t54 -119.5t-54 -119t-142 -45t-142 45t-54 119zM126 565q0 -30 22.5 -47.5t60.5 -17.5t60.5 17.5t22.5 47.5q0 31 -22.5 48.5t-60.5 17.5t-60.5 -18t-22.5 -48z" />
    <glyph glyph-name="uni00B2" unicode="&#xb2;" horiz-adv-x="457" 
d="M28 320v88l157 89q65 36 81 51.5t16 32.5t-14 27t-39 10q-35 0 -59.5 -21t-29.5 -54l-123 23q8 70 68 114.5t153 44.5q84 0 136 -35.5t52 -95.5q0 -45 -27 -77t-93 -62l-58 -27h189v-108h-409z" />
    <glyph glyph-name="uni00B3" unicode="&#xb3;" horiz-adv-x="488" 
d="M472 435q0 -54 -61.5 -88t-162.5 -34q-87 0 -147 27t-99 83l113 56q18 -29 54 -46t79 -17q32 0 51 8.5t19 23.5q0 13 -17 19.5t-52 6.5h-74v92h67q37 0 53.5 6.5t16.5 21.5q0 13 -17 20t-48 7q-39 0 -70.5 -14t-48.5 -39l-107 52q32 50 94.5 77.5t144.5 27.5
q93 0 149.5 -33t56.5 -85q0 -28 -18 -50.5t-51 -34.5q38 -13 56.5 -34.5t18.5 -52.5z" />
    <glyph glyph-name="acute" unicode="&#xb4;" 
d="M296 565h-156l92 153h232z" />
    <glyph glyph-name="paragraph" unicode="&#xb6;" horiz-adv-x="889" 
d="M751 0h-165v577h-141v-307h-184q-108 0 -175.5 61t-67.5 160q0 101 73 164t191 63h590v-141h-121v-577z" />
    <glyph glyph-name="periodcentered" unicode="&#xb7;" horiz-adv-x="293" 
d="M253 192h-213v204h213v-204z" />
    <glyph glyph-name="cedilla" unicode="&#xb8;" 
d="M455 -98q0 -39 -42.5 -63t-109.5 -24q-43 0 -81.5 9.5t-62.5 26.5l46 72q17 -12 39.5 -18.5t45.5 -6.5q20 0 31 5t11 14q0 12 -24 18t-71 5l22 72h78l-9 -32q60 -2 93.5 -22t33.5 -56z" />
    <glyph glyph-name="uni00B9" unicode="&#xb9;" horiz-adv-x="382" 
d="M370 320h-350v108h116v128h-115v96l39 1q51 2 76 16.5t32 47.5h107v-289h95v-108z" />
    <glyph glyph-name="ordmasculine" unicode="&#xba;" horiz-adv-x="502" 
d="M250 726q104 0 169.5 -55t65.5 -143t-65.5 -143t-169.5 -55q-103 0 -168.5 55t-65.5 143t65.5 143t168.5 55zM250 616q-43 0 -70 -24t-27 -64t27 -64t70 -24q44 0 71.5 24t27.5 64t-27.5 64t-71.5 24zM476 178h-450v104h450v-104z" />
    <glyph glyph-name="guillemotright" unicode="&#xbb;" horiz-adv-x="666" 
d="M317 338v-156l-284 -149v172l106 55l-106 55v172zM633 338v-156l-284 -149v172l106 55l-106 55v172z" />
    <glyph glyph-name="onequarter" unicode="&#xbc;" horiz-adv-x="1041" 
d="M370 320h-350v108h116v128h-115v96l39 1q51 2 76 16.5t32 47.5h107v-289h95v-108zM158 0l561 718h153l-560 -718h-154zM935 76v-76h-134v76h-240v91l199 231h175v-224h79v-98h-79zM801 295l-98 -121h98v121z" />
    <glyph glyph-name="onehalf" unicode="&#xbd;" horiz-adv-x="1058" 
d="M370 320h-350v108h116v128h-115v96l39 1q51 2 76 16.5t32 47.5h107v-289h95v-108zM158 0l561 718h153l-560 -718h-154zM629 0v88l157 89q65 36 81 51.5t16 32.5t-14 27t-39 10q-35 0 -59.5 -21t-29.5 -54l-123 23q8 70 68 114.5t153 44.5q84 0 136 -35.5t52 -95.5
q0 -45 -27 -77t-93 -62l-58 -27h189v-108h-409z" />
    <glyph glyph-name="threequarters" unicode="&#xbe;" horiz-adv-x="1101" 
d="M472 435q0 -54 -61.5 -88t-162.5 -34q-87 0 -147 27t-99 83l113 56q18 -29 54 -46t79 -17q32 0 51 8.5t19 23.5q0 13 -17 19.5t-52 6.5h-74v92h67q37 0 53.5 6.5t16.5 21.5q0 13 -17 20t-48 7q-39 0 -70.5 -14t-48.5 -39l-107 52q32 50 94.5 77.5t144.5 27.5
q93 0 149.5 -33t56.5 -85q0 -28 -18 -50.5t-51 -34.5q38 -13 56.5 -34.5t18.5 -52.5zM218 0l561 718h153l-560 -718h-154zM995 76v-76h-134v76h-240v91l199 231h175v-224h79v-98h-79zM861 295l-98 -121h98v121z" />
    <glyph glyph-name="questiondown" unicode="&#xbf;" horiz-adv-x="761" 
d="M248 724h219v-194h-219v194zM224 234q0 -35 37.5 -54t108.5 -19q73 0 121 27t54 71l209 -31q-16 -106 -122 -170t-274 -64q-159 0 -253.5 62t-94.5 166q0 83 66.5 139t182.5 72v51h203v-174q-128 0 -183 -18t-55 -58z" />
    <glyph glyph-name="Agrave" unicode="&#xc0;" horiz-adv-x="912" 
d="M-9 0l353 718h225l352 -718h-215l-65 135h-377l-65 -135h-208zM566 292l-112 234l-113 -234h225zM437 917l103 -162h-165l-190 162h252z" />
    <glyph glyph-name="Aacute" unicode="&#xc1;" horiz-adv-x="912" 
d="M-9 0l353 718h225l352 -718h-215l-65 135h-377l-65 -135h-208zM566 292l-112 234l-113 -234h225zM533 755h-165l103 162h252z" />
    <glyph glyph-name="Acircumflex" unicode="&#xc2;" horiz-adv-x="912" 
d="M-9 0l353 718h225l352 -718h-215l-65 135h-377l-65 -135h-208zM566 292l-112 234l-113 -234h225zM359 917h194l140 -162h-142l-95 59l-95 -59h-142z" />
    <glyph glyph-name="Atilde" unicode="&#xc3;" horiz-adv-x="912" 
d="M-9 0l353 718h225l352 -718h-215l-65 135h-377l-65 -135h-208zM566 292l-112 234l-113 -234h225zM359 941q23 0 45.5 -5.5t59.5 -22.5q26 -13 39 -16.5t24 -3.5q17 0 27 11.5t14 36.5h123q-2 -86 -38.5 -135.5t-98.5 -49.5q-23 0 -45.5 5.5t-59.5 22.5q-26 12 -39 15.5
t-24 3.5q-17 0 -26.5 -11.5t-13.5 -35.5h-124q2 85 38.5 135t98.5 50z" />
    <glyph glyph-name="Adieresis" unicode="&#xc4;" horiz-adv-x="912" 
d="M-9 0l353 718h225l352 -718h-215l-65 135h-377l-65 -135h-208zM566 292l-112 234l-113 -234h225zM420 755h-184v155h184v-155zM676 755h-184v155h184v-155z" />
    <glyph glyph-name="Aring" unicode="&#xc5;" horiz-adv-x="912" 
d="M288 775q0 61 47 100.5t121 39.5t121 -39.5t47 -100.5q0 -26 -10 -50t-28 -42l335 -683h-215l-65 135h-377l-65 -135h-208l335 682q-18 18 -28 42t-10 51zM456 825q-26 0 -42.5 -14t-16.5 -36t16.5 -36t42.5 -14t42.5 14t16.5 36t-16.5 36t-42.5 14zM566 292l-112 234
l-113 -234h225z" />
    <glyph glyph-name="AE" unicode="&#xc6;" horiz-adv-x="1448" 
d="M-11 0l635 718h799v-166h-506v-107h449v-162h-449v-117h506v-166h-698v138h-365l-121 -138h-250zM725 554l-229 -261h229v261z" />
    <glyph glyph-name="Ccedilla" unicode="&#xc7;" horiz-adv-x="842" 
d="M17 359q0 161 121 266t308 105q146 0 249 -61.5t145 -173.5l-179 -80q-23 68 -79 106.5t-136 38.5q-100 0 -164.5 -56t-64.5 -145t64.5 -145t164.5 -56q80 0 136 38.5t79 106.5l179 -80q-41 -108 -138.5 -169.5t-235.5 -65.5l-2 -8q60 -2 93.5 -22t33.5 -56
q0 -39 -42.5 -63t-109.5 -24q-43 0 -81.5 9.5t-62.5 26.5l46 72q17 -12 39.5 -18.5t45.5 -6.5q20 0 31 5t11 14q0 12 -24 18t-71 5l16 51q-165 17 -268.5 119t-103.5 249z" />
    <glyph glyph-name="Egrave" unicode="&#xc8;" horiz-adv-x="772" 
d="M49 0v718h698v-166h-506v-107h449v-162h-449v-117h506v-166h-698zM405 917l103 -162h-165l-190 162h252z" />
    <glyph glyph-name="Eacute" unicode="&#xc9;" horiz-adv-x="772" 
d="M49 0v718h698v-166h-506v-107h449v-162h-449v-117h506v-166h-698zM463 755h-165l103 162h252z" />
    <glyph glyph-name="Ecircumflex" unicode="&#xca;" horiz-adv-x="772" 
d="M49 0v718h698v-166h-506v-107h449v-162h-449v-117h506v-166h-698zM300 917h194l140 -162h-142l-95 59l-95 -59h-142z" />
    <glyph glyph-name="Edieresis" unicode="&#xcb;" horiz-adv-x="772" 
d="M49 0v718h698v-166h-506v-107h449v-162h-449v-117h506v-166h-698zM361 755h-184v155h184v-155zM617 755h-184v155h184v-155z" />
    <glyph glyph-name="Igrave" unicode="&#xcc;" horiz-adv-x="294" 
d="M49 718h196v-718h-196v718zM135 917l103 -162h-165l-190 162h252z" />
    <glyph glyph-name="Iacute" unicode="&#xcd;" horiz-adv-x="294" 
d="M49 718h196v-718h-196v718zM224 755h-165l103 162h252z" />
    <glyph glyph-name="Icircumflex" unicode="&#xce;" horiz-adv-x="294" 
d="M49 718h196v-718h-196v718zM49 917h194l140 -162h-142l-95 59l-95 -59h-142z" />
    <glyph glyph-name="Idieresis" unicode="&#xcf;" horiz-adv-x="294" 
d="M49 718h196v-718h-196v718zM110 755h-184v155h184v-155zM366 755h-184v155h184v-155z" />
    <glyph glyph-name="Eth" unicode="&#xd0;" horiz-adv-x="907" 
d="M467 0h-378v282h-81v165h81v271h378q195 0 308.5 -96.5t113.5 -262.5t-113.5 -262.5t-308.5 -96.5zM281 282v-117h186q106 0 166.5 52t60.5 142q0 91 -60.5 142.5t-167.5 51.5h-185v-106h149v-165h-149z" />
    <glyph glyph-name="Ntilde" unicode="&#xd1;" horiz-adv-x="879" 
d="M639 718h191v-718h-173l-417 466v-466h-191v718h196l394 -442v442zM340 941q23 0 45.5 -5.5t59.5 -22.5q26 -13 39 -16.5t24 -3.5q17 0 27 11.5t14 36.5h123q-2 -86 -38.5 -135.5t-98.5 -49.5q-23 0 -45.5 5.5t-59.5 22.5q-26 12 -39 15.5t-24 3.5q-17 0 -26.5 -11.5
t-13.5 -35.5h-124q2 85 38.5 135t98.5 50z" />
    <glyph glyph-name="Ograve" unicode="&#xd2;" horiz-adv-x="897" 
d="M17 359q0 161 122 266t310 105q187 0 309 -105t122 -266t-122 -266t-309 -105q-188 0 -310 105t-122 266zM680 359q0 90 -64.5 145.5t-166.5 55.5t-166.5 -55.5t-64.5 -145.5t64.5 -145.5t166.5 -55.5t166.5 55.5t64.5 145.5zM444 917l103 -162h-165l-190 162h252z" />
    <glyph glyph-name="Oacute" unicode="&#xd3;" horiz-adv-x="897" 
d="M17 359q0 161 122 266t310 105q187 0 309 -105t122 -266t-122 -266t-309 -105q-188 0 -310 105t-122 266zM680 359q0 90 -64.5 145.5t-166.5 55.5t-166.5 -55.5t-64.5 -145.5t64.5 -145.5t166.5 -55.5t166.5 55.5t64.5 145.5zM517 755h-165l103 162h252z" />
    <glyph glyph-name="Ocircumflex" unicode="&#xd4;" horiz-adv-x="897" 
d="M17 359q0 161 122 266t310 105q187 0 309 -105t122 -266t-122 -266t-309 -105q-188 0 -310 105t-122 266zM680 359q0 90 -64.5 145.5t-166.5 55.5t-166.5 -55.5t-64.5 -145.5t64.5 -145.5t166.5 -55.5t166.5 55.5t64.5 145.5zM352 917h194l140 -162h-142l-95 59l-95 -59
h-142z" />
    <glyph glyph-name="Otilde" unicode="&#xd5;" horiz-adv-x="897" 
d="M17 359q0 161 122 266t310 105q187 0 309 -105t122 -266t-122 -266t-309 -105q-188 0 -310 105t-122 266zM680 359q0 90 -64.5 145.5t-166.5 55.5t-166.5 -55.5t-64.5 -145.5t64.5 -145.5t166.5 -55.5t166.5 55.5t64.5 145.5zM351 941q23 0 45.5 -5.5t59.5 -22.5
q26 -13 39 -16.5t24 -3.5q17 0 27 11.5t14 36.5h123q-2 -86 -38.5 -135.5t-98.5 -49.5q-23 0 -45.5 5.5t-59.5 22.5q-26 12 -39 15.5t-24 3.5q-17 0 -26.5 -11.5t-13.5 -35.5h-124q2 85 38.5 135t98.5 50z" />
    <glyph glyph-name="Odieresis" unicode="&#xd6;" horiz-adv-x="897" 
d="M17 359q0 161 122 266t310 105q187 0 309 -105t122 -266t-122 -266t-309 -105q-188 0 -310 105t-122 266zM680 359q0 90 -64.5 145.5t-166.5 55.5t-166.5 -55.5t-64.5 -145.5t64.5 -145.5t166.5 -55.5t166.5 55.5t64.5 145.5zM413 755h-184v155h184v-155zM669 755h-184
v155h184v-155z" />
    <glyph glyph-name="multiply" unicode="&#xd7;" horiz-adv-x="800" 
d="M72 135l222 222l-222 223l107 107l223 -222l218 218l107 -108l-218 -217l223 -223l-107 -108l-223 223l-223 -223z" />
    <glyph glyph-name="Oslash" unicode="&#xd8;" horiz-adv-x="897" 
d="M125 -30l-101 99l72 68q-39 47 -59 103.5t-20 118.5q0 161 122 266t309 105q70 0 133 -16t115 -46l75 72l101 -98l-68 -65q37 -46 56 -101t19 -116q0 -161 -121.5 -266t-309.5 -106q-67 0 -128 14.5t-114 43.5zM448 568q-110 0 -173 -55.5t-63 -153.5q0 -30 6.5 -56.5
t19.5 -48.5l320 295q-24 9 -51.5 14t-58.5 5zM448 150q110 1 173 56.5t63 152.5q0 27 -6 52.5t-18 48.5l-317 -292q23 -9 49.5 -13.5t55.5 -4.5z" />
    <glyph glyph-name="Ugrave" unicode="&#xd9;" horiz-adv-x="832" 
d="M416 -11q-181 0 -281 87t-100 244v398h196v-379q0 -89 47 -134.5t138 -45.5t138 45.5t47 134.5v379h196v-398q0 -157 -100 -244t-281 -87zM412 917l103 -162h-165l-190 162h252z" />
    <glyph glyph-name="Uacute" unicode="&#xda;" horiz-adv-x="832" 
d="M416 -11q-181 0 -281 87t-100 244v398h196v-379q0 -89 47 -134.5t138 -45.5t138 45.5t47 134.5v379h196v-398q0 -157 -100 -244t-281 -87zM485 755h-165l103 162h252z" />
    <glyph glyph-name="Ucircumflex" unicode="&#xdb;" horiz-adv-x="832" 
d="M416 -11q-181 0 -281 87t-100 244v398h196v-379q0 -89 47 -134.5t138 -45.5t138 45.5t47 134.5v379h196v-398q0 -157 -100 -244t-281 -87zM321 917h194l140 -162h-142l-95 59l-95 -59h-142z" />
    <glyph glyph-name="Udieresis" unicode="&#xdc;" horiz-adv-x="832" 
d="M416 -11q-181 0 -281 87t-100 244v398h196v-379q0 -89 47 -134.5t138 -45.5t138 45.5t47 134.5v379h196v-398q0 -157 -100 -244t-281 -87zM382 755h-184v155h184v-155zM638 755h-184v155h184v-155z" />
    <glyph glyph-name="Yacute" unicode="&#xdd;" horiz-adv-x="882" 
d="M223 718l222 -268l221 268h226l-353 -431v-287h-196v287l-353 431h233zM517 755h-165l103 162h252z" />
    <glyph glyph-name="Thorn" unicode="&#xde;" horiz-adv-x="809" 
d="M796 368q0 -116 -76.5 -180t-213.5 -64h-261v-124h-196v718h196v-105h261q137 0 213.5 -64.5t76.5 -180.5zM495 450h-250v-164h250q51 0 79.5 21.5t28.5 60.5t-28 60.5t-80 21.5z" />
    <glyph glyph-name="germandbls" unicode="&#xdf;" horiz-adv-x="751" 
d="M381 730q134 0 210.5 -53t76.5 -142q0 -46 -22.5 -81.5t-64.5 -57.5q77 -25 116.5 -71.5t39.5 -113.5q0 -100 -78 -161.5t-203 -61.5q-60 0 -114.5 17t-91.5 47l57 141q33 -27 68 -41t73 -14q49 0 79.5 22.5t30.5 58.5q0 41 -35.5 61.5t-108.5 20.5h-112v148h72
q55 0 84 17t29 50t-28 51t-81 18q-67 0 -104.5 -37t-37.5 -99v-449h-192v442q0 131 90.5 209.5t246.5 78.5z" />
    <glyph glyph-name="agrave" unicode="&#xe0;" horiz-adv-x="687" 
d="M453 49q-36 -29 -91 -44.5t-120 -15.5q-105 0 -166.5 43.5t-61.5 118.5t59 118.5t166 50.5l197 14v3q0 28 -26.5 44t-75.5 16q-46 0 -78.5 -15.5t-43.5 -42.5l-177 34q26 77 108.5 122t198.5 45q135 0 206.5 -52.5t71.5 -151.5v-171q0 -23 14 -29q7 -3 18 -3t28 3v-136
q-45 -8 -83 -8q-32 0 -58 6q-58 13 -86 51zM285 120q63 0 107 23.5t44 58.5v15l-172 -14q-35 -2 -50.5 -11.5t-15.5 -28.5q0 -21 22 -32t65 -11zM351 718l92 -153h-156l-168 153h232z" />
    <glyph glyph-name="aacute" unicode="&#xe1;" horiz-adv-x="687" 
d="M453 49q-36 -29 -91 -44.5t-120 -15.5q-105 0 -166.5 43.5t-61.5 118.5t59 118.5t166 50.5l197 14v3q0 28 -26.5 44t-75.5 16q-46 0 -78.5 -15.5t-43.5 -42.5l-177 34q26 77 108.5 122t198.5 45q135 0 206.5 -52.5t71.5 -151.5v-171q0 -23 14 -29q7 -3 18 -3t28 3v-136
q-45 -8 -83 -8q-32 0 -58 6q-58 13 -86 51zM285 120q63 0 107 23.5t44 58.5v15l-172 -14q-35 -2 -50.5 -11.5t-15.5 -28.5q0 -21 22 -32t65 -11zM400 565h-156l92 153h232z" />
    <glyph glyph-name="acircumflex" unicode="&#xe2;" horiz-adv-x="687" 
d="M453 49q-36 -29 -91 -44.5t-120 -15.5q-105 0 -166.5 43.5t-61.5 118.5t59 118.5t166 50.5l197 14v3q0 28 -26.5 44t-75.5 16q-46 0 -78.5 -15.5t-43.5 -42.5l-177 34q26 77 108.5 122t198.5 45q135 0 206.5 -52.5t71.5 -151.5v-171q0 -23 14 -29q7 -3 18 -3t28 3v-136
q-45 -8 -83 -8q-32 0 -58 6q-58 13 -86 51zM285 120q63 0 107 23.5t44 58.5v15l-172 -14q-35 -2 -50.5 -11.5t-15.5 -28.5q0 -21 22 -32t65 -11zM245 718h180l132 -153h-140l-82 49l-82 -49h-140z" />
    <glyph glyph-name="atilde" unicode="&#xe3;" horiz-adv-x="687" 
d="M453 49q-36 -29 -91 -44.5t-120 -15.5q-105 0 -166.5 43.5t-61.5 118.5t59 118.5t166 50.5l197 14v3q0 28 -26.5 44t-75.5 16q-46 0 -78.5 -15.5t-43.5 -42.5l-177 34q26 77 108.5 122t198.5 45q135 0 206.5 -52.5t71.5 -151.5v-171q0 -23 14 -29q7 -3 18 -3t28 3v-136
q-45 -8 -83 -8q-32 0 -58 6q-58 13 -86 51zM285 120q63 0 107 23.5t44 58.5v15l-172 -14q-35 -2 -50.5 -11.5t-15.5 -28.5q0 -21 22 -32t65 -11zM249 729q22 0 42.5 -5t51.5 -21q22 -11 33 -14t22 -3q15 0 23.5 10.5t12.5 32.5h112q-2 -76 -35 -120t-89 -44q-22 0 -42.5 5
t-51.5 20q-22 11 -33.5 14t-21.5 3q-15 0 -23.5 -10t-12.5 -32h-112q2 75 35 119.5t89 44.5z" />
    <glyph glyph-name="adieresis" unicode="&#xe4;" horiz-adv-x="687" 
d="M453 49q-36 -29 -91 -44.5t-120 -15.5q-105 0 -166.5 43.5t-61.5 118.5t59 118.5t166 50.5l197 14v3q0 28 -26.5 44t-75.5 16q-46 0 -78.5 -15.5t-43.5 -42.5l-177 34q26 77 108.5 122t198.5 45q135 0 206.5 -52.5t71.5 -151.5v-171q0 -23 14 -29q7 -3 18 -3t28 3v-136
q-45 -8 -83 -8q-32 0 -58 6q-58 13 -86 51zM285 120q63 0 107 23.5t44 58.5v15l-172 -14q-35 -2 -50.5 -11.5t-15.5 -28.5q0 -21 22 -32t65 -11zM308 570h-184v148h184v-148zM552 570h-184v148h184v-148z" />
    <glyph glyph-name="aring" unicode="&#xe5;" horiz-adv-x="687" 
d="M453 49q-36 -29 -91 -44.5t-120 -15.5q-105 0 -166.5 43.5t-61.5 118.5t59 118.5t166 50.5l197 14v3q0 28 -26.5 44t-75.5 16q-46 0 -78.5 -15.5t-43.5 -42.5l-177 34q26 77 108.5 122t198.5 45q135 0 206.5 -52.5t71.5 -151.5v-171q0 -23 14 -29q7 -3 18 -3t28 3v-136
q-45 -8 -83 -8q-32 0 -58 6q-58 13 -86 51zM285 120q63 0 107 23.5t44 58.5v15l-172 -14q-35 -2 -50.5 -11.5t-15.5 -28.5q0 -21 22 -32t65 -11zM342 560q-52 0 -86.5 32.5t-34.5 80.5t34.5 81t86.5 33t86.5 -33t34.5 -81t-34.5 -80.5t-86.5 -32.5zM342 711q-16 0 -26 -11
t-10 -27t10 -26.5t26 -10.5t26.5 10.5t10.5 26.5t-10.5 27t-26.5 11z" />
    <glyph glyph-name="ae" unicode="&#xe6;" horiz-adv-x="1089" 
d="M14 151q0 79 62 123t175 44h185v19q0 28 -26.5 44t-75.5 16q-46 0 -78.5 -15.5t-43.5 -42.5l-177 34q26 77 108.5 122t198.5 45q70 0 123 -17t87 -50q42 33 95.5 50t113.5 17q141 0 226 -77t85 -199v-49h-451q14 -38 49.5 -59.5t84.5 -21.5q48 0 83 17t50 48l176 -51
q-31 -73 -114 -116.5t-189 -43.5q-79 0 -143.5 24.5t-108.5 70.5q-42 -45 -108.5 -69.5t-148.5 -24.5q-110 0 -174 43.5t-64 118.5zM755 399q-49 0 -84 -21t-49 -60h262q-10 36 -45.5 58.5t-83.5 22.5zM198 169q0 -23 23 -36t64 -13q64 0 107.5 23.5t43.5 59.5v12h-155
q-42 0 -62.5 -11t-20.5 -35z" />
    <glyph glyph-name="ccedilla" unicode="&#xe7;" horiz-adv-x="647" 
d="M17 264q0 123 91 199.5t236 76.5q114 0 196.5 -51.5t104.5 -130.5l-170 -62q-14 42 -49 67t-83 25q-63 0 -101 -34t-38 -90t38 -90t101 -34q48 0 83 25t49 67l170 -63q-21 -74 -97 -124.5t-181 -55.5l-2 -9q60 -2 93.5 -22t33.5 -56q0 -39 -42.5 -63t-109.5 -24
q-43 0 -81.5 9.5t-62.5 26.5l46 72q17 -12 39.5 -18.5t45.5 -6.5q20 0 31 5t11 14q0 12 -24 18t-71 5l16 51q-124 14 -198.5 88.5t-74.5 184.5z" />
    <glyph glyph-name="egrave" unicode="&#xe8;" horiz-adv-x="674" 
d="M346 -12q-146 0 -237.5 77t-91.5 200q0 119 92.5 197t234.5 78q141 0 226.5 -77.5t85.5 -198.5v-46h-451q13 -40 49.5 -62t90.5 -22q45 0 79 17.5t49 48.5l175 -51q-30 -74 -113 -117.5t-189 -43.5zM340 398q-47 0 -81.5 -20t-50.5 -56h254q-5 32 -39 54t-83 22zM347 718
l92 -153h-156l-168 153h232z" />
    <glyph glyph-name="eacute" unicode="&#xe9;" horiz-adv-x="674" 
d="M346 -12q-146 0 -237.5 77t-91.5 200q0 119 92.5 197t234.5 78q141 0 226.5 -77.5t85.5 -198.5v-46h-451q13 -40 49.5 -62t90.5 -22q45 0 79 17.5t49 48.5l175 -51q-30 -74 -113 -117.5t-189 -43.5zM340 398q-47 0 -81.5 -20t-50.5 -56h254q-5 32 -39 54t-83 22zM408 565
h-156l92 153h232z" />
    <glyph glyph-name="ecircumflex" unicode="&#xea;" horiz-adv-x="674" 
d="M346 -12q-146 0 -237.5 77t-91.5 200q0 119 92.5 197t234.5 78q141 0 226.5 -77.5t85.5 -198.5v-46h-451q13 -40 49.5 -62t90.5 -22q45 0 79 17.5t49 48.5l175 -51q-30 -74 -113 -117.5t-189 -43.5zM340 398q-47 0 -81.5 -20t-50.5 -56h254q-5 32 -39 54t-83 22zM250 718
h180l132 -153h-140l-82 49l-82 -49h-140z" />
    <glyph glyph-name="edieresis" unicode="&#xeb;" horiz-adv-x="674" 
d="M346 -12q-146 0 -237.5 77t-91.5 200q0 119 92.5 197t234.5 78q141 0 226.5 -77.5t85.5 -198.5v-46h-451q13 -40 49.5 -62t90.5 -22q45 0 79 17.5t49 48.5l175 -51q-30 -74 -113 -117.5t-189 -43.5zM340 398q-47 0 -81.5 -20t-50.5 -56h254q-5 32 -39 54t-83 22zM311 570
h-184v148h184v-148zM555 570h-184v148h184v-148z" />
    <glyph glyph-name="igrave" unicode="&#xec;" horiz-adv-x="276" 
d="M43 528h190v-528h-190v528zM130 718l92 -153h-156l-168 153h232z" />
    <glyph glyph-name="iacute" unicode="&#xed;" horiz-adv-x="276" 
d="M43 528h190v-528h-190v528zM212 565h-156l92 153h232z" />
    <glyph glyph-name="icircumflex" unicode="&#xee;" horiz-adv-x="276" 
d="M43 528h190v-528h-190v528zM48 718h180l132 -153h-140l-82 49l-82 -49h-140z" />
    <glyph glyph-name="idieresis" unicode="&#xef;" horiz-adv-x="276" 
d="M43 528h190v-528h-190v528zM108 570h-184v148h184v-148zM352 570h-184v148h184v-148z" />
    <glyph glyph-name="eth" unicode="&#xf0;" horiz-adv-x="683" 
d="M306 517q37 0 65 -5t49 -15q-10 15 -25 32t-34 35l-242 -49v118l114 23q-25 15 -51 28.5t-51 23.5l204 21q17 -7 35.5 -16.5t37.5 -20.5l185 37v-118l-63 -13q66 -66 101 -144.5t35 -161.5q0 -142 -87 -223t-237 -81q-142 0 -233.5 76.5t-91.5 196.5q0 112 82.5 184
t206.5 72zM342 388q-61 0 -99.5 -34t-38.5 -90t38.5 -90t99.5 -34q62 0 100.5 34t38.5 90t-38.5 90t-100.5 34z" />
    <glyph glyph-name="ntilde" unicode="&#xf1;" horiz-adv-x="694" 
d="M233 0h-190v528h190v-60q33 35 82 53.5t107 18.5q103 0 167.5 -63t64.5 -167v-310h-190v244q0 64 -28 97t-82 33q-58 0 -89.5 -34t-31.5 -97v-243zM262 729q22 0 42.5 -5t51.5 -21q22 -11 33 -14t22 -3q15 0 23.5 10.5t12.5 32.5h112q-2 -76 -35 -120t-89 -44
q-22 0 -42.5 5t-51.5 20q-22 11 -33.5 14t-21.5 3q-15 0 -23.5 -10t-12.5 -32h-112q2 75 35 119.5t89 44.5z" />
    <glyph glyph-name="ograve" unicode="&#xf2;" horiz-adv-x="685" 
d="M342 540q144 0 235 -76.5t91 -199.5t-91 -199.5t-235 -76.5q-142 0 -233.5 77t-91.5 199q0 123 91 199.5t234 76.5zM342 388q-61 0 -99.5 -34t-38.5 -90t38.5 -90t99.5 -34q62 0 100.5 34t38.5 90t-38.5 90t-100.5 34zM342 718l92 -153h-156l-168 153h232z" />
    <glyph glyph-name="oacute" unicode="&#xf3;" horiz-adv-x="685" 
d="M342 540q144 0 235 -76.5t91 -199.5t-91 -199.5t-235 -76.5q-142 0 -233.5 77t-91.5 199q0 123 91 199.5t234 76.5zM342 388q-61 0 -99.5 -34t-38.5 -90t38.5 -90t99.5 -34q62 0 100.5 34t38.5 90t-38.5 90t-100.5 34zM413 565h-156l92 153h232z" />
    <glyph glyph-name="ocircumflex" unicode="&#xf4;" horiz-adv-x="685" 
d="M342 540q144 0 235 -76.5t91 -199.5t-91 -199.5t-235 -76.5q-142 0 -233.5 77t-91.5 199q0 123 91 199.5t234 76.5zM342 388q-61 0 -99.5 -34t-38.5 -90t38.5 -90t99.5 -34q62 0 100.5 34t38.5 90t-38.5 90t-100.5 34zM252 718h180l132 -153h-140l-82 49l-82 -49h-140z
" />
    <glyph glyph-name="otilde" unicode="&#xf5;" horiz-adv-x="685" 
d="M342 540q144 0 235 -76.5t91 -199.5t-91 -199.5t-235 -76.5q-142 0 -233.5 77t-91.5 199q0 123 91 199.5t234 76.5zM342 388q-61 0 -99.5 -34t-38.5 -90t38.5 -90t99.5 -34q62 0 100.5 34t38.5 90t-38.5 90t-100.5 34zM256 729q22 0 42.5 -5t51.5 -21q22 -11 33 -14
t22 -3q15 0 23.5 10.5t12.5 32.5h112q-2 -76 -35 -120t-89 -44q-22 0 -42.5 5t-51.5 20q-22 11 -33.5 14t-21.5 3q-15 0 -23.5 -10t-12.5 -32h-112q2 75 35 119.5t89 44.5z" />
    <glyph glyph-name="odieresis" unicode="&#xf6;" horiz-adv-x="685" 
d="M342 540q144 0 235 -76.5t91 -199.5t-91 -199.5t-235 -76.5q-142 0 -233.5 77t-91.5 199q0 123 91 199.5t234 76.5zM342 388q-61 0 -99.5 -34t-38.5 -90t38.5 -90t99.5 -34q62 0 100.5 34t38.5 90t-38.5 90t-100.5 34zM312 570h-184v148h184v-148zM556 570h-184v148h184
v-148z" />
    <glyph glyph-name="divide" unicode="&#xf7;" horiz-adv-x="800" 
d="M492 504h-185v176h185v-176zM744 279h-689v158h689v-158zM492 36h-185v176h185v-176z" />
    <glyph glyph-name="oslash" unicode="&#xf8;" horiz-adv-x="685" 
d="M17 264q0 123 91 199.5t234 76.5q47 0 91 -9.5t82 -27.5l65 62l83 -83l-54 -51q29 -34 44 -76.5t15 -90.5q0 -122 -91.5 -199t-234.5 -77q-49 0 -92.5 9.5t-81.5 28.5l-63 -61l-83 83l53 50q-29 35 -43.5 77t-14.5 89zM342 400q-65 0 -106 -37.5t-41 -98.5q0 -16 3 -30.5
t9 -27.5l191 186q-13 4 -27.5 6t-28.5 2zM342 129q65 0 106.5 37t41.5 98q0 17 -3 31.5t-9 26.5l-191 -185q13 -4 27 -6t28 -2z" />
    <glyph glyph-name="ugrave" unicode="&#xf9;" horiz-adv-x="689" 
d="M456 528h190v-528h-190v60q-34 -35 -82 -53.5t-106 -18.5q-102 0 -165 62.5t-63 166.5v311h190v-262q0 -59 26.5 -88t80.5 -29q57 0 88 31t31 89v259zM341 718l92 -153h-156l-168 153h232z" />
    <glyph glyph-name="uacute" unicode="&#xfa;" horiz-adv-x="689" 
d="M456 528h190v-528h-190v60q-34 -35 -82 -53.5t-106 -18.5q-102 0 -165 62.5t-63 166.5v311h190v-262q0 -59 26.5 -88t80.5 -29q57 0 88 31t31 89v259zM410 565h-156l92 153h232z" />
    <glyph glyph-name="ucircumflex" unicode="&#xfb;" horiz-adv-x="689" 
d="M456 528h190v-528h-190v60q-34 -35 -82 -53.5t-106 -18.5q-102 0 -165 62.5t-63 166.5v311h190v-262q0 -59 26.5 -88t80.5 -29q57 0 88 31t31 89v259zM254 718h180l132 -153h-140l-82 49l-82 -49h-140z" />
    <glyph glyph-name="udieresis" unicode="&#xfc;" horiz-adv-x="689" 
d="M456 528h190v-528h-190v60q-34 -35 -82 -53.5t-106 -18.5q-102 0 -165 62.5t-63 166.5v311h190v-262q0 -59 26.5 -88t80.5 -29q57 0 88 31t31 89v259zM314 570h-184v148h184v-148zM558 570h-184v148h184v-148z" />
    <glyph glyph-name="yacute" unicode="&#xfd;" horiz-adv-x="697" 
d="M704 528l-257 -535q-47 -100 -106 -138.5t-159 -38.5q-32 0 -68 6.5t-59 15.5l29 144q20 -9 38.5 -14t36.5 -5q32 0 51 10t28 32l4 12l-249 511h213l149 -331l149 331h200zM420 565h-156l92 153h232z" />
    <glyph glyph-name="thorn" unicode="&#xfe;" horiz-adv-x="713" 
d="M696 264q0 -122 -77.5 -199t-204.5 -77q-57 0 -105.5 18t-75.5 49v-228h-190v891h190v-245q27 31 75.5 49t105.5 18q127 0 204.5 -77t77.5 -199zM368 389q-60 0 -100 -34.5t-40 -87.5v-6q0 -53 40 -87.5t100 -34.5q62 0 101.5 34t39.5 91t-39.5 91t-101.5 34z" />
    <glyph glyph-name="ydieresis" unicode="&#xff;" horiz-adv-x="697" 
d="M704 528l-257 -535q-47 -100 -106 -138.5t-159 -38.5q-32 0 -68 6.5t-59 15.5l29 144q20 -9 38.5 -14t36.5 -5q32 0 51 10t28 32l4 12l-249 511h213l149 -331l149 331h200zM318 570h-184v148h184v-148zM562 570h-184v148h184v-148z" />
    <glyph glyph-name="Amacron" unicode="&#x100;" horiz-adv-x="912" 
d="M-9 0l353 718h225l352 -718h-215l-65 135h-377l-65 -135h-208zM566 292l-112 234l-113 -234h225zM661 895v-137h-410v137h410z" />
    <glyph glyph-name="amacron" unicode="&#x101;" horiz-adv-x="687" 
d="M453 49q-36 -29 -91 -44.5t-120 -15.5q-105 0 -166.5 43.5t-61.5 118.5t59 118.5t166 50.5l197 14v3q0 28 -26.5 44t-75.5 16q-46 0 -78.5 -15.5t-43.5 -42.5l-177 34q26 77 108.5 122t198.5 45q135 0 206.5 -52.5t71.5 -151.5v-171q0 -23 14 -29q7 -3 18 -3t28 3v-136
q-45 -8 -83 -8q-32 0 -58 6q-58 13 -86 51zM285 120q63 0 107 23.5t44 58.5v15l-172 -14q-35 -2 -50.5 -11.5t-15.5 -28.5q0 -21 22 -32t65 -11zM519 710v-136h-376v136h376z" />
    <glyph glyph-name="Abreve" unicode="&#x102;" horiz-adv-x="912" 
d="M-9 0l353 718h225l352 -718h-215l-65 135h-377l-65 -135h-208zM566 292l-112 234l-113 -234h225zM456 872q34 0 56 12.5t22 32.5h133q0 -76 -57 -122t-154 -46t-154 46t-57 122h133q0 -20 22 -32.5t56 -12.5z" />
    <glyph glyph-name="abreve" unicode="&#x103;" horiz-adv-x="687" 
d="M453 49q-36 -29 -91 -44.5t-120 -15.5q-105 0 -166.5 43.5t-61.5 118.5t59 118.5t166 50.5l197 14v3q0 28 -26.5 44t-75.5 16q-46 0 -78.5 -15.5t-43.5 -42.5l-177 34q26 77 108.5 122t198.5 45q135 0 206.5 -52.5t71.5 -151.5v-171q0 -23 14 -29q7 -3 18 -3t28 3v-136
q-45 -8 -83 -8q-32 0 -58 6q-58 13 -86 51zM285 120q63 0 107 23.5t44 58.5v15l-172 -14q-35 -2 -50.5 -11.5t-15.5 -28.5q0 -21 22 -32t65 -11zM345 676q34 0 52 10.5t20 31.5h129q-2 -77 -52 -116t-149 -39q-99 1 -149 39.5t-52 115.5h129q2 -21 20 -31.5t52 -10.5z" />
    <glyph glyph-name="Aogonek" unicode="&#x104;" horiz-adv-x="912" 
d="M735 -181q-65 0 -105.5 25t-40.5 67q0 38 25.5 65.5t79.5 47.5l-53 111h-377l-65 -135h-208l353 718h225l352 -718h-103q-62 -15 -85 -26t-23 -25q0 -12 14.5 -19t40.5 -7q11 0 24 1.5t29 4.5v-101q-24 -5 -44.5 -7t-38.5 -2zM566 292l-112 234l-113 -234h225z" />
    <glyph glyph-name="aogonek" unicode="&#x105;" horiz-adv-x="687" 
d="M453 49q-36 -29 -91 -44.5t-120 -15.5q-105 0 -166.5 43.5t-61.5 118.5t59 118.5t166 50.5l197 14v3q0 28 -26.5 44t-75.5 16q-46 0 -78.5 -15.5t-43.5 -42.5l-177 34q26 77 108.5 122t198.5 45q135 0 206.5 -52.5t71.5 -151.5v-171q0 -23 14 -29q7 -3 19 -3q11 0 27 3
v-136q-62 -15 -85 -26t-23 -25q0 -12 14.5 -19t40.5 -7q11 0 24 1.5t29 4.5v-101q-24 -5 -44.5 -7t-38.5 -2q-65 0 -105.5 25t-40.5 67q0 29 15.5 52.5t47.5 41.5q-20 7 -35 18t-26 26zM285 120q63 0 107 23.5t44 58.5v15l-172 -14q-35 -2 -50.5 -11.5t-15.5 -28.5
q0 -21 22 -32t65 -11z" />
    <glyph glyph-name="Cacute" unicode="&#x106;" horiz-adv-x="842" 
d="M446 560q-100 0 -164.5 -56t-64.5 -145t64.5 -145t164.5 -56q80 0 136 38.5t79 106.5l179 -80q-42 -112 -145 -173.5t-249 -61.5q-187 0 -308 105t-121 266t121 266t308 105q146 0 249 -61.5t145 -173.5l-179 -80q-23 68 -79 106.5t-136 38.5zM520 755h-165l103 162h252z
" />
    <glyph glyph-name="cacute" unicode="&#x107;" horiz-adv-x="647" 
d="M343 388q-63 0 -101 -34t-38 -90t38 -90t101 -34q48 0 83 25t49 67l170 -63q-22 -78 -105 -129.5t-196 -51.5q-145 0 -236 76.5t-91 199.5t91 199.5t236 76.5q114 0 196.5 -51.5t104.5 -130.5l-170 -62q-14 42 -49 67t-83 25zM405 565h-156l92 153h232z" />
    <glyph glyph-name="Ccircumflex" unicode="&#x108;" horiz-adv-x="842" 
d="M446 560q-100 0 -164.5 -56t-64.5 -145t64.5 -145t164.5 -56q80 0 136 38.5t79 106.5l179 -80q-42 -112 -145 -173.5t-249 -61.5q-187 0 -308 105t-121 266t121 266t308 105q146 0 249 -61.5t145 -173.5l-179 -80q-23 68 -79 106.5t-136 38.5zM349 917h194l140 -162h-142
l-95 59l-95 -59h-142z" />
    <glyph glyph-name="ccircumflex" unicode="&#x109;" horiz-adv-x="647" 
d="M343 388q-63 0 -101 -34t-38 -90t38 -90t101 -34q48 0 83 25t49 67l170 -63q-22 -78 -105 -129.5t-196 -51.5q-145 0 -236 76.5t-91 199.5t91 199.5t236 76.5q114 0 196.5 -51.5t104.5 -130.5l-170 -62q-14 42 -49 67t-83 25zM248 718h180l132 -153h-140l-82 49l-82 -49
h-140z" />
    <glyph glyph-name="Cdotaccent" unicode="&#x10a;" horiz-adv-x="842" 
d="M446 560q-100 0 -164.5 -56t-64.5 -145t64.5 -145t164.5 -56q80 0 136 38.5t79 106.5l179 -80q-42 -112 -145 -173.5t-249 -61.5q-187 0 -308 105t-121 266t121 266t308 105q146 0 249 -61.5t145 -173.5l-179 -80q-23 68 -79 106.5t-136 38.5zM543 755h-204v155h204v-155
z" />
    <glyph glyph-name="cdotaccent" unicode="&#x10b;" horiz-adv-x="647" 
d="M343 388q-63 0 -101 -34t-38 -90t38 -90t101 -34q48 0 83 25t49 67l170 -63q-22 -78 -105 -129.5t-196 -51.5q-145 0 -236 76.5t-91 199.5t91 199.5t236 76.5q114 0 196.5 -51.5t104.5 -130.5l-170 -62q-14 42 -49 67t-83 25zM434 570h-192v148h192v-148z" />
    <glyph glyph-name="Ccaron" unicode="&#x10c;" horiz-adv-x="842" 
d="M446 560q-100 0 -164.5 -56t-64.5 -145t64.5 -145t164.5 -56q80 0 136 38.5t79 106.5l179 -80q-42 -112 -145 -173.5t-249 -61.5q-187 0 -308 105t-121 266t121 266t308 105q146 0 249 -61.5t145 -173.5l-179 -80q-23 68 -79 106.5t-136 38.5zM680 918l-140 -162h-194
l-140 162h142l95 -59l95 59h142z" />
    <glyph glyph-name="ccaron" unicode="&#x10d;" horiz-adv-x="647" 
d="M343 388q-63 0 -101 -34t-38 -90t38 -90t101 -34q48 0 83 25t49 67l170 -63q-22 -78 -105 -129.5t-196 -51.5q-145 0 -236 76.5t-91 199.5t91 199.5t236 76.5q114 0 196.5 -51.5t104.5 -130.5l-170 -62q-14 42 -49 67t-83 25zM560 718l-132 -153h-180l-132 153h140
l82 -49l82 49h140z" />
    <glyph glyph-name="Dcaron" unicode="&#x10e;" horiz-adv-x="867" 
d="M427 0h-378v718h378q195 0 308.5 -96.5t113.5 -262.5t-113.5 -262.5t-308.5 -96.5zM241 553v-388h186q106 0 166.5 52t60.5 142q0 91 -60.5 142.5t-167.5 51.5h-185zM632 918l-140 -162h-194l-140 162h142l95 -59l95 59h142z" />
    <glyph glyph-name="dcaron" unicode="&#x10f;" horiz-adv-x="713" 
d="M299 -12q-127 0 -204.5 77t-77.5 199t77.5 199t204.5 77q57 0 105.5 -18t75.5 -49v245h190v-718h-190v55q-27 -31 -75.5 -49t-105.5 -18zM485 261v6q0 53 -40 87.5t-100 34.5q-62 0 -101.5 -34t-39.5 -91t39.5 -91t101.5 -34q60 0 100 34.5t40 87.5zM835 546h-128l21 172
h196z" />
    <glyph glyph-name="Dcroat" unicode="&#x110;" horiz-adv-x="907" 
d="M467 0h-378v282h-81v165h81v271h378q195 0 308.5 -96.5t113.5 -262.5t-113.5 -262.5t-308.5 -96.5zM281 282v-117h186q106 0 166.5 52t60.5 142q0 91 -60.5 142.5t-167.5 51.5h-185v-106h149v-165h-149z" />
    <glyph glyph-name="dcroat" unicode="&#x111;" horiz-adv-x="739" 
d="M299 -12q-127 0 -204.5 77t-77.5 199t77.5 199t204.5 77q57 0 105.5 -18t75.5 -49v88h-115v116h115v41h190v-41h65v-116h-65v-561h-190v55q-27 -31 -75.5 -49t-105.5 -18zM485 261v6q0 53 -40 87.5t-100 34.5q-62 0 -101.5 -34t-39.5 -91t39.5 -91t101.5 -34
q60 0 100 34.5t40 87.5z" />
    <glyph glyph-name="Emacron" unicode="&#x112;" horiz-adv-x="772" 
d="M49 0v718h698v-166h-506v-107h449v-162h-449v-117h506v-166h-698zM602 895v-137h-410v137h410z" />
    <glyph glyph-name="emacron" unicode="&#x113;" horiz-adv-x="674" 
d="M346 -12q-146 0 -237.5 77t-91.5 200q0 119 92.5 197t234.5 78q141 0 226.5 -77.5t85.5 -198.5v-46h-451q13 -40 49.5 -62t90.5 -22q45 0 79 17.5t49 48.5l175 -51q-30 -74 -113 -117.5t-189 -43.5zM340 398q-47 0 -81.5 -20t-50.5 -56h254q-5 32 -39 54t-83 22zM526 710
v-136h-376v136h376z" />
    <glyph glyph-name="Ebreve" unicode="&#x114;" horiz-adv-x="772" 
d="M49 0v718h698v-166h-506v-107h449v-162h-449v-117h506v-166h-698zM397 872q34 0 56 12.5t22 32.5h133q0 -76 -57 -122t-154 -46t-154 46t-57 122h133q0 -20 22 -32.5t56 -12.5z" />
    <glyph glyph-name="ebreve" unicode="&#x115;" horiz-adv-x="674" 
d="M346 -12q-146 0 -237.5 77t-91.5 200q0 119 92.5 197t234.5 78q141 0 226.5 -77.5t85.5 -198.5v-46h-451q13 -40 49.5 -62t90.5 -22q45 0 79 17.5t49 48.5l175 -51q-30 -74 -113 -117.5t-189 -43.5zM340 398q-47 0 -81.5 -20t-50.5 -56h254q-5 32 -39 54t-83 22zM339 676
q34 0 52 10.5t20 31.5h129q-2 -77 -52 -116t-149 -39q-99 1 -149 39.5t-52 115.5h129q2 -21 20 -31.5t52 -10.5z" />
    <glyph glyph-name="Edotaccent" unicode="&#x116;" horiz-adv-x="772" 
d="M49 0v718h698v-166h-506v-107h449v-162h-449v-117h506v-166h-698zM499 755h-204v155h204v-155z" />
    <glyph glyph-name="edotaccent" unicode="&#x117;" horiz-adv-x="674" 
d="M346 -12q-146 0 -237.5 77t-91.5 200q0 119 92.5 197t234.5 78q141 0 226.5 -77.5t85.5 -198.5v-46h-451q13 -40 49.5 -62t90.5 -22q45 0 79 17.5t49 48.5l175 -51q-30 -74 -113 -117.5t-189 -43.5zM340 398q-47 0 -81.5 -20t-50.5 -56h254q-5 32 -39 54t-83 22zM433 570
h-192v148h192v-148z" />
    <glyph glyph-name="Eogonek" unicode="&#x118;" horiz-adv-x="772" 
d="M588 -181q-65 0 -105.5 25t-40.5 67q0 28 13.5 50t41.5 39h-448v718h698v-166h-506v-107h449v-162h-449v-117h506v-166h-76q-62 -15 -85 -26t-23 -25q0 -12 14.5 -19t40.5 -7q11 0 24 1.5t29 4.5v-101q-24 -5 -44.5 -7t-38.5 -2z" />
    <glyph glyph-name="eogonek" unicode="&#x119;" horiz-adv-x="674" 
d="M507 19q-40 -18 -54.5 -30.5t-14.5 -28.5q0 -18 15 -27.5t44 -9.5q11 0 24 1.5t29 4.5v-101q-24 -5 -44.5 -7t-38.5 -2q-65 0 -105.5 27.5t-40.5 74.5q0 20 6.5 37t19.5 30h-1q-146 0 -237.5 77t-91.5 200q0 119 92.5 197t234.5 78q141 0 226.5 -77.5t85.5 -198.5v-46
h-451q13 -40 48.5 -62t86.5 -22q48 0 82.5 17t50.5 49l175 -51q-17 -42 -52.5 -74.5t-88.5 -55.5zM340 398q-47 0 -81.5 -20t-49.5 -56h253q-5 30 -40.5 53t-81.5 23z" />
    <glyph glyph-name="Ecaron" unicode="&#x11a;" horiz-adv-x="772" 
d="M49 0v718h698v-166h-506v-107h449v-162h-449v-117h506v-166h-698zM634 918l-140 -162h-194l-140 162h142l95 -59l95 59h142z" />
    <glyph glyph-name="ecaron" unicode="&#x11b;" horiz-adv-x="674" 
d="M346 -12q-146 0 -237.5 77t-91.5 200q0 119 92.5 197t234.5 78q141 0 226.5 -77.5t85.5 -198.5v-46h-451q13 -40 49.5 -62t90.5 -22q45 0 79 17.5t49 48.5l175 -51q-30 -74 -113 -117.5t-189 -43.5zM340 398q-47 0 -81.5 -20t-50.5 -56h254q-5 32 -39 54t-83 22zM561 718
l-132 -153h-180l-132 153h140l82 -49l82 49h140z" />
    <glyph glyph-name="Gcircumflex" unicode="&#x11c;" horiz-adv-x="902" 
d="M866 0h-182v62q-30 -32 -94.5 -53t-138.5 -21q-190 0 -312 105t-122 267t124 266t319 104q143 0 247.5 -60t146.5 -167l-189 -69q-23 61 -77.5 94t-134.5 33q-102 0 -168.5 -57t-66.5 -148q0 -89 65.5 -145t168.5 -56q80 0 140.5 27.5t76.5 71.5h-274v153h471v-407z
M364 917h194l140 -162h-142l-95 59l-95 -59h-142z" />
    <glyph glyph-name="gcircumflex" unicode="&#x11d;" horiz-adv-x="711" 
d="M668 528v-442q0 -126 -94.5 -198.5t-255.5 -72.5q-107 0 -187 33.5t-114 93.5l151 81q22 -32 60.5 -48.5t91.5 -16.5q69 0 113.5 29.5t44.5 79.5v13q-28 -30 -75.5 -47t-104.5 -17q-127 0 -204.5 72.5t-77.5 187.5q0 116 77.5 190t204.5 74q56 0 103.5 -17t76.5 -47v52
h190zM484 275v3q0 52 -40 84.5t-101 32.5q-62 0 -101 -32.5t-39 -86.5q0 -53 39.5 -86t100.5 -33t101 33t40 85zM271 718h180l132 -153h-140l-82 49l-82 -49h-140z" />
    <glyph glyph-name="Gbreve" unicode="&#x11e;" horiz-adv-x="902" 
d="M866 0h-182v62q-30 -32 -94.5 -53t-138.5 -21q-190 0 -312 105t-122 267t124 266t319 104q143 0 247.5 -60t146.5 -167l-189 -69q-23 61 -77.5 94t-134.5 33q-102 0 -168.5 -57t-66.5 -148q0 -89 65.5 -145t168.5 -56q80 0 140.5 27.5t76.5 71.5h-274v153h471v-407z
M461 872q34 0 56 12.5t22 32.5h133q0 -76 -57 -122t-154 -46t-154 46t-57 122h133q0 -20 22 -32.5t56 -12.5z" />
    <glyph glyph-name="gbreve" unicode="&#x11f;" horiz-adv-x="711" 
d="M668 528v-442q0 -126 -94.5 -198.5t-255.5 -72.5q-107 0 -187 33.5t-114 93.5l151 81q22 -32 60.5 -48.5t91.5 -16.5q69 0 113.5 29.5t44.5 79.5v13q-28 -30 -75.5 -47t-104.5 -17q-127 0 -204.5 72.5t-77.5 187.5q0 116 77.5 190t204.5 74q56 0 103.5 -17t76.5 -47v52
h190zM484 275v3q0 52 -40 84.5t-101 32.5q-62 0 -101 -32.5t-39 -86.5q0 -53 39.5 -86t100.5 -33t101 33t40 85zM357 676q34 0 52 10.5t20 31.5h129q-2 -77 -52 -116t-149 -39q-99 1 -149 39.5t-52 115.5h129q2 -21 20 -31.5t52 -10.5z" />
    <glyph glyph-name="Gdotaccent" unicode="&#x120;" horiz-adv-x="902" 
d="M866 0h-182v62q-30 -32 -94.5 -53t-138.5 -21q-190 0 -312 105t-122 267t124 266t319 104q143 0 247.5 -60t146.5 -167l-189 -69q-23 61 -77.5 94t-134.5 33q-102 0 -168.5 -57t-66.5 -148q0 -89 65.5 -145t168.5 -56q80 0 140.5 27.5t76.5 71.5h-274v153h471v-407z
M556 755h-204v155h204v-155z" />
    <glyph glyph-name="gdotaccent" unicode="&#x121;" horiz-adv-x="711" 
d="M668 528v-442q0 -126 -94.5 -198.5t-255.5 -72.5q-107 0 -187 33.5t-114 93.5l151 81q22 -32 60.5 -48.5t91.5 -16.5q69 0 113.5 29.5t44.5 79.5v13q-28 -30 -75.5 -47t-104.5 -17q-127 0 -204.5 72.5t-77.5 187.5q0 116 77.5 190t204.5 74q56 0 103.5 -17t76.5 -47v52
h190zM484 275v3q0 52 -40 84.5t-101 32.5q-62 0 -101 -32.5t-39 -86.5q0 -53 39.5 -86t100.5 -33t101 33t40 85zM458 570h-192v148h192v-148z" />
    <glyph glyph-name="uni0122" unicode="&#x122;" horiz-adv-x="902" 
d="M866 0h-182v62q-30 -32 -94.5 -53t-138.5 -21q-190 0 -312 105t-122 267t124 266t319 104q143 0 247.5 -60t146.5 -167l-189 -69q-23 61 -77.5 94t-134.5 33q-102 0 -168.5 -57t-66.5 -148q0 -89 65.5 -145t168.5 -56q80 0 140.5 27.5t76.5 71.5h-274v153h471v-407z
M416 -127h-63v97h190v-41q0 -77 -47.5 -115t-142.5 -38v65q29 0 44.5 7.5t18.5 24.5z" />
    <glyph glyph-name="uni0123" unicode="&#x123;" horiz-adv-x="711" 
d="M668 528v-442q0 -126 -94.5 -198.5t-255.5 -72.5q-107 0 -187 33.5t-114 93.5l151 81q22 -32 60.5 -48.5t91.5 -16.5q69 0 113.5 29.5t44.5 79.5v13q-28 -30 -75.5 -47t-104.5 -17q-127 0 -204.5 72.5t-77.5 187.5q0 116 77.5 190t204.5 74q56 0 103.5 -17t76.5 -47v52
h190zM484 275v3q0 52 -40 84.5t-101 32.5q-62 0 -101 -32.5t-39 -86.5q0 -53 39.5 -86t100.5 -33t101 33t40 85zM392 662h63v-97h-190v41q0 77 47.5 115t142.5 38v-65q-29 0 -44.5 -7.5t-18.5 -24.5z" />
    <glyph glyph-name="Hcircumflex" unicode="&#x124;" horiz-adv-x="884" 
d="M639 447v271h196v-718h-196v282h-394v-282h-196v718h196v-271h394zM342 917h194l140 -162h-142l-95 59l-95 -59h-142z" />
    <glyph glyph-name="hcircumflex" unicode="&#x125;" horiz-adv-x="694" 
d="M233 0h-190v718h190v-250q33 35 82 53.5t107 18.5q103 0 167.5 -63t64.5 -167v-310h-190v244q0 64 -28 97t-82 33q-58 0 -89.5 -34t-31.5 -97v-243zM246 917h194l140 -162h-142l-95 59l-95 -59h-142z" />
    <glyph glyph-name="Hbar" unicode="&#x126;" horiz-adv-x="952" 
d="M946 606v-161h-77v-445h-196v197h-395v-197h-195v445h-76v161h76v112h195v-112h395v112h196v-112h77zM278 445v-87h395v87h-395z" />
    <glyph glyph-name="hbar" unicode="&#x127;" horiz-adv-x="720" 
d="M259 0h-190v561h-65v118h65v39h190v-39h148v-118h-148v-93q33 35 82 53.5t107 18.5q103 0 167.5 -63t64.5 -167v-310h-190v244q0 64 -28 97t-82 33q-58 0 -89.5 -34t-31.5 -97v-243z" />
    <glyph glyph-name="Itilde" unicode="&#x128;" horiz-adv-x="294" 
d="M49 718h196v-718h-196v718zM48 941q23 0 45.5 -5.5t59.5 -22.5q26 -13 39 -16.5t24 -3.5q17 0 27 11.5t14 36.5h123q-2 -86 -38.5 -135.5t-98.5 -49.5q-23 0 -45.5 5.5t-59.5 22.5q-26 12 -39 15.5t-24 3.5q-17 0 -26.5 -11.5t-13.5 -35.5h-124q2 85 38.5 135t98.5 50z
" />
    <glyph glyph-name="itilde" unicode="&#x129;" horiz-adv-x="276" 
d="M43 528h190v-528h-190v528zM51 729q22 0 42.5 -5t51.5 -21q22 -11 33 -14t22 -3q15 0 23.5 10.5t12.5 32.5h112q-2 -76 -35 -120t-89 -44q-22 0 -42.5 5t-51.5 20q-22 11 -33.5 14t-21.5 3q-15 0 -23.5 -10t-12.5 -32h-112q2 75 35 119.5t89 44.5z" />
    <glyph glyph-name="Imacron" unicode="&#x12a;" horiz-adv-x="294" 
d="M49 718h196v-718h-196v718zM351 895v-137h-410v137h410z" />
    <glyph glyph-name="imacron" unicode="&#x12b;" horiz-adv-x="276" 
d="M43 528h190v-528h-190v528zM326 710v-136h-376v136h376z" />
    <glyph glyph-name="Ibreve" unicode="&#x12c;" horiz-adv-x="294" 
d="M49 718h196v-718h-196v718zM146 872q34 0 56 12.5t22 32.5h133q0 -76 -57 -122t-154 -46t-154 46t-57 122h133q0 -20 22 -32.5t56 -12.5z" />
    <glyph glyph-name="ibreve" unicode="&#x12d;" horiz-adv-x="276" 
d="M43 528h190v-528h-190v528zM138 676q34 0 52 10.5t20 31.5h129q-2 -77 -52 -116t-149 -39q-99 1 -149 39.5t-52 115.5h129q2 -21 20 -31.5t52 -10.5z" />
    <glyph glyph-name="Iogonek" unicode="&#x12e;" horiz-adv-x="294" 
d="M162 -181q-65 0 -105.5 25t-40.5 67q0 28 13.5 50t41.5 39h-22v718h196v-718q-62 -15 -85 -26t-23 -25q0 -12 14.5 -19t40.5 -7q11 0 24 1.5t29 4.5v-101q-24 -5 -44.5 -7t-38.5 -2z" />
    <glyph glyph-name="iogonek" unicode="&#x12f;" horiz-adv-x="294" 
d="M36 718h222v-159h-222v159zM14 -85q0 54 51 85h-29v530h222v-530q-57 -11 -82 -18.5t-25 -21.5q0 -11 14.5 -16.5t36.5 -5.5q23 0 56 6v-113q-50 -9 -89 -9q-30 0 -58 5t-49.5 16.5t-34.5 29t-13 42.5z" />
    <glyph glyph-name="Idotaccent" unicode="&#x130;" horiz-adv-x="294" 
d="M49 718h196v-718h-196v718zM248 755h-204v155h204v-155z" />
    <glyph glyph-name="dotlessi" unicode="&#x131;" horiz-adv-x="276" 
d="M43 528h190v-528h-190v528z" />
    <glyph glyph-name="Jcircumflex" unicode="&#x134;" horiz-adv-x="747" 
d="M353 -11q-124 0 -219.5 54t-133.5 145l174 109q19 -63 67 -99t114 -36q77 0 119 37.5t42 107.5v411h196v-429q0 -137 -97.5 -218.5t-261.5 -81.5zM516 917h194l140 -162h-142l-95 59l-95 -59h-142z" />
    <glyph glyph-name="jcircumflex" unicode="&#x135;" horiz-adv-x="276" 
d="M-36 -44q43 0 61 17t18 56v499h190v-504q0 -104 -62 -156t-186 -52q-33 0 -69 5.5t-57 13.5l27 133q22 -6 40.5 -9t37.5 -3zM47 718h180l132 -153h-140l-82 49l-82 -49h-140z" />
    <glyph glyph-name="uni0136" unicode="&#x136;" horiz-adv-x="856" 
d="M49 718h196v-303l334 303h267l-332 -298l357 -420h-249l-249 294l-128 -115v-179h-196v718zM389 -127h-63v97h190v-41q0 -77 -47.5 -115t-142.5 -38v65q29 0 44.5 7.5t18.5 24.5z" />
    <glyph glyph-name="uni0137" unicode="&#x137;" horiz-adv-x="696" 
d="M43 718h190v-385l219 195h252l-250 -214l254 -314h-231l-160 197l-84 -72v-125h-190v718zM321 -127h-63v97h190v-41q0 -77 -47.5 -115t-142.5 -38v65q29 0 44.5 7.5t18.5 24.5z" />
    <glyph glyph-name="kgreenlandic" unicode="&#x138;" horiz-adv-x="696" 
d="M43 528h190v-195l219 195h252l-250 -214l254 -314h-231l-160 197l-84 -72v-125h-190v528z" />
    <glyph glyph-name="Lacute" unicode="&#x139;" horiz-adv-x="720" 
d="M701 0h-652v718h196v-552h456v-166zM224 755h-165l103 162h252z" />
    <glyph glyph-name="lacute" unicode="&#x13a;" horiz-adv-x="276" 
d="M43 718h190v-718h-190v718zM216 755h-165l103 162h252z" />
    <glyph glyph-name="uni013B" unicode="&#x13b;" horiz-adv-x="720" 
d="M701 0h-652v718h196v-552h456v-166zM274 -127h-63v97h190v-41q0 -77 -47.5 -115t-142.5 -38v65q29 0 44.5 7.5t18.5 24.5z" />
    <glyph glyph-name="uni013C" unicode="&#x13c;" horiz-adv-x="276" 
d="M43 718h190v-718h-190v718zM106 -127h-63v97h190v-41q0 -77 -47.5 -115t-142.5 -38v65q29 0 44.5 7.5t18.5 24.5z" />
    <glyph glyph-name="Lcaron" unicode="&#x13d;" horiz-adv-x="720" 
d="M701 0h-652v718h196v-552h456v-166zM444 546h-128l21 172h196z" />
    <glyph glyph-name="lcaron" unicode="&#x13e;" horiz-adv-x="276" 
d="M43 718h190v-718h-190v718zM397 546h-128l21 172h196z" />
    <glyph glyph-name="Ldot" unicode="&#x13f;" horiz-adv-x="720" 
d="M701 0h-652v718h196v-552h456v-166zM602 309h-192v148h192v-148z" />
    <glyph glyph-name="ldot" unicode="&#x140;" horiz-adv-x="477" 
d="M43 718h190v-718h-190v718zM473 288h-192v148h192v-148z" />
    <glyph glyph-name="Lslash" unicode="&#x141;" horiz-adv-x="760" 
d="M746 0h-652v220l-90 -35v163l90 35v335h196v-272l211 78v-164l-211 -78v-116h456v-166z" />
    <glyph glyph-name="lslash" unicode="&#x142;" horiz-adv-x="387" 
d="M380 537v-166l-92 -47v-324h-190v239l-90 -48v166l90 46v315h190v-229z" />
    <glyph glyph-name="Nacute" unicode="&#x143;" horiz-adv-x="879" 
d="M639 718h191v-718h-173l-417 466v-466h-191v718h196l394 -442v442zM504 755h-165l103 162h252z" />
    <glyph glyph-name="nacute" unicode="&#x144;" horiz-adv-x="694" 
d="M233 0h-190v528h190v-60q33 35 82 53.5t107 18.5q103 0 167.5 -63t64.5 -167v-310h-190v244q0 64 -28 97t-82 33q-58 0 -89.5 -34t-31.5 -97v-243zM419 565h-156l92 153h232z" />
    <glyph glyph-name="uni0145" unicode="&#x145;" horiz-adv-x="879" 
d="M639 718h191v-718h-173l-417 466v-466h-191v718h196l394 -442v442zM405 -127h-63v97h190v-41q0 -77 -47.5 -115t-142.5 -38v65q29 0 44.5 7.5t18.5 24.5z" />
    <glyph glyph-name="uni0146" unicode="&#x146;" horiz-adv-x="694" 
d="M233 0h-190v528h190v-60q33 35 82 53.5t107 18.5q103 0 167.5 -63t64.5 -167v-310h-190v244q0 64 -28 97t-82 33q-58 0 -89.5 -34t-31.5 -97v-243zM316 -127h-63v97h190v-41q0 -77 -47.5 -115t-142.5 -38v65q29 0 44.5 7.5t18.5 24.5z" />
    <glyph glyph-name="Ncaron" unicode="&#x147;" horiz-adv-x="879" 
d="M639 718h191v-718h-173l-417 466v-466h-191v718h196l394 -442v442zM674 918l-140 -162h-194l-140 162h142l95 -59l95 59h142z" />
    <glyph glyph-name="ncaron" unicode="&#x148;" horiz-adv-x="694" 
d="M233 0h-190v528h190v-60q33 35 82 53.5t107 18.5q103 0 167.5 -63t64.5 -167v-310h-190v244q0 64 -28 97t-82 33q-58 0 -89.5 -34t-31.5 -97v-243zM578 718l-132 -153h-180l-132 153h140l82 -49l82 49h140z" />
    <glyph glyph-name="Eng" unicode="&#x14a;" horiz-adv-x="879" 
d="M639 276v442h191v-697q0 -103 -62 -154t-186 -51q-33 0 -68.5 5t-56.5 12l26 139q22 -6 41 -9t38 -3q37 0 57 15t20 42v3l-399 444v-464h-191v718h196z" />
    <glyph glyph-name="eng" unicode="&#x14b;" horiz-adv-x="694" 
d="M422 540q103 0 167.5 -63t64.5 -167v-286q0 -104 -62.5 -156t-185.5 -52q-34 0 -69.5 5t-55.5 12l25 139q23 -6 41.5 -9t37.5 -3q43 0 61 17t18 55v212q0 64 -28 97t-82 33q-58 0 -89.5 -34t-31.5 -97v-243h-190v528h190v-60q33 35 82 53.5t107 18.5z" />
    <glyph glyph-name="Omacron" unicode="&#x14c;" horiz-adv-x="897" 
d="M17 359q0 161 122 266t310 105q187 0 309 -105t122 -266t-122 -266t-309 -105q-188 0 -310 105t-122 266zM680 359q0 90 -64.5 145.5t-166.5 55.5t-166.5 -55.5t-64.5 -145.5t64.5 -145.5t166.5 -55.5t166.5 55.5t64.5 145.5zM654 895v-137h-410v137h410z" />
    <glyph glyph-name="omacron" unicode="&#x14d;" horiz-adv-x="685" 
d="M342 540q144 0 235 -76.5t91 -199.5t-91 -199.5t-235 -76.5q-142 0 -233.5 77t-91.5 199q0 123 91 199.5t234 76.5zM342 388q-61 0 -99.5 -34t-38.5 -90t38.5 -90t99.5 -34q62 0 100.5 34t38.5 90t-38.5 90t-100.5 34zM530 710v-136h-376v136h376z" />
    <glyph glyph-name="Obreve" unicode="&#x14e;" horiz-adv-x="897" 
d="M17 359q0 161 122 266t310 105q187 0 309 -105t122 -266t-122 -266t-309 -105q-188 0 -310 105t-122 266zM680 359q0 90 -64.5 145.5t-166.5 55.5t-166.5 -55.5t-64.5 -145.5t64.5 -145.5t166.5 -55.5t166.5 55.5t64.5 145.5zM449 872q34 0 56 12.5t22 32.5h133
q0 -76 -57 -122t-154 -46t-154 46t-57 122h133q0 -20 22 -32.5t56 -12.5z" />
    <glyph glyph-name="obreve" unicode="&#x14f;" horiz-adv-x="685" 
d="M342 540q144 0 235 -76.5t91 -199.5t-91 -199.5t-235 -76.5q-142 0 -233.5 77t-91.5 199q0 123 91 199.5t234 76.5zM342 388q-61 0 -99.5 -34t-38.5 -90t38.5 -90t99.5 -34q62 0 100.5 34t38.5 90t-38.5 90t-100.5 34zM342 676q34 0 52 10.5t20 31.5h129q-2 -77 -52 -116
t-149 -39q-99 1 -149 39.5t-52 115.5h129q2 -21 20 -31.5t52 -10.5z" />
    <glyph glyph-name="Ohungarumlaut" unicode="&#x150;" horiz-adv-x="897" 
d="M17 359q0 161 122 266t310 105q187 0 309 -105t122 -266t-122 -266t-309 -105q-188 0 -310 105t-122 266zM680 359q0 90 -64.5 145.5t-166.5 55.5t-166.5 -55.5t-64.5 -145.5t64.5 -145.5t166.5 -55.5t166.5 55.5t64.5 145.5zM646 755h-146l92 162h202zM395 755h-146
l89 162h205z" />
    <glyph glyph-name="ohungarumlaut" unicode="&#x151;" horiz-adv-x="685" 
d="M342 540q144 0 235 -76.5t91 -199.5t-91 -199.5t-235 -76.5q-142 0 -233.5 77t-91.5 199q0 123 91 199.5t234 76.5zM342 388q-61 0 -99.5 -34t-38.5 -90t38.5 -90t99.5 -34q62 0 100.5 34t38.5 90t-38.5 90t-100.5 34zM519 565h-145l89 153h197zM285 565h-145l89 153h198
z" />
    <glyph glyph-name="OE" unicode="&#x152;" horiz-adv-x="1311" 
d="M19 359q0 165 114 262t309 97h844v-166h-485v-107h428v-162h-428v-117h485v-166h-844q-195 0 -309 97t-114 262zM608 165v388h-166q-107 0 -167 -51.5t-60 -142.5q0 -90 60.5 -142t166.5 -52h166z" />
    <glyph glyph-name="oe" unicode="&#x153;" horiz-adv-x="1135" 
d="M808 -8q-69 0 -128.5 20.5t-103.5 59.5q-44 -41 -104.5 -62.5t-131.5 -21.5q-141 0 -232 77t-91 199q0 123 90.5 199.5t232.5 76.5q70 0 130 -21t103 -60q44 41 104.5 63t131.5 22q140 0 224.5 -77.5t84.5 -198.5v-46h-452q13 -40 48.5 -62t86.5 -22q48 0 83 18t50 51
l176 -51q-31 -75 -113.5 -119.5t-188.5 -44.5zM802 402q-47 0 -81.5 -19.5t-50.5 -55.5h253q-5 30 -40 52.5t-81 22.5zM204 264q0 -56 38.5 -90t99.5 -34q62 0 100.5 34t38.5 90t-39 90t-102 34q-60 0 -98 -34t-38 -90z" />
    <glyph glyph-name="Racute" unicode="&#x154;" horiz-adv-x="825" 
d="M440 238h-195v-238h-196v718h464q135 0 212.5 -64t77.5 -176q0 -78 -41.5 -135t-116.5 -84l174 -259h-225zM245 554v-161h258q50 0 78.5 21.5t28.5 58.5q0 39 -28 60t-79 21h-258zM478 755h-165l103 162h252z" />
    <glyph glyph-name="racute" unicode="&#x155;" horiz-adv-x="492" 
d="M423 531q13 0 25 -1t33 -3v-182q-24 4 -36.5 5t-29.5 1q-90 0 -136 -38t-46 -113v-200h-190v528h190v-88q34 48 79.5 69.5t110.5 21.5zM312 565h-156l92 153h232z" />
    <glyph glyph-name="uni0156" unicode="&#x156;" horiz-adv-x="825" 
d="M440 238h-195v-238h-196v718h464q135 0 212.5 -64t77.5 -176q0 -78 -41.5 -135t-116.5 -84l174 -259h-225zM245 554v-161h258q50 0 78.5 21.5t28.5 58.5q0 39 -28 60t-79 21h-258zM373 -127h-63v97h190v-41q0 -77 -47.5 -115t-142.5 -38v65q29 0 44.5 7.5t18.5 24.5z" />
    <glyph glyph-name="uni0157" unicode="&#x157;" horiz-adv-x="492" 
d="M423 531q13 0 25 -1t33 -3v-182q-24 4 -36.5 5t-29.5 1q-90 0 -136 -38t-46 -113v-200h-190v528h190v-88q34 48 79.5 69.5t110.5 21.5zM106 -127h-63v97h190v-41q0 -77 -47.5 -115t-142.5 -38v65q29 0 44.5 7.5t18.5 24.5z" />
    <glyph glyph-name="Rcaron" unicode="&#x158;" horiz-adv-x="825" 
d="M440 238h-195v-238h-196v718h464q135 0 212.5 -64t77.5 -176q0 -78 -41.5 -135t-116.5 -84l174 -259h-225zM245 554v-161h258q50 0 78.5 21.5t28.5 58.5q0 39 -28 60t-79 21h-258zM636 918l-140 -162h-194l-140 162h142l95 -59l95 59h142z" />
    <glyph glyph-name="rcaron" unicode="&#x159;" horiz-adv-x="492" 
d="M423 531q13 0 25 -1t33 -3v-182q-24 4 -36.5 5t-29.5 1q-90 0 -136 -38t-46 -113v-200h-190v528h190v-88q34 48 79.5 69.5t110.5 21.5zM478 718l-132 -153h-180l-132 153h140l82 -49l82 49h140z" />
    <glyph glyph-name="Sacute" unicode="&#x15a;" horiz-adv-x="795" 
d="M400 -12q-124 0 -243.5 36.5t-174.5 92.5l115 148q56 -55 139 -84.5t176 -29.5q76 0 119.5 16.5t43.5 45.5q0 24 -22 36.5t-83 20.5l-31.5 4.5t-100.5 11.5q-167 17 -237 66t-70 137q0 111 97 176t262 65q117 0 220.5 -32t161.5 -86l-115 -137q-46 43 -121.5 68.5
t-160.5 25.5q-70 0 -108 -15.5t-38 -44.5q0 -24 36 -36t185 -28q190 -22 262 -71.5t72 -139.5q0 -117 -101.5 -181.5t-282.5 -64.5zM475 755h-165l103 162h252z" />
    <glyph glyph-name="sacute" unicode="&#x15b;" horiz-adv-x="611" 
d="M291 -12q-87 0 -168 22.5t-127 59.5l69 128q52 -36 116 -55t131 -19q50 0 74.5 8t24.5 25q0 12 -15 18t-62 12q-6 1 -36.5 4t-51.5 6q-127 16 -176 52.5t-49 103.5q0 87 77 137t210 50q84 0 157.5 -20t124.5 -57l-88 -113q-41 28 -93 42.5t-111 14.5q-41 0 -63.5 -8.5
t-22.5 -23.5q0 -12 17.5 -18t126.5 -18q139 -16 193.5 -54t54.5 -107q0 -91 -82 -140.5t-231 -49.5zM390 565h-156l92 153h232z" />
    <glyph glyph-name="Scircumflex" unicode="&#x15c;" horiz-adv-x="795" 
d="M400 -12q-124 0 -243.5 36.5t-174.5 92.5l115 148q56 -55 139 -84.5t176 -29.5q76 0 119.5 16.5t43.5 45.5q0 24 -22 36.5t-83 20.5l-31.5 4.5t-100.5 11.5q-167 17 -237 66t-70 137q0 111 97 176t262 65q117 0 220.5 -32t161.5 -86l-115 -137q-46 43 -121.5 68.5
t-160.5 25.5q-70 0 -108 -15.5t-38 -44.5q0 -24 36 -36t185 -28q190 -22 262 -71.5t72 -139.5q0 -117 -101.5 -181.5t-282.5 -64.5zM290 917h194l140 -162h-142l-95 59l-95 -59h-142z" />
    <glyph glyph-name="scircumflex" unicode="&#x15d;" horiz-adv-x="611" 
d="M291 -12q-87 0 -168 22.5t-127 59.5l69 128q52 -36 116 -55t131 -19q50 0 74.5 8t24.5 25q0 12 -15 18t-62 12q-6 1 -36.5 4t-51.5 6q-127 16 -176 52.5t-49 103.5q0 87 77 137t210 50q84 0 157.5 -20t124.5 -57l-88 -113q-41 28 -93 42.5t-111 14.5q-41 0 -63.5 -8.5
t-22.5 -23.5q0 -12 17.5 -18t126.5 -18q139 -16 193.5 -54t54.5 -107q0 -91 -82 -140.5t-231 -49.5zM220 718h180l132 -153h-140l-82 49l-82 -49h-140z" />
    <glyph glyph-name="Scedilla" unicode="&#x15e;" horiz-adv-x="795" 
d="M-18 117l115 148q56 -55 139 -84.5t176 -29.5q76 0 119.5 16.5t43.5 45.5q0 24 -22 36.5t-83 20.5l-31.5 4.5t-100.5 11.5q-167 17 -237 66t-70 137q0 111 97 176t262 65q117 0 220.5 -32t161.5 -86l-115 -137q-46 43 -121.5 68.5t-160.5 25.5q-70 0 -108 -15.5
t-38 -44.5q0 -24 36 -36t185 -28q190 -22 262 -71.5t72 -139.5q0 -116 -99.5 -180t-277.5 -66l-2 -8q60 -2 93.5 -22t33.5 -56q0 -39 -42.5 -63t-109.5 -24q-43 0 -81.5 9.5t-62.5 26.5l46 72q17 -12 39.5 -18.5t45.5 -6.5q20 0 31 5t11 14q0 12 -24 18t-71 5l16 51
q-110 10 -205.5 44t-142.5 82z" />
    <glyph glyph-name="scedilla" unicode="&#x15f;" horiz-adv-x="611" 
d="M-4 70l69 128q52 -36 116 -55t131 -19q50 0 74.5 8t24.5 25q0 12 -15 18t-62 12q-6 1 -36.5 4t-51.5 6q-127 16 -176 52.5t-49 103.5q0 87 77 137t210 50q84 0 157.5 -20t124.5 -57l-88 -113q-41 28 -93 42.5t-111 14.5q-41 0 -63.5 -8.5t-22.5 -23.5q0 -12 17.5 -18
t126.5 -18q139 -16 193.5 -54t54.5 -107q0 -88 -76 -137t-215 -53l-2 -8q60 -2 93.5 -22t33.5 -56q0 -39 -42.5 -63t-109.5 -24q-43 0 -81.5 9.5t-62.5 26.5l46 72q17 -12 39.5 -18.5t45.5 -6.5q20 0 31 5t11 14q0 12 -24 18t-71 5l15 50q-75 7 -138 28t-101 52z" />
    <glyph glyph-name="Scaron" unicode="&#x160;" horiz-adv-x="795" 
d="M400 -12q-124 0 -243.5 36.5t-174.5 92.5l115 148q56 -55 139 -84.5t176 -29.5q76 0 119.5 16.5t43.5 45.5q0 24 -22 36.5t-83 20.5l-31.5 4.5t-100.5 11.5q-167 17 -237 66t-70 137q0 111 97 176t262 65q117 0 220.5 -32t161.5 -86l-115 -137q-46 43 -121.5 68.5
t-160.5 25.5q-70 0 -108 -15.5t-38 -44.5q0 -24 36 -36t185 -28q190 -22 262 -71.5t72 -139.5q0 -117 -101.5 -181.5t-282.5 -64.5zM631 918l-140 -162h-194l-140 162h142l95 -59l95 59h142z" />
    <glyph glyph-name="scaron" unicode="&#x161;" horiz-adv-x="611" 
d="M291 -12q-87 0 -168 22.5t-127 59.5l69 128q52 -36 116 -55t131 -19q50 0 74.5 8t24.5 25q0 12 -15 18t-62 12q-6 1 -36.5 4t-51.5 6q-127 16 -176 52.5t-49 103.5q0 87 77 137t210 50q84 0 157.5 -20t124.5 -57l-88 -113q-41 28 -93 42.5t-111 14.5q-41 0 -63.5 -8.5
t-22.5 -23.5q0 -12 17.5 -18t126.5 -18q139 -16 193.5 -54t54.5 -107q0 -91 -82 -140.5t-231 -49.5zM531 718l-132 -153h-180l-132 153h140l82 -49l82 49h140z" />
    <glyph glyph-name="uni0162" unicode="&#x162;" horiz-adv-x="833" 
d="M570 -98q0 -39 -42.5 -63t-109.5 -24q-43 0 -81.5 9.5t-62.5 26.5l46 72q17 -12 39.5 -18.5t45.5 -6.5q20 0 31 5t11 14q0 12 -24 18t-71 5l18 60h-51v552h-302v166h800v-166h-302v-552h-66l-6 -20q60 -2 93.5 -22t33.5 -56z" />
    <glyph glyph-name="uni0163" unicode="&#x163;" horiz-adv-x="534" 
d="M110 165v209h-110v154h110v140h187v-140h208v-154h-208v-156q0 -35 20.5 -51.5t64.5 -16.5q28 0 57.5 5.5t56.5 15.5l35 -146q-45 -17 -96.5 -26t-109.5 -9h-9l-3 -10q60 -2 93.5 -22t33.5 -56q0 -39 -42.5 -63t-109.5 -24q-43 0 -81.5 9.5t-62.5 26.5l46 72
q17 -12 39.5 -18.5t45.5 -6.5q20 0 31 5t11 14q0 12 -24 18t-71 5l18 60q-63 16 -96.5 58.5t-33.5 106.5z" />
    <glyph glyph-name="Tcaron" unicode="&#x164;" horiz-adv-x="833" 
d="M817 718v-166h-302v-552h-196v552h-302v166h800zM653 918l-140 -162h-194l-140 162h142l95 -59l95 59h142z" />
    <glyph glyph-name="tcaron" unicode="&#x165;" horiz-adv-x="534" 
d="M325 -10q-102 0 -158.5 45.5t-56.5 129.5v209h-110v154h110v140h187v-140h208v-154h-208v-156q0 -35 20.5 -51.5t64.5 -16.5q28 0 57.5 5.5t56.5 15.5l35 -146q-45 -17 -96.5 -26t-109.5 -9zM461 566h-128l21 172h196z" />
    <glyph glyph-name="Tbar" unicode="&#x166;" horiz-adv-x="833" 
d="M681 433v-165h-166v-268h-196v268h-167v165h167v119h-302v166h800v-166h-302v-119h166z" />
    <glyph glyph-name="tbar" unicode="&#x167;" horiz-adv-x="534" 
d="M325 -10q-102 0 -158.5 45.5t-56.5 129.5v50h-110v134h110v46h-110v133h110v140h187v-140h208v-133h-208v-46h208v-134h-208v-3q0 -36 21 -52.5t66 -16.5q26 0 55.5 5.5t58.5 16.5l33 -140q-45 -17 -96.5 -26t-109.5 -9z" />
    <glyph glyph-name="Utilde" unicode="&#x168;" horiz-adv-x="832" 
d="M416 -11q-181 0 -281 87t-100 244v398h196v-379q0 -89 47 -134.5t138 -45.5t138 45.5t47 134.5v379h196v-398q0 -157 -100 -244t-281 -87zM321 941q23 0 45.5 -5.5t59.5 -22.5q26 -13 39 -16.5t24 -3.5q17 0 27 11.5t14 36.5h123q-2 -86 -38.5 -135.5t-98.5 -49.5
q-23 0 -45.5 5.5t-59.5 22.5q-26 12 -39 15.5t-24 3.5q-17 0 -26.5 -11.5t-13.5 -35.5h-124q2 85 38.5 135t98.5 50z" />
    <glyph glyph-name="utilde" unicode="&#x169;" horiz-adv-x="689" 
d="M456 528h190v-528h-190v60q-34 -35 -82 -53.5t-106 -18.5q-102 0 -165 62.5t-63 166.5v311h190v-262q0 -59 26.5 -88t80.5 -29q57 0 88 31t31 89v259zM258 729q22 0 42.5 -5t51.5 -21q22 -11 33 -14t22 -3q15 0 23.5 10.5t12.5 32.5h112q-2 -76 -35 -120t-89 -44
q-22 0 -42.5 5t-51.5 20q-22 11 -33.5 14t-21.5 3q-15 0 -23.5 -10t-12.5 -32h-112q2 75 35 119.5t89 44.5z" />
    <glyph glyph-name="Umacron" unicode="&#x16a;" horiz-adv-x="832" 
d="M416 -11q-181 0 -281 87t-100 244v398h196v-379q0 -89 47 -134.5t138 -45.5t138 45.5t47 134.5v379h196v-398q0 -157 -100 -244t-281 -87zM623 895v-137h-410v137h410z" />
    <glyph glyph-name="umacron" unicode="&#x16b;" horiz-adv-x="689" 
d="M456 528h190v-528h-190v60q-34 -35 -82 -53.5t-106 -18.5q-102 0 -165 62.5t-63 166.5v311h190v-262q0 -59 26.5 -88t80.5 -29q57 0 88 31t31 89v259zM532 710v-136h-376v136h376z" />
    <glyph glyph-name="Ubreve" unicode="&#x16c;" horiz-adv-x="832" 
d="M416 -11q-181 0 -281 87t-100 244v398h196v-379q0 -89 47 -134.5t138 -45.5t138 45.5t47 134.5v379h196v-398q0 -157 -100 -244t-281 -87zM418 872q34 0 56 12.5t22 32.5h133q0 -76 -57 -122t-154 -46t-154 46t-57 122h133q0 -20 22 -32.5t56 -12.5z" />
    <glyph glyph-name="ubreve" unicode="&#x16d;" horiz-adv-x="689" 
d="M456 528h190v-528h-190v60q-34 -35 -82 -53.5t-106 -18.5q-102 0 -165 62.5t-63 166.5v311h190v-262q0 -59 26.5 -88t80.5 -29q57 0 88 31t31 89v259zM344 676q34 0 52 10.5t20 31.5h129q-2 -77 -52 -116t-149 -39q-99 1 -149 39.5t-52 115.5h129q2 -21 20 -31.5
t52 -10.5z" />
    <glyph glyph-name="Uring" unicode="&#x16e;" horiz-adv-x="832" 
d="M416 -11q-181 0 -281 87t-100 244v398h196v-379q0 -89 47 -134.5t138 -45.5t138 45.5t47 134.5v379h196v-398q0 -157 -100 -244t-281 -87zM418 723q-65 0 -108 41t-43 100t43 100t108 41t108 -41t43 -100t-43 -100t-108 -41zM418 914q-21 0 -34.5 -14t-13.5 -36t13.5 -36
t34.5 -14t34.5 14t13.5 36t-13.5 36t-34.5 14z" />
    <glyph glyph-name="uring" unicode="&#x16f;" horiz-adv-x="689" 
d="M456 528h190v-528h-190v60q-34 -35 -82 -53.5t-106 -18.5q-102 0 -165 62.5t-63 166.5v311h190v-262q0 -59 26.5 -88t80.5 -29q57 0 88 31t31 89v259zM344 560q-52 0 -86.5 32.5t-34.5 80.5t34.5 81t86.5 33t86.5 -33t34.5 -81t-34.5 -80.5t-86.5 -32.5zM344 711
q-16 0 -26 -11t-10 -27t10 -26.5t26 -10.5t26.5 10.5t10.5 26.5t-10.5 27t-26.5 11z" />
    <glyph glyph-name="Uhungarumlaut" unicode="&#x170;" horiz-adv-x="832" 
d="M416 -11q-181 0 -281 87t-100 244v398h196v-379q0 -89 47 -134.5t138 -45.5t138 45.5t47 134.5v379h196v-398q0 -157 -100 -244t-281 -87zM605 755h-146l92 162h202zM354 755h-146l89 162h205z" />
    <glyph glyph-name="uhungarumlaut" unicode="&#x171;" horiz-adv-x="689" 
d="M456 528h190v-528h-190v60q-34 -35 -82 -53.5t-106 -18.5q-102 0 -165 62.5t-63 166.5v311h190v-262q0 -59 26.5 -88t80.5 -29q57 0 88 31t31 89v259zM520 565h-145l89 153h197zM286 565h-145l89 153h198z" />
    <glyph glyph-name="Uogonek" unicode="&#x172;" horiz-adv-x="834" 
d="M555 3q-61 -14 -85 -26t-24 -28q0 -12 14.5 -19t40.5 -7q11 0 24 1.5t30 4.5v-101q-25 -5 -45.5 -7t-38.5 -2q-65 0 -105 25t-40 68q0 24 9.5 44t27.5 35q-157 13 -241.5 98.5t-84.5 230.5v398h196v-379q0 -89 47 -134.5t138 -45.5t138 45.5t47 134.5v379h196v-398
q0 -125 -63 -207t-181 -110z" />
    <glyph glyph-name="uogonek" unicode="&#x173;" horiz-adv-x="689" 
d="M521 -181q-65 0 -105.5 25t-40.5 67q0 33 20 58.5t61 44.5v46q-34 -35 -82 -53.5t-106 -18.5q-102 0 -165 62.5t-63 166.5v311h190v-262q0 -59 26.5 -88t80.5 -29q57 0 88 31t31 89v259h190v-528h-42q-62 -15 -85 -26t-23 -25q0 -12 14.5 -19t40.5 -7q11 0 24 1.5t29 4.5
v-101q-24 -5 -44.5 -7t-38.5 -2z" />
    <glyph glyph-name="Wcircumflex" unicode="&#x174;" horiz-adv-x="1178" 
d="M352 245l146 473h188l145 -473l158 473h198l-242 -718h-211l-145 470l-146 -470h-210l-242 718h204zM499 917h194l140 -162h-142l-95 59l-95 -59h-142z" />
    <glyph glyph-name="wcircumflex" unicode="&#x175;" horiz-adv-x="983" 
d="M307 224l103 304h173l102 -304l109 304h196l-210 -528h-180l-108 309l-109 -309h-179l-211 528h205zM401 718h180l132 -153h-140l-82 49l-82 -49h-140z" />
    <glyph glyph-name="Ycircumflex" unicode="&#x176;" horiz-adv-x="882" 
d="M223 718l222 -268l221 268h226l-353 -431v-287h-196v287l-353 431h233zM345 917h194l140 -162h-142l-95 59l-95 -59h-142z" />
    <glyph glyph-name="ycircumflex" unicode="&#x177;" horiz-adv-x="697" 
d="M704 528l-257 -535q-47 -100 -106 -138.5t-159 -38.5q-32 0 -68 6.5t-59 15.5l29 144q20 -9 38.5 -14t36.5 -5q32 0 51 10t28 32l4 12l-249 511h213l149 -331l149 331h200zM258 718h180l132 -153h-140l-82 49l-82 -49h-140z" />
    <glyph glyph-name="Ydieresis" unicode="&#x178;" horiz-adv-x="882" 
d="M223 718l222 -268l221 268h226l-353 -431v-287h-196v287l-353 431h233zM406 755h-184v155h184v-155zM662 755h-184v155h184v-155z" />
    <glyph glyph-name="Zacute" unicode="&#x179;" horiz-adv-x="814" 
d="M318 166h463v-166h-749v146l459 406h-455v166h740v-145zM473 755h-165l103 162h252z" />
    <glyph glyph-name="zacute" unicode="&#x17a;" horiz-adv-x="646" 
d="M313 154h303v-154h-586v139l313 235h-309v154h580v-139zM386 565h-156l92 153h232z" />
    <glyph glyph-name="Zdotaccent" unicode="&#x17b;" horiz-adv-x="814" 
d="M318 166h463v-166h-749v146l459 406h-455v166h740v-145zM508 755h-204v155h204v-155z" />
    <glyph glyph-name="zdotaccent" unicode="&#x17c;" horiz-adv-x="646" 
d="M313 154h303v-154h-586v139l313 235h-309v154h580v-139zM419 570h-192v148h192v-148z" />
    <glyph glyph-name="Zcaron" unicode="&#x17d;" horiz-adv-x="814" 
d="M318 166h463v-166h-749v146l459 406h-455v166h740v-145zM643 918l-140 -162h-194l-140 162h142l95 -59l95 59h142z" />
    <glyph glyph-name="zcaron" unicode="&#x17e;" horiz-adv-x="646" 
d="M313 154h303v-154h-586v139l313 235h-309v154h580v-139zM545 718l-132 -153h-180l-132 153h140l82 -49l82 49h140z" />
    <glyph glyph-name="florin" unicode="&#x192;" horiz-adv-x="817" 
d="M498 306l-17 -90q-21 -116 -89.5 -172t-190.5 -56q-61 0 -112.5 14t-88.5 40l73 133q23 -15 51.5 -23.5t56.5 -8.5q43 0 69.5 20.5t34.5 60.5l15 82h-135v129h158l12 67q21 116 90 172t190 56q61 0 113.5 -14t88.5 -40l-73 -133q-21 15 -50 23.5t-58 8.5
q-44 0 -70.5 -20.5t-33.5 -60.5l-11 -59h159v-129h-182z" />
    <glyph glyph-name="AEacute" unicode="&#x1fc;" horiz-adv-x="1448" 
d="M-11 0l635 718h799v-166h-506v-107h449v-162h-449v-117h506v-166h-698v138h-365l-121 -138h-250zM725 554l-229 -261h229v261zM1071 755h-165l103 162h252z" />
    <glyph glyph-name="aeacute" unicode="&#x1fd;" horiz-adv-x="1089" 
d="M14 151q0 79 62 123t175 44h185v19q0 28 -26.5 44t-75.5 16q-46 0 -78.5 -15.5t-43.5 -42.5l-177 34q26 77 108.5 122t198.5 45q70 0 123 -17t87 -50q42 33 95.5 50t113.5 17q141 0 226 -77t85 -199v-49h-451q14 -38 49.5 -59.5t84.5 -21.5q48 0 83 17t50 48l176 -51
q-31 -73 -114 -116.5t-189 -43.5q-79 0 -143.5 24.5t-108.5 70.5q-42 -45 -108.5 -69.5t-148.5 -24.5q-110 0 -174 43.5t-64 118.5zM755 399q-49 0 -84 -21t-49 -60h262q-10 36 -45.5 58.5t-83.5 22.5zM198 169q0 -23 23 -36t64 -13q64 0 107.5 23.5t43.5 59.5v12h-155
q-42 0 -62.5 -11t-20.5 -35zM636 565h-156l92 153h232z" />
    <glyph glyph-name="Oslashacute" unicode="&#x1fe;" horiz-adv-x="897" 
d="M125 -30l-101 99l72 68q-39 47 -59 103.5t-20 118.5q0 161 122 266t309 105q70 0 133 -16t115 -46l75 72l101 -98l-68 -65q37 -46 56 -101t19 -116q0 -161 -121.5 -266t-309.5 -106q-67 0 -128 14.5t-114 43.5zM448 568q-110 0 -173 -55.5t-63 -153.5q0 -30 6.5 -56.5
t19.5 -48.5l320 295q-24 9 -51.5 14t-58.5 5zM448 150q110 1 173 56.5t63 152.5q0 27 -6 52.5t-18 48.5l-317 -292q23 -9 49.5 -13.5t55.5 -4.5zM516 755h-165l103 162h252z" />
    <glyph glyph-name="oslashacute" unicode="&#x1ff;" horiz-adv-x="685" 
d="M17 264q0 123 91 199.5t234 76.5q47 0 91 -9.5t82 -27.5l65 62l83 -83l-54 -51q29 -34 44 -76.5t15 -90.5q0 -122 -91.5 -199t-234.5 -77q-49 0 -92.5 9.5t-81.5 28.5l-63 -61l-83 83l53 50q-29 35 -43.5 77t-14.5 89zM342 400q-65 0 -106 -37.5t-41 -98.5q0 -16 3 -30.5
t9 -27.5l191 186q-13 4 -27.5 6t-28.5 2zM342 129q65 0 106.5 37t41.5 98q0 17 -3 31.5t-9 26.5l-191 -185q13 -4 27 -6t28 -2zM417 565h-156l92 153h232z" />
    <glyph glyph-name="uni0218" unicode="&#x218;" horiz-adv-x="795" 
d="M400 -12q-124 0 -243.5 36.5t-174.5 92.5l115 148q56 -55 139 -84.5t176 -29.5q76 0 119.5 16.5t43.5 45.5q0 24 -22 36.5t-83 20.5l-31.5 4.5t-100.5 11.5q-167 17 -237 66t-70 137q0 111 97 176t262 65q117 0 220.5 -32t161.5 -86l-115 -137q-46 43 -121.5 68.5
t-160.5 25.5q-70 0 -108 -15.5t-38 -44.5q0 -24 36 -36t185 -28q190 -22 262 -71.5t72 -139.5q0 -117 -101.5 -181.5t-282.5 -64.5zM347 -127h-63v97h190v-41q0 -77 -47.5 -115t-142.5 -38v65q29 0 44.5 7.5t18.5 24.5z" />
    <glyph glyph-name="uni0219" unicode="&#x219;" horiz-adv-x="611" 
d="M291 -12q-87 0 -168 22.5t-127 59.5l69 128q52 -36 116 -55t131 -19q50 0 74.5 8t24.5 25q0 12 -15 18t-62 12q-6 1 -36.5 4t-51.5 6q-127 16 -176 52.5t-49 103.5q0 87 77 137t210 50q84 0 157.5 -20t124.5 -57l-88 -113q-41 28 -93 42.5t-111 14.5q-41 0 -63.5 -8.5
t-22.5 -23.5q0 -12 17.5 -18t126.5 -18q139 -16 193.5 -54t54.5 -107q0 -91 -82 -140.5t-231 -49.5zM264 -127h-63v97h190v-41q0 -77 -47.5 -115t-142.5 -38v65q29 0 44.5 7.5t18.5 24.5z" />
    <glyph glyph-name="uni021A" unicode="&#x21a;" horiz-adv-x="833" 
d="M817 718v-166h-302v-552h-196v552h-302v166h800zM385 -127h-63v97h190v-41q0 -77 -47.5 -115t-142.5 -38v65q29 0 44.5 7.5t18.5 24.5z" />
    <glyph glyph-name="uni021B" unicode="&#x21b;" horiz-adv-x="534" 
d="M325 -10q-102 0 -158.5 45.5t-56.5 129.5v209h-110v154h110v140h187v-140h208v-154h-208v-156q0 -35 20.5 -51.5t64.5 -16.5q28 0 57.5 5.5t56.5 15.5l35 -146q-45 -17 -96.5 -26t-109.5 -9zM275 -127h-63v97h190v-41q0 -77 -47.5 -115t-142.5 -38v65q29 0 44.5 7.5
t18.5 24.5z" />
    <glyph glyph-name="uni0237" unicode="&#x237;" horiz-adv-x="276" 
d="M-36 -44q43 0 61 17t18 56v499h190v-504q0 -104 -62 -156t-186 -52q-33 0 -69 5.5t-57 13.5l27 133q22 -6 40.5 -9t37.5 -3z" />
    <glyph glyph-name="circumflex" unicode="&#x2c6;" 
d="M210 718h180l132 -153h-140l-82 49l-82 -49h-140z" />
    <glyph glyph-name="caron" unicode="&#x2c7;" 
d="M522 718l-132 -153h-180l-132 153h140l82 -49l82 49h140z" />
    <glyph glyph-name="breve" unicode="&#x2d8;" 
d="M300 676q34 0 52 10.5t20 31.5h129q-2 -77 -52 -116t-149 -39q-99 1 -149 39.5t-52 115.5h129q2 -21 20 -31.5t52 -10.5z" />
    <glyph glyph-name="dotaccent" unicode="&#x2d9;" 
d="M396 570h-192v148h192v-148z" />
    <glyph glyph-name="ring" unicode="&#x2da;" 
d="M300 560q-52 0 -86.5 32.5t-34.5 80.5t34.5 81t86.5 33t86.5 -33t34.5 -81t-34.5 -80.5t-86.5 -32.5zM300 711q-16 0 -26 -11t-10 -27t10 -26.5t26 -10.5t26.5 10.5t10.5 26.5t-10.5 27t-26.5 11z" />
    <glyph glyph-name="ogonek" unicode="&#x2db;" 
d="M303 -181q-65 0 -105.5 25t-40.5 67q0 50 45 82.5t145 54.5l39 -48q-62 -15 -85 -26t-23 -25q0 -12 14.5 -19t40.5 -7q11 0 24 1.5t29 4.5v-101q-24 -5 -44.5 -7t-38.5 -2z" />
    <glyph glyph-name="tilde" unicode="&#x2dc;" 
d="M213 729q22 0 42.5 -5t51.5 -21q22 -11 33 -14t22 -3q15 0 23.5 10.5t12.5 32.5h112q-2 -76 -35 -120t-89 -44q-22 0 -42.5 5t-51.5 20q-22 11 -33.5 14t-21.5 3q-15 0 -23.5 -10t-12.5 -32h-112q2 75 35 119.5t89 44.5z" />
    <glyph glyph-name="hungarumlaut" unicode="&#x2dd;" 
d="M422 565h-145l89 153h197zM188 565h-145l89 153h198z" />
    <glyph glyph-name="gravecmb" unicode="&#x300;" horiz-adv-x="0" 
d="M70 718l92 -153h-156l-168 153h232z" />
    <glyph glyph-name="acutecmb" unicode="&#x301;" horiz-adv-x="0" 
d="M-6 565h-156l92 153h232z" />
    <glyph glyph-name="uni0302" unicode="&#x302;" horiz-adv-x="0" 
d="M-90 718h180l132 -153h-140l-82 49l-82 -49h-140z" />
    <glyph glyph-name="tildecmb" unicode="&#x303;" horiz-adv-x="0" 
d="M-86 729q22 0 42.5 -5t51.5 -21q22 -11 33 -14t22 -3q15 0 23.5 10.5t12.5 32.5h112q-2 -76 -35 -120t-89 -44q-22 0 -42.5 5t-51.5 20q-22 11 -33.5 14t-21.5 3q-15 0 -23.5 -10t-12.5 -32h-112q2 75 35 119.5t89 44.5z" />
    <glyph glyph-name="uni0304" unicode="&#x304;" horiz-adv-x="0" 
d="M188 710v-136h-376v136h376z" />
    <glyph glyph-name="uni0306" unicode="&#x306;" horiz-adv-x="0" 
d="M0 676q34 0 52 10.5t20 31.5h129q-2 -77 -52 -116t-149 -39q-99 1 -149 39.5t-52 115.5h129q2 -21 20 -31.5t52 -10.5z" />
    <glyph glyph-name="uni0307" unicode="&#x307;" horiz-adv-x="0" 
d="M96 570h-192v148h192v-148z" />
    <glyph glyph-name="uni0308" unicode="&#x308;" horiz-adv-x="0" 
d="M-30 570h-184v148h184v-148zM214 570h-184v148h184v-148z" />
    <glyph glyph-name="uni030A" unicode="&#x30a;" horiz-adv-x="0" 
d="M0 560q-52 0 -86.5 32.5t-34.5 80.5t34.5 81t86.5 33t86.5 -33t34.5 -81t-34.5 -80.5t-86.5 -32.5zM0 711q-16 0 -26 -11t-10 -27t10 -26.5t26 -10.5t26.5 10.5t10.5 26.5t-10.5 27t-26.5 11z" />
    <glyph glyph-name="uni030B" unicode="&#x30b;" horiz-adv-x="0" 
d="M119 565h-145l89 153h197zM-115 565h-145l89 153h198z" />
    <glyph glyph-name="uni030C" unicode="&#x30c;" horiz-adv-x="0" 
d="M222 718l-132 -153h-180l-132 153h140l82 -49l82 49h140z" />
    <glyph glyph-name="uni0315" unicode="&#x315;" horiz-adv-x="0" 
d="M20 546h-128l21 172h196z" />
    <glyph glyph-name="uni0327" unicode="&#x327;" horiz-adv-x="0" 
d="M148 -98q0 -39 -42.5 -63t-109.5 -24q-43 0 -81.5 9.5t-62.5 26.5l46 72q17 -12 39.5 -18.5t45.5 -6.5q20 0 31 5t11 14q0 12 -24 18t-71 5l22 72h78l-9 -32q60 -2 93.5 -22t33.5 -56z" />
    <glyph glyph-name="uni0328" unicode="&#x328;" horiz-adv-x="0" 
d="M32 -181q-65 0 -105.5 25t-40.5 67q0 50 45 82.5t145 54.5l39 -48q-62 -15 -85 -26t-23 -25q0 -12 14.5 -19t40.5 -7q11 0 24 1.5t29 4.5v-101q-24 -5 -44.5 -7t-38.5 -2z" />
    <glyph glyph-name="Wgrave" unicode="&#x1e80;" horiz-adv-x="1178" 
d="M352 245l146 473h188l145 -473l158 473h198l-242 -718h-211l-145 470l-146 -470h-210l-242 718h204zM574 917l103 -162h-165l-190 162h252z" />
    <glyph glyph-name="wgrave" unicode="&#x1e81;" horiz-adv-x="983" 
d="M307 224l103 304h173l102 -304l109 304h196l-210 -528h-180l-108 309l-109 -309h-179l-211 528h205zM490 718l92 -153h-156l-168 153h232z" />
    <glyph glyph-name="Wacute" unicode="&#x1e82;" horiz-adv-x="1178" 
d="M352 245l146 473h188l145 -473l158 473h198l-242 -718h-211l-145 470l-146 -470h-210l-242 718h204zM669 755h-165l103 162h252z" />
    <glyph glyph-name="wacute" unicode="&#x1e83;" horiz-adv-x="983" 
d="M307 224l103 304h173l102 -304l109 304h196l-210 -528h-180l-108 309l-109 -309h-179l-211 528h205zM565 565h-156l92 153h232z" />
    <glyph glyph-name="Wdieresis" unicode="&#x1e84;" horiz-adv-x="1178" 
d="M352 245l146 473h188l145 -473l158 473h198l-242 -718h-211l-145 470l-146 -470h-210l-242 718h204zM553 755h-184v155h184v-155zM809 755h-184v155h184v-155z" />
    <glyph glyph-name="wdieresis" unicode="&#x1e85;" horiz-adv-x="983" 
d="M307 224l103 304h173l102 -304l109 304h196l-210 -528h-180l-108 309l-109 -309h-179l-211 528h205zM461 570h-184v148h184v-148zM705 570h-184v148h184v-148z" />
    <glyph glyph-name="Ygrave" unicode="&#x1ef2;" horiz-adv-x="882" 
d="M223 718l222 -268l221 268h226l-353 -431v-287h-196v287l-353 431h233zM443 917l103 -162h-165l-190 162h252z" />
    <glyph glyph-name="ygrave" unicode="&#x1ef3;" horiz-adv-x="697" 
d="M704 528l-257 -535q-47 -100 -106 -138.5t-159 -38.5q-32 0 -68 6.5t-59 15.5l29 144q20 -9 38.5 -14t36.5 -5q32 0 51 10t28 32l4 12l-249 511h213l149 -331l149 331h200zM351 718l92 -153h-156l-168 153h232z" />
    <glyph glyph-name="uni2009" unicode="&#x2009;" horiz-adv-x="100" 
 />
    <glyph glyph-name="endash" unicode="&#x2013;" horiz-adv-x="542" 
d="M502 216h-462v156h462v-156z" />
    <glyph glyph-name="emdash" unicode="&#x2014;" horiz-adv-x="976" 
d="M936 216h-896v156h896v-156z" />
    <glyph glyph-name="quoteleft" unicode="&#x2018;" horiz-adv-x="264" 
d="M163 562h75v-188h-213v176q0 79 57 123.5t156 44.5v-93q-38 -1 -56.5 -15.5t-18.5 -41.5v-6z" />
    <glyph glyph-name="quoteright" unicode="&#x2019;" horiz-adv-x="264" 
d="M101 530h-75v188h213v-176q0 -79 -57 -123.5t-156 -44.5v93q38 1 56.5 15.5t18.5 41.5v6z" />
    <glyph glyph-name="quotesinglbase" unicode="&#x201a;" horiz-adv-x="264" 
d="M101 12h-75v188h213v-176q0 -79 -57 -123.5t-156 -44.5v93q38 1 56.5 15.5t18.5 41.5v6z" />
    <glyph glyph-name="quotedblleft" unicode="&#x201c;" horiz-adv-x="521" 
d="M163 562h75v-188h-213v176q0 79 57 123.5t156 44.5v-93q-38 -1 -56.5 -15.5t-18.5 -41.5v-6zM420 562h75v-188h-213v176q0 79 57 123.5t156 44.5v-93q-38 -1 -56.5 -15.5t-18.5 -41.5v-6z" />
    <glyph glyph-name="quotedblright" unicode="&#x201d;" horiz-adv-x="521" 
d="M101 530h-75v188h213v-176q0 -79 -57 -123.5t-156 -44.5v93q38 1 56.5 15.5t18.5 41.5v6zM358 530h-75v188h213v-176q0 -79 -57 -123.5t-156 -44.5v93q38 1 56.5 15.5t18.5 41.5v6z" />
    <glyph glyph-name="quotedblbase" unicode="&#x201e;" horiz-adv-x="521" 
d="M358 12h-75v188h213v-176q0 -79 -57 -123.5t-156 -44.5v93q38 1 56.5 15.5t18.5 41.5v6zM101 12h-75v188h213v-176q0 -79 -57 -123.5t-156 -44.5v93q38 1 56.5 15.5t18.5 41.5v6z" />
    <glyph glyph-name="dagger" unicode="&#x2020;" horiz-adv-x="438" 
d="M287 273h-136v210h-138v132h138v123h136v-123h137v-132h-137v-210z" />
    <glyph glyph-name="daggerdbl" unicode="&#x2021;" horiz-adv-x="427" 
d="M286 273h-145v79h-126v121h126v66h-126v121h126v78h145v-78h125v-121h-125v-66h125v-121h-125v-79z" />
    <glyph glyph-name="bullet" unicode="&#x2022;" horiz-adv-x="453" 
d="M28 293q0 87 57 143.5t143 56.5q84 0 140 -56.5t56 -143.5q0 -84 -56.5 -140t-139.5 -56q-85 0 -142.5 56t-57.5 140z" />
    <glyph glyph-name="ellipsis" unicode="&#x2026;" horiz-adv-x="820" 
d="M245 0h-213v204h213v-204zM517 0h-213v204h213v-204zM789 0h-213v204h213v-204z" />
    <glyph glyph-name="guilsinglleft" unicode="&#x2039;" horiz-adv-x="350" 
d="M317 33l-284 149v156l284 149v-172l-106 -55l106 -55v-172z" />
    <glyph glyph-name="guilsinglright" unicode="&#x203a;" horiz-adv-x="350" 
d="M317 338v-156l-284 -149v172l106 55l-106 55v172z" />
    <glyph glyph-name="fraction" unicode="&#x2044;" horiz-adv-x="174" 
d="M-270 0l561 718h153l-560 -718h-154z" />
    <glyph glyph-name="uni2070" unicode="&#x2070;" horiz-adv-x="509" 
d="M254 313q-102 0 -167.5 58t-65.5 148t65.5 148t167.5 58q103 0 168.5 -58t65.5 -148t-65.5 -148t-168.5 -58zM254 616q-40 0 -65.5 -26.5t-25.5 -70.5t25.5 -70.5t65.5 -26.5t65.5 26.5t25.5 70.5t-25.5 70.5t-65.5 26.5z" />
    <glyph glyph-name="uni2074" unicode="&#x2074;" horiz-adv-x="479" 
d="M387 396v-76h-134v76h-240v91l199 231h175v-224h79v-98h-79zM253 615l-98 -121h98v121z" />
    <glyph glyph-name="uni2075" unicode="&#x2075;" horiz-adv-x="446" 
d="M223 498q-21 0 -40.5 -5.5t-34.5 -15.5l-127 14l31 227h358v-101h-250l-6 -49q22 10 47.5 15t54.5 5q83 0 130.5 -35t47.5 -96q0 -64 -59 -104t-151 -40q-78 0 -138 28t-87 79l122 45q14 -22 42 -35t62 -13q32 0 51.5 11t19.5 29q0 19 -19.5 30t-53.5 11z" />
    <glyph glyph-name="uni2076" unicode="&#x2076;" horiz-adv-x="492" 
d="M274 725q62 0 110 -16t82 -49l-72 -75q-25 19 -55.5 29t-63.5 10q-51 0 -83.5 -21t-32.5 -49q24 15 56 23t68 8q83 0 137.5 -36t54.5 -92q0 -66 -60.5 -105t-163.5 -39q-104 0 -166 54t-62 143q0 96 69 155.5t182 59.5zM250 412q38 0 60.5 11t22.5 30q0 20 -22.5 31.5
t-61.5 11.5q-38 0 -60.5 -11.5t-22.5 -31.5q0 -19 23 -30t61 -11z" />
    <glyph glyph-name="uni2077" unicode="&#x2077;" horiz-adv-x="469" 
d="M299 613h-169v-71h-117v176h442v-113q-75 -56 -111 -126t-36 -159h-145q0 88 34.5 162t101.5 131z" />
    <glyph glyph-name="uni2078" unicode="&#x2078;" horiz-adv-x="481" 
d="M32 602q0 55 59.5 89t149.5 34t149.5 -34t59.5 -89q0 -26 -13.5 -45t-42.5 -33q37 -13 54.5 -35t17.5 -55q0 -56 -61.5 -88.5t-163.5 -32.5t-164 32.5t-62 88.5q0 33 18 55t55 35q-29 14 -42.5 33t-13.5 45zM172 602q0 -15 18 -23.5t51 -8.5q32 0 50.5 8.5t18.5 23.5
t-18.5 23.5t-50.5 8.5q-33 0 -51 -8.5t-18 -23.5zM325 443q0 17 -21.5 26t-62.5 9t-62.5 -9t-21.5 -26t21.5 -25.5t62.5 -8.5t62.5 8.5t21.5 25.5z" />
    <glyph glyph-name="uni2079" unicode="&#x2079;" horiz-adv-x="492" 
d="M219 313q-63 0 -111 16t-82 49l72 75q25 -19 56 -29t63 -10q50 0 83 20.5t33 47.5q-26 -15 -57.5 -22.5t-66.5 -7.5q-83 0 -137 36.5t-54 92.5q0 66 60.5 105t163.5 39t165.5 -54t62.5 -143q0 -96 -69.5 -155.5t-181.5 -59.5zM242 626q-38 0 -60.5 -11.5t-22.5 -30.5
t23 -30.5t61 -11.5t60.5 11.5t22.5 30.5t-23 30.5t-61 11.5z" />
    <glyph glyph-name="uni2080" unicode="&#x2080;" horiz-adv-x="509" 
d="M254 -127q-102 0 -167.5 58t-65.5 148t65.5 148t167.5 58q103 0 168.5 -58t65.5 -148t-65.5 -148t-168.5 -58zM254 176q-40 0 -65.5 -26.5t-25.5 -70.5t25.5 -70.5t65.5 -26.5t65.5 26.5t25.5 70.5t-25.5 70.5t-65.5 26.5z" />
    <glyph glyph-name="uni2081" unicode="&#x2081;" horiz-adv-x="382" 
d="M136 -12v128h-115v96l39 1q51 2 76 16.5t32 47.5h107v-289h95v-108h-350v108h116z" />
    <glyph glyph-name="uni2082" unicode="&#x2082;" horiz-adv-x="457" 
d="M28 -120v88l157 89q65 36 81 51.5t16 32.5t-14 27t-39 10q-35 0 -59.5 -21t-29.5 -54l-123 23q8 70 68 114.5t153 44.5q84 0 136 -35.5t52 -95.5q0 -45 -27 -77t-93 -62l-58 -27h189v-108h-409z" />
    <glyph glyph-name="uni2083" unicode="&#x2083;" horiz-adv-x="488" 
d="M472 -5q0 -54 -61.5 -88t-162.5 -34q-87 0 -147 27t-99 83l113 56q18 -29 54 -46t79 -17q32 0 51 8.5t19 23.5q0 13 -17 19.5t-52 6.5h-74v92h67q37 0 53.5 6.5t16.5 21.5q0 13 -17 20t-48 7q-39 0 -70.5 -14t-48.5 -39l-107 52q32 50 94.5 77.5t144.5 27.5
q93 0 149.5 -33t56.5 -85q0 -28 -18 -50.5t-51 -34.5q38 -13 56.5 -34.5t18.5 -52.5z" />
    <glyph glyph-name="uni2084" unicode="&#x2084;" horiz-adv-x="479" 
d="M387 -44v-76h-134v76h-240v91l199 231h175v-224h79v-98h-79zM253 175l-98 -121h98v121z" />
    <glyph glyph-name="uni2085" unicode="&#x2085;" horiz-adv-x="446" 
d="M223 58q-21 0 -40.5 -5.5t-34.5 -15.5l-127 14l31 227h358v-101h-250l-6 -49q22 10 47.5 15t54.5 5q83 0 130.5 -35t47.5 -96q0 -64 -59 -104t-151 -40q-78 0 -138 28t-87 79l122 45q14 -22 42 -35t62 -13q32 0 51.5 11t19.5 29q0 19 -19.5 30t-53.5 11z" />
    <glyph glyph-name="uni2086" unicode="&#x2086;" horiz-adv-x="492" 
d="M274 285q62 0 110 -16t82 -49l-72 -75q-25 19 -55.5 29t-63.5 10q-51 0 -83.5 -21t-32.5 -49q24 15 56 23t68 8q83 0 137.5 -36t54.5 -92q0 -66 -60.5 -105t-163.5 -39q-104 0 -166 54t-62 143q0 96 69 155.5t182 59.5zM250 -28q38 0 60.5 11t22.5 30q0 20 -22.5 31.5
t-61.5 11.5q-38 0 -60.5 -11.5t-22.5 -31.5q0 -19 23 -30t61 -11z" />
    <glyph glyph-name="uni2087" unicode="&#x2087;" horiz-adv-x="469" 
d="M299 173h-169v-71h-117v176h442v-113q-75 -56 -111 -126t-36 -159h-145q0 88 34.5 162t101.5 131z" />
    <glyph glyph-name="uni2088" unicode="&#x2088;" horiz-adv-x="481" 
d="M32 162q0 55 59.5 89t149.5 34t149.5 -34t59.5 -89q0 -26 -13.5 -45t-42.5 -33q37 -13 54.5 -35t17.5 -55q0 -56 -61.5 -88.5t-163.5 -32.5t-164 32.5t-62 88.5q0 33 18 55t55 35q-29 14 -42.5 33t-13.5 45zM172 162q0 -15 18 -23.5t51 -8.5q32 0 50.5 8.5t18.5 23.5
t-18.5 23.5t-50.5 8.5q-33 0 -51 -8.5t-18 -23.5zM325 3q0 17 -21.5 26t-62.5 9t-62.5 -9t-21.5 -26t21.5 -25.5t62.5 -8.5t62.5 8.5t21.5 25.5z" />
    <glyph glyph-name="uni2089" unicode="&#x2089;" horiz-adv-x="492" 
d="M219 -127q-63 0 -111 16t-82 49l72 75q25 -19 56 -29t63 -10q50 0 83 20.5t33 47.5q-26 -15 -57.5 -22.5t-66.5 -7.5q-83 0 -137 36.5t-54 92.5q0 66 60.5 105t163.5 39t165.5 -54t62.5 -143q0 -96 -69.5 -155.5t-181.5 -59.5zM242 186q-38 0 -60.5 -11.5t-22.5 -30.5
t23 -30.5t61 -11.5t60.5 11.5t22.5 30.5t-23 30.5t-61 11.5z" />
    <glyph glyph-name="Euro" unicode="&#x20ac;" horiz-adv-x="886" 
d="M120 233h-103v107h81v19v13t1 8h-82v108h105q42 110 147.5 176t241.5 66t233.5 -58t135.5 -160l-162 -80q-25 64 -79 99.5t-130 35.5q-57 0 -105 -20.5t-79 -58.5h233l-24 -108h-252q-1 -4 -1 -8v-13v-12t1 -7h242l-24 -107h-178q31 -39 80 -60.5t107 -21.5
q76 0 130 35.5t79 99.5l162 -80q-38 -102 -135.5 -160t-233.5 -58q-137 0 -243 66.5t-148 178.5z" />
    <glyph glyph-name="trademark" unicode="&#x2122;" horiz-adv-x="985" 
d="M274 605v-239h-128v239h-126v113h380v-113h-126zM828 570l-96 -204h-69l-96 204v-204h-117v352h167l82 -168l81 168h166v-352h-118v204z" />
    <glyph glyph-name="uni2153" unicode="&#x2153;" horiz-adv-x="1089" 
d="M370 320h-350v108h116v128h-115v96l39 1q51 2 76 16.5t32 47.5h107v-289h95v-108zM158 0l561 718h153l-560 -718h-154zM1073 115q0 -54 -61.5 -88t-162.5 -34q-87 0 -147 27t-99 83l113 56q18 -29 54 -46t79 -17q32 0 51 8.5t19 23.5q0 13 -17 19.5t-52 6.5h-74v92h67
q37 0 53.5 6.5t16.5 21.5q0 13 -17 20t-48 7q-39 0 -70.5 -14t-48.5 -39l-107 52q32 50 94.5 77.5t144.5 27.5q93 0 149.5 -33t56.5 -85q0 -28 -18 -50.5t-51 -34.5q38 -13 56.5 -34.5t18.5 -52.5z" />
    <glyph glyph-name="uni2154" unicode="&#x2154;" horiz-adv-x="1158" 
d="M21 320v88l157 89q65 36 81 51.5t16 32.5t-14 27t-39 10q-35 0 -59.5 -21t-29.5 -54l-123 23q8 70 68 114.5t153 44.5q84 0 136 -35.5t52 -95.5q0 -45 -27 -77t-93 -62l-58 -27h189v-108h-409zM226 0l561 718h153l-560 -718h-154zM1142 115q0 -54 -61.5 -88t-162.5 -34
q-87 0 -147 27t-99 83l113 56q18 -29 54 -46t79 -17q32 0 51 8.5t19 23.5q0 13 -17 19.5t-52 6.5h-74v92h67q37 0 53.5 6.5t16.5 21.5q0 13 -17 20t-48 7q-39 0 -70.5 -14t-48.5 -39l-107 52q32 50 94.5 77.5t144.5 27.5q93 0 149.5 -33t56.5 -85q0 -28 -18 -50.5t-51 -34.5
q38 -13 56.5 -34.5t18.5 -52.5z" />
    <glyph glyph-name="uni215B" unicode="&#x215b;" horiz-adv-x="1083" 
d="M370 320h-350v108h116v128h-115v96l39 1q51 2 76 16.5t32 47.5h107v-289h95v-108zM158 0l561 718h153l-560 -718h-154zM633 282q0 55 59.5 89t149.5 34t149.5 -34t59.5 -89q0 -26 -13.5 -45t-42.5 -33q37 -13 54.5 -35t17.5 -55q0 -56 -61.5 -88.5t-163.5 -32.5
t-164 32.5t-62 88.5q0 33 18 55t55 35q-29 14 -42.5 33t-13.5 45zM773 282q0 -15 18 -23.5t51 -8.5q32 0 50.5 8.5t18.5 23.5t-18.5 23.5t-50.5 8.5q-33 0 -51 -8.5t-18 -23.5zM926 123q0 17 -21.5 26t-62.5 9t-62.5 -9t-21.5 -26t21.5 -25.5t62.5 -8.5t62.5 8.5t21.5 25.5z
" />
    <glyph glyph-name="uni215C" unicode="&#x215c;" horiz-adv-x="1143" 
d="M472 435q0 -54 -61.5 -88t-162.5 -34q-87 0 -147 27t-99 83l113 56q18 -29 54 -46t79 -17q32 0 51 8.5t19 23.5q0 13 -17 19.5t-52 6.5h-74v92h67q37 0 53.5 6.5t16.5 21.5q0 13 -17 20t-48 7q-39 0 -70.5 -14t-48.5 -39l-107 52q32 50 94.5 77.5t144.5 27.5
q93 0 149.5 -33t56.5 -85q0 -28 -18 -50.5t-51 -34.5q38 -13 56.5 -34.5t18.5 -52.5zM218 0l561 718h153l-560 -718h-154zM693 282q0 55 59.5 89t149.5 34t149.5 -34t59.5 -89q0 -26 -13.5 -45t-42.5 -33q37 -13 54.5 -35t17.5 -55q0 -56 -61.5 -88.5t-163.5 -32.5
t-164 32.5t-62 88.5q0 33 18 55t55 35q-29 14 -42.5 33t-13.5 45zM833 282q0 -15 18 -23.5t51 -8.5q32 0 50.5 8.5t18.5 23.5t-18.5 23.5t-50.5 8.5q-33 0 -51 -8.5t-18 -23.5zM986 123q0 17 -21.5 26t-62.5 9t-62.5 -9t-21.5 -26t21.5 -25.5t62.5 -8.5t62.5 8.5t21.5 25.5z
" />
    <glyph glyph-name="uni215D" unicode="&#x215d;" horiz-adv-x="1101" 
d="M223 498q-21 0 -40.5 -5.5t-34.5 -15.5l-127 14l31 227h358v-101h-250l-6 -49q22 10 47.5 15t54.5 5q83 0 130.5 -35t47.5 -96q0 -64 -59 -104t-151 -40q-78 0 -138 28t-87 79l122 45q14 -22 42 -35t62 -13q32 0 51.5 11t19.5 29q0 19 -19.5 30t-53.5 11zM176 0l561 718
h153l-560 -718h-154zM652 282q0 55 59.5 89t149.5 34t149.5 -34t59.5 -89q0 -26 -13.5 -45t-42.5 -33q37 -13 54.5 -35t17.5 -55q0 -56 -61.5 -88.5t-163.5 -32.5t-164 32.5t-62 88.5q0 33 18 55t55 35q-29 14 -42.5 33t-13.5 45zM792 282q0 -15 18 -23.5t51 -8.5
q32 0 50.5 8.5t18.5 23.5t-18.5 23.5t-50.5 8.5q-33 0 -51 -8.5t-18 -23.5zM945 123q0 17 -21.5 26t-62.5 9t-62.5 -9t-21.5 -26t21.5 -25.5t62.5 -8.5t62.5 8.5t21.5 25.5z" />
    <glyph glyph-name="uni215E" unicode="&#x215e;" horiz-adv-x="1080" 
d="M299 613h-169v-71h-117v176h442v-113q-75 -56 -111 -126t-36 -159h-145q0 88 34.5 162t101.5 131zM155 0l561 718h153l-560 -718h-154zM630 282q0 55 59.5 89t149.5 34t149.5 -34t59.5 -89q0 -26 -13.5 -45t-42.5 -33q37 -13 54.5 -35t17.5 -55q0 -56 -61.5 -88.5
t-163.5 -32.5t-164 32.5t-62 88.5q0 33 18 55t55 35q-29 14 -42.5 33t-13.5 45zM770 282q0 -15 18 -23.5t51 -8.5q32 0 50.5 8.5t18.5 23.5t-18.5 23.5t-50.5 8.5q-33 0 -51 -8.5t-18 -23.5zM923 123q0 17 -21.5 26t-62.5 9t-62.5 -9t-21.5 -26t21.5 -25.5t62.5 -8.5
t62.5 8.5t21.5 25.5z" />
    <glyph glyph-name="minus" unicode="&#x2212;" horiz-adv-x="800" 
d="M744 279h-689v158h689v-158z" />
    <glyph glyph-name="uniF6C3" unicode="&#xf6c3;" 
d="M267 -127h-63v97h190v-41q0 -77 -47.5 -115t-142.5 -38v65q29 0 44.5 7.5t18.5 24.5z" />
    <glyph glyph-name="NULL" horiz-adv-x="0" 
 />
    <glyph glyph-name="i.loclTRK" horiz-adv-x="276" 
d="M234 570h-192v148h192v-148zM43 528h190v-528h-190v528z" />
    <glyph glyph-name="a.ord" horiz-adv-x="513" 
d="M335 373q-27 -21 -66 -32t-85 -11q-75 0 -119.5 31.5t-44.5 85.5t42.5 85.5t119.5 36.5l142 9v2q0 20 -19.5 31t-54.5 11q-32 0 -55 -11t-30 -29l-130 23q18 56 77.5 88.5t144.5 32.5q97 0 148.5 -37.5t51.5 -108.5v-122q0 -17 10 -22q5 -2 12 -2q9 0 21 3v-99
q-33 -6 -60 -6q-24 0 -43 4q-42 9 -62 37zM216 425q44 0 76 16.5t32 41.5v11l-124 -10q-25 -2 -35.5 -9t-10.5 -20q0 -15 16 -22.5t46 -7.5z" />
    <glyph glyph-name="b.ord" horiz-adv-x="542" 
d="M519 528q0 -87 -55.5 -142.5t-146.5 -55.5q-41 0 -75.5 13t-54.5 35v-40h-138v516h138v-176q20 22 54.5 35t75.5 13q91 0 146.5 -55.5t55.5 -142.5zM283 617q-43 0 -71.5 -24.5t-28.5 -63.5v-2q0 -38 28 -62.5t72 -24.5t72 24t28 64t-28 64.5t-72 24.5z" />
    <glyph glyph-name="c.ord" horiz-adv-x="484" 
d="M258 616q-44 0 -71 -24.5t-27 -63.5q0 -40 27 -64t71 -24q34 0 59 18t34 48l125 -46q-17 -57 -76.5 -93.5t-140.5 -36.5q-105 0 -170.5 55t-65.5 143t65.5 143t170.5 55q82 0 141.5 -37t75.5 -94l-125 -45q-9 30 -34 48t-59 18z" />
    <glyph glyph-name="d.ord" horiz-adv-x="542" 
d="M225 330q-90 0 -146 55.5t-56 142.5t56 142.5t146 55.5q41 0 75.5 -13t54.5 -35v176h138v-516h-138v40q-20 -22 -54.5 -35t-75.5 -13zM359 527v2q0 39 -28.5 63.5t-71.5 24.5q-44 0 -71.5 -24.5t-27.5 -64.5t27.5 -64t71.5 -24t72 24.5t28 62.5z" />
    <glyph glyph-name="e.ord" horiz-adv-x="507" 
d="M260 330q-106 0 -171.5 55t-65.5 144q0 85 66.5 141t168.5 56t164 -55.5t62 -142.5v-33h-324q10 -28 35.5 -43.5t63.5 -15.5q31 0 55.5 12t35.5 34l128 -37q-22 -53 -81.5 -84t-136.5 -31zM256 623q-34 0 -58 -14t-35 -39h179q-3 22 -27.5 37.5t-58.5 15.5z" />
    <glyph glyph-name="f.ord" horiz-adv-x="365" 
d="M273 862q28 0 55 -4t46 -11l-16 -101q-15 5 -33.5 7.5t-39.5 2.5q-33 0 -48.5 -8.5t-15.5 -26.5v-3h132v-113h-132v-267h-137v267h-79v113h79v5q0 68 48 103.5t141 35.5z" />
    <glyph glyph-name="g.ord" horiz-adv-x="541" 
d="M492 718v-317q0 -92 -68 -144t-185 -52q-77 0 -134.5 24t-81.5 67l110 59q16 -23 42.5 -34t65.5 -11q49 0 80.5 21t31.5 56v9q-20 -22 -54 -34t-75 -12q-91 0 -146.5 52t-55.5 135t56 136t146 53q40 0 74 -12.5t55 -33.5v38h139zM357 535v3q0 37 -28 60t-72 23
q-43 0 -71 -23t-28 -61t28 -61t71 -23q44 0 72 22.5t28 59.5z" />
    <glyph glyph-name="h.ord" horiz-adv-x="536" 
d="M187 338h-138v516h138v-179q24 24 59.5 37.5t76.5 13.5q74 0 120.5 -45t46.5 -119v-224h-139v175q0 45 -20 68.5t-58 23.5q-41 0 -63.5 -24t-22.5 -68v-175z" />
    <glyph glyph-name="i.ord" horiz-adv-x="235" 
d="M187 747h-139v107h139v-107zM49 718h138v-380h-138v380z" />
    <glyph glyph-name="j.ord" horiz-adv-x="235" 
d="M187 747h-139v107h139v-107zM-7 310q30 0 43 12t13 40v356h138v-363q0 -74 -44.5 -111t-134.5 -37q-26 0 -51 3.5t-39 8.5l18 100q17 -5 30.5 -7t26.5 -2z" />
    <glyph glyph-name="k.ord" horiz-adv-x="522" 
d="M49 854h138v-275l155 139h184l-179 -153l181 -227h-168l-113 141l-60 -51v-90h-138v516z" />
    <glyph glyph-name="l.ord" horiz-adv-x="236" 
d="M49 854h138v-516h-138v516z" />
    <glyph glyph-name="m.ord" horiz-adv-x="808" 
d="M265 606q-38 0 -58 -22.5t-20 -64.5v-181h-138v380h138v-43q23 25 55.5 38t71.5 13q41 0 76.5 -16.5t54.5 -44.5q31 31 68.5 46t82.5 15q76 0 121 -44.5t45 -120.5v-223h-139v181q0 43 -18 65t-53 22q-37 0 -57.5 -22.5t-20.5 -64.5v-181h-138v181q0 43 -18 65t-53 22z
" />
    <glyph glyph-name="n.ord" horiz-adv-x="536" 
d="M187 338h-138v380h138v-43q24 24 59.5 37.5t76.5 13.5q74 0 120.5 -45t46.5 -119v-224h-139v175q0 45 -20 68.5t-58 23.5q-41 0 -63.5 -24t-22.5 -68v-175z" />
    <glyph glyph-name="o.ord" horiz-adv-x="515" 
d="M257 726q104 0 169.5 -55t65.5 -143t-65.5 -143t-169.5 -55q-103 0 -168.5 55t-65.5 143t65.5 143t168.5 55zM257 616q-43 0 -70 -24t-27 -64t27 -64t70 -24q44 0 71.5 24t27.5 64t-27.5 64t-71.5 24z" />
    <glyph glyph-name="p.ord" horiz-adv-x="542" 
d="M519 528q0 -87 -55.5 -142.5t-146.5 -55.5q-41 0 -75.5 13t-54.5 35v-164h-138v504h138v-40q20 22 54.5 35t75.5 13q91 0 146.5 -55.5t55.5 -142.5zM283 617q-43 0 -71.5 -24.5t-28.5 -63.5v-2q0 -38 28 -62.5t72 -24.5t72 24t28 64t-28 64.5t-72 24.5z" />
    <glyph glyph-name="q.ord" horiz-adv-x="542" 
d="M225 330q-90 0 -146 55.5t-56 142.5t56 142.5t146 55.5q41 0 75.5 -13t54.5 -35v40h138v-504h-138v164q-20 -22 -54.5 -35t-75.5 -13zM359 527v2q0 39 -28.5 63.5t-71.5 24.5q-44 0 -71.5 -24.5t-27.5 -64.5t27.5 -64t71.5 -24t72 24.5t28 62.5z" />
    <glyph glyph-name="r.ord" horiz-adv-x="382" 
d="M323 720q12 0 22 -0.5t20 -2.5v-132q-17 2 -28.5 3t-18.5 1q-65 0 -98 -27t-33 -81v-143h-138v380h138v-63q24 34 56.5 49.5t79.5 15.5z" />
    <glyph glyph-name="s.ord" horiz-adv-x="454" 
d="M213 330q-61 0 -119 15.5t-92 41.5l50 94q36 -25 82.5 -39t94.5 -14q36 0 53.5 5.5t17.5 17.5q0 8 -11 12.5t-45 8.5q-5 0 -26.5 2.5t-36.5 4.5q-91 12 -126 38t-35 74q0 63 55 99t152 36q61 0 114 -14.5t89 -40.5l-63 -82q-31 20 -68.5 30.5t-79.5 10.5q-28 0 -43.5 -6
t-15.5 -16q0 -9 11.5 -13t90.5 -13q101 -12 139.5 -39t38.5 -77q0 -65 -59.5 -100.5t-167.5 -35.5z" />
    <glyph glyph-name="t.ord" horiz-adv-x="398" 
d="M240 331q-74 0 -115 32.5t-41 92.5v149h-78v113h78v100h136v-100h149v-113h-149v-109q0 -25 15 -37t46 -12q19 0 39.5 4t42.5 12l25 -107q-34 -13 -71 -19t-77 -6z" />
    <glyph glyph-name="u.ord" horiz-adv-x="532" 
d="M345 718h138v-380h-138v43q-24 -25 -58.5 -38t-76.5 -13q-74 0 -119 44.5t-45 119.5v224h139v-188q0 -42 19 -63t57 -21q40 0 62 22.5t22 63.5v186z" />
    <glyph glyph-name="v.ord" horiz-adv-x="511" 
d="M512 718l-183 -380h-146l-184 380h155l106 -235l106 235h146z" />
    <glyph glyph-name="w.ord" horiz-adv-x="718" 
d="M226 501l73 217h127l72 -217l77 217h143l-151 -380h-131l-77 221l-78 -221h-130l-152 380h150z" />
    <glyph glyph-name="x.ord" horiz-adv-x="526" 
d="M523 338h-170l-90 103l-92 -103h-169l176 194l-167 186h170l82 -94l83 94h169l-167 -184z" />
    <glyph glyph-name="y.ord" horiz-adv-x="510" 
d="M511 718l-183 -384q-35 -72 -77 -99.5t-115 -27.5q-25 0 -50.5 4t-40.5 11l21 105q13 -7 26.5 -10.5t25.5 -3.5q23 0 36.5 7t19.5 22l4 9l-179 367h155l106 -236l107 236h144z" />
    <glyph glyph-name="z.ord" horiz-adv-x="495" 
d="M243 451h216v-113h-423v102l223 165h-220v113h418v-102z" />
    <glyph glyph-name="caron.Slovak" 
d="M310 546h-128l21 172h196z" />
    <glyph glyph-name="commaturn" 
d="M332 662h63v-97h-190v41q0 77 47.5 115t142.5 38v-65q-29 0 -44.5 -7.5t-18.5 -24.5z" />
    <glyph glyph-name="grave.cap" 
d="M363 917l103 -162h-165l-190 162h252z" />
    <glyph glyph-name="acute.cap" 
d="M294 755h-165l103 162h252z" />
    <glyph glyph-name="circumflex.cap" 
d="M203 917h194l140 -162h-142l-95 59l-95 -59h-142z" />
    <glyph glyph-name="caron.cap" 
d="M537 918l-140 -162h-194l-140 162h142l95 -59l95 59h142z" />
    <glyph glyph-name="tilde.cap" 
d="M202 941q23 0 45.5 -5.5t59.5 -22.5q26 -13 39 -16.5t24 -3.5q17 0 27 11.5t14 36.5h123q-2 -86 -38.5 -135.5t-98.5 -49.5q-23 0 -45.5 5.5t-59.5 22.5q-26 12 -39 15.5t-24 3.5q-17 0 -26.5 -11.5t-13.5 -35.5h-124q2 85 38.5 135t98.5 50z" />
    <glyph glyph-name="macron.cap" 
d="M505 895v-137h-410v137h410z" />
    <glyph glyph-name="breve.cap" 
d="M300 872q34 0 56 12.5t22 32.5h133q0 -76 -57 -122t-154 -46t-154 46t-57 122h133q0 -20 22 -32.5t56 -12.5z" />
    <glyph glyph-name="dotaccent.cap" 
d="M402 755h-204v155h204v-155z" />
    <glyph glyph-name="dieresis.cap" 
d="M264 755h-184v155h184v-155zM520 755h-184v155h184v-155z" />
    <glyph glyph-name="ring.cap" 
d="M300 746q-65 0 -108 41t-43 100t43 100t108 41t108 -41t43 -100t-43 -100t-108 -41zM300 937q-21 0 -34.5 -14t-13.5 -36t13.5 -36t34.5 -14t34.5 14t13.5 36t-13.5 36t-34.5 14z" />
    <glyph glyph-name="hungarumlaut.cap" 
d="M432 755h-146l92 162h202zM181 755h-146l89 162h205z" />
    <glyph glyph-name="guilsinglleft.cap" horiz-adv-x="350" 
d="M317 132l-284 149v156l284 149v-172l-106 -55l106 -55v-172z" />
    <glyph glyph-name="guilsinglright.cap" horiz-adv-x="350" 
d="M33 304l106 55l-106 55v172l284 -149v-156l-284 -149v172z" />
    <glyph glyph-name="guillemotleft.cap" horiz-adv-x="666" 
d="M317 132l-284 149v156l284 149v-172l-106 -55l106 -55v-172zM633 132l-284 149v156l284 149v-172l-106 -55l106 -55v-172z" />
    <glyph glyph-name="guillemotright.cap" horiz-adv-x="666" 
d="M317 437v-156l-284 -149v172l106 55l-106 55v172zM633 437v-156l-284 -149v172l106 55l-106 55v172z" />
    <glyph glyph-name="slash.cap" horiz-adv-x="629" 
d="M225 -62h-208l387 836h208z" />
    <glyph glyph-name="backslash.cap" horiz-adv-x="629" 
d="M17 774h208l387 -836h-208z" />
    <glyph glyph-name="bar.cap" horiz-adv-x="301" 
d="M244 -62h-188v836h188v-836z" />
    <glyph glyph-name="periodcentered.cap" horiz-adv-x="293" 
d="M253 268h-213v204h213v-204z" />
    <glyph glyph-name="bullet.cap" horiz-adv-x="453" 
d="M28 356q0 87 57 143.5t143 56.5q84 0 140 -56.5t56 -143.5q0 -84 -56.5 -140t-139.5 -56q-85 0 -142.5 56t-57.5 140z" />
    <glyph glyph-name="hyphen.cap" horiz-adv-x="389" 
d="M349 271h-309v173h309v-173z" />
    <glyph glyph-name="endash.cap" horiz-adv-x="542" 
d="M502 279h-462v156h462v-156z" />
    <glyph glyph-name="emdash.cap" horiz-adv-x="976" 
d="M936 279h-896v156h896v-156z" />
    <glyph glyph-name="parenleft.cap" horiz-adv-x="426" 
d="M213 347q0 -122 52.5 -225.5t159.5 -192.5h-190q-104 68 -162 177.5t-58 240.5t58 240.5t162 177.5h190q-108 -90 -160 -193.5t-52 -224.5z" />
    <glyph glyph-name="parenright.cap" horiz-adv-x="426" 
d="M212 347q0 121 -52 224.5t-160 193.5h190q104 -68 162 -177.5t58 -240.5t-58 -240.5t-162 -177.5h-190q107 89 159.5 192.5t52.5 225.5z" />
    <glyph glyph-name="bracketleft.cap" horiz-adv-x="396" 
d="M386 624h-167v-555h167v-140h-346v836h346v-141z" />
    <glyph glyph-name="bracketright.cap" horiz-adv-x="396" 
d="M177 69v555h-167v141h346v-836h-346v140h167z" />
    <glyph glyph-name="braceleft.cap" horiz-adv-x="449" 
d="M74 273h-54v148h54q21 0 31.5 12.5t10.5 37.5v117q0 83 54 130t152 47h117v-141h-79q-37 0 -55.5 -18t-18.5 -55v-97q0 -38 -15 -64.5t-47 -42.5q32 -16 47 -42.5t15 -64.5v-97q0 -37 18.5 -55t55.5 -18h79v-141h-117q-98 0 -152 47t-54 130v117q0 25 -10.5 37.5
t-31.5 12.5z" />
    <glyph glyph-name="braceright.cap" horiz-adv-x="449" 
d="M429 421v-148h-54q-21 0 -31.5 -12.5t-10.5 -37.5v-117q0 -83 -54 -130t-152 -47h-117v141h79q37 0 55.5 18t18.5 55v97q0 38 15 64.5t47 42.5q-32 16 -47 42.5t-15 64.5v97q0 37 -18.5 55t-55.5 18h-79v141h117q98 0 152 -47t54 -130v-117q0 -25 10.5 -37.5t31.5 -12.5
h54z" />
    <glyph glyph-name="at.cap" horiz-adv-x="1101" 
d="M834 545l-46 -238q-6 -31 2.5 -45.5t34.5 -14.5q49 0 81.5 43.5t32.5 111.5q0 110 -92.5 171t-258.5 61q-194 0 -306 -87t-112 -233q0 -131 102 -202.5t287 -71.5q95 0 186.5 19t159.5 52l67 -112q-73 -42 -186 -66.5t-235 -24.5q-247 0 -390 108.5t-143 297.5
q0 105 48 194t137 151q76 52 175 79t214 27q226 0 358.5 -95t132.5 -260q0 -129 -84 -208.5t-212 -78.5q-52 1 -92.5 16.5t-63.5 43.5q-26 -28 -68 -42.5t-94 -14.5q-95 0 -151 52t-56 138q0 101 72.5 170t182.5 69q48 0 84.5 -14t59.5 -41l9 45h164zM445 328
q0 -33 23.5 -53t63.5 -20q46 0 76 29t30 70q0 34 -23.5 53.5t-63.5 19.5q-45 0 -75.5 -29t-30.5 -70z" />
    <glyph glyph-name="zero.dnom" horiz-adv-x="509" 
d="M254 -7q-102 0 -167.5 58t-65.5 148t65.5 148t167.5 58q103 0 168.5 -58t65.5 -148t-65.5 -148t-168.5 -58zM254 296q-40 0 -65.5 -26.5t-25.5 -70.5t25.5 -70.5t65.5 -26.5t65.5 26.5t25.5 70.5t-25.5 70.5t-65.5 26.5z" />
    <glyph glyph-name="one.dnom" horiz-adv-x="382" 
d="M136 108v128h-115v96l39 1q51 2 76 16.5t32 47.5h107v-289h95v-108h-350v108h116z" />
    <glyph glyph-name="two.dnom" horiz-adv-x="457" 
d="M28 0v88l157 89q65 36 81 51.5t16 32.5t-14 27t-39 10q-35 0 -59.5 -21t-29.5 -54l-123 23q8 70 68 114.5t153 44.5q84 0 136 -35.5t52 -95.5q0 -45 -27 -77t-93 -62l-58 -27h189v-108h-409z" />
    <glyph glyph-name="three.dnom" horiz-adv-x="488" 
d="M472 115q0 -54 -61.5 -88t-162.5 -34q-87 0 -147 27t-99 83l113 56q18 -29 54 -46t79 -17q32 0 51 8.5t19 23.5q0 13 -17 19.5t-52 6.5h-74v92h67q37 0 53.5 6.5t16.5 21.5q0 13 -17 20t-48 7q-39 0 -70.5 -14t-48.5 -39l-107 52q32 50 94.5 77.5t144.5 27.5
q93 0 149.5 -33t56.5 -85q0 -28 -18 -50.5t-51 -34.5q38 -13 56.5 -34.5t18.5 -52.5z" />
    <glyph glyph-name="four.dnom" horiz-adv-x="479" 
d="M387 76v-76h-134v76h-240v91l199 231h175v-224h79v-98h-79zM253 295l-98 -121h98v121z" />
    <glyph glyph-name="five.dnom" horiz-adv-x="446" 
d="M223 178q-21 0 -40.5 -5.5t-34.5 -15.5l-127 14l31 227h358v-101h-250l-6 -49q22 10 47.5 15t54.5 5q83 0 130.5 -35t47.5 -96q0 -64 -59 -104t-151 -40q-78 0 -138 28t-87 79l122 45q14 -22 42 -35t62 -13q32 0 51.5 11t19.5 29q0 19 -19.5 30t-53.5 11z" />
    <glyph glyph-name="six.dnom" horiz-adv-x="492" 
d="M274 405q62 0 110 -16t82 -49l-72 -75q-25 19 -55.5 29t-63.5 10q-51 0 -83.5 -21t-32.5 -49q24 15 56 23t68 8q83 0 137.5 -36t54.5 -92q0 -66 -60.5 -105t-163.5 -39q-104 0 -166 54t-62 143q0 96 69 155.5t182 59.5zM250 92q38 0 60.5 11t22.5 30q0 20 -22.5 31.5
t-61.5 11.5q-38 0 -60.5 -11.5t-22.5 -31.5q0 -19 23 -30t61 -11z" />
    <glyph glyph-name="seven.dnom" horiz-adv-x="469" 
d="M299 293h-169v-71h-117v176h442v-113q-75 -56 -111 -126t-36 -159h-145q0 88 34.5 162t101.5 131z" />
    <glyph glyph-name="eight.dnom" horiz-adv-x="481" 
d="M32 282q0 55 59.5 89t149.5 34t149.5 -34t59.5 -89q0 -26 -13.5 -45t-42.5 -33q37 -13 54.5 -35t17.5 -55q0 -56 -61.5 -88.5t-163.5 -32.5t-164 32.5t-62 88.5q0 33 18 55t55 35q-29 14 -42.5 33t-13.5 45zM172 282q0 -15 18 -23.5t51 -8.5q32 0 50.5 8.5t18.5 23.5
t-18.5 23.5t-50.5 8.5q-33 0 -51 -8.5t-18 -23.5zM325 123q0 17 -21.5 26t-62.5 9t-62.5 -9t-21.5 -26t21.5 -25.5t62.5 -8.5t62.5 8.5t21.5 25.5z" />
    <glyph glyph-name="nine.dnom" horiz-adv-x="492" 
d="M219 -7q-63 0 -111 16t-82 49l72 75q25 -19 56 -29t63 -10q50 0 83 20.5t33 47.5q-26 -15 -57.5 -22.5t-66.5 -7.5q-83 0 -137 36.5t-54 92.5q0 66 60.5 105t163.5 39t165.5 -54t62.5 -143q0 -96 -69.5 -155.5t-181.5 -59.5zM242 306q-38 0 -60.5 -11.5t-22.5 -30.5
t23 -30.5t61 -11.5t60.5 11.5t22.5 30.5t-23 30.5t-61 11.5z" />
    <glyph glyph-name="colon.mid" horiz-adv-x="400" 
d="M307 101h-213v204h213v-204zM307 416h-213v204h213v-204z" />
    <glyph glyph-name="commaturncmb" horiz-adv-x="0" 
d="M32 662h63v-97h-190v41q0 77 47.5 115t142.5 38v-65q-29 0 -44.5 -7.5t-18.5 -24.5z" />
    <glyph glyph-name="commaaccentcmb" horiz-adv-x="0" 
d="M-32 -127h-63v97h190v-41q0 -77 -47.5 -115t-142.5 -38v65q29 0 44.5 7.5t18.5 24.5z" />
    <glyph glyph-name="space.tab" horiz-adv-x="400" 
 />
    <glyph glyph-name="period.tab" horiz-adv-x="400" 
d="M307 0h-213v204h213v-204z" />
    <glyph glyph-name="comma.tab" horiz-adv-x="400" 
d="M173 0h-79v204h213v-177q0 -87 -56.5 -136t-156.5 -49v93q40 1 59.5 16t19.5 45v4z" />
    <glyph glyph-name="colon.tab" horiz-adv-x="400" 
d="M307 0h-213v204h213v-204zM307 315h-213v204h213v-204z" />
    <glyph glyph-name="semicolon.tab" horiz-adv-x="400" 
d="M173 0h-79v204h213v-177q0 -87 -56.5 -136t-156.5 -49v93q40 1 59.5 16t19.5 45v4zM307 315h-213v204h213v-204z" />
    <glyph glyph-name="florin.lt" horiz-adv-x="800" 
d="M489 306l-16 -90q-21 -116 -90 -172t-190 -56q-60 0 -111 14t-88 40l73 133q23 -15 50.5 -23.5t55.5 -8.5q44 0 70 20.5t33 60.5l15 82h-134v129h158l12 67q20 116 89 172t190 56q61 0 112 -14t87 -40l-73 -133q-23 15 -50.5 23.5t-54.5 8.5q-43 0 -69.5 -20.5
t-34.5 -60.5l-11 -59h159v-129h-182z" />
    <glyph glyph-name="Euro.lt" horiz-adv-x="800" 
d="M102 233h-68v107h50v40h-50v108h69q35 113 126 177.5t217 64.5q127 0 211.5 -58.5t118.5 -169.5l-165 -62q-18 62 -61 94.5t-107 32.5q-50 0 -89.5 -20.5t-63.5 -58.5h191l-19 -108h-204q-1 -4 -1 -8v-13v-12t1 -7h197l-19 -107h-148q24 -40 64 -61t91 -21q64 0 107 32.5
t61 94.5l165 -62q-34 -111 -118.5 -169.5t-211.5 -58.5t-218 65t-126 180z" />
    <glyph glyph-name="dollar.lt" horiz-adv-x="800" 
d="M-10 131l111 135q42 -41 102 -68.5t132 -39.5v132q-163 18 -231.5 65.5t-68.5 134.5q0 97 79 156.5t221 70.5v98h154v-102q89 -11 164.5 -40.5t122.5 -72.5l-111 -127q-30 29 -76 50.5t-100 32.5v-119q163 -18 233 -67t70 -136q0 -101 -77 -159.5t-226 -71.5v-102h-154
v101q-109 10 -204 45.5t-141 83.5zM215 509q0 -25 25 -36t95 -20v115q-60 -3 -90 -17.5t-30 -41.5zM607 214q0 27 -23 38t-95 21v-120q59 5 88.5 20.5t29.5 40.5z" />
    <glyph glyph-name="cent.lt" horiz-adv-x="801" 
d="M497 -96h-151v88q-131 17 -209.5 93.5t-78.5 187.5q0 112 78 188.5t210 93.5v94h151v-95q89 -13 153.5 -54t92.5 -104l-131 -77q-18 32 -47 53.5t-68 32.5v-263q40 11 68.5 32.5t46.5 54.5l131 -78q-28 -63 -92.5 -104.5t-153.5 -53.5v-89zM227 273q0 -48 31.5 -82.5
t87.5 -49.5v265q-56 -15 -87.5 -50t-31.5 -83z" />
    <glyph glyph-name="sterling.lt" horiz-adv-x="800" 
d="M250 278h-148v111h72q-22 33 -31.5 60.5t-9.5 56.5q0 97 89 160.5t230 63.5q140 0 222.5 -65t82.5 -174q0 -17 -2.5 -35t-6.5 -35h-169l2 16t1 16q0 55 -33.5 84t-97.5 29q-59 0 -94 -24.5t-35 -64.5q0 -17 7 -34.5t33 -53.5h177v-111h-126q1 -9 1.5 -15t0.5 -11
q0 -18 -2.5 -36t-7.5 -35q30 -13 54.5 -18.5t48.5 -5.5q52 0 82 25t32 70h165q1 -121 -67.5 -192.5t-184.5 -71.5q-54 0 -102 17t-97 54q-34 -35 -76 -53t-88 -18q-67 0 -109.5 37.5t-42.5 97.5t43.5 96t115.5 36q20 0 40.5 -3t43.5 -9q-3 10 -6 19t-7 16zM182 158
q-19 0 -31.5 -8.5t-12.5 -22.5t11.5 -22t30.5 -8q20 0 36 9.5t28 27.5q-16 12 -31.5 18t-30.5 6z" />
    <glyph glyph-name="yen.lt" horiz-adv-x="800" 
d="M303 167h-203v115h203v5l-24 35h-179v114h102l-190 282h234l158 -259l156 259h227l-190 -282h100v-114h-177l-24 -35v-5h201v-115h-201v-167h-193v167z" />
    <glyph glyph-name="zero.lt" horiz-adv-x="800" 
d="M400 -12q-162 0 -268.5 105t-106.5 266t106.5 266t268.5 105t268.5 -105t106.5 -266t-106.5 -266t-268.5 -105zM400 560q-79 0 -128 -55.5t-49 -145.5t49 -145.5t128 -55.5q78 0 127 55.5t49 145.5t-49 145.5t-127 55.5z" />
    <glyph glyph-name="one.lt" horiz-adv-x="800" 
d="M383 720h150v-556h238v-164h-710v164h276v284h-265v148l145 4q79 2 117.5 29.5t48.5 90.5z" />
    <glyph glyph-name="two.lt" horiz-adv-x="800" 
d="M43 0v148l298 155q76 39 93 48.5t30 17.5q48 28 67.5 51t19.5 49q0 43 -38.5 67.5t-107.5 24.5q-76 0 -129.5 -42t-68.5 -114l-178 39q18 124 124 204.5t261 80.5q149 0 242.5 -67t93.5 -175q0 -79 -47.5 -135.5t-161.5 -111.5l-149 -74h376v-166h-725z" />
    <glyph glyph-name="three.lt" horiz-adv-x="800" 
d="M776 206q0 -96 -102 -157t-268 -61q-141 0 -243.5 52.5t-147.5 145.5l177 81q23 -51 82.5 -83.5t133.5 -32.5q71 0 113.5 19.5t42.5 53.5q0 32 -40 48.5t-117 16.5h-114v150h108q73 0 109.5 15.5t36.5 46.5q0 30 -37.5 47t-102.5 17q-69 0 -124 -29t-77 -74l-168 77
q39 85 144.5 138t237.5 53q155 0 247.5 -58.5t92.5 -153.5q0 -52 -34 -92.5t-90 -57.5q71 -23 105.5 -63.5t34.5 -98.5z" />
    <glyph glyph-name="four.lt" horiz-adv-x="800" 
d="M655 163v-163h-186v163h-444v151l380 404h251v-400h122v-155h-123zM469 558l-222 -240h222v240z" />
    <glyph glyph-name="five.lt" horiz-adv-x="800" 
d="M410 338q-52 0 -99.5 -12.5t-80.5 -34.5l-166 26l51 401h614v-166h-465l-15 -103q38 20 89 31t105 10q152 0 243 -66.5t91 -178.5q0 -113 -103 -185t-260 -72q-147 0 -254 54t-143 148l179 73q25 -53 83 -83t136 -30q75 0 121 25t46 67q0 44 -46 70t-126 26z" />
    <glyph glyph-name="six.lt" horiz-adv-x="800" 
d="M441 730q108 0 193 -36t136 -102l-126 -114q-39 46 -92 70t-116 24q-94 0 -155.5 -45t-65.5 -112q43 35 102 53.5t127 18.5q146 0 239.5 -68.5t93.5 -173.5q0 -115 -101.5 -186t-265.5 -71q-177 0 -280.5 96.5t-103.5 258.5q0 174 113.5 280.5t301.5 106.5zM407 143
q78 0 126 26t48 70t-47.5 70.5t-125.5 26.5t-125.5 -26.5t-47.5 -70.5t47 -70t125 -26z" />
    <glyph glyph-name="seven.lt" horiz-adv-x="800" 
d="M569 555h-383v-134h-166v297h763v-174q-140 -114 -205.5 -246t-65.5 -298h-201q0 165 65 304t193 251z" />
    <glyph glyph-name="eight.lt" horiz-adv-x="800" 
d="M60 517q0 97 95 155t244 58q150 0 245.5 -58t95.5 -155q0 -47 -27.5 -83t-84.5 -64q70 -22 108.5 -65.5t38.5 -100.5q0 -101 -102 -158.5t-274 -57.5q-171 0 -272.5 57.5t-101.5 158.5q0 58 38.5 101t108.5 65q-57 27 -84.5 63.5t-27.5 83.5zM252 515q0 -34 39 -52.5
t108 -18.5t108.5 18.5t39.5 52.5t-39 52.5t-109 18.5t-108.5 -18.5t-38.5 -52.5zM579 218q0 39 -47 59.5t-133 20.5q-85 0 -131.5 -20.5t-46.5 -59.5t46 -59.5t132 -20.5q87 0 133.5 20.5t46.5 59.5z" />
    <glyph glyph-name="nine.lt" horiz-adv-x="800" 
d="M359 -12q-108 0 -193 36t-136 102l126 114q39 -46 92 -70t116 -24q94 0 155.5 45t65.5 112q-43 -35 -102 -53.5t-127 -18.5q-146 0 -239.5 68.5t-93.5 173.5q0 115 101.5 186t265.5 71q177 0 280.5 -96.5t103.5 -258.5q0 -174 -113.5 -280.5t-301.5 -106.5zM393 575
q-78 0 -126 -26t-48 -70t47.5 -70.5t125.5 -26.5t125.5 26.5t47.5 70.5t-47 70t-125 26z" />
    <glyph glyph-name="percent.lt" horiz-adv-x="800" 
d="M194 379q-78 0 -129.5 49.5t-51.5 125.5t51.5 125.5t129.5 49.5q79 0 130 -49t51 -126t-51 -126t-130 -49zM218 0h-139l501 718h141zM194 486q27 0 44 18.5t17 49.5q0 32 -16.5 50.5t-44.5 18.5t-44.5 -18.5t-16.5 -50.5q0 -31 17 -49.5t44 -18.5zM604 339q79 0 130 -49
t51 -126t-51 -126t-130 -49t-130.5 49.5t-51.5 125.5t51.5 125.5t130.5 49.5zM604 232q-28 0 -44.5 -18.5t-16.5 -49.5t17 -50t44 -19t44 19t17 50t-16.5 49.5t-44.5 18.5z" />
    </font>
</defs>
</svg>
