<?xml version="1.0" encoding="UTF-8"?>
<svg width="34px" height="22px" viewBox="0 0 34 22" version="1.1" xmlns="http://www.w3.org/2000/svg" xmlns:xlink="http://www.w3.org/1999/xlink">
    <!-- Generator: Sketch 47 (45396) - http://www.bohemiancoding.com/sketch -->
    <title>Behance-color</title>
    <desc>Created with Sketch.</desc>
    <defs></defs>
    <g id="Welcome" stroke="none" stroke-width="1" fill="none" fill-rule="evenodd">
        <g id="Desktop-HD" transform="translate(-973.000000, -1828.000000)" fill="#1769FF">
            <g id="Group-2" transform="translate(752.000000, 1822.000000)">
                <path d="M242.867821,9.92093968 L251.767454,9.92093968 L251.767454,7.34135731 L242.867821,7.34135731 L242.867821,9.92093968 L242.867821,9.92093968 Z M244.976148,15.549478 C244.409054,16.1332367 244.051409,16.9240719 243.905189,17.9219838 L250.826907,17.9219838 C250.753797,16.8570186 250.394176,16.0523782 249.757923,15.4982019 C249.113767,14.9479698 248.321415,14.6738399 247.372964,14.6738399 C246.345475,14.6738399 245.543243,14.9657193 244.976148,15.549478 L244.976148,15.549478 L244.976148,15.549478 Z M250.983006,12.0863689 C252.055941,12.5636311 252.939186,13.3209397 253.634717,14.3543503 C254.268994,15.2654872 254.676038,16.3225638 254.861776,17.5236079 C254.970453,18.2256961 255.013923,19.2433295 254.99614,20.5666473 L243.806392,20.5666473 C243.873574,22.1029582 244.403126,23.1817285 245.414807,23.7990139 C246.027348,24.1835847 246.764374,24.3768561 247.629836,24.3768561 C248.540744,24.3768561 249.285673,24.1421694 249.85672,23.674768 C250.170895,23.4203596 250.447526,23.0693155 250.684639,22.6196636 L254.784714,22.6196636 C254.676038,23.5268561 254.178101,24.4517981 253.296831,25.3905452 C251.921577,26.8795244 249.995036,27.625 247.519183,27.625 C245.474085,27.625 243.670052,26.9978538 242.111036,25.7396172 C240.544115,24.4833527 239.765595,22.4362529 239.765595,19.6042343 C239.765595,16.9477378 240.471005,14.9104988 241.879851,13.4925174 C243.292648,12.0784803 245.120392,11.3665313 247.370988,11.3665313 C248.708699,11.3665313 249.912046,11.6071346 250.983006,12.0863689 L250.983006,12.0863689 L250.983006,12.0863689 Z M225.5329,17.9772042 L225.5329,23.5051624 L230.575498,23.5051624 C231.476527,23.5051624 232.179961,23.3828886 232.679874,23.1403132 C233.590783,22.6867169 234.045249,21.8268561 234.045249,20.5528422 C234.045249,19.4720998 233.60659,18.7325406 232.723345,18.3282483 C232.22936,18.1034223 231.535805,17.9850928 230.646632,17.9772042 L225.5329,17.9772042 L225.5329,17.9772042 Z M225.5329,9.97418794 L225.5329,14.5476218 L230.583402,14.5476218 C231.482455,14.5476218 232.215528,14.3760441 232.780647,14.0328886 C233.341814,13.6897332 233.624374,13.0823086 233.624374,12.2145592 C233.624374,11.2462297 233.252897,10.6092227 232.509943,10.2976218 C231.865787,10.0826566 231.047748,9.97418794 230.05385,9.97418794 L225.5329,9.97418794 L225.5329,9.97418794 Z M236.811565,8.58381671 C237.445841,9.46537123 237.763968,10.5185035 237.763968,11.7471578 C237.763968,13.0113109 237.445841,14.0309165 236.803661,14.800058 C236.44404,15.2299884 235.916464,15.62442 235.218957,15.9794084 C236.278061,16.3659513 237.076341,16.975348 237.619724,17.8095708 C238.15718,18.6418213 238.427884,19.6555104 238.427884,20.8466937 C238.427884,22.075348 238.119637,23.1777842 237.501168,24.1520302 C237.109932,24.7969258 236.619898,25.3412413 236.031068,25.7830046 C235.369129,26.2898492 234.588632,26.6349768 233.685628,26.8243039 C232.782623,27.0116589 231.806509,27.1023782 230.751357,27.1023782 L221.393305,27.1023782 L221.393305,6.375 L231.429104,6.375 C233.962259,6.412471 235.754437,7.14808585 236.811565,8.58381671 L236.811565,8.58381671 L236.811565,8.58381671 Z" id="Behance"></path>
            </g>
        </g>
    </g>
</svg>