<?xml version="1.0" encoding="UTF-8"?>
<svg width="34px" height="33px" viewBox="0 0 34 33" version="1.1" xmlns="http://www.w3.org/2000/svg" xmlns:xlink="http://www.w3.org/1999/xlink">
    <!-- Generator: Sketch 47 (45396) - http://www.bohemiancoding.com/sketch -->
    <title>Dribbble-color</title>
    <desc>Created with Sketch.</desc>
    <defs></defs>
    <g id="Welcome" stroke="none" stroke-width="1" fill="none" fill-rule="evenodd">
        <g id="Desktop-HD" transform="translate(-918.000000, -1823.000000)" fill="#EC4989">
            <g id="Group-2" transform="translate(752.000000, 1822.000000)">
                <path d="M190.880062,29.195606 C190.738404,28.34743 189.99757,24.2188657 188.173243,19.1511112 C192.662274,18.4249331 196.550216,19.6700864 196.837361,19.7649737 C196.219042,23.6843987 194.000369,27.0635472 190.880062,29.195606 L190.880062,29.195606 L190.880062,29.195606 Z M183.111836,31.5968348 C179.746498,31.5968348 176.660648,30.386538 174.254374,28.3726042 C174.438146,28.5236492 174.566404,28.6185365 174.566404,28.6185365 C174.566404,28.6185365 177.231109,22.739399 185.475995,19.8327503 C185.506624,19.8211315 185.539167,19.8133856 185.569796,19.8037032 C187.52621,24.9450438 188.33213,29.2517638 188.538874,30.4814253 C186.871519,31.197921 185.035706,31.5968348 183.111836,31.5968348 L183.111836,31.5968348 L183.111836,31.5968348 Z M169.208281,17.5302818 C169.208281,17.3811732 169.215938,17.2340011 169.219767,17.086829 C169.466712,17.0926385 176.335217,17.2494929 183.492781,15.0825776 C183.890956,15.8707229 184.271901,16.6743599 184.620304,17.474124 C184.436531,17.5244723 184.254672,17.5806301 184.072814,17.6425973 C176.570676,20.0941744 172.765049,26.9221846 172.765049,26.9221846 C172.765049,26.9221846 172.770792,26.927994 172.770792,26.9299305 C170.555948,24.4376874 169.208281,21.1437438 169.208281,17.5302818 L169.208281,17.5302818 L169.208281,17.5302818 Z M177.179423,4.8134517 C177.36511,5.06325695 179.936014,8.58957758 182.342288,12.9156623 C175.667126,14.7107744 169.872543,14.6391249 169.506912,14.6333155 C170.408547,10.2762471 173.301053,6.66472162 177.179423,4.8134517 L177.179423,4.8134517 L177.179423,4.8134517 Z M179.780955,3.8761979 C179.780955,3.87813437 179.779041,3.88007084 179.779041,3.88007084 C179.779041,3.88007084 179.761812,3.88394379 179.736926,3.88781674 C179.752241,3.88394379 179.765641,3.88200732 179.780955,3.8761979 L179.780955,3.8761979 L179.780955,3.8761979 Z M192.292814,6.97843054 C192.258357,7.03071536 190.278972,10.0806632 185.029964,12.0694228 C182.654318,7.65232377 180.043214,4.14343142 179.834556,3.86457905 C180.885506,3.6070279 181.982399,3.46760171 183.111836,3.46760171 C186.630318,3.46760171 189.844426,4.79602343 192.292814,6.97843054 L192.292814,6.97843054 L192.292814,6.97843054 Z M197.009648,17.3908556 C196.808646,17.3463167 192.103299,16.3219215 187.327123,16.9299746 C187.227579,16.6898517 187.12995,16.4477923 187.026578,16.205733 C186.737518,15.516348 186.425488,14.8347088 186.101971,14.1646885 C191.592181,11.8970765 193.820425,8.63798945 193.847225,8.59925995 C195.795982,10.9946793 196.977104,14.0543095 197.009648,17.3908556 L197.009648,17.3908556 L197.009648,17.3908556 Z M199.059862,14.2169734 C198.84546,13.1596581 198.523858,12.1158982 198.108455,11.1205501 C197.702624,10.1445668 197.195335,9.20344009 196.607645,8.32428053 C196.027612,7.45286686 195.357607,6.63180155 194.622516,5.88819522 C193.885511,5.14265242 193.075763,4.46682271 192.212414,3.87813437 C191.343322,3.28170013 190.412973,2.77240725 189.448166,2.35800165 C188.464216,1.93972309 187.434323,1.61439532 186.389116,1.39944662 C185.317108,1.17675201 184.214472,1.0625 183.111836,1.0625 C182.007285,1.0625 180.904649,1.17675201 179.832641,1.39944662 C178.787434,1.61439532 177.757541,1.93972309 176.773591,2.35800165 C175.808785,2.77240725 174.878435,3.28170013 174.007429,3.87813437 C173.145995,4.46682271 172.336246,5.14265242 171.599241,5.88819522 C170.86415,6.63180155 170.19606,7.45286686 169.614113,8.32428053 C169.026423,9.20344009 168.519134,10.1445668 168.113302,11.1205501 C167.695985,12.1158982 167.376297,13.1596581 167.161895,14.2169734 C166.943665,15.2994628 166.832636,16.4148723 166.832636,17.5302818 C166.832636,18.6495642 166.943665,19.7649737 167.161895,20.8493996 C167.376297,21.9067148 167.695985,22.9485383 168.113302,23.9419499 C168.519134,24.9179332 169.026423,25.8629329 169.614113,26.7420924 C170.19606,27.6135061 170.86415,28.4306985 171.599241,29.1781777 C172.336246,29.9217841 173.145995,30.5956773 174.007429,31.1863021 C174.878435,31.7807999 175.808785,32.2920292 176.773591,32.7044984 C177.757541,33.1266499 178.787434,33.4481047 179.832641,33.6630534 C180.904649,33.8876845 182.007285,34 183.111836,34 C184.214472,34 185.317108,33.8876845 186.389116,33.6630534 C187.434323,33.4481047 188.464216,33.1266499 189.448166,32.7044984 C190.412973,32.2920292 191.343322,31.7807999 192.212414,31.1863021 C193.075763,30.5956773 193.885511,29.9217841 194.622516,29.1781777 C195.357607,28.4306985 196.027612,27.6135061 196.607645,26.7420924 C197.195335,25.8629329 197.702624,24.9179332 198.108455,23.9419499 C198.523858,22.9485383 198.84546,21.9067148 199.059862,20.8493996 C199.278092,19.7649737 199.389121,18.6495642 199.389121,17.5302818 C199.389121,16.4148723 199.278092,15.2994628 199.059862,14.2169734 L199.059862,14.2169734 L199.059862,14.2169734 Z" id="Dribbble"></path>
            </g>
        </g>
    </g>
</svg>