<?xml version="1.0" encoding="UTF-8"?>
<svg width="34px" height="34px" viewBox="0 0 34 34" version="1.1" xmlns="http://www.w3.org/2000/svg" xmlns:xlink="http://www.w3.org/1999/xlink">
    <!-- Generator: Sketch 47 (45396) - http://www.bohemiancoding.com/sketch -->
    <title>Facebook-color</title>
    <desc>Created with Sketch.</desc>
    <defs></defs>
    <g id="Welcome" stroke="none" stroke-width="1" fill="none" fill-rule="evenodd">
        <g id="Desktop-HD" transform="translate(-752.000000, -1822.000000)" fill="#4460A0">
            <g id="Group-2" transform="translate(752.000000, 1822.000000)">
                <path d="M17.9504245,34 L1.85483155,34 C0.830136225,34 0,33.1596273 0,32.1233436 L0,1.87652443 C0,0.839976874 0.830266627,0 1.85483155,0 L31.7519934,0 C32.7762975,0 33.6066946,0.839976874 33.6066946,1.87652443 L33.6066946,32.1233436 C33.6066946,33.1597593 32.7761671,34 31.7519934,34 L23.1881328,34 L23.1881328,20.8333262 L27.5564542,20.8333262 L28.2105483,15.7020398 L23.1881328,15.7020398 L23.1881328,12.4260377 C23.1881328,10.9404118 23.5958985,9.92800686 25.7016226,9.92800686 L28.3873728,9.92681952 L28.3873728,5.3373558 C27.9228825,5.27482258 26.3285932,5.13511227 24.4737617,5.13511227 C20.6014878,5.13511227 17.9504245,7.52641443 17.9504245,11.9178563 L17.9504245,15.7020398 L13.5708886,15.7020398 L13.5708886,20.8333262 L17.9504245,20.8333262 L17.9504245,34 L17.9504245,34 Z" id="Facebook"></path>
            </g>
        </g>
    </g>
</svg>