<?xml version="1.0" encoding="UTF-8"?>
<svg width="35px" height="29px" viewBox="0 0 35 29" version="1.1" xmlns="http://www.w3.org/2000/svg" xmlns:xlink="http://www.w3.org/1999/xlink">
    <!-- Generator: Sketch 47 (45396) - http://www.bohemiancoding.com/sketch -->
    <title>Twitter-color</title>
    <desc>Created with Sketch.</desc>
    <defs></defs>
    <g id="Welcome" stroke="none" stroke-width="1" fill="none" fill-rule="evenodd">
        <g id="Desktop-HD" transform="translate(-807.000000, -1825.000000)" fill="#00AAEC">
            <g id="Group-2" transform="translate(752.000000, 1822.000000)">
                <path d="M89.2175732,6.58358613 C87.9827437,7.15961538 86.6532307,7.54916035 85.2586229,7.72321235 C86.6828193,6.82808776 87.7756237,5.4087351 88.2904648,3.7179442 C86.9570067,4.54676327 85.483496,5.14972914 83.9093843,5.47296858 C82.654829,4.06604821 80.8617619,3.1875 78.8773553,3.1875 C75.0722656,3.1875 71.9851917,6.4302546 71.9851917,10.4293066 C71.9851917,10.9970477 72.0443689,11.5482124 72.1627231,12.0786566 C66.432404,11.7761376 61.3530333,8.89599133 57.950348,4.50946641 C57.3566041,5.58278711 57.0173219,6.82808776 57.0173219,8.15419827 C57.0173219,10.66552 58.2343983,12.8826111 60.08467,14.1817849 C58.9563593,14.1465601 57.8911709,13.8171046 56.9601173,13.2783722 L56.9601173,13.3674702 C56.9601173,16.877519 59.3370655,19.8053223 62.4931794,20.4683776 C61.915216,20.6382855 61.3056916,20.7232394 60.6764414,20.7232394 C60.2326128,20.7232394 59.7986472,20.6797264 59.3784895,20.5947725 C60.2562837,23.4707746 62.8009005,25.5656148 65.8189343,25.6215601 C63.4597392,27.5651408 60.485102,28.7234155 57.256003,28.7234155 C56.6997379,28.7234155 56.1493906,28.6902627 55.6108787,28.6239572 C58.6624462,30.6752844 62.288032,31.875 66.1799148,31.875 C78.8635473,31.875 85.7971349,20.8413462 85.7971349,11.270558 C85.7971349,10.9556067 85.7912171,10.6406555 85.7793817,10.3319204 C87.1266478,9.31040087 88.2963825,8.03609155 89.2175732,6.58358613" id="Twitter"></path>
            </g>
        </g>
    </g>
</svg>