<?xml version="1.0" standalone="no"?>
<!DOCTYPE svg PUBLIC "-//W3C//DTD SVG 1.1//EN" "http://www.w3.org/Graphics/SVG/1.1/DTD/svg11.dtd" >
<svg xmlns="http://www.w3.org/2000/svg" xmlns:xlink="http://www.w3.org/1999/xlink" version="1.1">
<metadata>
Created by FontForge 20170731 at Sat Oct  8 16:41:50 2016
 By Aleksey,,,
(C) 2016 Sharp Type Corporation
</metadata>
<defs>
<font id="SharpGroteskSmBold25-Regular" horiz-adv-x="848" >
  <font-face 
    font-family="Sharp Grotesk SmBold 25"
    font-weight="600"
    font-stretch="ultra-expanded"
    units-per-em="1000"
    panose-1="2 11 7 7 5 7 2 3 2 4"
    ascent="800"
    descent="-200"
    x-height="580"
    cap-height="717"
    bbox="-115 -353 2146 1235"
    underline-thickness="50"
    underline-position="-150"
    unicode-range="U+0020-3009"
  />
<missing-glyph horiz-adv-x="57" 
 />
    <glyph glyph-name=".notdef" horiz-adv-x="57" 
 />
    <glyph glyph-name=".null" horiz-adv-x="0" 
 />
    <glyph glyph-name="nonmarkingreturn" horiz-adv-x="333" 
 />
    <glyph glyph-name="space" unicode=" " horiz-adv-x="247" 
 />
    <glyph glyph-name="exclam" unicode="!" horiz-adv-x="414" 
d="M59 717v-76q0 -94 12 -170t28 -126q7 -25 13.5 -41.5t11.5 -24.5q12 2 34.5 4t48.5 2t46 -2t34 -4q10 16 25.5 66t27.5 126q6 38 9 80.5t3 89.5v76h-293zM203 -16q76 0 108.5 26t32.5 93q0 68 -33.5 93.5t-107.5 25.5q-75 0 -108.5 -25.5t-33.5 -93.5q0 -45 12.5 -71
t43.5 -37q16 -6 37.5 -8.5t48.5 -2.5z" />
    <glyph glyph-name="quotedbl" unicode="&#x22;" horiz-adv-x="578" 
d="M357 437h152q5 8 12.5 48t12.5 97q3 28 4.5 57.5t1.5 59.5v18h-213v-18q0 -60 5 -117t12 -97q4 -20 7 -32t6 -16zM71 437h152q5 8 12 48t13 97q2 28 3.5 57.5t1.5 59.5v18h-213v-18q0 -60 5 -117t13 -97q3 -20 6.5 -32t6.5 -16z" />
    <glyph glyph-name="numbersign" unicode="#" horiz-adv-x="1096" 
d="M622 286h-178l28 140h178zM565 0h226l19 96h213v190h-175l28 140h191v190h-153l20 101h-226l-20 -101h-178l20 101h-229l-20 -101h-207v-190h169l-28 -140h-186v-190h148l-19 -96h229l19 96h178z" />
    <glyph glyph-name="dollar" unicode="$" horiz-adv-x="853" 
d="M540 -144v128q152 17 222.5 83.5t69.5 162.5q0 76 -38 121.5t-114 68.5q-39 11 -87 18.5t-107 10.5q-69 4 -111 9t-64 11q-21 6 -28.5 15t-7.5 22q0 24 26.5 39.5t96.5 15.5q72 0 116.5 -15.5t57.5 -61.5h253q-27 110 -97.5 168t-188.5 77v145h-224v-141
q-138 -16 -210.5 -80.5t-72.5 -160.5q0 -110 78.5 -158t240.5 -59q98 -6 149.5 -12t70.5 -17q9 -5 14 -13.5t5 -19.5q0 -28 -31 -41.5t-99 -13.5q-73 0 -123.5 19t-63.5 68h-267q13 -74 47.5 -128t97.5 -86q32 -17 73 -28t91 -17v-130h225z" />
    <glyph glyph-name="percent" unicode="%" horiz-adv-x="977" 
d="M214 388q101 0 155 46t54 122q0 75 -54 122.5t-151 47.5q-100 0 -155 -48t-55 -122q0 -78 49.5 -123t156.5 -45zM-16 0h286l715 717h-273zM214 503q-29 0 -43.5 13.5t-14.5 39.5q0 27 15 40t44 13q28 0 43.5 -13.5t15.5 -39.5t-16 -39.5t-44 -13.5zM757 -8q101 0 155 46
t54 122t-54 123.5t-151 47.5q-100 0 -155 -48.5t-55 -122.5q0 -77 49.5 -122.5t156.5 -45.5zM757 108q-29 0 -43.5 13t-14.5 39q0 27 15 40t44 13q28 0 43.5 -13.5t15.5 -39.5q0 -25 -16 -38.5t-44 -13.5z" />
    <glyph glyph-name="ampersand" unicode="&#x26;" horiz-adv-x="1034" 
d="M429 497q0 34 20 55.5t56 21.5q29 0 44.5 -14t15.5 -37q0 -29 -26 -47.5t-103 -29.5q-3 13 -5 25.5t-2 25.5zM321 148q-50 0 -75 15t-25 45q1 26 22.5 43.5t85.5 30.5q19 -26 42 -51t50 -50q5 -4 10 -8.5t10 -9.5q-30 -7 -60 -11t-60 -4zM847 -18q62 0 106 15.5t66 37.5
v160q-24 -24 -57 -39t-86 -15q-23 0 -47.5 3.5t-50.5 10.5q80 62 147.5 143.5t113.5 183.5h-204q-38 -76 -95.5 -138.5t-127.5 -106.5q-16 11 -32 24t-31 27q-10 9 -18.5 17.5l-16.5 16.5q122 29 178 80t56 131q0 56 -27 99.5t-79 69.5q-26 12 -58 18.5t-70 6.5
q-76 0 -135.5 -29t-92.5 -83q-17 -27 -25.5 -59t-8.5 -69q0 -18 2.5 -36t7.5 -36q-133 -24 -195 -80t-62 -154q0 -100 81.5 -150t226.5 -50q64 0 136.5 16.5t146.5 49.5q59 -33 120 -49t131 -16z" />
    <glyph glyph-name="quotesingle" unicode="'" horiz-adv-x="294" 
d="M71 437h152q5 8 12 48t13 97q2 28 3.5 57.5t1.5 59.5v18h-213v-18q0 -60 5 -117t13 -97q3 -20 6.5 -32t6.5 -16z" />
    <glyph glyph-name="parenleft" unicode="(" horiz-adv-x="503" 
d="M480 -182v225q-68 4 -110 25t-61 73q-10 26 -14.5 62.5t-4.5 83.5q0 101 17.5 158t59.5 82q20 13 48.5 20.5t64.5 9.5v212q-141 -4 -239 -51t-149 -151q-25 -52 -38 -122t-13 -158q0 -133 27 -222t81 -142q55 -53 137.5 -77.5t193.5 -27.5z" />
    <glyph glyph-name="parenright" unicode=")" horiz-adv-x="503" 
d="M23 -182q111 3 193.5 27.5t137.5 77.5q54 53 81 142t27 222q0 176 -51 280t-149 151q-49 23 -108.5 36t-130.5 15v-212q72 -4 113.5 -29.5t59.5 -82.5q8 -28 12.5 -67.5t4.5 -90.5q0 -95 -19 -146.5t-61 -73.5q-21 -10 -48.5 -16.5t-61.5 -8.5v-224z" />
    <glyph glyph-name="asterisk" unicode="*" horiz-adv-x="619" 
d="M498 349l89 156l-203 55l203 57l-91 155l-148 -147l53 203h-181l53 -203l-150 145l-89 -155l203 -55l-203 -57l90 -155l149 146l-53 -202h181l-53 204z" />
    <glyph glyph-name="plus" unicode="+" horiz-adv-x="708" 
d="M662 264v211h-205v195h-205v-195h-203v-211h203v-197h205v197h205z" />
    <glyph glyph-name="comma" unicode="," horiz-adv-x="398" 
d="M88 -204q128 5 190 75t62 192q0 90 -30.5 126.5t-108.5 36.5q-76 0 -109.5 -25t-33.5 -95q0 -49 11 -73.5t37 -33.5q13 -4 31 -6t40 -2q8 0 15 0.5t14 1.5q-7 -45 -36.5 -65t-82.5 -24z" />
    <glyph glyph-name="hyphen" unicode="-" horiz-adv-x="660" 
d="M614 421h-568v-226h568v226z" />
    <glyph glyph-name="period" unicode="." horiz-adv-x="396" 
d="M197 -15q77 0 109.5 26.5t32.5 99.5q0 76 -34 101.5t-108 25.5t-108 -25.5t-34 -101.5q0 -51 13 -78t44 -38q15 -5 36.5 -7.5t48.5 -2.5z" />
    <glyph glyph-name="slash" unicode="/" horiz-adv-x="501" 
d="M254 0l262 717h-268l-262 -717h268z" />
    <glyph glyph-name="zero" unicode="0" horiz-adv-x="928" 
d="M464 -20q130 0 227 40.5t151 123.5q27 42 40.5 94t13.5 115v4q0 120 -55 204.5t-152 129.5q-48 22 -104 33t-119 11q-128 0 -226 -45t-153 -130q-27 -42 -41 -93t-14 -111v-2q0 -128 52.5 -211t149.5 -123q49 -20 106.5 -30t123.5 -10zM463 192q-85 0 -133.5 40.5
t-48.5 121.5v1q0 85 49 126.5t134 41.5q84 0 133.5 -40.5t49.5 -128.5q0 -86 -49.5 -124t-134.5 -38z" />
    <glyph glyph-name="one" unicode="1" horiz-adv-x="671" 
d="M646 0v220h-181v497h-196q-17 -59 -56.5 -90t-111.5 -36v-168h129v-203h-201v-220h617z" />
    <glyph glyph-name="two" unicode="2" horiz-adv-x="841" 
d="M803 0v205h-518q16 21 55.5 33t97.5 23q30 6 63 13t70 16q79 18 133 43t83 64q14 20 21 45.5t7 55.5q0 70 -37 123t-118 82q-40 15 -92.5 22.5t-117.5 7.5q-202 0 -302.5 -74.5t-105.5 -219.5h242q1 50 39 76t123 26q72 0 100.5 -16t28.5 -45q0 -33 -52.5 -47.5
t-144.5 -28.5q-64 -10 -125.5 -25t-110.5 -42q-50 -26 -79 -69.5t-29 -111.5v-156h769z" />
    <glyph glyph-name="three" unicode="3" horiz-adv-x="850" 
d="M418 -19q202 0 305 60.5t103 171.5q0 77 -46.5 112.5t-125.5 47.5q74 14 115 49t41 101q0 98 -94.5 154t-276.5 56q-129 0 -220.5 -28t-140.5 -89q-24 -31 -36.5 -71t-13.5 -90h235q1 43 37 64.5t121 21.5q74 0 106 -15t32 -44q0 -26 -27.5 -37.5t-99.5 -11.5h-99v-139
h101q80 0 107.5 -12t27.5 -42q0 -28 -34 -44t-117 -16q-85 0 -119 19.5t-35 67.5h-246q0 -71 19 -124.5t63 -89.5q45 -36 122.5 -54t195.5 -18z" />
    <glyph glyph-name="four" unicode="4" horiz-adv-x="866" 
d="M481 326v166l-205 -166h205zM852 136h-133v-136h-238v136h-468v162l502 419h204v-391h133v-190z" />
    <glyph glyph-name="five" unicode="5" horiz-adv-x="835" 
d="M422 -17q188 0 287.5 65t99.5 188q0 119 -77.5 174.5t-222.5 55.5q-78 0 -137 -20.5t-98 -57.5q4 32 8 67.5t8 68.5h276q68 0 109.5 7t63.5 28q22 20 29.5 58t7.5 100h-692l-45 -387l222 -56l12 7q26 18 67 31t98 13q58 0 90 -16.5t32 -57.5q0 -37 -33.5 -56t-101.5 -19
q-67 0 -100.5 15.5t-40.5 46.5h-263q9 -81 50 -138t126 -87q43 -15 99 -22.5t126 -7.5z" />
    <glyph glyph-name="six" unicode="6" horiz-adv-x="879" 
d="M856 235q0 112 -74.5 163.5t-223.5 51.5q-97 0 -171 -28.5t-115 -70.5v12q0 90 44 134.5t143 44.5q63 0 90.5 -14.5t38.5 -35.5h268q-33 131 -131.5 186.5t-263.5 55.5q-208 0 -318.5 -96t-110.5 -290q0 -120 43.5 -202t138.5 -124q47 -21 109 -31.5t138 -10.5
q122 0 210.5 30t136.5 87q24 29 36 63.5t12 74.5zM459 184q-64 0 -104 16t-60 49q31 29 79 47t106 18q71 0 99 -15t28 -48t-32 -50t-116 -17z" />
    <glyph glyph-name="seven" unicode="7" horiz-adv-x="785" 
d="M395 0q50 173 149 301t237 233v183h-768v-216h447q-51 -38 -105.5 -91t-105.5 -117q-52 -65 -93.5 -139t-67.5 -154h307z" />
    <glyph glyph-name="eight" unicode="8" horiz-adv-x="870" 
d="M433 -17q207 0 311 51t104 164q0 64 -41 104t-112 59q62 18 96.5 54.5t34.5 96.5q0 107 -96 164t-293 57q-196 0 -291 -56.5t-95 -163.5q0 -61 33 -98.5t94 -54.5q-73 -20 -115.5 -62.5t-42.5 -107.5q0 -115 103.5 -161t309.5 -46zM426 418q-73 0 -107 12.5t-34 42.5
q0 29 35.5 46t117.5 17q83 0 118.5 -16.5t35.5 -45.5q0 -30 -35.5 -43t-109.5 -13h-21zM436 183q-94 0 -129.5 14.5t-35.5 43.5q0 32 38.5 45.5t112.5 13.5h30q80 0 116 -14t36 -45q0 -28 -37 -43t-131 -15z" />
    <glyph glyph-name="nine" unicode="9" horiz-adv-x="880" 
d="M401 402q-69 0 -96.5 13t-27.5 47t32 54.5t114 20.5q68 0 108.5 -17.5t58.5 -58.5q-31 -27 -77.5 -43t-111.5 -16zM417 -19q212 0 321 94t109 287q0 191 -107 281.5t-311 90.5q-134 0 -223.5 -33.5t-134.5 -92.5q-23 -30 -34 -64t-11 -73q0 -111 76 -158.5t218 -47.5
q95 0 168.5 25.5t118.5 69.5v-10q0 -91 -43 -134.5t-141 -43.5q-61 0 -91.5 14t-41.5 39h-268q18 -90 69 -143.5t133 -76.5q41 -12 89.5 -18t103.5 -6z" />
    <glyph glyph-name="colon" unicode=":" horiz-adv-x="400" 
d="M200 353q52 0 82.5 10t43.5 35q7 13 10.5 31.5t3.5 42.5q0 49 -14 74.5t-45 35.5q-15 5 -35.5 7.5t-45.5 2.5q-51 0 -82 -10t-44 -36q-7 -13 -10.5 -31.5t-3.5 -42.5q0 -49 12 -75t42 -35q15 -4 36.5 -6.5t49.5 -2.5zM200 7q52 0 82.5 9.5t43.5 35.5q7 12 10.5 30.5
t3.5 42.5q0 49 -13.5 75t-44.5 35q-16 5 -36 7.5t-46 2.5q-51 0 -82 -9.5t-44 -35.5q-7 -13 -10.5 -31.5t-3.5 -43.5q0 -49 12 -74.5t43 -34.5q15 -5 36.5 -7t48.5 -2z" />
    <glyph glyph-name="semicolon" unicode=";" horiz-adv-x="403" 
d="M200 353q77 0 108.5 25t31.5 94q0 70 -32 95t-108 25q-77 0 -108.5 -26t-31.5 -94q0 -48 12 -73.5t42 -35.5q15 -5 36.5 -7.5t49.5 -2.5zM92 -199q128 5 189.5 72.5t61.5 189.5q0 85 -30.5 121.5t-108.5 36.5q-76 0 -109.5 -25t-33.5 -95q0 -46 11.5 -70t37.5 -32
q13 -4 30.5 -6t39.5 -2q6 0 12.5 0.5t12.5 1.5q-7 -46 -34.5 -65.5t-80.5 -23.5z" />
    <glyph glyph-name="less" unicode="&#x3c;" horiz-adv-x="712" 
d="M628 28v224l-294 102l294 103v219l-549 -226v-197z" />
    <glyph glyph-name="equal" unicode="=" horiz-adv-x="732" 
d="M646 440v195h-560v-195h560zM646 106v196h-560v-196h560z" />
    <glyph glyph-name="greater" unicode="&#x3e;" horiz-adv-x="712" 
d="M85 28l548 225v197l-548 226v-219l293 -103l-293 -102v-224z" />
    <glyph glyph-name="question" unicode="?" 
d="M511 231l2 14q5 38 38 53t92 30q48 13 85 33t59 55q10 17 15.5 40t5.5 52q0 107 -88 166t-287 59q-194 0 -293.5 -68t-107.5 -214h243q2 48 39 69t122 21q55 0 83 -5.5t39 -15.5q5 -6 7.5 -12t2.5 -14q0 -21 -29 -32t-88 -23q-48 -9 -85 -24.5t-59 -44.5
q-10 -14 -15.5 -33t-5.5 -43v-6q0 -16 2 -30.5t5 -25.5q14 8 40.5 12t68.5 4t68 -4.5t41 -12.5zM402 -15q83 0 117.5 24.5t34.5 86.5t-36 86t-116 24q-81 0 -116 -24t-35 -86q0 -42 13 -66.5t46 -34.5q17 -5 40 -7.5t52 -2.5z" />
    <glyph glyph-name="at" unicode="@" horiz-adv-x="940" 
d="M472 -140q123 0 217 42t152 129l-167 32q-31 -36 -78.5 -56t-121.5 -20q-106 0 -173.5 38t-100.5 101q-16 32 -24 67.5t-8 73.5q0 86 37 150.5t108 99.5q35 18 78 27t93 9q104 0 167.5 -31t91.5 -83q15 -26 22 -54t7 -59q0 -50 -11.5 -77t-38.5 -27q-23 0 -32.5 17.5
t-9.5 60.5v144h-102l-22 -54q-19 31 -52 46.5t-80 15.5q-55 0 -94.5 -24t-60.5 -65q-10 -20 -15.5 -43.5t-5.5 -49.5q0 -80 44.5 -130t129.5 -50q54 0 90 20t53 56q21 -34 58.5 -51.5t91.5 -17.5q90 0 143.5 59t53.5 174q0 68 -26.5 131t-79.5 113t-133.5 79t-187.5 29
q-137 0 -240 -52.5t-159 -146.5q-29 -47 -43 -101.5t-14 -116.5q0 -135 55.5 -225t155.5 -135q50 -23 108 -34t124 -11zM465 216q-33 0 -50 16t-17 38q0 25 16.5 42.5t52.5 17.5q30 0 46.5 -17.5t16.5 -41.5q0 -19 -15 -37t-50 -18z" />
    <glyph glyph-name="A" unicode="A" horiz-adv-x="889" 
d="M532 293h-175l87 209zM655 0h251l-323 717h-275l-325 -717h253l51 123h316z" />
    <glyph glyph-name="B" unicode="B" horiz-adv-x="873" 
d="M489 0q176 0 270.5 47t94.5 161v2q0 74 -40.5 110.5t-128.5 50.5q73 14 111 49t38 102v3q0 104 -84 148t-271 44h-418v-717h428zM467 543q65 0 92 -11t27 -43v-2q0 -31 -30 -42t-86 -11h-170v109h167zM459 298q81 0 109.5 -11.5t28.5 -45.5v-2q0 -21 -11.5 -33.5
t-42.5 -17.5q-15 -3 -37.5 -4.5t-52.5 -1.5h-153v116h159z" />
    <glyph glyph-name="C" unicode="C" horiz-adv-x="923" 
d="M905 316h-263q-7 -57 -49 -90.5t-126 -33.5q-88 0 -137 40.5t-49 122.5v1q0 85 51 126t140 41q77 0 119 -31.5t50 -82.5h262q-12 111 -69.5 183t-150.5 108q-47 17 -99.5 26t-112.5 9q-130 0 -229 -45t-154 -130q-28 -43 -42 -94t-14 -111v-2q0 -130 51.5 -212.5
t147.5 -121.5q48 -19 105.5 -29t123.5 -10q200 0 315 85t130 251z" />
    <glyph glyph-name="D" unicode="D" horiz-adv-x="891" 
d="M61 0h371q133 0 228.5 38.5t147.5 116.5q25 40 38 90t13 110v3q0 182 -113.5 270.5t-319.5 88.5h-365v-717zM413 515q109 0 153.5 -36t44.5 -120v-2q0 -80 -43.5 -116.5t-150.5 -36.5h-117v311h113z" />
    <glyph glyph-name="E" unicode="E" horiz-adv-x="799" 
d="M768 194h-477v97h413v143h-413v96h462v187h-692v-717h707v194z" />
    <glyph glyph-name="F" unicode="F" horiz-adv-x="759" 
d="M720 204v196h-427v111h434v206h-666v-717h232v204h427z" />
    <glyph glyph-name="G" unicode="G" horiz-adv-x="940" 
d="M680 0h213v393h-459v-132h210q-14 -42 -58.5 -64t-123.5 -22q-94 0 -137.5 43.5t-43.5 127.5v1q0 94 48 136.5t138 42.5q70 0 106 -20t47 -58h271q-20 150 -131 218.5t-293 68.5q-131 0 -229 -45t-152 -133q-27 -43 -40.5 -96.5t-13.5 -116.5v-3q0 -184 94.5 -272.5
t260.5 -88.5q125 0 193.5 52t84.5 167z" />
    <glyph glyph-name="H" unicode="H" horiz-adv-x="902" 
d="M600 0h241v717h-241v-253h-296v253h-243v-717h243v250h296v-250z" />
    <glyph glyph-name="I" unicode="I" horiz-adv-x="667" 
d="M628 0v217h-179v286h179v214h-589v-214h178v-286h-178v-217h589z" />
    <glyph glyph-name="J" unicode="J" horiz-adv-x="776" 
d="M366 -20q176 0 267.5 87.5t91.5 269.5v380h-247v-381q0 -82 -27.5 -113t-83.5 -31q-61 0 -84.5 31.5t-23.5 97.5v29h-246v-32q0 -176 86 -257t267 -81z" />
    <glyph glyph-name="K" unicode="K" horiz-adv-x="895" 
d="M622 0h278l-291 440l286 277h-299l-295 -286v286h-240v-717h240v194l123 116z" />
    <glyph glyph-name="L" unicode="L" horiz-adv-x="736" 
d="M714 0v225h-403v492h-250v-717h653z" />
    <glyph glyph-name="M" unicode="M" horiz-adv-x="1009" 
d="M492 170h17l203 228v-398h236v717h-212l-230 -268l-225 268h-220v-717h237v396z" />
    <glyph glyph-name="N" unicode="N" horiz-adv-x="931" 
d="M645 0h225v717h-231v-412l-344 412h-234v-717h232v426z" />
    <glyph glyph-name="O" unicode="O" horiz-adv-x="928" 
d="M464 -20q130 0 227 40.5t151 123.5q27 42 40.5 94t13.5 115v4q0 120 -55 204.5t-152 129.5q-48 22 -104 33t-119 11q-128 0 -226 -45t-153 -130q-27 -42 -41 -93t-14 -111v-2q0 -128 52.5 -211t149.5 -123q49 -20 106.5 -30t123.5 -10zM463 192q-85 0 -133.5 40.5
t-48.5 121.5v1q0 85 49 126.5t134 41.5q84 0 133.5 -40.5t49.5 -128.5q0 -86 -49.5 -124t-134.5 -38z" />
    <glyph glyph-name="P" unicode="P" 
d="M443 520q75 0 108.5 -15.5t33.5 -67.5q0 -43 -30.5 -60.5t-108.5 -17.5h-152v161h149zM454 172q188 -1 278.5 66t90.5 200q0 140 -88 209.5t-290 69.5h-384v-717h233v172h160z" />
    <glyph glyph-name="Q" unicode="Q" horiz-adv-x="928" 
d="M802 -138l-102 165q92 41 144 122t52 204v4q0 120 -55 204.5t-152 129.5q-48 22 -104 33t-119 11q-128 0 -226 -45t-153 -130q-27 -42 -41 -93t-14 -111v-2q0 -128 52.5 -210t148.5 -122q49 -19 106.5 -29t123.5 -10h10l66 -121h263zM463 192q-85 0 -133.5 40.5
t-48.5 121.5v1q0 85 49 126.5t134 41.5q84 0 133.5 -40.5t49.5 -128.5q0 -86 -49.5 -124t-134.5 -38z" />
    <glyph glyph-name="R" unicode="R" horiz-adv-x="859" 
d="M461 528q63 0 92.5 -14.5t29.5 -54.5v-7q0 -42 -34.5 -55.5t-90.5 -13.5h-161v145h164zM441 204q72 0 98.5 -21.5t26.5 -80.5v-54q0 -13 5 -27t19 -21h253q-14 8 -20 22t-6 30v46q0 89 -29 134.5t-104 63.5q73 23 107.5 68t34.5 118q0 81 -35.5 133t-116.5 77
q-40 12 -94 18.5t-122 6.5h-397v-717h236v204h144z" />
    <glyph glyph-name="S" unicode="S" horiz-adv-x="855" 
d="M444 -21q135 0 221 31.5t126 87.5q21 28 31 61t10 71q0 76 -37.5 121.5t-114.5 68.5q-39 11 -87 18.5t-107 10.5q-69 4 -111 9t-64 11q-21 6 -28.5 15t-7.5 22q0 24 27 39.5t97 15.5q74 0 118.5 -16t55.5 -61h255q-32 138 -135.5 196t-286.5 58q-180 0 -277 -66t-97 -180
q0 -110 78.5 -158t240.5 -59q98 -6 149.5 -12t70.5 -17q9 -5 14 -13.5t5 -19.5q0 -28 -31 -41t-99 -13q-73 0 -123.5 18.5t-63.5 67.5h-267q16 -88 62.5 -147.5t136.5 -88.5q46 -15 105.5 -22.5t133.5 -7.5z" />
    <glyph glyph-name="T" unicode="T" horiz-adv-x="775" 
d="M747 507v210h-718v-210h232v-507h246v507h240z" />
    <glyph glyph-name="U" unicode="U" horiz-adv-x="890" 
d="M445 -20q126 0 214 41t134 129q23 45 34.5 103t11.5 129v335h-250v-333q0 -102 -35.5 -141.5t-106.5 -39.5q-72 0 -109 40t-37 141v333h-250v-335q0 -141 41 -230t128 -130q44 -21 100 -31.5t125 -10.5z" />
    <glyph glyph-name="V" unicode="V" horiz-adv-x="854" 
d="M553 0l318 717h-257l-193 -457l-180 457h-258l298 -717h272z" />
    <glyph glyph-name="W" unicode="W" horiz-adv-x="1285" 
d="M789 0h229l281 717h-248l-155 -426l-158 426h-194l-182 -427l-124 427h-252l228 -717h231l187 426z" />
    <glyph glyph-name="X" unicode="X" horiz-adv-x="847" 
d="M590 0h282l-302 383l277 334h-275l-146 -189l-145 189h-275l276 -341l-310 -376h286l168 213z" />
    <glyph glyph-name="Y" unicode="Y" horiz-adv-x="790" 
d="M511 0v284l312 433h-269l-162 -235l-155 235h-270l297 -432v-285h247z" />
    <glyph glyph-name="Z" unicode="Z" horiz-adv-x="824" 
d="M789 0v205h-401l400 332v180h-730v-200h403l-427 -353v-164h755z" />
    <glyph glyph-name="bracketleft" unicode="[" horiz-adv-x="507" 
d="M484 5h-188v580h188v179h-422v-939h422v180z" />
    <glyph glyph-name="backslash" unicode="\" horiz-adv-x="501" 
d="M-19 717l277 -717h261l-276 717h-262z" />
    <glyph glyph-name="bracketright" unicode="]" horiz-adv-x="507" 
d="M446 -175v938h-422v-178h187v-580h-187v-180h422z" />
    <glyph glyph-name="asciicircum" unicode="^" horiz-adv-x="703" 
d="M434 375h177l-179 343h-158l-182 -343h175l85 183z" />
    <glyph glyph-name="uni005F" unicode="_" horiz-adv-x="824" 
d="M807 -91h-790v-210h790v210z" />
    <glyph glyph-name="grave" unicode="`" horiz-adv-x="672" 
d="M340 671h160l-155 223h-227z" />
    <glyph glyph-name="a" unicode="a" horiz-adv-x="825" 
d="M351 130q-40 0 -57.5 10.5t-17.5 29.5v1q0 12 6.5 21t18.5 16q14 8 42.5 13.5t83.5 10.5q47 6 76.5 14.5t41.5 20.5v-6q0 -34 -26.5 -64t-70.5 -48q-22 -10 -46.5 -14.5t-50.5 -4.5zM572 0h204v343q0 140 -87.5 196.5t-266.5 56.5q-171 0 -269.5 -55.5t-111.5 -171.5h246
q3 33 35 51t111 18q65 0 88 -15t23 -35q0 -14 -13 -22.5t-50 -13.5q-18 -3 -44 -5.5t-61 -5.5q-73 -5 -120.5 -11.5t-79.5 -15.5q-16 -4 -31 -9.5t-29 -12.5q-47 -22 -69.5 -59.5t-22.5 -88.5v-1q0 -81 58.5 -121.5t174.5 -40.5q114 0 187 38t106 98z" />
    <glyph glyph-name="b" unicode="b" horiz-adv-x="845" 
d="M510 -13q81 0 150.5 35t112.5 101q21 34 31.5 74.5t10.5 88.5q0 100 -37.5 168.5t-104.5 103.5q-34 17 -73 26t-84 9q-79 0 -137.5 -28t-91.5 -81v281h-235v-765h211l13 90q29 -49 86 -76t148 -27zM426 169q-72 0 -108 29t-36 87q0 61 38 93.5t107 32.5q73 0 109 -31.5
t36 -94.5q0 -56 -35 -86t-111 -30z" />
    <glyph glyph-name="c" unicode="c" horiz-adv-x="831" 
d="M813 260h-254q-8 -44 -41 -67.5t-100 -23.5q-72 0 -108 29t-36 87q0 63 36.5 94.5t108.5 31.5q64 0 97.5 -22.5t42.5 -67.5h254q-13 127 -114 201.5t-280 74.5q-120 0 -207.5 -39t-134.5 -109q-23 -35 -35 -76t-12 -88q0 -94 39 -162t124 -105q42 -19 98 -28t125 -9
q191 0 290 76t107 203z" />
    <glyph glyph-name="d" unicode="d" 
d="M418 169q-72 0 -108 29t-36 87q0 61 35.5 93.5t108.5 32.5q69 0 107.5 -32.5t38.5 -93.5q0 -58 -36.5 -87t-109.5 -29zM583 0h210v765h-234v-275q-32 52 -86.5 77.5t-132.5 25.5q-91 0 -161 -36t-110 -105q-19 -35 -29 -77t-10 -91q0 -99 41 -165t110 -99
q34 -17 72.5 -25t80.5 -8q92 0 149 30.5t86 83.5z" />
    <glyph glyph-name="e" unicode="e" horiz-adv-x="841" 
d="M427 431q65 0 101 -19t47 -64h-306q14 40 52.5 61.5t105.5 21.5zM809 185h-257q-14 -19 -41.5 -29.5t-83.5 -10.5q-74 0 -112.5 21.5t-49.5 64.5h549v57q0 91 -41.5 160.5t-126.5 108.5q-42 20 -96 30t-120 10q-136 0 -224.5 -42.5t-132.5 -115.5q-21 -37 -32 -77.5
t-11 -86.5q0 -63 19 -116.5t63 -93.5t117.5 -62t182.5 -22q165 0 262.5 48t134.5 156z" />
    <glyph glyph-name="f" unicode="f" horiz-adv-x="566" 
d="M545 333v195h-177v13q0 51 16 67t63 16h99v180h-130q-104 0 -164 -22t-85 -75q-12 -26 -18.5 -61.5t-6.5 -81.5v-36h-130v-195h130v-333h226v333h177z" />
    <glyph glyph-name="g" unicode="g" horiz-adv-x="801" 
d="M806 -32v3q0 95 -68 136t-228 41h-183q-79 0 -105.5 4.5t-26.5 18.5q0 11 9.5 17.5t38.5 9.5q15 1 36.5 2t50.5 1h93q190 0 272 46.5t82 143.5q0 77 -47 118.5t-146 54.5q-26 5 -64.5 7.5t-84.5 4.5l76 -3q82 0 134.5 2t81.5 14q30 11 41.5 38t11.5 76v15h-252v-32
q0 -40 -10 -60t-34 -27q-12 -4 -28 -5.5t-37 -1.5h-32q-183 0 -269 -53.5t-86 -146.5q0 -72 41.5 -108.5t127.5 -50.5q-100 -9 -142.5 -42.5t-42.5 -86.5q0 -58 46.5 -85t147.5 -31q-109 -7 -154 -36.5t-45 -78.5q0 -40 31 -67.5t106 -41.5q38 -7 90 -10.5t118 -3.5h53
q210 0 303.5 54.5t93.5 163.5zM406 337q-79 0 -111.5 10t-32.5 40q0 31 30 44t104 14h16q81 0 112.5 -13t31.5 -43q0 -28 -34.5 -40t-115.5 -12zM404 -103q-89 0 -127 9.5t-38 34.5v1q0 24 27 34.5t92 10.5h128q48 0 71.5 -4.5t30.5 -12.5q4 -5 6 -10.5t2 -11.5v-3
q0 -14 -13 -24.5t-48 -17.5q-18 -3 -42.5 -4.5t-57.5 -1.5h-31z" />
    <glyph glyph-name="h" unicode="h" horiz-adv-x="819" 
d="M289 251q0 77 30 112.5t97 35.5q65 0 89.5 -36.5t24.5 -103.5v-259h239v332q0 125 -66.5 195t-191.5 70q-77 0 -133.5 -32.5t-89.5 -88.5v289h-236v-765h237v251z" />
    <glyph glyph-name="i" unicode="i" horiz-adv-x="353" 
d="M178 619q71 0 106 24.5t35 80.5q0 58 -36.5 81.5t-104.5 23.5t-104 -23.5t-36 -81.5t32.5 -81.5t107.5 -23.5zM53 0h247v578q-7 -6 -28.5 -10.5t-47.5 -7.5q-13 -1 -24.5 -1.5t-22.5 -0.5q-20 0 -46.5 2.5t-48.5 6.5q-11 2 -18.5 5t-10.5 6v-578z" />
    <glyph glyph-name="j" unicode="j" horiz-adv-x="348" 
d="M176 619q71 0 105 24.5t34 80.5q0 58 -35.5 81.5t-103.5 23.5t-104 -23.5t-36 -81.5t32 -81.5t108 -23.5zM-87 -281h114q86 0 139 10.5t81 37.5t38.5 76t10.5 126v609q-7 -6 -28 -10.5t-46 -7.5q-13 -1 -24.5 -1.5t-22.5 -0.5q-20 0 -45.5 2.5t-46.5 6.5q-11 2 -18 5
t-10 6v-563q0 -47 -6.5 -69t-25.5 -29q-10 -4 -24.5 -5.5t-33.5 -1.5h-52v-191z" />
    <glyph glyph-name="k" unicode="k" horiz-adv-x="806" 
d="M556 0h275l-252 358l244 222h-287l-248 -222v407h-236v-765h236v143l109 98z" />
    <glyph glyph-name="l" unicode="l" horiz-adv-x="346" 
d="M294 0v765h-241v-765h241z" />
    <glyph glyph-name="m" unicode="m" horiz-adv-x="1235" 
d="M292 239q0 73 23 116t85 43q44 0 66 -18t29 -50q3 -16 5 -34.5t2 -39.5v-256h238v242q0 70 22 113t81 43q44 0 66.5 -18t30.5 -51q4 -17 6 -36t2 -41v-252h238v324q0 125 -58 198.5t-183 73.5q-85 0 -142.5 -38.5t-83.5 -103.5q-24 68 -77 105.5t-142 37.5
q-86 0 -141.5 -39t-81.5 -102l-21 124h-204v-580h240v239z" />
    <glyph glyph-name="n" unicode="n" horiz-adv-x="823" 
d="M294 250q0 77 29 112.5t96 35.5q65 0 90 -33.5t25 -101.5v-263h240v332q0 125 -67 195t-192 70q-91 0 -149 -40.5t-85 -106.5l-23 130h-206v-580h242v250z" />
    <glyph glyph-name="o" unicode="o" horiz-adv-x="837" 
d="M416 -19q131 0 217.5 38t130.5 106q21 34 32 74t11 86q0 95 -46 165t-133 109q-44 19 -96 28.5t-113 9.5q-120 0 -207.5 -39t-134.5 -109q-23 -35 -35 -76t-12 -88q0 -94 39 -162t124 -105q42 -19 98 -28t125 -9zM418 169q-72 0 -108 29t-36 87q0 63 36.5 94.5
t108.5 31.5q73 0 109 -31.5t36 -94.5q0 -56 -35 -86t-111 -30z" />
    <glyph glyph-name="p" unicode="p" horiz-adv-x="846" 
d="M427 169q-72 0 -108 29t-36 87q0 61 37.5 93.5t107.5 32.5q73 0 109 -31.5t36 -94.5q0 -56 -34.5 -86t-111.5 -30zM510 -13q82 0 151.5 35t111.5 101q22 34 32.5 74.5t10.5 88.5q0 100 -38 168.5t-106 103.5q-34 17 -73.5 26t-84.5 9q-87 0 -149 -32t-95 -89l-17 108
h-201v-782h235v293q28 -49 81.5 -76.5t141.5 -27.5z" />
    <glyph glyph-name="q" unicode="q" horiz-adv-x="846" 
d="M795 -202v782h-202l-16 -106q-33 56 -94 87.5t-147 31.5q-90 0 -159 -36.5t-108 -106.5q-20 -35 -29.5 -77t-9.5 -91q0 -99 40.5 -164.5t109.5 -98.5q35 -16 73.5 -24t80.5 -8q88 0 143 28.5t83 77.5v-295h235zM419 169q-76 0 -110.5 29t-34.5 87q0 62 35.5 94t108.5 32
q70 0 108 -32.5t38 -93.5q0 -58 -36 -87t-109 -29z" />
    <glyph glyph-name="r" unicode="r" horiz-adv-x="599" 
d="M303 0v183q0 63 13.5 99.5t49.5 52.5q18 7 44 11t60 4h101v239h-63q-99 0 -153 -44t-71 -132l-29 167h-203v-580h251z" />
    <glyph glyph-name="s" unicode="s" horiz-adv-x="769" 
d="M391 -19q127 0 206.5 27t116.5 74q19 24 28.5 51.5t9.5 58.5q0 59 -29.5 95.5t-100.5 55.5q-36 10 -85 16t-111 9q-68 3 -106.5 8t-54.5 13q-8 4 -12 9.5t-4 11.5q0 17 21.5 29t84.5 12q59 0 98.5 -12t51.5 -44h243q-34 105 -127.5 153.5t-259.5 48.5q-169 0 -253.5 -56
t-84.5 -151q0 -59 31 -95t101 -54q35 -9 81 -15t104 -9q77 -3 116.5 -7.5t52.5 -12.5q7 -4 10.5 -9t3.5 -11q0 -19 -23.5 -31t-85.5 -12q-74 0 -109 13t-48 44h-255q22 -114 123.5 -162t265.5 -48z" />
    <glyph glyph-name="t" unicode="t" horiz-adv-x="615" 
d="M586 195h-100q-48 0 -72.5 8t-33.5 33q-4 12 -6 30.5t-2 42.5v74h214v197h-214v160h-185q-1 -25 -3.5 -53.5t-10.5 -50.5q-9 -25 -22 -38t-39 -20q-20 -5 -45.5 -7t-54.5 -3v-185h135v-96q0 -103 24 -166t84 -92q30 -15 72 -22t96 -7h163v195z" />
    <glyph glyph-name="u" unicode="u" horiz-adv-x="807" 
d="M550 0h205v580h-242v-261q0 -68 -28 -102t-85 -34q-64 0 -88.5 31.5t-24.5 98.5v267h-238v-332q0 -124 62.5 -194t186.5 -70q94 0 149.5 41.5t79.5 109.5z" />
    <glyph glyph-name="v" unicode="v" horiz-adv-x="789" 
d="M508 0l298 580h-259l-156 -321l-150 321h-259l284 -580h242z" />
    <glyph glyph-name="w" unicode="w" horiz-adv-x="1108" 
d="M679 0h205l235 580h-234l-119 -316l-136 316h-161l-146 -313l-97 313h-239l197 -580h212l149 310z" />
    <glyph glyph-name="x" unicode="x" horiz-adv-x="769" 
d="M521 0h279l-266 301l254 279h-277l-119 -136l-119 136h-279l255 -277l-279 -303h287l133 155z" />
    <glyph glyph-name="y" unicode="y" horiz-adv-x="789" 
d="M167 -246q67 0 112.5 8t79.5 32q33 24 65 70.5t72 123.5l312 592h-250l-150 -302l-9 -29l-9 30l-149 301h-259l291 -548l-7 -13q-15 -28 -30 -44.5t-37 -23.5q-11 -3 -25.5 -5t-33.5 -2h-95v-190h122z" />
    <glyph glyph-name="z" unicode="z" horiz-adv-x="743" 
d="M23 -1l696 1l1 175h-362l359 240v165h-675v-170h358l-377 -253v-158z" />
    <glyph glyph-name="braceleft" unicode="{" horiz-adv-x="555" 
d="M533 -175v178h-77q-49 0 -69 12t-20 34q0 16 11 32.5t26 35.5q14 18 25 39.5t11 46.5q0 24 -15 44t-51 32q-19 6 -44 9t-58 3v19q66 0 102 11t50 31q7 10 10.5 21.5t3.5 24.5q0 25 -11.5 44.5t-26.5 34.5q-16 16 -27.5 29.5t-11.5 26.5q0 25 20.5 39.5t72.5 14.5h79v177
h-223q-107 0 -151.5 -36t-44.5 -104q0 -29 11.5 -52.5t26.5 -43.5t26.5 -38.5t11.5 -36.5q0 -25 -16.5 -38.5t-56.5 -13.5h-96v-202h107q38 0 56.5 -13.5t18.5 -41.5q0 -18 -14 -37.5t-33 -41.5t-33 -48t-14 -56q0 -68 45 -102t151 -34h228z" />
    <glyph glyph-name="bar" unicode="|" horiz-adv-x="382" 
d="M309 -57v840h-235v-840h235z" />
    <glyph glyph-name="braceright" unicode="}" horiz-adv-x="555" 
d="M23 -175h225q107 0 151.5 34t44.5 102q0 30 -13.5 56t-31.5 49q-18 22 -31.5 42t-13.5 38q0 27 19.5 40t57.5 13h104v202h-103q-39 0 -55.5 13.5t-16.5 40.5q0 18 13 36t30 37q16 20 29 43.5t13 52.5q0 68 -44.5 104t-152.5 36h-225v-177h79q53 0 72.5 -14t19.5 -35
q0 -16 -11.5 -30t-25.5 -30q-15 -15 -26.5 -34t-11.5 -44t14 -46t49 -33q18 -6 43.5 -9t57.5 -3v-19q-65 1 -101 -10.5t-50 -31.5q-7 -9 -10.5 -20t-3.5 -23q0 -26 10.5 -47.5t25.5 -40.5q14 -18 24.5 -34t10.5 -30q0 -25 -20.5 -37.5t-69.5 -12.5h-76v-178z" />
    <glyph glyph-name="asciitilde" unicode="~" horiz-adv-x="719" 
d="M87 382h135q0 31 9 45.5t31 14.5q23 0 45 -10t46 -23t52.5 -23t64.5 -10q92 0 127.5 53t35.5 157h-136q-1 -31 -9 -44.5t-34 -13.5q-19 0 -40.5 9.5t-46.5 22.5t-54.5 22.5t-64.5 9.5q-89 0 -125 -55t-36 -155z" />
    <glyph glyph-name="uni00A0" unicode="&#xa0;" horiz-adv-x="247" 
 />
    <glyph glyph-name="exclamdown" unicode="&#xa1;" horiz-adv-x="414" 
d="M208 595q-76 0 -109 -25.5t-33 -92.5q0 -68 34 -93.5t108 -25.5t108 25.5t34 93.5q0 46 -13 71.5t-44 35.5q-15 6 -36.5 8.5t-48.5 2.5zM351 -137v76q0 95 -12 170.5t-28 125.5q-7 25 -13.5 41.5t-11.5 24.5q-12 -2 -34 -4t-48 -2t-46 2t-35 4q-9 -16 -24.5 -66
t-28.5 -126q-6 -38 -9 -80.5t-3 -89.5v-76h293z" />
    <glyph glyph-name="cent" unicode="&#xa2;" horiz-adv-x="819" 
d="M809 260h-253q-11 -46 -44 -68t-97 -22q-80 0 -115 31.5t-35 86.5q0 62 38 92.5t114 30.5q62 0 96.5 -21.5t43.5 -68.5h252q-12 117 -85.5 182.5t-192.5 84.5v118h-224v-118q-134 -24 -210 -104.5t-76 -198.5q0 -121 66.5 -199t217.5 -98v-130h224v132q122 20 194.5 88
t85.5 182z" />
    <glyph glyph-name="sterling" unicode="&#xa3;" horiz-adv-x="837" 
d="M612 -17q79 0 126 22.5t67 75.5q11 26 16 61.5t5 80.5v12h-230v-7q0 -52 -13 -73t-58 -21q-24 0 -51 7.5t-56 17.5q4 15 6 30t2 31q0 18 -2 33t-6 28h159v121h-210q-12 20 -19 36.5t-7 32.5q0 27 20.5 45.5t61.5 18.5q47 0 72 -19.5t31 -53.5l253 1q-20 125 -108 197.5
t-250 72.5q-103 0 -170.5 -29t-101.5 -77q-16 -24 -24.5 -50t-8.5 -54q0 -38 13.5 -68t34.5 -53h-112v-121h203q15 -17 25.5 -35.5t12.5 -38.5q-31 11 -62 17.5t-63 6.5q-72 0 -111.5 -34t-39.5 -89t36 -90t129 -35q54 0 99 19.5t77 52.5q56 -27 120.5 -49.5t133.5 -22.5z
M184 81q-22 0 -32.5 8.5t-10.5 18.5q0 11 8 18t24 7q17 0 38 -7.5t46 -19.5q-14 -12 -32.5 -18.5t-40.5 -6.5z" />
    <glyph glyph-name="currency" unicode="&#xa4;" horiz-adv-x="950" 
d="M478 224q-64 0 -103 32.5t-39 94.5v5q0 65 38.5 99t103.5 34t104 -35t39 -98v-5q0 -62 -39 -94.5t-104 -32.5zM478 62q46 0 86 9t74 25l127 -125l124 133l-126 120q13 28 19.5 60.5t6.5 68.5v1q0 38 -7 72t-21 64l134 132l-130 127l-134 -132q-34 16 -72 24t-81 8
t-81.5 -7.5t-72.5 -23.5l-136 130l-124 -135l130 -124q-13 -28 -20 -61.5t-7 -72.5v-1q0 -38 7 -72.5t21 -64.5l-130 -129l132 -128l131 130q32 -13 69.5 -20.5t80.5 -7.5z" />
    <glyph glyph-name="yen" unicode="&#xa5;" horiz-adv-x="832" 
d="M736 87v118h-204v49h205v120h-194l299 343h-275l-154 -185l-148 185h-276l286 -343h-185v-120h195v-49h-197v-118h197v-87h247v87h204z" />
    <glyph glyph-name="brokenbar" unicode="&#xa6;" horiz-adv-x="382" 
d="M74 416h235v367h-235v-367zM74 328v-385h235v385h-235z" />
    <glyph glyph-name="section" unicode="&#xa7;" horiz-adv-x="903" 
d="M537 278q-88 11 -154 20t-102 23q-18 8 -27 19t-9 25q0 22 18.5 36t58.5 18l24 -4t25 -4q89 -10 154 -18.5t101 -22.5q18 -7 27 -18t9 -25q0 -21 -17 -36.5t-55 -20.5q-13 2 -26 4.5t-27 3.5zM463 -176q125 0 204.5 31.5t117.5 85.5q19 27 28.5 57.5t9.5 63.5
q0 59 -25.5 97.5t-67.5 63.5q78 12 121 47.5t43 97.5q0 66 -38.5 104.5t-107.5 58.5q-35 11 -75.5 19t-87.5 13q-133 16 -201 28.5t-68 47.5q0 26 24.5 43.5t89.5 17.5q66 0 103 -17.5t45 -53.5h242q-30 115 -124 172.5t-253 57.5q-123 0 -200.5 -31.5t-113.5 -85.5
q-19 -27 -28 -58t-9 -66q0 -55 28 -93t74 -63q-85 -12 -132.5 -50t-47.5 -104q0 -63 38 -100.5t107 -57.5q35 -10 75.5 -18t87.5 -13q89 -10 149 -18t91 -20q16 -6 23.5 -14.5t7.5 -20.5q0 -23 -25 -38t-88 -15q-69 0 -107 17.5t-49 56.5h-256q19 -122 123 -182.5t272 -60.5
z" />
    <glyph glyph-name="dieresis" unicode="&#xa8;" horiz-adv-x="674" 
d="M469 668q58 0 82.5 22t24.5 77q0 58 -25.5 79.5t-81.5 21.5t-80.5 -21.5t-24.5 -79.5q0 -57 22 -78t83 -21zM205 668q58 0 82.5 22t24.5 77q0 58 -25.5 79.5t-81.5 21.5q-55 0 -80.5 -21.5t-25.5 -79.5q0 -57 22.5 -78t83.5 -21z" />
    <glyph glyph-name="copyright" unicode="&#xa9;" horiz-adv-x="923" 
d="M462 -20q131 0 228.5 41t152.5 125q27 42 40.5 95t13.5 117q0 118 -55.5 204.5t-152.5 133.5q-49 23 -105 35t-119 12q-128 0 -227 -47t-155 -134q-28 -43 -42 -94t-14 -110q0 -129 54 -212.5t151 -124.5q49 -21 106.5 -31t123.5 -10zM462 109q-136 0 -214 62t-78 188
q0 80 36.5 137.5t102.5 88.5q33 16 72 23.5t83 7.5q87 0 152 -31t101 -88q18 -29 27 -63.5t9 -74.5q0 -126 -78 -188t-213 -62zM693 339h-154q-3 -19 -21 -30t-59 -11q-40 0 -59 17t-19 46q0 32 20.5 49.5t58.5 17.5t58 -11t22 -34h152q-6 81 -67.5 127t-165.5 46
q-105 0 -165 -54t-60 -142t51.5 -139.5t172.5 -51.5q112 0 170 45.5t65 124.5z" />
    <glyph glyph-name="ordfeminine" unicode="&#xaa;" horiz-adv-x="595" 
d="M254 413q-26 0 -37 6.5t-11 17.5q0 8 4.5 14t12.5 11q9 5 27.5 8.5t55.5 7.5q32 4 52 10.5t29 14.5v-2q0 -23 -19 -43t-50 -33q-15 -6 -31 -9t-33 -3zM406 318h158v240q0 93 -60 135.5t-197 42.5q-130 0 -202 -39t-81 -121h190q2 20 23 32t76 12q45 0 59.5 -9t14.5 -21
q0 -10 -8.5 -16t-33.5 -10q-12 -2 -30.5 -3.5t-42.5 -3.5q-77 -6 -121 -14t-73 -22q-33 -16 -49.5 -42t-16.5 -62q0 -56 44.5 -84t132.5 -28q76 0 127.5 23.5t76.5 61.5z" />
    <glyph glyph-name="guillemotleft" unicode="&#xab;" horiz-adv-x="816" 
d="M786 79l-204 237l180 223h-199l-175 -220v-25l192 -215h206zM457 79l-196 231l183 229h-199l-181 -224v-24l185 -212h208z" />
    <glyph glyph-name="logicalnot" unicode="&#xac;" horiz-adv-x="767" 
d="M717 68v500h-691v-211h463v-289h228z" />
    <glyph glyph-name="uni00AD" unicode="&#xad;" horiz-adv-x="660" 
d="M614 421h-568v-226h568v226z" />
    <glyph glyph-name="registered" unicode="&#xae;" horiz-adv-x="532" 
d="M269 259q62 0 111.5 26.5t79.5 75.5q14 25 21.5 54.5t7.5 64.5v23q0 71 -29 120.5t-80 76.5q-25 13 -53.5 19.5t-60.5 6.5q-63 0 -113.5 -27t-80.5 -78q-14 -25 -21.5 -55.5t-7.5 -66.5v-20q0 -73 29.5 -122t80.5 -74q25 -12 54.5 -18t61.5 -6zM269 331q-73 0 -112.5 37
t-39.5 117v8q0 80 39 122.5t110 42.5t110.5 -41t39.5 -120v-11q0 -79 -37.5 -117t-109.5 -38zM264 556q23 0 32 -4.5t9 -20.5t-9.5 -22.5t-31.5 -6.5h-22v54h22zM263 445q21 0 27 -6.5t6 -26.5v-21q0 -4 1 -8.5t3 -6.5h68q-2 1 -3.5 4.5t-1.5 9.5v24q0 23 -7.5 38t-23.5 22
q20 8 30 23.5t10 37.5q0 38 -22.5 58.5t-74.5 20.5h-99v-238h66v69h21z" />
    <glyph glyph-name="macron" unicode="&#xaf;" horiz-adv-x="672" 
d="M136 675h401v146h-401v-146z" />
    <glyph glyph-name="degree" unicode="&#xb0;" horiz-adv-x="431" 
d="M214 388q101 0 155 46t54 122q0 75 -54 122.5t-151 47.5q-100 0 -155 -48t-55 -122q0 -78 49.5 -123t156.5 -45zM214 503q-29 0 -43.5 13.5t-14.5 39.5q0 27 15 40t44 13q28 0 43.5 -13.5t15.5 -39.5t-16 -39.5t-44 -13.5z" />
    <glyph glyph-name="plusminus" unicode="&#xb1;" horiz-adv-x="708" 
d="M606 394v204h-150v139h-202v-139h-149v-204h149v-142h202v142h150zM606 -23v207h-501v-207h501z" />
    <glyph glyph-name="twosuperior" unicode="&#xb2;" horiz-adv-x="416" 
d="M14 359zM390 359v112h-221q20 8 48 14t59 13t57.5 19.5t43.5 33.5q9 11 13 24.5t4 30.5q0 53 -43 86t-138 33t-143.5 -36t-51.5 -109h142q0 17 12.5 26.5t41.5 9.5q26 0 35.5 -5.5t9.5 -15.5q0 -11 -17.5 -17t-45.5 -10q-28 -5 -59.5 -12t-59.5 -21t-45.5 -38t-17.5 -64
v-74h376z" />
    <glyph glyph-name="threesuperior" unicode="&#xb3;" horiz-adv-x="418" 
d="M6 350zM203 350q102 0 150.5 30.5t48.5 85.5q0 36 -22.5 54.5t-63.5 25.5q37 7 57.5 24t20.5 51q0 43 -42.5 72.5t-135.5 29.5q-97 0 -148.5 -34t-53.5 -105h138q1 15 13 22t42 7q25 0 34 -5t9 -14q0 -8 -8.5 -12.5t-28.5 -4.5h-47v-79h50q26 0 34 -4t8 -12q0 -9 -10 -15
t-39 -6q-34 0 -46 7.5t-13 23.5h-144q2 -46 19.5 -77.5t60.5 -48.5q21 -8 50.5 -12t66.5 -4z" />
    <glyph glyph-name="acute" unicode="&#xb4;" horiz-adv-x="672" 
d="M181 666h167l223 223h-226z" />
    <glyph glyph-name="paragraph" unicode="&#xb6;" horiz-adv-x="972" 
d="M621 0v523h82v-523h208v717h-524q-133 0 -214.5 -33.5t-118.5 -95.5q-18 -31 -27.5 -67t-9.5 -78q0 -130 86.5 -200.5t273.5 -70.5h36v-172h208zM387 367q-70 0 -103 18.5t-33 58.5q0 43 35 61t105 18h22v-156h-26z" />
    <glyph glyph-name="periodcentered" unicode="&#xb7;" horiz-adv-x="396" 
d="M197 176q77 0 109.5 26.5t32.5 99.5q0 75 -34 101t-108 26t-108 -26t-34 -101q0 -51 13 -78t44 -38q15 -5 36.5 -7.5t48.5 -2.5z" />
    <glyph glyph-name="cedilla" unicode="&#xb8;" horiz-adv-x="672" 
d="M345 -318q107 0 164 43.5t57 115.5q0 64 -40.5 95t-121.5 34v50h-147v-144h91q40 0 55 -9.5t15 -26.5q0 -20 -17 -32t-52 -12q-34 0 -54 12t-26 36h-171q19 -80 77.5 -121t169.5 -41z" />
    <glyph glyph-name="onesuperior" unicode="&#xb9;" horiz-adv-x="341" 
d="M16 359zM322 359v124h-83v234h-112q-8 -31 -31 -50.5t-61 -21.5v-99h70v-63h-89v-124h306z" />
    <glyph glyph-name="ordmasculine" unicode="&#xba;" horiz-adv-x="591" 
d="M294 312q140 0 209.5 57.5t69.5 152.5q0 98 -72.5 156t-203.5 58q-86 0 -148.5 -27t-95.5 -75q-16 -24 -24.5 -52.5t-8.5 -60.5q0 -64 27.5 -111t87.5 -73q30 -12 70 -18.5t89 -6.5zM296 449q-49 0 -72.5 19.5t-23.5 53.5q0 39 24.5 58.5t72.5 19.5t72 -19.5t24 -58.5
q0 -36 -24 -54.5t-73 -18.5z" />
    <glyph glyph-name="guillemotright" unicode="&#xbb;" horiz-adv-x="816" 
d="M236 79l192 215v25l-175 220h-199l179 -223l-204 -237h207zM567 79l185 212v24l-181 224h-199l182 -228l-195 -232h208z" />
    <glyph glyph-name="onequarter" unicode="&#xbc;" horiz-adv-x="1145" 
d="M129 0zM685 397l386 223l-182 157l-257 -332zM525 356l-396 -239l184 -166l262 358zM449 356v124h-83v234h-112q-8 -31 -31 -50.5t-61 -21.5v-99h70v-63h-89v-124h306zM819 162h-78l78 73v-73zM1007 58v104h-63v196h-117l-229 -209v-91h221v-58h125v58h63z" />
    <glyph glyph-name="onehalf" unicode="&#xbd;" horiz-adv-x="1145" 
d="M129 0zM685 397l386 223l-182 157l-257 -332zM525 356l-396 -239l184 -166l262 358zM449 356v124h-83v234h-112q-8 -31 -31 -50.5t-61 -21.5v-99h70v-63h-89v-124h306zM1022 0v112h-221q20 8 48 14t59 13t57.5 19.5t43.5 33.5q9 11 13 24.5t4 30.5q0 53 -43 86t-138 33
t-143.5 -36t-51.5 -109h142q0 17 12.5 26.5t41.5 9.5q26 0 35.5 -5.5t9.5 -15.5q0 -11 -17.5 -17t-45.5 -10q-28 -5 -59.5 -12t-59.5 -21t-45.5 -38t-17.5 -64v-74h376z" />
    <glyph glyph-name="threequarters" unicode="&#xbe;" horiz-adv-x="1145" 
d="M83 0zM685 397l386 223l-182 157l-257 -332zM525 356l-396 -239l184 -166l262 358zM280 347q102 0 150.5 30.5t48.5 85.5q0 36 -22.5 54.5t-63.5 25.5q37 7 57.5 24t20.5 51q0 43 -42.5 72.5t-135.5 29.5q-97 0 -148.5 -34t-53.5 -105h138q1 15 13 22t42 7q25 0 34 -5
t9 -14q0 -8 -8.5 -12.5t-28.5 -4.5h-47v-79h50q26 0 34 -4t8 -12q0 -9 -10 -15t-39 -6q-34 0 -46 7.5t-13 23.5h-144q2 -46 19.5 -77.5t60.5 -48.5q21 -8 50.5 -12t66.5 -4zM820 162h-78l78 73v-73zM1008 58v104h-63v196h-117l-229 -209v-91h221v-58h125v58h63z" />
    <glyph glyph-name="questiondown" unicode="&#xbf;" 
d="M353 349l-2 -14q-5 -37 -38 -52.5t-92 -30.5q-47 -12 -84.5 -32t-59.5 -55q-10 -18 -15.5 -41t-5.5 -52q0 -107 88 -166t287 -59q194 0 294 68t107 214h-243q-1 -48 -38 -69t-123 -21q-54 0 -82.5 5.5t-39.5 16.5q-5 5 -7.5 11.5t-2.5 13.5q0 21 29 32t88 23
q48 9 85 24.5t59 44.5q10 14 15.5 33t5.5 43v6q0 17 -2 31.5t-5 24.5q-13 -7 -40 -11.5t-69 -4.5t-68 4.5t-41 12.5zM462 595q-82 0 -117 -24.5t-35 -86.5t36 -86t116 -24q81 0 116 24t35 86q0 43 -13 67t-46 34q-17 5 -39.5 7.5t-52.5 2.5z" />
    <glyph glyph-name="Agrave" unicode="&#xc0;" horiz-adv-x="889" 
d="M0 0zM532 293h-175l87 209zM655 0h251l-323 717h-275l-325 -717h253l51 123h316zM368 778h160l-155 223h-227z" />
    <glyph glyph-name="Aacute" unicode="&#xc1;" horiz-adv-x="889" 
d="M0 0zM532 293h-175l87 209zM655 0h251l-323 717h-275l-325 -717h253l51 123h316zM357 778h167l223 223h-226z" />
    <glyph glyph-name="Acircumflex" unicode="&#xc2;" horiz-adv-x="889" 
d="M0 0zM532 293h-175l87 209zM655 0h251l-323 717h-275l-325 -717h253l51 123h316zM522 771h170l-172 237h-150l-173 -237h170l78 118z" />
    <glyph glyph-name="Atilde" unicode="&#xc3;" horiz-adv-x="889" 
d="M0 0zM532 293h-175l87 209zM655 0h251l-323 717h-275l-325 -717h253l51 123h316zM187 771h130q1 29 9.5 42t29.5 13t42 -9t44 -21t50.5 -21t62.5 -9q87 0 121 50.5t34 151.5h-130q-1 -28 -10 -40t-32 -12q-24 0 -52.5 14.5t-63.5 29.5q-17 7 -37 10.5t-43 3.5
q-85 0 -120 -53t-35 -150z" />
    <glyph glyph-name="Adieresis" unicode="&#xc4;" horiz-adv-x="889" 
d="M0 0zM532 293h-175l87 209zM655 0h251l-323 717h-275l-325 -717h253l51 123h316zM576 773q58 0 82.5 22t24.5 77q0 58 -25.5 79.5t-81.5 21.5t-80.5 -21.5t-24.5 -79.5q0 -57 22 -78t83 -21zM312 773q58 0 82.5 22t24.5 77q0 58 -25.5 79.5t-81.5 21.5q-55 0 -80.5 -21.5
t-25.5 -79.5q0 -57 22.5 -78t83.5 -21z" />
    <glyph glyph-name="Aring" unicode="&#xc5;" horiz-adv-x="889" 
d="M0 0zM532 293h-175l87 209zM655 0h251l-323 717h-275l-325 -717h253l51 123h316zM448 767q86 0 135 44.5t49 118.5q0 78 -50 121t-133 43q-79 0 -130.5 -43t-51.5 -123q0 -77 48 -119t133 -42zM449 885q-25 0 -37 12.5t-12 32.5q0 24 12.5 35.5t36.5 11.5q25 0 37 -11.5
t12 -35.5q0 -22 -14.5 -33.5t-34.5 -11.5z" />
    <glyph glyph-name="AE" unicode="&#xc6;" horiz-adv-x="1294" 
d="M548 512l45 -202h-172zM661 0h603v194h-419l-24 97h378v143h-413l-24 96h485v187h-811l-469 -717h259l86 137h319z" />
    <glyph glyph-name="Ccedilla" unicode="&#xc7;" horiz-adv-x="923" 
d="M477 -337q107 0 164 43.5t57 115.5q0 64 -40.5 95t-121.5 34v32q166 16 261 100t108 233h-263q-7 -57 -49 -90.5t-126 -33.5q-88 0 -137 40.5t-49 122.5v1q0 85 51 126t140 41q77 0 119 -31.5t50 -82.5h262q-12 111 -69.5 183t-150.5 108q-47 17 -99.5 26t-112.5 9
q-130 0 -229 -45t-154 -130q-28 -43 -42 -94t-14 -111v-2q0 -177 94.5 -266.5t262.5 -103.5v-126h91q40 0 55 -9.5t15 -26.5q0 -20 -17 -32t-52 -12q-34 0 -54 12t-26 36h-171q19 -80 77.5 -121t169.5 -41z" />
    <glyph glyph-name="Egrave" unicode="&#xc8;" horiz-adv-x="799" 
d="M61 0zM768 194h-477v97h413v143h-413v96h462v187h-692v-717h707v194zM336 778h160l-155 223h-227z" />
    <glyph glyph-name="Eacute" unicode="&#xc9;" horiz-adv-x="799" 
d="M61 0zM768 194h-477v97h413v143h-413v96h462v187h-692v-717h707v194zM325 778h167l223 223h-226z" />
    <glyph glyph-name="Ecircumflex" unicode="&#xca;" horiz-adv-x="799" 
d="M61 0zM768 194h-477v97h413v143h-413v96h462v187h-692v-717h707v194zM490 778h170l-172 237h-150l-173 -237h170l78 118z" />
    <glyph glyph-name="Edieresis" unicode="&#xcb;" horiz-adv-x="799" 
d="M61 0zM768 194h-477v97h413v143h-413v96h462v187h-692v-717h707v194zM544 775q58 0 82.5 22t24.5 77q0 58 -25.5 79.5t-81.5 21.5t-80.5 -21.5t-24.5 -79.5q0 -57 22 -78t83 -21zM280 775q58 0 82.5 22t24.5 77q0 58 -25.5 79.5t-81.5 21.5q-55 0 -80.5 -21.5
t-25.5 -79.5q0 -57 22.5 -78t83.5 -21z" />
    <glyph glyph-name="Igrave" unicode="&#xcc;" horiz-adv-x="667" 
d="M39 0zM628 0v217h-179v286h179v214h-589v-214h178v-286h-178v-217h589zM261 778h160l-155 223h-227z" />
    <glyph glyph-name="Iacute" unicode="&#xcd;" horiz-adv-x="667" 
d="M39 0zM628 0v217h-179v286h179v214h-589v-214h178v-286h-178v-217h589zM250 778h167l223 223h-226z" />
    <glyph glyph-name="Icircumflex" unicode="&#xce;" horiz-adv-x="667" 
d="M39 0zM628 0v217h-179v286h179v214h-589v-214h178v-286h-178v-217h589zM415 778h170l-172 237h-150l-173 -237h170l78 118z" />
    <glyph glyph-name="Idieresis" unicode="&#xcf;" horiz-adv-x="667" 
d="M39 0zM628 0v217h-179v286h179v214h-589v-214h178v-286h-178v-217h589zM468 775q58 0 82.5 22t24.5 77q0 58 -25.5 79.5t-81.5 21.5t-80.5 -21.5t-24.5 -79.5q0 -57 22 -78t83 -21zM204 775q58 0 82.5 22t24.5 77q0 58 -25.5 79.5t-81.5 21.5q-55 0 -80.5 -21.5
t-25.5 -79.5q0 -57 22.5 -78t83.5 -21z" />
    <glyph glyph-name="Eth" unicode="&#xd0;" horiz-adv-x="919" 
d="M456 0q134 0 229.5 38.5t147.5 116.5q25 40 38 90t13 110v3q0 182 -114 270.5t-320 88.5h-364v-285h-92v-151h92v-281h370zM473 281v151h-148v93h113q109 0 153.5 -38.5t44.5 -127.5v-2q0 -85 -43.5 -124t-150.5 -39h-117v87h148z" />
    <glyph glyph-name="Ntilde" unicode="&#xd1;" horiz-adv-x="930" 
d="M61 0zM645 0h225v717h-231v-412l-344 412h-234v-717h232v426zM217 774h130q1 29 9.5 42t29.5 13t42 -9t44 -21t50.5 -21t62.5 -9q87 0 121 50.5t34 151.5h-130q-1 -28 -10 -40t-32 -12q-24 0 -52.5 14.5t-63.5 29.5q-17 7 -37 10.5t-43 3.5q-85 0 -120 -53t-35 -150z" />
    <glyph glyph-name="Ograve" unicode="&#xd2;" horiz-adv-x="928" 
d="M32 0zM464 -20q130 0 227 40.5t151 123.5q27 42 40.5 94t13.5 115v4q0 120 -55 204.5t-152 129.5q-48 22 -104 33t-119 11q-128 0 -226 -45t-153 -130q-27 -42 -41 -93t-14 -111v-2q0 -128 52.5 -211t149.5 -123q49 -20 106.5 -30t123.5 -10zM463 192q-85 0 -133.5 40.5
t-48.5 121.5v1q0 85 49 126.5t134 41.5q84 0 133.5 -40.5t49.5 -128.5q0 -86 -49.5 -124t-134.5 -38zM391 795h160l-155 223h-227z" />
    <glyph glyph-name="Oacute" unicode="&#xd3;" horiz-adv-x="928" 
d="M32 0zM464 -20q130 0 227 40.5t151 123.5q27 42 40.5 94t13.5 115v4q0 120 -55 204.5t-152 129.5q-48 22 -104 33t-119 11q-128 0 -226 -45t-153 -130q-27 -42 -41 -93t-14 -111v-2q0 -128 52.5 -211t149.5 -123q49 -20 106.5 -30t123.5 -10zM463 192q-85 0 -133.5 40.5
t-48.5 121.5v1q0 85 49 126.5t134 41.5q84 0 133.5 -40.5t49.5 -128.5q0 -86 -49.5 -124t-134.5 -38zM381 794h167l223 223h-226z" />
    <glyph glyph-name="Ocircumflex" unicode="&#xd4;" horiz-adv-x="928" 
d="M32 0zM464 -20q130 0 227 40.5t151 123.5q27 42 40.5 94t13.5 115v4q0 120 -55 204.5t-152 129.5q-48 22 -104 33t-119 11q-128 0 -226 -45t-153 -130q-27 -42 -41 -93t-14 -111v-2q0 -128 52.5 -211t149.5 -123q49 -20 106.5 -30t123.5 -10zM463 192q-85 0 -133.5 40.5
t-48.5 121.5v1q0 85 49 126.5t134 41.5q84 0 133.5 -40.5t49.5 -128.5q0 -86 -49.5 -124t-134.5 -38zM544 795h170l-172 237h-150l-173 -237h170l78 118z" />
    <glyph glyph-name="Otilde" unicode="&#xd5;" horiz-adv-x="928" 
d="M32 0zM464 -20q130 0 227 40.5t151 123.5q27 42 40.5 94t13.5 115v4q0 120 -55 204.5t-152 129.5q-48 22 -104 33t-119 11q-128 0 -226 -45t-153 -130q-27 -42 -41 -93t-14 -111v-2q0 -128 52.5 -211t149.5 -123q49 -20 106.5 -30t123.5 -10zM463 192q-85 0 -133.5 40.5
t-48.5 121.5v1q0 85 49 126.5t134 41.5q84 0 133.5 -40.5t49.5 -128.5q0 -86 -49.5 -124t-134.5 -38zM200 791h130q1 29 9.5 42t29.5 13t42 -9t44 -21t50.5 -21t62.5 -9q87 0 121 50.5t34 151.5h-130q-1 -28 -10 -40t-32 -12q-24 0 -52.5 14.5t-63.5 29.5q-17 7 -37 10.5
t-43 3.5q-85 0 -120 -53t-35 -150z" />
    <glyph glyph-name="Odieresis" unicode="&#xd6;" horiz-adv-x="928" 
d="M32 0zM464 -20q130 0 227 40.5t151 123.5q27 42 40.5 94t13.5 115v4q0 120 -55 204.5t-152 129.5q-48 22 -104 33t-119 11q-128 0 -226 -45t-153 -130q-27 -42 -41 -93t-14 -111v-2q0 -128 52.5 -211t149.5 -123q49 -20 106.5 -30t123.5 -10zM463 192q-85 0 -133.5 40.5
t-48.5 121.5v1q0 85 49 126.5t134 41.5q84 0 133.5 -40.5t49.5 -128.5q0 -86 -49.5 -124t-134.5 -38zM597 787q58 0 82.5 22t24.5 77q0 58 -25.5 79.5t-81.5 21.5t-80.5 -21.5t-24.5 -79.5q0 -57 22 -78t83 -21zM333 787q58 0 82.5 22t24.5 77q0 58 -25.5 79.5t-81.5 21.5
q-55 0 -80.5 -21.5t-25.5 -79.5q0 -57 22.5 -78t83.5 -21z" />
    <glyph glyph-name="multiply" unicode="&#xd7;" horiz-adv-x="700" 
d="M516 73l133 138l-164 164l158 158l-132 135l-159 -159l-158 159l-133 -138l155 -156l-168 -167l133 -136l169 169z" />
    <glyph glyph-name="Oslash" unicode="&#xd8;" horiz-adv-x="928" 
d="M463 192q-85 0 -133.5 40.5t-48.5 121.5v1q0 85 49 126.5t134 41.5q84 0 133.5 -40.5t49.5 -128.5q0 -86 -49.5 -124t-134.5 -38zM464 -20q130 0 227 40.5t151 123.5q27 42 40.5 94t13.5 115v4q0 95 -35.5 168.5t-99.5 121.5l86 167h-237l-43 -87q-24 4 -49.5 6t-51.5 2
q-128 0 -226 -45t-153 -130q-27 -42 -41 -93t-14 -111v-2q0 -105 35.5 -179t101.5 -120l-88 -168h244l49 98q22 -2 44.5 -3.5t45.5 -1.5z" />
    <glyph glyph-name="Ugrave" unicode="&#xd9;" horiz-adv-x="890" 
d="M51 0zM445 -20q126 0 214 41t134 129q23 45 34.5 103t11.5 129v335h-250v-333q0 -102 -35.5 -141.5t-106.5 -39.5q-72 0 -109 40t-37 141v333h-250v-335q0 -141 41 -230t128 -130q44 -21 100 -31.5t125 -10.5zM379 765h160l-155 223h-227z" />
    <glyph glyph-name="Uacute" unicode="&#xda;" horiz-adv-x="890" 
d="M51 0zM445 -20q126 0 214 41t134 129q23 45 34.5 103t11.5 129v335h-250v-333q0 -102 -35.5 -141.5t-106.5 -39.5q-72 0 -109 40t-37 141v333h-250v-335q0 -141 41 -230t128 -130q44 -21 100 -31.5t125 -10.5zM355 773h167l223 223h-226z" />
    <glyph glyph-name="Ucircumflex" unicode="&#xdb;" horiz-adv-x="890" 
d="M51 0zM445 -20q126 0 214 41t134 129q23 45 34.5 103t11.5 129v335h-250v-333q0 -102 -35.5 -141.5t-106.5 -39.5q-72 0 -109 40t-37 141v333h-250v-335q0 -141 41 -230t128 -130q44 -21 100 -31.5t125 -10.5zM529 773h170l-172 237h-150l-173 -237h170l78 118z" />
    <glyph glyph-name="Udieresis" unicode="&#xdc;" horiz-adv-x="890" 
d="M51 0zM445 -20q126 0 214 41t134 129q23 45 34.5 103t11.5 129v335h-250v-333q0 -102 -35.5 -141.5t-106.5 -39.5q-72 0 -109 40t-37 141v333h-250v-335q0 -141 41 -230t128 -130q44 -21 100 -31.5t125 -10.5zM583 770q58 0 82.5 22t24.5 77q0 58 -25.5 79.5t-81.5 21.5
t-80.5 -21.5t-24.5 -79.5q0 -57 22 -78t83 -21zM319 770q58 0 82.5 22t24.5 77q0 58 -25.5 79.5t-81.5 21.5q-55 0 -80.5 -21.5t-25.5 -79.5q0 -57 22.5 -78t83.5 -21z" />
    <glyph glyph-name="Yacute" unicode="&#xdd;" horiz-adv-x="790" 
d="M0 0zM506 0v284l312 433h-269l-162 -235l-155 235h-270l297 -432v-285h247zM307 767h167l223 223h-226z" />
    <glyph glyph-name="Thorn" unicode="&#xde;" horiz-adv-x="847" 
d="M443 433q75 0 108.5 -13.5t33.5 -63.5q0 -41 -30.5 -57t-108.5 -16h-152v150h149zM454 100q188 -1 278.5 61t90.5 195q0 94 -38.5 153t-121.5 88q-42 14 -96.5 21t-121.5 7h-151v92h-233v-717h233v100h160z" />
    <glyph glyph-name="germandbls" unicode="&#xdf;" horiz-adv-x="863" 
d="M529 -7q114 0 182.5 23t99.5 70q16 24 23.5 53.5t7.5 65.5q0 82 -49.5 125t-137.5 56q74 15 114 53.5t40 109.5q0 95 -88.5 149.5t-272.5 54.5q-202 0 -298.5 -63.5t-96.5 -205.5v-484h244v472q0 46 30 68.5t113 22.5q51 0 77.5 -8t36.5 -22q5 -7 7.5 -15.5t2.5 -18.5
q0 -25 -27 -38.5t-92 -13.5h-58v-134h65q79 0 106 -15.5t27 -47.5q0 -21 -9 -36.5t-35 -23.5q-14 -4 -33.5 -6t-46.5 -2q-20 0 -42.5 2.5t-30.5 3.5v-184q22 -5 54.5 -8t86.5 -3z" />
    <glyph glyph-name="agrave" unicode="&#xe0;" horiz-adv-x="825" 
d="M24 0zM351 130q-40 0 -57.5 10.5t-17.5 29.5v1q0 12 6.5 21t18.5 16q14 8 42.5 13.5t83.5 10.5q47 6 76.5 14.5t41.5 20.5v-6q0 -34 -26.5 -64t-70.5 -48q-22 -10 -46.5 -14.5t-50.5 -4.5zM572 0h204v343q0 140 -87.5 196.5t-266.5 56.5q-171 0 -269.5 -55.5
t-111.5 -171.5h246q3 33 35 51t111 18q65 0 88 -15t23 -35q0 -14 -13 -22.5t-50 -13.5q-18 -3 -44 -5.5t-61 -5.5q-73 -5 -120.5 -11.5t-79.5 -15.5q-16 -4 -31 -9.5t-29 -12.5q-47 -22 -69.5 -59.5t-22.5 -88.5v-1q0 -81 58.5 -121.5t174.5 -40.5q114 0 187 38t106 98z
M349 658h160l-155 223h-227z" />
    <glyph glyph-name="aacute" unicode="&#xe1;" horiz-adv-x="825" 
d="M24 0zM351 130q-40 0 -57.5 10.5t-17.5 29.5v1q0 12 6.5 21t18.5 16q14 8 42.5 13.5t83.5 10.5q47 6 76.5 14.5t41.5 20.5v-6q0 -34 -26.5 -64t-70.5 -48q-22 -10 -46.5 -14.5t-50.5 -4.5zM572 0h204v343q0 140 -87.5 196.5t-266.5 56.5q-171 0 -269.5 -55.5
t-111.5 -171.5h246q3 33 35 51t111 18q65 0 88 -15t23 -35q0 -14 -13 -22.5t-50 -13.5q-18 -3 -44 -5.5t-61 -5.5q-73 -5 -120.5 -11.5t-79.5 -15.5q-16 -4 -31 -9.5t-29 -12.5q-47 -22 -69.5 -59.5t-22.5 -88.5v-1q0 -81 58.5 -121.5t174.5 -40.5q114 0 187 38t106 98z
M337 658h167l223 223h-226z" />
    <glyph glyph-name="acircumflex" unicode="&#xe2;" horiz-adv-x="825" 
d="M24 0zM351 130q-40 0 -57.5 10.5t-17.5 29.5v1q0 12 6.5 21t18.5 16q14 8 42.5 13.5t83.5 10.5q47 6 76.5 14.5t41.5 20.5v-6q0 -34 -26.5 -64t-70.5 -48q-22 -10 -46.5 -14.5t-50.5 -4.5zM572 0h204v343q0 140 -87.5 196.5t-266.5 56.5q-171 0 -269.5 -55.5
t-111.5 -171.5h246q3 33 35 51t111 18q65 0 88 -15t23 -35q0 -14 -13 -22.5t-50 -13.5q-18 -3 -44 -5.5t-61 -5.5q-73 -5 -120.5 -11.5t-79.5 -15.5q-16 -4 -31 -9.5t-29 -12.5q-47 -22 -69.5 -59.5t-22.5 -88.5v-1q0 -81 58.5 -121.5t174.5 -40.5q114 0 187 38t106 98z
M502 658h170l-172 237h-150l-173 -237h170l78 118z" />
    <glyph glyph-name="atilde" unicode="&#xe3;" horiz-adv-x="825" 
d="M24 0zM351 130q-40 0 -57.5 10.5t-17.5 29.5v1q0 12 6.5 21t18.5 16q14 8 42.5 13.5t83.5 10.5q47 6 76.5 14.5t41.5 20.5v-6q0 -34 -26.5 -64t-70.5 -48q-22 -10 -46.5 -14.5t-50.5 -4.5zM572 0h204v343q0 140 -87.5 196.5t-266.5 56.5q-171 0 -269.5 -55.5
t-111.5 -171.5h246q3 33 35 51t111 18q65 0 88 -15t23 -35q0 -14 -13 -22.5t-50 -13.5q-18 -3 -44 -5.5t-61 -5.5q-73 -5 -120.5 -11.5t-79.5 -15.5q-16 -4 -31 -9.5t-29 -12.5q-47 -22 -69.5 -59.5t-22.5 -88.5v-1q0 -81 58.5 -121.5t174.5 -40.5q114 0 187 38t106 98z
M158 654h130q1 29 9.5 42t29.5 13t42 -9t44 -21t50.5 -21t62.5 -9q87 0 121 50.5t34 151.5h-130q-1 -28 -10 -40t-32 -12q-24 0 -52.5 14.5t-63.5 29.5q-17 7 -37 10.5t-43 3.5q-85 0 -120 -53t-35 -150z" />
    <glyph glyph-name="adieresis" unicode="&#xe4;" horiz-adv-x="825" 
d="M24 0zM351 130q-40 0 -57.5 10.5t-17.5 29.5v1q0 12 6.5 21t18.5 16q14 8 42.5 13.5t83.5 10.5q47 6 76.5 14.5t41.5 20.5v-6q0 -34 -26.5 -64t-70.5 -48q-22 -10 -46.5 -14.5t-50.5 -4.5zM572 0h204v343q0 140 -87.5 196.5t-266.5 56.5q-171 0 -269.5 -55.5
t-111.5 -171.5h246q3 33 35 51t111 18q65 0 88 -15t23 -35q0 -14 -13 -22.5t-50 -13.5q-18 -3 -44 -5.5t-61 -5.5q-73 -5 -120.5 -11.5t-79.5 -15.5q-16 -4 -31 -9.5t-29 -12.5q-47 -22 -69.5 -59.5t-22.5 -88.5v-1q0 -81 58.5 -121.5t174.5 -40.5q114 0 187 38t106 98z
M557 650q58 0 82.5 22t24.5 77q0 58 -25.5 79.5t-81.5 21.5t-80.5 -21.5t-24.5 -79.5q0 -57 22 -78t83 -21zM293 650q58 0 82.5 22t24.5 77q0 58 -25.5 79.5t-81.5 21.5q-55 0 -80.5 -21.5t-25.5 -79.5q0 -57 22.5 -78t83.5 -21z" />
    <glyph glyph-name="aring" unicode="&#xe5;" horiz-adv-x="825" 
d="M24 0zM351 130q-40 0 -57.5 10.5t-17.5 29.5v1q0 12 6.5 21t18.5 16q14 8 42.5 13.5t83.5 10.5q47 6 76.5 14.5t41.5 20.5v-6q0 -34 -26.5 -64t-70.5 -48q-22 -10 -46.5 -14.5t-50.5 -4.5zM572 0h204v343q0 140 -87.5 196.5t-266.5 56.5q-171 0 -269.5 -55.5
t-111.5 -171.5h246q3 33 35 51t111 18q65 0 88 -15t23 -35q0 -14 -13 -22.5t-50 -13.5q-18 -3 -44 -5.5t-61 -5.5q-73 -5 -120.5 -11.5t-79.5 -15.5q-16 -4 -31 -9.5t-29 -12.5q-47 -22 -69.5 -59.5t-22.5 -88.5v-1q0 -81 58.5 -121.5t174.5 -40.5q114 0 187 38t106 98z
M423 655q86 0 135 44.5t49 118.5q0 78 -50 121t-133 43q-79 0 -130.5 -43t-51.5 -123q0 -77 48 -119t133 -42zM424 773q-25 0 -37 12.5t-12 32.5q0 24 12.5 35.5t36.5 11.5q25 0 37 -11.5t12 -35.5q0 -22 -14.5 -33.5t-34.5 -11.5z" />
    <glyph glyph-name="ae" unicode="&#xe6;" horiz-adv-x="1346" 
d="M935 430q66 0 102 -18.5t46 -62.5h-308q14 39 52.5 60t107.5 21zM352 130q-40 0 -57.5 10.5t-17.5 29.5v1q0 12 6.5 21t18.5 16q14 8 42.5 13.5t83.5 10.5q47 6 76.5 14.5t41.5 20.5v-6q0 -34 -26.5 -64t-70.5 -48q-22 -10 -46.5 -14.5t-50.5 -4.5zM1317 186h-259
q-15 -21 -42 -30.5t-81 -9.5q-76 0 -114 21.5t-49 63.5h550v57q0 91 -41.5 160.5t-126.5 108.5q-42 20 -96 30t-120 10q-81 0 -144 -15.5t-110 -43.5q-43 30 -108 44t-153 14q-171 0 -269.5 -55.5t-111.5 -171.5h246q3 33 35 51t111 18q65 0 88 -15t23 -35q0 -14 -13 -22.5
t-50 -13.5q-18 -3 -44 -5.5t-61 -5.5q-73 -5 -120.5 -11.5t-79.5 -15.5q-16 -4 -31 -9.5t-29 -12.5q-47 -22 -69.5 -59.5t-22.5 -88.5v-1q0 -81 59 -121.5t177 -40.5t199.5 36.5t121.5 97.5q38 -61 118.5 -97.5t219.5 -36.5q163 0 261.5 46.5t135.5 158.5z" />
    <glyph glyph-name="ccedilla" unicode="&#xe7;" horiz-adv-x="831" 
d="M432 -347q107 0 164 43.5t57 115.5q0 64 -40.5 95t-121.5 34v43q154 15 234.5 89t87.5 187h-254q-8 -44 -41 -67.5t-100 -23.5q-72 0 -108 29t-36 87q0 63 36.5 94.5t108.5 31.5q64 0 97.5 -22.5t42.5 -67.5h254q-13 127 -114 201.5t-280 74.5q-120 0 -207.5 -39
t-134.5 -109q-23 -35 -35 -76t-12 -88q0 -85 32 -149.5t101 -103.5q34 -19 79.5 -31t101.5 -17v-137h91q40 0 55 -9.5t15 -26.5q0 -20 -17 -32t-52 -12q-34 0 -54 12t-26 36h-171q19 -80 77.5 -121t169.5 -41z" />
    <glyph glyph-name="egrave" unicode="&#xe8;" horiz-adv-x="841" 
d="M30 0zM427 431q65 0 101 -19t47 -64h-306q14 40 52.5 61.5t105.5 21.5zM809 185h-257q-14 -19 -41.5 -29.5t-83.5 -10.5q-74 0 -112.5 21.5t-49.5 64.5h549v57q0 91 -41.5 160.5t-126.5 108.5q-42 20 -96 30t-120 10q-136 0 -224.5 -42.5t-132.5 -115.5
q-21 -37 -32 -77.5t-11 -86.5q0 -63 19 -116.5t63 -93.5t117.5 -62t182.5 -22q165 0 262.5 48t134.5 156zM361 658h160l-155 223h-227z" />
    <glyph glyph-name="eacute" unicode="&#xe9;" horiz-adv-x="841" 
d="M30 0zM427 431q65 0 101 -19t47 -64h-306q14 40 52.5 61.5t105.5 21.5zM809 185h-257q-14 -19 -41.5 -29.5t-83.5 -10.5q-74 0 -112.5 21.5t-49.5 64.5h549v57q0 91 -41.5 160.5t-126.5 108.5q-42 20 -96 30t-120 10q-136 0 -224.5 -42.5t-132.5 -115.5
q-21 -37 -32 -77.5t-11 -86.5q0 -63 19 -116.5t63 -93.5t117.5 -62t182.5 -22q165 0 262.5 48t134.5 156zM349 658h167l223 223h-226z" />
    <glyph glyph-name="ecircumflex" unicode="&#xea;" horiz-adv-x="841" 
d="M30 0zM427 431q65 0 101 -19t47 -64h-306q14 40 52.5 61.5t105.5 21.5zM809 185h-257q-14 -19 -41.5 -29.5t-83.5 -10.5q-74 0 -112.5 21.5t-49.5 64.5h549v57q0 91 -41.5 160.5t-126.5 108.5q-42 20 -96 30t-120 10q-136 0 -224.5 -42.5t-132.5 -115.5
q-21 -37 -32 -77.5t-11 -86.5q0 -63 19 -116.5t63 -93.5t117.5 -62t182.5 -22q165 0 262.5 48t134.5 156zM514 658h170l-172 237h-150l-173 -237h170l78 118z" />
    <glyph glyph-name="edieresis" unicode="&#xeb;" horiz-adv-x="841" 
d="M30 0zM427 431q65 0 101 -19t47 -64h-306q14 40 52.5 61.5t105.5 21.5zM809 185h-257q-14 -19 -41.5 -29.5t-83.5 -10.5q-74 0 -112.5 21.5t-49.5 64.5h549v57q0 91 -41.5 160.5t-126.5 108.5q-42 20 -96 30t-120 10q-136 0 -224.5 -42.5t-132.5 -115.5
q-21 -37 -32 -77.5t-11 -86.5q0 -63 19 -116.5t63 -93.5t117.5 -62t182.5 -22q165 0 262.5 48t134.5 156zM568 655q58 0 82.5 22t24.5 77q0 58 -25.5 79.5t-81.5 21.5t-80.5 -21.5t-24.5 -79.5q0 -57 22 -78t83 -21zM304 655q58 0 82.5 22t24.5 77q0 58 -25.5 79.5
t-81.5 21.5q-55 0 -80.5 -21.5t-25.5 -79.5q0 -57 22.5 -78t83.5 -21z" />
    <glyph glyph-name="igrave" unicode="&#xec;" horiz-adv-x="356" 
d="M0 0zM302 0v580h-248v-580h248zM107 641h160l-155 223h-227z" />
    <glyph glyph-name="iacute" unicode="&#xed;" horiz-adv-x="356" 
d="M54 0zM302 0v580h-248v-580h248zM93 640h167l223 223h-226z" />
    <glyph glyph-name="icircumflex" unicode="&#xee;" horiz-adv-x="356" 
d="M0 0zM302 0v580h-248v-580h248zM261 641h170l-172 237h-150l-173 -237h170l78 118z" />
    <glyph glyph-name="idieresis" unicode="&#xef;" horiz-adv-x="356" 
d="M0 0zM302 0v580h-248v-580h248zM315 638q58 0 82.5 22t24.5 77q0 58 -25.5 79.5t-81.5 21.5t-80.5 -21.5t-24.5 -79.5q0 -57 22 -78t83 -21zM51 638q58 0 82.5 22t24.5 77q0 58 -25.5 79.5t-81.5 21.5q-55 0 -80.5 -21.5t-25.5 -79.5q0 -57 22.5 -78t83.5 -21z" />
    <glyph glyph-name="eth" unicode="&#xf0;" horiz-adv-x="845" 
d="M421 -19q200 0 297 80.5t97 227.5q0 116 -66 226t-176 199l182 103h-202l-69 -39q-16 11 -32.5 20.5t-33.5 18.5h-329q65 -37 121.5 -70t102.5 -65l-194 -109h203l81 45q64 -49 105.5 -97.5t62.5 -98.5q-31 54 -87.5 84t-141.5 30q-94 0 -164 -31.5t-109 -91.5
q-20 -31 -29.5 -67.5t-9.5 -80.5q0 -89 39 -153t125 -97q43 -17 100 -25.5t127 -8.5zM424 164q-79 0 -114.5 25.5t-35.5 77.5q0 55 38 82.5t113 27.5q77 0 113 -27t36 -83q0 -52 -35 -77.5t-115 -25.5z" />
    <glyph glyph-name="ntilde" unicode="&#xf1;" horiz-adv-x="823" 
d="M52 0zM294 250q0 77 29 112.5t96 35.5q65 0 90 -33.5t25 -101.5v-263h240v332q0 125 -67 195t-192 70q-91 0 -149 -40.5t-85 -106.5l-23 130h-206v-580h242v250zM149 644h130q1 29 9.5 42t29.5 13t42 -9t44 -21t50.5 -21t62.5 -9q87 0 121 50.5t34 151.5h-130
q-1 -28 -10 -40t-32 -12q-24 0 -52.5 14.5t-63.5 29.5q-17 7 -37 10.5t-43 3.5q-85 0 -120 -53t-35 -150z" />
    <glyph glyph-name="ograve" unicode="&#xf2;" horiz-adv-x="837" 
d="M30 0zM416 -19q131 0 217.5 38t130.5 106q21 34 32 74t11 86q0 95 -46 165t-133 109q-44 19 -96 28.5t-113 9.5q-120 0 -207.5 -39t-134.5 -109q-23 -35 -35 -76t-12 -88q0 -94 39 -162t124 -105q42 -19 98 -28t125 -9zM418 169q-72 0 -108 29t-36 87q0 63 36.5 94.5
t108.5 31.5q73 0 109 -31.5t36 -94.5q0 -56 -35 -86t-111 -30zM339 658h160l-155 223h-227z" />
    <glyph glyph-name="oacute" unicode="&#xf3;" horiz-adv-x="837" 
d="M30 0zM416 -19q131 0 217.5 38t130.5 106q21 34 32 74t11 86q0 95 -46 165t-133 109q-44 19 -96 28.5t-113 9.5q-120 0 -207.5 -39t-134.5 -109q-23 -35 -35 -76t-12 -88q0 -94 39 -162t124 -105q42 -19 98 -28t125 -9zM418 169q-72 0 -108 29t-36 87q0 63 36.5 94.5
t108.5 31.5q73 0 109 -31.5t36 -94.5q0 -56 -35 -86t-111 -30zM330 650h167l223 223h-226z" />
    <glyph glyph-name="ocircumflex" unicode="&#xf4;" horiz-adv-x="837" 
d="M30 0zM416 -19q131 0 217.5 38t130.5 106q21 34 32 74t11 86q0 95 -46 165t-133 109q-44 19 -96 28.5t-113 9.5q-120 0 -207.5 -39t-134.5 -109q-23 -35 -35 -76t-12 -88q0 -94 39 -162t124 -105q42 -19 98 -28t125 -9zM418 169q-72 0 -108 29t-36 87q0 63 36.5 94.5
t108.5 31.5q73 0 109 -31.5t36 -94.5q0 -56 -35 -86t-111 -30zM495 647h170l-172 237h-150l-173 -237h170l78 118z" />
    <glyph glyph-name="otilde" unicode="&#xf5;" horiz-adv-x="837" 
d="M30 0zM416 -19q131 0 217.5 38t130.5 106q21 34 32 74t11 86q0 95 -46 165t-133 109q-44 19 -96 28.5t-113 9.5q-120 0 -207.5 -39t-134.5 -109q-23 -35 -35 -76t-12 -88q0 -94 39 -162t124 -105q42 -19 98 -28t125 -9zM418 169q-72 0 -108 29t-36 87q0 63 36.5 94.5
t108.5 31.5q73 0 109 -31.5t36 -94.5q0 -56 -35 -86t-111 -30zM156 646h130q1 29 9.5 42t29.5 13t42 -9t44 -21t50.5 -21t62.5 -9q87 0 121 50.5t34 151.5h-130q-1 -28 -10 -40t-32 -12q-24 0 -52.5 14.5t-63.5 29.5q-17 7 -37 10.5t-43 3.5q-85 0 -120 -53t-35 -150z" />
    <glyph glyph-name="odieresis" unicode="&#xf6;" horiz-adv-x="837" 
d="M30 0zM416 -19q131 0 217.5 38t130.5 106q21 34 32 74t11 86q0 95 -46 165t-133 109q-44 19 -96 28.5t-113 9.5q-120 0 -207.5 -39t-134.5 -109q-23 -35 -35 -76t-12 -88q0 -94 39 -162t124 -105q42 -19 98 -28t125 -9zM418 169q-72 0 -108 29t-36 87q0 63 36.5 94.5
t108.5 31.5q73 0 109 -31.5t36 -94.5q0 -56 -35 -86t-111 -30zM557 641q58 0 82.5 22t24.5 77q0 58 -25.5 79.5t-81.5 21.5t-80.5 -21.5t-24.5 -79.5q0 -57 22 -78t83 -21zM293 641q58 0 82.5 22t24.5 77q0 58 -25.5 79.5t-81.5 21.5q-55 0 -80.5 -21.5t-25.5 -79.5
q0 -57 22.5 -78t83.5 -21z" />
    <glyph glyph-name="divide" unicode="&#xf7;" horiz-adv-x="708" 
d="M355 532q65 0 92.5 20t27.5 73q0 56 -29 75.5t-91 19.5q-64 0 -92.5 -19.5t-28.5 -75.5q0 -55 25.5 -74t95.5 -19zM662 260v213h-613v-213h613zM355 15q65 0 92.5 20.5t27.5 74.5t-29 73.5t-91 19.5q-64 0 -92.5 -19.5t-28.5 -73.5q0 -56 25.5 -75.5t95.5 -19.5z" />
    <glyph glyph-name="oslash" unicode="&#xf8;" horiz-adv-x="845" 
d="M423 169q-75 0 -112.5 29.5t-37.5 88.5q0 62 39 92.5t112 30.5q75 0 112 -30.5t37 -92.5q0 -59 -36 -88.5t-114 -29.5zM420 -19q132 0 220 38t131 106q22 35 33 75t11 86q0 78 -32 140t-91 102l88 135h-209l-48 -73q-23 4 -48 5.5t-51 1.5q-122 0 -210.5 -39t-135.5 -109
q-24 -35 -36 -76t-12 -88q0 -82 30 -145t95 -102l-84 -128h210l49 76q20 -2 43 -3.5t47 -1.5z" />
    <glyph glyph-name="ugrave" unicode="&#xf9;" horiz-adv-x="807" 
d="M49 0zM550 0h205v580h-242v-261q0 -68 -28 -102t-85 -34q-64 0 -88.5 31.5t-24.5 98.5v267h-238v-332q0 -124 62.5 -194t186.5 -70q94 0 149.5 41.5t79.5 109.5zM328 633h160l-155 223h-227z" />
    <glyph glyph-name="uacute" unicode="&#xfa;" horiz-adv-x="807" 
d="M49 0zM550 0h205v580h-242v-261q0 -68 -28 -102t-85 -34q-64 0 -88.5 31.5t-24.5 98.5v267h-238v-332q0 -124 62.5 -194t186.5 -70q94 0 149.5 41.5t79.5 109.5zM317 633h167l223 223h-226z" />
    <glyph glyph-name="ucircumflex" unicode="&#xfb;" horiz-adv-x="807" 
d="M49 0zM550 0h205v580h-242v-261q0 -68 -28 -102t-85 -34q-64 0 -88.5 31.5t-24.5 98.5v267h-238v-332q0 -124 62.5 -194t186.5 -70q94 0 149.5 41.5t79.5 109.5zM482 633h170l-172 237h-150l-173 -237h170l78 118z" />
    <glyph glyph-name="udieresis" unicode="&#xfc;" horiz-adv-x="807" 
d="M49 0zM550 0h205v580h-242v-261q0 -68 -28 -102t-85 -34q-64 0 -88.5 31.5t-24.5 98.5v267h-238v-332q0 -124 62.5 -194t186.5 -70q94 0 149.5 41.5t79.5 109.5zM536 630q58 0 82.5 22t24.5 77q0 58 -25.5 79.5t-81.5 21.5t-80.5 -21.5t-24.5 -79.5q0 -57 22 -78t83 -21z
M272 630q58 0 82.5 22t24.5 77q0 58 -25.5 79.5t-81.5 21.5q-55 0 -80.5 -21.5t-25.5 -79.5q0 -57 22.5 -78t83.5 -21z" />
    <glyph glyph-name="yacute" unicode="&#xfd;" horiz-adv-x="789" 
d="M0 0zM167 -246q67 0 112.5 8t79.5 32q33 24 65 70.5t72 123.5l312 592h-250l-150 -302l-9 -29l-9 30l-149 301h-259l291 -548l-7 -13q-15 -28 -30 -44.5t-37 -23.5q-11 -3 -25.5 -5t-33.5 -2h-95v-190h122zM308 636h167l223 223h-226z" />
    <glyph glyph-name="thorn" unicode="&#xfe;" 
d="M429 169q-72 0 -108 29t-36 87q0 61 37.5 93.5t107.5 32.5q73 0 109 -31.5t36 -94.5q0 -56 -34.5 -86t-111.5 -30zM512 -13q82 0 151.5 35t111.5 101q22 34 32.5 74.5t10.5 88.5q0 100 -37 168.5t-104 103.5q-34 17 -73.5 26t-84.5 9q-85 0 -142 -30.5t-88 -84.5v280
h-235v-960h235v293q28 -49 81.5 -76.5t141.5 -27.5z" />
    <glyph glyph-name="ydieresis" unicode="&#xff;" horiz-adv-x="789" 
d="M0 0zM167 -246q67 0 112.5 8t79.5 32q33 24 65 70.5t72 123.5l312 592h-250l-150 -302l-9 -29l-9 30l-149 301h-259l291 -548l-7 -13q-15 -28 -30 -44.5t-37 -23.5q-11 -3 -25.5 -5t-33.5 -2h-95v-190h122zM527 633q58 0 82.5 22t24.5 77q0 58 -25.5 79.5t-81.5 21.5
t-80.5 -21.5t-24.5 -79.5q0 -57 22 -78t83 -21zM263 633q58 0 82.5 22t24.5 77q0 58 -25.5 79.5t-81.5 21.5q-55 0 -80.5 -21.5t-25.5 -79.5q0 -57 22.5 -78t83.5 -21z" />
    <glyph glyph-name="Amacron" unicode="&#x100;" horiz-adv-x="889" 
d="M0 0zM532 293h-175l87 209zM655 0h251l-323 717h-275l-325 -717h253l51 123h316zM246 780h401v146h-401v-146z" />
    <glyph glyph-name="amacron" unicode="&#x101;" horiz-adv-x="825" 
d="M24 0zM351 130q-40 0 -57.5 10.5t-17.5 29.5v1q0 12 6.5 21t18.5 16q14 8 42.5 13.5t83.5 10.5q47 6 76.5 14.5t41.5 20.5v-6q0 -34 -26.5 -64t-70.5 -48q-22 -10 -46.5 -14.5t-50.5 -4.5zM572 0h204v343q0 140 -87.5 196.5t-266.5 56.5q-171 0 -269.5 -55.5
t-111.5 -171.5h246q3 33 35 51t111 18q65 0 88 -15t23 -35q0 -14 -13 -22.5t-50 -13.5q-18 -3 -44 -5.5t-61 -5.5q-73 -5 -120.5 -11.5t-79.5 -15.5q-16 -4 -31 -9.5t-29 -12.5q-47 -22 -69.5 -59.5t-22.5 -88.5v-1q0 -81 58.5 -121.5t174.5 -40.5q114 0 187 38t106 98z
M227 660h401v146h-401v-146z" />
    <glyph glyph-name="Abreve" unicode="&#x102;" horiz-adv-x="889" 
d="M0 0zM532 293h-175l87 209zM655 0h251l-323 717h-275l-325 -717h253l51 123h316zM442 775q127 0 189 59t62 172h-150q0 -50 -24 -70.5t-77 -20.5t-76.5 20.5t-23.5 70.5h-148q0 -113 56 -172t192 -59z" />
    <glyph glyph-name="abreve" unicode="&#x103;" horiz-adv-x="825" 
d="M24 0zM351 130q-40 0 -57.5 10.5t-17.5 29.5v1q0 12 6.5 21t18.5 16q14 8 42.5 13.5t83.5 10.5q47 6 76.5 14.5t41.5 20.5v-6q0 -34 -26.5 -64t-70.5 -48q-22 -10 -46.5 -14.5t-50.5 -4.5zM572 0h204v343q0 140 -87.5 196.5t-266.5 56.5q-171 0 -269.5 -55.5
t-111.5 -171.5h246q3 33 35 51t111 18q65 0 88 -15t23 -35q0 -14 -13 -22.5t-50 -13.5q-18 -3 -44 -5.5t-61 -5.5q-73 -5 -120.5 -11.5t-79.5 -15.5q-16 -4 -31 -9.5t-29 -12.5q-47 -22 -69.5 -59.5t-22.5 -88.5v-1q0 -81 58.5 -121.5t174.5 -40.5q114 0 187 38t106 98z
M423 655q127 0 189 59t62 172h-150q0 -50 -24 -70.5t-77 -20.5t-76.5 20.5t-23.5 70.5h-148q0 -113 56 -172t192 -59z" />
    <glyph glyph-name="Aogonek" unicode="&#x104;" horiz-adv-x="889" 
d="M532 293h-175l87 209zM1028 -127h-179q-6 -24 -20.5 -35.5t-37.5 -11.5q-22 0 -35.5 10t-13.5 27q0 15 11.5 31t46.5 40q17 12 44 28.5t62 37.5l-323 717h-275l-325 -717h253l51 123h316l52 -123h16q-56 -40 -74 -76.5t-18 -73.5q0 -70 51.5 -109t149.5 -39
q99 0 161 42.5t87 128.5z" />
    <glyph glyph-name="aogonek" unicode="&#x105;" horiz-adv-x="825" 
d="M351 130q-40 0 -57.5 10.5t-17.5 29.5v1q0 12 6.5 21t18.5 16q14 8 42.5 13.5t83.5 10.5q47 6 76.5 14.5t41.5 20.5v-6q0 -34 -26.5 -64t-70.5 -48q-22 -10 -46.5 -14.5t-50.5 -4.5zM897 -127h-179q-6 -24 -20.5 -35.5t-37.5 -11.5q-22 0 -35.5 10t-13.5 27q0 15 11.5 31
t46.5 40q17 12 44 28.5t62 37.5h1v343q0 140 -87.5 196.5t-266.5 56.5q-171 0 -269.5 -55.5t-111.5 -171.5h246q3 33 35 51t111 18q65 0 88 -15t23 -35q0 -14 -13 -22.5t-50 -13.5q-18 -3 -44 -5.5t-61 -5.5q-73 -5 -120.5 -11.5t-79.5 -15.5q-16 -4 -31 -9.5t-29 -12.5
q-47 -22 -69.5 -59.5t-22.5 -88.5v-1q0 -81 58.5 -121.5t174.5 -40.5q114 0 187 38t106 98l19 -98q-50 -31 -76 -59t-36 -55q-4 -13 -6.5 -27t-2.5 -28q0 -70 51.5 -109t149.5 -39q99 0 161 42.5t87 128.5z" />
    <glyph glyph-name="Cacute" unicode="&#x106;" horiz-adv-x="923" 
d="M32 0zM905 316h-263q-7 -57 -49 -90.5t-126 -33.5q-88 0 -137 40.5t-49 122.5v1q0 85 51 126t140 41q77 0 119 -31.5t50 -82.5h262q-12 111 -69.5 183t-150.5 108q-47 17 -99.5 26t-112.5 9q-130 0 -229 -45t-154 -130q-28 -43 -42 -94t-14 -111v-2q0 -130 51.5 -212.5
t147.5 -121.5q48 -19 105.5 -29t123.5 -10q200 0 315 85t130 251zM378 795h167l223 223h-226z" />
    <glyph glyph-name="cacute" unicode="&#x107;" horiz-adv-x="831" 
d="M30 0zM813 260h-254q-8 -44 -41 -67.5t-100 -23.5q-72 0 -108 29t-36 87q0 63 36.5 94.5t108.5 31.5q64 0 97.5 -22.5t42.5 -67.5h254q-13 127 -114 201.5t-280 74.5q-120 0 -207.5 -39t-134.5 -109q-23 -35 -35 -76t-12 -88q0 -94 39 -162t124 -105q42 -19 98 -28
t125 -9q191 0 290 76t107 203zM339 658h167l223 223h-226z" />
    <glyph glyph-name="Ccircumflex" unicode="&#x108;" horiz-adv-x="923" 
d="M32 0zM905 316h-263q-7 -57 -49 -90.5t-126 -33.5q-88 0 -137 40.5t-49 122.5v1q0 85 51 126t140 41q77 0 119 -31.5t50 -82.5h262q-12 111 -69.5 183t-150.5 108q-47 17 -99.5 26t-112.5 9q-130 0 -229 -45t-154 -130q-28 -43 -42 -94t-14 -111v-2q0 -130 51.5 -212.5
t147.5 -121.5q48 -19 105.5 -29t123.5 -10q200 0 315 85t130 251zM543 795h170l-172 237h-150l-173 -237h170l78 118z" />
    <glyph glyph-name="ccircumflex" unicode="&#x109;" horiz-adv-x="831" 
d="M30 0zM813 260h-254q-8 -44 -41 -67.5t-100 -23.5q-72 0 -108 29t-36 87q0 63 36.5 94.5t108.5 31.5q64 0 97.5 -22.5t42.5 -67.5h254q-13 127 -114 201.5t-280 74.5q-120 0 -207.5 -39t-134.5 -109q-23 -35 -35 -76t-12 -88q0 -94 39 -162t124 -105q42 -19 98 -28
t125 -9q191 0 290 76t107 203zM504 655h170l-172 237h-150l-173 -237h170l78 118z" />
    <glyph glyph-name="Cdotaccent" unicode="&#x10a;" horiz-adv-x="923" 
d="M32 0zM905 316h-263q-7 -57 -49 -90.5t-126 -33.5q-88 0 -137 40.5t-49 122.5v1q0 85 51 126t140 41q77 0 119 -31.5t50 -82.5h262q-12 111 -69.5 183t-150.5 108q-47 17 -99.5 26t-112.5 9q-130 0 -229 -45t-154 -130q-28 -43 -42 -94t-14 -111v-2q0 -130 51.5 -212.5
t147.5 -121.5q48 -19 105.5 -29t123.5 -10q200 0 315 85t130 251zM466 790q66 0 94.5 24t28.5 90q0 67 -29 90t-94 23t-94 -23t-29 -90q0 -45 11 -70t38 -34q13 -5 31.5 -7.5t42.5 -2.5z" />
    <glyph glyph-name="cdotaccent" unicode="&#x10b;" horiz-adv-x="831" 
d="M30 0zM813 260h-254q-8 -44 -41 -67.5t-100 -23.5q-72 0 -108 29t-36 87q0 63 36.5 94.5t108.5 31.5q64 0 97.5 -22.5t42.5 -67.5h254q-13 127 -114 201.5t-280 74.5q-120 0 -207.5 -39t-134.5 -109q-23 -35 -35 -76t-12 -88q0 -94 39 -162t124 -105q42 -19 98 -28
t125 -9q191 0 290 76t107 203zM426 653q66 0 94.5 24t28.5 90q0 67 -29 90t-94 23t-94 -23t-29 -90q0 -45 11 -70t38 -34q13 -5 31.5 -7.5t42.5 -2.5z" />
    <glyph glyph-name="Ccaron" unicode="&#x10c;" horiz-adv-x="923" 
d="M32 0zM905 316h-263q-7 -57 -49 -90.5t-126 -33.5q-88 0 -137 40.5t-49 122.5v1q0 85 51 126t140 41q77 0 119 -31.5t50 -82.5h262q-12 111 -69.5 183t-150.5 108q-47 17 -99.5 26t-112.5 9q-130 0 -229 -45t-154 -130q-28 -43 -42 -94t-14 -111v-2q0 -130 51.5 -212.5
t147.5 -121.5q48 -19 105.5 -29t123.5 -10q200 0 315 85t130 251zM539 795l172 242h-168l-79 -119l-76 119h-171l173 -242h149z" />
    <glyph glyph-name="ccaron" unicode="&#x10d;" horiz-adv-x="831" 
d="M30 0zM813 260h-254q-8 -44 -41 -67.5t-100 -23.5q-72 0 -108 29t-36 87q0 63 36.5 94.5t108.5 31.5q64 0 97.5 -22.5t42.5 -67.5h254q-13 127 -114 201.5t-280 74.5q-120 0 -207.5 -39t-134.5 -109q-23 -35 -35 -76t-12 -88q0 -94 39 -162t124 -105q42 -19 98 -28
t125 -9q191 0 290 76t107 203zM500 658l172 242h-168l-79 -119l-76 119h-171l173 -242h149z" />
    <glyph glyph-name="Dcaron" unicode="&#x10e;" horiz-adv-x="891" 
d="M61 0zM61 0h371q133 0 228.5 38.5t147.5 116.5q25 40 38 90t13 110v3q0 182 -113.5 270.5t-319.5 88.5h-365v-717zM413 515q109 0 153.5 -36t44.5 -120v-2q0 -80 -43.5 -116.5t-150.5 -36.5h-117v311h113zM517 778l172 242h-168l-79 -119l-76 119h-171l173 -242h149z" />
    <glyph glyph-name="dcaron" unicode="&#x10f;" horiz-adv-x="845" 
d="M30 0zM418 169q-72 0 -108 29t-36 87q0 61 35.5 93.5t108.5 32.5q69 0 107.5 -32.5t38.5 -93.5q0 -58 -36.5 -87t-109.5 -29zM583 0h210v765h-234v-275q-32 52 -86.5 77.5t-132.5 25.5q-91 0 -161 -36t-110 -105q-19 -35 -29 -77t-10 -91q0 -99 41 -165t110 -99
q34 -17 72.5 -25t80.5 -8q92 0 149 30.5t86 83.5zM844 599h140l121 214h-191z" />
    <glyph glyph-name="Dcroat" unicode="&#x110;" horiz-adv-x="919" 
d="M0 0zM456 0q134 0 229.5 38.5t147.5 116.5q25 40 38 90t13 110v3q0 182 -114 270.5t-320 88.5h-364v-285h-92v-151h92v-281h370zM473 281v151h-148v93h113q109 0 153.5 -38.5t44.5 -127.5v-2q0 -85 -43.5 -124t-150.5 -39h-117v87h148z" />
    <glyph glyph-name="dcroat" unicode="&#x111;" 
d="M418 169q-72 0 -108 29t-36 87q0 61 35.5 93.5t108.5 32.5q69 0 107.5 -32.5t38.5 -93.5q0 -58 -36.5 -87t-109.5 -29zM569 101l14 -101h210v606h57v97h-57v62h-234v-62h-91v-97h91v-116q-32 52 -86.5 77.5t-132.5 25.5q-91 0 -161 -36t-110 -105q-19 -35 -29 -77
t-10 -91q0 -99 41 -165t110 -99q34 -17 72.5 -25t80.5 -8q92 0 149 30.5t86 83.5z" />
    <glyph glyph-name="Emacron" unicode="&#x112;" horiz-adv-x="799" 
d="M61 0zM768 194h-477v97h413v143h-413v96h462v187h-692v-717h707v194zM215 780h401v146h-401v-146z" />
    <glyph glyph-name="emacron" unicode="&#x113;" horiz-adv-x="841" 
d="M30 0zM427 431q65 0 101 -19t47 -64h-306q14 40 52.5 61.5t105.5 21.5zM809 185h-257q-14 -19 -41.5 -29.5t-83.5 -10.5q-74 0 -112.5 21.5t-49.5 64.5h549v57q0 91 -41.5 160.5t-126.5 108.5q-42 20 -96 30t-120 10q-136 0 -224.5 -42.5t-132.5 -115.5
q-21 -37 -32 -77.5t-11 -86.5q0 -63 19 -116.5t63 -93.5t117.5 -62t182.5 -22q165 0 262.5 48t134.5 156zM239 660h401v146h-401v-146z" />
    <glyph glyph-name="Ebreve" unicode="&#x114;" horiz-adv-x="799" 
d="M61 0zM768 194h-477v97h413v143h-413v96h462v187h-692v-717h707v194zM411 775q127 0 189 59t62 172h-150q0 -50 -24 -70.5t-77 -20.5t-76.5 20.5t-23.5 70.5h-148q0 -113 56 -172t192 -59z" />
    <glyph glyph-name="ebreve" unicode="&#x115;" horiz-adv-x="841" 
d="M30 0zM427 431q65 0 101 -19t47 -64h-306q14 40 52.5 61.5t105.5 21.5zM809 185h-257q-14 -19 -41.5 -29.5t-83.5 -10.5q-74 0 -112.5 21.5t-49.5 64.5h549v57q0 91 -41.5 160.5t-126.5 108.5q-42 20 -96 30t-120 10q-136 0 -224.5 -42.5t-132.5 -115.5
q-21 -37 -32 -77.5t-11 -86.5q0 -63 19 -116.5t63 -93.5t117.5 -62t182.5 -22q165 0 262.5 48t134.5 156zM435 655q127 0 189 59t62 172h-150q0 -50 -24 -70.5t-77 -20.5t-76.5 20.5t-23.5 70.5h-148q0 -113 56 -172t192 -59z" />
    <glyph glyph-name="Edotaccent" unicode="&#x116;" horiz-adv-x="799" 
d="M61 0zM768 194h-477v97h413v143h-413v96h462v187h-692v-717h707v194zM413 773q66 0 94.5 24t28.5 90q0 67 -29 90t-94 23t-94 -23t-29 -90q0 -45 11 -70t38 -34q13 -5 31.5 -7.5t42.5 -2.5z" />
    <glyph glyph-name="edotaccent" unicode="&#x117;" horiz-adv-x="841" 
d="M30 0zM427 431q65 0 101 -19t47 -64h-306q14 40 52.5 61.5t105.5 21.5zM809 185h-257q-14 -19 -41.5 -29.5t-83.5 -10.5q-74 0 -112.5 21.5t-49.5 64.5h549v57q0 91 -41.5 160.5t-126.5 108.5q-42 20 -96 30t-120 10q-136 0 -224.5 -42.5t-132.5 -115.5
q-21 -37 -32 -77.5t-11 -86.5q0 -63 19 -116.5t63 -93.5t117.5 -62t182.5 -22q165 0 262.5 48t134.5 156zM437 653q66 0 94.5 24t28.5 90q0 67 -29 90t-94 23t-94 -23t-29 -90q0 -45 11 -70t38 -34q13 -5 31.5 -7.5t42.5 -2.5z" />
    <glyph glyph-name="Eogonek" unicode="&#x118;" horiz-adv-x="799" 
d="M890 -127h-179q-6 -24 -20.5 -35.5t-37.5 -11.5q-22 0 -35.5 10t-13.5 27q0 15 11.5 31t46.5 40q17 12 44 28.5t62 37.5v194h-477v97h413v143h-413v96h462v187h-692v-717h472q-56 -40 -74 -76.5t-18 -73.5q0 -70 51.5 -109t149.5 -39q99 0 161 42.5t87 128.5z" />
    <glyph glyph-name="eogonek" unicode="&#x119;" horiz-adv-x="841" 
d="M529 -275q99 0 161 42.5t87 128.5h-179q-6 -24 -20.5 -35.5t-37.5 -11.5q-22 0 -35.5 10t-13.5 27q0 15 10.5 30t41.5 37q16 12 40 27t56 34q63 23 105.5 65.5t64.5 105.5h-257q-14 -19 -41.5 -29.5t-83.5 -10.5q-74 0 -112.5 21.5t-49.5 64.5h549v57q0 91 -41.5 160.5
t-126.5 108.5q-42 20 -96 30t-120 10q-136 0 -224.5 -42.5t-132.5 -115.5q-21 -37 -32 -77.5t-11 -86.5q0 -79 31.5 -143.5t105.5 -104.5q37 -20 88 -31t116 -14q-25 -28 -34 -54.5t-9 -54.5q0 -70 51.5 -109t149.5 -39zM427 431q65 0 101 -19t47 -64h-306q14 40 52.5 61.5
t105.5 21.5z" />
    <glyph glyph-name="Ecaron" unicode="&#x11a;" horiz-adv-x="799" 
d="M61 0zM768 194h-477v97h413v143h-413v96h462v187h-692v-717h707v194zM486 778l172 242h-168l-79 -119l-76 119h-171l173 -242h149z" />
    <glyph glyph-name="ecaron" unicode="&#x11b;" horiz-adv-x="841" 
d="M30 0zM427 431q65 0 101 -19t47 -64h-306q14 40 52.5 61.5t105.5 21.5zM809 185h-257q-14 -19 -41.5 -29.5t-83.5 -10.5q-74 0 -112.5 21.5t-49.5 64.5h549v57q0 91 -41.5 160.5t-126.5 108.5q-42 20 -96 30t-120 10q-136 0 -224.5 -42.5t-132.5 -115.5
q-21 -37 -32 -77.5t-11 -86.5q0 -63 19 -116.5t63 -93.5t117.5 -62t182.5 -22q165 0 262.5 48t134.5 156zM510 658l172 242h-168l-79 -119l-76 119h-171l173 -242h149z" />
    <glyph glyph-name="Gcircumflex" unicode="&#x11c;" horiz-adv-x="940" 
d="M32 0zM680 0h213v393h-459v-132h210q-14 -42 -58.5 -64t-123.5 -22q-94 0 -137.5 43.5t-43.5 127.5v1q0 94 48 136.5t138 42.5q70 0 106 -20t47 -58h271q-20 150 -131 218.5t-293 68.5q-131 0 -229 -45t-152 -133q-27 -43 -40.5 -96.5t-13.5 -116.5v-3
q0 -184 94.5 -272.5t260.5 -88.5q125 0 193.5 52t84.5 167zM552 790h170l-172 237h-150l-173 -237h170l78 118z" />
    <glyph glyph-name="gcircumflex" unicode="&#x11d;" horiz-adv-x="802" 
d="M11 0zM807 -32v3q0 95 -68 136t-228 41h-184q-79 0 -105.5 4.5t-26.5 18.5q0 11 9.5 17.5t38.5 9.5q15 1 36.5 2t50.5 1h93q190 0 272 46.5t82 143.5q0 77 -47 118.5t-146 54.5q-26 5 -64.5 7.5t-84.5 4.5l76 -3q89 0 142.5 0.5t80.5 7.5q27 6 36.5 22t9.5 46v5h-252v-13
q0 -23 -6 -33.5t-29 -13.5q-12 -1 -30.5 -1.5t-43.5 -0.5h-32q-183 0 -269 -53.5t-86 -146.5q0 -72 41.5 -108.5t127.5 -50.5q-100 -9 -142.5 -42.5t-42.5 -86.5q0 -58 46.5 -85t147.5 -31q-109 -7 -154 -36.5t-45 -78.5q0 -40 31 -67.5t106 -41.5q38 -7 90 -10.5t118 -3.5
h54q210 0 303.5 54.5t93.5 163.5zM406 337q-79 0 -111.5 10t-32.5 40q0 31 30 44t104 14h16q81 0 112.5 -13t31.5 -43q0 -28 -34.5 -40t-115.5 -12zM404 -103q-89 0 -127 9.5t-38 34.5v1q0 24 27 34.5t92 10.5h129q48 0 71.5 -4.5t30.5 -12.5q4 -5 6 -10.5t2 -11.5v-3
q0 -14 -13 -24.5t-48 -17.5q-18 -3 -42.5 -4.5t-57.5 -1.5h-32zM491 692h170l-172 237h-150l-173 -237h170l78 118z" />
    <glyph glyph-name="Gbreve" unicode="&#x11e;" horiz-adv-x="940" 
d="M32 0zM680 0h213v393h-459v-132h210q-14 -42 -58.5 -64t-123.5 -22q-94 0 -137.5 43.5t-43.5 127.5v1q0 94 48 136.5t138 42.5q70 0 106 -20t47 -58h271q-20 150 -131 218.5t-293 68.5q-131 0 -229 -45t-152 -133q-27 -43 -40.5 -96.5t-13.5 -116.5v-3
q0 -184 94.5 -272.5t260.5 -88.5q125 0 193.5 52t84.5 167zM473 792q127 0 189 59t62 172h-150q0 -50 -24 -70.5t-77 -20.5t-76.5 20.5t-23.5 70.5h-148q0 -113 56 -172t192 -59z" />
    <glyph glyph-name="gbreve" unicode="&#x11f;" horiz-adv-x="802" 
d="M11 0zM807 -32v3q0 95 -68 136t-228 41h-184q-79 0 -105.5 4.5t-26.5 18.5q0 11 9.5 17.5t38.5 9.5q15 1 36.5 2t50.5 1h93q190 0 272 46.5t82 143.5q0 77 -47 118.5t-146 54.5q-26 5 -64.5 7.5t-84.5 4.5l76 -3q89 0 142.5 0.5t80.5 7.5q27 6 36.5 22t9.5 46v5h-252v-13
q0 -23 -6 -33.5t-29 -13.5q-12 -1 -30.5 -1.5t-43.5 -0.5h-32q-183 0 -269 -53.5t-86 -146.5q0 -72 41.5 -108.5t127.5 -50.5q-100 -9 -142.5 -42.5t-42.5 -86.5q0 -58 46.5 -85t147.5 -31q-109 -7 -154 -36.5t-45 -78.5q0 -40 31 -67.5t106 -41.5q38 -7 90 -10.5t118 -3.5
h54q210 0 303.5 54.5t93.5 163.5zM406 337q-79 0 -111.5 10t-32.5 40q0 31 30 44t104 14h16q81 0 112.5 -13t31.5 -43q0 -28 -34.5 -40t-115.5 -12zM404 -103q-89 0 -127 9.5t-38 34.5v1q0 24 27 34.5t92 10.5h129q48 0 71.5 -4.5t30.5 -12.5q4 -5 6 -10.5t2 -11.5v-3
q0 -14 -13 -24.5t-48 -17.5q-18 -3 -42.5 -4.5t-57.5 -1.5h-32zM411 684q127 0 189 59t62 172h-150q0 -50 -24 -70.5t-77 -20.5t-76.5 20.5t-23.5 70.5h-148q0 -113 56 -172t192 -59z" />
    <glyph glyph-name="Gdotaccent" unicode="&#x120;" horiz-adv-x="940" 
d="M32 0zM680 0h213v393h-459v-132h210q-14 -42 -58.5 -64t-123.5 -22q-94 0 -137.5 43.5t-43.5 127.5v1q0 94 48 136.5t138 42.5q70 0 106 -20t47 -58h271q-20 150 -131 218.5t-293 68.5q-131 0 -229 -45t-152 -133q-27 -43 -40.5 -96.5t-13.5 -116.5v-3
q0 -184 94.5 -272.5t260.5 -88.5q125 0 193.5 52t84.5 167zM475 790q66 0 94.5 24t28.5 90q0 67 -29 90t-94 23t-94 -23t-29 -90q0 -45 11 -70t38 -34q13 -5 31.5 -7.5t42.5 -2.5z" />
    <glyph glyph-name="gdotaccent" unicode="&#x121;" horiz-adv-x="802" 
d="M11 0zM807 -32v3q0 95 -68 136t-228 41h-184q-79 0 -105.5 4.5t-26.5 18.5q0 11 9.5 17.5t38.5 9.5q15 1 36.5 2t50.5 1h93q190 0 272 46.5t82 143.5q0 77 -47 118.5t-146 54.5q-26 5 -64.5 7.5t-84.5 4.5l76 -3q89 0 142.5 0.5t80.5 7.5q27 6 36.5 22t9.5 46v5h-252v-13
q0 -23 -6 -33.5t-29 -13.5q-12 -1 -30.5 -1.5t-43.5 -0.5h-32q-183 0 -269 -53.5t-86 -146.5q0 -72 41.5 -108.5t127.5 -50.5q-100 -9 -142.5 -42.5t-42.5 -86.5q0 -58 46.5 -85t147.5 -31q-109 -7 -154 -36.5t-45 -78.5q0 -40 31 -67.5t106 -41.5q38 -7 90 -10.5t118 -3.5
h54q210 0 303.5 54.5t93.5 163.5zM406 337q-79 0 -111.5 10t-32.5 40q0 31 30 44t104 14h16q81 0 112.5 -13t31.5 -43q0 -28 -34.5 -40t-115.5 -12zM404 -103q-89 0 -127 9.5t-38 34.5v1q0 24 27 34.5t92 10.5h129q48 0 71.5 -4.5t30.5 -12.5q4 -5 6 -10.5t2 -11.5v-3
q0 -14 -13 -24.5t-48 -17.5q-18 -3 -42.5 -4.5t-57.5 -1.5h-32zM409 680q66 0 94.5 24t28.5 90q0 67 -29 90t-94 23t-94 -23t-29 -90q0 -45 11 -70t38 -34q13 -5 31.5 -7.5t42.5 -2.5z" />
    <glyph glyph-name="uni0122" unicode="&#x122;" horiz-adv-x="940" 
d="M32 0zM680 0h213v393h-459v-132h210q-14 -42 -58.5 -64t-123.5 -22q-94 0 -137.5 43.5t-43.5 127.5v1q0 94 48 136.5t138 42.5q70 0 106 -20t47 -58h271q-20 150 -131 218.5t-293 68.5q-131 0 -229 -45t-152 -133q-27 -43 -40.5 -96.5t-13.5 -116.5v-3
q0 -184 94.5 -272.5t260.5 -88.5q125 0 193.5 52t84.5 167zM375 -350q89 1 138 22.5t68 60.5q10 20 15 43.5t5 50.5q0 64 -28 87t-97 23q-67 0 -95 -18.5t-28 -64.5q0 -50 24 -64.5t81 -14.5q12 0 23.5 1.5t22.5 3.5q-7 -29 -38.5 -41.5t-90.5 -13.5v-75z" />
    <glyph glyph-name="uni0123" unicode="&#x123;" horiz-adv-x="802" 
d="M11 0zM807 -32v3q0 95 -68 136t-228 41h-184q-79 0 -105.5 4.5t-26.5 18.5q0 11 9.5 17.5t38.5 9.5q15 1 36.5 2t50.5 1h93q190 0 272 46.5t82 143.5q0 77 -47 118.5t-146 54.5q-26 5 -64.5 7.5t-84.5 4.5l76 -3q89 0 142.5 0.5t80.5 7.5q27 6 36.5 22t9.5 46v5h-252v-13
q0 -23 -6 -33.5t-29 -13.5q-12 -1 -30.5 -1.5t-43.5 -0.5h-32q-183 0 -269 -53.5t-86 -146.5q0 -72 41.5 -108.5t127.5 -50.5q-100 -9 -142.5 -42.5t-42.5 -86.5q0 -58 46.5 -85t147.5 -31q-109 -7 -154 -36.5t-45 -78.5q0 -40 31 -67.5t106 -41.5q38 -7 90 -10.5t118 -3.5
h54q210 0 303.5 54.5t93.5 163.5zM406 337q-79 0 -111.5 10t-32.5 40q0 31 30 44t104 14h16q81 0 112.5 -13t31.5 -43q0 -28 -34.5 -40t-115.5 -12zM404 -103q-89 0 -127 9.5t-38 34.5v1q0 24 27 34.5t92 10.5h129q48 0 71.5 -4.5t30.5 -12.5q4 -5 6 -10.5t2 -11.5v-3
q0 -14 -13 -24.5t-48 -17.5q-18 -3 -42.5 -4.5t-57.5 -1.5h-32zM404 675q68 0 95.5 18.5t27.5 64.5q0 50 -24 64.5t-81 14.5q-11 0 -22.5 -1t-23.5 -4q8 29 39.5 41.5t89.5 13.5v75q-88 -1 -137 -22.5t-69 -60.5q-10 -20 -15 -43.5t-5 -50.5q0 -64 28 -87t97 -23z" />
    <glyph glyph-name="Hcircumflex" unicode="&#x124;" horiz-adv-x="902" 
d="M61 0zM600 0h241v717h-241v-253h-296v253h-243v-717h243v250h296v-250zM531 766h170l-172 237h-150l-173 -237h170l78 118z" />
    <glyph glyph-name="hcircumflex" unicode="&#x125;" horiz-adv-x="819" 
d="M0 0zM289 251q0 77 30 112.5t97 35.5q65 0 89.5 -36.5t24.5 -103.5v-259h239v332q0 125 -66.5 195t-191.5 70q-77 0 -133.5 -32.5t-89.5 -88.5v289h-236v-765h237v251zM249 815h170l-172 237h-150l-173 -237h170l78 118z" />
    <glyph glyph-name="Hbar" unicode="&#x126;" horiz-adv-x="939" 
d="M621 353h-303v89h303v-89zM621 0h236v442h87v173h-87v102h-236v-102h-303v102h-237v-102h-85v-173h85v-442h237v183h303v-183z" />
    <glyph glyph-name="hbar" unicode="&#x127;" horiz-adv-x="819" 
d="M289 251q0 77 30 112.5t97 35.5q65 0 89.5 -36.5t24.5 -103.5v-259h239v332q0 125 -66.5 195t-191.5 70q-77 0 -133.5 -32.5t-89.5 -88.5v138h143v81h-143v70h-236v-70h-56v-81h56v-614h237v251z" />
    <glyph glyph-name="Itilde" unicode="&#x128;" horiz-adv-x="667" 
d="M39 0zM628 0v217h-179v286h179v214h-589v-214h178v-286h-178v-217h589zM70 774h130q1 29 9.5 42t29.5 13t42 -9t44 -21t50.5 -21t62.5 -9q87 0 121 50.5t34 151.5h-130q-1 -28 -10 -40t-32 -12q-24 0 -52.5 14.5t-63.5 29.5q-17 7 -37 10.5t-43 3.5q-85 0 -120 -53
t-35 -150z" />
    <glyph glyph-name="itilde" unicode="&#x129;" horiz-adv-x="356" 
d="M0 0zM302 0v580h-248v-580h248zM-83 637h130q1 29 9.5 42t29.5 13t42 -9t44 -21t50.5 -21t62.5 -9q87 0 121 50.5t34 151.5h-130q-1 -28 -10 -40t-32 -12q-24 0 -52.5 14.5t-63.5 29.5q-17 7 -37 10.5t-43 3.5q-85 0 -120 -53t-35 -150z" />
    <glyph glyph-name="Imacron" unicode="&#x12a;" horiz-adv-x="667" 
d="M39 0zM628 0v217h-179v286h179v214h-589v-214h178v-286h-178v-217h589zM139 780h401v146h-401v-146z" />
    <glyph glyph-name="imacron" unicode="&#x12b;" horiz-adv-x="356" 
d="M0 0zM302 0v580h-248v-580h248zM-15 643h401v146h-401v-146z" />
    <glyph glyph-name="Ibreve" unicode="&#x12c;" horiz-adv-x="667" 
d="M39 0zM628 0v217h-179v286h179v214h-589v-214h178v-286h-178v-217h589zM335 775q127 0 189 59t62 172h-150q0 -50 -24 -70.5t-77 -20.5t-76.5 20.5t-23.5 70.5h-148q0 -113 56 -172t192 -59z" />
    <glyph glyph-name="ibreve" unicode="&#x12d;" horiz-adv-x="356" 
d="M0 0zM302 0v580h-248v-580h248zM181 638q127 0 189 59t62 172h-150q0 -50 -24 -70.5t-77 -20.5t-76.5 20.5t-23.5 70.5h-148q0 -113 56 -172t192 -59z" />
    <glyph glyph-name="Iogonek" unicode="&#x12e;" horiz-adv-x="667" 
d="M749 -127h-179q-6 -24 -20.5 -35.5t-37.5 -11.5q-22 0 -35.5 10t-13.5 27q0 15 11.5 31t46.5 40q17 12 44 28.5t62 37.5h1v217h-179v286h179v214h-589v-214h178v-286h-178v-217h353q-56 -40 -74 -76.5t-18 -73.5q0 -70 51.5 -109t149.5 -39q99 0 161 42.5t87 128.5z" />
    <glyph glyph-name="iogonek" unicode="&#x12f;" horiz-adv-x="353" 
d="M178 619q71 0 106 24.5t35 80.5q0 58 -36.5 81.5t-104.5 23.5t-104 -23.5t-36 -81.5t32.5 -81.5t107.5 -23.5zM422 -127h-179q-6 -24 -20.5 -35.5t-37.5 -11.5q-22 0 -35.5 10t-13.5 27q0 15 11.5 31t46.5 40q17 12 44 28.5t62 37.5v578q-7 -6 -28.5 -10.5t-47.5 -7.5
q-13 -1 -24.5 -1.5t-22.5 -0.5q-20 0 -46.5 2.5t-48.5 6.5q-11 2 -18.5 5t-10.5 6v-578h12q-56 -40 -74 -76.5t-18 -73.5q0 -70 51.5 -109t149.5 -39q99 0 161 42.5t87 128.5z" />
    <glyph glyph-name="Idotaccent" unicode="&#x130;" horiz-adv-x="667" 
d="M39 0zM628 0v217h-179v286h179v214h-589v-214h178v-286h-178v-217h589zM337 773q66 0 94.5 24t28.5 90q0 67 -29 90t-94 23t-94 -23t-29 -90q0 -45 11 -70t38 -34q13 -5 31.5 -7.5t42.5 -2.5z" />
    <glyph glyph-name="dotlessi" unicode="&#x131;" horiz-adv-x="356" 
d="M302 0v580h-248v-580h248z" />
    <glyph glyph-name="IJ" unicode="&#x132;" horiz-adv-x="1068" 
d="M682 0h25q98 0 159.5 12t95.5 46q33 34 46 97.5t13 166.5v395h-248v-390q0 -50 -5 -74t-23 -30q-9 -4 -23.5 -5.5t-34.5 -1.5h-5v-216zM612 0v217h-176v286h166v214h-563v-214h165v-286h-165v-217h573z" />
    <glyph glyph-name="ij" unicode="&#x133;" horiz-adv-x="726" 
d="M181 619q71 0 107 24.5t36 80.5q0 58 -37.5 81.5t-105.5 23.5t-106 -23.5t-38 -81.5t34 -81.5t110 -23.5zM544 619q71 0 107 24.5t36 80.5q0 58 -37.5 81.5t-105.5 23.5t-106 -23.5t-38 -81.5t34 -81.5t110 -23.5zM54 0h254v578q-7 -6 -29.5 -10.5t-49.5 -7.5
q-13 -1 -25 -1.5t-22 -0.5q-20 0 -48 2.5t-51 6.5q-11 2 -18.5 5t-10.5 6v-578zM140 -283h250q86 0 140.5 10.5t84.5 38.5q30 27 41.5 76.5t11.5 126.5v609q-7 -6 -29 -10.5t-48 -7.5q-14 -1 -25.5 -1.5t-22.5 -0.5q-20 0 -47 2.5t-50 6.5q-11 2 -18.5 5t-10.5 6v-563
q0 -47 -6.5 -69t-25.5 -29q-10 -4 -24.5 -5.5t-33.5 -1.5h-187v-193z" />
    <glyph glyph-name="Jcircumflex" unicode="&#x134;" horiz-adv-x="776" 
d="M13 0zM366 -20q176 0 267.5 87.5t91.5 269.5v380h-247v-381q0 -82 -27.5 -113t-83.5 -31q-61 0 -84.5 31.5t-23.5 97.5v29h-246v-32q0 -176 86 -257t267 -81zM680 772h170l-172 237h-150l-173 -237h170l78 118z" />
    <glyph glyph-name="jcircumflex" unicode="&#x135;" horiz-adv-x="352" 
d="M0 0zM-87 -281h115q86 0 139 10.5t82 37.5q28 27 38.5 76t10.5 126v611h-243v-565q0 -47 -6.5 -69t-25.5 -29q-10 -4 -25 -5.5t-34 -1.5h-51v-191zM258 641h170l-172 237h-150l-173 -237h170l78 118z" />
    <glyph glyph-name="uni0136" unicode="&#x136;" horiz-adv-x="895" 
d="M61 0zM622 0h278l-291 440l286 277h-299l-295 -286v286h-240v-717h240v194l123 116zM366 -309q89 1 138 22.5t68 60.5q10 20 15 43.5t5 50.5q0 64 -28 87t-97 23q-67 0 -95 -18.5t-28 -64.5q0 -50 24 -64.5t81 -14.5q12 0 23.5 1.5t22.5 3.5q-7 -29 -38.5 -41.5
t-90.5 -13.5v-75z" />
    <glyph glyph-name="uni0137" unicode="&#x137;" horiz-adv-x="807" 
d="M52 0zM556 0h275l-252 358l244 222h-287l-248 -222v407h-236v-765h236v143l109 98zM327 -322q89 1 138 22.5t68 60.5q10 20 15 43.5t5 50.5q0 64 -28 87t-97 23q-67 0 -95 -18.5t-28 -64.5q0 -50 24 -64.5t81 -14.5q12 0 23.5 1.5t22.5 3.5q-7 -29 -38.5 -41.5
t-90.5 -13.5v-75z" />
    <glyph glyph-name="kgreenlandic" unicode="&#x138;" horiz-adv-x="807" 
d="M558 0h274l-252 357l245 223h-288l-248 -223v223h-234v-580h234v143l109 98z" />
    <glyph glyph-name="Lacute" unicode="&#x139;" horiz-adv-x="736" 
d="M61 0zM714 0v225h-403v492h-250v-717h653zM99 778h167l223 223h-226z" />
    <glyph glyph-name="lacute" unicode="&#x13a;" horiz-adv-x="346" 
d="M53 0zM294 0v765h-241v-765h241zM89 815h167l223 223h-226z" />
    <glyph glyph-name="uni013B" unicode="&#x13b;" horiz-adv-x="736" 
d="M61 0zM714 0v225h-403v492h-250v-717h653zM288 -341q89 1 138 22.5t68 60.5q10 20 15 43.5t5 50.5q0 64 -28 87t-97 23q-67 0 -95 -18.5t-28 -64.5q0 -50 24 -64.5t81 -14.5q12 0 23.5 1.5t22.5 3.5q-7 -29 -38.5 -41.5t-90.5 -13.5v-75z" />
    <glyph glyph-name="uni013C" unicode="&#x13c;" horiz-adv-x="346" 
d="M46 0zM294 0v765h-241v-765h241zM68 -334q89 1 138 22.5t68 60.5q10 20 15 43.5t5 50.5q0 64 -28 87t-97 23q-67 0 -95 -18.5t-28 -64.5q0 -50 24 -64.5t81 -14.5q12 0 23.5 1.5t22.5 3.5q-7 -29 -38.5 -41.5t-90.5 -13.5v-75z" />
    <glyph glyph-name="Lcaron" unicode="&#x13d;" horiz-adv-x="736" 
d="M61 0zM714 0v225h-403v492h-250v-717h653zM459 523h140l121 214h-191z" />
    <glyph glyph-name="lcaron" unicode="&#x13e;" horiz-adv-x="346" 
d="M53 0zM294 0v765h-241v-765h241zM338 602h140l121 214h-191z" />
    <glyph glyph-name="Ldot" unicode="&#x13f;" horiz-adv-x="716" 
d="M694 0v230h-390v487h-243v-717h633zM578 310q66 0 94.5 24t28.5 90q0 67 -29 90t-94 23t-94 -23t-29 -90q0 -45 11 -70t38 -34q13 -5 31.5 -7.5t42.5 -2.5z" />
    <glyph glyph-name="ldot" unicode="&#x140;" horiz-adv-x="577" 
d="M53 0zM294 0v765h-241v-765h241z" />
    <glyph glyph-name="Lslash" unicode="&#x141;" horiz-adv-x="763" 
d="M739 0v225h-403v144l201 53l-42 157l-159 -42v180h-250v-246l-110 -29l38 -158l72 19v-303h653z" />
    <glyph glyph-name="lslash" unicode="&#x142;" horiz-adv-x="374" 
d="M306 0v288l85 24l-30 111l-55 -16v358h-241v-427l-85 -24l31 -111l54 15v-218h241z" />
    <glyph glyph-name="Nacute" unicode="&#x143;" horiz-adv-x="930" 
d="M61 0zM645 0h225v717h-231v-412l-344 412h-234v-717h232v426zM390 760h167l223 223h-226z" />
    <glyph glyph-name="nacute" unicode="&#x144;" horiz-adv-x="823" 
d="M52 0zM294 250q0 77 29 112.5t96 35.5q65 0 90 -33.5t25 -101.5v-263h240v332q0 125 -67 195t-192 70q-91 0 -149 -40.5t-85 -106.5l-23 130h-206v-580h242v250zM329 646h167l223 223h-226z" />
    <glyph glyph-name="uni0145" unicode="&#x145;" horiz-adv-x="930" 
d="M61 0zM645 0h225v717h-231v-412l-344 412h-234v-717h232v426zM376 -317q89 1 138 22.5t68 60.5q10 20 15 43.5t5 50.5q0 64 -28 87t-97 23q-67 0 -95 -18.5t-28 -64.5q0 -50 24 -64.5t81 -14.5q12 0 23.5 1.5t22.5 3.5q-7 -29 -38.5 -41.5t-90.5 -13.5v-75z" />
    <glyph glyph-name="uni0146" unicode="&#x146;" horiz-adv-x="823" 
d="M52 0zM294 250q0 77 29 112.5t96 35.5q65 0 90 -33.5t25 -101.5v-263h240v332q0 125 -67 195t-192 70q-91 0 -149 -40.5t-85 -106.5l-23 130h-206v-580h242v250zM324 -326q89 1 138 22.5t68 60.5q10 20 15 43.5t5 50.5q0 64 -28 87t-97 23q-67 0 -95 -18.5t-28 -64.5
q0 -50 24 -64.5t81 -14.5q12 0 23.5 1.5t22.5 3.5q-7 -29 -38.5 -41.5t-90.5 -13.5v-75z" />
    <glyph glyph-name="Ncaron" unicode="&#x147;" horiz-adv-x="930" 
d="M61 0zM645 0h225v717h-231v-412l-344 412h-234v-717h232v426zM551 760l172 242h-168l-79 -119l-76 119h-171l173 -242h149z" />
    <glyph glyph-name="ncaron" unicode="&#x148;" horiz-adv-x="823" 
d="M52 0zM294 250q0 77 29 112.5t96 35.5q65 0 90 -33.5t25 -101.5v-263h240v332q0 125 -67 195t-192 70q-91 0 -149 -40.5t-85 -106.5l-23 130h-206v-580h242v250zM491 647l172 242h-168l-79 -119l-76 119h-171l173 -242h149z" />
    <glyph glyph-name="Eng" unicode="&#x14a;" horiz-adv-x="930" 
d="M557 -292q98 0 159 11t95 42t46.5 89.5t12.5 154.5v712h-231v-414l-345 414h-233v-717h232v425l346 -419q0 -43 -6.5 -62.5t-27.5 -24.5q-11 -3 -27.5 -4.5t-38.5 -1.5h-46v-205h64z" />
    <glyph glyph-name="eng" unicode="&#x14b;" horiz-adv-x="824" 
d="M488 -286q82 0 137 11t88 39t47 78t14 127v362q0 125 -67 195.5t-192 70.5q-91 0 -149 -40.5t-85 -106.5l-23 130h-206v-580h241v250q0 77 30 113t97 36q65 0 89.5 -36t24.5 -104v-244q0 -47 -7 -69t-27 -29q-10 -4 -25 -5.5t-34 -1.5h-45v-196h92z" />
    <glyph glyph-name="Omacron" unicode="&#x14c;" horiz-adv-x="928" 
d="M32 0zM464 -20q130 0 227 40.5t151 123.5q27 42 40.5 94t13.5 115v4q0 120 -55 204.5t-152 129.5q-48 22 -104 33t-119 11q-128 0 -226 -45t-153 -130q-27 -42 -41 -93t-14 -111v-2q0 -128 52.5 -211t149.5 -123q49 -20 106.5 -30t123.5 -10zM463 192q-85 0 -133.5 40.5
t-48.5 121.5v1q0 85 49 126.5t134 41.5q84 0 133.5 -40.5t49.5 -128.5q0 -86 -49.5 -124t-134.5 -38zM269 797h401v146h-401v-146z" />
    <glyph glyph-name="omacron" unicode="&#x14d;" horiz-adv-x="837" 
d="M30 0zM416 -19q131 0 217.5 38t130.5 106q21 34 32 74t11 86q0 95 -46 165t-133 109q-44 19 -96 28.5t-113 9.5q-120 0 -207.5 -39t-134.5 -109q-23 -35 -35 -76t-12 -88q0 -94 39 -162t124 -105q42 -19 98 -28t125 -9zM418 169q-72 0 -108 29t-36 87q0 63 36.5 94.5
t108.5 31.5q73 0 109 -31.5t36 -94.5q0 -56 -35 -86t-111 -30zM220 661h401v146h-401v-146z" />
    <glyph glyph-name="Obreve" unicode="&#x14e;" horiz-adv-x="928" 
d="M32 0zM464 -20q130 0 227 40.5t151 123.5q27 42 40.5 94t13.5 115v4q0 120 -55 204.5t-152 129.5q-48 22 -104 33t-119 11q-128 0 -226 -45t-153 -130q-27 -42 -41 -93t-14 -111v-2q0 -128 52.5 -211t149.5 -123q49 -20 106.5 -30t123.5 -10zM463 192q-85 0 -133.5 40.5
t-48.5 121.5v1q0 85 49 126.5t134 41.5q84 0 133.5 -40.5t49.5 -128.5q0 -86 -49.5 -124t-134.5 -38zM465 792q127 0 189 59t62 172h-150q0 -50 -24 -70.5t-77 -20.5t-76.5 20.5t-23.5 70.5h-148q0 -113 56 -172t192 -59z" />
    <glyph glyph-name="obreve" unicode="&#x14f;" horiz-adv-x="837" 
d="M30 0zM416 -19q131 0 217.5 38t130.5 106q21 34 32 74t11 86q0 95 -46 165t-133 109q-44 19 -96 28.5t-113 9.5q-120 0 -207.5 -39t-134.5 -109q-23 -35 -35 -76t-12 -88q0 -94 39 -162t124 -105q42 -19 98 -28t125 -9zM418 169q-72 0 -108 29t-36 87q0 63 36.5 94.5
t108.5 31.5q73 0 109 -31.5t36 -94.5q0 -56 -35 -86t-111 -30zM414 647q127 0 189 59t62 172h-150q0 -50 -24 -70.5t-77 -20.5t-76.5 20.5t-23.5 70.5h-148q0 -113 56 -172t192 -59z" />
    <glyph glyph-name="Ohungarumlaut" unicode="&#x150;" horiz-adv-x="928" 
d="M32 0zM464 -20q130 0 227 40.5t151 123.5q27 42 40.5 94t13.5 115v4q0 120 -55 204.5t-152 129.5q-48 22 -104 33t-119 11q-128 0 -226 -45t-153 -130q-27 -42 -41 -93t-14 -111v-2q0 -128 52.5 -211t149.5 -123q49 -20 106.5 -30t123.5 -10zM463 192q-85 0 -133.5 40.5
t-48.5 121.5v1q0 85 49 126.5t134 41.5q84 0 133.5 -40.5t49.5 -128.5q0 -86 -49.5 -124t-134.5 -38zM604 1016h-192l-133 -223h133zM855 1016h-195l-142 -223h138z" />
    <glyph glyph-name="ohungarumlaut" unicode="&#x151;" horiz-adv-x="837" 
d="M30 0zM416 -19q131 0 217.5 38t130.5 106q21 34 32 74t11 86q0 95 -46 165t-133 109q-44 19 -96 28.5t-113 9.5q-120 0 -207.5 -39t-134.5 -109q-23 -35 -35 -76t-12 -88q0 -94 39 -162t124 -105q42 -19 98 -28t125 -9zM418 169q-72 0 -108 29t-36 87q0 63 36.5 94.5
t108.5 31.5q73 0 109 -31.5t36 -94.5q0 -56 -35 -86t-111 -30zM553 878h-192l-133 -223h133zM804 878h-195l-142 -223h138z" />
    <glyph glyph-name="OE" unicode="&#x152;" horiz-adv-x="1347" 
d="M463 192q-85 0 -133.5 40.5t-48.5 121.5v1q0 85 49 126.5t134 41.5q84 0 133.5 -40.5t49.5 -128.5q0 -86 -49.5 -124t-134.5 -38zM1317 0v194h-468v97h402v143h-402v96h451v187h-680v-4q-33 11 -71.5 16.5t-82.5 5.5q-128 0 -226 -45t-153 -130q-27 -42 -41 -93t-14 -111
v-2q0 -128 52.5 -211t149.5 -123q49 -20 106.5 -30t123.5 -10q46 0 85 5t73 15h695z" />
    <glyph glyph-name="oe" unicode="&#x153;" horiz-adv-x="1382" 
d="M963 430q66 0 102.5 -17.5t48.5 -61.5h-312q14 38 53 58.5t108 20.5zM418 169q-75 0 -109.5 29t-34.5 87q0 63 36.5 94.5t108.5 31.5q75 0 110 -32t35 -94q0 -56 -34 -86t-112 -30zM1348 186h-257q-15 -22 -43 -32t-82 -10q-79 0 -118 22.5t-50 65.5h554v56
q0 91 -42 160.5t-127 108.5q-43 20 -97 30t-120 10q-97 0 -166 -23t-114 -64q-43 41 -109 64t-158 23q-121 0 -208 -39t-134 -109q-24 -35 -35.5 -76t-11.5 -88q0 -94 38.5 -162t123.5 -105q43 -19 99 -28t125 -9q91 0 155 20t106 55q41 -35 107 -55t165 -20
q163 0 262.5 46.5t136.5 158.5z" />
    <glyph glyph-name="Racute" unicode="&#x154;" horiz-adv-x="859" 
d="M61 0zM461 528q63 0 92.5 -14.5t29.5 -54.5v-7q0 -42 -34.5 -55.5t-90.5 -13.5h-161v145h164zM441 204q72 0 98.5 -21.5t26.5 -80.5v-54q0 -13 5 -27t19 -21h253q-14 8 -20 22t-6 30v46q0 89 -29 134.5t-104 63.5q73 23 107.5 68t34.5 118q0 81 -35.5 133t-116.5 77
q-40 12 -94 18.5t-122 6.5h-397v-717h236v204h144zM344 778h167l223 223h-226z" />
    <glyph glyph-name="racute" unicode="&#x155;" horiz-adv-x="601" 
d="M52 0zM303 0v183q0 63 13.5 99.5t49.5 52.5q18 7 44 11t60 4h101v239h-63q-99 0 -153 -44t-71 -132l-29 167h-203v-580h251zM233 630h167l223 223h-226z" />
    <glyph glyph-name="uni0156" unicode="&#x156;" horiz-adv-x="859" 
d="M61 0zM461 528q63 0 92.5 -14.5t29.5 -54.5v-7q0 -42 -34.5 -55.5t-90.5 -13.5h-161v145h164zM441 204q72 0 98.5 -21.5t26.5 -80.5v-54q0 -13 5 -27t19 -21h253q-14 8 -20 22t-6 30v46q0 89 -29 134.5t-104 63.5q73 23 107.5 68t34.5 118q0 81 -35.5 133t-116.5 77
q-40 12 -94 18.5t-122 6.5h-397v-717h236v204h144zM347 -320q89 1 138 22.5t68 60.5q10 20 15 43.5t5 50.5q0 64 -28 87t-97 23q-67 0 -95 -18.5t-28 -64.5q0 -50 24 -64.5t81 -14.5q12 0 23.5 1.5t22.5 3.5q-7 -29 -38.5 -41.5t-90.5 -13.5v-75z" />
    <glyph glyph-name="uni0157" unicode="&#x157;" horiz-adv-x="601" 
d="M52 0zM303 0v183q0 63 13.5 99.5t49.5 52.5q18 7 44 11t60 4h101v239h-63q-99 0 -153 -44t-71 -132l-29 167h-203v-580h251zM80 -335q89 1 138 22.5t68 60.5q10 20 15 43.5t5 50.5q0 64 -28 87t-97 23q-67 0 -95 -18.5t-28 -64.5q0 -50 24 -64.5t81 -14.5q12 0 23.5 1.5
t22.5 3.5q-7 -29 -38.5 -41.5t-90.5 -13.5v-75z" />
    <glyph glyph-name="Rcaron" unicode="&#x158;" horiz-adv-x="859" 
d="M61 0zM461 528q63 0 92.5 -14.5t29.5 -54.5v-7q0 -42 -34.5 -55.5t-90.5 -13.5h-161v145h164zM441 204q72 0 98.5 -21.5t26.5 -80.5v-54q0 -13 5 -27t19 -21h253q-14 8 -20 22t-6 30v46q0 89 -29 134.5t-104 63.5q73 23 107.5 68t34.5 118q0 81 -35.5 133t-116.5 77
q-40 12 -94 18.5t-122 6.5h-397v-717h236v204h144zM505 778l172 242h-168l-79 -119l-76 119h-171l173 -242h149z" />
    <glyph glyph-name="rcaron" unicode="&#x159;" horiz-adv-x="601" 
d="M52 0zM303 0v183q0 63 13.5 99.5t49.5 52.5q18 7 44 11t60 4h101v239h-63q-99 0 -153 -44t-71 -132l-29 167h-203v-580h251zM395 630l172 242h-168l-79 -119l-76 119h-171l173 -242h149z" />
    <glyph glyph-name="Sacute" unicode="&#x15a;" horiz-adv-x="855" 
d="M6 0zM444 -21q135 0 221 31.5t126 87.5q21 28 31 61t10 71q0 76 -37.5 121.5t-114.5 68.5q-39 11 -87 18.5t-107 10.5q-69 4 -111 9t-64 11q-21 6 -28.5 15t-7.5 22q0 24 27 39.5t97 15.5q74 0 118.5 -16t55.5 -61h255q-32 138 -135.5 196t-286.5 58q-180 0 -277 -66
t-97 -180q0 -110 78.5 -158t240.5 -59q98 -6 149.5 -12t70.5 -17q9 -5 14 -13.5t5 -19.5q0 -28 -31 -41t-99 -13q-73 0 -123.5 18.5t-63.5 67.5h-267q16 -88 62.5 -147.5t136.5 -88.5q46 -15 105.5 -22.5t133.5 -7.5zM327 798h167l223 223h-226z" />
    <glyph glyph-name="sacute" unicode="&#x15b;" horiz-adv-x="769" 
d="M2 0zM391 -19q127 0 206.5 27t116.5 74q19 24 28.5 51.5t9.5 58.5q0 59 -29.5 95.5t-100.5 55.5q-36 10 -85 16t-111 9q-68 3 -106.5 8t-54.5 13q-8 4 -12 9.5t-4 11.5q0 17 21.5 29t84.5 12q59 0 98.5 -12t51.5 -44h243q-34 105 -127.5 153.5t-259.5 48.5
q-169 0 -253.5 -56t-84.5 -151q0 -59 31 -95t101 -54q35 -9 81 -15t104 -9q77 -3 116.5 -7.5t52.5 -12.5q7 -4 10.5 -9t3.5 -11q0 -19 -23.5 -31t-85.5 -12q-74 0 -109 13t-48 44h-255q22 -114 123.5 -162t265.5 -48zM292 652h167l223 223h-226z" />
    <glyph glyph-name="Scircumflex" unicode="&#x15c;" horiz-adv-x="855" 
d="M6 0zM444 -21q135 0 221 31.5t126 87.5q21 28 31 61t10 71q0 76 -37.5 121.5t-114.5 68.5q-39 11 -87 18.5t-107 10.5q-69 4 -111 9t-64 11q-21 6 -28.5 15t-7.5 22q0 24 27 39.5t97 15.5q74 0 118.5 -16t55.5 -61h255q-32 138 -135.5 196t-286.5 58q-180 0 -277 -66
t-97 -180q0 -110 78.5 -158t240.5 -59q98 -6 149.5 -12t70.5 -17q9 -5 14 -13.5t5 -19.5q0 -28 -31 -41t-99 -13q-73 0 -123.5 18.5t-63.5 67.5h-267q16 -88 62.5 -147.5t136.5 -88.5q46 -15 105.5 -22.5t133.5 -7.5zM495 796h170l-172 237h-150l-173 -237h170l78 118z" />
    <glyph glyph-name="scircumflex" unicode="&#x15d;" horiz-adv-x="769" 
d="M2 0zM391 -19q127 0 206.5 27t116.5 74q19 24 28.5 51.5t9.5 58.5q0 59 -29.5 95.5t-100.5 55.5q-36 10 -85 16t-111 9q-68 3 -106.5 8t-54.5 13q-8 4 -12 9.5t-4 11.5q0 17 21.5 29t84.5 12q59 0 98.5 -12t51.5 -44h243q-34 105 -127.5 153.5t-259.5 48.5
q-169 0 -253.5 -56t-84.5 -151q0 -59 31 -95t101 -54q35 -9 81 -15t104 -9q77 -3 116.5 -7.5t52.5 -12.5q7 -4 10.5 -9t3.5 -11q0 -19 -23.5 -31t-85.5 -12q-74 0 -109 13t-48 44h-255q22 -114 123.5 -162t265.5 -48zM449 655h170l-172 237h-150l-173 -237h170l78 118z" />
    <glyph glyph-name="uni015E" unicode="&#x15e;" horiz-adv-x="855" 
d="M453 -338q107 0 164 43.5t57 115.5q0 64 -40.5 95t-121.5 34v31q167 12 243.5 79t76.5 170q0 76 -37.5 121.5t-114.5 68.5q-39 11 -87 18.5t-107 10.5q-69 4 -111 9t-64 11q-21 6 -28.5 15t-7.5 22q0 24 27 39.5t97 15.5q74 0 118.5 -16t55.5 -61h255q-32 138 -135.5 196
t-286.5 58q-180 0 -277 -66t-97 -180q0 -110 78.5 -158t240.5 -59q98 -6 149.5 -12t70.5 -17q9 -5 14 -13.5t5 -19.5q0 -28 -31 -41t-99 -13q-73 0 -123.5 18.5t-63.5 67.5h-267q14 -80 53 -136t113 -88q37 -16 85.5 -26t107.5 -14v-125h91q40 0 55 -9.5t15 -26.5
q0 -20 -17 -32t-52 -12q-34 0 -54 12t-26 36h-171q19 -80 77.5 -121t169.5 -41z" />
    <glyph glyph-name="uni015F" unicode="&#x15f;" horiz-adv-x="769" 
d="M394 -338q107 0 164 43.5t57 115.5q0 64 -40.5 95t-121.5 34v33q157 10 228 67t71 142q0 59 -29.5 95.5t-100.5 55.5q-36 10 -85 16t-111 9q-68 3 -106.5 8t-54.5 13q-8 4 -12 9.5t-4 11.5q0 17 21.5 29t84.5 12q59 0 98.5 -12t51.5 -44h243q-34 105 -127.5 153.5
t-259.5 48.5q-169 0 -253.5 -56t-84.5 -151q0 -59 31 -95t101 -54q35 -9 81 -15t104 -9q77 -3 116.5 -7.5t52.5 -12.5q7 -4 10.5 -9t3.5 -11q0 -19 -23.5 -31t-85.5 -12q-74 0 -109 13t-48 44h-255q19 -98 98 -147t206 -60v-128h91q40 0 55 -9.5t15 -26.5q0 -20 -17 -32
t-52 -12q-34 0 -54 12t-26 36h-171q19 -80 77.5 -121t169.5 -41z" />
    <glyph glyph-name="Scaron" unicode="&#x160;" horiz-adv-x="855" 
d="M6 0zM444 -21q135 0 221 31.5t126 87.5q21 28 31 61t10 71q0 76 -37.5 121.5t-114.5 68.5q-39 11 -87 18.5t-107 10.5q-69 4 -111 9t-64 11q-21 6 -28.5 15t-7.5 22q0 24 27 39.5t97 15.5q74 0 118.5 -16t55.5 -61h255q-32 138 -135.5 196t-286.5 58q-180 0 -277 -66
t-97 -180q0 -110 78.5 -158t240.5 -59q98 -6 149.5 -12t70.5 -17q9 -5 14 -13.5t5 -19.5q0 -28 -31 -41t-99 -13q-73 0 -123.5 18.5t-63.5 67.5h-267q16 -88 62.5 -147.5t136.5 -88.5q46 -15 105.5 -22.5t133.5 -7.5zM488 798l172 242h-168l-79 -119l-76 119h-171l173 -242
h149z" />
    <glyph glyph-name="scaron" unicode="&#x161;" horiz-adv-x="769" 
d="M2 0zM391 -19q127 0 206.5 27t116.5 74q19 24 28.5 51.5t9.5 58.5q0 59 -29.5 95.5t-100.5 55.5q-36 10 -85 16t-111 9q-68 3 -106.5 8t-54.5 13q-8 4 -12 9.5t-4 11.5q0 17 21.5 29t84.5 12q59 0 98.5 -12t51.5 -44h243q-34 105 -127.5 153.5t-259.5 48.5
q-169 0 -253.5 -56t-84.5 -151q0 -59 31 -95t101 -54q35 -9 81 -15t104 -9q77 -3 116.5 -7.5t52.5 -12.5q7 -4 10.5 -9t3.5 -11q0 -19 -23.5 -31t-85.5 -12q-74 0 -109 13t-48 44h-255q22 -114 123.5 -162t265.5 -48zM461 648l172 242h-168l-79 -119l-76 119h-171l173 -242
h149z" />
    <glyph glyph-name="uni0162" unicode="&#x162;" horiz-adv-x="775" 
d="M29 0zM747 507v210h-718v-210h232v-507h246v507h240zM279 -334q89 1 138 22.5t68 60.5q10 20 15 43.5t5 50.5q0 64 -28 87t-97 23q-67 0 -95 -18.5t-28 -64.5q0 -50 24 -64.5t81 -14.5q12 0 23.5 1.5t22.5 3.5q-7 -29 -38.5 -41.5t-90.5 -13.5v-75z" />
    <glyph glyph-name="uni0163" unicode="&#x163;" horiz-adv-x="615" 
d="M12 0zM586 195h-100q-48 0 -72.5 8t-33.5 33q-4 12 -6 30.5t-2 42.5v74h214v197h-214v160h-185q-1 -25 -3.5 -53.5t-10.5 -50.5q-9 -25 -22 -38t-39 -20q-20 -5 -45.5 -7t-54.5 -3v-185h135v-96q0 -103 24 -166t84 -92q30 -15 72 -22t96 -7h163v195zM223 -328
q89 1 138 22.5t68 60.5q10 20 15 43.5t5 50.5q0 64 -28 87t-97 23q-67 0 -95 -18.5t-28 -64.5q0 -50 24 -64.5t81 -14.5q12 0 23.5 1.5t22.5 3.5q-7 -29 -38.5 -41.5t-90.5 -13.5v-75z" />
    <glyph glyph-name="Tcaron" unicode="&#x164;" horiz-adv-x="775" 
d="M29 0zM747 507v210h-718v-210h232v-507h246v507h240zM462 778l172 242h-168l-79 -119l-76 119h-171l173 -242h149z" />
    <glyph glyph-name="tcaron" unicode="&#x165;" horiz-adv-x="615" 
d="M12 0zM586 195h-100q-48 0 -72.5 8t-33.5 33q-4 12 -6 30.5t-2 42.5v74h214v197h-214v160h-185q-1 -25 -3.5 -53.5t-10.5 -50.5q-9 -25 -22 -38t-39 -20q-20 -5 -45.5 -7t-54.5 -3v-185h135v-96q0 -103 24 -166t84 -92q30 -15 72 -22t96 -7h163v195zM477 627h140l121 214
h-191z" />
    <glyph glyph-name="Tbar" unicode="&#x166;" horiz-adv-x="775" 
d="M643 192v178h-136v137h240v210h-718v-210h232v-137h-127v-178h127v-192h246v192h136z" />
    <glyph glyph-name="tbar" unicode="&#x167;" horiz-adv-x="615" 
d="M586 195h-98q-63 0 -88 12t-31 54h161v76h-163v46h219v197h-219v163h-181q-1 -25 -5 -54.5t-12 -49.5q-10 -23 -23 -37t-36 -22q-20 -7 -45 -11t-53 -6v-180h131v-46h-103v-76h104q3 -91 30 -148.5t90 -85.5q31 -13 74 -20t98 -7h150v195z" />
    <glyph glyph-name="Utilde" unicode="&#x168;" horiz-adv-x="890" 
d="M51 0zM445 -20q126 0 214 41t134 129q23 45 34.5 103t11.5 129v335h-250v-333q0 -102 -35.5 -141.5t-106.5 -39.5q-72 0 -109 40t-37 141v333h-250v-335q0 -141 41 -230t128 -130q44 -21 100 -31.5t125 -10.5zM185 769h130q1 29 9.5 42t29.5 13t42 -9t44 -21t50.5 -21
t62.5 -9q87 0 121 50.5t34 151.5h-130q-1 -28 -10 -40t-32 -12q-24 0 -52.5 14.5t-63.5 29.5q-17 7 -37 10.5t-43 3.5q-85 0 -120 -53t-35 -150z" />
    <glyph glyph-name="utilde" unicode="&#x169;" horiz-adv-x="809" 
d="M49 0zM550 0h205v580h-242v-261q0 -68 -28 -102t-85 -34q-64 0 -88.5 31.5t-24.5 98.5v267h-238v-332q0 -124 62.5 -194t186.5 -70q94 0 149.5 41.5t79.5 109.5zM138 629h130q1 29 9.5 42t29.5 13t42 -9t44 -21t50.5 -21t62.5 -9q87 0 121 50.5t34 151.5h-130
q-1 -28 -10 -40t-32 -12q-24 0 -52.5 14.5t-63.5 29.5q-17 7 -37 10.5t-43 3.5q-85 0 -120 -53t-35 -150z" />
    <glyph glyph-name="Umacron" unicode="&#x16a;" horiz-adv-x="890" 
d="M51 0zM445 -20q126 0 214 41t134 129q23 45 34.5 103t11.5 129v335h-250v-333q0 -102 -35.5 -141.5t-106.5 -39.5q-72 0 -109 40t-37 141v333h-250v-335q0 -141 41 -230t128 -130q44 -21 100 -31.5t125 -10.5zM253 775h401v146h-401v-146z" />
    <glyph glyph-name="umacron" unicode="&#x16b;" horiz-adv-x="807" 
d="M49 0zM550 0h205v580h-242v-261q0 -68 -28 -102t-85 -34q-64 0 -88.5 31.5t-24.5 98.5v267h-238v-332q0 -124 62.5 -194t186.5 -70q94 0 149.5 41.5t79.5 109.5zM207 635h401v146h-401v-146z" />
    <glyph glyph-name="Ubreve" unicode="&#x16c;" horiz-adv-x="890" 
d="M51 0zM445 -20q126 0 214 41t134 129q23 45 34.5 103t11.5 129v335h-250v-333q0 -102 -35.5 -141.5t-106.5 -39.5q-72 0 -109 40t-37 141v333h-250v-335q0 -141 41 -230t128 -130q44 -21 100 -31.5t125 -10.5zM449 770q127 0 189 59t62 172h-150q0 -50 -24 -70.5
t-77 -20.5t-76.5 20.5t-23.5 70.5h-148q0 -113 56 -172t192 -59z" />
    <glyph glyph-name="ubreve" unicode="&#x16d;" horiz-adv-x="807" 
d="M49 0zM550 0h205v580h-242v-261q0 -68 -28 -102t-85 -34q-64 0 -88.5 31.5t-24.5 98.5v267h-238v-332q0 -124 62.5 -194t186.5 -70q94 0 149.5 41.5t79.5 109.5zM403 630q127 0 189 59t62 172h-150q0 -50 -24 -70.5t-77 -20.5t-76.5 20.5t-23.5 70.5h-148q0 -113 56 -172
t192 -59z" />
    <glyph glyph-name="Uring" unicode="&#x16e;" horiz-adv-x="890" 
d="M51 0zM445 -20q126 0 214 41t134 129q23 45 34.5 103t11.5 129v335h-250v-333q0 -102 -35.5 -141.5t-106.5 -39.5q-72 0 -109 40t-37 141v333h-250v-335q0 -141 41 -230t128 -130q44 -21 100 -31.5t125 -10.5zM447 768q86 0 135 44.5t49 118.5q0 78 -50 121t-133 43
q-79 0 -130.5 -43t-51.5 -123q0 -77 48 -119t133 -42zM448 886q-25 0 -37 12.5t-12 32.5q0 24 12.5 35.5t36.5 11.5q25 0 37 -11.5t12 -35.5q0 -22 -14.5 -33.5t-34.5 -11.5z" />
    <glyph glyph-name="uring" unicode="&#x16f;" horiz-adv-x="809" 
d="M49 0zM550 0h205v580h-242v-261q0 -68 -28 -102t-85 -34q-64 0 -88.5 31.5t-24.5 98.5v267h-238v-332q0 -124 62.5 -194t186.5 -70q94 0 149.5 41.5t79.5 109.5zM403 630q86 0 135 44.5t49 118.5q0 78 -50 121t-133 43q-79 0 -130.5 -43t-51.5 -123q0 -77 48 -119
t133 -42zM404 748q-25 0 -37 12.5t-12 32.5q0 24 12.5 35.5t36.5 11.5q25 0 37 -11.5t12 -35.5q0 -22 -14.5 -33.5t-34.5 -11.5z" />
    <glyph glyph-name="Uhungarumlaut" unicode="&#x170;" horiz-adv-x="890" 
d="M51 0zM445 -20q126 0 214 41t134 129q23 45 34.5 103t11.5 129v335h-250v-333q0 -102 -35.5 -141.5t-106.5 -39.5q-72 0 -109 40t-37 141v333h-250v-335q0 -141 41 -230t128 -130q44 -21 100 -31.5t125 -10.5zM588 996h-192l-133 -223h133zM839 996h-195l-142 -223h138z
" />
    <glyph glyph-name="uhungarumlaut" unicode="&#x171;" horiz-adv-x="807" 
d="M49 0zM550 0h205v580h-242v-261q0 -68 -28 -102t-85 -34q-64 0 -88.5 31.5t-24.5 98.5v267h-238v-332q0 -124 62.5 -194t186.5 -70q94 0 149.5 41.5t79.5 109.5zM542 856h-192l-133 -223h133zM793 856h-195l-142 -223h138z" />
    <glyph glyph-name="Uogonek" unicode="&#x172;" horiz-adv-x="890" 
d="M537 -273q99 0 161 42.5t87 128.5h-179q-6 -24 -20.5 -35.5t-37.5 -11.5q-22 0 -35.5 10t-13.5 27q0 15 10.5 30t41.5 37q16 11 39.5 26t55.5 34q94 40 143.5 129.5t49.5 237.5v335h-250v-333q0 -102 -35.5 -141.5t-106.5 -39.5q-72 0 -109 40t-37 141v333h-250v-335
q0 -194 78.5 -290t248.5 -109q-25 -28 -33.5 -54.5t-8.5 -53.5q0 -70 51.5 -109t149.5 -39z" />
    <glyph glyph-name="uogonek" unicode="&#x173;" horiz-adv-x="807" 
d="M877 -127h-179q-6 -24 -20.5 -35.5t-37.5 -11.5q-22 0 -35.5 10t-13.5 27q0 15 11.5 31t46.5 40q17 12 44 28.5t62 37.5v580h-242v-261q0 -68 -28 -102t-85 -34q-64 0 -88.5 31.5t-24.5 98.5v267h-238v-332q0 -124 62.5 -194t186.5 -70q94 0 149.5 41.5t79.5 109.5
l20 -117q-49 -30 -75 -58t-35 -55q-4 -14 -6.5 -27.5t-2.5 -27.5q0 -70 51.5 -109t149.5 -39q99 0 161 42.5t87 128.5z" />
    <glyph glyph-name="Wcircumflex" unicode="&#x174;" horiz-adv-x="1285" 
d="M0 0zM789 0h229l281 717h-248l-155 -426l-158 426h-194l-182 -427l-124 427h-252l228 -717h231l187 426zM725 778h170l-172 237h-150l-173 -237h170l78 118z" />
    <glyph glyph-name="wcircumflex" unicode="&#x175;" horiz-adv-x="1108" 
d="M0 0zM679 0h205l235 580h-234l-119 -316l-136 316h-161l-146 -313l-97 313h-239l197 -580h212l149 310zM632 641h170l-172 237h-150l-173 -237h170l78 118z" />
    <glyph glyph-name="Ycircumflex" unicode="&#x176;" horiz-adv-x="790" 
d="M0 0zM506 0v284l312 433h-269l-162 -235l-155 235h-270l297 -432v-285h247zM469 772h170l-172 237h-150l-173 -237h170l78 118z" />
    <glyph glyph-name="ycircumflex" unicode="&#x177;" horiz-adv-x="789" 
d="M0 0zM167 -246q67 0 112.5 8t79.5 32q33 24 65 70.5t72 123.5l312 592h-250l-150 -302l-9 -29l-9 30l-149 301h-259l291 -548l-7 -13q-15 -28 -30 -44.5t-37 -23.5q-11 -3 -25.5 -5t-33.5 -2h-95v-190h122zM473 636h170l-172 237h-150l-173 -237h170l78 118z" />
    <glyph glyph-name="Ydieresis" unicode="&#x178;" horiz-adv-x="790" 
d="M0 0zM506 0v284l312 433h-269l-162 -235l-155 235h-270l297 -432v-285h247zM523 768q58 0 82.5 22t24.5 77q0 58 -25.5 79.5t-81.5 21.5t-80.5 -21.5t-24.5 -79.5q0 -57 22 -78t83 -21zM259 768q58 0 82.5 22t24.5 77q0 58 -25.5 79.5t-81.5 21.5q-55 0 -80.5 -21.5
t-25.5 -79.5q0 -57 22.5 -78t83.5 -21z" />
    <glyph glyph-name="Zacute" unicode="&#x179;" horiz-adv-x="824" 
d="M34 0zM789 0v205h-401l400 332v180h-730v-200h403l-427 -353v-164h755zM345 778h167l223 223h-226z" />
    <glyph glyph-name="zacute" unicode="&#x17a;" horiz-adv-x="743" 
d="M23 0zM23 -1l696 1l1 175h-362l359 240v165h-675v-170h358l-377 -253v-158zM294 641h167l223 223h-226z" />
    <glyph glyph-name="Zdotaccent" unicode="&#x17b;" horiz-adv-x="824" 
d="M34 0zM789 0v205h-401l400 332v180h-730v-200h403l-427 -353v-164h755zM432 773q66 0 94.5 24t28.5 90q0 67 -29 90t-94 23t-94 -23t-29 -90q0 -45 11 -70t38 -34q13 -5 31.5 -7.5t42.5 -2.5z" />
    <glyph glyph-name="zdotaccent" unicode="&#x17c;" horiz-adv-x="743" 
d="M23 0zM23 -1l696 1l1 175h-362l359 240v165h-675v-170h358l-377 -253v-158zM381 636q66 0 94.5 24t28.5 90q0 67 -29 90t-94 23t-94 -23t-29 -90q0 -45 11 -70t38 -34q13 -5 31.5 -7.5t42.5 -2.5z" />
    <glyph glyph-name="Zcaron" unicode="&#x17d;" horiz-adv-x="824" 
d="M34 0zM789 0v205h-401l400 332v180h-730v-200h403l-427 -353v-164h755zM506 778l172 242h-168l-79 -119l-76 119h-171l173 -242h149z" />
    <glyph glyph-name="zcaron" unicode="&#x17e;" horiz-adv-x="743" 
d="M23 0zM23 -1l696 1l1 175h-362l359 240v165h-675v-170h358l-377 -253v-158zM455 641l172 242h-168l-79 -119l-76 119h-171l173 -242h149z" />
    <glyph glyph-name="uni0192" unicode="&#x192;" horiz-adv-x="539" 
d="M377 54l1 189h152v199h-151v98q0 44 6.5 66t24.5 30q9 4 23 6t32 2h67v187h-102q-145 0 -211.5 -60t-66.5 -196v-133h-146v-199h145v-162q0 -47 -7 -69.5t-27 -28.5q-10 -4 -24.5 -5.5t-33.5 -1.5h-67v-189h97q110 0 173 24t89 83q13 29 19.5 69t6.5 91z" />
    <glyph glyph-name="Aringacute" unicode="&#x1fa;" horiz-adv-x="889" 
d="M368 978h167l223 223h-226zM449 722q-25 0 -37 12.5t-12 32.5q0 24 12.5 35.5t36.5 11.5q25 0 37 -11.5t12 -35.5q0 -22 -14.5 -33.5t-34.5 -11.5zM532 293h-175l87 209zM287 123h316l52 -123h251l-302 671q14 20 21 44t7 52q0 78 -50 121t-133 43q-79 0 -130.5 -43
t-51.5 -123q0 -26 6 -48.5t17 -40.5l-307 -676h253z" />
    <glyph glyph-name="aringacute" unicode="&#x1fb;" horiz-adv-x="825" 
d="M24 0zM351 130q-40 0 -57.5 10.5t-17.5 29.5v1q0 12 6.5 21t18.5 16q14 8 42.5 13.5t83.5 10.5q47 6 76.5 14.5t41.5 20.5v-6q0 -34 -26.5 -64t-70.5 -48q-22 -10 -46.5 -14.5t-50.5 -4.5zM572 0h204v343q0 140 -87.5 196.5t-266.5 56.5q-171 0 -269.5 -55.5
t-111.5 -171.5h246q3 33 35 51t111 18q65 0 88 -15t23 -35q0 -14 -13 -22.5t-50 -13.5q-18 -3 -44 -5.5t-61 -5.5q-73 -5 -120.5 -11.5t-79.5 -15.5q-16 -4 -31 -9.5t-29 -12.5q-47 -22 -69.5 -59.5t-22.5 -88.5v-1q0 -81 58.5 -121.5t174.5 -40.5q114 0 187 38t106 98z
M353 1012h167l223 223h-226zM423 637q86 0 135 44.5t49 118.5q0 78 -50 121t-133 43q-79 0 -130.5 -43t-51.5 -123q0 -77 48 -119t133 -42zM424 755q-25 0 -37 12.5t-12 32.5q0 24 12.5 35.5t36.5 11.5q25 0 37 -11.5t12 -35.5q0 -22 -14.5 -33.5t-34.5 -11.5z" />
    <glyph glyph-name="AEacute" unicode="&#x1fc;" horiz-adv-x="1294" 
d="M0 0zM548 512l45 -202h-172zM661 0h603v194h-419l-24 97h378v143h-413l-24 96h485v187h-811l-469 -717h259l86 137h319zM499 778h167l223 223h-226z" />
    <glyph glyph-name="aeacute" unicode="&#x1fd;" horiz-adv-x="1376" 
d="M25 0zM935 430q66 0 102 -18.5t46 -62.5h-308q14 39 52.5 60t107.5 21zM352 130q-40 0 -57.5 10.5t-17.5 29.5v1q0 12 6.5 21t18.5 16q14 8 42.5 13.5t83.5 10.5q47 6 76.5 14.5t41.5 20.5v-6q0 -34 -26.5 -64t-70.5 -48q-22 -10 -46.5 -14.5t-50.5 -4.5zM1317 186h-259
q-15 -21 -42 -30.5t-81 -9.5q-76 0 -114 21.5t-49 63.5h550v57q0 91 -41.5 160.5t-126.5 108.5q-42 20 -96 30t-120 10q-81 0 -144 -15.5t-110 -43.5q-43 30 -108 44t-153 14q-171 0 -269.5 -55.5t-111.5 -171.5h246q3 33 35 51t111 18q65 0 88 -15t23 -35q0 -14 -13 -22.5
t-50 -13.5q-18 -3 -44 -5.5t-61 -5.5q-73 -5 -120.5 -11.5t-79.5 -15.5q-16 -4 -31 -9.5t-29 -12.5q-47 -22 -69.5 -59.5t-22.5 -88.5v-1q0 -81 59 -121.5t177 -40.5t199.5 36.5t121.5 97.5q38 -61 118.5 -97.5t219.5 -36.5q163 0 261.5 46.5t135.5 158.5zM591 632h167
l223 223h-226z" />
    <glyph glyph-name="Oslashacute" unicode="&#x1fe;" horiz-adv-x="928" 
d="M32 0zM463 192q-85 0 -133.5 40.5t-48.5 121.5v1q0 85 49 126.5t134 41.5q84 0 133.5 -40.5t49.5 -128.5q0 -86 -49.5 -124t-134.5 -38zM464 -20q130 0 227 40.5t151 123.5q27 42 40.5 94t13.5 115v4q0 95 -35.5 168.5t-99.5 121.5l86 167h-237l-43 -87q-24 4 -49.5 6
t-51.5 2q-128 0 -226 -45t-153 -130q-27 -42 -41 -93t-14 -111v-2q0 -105 35.5 -179t101.5 -120l-88 -168h244l49 98q22 -2 44.5 -3.5t45.5 -1.5zM338 807h167l223 223h-226z" />
    <glyph glyph-name="oslashacute" unicode="&#x1ff;" horiz-adv-x="845" 
d="M30 0zM423 169q-75 0 -112.5 29.5t-37.5 88.5q0 62 39 92.5t112 30.5q75 0 112 -30.5t37 -92.5q0 -59 -36 -88.5t-114 -29.5zM420 -19q132 0 220 38t131 106q22 35 33 75t11 86q0 78 -32 140t-91 102l88 135h-209l-48 -73q-23 4 -48 5.5t-51 1.5q-122 0 -210.5 -39
t-135.5 -109q-24 -35 -36 -76t-12 -88q0 -82 30 -145t95 -102l-84 -128h210l49 76q20 -2 43 -3.5t47 -1.5zM315 658h167l223 223h-226z" />
    <glyph glyph-name="uni0218" unicode="&#x218;" horiz-adv-x="855" 
d="M6 0zM444 -21q135 0 221 31.5t126 87.5q21 28 31 61t10 71q0 76 -37.5 121.5t-114.5 68.5q-39 11 -87 18.5t-107 10.5q-69 4 -111 9t-64 11q-21 6 -28.5 15t-7.5 22q0 24 27 39.5t97 15.5q74 0 118.5 -16t55.5 -61h255q-32 138 -135.5 196t-286.5 58q-180 0 -277 -66
t-97 -180q0 -110 78.5 -158t240.5 -59q98 -6 149.5 -12t70.5 -17q9 -5 14 -13.5t5 -19.5q0 -28 -31 -41t-99 -13q-73 0 -123.5 18.5t-63.5 67.5h-267q16 -88 62.5 -147.5t136.5 -88.5q46 -15 105.5 -22.5t133.5 -7.5zM352 -353q89 1 138 22.5t68 60.5q10 20 15 43.5t5 50.5
q0 64 -28 87t-97 23q-67 0 -95 -18.5t-28 -64.5q0 -50 24 -64.5t81 -14.5q12 0 23.5 1.5t22.5 3.5q-7 -29 -38.5 -41.5t-90.5 -13.5v-75z" />
    <glyph glyph-name="uni0219" unicode="&#x219;" horiz-adv-x="769" 
d="M2 0zM391 -19q127 0 206.5 27t116.5 74q19 24 28.5 51.5t9.5 58.5q0 59 -29.5 95.5t-100.5 55.5q-36 10 -85 16t-111 9q-68 3 -106.5 8t-54.5 13q-8 4 -12 9.5t-4 11.5q0 17 21.5 29t84.5 12q59 0 98.5 -12t51.5 -44h243q-34 105 -127.5 153.5t-259.5 48.5
q-169 0 -253.5 -56t-84.5 -151q0 -59 31 -95t101 -54q35 -9 81 -15t104 -9q77 -3 116.5 -7.5t52.5 -12.5q7 -4 10.5 -9t3.5 -11q0 -19 -23.5 -31t-85.5 -12q-74 0 -109 13t-48 44h-255q22 -114 123.5 -162t265.5 -48zM303 -353q89 1 138 22.5t68 60.5q10 20 15 43.5t5 50.5
q0 64 -28 87t-97 23q-67 0 -95 -18.5t-28 -64.5q0 -50 24 -64.5t81 -14.5q12 0 23.5 1.5t22.5 3.5q-7 -29 -38.5 -41.5t-90.5 -13.5v-75z" />
    <glyph glyph-name="uni0237" unicode="&#x237;" horiz-adv-x="352" 
d="M-87 -281h115q86 0 139 10.5t82 37.5q28 27 38.5 76t10.5 126v611h-243v-565q0 -47 -6.5 -69t-25.5 -29q-10 -4 -25 -5.5t-34 -1.5h-51v-191z" />
    <glyph glyph-name="uni0245" unicode="&#x245;" horiz-adv-x="889" 
d="M655 0h251l-323 717h-275l-325 -717h254l207 501z" />
    <glyph glyph-name="circumflex" unicode="&#x2c6;" horiz-adv-x="672" 
d="M414 671h170l-172 237h-150l-173 -237h170l78 118z" />
    <glyph glyph-name="caron" unicode="&#x2c7;" horiz-adv-x="672" 
d="M410 671l172 242h-168l-79 -119l-76 119h-171l173 -242h149z" />
    <glyph glyph-name="breve" unicode="&#x2d8;" horiz-adv-x="672" 
d="M333 668q127 0 189 59t62 172h-150q0 -50 -24 -70.5t-77 -20.5t-76.5 20.5t-23.5 70.5h-148q0 -113 56 -172t192 -59z" />
    <glyph glyph-name="dotaccent" unicode="&#x2d9;" horiz-adv-x="674" 
d="M329 666q66 0 94.5 24t28.5 90q0 67 -29 90t-94 23t-94 -23t-29 -90q0 -45 11 -70t38 -34q13 -5 31.5 -7.5t42.5 -2.5z" />
    <glyph glyph-name="ring" unicode="&#x2da;" horiz-adv-x="672" 
d="M334 663q86 0 135 44.5t49 118.5q0 78 -50 121t-133 43q-79 0 -130.5 -43t-51.5 -123q0 -77 48 -119t133 -42zM335 781q-25 0 -37 12.5t-12 32.5q0 24 12.5 35.5t36.5 11.5q25 0 37 -11.5t12 -35.5q0 -22 -14.5 -33.5t-34.5 -11.5z" />
    <glyph glyph-name="ogonek" unicode="&#x2db;" horiz-adv-x="672" 
d="M328 -298q99 0 161 42.5t87 128.5h-179q-6 -24 -20.5 -35.5t-37.5 -11.5q-22 0 -35.5 10t-13.5 27q0 15 11.5 31t46.5 40q17 12 44 28.5t62 37.5l-134 57q-81 -38 -122.5 -73t-56.5 -68q-7 -16 -10.5 -32.5t-3.5 -33.5q0 -70 51.5 -109t149.5 -39z" />
    <glyph glyph-name="tilde" unicode="&#x2dc;" horiz-adv-x="672" 
d="M73 667h130q1 29 9.5 42t29.5 13t42 -9t44 -21t50.5 -21t62.5 -9q87 0 121 50.5t34 151.5h-130q-1 -28 -10 -40t-32 -12q-24 0 -52.5 14.5t-63.5 29.5q-17 7 -37 10.5t-43 3.5q-85 0 -120 -53t-35 -150z" />
    <glyph glyph-name="hungarumlaut" unicode="&#x2dd;" horiz-adv-x="672" 
d="M385 894h-192l-133 -223h133zM636 894h-195l-142 -223h138z" />
    <glyph glyph-name="uni03BC" unicode="&#x3bc;" horiz-adv-x="812" 
d="M381 -15q55 0 92.5 29t58.5 87l18 -101h207v580h-241v-223q0 -74 -26.5 -121.5t-92.5 -47.5t-90.5 42.5t-24.5 109.5v240h-238v-791h234v234q17 -19 43 -28.5t60 -9.5z" />
    <glyph glyph-name="pi" unicode="&#x3c0;" horiz-adv-x="964" 
d="M564 262q0 -78 13.5 -129t45.5 -80q31 -29 86 -41t137 -12h88v203h-44q-38 0 -60 7t-30 29q-5 11 -7 28t-2 40v193h149v217h-916v-217h144v-500h228v500h168v-238z" />
    <glyph glyph-name="uni0E3F" unicode="&#xe3f;" horiz-adv-x="931" 
d="M300 431v112h107v-112h-107zM645 488v-2q0 -31 -28.5 -42.5t-81.5 -12.5v112q59 0 84.5 -11.5t25.5 -43.5zM300 182v119h107v-119h-107zM656 243v-2q0 -29 -23.5 -43t-97.5 -16v119q71 -1 96 -13.5t25 -44.5zM548 0q176 0 270.5 47t94.5 161v2q0 74 -40.5 110.5
t-128.5 50.5q73 14 111 49t38 102v3q0 104 -84 148t-271 44h-3v119h-128v-119h-346v-717h346v-117h128v117h13z" />
    <glyph glyph-name="Wgrave" unicode="&#x1e80;" horiz-adv-x="1285" 
d="M0 0zM789 0h229l281 717h-248l-155 -426l-158 426h-194l-182 -427l-124 427h-252l228 -717h231l187 426zM572 778h160l-155 223h-227z" />
    <glyph glyph-name="wgrave" unicode="&#x1e81;" horiz-adv-x="1108" 
d="M0 0zM679 0h205l235 580h-234l-119 -316l-136 316h-161l-146 -313l-97 313h-239l197 -580h212l149 310zM479 641h160l-155 223h-227z" />
    <glyph glyph-name="Wacute" unicode="&#x1e82;" horiz-adv-x="1285" 
d="M0 0zM789 0h229l281 717h-248l-155 -426l-158 426h-194l-182 -427l-124 427h-252l228 -717h231l187 426zM560 778h167l223 223h-226z" />
    <glyph glyph-name="wacute" unicode="&#x1e83;" horiz-adv-x="1108" 
d="M0 0zM679 0h205l235 580h-234l-119 -316l-136 316h-161l-146 -313l-97 313h-239l197 -580h212l149 310zM467 641h167l223 223h-226z" />
    <glyph glyph-name="Wdieresis" unicode="&#x1e84;" horiz-adv-x="1285" 
d="M0 0zM789 0h229l281 717h-248l-155 -426l-158 426h-194l-182 -427l-124 427h-252l228 -717h231l187 426zM779 775q58 0 82.5 22t24.5 77q0 58 -25.5 79.5t-81.5 21.5t-80.5 -21.5t-24.5 -79.5q0 -57 22 -78t83 -21zM515 775q58 0 82.5 22t24.5 77q0 58 -25.5 79.5
t-81.5 21.5q-55 0 -80.5 -21.5t-25.5 -79.5q0 -57 22.5 -78t83.5 -21z" />
    <glyph glyph-name="wdieresis" unicode="&#x1e85;" horiz-adv-x="1108" 
d="M0 0zM679 0h205l235 580h-234l-119 -316l-136 316h-161l-146 -313l-97 313h-239l197 -580h212l149 310zM686 637q58 0 82.5 22t24.5 77q0 58 -25.5 79.5t-81.5 21.5t-80.5 -21.5t-24.5 -79.5q0 -57 22 -78t83 -21zM422 637q58 0 82.5 22t24.5 77q0 58 -25.5 79.5
t-81.5 21.5q-55 0 -80.5 -21.5t-25.5 -79.5q0 -57 22.5 -78t83.5 -21z" />
    <glyph glyph-name="Ygrave" unicode="&#x1ef2;" horiz-adv-x="790" 
d="M0 0zM506 0v284l312 433h-269l-162 -235l-155 235h-270l297 -432v-285h247zM327 764h160l-155 223h-227z" />
    <glyph glyph-name="ygrave" unicode="&#x1ef3;" horiz-adv-x="789" 
d="M0 0zM167 -246q67 0 112.5 8t79.5 32q33 24 65 70.5t72 123.5l312 592h-250l-150 -302l-9 -29l-9 30l-149 301h-259l291 -548l-7 -13q-15 -28 -30 -44.5t-37 -23.5q-11 -3 -25.5 -5t-33.5 -2h-95v-190h122zM319 636h160l-155 223h-227z" />
    <glyph glyph-name="figuredash" unicode="&#x2012;" horiz-adv-x="765" 
d="M720 421h-674v-226h674v226z" />
    <glyph glyph-name="endash" unicode="&#x2013;" horiz-adv-x="610" 
d="M565 421h-519v-226h519v226z" />
    <glyph glyph-name="emdash" unicode="&#x2014;" horiz-adv-x="880" 
d="M835 421h-789v-226h789v226z" />
    <glyph glyph-name="uni2015" unicode="&#x2015;" horiz-adv-x="1340" 
d="M1295 421h-1249v-226h1249v226z" />
    <glyph glyph-name="uni2016" unicode="&#x2016;" horiz-adv-x="722" 
d="M649 -53v836h-220v-836h220zM294 -53v836h-220v-836h220z" />
    <glyph glyph-name="underscoredbl" unicode="&#x2017;" horiz-adv-x="834" 
d="M817 180h-800v-180h800v180zM817 -65h-800v-180h800v180z" />
    <glyph glyph-name="quoteleft" unicode="&#x2018;" horiz-adv-x="350" 
d="M178 352q62 0 88.5 21.5t26.5 79.5q0 41 -9.5 61.5t-30.5 27.5q-11 4 -25.5 5.5t-33.5 1.5q-5 0 -10 -0.5t-10 -0.5q5 40 28.5 57.5t69.5 24.5l-9 89q-101 -7 -150.5 -65.5t-49.5 -162.5q0 -78 25.5 -108.5t89.5 -30.5z" />
    <glyph glyph-name="quoteright" unicode="&#x2019;" horiz-adv-x="350" 
d="M90 354q102 8 151 67t49 162q0 78 -25 108.5t-90 30.5q-61 0 -87.5 -22t-26.5 -80q0 -41 9 -61.5t31 -27.5q11 -4 25.5 -5.5t33.5 -1.5q5 0 10.5 0.5t9.5 0.5q-6 -40 -29 -57.5t-70 -24.5z" />
    <glyph glyph-name="quotesinglbase" unicode="&#x201a;" horiz-adv-x="367" 
d="M99 -172q101 7 150.5 65.5t49.5 162.5q0 78 -25 108.5t-90 30.5q-61 0 -88 -21.5t-27 -79.5q0 -41 9.5 -62t30.5 -28q11 -3 26 -5t33 -2h7t7 1q-6 -39 -29 -59.5t-63 -22.5z" />
    <glyph glyph-name="uni201B" unicode="&#x201b;" horiz-adv-x="350" 
d="M269 442q-40 3 -62.5 23t-29.5 60q4 -1 7 -1h7q37 0 58.5 7t31.5 27q4 11 6.5 26.5t2.5 35.5q0 58 -26.5 80t-88.5 22q-64 0 -89 -33.5t-25 -104.5q0 -103 49 -162.5t150 -67.5z" />
    <glyph glyph-name="quotedblleft" unicode="&#x201c;" horiz-adv-x="650" 
d="M478 352q62 0 88 21.5t26 79.5q0 41 -9 62t-31 28q-10 3 -24.5 5t-33.5 2q-5 0 -10 -0.5t-10 -0.5q5 39 28 57t70 25l-9 88q-101 -7 -150.5 -65.5t-49.5 -162.5q0 -78 25.5 -108.5t89.5 -30.5zM178 352q62 0 88.5 21.5t26.5 79.5q0 41 -9.5 62t-30.5 28q-11 3 -25.5 5
t-33.5 2q-5 0 -10 -0.5t-10 -0.5q5 39 28.5 57t69.5 25l-9 88q-101 -7 -150.5 -65.5t-49.5 -162.5q0 -78 25.5 -108.5t89.5 -30.5z" />
    <glyph glyph-name="quotedblright" unicode="&#x201d;" horiz-adv-x="650" 
d="M89 354q101 8 150.5 67t49.5 162q0 78 -25 108.5t-90 30.5q-61 0 -88 -22t-27 -80q0 -41 9.5 -61.5t30.5 -27.5q11 -4 26 -5.5t33 -1.5q5 0 10.5 0.5t9.5 0.5q-5 -40 -28 -57.5t-70 -24.5zM388 354q102 8 151.5 67t49.5 162q0 78 -25 108.5t-90 30.5q-62 0 -88.5 -22
t-26.5 -80q0 -41 9 -61.5t31 -27.5q11 -4 25.5 -5.5t33.5 -1.5q5 0 10.5 0.5t9.5 0.5q-5 -40 -28.5 -57.5t-70.5 -24.5z" />
    <glyph glyph-name="quotedblbase" unicode="&#x201e;" horiz-adv-x="650" 
d="M87 -172q101 7 150.5 65.5t49.5 162.5q0 78 -25 108.5t-90 30.5q-61 0 -88 -21.5t-27 -79.5q0 -41 9.5 -62t30.5 -28q11 -3 26 -5t33 -2q5 0 10.5 0.5t9.5 0.5q-5 -39 -28 -57t-70 -25zM386 -172q102 7 151.5 65.5t49.5 162.5q0 78 -25 108.5t-90 30.5q-62 0 -88.5 -21.5
t-26.5 -79.5q0 -41 9 -62t31 -28q11 -3 25.5 -5t33.5 -2q5 0 10.5 0.5t9.5 0.5q-5 -39 -28.5 -57t-70.5 -25z" />
    <glyph glyph-name="uni201F" unicode="&#x201f;" horiz-adv-x="660" 
d="M576 442q-42 3 -63.5 23t-26.5 60q3 -1 6 -1h6q38 0 59.5 7t31.5 27q4 11 6.5 26.5t2.5 35.5q0 58 -26.5 80t-89.5 22q-64 0 -88.5 -33.5t-24.5 -104.5q0 -103 47.5 -162.5t150.5 -67.5zM266 442q-42 3 -63.5 23t-26.5 60q3 -1 6 -1h6q38 0 59.5 7t31.5 27q4 11 6.5 26.5
t2.5 35.5q0 58 -26.5 80t-88.5 22q-64 0 -89 -33.5t-25 -104.5q0 -103 47.5 -162.5t150.5 -67.5z" />
    <glyph glyph-name="dagger" unicode="&#x2020;" horiz-adv-x="766" 
d="M717 427v225h-217v197h-235v-197h-216v-225h216v-541h235v541h217z" />
    <glyph glyph-name="daggerdbl" unicode="&#x2021;" horiz-adv-x="766" 
d="M717 55v219h-218v175h218v217h-218v183h-235v-183h-215v-217h215v-175h-215v-219h215v-169h235v169h218z" />
    <glyph glyph-name="bullet" unicode="&#x2022;" horiz-adv-x="477" 
d="M238 138q78 0 114.5 32.5t36.5 114.5q0 84 -36.5 115.5t-114.5 31.5q-76 0 -113 -33.5t-37 -113.5q0 -82 34 -114.5t116 -32.5z" />
    <glyph glyph-name="ellipsis" unicode="&#x2026;" horiz-adv-x="1041" 
d="M859 -13q48 0 74.5 10t37.5 36q6 13 8.5 32t2.5 44q0 51 -12 77.5t-39 35.5q-13 5 -31 7.5t-41 2.5q-46 0 -74 -9.5t-40 -36.5q-7 -13 -10 -32.5t-3 -44.5q0 -51 12 -77t40 -36q14 -4 32.5 -6.5t42.5 -2.5zM524 -13q48 0 75.5 10t38.5 36q6 13 9 32t3 44q0 51 -12.5 77.5
t-40.5 35.5q-14 5 -32 7.5t-41 2.5q-45 0 -73 -9.5t-40 -36.5q-7 -13 -10 -32.5t-3 -44.5q0 -51 11.5 -77t39.5 -36q14 -4 32.5 -6.5t42.5 -2.5zM185 -13q48 0 74.5 10t37.5 36q6 13 8.5 32t2.5 44q0 51 -12 77.5t-39 35.5q-13 5 -31 7.5t-41 2.5q-45 0 -73 -9.5t-40 -36.5
q-7 -13 -10 -32.5t-3 -44.5q0 -51 11.5 -77t39.5 -36q14 -4 32.5 -6.5t42.5 -2.5z" />
    <glyph glyph-name="perthousand" unicode="&#x2030;" horiz-adv-x="1432" 
d="M214 388q101 0 155 46t54 122q0 75 -54 122.5t-151 47.5q-100 0 -155 -48t-55 -122q0 -78 49.5 -123t156.5 -45zM-16 0h286l715 717h-273zM214 503q-29 0 -43.5 13.5t-14.5 39.5q0 27 15 40t44 13q28 0 43.5 -13.5t15.5 -39.5t-16 -39.5t-44 -13.5zM1212 -8q101 0 155 46
t54 122t-54 123.5t-151 47.5q-100 0 -155 -48.5t-55 -122.5q0 -77 49.5 -122.5t156.5 -45.5zM757 -8q101 0 155 46t54 122t-54 123.5t-151 47.5q-100 0 -155 -48.5t-55 -122.5q0 -77 49.5 -122.5t156.5 -45.5zM1212 108q-29 0 -43.5 13t-14.5 39q0 27 15 40t44 13
q28 0 43.5 -13.5t15.5 -39.5q0 -25 -16 -38.5t-44 -13.5zM757 108q-29 0 -43.5 13t-14.5 39q0 27 15 40t44 13q28 0 43.5 -13.5t15.5 -39.5q0 -25 -16 -38.5t-44 -13.5z" />
    <glyph glyph-name="uni2032" unicode="&#x2032;" horiz-adv-x="246" 
d="M155 469l88 248h-196l-32 -248h140z" />
    <glyph glyph-name="uni2033" unicode="&#x2033;" horiz-adv-x="485" 
d="M398 469l83 248h-196l-28 -248h141zM156 469l88 248h-196l-33 -248h141z" />
    <glyph glyph-name="uni2034" unicode="&#x2034;" horiz-adv-x="864" 
d="M613 717v-18q0 -60 5 -117t13 -97q3 -20 6.5 -32t6.5 -16h151q5 8 12.5 48t12.5 97q3 28 4.5 57.5t1.5 59.5v18h-213zM327 717v-18q0 -60 5 -117t12 -97q4 -20 7 -32t6 -16h152q5 8 12.5 48t12.5 97q3 28 4.5 57.5t1.5 59.5v18h-213zM40 717v-18q0 -60 5 -117t13 -97
q3 -20 6.5 -32t6.5 -16h151q5 8 12.5 48t12.5 97q3 28 4.5 57.5t1.5 59.5v18h-213z" />
    <glyph glyph-name="guilsinglleft" unicode="&#x2039;" horiz-adv-x="499" 
d="M472 79l-200 234l180 226h-213l-175 -223v-25l185 -212h223z" />
    <glyph glyph-name="guilsinglright" unicode="&#x203a;" horiz-adv-x="499" 
d="M251 79l184 212v25l-175 223h-212l179 -226l-200 -234h224z" />
    <glyph glyph-name="exclamdbl" unicode="&#x203c;" horiz-adv-x="786" 
d="M453 717v-76q0 -97 8.5 -172t20.5 -124q6 -24 11 -40.5t10 -25.5q11 2 33.5 3.5t48.5 1.5t46 -1.5t35 -3.5q9 17 20.5 66t20.5 125q5 37 7 80t2 91v76h-263zM74 717v-76q0 -97 8.5 -172t20.5 -124q5 -24 10.5 -40.5t9.5 -25.5q13 3 34 4t49 1q26 0 46 -1.5t34 -3.5
q9 17 21 66t21 125q5 37 7 80t2 91v76h-263zM581 -16q77 0 109 26t32 93q0 68 -33.5 93.5t-107.5 25.5t-108 -25.5t-34 -93.5q0 -45 13 -71t44 -37q15 -6 36.5 -8.5t48.5 -2.5zM202 -16q76 0 108.5 26t32.5 93q0 68 -33.5 93.5t-107.5 25.5q-75 0 -108.5 -25.5t-33.5 -93.5
q0 -45 12.5 -71t43.5 -37q16 -6 37.5 -8.5t48.5 -2.5z" />
    <glyph glyph-name="uni203D" unicode="&#x203d;" horiz-adv-x="831" 
d="M489 243l6 30q5 28 28.5 43.5t57.5 25.5q33 10 69.5 21t68.5 28q32 18 52 49t20 82q0 105 -94 157.5t-283 52.5q-199 0 -289 -71.5t-93 -212.5h216q0 44 19 70.5t60 36.5q0 -101 2 -156.5t3 -87.5q2 -20 3.5 -37t5.5 -31q12 2 31 3t45 1q25 0 41.5 -1t30.5 -3zM577 496
q0 -21 -12.5 -30.5t-32.5 -17.5q-11 -4 -22 -10t-23 -15q2 32 4 68t2 69q44 -6 64 -21t20 -43zM416 -15q83 0 117.5 24.5t34.5 86.5t-36 86t-116 24q-81 0 -116 -24t-35 -86q0 -42 13 -66.5t46 -34.5q17 -5 40 -7.5t52 -2.5z" />
    <glyph glyph-name="fraction" unicode="&#x2044;" horiz-adv-x="1145" 
d="M678 397l386 223l-182 157l-257 -332zM518 356l-396 -239l184 -166l262 358z" />
    <glyph glyph-name="uni2070" unicode="&#x2070;" horiz-adv-x="445" 
d="M15 349zM219 349q97 0 151 49.5t54 138.5q0 85 -54.5 137t-146.5 52q-63 0 -110 -24t-72 -67q-13 -21 -19.5 -45.5t-6.5 -52.5q0 -90 52 -139t152 -49zM218 478q-28 0 -42 15.5t-14 43.5q0 26 14.5 42t42.5 16q29 0 43 -16t14 -42q0 -28 -15 -43.5t-43 -15.5z" />
    <glyph glyph-name="uni2074" unicode="&#x2074;" horiz-adv-x="426" 
d="M8 359zM229 521h-78l78 73v-73zM417 417v104h-63v196h-117l-229 -209v-91h221v-58h125v58h63z" />
    <glyph glyph-name="uni2075" unicode="&#x2075;" horiz-adv-x="427" 
d="M16 351zM215 351q104 0 149 35.5t45 93.5q0 56 -31.5 83.5t-99.5 27.5q-36 0 -63.5 -9t-47.5 -24l9 52h94q46 0 71.5 8.5t35.5 31.5q5 12 8 28.5t3 38.5h-329l-32 -210l139 -24l3 3q8 9 20.5 15t32.5 6q21 0 31.5 -7.5t10.5 -23.5q0 -12 -10.5 -20t-34.5 -8q-19 0 -29 6
t-12 16h-162q7 -60 53.5 -89.5t145.5 -29.5z" />
    <glyph glyph-name="uni2076" unicode="&#x2076;" horiz-adv-x="444" 
d="M20 349zM420 480q0 54 -32 78.5t-100 24.5q-40 0 -75 -12.5t-58 -37.5v9q0 33 17.5 54.5t51.5 21.5q20 0 30 -4.5t15 -14.5h149q-13 66 -62 96.5t-131 30.5q-98 0 -151.5 -52.5t-53.5 -140.5q0 -55 19.5 -96.5t65.5 -64.5q23 -11 54.5 -17t70.5 -6q88 0 139 34.5t51 96.5
zM231 462q-20 0 -35 5t-24 15q13 12 29.5 20.5t40.5 8.5q23 0 31.5 -6t8.5 -17q0 -13 -11.5 -19.5t-39.5 -6.5z" />
    <glyph glyph-name="uni2077" unicode="&#x2077;" horiz-adv-x="374" 
d="M7 359zM198 359q25 66 65 129.5t102 123.5v105h-358v-120h201q-48 -43 -95 -107t-77 -131h162z" />
    <glyph glyph-name="uni2078" unicode="&#x2078;" horiz-adv-x="437" 
d="M13 351zM214 351q104 0 154.5 26.5t50.5 82.5q0 30 -19 50.5t-51 30.5q29 10 45 28.5t16 46.5q0 53 -49.5 81t-142.5 28q-94 0 -141.5 -27.5t-47.5 -82.5q0 -27 14 -45.5t41 -28.5q-33 -10 -52 -31t-19 -52q0 -55 47.5 -81t153.5 -26zM213 572q-26 0 -39 5.5t-13 16.5
q0 12 14.5 17.5t42.5 5.5q32 0 46 -5.5t14 -17.5q0 -11 -13.5 -16.5t-41.5 -5.5h-10zM217 459q-35 0 -49.5 5.5t-14.5 18.5q0 12 15 17.5t44 5.5h11q32 0 45.5 -5t13.5 -18t-15 -18.5t-50 -5.5z" />
    <glyph glyph-name="uni2079" unicode="&#x2079;" horiz-adv-x="434" 
d="M8 348zM199 561q-23 0 -35 6.5t-12 18.5q0 14 12.5 22t40.5 8q26 0 42 -7t23 -21q-12 -11 -28 -19t-43 -8zM206 348q104 0 155.5 49.5t51.5 137.5q0 87 -49 138t-156 51q-96 0 -146 -36.5t-50 -98.5q0 -54 39 -77.5t105 -23.5q40 0 71.5 10.5t52.5 32.5q0 -34 -16 -55
t-57 -21q-18 0 -29 4.5t-15 12.5h-155q13 -67 65 -95.5t133 -28.5z" />
    <glyph glyph-name="uni207A" unicode="&#x207a;" horiz-adv-x="413" 
d="M41 377zM364 475v119h-102v97h-120v-97h-101v-119h101v-98h120v98h102z" />
    <glyph glyph-name="uni207B" unicode="&#x207b;" horiz-adv-x="413" 
d="M41 471zM364 471v128h-323v-128h323z" />
    <glyph glyph-name="uni207C" unicode="&#x207c;" horiz-adv-x="414" 
d="M52 400zM354 564v110h-302v-110h302zM354 400v110h-302v-110h302z" />
    <glyph glyph-name="uni207D" unicode="&#x207d;" horiz-adv-x="329" 
d="M30 214zM301 214v155q-40 5 -67 19.5t-41 47.5q-7 16 -10.5 39t-3.5 52q0 89 31 125.5t91 45.5v143q-82 -7 -143 -39t-94 -99q-17 -33 -25.5 -77.5t-8.5 -99.5q0 -110 32 -176t92 -98q31 -16 67.5 -25.5t79.5 -12.5z" />
    <glyph glyph-name="uni207E" unicode="&#x207e;" horiz-adv-x="329" 
d="M22 214zM22 214q86 6 146.5 38t92.5 98q16 33 24 77t8 99q0 111 -33.5 177.5t-94.5 98.5q-31 16 -66.5 26t-76.5 13v-143q59 -9 90 -45.5t31 -125.5q0 -58 -13.5 -91t-40.5 -48q-14 -7 -30.5 -12t-36.5 -7v-155z" />
    <glyph glyph-name="uni2080" unicode="&#x2080;" horiz-adv-x="445" 
d="M222 -10q97 0 151 49.5t54 138.5q0 85 -54.5 137t-146.5 52q-63 0 -110 -24t-72 -67q-13 -21 -19.5 -45.5t-6.5 -52.5q0 -90 52 -139t152 -49zM221 119q-28 0 -42 15.5t-14 43.5q0 26 14.5 42t42.5 16q29 0 43 -16t14 -42q0 -28 -15 -43.5t-43 -15.5z" />
    <glyph glyph-name="uni2081" unicode="&#x2081;" horiz-adv-x="341" 
d="M325 0v124h-83v234h-112q-8 -31 -31 -50.5t-61 -21.5v-99h70v-63h-89v-124h306z" />
    <glyph glyph-name="uni2082" unicode="&#x2082;" horiz-adv-x="415" 
d="M393 0v112h-221q20 8 48 14t59 13t57.5 19.5t43.5 33.5q9 11 13 24.5t4 30.5q0 53 -43 86t-138 33t-143.5 -36t-51.5 -109h142q0 17 12.5 26.5t41.5 9.5q26 0 35.5 -5.5t9.5 -15.5q0 -11 -17.5 -17t-45.5 -10q-28 -5 -59.5 -12t-59.5 -21t-45.5 -38t-17.5 -64v-74h376z
" />
    <glyph glyph-name="uni2083" unicode="&#x2083;" horiz-adv-x="418" 
d="M206 -9q102 0 150.5 30.5t48.5 85.5q0 36 -22.5 54.5t-63.5 25.5q37 7 57.5 24t20.5 51q0 43 -42.5 72.5t-135.5 29.5q-97 0 -148.5 -34t-53.5 -105h138q1 15 13 22t42 7q25 0 34 -5t9 -14q0 -8 -8.5 -12.5t-28.5 -4.5h-47v-79h50q26 0 34 -4t8 -12q0 -9 -10 -15t-39 -6
q-34 0 -46 7.5t-13 23.5h-144q2 -46 19.5 -77.5t60.5 -48.5q21 -8 50.5 -12t66.5 -4z" />
    <glyph glyph-name="uni2084" unicode="&#x2084;" horiz-adv-x="426" 
d="M232 162h-78l78 73v-73zM420 58v104h-63v196h-117l-229 -209v-91h221v-58h125v58h63z" />
    <glyph glyph-name="uni2085" unicode="&#x2085;" horiz-adv-x="427" 
d="M218 -8q104 0 149 35.5t45 93.5q0 56 -31.5 83.5t-99.5 27.5q-36 0 -63.5 -9t-47.5 -24l9 52h94q46 0 71.5 8.5t35.5 31.5q5 12 8 28.5t3 38.5h-329l-32 -210l139 -24l3 3q8 9 20.5 15t32.5 6q21 0 31.5 -7.5t10.5 -23.5q0 -12 -10.5 -20t-34.5 -8q-19 0 -29 6t-12 16
h-162q7 -60 53.5 -89.5t145.5 -29.5z" />
    <glyph glyph-name="uni2086" unicode="&#x2086;" horiz-adv-x="444" 
d="M423 121q0 54 -32 78.5t-100 24.5q-40 0 -75 -12.5t-58 -37.5v9q0 33 17.5 54.5t51.5 21.5q20 0 30 -4.5t15 -14.5h149q-13 66 -62 96.5t-131 30.5q-98 0 -151.5 -52.5t-53.5 -140.5q0 -55 19.5 -96.5t65.5 -64.5q23 -11 54.5 -17t70.5 -6q88 0 139 34.5t51 96.5z
M234 103q-20 0 -35 5t-24 15q13 12 29.5 20.5t40.5 8.5q23 0 31.5 -6t8.5 -17q0 -13 -11.5 -19.5t-39.5 -6.5z" />
    <glyph glyph-name="uni2087" unicode="&#x2087;" horiz-adv-x="374" 
d="M201 0q25 66 65 129.5t102 123.5v105h-358v-120h201q-48 -43 -95 -107t-77 -131h162z" />
    <glyph glyph-name="uni2088" unicode="&#x2088;" horiz-adv-x="437" 
d="M217 -8q104 0 154.5 26.5t50.5 82.5q0 30 -19 50.5t-51 30.5q29 10 45 28.5t16 46.5q0 53 -49.5 81t-142.5 28q-94 0 -141.5 -27.5t-47.5 -82.5q0 -27 14 -45.5t41 -28.5q-33 -10 -52 -31t-19 -52q0 -55 47.5 -81t153.5 -26zM216 213q-26 0 -39 5.5t-13 16.5
q0 12 14.5 17.5t42.5 5.5q32 0 46 -5.5t14 -17.5q0 -11 -13.5 -16.5t-41.5 -5.5h-10zM220 100q-35 0 -49.5 5.5t-14.5 18.5q0 12 15 17.5t44 5.5h11q32 0 45.5 -5t13.5 -18t-15 -18.5t-50 -5.5z" />
    <glyph glyph-name="uni2089" unicode="&#x2089;" horiz-adv-x="434" 
d="M202 202q-23 0 -35 6.5t-12 18.5q0 14 12.5 22t40.5 8q26 0 42 -7t23 -21q-12 -11 -28 -19t-43 -8zM209 -11q104 0 155.5 49.5t51.5 137.5q0 87 -49 138t-156 51q-96 0 -146 -36.5t-50 -98.5q0 -54 39 -77.5t105 -23.5q40 0 71.5 10.5t52.5 32.5q0 -34 -16 -55t-57 -21
q-18 0 -29 4.5t-15 12.5h-155q13 -67 65 -95.5t133 -28.5z" />
    <glyph glyph-name="uni208A" unicode="&#x208a;" horiz-adv-x="413" 
d="M367 116v119h-102v97h-120v-97h-101v-119h101v-98h120v98h102z" />
    <glyph glyph-name="uni208B" unicode="&#x208b;" horiz-adv-x="413" 
d="M367 112v128h-323v-128h323z" />
    <glyph glyph-name="uni208C" unicode="&#x208c;" horiz-adv-x="414" 
d="M357 205v110h-302v-110h302zM357 41v110h-302v-110h302z" />
    <glyph glyph-name="uni208D" unicode="&#x208d;" horiz-adv-x="329" 
d="M304 -145v155q-40 5 -67 19.5t-41 47.5q-7 16 -10.5 39t-3.5 52q0 89 31 125.5t91 45.5v143q-82 -7 -143 -39t-94 -99q-17 -33 -25.5 -77.5t-8.5 -99.5q0 -110 32 -176t92 -98q31 -16 67.5 -25.5t79.5 -12.5z" />
    <glyph glyph-name="uni208E" unicode="&#x208e;" horiz-adv-x="329" 
d="M25 -145q86 6 146.5 38t92.5 98q16 33 24 77t8 99q0 111 -33.5 177.5t-94.5 98.5q-31 16 -66.5 26t-76.5 13v-143q59 -9 90 -45.5t31 -125.5q0 -58 -13.5 -91t-40.5 -48q-14 -7 -30.5 -12t-36.5 -7v-155z" />
    <glyph glyph-name="uni20A1" unicode="&#x20a1;" horiz-adv-x="916" 
d="M335 -106h133l29 87q182 9 282 94t115 241h-261q-7 -57 -49 -90.5t-122 -33.5q-87 0 -134 40.5t-47 122.5v1q0 85 49 126t137 41q71 0 114 -31.5t51 -82.5h259q-9 89 -48 153.5t-102 104.5l49 141h-134l-31 -92q-13 4 -25.5 6.5t-26.5 4.5l27 81h-132l-25 -73
q-122 -4 -214.5 -50.5t-144.5 -130.5q-26 -41 -39 -91t-13 -108v-2q0 -117 42.5 -195t119.5 -122l-50 -142h134l34 99q13 -2 26.5 -4.5t26.5 -3.5z" />
    <glyph glyph-name="uni20A2" unicode="&#x20a2;" 
d="M843 252h-218q-11 -31 -38 -52.5t-74 -29.5q0 46 8.5 70t33.5 34q12 4 31 6.5t44 2.5h93v166h-56q-72 0 -113 -23.5t-53 -91.5l-22 111h-139v-265q-51 17 -74.5 58.5t-23.5 110.5v1q0 104 53 149.5t150 45.5q65 0 106.5 -17t54.5 -52h228q-31 127 -130.5 190.5
t-256.5 63.5q-128 0 -221.5 -44t-143.5 -129q-26 -42 -38.5 -94t-12.5 -113v-3q0 -192 106 -279t305 -87q179 0 276 70.5t125 200.5z" />
    <glyph glyph-name="franc" unicode="&#x20a3;" horiz-adv-x="751" 
d="M681 97v146h-388v59h388v147h-388v72h422v196h-654v-717h232v97h388z" />
    <glyph glyph-name="lira" unicode="&#x20a4;" horiz-adv-x="849" 
d="M620 -17q79 0 126 22.5t67 75.5q11 26 16 61.5t5 80.5v12h-230v-7q0 -52 -13 -73t-58 -21q-25 0 -53.5 8t-59.5 19q4 15 6 30t2 29q0 13 -1 25t-3 23h189v64h-208q-4 9 -8 17.5t-8 15.5h224v64h-256q-4 11 -6.5 21.5t-2.5 20.5q0 27 20.5 45.5t61.5 18.5q46 0 72 -17
t32 -52l253 1q-20 125 -109 195.5t-257 70.5q-109 0 -178 -31.5t-102 -80.5q-16 -25 -24 -50.5t-8 -52.5q0 -26 7 -48t18 -41h-88v-64h141q8 -8 17 -16.5t18 -16.5h-176v-64h234q10 -14 16 -30t7 -34q-34 11 -68.5 19t-68.5 8q-72 0 -111.5 -34t-39.5 -89t36 -90t129 -35
q55 0 100.5 20t78.5 53q59 -28 125 -50.5t136 -22.5zM182 81q-22 0 -32.5 8.5t-10.5 18.5q0 11 8 18t24 7q17 0 39.5 -7.5t48.5 -20.5q-16 -12 -35 -18t-42 -6z" />
    <glyph glyph-name="uni20A6" unicode="&#x20a6;" horiz-adv-x="1058" 
d="M687 0h243v188h112v136h-112v70h112v135h-112v188h-226v-445l-331 445h-248v-188h-109v-135h109v-70h-109v-136h109v-188h226v453z" />
    <glyph glyph-name="peseta" unicode="&#x20a7;" horiz-adv-x="2178" 
d="M443 520q75 0 108.5 -15.5t33.5 -67.5q0 -43 -30.5 -60.5t-108.5 -17.5h-152v161h149zM454 172q168 -1 258.5 53t106.5 161h121v-129q0 -77 12.5 -127t44.5 -79q31 -28 87 -39.5t143 -11.5h558q130 0 209.5 22.5t115.5 65.5q18 22 27 48.5t9 57.5q0 45 -14.5 77.5
t-50.5 54.5q-37 21 -100 31.5t-161 10.5q-76 0 -114 5t-51 15q-6 4 -9 10t-3 12q0 17 21.5 29t84.5 12q59 0 98.5 -12t51.5 -44h243q-34 105 -130 153.5t-263 48.5q-165 0 -248 -55t-83 -147q0 -55 27.5 -93t95.5 -58q34 -10 81.5 -15t108.5 -6q78 0 118 -2t54 -8
q7 -3 10.5 -7.5t3.5 -10.5q0 -14 -23.5 -19t-89.5 -5h-525q-52 0 -76.5 8.5t-31.5 32.5q-3 13 -5 31.5t-2 42.5v100h206v194h-206v163h-181q-1 -25 -5 -54.5t-12 -49.5q-10 -23 -23 -37t-36 -22q-19 -7 -49 -11t-58 -6q-33 77 -119 115.5t-236 38.5h-384v-717h233v172h160z
" />
    <glyph glyph-name="uni20A8" unicode="&#x20a8;" horiz-adv-x="1623" 
d="M1247 -21q126 0 204.5 26.5t115.5 73.5q19 24 28 51.5t9 58.5q0 59 -27.5 94.5t-71.5 54.5q-45 19 -98.5 27.5t-107.5 10.5t-98.5 4.5t-72.5 10.5q-13 4 -20 10.5t-7 16.5q0 17 21.5 29t84.5 12q59 0 98.5 -12t51.5 -44h243q-34 105 -127.5 153.5t-259.5 48.5
q-169 0 -253 -56t-84 -151q0 -53 27 -86t72 -51q44 -18 97.5 -26t106.5 -11t97.5 -5.5t71.5 -9.5q13 -3 20 -9t7 -15q0 -19 -23.5 -30.5t-85.5 -11.5q-61 0 -118.5 7t-115.5 23q-30 8 -61.5 19t-65.5 24l-21 10q-49 20 -87 33.5t-73 22.5q-17 5 -36 8.5t-40 5.5
q89 20 131 65.5t42 122.5q0 75 -37 127t-118 79q-40 14 -93.5 20.5t-119.5 6.5h-392v-717h236v199h63q54 0 99.5 -6t92.5 -19q47 -14 104.5 -36t135.5 -55l19 -10q54 -22 114.5 -43.5t137.5 -36.5q39 -7 85 -10.5t99 -3.5zM456 528q63 0 92.5 -14.5t29.5 -54.5v-7
q0 -42 -34.5 -55.5t-90.5 -13.5h-156v145h159z" />
    <glyph glyph-name="uni20A9" unicode="&#x20a9;" horiz-adv-x="1397" 
d="M852 0h225l76 195h224v130h-173l20 51h153v130h-102l82 211h-237l-163 -448l-166 448h-184l-191 -447l-128 447h-240l66 -211h-93v-130h134l15 -51h-149v-130h190l61 -195h226l193 438z" />
    <glyph glyph-name="uni20AA" unicode="&#x20aa;" horiz-adv-x="1049" 
d="M382 545q60 0 96.5 -14t55.5 -46q18 -32 24.5 -84t6.5 -129v-41h30q62 0 97 15t50 51q7 18 10.5 42.5t3.5 55.5q0 166 -82.5 244t-268.5 78h-357v-717h198v545h136zM643 0q190 0 279.5 101t89.5 309v307h-198v-287q0 -100 -20 -155t-64 -77q-22 -10 -51 -15.5t-65 -5.5
h-108v81q0 77 -5.5 123t-21.5 69t-48 31t-86 8h-36v-489h334z" />
    <glyph glyph-name="Euro" unicode="&#x20ac;" horiz-adv-x="935" 
d="M933 229h-285q-19 -23 -50.5 -35t-80.5 -12q-53 0 -91.5 14.5t-60.5 46.5h298l45 90h-371q-1 5 -1 10.5v11.5v1v9.5t1 8.5h392l47 89h-415q22 37 62 53.5t94 16.5q47 0 76 -11t42 -30h293q-35 125 -143 184t-264 59q-107 0 -193.5 -32t-145.5 -93q-29 -30 -49 -67
t-32 -80h-97v-89h83v-41h-83v-90h94q31 -136 138.5 -199.5t273.5 -63.5q175 0 281.5 61t141.5 188z" />
    <glyph glyph-name="uni20AE" unicode="&#x20ae;" horiz-adv-x="787" 
d="M619 168v113l-107 -25v71l107 25v113l-107 -25v66h246v211h-727v-211h235v-123l-105 -24v-113l105 24v-71l-105 -24v-114l105 25v-86h246v143z" />
    <glyph glyph-name="uni20B1" unicode="&#x20b1;" horiz-adv-x="916" 
d="M467 538q47 0 77.5 -11t48.5 -31h-277v42h151zM623 402v-8.5t-1 -8.5h-306v38h306q1 -5 1 -10.5v-10.5zM470 271h-154v41h279q-16 -19 -46.5 -30t-78.5 -11zM472 99q156 -1 244 57.5t114 155.5h74v73h-63v38h63v73h-74q-26 101 -115.5 161t-251.5 60h-379v-221h-72v-73
h72v-38h-72v-73h72v-312h232v99h156z" />
    <glyph glyph-name="uni2105" unicode="&#x2105;" horiz-adv-x="977" 
d="M-16 0h286l715 717h-273zM423 538h-151q-4 -17 -18.5 -26t-39.5 -9q-29 0 -43.5 13.5t-14.5 39.5q0 27 15 40t44 13q25 0 39.5 -7.5t18.5 -26.5h150q-5 68 -59.5 109.5t-146.5 41.5q-99 0 -154 -48t-55 -122q0 -78 49.5 -123t156.5 -45q95 0 150 41t59 109zM757 -8
q101 0 155 46t54 122t-54 123.5t-151 47.5q-100 0 -155 -48.5t-55 -122.5q0 -77 49.5 -122.5t156.5 -45.5zM757 108q-29 0 -43.5 13t-14.5 39q0 27 15 40t44 13q28 0 43.5 -13.5t15.5 -39.5q0 -25 -16 -38.5t-44 -13.5z" />
    <glyph glyph-name="uni2116" unicode="&#x2116;" horiz-adv-x="1558" 
d="M1234 300q140 0 209 59t69 157q0 101 -72.5 160.5t-203.5 59.5q-86 0 -148.5 -27.5t-95.5 -77.5q-16 -25 -24.5 -54t-8.5 -62q0 -100 63.5 -157.5t211.5 -57.5zM1235 442q-48 0 -72 18.5t-24 55.5q0 40 24.5 59.5t72.5 19.5t72 -19.5t24 -59.5q0 -37 -24 -55.5t-73 -18.5
zM644 0h226v717h-231v-413l-345 413h-233v-717h232v425zM1491 233h-514v-190h514v190z" />
    <glyph glyph-name="uni2117" unicode="&#x2117;" horiz-adv-x="923" 
d="M462 -20q131 0 228.5 41t152.5 125q27 42 40.5 95t13.5 117q0 118 -55.5 204.5t-152.5 133.5q-49 23 -105 35t-119 12q-128 0 -227 -47t-155 -134q-28 -43 -42 -94t-14 -110q0 -129 54 -212.5t151 -124.5q49 -21 106.5 -31t123.5 -10zM462 109q-136 0 -214 62t-78 188
q0 80 36.5 137.5t102.5 87.5q33 16 72 23.5t83 7.5q87 0 152 -30.5t101 -88.5q18 -28 27 -62.5t9 -74.5q0 -126 -78 -188t-213 -62zM485 427q36 0 48 -8.5t12 -24.5q0 -18 -11.5 -26.5t-46.5 -8.5h-75v68h73zM490 258q96 0 141.5 35t45.5 101q0 67 -44.5 104t-146.5 37h-205
v-352h131v75h78z" />
    <glyph glyph-name="uni2120" unicode="&#x2120;" horiz-adv-x="817" 
d="M587 473h10l82 94v-154h113v304h-107l-92 -113l-91 113h-109v-304h114v154zM182 398q86 0 126 30.5t40 81.5q-1 48 -32.5 70.5t-103.5 26.5q-43 3 -63 5.5t-26 6.5q-3 2 -4.5 4t-1.5 5q0 8 9.5 13.5t35.5 5.5q29 0 43.5 -7t17.5 -19h121q-13 59 -55.5 84t-120.5 25
q-83 0 -124 -31t-41 -78q0 -45 32 -68t104 -28q62 -4 80 -8t18 -15t-11.5 -16.5t-39.5 -5.5q-27 0 -44 8.5t-19 24.5h-126q8 -58 49.5 -86.5t135.5 -28.5z" />
    <glyph glyph-name="trademark" unicode="&#x2122;" horiz-adv-x="794" 
d="M307 599v118h-293v-118h84v-186h124v186h85zM555 473h9l83 95v-155h112v304h-106l-93 -113l-90 113h-109v-304h113v156z" />
    <glyph glyph-name="uni2126" unicode="&#x2126;" horiz-adv-x="1001" 
d="M455 186q-70 52 -97.5 100t-27.5 94q0 59 41.5 98.5t120.5 39.5q85 0 124.5 -39.5t39.5 -98.5q0 -46 -29 -93.5t-100 -100.5l88 -186h354v206h-184q50 38 84 91t34 126q1 84 -43 154.5t-135 113.5q-45 22 -103.5 32.5t-129.5 10.5q-103 0 -180 -26.5t-127 -72.5
q-50 -45 -75 -101.5t-25 -115.5q0 -73 29.5 -124t75.5 -88h-177v-206h369z" />
    <glyph glyph-name="uni2153" unicode="&#x2153;" horiz-adv-x="1145" 
d="M129 0zM685 397l386 223l-182 157l-257 -332zM525 356l-396 -239l184 -166l262 358zM449 356v124h-83v234h-112q-8 -31 -31 -50.5t-61 -21.5v-99h70v-63h-89v-124h306zM820 -9q102 0 150.5 30.5t48.5 85.5q0 36 -22.5 54.5t-63.5 25.5q37 7 57.5 24t20.5 51
q0 43 -42.5 72.5t-135.5 29.5q-97 0 -148.5 -34t-53.5 -105h138q1 15 13 22t42 7q25 0 34 -5t9 -14q0 -8 -8.5 -12.5t-28.5 -4.5h-47v-79h50q26 0 34 -4t8 -12q0 -9 -10 -15t-39 -6q-34 0 -46 7.5t-13 23.5h-144q2 -46 19.5 -77.5t60.5 -48.5q21 -8 50.5 -12t66.5 -4z" />
    <glyph glyph-name="uni2154" unicode="&#x2154;" horiz-adv-x="1145" 
d="M101 0zM685 397l386 223l-182 157l-257 -332zM525 356l-396 -239l184 -166l262 358zM477 356v112h-221q20 8 48 14t59 13t57.5 19.5t43.5 33.5q9 11 13 24.5t4 30.5q0 53 -43 86t-138 33t-143.5 -36t-51.5 -109h142q0 17 12.5 26.5t41.5 9.5q26 0 35.5 -5.5t9.5 -15.5
q0 -11 -17.5 -17t-45.5 -10q-28 -5 -59.5 -12t-59.5 -21t-45.5 -38t-17.5 -64v-74h376zM820 -9q102 0 150.5 30.5t48.5 85.5q0 36 -22.5 54.5t-63.5 25.5q37 7 57.5 24t20.5 51q0 43 -42.5 72.5t-135.5 29.5q-97 0 -148.5 -34t-53.5 -105h138q1 15 13 22t42 7q25 0 34 -5
t9 -14q0 -8 -8.5 -12.5t-28.5 -4.5h-47v-79h50q26 0 34 -4t8 -12q0 -9 -10 -15t-39 -6q-34 0 -46 7.5t-13 23.5h-144q2 -46 19.5 -77.5t60.5 -48.5q21 -8 50.5 -12t66.5 -4z" />
    <glyph glyph-name="uni2155" unicode="&#x2155;" horiz-adv-x="1145" 
d="M129 0zM685 397l386 223l-182 157l-257 -332zM525 356l-396 -239l184 -166l262 358zM449 356v124h-83v234h-112q-8 -31 -31 -50.5t-61 -21.5v-99h70v-63h-89v-124h306zM834 -8q104 0 149 35.5t45 93.5q0 56 -31.5 83.5t-99.5 27.5q-36 0 -63.5 -9t-47.5 -24l9 52h94
q46 0 71.5 8.5t35.5 31.5q5 12 8 28.5t3 38.5h-329l-32 -210l139 -24l3 3q8 9 20.5 15t32.5 6q21 0 31.5 -7.5t10.5 -23.5q0 -12 -10.5 -20t-34.5 -8q-19 0 -29 6t-12 16h-162q7 -60 53.5 -89.5t145.5 -29.5z" />
    <glyph glyph-name="uni2156" unicode="&#x2156;" horiz-adv-x="1145" 
d="M101 0zM685 397l386 223l-182 157l-257 -332zM525 356l-396 -239l184 -166l262 358zM477 356v112h-221q20 8 48 14t59 13t57.5 19.5t43.5 33.5q9 11 13 24.5t4 30.5q0 53 -43 86t-138 33t-143.5 -36t-51.5 -109h142q0 17 12.5 26.5t41.5 9.5q26 0 35.5 -5.5t9.5 -15.5
q0 -11 -17.5 -17t-45.5 -10q-28 -5 -59.5 -12t-59.5 -21t-45.5 -38t-17.5 -64v-74h376zM834 -8q104 0 149 35.5t45 93.5q0 56 -31.5 83.5t-99.5 27.5q-36 0 -63.5 -9t-47.5 -24l9 52h94q46 0 71.5 8.5t35.5 31.5q5 12 8 28.5t3 38.5h-329l-32 -210l139 -24l3 3q8 9 20.5 15
t32.5 6q21 0 31.5 -7.5t10.5 -23.5q0 -12 -10.5 -20t-34.5 -8q-19 0 -29 6t-12 16h-162q7 -60 53.5 -89.5t145.5 -29.5z" />
    <glyph glyph-name="uni2157" unicode="&#x2157;" horiz-adv-x="1145" 
d="M82 0zM685 397l386 223l-182 157l-257 -332zM525 356l-396 -239l184 -166l262 358zM279 347q102 0 150.5 30.5t48.5 85.5q0 36 -22.5 54.5t-63.5 25.5q37 7 57.5 24t20.5 51q0 43 -42.5 72.5t-135.5 29.5q-97 0 -148.5 -34t-53.5 -105h138q1 15 13 22t42 7q25 0 34 -5
t9 -14q0 -8 -8.5 -12.5t-28.5 -4.5h-47v-79h50q26 0 34 -4t8 -12q0 -9 -10 -15t-39 -6q-34 0 -46 7.5t-13 23.5h-144q2 -46 19.5 -77.5t60.5 -48.5q21 -8 50.5 -12t66.5 -4zM834 -8q104 0 149 35.5t45 93.5q0 56 -31.5 83.5t-99.5 27.5q-36 0 -63.5 -9t-47.5 -24l9 52h94
q46 0 71.5 8.5t35.5 31.5q5 12 8 28.5t3 38.5h-329l-32 -210l139 -24l3 3q8 9 20.5 15t32.5 6q21 0 31.5 -7.5t10.5 -23.5q0 -12 -10.5 -20t-34.5 -8q-19 0 -29 6t-12 16h-162q7 -60 53.5 -89.5t145.5 -29.5z" />
    <glyph glyph-name="uni2158" unicode="&#x2158;" horiz-adv-x="1145" 
d="M97 0zM685 397l386 223l-182 157l-257 -332zM525 356l-396 -239l184 -166l262 358zM318 518h-78l78 73v-73zM506 414v104h-63v196h-117l-229 -209v-91h221v-58h125v58h63zM834 -8q104 0 149 35.5t45 93.5q0 56 -31.5 83.5t-99.5 27.5q-36 0 -63.5 -9t-47.5 -24l9 52h94
q46 0 71.5 8.5t35.5 31.5q5 12 8 28.5t3 38.5h-329l-32 -210l139 -24l3 3q8 9 20.5 15t32.5 6q21 0 31.5 -7.5t10.5 -23.5q0 -12 -10.5 -20t-34.5 -8q-19 0 -29 6t-12 16h-162q7 -60 53.5 -89.5t145.5 -29.5z" />
    <glyph glyph-name="uni2159" unicode="&#x2159;" horiz-adv-x="1145" 
d="M129 0zM685 397l386 223l-182 157l-257 -332zM525 356l-396 -239l184 -166l262 358zM449 356v124h-83v234h-112q-8 -31 -31 -50.5t-61 -21.5v-99h70v-63h-89v-124h306zM1023 121q0 54 -32 78.5t-100 24.5q-40 0 -75 -12.5t-58 -37.5v9q0 33 17.5 54.5t51.5 21.5
q20 0 30 -4.5t15 -14.5h149q-13 66 -62 96.5t-131 30.5q-98 0 -151.5 -52.5t-53.5 -140.5q0 -55 19.5 -96.5t65.5 -64.5q23 -11 54.5 -17t70.5 -6q88 0 139 34.5t51 96.5zM834 103q-20 0 -35 5t-24 15q13 12 29.5 20.5t40.5 8.5q23 0 31.5 -6t8.5 -17q0 -13 -11.5 -19.5
t-39.5 -6.5z" />
    <glyph glyph-name="uni215A" unicode="&#x215a;" horiz-adv-x="1145" 
d="M88 0zM685 397l386 223l-182 157l-257 -332zM525 356l-396 -239l184 -166l262 358zM287 348q104 0 149 35.5t45 93.5q0 56 -31.5 83.5t-99.5 27.5q-36 0 -63.5 -9t-47.5 -24l9 52h94q46 0 71.5 8.5t35.5 31.5q5 12 8 28.5t3 38.5h-329l-32 -210l139 -24l3 3q8 9 20.5 15
t32.5 6q21 0 31.5 -7.5t10.5 -23.5q0 -12 -10.5 -20t-34.5 -8q-19 0 -29 6t-12 16h-162q7 -60 53.5 -89.5t145.5 -29.5zM1023 121q0 54 -32 78.5t-100 24.5q-40 0 -75 -12.5t-58 -37.5v9q0 33 17.5 54.5t51.5 21.5q20 0 30 -4.5t15 -14.5h149q-13 66 -62 96.5t-131 30.5
q-98 0 -151.5 -52.5t-53.5 -140.5q0 -55 19.5 -96.5t65.5 -64.5q23 -11 54.5 -17t70.5 -6q88 0 139 34.5t51 96.5zM834 103q-20 0 -35 5t-24 15q13 12 29.5 20.5t40.5 8.5q23 0 31.5 -6t8.5 -17q0 -13 -11.5 -19.5t-39.5 -6.5z" />
    <glyph glyph-name="uni215B" unicode="&#x215b;" horiz-adv-x="1145" 
d="M129 0zM685 397l386 223l-182 157l-257 -332zM525 356l-396 -239l184 -166l262 358zM448 356v124h-83v234h-112q-8 -31 -31 -50.5t-61 -21.5v-99h70v-63h-89v-124h306zM825 -8q104 0 154.5 26.5t50.5 82.5q0 30 -19 50.5t-51 30.5q29 10 45 28.5t16 46.5q0 53 -49.5 81
t-142.5 28q-94 0 -141.5 -27.5t-47.5 -82.5q0 -27 14 -45.5t41 -28.5q-33 -10 -52 -31t-19 -52q0 -55 47.5 -81t153.5 -26zM824 213q-26 0 -39 5.5t-13 16.5q0 12 14.5 17.5t42.5 5.5q32 0 46 -5.5t14 -17.5q0 -11 -13.5 -16.5t-41.5 -5.5h-10zM828 100q-35 0 -49.5 5.5
t-14.5 18.5q0 12 15 17.5t44 5.5h11q32 0 45.5 -5t13.5 -18t-15 -18.5t-50 -5.5z" />
    <glyph glyph-name="uni215C" unicode="&#x215c;" horiz-adv-x="1145" 
d="M83 0zM685 397l386 223l-182 157l-257 -332zM525 356l-396 -239l184 -166l262 358zM825 -8q104 0 154.5 26.5t50.5 82.5q0 30 -19 50.5t-51 30.5q29 10 45 28.5t16 46.5q0 53 -49.5 81t-142.5 28q-94 0 -141.5 -27.5t-47.5 -82.5q0 -27 14 -45.5t41 -28.5
q-33 -10 -52 -31t-19 -52q0 -55 47.5 -81t153.5 -26zM824 213q-26 0 -39 5.5t-13 16.5q0 12 14.5 17.5t42.5 5.5q32 0 46 -5.5t14 -17.5q0 -11 -13.5 -16.5t-41.5 -5.5h-10zM828 100q-35 0 -49.5 5.5t-14.5 18.5q0 12 15 17.5t44 5.5h11q32 0 45.5 -5t13.5 -18t-15 -18.5
t-50 -5.5zM280 347q102 0 150.5 30.5t48.5 85.5q0 36 -22.5 54.5t-63.5 25.5q37 7 57.5 24t20.5 51q0 43 -42.5 72.5t-135.5 29.5q-97 0 -148.5 -34t-53.5 -105h138q1 15 13 22t42 7q25 0 34 -5t9 -14q0 -8 -8.5 -12.5t-28.5 -4.5h-47v-79h50q26 0 34 -4t8 -12q0 -9 -10 -15
t-39 -6q-34 0 -46 7.5t-13 23.5h-144q2 -46 19.5 -77.5t60.5 -48.5q21 -8 50.5 -12t66.5 -4z" />
    <glyph glyph-name="uni215D" unicode="&#x215d;" horiz-adv-x="1145" 
d="M88 0zM685 397l386 223l-182 157l-257 -332zM525 356l-396 -239l184 -166l262 358zM825 -8q104 0 154.5 26.5t50.5 82.5q0 30 -19 50.5t-51 30.5q29 10 45 28.5t16 46.5q0 53 -49.5 81t-142.5 28q-94 0 -141.5 -27.5t-47.5 -82.5q0 -27 14 -45.5t41 -28.5
q-33 -10 -52 -31t-19 -52q0 -55 47.5 -81t153.5 -26zM824 213q-26 0 -39 5.5t-13 16.5q0 12 14.5 17.5t42.5 5.5q32 0 46 -5.5t14 -17.5q0 -11 -13.5 -16.5t-41.5 -5.5h-10zM828 100q-35 0 -49.5 5.5t-14.5 18.5q0 12 15 17.5t44 5.5h11q32 0 45.5 -5t13.5 -18t-15 -18.5
t-50 -5.5zM287 348q104 0 149 35.5t45 93.5q0 56 -31.5 83.5t-99.5 27.5q-36 0 -63.5 -9t-47.5 -24l9 52h94q46 0 71.5 8.5t35.5 31.5q5 12 8 28.5t3 38.5h-329l-32 -210l139 -24l3 3q8 9 20.5 15t32.5 6q21 0 31.5 -7.5t10.5 -23.5q0 -12 -10.5 -20t-34.5 -8q-19 0 -29 6
t-12 16h-162q7 -60 53.5 -89.5t145.5 -29.5z" />
    <glyph glyph-name="uni215E" unicode="&#x215e;" horiz-adv-x="1145" 
d="M129 0zM685 397l386 223l-182 157l-257 -332zM525 356l-396 -239l184 -166l262 358zM825 -8q104 0 154.5 26.5t50.5 82.5q0 30 -19 50.5t-51 30.5q29 10 45 28.5t16 46.5q0 53 -49.5 81t-142.5 28q-94 0 -141.5 -27.5t-47.5 -82.5q0 -27 14 -45.5t41 -28.5
q-33 -10 -52 -31t-19 -52q0 -55 47.5 -81t153.5 -26zM824 213q-26 0 -39 5.5t-13 16.5q0 12 14.5 17.5t42.5 5.5q32 0 46 -5.5t14 -17.5q0 -11 -13.5 -16.5t-41.5 -5.5h-10zM828 100q-35 0 -49.5 5.5t-14.5 18.5q0 12 15 17.5t44 5.5h11q32 0 45.5 -5t13.5 -18t-15 -18.5
t-50 -5.5zM361 356q25 66 65 129.5t102 123.5v105h-358v-120h201q-48 -43 -95 -107t-77 -131h162z" />
    <glyph glyph-name="uni215F" unicode="&#x215f;" horiz-adv-x="1145" 
d="M129 0zM685 397l386 223l-182 157l-257 -332zM525 356l-396 -239l184 -166l262 358zM449 356v124h-83v234h-112q-8 -31 -31 -50.5t-61 -21.5v-99h70v-63h-89v-124h306z" />
    <glyph glyph-name="uni2190" unicode="&#x2190;" horiz-adv-x="1011" 
d="M913 266v208h-515q32 31 63.5 71t56.5 83q12 21 21.5 41t15.5 39h-247q-9 -41 -40.5 -93t-81.5 -105q-24 -26 -52.5 -50.5t-60.5 -47.5v-92q64 -45 115.5 -98t85.5 -105q16 -25 27 -48t15 -44h253q-13 39 -41.5 83.5t-64.5 85.5q-18 21 -36 39t-36 33h522z" />
    <glyph glyph-name="arrowup" unicode="&#x2191;" horiz-adv-x="1011" 
d="M845 303v247q-40 9 -91.5 40t-105.5 81q-26 24 -51 52.5t-48 60.5h-88q-45 -64 -98.5 -113.5t-105.5 -80.5q-26 -16 -49.5 -26t-43.5 -15v-247q64 22 128 68t110 98v-521h207v520q46 -52 109.5 -97t126.5 -67z" />
    <glyph glyph-name="uni2192" unicode="&#x2192;" horiz-adv-x="1011" 
d="M694 25q10 41 43.5 92.5t84.5 104.5q26 26 55 50.5t61 47.5v92q-64 45 -113.5 98t-80.5 105q-16 26 -26 49.5t-15 43.5h-248q13 -38 38 -80.5t57 -82.5q15 -20 31 -37.5t32 -33.5h-516v-208h523q-35 -30 -71.5 -71.5t-64.5 -86.5q-15 -22 -25 -42.5t-17 -40.5h252z" />
    <glyph glyph-name="arrowdown" unicode="&#x2193;" horiz-adv-x="1011" 
d="M546 -69q46 64 99.5 113.5t105.5 81.5q26 15 49.5 25.5t43.5 14.5v248q-64 -22 -127.5 -68t-109.5 -97v519h-209v-519q-46 52 -109 96.5t-127 66.5v-247q41 -9 93 -40t105 -81q26 -24 51 -52.5t47 -60.5h88z" />
    <glyph glyph-name="uni2196" unicode="&#x2196;" horiz-adv-x="1011" 
d="M874 145l-367 366q68 -4 144.5 9.5t137.5 42.5l-175 175q-35 -22 -93.5 -37t-131.5 -18q-36 -1 -73.5 1.5t-76.5 8.5l-62 -62q13 -77 10 -150t-17 -132q-8 -29 -17 -52.5t-20 -41.5l175 -176q29 61 42 139t9 146l367 -367z" />
    <glyph glyph-name="uni2197" unicode="&#x2197;" horiz-adv-x="1011" 
d="M698 81l175 175q-22 36 -36.5 94t-17.5 131q-1 36 1.5 73.5t8.5 76.5l-62 62q-77 -13 -150 -10t-132 17q-29 8 -52.5 17t-41.5 20l-176 -174q41 -20 89.5 -32.5t99.5 -17.5q25 -2 49 -2.5t47 0.5l-367 -367l147 -148l367 368q-4 -68 9.5 -145t41.5 -138z" />
    <glyph glyph-name="uni2198" unicode="&#x2198;" horiz-adv-x="1011" 
d="M767 42l61 62q-13 77 -10 150t18 132q7 29 16.5 52.5t20.5 41.5l-175 175q-29 -61 -42 -138.5t-9 -145.5l-368 366l-147 -147l367 -366q-68 4 -144.5 -9.5t-137.5 -42.5l175 -175q35 23 93.5 37.5t131.5 17.5q36 1 73.5 -1.5t76.5 -8.5z" />
    <glyph glyph-name="uni2199" unicode="&#x2199;" horiz-adv-x="1011" 
d="M615 -5l176 176q-61 29 -138.5 42.5t-145.5 8.5l366 368l-147 147l-367 -367q4 68 -9.5 144.5t-42.5 137.5l-175 -175q23 -35 37.5 -93.5t17.5 -131.5q1 -36 -1.5 -73.5t-8.5 -76.5l62 -61q77 13 150 10t132 -18q30 -7 53.5 -16.5t40.5 -21.5z" />
    <glyph glyph-name="partialdiff" unicode="&#x2202;" horiz-adv-x="841" 
d="M422 -19q200 0 297 80.5t97 227.5q0 102 -50.5 199t-140.5 182q-45 42 -96.5 79t-109.5 68h-329q139 -77 236.5 -142.5t158.5 -126.5q30 -31 52 -62.5t35 -63.5q-31 54 -87.5 84t-141.5 30q-94 0 -164 -31.5t-109 -91.5q-20 -31 -29.5 -67.5t-9.5 -80.5q0 -89 39 -153
t125 -97q43 -17 100 -25.5t127 -8.5zM425 164q-79 0 -114.5 25.5t-35.5 77.5q0 55 38 82.5t113 27.5q77 0 113 -27t36 -83q0 -52 -35 -77.5t-115 -25.5z" />
    <glyph glyph-name="uni2206" unicode="&#x2206;" horiz-adv-x="1103" 
d="M1114 0l-561 736l-564 -736h1125zM734 183h-368l184 242z" />
    <glyph glyph-name="product" unicode="&#x220f;" horiz-adv-x="964" 
d="M570 0h228v500h141v217h-915v-217h144v-500h228v500h174v-500z" />
    <glyph glyph-name="summation" unicode="&#x2211;" horiz-adv-x="726" 
d="M693 207h-339l260 157l-257 156h316v197h-632v-209l254 -145l-265 -144v-219h663v207z" />
    <glyph glyph-name="minus" unicode="&#x2212;" horiz-adv-x="708" 
d="M670 263v213h-631v-213h631z" />
    <glyph glyph-name="radical" unicode="&#x221a;" horiz-adv-x="981" 
d="M541 0l446 717h-260l-296 -494l-140 282h-263v-220h133l145 -285h235z" />
    <glyph glyph-name="infinity" unicode="&#x221e;" horiz-adv-x="1044" 
d="M759 293q-28 0 -57 19t-60 47q31 28 60 47t57 19q31 0 48 -19t17 -47t-18 -47t-47 -19zM284 293q-28 0 -46 19t-18 47t18 47t46 19q29 0 58.5 -19t59.5 -47q-30 -28 -59.5 -47t-58.5 -19zM278 119q52 0 93 16t77 43q18 14 36.5 29t36.5 32q37 -34 73 -61t76 -42
q21 -8 44 -12t48 -4q77 0 130 30.5t80 84.5q13 27 20 58.5t7 66.5q0 69 -29.5 122t-83.5 84q-27 15 -58.5 22.5t-68.5 7.5q-50 0 -90 -15.5t-75 -42.5q-17 -13 -35 -28.5t-37 -32.5q-37 35 -72 61.5t-75 42.5q-20 7 -43 11t-49 4q-72 0 -126.5 -31.5t-84.5 -84.5
q-16 -27 -23.5 -57t-7.5 -64q0 -108 59 -174t178 -66z" />
    <glyph glyph-name="integral" unicode="&#x222b;" horiz-adv-x="539" 
d="M-8 -213h97q110 0 173 24t89 83q13 29 19.5 69t6.5 91l2 486q0 44 6.5 66t24.5 30q9 4 23 6t32 2h67v187h-102q-145 0 -211.5 -60t-66.5 -196l-1 -494q0 -47 -7 -69.5t-27 -28.5q-10 -4 -24.5 -5.5t-33.5 -1.5h-67v-189z" />
    <glyph glyph-name="approxequal" unicode="&#x2248;" horiz-adv-x="712" 
d="M209 656q-39 0 -75.5 -14t-51.5 -40v-212q24 33 58.5 48.5t69.5 15.5q29 0 62.5 -11t70.5 -25q37 -15 77 -26t82 -11q40 0 76.5 15t52.5 40v210q-27 -36 -62 -49.5t-67 -13.5q-28 0 -64 11t-75 26q-39 14 -78.5 25t-75.5 11zM82 263v-212q24 35 59 49.5t69 14.5
q29 0 63 -11t71 -25q37 -15 76.5 -26t81.5 -11q38 0 75.5 15.5t53.5 40.5v210q-25 -36 -61 -49.5t-68 -13.5q-28 0 -63.5 11t-74.5 26q-40 14 -79.5 25t-74.5 11q-40 0 -76.5 -14.5t-51.5 -40.5z" />
    <glyph glyph-name="notequal" unicode="&#x2260;" horiz-adv-x="732" 
d="M646 103v200h-242l43 135h199v199h-136l33 104h-134l-33 -104h-290v-199h227l-43 -135h-184v-200h120l-39 -124h134l39 124h306z" />
    <glyph glyph-name="equivalence" unicode="&#x2261;" horiz-adv-x="732" 
d="M646 522v169h-560v-169h560zM646 279v169h-560v-169h560zM646 36v170h-560v-170h560z" />
    <glyph glyph-name="lessequal" unicode="&#x2264;" horiz-adv-x="712" 
d="M627 201v193l-326 106l326 106v189l-548 -216v-163zM629 -39v180h-549v-180h549z" />
    <glyph glyph-name="greaterequal" unicode="&#x2265;" horiz-adv-x="712" 
d="M84 201l549 215v163l-549 216v-189l326 -106l-326 -106v-193zM632 -39v180h-549v-180h549z" />
    <glyph glyph-name="uni22A0" unicode="&#x22a0;" horiz-adv-x="815" 
d="M51 0h713v717h-713v-717zM234 540h347v-363h-347v363zM493 213l58 58l-87 89l88 91l-58 56l-86 -89l-86 88l-59 -56l88 -90l-87 -89l58 -57l85 88z" />
    <glyph glyph-name="house" unicode="&#x2302;" horiz-adv-x="804" 
d="M725 0v402l-323 310l-323 -310v-402h646z" />
    <glyph glyph-name="uni25A0" unicode="&#x25a0;" horiz-adv-x="815" 
d="M51 0h713v717h-713v-717z" />
    <glyph glyph-name="uni25A1" unicode="&#x25a1;" horiz-adv-x="815" 
d="M51 0v717h713v-717h-713zM234 540v-363h347v363h-347z" />
    <glyph glyph-name="uni25AA" unicode="&#x25aa;" horiz-adv-x="674" 
d="M50 0h574v574h-574v-574z" />
    <glyph glyph-name="uni25AB" unicode="&#x25ab;" horiz-adv-x="674" 
d="M50 0h574v574h-574v-574zM215 416h245v-257h-245v257z" />
    <glyph glyph-name="triagup" unicode="&#x25b2;" 
d="M848 0l-423 735l-425 -735h848z" />
    <glyph glyph-name="triagrt" unicode="&#x25ba;" 
d="M79 -56l735 424l-735 424v-848z" />
    <glyph glyph-name="triagdn" unicode="&#x25bc;" 
d="M0 723l425 -735l423 735h-848z" />
    <glyph glyph-name="triaglf" unicode="&#x25c4;" 
d="M769 792l-735 -424l735 -424v848z" />
    <glyph glyph-name="lozenge" unicode="&#x25ca;" horiz-adv-x="973" 
d="M489 -125l475 476l-477 478l-476 -476zM296 353l189 189l192 -193l-188 -188z" />
    <glyph glyph-name="uni25CB" unicode="&#x25cb;" horiz-adv-x="835" 
d="M417 -11q81 0 148 27t116 77q49 49 75.5 115.5t26.5 145.5q0 80 -27 147t-76 116q-50 49 -116.5 76t-146.5 27t-147 -27.5t-115 -76.5q-49 -50 -75.5 -116.5t-26.5 -145.5q0 -106 46.5 -188.5t128.5 -129.5q41 -24 88.5 -35.5t100.5 -11.5zM417 165q-53 0 -95 25t-66 68
q-12 21 -18 45t-6 51q0 55 24 98t66 69q21 12 44.5 18.5t50.5 6.5q55 0 96.5 -25.5t65.5 -69.5q12 -22 18 -46t6 -51q0 -53 -24 -96t-66 -68q-21 -13 -45 -19t-51 -6z" />
    <glyph glyph-name="uni25CE" unicode="&#x25ce;" horiz-adv-x="864" 
d="M431 -10q80 0 147 27t115 76q49 49 75.5 115.5t26.5 145.5q0 80 -27 146.5t-76 115.5t-115.5 76t-145.5 27t-145.5 -27t-114.5 -77q-49 -49 -75.5 -115.5t-26.5 -145.5q0 -106 46.5 -188.5t127.5 -128.5q41 -24 88 -35.5t100 -11.5zM431 119q-65 0 -118 31t-83 84
q-16 26 -23.5 56.5t-7.5 63.5q0 68 30.5 121.5t83.5 85.5q26 15 55.5 23t62.5 8q68 0 120.5 -32t83.5 -86q15 -27 22.5 -57t7.5 -63q0 -67 -30.5 -120t-83.5 -84q-26 -16 -56 -23.5t-64 -7.5zM432 185q49 0 87.5 22t60.5 60q11 19 16.5 40.5t5.5 45.5q0 49 -22.5 87
t-60.5 60q-19 11 -41 16.5t-46 5.5q-47 0 -85.5 -22t-61.5 -60q-11 -19 -16.5 -41t-5.5 -46q0 -48 22 -86t60 -60q19 -11 41 -16.5t46 -5.5zM432 296q-23 0 -38 16.5t-15 40.5q0 26 15 42t38 16q24 0 39 -16t15 -42q0 -24 -15 -40.5t-39 -16.5z" />
    <glyph glyph-name="uni25CF" unicode="&#x25cf;" horiz-adv-x="835" 
d="M417 -11q81 0 148 27t116 77q49 49 75.5 115.5t26.5 145.5q0 80 -27 147t-76 116q-50 49 -116.5 76t-146.5 27t-147 -27.5t-115 -76.5q-49 -50 -75.5 -116.5t-26.5 -145.5q0 -106 46.5 -188.5t128.5 -129.5q41 -24 88.5 -35.5t100.5 -11.5z" />
    <glyph glyph-name="uni25E2" unicode="&#x25e2;" 
d="M844 528l-819 220l219 -820z" />
    <glyph glyph-name="uni25E3" unicode="&#x25e3;" 
d="M606 -72l220 820l-820 -220z" />
    <glyph glyph-name="uni25E4" unicode="&#x25e4;" 
d="M829 -53l-220 819l-600 -600z" />
    <glyph glyph-name="uni25E5" unicode="&#x25e5;" 
d="M843 161l-599 601l-220 -819z" />
    <glyph glyph-name="uni2605" unicode="&#x2605;" horiz-adv-x="851" 
d="M536 300l186 133l-228 1l-70 216l-72 -216l-226 1l184 -134l-72 -217l185 134l185 -134z" />
    <glyph glyph-name="uni263C" unicode="&#x263c;" horiz-adv-x="879" 
d="M427 562h19l17 141h-53zM533 540l15 -10l86 114l-46 27zM325 530l14 10l-54 131l-47 -27zM613 466l10 -16l131 56l-29 45zM250 450l10 15l-114 86l-27 -46zM264 352q0 -47 23.5 -86t62.5 -63q19 -11 41 -17t45 -6q47 0 86.5 23.5t62.5 62.5q12 19 18 41t6 45
q0 48 -23.5 87t-63.5 63q-19 11 -40.5 17t-45.5 6q-47 0 -86 -23.5t-63 -62.5q-11 -20 -17 -41.5t-6 -45.5zM645 363v-19l141 -17v53zM228 344v19l-141 17v-53zM260 241l-10 15l-131 -55l29 -46zM623 256l-10 -14l114 -87l27 47zM339 167l-14 10l-87 -114l47 -27zM548 177
l-15 -10l55 -131l46 27zM446 145h-19l-17 -141h53z" />
    <glyph glyph-name="uni263E" unicode="&#x263e;" horiz-adv-x="739" 
d="M509 599q17 0 35 -3.5t35 -8.5q-37 27 -82.5 42t-93.5 15q-61 0 -114 -23t-93 -63q-41 -41 -63.5 -94t-22.5 -114q0 -60 22.5 -113t63.5 -94q40 -40 93 -63t114 -23q48 0 93.5 15t82.5 42q-17 -5 -35 -8.5t-35 -3.5q-65 0 -119 33.5t-86 90.5q-16 28 -24 59t-8 65
q0 69 32 125.5t86 89.5q27 17 56.5 25.5t62.5 8.5z" />
    <glyph glyph-name="spade" unicode="&#x2660;" horiz-adv-x="853" 
d="M458 281q13 -33 36 -63t58 -49q17 -10 37.5 -14.5t44.5 -4.5q43 0 77.5 21t54.5 55q11 18 16 37t5 40q0 56 -21.5 102.5t-70.5 96.5q-24 25 -56.5 53.5t-72.5 60.5l-136 108l-136 -108q-80 -64 -131 -114t-74 -97q-12 -23 -18 -48.5t-6 -53.5q0 -42 23 -76.5t60 -55.5
q19 -11 40 -16t43 -5q45 0 77.5 19t53.5 49q11 15 19.5 30.5t14.5 32.5q0 -58 -17.5 -113t-39.5 -99l-19.5 -39t-15.5 -30h251q-9 19 -25 48.5t-33 66.5q-16 38 -27.5 80t-11.5 86z" />
    <glyph glyph-name="club" unicode="&#x2663;" horiz-adv-x="853" 
d="M621 127q48 0 86.5 23.5t61.5 62.5q12 20 17.5 41.5t5.5 45.5q0 48 -22.5 86.5t-61.5 61.5q-19 12 -40.5 17.5t-45.5 5.5q-12 0 -23.5 -2t-22.5 -6q10 21 14.5 43t4.5 44q0 47 -23 85.5t-61 60.5q-20 12 -41 17.5t-45 5.5q-47 0 -86.5 -22.5t-62.5 -61.5q-11 -19 -17 -40
t-6 -45q0 -22 5.5 -43.5t14.5 -41.5l-20 4t-21 2q-47 0 -86.5 -23t-62.5 -62q-11 -19 -17 -40.5t-6 -45.5q0 -48 23 -87t62 -63q20 -11 41.5 -17t45.5 -6q57 0 100 33t63 83q-6 -51 -23 -98.5t-36 -84.5q-9 -19 -17 -34t-14 -26h251q-11 22 -31 59.5t-38 84.5
q-9 24 -15.5 48.5t-9.5 50.5q20 -50 61.5 -83t97.5 -33z" />
    <glyph glyph-name="heart" unicode="&#x2665;" horiz-adv-x="853" 
d="M424 -17l136 153q82 90 131.5 159t71.5 127q12 29 17.5 57.5t5.5 56.5q0 50 -25 91.5t-67 66.5q-21 13 -44 19t-48 6q-74 0 -122 -44.5t-56 -111.5q-5 45 -29.5 80t-62.5 56q-20 10 -41.5 15t-46.5 5q-50 0 -90.5 -25t-63.5 -66q-12 -21 -18 -44t-6 -48q0 -56 21.5 -114
t70.5 -127q24 -35 56.5 -74.5t72.5 -84.5z" />
    <glyph glyph-name="diamond" unicode="&#x2666;" horiz-adv-x="853" 
d="M109 360l318 -370l316 370l-316 367z" />
    <glyph glyph-name="uni267B" unicode="&#x267b;" horiz-adv-x="781" 
d="M327 673l13.5 -2.5t31.5 -12.5q9 -5 17 -13t14 -19l60 -105l-33 -20l143 -27l53 141l-37 -21l-24 41q-16 28 -34.5 33t-41.5 6h-162v-1zM155 522l126 -72l97 168q-8 16 -31.5 28t-52.5 14q-15 1 -28 -2t-26 -10q-10 -5 -17.5 -13t-10.5 -13zM663 462l-125 -71l97 -168
q18 0 40 14t39 38q8 12 12 25t4 28q0 11 -2.5 21t-5.5 15zM144 124l-4.5 13.5t-4.5 34.5q0 10 3 20.5t9 21.5q1 2 10 18t21 36t21 35.5l9 15.5l34 -21l-49 140l-147 -26l36 -21l-24 -41q-16 -28 -11.5 -47t15.5 -39l80 -140h2zM712 244l-10 -11t-28 -22q-9 -5 -19.5 -8
t-23.5 -3h-121v42l-94 -114l94 -114v41h48q33 0 47 14t26 33l82 141zM362 55v145h-194q-9 -15 -8 -41t14 -52q6 -13 15.5 -23t22.5 -18q10 -6 20 -8.5t17 -2.5h113z" />
    <glyph glyph-name="uni267C" unicode="&#x267c;" horiz-adv-x="781" 
d="M726 350q0 70 -26 131t-72 108q-46 46 -106.5 72t-129.5 26q-70 0 -131 -26t-107 -72q-47 -47 -73 -108t-26 -131q0 -69 26 -129.5t73 -106.5q46 -46 107 -71.5t131 -25.5q69 0 129.5 25.5t106.5 71.5t72 106.5t26 129.5zM335 606h126q19 0 33 -4.5t27 -26.5l18 -31
l28 15l-39 -109l-112 21l26 16l-47 81q-9 17 -23.5 24.5t-25.5 10.5q-5 1 -8 1.5l-3 0.5v1zM251 564q2 5 8 11t13 10q20 12 42 10t40 -11q9 -5 15.5 -10.5t9.5 -11.5l-74 -130l-98 56zM644 366q3 -5 5.5 -12t2.5 -16q0 -23 -12.5 -42t-29.5 -31q-8 -5 -16 -8t-15 -3l-76 131
l98 57zM197 179l-63 108q-7 17 -11.5 31t8.5 36l19 32l-27 17l112 19l39 -108l-27 17l-47 -81q-9 -17 -9 -33.5t4 -26.5q1 -6 2 -8.5l1 -2.5h-1zM638 270l-63 -108q-9 -14 -19.5 -24.5t-36.5 -10.5h-37v-33l-74 88l74 87v-30h93q20 0 34 8t21 16q3 4 5 6l2 2zM276 127
q-5 0 -13 2t-16 6q-19 11 -29 31t-11 40q-1 10 0.5 18.5t5.5 14.5h151v-112h-88z" />
    <glyph glyph-name="uni267D" unicode="&#x267d;" horiz-adv-x="781" 
d="M726 350q0 70 -26 131t-72 108q-46 46 -106.5 72t-129.5 26q-70 0 -131 -26t-107 -72q-47 -47 -73 -108t-26 -131q0 -69 26 -129.5t73 -106.5q46 -46 107 -71.5t131 -25.5q69 0 129.5 25.5t106.5 71.5t72 106.5t26 129.5zM709 350q0 -66 -24.5 -123.5t-68.5 -100.5
q-43 -44 -100.5 -68.5t-123.5 -24.5t-124 24.5t-102 68.5q-44 43 -69 100.5t-25 123.5q0 67 25 125t69 102t102 68.5t124 24.5t123.5 -24.5t100.5 -68.5q44 -44 68.5 -102t24.5 -125zM335 605l11 -2.5t25 -10.5q7 -4 13 -10t11 -14l47 -81l-26 -16l112 -21l39 109l-28 -15
l-18 31q-13 22 -27 26.5t-33 4.5h-126v-1zM207 488l98 -56l74 130q-6 13 -24.5 22t-40.5 11q-11 1 -21.5 -1.5t-20.5 -8.5q-7 -4 -13 -10t-8 -11zM601 442l-98 -57l76 -131q14 0 31 11.5t30 30.5q6 9 9 20t3 22q0 9 -2.5 16t-5.5 12zM198 179l-3.5 10.5t-3.5 27.5
q0 8 2 16.5t7 16.5l47 81l27 -17l-39 108l-112 -19l27 -17l-19 -32q-13 -22 -8.5 -36t11.5 -31l63 -108h1zM637 271l-7 -8t-21 -16q-7 -4 -15.5 -6t-18.5 -2h-93v30l-74 -87l74 -88v33h37q26 0 36.5 10.5t19.5 24.5l63 108zM364 127v112h-151q-7 -12 -6 -32.5t11 -40.5
q5 -10 12 -17.5t17 -13.5q8 -4 16 -6t13 -2h88z" />
    <glyph glyph-name="uni2E18" unicode="&#x2e18;" horiz-adv-x="817" 
d="M405 595q-83 0 -117.5 -24t-34.5 -86q0 -63 35.5 -87t116.5 -24q80 0 115.5 24t35.5 87q0 42 -13 66t-46 34q-17 5 -39.5 7.5t-52.5 2.5zM406 -152q200 0 290 71.5t93 212.5h-217q0 -44 -18.5 -70t-59.5 -37q0 101 -2 157t-4 87q-1 21 -2.5 38t-5.5 31q-11 -2 -30 -3
t-46 -1q-25 0 -42 1t-31 2l-5 -29q-5 -28 -28.5 -43.5t-57.5 -26.5q-33 -10 -69.5 -21t-68.5 -29t-52 -49t-20 -82q0 -105 93 -157t283 -52zM244 84q0 21 12.5 30.5t32.5 17.5q10 4 21 10.5t23 14.5q-2 -31 -4 -67.5t-2 -69.5q-41 6 -62 22t-21 42z" />
    <glyph glyph-name="uni3008" unicode="&#x3008;" horiz-adv-x="466" 
d="M492 -175l-231 480l221 459h-245l-226 -465l226 -474h255z" />
    <glyph glyph-name="uni3009" unicode="&#x3009;" horiz-adv-x="466" 
d="M231 -175l224 474l-224 465h-246l220 -459l-231 -480h257z" />
    <glyph glyph-name="Aumlaut" horiz-adv-x="889" 
d="M786 540q53 0 75.5 19.5t22.5 70.5q0 52 -23.5 71.5t-74.5 19.5t-72.5 -19.5t-21.5 -71.5q0 -46 21 -68t73 -22zM101 540q52 0 75 22t23 68q0 52 -24 71.5t-74 19.5q-49 0 -72 -19.5t-23 -71.5t21 -71t74 -19zM532 293h-175l87 209zM655 0h251l-323 717h-275l-325 -717
h253l51 123h316z" />
    <glyph glyph-name="Oumlaut" horiz-adv-x="928" 
d="M851 621q27 0 41.5 11t14.5 39t-15 38.5t-41 10.5q-27 0 -41.5 -10.5t-14.5 -38.5t14.5 -39t41.5 -11zM81 621q26 0 41 12t15 38q0 28 -14 38.5t-42 10.5q-26 0 -40.5 -10.5t-14.5 -38.5q0 -29 13.5 -39.5t41.5 -10.5zM464 -20q130 0 227 40.5t151 123.5q27 42 40.5 94
t13.5 115v4q0 120 -55 204.5t-152 129.5q-48 22 -104 33t-119 11q-128 0 -226 -45t-153 -130q-27 -42 -41 -93t-14 -111v-2q0 -128 52.5 -211t149.5 -123q49 -20 106.5 -30t123.5 -10zM463 192q-85 0 -133.5 40.5t-48.5 121.5v1q0 85 49 126.5t134 41.5q84 0 133.5 -40.5
t49.5 -128.5q0 -86 -49.5 -124t-134.5 -38z" />
    <glyph glyph-name="Uumlaut" horiz-adv-x="890" 
d="M508 484q27 0 40 26t13 92q0 68 -13 94t-40 26q-26 0 -38.5 -26t-12.5 -94q0 -67 11 -92.5t40 -25.5zM380 484q28 0 39.5 26t11.5 92q0 68 -12.5 94t-38.5 26q-27 0 -39 -26t-12 -94q0 -67 11.5 -92.5t39.5 -25.5zM445 -20q126 0 214 41t134 129q23 45 34.5 103t11.5 129
v335h-250v-333q0 -102 -35.5 -141.5t-106.5 -39.5q-72 0 -109 40t-37 141v333h-250v-335q0 -141 41 -230t128 -130q44 -21 100 -31.5t125 -10.5z" />
    <glyph glyph-name="I.alt" horiz-adv-x="370" 
d="M307 0v717h-244v-717h244z" />
    <glyph glyph-name="Iacute.alt" horiz-adv-x="370" 
d="M63 0zM307 0v717h-244v-717h244zM99 788h167l223 223h-226z" />
    <glyph glyph-name="Ibreve.alt" horiz-adv-x="370" 
d="M0 0zM307 0v717h-244v-717h244zM185 785q127 0 189 59t62 172h-150q0 -50 -24 -70.5t-77 -20.5t-76.5 20.5t-23.5 70.5h-148q0 -113 56 -172t192 -59z" />
    <glyph glyph-name="Icircumflex.alt" horiz-adv-x="370" 
d="M0 0zM307 0v717h-244v-717h244zM264 788h170l-172 237h-150l-173 -237h170l78 118z" />
    <glyph glyph-name="Idieresis.alt" horiz-adv-x="370" 
d="M0 0zM307 0v717h-244v-717h244zM318 785q58 0 82.5 22t24.5 77q0 58 -25.5 79.5t-81.5 21.5t-80.5 -21.5t-24.5 -79.5q0 -57 22 -78t83 -21zM54 785q58 0 82.5 22t24.5 77q0 58 -25.5 79.5t-81.5 21.5q-55 0 -80.5 -21.5t-25.5 -79.5q0 -57 22.5 -78t83.5 -21z" />
    <glyph glyph-name="Idotaccent.alt" horiz-adv-x="370" 
d="M63 0zM307 0v717h-244v-717h244zM187 783q66 0 94.5 24t28.5 90q0 67 -29 90t-94 23t-94 -23t-29 -90q0 -45 11 -70t38 -34q13 -5 31.5 -7.5t42.5 -2.5z" />
    <glyph glyph-name="Igrave.alt" horiz-adv-x="370" 
d="M0 0zM307 0v717h-244v-717h244zM111 788h160l-155 223h-227z" />
    <glyph glyph-name="Imacron.alt" horiz-adv-x="370" 
d="M0 0zM307 0v717h-244v-717h244zM-11 790h401v146h-401v-146z" />
    <glyph glyph-name="Iogonek.alt" horiz-adv-x="370" 
d="M428 -127h-179q-6 -24 -20.5 -35.5t-37.5 -11.5q-22 0 -35.5 10t-13.5 27q0 15 11.5 31t46.5 40q17 12 44 28.5t62 37.5h1v717h-244v-717h8q-56 -40 -74 -76.5t-18 -73.5q0 -70 51.5 -109t149.5 -39q99 0 161 42.5t87 128.5z" />
    <glyph glyph-name="Itilde.alt" horiz-adv-x="370" 
d="M0 0zM307 0v717h-244v-717h244zM-80 784h130q1 29 9.5 42t29.5 13t42 -9t44 -21t50.5 -21t62.5 -9q87 0 121 50.5t34 151.5h-130q-1 -28 -10 -40t-32 -12q-24 0 -52.5 14.5t-63.5 29.5q-17 7 -37 10.5t-43 3.5q-85 0 -120 -53t-35 -150z" />
    <glyph glyph-name="i.dot" horiz-adv-x="353" 
d="M38 0zM178 619q71 0 106 24.5t35 80.5q0 58 -36.5 81.5t-104.5 23.5t-104 -23.5t-36 -81.5t32.5 -81.5t107.5 -23.5zM53 0h247v578q-7 -6 -28.5 -10.5t-47.5 -7.5q-13 -1 -24.5 -1.5t-22.5 -0.5q-20 0 -46.5 2.5t-48.5 6.5q-11 2 -18.5 5t-10.5 6v-578z" />
    <glyph glyph-name="cordinal" horiz-adv-x="592" 
d="M577 500h-186q-4 -23 -25.5 -37t-69.5 -14q-49 0 -72.5 19.5t-23.5 53.5q0 39 24.5 58.5t72.5 19.5q46 0 69 -14.5t26 -40.5h185q-6 89 -79 140t-201 51q-86 0 -148.5 -27t-95.5 -75q-16 -24 -24.5 -52.5t-8.5 -60.5q0 -64 27.5 -111t87.5 -73q30 -12 70 -18.5t89 -6.5
q137 0 207 50.5t76 137.5z" />
    <glyph glyph-name="g.alt" horiz-adv-x="802" 
d="M807 -32v3q0 95 -68 136t-228 41h-184q-79 0 -105.5 4.5t-26.5 18.5q0 11 9.5 17.5t38.5 9.5q15 1 36.5 2t50.5 1h93q190 0 272 46.5t82 143.5q0 77 -47 118.5t-146 54.5q-26 5 -64.5 7.5t-84.5 4.5l76 -3q89 0 142.5 0.5t80.5 7.5q27 6 36.5 22t9.5 46v5h-252v-13
q0 -23 -6 -33.5t-29 -13.5q-12 -1 -30.5 -1.5t-43.5 -0.5h-32q-183 0 -269 -53.5t-86 -146.5q0 -72 41.5 -108.5t127.5 -50.5q-100 -9 -142.5 -42.5t-42.5 -86.5q0 -58 46.5 -85t147.5 -31q-109 -7 -154 -36.5t-45 -78.5q0 -40 31 -67.5t106 -41.5q38 -7 90 -10.5t118 -3.5
h54q210 0 303.5 54.5t93.5 163.5zM406 337q-79 0 -111.5 10t-32.5 40q0 31 30 44t104 14h16q81 0 112.5 -13t31.5 -43q0 -28 -34.5 -40t-115.5 -12zM404 -103q-89 0 -127 9.5t-38 34.5v1q0 24 27 34.5t92 10.5h129q48 0 71.5 -4.5t30.5 -12.5q4 -5 6 -10.5t2 -11.5v-3
q0 -14 -13 -24.5t-48 -17.5q-18 -3 -42.5 -4.5t-57.5 -1.5h-32z" />
    <glyph glyph-name="g.alt2" 
d="M418 182q-76 0 -110.5 28t-34.5 86q0 59 35.5 90.5t108.5 31.5q70 0 107.5 -31.5t37.5 -90.5q0 -57 -36 -85.5t-108 -28.5zM411 -228q197 0 290.5 63.5t93.5 183.5v561h-203l-16 -102q-33 55 -94 85t-147 30q-90 0 -158.5 -35.5t-107.5 -102.5q-20 -34 -29.5 -74.5
t-9.5 -88.5q0 -96 40.5 -158t109.5 -93q34 -15 72.5 -22.5t80.5 -7.5q89 0 143.5 26.5t81.5 75.5v-102q0 -38 -29 -61.5t-105 -23.5q-64 0 -89.5 14t-33.5 43h-265q11 -70 48.5 -117t116.5 -70q39 -12 91.5 -18t118.5 -6z" />
    <glyph glyph-name="uni0123.alt" 
d="M30 0zM418 182q-76 0 -110.5 28t-34.5 86q0 59 35.5 90.5t108.5 31.5q70 0 107.5 -31.5t37.5 -90.5q0 -57 -36 -85.5t-108 -28.5zM411 -228q197 0 290.5 63.5t93.5 183.5v561h-203l-16 -102q-33 55 -94 85t-147 30q-90 0 -158.5 -35.5t-107.5 -102.5q-20 -34 -29.5 -74.5
t-9.5 -88.5q0 -96 40.5 -158t109.5 -93q34 -15 72.5 -22.5t80.5 -7.5q89 0 143.5 26.5t81.5 75.5v-102q0 -38 -29 -61.5t-105 -23.5q-64 0 -89.5 14t-33.5 43h-265q11 -70 48.5 -117t116.5 -70q39 -12 91.5 -18t118.5 -6zM428 652q68 0 95.5 18.5t27.5 64.5q0 50 -24 64.5
t-81 14.5q-11 0 -22.5 -1t-23.5 -4q8 29 39.5 41.5t89.5 13.5v75q-88 -1 -137 -22.5t-69 -60.5q-10 -20 -15 -43.5t-5 -50.5q0 -64 28 -87t97 -23z" />
    <glyph glyph-name="gcircumflex.alt" 
d="M30 0zM418 182q-76 0 -110.5 28t-34.5 86q0 59 35.5 90.5t108.5 31.5q70 0 107.5 -31.5t37.5 -90.5q0 -57 -36 -85.5t-108 -28.5zM411 -228q197 0 290.5 63.5t93.5 183.5v561h-203l-16 -102q-33 55 -94 85t-147 30q-90 0 -158.5 -35.5t-107.5 -102.5q-20 -34 -29.5 -74.5
t-9.5 -88.5q0 -96 40.5 -158t109.5 -93q34 -15 72.5 -22.5t80.5 -7.5q89 0 143.5 26.5t81.5 75.5v-102q0 -38 -29 -61.5t-105 -23.5q-64 0 -89.5 14t-33.5 43h-265q11 -70 48.5 -117t116.5 -70q39 -12 91.5 -18t118.5 -6zM507 648h170l-172 237h-150l-173 -237h170l78 118z
" />
    <glyph glyph-name="gdotaccent.alt" 
d="M30 0zM418 182q-76 0 -110.5 28t-34.5 86q0 59 35.5 90.5t108.5 31.5q70 0 107.5 -31.5t37.5 -90.5q0 -57 -36 -85.5t-108 -28.5zM411 -228q197 0 290.5 63.5t93.5 183.5v561h-203l-16 -102q-33 55 -94 85t-147 30q-90 0 -158.5 -35.5t-107.5 -102.5q-20 -34 -29.5 -74.5
t-9.5 -88.5q0 -96 40.5 -158t109.5 -93q34 -15 72.5 -22.5t80.5 -7.5q89 0 143.5 26.5t81.5 75.5v-102q0 -38 -29 -61.5t-105 -23.5q-64 0 -89.5 14t-33.5 43h-265q11 -70 48.5 -117t116.5 -70q39 -12 91.5 -18t118.5 -6zM430 643q66 0 94.5 24t28.5 90q0 67 -29 90t-94 23
t-94 -23t-29 -90q0 -45 11 -70t38 -34q13 -5 31.5 -7.5t42.5 -2.5z" />
    <glyph glyph-name="gbreve.alt" 
d="M30 0zM418 182q-76 0 -110.5 28t-34.5 86q0 59 35.5 90.5t108.5 31.5q70 0 107.5 -31.5t37.5 -90.5q0 -57 -36 -85.5t-108 -28.5zM411 -228q197 0 290.5 63.5t93.5 183.5v561h-203l-16 -102q-33 55 -94 85t-147 30q-90 0 -158.5 -35.5t-107.5 -102.5q-20 -34 -29.5 -74.5
t-9.5 -88.5q0 -96 40.5 -158t109.5 -93q34 -15 72.5 -22.5t80.5 -7.5q89 0 143.5 26.5t81.5 75.5v-102q0 -38 -29 -61.5t-105 -23.5q-64 0 -89.5 14t-33.5 43h-265q11 -70 48.5 -117t116.5 -70q39 -12 91.5 -18t118.5 -6zM428 645q127 0 189 59t62 172h-150q0 -50 -24 -70.5
t-77 -20.5t-76.5 20.5t-23.5 70.5h-148q0 -113 56 -172t192 -59z" />
    <glyph glyph-name="caronSlovak" horiz-adv-x="672" 
d="M223 692h140l121 214h-191z" />
    <glyph glyph-name="altcedilla" horiz-adv-x="672" 
d="M339 -348q113 0 173 45.5t60 121.5q0 72 -50 114t-153 42h-112v-111h87q43 0 58 -13.5t15 -32.5q0 -21 -18 -34t-56 -13q-37 0 -58 13t-27 39h-179q20 -85 81 -128t179 -43z" />
    <glyph glyph-name="uni00200326" horiz-adv-x="674" 
d="M232 -334q89 1 138 22.5t68 60.5q10 20 15 43.5t5 50.5q0 64 -28 87t-97 23q-67 0 -95 -18.5t-28 -64.5q0 -50 24 -64.5t81 -14.5q12 0 23.5 1.5t22.5 3.5q-7 -29 -38.5 -41.5t-90.5 -13.5v-75z" />
    <glyph glyph-name="uni00200323" horiz-adv-x="674" 
d="M331 -299q68 0 97.5 24.5t29.5 92.5q0 70 -29.5 93.5t-97.5 23.5t-98 -23.5t-30 -93.5q0 -47 11.5 -72.5t39.5 -34.5q14 -5 33 -7.5t44 -2.5z" />
    <glyph glyph-name="doublegrave" horiz-adv-x="672" 
d="M462 671h138l-127 223h-196zM229 671h138l-143 223h-199z" />
    <glyph glyph-name="invertedbreve" horiz-adv-x="672" 
d="M339 899q-129 0 -192.5 -59.5t-63.5 -170.5h153q0 50 24.5 70.5t76.5 21.5q54 -1 77.5 -21.5t23.5 -70.5h152q0 111 -57 170.5t-194 59.5z" />
    <glyph glyph-name="uni00200326.alt" horiz-adv-x="674" 
d="M332 670q68 0 95.5 18.5t27.5 64.5q0 50 -24 64.5t-81 14.5q-11 0 -22.5 -1t-23.5 -4q8 29 39.5 41.5t89.5 13.5v75q-88 -1 -137 -22.5t-69 -60.5q-10 -20 -15 -43.5t-5 -50.5q0 -64 28 -87t97 -23z" />
    <glyph glyph-name="exclamdown.cap" horiz-adv-x="414" 
d="M208 732q-76 0 -109 -25.5t-33 -92.5q0 -68 34 -93.5t108 -25.5t108 25.5t34 93.5q0 46 -13 71.5t-44 35.5q-15 6 -36.5 8.5t-48.5 2.5zM351 0v76q0 95 -12 170.5t-28 125.5q-7 25 -13.5 41.5t-11.5 24.5q-12 -2 -34 -4t-48 -2t-46 2t-35 4q-9 -16 -24.5 -66t-28.5 -126
q-6 -38 -9 -80.5t-3 -89.5v-76h293z" />
    <glyph glyph-name="questiondown.cap" 
d="M353 485l-2 -14q-5 -37 -38 -52.5t-92 -30.5q-47 -12 -84.5 -32t-59.5 -55q-10 -18 -15.5 -41t-5.5 -52q0 -106 88 -165.5t287 -59.5q194 0 294 68t107 214h-243q-1 -48 -38 -69t-123 -21q-54 0 -82.5 5.5t-39.5 16.5q-5 5 -7.5 11.5t-2.5 13.5q0 21 29 32t88 23
q48 9 85 24.5t59 44.5q10 14 15.5 33t5.5 43v6q0 17 -2 31.5t-5 24.5q-13 -7 -40 -11.5t-69 -4.5t-68 4.5t-41 12.5zM462 731q-82 0 -117 -24.5t-35 -86.5t36 -86t116 -24q81 0 116 24t35 86q0 43 -13 67t-46 34q-17 5 -39.5 7.5t-52.5 2.5z" />
    <glyph glyph-name="uni2E18.cap" horiz-adv-x="817" 
d="M405 731q-83 0 -117.5 -24t-34.5 -86q0 -63 35.5 -87t116.5 -24q80 0 115.5 24t35.5 87q0 42 -13 66t-46 34q-17 5 -39.5 7.5t-52.5 2.5zM406 -16q200 0 290 72t93 212h-217q0 -44 -18.5 -70t-59.5 -37q0 101 -2 157t-4 87q-1 21 -2.5 38t-5.5 31q-11 -2 -30 -3t-46 -1
q-25 0 -42 1t-31 2l-5 -29q-5 -28 -28.5 -43.5t-57.5 -26.5q-33 -10 -69.5 -21t-68.5 -29t-52 -49.5t-20 -82.5q0 -104 93 -156t283 -52zM244 220q0 21 12.5 30.5t32.5 17.5q10 4 21 10.5t23 14.5q-2 -31 -4 -67.5t-2 -69.5q-41 6 -62 22t-21 42z" />
    <glyph glyph-name="guilsinglleft.cap" horiz-adv-x="514" 
d="M480 132l-200 233l179 227h-212l-176 -224v-24l185 -212h224z" />
    <glyph glyph-name="guilsinglright.cap" horiz-adv-x="514" 
d="M258 135l185 211v25l-176 223h-212l180 -226l-201 -233h224z" />
    <glyph glyph-name="guillemotleft.cap" horiz-adv-x="831" 
d="M794 135l-204 236l180 223h-199l-176 -219v-27l193 -213h206zM465 135l-197 231l183 228h-199l-181 -225v-22l186 -212h208z" />
    <glyph glyph-name="guillemotright.cap" horiz-adv-x="831" 
d="M243 135l193 213v27l-176 219h-198l179 -222l-204 -237h206zM574 135l186 212v22l-181 225h-199l182 -229l-196 -230h208z" />
    <glyph glyph-name="slash.cap" horiz-adv-x="501" 
d="M254 0l262 717h-268l-262 -717h268z" />
    <glyph glyph-name="backslash.cap" horiz-adv-x="501" 
d="M-19 717l277 -717h261l-276 717h-262z" />
    <glyph glyph-name="bar.cap" horiz-adv-x="382" 
d="M309 -114v963h-235v-963h235z" />
    <glyph glyph-name="uni2016.cap" horiz-adv-x="722" 
d="M649 -118v967h-220v-967h220zM294 -118v967h-220v-967h220z" />
    <glyph glyph-name="brokenbar.cap" horiz-adv-x="382" 
d="M74 416h235v433h-235v-433zM309 328h-235v-442h235v442z" />
    <glyph glyph-name="bullet.cap" horiz-adv-x="477" 
d="M238 92q78 0 114.5 32.5t36.5 114.5q0 84 -36.5 115.5t-114.5 31.5q-76 0 -113 -33.5t-37 -113.5q0 -82 34 -114.5t116 -32.5z" />
    <glyph glyph-name="onethirdemdash" horiz-adv-x="500" 
d="M455 421h-409v-226h409v226z" />
    <glyph glyph-name="threequarteremdash" horiz-adv-x="745" 
d="M700 421h-654v-226h654v226z" />
    <glyph glyph-name="periodcentered.cap" horiz-adv-x="396" 
d="M197 228q77 0 109.5 26.5t32.5 99.5q0 75 -34 100.5t-108 25.5t-108 -25.5t-34 -100.5q0 -50 13 -77.5t44 -38.5q15 -5 36.5 -7.5t48.5 -2.5z" />
    <glyph glyph-name="hyphen.cap" horiz-adv-x="660" 
d="M614 472h-568v-225h568v225z" />
    <glyph glyph-name="onethirdemdash.cap" horiz-adv-x="660" 
d="M614 472h-568v-225h568v225z" />
    <glyph glyph-name="endash.cap" horiz-adv-x="500" 
d="M455 472h-409v-225h409v225z" />
    <glyph glyph-name="threequarteremdash.cap" horiz-adv-x="610" 
d="M565 472h-519v-225h519v225z" />
    <glyph glyph-name="emdash.cap" horiz-adv-x="745" 
d="M700 472h-654v-225h654v225z" />
    <glyph glyph-name="figuredash.cap" horiz-adv-x="880" 
d="M835 472h-789v-225h789v225z" />
    <glyph glyph-name="uni2015.cap" horiz-adv-x="765" 
d="M720 472h-674v-225h674v225z" />
    <glyph glyph-name="periodcentered.smcp" horiz-adv-x="1340" 
d="M1295 472h-1249v-225h1249v225z" />
    <glyph glyph-name="parenleft.cap" horiz-adv-x="503" 
d="M480 -124v225q-68 4 -110 25t-61 73q-10 26 -14.5 62.5t-4.5 83.5q0 101 17.5 158t59.5 82q20 13 48.5 20.5t64.5 9.5v212q-141 -4 -239 -51t-149 -151q-25 -52 -38 -122t-13 -158q0 -133 27 -222t81 -142q55 -53 137.5 -77.5t193.5 -27.5z" />
    <glyph glyph-name="parenright.cap" horiz-adv-x="503" 
d="M23 -124q111 3 193.5 27.5t137.5 77.5q54 53 81 142t27 222q0 176 -51 280t-149 151q-49 23 -108.5 36t-130.5 15v-212q72 -4 113.5 -29.5t59.5 -82.5q8 -28 12.5 -67.5t4.5 -90.5q0 -95 -19 -146.5t-61 -73.5q-21 -10 -48.5 -16.5t-61.5 -8.5v-224z" />
    <glyph glyph-name="bracketleft.cap" horiz-adv-x="507" 
d="M484 63h-188v580h188v179h-422v-939h422v180z" />
    <glyph glyph-name="bracketright.cap" horiz-adv-x="507" 
d="M446 -117v938h-422v-178h187v-580h-187v-180h422z" />
    <glyph glyph-name="braceleft.cap" horiz-adv-x="555" 
d="M533 -117v178h-77q-49 0 -69 12t-20 34q0 16 11 32.5t26 35.5q14 18 25 39.5t11 46.5q0 24 -15 44t-51 32q-19 6 -44 9t-58 3v19q66 0 102 11t50 31q7 10 10.5 21.5t3.5 24.5q0 25 -11.5 44.5t-26.5 34.5q-16 16 -27.5 29.5t-11.5 26.5q0 25 20.5 39.5t72.5 14.5h79v177
h-223q-107 0 -151.5 -36t-44.5 -104q0 -29 11.5 -52.5t26.5 -43.5t26.5 -38.5t11.5 -36.5q0 -25 -16.5 -38.5t-56.5 -13.5h-96v-202h107q38 0 56.5 -13.5t18.5 -41.5q0 -18 -14 -37t-33 -42q-19 -22 -33 -47.5t-14 -55.5q0 -68 45 -102.5t151 -34.5h228z" />
    <glyph glyph-name="braceright.cap" horiz-adv-x="555" 
d="M23 -117h225q107 0 151.5 34t44.5 102q0 30 -13.5 56t-31.5 49q-18 22 -31.5 42t-13.5 38q0 27 19.5 40t57.5 13h104v202h-103q-39 0 -55.5 13.5t-16.5 40.5q0 18 13 36t30 37q16 20 29 43.5t13 52.5q0 68 -44.5 104t-152.5 36h-225v-177h79q53 0 72.5 -14t19.5 -35
q0 -16 -11.5 -30t-25.5 -30q-15 -15 -26.5 -34t-11.5 -44t14 -46t49 -33q18 -6 43.5 -9t57.5 -3v-19q-65 1 -101 -10.5t-50 -31.5q-7 -9 -10.5 -20t-3.5 -23q0 -26 10.5 -47.5t25.5 -40.5q14 -18 24.5 -34t10.5 -30q0 -25 -20.5 -37.5t-69.5 -12.5h-76v-178z" />
    <glyph glyph-name="anglebracketleft.cap" horiz-adv-x="466" 
d="M492 -117l-231 480l221 459h-245l-226 -465l226 -474h255z" />
    <glyph glyph-name="anglebracketright.cap" horiz-adv-x="466" 
d="M231 -117l224 474l-224 465h-246l220 -459l-231 -480h257z" />
    <glyph glyph-name="underscore" horiz-adv-x="824" 
d="M807 210h-790v-210h790v210z" />
    <glyph glyph-name="at.cap" horiz-adv-x="936" 
d="M472 -67q123 0 217 42t152 130l-167 32q-31 -37 -78.5 -56.5t-121.5 -19.5q-106 0 -173.5 38t-100.5 101q-16 32 -24 67t-8 73q0 87 37 151.5t108 99.5q35 18 78 27t93 9q104 0 167.5 -31t91.5 -83q15 -26 22 -54t7 -59q0 -50 -11.5 -77t-38.5 -27q-23 0 -32.5 17.5
t-9.5 60.5v144h-102l-22 -55q-18 32 -51 47.5t-81 15.5q-55 0 -94.5 -24t-60.5 -65q-10 -21 -15.5 -44.5t-5.5 -49.5q0 -79 44.5 -129t129.5 -50q54 0 90 20t53 55q21 -34 58.5 -51.5t91.5 -17.5q90 0 143.5 59.5t53.5 173.5q0 68 -26.5 131t-79.5 113t-133.5 79.5
t-187.5 29.5q-137 0 -240 -52.5t-159 -146.5q-29 -47 -43 -102t-14 -117q0 -135 55.5 -225t155.5 -135q50 -23 108 -34t124 -11zM465 290q-33 0 -50 16t-17 38q0 25 16.5 42t52.5 17q30 0 46.5 -17.5t16.5 -40.5q0 -20 -15 -37.5t-50 -17.5z" />
    <glyph glyph-name="registered.cap" horiz-adv-x="923" 
d="M462 -20q131 0 228.5 41t152.5 125q27 42 40.5 95t13.5 117q0 118 -55.5 204.5t-152.5 133.5q-49 23 -105 35t-119 12q-128 0 -227 -47t-155 -134q-28 -43 -42 -94t-14 -110q0 -129 54 -212.5t151 -124.5q49 -21 106.5 -31t123.5 -10zM462 109q-136 0 -214 62t-78 188
q0 80 36.5 137.5t102.5 87.5q33 16 72 23.5t83 7.5q87 0 152 -30.5t101 -88.5q18 -28 27 -62.5t9 -74.5q0 -126 -78 -188t-213 -62zM476 434q33 0 45 -6.5t12 -23.5q0 -16 -12.5 -24.5t-46.5 -8.5h-72v63h74zM462 274q32 0 44 -7.5t12 -37.5v-29q0 -6 2.5 -12t8.5 -9h134
q-5 3 -8 8.5t-3 13.5v24q0 44 -11.5 65.5t-45.5 30.5q37 10 55 33t18 59q0 62 -42.5 93t-146.5 31h-204v-358h127v95h60z" />
    <glyph glyph-name="zero.inf" horiz-adv-x="445" 
d="M15 0zM219 -168q97 0 151 49.5t54 138.5q0 85 -54.5 137t-146.5 52q-63 0 -110 -24t-72 -67q-13 -21 -19.5 -45.5t-6.5 -52.5q0 -90 52 -139t152 -49zM218 -39q-28 0 -42 15.5t-14 43.5q0 26 14.5 42t42.5 16q29 0 43 -16t14 -42q0 -28 -15 -43.5t-43 -15.5z" />
    <glyph glyph-name="one.inf" horiz-adv-x="341" 
d="M16 0zM322 -158v124h-83v234h-112q-8 -31 -31 -50.5t-61 -21.5v-99h70v-63h-89v-124h306z" />
    <glyph glyph-name="two.inf" horiz-adv-x="416" 
d="M14 0zM390 -158v112h-221q20 8 48 14t59 13t57.5 19.5t43.5 33.5q9 11 13 24.5t4 30.5q0 53 -43 86t-138 33t-143.5 -36t-51.5 -109h142q0 17 12.5 26.5t41.5 9.5q26 0 35.5 -5.5t9.5 -15.5q0 -11 -17.5 -17t-45.5 -10q-28 -5 -59.5 -12t-59.5 -21t-45.5 -38t-17.5 -64
v-74h376z" />
    <glyph glyph-name="three.inf" horiz-adv-x="418" 
d="M6 0zM203 -167q102 0 150.5 30.5t48.5 85.5q0 36 -22.5 54.5t-63.5 25.5q37 7 57.5 24t20.5 51q0 43 -42.5 72.5t-135.5 29.5q-97 0 -148.5 -34t-53.5 -105h138q1 15 13 22t42 7q25 0 34 -5t9 -14q0 -8 -8.5 -12.5t-28.5 -4.5h-47v-79h50q26 0 34 -4t8 -12q0 -9 -10 -15
t-39 -6q-34 0 -46 7.5t-13 23.5h-144q2 -46 19.5 -77.5t60.5 -48.5q21 -8 50.5 -12t66.5 -4z" />
    <glyph glyph-name="four.inf" horiz-adv-x="426" 
d="M8 0zM229 4h-78l78 73v-73zM417 -100v104h-63v196h-117l-229 -209v-91h221v-58h125v58h63z" />
    <glyph glyph-name="five.inf" horiz-adv-x="427" 
d="M16 0zM215 -166q104 0 149 35.5t45 93.5q0 56 -31.5 83.5t-99.5 27.5q-36 0 -63.5 -9t-47.5 -24l9 52h94q46 0 71.5 8.5t35.5 31.5q5 12 8 28.5t3 38.5h-329l-32 -210l139 -24l3 3q8 9 20.5 15t32.5 6q21 0 31.5 -7.5t10.5 -23.5q0 -12 -10.5 -20t-34.5 -8q-19 0 -29 6
t-12 16h-162q7 -60 53.5 -89.5t145.5 -29.5z" />
    <glyph glyph-name="six.inf" horiz-adv-x="444" 
d="M20 0zM420 -37q0 54 -32 78.5t-100 24.5q-40 0 -75 -12.5t-58 -37.5v9q0 33 17.5 54.5t51.5 21.5q20 0 30 -4.5t15 -14.5h149q-13 66 -62 96.5t-131 30.5q-98 0 -151.5 -52.5t-53.5 -140.5q0 -55 19.5 -96.5t65.5 -64.5q23 -11 54.5 -17t70.5 -6q88 0 139 34.5t51 96.5z
M231 -55q-20 0 -35 5t-24 15q13 12 29.5 20.5t40.5 8.5q23 0 31.5 -6t8.5 -17q0 -13 -11.5 -19.5t-39.5 -6.5z" />
    <glyph glyph-name="seven.inf" horiz-adv-x="374" 
d="M7 0zM198 -158q25 66 65 129.5t102 123.5v105h-358v-120h201q-48 -43 -95 -107t-77 -131h162z" />
    <glyph glyph-name="eight.inf" horiz-adv-x="437" 
d="M13 0zM214 -166q104 0 154.5 26.5t50.5 82.5q0 30 -19 50.5t-51 30.5q29 10 45 28.5t16 46.5q0 53 -49.5 81t-142.5 28q-94 0 -141.5 -27.5t-47.5 -82.5q0 -27 14 -45.5t41 -28.5q-33 -10 -52 -31t-19 -52q0 -55 47.5 -81t153.5 -26zM213 55q-26 0 -39 5.5t-13 16.5
q0 12 14.5 17.5t42.5 5.5q32 0 46 -5.5t14 -17.5q0 -11 -13.5 -16.5t-41.5 -5.5h-10zM217 -58q-35 0 -49.5 5.5t-14.5 18.5q0 12 15 17.5t44 5.5h11q32 0 45.5 -5t13.5 -18t-15 -18.5t-50 -5.5z" />
    <glyph glyph-name="nine.inf" horiz-adv-x="434" 
d="M8 0zM199 44q-23 0 -35 6.5t-12 18.5q0 14 12.5 22t40.5 8q26 0 42 -7t23 -21q-12 -11 -28 -19t-43 -8zM206 -169q104 0 155.5 49.5t51.5 137.5q0 87 -49 138t-156 51q-96 0 -146 -36.5t-50 -98.5q0 -54 39 -77.5t105 -23.5q40 0 71.5 10.5t52.5 32.5q0 -34 -16 -55
t-57 -21q-18 0 -29 4.5t-15 12.5h-155q13 -67 65 -95.5t133 -28.5z" />
    <glyph glyph-name="plus.inf" horiz-adv-x="413" 
d="M41 0zM364 -42v119h-102v97h-120v-97h-101v-119h101v-98h120v98h102z" />
    <glyph glyph-name="minus.inf" horiz-adv-x="413" 
d="M41 0zM364 -46v128h-323v-128h323z" />
    <glyph glyph-name="equal.inf" horiz-adv-x="414" 
d="M52 0zM354 47v110h-302v-110h302zM354 -117v110h-302v-110h302z" />
    <glyph glyph-name="parenleft.inf" horiz-adv-x="329" 
d="M30 0zM301 -303v155q-40 5 -67 19.5t-41 47.5q-7 16 -10.5 39t-3.5 52q0 89 31 125.5t91 45.5v143q-82 -7 -143 -39t-94 -99q-17 -33 -25.5 -77.5t-8.5 -99.5q0 -110 32 -176t92 -98q31 -16 67.5 -25.5t79.5 -12.5z" />
    <glyph glyph-name="parenright.inf" horiz-adv-x="329" 
d="M22 0zM22 -303q86 6 146.5 38t92.5 98q16 33 24 77t8 99q0 111 -33.5 177.5t-94.5 98.5q-31 16 -66.5 26t-76.5 13v-143q59 -9 90 -45.5t31 -125.5q0 -58 -13.5 -91t-40.5 -48q-14 -7 -30.5 -12t-36.5 -7v-155z" />
    <glyph glyph-name="onesixteenth" horiz-adv-x="1548" 
d="M451 356v124h-82v234h-113q-8 -31 -30.5 -51t-60.5 -22v-98h70v-63h-90v-124h306zM975 0v124h-83v234h-112q-8 -31 -31 -50.5t-61 -21.5v-99h70v-63h-89v-124h306zM1424 121q0 54 -32 78.5t-100 24.5q-40 0 -75 -12.5t-58 -37.5v9q0 33 17.5 54.5t51.5 21.5q20 0 30 -4.5
t15 -14.5h149q-13 66 -62 96.5t-131 30.5q-98 0 -151.5 -52.5t-53.5 -140.5q0 -55 19.5 -96.5t65.5 -64.5q23 -11 54.5 -17t70.5 -6q88 0 139 34.5t51 96.5zM1235 103q-20 0 -35 5t-24 15q13 12 29.5 20.5t40.5 8.5q23 0 31.5 -6t8.5 -17q0 -13 -11.5 -19.5t-39.5 -6.5z
M676 397l386 223l-182 157l-257 -332zM516 356l-396 -239l184 -166l262 358z" />
    <glyph glyph-name="threesixteenths" horiz-adv-x="1548" 
d="M82 0zM685 397l386 223l-182 157l-257 -332zM525 356l-396 -239l184 -166l262 358zM1424 121q0 54 -32 78.5t-100 24.5q-40 0 -75 -12.5t-58 -37.5v9q0 33 17.5 54.5t51.5 21.5q20 0 30 -4.5t15 -14.5h149q-13 66 -62 96.5t-131 30.5q-98 0 -151.5 -52.5t-53.5 -140.5
q0 -55 19.5 -96.5t65.5 -64.5q23 -11 54.5 -17t70.5 -6q88 0 139 34.5t51 96.5zM1235 103q-20 0 -35 5t-24 15q13 12 29.5 20.5t40.5 8.5q23 0 31.5 -6t8.5 -17q0 -13 -11.5 -19.5t-39.5 -6.5zM279 347q102 0 150.5 30.5t48.5 85.5q0 36 -22.5 54.5t-63.5 25.5q37 7 57.5 24
t20.5 51q0 43 -42.5 72.5t-135.5 29.5q-97 0 -148.5 -34t-53.5 -105h138q1 15 13 22t42 7q25 0 34 -5t9 -14q0 -8 -8.5 -12.5t-28.5 -4.5h-47v-79h50q26 0 34 -4t8 -12q0 -9 -10 -15t-39 -6q-34 0 -46 7.5t-13 23.5h-144q2 -46 19.5 -77.5t60.5 -48.5q21 -8 50.5 -12
t66.5 -4zM975 1v124h-83v234h-112q-8 -31 -31 -50.5t-61 -21.5v-99h70v-63h-89v-124h306z" />
    <glyph glyph-name="fivesixteenths" horiz-adv-x="1548" 
d="M87 0zM685 397l386 223l-182 157l-257 -332zM525 356l-396 -239l184 -166l262 358zM1424 121q0 54 -32 78.5t-100 24.5q-40 0 -75 -12.5t-58 -37.5v9q0 33 17.5 54.5t51.5 21.5q20 0 30 -4.5t15 -14.5h149q-13 66 -62 96.5t-131 30.5q-98 0 -151.5 -52.5t-53.5 -140.5
q0 -55 19.5 -96.5t65.5 -64.5q23 -11 54.5 -17t70.5 -6q88 0 139 34.5t51 96.5zM1235 103q-20 0 -35 5t-24 15q13 12 29.5 20.5t40.5 8.5q23 0 31.5 -6t8.5 -17q0 -13 -11.5 -19.5t-39.5 -6.5zM286 348q104 0 149 35.5t45 93.5q0 56 -31.5 83.5t-99.5 27.5q-36 0 -63.5 -9
t-47.5 -24l9 52h94q46 0 71.5 8.5t35.5 31.5q5 12 8 28.5t3 38.5h-329l-32 -210l139 -24l3 3q8 9 20.5 15t32.5 6q21 0 31.5 -7.5t10.5 -23.5q0 -12 -10.5 -20t-34.5 -8q-19 0 -29 6t-12 16h-162q7 -60 53.5 -89.5t145.5 -29.5zM975 1v124h-83v234h-112q-8 -31 -31 -50.5
t-61 -21.5v-99h70v-63h-89v-124h306z" />
    <glyph glyph-name="sevensixteenths" horiz-adv-x="1548" 
d="M129 0zM685 397l386 223l-182 157l-257 -332zM525 356l-396 -239l184 -166l262 358zM1424 121q0 54 -32 78.5t-100 24.5q-40 0 -75 -12.5t-58 -37.5v9q0 33 17.5 54.5t51.5 21.5q20 0 30 -4.5t15 -14.5h149q-13 66 -62 96.5t-131 30.5q-98 0 -151.5 -52.5t-53.5 -140.5
q0 -55 19.5 -96.5t65.5 -64.5q23 -11 54.5 -17t70.5 -6q88 0 139 34.5t51 96.5zM1235 103q-20 0 -35 5t-24 15q13 12 29.5 20.5t40.5 8.5q23 0 31.5 -6t8.5 -17q0 -13 -11.5 -19.5t-39.5 -6.5zM365 356q25 66 65 129.5t102 123.5v105h-358v-120h201q-48 -43 -95 -107
t-77 -131h162zM975 1v124h-83v234h-112q-8 -31 -31 -50.5t-61 -21.5v-99h70v-63h-89v-124h306z" />
    <glyph glyph-name="ninesixteenths" horiz-adv-x="1548" 
d="M121 0zM685 397l386 223l-182 157l-257 -332zM525 356l-396 -239l184 -166l262 358zM1424 121q0 54 -32 78.5t-100 24.5q-40 0 -75 -12.5t-58 -37.5v9q0 33 17.5 54.5t51.5 21.5q20 0 30 -4.5t15 -14.5h149q-13 66 -62 96.5t-131 30.5q-98 0 -151.5 -52.5t-53.5 -140.5
q0 -55 19.5 -96.5t65.5 -64.5q23 -11 54.5 -17t70.5 -6q88 0 139 34.5t51 96.5zM1235 103q-20 0 -35 5t-24 15q13 12 29.5 20.5t40.5 8.5q23 0 31.5 -6t8.5 -17q0 -13 -11.5 -19.5t-39.5 -6.5zM312 558q-23 0 -35 6.5t-12 18.5q0 14 12.5 22t40.5 8q26 0 42 -7t23 -21
q-12 -11 -28 -19t-43 -8zM319 345q104 0 155.5 49.5t51.5 137.5q0 87 -49 138t-156 51q-96 0 -146 -36.5t-50 -98.5q0 -54 39 -77.5t105 -23.5q40 0 71.5 10.5t52.5 32.5q0 -34 -16 -55t-57 -21q-18 0 -29 4.5t-15 12.5h-155q13 -67 65 -95.5t133 -28.5zM975 1v124h-83v234
h-112q-8 -31 -31 -50.5t-61 -21.5v-99h70v-63h-89v-124h306z" />
    <glyph glyph-name="elevensixteenths" horiz-adv-x="1893" 
d="M451 356v124h-82v234h-113q-8 -31 -30.5 -51t-60.5 -22v-98h70v-63h-90v-124h306zM811 356v124h-83v234h-112q-8 -31 -31 -50.5t-61 -21.5v-99h70v-63h-89v-124h306zM1034 397l386 223l-182 157l-257 -332zM874 356l-396 -239l184 -166l262 358zM1334 0v124h-83v234h-112
q-8 -31 -31 -50.5t-61 -21.5v-99h70v-63h-89v-124h306zM1783 121q0 54 -32 78.5t-100 24.5q-40 0 -75 -12.5t-58 -37.5v9q0 33 17.5 54.5t51.5 21.5q20 0 30 -4.5t15 -14.5h149q-13 66 -62 96.5t-131 30.5q-98 0 -151.5 -52.5t-53.5 -140.5q0 -55 19.5 -96.5t65.5 -64.5
q23 -11 54.5 -17t70.5 -6q88 0 139 34.5t51 96.5zM1594 103q-20 0 -35 5t-24 15q13 12 29.5 20.5t40.5 8.5q23 0 31.5 -6t8.5 -17q0 -13 -11.5 -19.5t-39.5 -6.5z" />
    <glyph glyph-name="thirteensixteenths" horiz-adv-x="1930" 
d="M444 351v124h-83v234h-112q-8 -31 -31 -51t-61 -22v-98h70v-63h-89v-124h306zM1070 397l386 223l-182 157l-257 -332zM910 356l-396 -239l184 -166l262 358zM1807 122q0 54 -32 78.5t-100 24.5q-40 0 -75 -12.5t-58 -37.5v9q0 33 17.5 54.5t51.5 21.5q20 0 30 -4.5
t15 -14.5h149q-13 66 -62 96.5t-131 30.5q-98 0 -151.5 -52.5t-53.5 -140.5q0 -55 19.5 -96.5t65.5 -64.5q23 -11 54.5 -17t70.5 -6q88 0 139 34.5t51 96.5zM1618 104q-20 0 -35 5t-24 15q13 12 29.5 20.5t40.5 8.5q23 0 31.5 -6t8.5 -17q0 -13 -11.5 -19.5t-39.5 -6.5z
M682 342q102 0 150.5 30.5t48.5 85.5q0 36 -22.5 54.5t-63.5 25.5q37 7 57.5 24t20.5 51q0 43 -42.5 72.5t-135.5 29.5q-97 0 -148.5 -34t-53.5 -105h138q1 15 13 22t42 7q25 0 34 -5t9 -14q0 -8 -8.5 -12.5t-28.5 -4.5h-47v-79h50q26 0 34 -4t8 -12q0 -9 -10 -15t-39 -6
q-34 0 -46 7.5t-13 23.5h-144q2 -46 19.5 -77.5t60.5 -48.5q21 -8 50.5 -12t66.5 -4zM1364 1v124h-83v234h-112q-8 -31 -31 -50.5t-61 -21.5v-99h70v-63h-89v-124h306z" />
    <glyph glyph-name="fifteensixteenths" horiz-adv-x="1928" 
d="M444 356v124h-83v234h-112q-8 -31 -31 -51t-61 -22v-98h70v-63h-89v-124h306zM1068 397l386 223l-182 157l-257 -332zM908 356l-396 -239l184 -166l262 358zM1805 122q0 54 -32 78.5t-100 24.5q-40 0 -75 -12.5t-58 -37.5v9q0 33 17.5 54.5t51.5 21.5q20 0 30 -4.5
t15 -14.5h149q-13 66 -62 96.5t-131 30.5q-98 0 -151.5 -52.5t-53.5 -140.5q0 -55 19.5 -96.5t65.5 -64.5q23 -11 54.5 -17t70.5 -6q88 0 139 34.5t51 96.5zM1616 104q-20 0 -35 5t-24 15q13 12 29.5 20.5t40.5 8.5q23 0 31.5 -6t8.5 -17q0 -13 -11.5 -19.5t-39.5 -6.5z
M689 348q104 0 149 35.5t45 93.5q0 56 -31.5 83.5t-99.5 27.5q-36 0 -63.5 -9t-47.5 -24l9 52h94q46 0 71.5 8.5t35.5 31.5q5 12 8 28.5t3 38.5h-329l-32 -210l139 -24l3 3q8 9 20.5 15t32.5 6q21 0 31.5 -7.5t10.5 -23.5q0 -12 -10.5 -20t-34.5 -8q-19 0 -29 6t-12 16h-162
q7 -60 53.5 -89.5t145.5 -29.5zM1362 1v124h-83v234h-112q-8 -31 -31 -50.5t-61 -21.5v-99h70v-63h-89v-124h306z" />
    <glyph glyph-name="mediumwhitecircle" horiz-adv-x="663" 
d="M331 -10q88 0 156 39t106 107q20 33 29.5 71.5t9.5 80.5q0 87 -39 154t-107 106q-34 19 -72.5 28.5t-82.5 9.5q-87 0 -154.5 -39t-105.5 -106q-20 -34 -29.5 -72t-9.5 -81q0 -86 38 -153.5t106 -106.5q33 -19 72 -28.5t83 -9.5zM331 151q-58 0 -93.5 39t-35.5 98
q0 60 35.5 99t93.5 39q59 0 94.5 -39t35.5 -99q0 -59 -35.5 -98t-94.5 -39z" />
    <glyph glyph-name="mediumblackcircle" horiz-adv-x="663" 
d="M331 -10q88 0 156 39t106 107q20 33 29.5 71.5t9.5 80.5q0 87 -39 154t-107 106q-34 19 -72.5 28.5t-82.5 9.5q-87 0 -154.5 -39t-105.5 -106q-20 -34 -29.5 -72t-9.5 -81q0 -86 38 -153.5t106 -106.5q33 -19 72 -28.5t83 -9.5z" />
    <glyph glyph-name="ballotboxwithx" horiz-adv-x="674" 
d="M50 0h574v574h-574v-574zM215 416h245v-257h-245v257zM392 182l48 48l-56 56l57 58l-48 47l-56 -57l-57 57l-47 -48l56 -57l-56 -57l48 -48l56 57z" />
    <glyph glyph-name=".ttfautohint" horiz-adv-x="431" 
d="M0 0z" />
    </font>
</defs>
</svg>
