<?xml version="1.0" standalone="no"?>
<!DOCTYPE svg PUBLIC "-//W3C//DTD SVG 1.1//EN" "http://www.w3.org/Graphics/SVG/1.1/DTD/svg11.dtd" >
<svg xmlns="http://www.w3.org/2000/svg" xmlns:xlink="http://www.w3.org/1999/xlink" version="1.1">
<metadata>
Created by FontForge 20170731 at Sat Oct  8 16:41:29 2016
 By Aleksey,,,
(C) 2016 Sharp Type Corporation
</metadata>
<defs>
<font id="SharpGroteskBold15-Regular" horiz-adv-x="450" >
  <font-face 
    font-family="Sharp Grotesk Bold 15"
    font-weight="700"
    font-stretch="normal"
    units-per-em="1000"
    panose-1="2 11 8 3 5 7 2 3 2 4"
    ascent="800"
    descent="-200"
    x-height="585"
    cap-height="720"
    bbox="-46 -295 1154 1047"
    underline-thickness="50"
    underline-position="-175"
    unicode-range="U+0020-3009"
  />
<missing-glyph horiz-adv-x="195" 
 />
    <glyph glyph-name=".notdef" horiz-adv-x="195" 
 />
    <glyph glyph-name=".null" horiz-adv-x="0" 
 />
    <glyph glyph-name="nonmarkingreturn" horiz-adv-x="333" 
 />
    <glyph glyph-name="space" unicode=" " horiz-adv-x="195" 
 />
    <glyph glyph-name="exclam" unicode="!" horiz-adv-x="250" 
d="M39 720v-211q0 -54 3 -105t8 -94q4 -42 9 -69.5t8 -32.5q8 3 24 4.5t35 1.5q20 0 34.5 -1.5t24.5 -4.5q3 5 7.5 32.5t9.5 70.5q5 42 8 93.5t3 104.5v211h-174zM125 -8q53 0 72.5 19t19.5 77q0 59 -19.5 77.5t-72.5 18.5q-52 0 -72 -18.5t-20 -77.5q0 -39 8 -60t28 -28
q10 -4 24 -6t32 -2z" />
    <glyph glyph-name="quotedbl" unicode="&#x22;" horiz-adv-x="371" 
d="M42 475h105q4 19 8.5 55.5t8.5 81.5q1 22 2 45t1 45v18h-143v-18q0 -45 3 -90.5t7 -81.5q2 -18 4 -32t4 -23zM225 475h104q4 19 8.5 55.5t8.5 81.5q1 22 2 45t1 45v18h-143v-18q0 -45 3 -90.5t7 -81.5q2 -18 4.5 -32t4.5 -23z" />
    <glyph glyph-name="numbersign" unicode="#" horiz-adv-x="647" 
d="M358 290h-80l15 149h80zM330 0h155l15 154h108v136h-95l15 149h101v136h-88l14 145h-155l-14 -145h-80l14 145h-155l-14 -145h-110v-136h97l-15 -149h-103v-136h90l-15 -154h155l15 154h80z" />
    <glyph glyph-name="dollar" unicode="$" horiz-adv-x="437" 
d="M295 -98v94q58 15 90 57t32 112v95q0 53 -20 84t-53 49q-16 9 -33 17.5t-35 15.5q-46 22 -67 32.5t-21 30.5v83q0 14 6.5 23.5t22.5 9.5q19 0 26 -10t7 -33v-90h161v100q0 59 -29.5 98t-83.5 55v99h-155v-99q-56 -17 -88 -58.5t-32 -99.5v-93q1 -51 21 -81.5t52 -49.5
q16 -9 33.5 -17t35.5 -16q42 -18 64.5 -28t22.5 -35v-87q0 -17 -7.5 -25.5t-22.5 -8.5q-22 0 -29 12.5t-7 32.5v100h-166v-100q0 -73 29 -116.5t90 -58.5v-94h156z" />
    <glyph glyph-name="percent" unicode="%" horiz-adv-x="628" 
d="M142 382q59 0 92 30.5t33 86.5v108q0 58 -34.5 89t-89.5 31q-56 0 -90.5 -30.5t-34.5 -89.5v-108q0 -56 32 -86.5t92 -30.5zM34 0h169q22 29 52.5 84.5t66.5 126.5q35 71 72 147t73 147q37 71 69 127.5t56 87.5h-165q-22 -30 -53 -86t-66 -127q-36 -71 -73.5 -147
t-74.5 -147t-69 -127t-57 -86zM143 481q-9 0 -14 7t-5 20v93q0 14 5 21t14 7q11 0 14.5 -7t3.5 -21v-93q0 -13 -4.5 -20t-13.5 -7zM485 -9q59 0 92 29t33 87v112q0 58 -34.5 89t-89.5 31q-56 0 -90.5 -30.5t-34.5 -89.5v-112q0 -58 32 -87t92 -29zM486 89q-9 0 -14 7t-5 20
v97q0 14 5 21t14 7q11 0 14.5 -7t3.5 -21v-97q0 -13 -4.5 -20t-13.5 -7z" />
    <glyph glyph-name="ampersand" unicode="&#x26;" horiz-adv-x="577" 
d="M474 -11q36 0 58 9t37 21v128q-13 -11 -28.5 -17.5t-38.5 -6.5q-6 0 -12 1t-11 3q42 57 65 130.5t23 153.5v19h-136v-14q0 -56 -13.5 -105t-36.5 -87q-7 12 -14 25t-14 27q-10 23 -18.5 45t-16.5 41q71 46 106 96.5t35 126.5v3q0 73 -43 109t-121 36q-73 0 -118 -44
t-45 -130v-8q0 -32 6.5 -67.5t17.5 -73.5q-37 -22 -68.5 -50t-50.5 -69q-10 -20 -14.5 -45t-4.5 -55v-27q0 -89 53.5 -132t152.5 -43q41 0 77.5 10t69.5 29q26 -19 51.5 -29t51.5 -10zM269 556v9q0 27 8 38.5t23 11.5q14 0 20.5 -9.5t6.5 -28.5v-3q0 -33 -13 -52.5
t-36 -36.5q-4 19 -6.5 36.5t-2.5 34.5zM239 125q-29 0 -45.5 16.5t-16.5 44.5v16q0 29 6 49t17 34q8 -18 15.5 -36t15.5 -36q11 -22 22.5 -42t24.5 -39q-9 -3 -19 -5t-20 -2z" />
    <glyph glyph-name="quotesingle" unicode="'" horiz-adv-x="190" 
d="M42 475h105q4 19 8.5 55.5t8.5 81.5q1 22 2 45t1 45v18h-143v-18q0 -45 3 -90.5t7 -81.5q2 -18 4 -32t4 -23z" />
    <glyph glyph-name="parenleft" unicode="(" horiz-adv-x="298" 
d="M24 120q0 -100 30 -159.5t89 -86.5q30 -13 66.5 -19.5t80.5 -6.5v158q-52 0 -73.5 27.5t-21.5 96.5v320q0 71 21.5 100t73.5 29v154q-126 0 -196 -64.5t-70 -213.5v-335z" />
    <glyph glyph-name="parenright" unicode=")" horiz-adv-x="298" 
d="M8 -152q88 0 147 26.5t89 85.5q15 30 22.5 70t7.5 90v335q0 149 -70 213.5t-196 64.5v-154q53 0 74 -29t21 -100v-320q0 -69 -21 -96.5t-74 -27.5v-158z" />
    <glyph glyph-name="asterisk" unicode="*" horiz-adv-x="399" 
d="M315 459l65 112l-126 29l126 30l-66 112l-86 -92l37 120h-131l38 -122l-88 93l-64 -113l125 -28l-125 -30l65 -112l87 93l-38 -122h131l-37 122z" />
    <glyph glyph-name="plus" unicode="+" horiz-adv-x="453" 
d="M413 286v138h-117v119h-137v-119h-118v-138h118v-119h137v119h117z" />
    <glyph glyph-name="comma" unicode="," horiz-adv-x="251" 
d="M48 -133q87 0 128.5 50.5t41.5 147.5q0 52 -8 78t-28 36q-10 4 -24 6.5t-32 2.5q-52 0 -72.5 -19t-20.5 -79q0 -40 7.5 -60.5t24.5 -26.5q8 -4 19 -5.5t24 -1.5h7t7 1q-4 -28 -21.5 -41t-52.5 -14v-75z" />
    <glyph glyph-name="hyphen" unicode="-" horiz-adv-x="358" 
d="M331 378h-304v-155h304v155z" />
    <glyph glyph-name="period" unicode="." horiz-adv-x="250" 
d="M125 -8q35 0 55 8t29 29q4 11 6 27t2 37q0 43 -8.5 64.5t-28.5 28.5q-10 4 -23.5 6t-31.5 2q-35 0 -55 -7.5t-29 -29.5q-4 -11 -6 -27t-2 -37q0 -42 8 -64t28 -29q10 -4 24 -6t32 -2z" />
    <glyph glyph-name="slash" unicode="/" horiz-adv-x="330" 
d="M176 0l155 720h-177l-156 -720h178z" />
    <glyph glyph-name="zero" unicode="0" horiz-adv-x="474" 
d="M237 -13q94 0 153 52.5t59 165.5v311q0 112 -59 164.5t-153 52.5q-96 0 -154 -52.5t-58 -164.5v-311q0 -113 57.5 -165.5t154.5 -52.5zM237 135q-24 0 -33 18.5t-9 60.5v296q0 41 9 60t33 19t33 -18t9 -61v-297q0 -43 -9 -60.5t-33 -17.5z" />
    <glyph glyph-name="one" unicode="1" horiz-adv-x="369" 
d="M350 0v156h-80v564h-129q-13 -45 -41 -75t-69 -39v-118h75v-332h-87v-156h331z" />
    <glyph glyph-name="two" unicode="2" horiz-adv-x="456" 
d="M433 0v157h-221v13q2 28 28 48.5t60 44.5q32 22 63.5 50t52.5 69q10 20 15.5 45.5t5.5 55.5v78q0 84 -51 128t-155 44q-106 0 -156 -47.5t-50 -133.5v-106h168v100q0 20 7.5 33t32.5 13q19 0 28.5 -9.5t9.5 -28.5v-68q0 -28 -15 -49t-39 -39q-12 -9 -25 -18t-27 -18
q-33 -22 -65.5 -50.5t-54.5 -68.5q-10 -20 -15.5 -44.5t-5.5 -54.5v-144h409z" />
    <glyph glyph-name="three" unicode="3" horiz-adv-x="468" 
d="M227 -13q107 0 162 46t55 121v111q0 44 -17.5 70.5t-46.5 39.5q28 13 41.5 39t13.5 64v98q0 72 -54 114.5t-152 42.5q-97 0 -150 -45t-53 -127v-86h165v71q0 20 8.5 30t29.5 10q23 0 31.5 -9t8.5 -27v-82q0 -19 -9.5 -26t-31.5 -7h-50v-126h49q24 0 34.5 -6.5t10.5 -26.5
v-96q0 -18 -8.5 -28t-34.5 -10q-24 0 -32 10t-8 31v84h-168v-100q0 -85 48.5 -132.5t157.5 -47.5z" />
    <glyph glyph-name="four" unicode="4" horiz-adv-x="482" 
d="M468 125h-66v-125h-154v125h-229v123l240 472h143v-452h66v-143zM238 394l-63 -126h73v132l4 44z" />
    <glyph glyph-name="five" unicode="5" horiz-adv-x="452" 
d="M229 -13q108 0 156 49t48 133v160q0 77 -28.5 121.5t-101.5 44.5q-52 0 -78.5 -18t-43.5 -50l17 146h67q67 0 100.5 9t44.5 38q6 15 9 37.5t3 53.5v9h-356l-43 -366l152 -37l5 16q8 13 19 21.5t26 8.5q21 0 31.5 -11t10.5 -33v-136q0 -20 -8.5 -32.5t-30.5 -12.5
q-19 0 -28 11t-9 28v86h-173v-96q0 -84 48.5 -132t162.5 -48z" />
    <glyph glyph-name="six" unicode="6" horiz-adv-x="470" 
d="M450 169v113q0 77 -34.5 113t-104.5 36q-43 0 -71.5 -17t-42.5 -43v139q0 42 10.5 60.5t33.5 18.5q20 0 27.5 -10t7.5 -31v-80h170v78q-1 91 -49.5 139t-154.5 48q-104 0 -160.5 -53.5t-56.5 -167.5v-304q0 -112 54 -166.5t161 -54.5q101 0 155.5 45.5t54.5 136.5z
M239 139q-23 0 -32.5 16.5t-9.5 56.5v80q9 10 20 14.5t24 4.5q23 0 31.5 -11t8.5 -34v-88q0 -16 -9.5 -27.5t-32.5 -11.5z" />
    <glyph glyph-name="seven" unicode="7" horiz-adv-x="418" 
d="M236 0q18 122 42 220.5t56 186.5q16 44 34 88t39 89v136h-393v-161h213q-52 -106 -104.5 -243.5t-81.5 -315.5h195z" />
    <glyph glyph-name="eight" unicode="8" horiz-adv-x="460" 
d="M229 -13q105 0 158.5 43.5t53.5 116.5v112q0 45 -17.5 74t-49.5 44q30 14 45 42t15 69v88q0 71 -52.5 114t-151.5 43t-150 -44t-51 -114v-89q0 -41 15 -69t45 -42q-33 -16 -51.5 -45.5t-18.5 -70.5v-111q0 -77 52.5 -119t157.5 -42zM231 438q-23 0 -31.5 8t-8.5 24v86
q0 16 9 25t31 9q24 0 32.5 -9.5t8.5 -24.5v-86q0 -16 -9 -24t-32 -8zM231 139q-21 0 -32 7.5t-11 26.5v105q0 15 10 24.5t32 9.5t33 -8t11 -24v-105q0 -18 -10.5 -27t-32.5 -9z" />
    <glyph glyph-name="nine" unicode="9" horiz-adv-x="468" 
d="M232 416q-20 0 -30.5 7.5t-10.5 22.5v101q0 21 10.5 31t30.5 10q24 0 34.5 -14.5t10.5 -47.5v-90q-8 -10 -19 -15t-26 -5zM234 -13q101 0 155 53t54 163v307q0 117 -52.5 170t-162.5 53q-100 0 -153.5 -48.5t-53.5 -136.5v-106q0 -76 39 -111t112 -35q41 0 66.5 17.5
t38.5 43.5v-160q0 -37 -9.5 -50.5t-30.5 -13.5q-22 0 -31.5 11.5t-9.5 33.5v81h-174v-86q2 -88 51 -137t161 -49z" />
    <glyph glyph-name="colon" unicode=":" horiz-adv-x="250" 
d="M125 388q35 0 55 7.5t29 29.5q4 11 6 27t2 37q0 43 -8.5 64.5t-28.5 28.5q-10 4 -23.5 6t-31.5 2q-35 0 -55 -7.5t-29 -29.5q-4 -11 -6 -27t-2 -37q0 -42 8 -64t28 -29q10 -4 24 -6t32 -2zM125 -8q35 0 55 8t29 29q4 11 6 27t2 37q0 43 -8.5 64.5t-28.5 28.5
q-10 4 -23.5 6t-31.5 2q-35 0 -55 -7.5t-29 -29.5q-4 -11 -6 -27t-2 -37q0 -42 8 -64t28 -29q10 -4 24 -6t32 -2z" />
    <glyph glyph-name="semicolon" unicode=";" horiz-adv-x="251" 
d="M125 388q35 0 55 7.5t29 29.5q4 11 6 27t2 37q0 43 -8.5 64.5t-28.5 28.5q-10 4 -23.5 6t-31.5 2q-35 0 -55 -7.5t-29 -29.5q-4 -11 -6 -27t-2 -37q0 -42 8 -64t28 -29q10 -4 24 -6t32 -2zM48 -133q87 0 128.5 50.5t41.5 147.5q0 52 -8 78t-28 36q-10 4 -24 6.5t-32 2.5
q-52 0 -72.5 -19t-20.5 -79q0 -40 7.5 -60.5t24.5 -26.5q8 -4 19 -5.5t24 -1.5h7t7 1q-4 -28 -21.5 -41t-52.5 -14v-75z" />
    <glyph glyph-name="less" unicode="&#x3c;" horiz-adv-x="440" 
d="M387 156v153l-156 56l156 56v153l-337 -143v-134z" />
    <glyph glyph-name="equal" unicode="=" horiz-adv-x="453" 
d="M398 389v138h-342v-138h342zM398 194v138h-342v-138h342z" />
    <glyph glyph-name="greater" unicode="&#x3e;" horiz-adv-x="440" 
d="M54 156l337 141v134l-337 143v-153l156 -56l-156 -56v-153z" />
    <glyph glyph-name="question" unicode="?" horiz-adv-x="451" 
d="M290 192l2 52q1 20 14.5 33t47.5 36q19 14 37 31.5t30 44.5q6 14 9 31t3 38v111q0 71 -49 116.5t-156 45.5q-105 0 -157 -45t-52 -126v-134h167v122q0 20 8.5 32t32.5 12q19 0 28.5 -8.5t9.5 -26.5v-105q0 -20 -16 -33.5t-37 -27.5q-43 -28 -60 -57.5t-17 -70.5
q0 -17 1 -35l2 -36q9 5 27 8.5t50 3.5t48.5 -3.5t26.5 -8.5zM215 -8q53 0 73 17.5t20 72.5q0 56 -20 73.5t-73 17.5t-73 -17.5t-20 -73.5q0 -37 8 -56.5t28 -26.5q10 -3 24.5 -5t32.5 -2z" />
    <glyph glyph-name="at" unicode="@" horiz-adv-x="572" 
d="M290 -93q85 0 144 33t91 100h-124q-16 -22 -39.5 -33t-70.5 -11q-87 0 -131.5 49.5t-44.5 141.5v264q0 98 44.5 143.5t130.5 45.5q96 0 133 -44t37 -129v-221q0 -41 -2.5 -62t-8.5 -28q-3 -4 -6.5 -5.5t-7.5 -1.5q-11 0 -14 11.5t-3 43.5v361h-75l-19 -34q-7 15 -25 27.5
t-43 12.5q-43 0 -73 -28.5t-30 -101.5v-249q0 -70 26.5 -100.5t72.5 -30.5q33 0 52 15t27 31q12 -22 35.5 -34t61.5 -12q69 0 98 43t29 134v229q0 123 -68 192t-196 69q-79 0 -140 -30t-96 -90q-18 -30 -26.5 -67t-8.5 -82v-282q0 -137 73 -203.5t197 -66.5zM286 152
q-16 0 -21 12t-5 39v226q0 27 5 39.5t21 12.5q15 0 20 -12.5t5 -39.5v-226q0 -27 -5 -39t-20 -12z" />
    <glyph glyph-name="A" unicode="A" horiz-adv-x="459" 
d="M221 390l7 90l7 -90l29 -174h-71zM299 0h164l-154 720h-162l-151 -720h163l13 79h114z" />
    <glyph glyph-name="B" unicode="B" horiz-adv-x="457" 
d="M269 0q66 0 103 18t52 55q8 19 11.5 42.5t3.5 52.5v82q0 54 -19.5 82.5t-65.5 40.5q43 11 59 38.5t16 76.5v73q0 83 -44.5 121t-150.5 38h-203v-720h238zM226 590q24 0 34.5 -8.5t10.5 -30.5v-69q0 -25 -9.5 -35.5t-31.5 -10.5h-43v154h39zM225 302q27 0 38 -9t11 -35
v-71q0 -26 -10 -36.5t-36 -10.5h-41v162h38z" />
    <glyph glyph-name="C" unicode="C" horiz-adv-x="470" 
d="M234 -11q102 0 157 46.5t57 161.5v125h-175v-114q-1 -35 -8 -51t-30 -16q-24 0 -31 17t-7 60v289q0 42 7.5 60t30.5 18t30.5 -15t7.5 -50v-104h174v119q0 102 -55 149t-156 47q-96 0 -153 -49.5t-57 -161.5v-315q0 -114 51 -165t157 -51z" />
    <glyph glyph-name="D" unicode="D" horiz-adv-x="473" 
d="M31 0h200q63 0 111.5 20.5t76.5 66.5q14 23 21 53.5t7 68.5v303q0 76 -27.5 121.5t-75.5 65.5q-24 11 -52 16t-59 5h-202v-720zM223 580q25 0 39 -17.5t14 -62.5v-275q0 -44 -13.5 -62.5t-39.5 -18.5h-28v436h28z" />
    <glyph glyph-name="E" unicode="E" horiz-adv-x="401" 
d="M383 154h-190v134h167v150h-167v134h187v148h-349v-720h352v154z" />
    <glyph glyph-name="F" unicode="F" horiz-adv-x="381" 
d="M347 270v152h-155v145h174v153h-335v-720h161v270h155z" />
    <glyph glyph-name="G" unicode="G" horiz-adv-x="487" 
d="M324 0h132v403h-224v-138h58v-46q0 -46 -12.5 -62.5t-35.5 -16.5q-24 0 -34.5 19t-10.5 59v289q0 43 11 60.5t33 17.5t33 -13t11 -51v-70h171v81q0 103 -54 151t-158 48q-98 0 -158 -50.5t-60 -162.5v-316q0 -112 35.5 -162.5t111.5 -50.5q58 0 91 31t43 88z" />
    <glyph glyph-name="H" unicode="H" horiz-adv-x="472" 
d="M277 0h164v720h-164v-280h-82v280h-164v-720h164v283h82v-283z" />
    <glyph glyph-name="I" unicode="I" horiz-adv-x="353" 
d="M332 0v156h-75v409h75v155h-311v-155h77v-409h-77v-156h311z" />
    <glyph glyph-name="J" unicode="J" horiz-adv-x="449" 
d="M217 -11q103 0 152 50t49 166v515h-170v-516q0 -39 -6 -51.5t-25 -12.5t-25 11t-6 36v117h-171v-111q0 -115 50 -159.5t152 -44.5z" />
    <glyph glyph-name="K" unicode="K" horiz-adv-x="483" 
d="M220 293l79 -293h181l-131 419l-11 30l134 271h-183l-89 -214l-12 -37l3 56v195h-160v-720h160v282l22 51z" />
    <glyph glyph-name="L" unicode="L" horiz-adv-x="391" 
d="M370 0v167h-169v553h-170v-720h339z" />
    <glyph glyph-name="M" unicode="M" horiz-adv-x="556" 
d="M183 351l-7 69l1 -6l86 -216h33l84 219l3 11l-11 -69v-359h153v720h-140l-109 -280l-106 280h-139v-720h152v351z" />
    <glyph glyph-name="N" unicode="N" horiz-adv-x="492" 
d="M179 322l-4 71l12 -41l130 -352h144v720h-148v-327l3 -65l-11 40l-127 352h-147v-720h148v322z" />
    <glyph glyph-name="O" unicode="O" horiz-adv-x="478" 
d="M239 -11q63 0 111 22.5t75 69.5q13 24 20 54.5t7 68.5v312q0 110 -59.5 162.5t-153.5 52.5q-96 0 -154.5 -52.5t-58.5 -162.5v-312q0 -113 58 -164t155 -51zM239 140q-24 0 -33 17.5t-9 59.5v291q0 42 9 60t33 18t33 -17.5t9 -60.5v-291q0 -43 -9 -60t-33 -17z" />
    <glyph glyph-name="P" unicode="P" horiz-adv-x="455" 
d="M234 221q109 0 156.5 51t47.5 141v127q0 91 -47.5 135.5t-156.5 44.5h-203v-720h161v221h42zM226 583q24 0 35.5 -12.5t11.5 -37.5v-116q0 -26 -12 -39.5t-36 -13.5h-33v219h34z" />
    <glyph glyph-name="Q" unicode="Q" horiz-adv-x="476" 
d="M446 -86l-63 119q32 26 49.5 68t17.5 103v312q0 110 -59 162.5t-153 52.5q-96 0 -154 -52.5t-58 -162.5v-312q0 -113 57.5 -164t154.5 -51l32 -75h176zM238 140q-24 0 -33 17.5t-9 59.5v291q0 42 9 60t33 18t33 -17.5t9 -60.5v-291q0 -43 -9 -60t-33 -17z" />
    <glyph glyph-name="R" unicode="R" horiz-adv-x="449" 
d="M224 583q25 0 34.5 -10.5t9.5 -35.5v-92q0 -22 -9.5 -31.5t-34.5 -9.5h-37v179h37zM211 259q28 0 38 -10.5t10 -39.5v-158q0 -19 3.5 -32.5t10.5 -18.5h167q-9 8 -13.5 21t-4.5 30v168q0 48 -12 75.5t-47 40.5q32 13 48 40.5t16 75.5v92q0 98 -45.5 137.5t-146.5 39.5
h-204v-720h156v259h24z" />
    <glyph glyph-name="S" unicode="S" horiz-adv-x="432" 
d="M213 -12q104 0 154 46.5t50 137.5v74q0 55 -21.5 91t-53.5 60q-16 12 -32.5 22.5t-32.5 19.5q-38 21 -67 40t-29 49v24q0 24 7.5 35t26.5 11q20 0 27 -10t7 -36v-67h160v78q0 83 -49 126t-144 43q-97 0 -148.5 -44t-51.5 -137v-37q0 -53 20.5 -88t51.5 -59
q15 -12 31 -22.5t32 -19.5q39 -22 69.5 -44.5t30.5 -57.5v-45q0 -21 -6.5 -33t-27.5 -12q-23 0 -30.5 12t-7.5 33v99h-169v-102q0 -93 45.5 -140t157.5 -47z" />
    <glyph glyph-name="T" unicode="T" horiz-adv-x="416" 
d="M398 571v149h-380v-149h108v-571h164v571h108z" />
    <glyph glyph-name="U" unicode="U" horiz-adv-x="463" 
d="M232 -11q95 0 149 51t54 164v516h-164v-506q0 -39 -8 -52.5t-31 -13.5q-22 0 -31 14t-9 52v506h-164v-516q0 -113 52.5 -164t151.5 -51z" />
    <glyph glyph-name="V" unicode="V" horiz-adv-x="461" 
d="M315 0l143 720h-165l-55 -338l-5 -91l-6 91l-58 338h-166l147 -720h165z" />
    <glyph glyph-name="W" unicode="W" horiz-adv-x="667" 
d="M323 309l7 97l6 -97l53 -309h152l123 720h-157l-46 -335l-8 -120l-12 119l-55 336h-107l-59 -336l-14 -113l-5 114l-42 335h-156l112 -720h153z" />
    <glyph glyph-name="X" unicode="X" horiz-adv-x="466" 
d="M232 190l2 31l3 -30l64 -191h170l-147 378l136 342h-167l-56 -168l-3 -36l-3 36l-56 168h-169l136 -339l-148 -381h177z" />
    <glyph glyph-name="Y" unicode="Y" horiz-adv-x="435" 
d="M301 0v260l139 460h-167l-53 -216l-3 -40l-3 40l-51 216h-168l136 -463v-257h170z" />
    <glyph glyph-name="Z" unicode="Z" horiz-adv-x="422" 
d="M398 0v158h-189l185 423v139h-362v-158h182l-189 -427v-135h373z" />
    <glyph glyph-name="bracketleft" unicode="[" horiz-adv-x="295" 
d="M284 -15h-90v609h90v137h-253v-883h253v137z" />
    <glyph glyph-name="backslash" unicode="\" horiz-adv-x="330" 
d="M4 720l148 -720h174l-148 720h-174z" />
    <glyph glyph-name="bracketright" unicode="]" horiz-adv-x="295" 
d="M264 -152v883h-253v-137h91v-609h-91v-137h253z" />
    <glyph glyph-name="asciicircum" unicode="^" horiz-adv-x="429" 
d="M261 443h134l-121 274h-121l-118 -274h132l47 134z" />
    <glyph glyph-name="uni005F" unicode="_" horiz-adv-x="454" 
d="M437 -53h-420v-131h420v131z" />
    <glyph glyph-name="grave" unicode="`" horiz-adv-x="357" 
d="M155 636h105l-63 152h-150z" />
    <glyph glyph-name="a" unicode="a" horiz-adv-x="443" 
d="M218 113q-16 0 -24.5 9.5t-8.5 27.5v39q0 23 3 35.5t11 21.5q5 6 15.5 11t23.5 10q7 2 11 5t7 6v-112q0 -26 -9.5 -39.5t-28.5 -13.5zM287 0h128v415q0 92 -46 135t-148 43q-99 0 -144 -47t-45 -124v-58h157v58q0 23 9 34t26 11q16 0 24 -10.5t8 -31.5v-19
q0 -28 -14.5 -39t-52.5 -24q-43 -15 -72.5 -25.5t-54.5 -31.5q-22 -18 -33 -45t-11 -62v-46q0 -67 28 -105.5t103 -38.5q44 0 73.5 18.5t43.5 54.5z" />
    <glyph glyph-name="b" unicode="b" horiz-adv-x="448" 
d="M286 -8q74 0 105 54t31 172v164q0 116 -34.5 163t-99.5 47q-39 0 -63 -19.5t-35 -57.5v247h-161v-762h138l15 76q9 -38 32.5 -61t71.5 -23zM228 128q-18 0 -28.5 15.5t-10.5 55.5v176q0 35 7.5 57t28.5 22q22 0 29.5 -15t7.5 -56v-176q0 -47 -7.5 -63t-26.5 -16z" />
    <glyph glyph-name="c" unicode="c" horiz-adv-x="443" 
d="M220 -11q104 0 151.5 48t47.5 148v87h-164v-82q0 -32 -6.5 -45.5t-26.5 -13.5t-28 13.5t-8 48.5v195q0 40 8 53.5t29 13.5q20 0 26 -14t6 -54v-62h164v65q0 98 -46.5 150.5t-143.5 52.5t-150 -50t-53 -153v-201q0 -103 48.5 -151.5t145.5 -48.5z" />
    <glyph glyph-name="d" unicode="d" horiz-adv-x="448" 
d="M220 128q-19 0 -26.5 16t-7.5 63v176q0 41 7.5 56t29.5 15q21 0 28.5 -22t7.5 -57v-176q0 -40 -10.5 -55.5t-28.5 -15.5zM281 0h138v762h-161v-239q-10 35 -33 52t-62 17q-61 0 -99 -47t-38 -163v-164q0 -118 31.5 -172t104.5 -54q48 0 71.5 23t32.5 61z" />
    <glyph glyph-name="e" unicode="e" horiz-adv-x="444" 
d="M226 -11q81 1 123.5 27t58.5 71q7 23 11 48.5t4 54.5v20h-160v-16q0 -35 -7 -51.5t-29 -16.5t-31.5 13.5t-9.5 51.5v60h237v141q0 96 -47.5 148.5t-151.5 52.5q-89 0 -142.5 -52t-53.5 -150v-197q0 -103 47.5 -155t150.5 -50zM186 387q0 38 9 55t33 17q23 0 31.5 -16.5
t8.5 -52.5v-42h-82v39z" />
    <glyph glyph-name="f" unicode="f" horiz-adv-x="311" 
d="M301 442v143h-73v28q0 23 7.5 33t27.5 10h38v140h-64q-90 0 -129 -39t-39 -127v-45h-60v-143h60v-442h159v442h73z" />
    <glyph glyph-name="g" unicode="g" horiz-adv-x="451" 
d="M218 -196q81 0 132.5 22.5t76.5 60.5q13 19 19 40t6 45v2q0 73 -46.5 109t-139.5 36h-67q-32 0 -42 4t-10 12t9.5 13.5t40.5 5.5h30q101 0 147.5 40.5t46.5 128.5v106q0 63 -30 98.5t-90 43.5q75 1 103.5 26t28.5 91v3h-164v-35q0 -37 -13 -48.5t-52 -16.5l-14 -2
q-73 -10 -116 -46.5t-43 -117.5v-98q0 -53 20 -86.5t60 -46.5q-46 -11 -69 -36.5t-23 -64.5t20.5 -63t61.5 -33q-45 -11 -66.5 -35t-21.5 -55q0 -46 45 -74.5t157 -28.5h3zM228 269q-16 0 -26 10t-10 32v127q0 22 9 32.5t27 10.5t27 -10.5t9 -32.5v-127q0 -21 -11 -31.5
t-25 -10.5zM220 -74q-33 0 -47.5 8.5t-14.5 19.5v4q0 13 17 23t38 10h38q25 0 37 -6.5t12 -18.5v-4q0 -14 -18 -25t-49 -11h-13z" />
    <glyph glyph-name="h" unicode="h" 
d="M192 390q0 29 7.5 44.5t27.5 15.5t25.5 -14.5t5.5 -41.5v-394h164v423q0 86 -31 127.5t-93 41.5q-46 0 -71 -20.5t-35 -60.5v251h-163v-762h163v390z" />
    <glyph glyph-name="i" unicode="i" horiz-adv-x="226" 
d="M113 601q48 0 69 17t21 64q0 48 -20.5 64.5t-69.5 16.5t-69.5 -16.5t-20.5 -64.5q0 -49 19.5 -65t70.5 -16zM29 0h168v582q-10 -8 -31 -13t-53 -5q-31 0 -52 4.5t-32 12.5v-581z" />
    <glyph glyph-name="j" unicode="j" horiz-adv-x="231" 
d="M116 601q48 0 69 17t21 64q0 48 -20.5 64.5t-69.5 16.5t-69.5 -16.5t-20.5 -64.5q0 -49 19.5 -65t70.5 -16zM-46 -208h80q90 0 128 35t38 126v629q-10 -8 -31 -13t-53 -5q-31 0 -52 4.5t-32 12.5v-597q0 -23 -7 -30.5t-27 -7.5h-44v-154z" />
    <glyph glyph-name="k" unicode="k" horiz-adv-x="448" 
d="M213 238l72 -238h171l-126 362l121 223h-173l-73 -147l-18 -43l1 28v339h-159v-762h159v224l19 47z" />
    <glyph glyph-name="l" unicode="l" horiz-adv-x="221" 
d="M192 0v762h-163v-762h163z" />
    <glyph glyph-name="m" unicode="m" horiz-adv-x="671" 
d="M190 391q0 30 6.5 45t26.5 15t25.5 -14.5t5.5 -41.5v-395h162v392q0 29 7 44t27 15t25.5 -14.5t5.5 -41.5v-395h162v424q0 86 -32.5 127.5t-98.5 41.5q-43 0 -69.5 -21.5t-39.5 -59.5q-12 41 -40.5 61t-73.5 20q-41 0 -68.5 -23t-41.5 -61l-18 76h-132v-585h161v391z" />
    <glyph glyph-name="n" unicode="n" horiz-adv-x="453" 
d="M194 390q0 29 7.5 44.5t27.5 15.5t26 -14.5t6 -41.5v-394h164v423q0 86 -32 127.5t-99 41.5q-42 0 -70.5 -19.5t-42.5 -58.5l-17 71h-135v-585h165v390z" />
    <glyph glyph-name="o" unicode="o" horiz-adv-x="445" 
d="M222 -11q100 0 148.5 48t48.5 152v201q0 103 -50 153t-147 50q-93 0 -144.5 -49.5t-51.5 -153.5v-201q0 -104 48 -152t148 -48zM223 131q-18 0 -27.5 14t-9.5 48v196q0 37 8.5 51.5t28.5 14.5q22 0 29 -14.5t7 -51.5v-196q0 -34 -9.5 -48t-26.5 -14z" />
    <glyph glyph-name="p" unicode="p" horiz-adv-x="448" 
d="M225 128q-19 0 -27.5 15t-8.5 49v193q0 38 8.5 53.5t27.5 15.5q20 0 28.5 -14.5t8.5 -61.5v-181q0 -40 -8.5 -54.5t-28.5 -14.5zM285 -8q44 0 74.5 21t46.5 68q8 24 12 56.5t4 73.5v157q0 122 -32.5 173t-103.5 51q-40 0 -66 -21t-37 -63l-19 77h-135v-766h160v254
q9 -40 31 -60.5t65 -20.5z" />
    <glyph glyph-name="q" unicode="q" 
d="M420 -181v766h-136l-17 -71q-9 37 -32 58t-68 21q-77 0 -109 -55.5t-32 -168.5v-172q0 -79 14.5 -123.5t44.5 -63.5q14 -9 32.5 -14t40.5 -5q43 0 66.5 19t33.5 65v-256h162zM222 129q-19 0 -27.5 15.5t-8.5 54.5v178q0 47 9 62t29 15t27.5 -19t7.5 -57v-182
q0 -33 -9 -50t-28 -17z" />
    <glyph glyph-name="r" unicode="r" horiz-adv-x="306" 
d="M189 0v334q0 44 13 58.5t56 14.5h37v186h-20q-60 0 -82.5 -24t-24.5 -82l-24 98h-114v-585h159z" />
    <glyph glyph-name="s" unicode="s" horiz-adv-x="419" 
d="M210 -12q100 0 149 50.5t49 129.5v9q0 58 -22 93t-56 55q-16 10 -32.5 18.5t-33.5 15.5q-36 15 -62.5 28.5t-26.5 38.5v4q0 18 8.5 28.5t28.5 10.5t27.5 -11t7.5 -32v-36h152v44q0 72 -43.5 116t-145.5 44q-100 0 -146 -48.5t-46 -121.5v-5q0 -56 20.5 -89.5t52.5 -51.5
q15 -9 31 -16.5t32 -13.5q38 -14 66.5 -29t28.5 -48v-2q0 -20 -8.5 -32t-28.5 -12q-21 0 -30 9t-9 30v50h-161v-60q0 -80 46 -123t152 -43z" />
    <glyph glyph-name="t" unicode="t" horiz-adv-x="306" 
d="M291 156h-20q-27 0 -39.5 9.5t-12.5 52.5v208h73v159h-73v106h-114q-2 -16 -5 -28t-8 -26q-6 -16 -13.5 -27.5t-21.5 -19.5q-12 -7 -23.5 -9.5t-24.5 -4.5v-150h56v-255q0 -67 15.5 -104t51.5 -52q18 -8 43 -11.5t56 -3.5h60v156z" />
    <glyph glyph-name="u" unicode="u" 
d="M287 0h133v585h-163v-391q0 -29 -6 -44.5t-26 -15.5t-26 14.5t-6 41.5v395h-164v-424q0 -88 32.5 -129t101.5 -41q41 0 68 19.5t39 57.5z" />
    <glyph glyph-name="v" unicode="v" horiz-adv-x="425" 
d="M292 0l136 585h-162l-45 -262l-8 -117l-8 117l-46 262h-162l137 -585h158z" />
    <glyph glyph-name="w" unicode="w" horiz-adv-x="610" 
d="M292 242l8 81l5 -81l49 -242h151l111 585h-154l-45 -289l-1 -96l-9 97l-53 288h-102l-56 -289l-14 -93l4 95l-36 287h-156l97 -585h153z" />
    <glyph glyph-name="x" unicode="x" horiz-adv-x="444" 
d="M218 137l5 39l6 -39l51 -137h167l-131 309l119 276h-168l-42 -134l-2 -23l-3 24l-41 133h-169l120 -276l-132 -309h170z" />
    <glyph glyph-name="y" unicode="y" horiz-adv-x="437" 
d="M99 -188q63 0 98 12.5t55 46.5q9 16 18 40t16 55l149 619h-158l-47 -231l-9 -127l-8 127l-49 231h-162l147 -542l-7 -36q-5 -26 -18.5 -34.5t-46.5 -8.5h-53v-152h75z" />
    <glyph glyph-name="z" unicode="z" horiz-adv-x="388" 
d="M366 0l1 143h-156l154 309v133h-338v-140h160l-166 -319v-126h345z" />
    <glyph glyph-name="braceleft" unicode="{" horiz-adv-x="324" 
d="M315 -152v129h-38q-22 0 -34.5 7t-12.5 29q0 23 13 50.5t25 59.5q7 15 10 31.5t3 33.5q0 44 -23 68t-79 25v18q56 1 79 24.5t23 67.5q0 35 -14 66.5t-27 58.5q-7 14 -10.5 26.5t-3.5 23.5q0 22 13.5 29t36.5 7h39v129h-127q-70 0 -99 -33t-29 -85q0 -40 14 -76t29 -66
q7 -15 10.5 -29t3.5 -26q0 -28 -12.5 -39t-41.5 -11h-42v-153h47q29 0 41.5 -11t12.5 -38q0 -24 -15.5 -55t-30.5 -67q-8 -18 -12 -37t-4 -39q0 -52 29.5 -85t99.5 -33h126z" />
    <glyph glyph-name="bar" unicode="|" horiz-adv-x="238" 
d="M200 -50v814h-162v-814h162z" />
    <glyph glyph-name="braceright" unicode="}" horiz-adv-x="324" 
d="M9 -152h126q71 0 100 33t29 85q0 41 -15.5 76.5t-30.5 66.5q-8 15 -12 29t-4 26q0 27 13 38t41 11h47v153h-42q-28 0 -41 11t-13 39q0 25 14.5 55t28.5 66q7 18 10.5 37t3.5 39q0 52 -28.5 85t-99.5 33h-127v-129h39q23 0 36.5 -7t13.5 -29t-13.5 -49.5t-27.5 -59.5
q-7 -16 -10.5 -32.5t-3.5 -33.5q0 -44 23 -67.5t79 -24.5v-18q-56 -1 -79 -25t-23 -68q0 -34 13 -65.5t25 -58.5q7 -14 10 -26.5t3 -24.5q0 -22 -12 -29t-35 -7h-38v-129z" />
    <glyph glyph-name="asciitilde" unicode="~" horiz-adv-x="401" 
d="M43 524h94q0 20 3.5 29.5t13.5 9.5q15 0 31 -10.5t36 -20.5q10 -6 22 -8.5t25 -2.5q49 0 70 33.5t21 125.5h-94q0 -17 -4.5 -26t-14.5 -9q-11 0 -27 10t-37 19q-11 5 -22.5 7.5t-24.5 2.5q-52 0 -72 -35t-20 -125z" />
    <glyph glyph-name="uni00A0" unicode="&#xa0;" horiz-adv-x="195" 
 />
    <glyph glyph-name="exclamdown" unicode="&#xa1;" horiz-adv-x="250" 
d="M126 597q-52 0 -72 -18t-20 -77t20 -77.5t72 -18.5q53 0 72.5 18.5t19.5 77.5q0 39 -8 59.5t-28 28.5q-10 3 -24 5t-32 2zM212 -131v211q0 54 -3 105.5t-8 93.5q-4 43 -9 70t-8 32q-9 -2 -24 -3.5t-35 -1.5q-19 0 -33.5 1.5t-25.5 3.5q-3 -5 -7.5 -32.5t-9.5 -69.5
q-5 -43 -8 -94.5t-3 -104.5v-211h174z" />
    <glyph glyph-name="cent" unicode="&#xa2;" horiz-adv-x="451" 
d="M428 179v93h-165v-88q0 -28 -9.5 -42t-28.5 -14q-20 0 -30 16t-10 47v200q0 35 9.5 51t31.5 16q21 0 29 -13t8 -41v-79h165v81q0 75 -32.5 119t-90.5 60v94h-156v-94q-58 -18 -92 -65.5t-34 -126.5v-206q0 -81 32 -127.5t93 -63.5v-98h156v99q58 16 91 60t33 122z" />
    <glyph glyph-name="sterling" unicode="&#xa3;" horiz-adv-x="501" 
d="M349 -11q47 0 77 14t45 50q7 18 10.5 44t3.5 60v67h-147v-54q0 -31 -7.5 -43.5t-27.5 -12.5q-10 0 -20 3t-20 8q4 17 6 34.5t2 35.5q0 22 -2 42.5t-5 40.5h88v104h-108q-10 42 -18 80.5t-8 76.5q0 29 8.5 40t25.5 11q19 0 26.5 -11t8.5 -43v-45h156v52q-5 89 -48 138.5
t-144 49.5q-99 0 -143 -48.5t-44 -126.5q1 -54 15 -95t31 -79h-65v-104h106q13 -22 22 -46t9 -52v-7q-15 7 -31.5 11.5t-35.5 4.5q-51 0 -80 -27t-29 -75q0 -47 27.5 -72.5t85.5 -25.5q30 0 55.5 12t45.5 35q27 -19 59 -33t70 -14zM117 76q-9 0 -13.5 4t-4.5 11q0 8 4 11.5
t12 3.5q7 0 16.5 -4.5t21.5 -14.5q-7 -5 -16 -8t-20 -3z" />
    <glyph glyph-name="currency" unicode="&#xa4;" horiz-adv-x="529" 
d="M267 291q-24 0 -37.5 15.5t-13.5 39.5v38q0 25 13.5 40t37.5 15q23 0 36 -15.5t13 -39.5v-38q0 -24 -13 -39.5t-36 -15.5zM267 176q20 0 37.5 3.5t33.5 9.5l70 -78l86 82l-70 76q8 16 12 35t4 40v43q0 21 -4 40.5t-13 37.5l71 78l-88 79l-71 -79q-15 6 -32 9t-36 3
t-36 -3t-33 -9l-72 79l-85 -82l70 -75q-9 -17 -13.5 -37t-4.5 -42v-43q0 -22 4 -41t11 -36l-71 -79l91 -80l70 79q16 -4 33 -7t36 -3z" />
    <glyph glyph-name="yen" unicode="&#xa5;" horiz-adv-x="435" 
d="M386 143v108h-85v34h85v109h-72l126 326h-167l-56 -147l-54 147h-168l122 -326h-67v-109h81v-34h-81v-108h81v-143h170v143h85z" />
    <glyph glyph-name="brokenbar" unicode="&#xa6;" horiz-adv-x="238" 
d="M38 393h162v371h-162v-371zM38 341v-391h162v391h-162z" />
    <glyph glyph-name="section" unicode="&#xa7;" horiz-adv-x="534" 
d="M320 296q-36 19 -69.5 35t-55.5 31q-10 7 -15.5 15t-5.5 16v8q0 12 6.5 19.5t18.5 10.5q6 -4 12 -7l12 -6q36 -18 68.5 -33.5t52.5 -30.5q11 -7 16 -15.5t5 -17.5v-8q0 -13 -5.5 -20.5t-16.5 -9.5q-6 4 -11.5 7t-11.5 6zM269 -62q101 0 149.5 42.5t48.5 117.5v22
q0 35 -15.5 63.5t-39.5 50.5h6q46 0 75.5 27.5t29.5 76.5v13q0 40 -21 69t-54 50q-16 11 -33 21t-35 18q-36 18 -68.5 32.5t-53.5 28.5q-11 8 -16 16t-5 17v10q0 16 7.5 23.5t22.5 7.5q18 0 28 -9.5t12 -28.5v-25h158v29q-7 74 -52 114.5t-143 40.5q-91 0 -140 -40.5
t-49 -114.5v-19q0 -34 13 -61t35 -48h-9q-47 0 -77 -29.5t-30 -80.5v-14q0 -39 21.5 -68.5t55.5 -50.5q17 -11 35 -20.5t36 -18.5q37 -17 71 -31.5t55 -28.5q11 -7 16.5 -15t5.5 -17v-13q0 -17 -8 -24t-25 -7t-28 10t-16 29v29h-162v-32q8 -80 56.5 -121t142.5 -41z" />
    <glyph glyph-name="dieresis" unicode="&#xa8;" horiz-adv-x="357" 
d="M102 634q38 0 52 14.5t14 53.5q0 42 -14.5 57.5t-51.5 15.5q-35 0 -49.5 -15.5t-14.5 -57.5q0 -40 13 -54t51 -14zM255 634q37 0 51.5 14.5t14.5 53.5q0 42 -15 57.5t-51 15.5q-37 0 -50.5 -15.5t-13.5 -57.5q0 -40 12.5 -54t51.5 -14z" />
    <glyph glyph-name="copyright" unicode="&#xa9;" horiz-adv-x="611" 
d="M308 -12q83 0 146 34t98 95q18 31 27 67.5t9 77.5v193q0 85 -36.5 146t-100.5 94q-32 16 -68.5 24.5t-78.5 8.5q-80 0 -144 -34t-101 -97q-19 -32 -28 -69t-9 -80v-188q0 -89 36 -150t101 -91q32 -16 69.5 -23.5t79.5 -7.5zM308 94q-85 0 -130 43.5t-45 128.5v176
q0 85 46.5 132.5t124.5 47.5q86 0 130 -45t44 -127v-183q0 -85 -45.5 -129t-124.5 -44zM307 122q66 0 103 36t40 103v64h-118v-57q-1 -24 -6 -31t-19 -7q-13 0 -18 9t-5 35v169q0 28 5.5 38t18.5 10q14 0 18.5 -7t5.5 -30v-56h118v57q-4 69 -38 104.5t-105 35.5
q-67 0 -105 -38.5t-38 -114.5v-175q0 -71 38 -108t105 -37z" />
    <glyph glyph-name="ordfeminine" unicode="&#xaa;" horiz-adv-x="330" 
d="M164 404q-9 0 -14 5.5t-5 15.5v39q0 8 1.5 13.5t3.5 8.5q3 3 7.5 5t9.5 4q8 2 14 4t10 4v-70q0 -12 -7.5 -20.5t-19.5 -8.5zM211 327h98v284q0 56 -35.5 87.5t-103.5 31.5t-106.5 -30.5t-41.5 -84.5v-44h127v38q0 16 5.5 22t16.5 6q10 0 15 -5t5 -16v-26q0 -17 -11.5 -24
t-40.5 -13q-28 -6 -50.5 -12t-37.5 -17q-17 -11 -27 -29t-10 -47v-33q0 -47 25 -71t75 -24q29 0 50.5 10t36.5 30z" />
    <glyph glyph-name="guillemotleft" unicode="&#xab;" horiz-adv-x="505" 
d="M285 109l-126 189l126 197h-138l-122 -194v-9l119 -183h141zM484 109l-131 196l122 190h-135l-118 -187v-15l121 -184h141z" />
    <glyph glyph-name="logicalnot" unicode="&#xac;" horiz-adv-x="447" 
d="M415 176v290h-394v-143h241v-147h153z" />
    <glyph glyph-name="uni00AD" unicode="&#xad;" horiz-adv-x="358" 
d="M331 378h-304v-155h304v155z" />
    <glyph glyph-name="registered" unicode="&#xae;" horiz-adv-x="398" 
d="M201 377q70 0 116.5 41.5t46.5 120.5v21q0 80 -46.5 123t-118.5 43q-73 0 -119.5 -44t-46.5 -124v-19q0 -82 47 -122t121 -40zM201 437q-53 0 -79.5 24.5t-26.5 81.5v11q0 58 26 87t78 29q53 0 79 -28.5t26 -85.5v-13q0 -57 -25.5 -81.5t-77.5 -24.5zM196 596
q13 0 19.5 -4.5t6.5 -13.5q0 -11 -6 -15t-20 -4h-8v37h8zM194 514q13 0 17 -4.5t4 -19.5v-17q0 -4 1 -7t3 -4h56q-1 2 -2 4.5t-1 5.5v21q0 17 -5 28t-15 17q14 6 20.5 17t6.5 27q0 32 -17.5 46.5t-55.5 14.5h-75v-181h57v52h6z" />
    <glyph glyph-name="macron" unicode="&#xaf;" horiz-adv-x="357" 
d="M73 644h211v112h-211v-112z" />
    <glyph glyph-name="degree" unicode="&#xb0;" horiz-adv-x="301" 
d="M150 468q62 0 99 31t37 92v6q0 65 -37.5 97.5t-97.5 32.5q-59 0 -97.5 -32.5t-38.5 -97.5v-6q0 -61 35 -92t100 -31zM151 574q-8 0 -14 5.5t-6 16.5v1q0 14 6 19t14 5q10 0 15 -5t5 -19v-1q0 -12 -6 -17t-14 -5z" />
    <glyph glyph-name="plusminus" unicode="&#xb1;" horiz-adv-x="453" 
d="M388 399v135h-93v96h-135v-96h-94v-135h94v-96h135v96h93zM388 123v138h-322v-138h322z" />
    <glyph glyph-name="twosuperior" unicode="&#xb2;" horiz-adv-x="263" 
d="M20 360zM242 360v89h-125q7 17 27 29t43 25q23 14 40 36.5t17 59.5v36q0 45 -26.5 68t-83.5 23q-55 0 -84 -26t-29 -67l-1 -55h97v48q0 10 4 15t12 5t12 -3.5t4 -11.5v-31q0 -17 -13 -28t-32 -21t-38.5 -23.5t-32.5 -35.5q-6 -11 -9.5 -25t-3.5 -31v-76h222z" />
    <glyph glyph-name="threesuperior" unicode="&#xb3;" horiz-adv-x="259" 
d="M17 352zM131 352q60 0 85.5 25t25.5 62v51q0 26 -10 38.5t-27 17.5q17 8 25 22t8 34v41q0 36 -26.5 59t-84.5 23q-57 0 -82 -24t-25 -65v-38h91v27q0 9 4.5 13t12.5 4q9 0 13 -4t4 -12v-33q0 -7 -4.5 -11t-13.5 -4h-29v-72h28q10 0 15 -3.5t5 -10.5v-37q0 -8 -4 -12.5
t-13 -4.5t-13.5 5t-4.5 14v30h-94v-44q0 -46 25.5 -68.5t88.5 -22.5z" />
    <glyph glyph-name="acute" unicode="&#xb4;" horiz-adv-x="357" 
d="M65 636h114l116 152h-151z" />
    <glyph glyph-name="paragraph" unicode="&#xb6;" horiz-adv-x="619" 
d="M245 416q-29 0 -47 19t-18 63q0 47 17 66t46 19h15v-167h-13zM401 0v583h42v-583h143v720h-347q-112 0 -167 -58t-55 -164t56 -166t168 -59h17v-273h143z" />
    <glyph glyph-name="periodcentered" unicode="&#xb7;" horiz-adv-x="250" 
d="M125 198q35 0 55 7.5t29 29.5q4 11 6 26.5t2 36.5q0 43 -8.5 64.5t-28.5 29.5q-10 3 -23.5 5t-31.5 2q-35 0 -55 -7.5t-29 -28.5q-4 -11 -6 -27t-2 -38q0 -42 8 -63.5t28 -29.5q10 -3 24 -5t32 -2z" />
    <glyph glyph-name="cedilla" unicode="&#xb8;" horiz-adv-x="357" 
d="M182 -230q67 0 105 28t38 80q0 47 -25 67t-70 24v46h-99v-113h54q16 0 24 -5.5t8 -15.5q0 -12 -8 -17.5t-24 -5.5t-24 5t-13 19h-120q12 -61 50 -86.5t104 -25.5z" />
    <glyph glyph-name="onesuperior" unicode="&#xb9;" horiz-adv-x="230" 
d="M18 360zM213 360v88h-49v272h-75q-5 -26 -20 -39.5t-40 -15.5v-70h42v-147h-53v-88h195z" />
    <glyph glyph-name="ordmasculine" unicode="&#xba;" horiz-adv-x="327" 
d="M163 322q68 0 107 33.5t39 104.5v131q0 70 -40 104.5t-105 34.5q-63 0 -104.5 -34t-41.5 -105v-131q0 -71 37.5 -104.5t107.5 -33.5zM164 428q-13 0 -19 7.5t-6 28.5v125q0 23 6 31t19 8t19 -7.5t6 -31.5v-125q0 -22 -6 -29t-19 -7z" />
    <glyph glyph-name="guillemotright" unicode="&#xbb;" horiz-adv-x="505" 
d="M357 109l119 183v9l-123 194h-137l127 -198l-127 -188h141zM157 109l122 184v15l-119 187h-135l123 -191l-131 -195h140z" />
    <glyph glyph-name="onequarter" unicode="&#xbc;" horiz-adv-x="624" 
d="M52 0zM363 399l224 274l-133 75l-124 -328zM278 338l-226 -282l135 -82l121 343zM565 55v78h-35v227h-85l-121 -237v-68h121v-55h85v55h35zM445 133h-32l32 59v-59zM261 360v88h-49v272h-75q-5 -26 -20 -39.5t-40 -15.5v-70h42v-147h-53v-88h195z" />
    <glyph glyph-name="onehalf" unicode="&#xbd;" horiz-adv-x="624" 
d="M52 0zM363 399l224 274l-133 75l-124 -328zM278 338l-226 -282l135 -82l121 343zM261 360v88h-49v272h-75q-5 -26 -20 -39.5t-40 -15.5v-70h42v-147h-53v-88h195zM575 0v89h-125q7 17 27 29t43 25q23 14 40 36.5t17 59.5v36q0 45 -26.5 68t-83.5 23q-55 0 -84 -26
t-29 -67l-1 -55h97v48q0 10 4 15t12 5t12 -3.5t4 -11.5v-31q0 -17 -13 -28t-32 -21t-38.5 -23.5t-32.5 -35.5q-6 -11 -9.5 -25t-3.5 -31v-76h222z" />
    <glyph glyph-name="threequarters" unicode="&#xbe;" horiz-adv-x="624" 
d="M43 0zM363 399l224 274l-133 75l-124 -328zM278 338l-226 -282l135 -82l121 343zM565 55v78h-35v227h-85l-121 -237v-68h121v-55h85v55h35zM445 133h-32l32 59v-59zM157 352q60 0 85.5 25t25.5 62v51q0 26 -10 38.5t-27 17.5q17 8 25 22t8 34v41q0 36 -26.5 59t-84.5 23
q-57 0 -82 -24t-25 -65v-38h91v27q0 9 4.5 13t12.5 4q9 0 13 -4t4 -12v-33q0 -7 -4.5 -11t-13.5 -4h-29v-72h28q10 0 15 -3.5t5 -10.5v-37q0 -8 -4 -12.5t-13 -4.5t-13.5 5t-4.5 14v30h-94v-44q0 -46 25.5 -68.5t88.5 -22.5z" />
    <glyph glyph-name="questiondown" unicode="&#xbf;" horiz-adv-x="451" 
d="M162 396l-2 -52q-1 -19 -14.5 -32.5t-47.5 -36.5q-19 -13 -37 -31t-30 -45q-6 -14 -9 -31t-3 -38v-111q0 -71 49 -116.5t156 -45.5q105 0 157 45t52 126v134h-167v-122q0 -20 -8.5 -32t-32.5 -12q-19 0 -28.5 9t-9.5 26v105q0 20 16 34t37 27q43 28 60 58t17 70
q0 18 -0.5 35.5t-2.5 35.5q-9 -4 -27 -8t-50 -4q-31 0 -48 4t-27 8zM237 596q-53 0 -73 -17.5t-20 -72.5q0 -56 20 -73.5t73 -17.5t73 17.5t20 73.5q0 37 -8 56.5t-28 26.5q-10 3 -24 5t-33 2z" />
    <glyph glyph-name="Agrave" unicode="&#xc0;" horiz-adv-x="459" 
d="M0 0zM221 390l7 90l7 -90l29 -174h-71zM299 0h164l-154 720h-162l-151 -720h163l13 79h114zM179 761h105l-63 152h-150z" />
    <glyph glyph-name="Aacute" unicode="&#xc1;" horiz-adv-x="459" 
d="M0 0zM221 390l7 90l7 -90l29 -174h-71zM299 0h164l-154 720h-162l-151 -720h163l13 79h114zM167 761h114l116 152h-151z" />
    <glyph glyph-name="Acircumflex" unicode="&#xc2;" horiz-adv-x="459" 
d="M0 0zM221 390l7 90l7 -90l29 -174h-71zM299 0h164l-154 720h-162l-151 -720h163l13 79h114zM259 761h110l-89 172h-100l-89 -172h107l31 73z" />
    <glyph glyph-name="Atilde" unicode="&#xc3;" horiz-adv-x="459" 
d="M0 0zM221 390l7 90l7 -90l29 -174h-71zM299 0h164l-154 720h-162l-151 -720h163l13 79h114zM72 760h93q0 20 4.5 29.5t12.5 9.5q15 0 31.5 -10.5t36.5 -20.5q10 -6 21.5 -8.5t24.5 -2.5q50 0 70.5 33.5t20.5 125.5h-94q0 -19 -4 -27t-15 -8t-27 10t-37 19q-10 5 -22 7.5
t-25 2.5q-51 0 -71 -35t-20 -125z" />
    <glyph glyph-name="Adieresis" unicode="&#xc4;" horiz-adv-x="459" 
d="M0 0zM221 390l7 90l7 -90l29 -174h-71zM299 0h164l-154 720h-162l-151 -720h163l13 79h114zM151 759q38 0 52 14.5t14 53.5q0 42 -14.5 57.5t-51.5 15.5q-35 0 -49.5 -15.5t-14.5 -57.5q0 -40 13 -54t51 -14zM304 759q37 0 51.5 14.5t14.5 53.5q0 42 -15 57.5t-51 15.5
q-37 0 -50.5 -15.5t-13.5 -57.5q0 -40 12.5 -54t51.5 -14z" />
    <glyph glyph-name="Aring" unicode="&#xc5;" horiz-adv-x="459" 
d="M0 0zM221 390l7 90l7 -90l29 -174h-71zM299 0h164l-154 720h-162l-151 -720h163l13 79h114zM228 755q57 0 89 28.5t32 78.5q0 52 -33.5 80.5t-87.5 28.5q-51 0 -85.5 -27.5t-34.5 -82.5q0 -52 32.5 -79t87.5 -27zM229 841q-12 0 -18 5.5t-6 16.5q0 10 5.5 16.5t18.5 6.5
t18.5 -6.5t5.5 -16.5q0 -11 -6 -16.5t-18 -5.5z" />
    <glyph glyph-name="AE" unicode="&#xc6;" horiz-adv-x="637" 
d="M283 214h-75l50 188zM312 0h299v151h-171l-19 141h182v145h-202l-18 138h226v145h-414l-203 -720h160l21 79h128z" />
    <glyph glyph-name="Ccedilla" unicode="&#xc7;" horiz-adv-x="470" 
d="M234 -241q67 0 105 28t38 80q0 47 -25 67t-70 24v34q80 9 122 57t44 148v125h-175v-114q-1 -35 -8 -51t-30 -16q-24 0 -31 17t-7 60v289q0 42 7.5 60t30.5 18t30.5 -15t7.5 -50v-104h174v119q0 102 -55 149t-156 47q-96 0 -153 -49.5t-57 -161.5v-315q0 -99 39 -150.5
t118 -62.5v-101h54q16 0 24 -5.5t8 -15.5q0 -12 -8 -17.5t-24 -5.5t-24 5t-13 19h-120q12 -61 50 -86.5t104 -25.5z" />
    <glyph glyph-name="Egrave" unicode="&#xc8;" horiz-adv-x="401" 
d="M31 0zM383 154h-190v134h167v150h-167v134h187v148h-349v-720h352v154zM162 761h105l-63 152h-150z" />
    <glyph glyph-name="Eacute" unicode="&#xc9;" horiz-adv-x="401" 
d="M31 0zM383 154h-190v134h167v150h-167v134h187v148h-349v-720h352v154zM140 761h114l116 152h-151z" />
    <glyph glyph-name="Ecircumflex" unicode="&#xca;" horiz-adv-x="401" 
d="M31 0zM383 154h-190v134h167v150h-167v134h187v148h-349v-720h352v154zM242 761h110l-89 172h-100l-89 -172h107l31 73z" />
    <glyph glyph-name="Edieresis" unicode="&#xcb;" horiz-adv-x="401" 
d="M31 0zM383 154h-190v134h167v150h-167v134h187v148h-349v-720h352v154zM134 759q38 0 52 14.5t14 53.5q0 42 -14.5 57.5t-51.5 15.5q-35 0 -49.5 -15.5t-14.5 -57.5q0 -40 13 -54t51 -14zM287 759q37 0 51.5 14.5t14.5 53.5q0 42 -15 57.5t-51 15.5q-37 0 -50.5 -15.5
t-13.5 -57.5q0 -40 12.5 -54t51.5 -14z" />
    <glyph glyph-name="Igrave" unicode="&#xcc;" horiz-adv-x="353" 
d="M19 0zM332 0v156h-75v409h75v155h-311v-155h77v-409h-77v-156h311zM127 761h105l-63 152h-150z" />
    <glyph glyph-name="Iacute" unicode="&#xcd;" horiz-adv-x="353" 
d="M21 0zM332 0v156h-75v409h75v155h-311v-155h77v-409h-77v-156h311zM115 761h114l116 152h-151z" />
    <glyph glyph-name="Icircumflex" unicode="&#xce;" horiz-adv-x="353" 
d="M21 0zM332 0v156h-75v409h75v155h-311v-155h77v-409h-77v-156h311zM207 761h110l-89 172h-100l-89 -172h107l31 73z" />
    <glyph glyph-name="Idieresis" unicode="&#xcf;" horiz-adv-x="353" 
d="M21 0zM332 0v156h-75v409h75v155h-311v-155h77v-409h-77v-156h311zM99 759q38 0 52 14.5t14 53.5q0 42 -14.5 57.5t-51.5 15.5q-35 0 -49.5 -15.5t-14.5 -57.5q0 -40 13 -54t51 -14zM252 759q37 0 51.5 14.5t14.5 53.5q0 42 -15 57.5t-51 15.5q-37 0 -50.5 -15.5
t-13.5 -57.5q0 -40 12.5 -54t51.5 -14z" />
    <glyph glyph-name="Eth" unicode="&#xd0;" horiz-adv-x="485" 
d="M241 0q63 0 111.5 20.5t76.5 66.5q14 23 21 53.5t7 68.5v303q0 76 -27.5 121.5t-75.5 65.5q-24 11 -52 16t-59 5h-202v-282h-37v-145h37v-293h200zM239 293v145h-34v142h28q25 0 39 -17.5t14 -62.5v-275q0 -44 -13.5 -62.5t-39.5 -18.5h-28v149h34z" />
    <glyph glyph-name="Ntilde" unicode="&#xd1;" horiz-adv-x="492" 
d="M31 0zM179 322l-4 71l12 -41l130 -352h144v720h-148v-327l3 -65l-11 40l-127 352h-147v-720h148v322zM99 757h93q0 20 4.5 29.5t12.5 9.5q15 0 31.5 -10.5t36.5 -20.5q10 -6 21.5 -8.5t24.5 -2.5q50 0 70.5 33.5t20.5 125.5h-94q0 -19 -4 -27t-15 -8t-27 10t-37 19
q-10 5 -22 7.5t-25 2.5q-51 0 -71 -35t-20 -125z" />
    <glyph glyph-name="Ograve" unicode="&#xd2;" horiz-adv-x="478" 
d="M26 0zM239 -11q63 0 111 22.5t75 69.5q13 24 20 54.5t7 68.5v312q0 110 -59.5 162.5t-153.5 52.5q-96 0 -154.5 -52.5t-58.5 -162.5v-312q0 -113 58 -164t155 -51zM239 140q-24 0 -33 17.5t-9 59.5v291q0 42 9 60t33 18t33 -17.5t9 -60.5v-291q0 -43 -9 -60t-33 -17z
M193 772h105l-63 152h-150z" />
    <glyph glyph-name="Oacute" unicode="&#xd3;" horiz-adv-x="478" 
d="M26 0zM239 -11q63 0 111 22.5t75 69.5q13 24 20 54.5t7 68.5v312q0 110 -59.5 162.5t-153.5 52.5q-96 0 -154.5 -52.5t-58.5 -162.5v-312q0 -113 58 -164t155 -51zM239 140q-24 0 -33 17.5t-9 59.5v291q0 42 9 60t33 18t33 -17.5t9 -60.5v-291q0 -43 -9 -60t-33 -17z
M185 772h114l116 152h-151z" />
    <glyph glyph-name="Ocircumflex" unicode="&#xd4;" horiz-adv-x="478" 
d="M26 0zM239 -11q63 0 111 22.5t75 69.5q13 24 20 54.5t7 68.5v312q0 110 -59.5 162.5t-153.5 52.5q-96 0 -154.5 -52.5t-58.5 -162.5v-312q0 -113 58 -164t155 -51zM239 140q-24 0 -33 17.5t-9 59.5v291q0 42 9 60t33 18t33 -17.5t9 -60.5v-291q0 -43 -9 -60t-33 -17z
M273 772h110l-89 172h-100l-89 -172h107l31 73z" />
    <glyph glyph-name="Otilde" unicode="&#xd5;" horiz-adv-x="478" 
d="M26 0zM239 -11q63 0 111 22.5t75 69.5q13 24 20 54.5t7 68.5v312q0 110 -59.5 162.5t-153.5 52.5q-96 0 -154.5 -52.5t-58.5 -162.5v-312q0 -113 58 -164t155 -51zM239 140q-24 0 -33 17.5t-9 59.5v291q0 42 9 60t33 18t33 -17.5t9 -60.5v-291q0 -43 -9 -60t-33 -17z
M85 771h93q0 20 4.5 29.5t12.5 9.5q15 0 31.5 -10.5t36.5 -20.5q10 -6 21.5 -8.5t24.5 -2.5q50 0 70.5 33.5t20.5 125.5h-94q0 -19 -4 -27t-15 -8t-27 10t-37 19q-10 5 -22 7.5t-25 2.5q-51 0 -71 -35t-20 -125z" />
    <glyph glyph-name="Odieresis" unicode="&#xd6;" horiz-adv-x="478" 
d="M26 0zM239 -11q63 0 111 22.5t75 69.5q13 24 20 54.5t7 68.5v312q0 110 -59.5 162.5t-153.5 52.5q-96 0 -154.5 -52.5t-58.5 -162.5v-312q0 -113 58 -164t155 -51zM239 140q-24 0 -33 17.5t-9 59.5v291q0 42 9 60t33 18t33 -17.5t9 -60.5v-291q0 -43 -9 -60t-33 -17z
M165 760q38 0 52 14.5t14 53.5q0 42 -14.5 57.5t-51.5 15.5q-35 0 -49.5 -15.5t-14.5 -57.5q0 -40 13 -54t51 -14zM318 760q37 0 51.5 14.5t14.5 53.5q0 42 -15 57.5t-51 15.5q-37 0 -50.5 -15.5t-13.5 -57.5q0 -40 12.5 -54t51.5 -14z" />
    <glyph glyph-name="multiply" unicode="&#xd7;" horiz-adv-x="453" 
d="M321 174l89 91l-92 91l89 89l-90 91l-89 -89l-90 89l-90 -91l89 -89l-93 -93l90 -90l94 93z" />
    <glyph glyph-name="Oslash" unicode="&#xd8;" horiz-adv-x="485" 
d="M221 -105l23 92q97 0 157 54.5t60 166.5v305q0 65 -21.5 111t-59.5 72l31 112h-139l-19 -75h-9q-100 0 -159.5 -54.5t-59.5 -164.5v-305q0 -70 22.5 -117.5t65.5 -73.5l-35 -123h143zM243 135q-28 0 -40.5 20.5t-12.5 63.5v288q0 44 13 63t40 19q29 0 40.5 -19t11.5 -63
v-288q0 -45 -12.5 -64.5t-39.5 -19.5z" />
    <glyph glyph-name="Ugrave" unicode="&#xd9;" horiz-adv-x="463" 
d="M28 0zM232 -11q95 0 149 51t54 164v516h-164v-506q0 -39 -8 -52.5t-31 -13.5q-22 0 -31 14t-9 52v506h-164v-516q0 -113 52.5 -164t151.5 -51zM182 761h105l-63 152h-150z" />
    <glyph glyph-name="Uacute" unicode="&#xda;" horiz-adv-x="463" 
d="M28 0zM232 -11q95 0 149 51t54 164v516h-164v-506q0 -39 -8 -52.5t-31 -13.5q-22 0 -31 14t-9 52v506h-164v-516q0 -113 52.5 -164t151.5 -51zM170 761h114l116 152h-151z" />
    <glyph glyph-name="Ucircumflex" unicode="&#xdb;" horiz-adv-x="463" 
d="M28 0zM232 -11q95 0 149 51t54 164v516h-164v-506q0 -39 -8 -52.5t-31 -13.5q-22 0 -31 14t-9 52v506h-164v-516q0 -113 52.5 -164t151.5 -51zM262 761h110l-89 172h-100l-89 -172h107l31 73z" />
    <glyph glyph-name="Udieresis" unicode="&#xdc;" horiz-adv-x="463" 
d="M28 0zM232 -11q95 0 149 51t54 164v516h-164v-506q0 -39 -8 -52.5t-31 -13.5q-22 0 -31 14t-9 52v506h-164v-516q0 -113 52.5 -164t151.5 -51zM154 759q38 0 52 14.5t14 53.5q0 42 -14.5 57.5t-51.5 15.5q-35 0 -49.5 -15.5t-14.5 -57.5q0 -40 13 -54t51 -14zM307 759
q37 0 51.5 14.5t14.5 53.5q0 42 -15 57.5t-51 15.5q-37 0 -50.5 -15.5t-13.5 -57.5q0 -40 12.5 -54t51.5 -14z" />
    <glyph glyph-name="Yacute" unicode="&#xdd;" horiz-adv-x="435" 
d="M0 0zM301 0v260l139 460h-167l-53 -216l-3 -40l-3 40l-51 216h-168l136 -463v-257h170zM154 759h114l116 152h-151z" />
    <glyph glyph-name="Thorn" unicode="&#xde;" horiz-adv-x="460" 
d="M239 114q107 0 155 46.5t48 131.5v143q0 83 -48.5 127.5t-154.5 44.5h-45v113h-161v-720h161v114h45zM230 469q22 0 34.5 -7t12.5 -30v-138q0 -23 -12.5 -30.5t-34.5 -7.5h-36v213h36z" />
    <glyph glyph-name="germandbls" unicode="&#xdf;" horiz-adv-x="451" 
d="M192 587q0 20 7.5 31t28.5 11q20 0 27 -10.5t7 -28.5v-92q0 -22 -9 -30.5t-22 -8.5h-4v-135h7q15 0 22.5 -6.5t7.5 -26.5v-111q0 -23 -8 -30.5t-25 -7.5h-4v-142h46q66 0 99.5 11.5t44.5 44.5q6 16 9 40t3 55v153q0 43 -14.5 65t-40.5 31q23 12 34 35.5t11 58.5v107
q0 80 -45.5 123.5t-144.5 43.5q-98 0 -149 -46t-51 -128v-594h163v587z" />
    <glyph glyph-name="agrave" unicode="&#xe0;" horiz-adv-x="443" 
d="M18 0zM218 113q-16 0 -24.5 9.5t-8.5 27.5v39q0 23 3 35.5t11 21.5q5 6 15.5 11t23.5 10q7 2 11 5t7 6v-112q0 -26 -9.5 -39.5t-28.5 -13.5zM287 0h128v415q0 92 -46 135t-148 43q-99 0 -144 -47t-45 -124v-58h157v58q0 23 9 34t26 11q16 0 24 -10.5t8 -31.5v-19
q0 -28 -14.5 -39t-52.5 -24q-43 -15 -72.5 -25.5t-54.5 -31.5q-22 -18 -33 -45t-11 -62v-46q0 -67 28 -105.5t103 -38.5q44 0 73.5 18.5t43.5 54.5zM176 633h105l-63 152h-150z" />
    <glyph glyph-name="aacute" unicode="&#xe1;" horiz-adv-x="443" 
d="M18 0zM218 113q-16 0 -24.5 9.5t-8.5 27.5v39q0 23 3 35.5t11 21.5q5 6 15.5 11t23.5 10q7 2 11 5t7 6v-112q0 -26 -9.5 -39.5t-28.5 -13.5zM287 0h128v415q0 92 -46 135t-148 43q-99 0 -144 -47t-45 -124v-58h157v58q0 23 9 34t26 11q16 0 24 -10.5t8 -31.5v-19
q0 -28 -14.5 -39t-52.5 -24q-43 -15 -72.5 -25.5t-54.5 -31.5q-22 -18 -33 -45t-11 -62v-46q0 -67 28 -105.5t103 -38.5q44 0 73.5 18.5t43.5 54.5zM157 633h114l116 152h-151z" />
    <glyph glyph-name="acircumflex" unicode="&#xe2;" horiz-adv-x="443" 
d="M18 0zM218 113q-16 0 -24.5 9.5t-8.5 27.5v39q0 23 3 35.5t11 21.5q5 6 15.5 11t23.5 10q7 2 11 5t7 6v-112q0 -26 -9.5 -39.5t-28.5 -13.5zM287 0h128v415q0 92 -46 135t-148 43q-99 0 -144 -47t-45 -124v-58h157v58q0 23 9 34t26 11q16 0 24 -10.5t8 -31.5v-19
q0 -28 -14.5 -39t-52.5 -24q-43 -15 -72.5 -25.5t-54.5 -31.5q-22 -18 -33 -45t-11 -62v-46q0 -67 28 -105.5t103 -38.5q44 0 73.5 18.5t43.5 54.5zM256 633h110l-89 172h-100l-89 -172h107l31 73z" />
    <glyph glyph-name="atilde" unicode="&#xe3;" horiz-adv-x="443" 
d="M18 0zM218 113q-16 0 -24.5 9.5t-8.5 27.5v39q0 23 3 35.5t11 21.5q5 6 15.5 11t23.5 10q7 2 11 5t7 6v-112q0 -26 -9.5 -39.5t-28.5 -13.5zM287 0h128v415q0 92 -46 135t-148 43q-99 0 -144 -47t-45 -124v-58h157v58q0 23 9 34t26 11q16 0 24 -10.5t8 -31.5v-19
q0 -28 -14.5 -39t-52.5 -24q-43 -15 -72.5 -25.5t-54.5 -31.5q-22 -18 -33 -45t-11 -62v-46q0 -67 28 -105.5t103 -38.5q44 0 73.5 18.5t43.5 54.5zM69 632h93q0 20 4.5 29.5t12.5 9.5q15 0 31.5 -10.5t36.5 -20.5q10 -6 21.5 -8.5t24.5 -2.5q50 0 70.5 33.5t20.5 125.5h-94
q0 -19 -4 -27t-15 -8t-27 10t-37 19q-10 5 -22 7.5t-25 2.5q-51 0 -71 -35t-20 -125z" />
    <glyph glyph-name="adieresis" unicode="&#xe4;" horiz-adv-x="443" 
d="M18 0zM218 113q-16 0 -24.5 9.5t-8.5 27.5v39q0 23 3 35.5t11 21.5q5 6 15.5 11t23.5 10q7 2 11 5t7 6v-112q0 -26 -9.5 -39.5t-28.5 -13.5zM287 0h128v415q0 92 -46 135t-148 43q-99 0 -144 -47t-45 -124v-58h157v58q0 23 9 34t26 11q16 0 24 -10.5t8 -31.5v-19
q0 -28 -14.5 -39t-52.5 -24q-43 -15 -72.5 -25.5t-54.5 -31.5q-22 -18 -33 -45t-11 -62v-46q0 -67 28 -105.5t103 -38.5q44 0 73.5 18.5t43.5 54.5zM148 631q38 0 52 14.5t14 53.5q0 42 -14.5 57.5t-51.5 15.5q-35 0 -49.5 -15.5t-14.5 -57.5q0 -40 13 -54t51 -14zM301 631
q37 0 51.5 14.5t14.5 53.5q0 42 -15 57.5t-51 15.5q-37 0 -50.5 -15.5t-13.5 -57.5q0 -40 12.5 -54t51.5 -14z" />
    <glyph glyph-name="aring" unicode="&#xe5;" horiz-adv-x="443" 
d="M18 0zM218 113q-16 0 -24.5 9.5t-8.5 27.5v39q0 23 3 35.5t11 21.5q5 6 15.5 11t23.5 10q7 2 11 5t7 6v-112q0 -26 -9.5 -39.5t-28.5 -13.5zM287 0h128v415q0 92 -46 135t-148 43q-99 0 -144 -47t-45 -124v-58h157v58q0 23 9 34t26 11q16 0 24 -10.5t8 -31.5v-19
q0 -28 -14.5 -39t-52.5 -24q-43 -15 -72.5 -25.5t-54.5 -31.5q-22 -18 -33 -45t-11 -62v-46q0 -67 28 -105.5t103 -38.5q44 0 73.5 18.5t43.5 54.5zM225 630q57 0 89 28.5t32 78.5q0 52 -33.5 80.5t-87.5 28.5q-51 0 -85.5 -27.5t-34.5 -82.5q0 -52 32.5 -79t87.5 -27z
M226 716q-12 0 -18 5.5t-6 16.5q0 10 5.5 16.5t18.5 6.5t18.5 -6.5t5.5 -16.5q0 -11 -6 -16.5t-18 -5.5z" />
    <glyph glyph-name="ae" unicode="&#xe6;" horiz-adv-x="670" 
d="M452 -11q81 1 123.5 27t58.5 71q7 23 11 48.5t4 54.5v20h-163v-16q0 -35 -6.5 -51.5t-28.5 -16.5t-31 13.5t-9 51.5v59h238v142q0 96 -43.5 148t-147.5 52q-36 0 -64.5 -8.5t-49.5 -25.5q-20 17 -50 26t-73 9q-95 0 -143 -48.5t-48 -122.5v-58h160v58q0 23 9 34t26 11
q16 0 24 -10.5t8 -31.5v-19q0 -28 -14.5 -39t-52.5 -24q-43 -15 -73 -25.5t-55 -31.5q-22 -18 -33 -43.5t-11 -58.5v-57q0 -67 33 -102t106 -35q55 0 88.5 18.5t47.5 61.5q18 -41 56 -61.5t103 -19.5zM411 387q0 38 8.5 55t32.5 17q23 0 31 -16.5t8 -52.5v-42h-80v39z
M219 113q-16 0 -24 9.5t-8 27.5v39q0 23 3 35.5t11 21.5q5 6 15 11t23 10q7 2 11 5t7 6v-112q0 -26 -9.5 -39.5t-28.5 -13.5z" />
    <glyph glyph-name="ccedilla" unicode="&#xe7;" horiz-adv-x="443" 
d="M222 -241q67 0 105 28t38 80q0 47 -25 67t-70 24v34q77 11 113 58.5t36 134.5v87h-164v-82q0 -32 -6.5 -45.5t-26.5 -13.5t-28 13.5t-8 48.5v195q0 40 8 53.5t29 13.5q20 0 26 -14t6 -54v-62h164v65q0 98 -46.5 150.5t-143.5 52.5t-150 -50t-53 -153v-201
q0 -89 36 -137.5t109 -59.5v-101h54q16 0 24 -5.5t8 -15.5q0 -12 -8 -17.5t-24 -5.5t-24 5t-13 19h-120q12 -61 50 -86.5t104 -25.5z" />
    <glyph glyph-name="egrave" unicode="&#xe8;" horiz-adv-x="444" 
d="M28 0zM226 -11q81 1 123.5 27t58.5 71q7 23 11 48.5t4 54.5v20h-160v-16q0 -35 -7 -51.5t-29 -16.5t-31.5 13.5t-9.5 51.5v60h237v141q0 96 -47.5 148.5t-151.5 52.5q-89 0 -142.5 -52t-53.5 -150v-197q0 -103 47.5 -155t150.5 -50zM186 387q0 38 9 55t33 17
q23 0 31.5 -16.5t8.5 -52.5v-42h-82v39zM176 633h105l-63 152h-150z" />
    <glyph glyph-name="eacute" unicode="&#xe9;" horiz-adv-x="444" 
d="M28 0zM226 -11q81 1 123.5 27t58.5 71q7 23 11 48.5t4 54.5v20h-160v-16q0 -35 -7 -51.5t-29 -16.5t-31.5 13.5t-9.5 51.5v60h237v141q0 96 -47.5 148.5t-151.5 52.5q-89 0 -142.5 -52t-53.5 -150v-197q0 -103 47.5 -155t150.5 -50zM186 387q0 38 9 55t33 17
q23 0 31.5 -16.5t8.5 -52.5v-42h-82v39zM164 633h114l116 152h-151z" />
    <glyph glyph-name="ecircumflex" unicode="&#xea;" horiz-adv-x="444" 
d="M28 0zM226 -11q81 1 123.5 27t58.5 71q7 23 11 48.5t4 54.5v20h-160v-16q0 -35 -7 -51.5t-29 -16.5t-31.5 13.5t-9.5 51.5v60h237v141q0 96 -47.5 148.5t-151.5 52.5q-89 0 -142.5 -52t-53.5 -150v-197q0 -103 47.5 -155t150.5 -50zM186 387q0 38 9 55t33 17
q23 0 31.5 -16.5t8.5 -52.5v-42h-82v39zM256 633h110l-89 172h-100l-89 -172h107l31 73z" />
    <glyph glyph-name="edieresis" unicode="&#xeb;" horiz-adv-x="444" 
d="M28 0zM226 -11q81 1 123.5 27t58.5 71q7 23 11 48.5t4 54.5v20h-160v-16q0 -35 -7 -51.5t-29 -16.5t-31.5 13.5t-9.5 51.5v60h237v141q0 96 -47.5 148.5t-151.5 52.5q-89 0 -142.5 -52t-53.5 -150v-197q0 -103 47.5 -155t150.5 -50zM186 387q0 38 9 55t33 17
q23 0 31.5 -16.5t8.5 -52.5v-42h-82v39zM148 631q38 0 52 14.5t14 53.5q0 42 -14.5 57.5t-51.5 15.5q-35 0 -49.5 -15.5t-14.5 -57.5q0 -40 13 -54t51 -14zM301 631q37 0 51.5 14.5t14.5 53.5q0 42 -15 57.5t-51 15.5q-37 0 -50.5 -15.5t-13.5 -57.5q0 -40 12.5 -54
t51.5 -14z" />
    <glyph glyph-name="igrave" unicode="&#xec;" horiz-adv-x="226" 
d="M0 0zM197 0v585h-168v-585h168zM62 626h105l-63 152h-150z" />
    <glyph glyph-name="iacute" unicode="&#xed;" horiz-adv-x="226" 
d="M29 0zM197 0v585h-168v-585h168zM58 636h114l116 152h-151z" />
    <glyph glyph-name="icircumflex" unicode="&#xee;" horiz-adv-x="226" 
d="M0 0zM197 0v585h-168v-585h168zM142 626h110l-89 172h-100l-89 -172h107l31 73z" />
    <glyph glyph-name="idieresis" unicode="&#xef;" horiz-adv-x="226" 
d="M0 0zM197 0v585h-168v-585h168zM34 624q38 0 52 14.5t14 53.5q0 42 -14.5 57.5t-51.5 15.5q-35 0 -49.5 -15.5t-14.5 -57.5q0 -40 13 -54t51 -14zM187 624q37 0 51.5 14.5t14.5 53.5q0 42 -15 57.5t-51 15.5q-37 0 -50.5 -15.5t-13.5 -57.5q0 -40 12.5 -54t51.5 -14z" />
    <glyph glyph-name="eth" unicode="&#xf0;" horiz-adv-x="445" 
d="M223 -11q93 0 146.5 50.5t53.5 156.5v202q0 91 -28 165.5t-78 130.5l112 73h-128l-36 -23l-16 12t-16 11h-211q41 -25 74 -48.5t59 -45.5l-116 -75h129l39 26q15 -17 27.5 -34t21.5 -35q-11 9 -27 13.5t-37 4.5q-84 0 -126.5 -49.5t-42.5 -143.5v-201q0 -97 51 -143.5
t149 -46.5zM224 131q-18 0 -29.5 12t-11.5 40v195q0 30 10.5 43t30.5 13q22 0 31.5 -12t9.5 -44v-194q0 -30 -12 -41.5t-29 -11.5z" />
    <glyph glyph-name="ntilde" unicode="&#xf1;" horiz-adv-x="453" 
d="M29 0zM194 390q0 29 7.5 44.5t27.5 15.5t26 -14.5t6 -41.5v-394h164v423q0 86 -32 127.5t-99 41.5q-42 0 -70.5 -19.5t-42.5 -58.5l-17 71h-135v-585h165v390zM78 624h93q0 20 4.5 29.5t12.5 9.5q15 0 31.5 -10.5t36.5 -20.5q10 -6 21.5 -8.5t24.5 -2.5q50 0 70.5 33.5
t20.5 125.5h-94q0 -19 -4 -27t-15 -8t-27 10t-37 19q-10 5 -22 7.5t-25 2.5q-51 0 -71 -35t-20 -125z" />
    <glyph glyph-name="ograve" unicode="&#xf2;" horiz-adv-x="445" 
d="M26 0zM222 -11q100 0 148.5 48t48.5 152v201q0 103 -50 153t-147 50q-93 0 -144.5 -49.5t-51.5 -153.5v-201q0 -104 48 -152t148 -48zM223 131q-18 0 -27.5 14t-9.5 48v196q0 37 8.5 51.5t28.5 14.5q22 0 29 -14.5t7 -51.5v-196q0 -34 -9.5 -48t-26.5 -14zM173 633h105
l-63 152h-150z" />
    <glyph glyph-name="oacute" unicode="&#xf3;" horiz-adv-x="445" 
d="M26 0zM222 -11q100 0 148.5 48t48.5 152v201q0 103 -50 153t-147 50q-93 0 -144.5 -49.5t-51.5 -153.5v-201q0 -104 48 -152t148 -48zM223 131q-18 0 -27.5 14t-9.5 48v196q0 37 8.5 51.5t28.5 14.5q22 0 29 -14.5t7 -51.5v-196q0 -34 -9.5 -48t-26.5 -14zM161 633h114
l116 152h-151z" />
    <glyph glyph-name="ocircumflex" unicode="&#xf4;" horiz-adv-x="445" 
d="M26 0zM222 -11q100 0 148.5 48t48.5 152v201q0 103 -50 153t-147 50q-93 0 -144.5 -49.5t-51.5 -153.5v-201q0 -104 48 -152t148 -48zM223 131q-18 0 -27.5 14t-9.5 48v196q0 37 8.5 51.5t28.5 14.5q22 0 29 -14.5t7 -51.5v-196q0 -34 -9.5 -48t-26.5 -14zM253 633h110
l-89 172h-100l-89 -172h107l31 73z" />
    <glyph glyph-name="otilde" unicode="&#xf5;" horiz-adv-x="445" 
d="M26 0zM222 -11q100 0 148.5 48t48.5 152v201q0 103 -50 153t-147 50q-93 0 -144.5 -49.5t-51.5 -153.5v-201q0 -104 48 -152t148 -48zM223 131q-18 0 -27.5 14t-9.5 48v196q0 37 8.5 51.5t28.5 14.5q22 0 29 -14.5t7 -51.5v-196q0 -34 -9.5 -48t-26.5 -14zM66 632h93
q0 20 4.5 29.5t12.5 9.5q15 0 31.5 -10.5t36.5 -20.5q10 -6 21.5 -8.5t24.5 -2.5q50 0 70.5 33.5t20.5 125.5h-94q0 -19 -4 -27t-15 -8t-27 10t-37 19q-10 5 -22 7.5t-25 2.5q-51 0 -71 -35t-20 -125z" />
    <glyph glyph-name="odieresis" unicode="&#xf6;" horiz-adv-x="445" 
d="M26 0zM222 -11q100 0 148.5 48t48.5 152v201q0 103 -50 153t-147 50q-93 0 -144.5 -49.5t-51.5 -153.5v-201q0 -104 48 -152t148 -48zM223 131q-18 0 -27.5 14t-9.5 48v196q0 37 8.5 51.5t28.5 14.5q22 0 29 -14.5t7 -51.5v-196q0 -34 -9.5 -48t-26.5 -14zM145 631
q38 0 52 14.5t14 53.5q0 42 -14.5 57.5t-51.5 15.5q-35 0 -49.5 -15.5t-14.5 -57.5q0 -40 13 -54t51 -14zM298 631q37 0 51.5 14.5t14.5 53.5q0 42 -15 57.5t-51 15.5q-37 0 -50.5 -15.5t-13.5 -57.5q0 -40 12.5 -54t51.5 -14z" />
    <glyph glyph-name="divide" unicode="&#xf7;" horiz-adv-x="453" 
d="M226 448q46 0 63.5 12t17.5 49q0 38 -17.5 49.5t-63.5 11.5q-45 0 -62.5 -11.5t-17.5 -49.5q0 -37 16 -49t64 -12zM413 282v141h-372v-141h372zM226 133q46 0 63.5 12.5t17.5 49.5q0 38 -17.5 49.5t-63.5 11.5q-45 0 -62.5 -11.5t-17.5 -49.5q0 -37 16 -49.5t64 -12.5z
" />
    <glyph glyph-name="oslash" unicode="&#xf8;" horiz-adv-x="445" 
d="M203 -91l22 80q98 0 146 48t48 152v201q0 55 -14.5 95t-43.5 66l31 112h-161l-20 -70q-88 -3 -136.5 -52.5t-48.5 -150.5v-201q0 -53 12.5 -92t37.5 -63l-35 -125h162zM223 131q-18 0 -27.5 14t-9.5 48v196q0 37 8.5 51.5t28.5 14.5q22 0 29 -14.5t7 -51.5v-196
q0 -34 -9.5 -48t-26.5 -14z" />
    <glyph glyph-name="ugrave" unicode="&#xf9;" 
d="M29 0zM287 0h133v585h-163v-391q0 -29 -6 -44.5t-26 -15.5t-26 14.5t-6 41.5v395h-164v-424q0 -88 32.5 -129t101.5 -41q41 0 68 19.5t39 57.5zM173 626h105l-63 152h-150z" />
    <glyph glyph-name="uacute" unicode="&#xfa;" 
d="M29 0zM287 0h133v585h-163v-391q0 -29 -6 -44.5t-26 -15.5t-26 14.5t-6 41.5v395h-164v-424q0 -88 32.5 -129t101.5 -41q41 0 68 19.5t39 57.5zM161 626h114l116 152h-151z" />
    <glyph glyph-name="ucircumflex" unicode="&#xfb;" 
d="M29 0zM287 0h133v585h-163v-391q0 -29 -6 -44.5t-26 -15.5t-26 14.5t-6 41.5v395h-164v-424q0 -88 32.5 -129t101.5 -41q41 0 68 19.5t39 57.5zM256 626h110l-89 172h-100l-89 -172h107l31 73z" />
    <glyph glyph-name="udieresis" unicode="&#xfc;" 
d="M29 0zM287 0h133v585h-163v-391q0 -29 -6 -44.5t-26 -15.5t-26 14.5t-6 41.5v395h-164v-424q0 -88 32.5 -129t101.5 -41q41 0 68 19.5t39 57.5zM145 624q38 0 52 14.5t14 53.5q0 42 -14.5 57.5t-51.5 15.5q-35 0 -49.5 -15.5t-14.5 -57.5q0 -40 13 -54t51 -14zM298 624
q37 0 51.5 14.5t14.5 53.5q0 42 -15 57.5t-51 15.5q-37 0 -50.5 -15.5t-13.5 -57.5q0 -40 12.5 -54t51.5 -14z" />
    <glyph glyph-name="yacute" unicode="&#xfd;" horiz-adv-x="437" 
d="M2 0zM99 -188q63 0 98 12.5t55 46.5q9 16 18 40t16 55l149 619h-158l-47 -231l-9 -127l-8 127l-49 231h-162l147 -542l-7 -36q-5 -26 -18.5 -34.5t-46.5 -8.5h-53v-152h75zM152 625h114l116 152h-151z" />
    <glyph glyph-name="thorn" unicode="&#xfe;" 
d="M226 134q-19 0 -28.5 15.5t-9.5 54.5v187q0 35 10 50t29 15q18 0 27.5 -14.5t9.5 -55.5v-177q0 -46 -9 -60.5t-29 -14.5zM282 -11q71 0 106.5 53t35.5 178v162q0 116 -36.5 163.5t-101.5 47.5q-36 0 -60 -16.5t-37 -50.5v236h-161v-943h161v232q12 -30 34.5 -46t58.5 -16
z" />
    <glyph glyph-name="ydieresis" unicode="&#xff;" horiz-adv-x="437" 
d="M2 0zM99 -188q63 0 98 12.5t55 46.5q9 16 18 40t16 55l149 619h-158l-47 -231l-9 -127l-8 127l-49 231h-162l147 -542l-7 -36q-5 -26 -18.5 -34.5t-46.5 -8.5h-53v-152h75zM142 623q38 0 52 14.5t14 53.5q0 42 -14.5 57.5t-51.5 15.5q-35 0 -49.5 -15.5t-14.5 -57.5
q0 -40 13 -54t51 -14zM295 623q37 0 51.5 14.5t14.5 53.5q0 42 -15 57.5t-51 15.5q-37 0 -50.5 -15.5t-13.5 -57.5q0 -40 12.5 -54t51.5 -14z" />
    <glyph glyph-name="Amacron" unicode="&#x100;" horiz-adv-x="459" 
d="M0 0zM221 390l7 90l7 -90l29 -174h-71zM299 0h164l-154 720h-162l-151 -720h163l13 79h114zM123 769h211v112h-211v-112z" />
    <glyph glyph-name="amacron" unicode="&#x101;" horiz-adv-x="443" 
d="M18 0zM218 113q-16 0 -24.5 9.5t-8.5 27.5v39q0 23 3 35.5t11 21.5q5 6 15.5 11t23.5 10q7 2 11 5t7 6v-112q0 -26 -9.5 -39.5t-28.5 -13.5zM287 0h128v415q0 92 -46 135t-148 43q-99 0 -144 -47t-45 -124v-58h157v58q0 23 9 34t26 11q16 0 24 -10.5t8 -31.5v-19
q0 -28 -14.5 -39t-52.5 -24q-43 -15 -72.5 -25.5t-54.5 -31.5q-22 -18 -33 -45t-11 -62v-46q0 -67 28 -105.5t103 -38.5q44 0 73.5 18.5t43.5 54.5zM120 641h211v112h-211v-112z" />
    <glyph glyph-name="Abreve" unicode="&#x102;" horiz-adv-x="459" 
d="M0 0zM221 390l7 90l7 -90l29 -174h-71zM299 0h164l-154 720h-162l-151 -720h163l13 79h114zM228 759q71 0 103.5 35.5t32.5 114.5h-102q0 -31 -7 -41.5t-27 -10.5t-27 10.5t-7 41.5h-102q0 -79 30.5 -114.5t105.5 -35.5z" />
    <glyph glyph-name="abreve" unicode="&#x103;" horiz-adv-x="443" 
d="M18 0zM218 113q-16 0 -24.5 9.5t-8.5 27.5v39q0 23 3 35.5t11 21.5q5 6 15.5 11t23.5 10q7 2 11 5t7 6v-112q0 -26 -9.5 -39.5t-28.5 -13.5zM287 0h128v415q0 92 -46 135t-148 43q-99 0 -144 -47t-45 -124v-58h157v58q0 23 9 34t26 11q16 0 24 -10.5t8 -31.5v-19
q0 -28 -14.5 -39t-52.5 -24q-43 -15 -72.5 -25.5t-54.5 -31.5q-22 -18 -33 -45t-11 -62v-46q0 -67 28 -105.5t103 -38.5q44 0 73.5 18.5t43.5 54.5zM225 631q71 0 103.5 35.5t32.5 114.5h-102q0 -31 -7 -41.5t-27 -10.5t-27 10.5t-7 41.5h-102q0 -79 30.5 -114.5
t105.5 -35.5z" />
    <glyph glyph-name="Aogonek" unicode="&#x104;" horiz-adv-x="459" 
d="M379 -208q65 0 104 31.5t49 98.5h-123q-1 -19 -7.5 -26.5t-16.5 -7.5q-9 0 -14 4.5t-5 13.5q0 7 5.5 16t25.5 27q11 9 27.5 21.5t39.5 29.5l-1 1l-154 719h-162l-151 -720h163l13 79h114l13 -79h6q-32 -28 -43 -53t-11 -50q0 -53 32 -79t96 -26zM221 390l7 90l7 -90
l29 -174h-71z" />
    <glyph glyph-name="aogonek" unicode="&#x105;" horiz-adv-x="443" 
d="M218 113q-16 0 -24.5 9.5t-8.5 27.5v39q0 23 3 35.5t11 21.5q5 6 15.5 11t23.5 10q7 2 11 5t7 6v-112q0 -26 -9.5 -39.5t-28.5 -13.5zM483 -78h-123q-1 -19 -7.5 -26.5t-16.5 -7.5q-9 0 -14 4.5t-5 13.5q0 7 5.5 16t25.5 27q11 9 27.5 21.5t39.5 29.5v415q0 92 -46 135
t-148 43q-99 0 -144 -47t-45 -124v-58h157v58q0 23 9 34t26 11q16 0 24 -10.5t8 -31.5v-19q0 -28 -14.5 -39t-52.5 -24q-43 -15 -72.5 -25.5t-54.5 -31.5q-22 -18 -33 -45t-11 -62v-46q0 -67 28 -105.5t103 -38.5q44 0 73.5 18.5t43.5 54.5l15 -43q-48 -35 -63.5 -63.5
t-15.5 -58.5q0 -53 32 -79t96 -26q65 0 104 31.5t49 98.5z" />
    <glyph glyph-name="Cacute" unicode="&#x106;" horiz-adv-x="470" 
d="M26 0zM234 -11q102 0 157 46.5t57 161.5v125h-175v-114q-1 -35 -8 -51t-30 -16q-24 0 -31 17t-7 60v289q0 42 7.5 60t30.5 18t30.5 -15t7.5 -50v-104h174v119q0 102 -55 149t-156 47q-96 0 -153 -49.5t-57 -161.5v-315q0 -114 51 -165t157 -51zM173 772h114l116 152h-151
z" />
    <glyph glyph-name="cacute" unicode="&#x107;" horiz-adv-x="443" 
d="M26 0zM220 -11q104 0 151.5 48t47.5 148v87h-164v-82q0 -32 -6.5 -45.5t-26.5 -13.5t-28 13.5t-8 48.5v195q0 40 8 53.5t29 13.5q20 0 26 -14t6 -54v-62h164v65q0 98 -46.5 150.5t-143.5 52.5t-150 -50t-53 -153v-201q0 -103 48.5 -151.5t145.5 -48.5zM164 634h114
l116 152h-151z" />
    <glyph glyph-name="Ccircumflex" unicode="&#x108;" horiz-adv-x="470" 
d="M26 0zM234 -11q102 0 157 46.5t57 161.5v125h-175v-114q-1 -35 -8 -51t-30 -16q-24 0 -31 17t-7 60v289q0 42 7.5 60t30.5 18t30.5 -15t7.5 -50v-104h174v119q0 102 -55 149t-156 47q-96 0 -153 -49.5t-57 -161.5v-315q0 -114 51 -165t157 -51zM272 772h110l-89 172h-100
l-89 -172h107l31 73z" />
    <glyph glyph-name="ccircumflex" unicode="&#x109;" horiz-adv-x="443" 
d="M26 0zM220 -11q104 0 151.5 48t47.5 148v87h-164v-82q0 -32 -6.5 -45.5t-26.5 -13.5t-28 13.5t-8 48.5v195q0 40 8 53.5t29 13.5q20 0 26 -14t6 -54v-62h164v65q0 98 -46.5 150.5t-143.5 52.5t-150 -50t-53 -153v-201q0 -103 48.5 -151.5t145.5 -48.5zM256 634h110
l-89 172h-100l-89 -172h107l31 73z" />
    <glyph glyph-name="Cdotaccent" unicode="&#x10a;" horiz-adv-x="470" 
d="M26 0zM234 -11q102 0 157 46.5t57 161.5v125h-175v-114q-1 -35 -8 -51t-30 -16q-24 0 -31 17t-7 60v289q0 42 7.5 60t30.5 18t30.5 -15t7.5 -50v-104h174v119q0 102 -55 149t-156 47q-96 0 -153 -49.5t-57 -161.5v-315q0 -114 51 -165t157 -51zM249 770q46 0 63.5 15.5
t17.5 66.5q0 52 -18 67.5t-63 15.5q-46 0 -63.5 -15.5t-17.5 -67.5q0 -35 6.5 -52.5t24.5 -23.5q9 -3 21.5 -4.5t28.5 -1.5z" />
    <glyph glyph-name="cdotaccent" unicode="&#x10b;" horiz-adv-x="444" 
d="M26 0zM220 -11q104 0 151.5 48t47.5 148v87h-164v-82q0 -32 -6.5 -45.5t-26.5 -13.5t-28 13.5t-8 48.5v195q0 40 8 53.5t29 13.5q20 0 26 -14t6 -54v-62h164v65q0 98 -46.5 150.5t-143.5 52.5t-150 -50t-53 -153v-201q0 -103 48.5 -151.5t145.5 -48.5zM225 632
q46 0 63.5 15.5t17.5 66.5q0 52 -18 67.5t-63 15.5q-46 0 -63.5 -15.5t-17.5 -67.5q0 -35 6.5 -52.5t24.5 -23.5q9 -3 21.5 -4.5t28.5 -1.5z" />
    <glyph glyph-name="Ccaron" unicode="&#x10c;" horiz-adv-x="470" 
d="M26 0zM234 -11q102 0 157 46.5t57 161.5v125h-175v-114q-1 -35 -8 -51t-30 -16q-24 0 -31 17t-7 60v289q0 42 7.5 60t30.5 18t30.5 -15t7.5 -50v-104h174v119q0 102 -55 149t-156 47q-96 0 -153 -49.5t-57 -161.5v-315q0 -114 51 -165t157 -51zM298 772l90 172h-107
l-32 -73l-29 73h-111l89 -172h100z" />
    <glyph glyph-name="ccaron" unicode="&#x10d;" horiz-adv-x="443" 
d="M26 0zM220 -11q104 0 151.5 48t47.5 148v87h-164v-82q0 -32 -6.5 -45.5t-26.5 -13.5t-28 13.5t-8 48.5v195q0 40 8 53.5t29 13.5q20 0 26 -14t6 -54v-62h164v65q0 98 -46.5 150.5t-143.5 52.5t-150 -50t-53 -153v-201q0 -103 48.5 -151.5t145.5 -48.5zM275 634l90 172
h-107l-32 -73l-29 73h-111l89 -172h100z" />
    <glyph glyph-name="Dcaron" unicode="&#x10e;" horiz-adv-x="473" 
d="M31 0zM31 0h200q63 0 111.5 20.5t76.5 66.5q14 23 21 53.5t7 68.5v303q0 76 -27.5 121.5t-75.5 65.5q-24 11 -52 16t-59 5h-202v-720zM223 580q25 0 39 -17.5t14 -62.5v-275q0 -44 -13.5 -62.5t-39.5 -18.5h-28v436h28zM278 761l90 172h-107l-32 -73l-29 73h-111l89 -172
h100z" />
    <glyph glyph-name="dcaron" unicode="&#x10f;" horiz-adv-x="452" 
d="M26 0zM220 128q-19 0 -26.5 16t-7.5 63v176q0 41 7.5 56t29.5 15q21 0 28.5 -22t7.5 -57v-176q0 -40 -10.5 -55.5t-28.5 -15.5zM281 0h138v762h-161v-239q-10 35 -33 52t-62 17q-61 0 -99 -47t-38 -163v-164q0 -118 31.5 -172t104.5 -54q48 0 71.5 23t32.5 61zM455 664
h95l87 152h-132z" />
    <glyph glyph-name="Dcroat" unicode="&#x110;" horiz-adv-x="485" 
d="M4 0zM241 0q63 0 111.5 20.5t76.5 66.5q14 23 21 53.5t7 68.5v303q0 76 -27.5 121.5t-75.5 65.5q-24 11 -52 16t-59 5h-202v-282h-37v-145h37v-293h200zM239 293v145h-34v142h28q25 0 39 -17.5t14 -62.5v-275q0 -44 -13.5 -62.5t-39.5 -18.5h-28v149h34z" />
    <glyph glyph-name="dcroat" unicode="&#x111;" horiz-adv-x="452" 
d="M220 128q-19 0 -26.5 16t-7.5 63v176q0 41 7.5 56t29.5 15q21 0 28.5 -22t7.5 -57v-176q0 -40 -10.5 -55.5t-28.5 -15.5zM266 76l15 -76h138v615h33v93h-33v54h-161v-54h-38v-93h38v-92q-10 35 -33 52t-62 17q-61 0 -99 -47t-38 -163v-164q0 -118 31.5 -172t104.5 -54
q48 0 71.5 23t32.5 61z" />
    <glyph glyph-name="Emacron" unicode="&#x112;" horiz-adv-x="401" 
d="M31 0zM383 154h-190v134h167v150h-167v134h187v148h-349v-720h352v154zM106 769h211v112h-211v-112z" />
    <glyph glyph-name="emacron" unicode="&#x113;" horiz-adv-x="444" 
d="M28 0zM226 -11q81 1 123.5 27t58.5 71q7 23 11 48.5t4 54.5v20h-160v-16q0 -35 -7 -51.5t-29 -16.5t-31.5 13.5t-9.5 51.5v60h237v141q0 96 -47.5 148.5t-151.5 52.5q-89 0 -142.5 -52t-53.5 -150v-197q0 -103 47.5 -155t150.5 -50zM186 387q0 38 9 55t33 17
q23 0 31.5 -16.5t8.5 -52.5v-42h-82v39zM120 641h211v112h-211v-112z" />
    <glyph glyph-name="Ebreve" unicode="&#x114;" horiz-adv-x="401" 
d="M31 0zM383 154h-190v134h167v150h-167v134h187v148h-349v-720h352v154zM211 759q71 0 103.5 35.5t32.5 114.5h-102q0 -31 -7 -41.5t-27 -10.5t-27 10.5t-7 41.5h-102q0 -79 30.5 -114.5t105.5 -35.5z" />
    <glyph glyph-name="ebreve" unicode="&#x115;" horiz-adv-x="444" 
d="M28 0zM226 -11q81 1 123.5 27t58.5 71q7 23 11 48.5t4 54.5v20h-160v-16q0 -35 -7 -51.5t-29 -16.5t-31.5 13.5t-9.5 51.5v60h237v141q0 96 -47.5 148.5t-151.5 52.5q-89 0 -142.5 -52t-53.5 -150v-197q0 -103 47.5 -155t150.5 -50zM186 387q0 38 9 55t33 17
q23 0 31.5 -16.5t8.5 -52.5v-42h-82v39zM225 631q71 0 103.5 35.5t32.5 114.5h-102q0 -31 -7 -41.5t-27 -10.5t-27 10.5t-7 41.5h-102q0 -79 30.5 -114.5t105.5 -35.5z" />
    <glyph glyph-name="Edotaccent" unicode="&#x116;" horiz-adv-x="401" 
d="M31 0zM383 154h-190v134h167v150h-167v134h187v148h-349v-720h352v154zM211 760q46 0 63.5 15.5t17.5 66.5q0 52 -18 67.5t-63 15.5q-46 0 -63.5 -15.5t-17.5 -67.5q0 -35 6.5 -52.5t24.5 -23.5q9 -3 21.5 -4.5t28.5 -1.5z" />
    <glyph glyph-name="edotaccent" unicode="&#x117;" horiz-adv-x="444" 
d="M28 0zM226 -11q81 1 123.5 27t58.5 71q7 23 11 48.5t4 54.5v20h-160v-16q0 -35 -7 -51.5t-29 -16.5t-31.5 13.5t-9.5 51.5v60h237v141q0 96 -47.5 148.5t-151.5 52.5q-89 0 -142.5 -52t-53.5 -150v-197q0 -103 47.5 -155t150.5 -50zM186 387q0 38 9 55t33 17
q23 0 31.5 -16.5t8.5 -52.5v-42h-82v39zM225 631q46 0 63.5 15.5t17.5 66.5q0 52 -18 67.5t-63 15.5q-46 0 -63.5 -15.5t-17.5 -67.5q0 -35 6.5 -52.5t24.5 -23.5q9 -3 21.5 -4.5t28.5 -1.5z" />
    <glyph glyph-name="Eogonek" unicode="&#x118;" horiz-adv-x="401" 
d="M450 -78h-123q-1 -19 -7.5 -26.5t-16.5 -7.5q-9 0 -14 4.5t-5 13.5q0 7 5.5 16t25.5 27q11 9 27.5 21.5t39.5 29.5h1v154h-190v134h167v150h-167v134h187v148h-349v-720h192q-32 -28 -43 -53t-11 -50q0 -53 32 -79t96 -26q65 0 104 31.5t49 98.5z" />
    <glyph glyph-name="eogonek" unicode="&#x119;" horiz-adv-x="444" 
d="M257 -195q65 0 104 31.5t49 98.5h-123q-1 -19 -7.5 -26.5t-16.5 -7.5q-9 0 -14 4.5t-5 13.5q0 7 5.5 16t25.5 27q10 9 26.5 21.5t38.5 28.5q50 24 66.5 71t16.5 107v20h-160v-16q0 -35 -7 -51.5t-29 -16.5t-31.5 13.5t-9.5 51.5v60h237v141q0 96 -47.5 148.5t-151.5 52.5
q-89 0 -142.5 -52t-53.5 -150v-197q0 -86 33 -136t103 -64q-20 -22 -27.5 -42.5t-7.5 -41.5q0 -53 32 -79t96 -26zM186 387q0 38 9 55t33 17q23 0 31.5 -16.5t8.5 -52.5v-42h-82v39z" />
    <glyph glyph-name="Ecaron" unicode="&#x11a;" horiz-adv-x="401" 
d="M31 0zM383 154h-190v134h167v150h-167v134h187v148h-349v-720h352v154zM262 761l90 172h-107l-32 -73l-29 73h-111l89 -172h100z" />
    <glyph glyph-name="ecaron" unicode="&#x11b;" horiz-adv-x="444" 
d="M28 0zM226 -11q81 1 123.5 27t58.5 71q7 23 11 48.5t4 54.5v20h-160v-16q0 -35 -7 -51.5t-29 -16.5t-31.5 13.5t-9.5 51.5v60h237v141q0 96 -47.5 148.5t-151.5 52.5q-89 0 -142.5 -52t-53.5 -150v-197q0 -103 47.5 -155t150.5 -50zM186 387q0 38 9 55t33 17
q23 0 31.5 -16.5t8.5 -52.5v-42h-82v39zM275 633l90 172h-107l-32 -73l-29 73h-111l89 -172h100z" />
    <glyph glyph-name="Gcircumflex" unicode="&#x11c;" horiz-adv-x="487" 
d="M26 0zM324 0h132v403h-224v-138h58v-46q0 -46 -12.5 -62.5t-35.5 -16.5q-24 0 -34.5 19t-10.5 59v289q0 43 11 60.5t33 17.5t33 -13t11 -51v-70h171v81q0 103 -54 151t-158 48q-98 0 -158 -50.5t-60 -162.5v-316q0 -112 35.5 -162.5t111.5 -50.5q58 0 91 31t43 88z
M281 772h110l-89 172h-100l-89 -172h107l31 73z" />
    <glyph glyph-name="gcircumflex" unicode="&#x11d;" horiz-adv-x="451" 
d="M4 0zM265 674h110l-89 172h-100l-89 -172h107l31 73zM452 -28v2q0 73 -46.5 109t-139.5 36h-82q-32 0 -42 4t-10 12t9.5 13.5t40.5 5.5h45q101 0 147.5 40.5t46.5 128.5v106q0 63 -29.5 98.5t-89.5 43.5q74 -1 102.5 12.5t28.5 54.5v3h-164v-5q0 -22 -13 -31t-52 -14
l-14 -2q-73 -10 -116 -46.5t-43 -117.5v-98q0 -52 17 -83t54 -47q-49 -11 -73.5 -37t-24.5 -67t22.5 -65.5t67.5 -32.5q-41 -12 -61 -35.5t-20 -52.5q0 -46 45 -74.5t157 -28.5h3q81 0 132.5 22.5t76.5 60.5q13 19 19 40t6 45zM228 269q-16 0 -26 10t-10 32v127q0 22 9 32.5
t27 10.5t27 -10.5t9 -32.5v-127q0 -21 -11 -31.5t-25 -10.5zM220 -74q-33 0 -47.5 8.5t-14.5 19.5v4q0 13 17 23t38 10h38q25 0 37 -6.5t12 -18.5v-4q0 -14 -18 -25t-49 -11h-13z" />
    <glyph glyph-name="Gbreve" unicode="&#x11e;" horiz-adv-x="487" 
d="M26 0zM324 0h132v403h-224v-138h58v-46q0 -46 -12.5 -62.5t-35.5 -16.5q-24 0 -34.5 19t-10.5 59v289q0 43 11 60.5t33 17.5t33 -13t11 -51v-70h171v81q0 103 -54 151t-158 48q-98 0 -158 -50.5t-60 -162.5v-316q0 -112 35.5 -162.5t111.5 -50.5q58 0 91 31t43 88z
M257 770q71 0 103.5 35.5t32.5 114.5h-102q0 -31 -7 -41.5t-27 -10.5t-27 10.5t-7 41.5h-102q0 -79 30.5 -114.5t105.5 -35.5z" />
    <glyph glyph-name="gbreve" unicode="&#x11f;" horiz-adv-x="451" 
d="M4 0zM452 -28v2q0 73 -46.5 109t-139.5 36h-82q-32 0 -42 4t-10 12t9.5 13.5t40.5 5.5h45q101 0 147.5 40.5t46.5 128.5v106q0 63 -29.5 98.5t-89.5 43.5q74 -1 102.5 12.5t28.5 54.5v3h-164v-5q0 -22 -13 -31t-52 -14l-14 -2q-73 -10 -116 -46.5t-43 -117.5v-98
q0 -52 17 -83t54 -47q-49 -11 -73.5 -37t-24.5 -67t22.5 -65.5t67.5 -32.5q-41 -12 -61 -35.5t-20 -52.5q0 -46 45 -74.5t157 -28.5h3q81 0 132.5 22.5t76.5 60.5q13 19 19 40t6 45zM228 269q-16 0 -26 10t-10 32v127q0 22 9 32.5t27 10.5t27 -10.5t9 -32.5v-127
q0 -21 -11 -31.5t-25 -10.5zM220 -74q-33 0 -47.5 8.5t-14.5 19.5v4q0 13 17 23t38 10h38q25 0 37 -6.5t12 -18.5v-4q0 -14 -18 -25t-49 -11h-13zM231 658q71 0 103.5 35.5t32.5 114.5h-102q0 -31 -7 -41.5t-27 -10.5t-27 10.5t-7 41.5h-102q0 -79 30.5 -114.5t105.5 -35.5z
" />
    <glyph glyph-name="Gdotaccent" unicode="&#x120;" horiz-adv-x="487" 
d="M26 0zM324 0h132v403h-224v-138h58v-46q0 -46 -12.5 -62.5t-35.5 -16.5q-24 0 -34.5 19t-10.5 59v289q0 43 11 60.5t33 17.5t33 -13t11 -51v-70h171v81q0 103 -54 151t-158 48q-98 0 -158 -50.5t-60 -162.5v-316q0 -112 35.5 -162.5t111.5 -50.5q58 0 91 31t43 88z
M255 770q46 0 63.5 15.5t17.5 66.5q0 52 -18 67.5t-63 15.5q-46 0 -63.5 -15.5t-17.5 -67.5q0 -35 6.5 -52.5t24.5 -23.5q9 -3 21.5 -4.5t28.5 -1.5z" />
    <glyph glyph-name="gdotaccent" unicode="&#x121;" horiz-adv-x="451" 
d="M4 0zM232 666q46 0 63.5 15.5t17.5 66.5q0 52 -18 67.5t-63 15.5q-46 0 -63.5 -15.5t-17.5 -67.5q0 -35 6.5 -52.5t24.5 -23.5q9 -3 21.5 -4.5t28.5 -1.5zM452 -28v2q0 73 -46.5 109t-139.5 36h-82q-32 0 -42 4t-10 12t9.5 13.5t40.5 5.5h45q101 0 147.5 40.5t46.5 128.5
v106q0 63 -29.5 98.5t-89.5 43.5q74 -1 102.5 12.5t28.5 54.5v3h-164v-5q0 -22 -13 -31t-52 -14l-14 -2q-73 -10 -116 -46.5t-43 -117.5v-98q0 -52 17 -83t54 -47q-49 -11 -73.5 -37t-24.5 -67t22.5 -65.5t67.5 -32.5q-41 -12 -61 -35.5t-20 -52.5q0 -46 45 -74.5t157 -28.5
h3q81 0 132.5 22.5t76.5 60.5q13 19 19 40t6 45zM228 269q-16 0 -26 10t-10 32v127q0 22 9 32.5t27 10.5t27 -10.5t9 -32.5v-127q0 -21 -11 -31.5t-25 -10.5zM220 -74q-33 0 -47.5 8.5t-14.5 19.5v4q0 13 17 23t38 10h38q25 0 37 -6.5t12 -18.5v-4q0 -14 -18 -25t-49 -11
h-13z" />
    <glyph glyph-name="uni0122" unicode="&#x122;" horiz-adv-x="487" 
d="M26 0zM324 0h132v403h-224v-138h58v-46q0 -46 -12.5 -62.5t-35.5 -16.5q-24 0 -34.5 19t-10.5 59v289q0 43 11 60.5t33 17.5t33 -13t11 -51v-70h171v81q0 103 -54 151t-158 48q-98 0 -158 -50.5t-60 -162.5v-316q0 -112 35.5 -162.5t111.5 -50.5q58 0 91 31t43 88z
M191 -286q66 0 97 39t31 110q0 55 -15 74t-56 19q-40 0 -55 -16t-15 -55q0 -43 14 -55.5t45 -12.5h7q-4 -21 -15.5 -29.5t-37.5 -8.5v-65z" />
    <glyph glyph-name="uni0123" unicode="&#x123;" horiz-adv-x="451" 
d="M4 0zM234 663q40 0 55.5 16.5t15.5 55.5q0 43 -14 55.5t-46 12.5h-7q4 21 16 29t37 8v65q-66 0 -97 -38.5t-31 -109.5q0 -55 15.5 -74.5t55.5 -19.5zM452 -28v2q0 73 -46.5 109t-139.5 36h-82q-32 0 -42 4t-10 12t9.5 13.5t40.5 5.5h45q101 0 147.5 40.5t46.5 128.5v106
q0 63 -29.5 98.5t-89.5 43.5q74 -1 102.5 12.5t28.5 54.5v3h-164v-5q0 -22 -13 -31t-52 -14l-14 -2q-73 -10 -116 -46.5t-43 -117.5v-98q0 -52 17 -83t54 -47q-49 -11 -73.5 -37t-24.5 -67t22.5 -65.5t67.5 -32.5q-41 -12 -61 -35.5t-20 -52.5q0 -46 45 -74.5t157 -28.5h3
q81 0 132.5 22.5t76.5 60.5q13 19 19 40t6 45zM228 269q-16 0 -26 10t-10 32v127q0 22 9 32.5t27 10.5t27 -10.5t9 -32.5v-127q0 -21 -11 -31.5t-25 -10.5zM220 -74q-33 0 -47.5 8.5t-14.5 19.5v4q0 13 17 23t38 10h38q25 0 37 -6.5t12 -18.5v-4q0 -14 -18 -25t-49 -11h-13z
" />
    <glyph glyph-name="Hcircumflex" unicode="&#x124;" horiz-adv-x="472" 
d="M31 0zM277 0h164v720h-164v-280h-82v280h-164v-720h164v283h82v-283zM269 761h110l-89 172h-100l-89 -172h107l31 73z" />
    <glyph glyph-name="hcircumflex" unicode="&#x125;" 
d="M0 0zM192 390q0 29 7.5 44.5t27.5 15.5t25.5 -14.5t5.5 -41.5v-394h164v423q0 86 -31 127.5t-93 41.5q-46 0 -71 -20.5t-35 -60.5v251h-163v-762h163v390zM143 801h110l-89 172h-100l-89 -172h107l31 73z" />
    <glyph glyph-name="Hbar" unicode="&#x126;" horiz-adv-x="501" 
d="M296 396h-87v103h87v-103zM296 0h165v499h36v127h-36v94h-165v-94h-87v94h-165v-94h-40v-127h40v-499h165v263h87v-263z" />
    <glyph glyph-name="hbar" unicode="&#x127;" 
d="M192 390q0 29 7.5 44.5t27.5 15.5t25.5 -14.5t5.5 -41.5v-394h164v423q0 86 -31 127.5t-93 41.5q-46 0 -71 -20.5t-35 -60.5v104h41v93h-41v54h-163v-54h-29v-93h29v-615h163v390z" />
    <glyph glyph-name="Itilde" unicode="&#x128;" horiz-adv-x="353" 
d="M20 0zM332 0v156h-75v409h75v155h-311v-155h77v-409h-77v-156h311zM20 760h93q0 20 4.5 29.5t12.5 9.5q15 0 31.5 -10.5t36.5 -20.5q10 -6 21.5 -8.5t24.5 -2.5q50 0 70.5 33.5t20.5 125.5h-94q0 -19 -4 -27t-15 -8t-27 10t-37 19q-10 5 -22 7.5t-25 2.5q-51 0 -71 -35
t-20 -125z" />
    <glyph glyph-name="itilde" unicode="&#x129;" horiz-adv-x="226" 
d="M0 0zM197 0v585h-168v-585h168zM-45 625h93q0 20 4.5 29.5t12.5 9.5q15 0 31.5 -10.5t36.5 -20.5q10 -6 21.5 -8.5t24.5 -2.5q50 0 70.5 33.5t20.5 125.5h-94q0 -19 -4 -27t-15 -8t-27 10t-37 19q-10 5 -22 7.5t-25 2.5q-51 0 -71 -35t-20 -125z" />
    <glyph glyph-name="Imacron" unicode="&#x12a;" horiz-adv-x="353" 
d="M21 0zM332 0v156h-75v409h75v155h-311v-155h77v-409h-77v-156h311zM71 769h211v112h-211v-112z" />
    <glyph glyph-name="imacron" unicode="&#x12b;" horiz-adv-x="226" 
d="M6 0zM197 0v585h-168v-585h168zM6 634h211v112h-211v-112z" />
    <glyph glyph-name="Ibreve" unicode="&#x12c;" horiz-adv-x="353" 
d="M21 0zM332 0v156h-75v409h75v155h-311v-155h77v-409h-77v-156h311zM176 759q71 0 103.5 35.5t32.5 114.5h-102q0 -31 -7 -41.5t-27 -10.5t-27 10.5t-7 41.5h-102q0 -79 30.5 -114.5t105.5 -35.5z" />
    <glyph glyph-name="ibreve" unicode="&#x12d;" horiz-adv-x="226" 
d="M0 0zM197 0v585h-168v-585h168zM111 624q71 0 103.5 35.5t32.5 114.5h-102q0 -31 -7 -41.5t-27 -10.5t-27 10.5t-7 41.5h-102q0 -79 30.5 -114.5t105.5 -35.5z" />
    <glyph glyph-name="Iogonek" unicode="&#x12e;" horiz-adv-x="353" 
d="M400 -78h-123q-1 -19 -7.5 -26.5t-16.5 -7.5q-9 0 -14 4.5t-5 13.5q0 7 5.5 16t25.5 27q11 9 27.5 21.5t39.5 29.5v156h-75v409h75v155h-311v-155h77v-409h-77v-156h152q-32 -28 -43 -53t-11 -50q0 -53 32 -79t96 -26q65 0 104 31.5t49 98.5z" />
    <glyph glyph-name="iogonek" unicode="&#x12f;" horiz-adv-x="226" 
d="M113 601q48 0 69 17t21 64q0 48 -20.5 64.5t-69.5 16.5t-69.5 -16.5t-20.5 -64.5q0 -49 19.5 -65t70.5 -16zM114 -208q65 0 104 31.5t49 98.5h-123q-1 -19 -7.5 -26.5t-16.5 -7.5q-9 0 -14 4.5t-5 13.5q0 7 5.5 16t25.5 27q11 9 27.5 21.5t39.5 29.5l-2 1v581
q-10 -8 -31 -13t-53 -5q-31 0 -52 4.5t-32 12.5v-581h11q-32 -28 -43 -53t-11 -50q0 -53 32 -79t96 -26z" />
    <glyph glyph-name="Idotaccent" unicode="&#x130;" horiz-adv-x="353" 
d="M21 0zM332 0v156h-75v409h75v155h-311v-155h77v-409h-77v-156h311zM176 759q46 0 63.5 15.5t17.5 66.5q0 52 -18 67.5t-63 15.5q-46 0 -63.5 -15.5t-17.5 -67.5q0 -35 6.5 -52.5t24.5 -23.5q9 -3 21.5 -4.5t28.5 -1.5z" />
    <glyph glyph-name="dotlessi" unicode="&#x131;" horiz-adv-x="226" 
d="M197 0v585h-168v-585h168z" />
    <glyph glyph-name="IJ" unicode="&#x132;" horiz-adv-x="608" 
d="M363 0h52q51 0 83 6.5t49 25.5q17 20 23.5 58.5t6.5 103.5v528h-170v-525q0 -27 -4.5 -34.5t-23.5 -7.5h-16v-155zM328 0v156h-71v409h75v155h-311v-155h77v-409h-77v-156h307z" />
    <glyph glyph-name="ij" unicode="&#x133;" horiz-adv-x="456" 
d="M341 591q48 0 69 17t21 64q0 48 -20 64.5t-70 16.5q-49 0 -69 -16.5t-20 -64.5q0 -49 19.5 -65t69.5 -16zM113 591q48 0 69 17t21 64q0 48 -20.5 64.5t-69.5 16.5t-69.5 -16.5t-20.5 -64.5q0 -49 19.5 -65t70.5 -16zM22 -188h237q60 0 97 12.5t53 45.5q9 16 13 39.5
t4 53.5v619q-11 -8 -32 -13t-53 -5t-52.5 4.5t-31.5 12.5v-587q0 -23 -6.5 -30.5t-26.5 -7.5h-202v-144zM29 0h168v582q-10 -8 -31 -13t-53 -5q-31 0 -52 4.5t-32 12.5v-581z" />
    <glyph glyph-name="Jcircumflex" unicode="&#x134;" horiz-adv-x="449" 
d="M15 0zM217 -11q103 0 152 50t49 166v515h-170v-516q0 -39 -6 -51.5t-25 -12.5t-25 11t-6 36v117h-171v-111q0 -115 50 -159.5t152 -44.5zM361 761h110l-89 172h-100l-89 -172h107l31 73z" />
    <glyph glyph-name="jcircumflex" unicode="&#x135;" horiz-adv-x="231" 
d="M0 0zM-46 -208h80q90 0 128 35t38 126v632h-168v-601q0 -23 -7 -30.5t-27 -7.5h-44v-154zM146 626h110l-89 172h-100l-89 -172h107l31 73z" />
    <glyph glyph-name="uni0136" unicode="&#x136;" horiz-adv-x="483" 
d="M31 0zM220 293l79 -293h181l-131 419l-11 30l134 271h-183l-89 -214l-12 -37l3 56v195h-160v-720h160v282l22 51zM188 -278q66 0 97 39t31 110q0 55 -15 74t-56 19q-40 0 -55 -16t-15 -55q0 -43 14 -55.5t45 -12.5h7q-4 -21 -15.5 -29.5t-37.5 -8.5v-65z" />
    <glyph glyph-name="uni0137" unicode="&#x137;" horiz-adv-x="448" 
d="M29 0zM213 238l72 -238h171l-126 362l121 223h-173l-73 -147l-18 -43l1 28v339h-159v-762h159v224l19 47zM181 -278q66 0 97 39t31 110q0 55 -15 74t-56 19q-40 0 -55 -16t-15 -55q0 -43 14 -55.5t45 -12.5h7q-4 -21 -15.5 -29.5t-37.5 -8.5v-65z" />
    <glyph glyph-name="kgreenlandic" unicode="&#x138;" horiz-adv-x="448" 
d="M213 238l72 -238h171l-126 362l121 223h-173l-73 -147l-18 -43l1 28v162h-159v-585h159v224l19 47z" />
    <glyph glyph-name="Lacute" unicode="&#x139;" horiz-adv-x="391" 
d="M31 0zM370 0v167h-169v553h-170v-720h339zM53 761h114l116 152h-151z" />
    <glyph glyph-name="lacute" unicode="&#x13a;" horiz-adv-x="221" 
d="M29 0zM192 0v762h-163v-762h163zM49 803h114l116 152h-151z" />
    <glyph glyph-name="uni013B" unicode="&#x13b;" horiz-adv-x="391" 
d="M31 0zM370 0v167h-169v553h-170v-720h339zM145 -278q66 0 97 39t31 110q0 55 -15 74t-56 19q-40 0 -55 -16t-15 -55q0 -43 14 -55.5t45 -12.5h7q-4 -21 -15.5 -29.5t-37.5 -8.5v-65z" />
    <glyph glyph-name="uni013C" unicode="&#x13c;" horiz-adv-x="221" 
d="M29 0zM192 0v762h-163v-762h163zM58 -278q66 0 97 39t31 110q0 55 -15 74t-56 19q-40 0 -55 -16t-15 -55q0 -43 14 -55.5t45 -12.5h7q-4 -21 -15.5 -29.5t-37.5 -8.5v-65z" />
    <glyph glyph-name="Lcaron" unicode="&#x13d;" horiz-adv-x="391" 
d="M31 0zM370 0v167h-169v553h-170v-720h339zM247 643h95l87 152h-132z" />
    <glyph glyph-name="lcaron" unicode="&#x13e;" horiz-adv-x="221" 
d="M29 0zM192 0v762h-163v-762h163zM218 662h95l87 152h-132z" />
    <glyph glyph-name="Ldot" unicode="&#x13f;" horiz-adv-x="431" 
d="M410 0v167h-209v553h-170v-720h379zM334 271q46 0 63.5 15.5t17.5 66.5q0 52 -18 67.5t-63 15.5q-46 0 -63.5 -15.5t-17.5 -67.5q0 -35 6.5 -52.5t24.5 -23.5q9 -3 21.5 -4.5t28.5 -1.5z" />
    <glyph glyph-name="ldot" unicode="&#x140;" horiz-adv-x="383" 
d="M29 0zM192 0v762h-163v-762h163zM302 202q46 0 63.5 15.5t17.5 66.5q0 52 -18 67.5t-63 15.5q-46 0 -63.5 -15.5t-17.5 -67.5q0 -35 6.5 -52.5t24.5 -23.5q9 -3 21.5 -4.5t28.5 -1.5z" />
    <glyph glyph-name="Lslash" unicode="&#x141;" horiz-adv-x="401" 
d="M380 0v167h-169v169l79 13l-19 123l-60 -10v258h-170v-287l-57 -10l19 -123l38 6v-306h339z" />
    <glyph glyph-name="lslash" unicode="&#x142;" horiz-adv-x="245" 
d="M202 0v266l54 12l-23 114l-31 -7v377h-163v-411l-51 -11l24 -115l27 6v-231h163z" />
    <glyph glyph-name="Nacute" unicode="&#x143;" horiz-adv-x="492" 
d="M31 0zM179 322l-4 71l12 -41l130 -352h144v720h-148v-327l3 -65l-11 40l-127 352h-147v-720h148v322zM182 757h114l116 152h-151z" />
    <glyph glyph-name="nacute" unicode="&#x144;" horiz-adv-x="453" 
d="M29 0zM194 390q0 29 7.5 44.5t27.5 15.5t26 -14.5t6 -41.5v-394h164v423q0 86 -32 127.5t-99 41.5q-42 0 -70.5 -19.5t-42.5 -58.5l-17 71h-135v-585h165v390zM173 625h114l116 152h-151z" />
    <glyph glyph-name="uni0145" unicode="&#x145;" horiz-adv-x="492" 
d="M31 0zM179 322l-4 71l12 -41l130 -352h144v720h-148v-327l3 -65l-11 40l-127 352h-147v-720h148v322zM192 -275q66 0 97 39t31 110q0 55 -15 74t-56 19q-40 0 -55 -16t-15 -55q0 -43 14 -55.5t45 -12.5h7q-4 -21 -15.5 -29.5t-37.5 -8.5v-65z" />
    <glyph glyph-name="uni0146" unicode="&#x146;" horiz-adv-x="453" 
d="M29 0zM194 390q0 29 7.5 44.5t27.5 15.5t26 -14.5t6 -41.5v-394h164v423q0 86 -32 127.5t-99 41.5q-42 0 -70.5 -19.5t-42.5 -58.5l-17 71h-135v-585h165v390zM170 -278q66 0 97 39t31 110q0 55 -15 74t-56 19q-40 0 -55 -16t-15 -55q0 -43 14 -55.5t45 -12.5h7
q-4 -21 -15.5 -29.5t-37.5 -8.5v-65z" />
    <glyph glyph-name="Ncaron" unicode="&#x147;" horiz-adv-x="492" 
d="M31 0zM179 322l-4 71l12 -41l130 -352h144v720h-148v-327l3 -65l-11 40l-127 352h-147v-720h148v322zM293 757l90 172h-107l-32 -73l-29 73h-111l89 -172h100z" />
    <glyph glyph-name="ncaron" unicode="&#x148;" horiz-adv-x="453" 
d="M29 0zM194 390q0 29 7.5 44.5t27.5 15.5t26 -14.5t6 -41.5v-394h164v423q0 86 -32 127.5t-99 41.5q-42 0 -70.5 -19.5t-42.5 -58.5l-17 71h-135v-585h165v390zM284 625l90 172h-107l-32 -73l-29 73h-111l89 -172h100z" />
    <glyph glyph-name="Eng" unicode="&#x14a;" horiz-adv-x="492" 
d="M299 -198q70 0 104.5 12.5t45.5 47.5q6 17 9 43t3 60v755h-149v-303l4 -90l-11 41l-127 352h-147v-720h148v322l-4 71l12 -41l126 -341v-28q0 -23 -5.5 -29.5t-27.5 -6.5h-44v-145h63z" />
    <glyph glyph-name="eng" unicode="&#x14b;" horiz-adv-x="453" 
d="M262 -198q60 0 95.5 12.5t51.5 45.5q7 16 11 39.5t4 53.5v471q0 86 -31.5 127.5t-98.5 41.5q-43 0 -71 -20t-42 -60l-17 72h-135v-585h165v391q0 29 7.5 44.5t27.5 15.5t25.5 -14.5t5.5 -41.5v-411q0 -23 -7 -30.5t-27 -7.5h-44v-144h80z" />
    <glyph glyph-name="Omacron" unicode="&#x14c;" horiz-adv-x="478" 
d="M26 0zM239 -11q63 0 111 22.5t75 69.5q13 24 20 54.5t7 68.5v312q0 110 -59.5 162.5t-153.5 52.5q-96 0 -154.5 -52.5t-58.5 -162.5v-312q0 -113 58 -164t155 -51zM239 140q-24 0 -33 17.5t-9 59.5v291q0 42 9 60t33 18t33 -17.5t9 -60.5v-291q0 -43 -9 -60t-33 -17z
M134 780h211v112h-211v-112z" />
    <glyph glyph-name="omacron" unicode="&#x14d;" horiz-adv-x="445" 
d="M26 0zM222 -11q100 0 148.5 48t48.5 152v201q0 103 -50 153t-147 50q-93 0 -144.5 -49.5t-51.5 -153.5v-201q0 -104 48 -152t148 -48zM223 131q-18 0 -27.5 14t-9.5 48v196q0 37 8.5 51.5t28.5 14.5q22 0 29 -14.5t7 -51.5v-196q0 -34 -9.5 -48t-26.5 -14zM117 641h211
v112h-211v-112z" />
    <glyph glyph-name="Obreve" unicode="&#x14e;" horiz-adv-x="478" 
d="M26 0zM239 -11q63 0 111 22.5t75 69.5q13 24 20 54.5t7 68.5v312q0 110 -59.5 162.5t-153.5 52.5q-96 0 -154.5 -52.5t-58.5 -162.5v-312q0 -113 58 -164t155 -51zM239 140q-24 0 -33 17.5t-9 59.5v291q0 42 9 60t33 18t33 -17.5t9 -60.5v-291q0 -43 -9 -60t-33 -17z
M246 770q71 0 103.5 35.5t32.5 114.5h-102q0 -31 -7 -41.5t-27 -10.5t-27 10.5t-7 41.5h-102q0 -79 30.5 -114.5t105.5 -35.5z" />
    <glyph glyph-name="obreve" unicode="&#x14f;" horiz-adv-x="445" 
d="M26 0zM222 -11q100 0 148.5 48t48.5 152v201q0 103 -50 153t-147 50q-93 0 -144.5 -49.5t-51.5 -153.5v-201q0 -104 48 -152t148 -48zM223 131q-18 0 -27.5 14t-9.5 48v196q0 37 8.5 51.5t28.5 14.5q22 0 29 -14.5t7 -51.5v-196q0 -34 -9.5 -48t-26.5 -14zM222 631
q71 0 103.5 35.5t32.5 114.5h-102q0 -31 -7 -41.5t-27 -10.5t-27 10.5t-7 41.5h-102q0 -79 30.5 -114.5t105.5 -35.5z" />
    <glyph glyph-name="Ohungarumlaut" unicode="&#x150;" horiz-adv-x="478" 
d="M26 0zM239 -11q63 0 111 22.5t75 69.5q13 24 20 54.5t7 68.5v312q0 110 -59.5 162.5t-153.5 52.5q-96 0 -154.5 -52.5t-58.5 -162.5v-312q0 -113 58 -164t155 -51zM239 140q-24 0 -33 17.5t-9 59.5v291q0 42 9 60t33 18t33 -17.5t9 -60.5v-291q0 -43 -9 -60t-33 -17z
M436 924h-122l-53 -152h85zM290 924h-118l-40 -152h83z" />
    <glyph glyph-name="ohungarumlaut" unicode="&#x151;" horiz-adv-x="445" 
d="M26 0zM222 -11q100 0 148.5 48t48.5 152v201q0 103 -50 153t-147 50q-93 0 -144.5 -49.5t-51.5 -153.5v-201q0 -104 48 -152t148 -48zM223 131q-18 0 -27.5 14t-9.5 48v196q0 37 8.5 51.5t28.5 14.5q22 0 29 -14.5t7 -51.5v-196q0 -34 -9.5 -48t-26.5 -14zM413 785h-122
l-53 -152h85zM267 785h-118l-40 -152h83z" />
    <glyph glyph-name="OE" unicode="&#x152;" horiz-adv-x="640" 
d="M235 140q-24 0 -33 19t-9 61v286q0 41 9 60t33 19t33 -18t9 -61v-286q0 -43 -9 -61.5t-33 -18.5zM274 0h340v151h-179v141h171v145h-171v138h177v145h-338v-28q-12 20 -34.5 29.5t-55.5 9.5q-80 0 -120.5 -52.5t-40.5 -164.5v-306q0 -113 36.5 -165.5t128.5 -52.5
q33 0 53.5 10t32.5 30v-30z" />
    <glyph glyph-name="oe" unicode="&#x153;" horiz-adv-x="689" 
d="M668 155v63h-169v-53q0 -21 -8.5 -32t-26.5 -11q-24 0 -35.5 16t-11.5 52v62h251v143q0 89 -48 143.5t-149 54.5q-46 0 -77 -11t-51 -32q-19 22 -50 32.5t-74 10.5q-89 0 -142.5 -51t-53.5 -152v-201q0 -104 50 -152t141 -48q47 0 77 11.5t49 31.5q19 -20 50 -31.5
t79 -11.5q92 0 145.5 44.5t53.5 121.5zM417 397q0 38 11.5 54t36.5 16q24 0 34 -15.5t10 -49.5v-48h-92v43zM225 131q-18 0 -30 14t-12 48v195q0 37 11 51.5t31 14.5q22 0 31.5 -14.5t9.5 -51.5v-195q0 -34 -12 -48t-29 -14z" />
    <glyph glyph-name="Racute" unicode="&#x154;" horiz-adv-x="449" 
d="M31 0zM224 583q25 0 34.5 -10.5t9.5 -35.5v-92q0 -22 -9.5 -31.5t-34.5 -9.5h-37v179h37zM211 259q28 0 38 -10.5t10 -39.5v-158q0 -19 3.5 -32.5t10.5 -18.5h167q-9 8 -13.5 21t-4.5 30v168q0 48 -12 75.5t-47 40.5q32 13 48 40.5t16 75.5v92q0 98 -45.5 137.5
t-146.5 39.5h-204v-720h156v259h24zM166 761h114l116 152h-151z" />
    <glyph glyph-name="racute" unicode="&#x155;" horiz-adv-x="306" 
d="M30 0zM189 0v334q0 44 13 58.5t56 14.5h37v186h-20q-60 0 -82.5 -24t-24.5 -82l-24 98h-114v-585h159zM114 626h114l116 152h-151z" />
    <glyph glyph-name="uni0156" unicode="&#x156;" horiz-adv-x="449" 
d="M31 0zM224 583q25 0 34.5 -10.5t9.5 -35.5v-92q0 -22 -9.5 -31.5t-34.5 -9.5h-37v179h37zM211 259q28 0 38 -10.5t10 -39.5v-158q0 -19 3.5 -32.5t10.5 -18.5h167q-9 8 -13.5 21t-4.5 30v168q0 48 -12 75.5t-47 40.5q32 13 48 40.5t16 75.5v92q0 98 -45.5 137.5
t-146.5 39.5h-204v-720h156v259h24zM177 -278q66 0 97 39t31 110q0 55 -15 74t-56 19q-40 0 -55 -16t-15 -55q0 -43 14 -55.5t45 -12.5h7q-4 -21 -15.5 -29.5t-37.5 -8.5v-65z" />
    <glyph glyph-name="uni0157" unicode="&#x157;" horiz-adv-x="306" 
d="M30 0zM189 0v334q0 44 13 58.5t56 14.5h37v186h-20q-60 0 -82.5 -24t-24.5 -82l-24 98h-114v-585h159zM54 -278q66 0 97 39t31 110q0 55 -15 74t-56 19q-40 0 -55 -16t-15 -55q0 -43 14 -55.5t45 -12.5h7q-4 -21 -15.5 -29.5t-37.5 -8.5v-65z" />
    <glyph glyph-name="Rcaron" unicode="&#x158;" horiz-adv-x="449" 
d="M31 0zM224 583q25 0 34.5 -10.5t9.5 -35.5v-92q0 -22 -9.5 -31.5t-34.5 -9.5h-37v179h37zM211 259q28 0 38 -10.5t10 -39.5v-158q0 -19 3.5 -32.5t10.5 -18.5h167q-9 8 -13.5 21t-4.5 30v168q0 48 -12 75.5t-47 40.5q32 13 48 40.5t16 75.5v92q0 98 -45.5 137.5
t-146.5 39.5h-204v-720h156v259h24zM277 761l90 172h-107l-32 -73l-29 73h-111l89 -172h100z" />
    <glyph glyph-name="rcaron" unicode="&#x159;" horiz-adv-x="306" 
d="M30 0zM189 0v334q0 44 13 58.5t56 14.5h37v186h-20q-60 0 -82.5 -24t-24.5 -82l-24 98h-114v-585h159zM225 626l90 172h-107l-32 -73l-29 73h-111l89 -172h100z" />
    <glyph glyph-name="Sacute" unicode="&#x15a;" horiz-adv-x="432" 
d="M10 0zM213 -12q104 0 154 46.5t50 137.5v74q0 55 -21.5 91t-53.5 60q-16 12 -32.5 22.5t-32.5 19.5q-38 21 -67 40t-29 49v24q0 24 7.5 35t26.5 11q20 0 27 -10t7 -36v-67h160v78q0 83 -49 126t-144 43q-97 0 -148.5 -44t-51.5 -137v-37q0 -53 20.5 -88t51.5 -59
q15 -12 31 -22.5t32 -19.5q39 -22 69.5 -44.5t30.5 -57.5v-45q0 -21 -6.5 -33t-27.5 -12q-23 0 -30.5 12t-7.5 33v99h-169v-102q0 -93 45.5 -140t157.5 -47zM154 774h114l116 152h-151z" />
    <glyph glyph-name="sacute" unicode="&#x15b;" horiz-adv-x="419" 
d="M12 0zM210 -12q100 0 149 50.5t49 129.5v9q0 58 -22 93t-56 55q-16 10 -32.5 18.5t-33.5 15.5q-36 15 -62.5 28.5t-26.5 38.5v4q0 18 8.5 28.5t28.5 10.5t27.5 -11t7.5 -32v-36h152v44q0 72 -43.5 116t-145.5 44q-100 0 -146 -48.5t-46 -121.5v-5q0 -56 20.5 -89.5
t52.5 -51.5q15 -9 31 -16.5t32 -13.5q38 -14 66.5 -29t28.5 -48v-2q0 -20 -8.5 -32t-28.5 -12q-21 0 -30 9t-9 30v50h-161v-60q0 -80 46 -123t152 -43zM146 635h114l116 152h-151z" />
    <glyph glyph-name="Scircumflex" unicode="&#x15c;" horiz-adv-x="432" 
d="M10 0zM213 -12q104 0 154 46.5t50 137.5v74q0 55 -21.5 91t-53.5 60q-16 12 -32.5 22.5t-32.5 19.5q-38 21 -67 40t-29 49v24q0 24 7.5 35t26.5 11q20 0 27 -10t7 -36v-67h160v78q0 83 -49 126t-144 43q-97 0 -148.5 -44t-51.5 -137v-37q0 -53 20.5 -88t51.5 -59
q15 -12 31 -22.5t32 -19.5q39 -22 69.5 -44.5t30.5 -57.5v-45q0 -21 -6.5 -33t-27.5 -12q-23 0 -30.5 12t-7.5 33v99h-169v-102q0 -93 45.5 -140t157.5 -47zM246 771h110l-89 172h-100l-89 -172h107l31 73z" />
    <glyph glyph-name="scircumflex" unicode="&#x15d;" horiz-adv-x="419" 
d="M12 0zM210 -12q100 0 149 50.5t49 129.5v9q0 58 -22 93t-56 55q-16 10 -32.5 18.5t-33.5 15.5q-36 15 -62.5 28.5t-26.5 38.5v4q0 18 8.5 28.5t28.5 10.5t27.5 -11t7.5 -32v-36h152v44q0 72 -43.5 116t-145.5 44q-100 0 -146 -48.5t-46 -121.5v-5q0 -56 20.5 -89.5
t52.5 -51.5q15 -9 31 -16.5t32 -13.5q38 -14 66.5 -29t28.5 -48v-2q0 -20 -8.5 -32t-28.5 -12q-21 0 -30 9t-9 30v50h-161v-60q0 -80 46 -123t152 -43zM238 635h110l-89 172h-100l-89 -172h107l31 73z" />
    <glyph glyph-name="uni015E" unicode="&#x15e;" horiz-adv-x="432" 
d="M213 -242q67 0 105 28t38 80q0 47 -25 67t-70 24v34q78 10 117 55t39 126v74q0 55 -21.5 91t-53.5 60q-16 12 -32.5 22.5t-32.5 19.5q-38 21 -67 40t-29 49v24q0 24 7.5 35t26.5 11q20 0 27 -10t7 -36v-67h160v78q0 83 -49 126t-144 43q-97 0 -148.5 -44t-51.5 -137v-37
q0 -53 20.5 -88t51.5 -59q15 -12 31 -22.5t32 -19.5q39 -22 69.5 -44.5t30.5 -57.5v-45q0 -21 -6.5 -33t-27.5 -12q-23 0 -30.5 12t-7.5 33v99h-169v-102q0 -82 34.5 -127.5t117.5 -56.5v-101h54q16 0 24 -5.5t8 -15.5q0 -12 -8 -17.5t-24 -5.5t-24 5t-13 19h-120
q12 -61 50 -86.5t104 -25.5z" />
    <glyph glyph-name="uni015F" unicode="&#x15f;" horiz-adv-x="419" 
d="M217 -241q67 0 105 28t38 80q0 47 -25 67t-70 24v35q72 14 107.5 61t35.5 114v9q0 58 -22 93t-56 55q-16 10 -32.5 18.5t-33.5 15.5q-36 15 -62.5 28.5t-26.5 38.5v4q0 18 8.5 28.5t28.5 10.5t27.5 -11t7.5 -32v-36h152v44q0 72 -43.5 116t-145.5 44q-100 0 -146 -48.5
t-46 -121.5v-5q0 -56 20.5 -89.5t52.5 -51.5q15 -9 31 -16.5t32 -13.5q38 -14 66.5 -29t28.5 -48v-2q0 -20 -8.5 -32t-28.5 -12q-21 0 -30 9t-9 30v50h-161v-60q0 -71 36 -113t118 -51v-99h54q16 0 24 -5.5t8 -15.5q0 -12 -8 -17.5t-24 -5.5t-24 5t-13 19h-120
q12 -61 50 -86.5t104 -25.5z" />
    <glyph glyph-name="Scaron" unicode="&#x160;" horiz-adv-x="432" 
d="M10 0zM213 -12q104 0 154 46.5t50 137.5v74q0 55 -21.5 91t-53.5 60q-16 12 -32.5 22.5t-32.5 19.5q-38 21 -67 40t-29 49v24q0 24 7.5 35t26.5 11q20 0 27 -10t7 -36v-67h160v78q0 83 -49 126t-144 43q-97 0 -148.5 -44t-51.5 -137v-37q0 -53 20.5 -88t51.5 -59
q15 -12 31 -22.5t32 -19.5q39 -22 69.5 -44.5t30.5 -57.5v-45q0 -21 -6.5 -33t-27.5 -12q-23 0 -30.5 12t-7.5 33v99h-169v-102q0 -93 45.5 -140t157.5 -47zM265 774l90 172h-107l-32 -73l-29 73h-111l89 -172h100z" />
    <glyph glyph-name="scaron" unicode="&#x161;" horiz-adv-x="419" 
d="M12 0zM210 -12q100 0 149 50.5t49 129.5v9q0 58 -22 93t-56 55q-16 10 -32.5 18.5t-33.5 15.5q-36 15 -62.5 28.5t-26.5 38.5v4q0 18 8.5 28.5t28.5 10.5t27.5 -11t7.5 -32v-36h152v44q0 72 -43.5 116t-145.5 44q-100 0 -146 -48.5t-46 -121.5v-5q0 -56 20.5 -89.5
t52.5 -51.5q15 -9 31 -16.5t32 -13.5q38 -14 66.5 -29t28.5 -48v-2q0 -20 -8.5 -32t-28.5 -12q-21 0 -30 9t-9 30v50h-161v-60q0 -80 46 -123t152 -43zM257 635l90 172h-107l-32 -73l-29 73h-111l89 -172h100z" />
    <glyph glyph-name="uni0162" unicode="&#x162;" horiz-adv-x="416" 
d="M18 0zM398 571v149h-380v-149h108v-571h164v571h108zM151 -288q66 0 97 39t31 110q0 55 -15 74t-56 19q-40 0 -55 -16t-15 -55q0 -43 14 -55.5t45 -12.5h7q-4 -21 -15.5 -29.5t-37.5 -8.5v-65z" />
    <glyph glyph-name="uni0163" unicode="&#x163;" horiz-adv-x="306" 
d="M9 0zM291 156h-20q-27 0 -39.5 9.5t-12.5 52.5v208h73v159h-73v106h-114q-2 -16 -5 -28t-8 -26q-6 -16 -13.5 -27.5t-21.5 -19.5q-12 -7 -23.5 -9.5t-24.5 -4.5v-150h56v-255q0 -67 15.5 -104t51.5 -52q18 -8 43 -11.5t56 -3.5h60v156zM135 -278q66 0 97 39t31 110
q0 55 -15 74t-56 19q-40 0 -55 -16t-15 -55q0 -43 14 -55.5t45 -12.5h7q-4 -21 -15.5 -29.5t-37.5 -8.5v-65z" />
    <glyph glyph-name="Tcaron" unicode="&#x164;" horiz-adv-x="416" 
d="M18 0zM398 571v149h-380v-149h108v-571h164v571h108zM256 761l90 172h-107l-32 -73l-29 73h-111l89 -172h100z" />
    <glyph glyph-name="tcaron" unicode="&#x165;" horiz-adv-x="306" 
d="M9 0zM291 156h-20q-27 0 -39.5 9.5t-12.5 52.5v208h73v159h-73v106h-114q-2 -16 -5 -28t-8 -26q-6 -16 -13.5 -27.5t-21.5 -19.5q-12 -7 -23.5 -9.5t-24.5 -4.5v-150h56v-255q0 -67 15.5 -104t51.5 -52q18 -8 43 -11.5t56 -3.5h60v156zM247 642h95l87 152h-132z" />
    <glyph glyph-name="Tbar" unicode="&#x166;" horiz-adv-x="416" 
d="M351 265v133h-61v173h108v149h-380v-149h108v-173h-63v-133h63v-265h164v265h61z" />
    <glyph glyph-name="tbar" unicode="&#x167;" horiz-adv-x="306" 
d="M291 156h-20q-27 0 -39.5 9.5t-12.5 52.5v38h60v85h-60v85h73v159h-73v106h-114q-2 -16 -5 -28t-8 -26q-6 -16 -13.5 -27.5t-21.5 -19.5q-12 -7 -23.5 -9.5t-24.5 -4.5v-150h56v-85h-46v-85h46v-85q0 -67 15.5 -104t51.5 -52q18 -8 43 -11.5t56 -3.5h60v156z" />
    <glyph glyph-name="Utilde" unicode="&#x168;" horiz-adv-x="463" 
d="M28 0zM232 -11q95 0 149 51t54 164v516h-164v-506q0 -39 -8 -52.5t-31 -13.5q-22 0 -31 14t-9 52v506h-164v-516q0 -113 52.5 -164t151.5 -51zM75 760h93q0 20 4.5 29.5t12.5 9.5q15 0 31.5 -10.5t36.5 -20.5q10 -6 21.5 -8.5t24.5 -2.5q50 0 70.5 33.5t20.5 125.5h-94
q0 -19 -4 -27t-15 -8t-27 10t-37 19q-10 5 -22 7.5t-25 2.5q-51 0 -71 -35t-20 -125z" />
    <glyph glyph-name="utilde" unicode="&#x169;" 
d="M29 0zM287 0h133v585h-163v-391q0 -29 -6 -44.5t-26 -15.5t-26 14.5t-6 41.5v395h-164v-424q0 -88 32.5 -129t101.5 -41q41 0 68 19.5t39 57.5zM70 625h93q0 20 4.5 29.5t12.5 9.5q15 0 31.5 -10.5t36.5 -20.5q10 -6 21.5 -8.5t24.5 -2.5q50 0 70.5 33.5t20.5 125.5h-94
q0 -19 -4 -27t-15 -8t-27 10t-37 19q-10 5 -22 7.5t-25 2.5q-51 0 -71 -35t-20 -125z" />
    <glyph glyph-name="Umacron" unicode="&#x16a;" horiz-adv-x="463" 
d="M28 0zM232 -11q95 0 149 51t54 164v516h-164v-506q0 -39 -8 -52.5t-31 -13.5q-22 0 -31 14t-9 52v506h-164v-516q0 -113 52.5 -164t151.5 -51zM126 769h211v112h-211v-112z" />
    <glyph glyph-name="umacron" unicode="&#x16b;" 
d="M29 0zM287 0h133v585h-163v-391q0 -29 -6 -44.5t-26 -15.5t-26 14.5t-6 41.5v395h-164v-424q0 -88 32.5 -129t101.5 -41q41 0 68 19.5t39 57.5zM117 634h211v112h-211v-112z" />
    <glyph glyph-name="Ubreve" unicode="&#x16c;" horiz-adv-x="463" 
d="M28 0zM232 -11q95 0 149 51t54 164v516h-164v-506q0 -39 -8 -52.5t-31 -13.5q-22 0 -31 14t-9 52v506h-164v-516q0 -113 52.5 -164t151.5 -51zM231 759q71 0 103.5 35.5t32.5 114.5h-102q0 -31 -7 -41.5t-27 -10.5t-27 10.5t-7 41.5h-102q0 -79 30.5 -114.5t105.5 -35.5z
" />
    <glyph glyph-name="ubreve" unicode="&#x16d;" 
d="M29 0zM287 0h133v585h-163v-391q0 -29 -6 -44.5t-26 -15.5t-26 14.5t-6 41.5v395h-164v-424q0 -88 32.5 -129t101.5 -41q41 0 68 19.5t39 57.5zM222 624q71 0 103.5 35.5t32.5 114.5h-102q0 -31 -7 -41.5t-27 -10.5t-27 10.5t-7 41.5h-102q0 -79 30.5 -114.5t105.5 -35.5
z" />
    <glyph glyph-name="Uring" unicode="&#x16e;" horiz-adv-x="463" 
d="M28 0zM232 -11q95 0 149 51t54 164v516h-164v-506q0 -39 -8 -52.5t-31 -13.5q-22 0 -31 14t-9 52v506h-164v-516q0 -113 52.5 -164t151.5 -51zM231 758q57 0 89 28.5t32 78.5q0 52 -33.5 80.5t-87.5 28.5q-51 0 -85.5 -27.5t-34.5 -82.5q0 -52 32.5 -79t87.5 -27z
M232 844q-12 0 -18 5.5t-6 16.5q0 10 5.5 16.5t18.5 6.5t18.5 -6.5t5.5 -16.5q0 -11 -6 -16.5t-18 -5.5z" />
    <glyph glyph-name="uring" unicode="&#x16f;" 
d="M29 0zM287 0h133v585h-163v-391q0 -29 -6 -44.5t-26 -15.5t-26 14.5t-6 41.5v395h-164v-424q0 -88 32.5 -129t101.5 -41q41 0 68 19.5t39 57.5zM222 623q57 0 89 28.5t32 78.5q0 52 -33.5 80.5t-87.5 28.5q-51 0 -85.5 -27.5t-34.5 -82.5q0 -52 32.5 -79t87.5 -27z
M223 709q-12 0 -18 5.5t-6 16.5q0 10 5.5 16.5t18.5 6.5t18.5 -6.5t5.5 -16.5q0 -11 -6 -16.5t-18 -5.5z" />
    <glyph glyph-name="Uhungarumlaut" unicode="&#x170;" horiz-adv-x="463" 
d="M28 0zM232 -11q95 0 149 51t54 164v516h-164v-506q0 -39 -8 -52.5t-31 -13.5q-22 0 -31 14t-9 52v506h-164v-516q0 -113 52.5 -164t151.5 -51zM422 913h-122l-53 -152h85zM276 913h-118l-40 -152h83z" />
    <glyph glyph-name="uhungarumlaut" unicode="&#x171;" 
d="M29 0zM287 0h133v585h-163v-391q0 -29 -6 -44.5t-26 -15.5t-26 14.5t-6 41.5v395h-164v-424q0 -88 32.5 -129t101.5 -41q41 0 68 19.5t39 57.5zM413 778h-122l-53 -152h85zM267 778h-118l-40 -152h83z" />
    <glyph glyph-name="Uogonek" unicode="&#x172;" horiz-adv-x="463" 
d="M254 -196q65 0 104 31.5t49 98.5h-123q-1 -19 -7.5 -26.5t-16.5 -7.5q-9 0 -14 4.5t-5 13.5q0 7 5 15.5t24 25.5q10 9 25.5 21t36.5 27q50 21 76.5 69.5t26.5 127.5v516h-164v-506q0 -39 -8 -52.5t-31 -13.5q-22 0 -31 14t-9 52v506h-164v-516q0 -91 34.5 -142t100.5 -66
q-22 -23 -29.5 -44t-7.5 -43q0 -53 32 -79t96 -26z" />
    <glyph glyph-name="uogonek" unicode="&#x173;" 
d="M488 -78h-123q-1 -19 -7.5 -26.5t-16.5 -7.5q-9 0 -14 4.5t-5 13.5q0 7 5.5 16t25.5 27q11 9 27.5 21.5t39.5 29.5v585h-163v-391q0 -29 -6 -44.5t-26 -15.5t-26 14.5t-6 41.5v395h-164v-424q0 -88 32.5 -129t101.5 -41q41 0 68 19.5t39 57.5l13 -51q-46 -34 -61 -62.5
t-15 -57.5q0 -53 32 -79t96 -26q65 0 104 31.5t49 98.5z" />
    <glyph glyph-name="Wcircumflex" unicode="&#x174;" horiz-adv-x="667" 
d="M3 0zM323 309l7 97l6 -97l53 -309h152l123 720h-157l-46 -335l-8 -120l-12 119l-55 336h-107l-59 -336l-14 -113l-5 114l-42 335h-156l112 -720h153zM361 761h110l-89 172h-100l-89 -172h107l31 73z" />
    <glyph glyph-name="wcircumflex" unicode="&#x175;" horiz-adv-x="610" 
d="M0 0zM292 242l8 81l5 -81l49 -242h151l111 585h-154l-45 -289l-1 -96l-9 97l-53 288h-102l-56 -289l-14 -93l4 95l-36 287h-156l97 -585h153zM333 626h110l-89 172h-100l-89 -172h107l31 73z" />
    <glyph glyph-name="Ycircumflex" unicode="&#x176;" horiz-adv-x="435" 
d="M0 0zM301 0v260l139 460h-167l-53 -216l-3 -40l-3 40l-51 216h-168l136 -463v-257h170zM246 759h110l-89 172h-100l-89 -172h107l31 73z" />
    <glyph glyph-name="ycircumflex" unicode="&#x177;" horiz-adv-x="437" 
d="M2 0zM99 -188q63 0 98 12.5t55 46.5q9 16 18 40t16 55l149 619h-158l-47 -231l-9 -127l-8 127l-49 231h-162l147 -542l-7 -36q-5 -26 -18.5 -34.5t-46.5 -8.5h-53v-152h75zM250 625h110l-89 172h-100l-89 -172h107l31 73z" />
    <glyph glyph-name="Ydieresis" unicode="&#x178;" horiz-adv-x="435" 
d="M0 0zM301 0v260l139 460h-167l-53 -216l-3 -40l-3 40l-51 216h-168l136 -463v-257h170zM138 757q38 0 52 14.5t14 53.5q0 42 -14.5 57.5t-51.5 15.5q-35 0 -49.5 -15.5t-14.5 -57.5q0 -40 13 -54t51 -14zM291 757q37 0 51.5 14.5t14.5 53.5q0 42 -15 57.5t-51 15.5
q-37 0 -50.5 -15.5t-13.5 -57.5q0 -40 12.5 -54t51.5 -14z" />
    <glyph glyph-name="Zacute" unicode="&#x179;" horiz-adv-x="422" 
d="M25 0zM398 0v158h-189l185 423v139h-362v-158h182l-189 -427v-135h373zM153 761h114l116 152h-151z" />
    <glyph glyph-name="zacute" unicode="&#x17a;" horiz-adv-x="388" 
d="M21 0zM366 0l1 143h-156l154 309v133h-338v-140h160l-166 -319v-126h345zM132 626h114l116 152h-151z" />
    <glyph glyph-name="Zdotaccent" unicode="&#x17b;" horiz-adv-x="422" 
d="M25 0zM398 0v158h-189l185 423v139h-362v-158h182l-189 -427v-135h373zM214 759q46 0 63.5 15.5t17.5 66.5q0 52 -18 67.5t-63 15.5q-46 0 -63.5 -15.5t-17.5 -67.5q0 -35 6.5 -52.5t24.5 -23.5q9 -3 21.5 -4.5t28.5 -1.5z" />
    <glyph glyph-name="zdotaccent" unicode="&#x17c;" horiz-adv-x="388" 
d="M21 0zM366 0l1 143h-156l154 309v133h-338v-140h160l-166 -319v-126h345zM202 624q46 0 63.5 15.5t17.5 66.5q0 52 -18 67.5t-63 15.5q-46 0 -63.5 -15.5t-17.5 -67.5q0 -35 6.5 -52.5t24.5 -23.5q9 -3 21.5 -4.5t28.5 -1.5z" />
    <glyph glyph-name="Zcaron" unicode="&#x17d;" horiz-adv-x="422" 
d="M25 0zM398 0v158h-189l185 423v139h-362v-158h182l-189 -427v-135h373zM264 761l90 172h-107l-32 -73l-29 73h-111l89 -172h100z" />
    <glyph glyph-name="zcaron" unicode="&#x17e;" horiz-adv-x="388" 
d="M21 0zM366 0l1 143h-156l154 309v133h-338v-140h160l-166 -319v-126h345zM254 626l90 172h-107l-32 -73l-29 73h-111l89 -172h100z" />
    <glyph glyph-name="uni0192" unicode="&#x192;" horiz-adv-x="332" 
d="M244 -25v264h75v149h-75v180q0 23 7.5 30.5t26.5 7.5h41v138h-67q-90 0 -128.5 -35.5t-38.5 -123.5v-197h-72v-149h72v-247q0 -23 -7 -30.5t-27 -7.5h-38v-138h64q90 0 128.5 35.5t38.5 123.5z" />
    <glyph glyph-name="Aringacute" unicode="&#x1fa;" horiz-adv-x="459" 
d="M173 895h114l116 152h-151zM229 731q-12 0 -18 5.5t-6 16.5q0 10 5.5 16.5t18.5 6.5t18.5 -6.5t5.5 -16.5q0 -11 -6 -16.5t-18 -5.5zM221 390l7 90l7 -90l29 -174h-71zM172 79h114l13 -79h164l-144 675q15 14 22.5 33.5t7.5 43.5q0 52 -33.5 80.5t-87.5 28.5
q-51 0 -85.5 -27.5t-34.5 -82.5q0 -24 7.5 -43t22.5 -33l-142 -675h163z" />
    <glyph glyph-name="aringacute" unicode="&#x1fb;" horiz-adv-x="443" 
d="M18 0zM218 113q-16 0 -24.5 9.5t-8.5 27.5v39q0 23 3 35.5t11 21.5q5 6 15.5 11t23.5 10q7 2 11 5t7 6v-112q0 -26 -9.5 -39.5t-28.5 -13.5zM287 0h128v415q0 92 -46 135t-148 43q-99 0 -144 -47t-45 -124v-58h157v58q0 23 9 34t26 11q16 0 24 -10.5t8 -31.5v-19
q0 -28 -14.5 -39t-52.5 -24q-43 -15 -72.5 -25.5t-54.5 -31.5q-22 -18 -33 -45t-11 -62v-46q0 -67 28 -105.5t103 -38.5q44 0 73.5 18.5t43.5 54.5zM230 621q57 0 89 28.5t32 78.5q0 52 -33.5 80.5t-87.5 28.5q-51 0 -85.5 -27.5t-34.5 -82.5q0 -52 32.5 -79t87.5 -27z
M231 707q-12 0 -18 5.5t-6 16.5q0 10 5.5 16.5t18.5 6.5t18.5 -6.5t5.5 -16.5q0 -11 -6 -16.5t-18 -5.5zM175 863h114l116 152h-151z" />
    <glyph glyph-name="AEacute" unicode="&#x1fc;" horiz-adv-x="637" 
d="M0 0zM283 214h-75l50 188zM312 0h299v151h-171l-19 141h182v145h-202l-18 138h226v145h-414l-203 -720h160l21 79h128zM218 761h114l116 152h-151z" />
    <glyph glyph-name="aeacute" unicode="&#x1fd;" horiz-adv-x="670" 
d="M18 0zM452 -11q81 1 123.5 27t58.5 71q7 23 11 48.5t4 54.5v20h-163v-16q0 -35 -6.5 -51.5t-28.5 -16.5t-31 13.5t-9 51.5v59h238v142q0 96 -43.5 148t-147.5 52q-36 0 -64.5 -8.5t-49.5 -25.5q-20 17 -50 26t-73 9q-95 0 -143 -48.5t-48 -122.5v-58h160v58q0 23 9 34
t26 11q16 0 24 -10.5t8 -31.5v-19q0 -28 -14.5 -39t-52.5 -24q-43 -15 -73 -25.5t-55 -31.5q-22 -18 -33 -43.5t-11 -58.5v-57q0 -67 33 -102t106 -35q55 0 88.5 18.5t47.5 61.5q18 -41 56 -61.5t103 -19.5zM411 387q0 38 8.5 55t32.5 17q23 0 31 -16.5t8 -52.5v-42h-80v39z
M219 113q-16 0 -24 9.5t-8 27.5v39q0 23 3 35.5t11 21.5q5 6 15 11t23 10q7 2 11 5t7 6v-112q0 -26 -9.5 -39.5t-28.5 -13.5zM279 626h114l116 152h-151z" />
    <glyph glyph-name="Oslashacute" unicode="&#x1fe;" horiz-adv-x="485" 
d="M25 0zM221 -105l23 92q97 0 157 54.5t60 166.5v305q0 65 -21.5 111t-59.5 72l31 112h-139l-19 -75h-9q-100 0 -159.5 -54.5t-59.5 -164.5v-305q0 -70 22.5 -117.5t65.5 -73.5l-35 -123h143zM243 135q-28 0 -40.5 20.5t-12.5 63.5v288q0 44 13 63t40 19q29 0 40.5 -19
t11.5 -63v-288q0 -45 -12.5 -64.5t-39.5 -19.5zM163 827h114l116 152h-151z" />
    <glyph glyph-name="oslashacute" unicode="&#x1ff;" horiz-adv-x="445" 
d="M26 0zM203 -91l22 80q98 0 146 48t48 152v201q0 55 -14.5 95t-43.5 66l31 112h-161l-20 -70q-88 -3 -136.5 -52.5t-48.5 -150.5v-201q0 -53 12.5 -92t37.5 -63l-35 -125h162zM223 131q-18 0 -27.5 14t-9.5 48v196q0 37 8.5 51.5t28.5 14.5q22 0 29 -14.5t7 -51.5v-196
q0 -34 -9.5 -48t-26.5 -14zM175 691h114l116 152h-151z" />
    <glyph glyph-name="uni0218" unicode="&#x218;" horiz-adv-x="432" 
d="M10 0zM213 -12q104 0 154 46.5t50 137.5v74q0 55 -21.5 91t-53.5 60q-16 12 -32.5 22.5t-32.5 19.5q-38 21 -67 40t-29 49v24q0 24 7.5 35t26.5 11q20 0 27 -10t7 -36v-67h160v78q0 83 -49 126t-144 43q-97 0 -148.5 -44t-51.5 -137v-37q0 -53 20.5 -88t51.5 -59
q15 -12 31 -22.5t32 -19.5q39 -22 69.5 -44.5t30.5 -57.5v-45q0 -21 -6.5 -33t-27.5 -12q-23 0 -30.5 12t-7.5 33v99h-169v-102q0 -93 45.5 -140t157.5 -47zM156 -295q66 0 97 39t31 110q0 55 -15 74t-56 19q-40 0 -55 -16t-15 -55q0 -43 14 -55.5t45 -12.5h7
q-4 -21 -15.5 -29.5t-37.5 -8.5v-65z" />
    <glyph glyph-name="uni0219" unicode="&#x219;" horiz-adv-x="419" 
d="M12 0zM210 -12q100 0 149 50.5t49 129.5v9q0 58 -22 93t-56 55q-16 10 -32.5 18.5t-33.5 15.5q-36 15 -62.5 28.5t-26.5 38.5v4q0 18 8.5 28.5t28.5 10.5t27.5 -11t7.5 -32v-36h152v44q0 72 -43.5 116t-145.5 44q-100 0 -146 -48.5t-46 -121.5v-5q0 -56 20.5 -89.5
t52.5 -51.5q15 -9 31 -16.5t32 -13.5q38 -14 66.5 -29t28.5 -48v-2q0 -20 -8.5 -32t-28.5 -12q-21 0 -30 9t-9 30v50h-161v-60q0 -80 46 -123t152 -43zM160 -289q66 0 97 39t31 110q0 55 -15 74t-56 19q-40 0 -55 -16t-15 -55q0 -43 14 -55.5t45 -12.5h7q-4 -21 -15.5 -29.5
t-37.5 -8.5v-65z" />
    <glyph glyph-name="uni0237" unicode="&#x237;" horiz-adv-x="233" 
d="M-44 -208h80q90 0 128 35t38 126v632h-168v-601q0 -23 -7 -30.5t-27 -7.5h-44v-154z" />
    <glyph glyph-name="uni0245" unicode="&#x245;" horiz-adv-x="459" 
d="M221 390l7 90l7 -90l64 -390h164l-154 720h-162l-151 -720h163z" />
    <glyph glyph-name="circumflex" unicode="&#x2c6;" horiz-adv-x="357" 
d="M207 636h110l-89 172h-100l-89 -172h107l31 73z" />
    <glyph glyph-name="caron" unicode="&#x2c7;" horiz-adv-x="357" 
d="M228 636l90 172h-107l-32 -73l-29 73h-111l89 -172h100z" />
    <glyph glyph-name="breve" unicode="&#x2d8;" horiz-adv-x="357" 
d="M177 634q71 0 103.5 35.5t32.5 114.5h-102q0 -31 -7 -41.5t-27 -10.5t-27 10.5t-7 41.5h-102q0 -79 30.5 -114.5t105.5 -35.5z" />
    <glyph glyph-name="dotaccent" unicode="&#x2d9;" horiz-adv-x="357" 
d="M178 634q46 0 63.5 15.5t17.5 66.5q0 52 -18 67.5t-63 15.5q-46 0 -63.5 -15.5t-17.5 -67.5q0 -35 6.5 -52.5t24.5 -23.5q9 -3 21.5 -4.5t28.5 -1.5z" />
    <glyph glyph-name="ring" unicode="&#x2da;" horiz-adv-x="357" 
d="M179 633q57 0 89 28.5t32 78.5q0 52 -33.5 80.5t-87.5 28.5q-51 0 -85.5 -27.5t-34.5 -82.5q0 -52 32.5 -79t87.5 -27zM180 719q-12 0 -18 5.5t-6 16.5q0 10 5.5 16.5t18.5 6.5t18.5 -6.5t5.5 -16.5q0 -11 -6 -16.5t-18 -5.5z" />
    <glyph glyph-name="ogonek" unicode="&#x2db;" horiz-adv-x="357" 
d="M170 -208q65 0 104 31.5t49 98.5h-123q-1 -19 -7.5 -26.5t-16.5 -7.5q-9 0 -14 4.5t-5 13.5q0 7 5.5 16t25.5 27q11 9 27.5 21.5t39.5 29.5l-95 45q-48 -29 -73.5 -54t-35.5 -48q-4 -11 -6.5 -22.5t-2.5 -23.5q0 -53 32 -79t96 -26z" />
    <glyph glyph-name="tilde" unicode="&#x2dc;" horiz-adv-x="357" 
d="M25 635h93q0 20 4.5 29.5t12.5 9.5q15 0 31.5 -10.5t36.5 -20.5q10 -6 21.5 -8.5t24.5 -2.5q50 0 70.5 33.5t20.5 125.5h-94q0 -19 -4 -27t-15 -8t-27 10t-37 19q-10 5 -22 7.5t-25 2.5q-51 0 -71 -35t-20 -125z" />
    <glyph glyph-name="hungarumlaut" unicode="&#x2dd;" horiz-adv-x="357" 
d="M348 788h-122l-53 -152h85zM202 788h-118l-40 -152h83z" />
    <glyph glyph-name="uni03BC" unicode="&#x3bc;" horiz-adv-x="453" 
d="M224 -9q26 0 39.5 12.5t18.5 40.5l11 -44h128v585h-165v-387q0 -28 -6 -44t-26 -16q-19 0 -25 15t-6 42v390h-163v-766h162v182q6 -5 14 -7.5t18 -2.5z" />
    <glyph glyph-name="pi" unicode="&#x3c0;" horiz-adv-x="559" 
d="M312 151q0 -60 13.5 -93t46.5 -45q16 -7 39.5 -10t53.5 -3h74v144h-35q-20 0 -27 8t-7 31v387h69v150h-519v-150h68v-570h158v570h66v-419z" />
    <glyph glyph-name="uni0E3F" unicode="&#xe3f;" horiz-adv-x="525" 
d="M325 0q95 0 138 40.5t43 110.5v110q0 44 -16 71.5t-48 41.5q27 16 40.5 44.5t13.5 74.5v90q0 68 -46 102.5t-146 34.5h-2v63h-76v-63h-193v-720h193v-73h76v73h23zM309 592q19 0 28 -8.5t9 -25.5v-87q0 -19 -8 -27.5t-29 -8.5h-7v157h7zM183 435v157h43v-157h-43z
M302 309q29 0 38 -9t9 -26v-103q0 -16 -8.5 -25t-37.5 -9h-1v172zM183 137v172h43v-172h-43z" />
    <glyph glyph-name="Wgrave" unicode="&#x1e80;" horiz-adv-x="667" 
d="M3 0zM323 309l7 97l6 -97l53 -309h152l123 720h-157l-46 -335l-8 -120l-12 119l-55 336h-107l-59 -336l-14 -113l-5 114l-42 335h-156l112 -720h153zM281 761h105l-63 152h-150z" />
    <glyph glyph-name="wgrave" unicode="&#x1e81;" horiz-adv-x="610" 
d="M0 0zM292 242l8 81l5 -81l49 -242h151l111 585h-154l-45 -289l-1 -96l-9 97l-53 288h-102l-56 -289l-14 -93l4 95l-36 287h-156l97 -585h153zM253 626h105l-63 152h-150z" />
    <glyph glyph-name="Wacute" unicode="&#x1e82;" horiz-adv-x="667" 
d="M3 0zM323 309l7 97l6 -97l53 -309h152l123 720h-157l-46 -335l-8 -120l-12 119l-55 336h-107l-59 -336l-14 -113l-5 114l-42 335h-156l112 -720h153zM269 761h114l116 152h-151z" />
    <glyph glyph-name="wacute" unicode="&#x1e83;" horiz-adv-x="610" 
d="M0 0zM292 242l8 81l5 -81l49 -242h151l111 585h-154l-45 -289l-1 -96l-9 97l-53 288h-102l-56 -289l-14 -93l4 95l-36 287h-156l97 -585h153zM241 626h114l116 152h-151z" />
    <glyph glyph-name="Wdieresis" unicode="&#x1e84;" horiz-adv-x="667" 
d="M3 0zM323 309l7 97l6 -97l53 -309h152l123 720h-157l-46 -335l-8 -120l-12 119l-55 336h-107l-59 -336l-14 -113l-5 114l-42 335h-156l112 -720h153zM253 759q38 0 52 14.5t14 53.5q0 42 -14.5 57.5t-51.5 15.5q-35 0 -49.5 -15.5t-14.5 -57.5q0 -40 13 -54t51 -14z
M406 759q37 0 51.5 14.5t14.5 53.5q0 42 -15 57.5t-51 15.5q-37 0 -50.5 -15.5t-13.5 -57.5q0 -40 12.5 -54t51.5 -14z" />
    <glyph glyph-name="wdieresis" unicode="&#x1e85;" horiz-adv-x="610" 
d="M0 0zM292 242l8 81l5 -81l49 -242h151l111 585h-154l-45 -289l-1 -96l-9 97l-53 288h-102l-56 -289l-14 -93l4 95l-36 287h-156l97 -585h153zM225 624q38 0 52 14.5t14 53.5q0 42 -14.5 57.5t-51.5 15.5q-35 0 -49.5 -15.5t-14.5 -57.5q0 -40 13 -54t51 -14zM378 624
q37 0 51.5 14.5t14.5 53.5q0 42 -15 57.5t-51 15.5q-37 0 -50.5 -15.5t-13.5 -57.5q0 -40 12.5 -54t51.5 -14z" />
    <glyph glyph-name="Ygrave" unicode="&#x1ef2;" horiz-adv-x="435" 
d="M0 0zM301 0v260l139 460h-167l-53 -216l-3 -40l-3 40l-51 216h-168l136 -463v-257h170zM166 759h105l-63 152h-150z" />
    <glyph glyph-name="ygrave" unicode="&#x1ef3;" horiz-adv-x="437" 
d="M2 0zM99 -188q63 0 98 12.5t55 46.5q9 16 18 40t16 55l149 619h-158l-47 -231l-9 -127l-8 127l-49 231h-162l147 -542l-7 -36q-5 -26 -18.5 -34.5t-46.5 -8.5h-53v-152h75zM164 625h105l-63 152h-150z" />
    <glyph glyph-name="figuredash" unicode="&#x2012;" horiz-adv-x="480" 
d="M453 378h-426v-155h426v155z" />
    <glyph glyph-name="endash" unicode="&#x2013;" horiz-adv-x="335" 
d="M308 378h-281v-155h281v155z" />
    <glyph glyph-name="emdash" unicode="&#x2014;" horiz-adv-x="465" 
d="M438 378h-411v-155h411v155z" />
    <glyph glyph-name="uni2015" unicode="&#x2015;" horiz-adv-x="605" 
d="M578 378h-551v-155h551v155z" />
    <glyph glyph-name="uni2016" unicode="&#x2016;" horiz-adv-x="427" 
d="M190 -38v802h-152v-802h152zM389 -38v802h-152v-802h152z" />
    <glyph glyph-name="underscoredbl" unicode="&#x2017;" horiz-adv-x="454" 
d="M437 132h-420v-132h420v132zM437 -38h-420v-131h420v131z" />
    <glyph glyph-name="quoteleft" unicode="&#x2018;" horiz-adv-x="228" 
d="M115 437q47 0 64 17.5t17 72.5q0 56 -15.5 71t-50.5 15h-5t-5 -1q4 25 18.5 36.5t45.5 12.5v69q-77 0 -114 -46t-37 -134q0 -47 7.5 -71.5t25.5 -33.5q9 -4 21 -6t28 -2z" />
    <glyph glyph-name="quoteright" unicode="&#x2019;" horiz-adv-x="228" 
d="M44 434q77 0 114 46t37 134q0 48 -7.5 72t-25.5 33q-9 4 -21 6t-28 2q-46 0 -63.5 -17.5t-17.5 -72.5t15.5 -70t50.5 -15h5t5 1q-3 -25 -17.5 -36.5t-46.5 -12.5v-70z" />
    <glyph glyph-name="quotesinglbase" unicode="&#x201a;" horiz-adv-x="228" 
d="M44 -123q77 0 114 46t37 135q0 48 -7.5 72t-25.5 33q-9 4 -21 6t-28 2q-46 0 -63.5 -17.5t-17.5 -72.5q0 -56 15.5 -71t50.5 -15h5t5 1q-4 -25 -18.5 -36.5t-45.5 -12.5v-70z" />
    <glyph glyph-name="uni201B" unicode="&#x201b;" horiz-adv-x="228" 
d="M184 504q-31 1 -46 12.5t-18 36.5q2 -1 5 -1h5q35 0 50.5 15t15.5 70t-17 72.5t-64 17.5q-31 0 -49 -8.5t-26 -32.5q-3 -12 -5 -30t-2 -42q0 -88 37 -134t114 -46v70z" />
    <glyph glyph-name="quotedblleft" unicode="&#x201c;" horiz-adv-x="435" 
d="M115 437q47 0 64 17.5t17 72.5q0 56 -15.5 70.5t-50.5 14.5h-5t-5 -1q3 25 18 36.5t46 12.5v70q-77 0 -114 -46t-37 -134q0 -47 7.5 -71.5t25.5 -33.5q9 -4 21 -6t28 -2zM323 437q46 0 63.5 17.5t17.5 72.5q0 56 -16 70.5t-51 14.5h-5t-5 -1q4 25 18.5 36.5t45.5 12.5v70
q-77 0 -113.5 -46t-36.5 -134q0 -47 7.5 -71.5t25.5 -33.5q9 -4 21 -6t28 -2z" />
    <glyph glyph-name="quotedblright" unicode="&#x201d;" horiz-adv-x="435" 
d="M252 434q77 0 113.5 46t36.5 134q0 48 -7.5 72t-25.5 33q-9 4 -21 6t-28 2q-46 0 -63.5 -17.5t-17.5 -72.5t16 -70t51 -15h5t5 1q-4 -25 -18.5 -36.5t-45.5 -12.5v-70zM44 434q77 0 114 46t37 134q0 48 -7.5 72t-25.5 33q-9 4 -21 6t-28 2q-46 0 -63.5 -17.5t-17.5 -72.5
t15.5 -70t50.5 -15h5t5 1q-3 -25 -17.5 -36.5t-46.5 -12.5v-70z" />
    <glyph glyph-name="quotedblbase" unicode="&#x201e;" horiz-adv-x="435" 
d="M252 -123q77 0 113.5 46t36.5 135q0 48 -7.5 72t-25.5 33q-9 4 -21 6t-28 2q-46 0 -63.5 -17.5t-17.5 -72.5q0 -56 16 -71t51 -15h5t5 1q-4 -25 -18.5 -36.5t-45.5 -12.5v-70zM44 -123q77 0 114 46t37 135q0 48 -7.5 72t-25.5 33q-9 4 -21 6t-28 2q-46 0 -63.5 -17.5
t-17.5 -72.5q0 -56 15.5 -71t50.5 -15h5t5 1q-4 -25 -18.5 -36.5t-45.5 -12.5v-70z" />
    <glyph glyph-name="uni201F" unicode="&#x201f;" horiz-adv-x="435" 
d="M184 504q-31 1 -46 12.5t-18 36.5q2 -1 5 -1h5q35 0 50.5 15t15.5 70t-17 72.5t-64 17.5q-31 0 -49 -8.5t-26 -32.5q-3 -12 -5 -30t-2 -42q0 -88 37 -134t114 -46v70zM391 504q-31 1 -45.5 12.5t-18.5 36.5q2 -1 5 -1h5q35 0 51 15t16 70t-17.5 72.5t-63.5 17.5
q-31 0 -49 -8.5t-26 -32.5q-3 -12 -5 -30t-2 -42q0 -88 36.5 -134t113.5 -46v70z" />
    <glyph glyph-name="dagger" unicode="&#x2020;" horiz-adv-x="478" 
d="M451 416v164h-130v228h-162v-228h-132v-164h132v-504h162v504h130z" />
    <glyph glyph-name="daggerdbl" unicode="&#x2021;" horiz-adv-x="478" 
d="M451 140v160h-130v131h130v159h-130v218h-162v-218h-132v-159h132v-131h-132v-160h132v-228h162v228h130z" />
    <glyph glyph-name="bullet" unicode="&#x2022;" horiz-adv-x="345" 
d="M172 182q59 0 85 26t26 90q0 66 -26 90.5t-85 24.5q-58 0 -84 -25t-26 -90t24.5 -90.5t85.5 -25.5z" />
    <glyph glyph-name="ellipsis" unicode="&#x2026;" horiz-adv-x="663" 
d="M119 -8q33 0 51.5 8t26.5 29q3 11 5 27t2 37q0 43 -7.5 64.5t-26.5 28.5q-9 4 -22 6t-29 2q-32 0 -51 -7.5t-27 -29.5q-4 -11 -6 -27t-2 -37q0 -42 7.5 -64t26.5 -29q9 -4 22 -6t30 -2zM333 -8q33 0 52 8t26 29q4 11 6 27t2 37q0 43 -8 64.5t-27 28.5q-9 4 -22 6t-29 2
q-32 0 -51 -7.5t-27 -29.5q-4 -11 -6 -27t-2 -37q0 -42 7.5 -64t26.5 -29q9 -4 22 -6t30 -2zM545 -8q33 0 51.5 8t26.5 29q3 11 5 27t2 37q0 43 -7.5 64.5t-26.5 28.5q-9 4 -22 6t-29 2q-32 0 -51 -7.5t-27 -29.5q-4 -11 -6 -27t-2 -37q0 -42 7.5 -64t26.5 -29q9 -4 22 -6
t30 -2z" />
    <glyph glyph-name="perthousand" unicode="&#x2030;" horiz-adv-x="903" 
d="M142 382q59 0 92 30t33 87v109q0 58 -34.5 88.5t-89.5 30.5q-56 0 -90.5 -30t-34.5 -89v-109q0 -57 32 -87t92 -30zM34 0h169q22 29 52.5 84.5t66.5 126.5q35 71 72 147t73 147q37 71 69 127.5t56 87.5h-165q-22 -30 -53 -86t-66 -127q-36 -71 -73.5 -147t-74.5 -147
t-69 -127t-57 -86zM143 481q-9 0 -14 6.5t-5 19.5v95q0 14 5 21t14 7q11 0 14.5 -7t3.5 -21v-95q0 -13 -4.5 -19.5t-13.5 -6.5zM485 -9q59 0 92 29t33 87v112q0 59 -34.5 89.5t-89.5 30.5q-56 0 -90.5 -30.5t-34.5 -89.5v-112q0 -58 32 -87t92 -29zM760 -9q59 0 92.5 29
t33.5 87v112q0 59 -34.5 89.5t-90.5 30.5t-90.5 -30.5t-34.5 -89.5v-112q0 -58 32 -87t92 -29zM486 89q-9 0 -14 7t-5 20v98q0 14 5 20.5t14 6.5q11 0 14.5 -6.5t3.5 -20.5v-98q0 -13 -4.5 -20t-13.5 -7zM761 89q-9 0 -14 7t-5 20v98q0 14 5 20.5t14 6.5q11 0 15 -6.5
t4 -20.5v-98q0 -13 -4.5 -20t-14.5 -7z" />
    <glyph glyph-name="uni2032" unicode="&#x2032;" horiz-adv-x="228" 
d="M134 492l77 228h-150l-41 -228h114z" />
    <glyph glyph-name="uni2033" unicode="&#x2033;" horiz-adv-x="401" 
d="M134 492l76 228h-149l-41 -228h114zM305 492l80 228h-149l-45 -228h114z" />
    <glyph glyph-name="uni2034" unicode="&#x2034;" horiz-adv-x="554" 
d="M24 720v-18q0 -45 3 -90.5t7 -81.5q2 -18 4 -32t4 -23h105q4 19 8.5 55.5t8.5 81.5q1 22 2 45t1 45v18h-143zM206 720v-18q0 -45 3 -90.5t7 -81.5q2 -18 4.5 -32t4.5 -23h104q4 19 8.5 55.5t8.5 81.5q1 22 2 45t1 45v18h-143zM389 720v-18q0 -45 3 -90.5t7 -81.5
q2 -18 4 -32t4 -23h105q4 19 8.5 55.5t8.5 81.5q1 22 2 45t1 45v18h-143z" />
    <glyph glyph-name="guilsinglleft" unicode="&#x2039;" horiz-adv-x="312" 
d="M299 109l-131 195l121 191h-148l-116 -192v-9l118 -185h156z" />
    <glyph glyph-name="guilsinglright" unicode="&#x203a;" horiz-adv-x="312" 
d="M169 109l119 185v9l-116 192h-149l122 -191l-131 -195h155z" />
    <glyph glyph-name="exclamdbl" unicode="&#x203c;" horiz-adv-x="478" 
d="M39 720v-211q0 -54 3 -105t8 -94q4 -42 9 -69.5t8 -32.5q8 3 24 4.5t35 1.5q20 0 34.5 -1.5t24.5 -4.5q3 5 7.5 32.5t9.5 70.5q5 42 8 93.5t3 104.5v211h-174zM268 720v-211q0 -54 3 -105t8 -94q4 -42 8.5 -69.5t7.5 -32.5q9 3 25 4.5t35 1.5t33.5 -1.5t24.5 -4.5
q3 5 8 32.5t10 70.5q5 42 8 93.5t3 104.5v211h-174zM125 -8q53 0 72.5 19t19.5 77q0 59 -19.5 77.5t-72.5 18.5q-52 0 -72 -18.5t-20 -77.5q0 -39 8 -60t28 -28q10 -4 24 -6t32 -2zM353 -8q53 0 73 19t20 77q0 59 -20 77.5t-73 18.5q-52 0 -72 -18.5t-20 -77.5q0 -39 8 -60
t28 -28q10 -4 24 -6t32 -2z" />
    <glyph glyph-name="uni203D" unicode="&#x203d;" horiz-adv-x="487" 
d="M302 197l4 44q3 27 20 45t41 33q24 14 47.5 32t38.5 44q8 13 12 30t4 38v92q0 50 -23 90t-73 63q-25 11 -57.5 17t-73.5 6q-79 0 -128.5 -25t-72.5 -69q-12 -22 -17.5 -47.5t-5.5 -53.5v-106h142v102q0 24 7 40.5t20 26.5v-115q0 -91 2 -154.5t3 -92.5q1 -15 2 -25t3 -15
q8 4 21.5 5.5t31.5 1.5q17 0 30 -1.5t22 -5.5zM302 484v118q13 -7 19 -19.5t6 -31.5v-84q0 -22 -7.5 -31.5t-18.5 -19.5q1 17 1 34.5v33.5zM250 -8q54 0 74 17.5t20 72.5q0 56 -20 73.5t-74 17.5q-53 0 -72.5 -17.5t-19.5 -73.5q0 -37 7.5 -56.5t27.5 -26.5q10 -3 24.5 -5
t32.5 -2z" />
    <glyph glyph-name="fraction" unicode="&#x2044;" horiz-adv-x="624" 
d="M363 399l224 274l-133 75l-124 -328zM278 338l-226 -282l135 -82l121 343z" />
    <glyph glyph-name="uni2070" unicode="&#x2070;" horiz-adv-x="272" 
d="M22 353zM136 353q57 0 85.5 27.5t28.5 82.5v149q0 57 -29.5 85.5t-84.5 28.5q-53 0 -83.5 -28.5t-30.5 -85.5v-149q0 -55 28.5 -82.5t85.5 -27.5zM136 438q-10 0 -14 7t-4 29v134q0 21 4 28t14 7q11 0 14.5 -7t3.5 -28v-134q0 -22 -3.5 -29t-14.5 -7z" />
    <glyph glyph-name="uni2074" unicode="&#x2074;" horiz-adv-x="270" 
d="M14 360zM255 415v78h-35v227h-85l-121 -237v-68h121v-55h85v55h35zM135 493h-32l32 59v-59z" />
    <glyph glyph-name="uni2075" unicode="&#x2075;" horiz-adv-x="265" 
d="M22 353zM134 353q56 0 83 25t27 68v80q0 39 -20.5 61t-64.5 22q-13 0 -24 -3.5t-20 -8.5l5 43h34q35 0 52.5 5.5t22.5 21.5q3 8 4.5 20.5t1.5 28.5v4h-190l-22 -183l88 -23l3 8q3 6 7.5 9t10.5 3q8 0 12 -4.5t4 -13.5v-59q0 -9 -3.5 -14t-11.5 -5q-7 0 -11 4.5t-4 12.5
v37h-96v-46q0 -43 26 -68t86 -25z" />
    <glyph glyph-name="uni2076" unicode="&#x2076;" horiz-adv-x="269" 
d="M22 353zM249 448v54q0 37 -19.5 55t-58.5 18q-20 0 -33 -7t-20 -18v62q0 17 4.5 25.5t13.5 8.5q8 0 12 -4.5t4 -13.5v-34h94v37q-1 46 -26.5 70.5t-81.5 24.5q-54 0 -85 -27.5t-31 -84.5v-148q0 -56 27.5 -84.5t86.5 -28.5q57 0 85 24.5t28 70.5zM137 435q-11 0 -15 8.5
t-4 28.5v36q4 4 9 5.5t11 1.5q9 0 13.5 -3.5t4.5 -11.5v-46q0 -9 -4.5 -14t-14.5 -5z" />
    <glyph glyph-name="uni2077" unicode="&#x2077;" horiz-adv-x="242" 
d="M15 360zM138 360q12 86 34 151.5t56 131.5v77h-213v-89h113q-28 -55 -54.5 -120.5t-42.5 -150.5h107z" />
    <glyph glyph-name="uni2078" unicode="&#x2078;" horiz-adv-x="270" 
d="M21 353zM135 353q59 0 86.5 23t27.5 63v48q0 23 -9 38t-27 23q15 7 23.5 21t8.5 37v37q0 38 -27 60.5t-83 22.5q-55 0 -82 -23t-27 -61v-37q0 -24 8.5 -37.5t23.5 -20.5q-18 -8 -27.5 -23t-9.5 -36v-48q0 -43 27 -65t87 -22zM135 581q-11 0 -14.5 4t-3.5 12v35
q0 9 4.5 13t13.5 4q12 0 15.5 -4.5t3.5 -12.5v-35q0 -8 -4 -12t-15 -4zM135 436q-10 0 -15 4.5t-5 12.5v43q0 9 5 13.5t15 4.5q11 0 16 -4t5 -13v-43q0 -9 -5 -13.5t-16 -4.5z" />
    <glyph glyph-name="uni2079" unicode="&#x2079;" horiz-adv-x="272" 
d="M21 352zM134 566q-9 0 -13.5 4t-4.5 12v44q0 10 5 15t14 5q11 0 15.5 -8t4.5 -29v-34q-4 -4 -9 -6.5t-12 -2.5zM134 352q55 0 85 27.5t30 86.5v148q0 56 -28.5 84t-85.5 28q-56 0 -84.5 -23t-28.5 -70v-51q0 -37 20.5 -56t60.5 -19q21 0 33 7t19 19v-63q0 -17 -4.5 -25.5
t-14.5 -8.5q-8 0 -12 4.5t-4 13.5v34h-99v-39q1 -46 28 -71.5t85 -25.5z" />
    <glyph glyph-name="uni207A" unicode="&#x207a;" horiz-adv-x="243" 
d="M26 443zM218 500v85h-54v57h-84v-57h-54v-85h54v-57h84v57h54z" />
    <glyph glyph-name="uni207B" unicode="&#x207b;" horiz-adv-x="243" 
d="M26 498zM218 498v89h-192v-89h192z" />
    <glyph glyph-name="uni207C" unicode="&#x207c;" horiz-adv-x="241" 
d="M33 453zM208 553v75h-175v-75h175zM208 453v75h-175v-75h175z" />
    <glyph glyph-name="uni207D" unicode="&#x207d;" horiz-adv-x="194" 
d="M26 281zM26 455q0 -67 16.5 -104t48.5 -53q16 -7 36 -11.5t44 -5.5v106q-28 2 -38 17.5t-10 59.5v141q0 45 10 63.5t38 21.5v97q-72 -3 -108.5 -41.5t-36.5 -132.5v-158z" />
    <glyph glyph-name="uni207E" unicode="&#x207e;" horiz-adv-x="194" 
d="M23 281zM23 281q48 2 80 17.5t49 52.5q8 18 12 44.5t4 59.5v158q0 94 -36.5 132.5t-108.5 41.5v-97q28 -3 38 -21.5t10 -63.5v-141q0 -44 -10 -59.5t-38 -17.5v-106z" />
    <glyph glyph-name="uni2080" unicode="&#x2080;" horiz-adv-x="272" 
d="M136 -7q57 0 85.5 27.5t28.5 82.5v149q0 57 -29.5 85.5t-84.5 28.5q-53 0 -83.5 -28.5t-30.5 -85.5v-149q0 -55 28.5 -82.5t85.5 -27.5zM136 78q-10 0 -14 7t-4 29v134q0 21 4 28t14 7q11 0 14.5 -7t3.5 -28v-134q0 -22 -3.5 -29t-14.5 -7z" />
    <glyph glyph-name="uni2081" unicode="&#x2081;" horiz-adv-x="230" 
d="M213 0v88h-49v272h-75q-5 -26 -20 -39.5t-40 -15.5v-70h42v-147h-53v-88h195z" />
    <glyph glyph-name="uni2082" unicode="&#x2082;" horiz-adv-x="264" 
d="M243 0v89h-125q7 17 27 29t43 25q23 14 40 36.5t17 59.5v36q0 45 -26.5 68t-83.5 23q-55 0 -84 -26t-29 -67l-1 -55h97v48q0 10 4 15t12 5t12 -3.5t4 -11.5v-31q0 -17 -13 -28t-32 -21t-38.5 -23.5t-32.5 -35.5q-6 -11 -9.5 -25t-3.5 -31v-76h222z" />
    <glyph glyph-name="uni2083" unicode="&#x2083;" horiz-adv-x="259" 
d="M131 -8q60 0 85.5 25t25.5 62v51q0 26 -10 38.5t-27 17.5q17 8 25 22t8 34v41q0 36 -26.5 59t-84.5 23q-57 0 -82 -24t-25 -65v-38h91v27q0 9 4.5 13t12.5 4q9 0 13 -4t4 -12v-33q0 -7 -4.5 -11t-13.5 -4h-29v-72h28q10 0 15 -3.5t5 -10.5v-37q0 -8 -4 -12.5t-13 -4.5
t-13.5 5t-4.5 14v30h-94v-44q0 -46 25.5 -68.5t88.5 -22.5z" />
    <glyph glyph-name="uni2084" unicode="&#x2084;" horiz-adv-x="270" 
d="M255 55v78h-35v227h-85l-121 -237v-68h121v-55h85v55h35zM135 133h-32l32 59v-59z" />
    <glyph glyph-name="uni2085" unicode="&#x2085;" horiz-adv-x="265" 
d="M134 -7q56 0 83 25t27 68v80q0 39 -20.5 61t-64.5 22q-13 0 -24 -3.5t-20 -8.5l5 43h34q35 0 52.5 5.5t22.5 21.5q3 8 4.5 20.5t1.5 28.5v4h-190l-22 -183l88 -23l3 8q3 6 7.5 9t10.5 3q8 0 12 -4.5t4 -13.5v-59q0 -9 -3.5 -14t-11.5 -5q-7 0 -11 4.5t-4 12.5v37h-96v-46
q0 -43 26 -68t86 -25z" />
    <glyph glyph-name="uni2086" unicode="&#x2086;" horiz-adv-x="269" 
d="M249 88v54q0 37 -19.5 55t-58.5 18q-20 0 -33 -7t-20 -18v62q0 17 4.5 25.5t13.5 8.5q8 0 12 -4.5t4 -13.5v-34h94v37q-1 46 -26.5 70.5t-81.5 24.5q-54 0 -85 -27.5t-31 -84.5v-148q0 -56 27.5 -84.5t86.5 -28.5q57 0 85 24.5t28 70.5zM137 75q-11 0 -15 8.5t-4 28.5v36
q4 4 9 5.5t11 1.5q9 0 13.5 -3.5t4.5 -11.5v-46q0 -9 -4.5 -14t-14.5 -5z" />
    <glyph glyph-name="uni2087" unicode="&#x2087;" horiz-adv-x="242" 
d="M138 0q12 86 34 151.5t56 131.5v77h-213v-89h113q-28 -55 -54.5 -120.5t-42.5 -150.5h107z" />
    <glyph glyph-name="uni2088" unicode="&#x2088;" horiz-adv-x="270" 
d="M135 -7q59 0 86.5 23t27.5 63v48q0 23 -9 38t-27 23q15 7 23.5 21t8.5 37v37q0 38 -27 60.5t-83 22.5q-55 0 -82 -23t-27 -61v-37q0 -24 8.5 -37.5t23.5 -20.5q-18 -8 -27.5 -23t-9.5 -36v-48q0 -43 27 -65t87 -22zM135 221q-11 0 -14.5 4t-3.5 12v35q0 9 4.5 13t13.5 4
q12 0 15.5 -4.5t3.5 -12.5v-35q0 -8 -4 -12t-15 -4zM135 76q-10 0 -15 4.5t-5 12.5v43q0 9 5 13.5t15 4.5q11 0 16 -4t5 -13v-43q0 -9 -5 -13.5t-16 -4.5z" />
    <glyph glyph-name="uni2089" unicode="&#x2089;" horiz-adv-x="272" 
d="M134 206q-9 0 -13.5 4t-4.5 12v44q0 10 5 15t14 5q11 0 15.5 -8t4.5 -29v-34q-4 -4 -9 -6.5t-12 -2.5zM134 -8q55 0 85 27.5t30 86.5v148q0 56 -28.5 84t-85.5 28q-56 0 -84.5 -23t-28.5 -70v-51q0 -37 20.5 -56t60.5 -19q21 0 33 7t19 19v-63q0 -17 -4.5 -25.5
t-14.5 -8.5q-8 0 -12 4.5t-4 13.5v34h-99v-39q1 -46 28 -71.5t85 -25.5z" />
    <glyph glyph-name="uni208A" unicode="&#x208a;" horiz-adv-x="243" 
d="M218 140v85h-54v57h-84v-57h-54v-85h54v-57h84v57h54z" />
    <glyph glyph-name="uni208B" unicode="&#x208b;" horiz-adv-x="243" 
d="M218 138v89h-192v-89h192z" />
    <glyph glyph-name="uni208C" unicode="&#x208c;" horiz-adv-x="241" 
d="M208 193v75h-175v-75h175zM208 93v75h-175v-75h175z" />
    <glyph glyph-name="uni208D" unicode="&#x208d;" horiz-adv-x="194" 
d="M26 95q0 -67 16.5 -104t48.5 -53q16 -7 36 -11.5t44 -5.5v106q-28 2 -38 17.5t-10 59.5v141q0 45 10 63.5t38 21.5v97q-72 -3 -108.5 -41.5t-36.5 -132.5v-158z" />
    <glyph glyph-name="uni208E" unicode="&#x208e;" horiz-adv-x="194" 
d="M23 -79q48 2 80 17.5t49 52.5q8 18 12 44.5t4 59.5v158q0 94 -36.5 132.5t-108.5 41.5v-97q28 -3 38 -21.5t10 -63.5v-141q0 -44 -10 -59.5t-38 -17.5v-106z" />
    <glyph glyph-name="uni20A1" unicode="&#x20a1;" horiz-adv-x="526" 
d="M200 -114h82l21 104q58 6 103.5 32.5t71.5 75.5q13 25 20 55.5t7 67.5v96h-175v-89q-1 -46 -17 -66.5t-51 -20.5q-38 0 -53 22.5t-15 75.5v240q0 53 15.5 77t52.5 24q40 0 54 -21.5t14 -65.5v-75h174v90q0 65 -23.5 111t-66.5 72l23 127h-80l-19 -97q-7 2 -14.5 2.5
t-15.5 1.5l18 93h-81l-17 -92q-93 -8 -148 -66.5t-55 -169.5v-260q0 -74 24 -125t68 -80l-27 -139h81l22 109q7 -2 14 -3l14 -2z" />
    <glyph glyph-name="uni20A2" unicode="&#x20a2;" horiz-adv-x="522" 
d="M509 198v70h-145v-71q0 -28 -8.5 -46t-25.5 -26v124q0 35 7 44t42 9h72v138h-32q-48 0 -69.5 -17.5t-28.5 -55.5l-20 72h-94v-307q-20 14 -28.5 41t-8.5 68v227q0 67 24 96t74 29q46 0 66.5 -22.5t20.5 -54.5v-44h151v50q0 98 -62.5 150t-173.5 52q-117 0 -181 -65
t-64 -184v-239q0 -118 57 -183t190 -65q113 0 175 55t62 155z" />
    <glyph glyph-name="franc" unicode="&#x20a3;" horiz-adv-x="384" 
d="M356 124v125h-162v52h162v126h-162v143h168v150h-329v-720h161v124h162z" />
    <glyph glyph-name="lira" unicode="&#x20a4;" horiz-adv-x="507" 
d="M356 -11q47 0 77 14t45 50q7 18 10.5 44t3.5 60v62h-148v-49q0 -31 -7.5 -43.5t-27.5 -12.5q-10 0 -20.5 3.5t-20.5 8.5q3 16 5 33t2 36q0 17 -1 32.5t-3 31.5h83v78h-95q-1 8 -3 16l-4 16h102v78h-119q-4 23 -7 46.5t-3 45.5q0 29 8.5 40t25.5 11q19 0 26.5 -11t8.5 -43
v-45h156v52q-5 89 -48 138.5t-144 49.5q-99 0 -144 -49t-45 -132q0 -29 4 -54.5t11 -48.5h-51v-78h83q5 -8 9 -16l8 -16h-100v-78h138q7 -19 11 -38t4 -40v-6q-14 6 -30 10t-34 4q-52 0 -82 -27.5t-30 -75.5t29 -72.5t87 -24.5q30 0 55 12t45 35q27 -19 59.5 -33t70.5 -14z
M121 74q-9 0 -14 4t-5 12t4.5 11.5t12.5 3.5t18 -5t22 -13q-7 -6 -16.5 -9.5t-21.5 -3.5z" />
    <glyph glyph-name="uni20A6" unicode="&#x20a6;" horiz-adv-x="625" 
d="M387 0h153v249h79v94h-79v36h79v94h-79v247h-152v-354l-150 354h-156v-247h-75v-94h75v-36h-75v-94h75v-249h152v355z" />
    <glyph glyph-name="peseta" unicode="&#x20a7;" horiz-adv-x="1167" 
d="M230 583q23 0 35 -10t12 -33v-133q0 -23 -12.5 -33t-34.5 -10h-36v219h36zM239 221q107 0 155 49.5t48 134.5v30h62v-224q0 -71 17.5 -118t66.5 -70q24 -12 59.5 -17.5t81.5 -5.5h181q98 0 150.5 19t73.5 58q10 20 15 44.5t5 53.5v39q0 44 -16.5 70.5t-42.5 41.5
q-13 7 -27 12.5t-28 9.5q-29 8 -55.5 12.5t-42.5 11.5q-9 4 -13 9.5t-4 12.5v49q0 16 7.5 23.5t22.5 7.5q17 0 27 -9.5t12 -28.5v-56h156v61q-7 72 -52.5 112.5t-141.5 40.5q-89 0 -138 -40t-49 -113v-59q0 -43 16.5 -69.5t42.5 -41.5q13 -7 27 -12.5t28 -9.5
q28 -7 54 -14.5t42 -16.5q9 -4 13 -9.5t4 -12.5v-15q0 -25 -18 -34.5t-71 -9.5h-153q-52 0 -73 17.5t-21 72.5v208h90v150h-90v106h-111q-3 -15 -7 -30.5t-9 -26.5q-7 -15 -15.5 -26t-22.5 -19q-11 -7 -24.5 -11t-30.5 -5q-7 69 -56 108t-146 39h-205v-720h161v221h45z" />
    <glyph glyph-name="uni20A8" unicode="&#x20a8;" horiz-adv-x="857" 
d="M232 583q21 0 31.5 -9t10.5 -27v-106q0 -18 -10.5 -27.5t-31.5 -9.5h-39v179h39zM218 261q30 0 44 -19.5t31 -47.5l33 -54q29 -50 62 -81t79 -45q23 -7 52 -10.5t64 -3.5h75q100 0 145.5 44.5t45.5 123.5v9q0 50 -17 83t-43 54q-27 20 -56.5 33.5t-56.5 23.5
q-26 11 -43 23.5t-17 31.5v4q0 18 8.5 28.5t28.5 10.5t27.5 -11t7.5 -32v-36h152v44q0 72 -43.5 116t-145.5 44q-100 0 -146 -48.5t-46 -121.5v-5q0 -51 16.5 -82.5t43.5 -49.5q26 -19 55.5 -30.5t55.5 -21.5q27 -10 43.5 -24t16.5 -39v-2q0 -20 -12 -30t-36 -10h-42
q-40 0 -70.5 12.5t-56.5 52.5l-32 48q-20 31 -37.5 50.5t-40.5 30.5q35 17 54 48t19 82v108q0 74 -44.5 116t-151.5 42h-207v-720h160v261h25z" />
    <glyph glyph-name="uni20A9" unicode="&#x20a9;" horiz-adv-x="667" 
d="M323 309l7 97l6 -97l53 -309h152l34 199h82v114h-63l7 36h56v114h-37l44 257h-157l-46 -335l-8 -120l-12 119l-55 336h-107l-59 -336l-14 -113l-5 114l-42 335h-156l40 -257h-33v-114h51l5 -36h-56v-114h74l31 -199h153z" />
    <glyph glyph-name="uni20AA" unicode="&#x20aa;" horiz-adv-x="722" 
d="M245 597q68 0 103.5 -33.5t35.5 -124.5v-278h20q56 0 86 24.5t30 94.5v195q0 120 -69.5 182.5t-185.5 62.5h-232v-720h138v597h74zM438 0q125 0 190.5 68t65.5 192v460h-139v-424q0 -94 -36 -131.5t-104 -37.5h-69v315q0 73 -26 97.5t-88 24.5h-24v-564h230z" />
    <glyph glyph-name="Euro" unicode="&#x20ac;" horiz-adv-x="507" 
d="M485 197v48h-175v-37q-1 -35 -8.5 -51t-30.5 -16q-24 0 -31 17t-7 60v56h132l21 80h-153v26h162l21 80h-183v47q0 42 7.5 60t30.5 18t31 -15t8 -50v-29h174v44q0 102 -55.5 149t-156.5 47q-96 0 -153 -49.5t-57 -161.5v-60h-49v-80h49v-26h-49v-80h49v-69q0 -114 51 -165
t157 -51q102 0 157.5 46.5t57.5 161.5z" />
    <glyph glyph-name="uni20AE" unicode="&#x20ae;" horiz-adv-x="416" 
d="M364 266v82l-75 -25v40l75 25v82l-75 -25v126h109v149h-380v-149h108v-181l-76 -25v-82l76 25v-40l-76 -25v-82l76 25v-186h163v241z" />
    <glyph glyph-name="uni20B1" unicode="&#x20b1;" horiz-adv-x="508" 
d="M247 146q76 0 122.5 27t67.5 73q11 23 16.5 48t6.5 53h40v71h-40v35h40v71h-40v4q0 55 -22 98t-70 69q-23 12 -53.5 18.5t-68.5 6.5h-191v-196h-46v-71h46v-35h-46v-71h46v-347h150v146h42zM308 524h-103v72h32q35 0 53 -19t18 -53zM308 418h-103v35h103v-35zM237 274
h-32v73h103q-2 -33 -19 -53t-52 -20z" />
    <glyph glyph-name="uni2105" unicode="&#x2105;" horiz-adv-x="628" 
d="M34 0h170q22 29 52.5 84.5t65.5 126.5q36 71 73 147t73 147t68 127.5t56 87.5h-164q-22 -30 -53 -86t-67 -127q-35 -71 -73 -147t-75 -147q-36 -71 -68.5 -127t-57.5 -86zM142 382q58 0 91.5 29.5t34.5 84.5v49h-107v-44q-2 -10 -6.5 -15t-11.5 -5q-9 0 -14 6.5t-5 19.5
v99q0 14 5 20.5t14 6.5q10 0 13.5 -5.5t4.5 -14.5v-29h107v34q-2 55 -37 83.5t-88 28.5q-56 0 -90.5 -30t-34.5 -89v-112q0 -57 32 -87t92 -30zM485 -9q59 0 92.5 29t33.5 87v112q0 59 -34.5 89.5t-90.5 30.5t-90.5 -30.5t-34.5 -89.5v-112q0 -58 32 -87t92 -29zM486 89
q-9 0 -14 7t-5 20v98q0 14 5 20.5t14 6.5q11 0 15 -6.5t4 -20.5v-98q0 -13 -4.5 -20t-14.5 -7z" />
    <glyph glyph-name="uni2116" unicode="&#x2116;" horiz-adv-x="821" 
d="M653 322q67 0 106 33.5t39 104.5v131q0 70 -40 104.5t-104 34.5q-63 0 -104.5 -34t-41.5 -105v-131q0 -71 37.5 -104.5t107.5 -33.5zM654 428q-13 0 -19.5 7.5t-6.5 28.5v125q0 23 6.5 31t18.5 8q14 0 19.5 -7.5t5.5 -31.5v-125q0 -22 -5.5 -29t-18.5 -7zM322 0h141v720
h-149v-327l-137 327h-144v-720h149v329zM793 290h-277v-131h277v131z" />
    <glyph glyph-name="uni2117" unicode="&#x2117;" horiz-adv-x="611" 
d="M308 -12q83 0 145.5 34t98.5 95q17 31 26 67.5t9 77.5v193q0 85 -36 146t-100 94q-32 16 -68.5 24.5t-78.5 8.5q-80 0 -143.5 -34t-100.5 -97q-18 -32 -27 -69t-9 -80v-188q0 -89 35.5 -150t99.5 -91q32 -16 69.5 -23.5t79.5 -7.5zM308 94q-85 0 -129.5 43.5t-44.5 128.5
v176q0 85 46 132.5t124 47.5q86 0 129.5 -45t43.5 -127v-183q0 -85 -45 -129t-124 -44zM325 254q60 -1 88 26t28 84v113q0 44 -29 73.5t-93 29.5h-127v-445h104v119h29zM309 492q14 0 20.5 -6.5t6.5 -19.5v-96q0 -12 -6.5 -18.5t-19.5 -6.5h-14v147h13z" />
    <glyph glyph-name="uni2120" unicode="&#x2120;" horiz-adv-x="498" 
d="M345 481h10l35 71v-136h78v304h-75l-43 -108l-44 108h-75v-304h77v139zM112 409q47 0 70.5 20.5t23.5 61.5v30q0 39 -21 56.5t-47 27.5q-19 9 -28.5 12.5t-9.5 11.5v23q0 7 3 10.5t9 3.5q7 0 10 -4t3 -13v-28h79v27q0 40 -22.5 60t-68.5 20q-49 0 -71.5 -20.5
t-22.5 -58.5v-24q0 -37 20.5 -52t45.5 -26q18 -7 29 -12t11 -14v-29q0 -7 -3 -10.5t-9 -3.5q-7 0 -11 4.5t-4 13.5v34h-82v-36q0 -41 22 -63t74 -22z" />
    <glyph glyph-name="trademark" unicode="&#x2122;" horiz-adv-x="480" 
d="M191 637v83h-176v-83h45v-221h86v221h45zM327 481h10l35 71v-136h78v304h-75l-43 -108l-44 108h-75v-304h77v139z" />
    <glyph glyph-name="uni2126" unicode="&#x2126;" horiz-adv-x="621" 
d="M293 144q-46 78 -62 141.5t-16 129.5q0 67 13 102.5t34 49.5q11 6 22.5 9.5t24.5 3.5q26 0 47.5 -13.5t34.5 -49.5q7 -18 10 -43.5t3 -59.5q-1 -66 -17 -129t-63 -141l70 -144h205v155h-112q38 54 63.5 117t26.5 147q0 112 -32 180.5t-92 99.5q-30 16 -66 24t-78 8
q-124 0 -195.5 -74.5t-71.5 -236.5q0 -85 25.5 -148t62.5 -117h-111v-155h210z" />
    <glyph glyph-name="uni2153" unicode="&#x2153;" horiz-adv-x="624" 
d="M52 0zM363 399l224 274l-133 75l-124 -328zM278 338l-226 -282l135 -82l121 343zM261 360v88h-49v272h-75q-5 -26 -20 -39.5t-40 -15.5v-70h42v-147h-53v-88h195zM458 -8q60 0 85.5 25t25.5 62v51q0 26 -10 38.5t-27 17.5q17 8 25 22t8 34v41q0 36 -26.5 59t-84.5 23
q-57 0 -82 -24t-25 -65v-38h91v27q0 9 4.5 13t12.5 4q9 0 13 -4t4 -12v-33q0 -7 -4.5 -11t-13.5 -4h-29v-72h28q10 0 15 -3.5t5 -10.5v-37q0 -8 -4 -12.5t-13 -4.5t-13.5 5t-4.5 14v30h-94v-44q0 -46 25.5 -68.5t88.5 -22.5z" />
    <glyph glyph-name="uni2154" unicode="&#x2154;" horiz-adv-x="624" 
d="M51 0zM363 399l224 274l-133 75l-124 -328zM278 338l-226 -282l135 -82l121 343zM273 360v89h-125q7 17 27 29t43 25q23 14 40 36.5t17 59.5v36q0 45 -26.5 68t-83.5 23q-55 0 -84 -26t-29 -67l-1 -55h97v48q0 10 4 15t12 5t12 -3.5t4 -11.5v-31q0 -17 -13 -28t-32 -21
t-38.5 -23.5t-32.5 -35.5q-6 -11 -9.5 -25t-3.5 -31v-76h222zM458 -8q60 0 85.5 25t25.5 62v51q0 26 -10 38.5t-27 17.5q17 8 25 22t8 34v41q0 36 -26.5 59t-84.5 23q-57 0 -82 -24t-25 -65v-38h91v27q0 9 4.5 13t12.5 4q9 0 13 -4t4 -12v-33q0 -7 -4.5 -11t-13.5 -4h-29
v-72h28q10 0 15 -3.5t5 -10.5v-37q0 -8 -4 -12.5t-13 -4.5t-13.5 5t-4.5 14v30h-94v-44q0 -46 25.5 -68.5t88.5 -22.5z" />
    <glyph glyph-name="uni2155" unicode="&#x2155;" horiz-adv-x="624" 
d="M52 0zM363 399l224 274l-133 75l-124 -328zM278 338l-226 -282l135 -82l121 343zM461 -7q56 0 83 25t27 68v80q0 39 -20.5 61t-64.5 22q-13 0 -24 -3.5t-20 -8.5l5 43h34q35 0 52.5 5.5t22.5 21.5q3 8 4.5 20.5t1.5 28.5v4h-190l-22 -183l88 -23l3 8q3 6 7.5 9t10.5 3
q8 0 12 -4.5t4 -13.5v-59q0 -9 -3.5 -14t-11.5 -5q-7 0 -11 4.5t-4 12.5v37h-96v-46q0 -43 26 -68t86 -25zM261 360v88h-49v272h-75q-5 -26 -20 -39.5t-40 -15.5v-70h42v-147h-53v-88h195z" />
    <glyph glyph-name="uni2156" unicode="&#x2156;" horiz-adv-x="624" 
d="M51 0zM363 399l224 274l-133 75l-124 -328zM278 338l-226 -282l135 -82l121 343zM461 -7q56 0 83 25t27 68v80q0 39 -20.5 61t-64.5 22q-13 0 -24 -3.5t-20 -8.5l5 43h34q35 0 52.5 5.5t22.5 21.5q3 8 4.5 20.5t1.5 28.5v4h-190l-22 -183l88 -23l3 8q3 6 7.5 9t10.5 3
q8 0 12 -4.5t4 -13.5v-59q0 -9 -3.5 -14t-11.5 -5q-7 0 -11 4.5t-4 12.5v37h-96v-46q0 -43 26 -68t86 -25zM273 360v89h-125q7 17 27 29t43 25q23 14 40 36.5t17 59.5v36q0 45 -26.5 68t-83.5 23q-55 0 -84 -26t-29 -67l-1 -55h97v48q0 10 4 15t12 5t12 -3.5t4 -11.5v-31
q0 -17 -13 -28t-32 -21t-38.5 -23.5t-32.5 -35.5q-6 -11 -9.5 -25t-3.5 -31v-76h222z" />
    <glyph glyph-name="uni2157" unicode="&#x2157;" horiz-adv-x="624" 
d="M43 0zM363 399l224 274l-133 75l-124 -328zM278 338l-226 -282l135 -82l121 343zM461 -7q56 0 83 25t27 68v80q0 39 -20.5 61t-64.5 22q-13 0 -24 -3.5t-20 -8.5l5 43h34q35 0 52.5 5.5t22.5 21.5q3 8 4.5 20.5t1.5 28.5v4h-190l-22 -183l88 -23l3 8q3 6 7.5 9t10.5 3
q8 0 12 -4.5t4 -13.5v-59q0 -9 -3.5 -14t-11.5 -5q-7 0 -11 4.5t-4 12.5v37h-96v-46q0 -43 26 -68t86 -25zM157 352q60 0 85.5 25t25.5 62v51q0 26 -10 38.5t-27 17.5q17 8 25 22t8 34v41q0 36 -26.5 59t-84.5 23q-57 0 -82 -24t-25 -65v-38h91v27q0 9 4.5 13t12.5 4
q9 0 13 -4t4 -12v-33q0 -7 -4.5 -11t-13.5 -4h-29v-72h28q10 0 15 -3.5t5 -10.5v-37q0 -8 -4 -12.5t-13 -4.5t-13.5 5t-4.5 14v30h-94v-44q0 -46 25.5 -68.5t88.5 -22.5z" />
    <glyph glyph-name="uni2158" unicode="&#x2158;" horiz-adv-x="624" 
d="M41 0zM363 399l224 274l-133 75l-124 -328zM278 338l-226 -282l135 -82l121 343zM461 -7q56 0 83 25t27 68v80q0 39 -20.5 61t-64.5 22q-13 0 -24 -3.5t-20 -8.5l5 43h34q35 0 52.5 5.5t22.5 21.5q3 8 4.5 20.5t1.5 28.5v4h-190l-22 -183l88 -23l3 8q3 6 7.5 9t10.5 3
q8 0 12 -4.5t4 -13.5v-59q0 -9 -3.5 -14t-11.5 -5q-7 0 -11 4.5t-4 12.5v37h-96v-46q0 -43 26 -68t86 -25zM282 415v78h-35v227h-85l-121 -237v-68h121v-55h85v55h35zM162 493h-32l32 59v-59z" />
    <glyph glyph-name="uni2159" unicode="&#x2159;" horiz-adv-x="624" 
d="M52 0zM363 399l224 274l-133 75l-124 -328zM278 338l-226 -282l135 -82l121 343zM261 360v88h-49v272h-75q-5 -26 -20 -39.5t-40 -15.5v-70h42v-147h-53v-88h195zM571 88v54q0 37 -19.5 55t-58.5 18q-20 0 -33 -7t-20 -18v62q0 17 4.5 25.5t13.5 8.5q8 0 12 -4.5t4 -13.5
v-34h94v37q-1 46 -26.5 70.5t-81.5 24.5q-54 0 -85 -27.5t-31 -84.5v-148q0 -56 27.5 -84.5t86.5 -28.5q57 0 85 24.5t28 70.5zM459 75q-11 0 -15 8.5t-4 28.5v36q4 4 9 5.5t11 1.5q9 0 13.5 -3.5t4.5 -11.5v-46q0 -9 -4.5 -14t-14.5 -5z" />
    <glyph glyph-name="uni215A" unicode="&#x215a;" horiz-adv-x="624" 
d="M45 0zM363 399l224 274l-133 75l-124 -328zM278 338l-226 -282l135 -82l121 343zM157 353q56 0 83 25t27 68v80q0 39 -20.5 61t-64.5 22q-13 0 -24 -3.5t-20 -8.5l5 43h34q35 0 52.5 5.5t22.5 21.5q3 8 4.5 20.5t1.5 28.5v4h-190l-22 -183l88 -23l3 8q3 6 7.5 9t10.5 3
q8 0 12 -4.5t4 -13.5v-59q0 -9 -3.5 -14t-11.5 -5q-7 0 -11 4.5t-4 12.5v37h-96v-46q0 -43 26 -68t86 -25zM571 88v54q0 37 -19.5 55t-58.5 18q-20 0 -33 -7t-20 -18v62q0 17 4.5 25.5t13.5 8.5q8 0 12 -4.5t4 -13.5v-34h94v37q-1 46 -26.5 70.5t-81.5 24.5q-54 0 -85 -27.5
t-31 -84.5v-148q0 -56 27.5 -84.5t86.5 -28.5q57 0 85 24.5t28 70.5zM459 75q-11 0 -15 8.5t-4 28.5v36q4 4 9 5.5t11 1.5q9 0 13.5 -3.5t4.5 -11.5v-46q0 -9 -4.5 -14t-14.5 -5z" />
    <glyph glyph-name="uni215B" unicode="&#x215b;" horiz-adv-x="624" 
d="M52 0zM363 399l224 274l-133 75l-124 -328zM278 338l-226 -282l135 -82l121 343zM261 360v88h-49v272h-75q-5 -26 -20 -39.5t-40 -15.5v-70h42v-147h-53v-88h195zM461 -7q59 0 86.5 23t27.5 63v48q0 23 -9 38t-27 23q15 7 23.5 21t8.5 37v37q0 38 -27 60.5t-83 22.5
q-55 0 -82 -23t-27 -61v-37q0 -24 8.5 -37.5t23.5 -20.5q-18 -8 -27.5 -23t-9.5 -36v-48q0 -43 27 -65t87 -22zM461 221q-11 0 -14.5 4t-3.5 12v35q0 9 4.5 13t13.5 4q12 0 15.5 -4.5t3.5 -12.5v-35q0 -8 -4 -12t-15 -4zM461 76q-10 0 -15 4.5t-5 12.5v43q0 9 5 13.5t15 4.5
q11 0 16 -4t5 -13v-43q0 -9 -5 -13.5t-16 -4.5z" />
    <glyph glyph-name="uni215C" unicode="&#x215c;" horiz-adv-x="624" 
d="M43 0zM363 399l224 274l-133 75l-124 -328zM278 338l-226 -282l135 -82l121 343zM461 -7q59 0 86.5 23t27.5 63v48q0 23 -9 38t-27 23q15 7 23.5 21t8.5 37v37q0 38 -27 60.5t-83 22.5q-55 0 -82 -23t-27 -61v-37q0 -24 8.5 -37.5t23.5 -20.5q-18 -8 -27.5 -23t-9.5 -36
v-48q0 -43 27 -65t87 -22zM461 221q-11 0 -14.5 4t-3.5 12v35q0 9 4.5 13t13.5 4q12 0 15.5 -4.5t3.5 -12.5v-35q0 -8 -4 -12t-15 -4zM461 76q-10 0 -15 4.5t-5 12.5v43q0 9 5 13.5t15 4.5q11 0 16 -4t5 -13v-43q0 -9 -5 -13.5t-16 -4.5zM157 352q60 0 85.5 25t25.5 62v51
q0 26 -10 38.5t-27 17.5q17 8 25 22t8 34v41q0 36 -26.5 59t-84.5 23q-57 0 -82 -24t-25 -65v-38h91v27q0 9 4.5 13t12.5 4q9 0 13 -4t4 -12v-33q0 -7 -4.5 -11t-13.5 -4h-29v-72h28q10 0 15 -3.5t5 -10.5v-37q0 -8 -4 -12.5t-13 -4.5t-13.5 5t-4.5 14v30h-94v-44
q0 -46 25.5 -68.5t88.5 -22.5z" />
    <glyph glyph-name="uni215D" unicode="&#x215d;" horiz-adv-x="624" 
d="M45 0zM363 399l224 274l-133 75l-124 -328zM278 338l-226 -282l135 -82l121 343zM461 -7q59 0 86.5 23t27.5 63v48q0 23 -9 38t-27 23q15 7 23.5 21t8.5 37v37q0 38 -27 60.5t-83 22.5q-55 0 -82 -23t-27 -61v-37q0 -24 8.5 -37.5t23.5 -20.5q-18 -8 -27.5 -23t-9.5 -36
v-48q0 -43 27 -65t87 -22zM461 221q-11 0 -14.5 4t-3.5 12v35q0 9 4.5 13t13.5 4q12 0 15.5 -4.5t3.5 -12.5v-35q0 -8 -4 -12t-15 -4zM461 76q-10 0 -15 4.5t-5 12.5v43q0 9 5 13.5t15 4.5q11 0 16 -4t5 -13v-43q0 -9 -5 -13.5t-16 -4.5zM157 353q56 0 83 25t27 68v80
q0 39 -20.5 61t-64.5 22q-13 0 -24 -3.5t-20 -8.5l5 43h34q35 0 52.5 5.5t22.5 21.5q3 8 4.5 20.5t1.5 28.5v4h-190l-22 -183l88 -23l3 8q3 6 7.5 9t10.5 3q8 0 12 -4.5t4 -13.5v-59q0 -9 -3.5 -14t-11.5 -5q-7 0 -11 4.5t-4 12.5v37h-96v-46q0 -43 26 -68t86 -25z" />
    <glyph glyph-name="uni215E" unicode="&#x215e;" horiz-adv-x="624" 
d="M52 0zM363 399l224 274l-133 75l-124 -328zM278 338l-226 -282l135 -82l121 343zM461 -7q59 0 86.5 23t27.5 63v48q0 23 -9 38t-27 23q15 7 23.5 21t8.5 37v37q0 38 -27 60.5t-83 22.5q-55 0 -82 -23t-27 -61v-37q0 -24 8.5 -37.5t23.5 -20.5q-18 -8 -27.5 -23t-9.5 -36
v-48q0 -43 27 -65t87 -22zM461 221q-11 0 -14.5 4t-3.5 12v35q0 9 4.5 13t13.5 4q12 0 15.5 -4.5t3.5 -12.5v-35q0 -8 -4 -12t-15 -4zM461 76q-10 0 -15 4.5t-5 12.5v43q0 9 5 13.5t15 4.5q11 0 16 -4t5 -13v-43q0 -9 -5 -13.5t-16 -4.5zM203 360q12 86 34 151.5t56 131.5
v77h-213v-89h113q-28 -55 -54.5 -120.5t-42.5 -150.5h107z" />
    <glyph glyph-name="uni215F" unicode="&#x215f;" horiz-adv-x="624" 
d="M52 0zM363 399l224 274l-133 75l-124 -328zM278 338l-226 -282l135 -82l121 343zM261 360v88h-49v272h-75q-5 -26 -20 -39.5t-40 -15.5v-70h42v-147h-53v-88h195z" />
    <glyph glyph-name="uni2190" unicode="&#x2190;" horiz-adv-x="731" 
d="M671 288v147h-398q34 29 64.5 70t46.5 84h-172q-11 -33 -37 -69t-60 -68q-17 -16 -34.5 -30t-35.5 -25v-74q36 -22 70.5 -54t60.5 -68q13 -17 22.5 -34t15.5 -34h178q-18 44 -52 85.5t-70 69.5h401z" />
    <glyph glyph-name="arrowup" unicode="&#x2191;" horiz-adv-x="731" 
d="M594 336v172q-33 12 -68.5 38t-67.5 59q-16 17 -29.5 34.5t-24.5 35.5h-71q-23 -36 -55.5 -69.5t-68.5 -59.5q-18 -13 -35 -22.5t-34 -15.5v-172q47 19 86.5 50t67.5 65v-399h147v399q28 -35 67 -65.5t86 -49.5z" />
    <glyph glyph-name="uni2192" unicode="&#x2192;" horiz-adv-x="731" 
d="M517 133q12 33 38.5 68.5t60.5 67.5q17 16 34.5 29.5t35.5 24.5v74q-36 23 -70 55t-60 68q-13 18 -22 35.5t-15 33.5h-172q17 -43 47 -84t64 -70h-398v-147h401q-36 -28 -70 -69.5t-52 -85.5h178z" />
    <glyph glyph-name="arrowdown" unicode="&#x2193;" horiz-adv-x="731" 
d="M401 44q23 36 55 70t68 59q18 13 35.5 22.5t34.5 15.5v172q-47 -19 -87 -50t-68 -66v400h-146v-400q-28 36 -67 66.5t-86 49.5v-172q33 -12 68 -37.5t67 -59.5q16 -17 30 -34.5t25 -35.5h71z" />
    <glyph glyph-name="uni2196" unicode="&#x2196;" horiz-adv-x="731" 
d="M638 196l-282 282q44 -5 93.5 1.5t95.5 25.5l-122 122q-31 -15 -74 -22t-90 -6q-23 1 -45 3.5t-43 7.5l-50 -50q10 -41 10.5 -88t-6.5 -91q-3 -22 -8.5 -41t-13.5 -35l121 -121q20 47 26.5 97t1.5 94l282 -283z" />
    <glyph glyph-name="uni2197" unicode="&#x2197;" horiz-adv-x="731" 
d="M516 184l122 122q-15 32 -22 75t-6 89q1 23 3.5 45t7.5 43l-50 50q-41 -9 -88 -10t-91 6q-22 4 -41 9.5t-35 13.5l-121 -122q47 -19 96.5 -25.5t94.5 -1.5l-283 -283l104 -103l282 282q-5 -44 1.5 -93.5t25.5 -96.5z" />
    <glyph glyph-name="uni2198" unicode="&#x2198;" horiz-adv-x="731" 
d="M569 109l50 50q-9 42 -10 88.5t6 90.5q3 22 9 41t13 35l-121 121q-20 -46 -26 -96.5t-2 -94.5l-282 283l-104 -104l282 -282q-44 5 -93 -1t-96 -26l122 -122q32 16 74.5 22.5t89.5 5.5q23 -1 45 -3.5t43 -7.5z" />
    <glyph glyph-name="uni2199" unicode="&#x2199;" horiz-adv-x="731" 
d="M424 92l122 121q-46 20 -96.5 26.5t-95.5 1.5l283 282l-104 104l-282 -283q5 45 -0.5 94.5t-25.5 95.5l-122 -122q15 -31 21.5 -74t5.5 -90q0 -23 -2.5 -45t-7.5 -43l50 -50q42 10 88.5 10.5t89.5 -6.5q22 -3 41 -8.5t35 -13.5z" />
    <glyph glyph-name="partialdiff" unicode="&#x2202;" horiz-adv-x="445" 
d="M223 -11q93 0 146.5 50.5t53.5 156.5v202q0 125 -51.5 218t-138.5 151h-211q94 -58 150.5 -108.5t83.5 -103.5q-11 9 -27 13.5t-37 4.5q-84 0 -126.5 -49.5t-42.5 -143.5v-201q0 -97 51 -143.5t149 -46.5zM224 131q-18 0 -29.5 12t-11.5 40v195q0 30 10.5 43t30.5 13
q22 0 31.5 -12t9.5 -44v-194q0 -30 -12 -41.5t-29 -11.5z" />
    <glyph glyph-name="uni2206" unicode="&#x2206;" horiz-adv-x="570" 
d="M572 0l-287 735l-288 -735h575zM359 136h-146l73 203z" />
    <glyph glyph-name="product" unicode="&#x220f;" horiz-adv-x="559" 
d="M312 0h158v570h70v150h-520v-150h68v-570h158v570h66v-570z" />
    <glyph glyph-name="summation" unicode="&#x2211;" horiz-adv-x="395" 
d="M371 151h-164l153 217l-151 207h155v145h-336v-143l137 -207l-144 -221v-149h350v151z" />
    <glyph glyph-name="minus" unicode="&#x2212;" horiz-adv-x="453" 
d="M413 284v142h-372v-142h372z" />
    <glyph glyph-name="radical" unicode="&#x221a;" horiz-adv-x="582" 
d="M346 0l240 720h-171l-147 -421l-61 196h-179v-160h62l94 -335h162z" />
    <glyph glyph-name="infinity" unicode="&#x221e;" horiz-adv-x="680" 
d="M492 325q-17 0 -32 11t-32 27q17 17 32 27.5t32 10.5t28 -11t11 -27t-11 -27t-28 -11zM190 326q-17 0 -28 11t-11 26t11 26t28 11t32.5 -10t32.5 -27q-17 -16 -32.5 -26.5t-32.5 -10.5zM182 201q54 0 87 21.5t70 57.5q38 -36 72 -57t89 -21q77 0 117.5 44t40.5 117
q0 45 -20.5 81t-56.5 57q-18 11 -39 16t-44 5q-37 0 -63 -9t-47 -27q-11 -8 -22.5 -18.5t-24.5 -22.5q-25 24 -47 41.5t-48 26.5q-13 4 -28.5 6.5t-33.5 2.5q-49 0 -85.5 -21t-56.5 -57q-10 -18 -15 -38t-5 -43q0 -73 38 -117.5t122 -44.5z" />
    <glyph glyph-name="integral" unicode="&#x222b;" horiz-adv-x="332" 
d="M13 -184h64q90 0 128.5 35.5t38.5 123.5v593q0 23 7.5 30.5t26.5 7.5h41v138h-67q-90 0 -128.5 -35.5t-38.5 -123.5v-593q0 -23 -7 -30.5t-27 -7.5h-38v-138z" />
    <glyph glyph-name="approxequal" unicode="&#x2248;" horiz-adv-x="440" 
d="M132 549q-25 0 -47.5 -11t-31.5 -25v-143q12 20 34.5 31t43.5 11q26 0 55.5 -11.5t61.5 -22.5q16 -5 32 -8t33 -3q23 0 45 11.5t30 24.5v143q-13 -21 -33 -31.5t-42 -10.5q-25 0 -56 11t-63 23q-16 5 -31.5 8t-30.5 3zM53 323v-143q12 18 34 30t44 12q25 0 54.5 -11.5
t61.5 -22.5q16 -5 32.5 -8t33.5 -3q26 0 46.5 11t28.5 24v143q-14 -21 -33 -31.5t-42 -10.5q-27 0 -58 11t-63 23q-16 5 -31 8t-30 3q-24 0 -46.5 -10.5t-31.5 -24.5z" />
    <glyph glyph-name="notequal" unicode="&#x2260;" horiz-adv-x="453" 
d="M398 197v134h-136l18 59h118v134h-76l19 61h-93l-19 -61h-173v-134h132l-19 -59h-113v-134h72l-22 -71h92l22 71h178z" />
    <glyph glyph-name="equivalence" unicode="&#x2261;" horiz-adv-x="453" 
d="M398 479v123h-342v-123h342zM398 304v124h-342v-124h342zM398 129v123h-342v-123h342z" />
    <glyph glyph-name="lessequal" unicode="&#x2264;" horiz-adv-x="440" 
d="M387 272v134l-171 56l171 55v134l-337 -133v-115zM387 120v126h-336v-126h336z" />
    <glyph glyph-name="greaterequal" unicode="&#x2265;" horiz-adv-x="440" 
d="M54 272l337 131v115l-337 133v-134l171 -55l-171 -56v-134zM390 120v126h-336v-126h336z" />
    <glyph glyph-name="uni22A0" unicode="&#x22a0;" horiz-adv-x="810" 
d="M45 0h720v720h-720v-720zM282 488h246v-255h-246v255zM467 256l40 40l-62 64l63 64l-41 40l-61 -63l-61 62l-41 -40l62 -63l-61 -63l40 -40l61 62z" />
    <glyph glyph-name="house" unicode="&#x2302;" horiz-adv-x="856" 
d="M754 0v406l-326 313l-326 -313v-406h652z" />
    <glyph glyph-name="uni25A0" unicode="&#x25a0;" horiz-adv-x="810" 
d="M45 0h720v720h-720v-720z" />
    <glyph glyph-name="uni25A1" unicode="&#x25a1;" horiz-adv-x="810" 
d="M45 0v720h720v-720h-720zM282 488v-255h246v255h-246z" />
    <glyph glyph-name="uni25AA" unicode="&#x25aa;" horiz-adv-x="673" 
d="M44 0h585v585h-585v-585z" />
    <glyph glyph-name="uni25AB" unicode="&#x25ab;" horiz-adv-x="673" 
d="M44 0h585v585h-585v-585zM244 389h185v-192h-185v192z" />
    <glyph glyph-name="triagup" unicode="&#x25b2;" horiz-adv-x="901" 
d="M879 0l-428 742l-429 -742h857z" />
    <glyph glyph-name="triagrt" unicode="&#x25ba;" horiz-adv-x="901" 
d="M102 -57l742 429l-742 428v-857z" />
    <glyph glyph-name="triagdn" unicode="&#x25bc;" horiz-adv-x="901" 
d="M22 730l429 -742l428 742h-857z" />
    <glyph glyph-name="triaglf" unicode="&#x25c4;" horiz-adv-x="901" 
d="M799 800l-742 -428l742 -429v857z" />
    <glyph glyph-name="lozenge" unicode="&#x25ca;" horiz-adv-x="546" 
d="M274 97l263 263l-264 264l-263 -263zM207 361l65 66l69 -68l-67 -66z" />
    <glyph glyph-name="uni25CB" unicode="&#x25cb;" horiz-adv-x="859" 
d="M429 -11q82 0 150 27.5t118 77.5q49 49 76 116.5t27 147.5q0 81 -27.5 148.5t-76.5 116.5q-50 50 -118 77t-149 27q-82 0 -149.5 -27.5t-117.5 -77.5q-49 -50 -76 -117t-27 -147q0 -108 47 -191t131 -131q41 -23 89.5 -35t102.5 -12zM429 212q-64 0 -102 42.5t-38 103.5
q0 62 38 105t102 43q43 0 74 -20t49 -53q8 -17 12.5 -35.5t4.5 -39.5q0 -61 -38 -103.5t-102 -42.5z" />
    <glyph glyph-name="uni25CE" unicode="&#x25ce;" horiz-adv-x="917" 
d="M458 -10q81 0 148 27.5t117 76.5q49 50 75.5 117t26.5 147q0 81 -27 148t-77 117q-49 49 -116 76t-147 27q-81 0 -148 -27.5t-116 -76.5q-49 -50 -75.5 -117t-26.5 -147q0 -108 46.5 -191t129.5 -130q41 -23 88.5 -35t101.5 -12zM458 120q-66 0 -119.5 31t-84.5 85
q-15 27 -23 57.5t-8 64.5q0 68 31 122.5t84 85.5q27 16 57 24t63 8q68 0 121.5 -32.5t83.5 -86.5q16 -27 23.5 -57.5t7.5 -63.5q0 -68 -30.5 -122t-84.5 -85q-26 -15 -56.5 -23t-64.5 -8zM459 187q49 0 87.5 22.5t61.5 61.5q11 19 16.5 40.5t5.5 45.5q0 49 -22.5 87.5
t-61.5 60.5q-19 11 -41 16.5t-46 5.5q-48 0 -86.5 -22t-61.5 -61q-12 -19 -17.5 -40.5t-5.5 -46.5q0 -49 22 -87.5t61 -60.5q19 -11 41 -16.5t47 -5.5zM459 299q-24 0 -39 16.5t-15 41.5q0 26 15 42t39 16t39 -16t15 -42q0 -25 -15 -41.5t-39 -16.5z" />
    <glyph glyph-name="uni25CF" unicode="&#x25cf;" horiz-adv-x="859" 
d="M429 -11q82 0 150 27.5t118 77.5q49 49 76 116.5t27 147.5q0 81 -27.5 148.5t-76.5 116.5q-50 50 -118 77t-149 27q-82 0 -149.5 -27.5t-117.5 -77.5q-49 -50 -76 -117t-27 -147q0 -108 47 -191t131 -131q41 -23 89.5 -35t102.5 -12z" />
    <glyph glyph-name="uni25E2" unicode="&#x25e2;" horiz-adv-x="901" 
d="M875 533l-828 222l222 -828z" />
    <glyph glyph-name="uni25E3" unicode="&#x25e3;" horiz-adv-x="901" 
d="M634 -73l222 828l-828 -222z" />
    <glyph glyph-name="uni25E4" unicode="&#x25e4;" horiz-adv-x="901" 
d="M859 -54l-222 828l-606 -606z" />
    <glyph glyph-name="uni25E5" unicode="&#x25e5;" horiz-adv-x="901" 
d="M874 163l-605 607l-223 -828z" />
    <glyph glyph-name="uni2605" unicode="&#x2605;" horiz-adv-x="904" 
d="M564 303l187 134l-230 1l-71 218l-72 -218l-229 1l186 -135l-72 -219l186 135l187 -135z" />
    <glyph glyph-name="uni263C" unicode="&#x263c;" horiz-adv-x="932" 
d="M453 568h20l17 142h-54zM350 535l15 10l-55 133l-47 -28zM561 545l15 -10l87 115l-47 28zM275 455l10 15l-115 87l-28 -47zM641 471l10 -16l133 56l-30 46zM289 356q0 -47 23.5 -87t63.5 -63q20 -12 41.5 -18t45.5 -6q48 0 87.5 23.5t62.5 63.5q12 20 18 41.5t6 45.5
q0 48 -23.5 87.5t-63.5 62.5q-20 12 -41.5 18t-45.5 6q-47 0 -87 -23.5t-63 -63.5q-12 -20 -18 -41.5t-6 -45.5zM252 347v20l-142 17v-54zM674 367v-20l142 -17v54zM651 259l-10 -15l115 -87l28 47zM285 243l-10 16l-133 -56l30 -46zM576 179l-15 -10l55 -133l47 28z
M365 169l-15 10l-87 -115l47 -28zM473 146h-20l-17 -142h54z" />
    <glyph glyph-name="uni263E" unicode="&#x263e;" horiz-adv-x="791" 
d="M536 605q18 0 36 -3.5t35 -8.5q-38 27 -83.5 42t-94.5 15q-61 0 -114.5 -23t-94.5 -64t-64 -94.5t-23 -114.5t23 -114.5t64 -94.5t94.5 -64t114.5 -23q49 0 94.5 15t83.5 42q-17 -5 -35 -8.5t-36 -3.5q-66 0 -120 34t-87 91q-16 29 -24 60.5t-8 65.5q0 69 32.5 126
t86.5 91q27 17 57 25.5t63 8.5z" />
    <glyph glyph-name="spade" unicode="&#x2660;" horiz-adv-x="906" 
d="M485 284q13 -34 36.5 -64t58.5 -49q17 -10 38 -14.5t45 -4.5q43 0 77.5 21t55.5 56q11 17 16 36.5t5 40.5q0 56 -22 103.5t-71 97.5q-24 25 -56.5 54t-73.5 61l-137 109h-1l-137 -109q-81 -64 -132 -114.5t-75 -98.5q-12 -23 -18 -49t-6 -54q0 -42 23 -77.5t61 -56.5
q19 -10 40 -15.5t44 -5.5q45 0 77.5 19t54.5 50q11 15 19.5 31t14.5 33q0 -59 -17.5 -114.5t-39.5 -100.5q-11 -22 -20 -39t-16 -30h254q-9 19 -25.5 49t-32.5 68q-17 37 -28.5 80t-11.5 87z" />
    <glyph glyph-name="club" unicode="&#x2663;" horiz-adv-x="906" 
d="M649 128q48 0 87.5 24t62.5 63q11 20 17 42t6 46q0 48 -23 87t-62 63q-19 11 -41 17t-46 6q-12 0 -23.5 -2t-21.5 -6q8 20 13 42.5t5 44.5q0 48 -23 86.5t-62 61.5q-20 12 -41.5 17.5t-45.5 5.5q-47 0 -86.5 -23t-63.5 -62q-11 -19 -17 -40.5t-6 -45.5q0 -22 5.5 -43.5
t14.5 -41.5l-20 4t-21 2q-48 0 -87.5 -23.5t-62.5 -62.5q-12 -19 -18 -41t-6 -46q0 -48 23.5 -87.5t63.5 -63.5q19 -12 41 -18t46 -6q57 0 100.5 33.5t63.5 84.5q-6 -52 -23 -100t-36 -86q-10 -19 -18 -34t-14 -26h254q-11 22 -31 60t-39 86q-9 24 -15.5 48.5t-9.5 50.5
q20 -51 62 -84t98 -33z" />
    <glyph glyph-name="heart" unicode="&#x2665;" horiz-adv-x="906" 
d="M450 -17l138 154q82 91 132 160.5t73 127.5q12 30 17.5 59t5.5 57q0 51 -25.5 93t-67.5 67q-21 12 -44.5 18.5t-48.5 6.5q-50 0 -88.5 -20.5t-62.5 -56.5q-12 -18 -19 -38t-10 -42q-5 45 -29.5 80.5t-63.5 55.5q-19 11 -41 16t-47 5q-50 0 -91 -25t-65 -67
q-12 -21 -18 -44.5t-6 -48.5q0 -57 22 -115.5t71 -128.5q24 -35 56.5 -75t73.5 -85z" />
    <glyph glyph-name="diamond" unicode="&#x2666;" horiz-adv-x="906" 
d="M132 364l321 -374l320 374l-320 370z" />
    <glyph glyph-name="uni267B" unicode="&#x267b;" horiz-adv-x="833" 
d="M352 680l14 -2.5t32 -12.5q9 -5 17 -13.5t14 -19.5l61 -106l-34 -20l145 -27l53 142l-37 -21l-24 41q-16 29 -35 34t-42 6h-164v-1zM179 527l127 -73l98 170q-8 17 -32 29t-53 14q-14 1 -27.5 -2t-26.5 -11q-10 -5 -18 -13t-11 -13zM692 467l-126 -72l98 -170
q18 0 40.5 14t38.5 38q8 12 12 25.5t4 28.5q0 11 -2.5 21.5t-5.5 15.5zM168 125l-4.5 14t-4.5 35q0 10 3 20.5t9 21.5q1 2 10 18t21 37q12 20 21 35.5l9 15.5l35 -21l-50 141l-148 -26l36 -21l-24 -42q-16 -28 -11.5 -47t15.5 -39l81 -142h2zM741 246l-10 -11t-28 -22
q-9 -5 -19.5 -8t-23.5 -3h-123v42l-95 -115l95 -115v42h49q33 0 47 14t27 33l82 142zM388 56v146h-196q-9 -15 -8 -41.5t14 -52.5q6 -13 15.5 -23t22.5 -18q10 -6 20.5 -8.5t17.5 -2.5h114z" />
    <glyph glyph-name="uni267C" unicode="&#x267c;" horiz-adv-x="833" 
d="M755 354q0 71 -26 132.5t-73 108.5q-46 46 -107 72.5t-131 26.5t-132 -26.5t-108 -72.5q-47 -47 -73.5 -108.5t-26.5 -132.5q0 -70 26.5 -131t73.5 -108q46 -46 108 -72t132 -26t131 26t107 72q47 47 73 108t26 131zM361 612h127q19 0 33 -4.5t27 -26.5l19 -32l28 16
l-40 -110l-113 21l27 16l-48 82q-9 17 -23.5 24.5t-25.5 10.5q-5 1 -8 1.5l-3 0.5v1zM276 570q2 5 8 11t13 10q20 12 42.5 10t40.5 -11q9 -5 15.5 -10.5t9.5 -11.5l-75 -132l-99 57zM673 370q3 -5 5.5 -12.5t2.5 -16.5q0 -23 -12.5 -42t-30.5 -31q-8 -5 -16 -8t-15 -3
l-77 132l99 57zM221 181l-63 109q-8 17 -12 31.5t9 36.5l19 32l-28 17l114 19l39 -109l-27 17l-48 -82q-9 -17 -9 -33.5t4 -26.5q1 -6 2 -8.5l1 -2.5h-1zM667 273l-64 -109q-9 -15 -20 -25.5t-37 -10.5h-37v-33l-75 89l75 88v-31h94q20 0 34 8.5t22 16.5q3 4 5 6l2 2z
M301 128q-5 0 -13 2t-16 6q-20 12 -30 32t-11 40q-1 10 0.5 18.5t5.5 14.5h153v-113h-89z" />
    <glyph glyph-name="uni267D" unicode="&#x267d;" horiz-adv-x="833" 
d="M755 354q0 71 -26 132.5t-73 108.5q-46 46 -107 72.5t-131 26.5t-132 -26.5t-108 -72.5q-47 -47 -73.5 -108.5t-26.5 -132.5q0 -70 26.5 -131t73.5 -108q46 -46 108 -72t132 -26t131 26t107 72q47 47 73 108t26 131zM738 354q0 -67 -25 -125t-69 -102t-102 -69t-124 -25
q-67 0 -125.5 25t-103.5 69q-44 44 -69 102t-25 125t25 125.5t69 103.5q45 44 103.5 69t125.5 25q66 0 124 -25t102 -69q44 -45 69 -103.5t25 -125.5zM361 611l11 -2.5t25 -10.5q7 -4 13 -10t11 -14l48 -82l-27 -16l113 -21l40 110l-28 -16l-19 32q-13 22 -27 26.5t-33 4.5
h-127v-1zM231 493l99 -57l75 132q-6 13 -24.5 22t-41.5 11q-11 1 -21.5 -1.5t-20.5 -8.5q-7 -4 -13 -10t-8 -11zM629 446l-99 -57l77 -132q14 0 31.5 11.5t29.5 30.5q7 9 10 20t3 22q0 9 -2.5 16.5t-5.5 12.5zM222 181l-3.5 10.5t-3.5 27.5q0 8 2 16.5t7 16.5l48 82l27 -17
l-39 109l-114 -19l28 -17l-19 -32q-13 -22 -9 -36.5t12 -31.5l63 -109h1zM666 274l-7.5 -8t-21.5 -17q-7 -4 -15.5 -6t-18.5 -2h-94v31l-75 -88l75 -89v33h37q26 0 37 10.5t20 25.5l64 109zM390 128v113h-153q-7 -12 -6 -32.5t11 -40.5q5 -10 12.5 -18t17.5 -14q8 -4 16 -6
t13 -2h89z" />
    <glyph glyph-name="uni2E18" unicode="&#x2e18;" horiz-adv-x="487" 
d="M238 595q-53 0 -73 -17t-20 -73q0 -55 20 -72.5t73 -17.5t73 17.5t20 72.5q0 37 -8 56.5t-28 26.5q-10 3 -24 5t-33 2zM247 -144q80 0 129 25t71 69q12 22 17.5 47.5t5.5 53.5v107h-141v-103q0 -24 -7 -41t-21 -27v116q0 86 -1.5 143t-2.5 89q-1 22 -2 35.5t-3 19.5
q-9 -3 -21.5 -5t-32.5 -2q-18 0 -29.5 2t-22.5 5l-3 -43q-3 -27 -20.5 -45t-41.5 -33q-24 -14 -47.5 -32t-38.5 -44q-8 -14 -12 -31t-4 -38v-91q0 -51 23 -91t73 -63q25 -11 58 -17t74 -6zM162 37v84q0 21 7.5 31t17.5 19q0 -17 -0.5 -33.5t-0.5 -33.5v-119q-12 7 -18 20
t-6 32z" />
    <glyph glyph-name="uni3008" unicode="&#x3008;" horiz-adv-x="300" 
d="M308 -152l-136 451l135 432h-164l-132 -434l129 -449h168z" />
    <glyph glyph-name="uni3009" unicode="&#x3009;" horiz-adv-x="300" 
d="M160 -152l129 449l-131 434h-165l135 -432l-137 -451h169z" />
    <glyph glyph-name="Aumlaut" horiz-adv-x="459" 
d="M52 600q34 0 46.5 13.5t12.5 48.5q0 38 -13 52t-46 14q-32 0 -45.5 -14t-13.5 -52q0 -37 12 -49.5t47 -12.5zM405 600q34 0 47 13.5t13 48.5q0 38 -13.5 52t-46.5 14t-45.5 -14t-12.5 -52q0 -37 11.5 -49.5t46.5 -12.5zM221 390l7 90l7 -90l29 -174h-71zM299 0h164
l-154 720h-162l-151 -720h163l13 79h114z" />
    <glyph glyph-name="Oumlaut" horiz-adv-x="478" 
d="M49 685q20 0 28 8t8 28q0 22 -8 30t-28 8q-19 0 -26.5 -8t-7.5 -30q0 -21 7 -28.5t27 -7.5zM428 685q20 0 28 8t8 28q0 22 -8 30t-28 8t-27.5 -8t-7.5 -30q0 -21 7 -28.5t28 -7.5zM239 -11q63 0 111 22.5t75 69.5q13 24 20 54.5t7 68.5v312q0 110 -59.5 162.5
t-153.5 52.5q-96 0 -154.5 -52.5t-58.5 -162.5v-312q0 -113 58 -164t155 -51zM239 140q-24 0 -33 17.5t-9 59.5v291q0 42 9 60t33 18t33 -17.5t9 -60.5v-291q0 -43 -9 -60t-33 -17z" />
    <glyph glyph-name="Uumlaut" horiz-adv-x="503" 
d="M224 583q14 0 18.5 14.5t4.5 53.5q0 42 -4.5 57.5t-18.5 15.5q-12 0 -17.5 -15.5t-5.5 -57.5q0 -40 5 -54t18 -14zM279 583q13 0 17.5 14.5t4.5 53.5q0 42 -4.5 57.5t-17.5 15.5t-18 -15.5t-5 -57.5q0 -40 4.5 -54t18.5 -14zM252 -11q110 0 166.5 53t56.5 172v506h-164
v-496q0 -46 -14.5 -61t-44.5 -15q-31 0 -45.5 15t-14.5 61v496h-164v-506q0 -121 55 -173t169 -52z" />
    <glyph glyph-name="I.alt" horiz-adv-x="228" 
d="M197 0v720h-166v-720h166z" />
    <glyph glyph-name="Iacute.alt" horiz-adv-x="228" 
d="M31 0zM197 0v720h-166v-720h166zM51 761h114l116 152h-151z" />
    <glyph glyph-name="Ibreve.alt" horiz-adv-x="228" 
d="M0 0zM197 0v720h-166v-720h166zM112 759q71 0 103.5 35.5t32.5 114.5h-102q0 -31 -7 -41.5t-27 -10.5t-27 10.5t-7 41.5h-102q0 -79 30.5 -114.5t105.5 -35.5z" />
    <glyph glyph-name="Icircumflex.alt" horiz-adv-x="228" 
d="M0 0zM197 0v720h-166v-720h166zM143 761h110l-89 172h-100l-89 -172h107l31 73z" />
    <glyph glyph-name="Idieresis.alt" horiz-adv-x="228" 
d="M0 0zM197 0v720h-166v-720h166zM35 759q38 0 52 14.5t14 53.5q0 42 -14.5 57.5t-51.5 15.5q-35 0 -49.5 -15.5t-14.5 -57.5q0 -40 13 -54t51 -14zM188 759q37 0 51.5 14.5t14.5 53.5q0 42 -15 57.5t-51 15.5q-37 0 -50.5 -15.5t-13.5 -57.5q0 -40 12.5 -54t51.5 -14z" />
    <glyph glyph-name="Idotaccent.alt" horiz-adv-x="228" 
d="M31 0zM197 0v720h-166v-720h166zM112 759q46 0 63.5 15.5t17.5 66.5q0 52 -18 67.5t-63 15.5q-46 0 -63.5 -15.5t-17.5 -67.5q0 -35 6.5 -52.5t24.5 -23.5q9 -3 21.5 -4.5t28.5 -1.5z" />
    <glyph glyph-name="Igrave.alt" horiz-adv-x="228" 
d="M0 0zM197 0v720h-166v-720h166zM63 761h105l-63 152h-150z" />
    <glyph glyph-name="Imacron.alt" horiz-adv-x="228" 
d="M7 0zM197 0v720h-166v-720h166zM7 769h211v112h-211v-112z" />
    <glyph glyph-name="Iogonek.alt" horiz-adv-x="228" 
d="M265 -78h-123q-1 -19 -7.5 -26.5t-16.5 -7.5q-9 0 -14 4.5t-5 13.5q0 7 5.5 16t25.5 27q11 9 27.5 21.5t39.5 29.5v720h-166v-720h7q-32 -28 -43 -53t-11 -50q0 -53 32 -79t96 -26q65 0 104 31.5t49 98.5z" />
    <glyph glyph-name="Itilde.alt" horiz-adv-x="228" 
d="M0 0zM197 0v720h-166v-720h166zM-44 760h93q0 20 4.5 29.5t12.5 9.5q15 0 31.5 -10.5t36.5 -20.5q10 -6 21.5 -8.5t24.5 -2.5q50 0 70.5 33.5t20.5 125.5h-94q0 -19 -4 -27t-15 -8t-27 10t-37 19q-10 5 -22 7.5t-25 2.5q-51 0 -71 -35t-20 -125z" />
    <glyph glyph-name="i.dot" horiz-adv-x="226" 
d="M23 0zM113 601q48 0 69 17t21 64q0 48 -20.5 64.5t-69.5 16.5t-69.5 -16.5t-20.5 -64.5q0 -49 19.5 -65t70.5 -16zM29 0h168v582q-10 -8 -31 -13t-53 -5q-31 0 -52 4.5t-32 12.5v-581z" />
    <glyph glyph-name="cordinal" horiz-adv-x="321" 
d="M160 322q72 0 109 31.5t37 101.5v54h-119v-51q0 -18 -6.5 -24t-17.5 -6q-13 0 -18.5 8t-5.5 27v126q0 23 5.5 31t18.5 8q12 0 18 -6t6 -24v-47h119v48q0 66 -38 98.5t-104 32.5q-65 0 -105.5 -34t-40.5 -105v-131q0 -69 35.5 -103.5t106.5 -34.5z" />
    <glyph glyph-name="g.alt" horiz-adv-x="451" 
d="M452 -28v2q0 73 -46.5 109t-139.5 36h-82q-32 0 -42 4t-10 12t9.5 13.5t40.5 5.5h45q101 0 147.5 40.5t46.5 128.5v106q0 63 -29.5 98.5t-89.5 43.5q74 -1 102.5 12.5t28.5 54.5v3h-164v-5q0 -22 -13 -31t-52 -14l-14 -2q-73 -10 -116 -46.5t-43 -117.5v-98q0 -52 17 -83
t54 -47q-49 -11 -73.5 -37t-24.5 -67t22.5 -65.5t67.5 -32.5q-41 -12 -61 -35.5t-20 -52.5q0 -46 45 -74.5t157 -28.5h3q81 0 132.5 22.5t76.5 60.5q13 19 19 40t6 45zM228 269q-16 0 -26 10t-10 32v127q0 22 9 32.5t27 10.5t27 -10.5t9 -32.5v-127q0 -21 -11 -31.5
t-25 -10.5zM220 -74q-33 0 -47.5 8.5t-14.5 19.5v4q0 13 17 23t38 10h38q25 0 37 -6.5t12 -18.5v-4q0 -14 -18 -25t-49 -11h-13z" />
    <glyph glyph-name="g.alt2" 
d="M222 129q-19 0 -27.5 15.5t-8.5 54.5v178q0 47 9 62t29 15t27.5 -19t7.5 -57v-182q0 -33 -9 -50t-28 -17zM223 -216q104 0 150.5 41t46.5 121v639h-136l-17 -71q-9 37 -32 58t-68 21q-77 0 -109 -55.5t-32 -168.5v-172q0 -79 14.5 -123.5t44.5 -63.5q14 -9 32.5 -14
t40.5 -5q42 0 66 18.5t34 64.5l-1 -127q0 -24 -7 -32.5t-25 -8.5q-19 0 -25.5 7.5t-6.5 28.5v12h-163v-4q0 -61 17 -97t59 -53q21 -8 50 -12t67 -4z" />
    <glyph glyph-name="uni0123.alt" 
d="M26 0zM222 129q-19 0 -27.5 15.5t-8.5 54.5v178q0 47 9 62t29 15t27.5 -19t7.5 -57v-182q0 -33 -9 -50t-28 -17zM223 -216q104 0 150.5 41t46.5 121v639h-136l-17 -71q-9 37 -32 58t-68 21q-77 0 -109 -55.5t-32 -168.5v-172q0 -79 14.5 -123.5t44.5 -63.5
q14 -9 32.5 -14t40.5 -5q42 0 66 18.5t34 64.5l-1 -127q0 -24 -7 -32.5t-25 -8.5q-19 0 -25.5 7.5t-6.5 28.5v12h-163v-4q0 -61 17 -97t59 -53q21 -8 50 -12t67 -4zM230 615q40 0 55.5 16.5t15.5 55.5q0 43 -14 55.5t-46 12.5h-7q4 21 16 29t37 8v65q-66 0 -97 -38.5
t-31 -109.5q0 -55 15.5 -74.5t55.5 -19.5z" />
    <glyph glyph-name="gcircumflex.alt" 
d="M26 0zM222 129q-19 0 -27.5 15.5t-8.5 54.5v178q0 47 9 62t29 15t27.5 -19t7.5 -57v-182q0 -33 -9 -50t-28 -17zM223 -216q104 0 150.5 41t46.5 121v639h-136l-17 -71q-9 37 -32 58t-68 21q-77 0 -109 -55.5t-32 -168.5v-172q0 -79 14.5 -123.5t44.5 -63.5
q14 -9 32.5 -14t40.5 -5q42 0 66 18.5t34 64.5l-1 -127q0 -24 -7 -32.5t-25 -8.5q-19 0 -25.5 7.5t-6.5 28.5v12h-163v-4q0 -61 17 -97t59 -53q21 -8 50 -12t67 -4zM252 626h110l-89 172h-100l-89 -172h107l31 73z" />
    <glyph glyph-name="gdotaccent.alt" 
d="M26 0zM222 129q-19 0 -27.5 15.5t-8.5 54.5v178q0 47 9 62t29 15t27.5 -19t7.5 -57v-182q0 -33 -9 -50t-28 -17zM223 -216q104 0 150.5 41t46.5 121v639h-136l-17 -71q-9 37 -32 58t-68 21q-77 0 -109 -55.5t-32 -168.5v-172q0 -79 14.5 -123.5t44.5 -63.5
q14 -9 32.5 -14t40.5 -5q42 0 66 18.5t34 64.5l-1 -127q0 -24 -7 -32.5t-25 -8.5q-19 0 -25.5 7.5t-6.5 28.5v12h-163v-4q0 -61 17 -97t59 -53q21 -8 50 -12t67 -4zM221 624q46 0 63.5 15.5t17.5 66.5q0 52 -18 67.5t-63 15.5q-46 0 -63.5 -15.5t-17.5 -67.5
q0 -35 6.5 -52.5t24.5 -23.5q9 -3 21.5 -4.5t28.5 -1.5z" />
    <glyph glyph-name="gbreve.alt" 
d="M26 0zM222 129q-19 0 -27.5 15.5t-8.5 54.5v178q0 47 9 62t29 15t27.5 -19t7.5 -57v-182q0 -33 -9 -50t-28 -17zM223 -216q104 0 150.5 41t46.5 121v639h-136l-17 -71q-9 37 -32 58t-68 21q-77 0 -109 -55.5t-32 -168.5v-172q0 -79 14.5 -123.5t44.5 -63.5
q14 -9 32.5 -14t40.5 -5q42 0 66 18.5t34 64.5l-1 -127q0 -24 -7 -32.5t-25 -8.5q-19 0 -25.5 7.5t-6.5 28.5v12h-163v-4q0 -61 17 -97t59 -53q21 -8 50 -12t67 -4zM221 624q71 0 103.5 35.5t32.5 114.5h-102q0 -31 -7 -41.5t-27 -10.5t-27 10.5t-7 41.5h-102
q0 -79 30.5 -114.5t105.5 -35.5z" />
    <glyph glyph-name="caronSlovak" horiz-adv-x="357" 
d="M94 636h95l87 152h-132z" />
    <glyph glyph-name="altcedilla" horiz-adv-x="357" 
d="M183 -230q67 0 104.5 28.5t37.5 79.5q0 55 -33.5 80t-93.5 25h-67v-81h54q16 0 24 -5.5t8 -15.5q0 -12 -8 -17.5t-24 -5.5t-24 5t-13 19h-120q12 -61 50.5 -86.5t104.5 -25.5z" />
    <glyph glyph-name="uni00200326" horiz-adv-x="357" 
d="M118 -278q66 0 97 39t31 110q0 55 -15 74t-56 19q-40 0 -55 -16t-15 -55q0 -43 14 -55.5t45 -12.5h7q-4 -21 -15.5 -29.5t-37.5 -8.5v-65z" />
    <glyph glyph-name="uni00200323" horiz-adv-x="357" 
d="M178 -206q46 0 63.5 15.5t17.5 66.5q0 52 -18 67.5t-63 15.5q-46 0 -63.5 -15.5t-17.5 -67.5q0 -35 6.5 -52.5t24.5 -23.5q9 -3 21.5 -4.5t28.5 -1.5z" />
    <glyph glyph-name="doublegrave" horiz-adv-x="357" 
d="M96 636h85l-58 152h-124zM222 636h84l-38 152h-119z" />
    <glyph glyph-name="invertedbreve" horiz-adv-x="357" 
d="M180 787q-70 0 -104.5 -36.5t-34.5 -114.5h104q0 31 8 42.5t26 11.5q20 0 27.5 -11.5t7.5 -42.5h105q0 78 -32.5 114.5t-106.5 36.5z" />
    <glyph glyph-name="uni00200326.alt" horiz-adv-x="357" 
d="M175 632q40 0 55.5 16.5t15.5 55.5q0 43 -14 55.5t-46 12.5h-7q4 21 16 29t37 8v65q-66 0 -97 -38.5t-31 -109.5q0 -55 15.5 -74.5t55.5 -19.5z" />
    <glyph glyph-name="exclamdown.cap" horiz-adv-x="250" 
d="M126 728q-52 0 -72 -18t-20 -77t20 -77.5t72 -18.5q53 0 72.5 18.5t19.5 77.5q0 39 -8 59.5t-28 28.5q-10 3 -24 5t-32 2zM212 0v211q0 54 -3 105.5t-8 93.5q-4 43 -9 70t-8 32q-9 -2 -24 -3.5t-35 -1.5q-19 0 -33.5 1.5t-25.5 3.5q-3 -5 -7.5 -32.5t-9.5 -69.5
q-5 -43 -8 -94.5t-3 -104.5v-211h174z" />
    <glyph glyph-name="questiondown.cap" horiz-adv-x="451" 
d="M162 529l-2 -52q-1 -19 -14.5 -32.5t-47.5 -36.5q-19 -13 -37 -31t-30 -45q-6 -14 -9 -31t-3 -38v-111q0 -71 49 -116.5t156 -45.5q105 0 157 45t52 126v134h-167v-122q0 -20 -8.5 -32t-32.5 -12q-19 0 -28.5 9t-9.5 26v105q0 20 16 34t37 27q43 28 60 58t17 70
q0 18 -0.5 35.5t-2.5 35.5q-9 -4 -27 -8t-50 -4q-31 0 -48 4t-27 8zM237 729q-53 0 -73 -17.5t-20 -72.5q0 -56 20 -73.5t73 -17.5t73 17.5t20 73.5q0 37 -8 56.5t-28 26.5q-10 3 -24 5t-33 2z" />
    <glyph glyph-name="uni2E18.cap" horiz-adv-x="487" 
d="M238 731q-53 0 -73 -17.5t-20 -72.5q0 -56 20 -73.5t73 -17.5t73 17.5t20 73.5q0 37 -8 56.5t-28 26.5q-10 3 -24 5t-33 2zM247 -8q80 0 129 25t71 69q12 22 17.5 47.5t5.5 53.5v106h-141v-102q0 -24 -7 -41t-21 -27v116q0 86 -1.5 143.5t-2.5 88.5q-1 22 -2 35.5
t-3 19.5q-8 -3 -21.5 -5t-32.5 -2q-16 0 -29 2t-23 5l-3 -44q-3 -27 -20.5 -45t-41.5 -33q-24 -14 -47.5 -32t-38.5 -44q-8 -13 -12 -30t-4 -38v-92q0 -50 23 -90t73 -63q25 -11 58 -17t74 -6zM162 172v84q0 21 7.5 31t17.5 20q0 -17 -0.5 -34t-0.5 -34v-118q-12 7 -18 20
t-6 31z" />
    <glyph glyph-name="guilsinglleft.cap" horiz-adv-x="312" 
d="M299 165l-131 195l121 191h-148l-116 -191v-10l118 -185h156z" />
    <glyph glyph-name="guilsinglright.cap" horiz-adv-x="312" 
d="M169 160l119 185v10l-116 191h-149l122 -191l-131 -195h155z" />
    <glyph glyph-name="guillemotleft.cap" horiz-adv-x="505" 
d="M285 160l-126 189l126 197h-138l-122 -193v-10l119 -183h141zM484 160l-131 196l122 190h-135l-118 -187v-14l121 -185h141z" />
    <glyph glyph-name="guillemotright.cap" horiz-adv-x="505" 
d="M357 160l119 183v10l-123 193h-137l126 -197l-126 -189h141zM157 160l122 185v14l-119 187h-135l123 -190l-131 -196h140z" />
    <glyph glyph-name="slash.cap" horiz-adv-x="330" 
d="M176 0l155 720h-177l-156 -720h178z" />
    <glyph glyph-name="backslash.cap" horiz-adv-x="330" 
d="M4 720l148 -720h174l-148 720h-174z" />
    <glyph glyph-name="bar.cap" horiz-adv-x="238" 
d="M200 -88v896h-162v-896h162z" />
    <glyph glyph-name="uni2016.cap" horiz-adv-x="427" 
d="M190 -81v889h-152v-889h152zM389 -81v889h-152v-889h152z" />
    <glyph glyph-name="brokenbar.cap" horiz-adv-x="238" 
d="M38 393h162v415h-162v-415zM200 341h-162v-429h162v429z" />
    <glyph glyph-name="bullet.cap" horiz-adv-x="345" 
d="M172 213q59 0 85 26t26 90q0 66 -26 90.5t-85 24.5q-58 0 -84 -25t-26 -90t24.5 -90.5t85.5 -25.5z" />
    <glyph glyph-name="onethirdemdash" horiz-adv-x="285" 
d="M258 378h-231v-155h231v155z" />
    <glyph glyph-name="threequarteremdash" horiz-adv-x="400" 
d="M373 378h-346v-155h346v155z" />
    <glyph glyph-name="periodcentered.cap" horiz-adv-x="250" 
d="M125 260q35 0 55 7.5t29 29.5q4 11 6 27t2 37q0 43 -8.5 64.5t-28.5 28.5q-10 4 -23.5 6t-31.5 2q-35 0 -55 -7.5t-29 -29.5q-4 -11 -6 -27t-2 -37q0 -42 8 -64t28 -29q10 -4 24 -6t32 -2z" />
    <glyph glyph-name="hyphen.cap" horiz-adv-x="358" 
d="M331 441h-304v-156h304v156z" />
    <glyph glyph-name="onethirdemdash.cap" horiz-adv-x="358" 
d="M331 441h-304v-156h304v156z" />
    <glyph glyph-name="endash.cap" horiz-adv-x="285" 
d="M258 441h-231v-156h231v156z" />
    <glyph glyph-name="threequarteremdash.cap" horiz-adv-x="335" 
d="M308 441h-281v-156h281v156z" />
    <glyph glyph-name="emdash.cap" horiz-adv-x="400" 
d="M373 441h-346v-156h346v156z" />
    <glyph glyph-name="figuredash.cap" horiz-adv-x="465" 
d="M438 441h-411v-156h411v156z" />
    <glyph glyph-name="uni2015.cap" horiz-adv-x="480" 
d="M453 441h-426v-156h426v156z" />
    <glyph glyph-name="periodcentered.smcp" horiz-adv-x="605" 
d="M578 441h-551v-156h551v156z" />
    <glyph glyph-name="parenleft.cap" horiz-adv-x="298" 
d="M290 -86v158q-52 0 -73.5 28t-21.5 97v319q0 71 21.5 100t73.5 29v154q-126 0 -196 -64t-70 -213v-336q0 -100 30 -159.5t89 -86.5q30 -13 66.5 -19.5t80.5 -6.5z" />
    <glyph glyph-name="parenright.cap" horiz-adv-x="298" 
d="M8 -86q88 0 147 26.5t89 85.5q15 30 22.5 70t7.5 90v336q0 149 -70 213t-196 64v-154q53 0 74 -29t21 -100v-319q0 -69 -21 -97t-74 -28v-158z" />
    <glyph glyph-name="bracketleft.cap" horiz-adv-x="295" 
d="M284 52h-90v609h90v137h-253v-884h253v138z" />
    <glyph glyph-name="bracketright.cap" horiz-adv-x="295" 
d="M264 -86v884h-253v-137h91v-609h-91v-138h253z" />
    <glyph glyph-name="braceleft.cap" horiz-adv-x="324" 
d="M315 -86v130h-38q-22 0 -34.5 7t-12.5 29q0 23 13 50.5t25 58.5q7 16 10 32.5t3 33.5q0 44 -23 67.5t-79 24.5v18q56 1 79 25t23 68q0 34 -14 65.5t-27 58.5q-7 14 -10.5 27t-3.5 24q0 21 13.5 28.5t36.5 7.5h39v129h-127q-70 0 -99 -33.5t-29 -85.5q0 -40 14 -76t29 -66
q7 -15 10.5 -29t3.5 -26q0 -27 -12.5 -38t-41.5 -11h-42v-153h47q29 0 41.5 -11t12.5 -39q0 -24 -15.5 -54.5t-30.5 -66.5q-8 -18 -12 -37t-4 -39q0 -52 29.5 -85.5t99.5 -33.5h126z" />
    <glyph glyph-name="braceright.cap" horiz-adv-x="324" 
d="M9 -86h126q71 0 100 33.5t29 85.5q0 41 -15.5 76.5t-30.5 65.5q-8 15 -12 29t-4 26q0 28 13 39t41 11h47v153h-42q-28 0 -41 11t-13 38q0 25 14.5 55t28.5 66q7 18 10.5 37t3.5 39q0 52 -28.5 85.5t-99.5 33.5h-127v-129h39q23 0 36.5 -7.5t13.5 -28.5q0 -23 -13.5 -50.5
t-27.5 -59.5q-7 -15 -10.5 -31.5t-3.5 -33.5q0 -44 23 -68t79 -25v-18q-56 -1 -79 -24.5t-23 -67.5q0 -34 13 -65.5t25 -59.5q7 -14 10 -26.5t3 -23.5q0 -22 -12 -29t-35 -7h-38v-130z" />
    <glyph glyph-name="anglebracketleft.cap" horiz-adv-x="300" 
d="M308 -86l-136 451l135 433h-164l-132 -434l129 -450h168z" />
    <glyph glyph-name="anglebracketright.cap" horiz-adv-x="300" 
d="M160 -86l129 450l-131 434h-165l135 -433l-137 -451h169z" />
    <glyph glyph-name="underscore" horiz-adv-x="454" 
d="M437 132h-420v-132h420v132z" />
    <glyph glyph-name="at.cap" horiz-adv-x="572" 
d="M290 -56q86 0 144.5 33t90.5 99h-124q-16 -21 -39.5 -32t-70.5 -11q-87 0 -131.5 49.5t-44.5 140.5v264q0 98 44.5 143.5t130.5 45.5q96 0 133 -44t37 -129v-220q0 -42 -2.5 -63t-8.5 -28q-3 -3 -6.5 -5t-7.5 -2q-11 0 -14 12t-3 43v362h-75l-19 -34q-7 15 -25 27t-43 12
q-43 0 -73 -28.5t-30 -101.5v-249q0 -70 26.5 -100.5t72.5 -30.5q33 0 52 15t28 32q11 -22 34.5 -34t61.5 -12q69 0 98 43t29 134v228q0 124 -68 193t-196 69q-79 0 -140 -30t-96 -90q-18 -30 -26.5 -67t-8.5 -82v-282q0 -137 73 -203.5t197 -66.5zM286 188q-16 0 -21 12.5
t-5 39.5v225q0 27 5 39.5t21 12.5q15 0 20 -12.5t5 -39.5v-225q0 -28 -5 -40t-20 -12z" />
    <glyph glyph-name="registered.cap" horiz-adv-x="611" 
d="M308 -12q83 0 145.5 34t98.5 95q17 31 26 67.5t9 77.5v193q0 85 -36 146t-100 94q-32 16 -68.5 24.5t-78.5 8.5q-80 0 -143.5 -34t-100.5 -97q-18 -32 -27 -69t-9 -80v-188q0 -89 35.5 -150t99.5 -91q32 -16 69.5 -23.5t79.5 -7.5zM432 161v110q0 28 -9 43t-26 22
q18 11 28 29t10 46v76q0 44 -27.5 69.5t-91.5 25.5h-128q22 20 51 30t65 10q86 0 129.5 -45t43.5 -127v-183q0 -40 -10.5 -71.5t-31.5 -54.5q-2 4 -2.5 9t-0.5 11zM308 94q-85 0 -129.5 43.5t-44.5 128.5v176q0 44 12.5 78t37.5 58v-445h104v157h10q15 0 21 -6t6 -23v-100
q0 -10 1.5 -18t5.5 -10h94q-21 -19 -50.5 -29t-67.5 -10zM305 495q13 0 19.5 -5.5t6.5 -17.5v-65q0 -11 -6.5 -16.5t-19.5 -5.5h-17v110h17z" />
    <glyph glyph-name="zero.inf" horiz-adv-x="272" 
d="M22 0zM136 -162q57 0 85.5 27.5t28.5 82.5v149q0 57 -29.5 85.5t-84.5 28.5q-53 0 -83.5 -28.5t-30.5 -85.5v-149q0 -55 28.5 -82.5t85.5 -27.5zM136 -77q-10 0 -14 7t-4 29v134q0 21 4 28t14 7q11 0 14.5 -7t3.5 -28v-134q0 -22 -3.5 -29t-14.5 -7z" />
    <glyph glyph-name="one.inf" horiz-adv-x="230" 
d="M18 0zM213 -155v88h-49v272h-75q-5 -26 -20 -39.5t-40 -15.5v-70h42v-147h-53v-88h195z" />
    <glyph glyph-name="two.inf" horiz-adv-x="263" 
d="M20 0zM242 -155v89h-125q7 17 27 29t43 25q23 14 40 36.5t17 59.5v36q0 45 -26.5 68t-83.5 23q-55 0 -84 -26t-29 -67l-1 -55h97v48q0 10 4 15t12 5t12 -3.5t4 -11.5v-31q0 -17 -13 -28t-32 -21t-38.5 -23.5t-32.5 -35.5q-6 -11 -9.5 -25t-3.5 -31v-76h222z" />
    <glyph glyph-name="three.inf" horiz-adv-x="259" 
d="M17 0zM131 -163q60 0 85.5 25t25.5 62v51q0 26 -10 38.5t-27 17.5q17 8 25 22t8 34v41q0 36 -26.5 59t-84.5 23q-57 0 -82 -24t-25 -65v-38h91v27q0 9 4.5 13t12.5 4q9 0 13 -4t4 -12v-33q0 -7 -4.5 -11t-13.5 -4h-29v-72h28q10 0 15 -3.5t5 -10.5v-37q0 -8 -4 -12.5
t-13 -4.5t-13.5 5t-4.5 14v30h-94v-44q0 -46 25.5 -68.5t88.5 -22.5z" />
    <glyph glyph-name="four.inf" horiz-adv-x="270" 
d="M14 0zM255 -100v78h-35v227h-85l-121 -237v-68h121v-55h85v55h35zM135 -22h-32l32 59v-59z" />
    <glyph glyph-name="five.inf" horiz-adv-x="265" 
d="M22 0zM134 -162q56 0 83 25t27 68v80q0 39 -20.5 61t-64.5 22q-13 0 -24 -3.5t-20 -8.5l5 43h34q35 0 52.5 5.5t22.5 21.5q3 8 4.5 20.5t1.5 28.5v4h-190l-22 -183l88 -23l3 8q3 6 7.5 9t10.5 3q8 0 12 -4.5t4 -13.5v-59q0 -9 -3.5 -14t-11.5 -5q-7 0 -11 4.5t-4 12.5v37
h-96v-46q0 -43 26 -68t86 -25z" />
    <glyph glyph-name="six.inf" horiz-adv-x="269" 
d="M22 0zM249 -67v54q0 37 -19.5 55t-58.5 18q-20 0 -33 -7t-20 -18v62q0 17 4.5 25.5t13.5 8.5q8 0 12 -4.5t4 -13.5v-34h94v37q-1 46 -26.5 70.5t-81.5 24.5q-54 0 -85 -27.5t-31 -84.5v-148q0 -56 27.5 -84.5t86.5 -28.5q57 0 85 24.5t28 70.5zM137 -80q-11 0 -15 8.5
t-4 28.5v36q4 4 9 5.5t11 1.5q9 0 13.5 -3.5t4.5 -11.5v-46q0 -9 -4.5 -14t-14.5 -5z" />
    <glyph glyph-name="seven.inf" horiz-adv-x="242" 
d="M15 0zM138 -155q12 86 34 151.5t56 131.5v77h-213v-89h113q-28 -55 -54.5 -120.5t-42.5 -150.5h107z" />
    <glyph glyph-name="eight.inf" horiz-adv-x="270" 
d="M21 0zM135 -162q59 0 86.5 23t27.5 63v48q0 23 -9 38t-27 23q15 7 23.5 21t8.5 37v37q0 38 -27 60.5t-83 22.5q-55 0 -82 -23t-27 -61v-37q0 -24 8.5 -37.5t23.5 -20.5q-18 -8 -27.5 -23t-9.5 -36v-48q0 -43 27 -65t87 -22zM135 66q-11 0 -14.5 4t-3.5 12v35q0 9 4.5 13
t13.5 4q12 0 15.5 -4.5t3.5 -12.5v-35q0 -8 -4 -12t-15 -4zM135 -79q-10 0 -15 4.5t-5 12.5v43q0 9 5 13.5t15 4.5q11 0 16 -4t5 -13v-43q0 -9 -5 -13.5t-16 -4.5z" />
    <glyph glyph-name="nine.inf" horiz-adv-x="272" 
d="M21 0zM134 51q-9 0 -13.5 4t-4.5 12v44q0 10 5 15t14 5q11 0 15.5 -8t4.5 -29v-34q-4 -4 -9 -6.5t-12 -2.5zM134 -163q55 0 85 27.5t30 86.5v148q0 56 -28.5 84t-85.5 28q-56 0 -84.5 -23t-28.5 -70v-51q0 -37 20.5 -56t60.5 -19q21 0 33 7t19 19v-63q0 -17 -4.5 -25.5
t-14.5 -8.5q-8 0 -12 4.5t-4 13.5v34h-99v-39q1 -46 28 -71.5t85 -25.5z" />
    <glyph glyph-name="plus.inf" horiz-adv-x="243" 
d="M26 0zM218 -15v85h-54v57h-84v-57h-54v-85h54v-57h84v57h54z" />
    <glyph glyph-name="minus.inf" horiz-adv-x="243" 
d="M26 0zM218 -17v89h-192v-89h192z" />
    <glyph glyph-name="equal.inf" horiz-adv-x="241" 
d="M33 0zM208 38v75h-175v-75h175zM208 -62v75h-175v-75h175z" />
    <glyph glyph-name="parenleft.inf" horiz-adv-x="194" 
d="M26 0zM26 -60q0 -67 16.5 -104t48.5 -53q16 -7 36 -11.5t44 -5.5v106q-28 2 -38 17.5t-10 59.5v141q0 45 10 63.5t38 21.5v97q-72 -3 -108.5 -41.5t-36.5 -132.5v-158z" />
    <glyph glyph-name="parenright.inf" horiz-adv-x="194" 
d="M23 0zM23 -234q48 2 80 17.5t49 52.5q8 18 12 44.5t4 59.5v158q0 94 -36.5 132.5t-108.5 41.5v-97q28 -3 38 -21.5t10 -63.5v-141q0 -44 -10 -59.5t-38 -17.5v-106z" />
    <glyph glyph-name="onesixteenth" horiz-adv-x="853" 
d="M233 360v88h-49v272h-75q-5 -26 -20 -39.5t-40 -15.5v-70h42v-147h-53v-88h195zM363 399l224 274l-133 75l-124 -328zM278 338l-226 -282l135 -82l121 343zM800 88v54q0 37 -19.5 55t-58.5 18q-20 0 -33 -7t-20 -18v62q0 17 4.5 25.5t13.5 8.5q8 0 12 -4.5t4 -13.5v-34
h94v37q-1 46 -26.5 70.5t-81.5 24.5q-54 0 -85 -27.5t-31 -84.5v-148q0 -56 27.5 -84.5t86.5 -28.5q57 0 85 24.5t28 70.5zM688 75q-11 0 -15 8.5t-4 28.5v36q4 4 9 5.5t11 1.5q9 0 13.5 -3.5t4.5 -11.5v-46q0 -9 -4.5 -14t-14.5 -5zM550 1v88h-49v272h-75q-5 -26 -20 -39.5
t-40 -15.5v-70h42v-147h-53v-88h195z" />
    <glyph glyph-name="threesixteenths" horiz-adv-x="853" 
d="M43 0zM363 399l224 274l-133 75l-124 -328zM278 338l-226 -282l135 -82l121 343zM550 1v88h-49v272h-75q-5 -26 -20 -39.5t-40 -15.5v-70h42v-147h-53v-88h195zM800 88v54q0 37 -19.5 55t-58.5 18q-20 0 -33 -7t-20 -18v62q0 17 4.5 25.5t13.5 8.5q8 0 12 -4.5t4 -13.5
v-34h94v37q-1 46 -26.5 70.5t-81.5 24.5q-54 0 -85 -27.5t-31 -84.5v-148q0 -56 27.5 -84.5t86.5 -28.5q57 0 85 24.5t28 70.5zM688 75q-11 0 -15 8.5t-4 28.5v36q4 4 9 5.5t11 1.5q9 0 13.5 -3.5t4.5 -11.5v-46q0 -9 -4.5 -14t-14.5 -5zM157 352q60 0 85.5 25t25.5 62v51
q0 26 -10 38.5t-27 17.5q17 8 25 22t8 34v41q0 36 -26.5 59t-84.5 23q-57 0 -82 -24t-25 -65v-38h91v27q0 9 4.5 13t12.5 4q9 0 13 -4t4 -12v-33q0 -7 -4.5 -11t-13.5 -4h-29v-72h28q10 0 15 -3.5t5 -10.5v-37q0 -8 -4 -12.5t-13 -4.5t-13.5 5t-4.5 14v30h-94v-44
q0 -46 25.5 -68.5t88.5 -22.5z" />
    <glyph glyph-name="fivesixteenths" horiz-adv-x="853" 
d="M45 0zM363 399l224 274l-133 75l-124 -328zM278 338l-226 -282l135 -82l121 343zM550 1v88h-49v272h-75q-5 -26 -20 -39.5t-40 -15.5v-70h42v-147h-53v-88h195zM800 88v54q0 37 -19.5 55t-58.5 18q-20 0 -33 -7t-20 -18v62q0 17 4.5 25.5t13.5 8.5q8 0 12 -4.5t4 -13.5
v-34h94v37q-1 46 -26.5 70.5t-81.5 24.5q-54 0 -85 -27.5t-31 -84.5v-148q0 -56 27.5 -84.5t86.5 -28.5q57 0 85 24.5t28 70.5zM688 75q-11 0 -15 8.5t-4 28.5v36q4 4 9 5.5t11 1.5q9 0 13.5 -3.5t4.5 -11.5v-46q0 -9 -4.5 -14t-14.5 -5zM157 353q56 0 83 25t27 68v80
q0 39 -20.5 61t-64.5 22q-13 0 -24 -3.5t-20 -8.5l5 43h34q35 0 52.5 5.5t22.5 21.5q3 8 4.5 20.5t1.5 28.5v4h-190l-22 -183l88 -23l3 8q3 6 7.5 9t10.5 3q8 0 12 -4.5t4 -13.5v-59q0 -9 -3.5 -14t-11.5 -5q-7 0 -11 4.5t-4 12.5v37h-96v-46q0 -43 26 -68t86 -25z" />
    <glyph glyph-name="sevensixteenths" horiz-adv-x="853" 
d="M52 0zM363 399l224 274l-133 75l-124 -328zM278 338l-226 -282l135 -82l121 343zM550 1v88h-49v272h-75q-5 -26 -20 -39.5t-40 -15.5v-70h42v-147h-53v-88h195zM800 88v54q0 37 -19.5 55t-58.5 18q-20 0 -33 -7t-20 -18v62q0 17 4.5 25.5t13.5 8.5q8 0 12 -4.5t4 -13.5
v-34h94v37q-1 46 -26.5 70.5t-81.5 24.5q-54 0 -85 -27.5t-31 -84.5v-148q0 -56 27.5 -84.5t86.5 -28.5q57 0 85 24.5t28 70.5zM688 75q-11 0 -15 8.5t-4 28.5v36q4 4 9 5.5t11 1.5q9 0 13.5 -3.5t4.5 -11.5v-46q0 -9 -4.5 -14t-14.5 -5zM203 360q12 86 34 151.5t56 131.5
v77h-213v-89h113q-28 -55 -54.5 -120.5t-42.5 -150.5h107z" />
    <glyph glyph-name="ninesixteenths" horiz-adv-x="853" 
d="M52 0zM363 399l224 274l-133 75l-124 -328zM278 338l-226 -282l135 -82l121 343zM550 1v88h-49v272h-75q-5 -26 -20 -39.5t-40 -15.5v-70h42v-147h-53v-88h195zM800 88v54q0 37 -19.5 55t-58.5 18q-20 0 -33 -7t-20 -18v62q0 17 4.5 25.5t13.5 8.5q8 0 12 -4.5t4 -13.5
v-34h94v37q-1 46 -26.5 70.5t-81.5 24.5q-54 0 -85 -27.5t-31 -84.5v-148q0 -56 27.5 -84.5t86.5 -28.5q57 0 85 24.5t28 70.5zM688 75q-11 0 -15 8.5t-4 28.5v36q4 4 9 5.5t11 1.5q9 0 13.5 -3.5t4.5 -11.5v-46q0 -9 -4.5 -14t-14.5 -5zM170 566q-9 0 -13.5 4t-4.5 12v44
q0 10 5 15t14 5q11 0 15.5 -8t4.5 -29v-34q-4 -4 -9 -6.5t-12 -2.5zM170 352q55 0 85 27.5t30 86.5v148q0 56 -28.5 84t-85.5 28q-56 0 -84.5 -23t-28.5 -70v-51q0 -37 20.5 -56t60.5 -19q21 0 33 7t19 19v-63q0 -17 -4.5 -25.5t-14.5 -8.5q-8 0 -12 4.5t-4 13.5v34h-99v-39
q1 -46 28 -71.5t85 -25.5z" />
    <glyph glyph-name="elevensixteenths" horiz-adv-x="1117" 
d="M497 359v88h-49v272h-75q-5 -26 -20 -39.5t-40 -15.5v-70h42v-147h-53v-88h195zM261 359v88h-49v272h-75q-5 -26 -20 -39.5t-40 -15.5v-70h42v-147h-53v-88h195zM1061 87v54q0 37 -19.5 55t-58.5 18q-20 0 -33 -7t-20 -18v62q0 17 4.5 25.5t13.5 8.5q8 0 12 -4.5t4 -13.5
v-34h94v37q-1 46 -26.5 70.5t-81.5 24.5q-54 0 -85 -27.5t-31 -84.5v-148q0 -56 27.5 -84.5t86.5 -28.5q57 0 85 24.5t28 70.5zM949 74q-11 0 -15 8.5t-4 28.5v36q4 4 9 5.5t11 1.5q9 0 13.5 -3.5t4.5 -11.5v-46q0 -9 -4.5 -14t-14.5 -5zM599 399l224 274l-133 75l-124 -328
zM514 338l-226 -282l135 -82l121 343zM787 1v88h-49v272h-75q-5 -26 -20 -39.5t-40 -15.5v-70h42v-147h-53v-88h195z" />
    <glyph glyph-name="thirteensixteenths" horiz-adv-x="1107" 
d="M270 370v88h-49v272h-75q-5 -26 -20 -39.5t-40 -15.5v-70h42v-147h-53v-88h195zM608 399l224 274l-133 75l-124 -328zM523 338l-226 -282l135 -82l121 343zM787 1v88h-49v272h-75q-5 -26 -20 -39.5t-40 -15.5v-70h42v-147h-53v-88h195zM1051 87v54q0 37 -19.5 55
t-58.5 18q-20 0 -33 -7t-20 -18v62q0 17 4.5 25.5t13.5 8.5q8 0 12 -4.5t4 -13.5v-34h94v37q-1 46 -26.5 70.5t-81.5 24.5q-54 0 -85 -27.5t-31 -84.5v-148q0 -56 27.5 -84.5t86.5 -28.5q57 0 85 24.5t28 70.5zM939 74q-11 0 -15 8.5t-4 28.5v36q4 4 9 5.5t11 1.5
q9 0 13.5 -3.5t4.5 -11.5v-46q0 -9 -4.5 -14t-14.5 -5zM421 362q60 0 85.5 25t25.5 62v51q0 26 -10 38.5t-27 17.5q17 8 25 22t8 34v41q0 36 -26.5 59t-84.5 23q-57 0 -82 -24t-25 -65v-38h91v27q0 9 4.5 13t12.5 4q9 0 13 -4t4 -12v-33q0 -7 -4.5 -11t-13.5 -4h-29v-72h28
q10 0 15 -3.5t5 -10.5v-37q0 -8 -4 -12.5t-13 -4.5t-13.5 5t-4.5 14v30h-94v-44q0 -46 25.5 -68.5t88.5 -22.5z" />
    <glyph glyph-name="fifteensixteenths" horiz-adv-x="1103" 
d="M270 360v88h-49v272h-75q-5 -26 -20 -39.5t-40 -15.5v-70h42v-147h-53v-88h195zM605 399l224 274l-133 75l-124 -328zM520 338l-226 -282l135 -82l121 343zM783 1v88h-49v272h-75q-5 -26 -20 -39.5t-40 -15.5v-70h42v-147h-53v-88h195zM1047 87v54q0 37 -19.5 55
t-58.5 18q-20 0 -33 -7t-20 -18v62q0 17 4.5 25.5t13.5 8.5q8 0 12 -4.5t4 -13.5v-34h94v37q-1 46 -26.5 70.5t-81.5 24.5q-54 0 -85 -27.5t-31 -84.5v-148q0 -56 27.5 -84.5t86.5 -28.5q57 0 85 24.5t28 70.5zM935 74q-11 0 -15 8.5t-4 28.5v36q4 4 9 5.5t11 1.5
q9 0 13.5 -3.5t4.5 -11.5v-46q0 -9 -4.5 -14t-14.5 -5zM415 353q56 0 83 25t27 68v80q0 39 -20.5 61t-64.5 22q-13 0 -24 -3.5t-20 -8.5l5 43h34q35 0 52.5 5.5t22.5 21.5q3 8 4.5 20.5t1.5 28.5v4h-190l-22 -183l88 -23l3 8q3 6 7.5 9t10.5 3q8 0 12 -4.5t4 -13.5v-59
q0 -9 -3.5 -14t-11.5 -5q-7 0 -11 4.5t-4 12.5v37h-96v-46q0 -43 26 -68t86 -25z" />
    <glyph glyph-name="mediumwhitecircle" horiz-adv-x="649" 
d="M324 -10q92 0 160.5 39.5t106.5 107.5q19 34 28.5 73t9.5 82q0 89 -38.5 157.5t-107.5 106.5q-34 20 -74 29.5t-85 9.5q-91 0 -159.5 -39.5t-106.5 -107.5q-19 -35 -28.5 -73.5t-9.5 -82.5q0 -88 38 -156.5t107 -106.5q34 -20 74 -29.5t85 -9.5zM324 193q-43 0 -68 29
t-25 70q0 43 25 72t68 29q44 0 68.5 -29.5t24.5 -71.5q0 -41 -24.5 -70t-68.5 -29z" />
    <glyph glyph-name="mediumblackcircle" horiz-adv-x="649" 
d="M324 -10q92 0 160.5 39.5t106.5 107.5q19 34 28.5 73t9.5 82q0 89 -38.5 157.5t-107.5 106.5q-34 20 -74 29.5t-85 9.5q-91 0 -159.5 -39.5t-106.5 -107.5q-19 -35 -28.5 -73.5t-9.5 -82.5q0 -88 38 -156.5t107 -106.5q34 -20 74 -29.5t85 -9.5z" />
    <glyph glyph-name="ballotboxwithx" horiz-adv-x="673" 
d="M44 0h585v585h-585v-585zM244 389h185v-192h-185v192zM383 215l30 30l-46 47l47 49l-31 29l-46 -47l-46 47l-30 -30l46 -47l-46 -48l30 -30l46 47z" />
    <glyph glyph-name=".ttfautohint" horiz-adv-x="301" 
d="M0 0z" />
    </font>
</defs>
</svg>
