<?xml version="1.0" standalone="no"?>
<!DOCTYPE svg PUBLIC "-//W3C//DTD SVG 1.1//EN" "http://www.w3.org/Graphics/SVG/1.1/DTD/svg11.dtd" >
<svg xmlns="http://www.w3.org/2000/svg" xmlns:xlink="http://www.w3.org/1999/xlink" version="1.1">
<metadata>
Created by FontForge 20170731 at Sat Oct  8 16:41:34 2016
 By Aleksey,,,
(C) 2016 Sharp Type Corporation
</metadata>
<defs>
<font id="SharpGroteskBook15-Regular" horiz-adv-x="409" >
  <font-face 
    font-family="Sharp Grotesk Book 15"
    font-weight="400"
    font-stretch="normal"
    units-per-em="1000"
    panose-1="2 11 5 3 5 7 2 3 2 4"
    ascent="800"
    descent="-200"
    x-height="572"
    cap-height="711"
    bbox="-43 -257 1085 1055"
    underline-thickness="50"
    underline-position="-150"
    unicode-range="U+0020-3009"
  />
<missing-glyph horiz-adv-x="60" 
 />
    <glyph glyph-name=".notdef" horiz-adv-x="60" 
 />
    <glyph glyph-name=".null" horiz-adv-x="0" 
 />
    <glyph glyph-name="nonmarkingreturn" horiz-adv-x="333" 
 />
    <glyph glyph-name="space" unicode=" " horiz-adv-x="220" 
 />
    <glyph glyph-name="exclam" unicode="!" horiz-adv-x="256" 
d="M89 711v-150q0 -46 1 -98t2 -103q2 -51 3.5 -94t3.5 -71q0 -14 1 -23t1 -12q4 1 11.5 2t14.5 1q8 0 14.5 -1t10.5 -2q1 6 2.5 34.5t3.5 71.5q1 43 2.5 94t2.5 103q1 26 1 50.5v47.5v150h-75zM126 -8q26 0 39 13.5t13 45.5q0 33 -12.5 45.5t-39.5 12.5q-26 0 -38.5 -12.5
t-12.5 -45.5t11.5 -46t39.5 -13z" />
    <glyph glyph-name="quotedbl" unicode="&#x22;" horiz-adv-x="290" 
d="M186 477h41q3 17 6 50t5 72q1 19 1.5 37.5t0.5 36.5v38h-65v-38q0 -35 1.5 -74t4.5 -72q1 -16 2.5 -28.5t2.5 -21.5zM62 477h41q3 17 5.5 50t4.5 72q1 19 1.5 37.5t0.5 36.5v38h-64v-38q0 -35 1.5 -74t4.5 -72q1 -16 2.5 -28.5t2.5 -21.5z" />
    <glyph glyph-name="numbersign" unicode="#" horiz-adv-x="655" 
d="M383 283h-137l24 167h137zM344 0h68l31 222h144v61h-136l23 167h140v61h-132l28 200h-67l-28 -200h-137l28 200h-68l-28 -200h-141v-61h133l-24 -167h-137v-61h129l-31 -222h68l31 222h137z" />
    <glyph glyph-name="dollar" unicode="$" horiz-adv-x="459" 
d="M268 -118v111q73 10 111 57.5t38 114.5v36q0 57 -23.5 92t-59.5 57q-18 11 -37 20.5t-38 18.5q-35 16 -66.5 33t-51.5 41q-10 13 -15 29t-5 35v21q0 47 26.5 78t79.5 31q54 0 80.5 -26.5t26.5 -79.5v-67h71v71q0 65 -33 107.5t-101 52.5v115h-67v-113
q-77 -7 -115.5 -53.5t-38.5 -114.5v-25q0 -56 23 -90t59 -56q18 -10 36.5 -19.5t37.5 -18.5q36 -16 68 -33.5t52 -43.5q10 -13 15 -29.5t5 -37.5v-31q0 -46 -26.5 -77.5t-85.5 -31.5q-63 0 -92 31.5t-29 86.5v81h-74v-82q0 -81 38 -127.5t123 -53.5v-110h68z" />
    <glyph glyph-name="percent" unicode="%" horiz-adv-x="596" 
d="M152 414q53 0 82 30.5t29 82.5v79q0 53 -29.5 82.5t-80.5 29.5q-49 0 -79.5 -29t-30.5 -83v-79q0 -54 28.5 -83.5t80.5 -29.5zM58 0h75l404 711h-73zM152 464q-28 0 -42 16.5t-14 49.5v75q0 32 15.5 48.5t41.5 16.5t41 -16.5t15 -48.5v-75q0 -31 -14 -48.5t-43 -17.5z
M442 -10q52 0 81 30.5t29 82.5v79q0 53 -30 84t-80 31q-49 0 -79.5 -30.5t-30.5 -84.5v-79q0 -54 28.5 -83.5t81.5 -29.5zM442 41q-28 0 -42 16.5t-14 48.5v75q0 33 14 49t42 16q29 0 43 -16t14 -49v-75q0 -30 -14 -47.5t-43 -17.5z" />
    <glyph glyph-name="ampersand" unicode="&#x26;" horiz-adv-x="592" 
d="M206 563v6q0 45 19.5 69.5t54.5 24.5t53 -19t18 -53v-5q0 -55 -33 -93t-87 -75q-12 39 -18.5 75t-6.5 70zM234 52q-61 0 -95.5 31.5t-34.5 87.5v4q0 52 26 86.5t69 67.5q10 -24 21.5 -48t24.5 -48q25 -47 50 -84.5t50 -66.5q-23 -14 -51 -22t-60 -8zM505 -7q22 0 36.5 4
t24.5 14v66q-12 -12 -25 -17t-33 -5q-16 0 -33 7t-36 20q53 60 79 147.5t26 187.5v48h-64v-48q0 -88 -21.5 -165t-65.5 -128q-23 26 -46 60t-46 77q-14 26 -26 51.5t-22 48.5q71 48 115.5 100t44.5 122v8q0 61 -35.5 94.5t-97.5 33.5q-64 0 -100.5 -40.5t-36.5 -111.5v-6
q0 -40 9 -84t25 -91q-40 -28 -72.5 -58.5t-51.5 -67.5q-9 -19 -14 -40.5t-5 -46.5v-8q0 -88 54.5 -131.5t145.5 -43.5q46 0 85 13t72 35q28 -22 56.5 -33.5t57.5 -11.5z" />
    <glyph glyph-name="quotesingle" unicode="'" horiz-adv-x="166" 
d="M62 477h41q3 17 5.5 49.5t4.5 70.5q1 19 1.5 37.5t0.5 36.5v40h-64v-40q0 -35 1.5 -73.5t4.5 -71.5q1 -16 2.5 -28t2.5 -21z" />
    <glyph glyph-name="parenleft" unicode="(" horiz-adv-x="317" 
d="M66 129q0 -155 56 -225.5t160 -76.5v69q-67 4 -104.5 59.5t-37.5 176.5v303q0 122 37 176.5t105 61.5v68q-100 -7 -158 -78.5t-58 -226.5v-307z" />
    <glyph glyph-name="parenright" unicode=")" horiz-adv-x="317" 
d="M35 -173q104 6 160 76.5t56 225.5v307q0 155 -57.5 226.5t-158.5 78.5v-69q68 -6 105 -60.5t37 -176.5v-303q0 -121 -37 -176.5t-105 -59.5v-69z" />
    <glyph glyph-name="asterisk" unicode="*" horiz-adv-x="352" 
d="M278 508l29 52l-119 42l119 41l-30 52l-94 -82l24 123h-61l24 -122l-95 80l-30 -52l119 -41l-119 -41l30 -51l95 82l-24 -124h61l-23 123z" />
    <glyph glyph-name="plus" unicode="+" horiz-adv-x="444" 
d="M380 320v63h-127v124h-63v-124h-125v-63h125v-124h63v124h127z" />
    <glyph glyph-name="comma" unicode="," horiz-adv-x="244" 
d="M77 -118q50 14 74.5 52t24.5 94q0 45 -12 61.5t-41 16.5q-27 0 -39 -13t-12 -45q0 -33 10.5 -43.5t31.5 -10.5q4 0 7.5 0.5t6.5 2.5q-4 -28 -18 -47t-38 -28z" />
    <glyph glyph-name="hyphen" unicode="-" 
d="M358 336h-306v-70h306v70z" />
    <glyph glyph-name="period" unicode="." horiz-adv-x="244" 
d="M122 -8q26 0 39 13.5t13 45.5q0 33 -12.5 46t-38.5 13q-27 0 -39.5 -12.5t-12.5 -45.5q0 -34 11.5 -47t39.5 -13z" />
    <glyph glyph-name="slash" unicode="/" horiz-adv-x="294" 
d="M103 0l163 711h-72l-165 -711h74z" />
    <glyph glyph-name="zero" unicode="0" horiz-adv-x="500" 
d="M249 -10q92 0 144.5 54.5t52.5 166.5v284q0 109 -52 166t-144 57q-93 0 -145 -57.5t-52 -165.5v-284q0 -112 51.5 -166.5t144.5 -54.5zM250 57q-64 0 -93.5 40.5t-29.5 117.5v278q0 76 29.5 118.5t92.5 42.5q64 0 94 -42t30 -119v-278q0 -77 -30.5 -117.5t-92.5 -40.5z
" />
    <glyph glyph-name="one" unicode="1" horiz-adv-x="339" 
d="M313 0v69h-107v642h-56q-9 -53 -29 -76t-67 -26v-55h83v-485h-106v-69h282z" />
    <glyph glyph-name="two" unicode="2" horiz-adv-x="464" 
d="M422 0v69h-297q0 50 21.5 88.5t54.5 69.5q17 16 34.5 31.5t35.5 30.5q37 31 70.5 63t55.5 73q11 20 16.5 44t5.5 51v25q0 82 -45.5 127.5t-134.5 45.5q-88 0 -137.5 -44t-49.5 -128v-99h73v97q0 53 28.5 81.5t83.5 28.5q59 0 83.5 -28.5t24.5 -82.5v-25q0 -40 -19 -72
t-50 -60l-32 -28t-34 -28q-39 -32 -77 -69.5t-62 -86.5q-13 -24 -19 -52.5t-6 -61.5v-60h376z" />
    <glyph glyph-name="three" unicode="3" horiz-adv-x="470" 
d="M232 -9q103 0 148 50.5t45 130.5v44q0 61 -24.5 99t-79.5 52q53 15 73.5 54.5t20.5 92.5v39q0 77 -44 121t-138 44q-89 0 -137.5 -45.5t-48.5 -121.5v-75h72v72q0 48 28 77t86 29t83.5 -28t25.5 -78v-40q0 -49 -25.5 -80.5t-81.5 -31.5h-56v-61h56q58 0 86.5 -28
t28.5 -85v-45q0 -58 -28 -89t-90 -31q-59 0 -88.5 27.5t-29.5 82.5v85h-73v-89q0 -87 47 -129.5t144 -42.5z" />
    <glyph glyph-name="four" unicode="4" horiz-adv-x="467" 
d="M272 558l-172 -326h186v317l13 89zM443 169h-90v-169h-67v169h-261v54l264 488h64v-479h90v-63z" />
    <glyph glyph-name="five" unicode="5" horiz-adv-x="474" 
d="M237 -10q92 0 140.5 48.5t48.5 141.5v139q0 83 -39 130t-118 45q-58 2 -90 -23.5t-52 -60.5q3 29 7.5 72t8.5 87q2 22 4 40.5t4 33.5h180q33 0 49.5 4t22.5 18q3 7 4.5 18t1.5 25v3h-319l-36 -360l68 -20q1 1 5 10.5l4 9.5q16 32 43 55t73 23q51 0 78.5 -28.5t27.5 -85.5
v-129q0 -62 -28 -96t-87 -34q-61 0 -87 30t-26 90v64h-75v-70q0 -92 48 -136t139 -44z" />
    <glyph glyph-name="six" unicode="6" horiz-adv-x="488" 
d="M445 206v39q0 92 -45 140.5t-125 48.5q-58 0 -96 -27.5t-55 -68.5v157q0 77 30.5 118t97.5 41q56 0 84 -31t28 -93v-19h73v23q0 91 -48 137.5t-135 46.5q-102 0 -151.5 -56.5t-49.5 -163.5v-290q0 -112 50 -165t143 -53q92 0 145.5 52t53.5 164zM247 57q-64 0 -93.5 39
t-29.5 116v36q2 53 37 87.5t90 34.5q65 0 93 -37t28 -91v-32q0 -76 -31 -114.5t-94 -38.5z" />
    <glyph glyph-name="seven" unicode="7" horiz-adv-x="413" 
d="M178 0q27 191 81.5 350t127.5 301v60h-361v-70h286q-69 -132 -124 -288t-89 -353h79z" />
    <glyph glyph-name="eight" unicode="8" horiz-adv-x="476" 
d="M238 -10q95 0 145.5 47t50.5 123v67q0 54 -25.5 92t-69.5 53q40 16 62.5 51t22.5 83v46q0 75 -48 120.5t-137 45.5q-88 0 -135.5 -46t-47.5 -120v-46q0 -49 20.5 -84t60.5 -50q-43 -16 -68.5 -55t-25.5 -90v-67q0 -76 49.5 -123t145.5 -47zM248 402h-20q-52 0 -77 33
t-25 73v36q0 52 29.5 81t84.5 29q56 0 84.5 -28.5t28.5 -80.5v-36q0 -41 -26 -74t-79 -33zM238 57q-59 0 -90.5 31.5t-31.5 77.5v61q0 29 13 54.5t37 42.5q13 8 28 12t33 4h20q57 0 85.5 -33.5t28.5 -79.5v-61q0 -48 -32 -78.5t-91 -30.5z" />
    <glyph glyph-name="nine" unicode="9" horiz-adv-x="487" 
d="M238 343q-62 0 -91 36t-29 94v33q0 74 30.5 110.5t91.5 36.5q66 0 94.5 -40t28.5 -117v-24q-1 -55 -35 -92t-90 -37zM235 -10q101 0 149.5 56t48.5 164v290q0 112 -49.5 165t-143.5 53q-93 0 -144.5 -51.5t-51.5 -157.5v-40q0 -91 43.5 -139.5t126.5 -48.5q60 0 96.5 28
t52.5 70v-167q0 -76 -27.5 -116t-95.5 -40q-58 0 -87 30.5t-29 90.5v44h-74v-48q0 -91 48.5 -137t136.5 -46z" />
    <glyph glyph-name="colon" unicode=":" horiz-adv-x="249" 
d="M125 382q27 0 39 12.5t12 46.5q0 33 -11.5 45t-39.5 12t-39.5 -12t-11.5 -45q0 -34 11.5 -46.5t39.5 -12.5zM125 37q27 0 39 12t12 46t-11.5 46t-39.5 12t-39.5 -12t-11.5 -46t11.5 -46t39.5 -12z" />
    <glyph glyph-name="semicolon" unicode=";" horiz-adv-x="249" 
d="M125 382q27 0 39 12.5t12 46.5q0 33 -11.5 45t-39.5 12t-39.5 -12t-11.5 -45q0 -34 11.5 -46.5t39.5 -12.5zM81 -118q48 14 73 52t25 94q0 45 -12.5 61.5t-41.5 16.5q-26 0 -38 -13t-12 -45q0 -33 11 -43.5t30 -10.5q4 0 7.5 0.5t7.5 2.5q-4 -28 -17.5 -46.5t-37.5 -28.5
z" />
    <glyph glyph-name="less" unicode="&#x3c;" horiz-adv-x="452" 
d="M373 201v74l-227 91l227 91v71l-303 -132v-61z" />
    <glyph glyph-name="equal" unicode="=" horiz-adv-x="452" 
d="M381 419v63h-311v-63h311zM381 231v64h-311v-64h311z" />
    <glyph glyph-name="greater" unicode="&#x3e;" horiz-adv-x="452" 
d="M79 201l304 134v61l-304 132v-71l227 -91l-227 -91v-74z" />
    <glyph glyph-name="question" unicode="?" horiz-adv-x="471" 
d="M191 157q4 3 14 4.5t21 1.5q12 0 21.5 -1.5t13.5 -4.5v57q1 51 23 78.5t50 51.5q20 17 39 37t31 49q6 14 9 32.5t3 40.5v61q0 66 -43.5 110t-133.5 44q-92 0 -137.5 -44t-45.5 -121v-103h75v97q0 52 24.5 79.5t82.5 27.5q56 0 80 -27.5t24 -67.5v-59q0 -46 -21.5 -71
t-48.5 -48q-21 -16 -39.5 -35.5t-30.5 -49.5q-6 -14 -9 -32.5t-3 -41.5v-25v-22t1 -18zM227 -8q26 0 38.5 13.5t12.5 46.5q0 32 -12 45t-39 13q-26 0 -38.5 -13t-12.5 -45q0 -34 11.5 -47t39.5 -13z" />
    <glyph glyph-name="at" unicode="@" horiz-adv-x="652" 
d="M326 -121q72 0 125.5 25t88.5 76l-64 22q-25 -32 -60 -48.5t-88 -16.5q-102 0 -159 56.5t-57 174.5v232q0 113 59.5 173.5t157.5 60.5q108 0 159.5 -61t51.5 -157v-214q0 -58 -11.5 -84.5t-37.5 -26.5q-24 0 -34.5 16t-10.5 50v376h-39l-9 -60q-9 30 -30 47.5t-58 17.5
q-51 0 -81 -36t-30 -112v-213q0 -72 28 -108t83 -36q36 0 58 17.5t31 48.5q10 -30 32.5 -45.5t57.5 -15.5q55 0 82.5 41t27.5 122v218q0 80 -31 142t-91 97q-30 17 -66.5 26t-80.5 9q-81 0 -143.5 -34t-98.5 -99q-17 -32 -26 -71.5t-9 -85.5v-239q0 -98 34 -161.5t96 -93.5
q30 -15 66 -22.5t77 -7.5zM322 86q-34 0 -48.5 23t-14.5 72v205q0 53 16.5 77t48.5 24q35 0 49 -25t14 -79v-200q0 -50 -15.5 -73.5t-49.5 -23.5z" />
    <glyph glyph-name="A" unicode="A" horiz-adv-x="467" 
d="M220 549l12 100l11 -99l78 -330h-175zM373 0h72l-178 711h-72l-172 -711h73l35 154h206z" />
    <glyph glyph-name="B" unicode="B" horiz-adv-x="481" 
d="M263 0q100 0 137.5 44.5t37.5 123.5v63q0 54 -23.5 88t-76.5 47q48 15 69.5 50t21.5 91v50q0 72 -40 113t-141 41h-179v-711h194zM246 649q61 0 86.5 -25t25.5 -73v-43q0 -58 -25.5 -85t-87.5 -27h-106v253h107zM247 334q64 0 91 -27t27 -80v-55q0 -57 -23.5 -82.5
t-87.5 -25.5h-115v270h108z" />
    <glyph glyph-name="C" unicode="C" horiz-adv-x="490" 
d="M249 -10q95 0 145.5 53.5t50.5 166.5v68h-76v-64q0 -79 -28 -118t-91 -39q-64 0 -93 39t-29 118v280q0 78 28.5 119.5t92.5 41.5q68 0 94 -39t26 -122v-43h75v45q0 113 -46.5 168t-147.5 55q-94 0 -144.5 -56.5t-50.5 -166.5v-286q0 -114 50 -167t144 -53z" />
    <glyph glyph-name="D" unicode="D" horiz-adv-x="499" 
d="M69 0h160q96 0 156 52.5t60 167.5v271q0 77 -28 125.5t-77 71.5q-24 12 -52 17.5t-60 5.5h-159v-711zM225 649q67 0 106.5 -38.5t39.5 -123.5v-261q0 -84 -39 -123t-105 -39h-87v585h85z" />
    <glyph glyph-name="E" unicode="E" horiz-adv-x="428" 
d="M394 67h-255v265h213v66h-213v248h246v65h-316v-711h325v67z" />
    <glyph glyph-name="F" unicode="F" horiz-adv-x="402" 
d="M355 311v66h-217v268h232v66h-301v-711h69v311h217z" />
    <glyph glyph-name="G" unicode="G" horiz-adv-x="506" 
d="M399 0h46v363h-198v-64h127v-89q0 -67 -30 -110t-91 -43q-64 0 -95 38t-31 120v275q0 83 31.5 124t98.5 41q60 0 87 -32t27 -88v-65h74v66q0 89 -48.5 136t-137.5 47q-98 0 -151 -56t-53 -169v-283q0 -112 46 -166.5t134 -54.5q62 0 100.5 32t52.5 96z" />
    <glyph glyph-name="H" unicode="H" horiz-adv-x="507" 
d="M368 0h71v711h-71v-322h-228v322h-71v-711h71v321h228v-321z" />
    <glyph glyph-name="I" unicode="I" horiz-adv-x="330" 
d="M296 0v67h-97v579h97v65h-262v-65h96v-579h-96v-67h262z" />
    <glyph glyph-name="J" unicode="J" horiz-adv-x="427" 
d="M200 -10q83 0 124 45.5t41 140.5v535h-73v-532q0 -64 -21 -92.5t-71 -28.5q-48 0 -68.5 28.5t-20.5 74.5v91h-73v-95q0 -82 41.5 -124.5t120.5 -42.5z" />
    <glyph glyph-name="K" unicode="K" horiz-adv-x="486" 
d="M241 372l145 -372h78l-182 452l167 259h-81l-228 -356l-4 -9l2 27v338h-69v-711h69v264l93 141z" />
    <glyph glyph-name="L" unicode="L" horiz-adv-x="397" 
d="M368 0v68h-228v643h-71v-711h299z" />
    <glyph glyph-name="M" unicode="M" horiz-adv-x="586" 
d="M136 479l-18 148l26 -82l137 -299h24l132 295l29 88l-16 -150v-479h67v711h-66l-157 -361l-159 361h-66v-711h67v479z" />
    <glyph glyph-name="N" unicode="N" horiz-adv-x="527" 
d="M134 495l-11 134l40 -125l234 -504h61v711h-66v-491l11 -118l-40 109l-232 500h-62v-711h65v495z" />
    <glyph glyph-name="O" unicode="O" horiz-adv-x="505" 
d="M252 -10q95 0 147 54t52 167v283q0 110 -51.5 167t-146.5 57q-94 0 -146 -57t-52 -167v-283q0 -114 51.5 -167.5t145.5 -53.5zM253 57q-64 0 -94.5 39.5t-30.5 118.5v277q0 78 30 120t94 42q65 0 95 -41.5t30 -120.5v-277q0 -79 -31 -118.5t-93 -39.5z" />
    <glyph glyph-name="P" unicode="P" horiz-adv-x="467" 
d="M238 294h-100v353h98q62 0 91.5 -29t29.5 -89v-113q0 -58 -30 -90.5t-89 -31.5zM240 230q97 0 142 50t45 135v115q0 92 -46 136.5t-144 44.5h-168v-711h69v230h102z" />
    <glyph glyph-name="Q" unicode="Q" horiz-adv-x="505" 
d="M443 -96l-74 115q40 25 61 72.5t21 119.5v283q0 110 -51.5 167t-146.5 57q-94 0 -146 -57t-52 -167v-283q0 -114 51.5 -167.5t145.5 -53.5q14 0 26.5 1t24.5 3l50 -90h90zM253 57q-64 0 -94.5 39.5t-30.5 118.5v277q0 78 30 120t94 42q65 0 95 -41.5t30 -120.5v-277
q0 -79 -31 -118.5t-93 -39.5z" />
    <glyph glyph-name="R" unicode="R" horiz-adv-x="482" 
d="M245 648q62 0 88 -27.5t26 -80.5v-63q0 -57 -28.5 -86t-86.5 -29h-105v286h106zM243 299q61 0 84 -24t23 -79v-152q0 -13 2.5 -25.5t8.5 -18.5h79q-8 8 -12.5 18.5t-4.5 24.5v155q0 60 -19.5 91.5t-64.5 43.5q45 16 68.5 50.5t23.5 90.5v71q0 80 -42.5 123t-140.5 43
h-179v-711h70v299h104z" />
    <glyph glyph-name="S" unicode="S" horiz-adv-x="455" 
d="M234 -9q89 0 136 49.5t47 124.5v36q0 57 -23.5 92t-59.5 57q-18 11 -37 20.5t-38 18.5q-35 16 -66.5 33t-51.5 41q-10 13 -15 29t-5 35v21q0 47 26.5 78t79.5 31q54 0 80.5 -26.5t26.5 -79.5v-67h71v71q0 74 -43.5 118.5t-134.5 44.5q-88 0 -132.5 -48t-44.5 -121v-25
q0 -56 23 -90t59 -56q18 -10 36.5 -19.5t37.5 -18.5q36 -16 68 -33.5t52 -43.5q10 -13 15 -29.5t5 -37.5v-31q0 -46 -26.5 -77.5t-85.5 -31.5q-63 0 -92 31.5t-29 86.5v81h-74v-82q0 -88 45.5 -135t149.5 -47z" />
    <glyph glyph-name="T" unicode="T" horiz-adv-x="394" 
d="M370 645v66h-346v-66h136v-645h71v645h139z" />
    <glyph glyph-name="U" unicode="U" horiz-adv-x="492" 
d="M246 -10q91 0 137 52t46 161v508h-73v-505q0 -77 -26 -112t-84 -35t-84 35.5t-26 111.5v505h-73v-508q0 -109 44.5 -161t138.5 -52z" />
    <glyph glyph-name="V" unicode="V" horiz-adv-x="465" 
d="M268 0l176 711h-74l-125 -540l-12 -101l-13 101l-124 540h-73l174 -711h71z" />
    <glyph glyph-name="W" unicode="W" horiz-adv-x="682" 
d="M331 541l7 84l7 -83l115 -542h65l128 711h-68l-89 -520l-8 -121l-10 112l-115 529h-49l-122 -529l-12 -102l-3 111l-77 520h-69l111 -711h64z" />
    <glyph glyph-name="X" unicode="X" horiz-adv-x="449" 
d="M218 292l7 28l8 -28l123 -292h79l-171 376l152 335h-77l-108 -257l-6 -25l-6 26l-105 256h-77l148 -334l-171 -377h80z" />
    <glyph glyph-name="Y" unicode="Y" horiz-adv-x="432" 
d="M249 0v257l168 454h-76l-117 -340l-10 -54l-10 54l-113 340h-76l161 -455v-256h73z" />
    <glyph glyph-name="Z" unicode="Z" horiz-adv-x="425" 
d="M388 0v69h-271l267 578v64h-328v-67h252l-273 -582v-62h353z" />
    <glyph glyph-name="bracketleft" unicode="[" horiz-adv-x="306" 
d="M270 -110h-123v787h123v62h-194v-911h194v62z" />
    <glyph glyph-name="backslash" unicode="\" horiz-adv-x="294" 
d="M30 711l162 -711h72l-162 711h-72z" />
    <glyph glyph-name="bracketright" unicode="]" horiz-adv-x="306" 
d="M231 -172v911h-195v-63h124v-786h-124v-62h195z" />
    <glyph glyph-name="asciicircum" unicode="^" horiz-adv-x="426" 
d="M291 462h65l-118 249h-53l-116 -249h66l77 183z" />
    <glyph glyph-name="uni005F" unicode="_" horiz-adv-x="449" 
d="M413 -52h-377v-69h377v69z" />
    <glyph glyph-name="grave" unicode="`" 
d="M213 638h56l-90 146h-76z" />
    <glyph glyph-name="a" unicode="a" horiz-adv-x="460" 
d="M205 51q-43 0 -67.5 23.5t-24.5 64.5v9q0 30 9 52t24 35q16 15 36.5 26.5t59.5 24.5q38 14 60 25.5t32 29.5v-119q0 -48 -15 -86.5t-44 -61.5q-14 -12 -31.5 -17.5t-38.5 -5.5zM346 0h55v424q0 73 -40.5 114t-129.5 41q-88 0 -133.5 -42.5t-45.5 -113.5v-57h69v54
q0 48 29 74.5t81 26.5q53 0 78 -24t25 -68v-6q0 -37 -27.5 -55t-84.5 -38q-51 -19 -78.5 -30.5t-49.5 -29.5q-24 -19 -39.5 -49t-15.5 -72v-18q0 -67 36.5 -103t104.5 -36q58 0 97.5 31.5t57.5 86.5z" />
    <glyph glyph-name="b" unicode="b" horiz-adv-x="485" 
d="M265 -9q80 0 125 54t45 163v161q0 108 -43.5 159.5t-122.5 51.5q-53 0 -87 -26t-50 -75v264h-68v-743h57l8 102q13 -51 46 -81t90 -30zM247 56q-57 0 -86 40.5t-29 110.5v162q0 67 30.5 108.5t88.5 41.5q56 0 84 -37.5t28 -112.5v-160q0 -76 -29 -114.5t-87 -38.5z" />
    <glyph glyph-name="c" unicode="c" horiz-adv-x="453" 
d="M229 -9q87 0 134 46.5t47 142.5v51h-75v-49q0 -65 -25 -96t-81 -31q-57 0 -82.5 35t-25.5 103v182q0 74 27 108.5t84 34.5q54 0 78.5 -28t24.5 -97v-39h75v41q0 98 -46 142t-131 44q-88 0 -136 -50t-48 -154v-186q0 -99 43.5 -149.5t136.5 -50.5z" />
    <glyph glyph-name="d" unicode="d" horiz-adv-x="484" 
d="M234 55q-55 0 -84 38t-29 117v154q0 76 29.5 115.5t86.5 39.5q60 0 88 -42t28 -108v-162q0 -68 -30 -110t-89 -42zM365 0h55v743h-67v-261q-15 47 -48 72.5t-87 25.5q-78 0 -123.5 -52.5t-45.5 -160.5v-162q0 -109 43.5 -161.5t122.5 -52.5q59 0 93 31.5t47 82.5z" />
    <glyph glyph-name="e" unicode="e" horiz-adv-x="459" 
d="M117 377q0 71 29.5 106t88.5 35t85 -33.5t26 -101.5v-58h-229v52zM415 172v21h-71v-26q0 -56 -27 -84t-82 -28q-62 0 -90 34t-28 101v75h298v116q0 89 -43 144.5t-137 55.5q-88 0 -137 -54t-49 -152v-187q0 -95 45 -146t140 -51q67 0 106.5 23t56.5 64q9 20 13.5 43.5
t4.5 50.5z" />
    <glyph glyph-name="f" unicode="f" horiz-adv-x="277" 
d="M261 507v65h-104v37q0 39 6 58.5t22 26.5q8 4 19.5 5.5t26.5 1.5h30v63h-39q-71 0 -102 -31.5t-31 -119.5v-41h-76v-65h76v-507h68v507h104z" />
    <glyph glyph-name="g" unicode="g" horiz-adv-x="445" 
d="M215 -194q76 0 124 19.5t70 51.5q12 16 17.5 34t5.5 37v2q0 54 -36 86t-116 32h-103q-43 -1 -61 9t-18 30q0 23 23.5 35t83.5 12h19q80 0 127.5 39.5t47.5 115.5v113q0 63 -31.5 98.5t-76.5 42.5q-6 1 -11 1.5t-10 1.5q71 4 96 31t25 78v19h-77v-28q0 -40 -20 -57
t-79 -28l-17.5 -2.5t-15.5 -3.5q-62 -13 -96 -52.5t-34 -104.5v-110q0 -53 20.5 -85t62.5 -46q-50 -8 -75.5 -30t-25.5 -58t25 -57.5t77 -25.5q-48 -12 -76.5 -38.5t-28.5 -62.5q0 -46 38.5 -72.5t125.5 -26.5h20zM223 208q-50 0 -75 25t-25 75v110q0 42 17.5 68t51.5 36
q8 2 17.5 3t19.5 1q49 0 73.5 -27.5t24.5 -77.5v-112q0 -49 -26.5 -75t-77.5 -26zM200 -134q-50 0 -75 15.5t-25 41.5v2q0 33 30 55t77 26h63q50 0 71.5 -16t21.5 -45v-2q0 -33 -35.5 -55t-102.5 -22h-25z" />
    <glyph glyph-name="h" unicode="h" horiz-adv-x="475" 
d="M132 370q0 68 29 107.5t84 39.5q53 0 75.5 -32.5t22.5 -93.5v-391h71v400q0 86 -36.5 133t-110.5 47q-54 0 -87.5 -29t-47.5 -79v271h-68v-743h68v370z" />
    <glyph glyph-name="i" unicode="i" horiz-adv-x="198" 
d="M101 632q24 0 35.5 12.5t11.5 42.5t-11 42t-36 12t-36 -12t-11 -42q0 -31 10.5 -43t36.5 -12zM134 0v572h-70v-572h70z" />
    <glyph glyph-name="j" unicode="j" horiz-adv-x="199" 
d="M101 632q24 0 35.5 12.5t11.5 42.5t-11 42t-36 12t-36 -12t-11 -42q0 -31 11 -43t36 -12zM2 -175q54 0 82.5 12.5t39.5 43.5q6 15 8.5 37t2.5 50v604h-70v-597q0 -52 -13 -67.5t-56 -15.5h-25v-67h31z" />
    <glyph glyph-name="k" unicode="k" horiz-adv-x="443" 
d="M352 0h76l-156 362l145 210h-81l-199 -288l-6 -15l1 33v441h-68v-743h68v193l87 126z" />
    <glyph glyph-name="l" unicode="l" horiz-adv-x="198" 
d="M134 0v743h-70v-743h70z" />
    <glyph glyph-name="m" unicode="m" horiz-adv-x="710" 
d="M134 377q0 65 23 104.5t75 39.5q51 0 70.5 -33t19.5 -87v-401h71v400q0 49 21.5 85t73.5 36q50 0 71.5 -32t21.5 -92v-397h70v407q0 86 -35 131.5t-106 45.5q-49 0 -81 -27.5t-46 -74.5q-10 48 -40.5 75t-86.5 27q-51 0 -83 -27.5t-46 -76.5l-7 92h-57v-572h71v377z" />
    <glyph glyph-name="n" unicode="n" horiz-adv-x="475" 
d="M134 370q0 70 28.5 108.5t83.5 38.5q54 0 76.5 -33t22.5 -94v-390h71v399q0 88 -36.5 134.5t-112.5 46.5q-58 0 -92 -30.5t-47 -83.5l-8 106h-57v-572h71v370z" />
    <glyph glyph-name="o" unicode="o" horiz-adv-x="468" 
d="M233 -9q86 0 135.5 49.5t49.5 148.5v188q0 102 -49.5 153t-135.5 51q-85 0 -134.5 -50.5t-49.5 -153.5v-188q0 -100 47.5 -149t136.5 -49zM233 55q-57 0 -84.5 35.5t-27.5 100.5v185q0 71 28 106.5t84 35.5q57 0 85 -35.5t28 -106.5v-185q0 -66 -28 -101t-85 -35z" />
    <glyph glyph-name="p" unicode="p" horiz-adv-x="483" 
d="M245 55q-57 0 -85.5 40t-28.5 107v163q0 70 29.5 112t88.5 42q56 0 84.5 -37t28.5 -117v-162q0 -74 -29 -111t-88 -37zM265 -9q79 0 124 53t45 160v160q0 114 -43.5 165.5t-122.5 51.5q-56 0 -91 -29t-49 -79l-9 99h-56v-765h68v284q14 -47 46.5 -73.5t87.5 -26.5z" />
    <glyph glyph-name="q" unicode="q" horiz-adv-x="483" 
d="M420 -193v765h-56l-8 -98q-13 49 -46 77.5t-92 28.5q-79 0 -124 -51.5t-45 -163.5v-168q0 -108 45 -157t121 -49q56 0 90 28.5t47 80.5v-293h68zM234 54q-55 0 -84 37t-29 109v166q0 79 30 115.5t86 36.5q59 0 87.5 -42t28.5 -113v-160q0 -67 -31.5 -108t-87.5 -41z" />
    <glyph glyph-name="r" unicode="r" horiz-adv-x="307" 
d="M133 0v343q0 81 26 118.5t101 37.5h27v76h-18q-66 0 -98.5 -25t-41.5 -89l-12 111h-54v-572h70z" />
    <glyph glyph-name="s" unicode="s" horiz-adv-x="424" 
d="M215 -9q86 0 129 42.5t43 115.5v18q0 50 -22 79.5t-56 46.5q-17 9 -34.5 16.5t-35.5 14.5q-31 12 -59 24t-46 30q-8 9 -12.5 20.5t-4.5 26.5v10q0 37 23 61t71 24q50 0 73 -23t23 -64v-42h70v43q0 68 -42 107.5t-124 39.5q-80 0 -122 -41t-42 -106v-13q0 -47 21.5 -75.5
t54.5 -45.5q17 -9 34 -16t35 -14q32 -12 60.5 -24.5t46.5 -32.5q9 -9 13.5 -22t4.5 -29v-13q0 -45 -25 -70t-76 -25q-55 0 -80 25.5t-25 73.5v51h-74v-55q0 -78 43.5 -118t134.5 -40z" />
    <glyph glyph-name="t" unicode="t" horiz-adv-x="300" 
d="M273 68h-27q-35 0 -54.5 7.5t-27.5 30.5q-3 12 -5 29.5t-2 40.5v331h116v65h-116v115h-52q-1 -20 -3 -41t-6 -34q-4 -20 -11 -28t-22 -11q-7 -3 -22 -4.5t-25 -1.5v-60h75v-337q0 -68 12.5 -105t43.5 -51q15 -7 36.5 -10.5t48.5 -3.5h41v68z" />
    <glyph glyph-name="u" unicode="u" horiz-adv-x="463" 
d="M343 0h57v572h-71v-369q0 -69 -27 -108.5t-78 -39.5q-50 0 -71.5 33t-21.5 92v392h-71v-402q0 -86 35 -132.5t108 -46.5q54 0 86.5 30.5t44.5 83.5z" />
    <glyph glyph-name="v" unicode="v" horiz-adv-x="430" 
d="M248 0l163 572h-71l-117 -437l-9 -62l-10 62l-114 437h-72l160 -572h70z" />
    <glyph glyph-name="w" unicode="w" horiz-adv-x="632" 
d="M303 403l10 85l9 -83l96 -405h67l126 572h-68l-85 -414l-11 -87l-12 89l-100 412h-44l-106 -411l-14 -86l-8 84l-73 413h-69l108 -572h69z" />
    <glyph glyph-name="x" unicode="x" horiz-adv-x="420" 
d="M204 227l7 31l7 -31l109 -227h78l-155 303l140 269h-76l-96 -197l-7 -29l-8 29l-96 197h-76l141 -270l-157 -302h77z" />
    <glyph glyph-name="y" unicode="y" horiz-adv-x="425" 
d="M79 -163q52 0 81.5 10t47.5 39q8 14 16.5 35t16.5 49l166 602h-72l-107 -421l-10 -70l-9 67l-115 424h-72l162 -562l-8 -31q-10 -33 -21 -49.5t-29 -21.5q-9 -2 -21.5 -3.5t-28.5 -1.5h-35v-66h38z" />
    <glyph glyph-name="z" unicode="z" horiz-adv-x="388" 
d="M31 -1l327 1v65h-246l246 448v59h-312v-64h235l-250 -453v-56z" />
    <glyph glyph-name="braceleft" unicode="{" horiz-adv-x="316" 
d="M281 -172v59h-37q-49 0 -67.5 20t-18.5 58q0 30 11.5 71t23.5 83q5 21 8 39.5t3 34.5q0 47 -22 73.5t-66 26.5v2q44 1 65.5 24.5t21.5 69.5q0 32 -10.5 70.5t-21.5 75.5q-6 19 -8.5 36t-2.5 32q0 38 18 58t67 20h36v59h-65q-74 0 -101.5 -34t-27.5 -88q0 -36 11 -76.5
t22 -78.5q6 -19 8.5 -35.5t2.5 -30.5q0 -34 -16.5 -51.5t-50.5 -17.5h-33v-68h35q33 0 50.5 -17.5t17.5 -57.5q0 -28 -12 -69.5t-25 -85.5q-6 -22 -9 -42.5t-3 -38.5q0 -54 28 -87.5t101 -33.5h67z" />
    <glyph glyph-name="bar" unicode="|" horiz-adv-x="210" 
d="M140 -90v881h-71v-881h71z" />
    <glyph glyph-name="braceright" unicode="}" horiz-adv-x="316" 
d="M36 -172h66q74 0 102 33.5t28 87.5q0 28 -7.5 60t-17.5 65q-10 32 -17.5 61t-7.5 50q0 40 17.5 57.5t50.5 17.5h36v68h-34q-33 0 -50 17.5t-17 51.5q0 29 11 66.5t22 77.5q6 20 8.5 39.5t2.5 37.5q0 54 -27 88t-102 34h-64v-59h35q49 0 67.5 -20t18.5 -58
q0 -30 -10.5 -67.5t-21.5 -76.5q-6 -19 -8.5 -36.5t-2.5 -33.5q0 -45 21 -69t66 -25v-2q-44 0 -66.5 -26.5t-22.5 -73.5q0 -32 11.5 -74t23.5 -83q5 -20 8 -38t3 -33q0 -38 -18 -58t-67 -20h-37v-59z" />
    <glyph glyph-name="asciitilde" unicode="~" horiz-adv-x="423" 
d="M60 543h52q0 31 8.5 46t24.5 15q14 0 27 -10t28 -22q14 -13 32.5 -23t42.5 -10q47 0 66 31.5t19 84.5h-52q0 -34 -8.5 -47.5t-26.5 -13.5q-14 0 -27.5 10t-27.5 23q-15 12 -33 22t-41 10q-45 0 -64.5 -31t-19.5 -85z" />
    <glyph glyph-name="uni00A0" unicode="&#xa0;" horiz-adv-x="220" 
 />
    <glyph glyph-name="exclamdown" unicode="&#xa1;" horiz-adv-x="256" 
d="M128 588q-26 0 -39 -13t-13 -46t12.5 -45.5t39.5 -12.5q26 0 38.5 12.5t12.5 45.5t-11.5 46t-39.5 13zM165 -133v152q0 46 -1 98t-3 103q-1 51 -3 94t-4 72q0 14 -1 22.5t-1 11.5q-4 -1 -10.5 -2t-14.5 -1t-14.5 1t-11.5 2q-1 -6 -2.5 -34.5t-2.5 -71.5q-2 -43 -3 -94
t-2 -103q-1 -26 -1 -50.5v-47.5v-152h75z" />
    <glyph glyph-name="cent" unicode="&#xa2;" horiz-adv-x="458" 
d="M415 179v52h-75v-50q0 -65 -26 -95.5t-82 -30.5q-55 0 -83 34.5t-28 103.5v182q0 74 28 108.5t85 34.5q54 0 80 -28t26 -97v-39h75v41q0 86 -37.5 130.5t-105.5 53.5v116h-68v-116q-74 -8 -114.5 -58t-40.5 -144v-186q0 -92 38.5 -142t115.5 -57v-126h68v128
q69 9 106.5 55t37.5 130z" />
    <glyph glyph-name="sterling" unicode="&#xa3;" horiz-adv-x="515" 
d="M117 35q-22 0 -33 8.5t-11 25.5q0 14 9 23.5t29 9.5q17 0 34 -8t35 -21q-11 -19 -26.5 -28.5t-36.5 -9.5zM359 -13q67 0 94 36.5t27 123.5v42h-74v-32q0 -61 -14 -83.5t-48 -22.5q-26 0 -51.5 13t-51.5 30q5 14 7 29.5t2 32.5q0 37 -5.5 71t-13.5 67h116v57h-131
q-16 53 -29 104t-13 107q0 47 22.5 72.5t62.5 25.5q46 0 66 -24.5t20 -71.5v-35l76 1v34q0 79 -40.5 119.5t-117.5 40.5t-119.5 -44t-42.5 -119q0 -61 15 -111.5t32 -98.5h-88v-57h108q13 -35 21 -70t8 -72q0 -7 -0.5 -14.5t-1.5 -14.5q-20 12 -41.5 20t-44.5 8
q-42 0 -67 -23t-25 -61q0 -37 23.5 -59t72.5 -22q33 0 60 16t45 43q31 -22 65.5 -40t75.5 -18z" />
    <glyph glyph-name="currency" unicode="&#xa4;" horiz-adv-x="510" 
d="M257 241q-46 0 -73 30.5t-27 73.5v36q0 45 27.5 74.5t72.5 29.5t72.5 -30t27.5 -74v-36q0 -44 -28 -74t-72 -30zM257 181q27 0 50 6.5t43 19.5l72 -78l46 46l-73 79q11 19 17.5 42t6.5 49v37q0 28 -7 52t-20 44l73 81l-48 43l-72 -79q-18 12 -40 17.5t-48 5.5t-48.5 -6
t-42.5 -19l-74 80l-45 -46l74 -79q-13 -21 -20 -44.5t-7 -50.5v-37q0 -26 6 -49t18 -43l-77 -84l50 -44l73 81q20 -11 43 -17.5t50 -6.5z" />
    <glyph glyph-name="yen" unicode="&#xa5;" horiz-adv-x="432" 
d="M375 122v57h-127v76h127v57h-126l167 399h-75l-118 -305l-10 -46l-9 46l-114 305h-75l161 -399h-118v-57h119v-76h-120v-57h120v-122h71v122h127z" />
    <glyph glyph-name="brokenbar" unicode="&#xa6;" horiz-adv-x="210" 
d="M69 403h71v388h-71v-388zM69 315v-405h71v405h-71z" />
    <glyph glyph-name="section" unicode="&#xa7;" horiz-adv-x="442" 
d="M222 306q-51 20 -81.5 35t-44.5 31q-7 8 -10.5 18t-3.5 22v3q1 16 7 29.5t18 24.5q21 -14 48.5 -26t59.5 -24q71 -25 107 -46t36 -59v-4q-1 -16 -6.5 -29.5t-13.5 -24.5q-22 14 -51.5 25.5t-64.5 24.5zM222 -9q86 0 129 39t43 112v7q0 34 -10 56t-28 38q25 8 45 31t20 54
v6q0 40 -21 64.5t-57 41.5q-18 8 -38.5 16.5t-42.5 16.5q-44 17 -75 29.5t-47 28.5q-8 8 -12 19.5t-4 25.5v3q0 37 23 58t71 21t72 -20t24 -61v-43h70v44q0 68 -42 104.5t-124 36.5q-80 0 -122 -38t-42 -103v-4q0 -31 10 -53.5t28 -39.5q-28 -7 -50.5 -31.5t-22.5 -53.5v-5
q0 -39 19 -63t55 -41q17 -8 38 -17t45 -18q48 -18 81 -31.5t50 -30.5q8 -8 12.5 -19.5t4.5 -25.5v-3q0 -44 -25 -66t-76 -22q-55 0 -80 23.5t-25 71.5v44h-74v-48q0 -78 43.5 -116t134.5 -38z" />
    <glyph glyph-name="dieresis" unicode="&#xa8;" horiz-adv-x="412" 
d="M272 638q21 0 32 11.5t11 38.5q0 26 -10.5 37.5t-32.5 11.5t-33.5 -11.5t-11.5 -37.5q0 -28 10.5 -39t34.5 -11zM135 638q23 0 34 11.5t11 38.5q0 26 -10.5 37.5t-33.5 11.5q-22 0 -33 -11.5t-11 -37.5q0 -28 10.5 -39t32.5 -11z" />
    <glyph glyph-name="copyright" unicode="&#xa9;" horiz-adv-x="636" 
d="M320 -10q76 0 136 30.5t94 90.5q18 29 26.5 66t8.5 80v194q0 85 -35 144.5t-96 91.5q-30 15 -64.5 23t-72.5 8q-78 0 -138 -32.5t-94 -93.5q-17 -30 -25.5 -67t-8.5 -80v-190q0 -89 34.5 -148t94.5 -88q31 -15 66 -22t74 -7zM320 44q-98 0 -156.5 54.5t-58.5 159.5v184
q0 107 58 165t154 58q95 0 154.5 -56.5t59.5 -161.5v-187q0 -106 -57.5 -161t-153.5 -55zM321 121q59 0 94.5 34.5t35.5 104.5v55h-56v-54q0 -46 -18 -67t-55 -21q-38 0 -57.5 24t-19.5 71v174q0 51 19.5 74.5t57.5 23.5q37 0 55 -21t18 -63v-44h56v45q0 66 -34 100t-95 34
q-62 0 -96.5 -37t-34.5 -111v-176q0 -73 32.5 -109.5t97.5 -36.5z" />
    <glyph glyph-name="ordfeminine" unicode="&#xaa;" horiz-adv-x="341" 
d="M155 358q-27 0 -39.5 14.5t-12.5 37.5v9q0 17 5 28t14 21q9 11 22.5 18.5t34.5 15.5q26 11 40.5 18.5t20.5 18.5v-73q0 -46 -22 -77t-63 -31zM247 312h56l1 292q0 59 -32 88t-96 29q-66 0 -101 -32.5t-36 -87.5v-32h66v31q0 33 18 49.5t53 16.5t49.5 -15t14.5 -44v-6
q0 -21 -17.5 -32.5t-55.5 -26.5q-35 -13 -56.5 -23t-39.5 -24q-17 -13 -28.5 -34t-11.5 -48v-11q0 -43 23.5 -69t74.5 -26q41 0 69.5 20.5t42.5 56.5z" />
    <glyph glyph-name="guillemotleft" unicode="&#xab;" horiz-adv-x="471" 
d="M430 109l-140 194l126 190h-67l-123 -188v-9l132 -187h72zM258 109l-134 192l125 192h-66l-123 -191v-8l127 -185h71z" />
    <glyph glyph-name="logicalnot" unicode="&#xac;" horiz-adv-x="499" 
d="M435 207v249h-391v-65h324v-184h67z" />
    <glyph glyph-name="uni00AD" unicode="&#xad;" 
d="M358 336h-306v-70h306v70z" />
    <glyph glyph-name="registered" unicode="&#xae;" horiz-adv-x="420" 
d="M212 379q46 0 83 19.5t59 55.5q11 19 16.5 41t5.5 48v14q0 52 -22 89t-60 57q-19 10 -40 15t-45 5q-47 0 -84.5 -20.5t-58.5 -57.5q-11 -19 -16.5 -41t-5.5 -48v-14q0 -82 47.5 -122.5t120.5 -40.5zM212 418q-57 0 -92 32.5t-35 95.5v7q0 62 35 96.5t89 34.5
q56 0 91.5 -33.5t35.5 -96.5v-8q0 -64 -34.5 -96t-89.5 -32zM212 609q19 0 27.5 -4.5t8.5 -18.5t-9 -21t-28 -7h-28v51h29zM211 526q20 0 25.5 -6t5.5 -22v-23q0 -3 1 -5.5t2 -4.5h38l-2 4t-1 5v24q0 20 -6.5 30t-21.5 14q17 6 25 17t8 28q0 24 -15.5 39t-53.5 15h-70v-176
h37v61h28z" />
    <glyph glyph-name="macron" unicode="&#xaf;" 
d="M95 649h220v56h-220v-56z" />
    <glyph glyph-name="degree" unicode="&#xb0;" horiz-adv-x="314" 
d="M157 486q54 0 86 31t32 81v5q0 54 -32.5 85t-85.5 31q-49 0 -83.5 -30t-34.5 -86v-5q0 -52 32 -82t86 -30zM157 537q-29 0 -45.5 17.5t-16.5 46.5v2q0 32 18.5 48.5t43.5 16.5q27 0 45 -17t18 -48v-2q0 -28 -16.5 -46t-46.5 -18z" />
    <glyph glyph-name="plusminus" unicode="&#xb1;" horiz-adv-x="444" 
d="M370 408v63h-118v114h-62v-114h-115v-63h115v-113h62v113h118zM371 172v64h-296v-64h296z" />
    <glyph glyph-name="twosuperior" unicode="&#xb2;" horiz-adv-x="258" 
d="M32 359zM229 359v50h-140q3 23 18 40.5t35 33.5t39 33.5t32 39.5q7 11 10 24t3 28v20q0 41 -23 64.5t-72 23.5q-46 0 -71.5 -24.5t-25.5 -67.5v-50h53v48q0 23 9.5 36t33.5 13t34 -11.5t10 -33.5v-16q0 -24 -14.5 -42.5t-35.5 -35.5t-42 -35.5t-36 -42.5
q-7 -12 -10.5 -26.5t-3.5 -31.5v-37h197z" />
    <glyph glyph-name="threesuperior" unicode="&#xb3;" horiz-adv-x="263" 
d="M29 353zM131 353q49 0 74.5 23.5t25.5 63.5v33q0 28 -11.5 45t-35.5 23q23 8 32.5 26t9.5 42v21q0 41 -23 63.5t-73 22.5q-47 0 -71.5 -23.5t-24.5 -66.5v-32h52v32q0 23 11.5 34t33.5 11q24 0 34 -11t10 -34v-19q0 -22 -8 -33.5t-34 -11.5h-31v-46h31q23 0 34 -11
t11 -33v-28q0 -21 -12 -32t-36 -11q-25 0 -36 11t-11 32v41h-54v-44q0 -44 25.5 -66t76.5 -22z" />
    <glyph glyph-name="acute" unicode="&#xb4;" 
d="M156 638h56l121 157h-77z" />
    <glyph glyph-name="paragraph" unicode="&#xb6;" horiz-adv-x="556" 
d="M341 0v650h80v-650h68v711h-243q-102 0 -154.5 -54.5t-52.5 -149.5v-4q0 -96 52.5 -150t152.5 -53h29v-300h68zM245 362q-64 -1 -99 35.5t-35 105.5v4q0 68 34 105.5t101 37.5h27v-288h-28z" />
    <glyph glyph-name="periodcentered" unicode="&#xb7;" horiz-adv-x="245" 
d="M123 242q26 0 39 13t13 46t-13 46t-39 13q-27 0 -39.5 -13t-12.5 -46t12 -46t40 -13z" />
    <glyph glyph-name="cedilla" unicode="&#xb8;" 
d="M203 -217q54 0 85.5 24t31.5 68q0 36 -25 56.5t-72 21.5v53h-54v-95h32q33 0 47 -9.5t14 -28.5q0 -22 -14.5 -32.5t-44.5 -10.5q-28 0 -44 12t-19 36h-63q7 -46 35.5 -70.5t90.5 -24.5z" />
    <glyph glyph-name="onesuperior" unicode="&#xb9;" horiz-adv-x="206" 
d="M25 359zM184 359v49h-55v303h-41q-4 -28 -16 -41.5t-39 -14.5v-42h48v-205h-56v-49h159z" />
    <glyph glyph-name="ordmasculine" unicode="&#xba;" horiz-adv-x="351" 
d="M175 307q62 0 98 36t36 100v140q0 66 -37 102t-97 36q-58 0 -95.5 -35.5t-37.5 -102.5v-140q0 -65 34 -100.5t99 -35.5zM175 366q-34 0 -51 21t-17 58v136q0 41 18 62t50 21q34 0 52 -22t18 -60v-137q0 -37 -17.5 -58t-52.5 -21z" />
    <glyph glyph-name="guillemotright" unicode="&#xbb;" horiz-adv-x="471" 
d="M116 109l132 187v9l-122 188h-68l126 -189l-139 -195h71zM287 109l127 185v8l-123 191h-66l125 -191l-134 -193h71z" />
    <glyph glyph-name="onequarter" unicode="&#xbc;" horiz-adv-x="577" 
d="M45 0zM333 399l207 288l-68 44l-162 -317zM255 329l-210 -298l70 -48l163 331zM428 255l12 33l-4 -41v-129h-85zM523 76v42h-42v234h-46l-136 -238v-38h137v-76h45v76h42zM212 359v49h-55v303h-41q-4 -28 -16 -41.5t-39 -14.5v-42h48v-205h-56v-49h159z" />
    <glyph glyph-name="onehalf" unicode="&#xbd;" horiz-adv-x="577" 
d="M45 0zM333 399l207 288l-68 44l-162 -317zM255 329l-210 -298l70 -48l163 331zM212 359v49h-55v303h-41q-4 -28 -16 -41.5t-39 -14.5v-42h48v-205h-56v-49h159zM535 0v50h-140q3 23 18 40.5t35 33.5t39 33.5t32 39.5q7 11 10 24t3 28v20q0 41 -23 64.5t-72 23.5
q-46 0 -71.5 -24.5t-25.5 -67.5v-50h53v48q0 23 9.5 36t33.5 13t34 -11.5t10 -33.5v-16q0 -24 -14.5 -42.5t-35.5 -35.5t-42 -35.5t-36 -42.5q-7 -12 -10.5 -26.5t-3.5 -31.5v-37h197z" />
    <glyph glyph-name="threequarters" unicode="&#xbe;" horiz-adv-x="577" 
d="M32 0zM333 399l207 288l-68 44l-162 -317zM255 329l-210 -298l70 -48l163 331zM427 255l12 33l-4 -41v-129h-85zM522 76v42h-42v234h-46l-136 -238v-38h137v-76h45v76h42zM134 353q49 0 74.5 23.5t25.5 63.5v33q0 28 -11.5 45t-35.5 23q23 8 32.5 26t9.5 42v21
q0 41 -23 63.5t-73 22.5q-47 0 -71.5 -23.5t-24.5 -66.5v-32h52v32q0 23 11.5 34t33.5 11q24 0 34 -11t10 -34v-19q0 -22 -8 -33.5t-34 -11.5h-31v-46h31q23 0 34 -11t11 -33v-28q0 -21 -12 -32t-36 -11q-25 0 -36 11t-11 32v41h-54v-44q0 -44 25.5 -66t76.5 -22z" />
    <glyph glyph-name="questiondown" unicode="&#xbf;" horiz-adv-x="471" 
d="M282 422q-4 -3 -14 -4.5t-21 -1.5q-12 0 -21.5 1.5t-13.5 4.5v-57q-1 -51 -23 -78.5t-50 -51.5q-20 -16 -39 -36.5t-31 -49.5q-6 -14 -9 -32.5t-3 -40.5v-61q0 -66 43.5 -110t133.5 -44q92 0 137.5 44t45.5 121v103h-75v-97q0 -52 -24.5 -79.5t-82.5 -27.5
q-56 0 -80 27.5t-24 67.5v59q0 47 21.5 72t48.5 47q21 16 39.5 35.5t30.5 49.5q6 14 9 33t3 41v25v22t-1 18zM246 587q-26 0 -38.5 -13.5t-12.5 -46.5q0 -32 12 -45t39 -13q26 0 38.5 13t12.5 45q0 34 -11.5 47t-39.5 13z" />
    <glyph glyph-name="Agrave" unicode="&#xc0;" horiz-adv-x="467" 
d="M23 0zM220 549l12 100l11 -99l78 -330h-175zM373 0h72l-178 711h-72l-172 -711h73l35 154h206zM203 775h56l-90 146h-76z" />
    <glyph glyph-name="Aacute" unicode="&#xc1;" horiz-adv-x="467" 
d="M23 0zM220 549l12 100l11 -99l78 -330h-175zM373 0h72l-178 711h-72l-172 -711h73l35 154h206zM201 774h56l121 157h-77z" />
    <glyph glyph-name="Acircumflex" unicode="&#xc2;" horiz-adv-x="467" 
d="M23 0zM220 549l12 100l11 -99l78 -330h-175zM373 0h72l-178 711h-72l-172 -711h73l35 154h206zM291 771h63l-99 146h-52l-99 -146h63l62 95z" />
    <glyph glyph-name="Atilde" unicode="&#xc3;" horiz-adv-x="467" 
d="M23 0zM220 549l12 100l11 -99l78 -330h-175zM373 0h72l-178 711h-72l-172 -711h73l35 154h206zM83 774h51q0 29 7 41.5t23 12.5q19 0 36.5 -14.5t38.5 -28.5q10 -7 23 -10.5t28 -3.5q45 0 63.5 29t18.5 80h-50q0 -32 -8 -43.5t-25 -11.5t-34.5 14t-39.5 29
q-10 7 -23 10.5t-28 3.5q-43 0 -61.5 -28t-19.5 -80z" />
    <glyph glyph-name="Adieresis" unicode="&#xc4;" horiz-adv-x="467" 
d="M23 0zM220 549l12 100l11 -99l78 -330h-175zM373 0h72l-178 711h-72l-172 -711h73l35 154h206zM297 770q21 0 32 11.5t11 38.5q0 26 -10.5 37.5t-32.5 11.5t-33.5 -11.5t-11.5 -37.5q0 -28 10.5 -39t34.5 -11zM160 770q23 0 34 11.5t11 38.5q0 26 -10.5 37.5t-33.5 11.5
q-22 0 -33 -11.5t-11 -37.5q0 -28 10.5 -39t32.5 -11z" />
    <glyph glyph-name="Aring" unicode="&#xc5;" horiz-adv-x="467" 
d="M23 0zM220 549l12 100l11 -99l78 -330h-175zM373 0h72l-178 711h-72l-172 -711h73l35 154h206zM228 763q44 0 71.5 25.5t27.5 70.5q0 46 -27.5 71t-71.5 25q-43 0 -70.5 -26t-27.5 -70q0 -46 27.5 -71t70.5 -25zM228 813q-22 0 -33.5 12.5t-11.5 33.5q0 22 12.5 35
t32.5 13q21 0 34 -13t13 -35t-14 -34t-33 -12z" />
    <glyph glyph-name="AE" unicode="&#xc6;" horiz-adv-x="671" 
d="M269 548l18 94l1 -94l39 -330h-168zM353 0h284v67h-226l-31 259h214v66h-222l-30 254h285v65h-369l-246 -711h75l52 156h195z" />
    <glyph glyph-name="Ccedilla" unicode="&#xc7;" horiz-adv-x="490" 
d="M260 -228q54 0 85.5 24t31.5 68q0 36 -25 56.5t-72 21.5v50q80 7 122.5 61t42.5 157v68h-76v-64q0 -79 -28 -118t-91 -39q-64 0 -93 39t-29 118v280q0 78 28.5 119.5t92.5 41.5q68 0 94 -39t26 -122v-43h75v45q0 113 -46.5 168t-147.5 55q-94 0 -144.5 -56.5
t-50.5 -166.5v-286q0 -106 44 -159.5t127 -59.5v-91h32q33 0 47 -9.5t14 -28.5q0 -22 -14.5 -32.5t-44.5 -10.5q-28 0 -44 12t-19 36h-63q7 -46 35.5 -70.5t90.5 -24.5z" />
    <glyph glyph-name="Egrave" unicode="&#xc8;" horiz-adv-x="428" 
d="M69 0zM394 67h-255v265h213v66h-213v248h246v65h-316v-711h325v67zM207 775h56l-90 146h-76z" />
    <glyph glyph-name="Eacute" unicode="&#xc9;" horiz-adv-x="428" 
d="M69 0zM394 67h-255v265h213v66h-213v248h246v65h-316v-711h325v67zM198 774h56l121 157h-77z" />
    <glyph glyph-name="Ecircumflex" unicode="&#xca;" horiz-adv-x="428" 
d="M69 0zM394 67h-255v265h213v66h-213v248h246v65h-316v-711h325v67zM291 774h63l-99 146h-52l-99 -146h63l62 95z" />
    <glyph glyph-name="Edieresis" unicode="&#xcb;" horiz-adv-x="428" 
d="M69 0zM394 67h-255v265h213v66h-213v248h246v65h-316v-711h325v67zM299 774q21 0 32 11.5t11 38.5q0 26 -10.5 37.5t-32.5 11.5t-33.5 -11.5t-11.5 -37.5q0 -28 10.5 -39t34.5 -11zM162 774q23 0 34 11.5t11 38.5q0 26 -10.5 37.5t-33.5 11.5q-22 0 -33 -11.5t-11 -37.5
q0 -28 10.5 -39t32.5 -11z" />
    <glyph glyph-name="Igrave" unicode="&#xcc;" horiz-adv-x="330" 
d="M27 0zM296 0v67h-97v579h97v65h-262v-65h96v-579h-96v-67h262zM137 775h56l-90 146h-76z" />
    <glyph glyph-name="Iacute" unicode="&#xcd;" horiz-adv-x="330" 
d="M34 0zM296 0v67h-97v579h97v65h-262v-65h96v-579h-96v-67h262zM134 774h56l121 157h-77z" />
    <glyph glyph-name="Icircumflex" unicode="&#xce;" horiz-adv-x="330" 
d="M34 0zM296 0v67h-97v579h97v65h-262v-65h96v-579h-96v-67h262zM227 774h63l-99 146h-52l-99 -146h63l62 95z" />
    <glyph glyph-name="Idieresis" unicode="&#xcf;" horiz-adv-x="330" 
d="M34 0zM296 0v67h-97v579h97v65h-262v-65h96v-579h-96v-67h262zM233 774q21 0 32 11.5t11 38.5q0 26 -10.5 37.5t-32.5 11.5t-33.5 -11.5t-11.5 -37.5q0 -28 10.5 -39t34.5 -11zM96 774q23 0 34 11.5t11 38.5q0 26 -10.5 37.5t-33.5 11.5q-22 0 -33 -11.5t-11 -37.5
q0 -28 10.5 -39t32.5 -11z" />
    <glyph glyph-name="Eth" unicode="&#xd0;" horiz-adv-x="504" 
d="M237 0q96 0 155 52.5t59 167.5v271q0 116 -60 168t-155 52h-159v-325h-68v-65h68v-321h160zM245 321v65h-98v263h86q67 0 106.5 -38.5t39.5 -123.5v-261q0 -84 -39 -123t-105 -39h-88v257h98z" />
    <glyph glyph-name="Ntilde" unicode="&#xd1;" horiz-adv-x="527" 
d="M69 0zM134 495l-11 134l40 -125l234 -504h61v711h-66v-491l11 -118l-40 109l-232 500h-62v-711h65v495zM134 779h51q0 29 7 41.5t23 12.5q19 0 36.5 -14.5t38.5 -28.5q10 -7 23 -10.5t28 -3.5q45 0 63.5 29t18.5 80h-50q0 -32 -8 -43.5t-25 -11.5t-34.5 14t-39.5 29
q-10 7 -23 10.5t-28 3.5q-43 0 -61.5 -28t-19.5 -80z" />
    <glyph glyph-name="Ograve" unicode="&#xd2;" horiz-adv-x="505" 
d="M55 0zM252 -10q95 0 147 54t52 167v283q0 110 -51.5 167t-146.5 57q-94 0 -146 -57t-52 -167v-283q0 -114 51.5 -167.5t145.5 -53.5zM253 57q-64 0 -94.5 39.5t-30.5 118.5v277q0 78 30 120t94 42q65 0 95 -41.5t30 -120.5v-277q0 -79 -31 -118.5t-93 -39.5zM228 784h56
l-90 146h-76z" />
    <glyph glyph-name="Oacute" unicode="&#xd3;" horiz-adv-x="505" 
d="M55 0zM252 -10q95 0 147 54t52 167v283q0 110 -51.5 167t-146.5 57q-94 0 -146 -57t-52 -167v-283q0 -114 51.5 -167.5t145.5 -53.5zM253 57q-64 0 -94.5 39.5t-30.5 118.5v277q0 78 30 120t94 42q65 0 95 -41.5t30 -120.5v-277q0 -79 -31 -118.5t-93 -39.5zM232 783h56
l121 157h-77z" />
    <glyph glyph-name="Ocircumflex" unicode="&#xd4;" horiz-adv-x="505" 
d="M55 0zM252 -10q95 0 147 54t52 167v283q0 110 -51.5 167t-146.5 57q-94 0 -146 -57t-52 -167v-283q0 -114 51.5 -167.5t145.5 -53.5zM253 57q-64 0 -94.5 39.5t-30.5 118.5v277q0 78 30 120t94 42q65 0 95 -41.5t30 -120.5v-277q0 -79 -31 -118.5t-93 -39.5zM316 784h63
l-99 146h-52l-99 -146h63l62 95z" />
    <glyph glyph-name="Otilde" unicode="&#xd5;" horiz-adv-x="505" 
d="M55 0zM252 -10q95 0 147 54t52 167v283q0 110 -51.5 167t-146.5 57q-94 0 -146 -57t-52 -167v-283q0 -114 51.5 -167.5t145.5 -53.5zM253 57q-64 0 -94.5 39.5t-30.5 118.5v277q0 78 30 120t94 42q65 0 95 -41.5t30 -120.5v-277q0 -79 -31 -118.5t-93 -39.5zM108 786h51
q0 29 7 41.5t23 12.5q19 0 36.5 -14.5t38.5 -28.5q10 -7 23 -10.5t28 -3.5q45 0 63.5 29t18.5 80h-50q0 -32 -8 -43.5t-25 -11.5t-34.5 14t-39.5 29q-10 7 -23 10.5t-28 3.5q-43 0 -61.5 -28t-19.5 -80z" />
    <glyph glyph-name="Odieresis" unicode="&#xd6;" horiz-adv-x="505" 
d="M55 0zM252 -10q95 0 147 54t52 167v283q0 110 -51.5 167t-146.5 57q-94 0 -146 -57t-52 -167v-283q0 -114 51.5 -167.5t145.5 -53.5zM253 57q-64 0 -94.5 39.5t-30.5 118.5v277q0 78 30 120t94 42q65 0 95 -41.5t30 -120.5v-277q0 -79 -31 -118.5t-93 -39.5zM322 784
q21 0 32 11.5t11 38.5q0 26 -10.5 37.5t-32.5 11.5t-33.5 -11.5t-11.5 -37.5q0 -28 10.5 -39t34.5 -11zM185 784q23 0 34 11.5t11 38.5q0 26 -10.5 37.5t-33.5 11.5q-22 0 -33 -11.5t-11 -37.5q0 -28 10.5 -39t32.5 -11z" />
    <glyph glyph-name="multiply" unicode="&#xd7;" horiz-adv-x="441" 
d="M329 203l43 43l-112 115l107 109l-42 44l-107 -109l-103 106l-43 -43l103 -107l-113 -115l42 -43l113 115z" />
    <glyph glyph-name="Oslash" unicode="&#xd8;" horiz-adv-x="511" 
d="M127 215v277q0 78 31.5 121.5t97.5 43.5q15 0 28 -2t24 -7l-147 -555q-17 20 -25.5 50.5t-8.5 71.5zM256 55q-14 0 -26 2t-22 5l145 552q16 -21 24 -51.5t8 -70.5v-277q0 -80 -32 -120t-97 -40zM256 -11q95 0 148 54.5t53 167.5v284q0 70 -21 118.5t-63 75.5l30 105h-54
l-24 -83q-16 5 -33 7t-36 2q-96 0 -148.5 -57.5t-52.5 -167.5v-284q0 -73 22 -121t63 -73l-31 -107h57l24 86q15 -4 31.5 -5.5t34.5 -1.5z" />
    <glyph glyph-name="Ugrave" unicode="&#xd9;" horiz-adv-x="492" 
d="M63 0zM246 -10q91 0 137 52t46 161v508h-73v-505q0 -77 -26 -112t-84 -35t-84 35.5t-26 111.5v505h-73v-508q0 -109 44.5 -161t138.5 -52zM219 769h56l-90 146h-76z" />
    <glyph glyph-name="Uacute" unicode="&#xda;" horiz-adv-x="492" 
d="M63 0zM246 -10q91 0 137 52t46 161v508h-73v-505q0 -77 -26 -112t-84 -35t-84 35.5t-26 111.5v505h-73v-508q0 -109 44.5 -161t138.5 -52zM216 768h56l121 157h-77z" />
    <glyph glyph-name="Ucircumflex" unicode="&#xdb;" horiz-adv-x="492" 
d="M63 0zM246 -10q91 0 137 52t46 161v508h-73v-505q0 -77 -26 -112t-84 -35t-84 35.5t-26 111.5v505h-73v-508q0 -109 44.5 -161t138.5 -52zM308 768h63l-99 146h-52l-99 -146h63l62 95z" />
    <glyph glyph-name="Udieresis" unicode="&#xdc;" horiz-adv-x="492" 
d="M63 0zM246 -10q91 0 137 52t46 161v508h-73v-505q0 -77 -26 -112t-84 -35t-84 35.5t-26 111.5v505h-73v-508q0 -109 44.5 -161t138.5 -52zM313 768q21 0 32 11.5t11 38.5q0 26 -10.5 37.5t-32.5 11.5t-33.5 -11.5t-11.5 -37.5q0 -28 10.5 -39t34.5 -11zM176 768
q23 0 34 11.5t11 38.5q0 26 -10.5 37.5t-33.5 11.5q-22 0 -33 -11.5t-11 -37.5q0 -28 10.5 -39t32.5 -11z" />
    <glyph glyph-name="Yacute" unicode="&#xdd;" horiz-adv-x="432" 
d="M15 0zM249 0v257l168 454h-76l-117 -340l-10 -54l-10 54l-113 340h-76l161 -455v-256h73zM190 769h56l121 157h-77z" />
    <glyph glyph-name="Thorn" unicode="&#xde;" horiz-adv-x="461" 
d="M231 528q62 0 91.5 -26t29.5 -85v-99q0 -58 -29.5 -87.5t-89.5 -29.5h-95v327h93zM236 138q96 0 141 47t45 132v100q0 92 -46 133.5t-144 41.5h-94v119h-69v-711h69v138h98z" />
    <glyph glyph-name="germandbls" unicode="&#xdf;" horiz-adv-x="495" 
d="M273 -1q67 0 105.5 23t55.5 64q8 21 12 45t4 52v57q0 68 -26.5 106t-83.5 51q50 15 70 52.5t20 94.5v42q0 80 -46 124t-135 44q-90 0 -137.5 -45.5t-47.5 -127.5v-581h70v577q0 56 29 84t86 28q55 0 84 -26.5t29 -79.5v-41q0 -58 -28.5 -87t-85.5 -29h-22v-63h23
q64 0 96 -28.5t32 -96.5v-49q0 -62 -28.5 -93t-85.5 -31q-10 0 -24 1t-17 2v-67q3 -1 22 -1.5t29 -0.5z" />
    <glyph glyph-name="agrave" unicode="&#xe0;" horiz-adv-x="460" 
d="M39 0zM205 51q-43 0 -67.5 23.5t-24.5 64.5v9q0 30 9 52t24 35q16 15 36.5 26.5t59.5 24.5q38 14 60 25.5t32 29.5v-119q0 -48 -15 -86.5t-44 -61.5q-14 -12 -31.5 -17.5t-38.5 -5.5zM346 0h55v424q0 73 -40.5 114t-129.5 41q-88 0 -133.5 -42.5t-45.5 -113.5v-57h69v54
q0 48 29 74.5t81 26.5q53 0 78 -24t25 -68v-6q0 -37 -27.5 -55t-84.5 -38q-51 -19 -78.5 -30.5t-49.5 -29.5q-24 -19 -39.5 -49t-15.5 -72v-18q0 -67 36.5 -103t104.5 -36q58 0 97.5 31.5t57.5 86.5zM208 644h56l-90 146h-76z" />
    <glyph glyph-name="aacute" unicode="&#xe1;" horiz-adv-x="460" 
d="M39 0zM205 51q-43 0 -67.5 23.5t-24.5 64.5v9q0 30 9 52t24 35q16 15 36.5 26.5t59.5 24.5q38 14 60 25.5t32 29.5v-119q0 -48 -15 -86.5t-44 -61.5q-14 -12 -31.5 -17.5t-38.5 -5.5zM346 0h55v424q0 73 -40.5 114t-129.5 41q-88 0 -133.5 -42.5t-45.5 -113.5v-57h69v54
q0 48 29 74.5t81 26.5q53 0 78 -24t25 -68v-6q0 -37 -27.5 -55t-84.5 -38q-51 -19 -78.5 -30.5t-49.5 -29.5q-24 -19 -39.5 -49t-15.5 -72v-18q0 -67 36.5 -103t104.5 -36q58 0 97.5 31.5t57.5 86.5zM200 644h56l121 157h-77z" />
    <glyph glyph-name="acircumflex" unicode="&#xe2;" horiz-adv-x="460" 
d="M39 0zM205 51q-43 0 -67.5 23.5t-24.5 64.5v9q0 30 9 52t24 35q16 15 36.5 26.5t59.5 24.5q38 14 60 25.5t32 29.5v-119q0 -48 -15 -86.5t-44 -61.5q-14 -12 -31.5 -17.5t-38.5 -5.5zM346 0h55v424q0 73 -40.5 114t-129.5 41q-88 0 -133.5 -42.5t-45.5 -113.5v-57h69v54
q0 48 29 74.5t81 26.5q53 0 78 -24t25 -68v-6q0 -37 -27.5 -55t-84.5 -38q-51 -19 -78.5 -30.5t-49.5 -29.5q-24 -19 -39.5 -49t-15.5 -72v-18q0 -67 36.5 -103t104.5 -36q58 0 97.5 31.5t57.5 86.5zM296 644h63l-99 146h-52l-99 -146h63l62 95z" />
    <glyph glyph-name="atilde" unicode="&#xe3;" horiz-adv-x="460" 
d="M39 0zM205 51q-43 0 -67.5 23.5t-24.5 64.5v9q0 30 9 52t24 35q16 15 36.5 26.5t59.5 24.5q38 14 60 25.5t32 29.5v-119q0 -48 -15 -86.5t-44 -61.5q-14 -12 -31.5 -17.5t-38.5 -5.5zM346 0h55v424q0 73 -40.5 114t-129.5 41q-88 0 -133.5 -42.5t-45.5 -113.5v-57h69v54
q0 48 29 74.5t81 26.5q53 0 78 -24t25 -68v-6q0 -37 -27.5 -55t-84.5 -38q-51 -19 -78.5 -30.5t-49.5 -29.5q-24 -19 -39.5 -49t-15.5 -72v-18q0 -67 36.5 -103t104.5 -36q58 0 97.5 31.5t57.5 86.5zM88 646h51q0 29 7 41.5t23 12.5q19 0 36.5 -14.5t38.5 -28.5
q10 -7 23 -10.5t28 -3.5q45 0 63.5 29t18.5 80h-50q0 -32 -8 -43.5t-25 -11.5t-34.5 14t-39.5 29q-10 7 -23 10.5t-28 3.5q-43 0 -61.5 -28t-19.5 -80z" />
    <glyph glyph-name="adieresis" unicode="&#xe4;" horiz-adv-x="460" 
d="M39 0zM205 51q-43 0 -67.5 23.5t-24.5 64.5v9q0 30 9 52t24 35q16 15 36.5 26.5t59.5 24.5q38 14 60 25.5t32 29.5v-119q0 -48 -15 -86.5t-44 -61.5q-14 -12 -31.5 -17.5t-38.5 -5.5zM346 0h55v424q0 73 -40.5 114t-129.5 41q-88 0 -133.5 -42.5t-45.5 -113.5v-57h69v54
q0 48 29 74.5t81 26.5q53 0 78 -24t25 -68v-6q0 -37 -27.5 -55t-84.5 -38q-51 -19 -78.5 -30.5t-49.5 -29.5q-24 -19 -39.5 -49t-15.5 -72v-18q0 -67 36.5 -103t104.5 -36q58 0 97.5 31.5t57.5 86.5zM302 644q21 0 32 11.5t11 38.5q0 26 -10.5 37.5t-32.5 11.5t-33.5 -11.5
t-11.5 -37.5q0 -28 10.5 -39t34.5 -11zM165 644q23 0 34 11.5t11 38.5q0 26 -10.5 37.5t-33.5 11.5q-22 0 -33 -11.5t-11 -37.5q0 -28 10.5 -39t32.5 -11z" />
    <glyph glyph-name="aring" unicode="&#xe5;" horiz-adv-x="460" 
d="M39 0zM205 51q-43 0 -67.5 23.5t-24.5 64.5v9q0 30 9 52t24 35q16 15 36.5 26.5t59.5 24.5q38 14 60 25.5t32 29.5v-119q0 -48 -15 -86.5t-44 -61.5q-14 -12 -31.5 -17.5t-38.5 -5.5zM346 0h55v424q0 73 -40.5 114t-129.5 41q-88 0 -133.5 -42.5t-45.5 -113.5v-57h69v54
q0 48 29 74.5t81 26.5q53 0 78 -24t25 -68v-6q0 -37 -27.5 -55t-84.5 -38q-51 -19 -78.5 -30.5t-49.5 -29.5q-24 -19 -39.5 -49t-15.5 -72v-18q0 -67 36.5 -103t104.5 -36q58 0 97.5 31.5t57.5 86.5zM231 646q44 0 71.5 25.5t27.5 70.5q0 46 -27.5 71t-71.5 25
q-43 0 -70.5 -26t-27.5 -70q0 -46 27.5 -71t70.5 -25zM231 696q-22 0 -33.5 12.5t-11.5 33.5q0 22 12.5 35t32.5 13q21 0 34 -13t13 -35t-14 -34t-33 -12z" />
    <glyph glyph-name="ae" unicode="&#xe6;" horiz-adv-x="747" 
d="M401 377q0 71 31 106t89 35q57 0 85 -33.5t28 -101.5v-61h-233v55zM203 51q-42 0 -65.5 23t-23.5 67v7q0 30 8.5 51t24.5 37q16 15 36 26t59 24q38 14 60 25.5t32 29.5v-119q0 -48 -15 -86.5t-44 -61.5q-15 -12 -33 -17.5t-39 -5.5zM703 168v25h-71v-27q0 -55 -28.5 -83
t-85.5 -28q-59 0 -88 35.5t-29 102.5v70h302v118q0 94 -43.5 147t-135.5 53q-51 0 -87.5 -18.5t-58.5 -55.5q-16 35 -51 54.5t-98 19.5q-86 0 -131.5 -43t-45.5 -114v-58h69v56q0 47 29 73.5t81 26.5q53 0 78 -24t25 -68v-10q0 -33 -27.5 -51t-84.5 -38q-51 -19 -78.5 -31
t-49.5 -30q-26 -21 -40.5 -49t-14.5 -72v-18q0 -67 37.5 -103.5t107.5 -36.5q62 0 103.5 31.5t59.5 88.5q15 -56 57 -88t114 -32q93 0 139 48t46 129z" />
    <glyph glyph-name="ccedilla" unicode="&#xe7;" horiz-adv-x="453" 
d="M242 -228q54 0 85.5 24t31.5 68q0 36 -25 56.5t-72 21.5v51q71 8 109.5 54.5t38.5 132.5v51h-75v-49q0 -65 -25 -96t-81 -31q-57 0 -82.5 35t-25.5 103v182q0 74 27 108.5t84 34.5q54 0 78.5 -28t24.5 -97v-39h75v41q0 98 -46 142t-131 44q-88 0 -136 -50t-48 -154v-186
q0 -93 38.5 -143.5t120.5 -55.5v-92h32q33 0 47 -9.5t14 -28.5q0 -22 -14.5 -32.5t-44.5 -10.5q-28 0 -44 12t-19 36h-63q7 -46 35.5 -70.5t90.5 -24.5z" />
    <glyph glyph-name="egrave" unicode="&#xe8;" horiz-adv-x="459" 
d="M49 0zM117 377q0 71 29.5 106t88.5 35t85 -33.5t26 -101.5v-58h-229v52zM415 172v21h-71v-26q0 -56 -27 -84t-82 -28q-62 0 -90 34t-28 101v75h298v116q0 89 -43 144.5t-137 55.5q-88 0 -137 -54t-49 -152v-187q0 -95 45 -146t140 -51q67 0 106.5 23t56.5 64
q9 20 13.5 43.5t4.5 50.5zM216 644h56l-90 146h-76z" />
    <glyph glyph-name="eacute" unicode="&#xe9;" horiz-adv-x="459" 
d="M49 0zM117 377q0 71 29.5 106t88.5 35t85 -33.5t26 -101.5v-58h-229v52zM415 172v21h-71v-26q0 -56 -27 -84t-82 -28q-62 0 -90 34t-28 101v75h298v116q0 89 -43 144.5t-137 55.5q-88 0 -137 -54t-49 -152v-187q0 -95 45 -146t140 -51q67 0 106.5 23t56.5 64
q9 20 13.5 43.5t4.5 50.5zM208 644h56l121 157h-77z" />
    <glyph glyph-name="ecircumflex" unicode="&#xea;" horiz-adv-x="459" 
d="M49 0zM117 377q0 71 29.5 106t88.5 35t85 -33.5t26 -101.5v-58h-229v52zM415 172v21h-71v-26q0 -56 -27 -84t-82 -28q-62 0 -90 34t-28 101v75h298v116q0 89 -43 144.5t-137 55.5q-88 0 -137 -54t-49 -152v-187q0 -95 45 -146t140 -51q67 0 106.5 23t56.5 64
q9 20 13.5 43.5t4.5 50.5zM301 644h63l-99 146h-52l-99 -146h63l62 95z" />
    <glyph glyph-name="edieresis" unicode="&#xeb;" horiz-adv-x="459" 
d="M49 0zM117 377q0 71 29.5 106t88.5 35t85 -33.5t26 -101.5v-58h-229v52zM415 172v21h-71v-26q0 -56 -27 -84t-82 -28q-62 0 -90 34t-28 101v75h298v116q0 89 -43 144.5t-137 55.5q-88 0 -137 -54t-49 -152v-187q0 -95 45 -146t140 -51q67 0 106.5 23t56.5 64
q9 20 13.5 43.5t4.5 50.5zM305 644q21 0 32 11.5t11 38.5q0 26 -10.5 37.5t-32.5 11.5t-33.5 -11.5t-11.5 -37.5q0 -28 10.5 -39t34.5 -11zM168 644q23 0 34 11.5t11 38.5q0 26 -10.5 37.5t-33.5 11.5q-22 0 -33 -11.5t-11 -37.5q0 -28 10.5 -39t32.5 -11z" />
    <glyph glyph-name="igrave" unicode="&#xec;" horiz-adv-x="198" 
d="M0 0zM134 0v572h-70v-572h70zM73 636h56l-90 146h-76z" />
    <glyph glyph-name="iacute" unicode="&#xed;" horiz-adv-x="198" 
d="M64 0zM134 0v572h-70v-572h70zM71 638h56l121 157h-77z" />
    <glyph glyph-name="icircumflex" unicode="&#xee;" horiz-adv-x="198" 
d="M0 0zM134 0v572h-70v-572h70zM160 636h63l-99 146h-52l-99 -146h63l62 95z" />
    <glyph glyph-name="idieresis" unicode="&#xef;" horiz-adv-x="198" 
d="M0 0zM134 0v572h-70v-572h70zM165 636q21 0 32 11.5t11 38.5q0 26 -10.5 37.5t-32.5 11.5t-33.5 -11.5t-11.5 -37.5q0 -28 10.5 -39t34.5 -11zM28 636q23 0 34 11.5t11 38.5q0 26 -10.5 37.5t-33.5 11.5q-22 0 -33 -11.5t-11 -37.5q0 -28 10.5 -39t32.5 -11z" />
    <glyph glyph-name="eth" unicode="&#xf0;" horiz-adv-x="472" 
d="M234 -9q87 0 135 50.5t48 147.5v196q0 94 -32.5 170t-94.5 137l91 70h-76l-50 -39q-12 11 -25 20.5t-27 18.5h-104q31 -19 58 -38t49 -38l-95 -73h77l54 42q42 -40 67 -81.5t35 -88.5q-15 40 -46.5 62.5t-81.5 22.5q-76 0 -121.5 -48.5t-45.5 -142.5v-194
q0 -95 47 -144.5t138 -49.5zM234 55q-57 0 -85 35t-28 96v192q0 64 30 97.5t85 33.5q56 0 83.5 -35.5t27.5 -94.5v-189q0 -65 -28 -100t-85 -35z" />
    <glyph glyph-name="ntilde" unicode="&#xf1;" horiz-adv-x="475" 
d="M63 0zM134 370q0 70 28.5 108.5t83.5 38.5q54 0 76.5 -33t22.5 -94v-390h71v399q0 88 -36.5 134.5t-112.5 46.5q-58 0 -92 -30.5t-47 -83.5l-8 106h-57v-572h71v370zM104 644h51q0 29 7 41.5t23 12.5q19 0 36.5 -14.5t38.5 -28.5q10 -7 23 -10.5t28 -3.5q45 0 63.5 29
t18.5 80h-50q0 -32 -8 -43.5t-25 -11.5t-34.5 14t-39.5 29q-10 7 -23 10.5t-28 3.5q-43 0 -61.5 -28t-19.5 -80z" />
    <glyph glyph-name="ograve" unicode="&#xf2;" horiz-adv-x="468" 
d="M49 0zM233 -9q86 0 135.5 49.5t49.5 148.5v188q0 102 -49.5 153t-135.5 51q-85 0 -134.5 -50.5t-49.5 -153.5v-188q0 -100 47.5 -149t136.5 -49zM233 55q-57 0 -84.5 35.5t-27.5 100.5v185q0 71 28 106.5t84 35.5q57 0 85 -35.5t28 -106.5v-185q0 -66 -28 -101t-85 -35z
M210 644h56l-90 146h-76z" />
    <glyph glyph-name="oacute" unicode="&#xf3;" horiz-adv-x="468" 
d="M49 0zM233 -9q86 0 135.5 49.5t49.5 148.5v188q0 102 -49.5 153t-135.5 51q-85 0 -134.5 -50.5t-49.5 -153.5v-188q0 -100 47.5 -149t136.5 -49zM233 55q-57 0 -84.5 35.5t-27.5 100.5v185q0 71 28 106.5t84 35.5q57 0 85 -35.5t28 -106.5v-185q0 -66 -28 -101t-85 -35z
M206 643h56l121 157h-77z" />
    <glyph glyph-name="ocircumflex" unicode="&#xf4;" horiz-adv-x="468" 
d="M49 0zM233 -9q86 0 135.5 49.5t49.5 148.5v188q0 102 -49.5 153t-135.5 51q-85 0 -134.5 -50.5t-49.5 -153.5v-188q0 -100 47.5 -149t136.5 -49zM233 55q-57 0 -84.5 35.5t-27.5 100.5v185q0 71 28 106.5t84 35.5q57 0 85 -35.5t28 -106.5v-185q0 -66 -28 -101t-85 -35z
M298 643h63l-99 146h-52l-99 -146h63l62 95z" />
    <glyph glyph-name="otilde" unicode="&#xf5;" horiz-adv-x="468" 
d="M49 0zM233 -9q86 0 135.5 49.5t49.5 148.5v188q0 102 -49.5 153t-135.5 51q-85 0 -134.5 -50.5t-49.5 -153.5v-188q0 -100 47.5 -149t136.5 -49zM233 55q-57 0 -84.5 35.5t-27.5 100.5v185q0 71 28 106.5t84 35.5q57 0 85 -35.5t28 -106.5v-185q0 -66 -28 -101t-85 -35z
M90 646h51q0 29 7 41.5t23 12.5q19 0 36.5 -14.5t38.5 -28.5q10 -7 23 -10.5t28 -3.5q45 0 63.5 29t18.5 80h-50q0 -32 -8 -43.5t-25 -11.5t-34.5 14t-39.5 29q-10 7 -23 10.5t-28 3.5q-43 0 -61.5 -28t-19.5 -80z" />
    <glyph glyph-name="odieresis" unicode="&#xf6;" horiz-adv-x="468" 
d="M49 0zM233 -9q86 0 135.5 49.5t49.5 148.5v188q0 102 -49.5 153t-135.5 51q-85 0 -134.5 -50.5t-49.5 -153.5v-188q0 -100 47.5 -149t136.5 -49zM233 55q-57 0 -84.5 35.5t-27.5 100.5v185q0 71 28 106.5t84 35.5q57 0 85 -35.5t28 -106.5v-185q0 -66 -28 -101t-85 -35z
M304 643q21 0 32 11.5t11 38.5q0 26 -10.5 37.5t-32.5 11.5t-33.5 -11.5t-11.5 -37.5q0 -28 10.5 -39t34.5 -11zM167 643q23 0 34 11.5t11 38.5q0 26 -10.5 37.5t-33.5 11.5q-22 0 -33 -11.5t-11 -37.5q0 -28 10.5 -39t32.5 -11z" />
    <glyph glyph-name="divide" unicode="&#xf7;" horiz-adv-x="444" 
d="M221 445q20 0 30.5 9.5t10.5 33.5t-9.5 34t-31.5 10q-21 0 -31.5 -10t-10.5 -34t10 -33.5t32 -9.5zM384 319v64h-324v-64h324zM221 172q20 0 30.5 9t10.5 33q0 25 -10 34t-31 9q-22 0 -32 -9t-10 -34t10 -33.5t32 -8.5z" />
    <glyph glyph-name="oslash" unicode="&#xf8;" horiz-adv-x="468" 
d="M120 191v185q0 72 29 107t84 35q11 0 21.5 -1.5t20.5 -4.5l-121 -428q-17 17 -25.5 44t-8.5 63zM233 55q-10 0 -19.5 1.5t-17.5 3.5l119 425q16 -18 24 -45t8 -64v-185q0 -66 -28.5 -101t-85.5 -35zM233 -9q86 0 135.5 49.5t49.5 148.5v188q0 67 -21.5 111.5t-60.5 67.5
l29 98h-49l-23 -80q-13 4 -28 5.5t-32 1.5q-85 0 -134.5 -50.5t-49.5 -153.5v-188q0 -66 21.5 -110.5t63.5 -66.5l-30 -102h51l24 86q12 -2 25.5 -3.5t28.5 -1.5z" />
    <glyph glyph-name="ugrave" unicode="&#xf9;" horiz-adv-x="463" 
d="M60 0zM343 0h57v572h-71v-369q0 -69 -27 -108.5t-78 -39.5q-50 0 -71.5 33t-21.5 92v392h-71v-402q0 -86 35 -132.5t108 -46.5q54 0 86.5 30.5t44.5 83.5zM203 626h56l-90 146h-76z" />
    <glyph glyph-name="uacute" unicode="&#xfa;" horiz-adv-x="463" 
d="M60 0zM343 0h57v572h-71v-369q0 -69 -27 -108.5t-78 -39.5q-50 0 -71.5 33t-21.5 92v392h-71v-402q0 -86 35 -132.5t108 -46.5q54 0 86.5 30.5t44.5 83.5zM198 626h56l121 157h-77z" />
    <glyph glyph-name="ucircumflex" unicode="&#xfb;" horiz-adv-x="463" 
d="M60 0zM343 0h57v572h-71v-369q0 -69 -27 -108.5t-78 -39.5q-50 0 -71.5 33t-21.5 92v392h-71v-402q0 -86 35 -132.5t108 -46.5q54 0 86.5 30.5t44.5 83.5zM291 630h63l-99 146h-52l-99 -146h63l62 95z" />
    <glyph glyph-name="udieresis" unicode="&#xfc;" horiz-adv-x="463" 
d="M60 0zM343 0h57v572h-71v-369q0 -69 -27 -108.5t-78 -39.5q-50 0 -71.5 33t-21.5 92v392h-71v-402q0 -86 35 -132.5t108 -46.5q54 0 86.5 30.5t44.5 83.5zM297 630q21 0 32 11.5t11 38.5q0 26 -10.5 37.5t-32.5 11.5t-33.5 -11.5t-11.5 -37.5q0 -28 10.5 -39t34.5 -11z
M160 630q23 0 34 11.5t11 38.5q0 26 -10.5 37.5t-33.5 11.5q-22 0 -33 -11.5t-11 -37.5q0 -28 10.5 -39t32.5 -11z" />
    <glyph glyph-name="yacute" unicode="&#xfd;" horiz-adv-x="425" 
d="M22 0zM79 -163q52 0 81.5 10t47.5 39q8 14 16.5 35t16.5 49l166 602h-72l-107 -421l-10 -70l-9 67l-115 424h-72l162 -562l-8 -31q-10 -33 -21 -49.5t-29 -21.5q-9 -2 -21.5 -3.5t-28.5 -1.5h-35v-66h38zM184 626h56l121 157h-77z" />
    <glyph glyph-name="thorn" unicode="&#xfe;" horiz-adv-x="483" 
d="M245 55q-57 0 -85.5 40t-28.5 107v163q0 70 29.5 112t88.5 42q56 0 84.5 -37t28.5 -117v-162q0 -74 -29 -111t-88 -37zM265 -9q79 0 124 53t45 160v160q0 114 -43.5 165.5t-122.5 51.5q-54 0 -87.5 -27t-48.5 -73v262h-68v-936h68v277q15 -43 47.5 -68t85.5 -25z" />
    <glyph glyph-name="ydieresis" unicode="&#xff;" horiz-adv-x="425" 
d="M22 0zM79 -163q52 0 81.5 10t47.5 39q8 14 16.5 35t16.5 49l166 602h-72l-107 -421l-10 -70l-9 67l-115 424h-72l162 -562l-8 -31q-10 -33 -21 -49.5t-29 -21.5q-9 -2 -21.5 -3.5t-28.5 -1.5h-35v-66h38zM282 630q21 0 32 11.5t11 38.5q0 26 -10.5 37.5t-32.5 11.5
t-33.5 -11.5t-11.5 -37.5q0 -28 10.5 -39t34.5 -11zM145 630q23 0 34 11.5t11 38.5q0 26 -10.5 37.5t-33.5 11.5q-22 0 -33 -11.5t-11 -37.5q0 -28 10.5 -39t32.5 -11z" />
    <glyph glyph-name="Amacron" unicode="&#x100;" horiz-adv-x="467" 
d="M23 0zM220 549l12 100l11 -99l78 -330h-175zM373 0h72l-178 711h-72l-172 -711h73l35 154h206zM119 785h220v56h-220v-56z" />
    <glyph glyph-name="amacron" unicode="&#x101;" horiz-adv-x="460" 
d="M39 0zM205 51q-43 0 -67.5 23.5t-24.5 64.5v9q0 30 9 52t24 35q16 15 36.5 26.5t59.5 24.5q38 14 60 25.5t32 29.5v-119q0 -48 -15 -86.5t-44 -61.5q-14 -12 -31.5 -17.5t-38.5 -5.5zM346 0h55v424q0 73 -40.5 114t-129.5 41q-88 0 -133.5 -42.5t-45.5 -113.5v-57h69v54
q0 48 29 74.5t81 26.5q53 0 78 -24t25 -68v-6q0 -37 -27.5 -55t-84.5 -38q-51 -19 -78.5 -30.5t-49.5 -29.5q-24 -19 -39.5 -49t-15.5 -72v-18q0 -67 36.5 -103t104.5 -36q58 0 97.5 31.5t57.5 86.5zM124 655h220v56h-220v-56z" />
    <glyph glyph-name="Abreve" unicode="&#x102;" horiz-adv-x="467" 
d="M23 0zM220 549l12 100l11 -99l78 -330h-175zM373 0h72l-178 711h-72l-172 -711h73l35 154h206zM232 772q69 0 101.5 39t33.5 107h-54q-1 -46 -20 -70t-60 -25q-43 1 -60.5 25t-19.5 70h-54q2 -68 30.5 -107t102.5 -39z" />
    <glyph glyph-name="abreve" unicode="&#x103;" horiz-adv-x="460" 
d="M39 0zM205 51q-43 0 -67.5 23.5t-24.5 64.5v9q0 30 9 52t24 35q16 15 36.5 26.5t59.5 24.5q38 14 60 25.5t32 29.5v-119q0 -48 -15 -86.5t-44 -61.5q-14 -12 -31.5 -17.5t-38.5 -5.5zM346 0h55v424q0 73 -40.5 114t-129.5 41q-88 0 -133.5 -42.5t-45.5 -113.5v-57h69v54
q0 48 29 74.5t81 26.5q53 0 78 -24t25 -68v-6q0 -37 -27.5 -55t-84.5 -38q-51 -19 -78.5 -30.5t-49.5 -29.5q-24 -19 -39.5 -49t-15.5 -72v-18q0 -67 36.5 -103t104.5 -36q58 0 97.5 31.5t57.5 86.5zM232 642q69 0 101.5 39t33.5 107h-54q-1 -46 -20 -70t-60 -25
q-43 1 -60.5 25t-19.5 70h-54q2 -68 30.5 -107t102.5 -39z" />
    <glyph glyph-name="Aogonek" unicode="&#x104;" horiz-adv-x="467" 
d="M220 549l12 100l11 -99l78 -330h-175zM526 -98h-65q-6 -21 -20.5 -31.5t-36.5 -10.5q-23 0 -36.5 11t-13.5 31q0 22 19 42.5t70 55.5h2l-178 711h-72l-172 -711h73l35 154h206l34 -146q-42 -29 -58.5 -56t-16.5 -55q0 -41 27.5 -63t77.5 -22q48 0 79 22.5t46 67.5z" />
    <glyph glyph-name="aogonek" unicode="&#x105;" horiz-adv-x="460" 
d="M205 51q-43 0 -67.5 23.5t-24.5 64.5v9q0 30 9 52t24 35q16 15 36.5 26.5t59.5 24.5q38 14 60 25.5t32 29.5v-119q0 -48 -15 -86.5t-44 -61.5q-14 -12 -31.5 -17.5t-38.5 -5.5zM484 -98h-65q-6 -21 -20.5 -31.5t-36.5 -10.5q-23 0 -36.5 11t-13.5 31q0 22 19 42.5
t70 55.5v424q0 73 -40.5 114t-129.5 41q-88 0 -133.5 -42.5t-45.5 -113.5v-57h69v54q0 48 29 74.5t81 26.5q53 0 78 -24t25 -68v-6q0 -37 -27.5 -55t-84.5 -38q-51 -19 -78.5 -30.5t-49.5 -29.5q-24 -19 -39.5 -49t-15.5 -72v-18q0 -67 36.5 -103t104.5 -36q58 0 97.5 31.5
t57.5 86.5l9 -92q-51 -32 -70.5 -61.5t-19.5 -59.5q0 -41 27.5 -63t77.5 -22q48 0 79 22.5t46 67.5z" />
    <glyph glyph-name="Cacute" unicode="&#x106;" horiz-adv-x="490" 
d="M55 0zM249 -10q95 0 145.5 53.5t50.5 166.5v68h-76v-64q0 -79 -28 -118t-91 -39q-64 0 -93 39t-29 118v280q0 78 28.5 119.5t92.5 41.5q68 0 94 -39t26 -122v-43h75v45q0 113 -46.5 168t-147.5 55q-94 0 -144.5 -56.5t-50.5 -166.5v-286q0 -114 50 -167t144 -53zM227 784
h56l121 157h-77z" />
    <glyph glyph-name="cacute" unicode="&#x107;" horiz-adv-x="453" 
d="M49 0zM229 -9q87 0 134 46.5t47 142.5v51h-75v-49q0 -65 -25 -96t-81 -31q-57 0 -82.5 35t-25.5 103v182q0 74 27 108.5t84 34.5q54 0 78.5 -28t24.5 -97v-39h75v41q0 98 -46 142t-131 44q-88 0 -136 -50t-48 -154v-186q0 -99 43.5 -149.5t136.5 -50.5zM206 644h56
l121 157h-77z" />
    <glyph glyph-name="Ccircumflex" unicode="&#x108;" horiz-adv-x="490" 
d="M55 0zM249 -10q95 0 145.5 53.5t50.5 166.5v68h-76v-64q0 -79 -28 -118t-91 -39q-64 0 -93 39t-29 118v280q0 78 28.5 119.5t92.5 41.5q68 0 94 -39t26 -122v-43h75v45q0 113 -46.5 168t-147.5 55q-94 0 -144.5 -56.5t-50.5 -166.5v-286q0 -114 50 -167t144 -53zM317 784
h63l-99 146h-52l-99 -146h63l62 95z" />
    <glyph glyph-name="ccircumflex" unicode="&#x109;" horiz-adv-x="453" 
d="M49 0zM229 -9q87 0 134 46.5t47 142.5v51h-75v-49q0 -65 -25 -96t-81 -31q-57 0 -82.5 35t-25.5 103v182q0 74 27 108.5t84 34.5q54 0 78.5 -28t24.5 -97v-39h75v41q0 98 -46 142t-131 44q-88 0 -136 -50t-48 -154v-186q0 -99 43.5 -149.5t136.5 -50.5zM299 644h63
l-99 146h-52l-99 -146h63l62 95z" />
    <glyph glyph-name="Cdotaccent" unicode="&#x10a;" horiz-adv-x="490" 
d="M55 0zM249 -10q95 0 145.5 53.5t50.5 166.5v68h-76v-64q0 -79 -28 -118t-91 -39q-64 0 -93 39t-29 118v280q0 78 28.5 119.5t92.5 41.5q68 0 94 -39t26 -122v-43h75v45q0 113 -46.5 168t-147.5 55q-94 0 -144.5 -56.5t-50.5 -166.5v-286q0 -114 50 -167t144 -53zM255 783
q24 0 36.5 13t12.5 42q0 30 -12.5 43t-35.5 13q-25 0 -38 -13t-13 -43q0 -31 12 -43t38 -12z" />
    <glyph glyph-name="cdotaccent" unicode="&#x10b;" horiz-adv-x="453" 
d="M49 0zM229 -9q87 0 134 46.5t47 142.5v51h-75v-49q0 -65 -25 -96t-81 -31q-57 0 -82.5 35t-25.5 103v182q0 74 27 108.5t84 34.5q54 0 78.5 -28t24.5 -97v-39h75v41q0 98 -46 142t-131 44q-88 0 -136 -50t-48 -154v-186q0 -99 43.5 -149.5t136.5 -50.5zM234 643
q24 0 36.5 13t12.5 42q0 30 -12.5 43t-35.5 13q-25 0 -38 -13t-13 -43q0 -31 12 -43t38 -12z" />
    <glyph glyph-name="Ccaron" unicode="&#x10c;" horiz-adv-x="490" 
d="M55 0zM249 -10q95 0 145.5 53.5t50.5 166.5v68h-76v-64q0 -79 -28 -118t-91 -39q-64 0 -93 39t-29 118v280q0 78 28.5 119.5t92.5 41.5q68 0 94 -39t26 -122v-43h75v45q0 113 -46.5 168t-147.5 55q-94 0 -144.5 -56.5t-50.5 -166.5v-286q0 -114 50 -167t144 -53zM279 784
l100 144h-62l-62 -91l-61 91h-64l99 -144h50z" />
    <glyph glyph-name="ccaron" unicode="&#x10d;" horiz-adv-x="453" 
d="M49 0zM229 -9q87 0 134 46.5t47 142.5v51h-75v-49q0 -65 -25 -96t-81 -31q-57 0 -82.5 35t-25.5 103v182q0 74 27 108.5t84 34.5q54 0 78.5 -28t24.5 -97v-39h75v41q0 98 -46 142t-131 44q-88 0 -136 -50t-48 -154v-186q0 -99 43.5 -149.5t136.5 -50.5zM258 644l100 144
h-62l-62 -91l-61 91h-64l99 -144h50z" />
    <glyph glyph-name="Dcaron" unicode="&#x10e;" horiz-adv-x="499" 
d="M69 0zM69 0h160q96 0 156 52.5t60 167.5v271q0 77 -28 125.5t-77 71.5q-24 12 -52 17.5t-60 5.5h-159v-711zM225 649q67 0 106.5 -38.5t39.5 -123.5v-261q0 -84 -39 -123t-105 -39h-87v585h85zM270 774l100 144h-62l-62 -91l-61 91h-64l99 -144h50z" />
    <glyph glyph-name="dcaron" unicode="&#x10f;" horiz-adv-x="484" 
d="M49 0zM234 55q-55 0 -84 38t-29 117v154q0 76 29.5 115.5t86.5 39.5q60 0 88 -42t28 -108v-162q0 -68 -30 -110t-89 -42zM365 0h55v743h-67v-261q-15 47 -48 72.5t-87 25.5q-78 0 -123.5 -52.5t-45.5 -160.5v-162q0 -109 43.5 -161.5t122.5 -52.5q59 0 93 31.5t47 82.5z
M474 654h47l48 148h-62z" />
    <glyph glyph-name="Dcroat" unicode="&#x110;" horiz-adv-x="504" 
d="M9 0zM237 0q96 0 155 52.5t59 167.5v271q0 116 -60 168t-155 52h-159v-325h-68v-65h68v-321h160zM245 321v65h-98v263h86q67 0 106.5 -38.5t39.5 -123.5v-261q0 -84 -39 -123t-105 -39h-88v257h98z" />
    <glyph glyph-name="dcroat" unicode="&#x111;" horiz-adv-x="485" 
d="M234 55q-55 0 -84 38t-29 117v154q0 76 29.5 115.5t86.5 39.5q60 0 88 -42t28 -108v-162q0 -68 -30 -110t-89 -42zM355 105l10 -105h55v632h56v46h-56v65h-67v-65h-81v-46h81v-150q-15 47 -48 72.5t-87 25.5q-78 0 -123.5 -52.5t-45.5 -160.5v-162q0 -109 43.5 -161.5
t122.5 -52.5q59 0 93 31.5t47 82.5z" />
    <glyph glyph-name="Emacron" unicode="&#x112;" horiz-adv-x="428" 
d="M69 0zM394 67h-255v265h213v66h-213v248h246v65h-316v-711h325v67zM122 793h220v56h-220v-56z" />
    <glyph glyph-name="emacron" unicode="&#x113;" horiz-adv-x="459" 
d="M49 0zM117 377q0 71 29.5 106t88.5 35t85 -33.5t26 -101.5v-58h-229v52zM415 172v21h-71v-26q0 -56 -27 -84t-82 -28q-62 0 -90 34t-28 101v75h298v116q0 89 -43 144.5t-137 55.5q-88 0 -137 -54t-49 -152v-187q0 -95 45 -146t140 -51q67 0 106.5 23t56.5 64
q9 20 13.5 43.5t4.5 50.5zM132 655h220v56h-220v-56z" />
    <glyph glyph-name="Ebreve" unicode="&#x114;" horiz-adv-x="428" 
d="M69 0zM394 67h-255v265h213v66h-213v248h246v65h-316v-711h325v67zM230 772q69 0 101.5 39t33.5 107h-54q-1 -46 -20 -70t-60 -25q-43 1 -60.5 25t-19.5 70h-54q2 -68 30.5 -107t102.5 -39z" />
    <glyph glyph-name="ebreve" unicode="&#x115;" horiz-adv-x="459" 
d="M49 0zM117 377q0 71 29.5 106t88.5 35t85 -33.5t26 -101.5v-58h-229v52zM415 172v21h-71v-26q0 -56 -27 -84t-82 -28q-62 0 -90 34t-28 101v75h298v116q0 89 -43 144.5t-137 55.5q-88 0 -137 -54t-49 -152v-187q0 -95 45 -146t140 -51q67 0 106.5 23t56.5 64
q9 20 13.5 43.5t4.5 50.5zM243 642q69 0 101.5 39t33.5 107h-54q-1 -46 -20 -70t-60 -25q-43 1 -60.5 25t-19.5 70h-54q2 -68 30.5 -107t102.5 -39z" />
    <glyph glyph-name="Edotaccent" unicode="&#x116;" horiz-adv-x="428" 
d="M69 0zM394 67h-255v265h213v66h-213v248h246v65h-316v-711h325v67zM228 773q24 0 36.5 13t12.5 42q0 30 -12.5 43t-35.5 13q-25 0 -38 -13t-13 -43q0 -31 12 -43t38 -12z" />
    <glyph glyph-name="edotaccent" unicode="&#x117;" horiz-adv-x="459" 
d="M49 0zM117 377q0 71 29.5 106t88.5 35t85 -33.5t26 -101.5v-58h-229v52zM415 172v21h-71v-26q0 -56 -27 -84t-82 -28q-62 0 -90 34t-28 101v75h298v116q0 89 -43 144.5t-137 55.5q-88 0 -137 -54t-49 -152v-187q0 -95 45 -146t140 -51q67 0 106.5 23t56.5 64
q9 20 13.5 43.5t4.5 50.5zM240 643q24 0 36.5 13t12.5 42q0 30 -12.5 43t-35.5 13q-25 0 -38 -13t-13 -43q0 -31 12 -43t38 -12z" />
    <glyph glyph-name="Eogonek" unicode="&#x118;" horiz-adv-x="428" 
d="M477 -98h-65q-6 -21 -20.5 -31.5t-36.5 -10.5q-23 0 -36.5 11t-13.5 31q0 22 19 42.5t70 55.5v67h-255v265h213v66h-213v248h246v65h-316v-711h242q-36 -26 -50 -51.5t-14 -51.5q0 -41 27.5 -63t77.5 -22q48 0 79 22.5t46 67.5z" />
    <glyph glyph-name="eogonek" unicode="&#x119;" horiz-adv-x="459" 
d="M297 -176q48 0 79 22.5t46 67.5h-65q-6 -21 -20.5 -31.5t-36.5 -10.5q-23 0 -36.5 11t-13.5 31q0 22 19 42.5t70 55.5l-1 1q41 22 59 63.5t18 95.5v21h-71v-26q0 -56 -27 -84t-82 -28q-62 0 -90 34t-28 101v75h298v116q0 89 -43 144.5t-137 55.5q-88 0 -137 -54t-49 -152
v-187q0 -94 44 -145t138 -52q-22 -21 -30.5 -41t-8.5 -41q0 -41 27.5 -63t77.5 -22zM117 377q0 71 29.5 106t88.5 35t85 -33.5t26 -101.5v-58h-229v52z" />
    <glyph glyph-name="Ecaron" unicode="&#x11a;" horiz-adv-x="428" 
d="M69 0zM394 67h-255v265h213v66h-213v248h246v65h-316v-711h325v67zM251 774l100 144h-62l-62 -91l-61 91h-64l99 -144h50z" />
    <glyph glyph-name="ecaron" unicode="&#x11b;" horiz-adv-x="459" 
d="M49 0zM117 377q0 71 29.5 106t88.5 35t85 -33.5t26 -101.5v-58h-229v52zM415 172v21h-71v-26q0 -56 -27 -84t-82 -28q-62 0 -90 34t-28 101v75h298v116q0 89 -43 144.5t-137 55.5q-88 0 -137 -54t-49 -152v-187q0 -95 45 -146t140 -51q67 0 106.5 23t56.5 64
q9 20 13.5 43.5t4.5 50.5zM265 644l100 144h-62l-62 -91l-61 91h-64l99 -144h50z" />
    <glyph glyph-name="Gcircumflex" unicode="&#x11c;" horiz-adv-x="506" 
d="M55 0zM399 0h46v363h-198v-64h127v-89q0 -67 -30 -110t-91 -43q-64 0 -95 38t-31 120v275q0 83 31.5 124t98.5 41q60 0 87 -32t27 -88v-65h74v66q0 89 -48.5 136t-137.5 47q-98 0 -151 -56t-53 -169v-283q0 -112 46 -166.5t134 -54.5q62 0 100.5 32t52.5 96zM320 784h63
l-99 146h-52l-99 -146h63l62 95z" />
    <glyph glyph-name="gcircumflex" unicode="&#x11d;" horiz-adv-x="445" 
d="M31 0zM281 680h63l-99 146h-52l-99 -146h63l62 95zM215 -194q76 0 124 19.5t70 51.5q12 16 17.5 34t5.5 37v2q0 54 -36 86t-116 32h-103q-43 -1 -61 9t-18 30q0 23 23.5 35t83.5 12h19q80 0 127.5 39.5t47.5 115.5v113q0 63 -31.5 98.5t-76.5 42.5l-19 3q70 2 94.5 15
t24.5 47v17h-77v-5q0 -23 -8.5 -33t-29.5 -15q-11 -2 -26 -4.5t-35 -6.5l-17.5 -2.5t-15.5 -3.5q-62 -13 -96 -52.5t-34 -104.5v-110q0 -53 20.5 -85t62.5 -46q-50 -8 -75.5 -30t-25.5 -58t25 -57.5t77 -25.5q-48 -12 -76.5 -38.5t-28.5 -62.5q0 -46 38.5 -72.5t125.5 -26.5
h20zM223 208q-50 0 -75 25t-25 75v110q0 42 17.5 68t51.5 36q8 2 17.5 3t19.5 1q49 0 73.5 -27.5t24.5 -77.5v-112q0 -49 -26.5 -75t-77.5 -26zM200 -134q-50 0 -75 15.5t-25 41.5v2q0 33 30 55t77 26h63q50 0 71.5 -16t21.5 -45v-2q0 -33 -35.5 -55t-102.5 -22h-25z" />
    <glyph glyph-name="Gbreve" unicode="&#x11e;" horiz-adv-x="506" 
d="M55 0zM399 0h46v363h-198v-64h127v-89q0 -67 -30 -110t-91 -43q-64 0 -95 38t-31 120v275q0 83 31.5 124t98.5 41q60 0 87 -32t27 -88v-65h74v66q0 89 -48.5 136t-137.5 47q-98 0 -151 -56t-53 -169v-283q0 -112 46 -166.5t134 -54.5q62 0 100.5 32t52.5 96zM257 782
q69 0 101.5 39t33.5 107h-54q-1 -46 -20 -70t-60 -25q-43 1 -60.5 25t-19.5 70h-54q2 -68 30.5 -107t102.5 -39z" />
    <glyph glyph-name="gbreve" unicode="&#x11f;" horiz-adv-x="445" 
d="M31 0zM215 658q69 0 101.5 39t33.5 107h-54q-1 -46 -20 -70t-60 -25q-43 1 -60.5 25t-19.5 70h-54q2 -68 30.5 -107t102.5 -39zM215 -194q76 0 124 19.5t70 51.5q12 16 17.5 34t5.5 37v2q0 54 -36 86t-116 32h-103q-43 -1 -61 9t-18 30q0 23 23.5 35t83.5 12h19
q80 0 127.5 39.5t47.5 115.5v113q0 63 -31.5 98.5t-76.5 42.5l-19 3q70 2 94.5 15t24.5 47v17h-77v-5q0 -23 -8.5 -33t-29.5 -15q-11 -2 -26 -4.5t-35 -6.5l-17.5 -2.5t-15.5 -3.5q-62 -13 -96 -52.5t-34 -104.5v-110q0 -53 20.5 -85t62.5 -46q-50 -8 -75.5 -30t-25.5 -58
t25 -57.5t77 -25.5q-48 -12 -76.5 -38.5t-28.5 -62.5q0 -46 38.5 -72.5t125.5 -26.5h20zM223 208q-50 0 -75 25t-25 75v110q0 42 17.5 68t51.5 36q8 2 17.5 3t19.5 1q49 0 73.5 -27.5t24.5 -77.5v-112q0 -49 -26.5 -75t-77.5 -26zM200 -134q-50 0 -75 15.5t-25 41.5v2
q0 33 30 55t77 26h63q50 0 71.5 -16t21.5 -45v-2q0 -33 -35.5 -55t-102.5 -22h-25z" />
    <glyph glyph-name="Gdotaccent" unicode="&#x120;" horiz-adv-x="506" 
d="M55 0zM399 0h46v363h-198v-64h127v-89q0 -67 -30 -110t-91 -43q-64 0 -95 38t-31 120v275q0 83 31.5 124t98.5 41q60 0 87 -32t27 -88v-65h74v66q0 89 -48.5 136t-137.5 47q-98 0 -151 -56t-53 -169v-283q0 -112 46 -166.5t134 -54.5q62 0 100.5 32t52.5 96zM258 783
q24 0 36.5 13t12.5 42q0 30 -12.5 43t-35.5 13q-25 0 -38 -13t-13 -43q0 -31 12 -43t38 -12z" />
    <glyph glyph-name="gdotaccent" unicode="&#x121;" horiz-adv-x="445" 
d="M31 0zM229 659q24 0 36.5 13t12.5 42q0 30 -12.5 43t-35.5 13q-25 0 -38 -13t-13 -43q0 -31 12 -43t38 -12zM215 -194q76 0 124 19.5t70 51.5q12 16 17.5 34t5.5 37v2q0 54 -36 86t-116 32h-103q-43 -1 -61 9t-18 30q0 23 23.5 35t83.5 12h19q80 0 127.5 39.5t47.5 115.5
v113q0 63 -31.5 98.5t-76.5 42.5l-19 3q70 2 94.5 15t24.5 47v17h-77v-5q0 -23 -8.5 -33t-29.5 -15q-11 -2 -26 -4.5t-35 -6.5l-17.5 -2.5t-15.5 -3.5q-62 -13 -96 -52.5t-34 -104.5v-110q0 -53 20.5 -85t62.5 -46q-50 -8 -75.5 -30t-25.5 -58t25 -57.5t77 -25.5
q-48 -12 -76.5 -38.5t-28.5 -62.5q0 -46 38.5 -72.5t125.5 -26.5h20zM223 208q-50 0 -75 25t-25 75v110q0 42 17.5 68t51.5 36q8 2 17.5 3t19.5 1q49 0 73.5 -27.5t24.5 -77.5v-112q0 -49 -26.5 -75t-77.5 -26zM200 -134q-50 0 -75 15.5t-25 41.5v2q0 33 30 55t77 26h63
q50 0 71.5 -16t21.5 -45v-2q0 -33 -35.5 -55t-102.5 -22h-25z" />
    <glyph glyph-name="uni0122" unicode="&#x122;" horiz-adv-x="506" 
d="M55 0zM399 0h46v363h-198v-64h127v-89q0 -67 -30 -110t-91 -43q-64 0 -95 38t-31 120v275q0 83 31.5 124t98.5 41q60 0 87 -32t27 -88v-65h74v66q0 89 -48.5 136t-137.5 47q-98 0 -151 -56t-53 -169v-283q0 -112 46 -166.5t134 -54.5q62 0 100.5 32t52.5 96zM220 -254
q43 10 64.5 44t21.5 82q0 37 -11 52.5t-37 15.5q-23 0 -34.5 -11.5t-11.5 -37.5q0 -28 9.5 -36.5t28.5 -8.5q3 0 5.5 0.5t5.5 1.5q-3 -26 -14.5 -42t-30.5 -22z" />
    <glyph glyph-name="uni0123" unicode="&#x123;" horiz-adv-x="445" 
d="M31 0zM224 651q24 0 35.5 12.5t11.5 37.5q0 28 -10 36.5t-28 8.5q-2 0 -5 -0.5t-6 -1.5q3 26 14.5 42t30.5 22l-4 38q-43 -10 -64.5 -44t-21.5 -82q0 -37 11 -53t36 -16zM215 -194q76 0 124 19.5t70 51.5q12 16 17.5 34t5.5 37v2q0 54 -36 86t-116 32h-103q-43 -1 -61 9
t-18 30q0 23 23.5 35t83.5 12h19q80 0 127.5 39.5t47.5 115.5v113q0 63 -31.5 98.5t-76.5 42.5l-19 3q70 2 94.5 15t24.5 47v17h-77v-5q0 -23 -8.5 -33t-29.5 -15q-11 -2 -26 -4.5t-35 -6.5l-17.5 -2.5t-15.5 -3.5q-62 -13 -96 -52.5t-34 -104.5v-110q0 -53 20.5 -85
t62.5 -46q-50 -8 -75.5 -30t-25.5 -58t25 -57.5t77 -25.5q-48 -12 -76.5 -38.5t-28.5 -62.5q0 -46 38.5 -72.5t125.5 -26.5h20zM223 208q-50 0 -75 25t-25 75v110q0 42 17.5 68t51.5 36q8 2 17.5 3t19.5 1q49 0 73.5 -27.5t24.5 -77.5v-112q0 -49 -26.5 -75t-77.5 -26z
M200 -134q-50 0 -75 15.5t-25 41.5v2q0 33 30 55t77 26h63q50 0 71.5 -16t21.5 -45v-2q0 -33 -35.5 -55t-102.5 -22h-25z" />
    <glyph glyph-name="Hcircumflex" unicode="&#x124;" horiz-adv-x="507" 
d="M69 0zM368 0h71v711h-71v-322h-228v322h-71v-711h71v321h228v-321zM315 766h63l-99 146h-52l-99 -146h63l62 95z" />
    <glyph glyph-name="hcircumflex" unicode="&#x125;" horiz-adv-x="475" 
d="M0 0zM132 370q0 68 29 107.5t84 39.5q53 0 75.5 -32.5t22.5 -93.5v-391h71v400q0 86 -36.5 133t-110.5 47q-54 0 -87.5 -29t-47.5 -79v271h-68v-743h68v370zM160 806h63l-99 146h-52l-99 -146h63l62 95z" />
    <glyph glyph-name="Hbar" unicode="&#x126;" horiz-adv-x="522" 
d="M376 371h-229v134h229v-134zM376 0h70v505h67v62h-67v144h-70v-144h-229v144h-71v-144h-66v-62h66v-505h71v307h229v-307z" />
    <glyph glyph-name="hbar" unicode="&#x127;" horiz-adv-x="474" 
d="M132 370q0 68 29 107.5t84 39.5q53 0 75.5 -32.5t22.5 -93.5v-391h71v400q0 86 -36.5 133t-110.5 47q-54 0 -87.5 -29t-47.5 -79v161h79v46h-79v64h-68v-64h-55v-46h55v-633h68v370z" />
    <glyph glyph-name="Itilde" unicode="&#x128;" horiz-adv-x="330" 
d="M19 0zM296 0v67h-97v579h97v65h-262v-65h96v-579h-96v-67h262zM19 777h51q0 29 7 41.5t23 12.5q19 0 36.5 -14.5t38.5 -28.5q10 -7 23 -10.5t28 -3.5q45 0 63.5 29t18.5 80h-50q0 -32 -8 -43.5t-25 -11.5t-34.5 14t-39.5 29q-10 7 -23 10.5t-28 3.5q-43 0 -61.5 -28
t-19.5 -80z" />
    <glyph glyph-name="itilde" unicode="&#x129;" horiz-adv-x="198" 
d="M0 0zM134 0v572h-70v-572h70zM-43 638h51q0 29 7 41.5t23 12.5q19 0 36.5 -14.5t38.5 -28.5q10 -7 23 -10.5t28 -3.5q45 0 63.5 29t18.5 80h-50q0 -32 -8 -43.5t-25 -11.5t-34.5 14t-39.5 29q-10 7 -23 10.5t-28 3.5q-43 0 -61.5 -28t-19.5 -80z" />
    <glyph glyph-name="Imacron" unicode="&#x12a;" horiz-adv-x="330" 
d="M34 0zM296 0v67h-97v579h97v65h-262v-65h96v-579h-96v-67h262zM57 792h220v56h-220v-56z" />
    <glyph glyph-name="imacron" unicode="&#x12b;" horiz-adv-x="198" 
d="M0 0zM134 0v572h-70v-572h70zM-10 647h220v56h-220v-56z" />
    <glyph glyph-name="Ibreve" unicode="&#x12c;" horiz-adv-x="330" 
d="M31 0zM296 0v67h-97v579h97v65h-262v-65h96v-579h-96v-67h262zM164 772q69 0 101.5 39t33.5 107h-54q-1 -46 -20 -70t-60 -25q-43 1 -60.5 25t-19.5 70h-54q2 -68 30.5 -107t102.5 -39z" />
    <glyph glyph-name="ibreve" unicode="&#x12d;" horiz-adv-x="198" 
d="M0 0zM134 0v572h-70v-572h70zM98 634q69 0 101.5 39t33.5 107h-54q-1 -46 -20 -70t-60 -25q-43 1 -60.5 25t-19.5 70h-54q2 -68 30.5 -107t102.5 -39z" />
    <glyph glyph-name="Iogonek" unicode="&#x12e;" horiz-adv-x="330" 
d="M379 -98h-65q-6 -21 -20.5 -31.5t-36.5 -10.5q-23 0 -36.5 11t-13.5 31q0 22 19 42.5t70 55.5v67h-97v579h97v65h-262v-65h96v-579h-96v-67h179q-36 -26 -50 -51.5t-14 -51.5q0 -41 27.5 -63t77.5 -22q48 0 79 22.5t46 67.5z" />
    <glyph glyph-name="iogonek" unicode="&#x12f;" horiz-adv-x="198" 
d="M101 632q24 0 35.5 12.5t11.5 42.5t-11 42t-36 12t-36 -12t-11 -42q0 -31 10.5 -43t36.5 -12zM217 -98h-65q-6 -21 -20.5 -31.5t-36.5 -10.5q-23 0 -36.5 11t-13.5 31q0 22 19 42.5t70 55.5v572h-70v-563q-43 -29 -60 -56.5t-17 -55.5q0 -41 27.5 -63t77.5 -22
q48 0 79 22.5t46 67.5z" />
    <glyph glyph-name="Idotaccent" unicode="&#x130;" horiz-adv-x="330" 
d="M34 0zM296 0v67h-97v579h97v65h-262v-65h96v-579h-96v-67h262zM165 773q24 0 36.5 13t12.5 42q0 30 -12.5 43t-35.5 13q-25 0 -38 -13t-13 -43q0 -31 12 -43t38 -12z" />
    <glyph glyph-name="dotlessi" unicode="&#x131;" horiz-adv-x="198" 
d="M134 0v572h-70v-572h70z" />
    <glyph glyph-name="IJ" unicode="&#x132;" horiz-adv-x="588" 
d="M353 0h19q60 0 93.5 14.5t46.5 50.5q7 18 10.5 43t3.5 57v546h-73v-543q0 -59 -15.5 -80t-65.5 -21h-19v-67zM294 0v67h-95v579h95v65h-260v-65h96v-579h-96v-67h260z" />
    <glyph glyph-name="ij" unicode="&#x133;" horiz-adv-x="393" 
d="M98 633q25 0 36 12.5t11 42.5t-11 42.5t-35 12.5q-25 0 -36 -12.5t-11 -42.5q0 -31 10.5 -43t35.5 -12zM295 633q24 0 35.5 12.5t11.5 42.5t-11 42.5t-36 12.5q-24 0 -35.5 -12.5t-11.5 -42.5q0 -31 11 -43t36 -12zM62 0h72v573q-1 -1 -16.5 -1.5t-19.5 -0.5h-10.5
t-16.5 1q-4 0 -6 0.5t-3 0.5v-573zM105 -169h91q54 0 82.5 12.5t39.5 43.5q6 15 8.5 36.5t2.5 49.5v600q-1 -1 -16 -1.5t-18 -0.5q-4 0 -18.5 0.5t-16.5 1.5v-593q0 -51 -13.5 -66.5t-56.5 -15.5h-85v-67z" />
    <glyph glyph-name="Jcircumflex" unicode="&#x134;" horiz-adv-x="427" 
d="M38 0zM200 -10q83 0 124 45.5t41 140.5v535h-73v-532q0 -64 -21 -92.5t-71 -28.5q-48 0 -68.5 28.5t-20.5 74.5v91h-73v-95q0 -82 41.5 -124.5t120.5 -42.5zM391 774h63l-99 146h-52l-99 -146h63l62 95z" />
    <glyph glyph-name="jcircumflex" unicode="&#x135;" horiz-adv-x="199" 
d="M0 0zM-29 -175h31q54 0 82.5 12.5t39.5 43.5q6 15 8.5 37t2.5 50v604h-70v-597q0 -52 -13 -67.5t-56 -15.5h-25v-67zM162 636h63l-99 146h-52l-99 -146h63l62 95z" />
    <glyph glyph-name="uni0136" unicode="&#x136;" horiz-adv-x="486" 
d="M69 0zM241 372l145 -372h78l-182 452l167 259h-81l-228 -356l-4 -9l2 27v338h-69v-711h69v264l93 141zM217 -237q43 10 64.5 44t21.5 82q0 37 -11 52.5t-37 15.5q-23 0 -34.5 -11.5t-11.5 -37.5q0 -28 9.5 -36.5t28.5 -8.5q3 0 5.5 0.5t5.5 1.5q-3 -26 -14.5 -42
t-30.5 -22z" />
    <glyph glyph-name="uni0137" unicode="&#x137;" horiz-adv-x="443" 
d="M64 0zM352 0h76l-156 362l145 210h-81l-199 -288l-6 -15l1 33v441h-68v-743h68v193l87 126zM198 -238q43 10 64.5 44t21.5 82q0 37 -11 52.5t-37 15.5q-23 0 -34.5 -11.5t-11.5 -37.5q0 -28 9.5 -36.5t28.5 -8.5q3 0 5.5 0.5t5.5 1.5q-3 -26 -14.5 -42t-30.5 -22z" />
    <glyph glyph-name="kgreenlandic" unicode="&#x138;" horiz-adv-x="443" 
d="M352 0h76l-156 362l145 210h-81l-199 -288l-6 -15l1 33v270h-68v-572h68v193l87 126z" />
    <glyph glyph-name="Lacute" unicode="&#x139;" horiz-adv-x="397" 
d="M69 0zM368 0v68h-228v643h-71v-711h299zM73 774h56l121 157h-77z" />
    <glyph glyph-name="lacute" unicode="&#x13a;" horiz-adv-x="198" 
d="M64 0zM134 0v743h-70v-743h70zM70 806h56l121 157h-77z" />
    <glyph glyph-name="uni013B" unicode="&#x13b;" horiz-adv-x="397" 
d="M69 0zM368 0v68h-228v643h-71v-711h299zM184 -244q43 10 64.5 44t21.5 82q0 37 -11 52.5t-37 15.5q-23 0 -34.5 -11.5t-11.5 -37.5q0 -28 9.5 -36.5t28.5 -8.5q3 0 5.5 0.5t5.5 1.5q-3 -26 -14.5 -42t-30.5 -22z" />
    <glyph glyph-name="uni013C" unicode="&#x13c;" horiz-adv-x="198" 
d="M57 0zM134 0v743h-70v-743h70zM65 -251q43 10 64.5 44t21.5 82q0 37 -11 52.5t-37 15.5q-23 0 -34.5 -11.5t-11.5 -37.5q0 -28 9.5 -36.5t28.5 -8.5q3 0 5.5 0.5t5.5 1.5q-3 -26 -14.5 -42t-30.5 -22z" />
    <glyph glyph-name="Lcaron" unicode="&#x13d;" horiz-adv-x="397" 
d="M69 0zM368 0v68h-228v643h-71v-711h299zM252 635h47l48 148h-62z" />
    <glyph glyph-name="lcaron" unicode="&#x13e;" horiz-adv-x="198" 
d="M64 0zM134 0v743h-70v-743h70zM192 652h47l48 148h-62z" />
    <glyph glyph-name="Ldot" unicode="&#x13f;" horiz-adv-x="397" 
d="M368 0v68h-228v643h-71v-711h299zM323 253q24 0 36.5 13t12.5 42q0 30 -12.5 43t-35.5 13q-25 0 -38 -13t-13 -43q0 -31 12 -43t38 -12z" />
    <glyph glyph-name="ldot" unicode="&#x140;" horiz-adv-x="283" 
d="M64 0zM134 0v743h-70v-743h70zM238 218q24 0 36.5 13t12.5 42q0 30 -12.5 43t-35.5 13q-25 0 -38 -13t-13 -43q0 -31 12 -43t38 -12z" />
    <glyph glyph-name="Lslash" unicode="&#x141;" horiz-adv-x="407" 
d="M378 0v68h-228v281l117 36l-16 59l-101 -31v298h-71v-320l-77 -24l17 -58l60 18v-327h299z" />
    <glyph glyph-name="lslash" unicode="&#x142;" horiz-adv-x="213" 
d="M143 0v308l71 23l-13 43l-58 -19v388h-70v-411l-72 -24l13 -43l59 19v-284h70z" />
    <glyph glyph-name="Nacute" unicode="&#x143;" horiz-adv-x="527" 
d="M69 0zM134 495l-11 134l40 -125l234 -504h61v711h-66v-491l11 -118l-40 109l-232 500h-62v-711h65v495zM235 762h56l121 157h-77z" />
    <glyph glyph-name="nacute" unicode="&#x144;" horiz-adv-x="475" 
d="M63 0zM134 370q0 70 28.5 108.5t83.5 38.5q54 0 76.5 -33t22.5 -94v-390h71v399q0 88 -36.5 134.5t-112.5 46.5q-58 0 -92 -30.5t-47 -83.5l-8 106h-57v-572h71v370zM214 642h56l121 157h-77z" />
    <glyph glyph-name="uni0145" unicode="&#x145;" horiz-adv-x="527" 
d="M69 0zM134 495l-11 134l40 -125l234 -504h61v711h-66v-491l11 -118l-40 109l-232 500h-62v-711h65v495zM218 -236q43 10 64.5 44t21.5 82q0 37 -11 52.5t-37 15.5q-23 0 -34.5 -11.5t-11.5 -37.5q0 -28 9.5 -36.5t28.5 -8.5q3 0 5.5 0.5t5.5 1.5q-3 -26 -14.5 -42
t-30.5 -22z" />
    <glyph glyph-name="uni0146" unicode="&#x146;" horiz-adv-x="475" 
d="M63 0zM134 370q0 70 28.5 108.5t83.5 38.5q54 0 76.5 -33t22.5 -94v-390h71v399q0 88 -36.5 134.5t-112.5 46.5q-58 0 -92 -30.5t-47 -83.5l-8 106h-57v-572h71v370zM202 -239q43 10 64.5 44t21.5 82q0 37 -11 52.5t-37 15.5q-23 0 -34.5 -11.5t-11.5 -37.5
q0 -28 9.5 -36.5t28.5 -8.5q3 0 5.5 0.5t5.5 1.5q-3 -26 -14.5 -42t-30.5 -22z" />
    <glyph glyph-name="Ncaron" unicode="&#x147;" horiz-adv-x="527" 
d="M69 0zM134 495l-11 134l40 -125l234 -504h61v711h-66v-491l11 -118l-40 109l-232 500h-62v-711h65v495zM287 763l100 144h-62l-62 -91l-61 91h-64l99 -144h50z" />
    <glyph glyph-name="ncaron" unicode="&#x148;" horiz-adv-x="475" 
d="M63 0zM134 370q0 70 28.5 108.5t83.5 38.5q54 0 76.5 -33t22.5 -94v-390h71v399q0 88 -36.5 134.5t-112.5 46.5q-58 0 -92 -30.5t-47 -83.5l-8 106h-57v-572h71v370zM266 642l100 144h-62l-62 -91l-61 91h-64l99 -144h50z" />
    <glyph glyph-name="Eng" unicode="&#x14a;" horiz-adv-x="526" 
d="M326 -174q53 0 81.5 12.5t39.5 42.5q5 16 8 37t3 49v744h-66v-492l11 -116l-35 97l-237 511h-62v-711h65v497l-11 132l35 -110l234 -508v-36q0 -53 -14.5 -68t-58.5 -15h-25v-66h32z" />
    <glyph glyph-name="eng" unicode="&#x14b;" horiz-adv-x="476" 
d="M281 -175q54 0 83 12t41 43q5 15 8 37t3 51v431q0 88 -36.5 134.5t-112.5 46.5q-58 0 -92 -30.5t-47 -83.5l-8 106h-57v-572h71v370q0 70 28.5 108.5t83.5 38.5q54 0 76.5 -33t22.5 -94v-415q0 -52 -13.5 -67.5t-55.5 -15.5h-25v-67h30z" />
    <glyph glyph-name="Omacron" unicode="&#x14c;" horiz-adv-x="505" 
d="M55 0zM252 -10q95 0 147 54t52 167v283q0 110 -51.5 167t-146.5 57q-94 0 -146 -57t-52 -167v-283q0 -114 51.5 -167.5t145.5 -53.5zM253 57q-64 0 -94.5 39.5t-30.5 118.5v277q0 78 30 120t94 42q65 0 95 -41.5t30 -120.5v-277q0 -79 -31 -118.5t-93 -39.5zM144 795h220
v56h-220v-56z" />
    <glyph glyph-name="omacron" unicode="&#x14d;" horiz-adv-x="468" 
d="M49 0zM233 -9q86 0 135.5 49.5t49.5 148.5v188q0 102 -49.5 153t-135.5 51q-85 0 -134.5 -50.5t-49.5 -153.5v-188q0 -100 47.5 -149t136.5 -49zM233 55q-57 0 -84.5 35.5t-27.5 100.5v185q0 71 28 106.5t84 35.5q57 0 85 -35.5t28 -106.5v-185q0 -66 -28 -101t-85 -35z
M126 654h220v56h-220v-56z" />
    <glyph glyph-name="Obreve" unicode="&#x14e;" horiz-adv-x="505" 
d="M55 0zM252 -10q95 0 147 54t52 167v283q0 110 -51.5 167t-146.5 57q-94 0 -146 -57t-52 -167v-283q0 -114 51.5 -167.5t145.5 -53.5zM253 57q-64 0 -94.5 39.5t-30.5 118.5v277q0 78 30 120t94 42q65 0 95 -41.5t30 -120.5v-277q0 -79 -31 -118.5t-93 -39.5zM252 782
q69 0 101.5 39t33.5 107h-54q-1 -46 -20 -70t-60 -25q-43 1 -60.5 25t-19.5 70h-54q2 -68 30.5 -107t102.5 -39z" />
    <glyph glyph-name="obreve" unicode="&#x14f;" horiz-adv-x="468" 
d="M49 0zM233 -9q86 0 135.5 49.5t49.5 148.5v188q0 102 -49.5 153t-135.5 51q-85 0 -134.5 -50.5t-49.5 -153.5v-188q0 -100 47.5 -149t136.5 -49zM233 55q-57 0 -84.5 35.5t-27.5 100.5v185q0 71 28 106.5t84 35.5q57 0 85 -35.5t28 -106.5v-185q0 -66 -28 -101t-85 -35z
M234 641q69 0 101.5 39t33.5 107h-54q-1 -46 -20 -70t-60 -25q-43 1 -60.5 25t-19.5 70h-54q2 -68 30.5 -107t102.5 -39z" />
    <glyph glyph-name="Ohungarumlaut" unicode="&#x150;" horiz-adv-x="505" 
d="M55 0zM252 -10q95 0 147 54t52 167v283q0 110 -51.5 167t-146.5 57q-94 0 -146 -57t-52 -167v-283q0 -114 51.5 -167.5t145.5 -53.5zM253 57q-64 0 -94.5 39.5t-30.5 118.5v277q0 78 30 120t94 42q65 0 95 -41.5t30 -120.5v-277q0 -79 -31 -118.5t-93 -39.5zM328 931h-74
l-87 -147h52zM453 931h-75l-92 -147h52z" />
    <glyph glyph-name="ohungarumlaut" unicode="&#x151;" horiz-adv-x="468" 
d="M49 0zM233 -9q86 0 135.5 49.5t49.5 148.5v188q0 102 -49.5 153t-135.5 51q-85 0 -134.5 -50.5t-49.5 -153.5v-188q0 -100 47.5 -149t136.5 -49zM233 55q-57 0 -84.5 35.5t-27.5 100.5v185q0 71 28 106.5t84 35.5q57 0 85 -35.5t28 -106.5v-185q0 -66 -28 -101t-85 -35z
M310 790h-74l-87 -147h52zM435 790h-75l-92 -147h52z" />
    <glyph glyph-name="OE" unicode="&#x152;" horiz-adv-x="734" 
d="M253 57q-64 0 -94.5 39.5t-30.5 118.5v277q0 78 30 120t94 42q65 0 95 -41.5t30 -120.5v-277q0 -79 -31 -118.5t-93 -39.5zM375 0h325v67h-255v265h213v66h-213v248h246v65h-316v-78q-15 41 -46.5 63t-87.5 22q-86 0 -136 -57t-50 -167v-283q0 -114 49.5 -167.5
t133.5 -53.5q57 0 89.5 21.5t47.5 63.5v-75z" />
    <glyph glyph-name="oe" unicode="&#x153;" horiz-adv-x="761" 
d="M233 55q-57 0 -84.5 35.5t-27.5 100.5v185q0 71 28 106.5t84 35.5q57 0 85 -35.5t28 -106.5v-185q0 -66 -28 -101t-85 -35zM415 377q0 71 31 106t89 35q57 0 85 -33.5t28 -101.5v-61h-233v55zM717 168v25h-72v-27q0 -55 -28 -83t-85 -28q-60 0 -88.5 35t-28.5 102v71h302
v118q0 89 -43.5 144.5t-134.5 55.5q-61 0 -99.5 -24t-57.5 -70q-17 47 -55 70.5t-97 23.5q-83 0 -132 -50.5t-49 -153.5v-188q0 -100 46 -149t134 -49q58 0 96 22t55 65q17 -42 55 -64.5t102 -22.5q90 0 135 48t45 129z" />
    <glyph glyph-name="Racute" unicode="&#x154;" horiz-adv-x="482" 
d="M69 0zM245 648q62 0 88 -27.5t26 -80.5v-63q0 -57 -28.5 -86t-86.5 -29h-105v286h106zM243 299q61 0 84 -24t23 -79v-152q0 -13 2.5 -25.5t8.5 -18.5h79q-8 8 -12.5 18.5t-4.5 24.5v155q0 60 -19.5 91.5t-64.5 43.5q45 16 68.5 50.5t23.5 90.5v71q0 80 -42.5 123
t-140.5 43h-179v-711h70v299h104zM210 774h56l121 157h-77z" />
    <glyph glyph-name="racute" unicode="&#x155;" horiz-adv-x="307" 
d="M63 0zM133 0v343q0 81 26 118.5t101 37.5h27v76h-18q-66 0 -98.5 -25t-41.5 -89l-12 111h-54v-572h70zM135 629h56l121 157h-77z" />
    <glyph glyph-name="uni0156" unicode="&#x156;" horiz-adv-x="482" 
d="M69 0zM245 648q62 0 88 -27.5t26 -80.5v-63q0 -57 -28.5 -86t-86.5 -29h-105v286h106zM243 299q61 0 84 -24t23 -79v-152q0 -13 2.5 -25.5t8.5 -18.5h79q-8 8 -12.5 18.5t-4.5 24.5v155q0 60 -19.5 91.5t-64.5 43.5q45 16 68.5 50.5t23.5 90.5v71q0 80 -42.5 123
t-140.5 43h-179v-711h70v299h104zM208 -238q43 10 64.5 44t21.5 82q0 37 -11 52.5t-37 15.5q-23 0 -34.5 -11.5t-11.5 -37.5q0 -28 9.5 -36.5t28.5 -8.5q3 0 5.5 0.5t5.5 1.5q-3 -26 -14.5 -42t-30.5 -22z" />
    <glyph glyph-name="uni0157" unicode="&#x157;" horiz-adv-x="307" 
d="M51 0zM133 0v343q0 81 26 118.5t101 37.5h27v76h-18q-66 0 -98.5 -25t-41.5 -89l-12 111h-54v-572h70zM59 -251q43 10 64.5 44t21.5 82q0 37 -11 52.5t-37 15.5q-23 0 -34.5 -11.5t-11.5 -37.5q0 -28 9.5 -36.5t28.5 -8.5q3 0 5.5 0.5t5.5 1.5q-3 -26 -14.5 -42
t-30.5 -22z" />
    <glyph glyph-name="Rcaron" unicode="&#x158;" horiz-adv-x="482" 
d="M69 0zM245 648q62 0 88 -27.5t26 -80.5v-63q0 -57 -28.5 -86t-86.5 -29h-105v286h106zM243 299q61 0 84 -24t23 -79v-152q0 -13 2.5 -25.5t8.5 -18.5h79q-8 8 -12.5 18.5t-4.5 24.5v155q0 60 -19.5 91.5t-64.5 43.5q45 16 68.5 50.5t23.5 90.5v71q0 80 -42.5 123
t-140.5 43h-179v-711h70v299h104zM262 774l100 144h-62l-62 -91l-61 91h-64l99 -144h50z" />
    <glyph glyph-name="rcaron" unicode="&#x159;" horiz-adv-x="307" 
d="M38 0zM133 0v343q0 81 26 118.5t101 37.5h27v76h-18q-66 0 -98.5 -25t-41.5 -89l-12 111h-54v-572h70zM187 629l100 144h-62l-62 -91l-61 91h-64l99 -144h50z" />
    <glyph glyph-name="Sacute" unicode="&#x15a;" horiz-adv-x="455" 
d="M39 0zM234 -9q89 0 136 49.5t47 124.5v36q0 57 -23.5 92t-59.5 57q-18 11 -37 20.5t-38 18.5q-35 16 -66.5 33t-51.5 41q-10 13 -15 29t-5 35v21q0 47 26.5 78t79.5 31q54 0 80.5 -26.5t26.5 -79.5v-67h71v71q0 74 -43.5 118.5t-134.5 44.5q-88 0 -132.5 -48t-44.5 -121
v-25q0 -56 23 -90t59 -56q18 -10 36.5 -19.5t37.5 -18.5q36 -16 68 -33.5t52 -43.5q10 -13 15 -29.5t5 -37.5v-31q0 -46 -26.5 -77.5t-85.5 -31.5q-63 0 -92 31.5t-29 86.5v81h-74v-82q0 -88 45.5 -135t149.5 -47zM194 784h56l121 157h-77z" />
    <glyph glyph-name="sacute" unicode="&#x15b;" horiz-adv-x="424" 
d="M37 0zM215 -9q86 0 129 42.5t43 115.5v18q0 50 -22 79.5t-56 46.5q-17 9 -34.5 16.5t-35.5 14.5q-31 12 -59 24t-46 30q-8 9 -12.5 20.5t-4.5 26.5v10q0 37 23 61t71 24q50 0 73 -23t23 -64v-42h70v43q0 68 -42 107.5t-124 39.5q-80 0 -122 -41t-42 -106v-13
q0 -47 21.5 -75.5t54.5 -45.5q17 -9 34 -16t35 -14q32 -12 60.5 -24.5t46.5 -32.5q9 -9 13.5 -22t4.5 -29v-13q0 -45 -25 -70t-76 -25q-55 0 -80 25.5t-25 73.5v51h-74v-55q0 -78 43.5 -118t134.5 -40zM183 644h56l121 157h-77z" />
    <glyph glyph-name="Scircumflex" unicode="&#x15c;" horiz-adv-x="455" 
d="M39 0zM234 -9q89 0 136 49.5t47 124.5v36q0 57 -23.5 92t-59.5 57q-18 11 -37 20.5t-38 18.5q-35 16 -66.5 33t-51.5 41q-10 13 -15 29t-5 35v21q0 47 26.5 78t79.5 31q54 0 80.5 -26.5t26.5 -79.5v-67h71v71q0 74 -43.5 118.5t-134.5 44.5q-88 0 -132.5 -48t-44.5 -121
v-25q0 -56 23 -90t59 -56q18 -10 36.5 -19.5t37.5 -18.5q36 -16 68 -33.5t52 -43.5q10 -13 15 -29.5t5 -37.5v-31q0 -46 -26.5 -77.5t-85.5 -31.5q-63 0 -92 31.5t-29 86.5v81h-74v-82q0 -88 45.5 -135t149.5 -47zM293 783h63l-99 146h-52l-99 -146h63l62 95z" />
    <glyph glyph-name="scircumflex" unicode="&#x15d;" horiz-adv-x="424" 
d="M37 0zM215 -9q86 0 129 42.5t43 115.5v18q0 50 -22 79.5t-56 46.5q-17 9 -34.5 16.5t-35.5 14.5q-31 12 -59 24t-46 30q-8 9 -12.5 20.5t-4.5 26.5v10q0 37 23 61t71 24q50 0 73 -23t23 -64v-42h70v43q0 68 -42 107.5t-124 39.5q-80 0 -122 -41t-42 -106v-13
q0 -47 21.5 -75.5t54.5 -45.5q17 -9 34 -16t35 -14q32 -12 60.5 -24.5t46.5 -32.5q9 -9 13.5 -22t4.5 -29v-13q0 -45 -25 -70t-76 -25q-55 0 -80 25.5t-25 73.5v51h-74v-55q0 -78 43.5 -118t134.5 -40zM274 644h63l-99 146h-52l-99 -146h63l62 95z" />
    <glyph glyph-name="uni015E" unicode="&#x15e;" horiz-adv-x="455" 
d="M237 -228q54 0 85.5 24t31.5 68q0 36 -25 56.5t-72 21.5v50q78 7 119 55t41 118v36q0 57 -23.5 92t-59.5 57q-18 11 -37 20.5t-38 18.5q-35 16 -66.5 33t-51.5 41q-10 13 -15 29t-5 35v21q0 47 26.5 78t79.5 31q54 0 80.5 -26.5t26.5 -79.5v-67h71v71q0 74 -43.5 118.5
t-134.5 44.5q-88 0 -132.5 -48t-44.5 -121v-25q0 -56 23 -90t59 -56q18 -10 36.5 -19.5t37.5 -18.5q36 -16 68 -33.5t52 -43.5q10 -13 15 -29.5t5 -37.5v-31q0 -46 -26.5 -77.5t-85.5 -31.5q-63 0 -92 31.5t-29 86.5v81h-74v-82q0 -82 38.5 -128t125.5 -53v-92h32
q33 0 47 -9.5t14 -28.5q0 -22 -14.5 -32.5t-44.5 -10.5q-28 0 -44 12t-19 36h-63q7 -46 35.5 -70.5t90.5 -24.5z" />
    <glyph glyph-name="uni015F" unicode="&#x15f;" horiz-adv-x="424" 
d="M226 -228q54 0 85.5 24t31.5 68q0 36 -25 56.5t-72 21.5v51q71 8 106 48.5t35 107.5v18q0 50 -22 79.5t-56 46.5q-17 9 -34.5 16.5t-35.5 14.5q-31 12 -59 24t-46 30q-8 9 -12.5 20.5t-4.5 26.5v10q0 37 23 61t71 24q50 0 73 -23t23 -64v-42h70v43q0 68 -42 107.5
t-124 39.5q-80 0 -122 -41t-42 -106v-13q0 -47 21.5 -75.5t54.5 -45.5q17 -9 34 -16t35 -14q32 -12 60.5 -24.5t46.5 -32.5q9 -9 13.5 -22t4.5 -29v-13q0 -45 -25 -70t-76 -25q-55 0 -80 25.5t-25 73.5v51h-74v-55q0 -74 39 -113.5t116 -43.5v-92h32q33 0 47 -9.5t14 -28.5
q0 -22 -14.5 -32.5t-44.5 -10.5q-28 0 -44 12t-19 36h-63q7 -46 35.5 -70.5t90.5 -24.5z" />
    <glyph glyph-name="Scaron" unicode="&#x160;" horiz-adv-x="455" 
d="M39 0zM234 -9q89 0 136 49.5t47 124.5v36q0 57 -23.5 92t-59.5 57q-18 11 -37 20.5t-38 18.5q-35 16 -66.5 33t-51.5 41q-10 13 -15 29t-5 35v21q0 47 26.5 78t79.5 31q54 0 80.5 -26.5t26.5 -79.5v-67h71v71q0 74 -43.5 118.5t-134.5 44.5q-88 0 -132.5 -48t-44.5 -121
v-25q0 -56 23 -90t59 -56q18 -10 36.5 -19.5t37.5 -18.5q36 -16 68 -33.5t52 -43.5q10 -13 15 -29.5t5 -37.5v-31q0 -46 -26.5 -77.5t-85.5 -31.5q-63 0 -92 31.5t-29 86.5v81h-74v-82q0 -88 45.5 -135t149.5 -47zM252 784l100 144h-62l-62 -91l-61 91h-64l99 -144h50z" />
    <glyph glyph-name="scaron" unicode="&#x161;" horiz-adv-x="424" 
d="M37 0zM215 -9q86 0 129 42.5t43 115.5v18q0 50 -22 79.5t-56 46.5q-17 9 -34.5 16.5t-35.5 14.5q-31 12 -59 24t-46 30q-8 9 -12.5 20.5t-4.5 26.5v10q0 37 23 61t71 24q50 0 73 -23t23 -64v-42h70v43q0 68 -42 107.5t-124 39.5q-80 0 -122 -41t-42 -106v-13
q0 -47 21.5 -75.5t54.5 -45.5q17 -9 34 -16t35 -14q32 -12 60.5 -24.5t46.5 -32.5q9 -9 13.5 -22t4.5 -29v-13q0 -45 -25 -70t-76 -25q-55 0 -80 25.5t-25 73.5v51h-74v-55q0 -78 43.5 -118t134.5 -40zM234 644l100 144h-62l-62 -91l-61 91h-64l99 -144h50z" />
    <glyph glyph-name="uni0162" unicode="&#x162;" horiz-adv-x="394" 
d="M24 0zM370 645v66h-346v-66h136v-645h71v645h139zM162 -244q43 10 64.5 44t21.5 82q0 37 -11 52.5t-37 15.5q-23 0 -34.5 -11.5t-11.5 -37.5q0 -28 9.5 -36.5t28.5 -8.5q3 0 5.5 0.5t5.5 1.5q-3 -26 -14.5 -42t-30.5 -22z" />
    <glyph glyph-name="uni0163" unicode="&#x163;" horiz-adv-x="300" 
d="M16 0zM273 68h-27q-35 0 -54.5 7.5t-27.5 30.5q-3 12 -5 29.5t-2 40.5v331h116v65h-116v115h-52q-1 -20 -3 -41t-6 -34q-4 -20 -11 -28t-22 -11q-7 -3 -22 -4.5t-25 -1.5v-60h75v-337q0 -68 12.5 -105t43.5 -51q15 -7 36.5 -10.5t48.5 -3.5h41v68zM148 -249
q43 10 64.5 44t21.5 82q0 37 -11 52.5t-37 15.5q-23 0 -34.5 -11.5t-11.5 -37.5q0 -28 9.5 -36.5t28.5 -8.5q3 0 5.5 0.5t5.5 1.5q-3 -26 -14.5 -42t-30.5 -22z" />
    <glyph glyph-name="Tcaron" unicode="&#x164;" horiz-adv-x="394" 
d="M24 0zM370 645v66h-346v-66h136v-645h71v645h139zM221 774l100 144h-62l-62 -91l-61 91h-64l99 -144h50z" />
    <glyph glyph-name="tcaron" unicode="&#x165;" horiz-adv-x="298" 
d="M16 0zM273 68h-27q-35 0 -54.5 7.5t-27.5 30.5q-3 12 -5 29.5t-2 40.5v331h116v65h-116v115h-52q-1 -20 -3 -41t-6 -34q-4 -20 -11 -28t-22 -11q-7 -3 -22 -4.5t-25 -1.5v-60h75v-337q0 -68 12.5 -105t43.5 -51q15 -7 36.5 -10.5t48.5 -3.5h41v68zM215 649h47l48 148h-62
z" />
    <glyph glyph-name="Tbar" unicode="&#x166;" horiz-adv-x="394" 
d="M312 324v62h-81v259h139v66h-346v-66h136v-259h-82v-62h82v-324h71v324h81z" />
    <glyph glyph-name="tbar" unicode="&#x167;" horiz-adv-x="298" 
d="M273 68h-27q-35 0 -54.5 7.5t-27.5 30.5q-3 12 -5 29.5t-2 40.5v91h75v57h-75v183h116v65h-116v115h-52q-1 -20 -3 -41t-6 -34q-4 -20 -11 -28t-22 -11q-7 -3 -22 -4.5t-25 -1.5v-60h75v-183h-61v-57h61v-97q0 -68 12.5 -105t43.5 -51q15 -7 36.5 -10.5t48.5 -3.5h41v68z
" />
    <glyph glyph-name="Utilde" unicode="&#x168;" horiz-adv-x="492" 
d="M63 0zM246 -10q91 0 137 52t46 161v508h-73v-505q0 -77 -26 -112t-84 -35t-84 35.5t-26 111.5v505h-73v-508q0 -109 44.5 -161t138.5 -52zM99 771h51q0 29 7 41.5t23 12.5q19 0 36.5 -14.5t38.5 -28.5q10 -7 23 -10.5t28 -3.5q45 0 63.5 29t18.5 80h-50q0 -32 -8 -43.5
t-25 -11.5t-34.5 14t-39.5 29q-10 7 -23 10.5t-28 3.5q-43 0 -61.5 -28t-19.5 -80z" />
    <glyph glyph-name="utilde" unicode="&#x169;" horiz-adv-x="463" 
d="M60 0zM343 0h57v572h-71v-369q0 -69 -27 -108.5t-78 -39.5q-50 0 -71.5 33t-21.5 92v392h-71v-402q0 -86 35 -132.5t108 -46.5q54 0 86.5 30.5t44.5 83.5zM90 635h51q0 29 7 41.5t23 12.5q19 0 36.5 -14.5t38.5 -28.5q10 -7 23 -10.5t28 -3.5q45 0 63.5 29t18.5 80h-50
q0 -32 -8 -43.5t-25 -11.5t-34.5 14t-39.5 29q-10 7 -23 10.5t-28 3.5q-43 0 -61.5 -28t-19.5 -80z" />
    <glyph glyph-name="Umacron" unicode="&#x16a;" horiz-adv-x="492" 
d="M63 0zM246 -10q91 0 137 52t46 161v508h-73v-505q0 -77 -26 -112t-84 -35t-84 35.5t-26 111.5v505h-73v-508q0 -109 44.5 -161t138.5 -52zM135 779h220v56h-220v-56z" />
    <glyph glyph-name="umacron" unicode="&#x16b;" horiz-adv-x="463" 
d="M60 0zM343 0h57v572h-71v-369q0 -69 -27 -108.5t-78 -39.5q-50 0 -71.5 33t-21.5 92v392h-71v-402q0 -86 35 -132.5t108 -46.5q54 0 86.5 30.5t44.5 83.5zM119 641h220v56h-220v-56z" />
    <glyph glyph-name="Ubreve" unicode="&#x16c;" horiz-adv-x="492" 
d="M63 0zM246 -10q91 0 137 52t46 161v508h-73v-505q0 -77 -26 -112t-84 -35t-84 35.5t-26 111.5v505h-73v-508q0 -109 44.5 -161t138.5 -52zM244 766q69 0 101.5 39t33.5 107h-54q-1 -46 -20 -70t-60 -25q-43 1 -60.5 25t-19.5 70h-54q2 -68 30.5 -107t102.5 -39z" />
    <glyph glyph-name="ubreve" unicode="&#x16d;" horiz-adv-x="463" 
d="M60 0zM343 0h57v572h-71v-369q0 -69 -27 -108.5t-78 -39.5q-50 0 -71.5 33t-21.5 92v392h-71v-402q0 -86 35 -132.5t108 -46.5q54 0 86.5 30.5t44.5 83.5zM230 628q69 0 101.5 39t33.5 107h-54q-1 -46 -20 -70t-60 -25q-43 1 -60.5 25t-19.5 70h-54q2 -68 30.5 -107
t102.5 -39z" />
    <glyph glyph-name="Uring" unicode="&#x16e;" horiz-adv-x="492" 
d="M63 0zM246 -10q91 0 137 52t46 161v508h-73v-505q0 -77 -26 -112t-84 -35t-84 35.5t-26 111.5v505h-73v-508q0 -109 44.5 -161t138.5 -52zM244 752q44 0 71.5 25.5t27.5 70.5q0 46 -27.5 71t-71.5 25q-43 0 -70.5 -26t-27.5 -70q0 -46 27.5 -71t70.5 -25zM244 802
q-22 0 -33.5 12.5t-11.5 33.5q0 22 12.5 35t32.5 13q21 0 34 -13t13 -35t-14 -34t-33 -12z" />
    <glyph glyph-name="uring" unicode="&#x16f;" horiz-adv-x="463" 
d="M60 0zM343 0h57v572h-71v-369q0 -69 -27 -108.5t-78 -39.5q-50 0 -71.5 33t-21.5 92v392h-71v-402q0 -86 35 -132.5t108 -46.5q54 0 86.5 30.5t44.5 83.5zM230 629q44 0 71.5 25.5t27.5 70.5q0 46 -27.5 71t-71.5 25q-43 0 -70.5 -26t-27.5 -70q0 -46 27.5 -71t70.5 -25z
M230 679q-22 0 -33.5 12.5t-11.5 33.5q0 22 12.5 35t32.5 13q21 0 34 -13t13 -35t-14 -34t-33 -12z" />
    <glyph glyph-name="Uhungarumlaut" unicode="&#x170;" horiz-adv-x="492" 
d="M63 0zM246 -10q91 0 137 52t46 161v508h-73v-505q0 -77 -26 -112t-84 -35t-84 35.5t-26 111.5v505h-73v-508q0 -109 44.5 -161t138.5 -52zM319 915h-74l-87 -147h52zM444 915h-75l-92 -147h52z" />
    <glyph glyph-name="uhungarumlaut" unicode="&#x171;" horiz-adv-x="463" 
d="M60 0zM343 0h57v572h-71v-369q0 -69 -27 -108.5t-78 -39.5q-50 0 -71.5 33t-21.5 92v392h-71v-402q0 -86 35 -132.5t108 -46.5q54 0 86.5 30.5t44.5 83.5zM300 777h-74l-87 -147h52zM425 777h-75l-92 -147h52z" />
    <glyph glyph-name="Uogonek" unicode="&#x172;" horiz-adv-x="492" 
d="M290 -182q48 0 79 22.5t46 67.5h-65q-6 -21 -20.5 -31.5t-36.5 -10.5q-23 0 -36.5 11t-13.5 31q0 22 18.5 42t67.5 54q50 20 75 69t25 130v508h-73v-505q0 -77 -26 -112t-84 -35t-84 35.5t-26 111.5v505h-73v-508q0 -104 40.5 -156.5t125.5 -56.5q-24 -22 -34 -43.5
t-10 -43.5q0 -41 27.5 -63t77.5 -22z" />
    <glyph glyph-name="uogonek" unicode="&#x173;" horiz-adv-x="463" 
d="M483 -98h-65q-6 -21 -20.5 -31.5t-36.5 -10.5q-23 0 -36.5 11t-13.5 31q0 22 19 42.5t70 55.5v572h-71v-369q0 -69 -27 -108.5t-78 -39.5q-50 0 -71.5 33t-21.5 92v392h-71v-402q0 -86 35 -132.5t108 -46.5q54 0 86.5 30.5t44.5 83.5l8 -88q-50 -32 -69.5 -61t-19.5 -59
q0 -41 27.5 -63t77.5 -22q48 0 79 22.5t46 67.5z" />
    <glyph glyph-name="Wcircumflex" unicode="&#x174;" horiz-adv-x="682" 
d="M31 0zM331 541l7 84l7 -83l115 -542h65l128 711h-68l-89 -520l-8 -121l-10 112l-115 529h-49l-122 -529l-12 -102l-3 111l-77 520h-69l111 -711h64zM401 774h63l-99 146h-52l-99 -146h63l62 95z" />
    <glyph glyph-name="wcircumflex" unicode="&#x175;" horiz-adv-x="632" 
d="M21 0zM303 403l10 85l9 -83l96 -405h67l126 572h-68l-85 -414l-11 -87l-12 89l-100 412h-44l-106 -411l-14 -86l-8 84l-73 413h-69l108 -572h69zM372 636h63l-99 146h-52l-99 -146h63l62 95z" />
    <glyph glyph-name="Ycircumflex" unicode="&#x176;" horiz-adv-x="432" 
d="M15 0zM249 0v257l168 454h-76l-117 -340l-10 -54l-10 54l-113 340h-76l161 -455v-256h73zM282 769h63l-99 146h-52l-99 -146h63l62 95z" />
    <glyph glyph-name="ycircumflex" unicode="&#x177;" horiz-adv-x="425" 
d="M22 0zM79 -163q52 0 81.5 10t47.5 39q8 14 16.5 35t16.5 49l166 602h-72l-107 -421l-10 -70l-9 67l-115 424h-72l162 -562l-8 -31q-10 -33 -21 -49.5t-29 -21.5q-9 -2 -21.5 -3.5t-28.5 -1.5h-35v-66h38zM276 630h63l-99 146h-52l-99 -146h63l62 95z" />
    <glyph glyph-name="Ydieresis" unicode="&#x178;" horiz-adv-x="432" 
d="M15 0zM249 0v257l168 454h-76l-117 -340l-10 -54l-10 54l-113 340h-76l161 -455v-256h73zM287 769q21 0 32 11.5t11 38.5q0 26 -10.5 37.5t-32.5 11.5t-33.5 -11.5t-11.5 -37.5q0 -28 10.5 -39t34.5 -11zM150 769q23 0 34 11.5t11 38.5q0 26 -10.5 37.5t-33.5 11.5
q-22 0 -33 -11.5t-11 -37.5q0 -28 10.5 -39t32.5 -11z" />
    <glyph glyph-name="Zacute" unicode="&#x179;" horiz-adv-x="425" 
d="M35 0zM388 0v69h-271l267 578v64h-328v-67h252l-273 -582v-62h353zM187 774h56l121 157h-77z" />
    <glyph glyph-name="zacute" unicode="&#x17a;" horiz-adv-x="388" 
d="M31 0zM31 -1l327 1v65h-246l246 448v59h-312v-64h235l-250 -453v-56zM173 636h56l121 157h-77z" />
    <glyph glyph-name="Zdotaccent" unicode="&#x17b;" horiz-adv-x="425" 
d="M35 0zM388 0v69h-271l267 578v64h-328v-67h252l-273 -582v-62h353zM215 773q24 0 36.5 13t12.5 42q0 30 -12.5 43t-35.5 13q-25 0 -38 -13t-13 -43q0 -31 12 -43t38 -12z" />
    <glyph glyph-name="zdotaccent" unicode="&#x17c;" horiz-adv-x="388" 
d="M31 0zM31 -1l327 1v65h-246l246 448v59h-312v-64h235l-250 -453v-56zM201 635q24 0 36.5 13t12.5 42q0 30 -12.5 43t-35.5 13q-25 0 -38 -13t-13 -43q0 -31 12 -43t38 -12z" />
    <glyph glyph-name="Zcaron" unicode="&#x17d;" horiz-adv-x="425" 
d="M35 0zM388 0v69h-271l267 578v64h-328v-67h252l-273 -582v-62h353zM239 774l100 144h-62l-62 -91l-61 91h-64l99 -144h50z" />
    <glyph glyph-name="zcaron" unicode="&#x17e;" horiz-adv-x="388" 
d="M31 0zM31 -1l327 1v65h-246l246 448v59h-312v-64h235l-250 -453v-56zM225 636l100 144h-62l-62 -91l-61 91h-64l99 -144h50z" />
    <glyph glyph-name="uni0192" unicode="&#x192;" horiz-adv-x="302" 
d="M182 29v306h100v63h-100v217q0 42 6 63.5t22 29.5q8 3 19.5 5t26.5 2h26v62h-34q-74 0 -104.5 -33t-30.5 -122v-224h-94v-63h94v-298q0 -39 -5.5 -58.5t-21.5 -25.5q-8 -4 -19 -5.5t-26 -1.5h-33v-66h40q54 0 83 13t40 45q5 16 8 39t3 52z" />
    <glyph glyph-name="Aringacute" unicode="&#x1fa;" horiz-adv-x="467" 
d="M204 898h56l121 157h-77zM229 711q-22 0 -33.5 12.5t-11.5 33.5q0 22 12.5 35t32.5 13q21 0 34 -13t13 -35t-14 -34t-33 -12zM220 549l12 100l11 -99l78 -330h-175zM131 154h206l36 -154h72l-168 671q26 11 38.5 32.5t12.5 53.5q0 46 -27.5 71t-71.5 25q-43 0 -70.5 -26
t-27.5 -70q0 -33 14.5 -55t39.5 -33l-162 -669h73z" />
    <glyph glyph-name="aringacute" unicode="&#x1fb;" horiz-adv-x="462" 
d="M39 0zM205 51q-43 0 -67.5 23.5t-24.5 64.5v9q0 30 9 52t24 35q16 15 36.5 26.5t59.5 24.5q38 14 60 25.5t32 29.5v-119q0 -48 -15 -86.5t-44 -61.5q-14 -12 -31.5 -17.5t-38.5 -5.5zM346 0h55v424q0 73 -40.5 114t-129.5 41q-88 0 -133.5 -42.5t-45.5 -113.5v-57h69v54
q0 48 29 74.5t81 26.5q53 0 78 -24t25 -68v-6q0 -37 -27.5 -55t-84.5 -38q-51 -19 -78.5 -30.5t-49.5 -29.5q-24 -19 -39.5 -49t-15.5 -72v-18q0 -67 36.5 -103t104.5 -36q58 0 97.5 31.5t57.5 86.5zM232 628q44 0 71.5 25.5t27.5 70.5q0 46 -27.5 71t-71.5 25
q-43 0 -70.5 -26t-27.5 -70q0 -46 27.5 -71t70.5 -25zM232 678q-22 0 -33.5 12.5t-11.5 33.5q0 22 12.5 35t32.5 13q21 0 34 -13t13 -35t-14 -34t-33 -12zM205 862h56l121 157h-77z" />
    <glyph glyph-name="AEacute" unicode="&#x1fc;" horiz-adv-x="671" 
d="M12 0zM269 548l18 94l1 -94l39 -330h-168zM353 0h284v67h-226l-31 259h214v66h-222l-30 254h285v65h-369l-246 -711h75l52 156h195zM275 774h56l121 157h-77z" />
    <glyph glyph-name="aeacute" unicode="&#x1fd;" horiz-adv-x="747" 
d="M39 0zM401 377q0 71 31 106t89 35q57 0 85 -33.5t28 -101.5v-61h-233v55zM203 51q-42 0 -65.5 23t-23.5 67v7q0 30 8.5 51t24.5 37q16 15 36 26t59 24q38 14 60 25.5t32 29.5v-119q0 -48 -15 -86.5t-44 -61.5q-15 -12 -33 -17.5t-39 -5.5zM703 168v25h-71v-27
q0 -55 -28.5 -83t-85.5 -28q-59 0 -88 35.5t-29 102.5v70h302v118q0 94 -43.5 147t-135.5 53q-51 0 -87.5 -18.5t-58.5 -55.5q-16 35 -51 54.5t-98 19.5q-86 0 -131.5 -43t-45.5 -114v-58h69v56q0 47 29 73.5t81 26.5q53 0 78 -24t25 -68v-10q0 -33 -27.5 -51t-84.5 -38
q-51 -19 -78.5 -31t-49.5 -30q-26 -21 -40.5 -49t-14.5 -72v-18q0 -67 37.5 -103.5t107.5 -36.5q62 0 103.5 31.5t59.5 88.5q15 -56 57 -88t114 -32q93 0 139 48t46 129zM350 623h56l121 157h-77z" />
    <glyph glyph-name="Oslashacute" unicode="&#x1fe;" horiz-adv-x="511" 
d="M55 0zM127 215v277q0 78 31.5 121.5t97.5 43.5q15 0 28 -2t24 -7l-147 -555q-17 20 -25.5 50.5t-8.5 71.5zM256 55q-14 0 -26 2t-22 5l145 552q16 -21 24 -51.5t8 -70.5v-277q0 -80 -32 -120t-97 -40zM256 -11q95 0 148 54.5t53 167.5v284q0 70 -21 118.5t-63 75.5
l30 105h-54l-24 -83q-16 5 -33 7t-36 2q-96 0 -148.5 -57.5t-52.5 -167.5v-284q0 -73 22 -121t63 -73l-31 -107h57l24 86q15 -4 31.5 -5.5t34.5 -1.5zM226 801h56l121 157h-77z" />
    <glyph glyph-name="oslashacute" unicode="&#x1ff;" horiz-adv-x="468" 
d="M49 0zM120 191v185q0 72 29 107t84 35q11 0 21.5 -1.5t20.5 -4.5l-121 -428q-17 17 -25.5 44t-8.5 63zM233 55q-10 0 -19.5 1.5t-17.5 3.5l119 425q16 -18 24 -45t8 -64v-185q0 -66 -28.5 -101t-85.5 -35zM233 -9q86 0 135.5 49.5t49.5 148.5v188q0 67 -21.5 111.5
t-60.5 67.5l29 98h-49l-23 -80q-13 4 -28 5.5t-32 1.5q-85 0 -134.5 -50.5t-49.5 -153.5v-188q0 -66 21.5 -110.5t63.5 -66.5l-30 -102h51l24 86q12 -2 25.5 -3.5t28.5 -1.5zM207 671h56l121 157h-77z" />
    <glyph glyph-name="uni0218" unicode="&#x218;" horiz-adv-x="455" 
d="M39 0zM234 -9q89 0 136 49.5t47 124.5v36q0 57 -23.5 92t-59.5 57q-18 11 -37 20.5t-38 18.5q-35 16 -66.5 33t-51.5 41q-10 13 -15 29t-5 35v21q0 47 26.5 78t79.5 31q54 0 80.5 -26.5t26.5 -79.5v-67h71v71q0 74 -43.5 118.5t-134.5 44.5q-88 0 -132.5 -48t-44.5 -121
v-25q0 -56 23 -90t59 -56q18 -10 36.5 -19.5t37.5 -18.5q36 -16 68 -33.5t52 -43.5q10 -13 15 -29.5t5 -37.5v-31q0 -46 -26.5 -77.5t-85.5 -31.5q-63 0 -92 31.5t-29 86.5v81h-74v-82q0 -88 45.5 -135t149.5 -47zM194 -255q43 10 64.5 44t21.5 82q0 37 -11 52.5t-37 15.5
q-23 0 -34.5 -11.5t-11.5 -37.5q0 -28 9.5 -36.5t28.5 -8.5q3 0 5.5 0.5t5.5 1.5q-3 -26 -14.5 -42t-30.5 -22z" />
    <glyph glyph-name="uni0219" unicode="&#x219;" horiz-adv-x="424" 
d="M37 0zM215 -9q86 0 129 42.5t43 115.5v18q0 50 -22 79.5t-56 46.5q-17 9 -34.5 16.5t-35.5 14.5q-31 12 -59 24t-46 30q-8 9 -12.5 20.5t-4.5 26.5v10q0 37 23 61t71 24q50 0 73 -23t23 -64v-42h70v43q0 68 -42 107.5t-124 39.5q-80 0 -122 -41t-42 -106v-13
q0 -47 21.5 -75.5t54.5 -45.5q17 -9 34 -16t35 -14q32 -12 60.5 -24.5t46.5 -32.5q9 -9 13.5 -22t4.5 -29v-13q0 -45 -25 -70t-76 -25q-55 0 -80 25.5t-25 73.5v51h-74v-55q0 -78 43.5 -118t134.5 -40zM176 -257q43 10 64.5 44t21.5 82q0 37 -11 52.5t-37 15.5
q-23 0 -34.5 -11.5t-11.5 -37.5q0 -28 9.5 -36.5t28.5 -8.5q3 0 5.5 0.5t5.5 1.5q-3 -26 -14.5 -42t-30.5 -22z" />
    <glyph glyph-name="uni0237" unicode="&#x237;" horiz-adv-x="199" 
d="M-29 -175h31q54 0 82.5 12.5t39.5 43.5q6 15 8.5 37t2.5 50v604h-70v-597q0 -52 -13 -67.5t-56 -15.5h-25v-67z" />
    <glyph glyph-name="uni0245" unicode="&#x245;" horiz-adv-x="467" 
d="M225 569l7 70l6 -70l135 -569h72l-178 711h-72l-172 -711h73z" />
    <glyph glyph-name="circumflex" unicode="&#x2c6;" 
d="M266 638h63l-99 146h-52l-99 -146h63l62 95z" />
    <glyph glyph-name="caron" unicode="&#x2c7;" 
d="M228 638l100 144h-62l-62 -91l-61 91h-64l99 -144h50z" />
    <glyph glyph-name="breve" unicode="&#x2d8;" 
d="M202 636q69 0 101.5 39t33.5 107h-54q-1 -46 -20 -70t-60 -25q-43 1 -60.5 25t-19.5 70h-54q2 -68 30.5 -107t102.5 -39z" />
    <glyph glyph-name="dotaccent" unicode="&#x2d9;" horiz-adv-x="411" 
d="M198 637q24 0 36.5 13t12.5 42q0 30 -12.5 43t-35.5 13q-25 0 -38 -13t-13 -43q0 -31 12 -43t38 -12z" />
    <glyph glyph-name="ring" unicode="&#x2da;" 
d="M202 640q44 0 71.5 25.5t27.5 70.5q0 46 -27.5 71t-71.5 25q-43 0 -70.5 -26t-27.5 -70q0 -46 27.5 -71t70.5 -25zM202 690q-22 0 -33.5 12.5t-11.5 33.5q0 22 12.5 35t32.5 13q21 0 34 -13t13 -35t-14 -34t-33 -12z" />
    <glyph glyph-name="ogonek" unicode="&#x2db;" 
d="M203 -188q48 0 79 22.5t46 67.5h-65q-6 -21 -20.5 -31.5t-36.5 -10.5q-23 0 -36.5 11t-13.5 31q0 22 19 42.5t70 55.5l-43 26q-59 -34 -81.5 -65.5t-22.5 -63.5q0 -41 27.5 -63t77.5 -22z" />
    <glyph glyph-name="tilde" unicode="&#x2dc;" 
d="M61 640h51q0 29 7 41.5t23 12.5q19 0 36.5 -14.5t38.5 -28.5q10 -7 23 -10.5t28 -3.5q45 0 63.5 29t18.5 80h-50q0 -32 -8 -43.5t-25 -11.5t-34.5 14t-39.5 29q-10 7 -23 10.5t-28 3.5q-43 0 -61.5 -28t-19.5 -80z" />
    <glyph glyph-name="hungarumlaut" unicode="&#x2dd;" 
d="M237 785h-74l-87 -147h52zM362 785h-75l-92 -147h52z" />
    <glyph glyph-name="uni03BC" unicode="&#x3bc;" horiz-adv-x="466" 
d="M228 -9q47 0 73.5 27t36.5 76l8 -94h57v572h-71v-369q0 -69 -27 -108.5t-78 -39.5q-50 0 -71.5 33t-21.5 92v392h-71v-765h68v261q9 -38 31.5 -57.5t65.5 -19.5z" />
    <glyph glyph-name="pi" unicode="&#x3c0;" horiz-adv-x="556" 
d="M352 141q0 -55 12 -85.5t42 -43.5q15 -6 35.5 -9t47.5 -3h32v65h-25q-43 0 -58 16t-15 67v498h106v65h-502v-65h101v-646h70v646h154v-505z" />
    <glyph glyph-name="uni0E3F" unicode="&#xe3f;" horiz-adv-x="505" 
d="M139 396v253h93v-253h-93zM383 551v-43q0 -54 -22 -81t-75 -30v252q53 -3 75 -28t22 -70zM139 64v270h93v-270h-93zM390 227v-55q0 -55 -22.5 -80.5t-81.5 -27.5v270q56 -3 80 -30t24 -77zM288 0q99 0 137 44.5t38 123.5v63q0 54 -23.5 88t-76.5 47q47 15 68.5 50
t21.5 91v50q0 70 -36.5 110.5t-130.5 43.5v93h-54v-93h-163v-711h163v-96h54v96h2z" />
    <glyph glyph-name="Wgrave" unicode="&#x1e80;" horiz-adv-x="682" 
d="M31 0zM331 541l7 84l7 -83l115 -542h65l128 711h-68l-89 -520l-8 -121l-10 112l-115 529h-49l-122 -529l-12 -102l-3 111l-77 520h-69l111 -711h64zM313 775h56l-90 146h-76z" />
    <glyph glyph-name="wgrave" unicode="&#x1e81;" horiz-adv-x="632" 
d="M21 0zM303 403l10 85l9 -83l96 -405h67l126 572h-68l-85 -414l-11 -87l-12 89l-100 412h-44l-106 -411l-14 -86l-8 84l-73 413h-69l108 -572h69zM284 636h56l-90 146h-76z" />
    <glyph glyph-name="Wacute" unicode="&#x1e82;" horiz-adv-x="682" 
d="M31 0zM331 541l7 84l7 -83l115 -542h65l128 711h-68l-89 -520l-8 -121l-10 112l-115 529h-49l-122 -529l-12 -102l-3 111l-77 520h-69l111 -711h64zM310 774h56l121 157h-77z" />
    <glyph glyph-name="wacute" unicode="&#x1e83;" horiz-adv-x="632" 
d="M21 0zM303 403l10 85l9 -83l96 -405h67l126 572h-68l-85 -414l-11 -87l-12 89l-100 412h-44l-106 -411l-14 -86l-8 84l-73 413h-69l108 -572h69zM281 636h56l121 157h-77z" />
    <glyph glyph-name="Wdieresis" unicode="&#x1e84;" horiz-adv-x="682" 
d="M31 0zM331 541l7 84l7 -83l115 -542h65l128 711h-68l-89 -520l-8 -121l-10 112l-115 529h-49l-122 -529l-12 -102l-3 111l-77 520h-69l111 -711h64zM407 774q21 0 32 11.5t11 38.5q0 26 -10.5 37.5t-32.5 11.5t-33.5 -11.5t-11.5 -37.5q0 -28 10.5 -39t34.5 -11zM270 774
q23 0 34 11.5t11 38.5q0 26 -10.5 37.5t-33.5 11.5q-22 0 -33 -11.5t-11 -37.5q0 -28 10.5 -39t32.5 -11z" />
    <glyph glyph-name="wdieresis" unicode="&#x1e85;" horiz-adv-x="632" 
d="M21 0zM303 403l10 85l9 -83l96 -405h67l126 572h-68l-85 -414l-11 -87l-12 89l-100 412h-44l-106 -411l-14 -86l-8 84l-73 413h-69l108 -572h69zM378 636q21 0 32 11.5t11 38.5q0 26 -10.5 37.5t-32.5 11.5t-33.5 -11.5t-11.5 -37.5q0 -28 10.5 -39t34.5 -11zM241 636
q23 0 34 11.5t11 38.5q0 26 -10.5 37.5t-33.5 11.5q-22 0 -33 -11.5t-11 -37.5q0 -28 10.5 -39t32.5 -11z" />
    <glyph glyph-name="Ygrave" unicode="&#x1ef2;" horiz-adv-x="432" 
d="M15 0zM249 0v257l168 454h-76l-117 -340l-10 -54l-10 54l-113 340h-76l161 -455v-256h73zM193 770h56l-90 146h-76z" />
    <glyph glyph-name="ygrave" unicode="&#x1ef3;" horiz-adv-x="425" 
d="M22 0zM79 -163q52 0 81.5 10t47.5 39q8 14 16.5 35t16.5 49l166 602h-72l-107 -421l-10 -70l-9 67l-115 424h-72l162 -562l-8 -31q-10 -33 -21 -49.5t-29 -21.5q-9 -2 -21.5 -3.5t-28.5 -1.5h-35v-66h38zM188 625h56l-90 146h-76z" />
    <glyph glyph-name="figuredash" unicode="&#x2012;" horiz-adv-x="516" 
d="M464 336h-412v-70h412v70z" />
    <glyph glyph-name="endash" unicode="&#x2013;" horiz-adv-x="396" 
d="M344 336h-292v-70h292v70z" />
    <glyph glyph-name="emdash" unicode="&#x2014;" horiz-adv-x="527" 
d="M476 336h-424v-70h424v70z" />
    <glyph glyph-name="uni2015" unicode="&#x2015;" horiz-adv-x="691" 
d="M639 336h-587v-70h587v70z" />
    <glyph glyph-name="uni2016" unicode="&#x2016;" horiz-adv-x="391" 
d="M321 -90v881h-71v-881h71zM140 -90v881h-71v-881h71z" />
    <glyph glyph-name="underscoredbl" unicode="&#x2017;" horiz-adv-x="435" 
d="M400 55h-364v-55h364v55zM400 -59h-364v-55h364v55z" />
    <glyph glyph-name="quoteleft" unicode="&#x2018;" horiz-adv-x="229" 
d="M116 510q25 0 35.5 12t10.5 43q0 32 -9.5 41.5t-29.5 9.5q-3 0 -6.5 -0.5t-6.5 -2.5q2 31 14.5 48.5t34.5 24.5l-5 35q-43 -9 -65.5 -43.5t-22.5 -90.5q0 -45 11.5 -61t38.5 -16z" />
    <glyph glyph-name="quoteright" unicode="&#x2019;" horiz-adv-x="229" 
d="M76 509q44 10 66 43.5t22 91.5q0 44 -11.5 60t-38.5 16q-25 0 -36 -12t-11 -42q0 -31 10 -41t29 -10q3 0 6.5 0.5t7.5 1.5q-2 -31 -14.5 -48t-35.5 -25z" />
    <glyph glyph-name="quotesinglbase" unicode="&#x201a;" horiz-adv-x="236" 
d="M78 -109q44 10 66 43.5t22 91.5q0 44 -11.5 60t-38.5 16q-25 0 -36 -11.5t-11 -42.5t10 -41t29 -10q4 0 7.5 0.5t6.5 2.5q-2 -31 -14.5 -48.5t-35.5 -24.5z" />
    <glyph glyph-name="uni201B" unicode="&#x201b;" horiz-adv-x="229" 
d="M159 544q-22 8 -34.5 25.5t-14.5 48.5q3 -1 6.5 -2t6.5 -1q20 0 29.5 10t9.5 41q0 30 -10.5 42t-35.5 12q-27 0 -39 -17t-12 -61q0 -57 22.5 -90t66.5 -43z" />
    <glyph glyph-name="quotedblleft" unicode="&#x201c;" horiz-adv-x="377" 
d="M264 510q25 0 35.5 12t10.5 43q0 32 -9.5 41.5t-29.5 9.5q-3 0 -6.5 -0.5t-6.5 -2.5q2 31 14.5 48.5t34.5 24.5l-5 35q-43 -9 -65.5 -43.5t-22.5 -90.5q0 -45 11.5 -61t38.5 -16zM116 510q25 0 35.5 12t10.5 43q0 32 -9.5 41.5t-29.5 9.5q-3 0 -6.5 -0.5t-6.5 -2.5
q2 31 14.5 48.5t34.5 24.5l-5 35q-43 -9 -65.5 -43.5t-22.5 -90.5q0 -45 11.5 -61t38.5 -16z" />
    <glyph glyph-name="quotedblright" unicode="&#x201d;" horiz-adv-x="377" 
d="M75 509q44 10 66 43.5t22 91.5q0 44 -11.5 60t-38.5 16q-25 0 -35.5 -12t-10.5 -42q0 -31 10 -41t29 -10q4 0 7 1l6 2q-2 -31 -14.5 -48.5t-34.5 -25.5zM223 509q44 10 66 43.5t22 91.5q0 44 -11.5 60t-38.5 16q-25 0 -35.5 -12t-10.5 -42q0 -31 10 -41t29 -10q4 0 7 1
l6 2q-2 -31 -14.5 -48.5t-34.5 -25.5z" />
    <glyph glyph-name="quotedblbase" unicode="&#x201e;" horiz-adv-x="378" 
d="M75 -109q44 10 66 43.5t22 91.5q0 44 -11.5 60t-38.5 16q-25 0 -35.5 -11.5t-10.5 -42.5t10 -41t29 -10q4 0 7 0.5t6 2.5q-2 -31 -14.5 -48.5t-34.5 -24.5zM224 -109q44 10 66 43.5t22 91.5q0 44 -11.5 60t-38.5 16q-25 0 -35.5 -11.5t-10.5 -42.5t10 -41t29 -10
q4 0 7 0.5t6 2.5q-2 -31 -14.5 -48.5t-34.5 -24.5z" />
    <glyph glyph-name="uni201F" unicode="&#x201f;" horiz-adv-x="377" 
d="M158 544q-22 8 -34.5 25.5t-14.5 48.5q3 -1 6.5 -2t6.5 -1q20 0 29.5 10t9.5 41q0 30 -10.5 42t-35.5 12q-27 0 -39 -17t-12 -61q0 -57 22.5 -90t66.5 -43zM306 544q-22 8 -34.5 25.5t-14.5 48.5q3 -1 6.5 -2t6.5 -1q20 0 29.5 10t9.5 41q0 30 -10.5 42t-35.5 12
q-27 0 -39 -17t-12 -61q0 -57 22.5 -90t66.5 -43z" />
    <glyph glyph-name="dagger" unicode="&#x2020;" horiz-adv-x="395" 
d="M349 475v70h-117v207h-70v-207h-116v-70h116v-516h70v516h117z" />
    <glyph glyph-name="daggerdbl" unicode="&#x2021;" horiz-adv-x="395" 
d="M349 186v70h-117v220h117v70h-117v206h-70v-206h-116v-70h116v-220h-116v-70h116v-227h70v227h117z" />
    <glyph glyph-name="bullet" unicode="&#x2022;" horiz-adv-x="262" 
d="M131 223q34 0 50.5 16.5t16.5 49.5q0 37 -17.5 51.5t-49.5 14.5t-49 -15.5t-17 -50.5t15.5 -50.5t50.5 -15.5z" />
    <glyph glyph-name="ellipsis" unicode="&#x2026;" horiz-adv-x="589" 
d="M469 -7q25 0 36 12t11 45t-10.5 45t-36.5 12t-37 -12t-11 -45t11 -45t37 -12zM295 -7q26 0 37 12t11 45t-11 45t-37 12q-25 0 -36 -12t-11 -45t10.5 -45t36.5 -12zM121 -7q26 0 37 12t11 45t-11 45t-37 12q-25 0 -36 -12t-11 -45t10.5 -45t36.5 -12z" />
    <glyph glyph-name="perthousand" unicode="&#x2030;" horiz-adv-x="877" 
d="M152 414q53 0 82 30.5t29 82.5v79q0 53 -29.5 82.5t-80.5 29.5q-49 0 -79.5 -29t-30.5 -83v-79q0 -54 28.5 -83.5t80.5 -29.5zM58 0h75l404 711h-73zM152 464q-28 0 -42 16.5t-14 49.5v75q0 32 15.5 48.5t41.5 16.5t41 -16.5t15 -48.5v-75q0 -31 -14 -48.5t-43 -17.5z
M723 -10q52 0 81 30.5t29 82.5v79q0 53 -30 84t-80 31q-49 0 -79.5 -30.5t-30.5 -84.5v-79q0 -54 28.5 -83.5t81.5 -29.5zM442 -10q52 0 81 30.5t29 82.5v79q0 53 -30 84t-80 31q-49 0 -79.5 -30.5t-30.5 -84.5v-79q0 -54 28.5 -83.5t81.5 -29.5zM723 41q-28 0 -42 16.5
t-14 48.5v75q0 33 14 49t42 16q29 0 43 -16t14 -49v-75q0 -30 -14 -47.5t-43 -17.5zM442 41q-28 0 -42 16.5t-14 48.5v75q0 33 14 49t42 16q29 0 43 -16t14 -49v-75q0 -30 -14 -47.5t-43 -17.5z" />
    <glyph glyph-name="uni2032" unicode="&#x2032;" horiz-adv-x="166" 
d="M78 512l61 199h-70l-40 -199h49z" />
    <glyph glyph-name="uni2033" unicode="&#x2033;" horiz-adv-x="279" 
d="M187 512l67 199h-70l-45 -199h48zM78 512l60 199h-70l-39 -199h49z" />
    <glyph glyph-name="uni2034" unicode="&#x2034;" horiz-adv-x="415" 
d="M299 711v-38q0 -35 1.5 -74t4.5 -72q1 -16 2.5 -28.5t2.5 -21.5h42q3 17 6 50t4 72q1 19 1.5 37.5t0.5 36.5v38h-65zM175 711v-38q0 -35 1.5 -74t4.5 -72q1 -16 2.5 -28.5t2.5 -21.5h42q3 17 6 50t4 72q1 19 1.5 37.5t0.5 36.5v38h-65zM51 711v-38q0 -35 1.5 -74t4.5 -72
q1 -16 2.5 -28.5t2.5 -21.5h42q3 17 5.5 50t4.5 72q0 19 0.5 37.5t0.5 36.5v38h-64z" />
    <glyph glyph-name="guilsinglleft" unicode="&#x2039;" horiz-adv-x="305" 
d="M258 109l-135 191l127 193h-68l-123 -191v-9l128 -184h71z" />
    <glyph glyph-name="guilsinglright" unicode="&#x203a;" horiz-adv-x="305" 
d="M118 109l128 184v9l-123 191h-68l126 -194l-134 -190h71z" />
    <glyph glyph-name="exclamdbl" unicode="&#x203c;" horiz-adv-x="446" 
d="M281 712v-151q0 -46 1 -98t3 -103q1 -51 3 -94t4 -71q0 -14 1 -23t1 -12q4 1 10.5 2t14.5 1t15 -1t11 -2q1 6 2.5 34.5t3.5 71.5q1 43 2.5 94t2.5 103q1 26 1 50.5v47.5v151h-76zM89 712v-151q0 -46 1 -98t2 -103q2 -51 3.5 -94t3.5 -71q0 -14 1 -23t1 -12q4 1 11 2t15 1
t14.5 -1t10.5 -2q1 6 2.5 34.5t3.5 71.5t3.5 94t2.5 103q0 26 0.5 50.5t0.5 47.5v151h-76zM319 -8q26 0 38.5 13.5t12.5 46.5q0 32 -12.5 45t-38.5 13q-27 0 -39 -13t-12 -45q0 -34 11.5 -47t39.5 -13zM126 -8q26 0 39 13.5t13 46.5q0 32 -12.5 45t-39.5 13q-26 0 -38.5 -13
t-12.5 -45q0 -34 11.5 -47t39.5 -13z" />
    <glyph glyph-name="uni203D" unicode="&#x203d;" horiz-adv-x="489" 
d="M272 561v99q46 -6 66.5 -32t20.5 -64v-64q0 -38 -10 -59t-25 -36t-30.5 -33t-27.5 -49q3 57 4.5 121.5t1.5 116.5zM242 162q8 0 15.5 -0.5t10.5 -2.5l1 48q1 42 17 69t40 47q23 21 46.5 43t39.5 54q8 16 12 37t4 46v66q0 64 -44 107.5t-139 43.5q-94 0 -140.5 -44
t-46.5 -123v-106h69v102q0 47 19.5 75t63.5 35v-98v-122t1 -123q0 -29 0.5 -53t0.5 -44q1 -25 2 -40t2 -21q3 2 10.5 3t15.5 1zM243 -8q26 0 38.5 13.5t12.5 46.5q0 32 -12.5 45t-38.5 13q-27 0 -39 -13t-12 -45q0 -34 11.5 -47t39.5 -13z" />
    <glyph glyph-name="fraction" unicode="&#x2044;" horiz-adv-x="577" 
d="M333 399l207 288l-68 44l-162 -317zM255 329l-210 -298l70 -48l163 331z" />
    <glyph glyph-name="uni2070" unicode="&#x2070;" horiz-adv-x="275" 
d="M35 353zM137 353q49 0 76 27.5t27 83.5v142q0 56 -27.5 83t-74.5 27q-49 0 -76 -27.5t-27 -82.5v-142q0 -55 25.5 -83t76.5 -28zM137 403q-24 0 -36 15.5t-12 46.5v140q0 32 12.5 47.5t36.5 15.5q25 0 37 -15.5t12 -47.5v-140q0 -31 -12.5 -46.5t-37.5 -15.5z" />
    <glyph glyph-name="uni2074" unicode="&#x2074;" horiz-adv-x="259" 
d="M20 359zM149 614l12 33l-4 -41v-129h-85zM244 435v42h-42v234h-46l-136 -238v-38h137v-76h45v76h42z" />
    <glyph glyph-name="uni2075" unicode="&#x2075;" horiz-adv-x="265" 
d="M34 353zM134 353q50 0 75.5 25.5t25.5 71.5v64q0 43 -20.5 65t-58.5 22q-27 0 -43.5 -10t-26.5 -27q2 20 5.5 48t6.5 50h75q28 0 38 10.5t10 35.5v3h-165l-17 -184l44 -11l4 9q8 15 20.5 24.5t31.5 9.5q22 0 34 -10.5t12 -38.5v-59q0 -25 -12.5 -37.5t-37.5 -12.5
q-23 0 -35 11t-12 33v32h-54v-34q0 -43 24 -66.5t76 -23.5z" />
    <glyph glyph-name="uni2076" unicode="&#x2076;" horiz-adv-x="272" 
d="M35 353zM239 453v38q0 42 -21.5 62.5t-61.5 20.5q-25 0 -43 -9.5t-28 -29.5v70q0 36 12.5 51t37.5 15t35.5 -13t10.5 -39v-15h53v15q0 49 -24.5 73t-74.5 24t-75 -27.5t-25 -83.5v-139q0 -55 23 -84t81 -29q50 0 75 27.5t25 72.5zM139 400q-28 0 -41 14.5t-13 47.5v32
q5 18 18 29.5t36 11.5q25 0 37.5 -11.5t12.5 -35.5v-34q0 -27 -12.5 -40.5t-37.5 -13.5z" />
    <glyph glyph-name="uni2077" unicode="&#x2077;" horiz-adv-x="227" 
d="M20 359zM108 359q12 83 38.5 164t60.5 146v42h-187v-50h135q-29 -56 -59.5 -136t-44.5 -166h57z" />
    <glyph glyph-name="uni2078" unicode="&#x2078;" horiz-adv-x="270" 
d="M32 353zM134 353q50 0 77 23t27 66v27q0 30 -14 47.5t-37 24.5q21 6 33.5 22.5t12.5 44.5v22q0 41 -25.5 63.5t-71.5 22.5t-71.5 -22.5t-25.5 -63.5v-22q0 -28 12 -44.5t32 -22.5q-22 -7 -36.5 -25t-14.5 -47v-27q0 -44 25.5 -66.5t76.5 -22.5zM139 560h-9
q-21 0 -31.5 11t-10.5 33v22q0 24 12 35.5t36 11.5t35.5 -11.5t11.5 -34.5v-23q0 -22 -11 -33t-33 -11zM134 399q-25 0 -38 12t-13 35v27q0 21 12 34t35 13h9q24 0 36 -11.5t12 -35.5v-27q0 -23 -13 -35t-40 -12z" />
    <glyph glyph-name="uni2079" unicode="&#x2079;" horiz-adv-x="268" 
d="M31 352zM131 539q-25 0 -37.5 12t-12.5 36v29q0 26 12.5 40.5t38.5 14.5q27 0 40.5 -16t13.5 -48v-12q-1 -24 -14 -40t-41 -16zM135 353q52 0 76.5 29.5t24.5 81.5v139q0 55 -24.5 84t-79.5 29q-51 0 -76 -27.5t-25 -72.5v-32q0 -42 23 -63t62 -21q28 0 44.5 11.5
t25.5 30.5v-78q0 -34 -12.5 -49.5t-37.5 -15.5t-36.5 12t-11.5 40v19h-54v-21q0 -49 25.5 -73t75.5 -23z" />
    <glyph glyph-name="uni207A" unicode="&#x207a;" horiz-adv-x="268" 
d="M42 440zM224 511v43h-69v67h-45v-67h-68v-43h68v-71h45v71h69z" />
    <glyph glyph-name="uni207B" unicode="&#x207b;" horiz-adv-x="268" 
d="M42 509zM224 509v47h-182v-47h182z" />
    <glyph glyph-name="uni207C" unicode="&#x207c;" horiz-adv-x="268" 
d="M44 459zM222 557v45h-178v-45h178zM222 459v45h-178v-45h178z" />
    <glyph glyph-name="uni207D" unicode="&#x207d;" horiz-adv-x="190" 
d="M43 269zM43 443q0 -89 34.5 -130t97.5 -44v53q-38 2 -59.5 30.5t-21.5 93.5v169q0 66 20.5 96t60.5 33v50q-62 -4 -97 -47.5t-35 -129.5v-174z" />
    <glyph glyph-name="uni207E" unicode="&#x207e;" horiz-adv-x="190" 
d="M16 269zM16 269q63 3 97 44t34 130v174q0 86 -34.5 129.5t-96.5 47.5v-51q39 -3 60 -32.5t21 -95.5v-169q0 -65 -21.5 -93.5t-59.5 -31.5v-52z" />
    <glyph glyph-name="uni2080" unicode="&#x2080;" horiz-adv-x="275" 
d="M137 -6q49 0 76 27.5t27 83.5v142q0 56 -27.5 83t-74.5 27q-49 0 -76 -27.5t-27 -82.5v-142q0 -55 25.5 -83t76.5 -28zM137 44q-24 0 -36 15.5t-12 46.5v140q0 32 12.5 47.5t36.5 15.5q25 0 37 -15.5t12 -47.5v-140q0 -31 -12.5 -46.5t-37.5 -15.5z" />
    <glyph glyph-name="uni2081" unicode="&#x2081;" horiz-adv-x="206" 
d="M184 0v49h-55v303h-41q-4 -28 -16 -41.5t-39 -14.5v-42h48v-205h-56v-49h159z" />
    <glyph glyph-name="uni2082" unicode="&#x2082;" horiz-adv-x="258" 
d="M229 0v50h-140q3 23 18 40.5t35 33.5t39 33.5t32 39.5q7 11 10 24t3 28v20q0 41 -23 64.5t-72 23.5q-46 0 -71.5 -24.5t-25.5 -67.5v-50h53v48q0 23 9.5 36t33.5 13t34 -11.5t10 -33.5v-16q0 -24 -14.5 -42.5t-35.5 -35.5t-42 -35.5t-36 -42.5q-7 -12 -10.5 -26.5
t-3.5 -31.5v-37h197z" />
    <glyph glyph-name="uni2083" unicode="&#x2083;" horiz-adv-x="263" 
d="M131 -6q49 0 74.5 23.5t25.5 63.5v33q0 28 -11.5 45t-35.5 23q23 8 32.5 26t9.5 42v21q0 41 -23 63.5t-73 22.5q-47 0 -71.5 -23.5t-24.5 -66.5v-32h52v32q0 23 11.5 34t33.5 11q24 0 34 -11t10 -34v-19q0 -22 -8 -33.5t-34 -11.5h-31v-46h31q23 0 34 -11t11 -33v-28
q0 -21 -12 -32t-36 -11q-25 0 -36 11t-11 32v41h-54v-44q0 -44 25.5 -66t76.5 -22z" />
    <glyph glyph-name="uni2084" unicode="&#x2084;" horiz-adv-x="259" 
d="M149 255l12 33l-4 -41v-129h-85zM244 76v42h-42v234h-46l-136 -238v-38h137v-76h45v76h42z" />
    <glyph glyph-name="uni2085" unicode="&#x2085;" horiz-adv-x="265" 
d="M134 -6q50 0 75.5 25.5t25.5 71.5v64q0 43 -20.5 65t-58.5 22q-27 0 -43.5 -10t-26.5 -27q2 20 5.5 48t6.5 50h75q28 0 38 10.5t10 35.5v3h-165l-17 -184l44 -11l4 9q8 15 20.5 24.5t31.5 9.5q22 0 34 -10.5t12 -38.5v-59q0 -25 -12.5 -37.5t-37.5 -12.5q-23 0 -35 11
t-12 33v32h-54v-34q0 -43 24 -66.5t76 -23.5z" />
    <glyph glyph-name="uni2086" unicode="&#x2086;" horiz-adv-x="272" 
d="M239 94v38q0 42 -21.5 62.5t-61.5 20.5q-25 0 -43 -9.5t-28 -29.5v70q0 36 12.5 51t37.5 15t35.5 -13t10.5 -39v-15h53v15q0 49 -24.5 73t-74.5 24t-75 -27.5t-25 -83.5v-139q0 -55 23 -84t81 -29q50 0 75 27.5t25 72.5zM139 41q-28 0 -41 14.5t-13 47.5v32q5 18 18 29.5
t36 11.5q25 0 37.5 -11.5t12.5 -35.5v-34q0 -27 -12.5 -40.5t-37.5 -13.5z" />
    <glyph glyph-name="uni2087" unicode="&#x2087;" horiz-adv-x="227" 
d="M108 0q12 83 38.5 164t60.5 146v42h-187v-50h135q-29 -56 -59.5 -136t-44.5 -166h57z" />
    <glyph glyph-name="uni2088" unicode="&#x2088;" horiz-adv-x="270" 
d="M134 -6q50 0 77 23t27 66v27q0 30 -14 47.5t-37 24.5q21 6 33.5 22.5t12.5 44.5v22q0 41 -25.5 63.5t-71.5 22.5t-71.5 -22.5t-25.5 -63.5v-22q0 -28 12 -44.5t32 -22.5q-22 -7 -36.5 -25t-14.5 -47v-27q0 -44 25.5 -66.5t76.5 -22.5zM139 201h-9q-21 0 -31.5 11
t-10.5 33v22q0 24 12 35.5t36 11.5t35.5 -11.5t11.5 -34.5v-23q0 -22 -11 -33t-33 -11zM134 40q-25 0 -38 12t-13 35v27q0 21 12 34t35 13h9q24 0 36 -11.5t12 -35.5v-27q0 -23 -13 -35t-40 -12z" />
    <glyph glyph-name="uni2089" unicode="&#x2089;" horiz-adv-x="268" 
d="M131 180q-25 0 -37.5 12t-12.5 36v29q0 26 12.5 40.5t38.5 14.5q27 0 40.5 -16t13.5 -48v-12q-1 -24 -14 -40t-41 -16zM135 -6q52 0 76.5 29.5t24.5 81.5v139q0 55 -24.5 84t-79.5 29q-51 0 -76 -27.5t-25 -72.5v-32q0 -42 23 -63t62 -21q28 0 44.5 11.5t25.5 30.5v-78
q0 -34 -12.5 -49.5t-37.5 -15.5t-36.5 12t-11.5 40v19h-54v-21q0 -49 25.5 -73t75.5 -23z" />
    <glyph glyph-name="uni208A" unicode="&#x208a;" horiz-adv-x="268" 
d="M224 152v43h-69v67h-45v-67h-68v-43h68v-71h45v71h69z" />
    <glyph glyph-name="uni208B" unicode="&#x208b;" horiz-adv-x="268" 
d="M224 150v47h-182v-47h182z" />
    <glyph glyph-name="uni208C" unicode="&#x208c;" horiz-adv-x="268" 
d="M222 200v45h-178v-45h178zM222 102v45h-178v-45h178z" />
    <glyph glyph-name="uni208D" unicode="&#x208d;" horiz-adv-x="190" 
d="M43 79q0 -89 34.5 -130t97.5 -44v53q-38 2 -59.5 30.5t-21.5 93.5v169q0 66 20.5 96t60.5 33v50q-62 -4 -97 -47.5t-35 -129.5v-174z" />
    <glyph glyph-name="uni208E" unicode="&#x208e;" horiz-adv-x="190" 
d="M16 -95q63 3 97 44t34 130v174q0 86 -34.5 129.5t-96.5 47.5v-51q39 -3 60 -32.5t21 -95.5v-169q0 -65 -21.5 -93.5t-59.5 -31.5v-52z" />
    <glyph glyph-name="uni20A1" unicode="&#x20a1;" horiz-adv-x="516" 
d="M239 55q-13 2 -25 5.5t-22 7.5l92 590q13 -1 25 -3.5t23 -7.5zM122 220v264q0 80 30 123.5t89 50.5l-88 -560q-16 21 -23.5 51.5t-7.5 70.5zM209 -115h45l16 104q106 0 156 56.5t50 157.5v75h-71v-73q0 -70 -29 -108t-94 -43l89 566q17 -19 25.5 -46t8.5 -62v-61h69v63
q0 65 -22.5 110t-68.5 70l23 126h-44l-19 -110q-11 4 -23.5 6t-25.5 3l15 101h-43l-15 -100q-97 -5 -147.5 -65.5t-50.5 -166.5v-272q0 -71 22 -120t65 -76l-26 -135h44l21 117q11 -4 23 -7t25 -4z" />
    <glyph glyph-name="uni20A2" unicode="&#x20a2;" horiz-adv-x="514" 
d="M467 199v71h-70v-69q0 -66 -25 -102.5t-81 -43.5v163q0 50 7.5 76.5t28.5 36.5q11 5 27 7.5t37 2.5h39v70h-30q-47 0 -75.5 -21.5t-37.5 -65.5l-9 85h-51v-353q-54 9 -78.5 49t-24.5 113v270q0 82 34.5 125.5t103.5 43.5q68 0 100 -37.5t32 -105.5v-38h71v40
q0 101 -52 152.5t-151 51.5q-100 0 -154.5 -59t-54.5 -169v-278q0 -112 51 -168.5t157 -56.5q107 0 156.5 56.5t49.5 153.5z" />
    <glyph glyph-name="franc" unicode="&#x20a3;" horiz-adv-x="406" 
d="M350 201v65h-212v97h212v66h-212v216h235v66h-304v-711h69v201h212z" />
    <glyph glyph-name="lira" unicode="&#x20a4;" horiz-adv-x="518" 
d="M117 35q-22 0 -33 8.5t-11 25.5q0 14 9 23.5t29 9.5q18 0 36.5 -9.5t37.5 -23.5q-10 -17 -27 -25.5t-41 -8.5zM359 -13q67 0 94 36.5t27 123.5v42h-74v-32q0 -61 -14 -83.5t-48 -22.5q-25 0 -50 12.5t-51 28.5q3 13 4.5 26.5t1.5 27.5q0 26 -2.5 50t-7.5 48h110v49h-120
q-4 16 -8 31.5t-9 31.5h137v50h-150q-10 39 -17.5 77.5t-7.5 78.5q0 47 21.5 72.5t63.5 25.5q46 0 66 -24.5t20 -71.5v-35l76 1v34q0 79 -41 119.5t-118 40.5q-79 0 -120 -44t-41 -119q0 -40 8.5 -78.5t20.5 -76.5h-76v-50h93q6 -16 12 -31.5t11 -31.5h-116v-49h131
q7 -25 11 -50t4 -51v-11.5t-1 -10.5q-22 13 -44 21.5t-46 8.5q-42 0 -67 -23t-25 -61q0 -37 23.5 -59t72.5 -22q36 0 63 14t46 42q29 -21 63 -38t74 -17z" />
    <glyph glyph-name="uni20A6" unicode="&#x20a6;" horiz-adv-x="578" 
d="M153 497l-8 127l25 -74l48 -106h-65v53zM270 328h-117v66h87zM424 328h-90l-30 66h120v-66zM417 0h72v279h79v49h-79v66h79v50h-79v267h-65v-267h-142l-120 267h-74v-267h-78v-50h78v-66h-78v-49h78v-279h65v279h139zM404 172l-48 107h68v-57l7 -129z" />
    <glyph glyph-name="peseta" unicode="&#x20a7;" horiz-adv-x="1122" 
d="M231 647q63 0 92 -29t29 -89v-113q0 -58 -29.5 -90.5t-89.5 -31.5h-95v353h93zM236 230q97 0 142 50t45 135v92h97v-284q0 -61 9 -103.5t34 -69.5q25 -26 71.5 -38t121.5 -12h117q81 0 127 18.5t66 53.5q9 17 14 38.5t5 46.5v12q0 47 -20 75.5t-51 45.5q-15 9 -31 16.5
t-33 13.5q-34 13 -65 25.5t-50 31.5q-10 9 -15 21.5t-5 27.5v9q0 37 23 61t71 24q50 0 73 -23t23 -64v-42h70v43q0 68 -42 107.5t-124 39.5q-80 0 -122 -41t-42 -106v-11q0 -45 20 -73t51 -45q15 -9 31 -16t33 -14q34 -12 65 -25t50 -33q10 -10 15 -23t5 -30v-3
q0 -31 -11.5 -53t-43.5 -33q-15 -5 -37.5 -8t-52.5 -3h-105q-75 0 -113.5 15t-52.5 51q-6 19 -9.5 44.5t-3.5 57.5v275h114v65h-114v126h-52q-1 -19 -3 -46t-5 -40q-4 -20 -11 -28t-23 -11q-4 -2 -17.5 -3.5t-28.5 -1.5q-8 -1 -14 -1h-11q-9 73 -54.5 108.5t-133.5 35.5
h-164v-711h69v230h98z" />
    <glyph glyph-name="uni20A8" unicode="&#x20a8;" horiz-adv-x="896" 
d="M664 -10q95 0 141 46t46 120v9q0 47 -19.5 76t-50.5 47q-30 18 -64.5 30.5t-65.5 25.5t-50.5 32t-19.5 50v9q0 37 23 61t71 24q50 0 73 -23t23 -64v-42h70v43q0 68 -42 107.5t-124 39.5q-80 0 -122 -41t-42 -106v-11q0 -45 19.5 -73.5t50.5 -45.5q31 -18 65.5 -30.5
t64.5 -25.5q31 -14 50.5 -34t19.5 -53v-7q0 -46 -29 -73t-91 -27h-16q-58 0 -95 26.5t-72 90.5l-32 60q-22 40 -47 65t-63 36q47 14 71 48t24 91v80q0 78 -44 119t-143 41h-175v-711h70v299h87q65 0 101.5 -26.5t64.5 -79.5l31 -59q27 -50 55.5 -82t67.5 -47q19 -7 43.5 -11
t53.5 -4h21zM242 648q62 0 89.5 -25t27.5 -78v-71q0 -56 -29 -84t-87 -28h-104v286h103z" />
    <glyph glyph-name="uni20A9" unicode="&#x20a9;" horiz-adv-x="716" 
d="M346 541l10 93l10 -92l19 -93h-60zM248 333h-76l-9 66h99zM409 333h-110l15 66h82zM540 333h-80l-14 66h105zM193 191l-13 92h57l-23 -101l-16 -113zM478 0h65l51 283h112v50h-103l12 66h91v50h-82l47 262h-67l-44 -262h-124l-55 262h-49l-58 -262h-119l-38 262h-68
l41 -262h-80v-50h88l10 -66h-98v-50h106l44 -283h64l64 283h132zM492 182l-21 101h61l-16 -92l-10 -129z" />
    <glyph glyph-name="uni20AA" unicode="&#x20aa;" horiz-adv-x="664" 
d="M237 649q76 0 108.5 -38t32.5 -117v-343q40 0 53.5 18t13.5 67v261q0 108 -50 161t-154 53h-172v-711h66v649h102zM398 0q101 0 151.5 57t50.5 164v491h-67v-488q0 -85 -36.5 -123.5t-101.5 -38.5h-105v416q0 52 -12 68.5t-55 16.5v-563h175z" />
    <glyph glyph-name="Euro" unicode="&#x20ac;" horiz-adv-x="511" 
d="M483 197v18h-76v-14q0 -77 -26.5 -110.5t-88.5 -33.5q-67 0 -97.5 39t-30.5 118v45h151l20 54h-171v91h201l21 53h-222v37q0 78 29 119.5t97 41.5q65 0 90 -34.5t25 -97.5v-9h74v12q0 86 -44 139.5t-145 53.5q-97 0 -147.5 -56.5t-50.5 -166.5v-39h-66v-53h66v-91h-66
v-54h66v-49q0 -115 51.5 -167.5t149.5 -52.5q95 0 142.5 52t47.5 155z" />
    <glyph glyph-name="uni20AE" unicode="&#x20ae;" horiz-adv-x="394" 
d="M330 322v49l-99 -44v73l99 44v49l-99 -44v196h139v66h-346v-66h136v-227l-92 -41v-49l92 41v-73l-92 -41v-49l92 41v-247h71v278z" />
    <glyph glyph-name="uni20B1" unicode="&#x20b1;" horiz-adv-x="498" 
d="M226 647q62 0 91.5 -25t33.5 -78h-200v103h75zM351 420h-200v76h200v-76zM228 266h-77v107h199q-4 -51 -33.5 -79.5t-88.5 -27.5zM231 202q95 0 140.5 46t49.5 125h64v47h-64v76h64v48h-64q-4 85 -49.5 126t-143.5 41h-147v-167h-67v-48h67v-76h-67v-47h67v-373h70v202
h80z" />
    <glyph glyph-name="uni2105" unicode="&#x2105;" horiz-adv-x="596" 
d="M58 0h75l404 711h-73zM153 414q53 0 81 30t28 81v11h-56v-8q0 -29 -12 -46.5t-41 -17.5q-28 0 -42.5 16.5t-14.5 49.5v75q0 32 15.5 48.5t41.5 16.5t39 -15.5t13 -46.5v-6h56v8q0 52 -28.5 80t-79.5 28q-49 0 -79.5 -29t-30.5 -83v-79q0 -54 28.5 -83.5t81.5 -29.5z
M442 -10q52 0 81 30.5t29 82.5v79q0 53 -30 84t-80 31q-49 0 -79.5 -30.5t-30.5 -84.5v-79q0 -54 28.5 -83.5t81.5 -29.5zM442 41q-28 0 -42 16.5t-14 48.5v75q0 33 14 49t42 16q29 0 43 -16t14 -49v-75q0 -30 -14 -47.5t-43 -17.5z" />
    <glyph glyph-name="uni2116" unicode="&#x2116;" horiz-adv-x="852" 
d="M675 307q62 0 98 36t36 100v140q0 66 -37 102t-97 36q-58 0 -95.5 -35.5t-37.5 -102.5v-140q0 -65 34 -100.5t99 -35.5zM675 366q-34 0 -51 21t-17 58v136q0 41 18 62t50 21q34 0 52 -22t18 -60v-137q0 -37 -17.5 -58t-52.5 -21zM134 495l-11 130l26 -88l248 -537h61v711
h-66v-491l11 -115l-28 80l-244 526h-62v-711h65v495zM801 233h-251v-62h251v62z" />
    <glyph glyph-name="uni2117" unicode="&#x2117;" horiz-adv-x="636" 
d="M320 -10q76 0 136 30.5t94 90.5q18 29 26.5 66t8.5 80v194q0 85 -35 144.5t-96 91.5q-30 15 -64.5 23t-72.5 8q-78 0 -138 -32.5t-94 -93.5q-17 -30 -25.5 -67t-8.5 -80v-190q0 -89 34.5 -148t94.5 -88q31 -15 66 -22t74 -7zM320 44q-98 0 -156.5 54.5t-58.5 159.5v184
q0 107 58 165t154 58q95 0 154.5 -56.5t59.5 -161.5v-187q0 -106 -57.5 -161t-153.5 -55zM323 535q38 0 53.5 -16t15.5 -49v-84q0 -34 -17 -51t-51 -17h-54v217h53zM328 269q61 0 89 31t28 84v91q0 53 -29 80.5t-91 27.5h-107v-457h52v143h58z" />
    <glyph glyph-name="uni2120" unicode="&#x2120;" horiz-adv-x="510" 
d="M288 569l-4 70l7 -27l58 -142h9l57 142l7 27l-4 -70v-162h43v304h-40l-68 -165l-68 165h-39v-304h42v162zM116 403q42 0 63 21.5t21 54.5v14q0 38 -21 56t-46 30q-22 11 -39.5 22.5t-17.5 33.5v6q0 19 9.5 28.5t27.5 9.5q20 0 29.5 -9t9.5 -28v-28h44v31q0 32 -19.5 51.5
t-63.5 19.5q-38 0 -60 -20.5t-22 -52.5v-10q0 -38 22 -55t47 -29q22 -10 39.5 -22t17.5 -37v-11q0 -16 -10 -26.5t-31 -10.5q-25 0 -34.5 11t-9.5 31v33h-46v-35q0 -39 22.5 -59t67.5 -20z" />
    <glyph glyph-name="trademark" unicode="&#x2122;" horiz-adv-x="495" 
d="M188 669v42h-162v-42h58v-262h44v262h60zM267 568l-7 85l14 -49l54 -119h9l53 119l14 49l-7 -85v-161h42v304h-40l-67 -156l-67 156h-39v-304h41v161z" />
    <glyph glyph-name="uni2126" unicode="&#x2126;" horiz-adv-x="618" 
d="M266 56q-33 51 -62 103.5t-46 112.5q-9 30 -13.5 63.5t-4.5 70.5q0 90 21 144.5t59 79.5q18 12 39.5 18t45.5 6q49 0 86.5 -24t59.5 -78q11 -27 16.5 -63.5t5.5 -82.5q0 -74 -17 -134t-45 -112q-14 -26 -29 -52t-32 -52l33 -56h209v67h-156q44 64 77 147t33 191
q0 165 -65.5 240t-175.5 75q-109 0 -173.5 -76.5t-64.5 -238.5q0 -111 34 -193.5t78 -144.5h-155v-67h213z" />
    <glyph glyph-name="uni2153" unicode="&#x2153;" horiz-adv-x="577" 
d="M45 0zM333 399l207 288l-68 44l-162 -317zM255 329l-210 -298l70 -48l163 331zM212 359v49h-55v303h-41q-4 -28 -16 -41.5t-39 -14.5v-42h48v-205h-56v-49h159zM432 -6q49 0 74.5 23.5t25.5 63.5v33q0 28 -11.5 45t-35.5 23q23 8 32.5 26t9.5 42v21q0 41 -23 63.5
t-73 22.5q-47 0 -71.5 -23.5t-24.5 -66.5v-32h52v32q0 23 11.5 34t33.5 11q24 0 34 -11t10 -34v-19q0 -22 -8 -33.5t-34 -11.5h-31v-46h31q23 0 34 -11t11 -33v-28q0 -21 -12 -32t-36 -11q-25 0 -36 11t-11 32v41h-54v-44q0 -44 25.5 -66t76.5 -22z" />
    <glyph glyph-name="uni2154" unicode="&#x2154;" horiz-adv-x="577" 
d="M36 0zM333 399l207 288l-68 44l-162 -317zM255 329l-210 -298l70 -48l163 331zM233 359v50h-140q3 23 18 40.5t35 33.5t39 33.5t32 39.5q7 11 10 24t3 28v20q0 41 -23 64.5t-72 23.5q-46 0 -71.5 -24.5t-25.5 -67.5v-50h53v48q0 23 9.5 36t33.5 13t34 -11.5t10 -33.5v-16
q0 -24 -14.5 -42.5t-35.5 -35.5t-42 -35.5t-36 -42.5q-7 -12 -10.5 -26.5t-3.5 -31.5v-37h197zM432 -6q49 0 74.5 23.5t25.5 63.5v33q0 28 -11.5 45t-35.5 23q23 8 32.5 26t9.5 42v21q0 41 -23 63.5t-73 22.5q-47 0 -71.5 -23.5t-24.5 -66.5v-32h52v32q0 23 11.5 34t33.5 11
q24 0 34 -11t10 -34v-19q0 -22 -8 -33.5t-34 -11.5h-31v-46h31q23 0 34 -11t11 -33v-28q0 -21 -12 -32t-36 -11q-25 0 -36 11t-11 32v41h-54v-44q0 -44 25.5 -66t76.5 -22z" />
    <glyph glyph-name="uni2155" unicode="&#x2155;" horiz-adv-x="577" 
d="M45 0zM333 399l207 288l-68 44l-162 -317zM255 329l-210 -298l70 -48l163 331zM434 -6q50 0 75.5 25.5t25.5 71.5v64q0 43 -20.5 65t-58.5 22q-27 0 -43.5 -10t-26.5 -27q2 20 5.5 48t6.5 50h75q28 0 38 10.5t10 35.5v3h-165l-17 -184l44 -11l4 9q8 15 20.5 24.5
t31.5 9.5q22 0 34 -10.5t12 -38.5v-59q0 -25 -12.5 -37.5t-37.5 -12.5q-23 0 -35 11t-12 33v32h-54v-34q0 -43 24 -66.5t76 -23.5zM212 359v49h-55v303h-41q-4 -28 -16 -41.5t-39 -14.5v-42h48v-205h-56v-49h159z" />
    <glyph glyph-name="uni2156" unicode="&#x2156;" horiz-adv-x="577" 
d="M37 0zM333 399l207 288l-68 44l-162 -317zM255 329l-210 -298l70 -48l163 331zM434 -6q50 0 75.5 25.5t25.5 71.5v64q0 43 -20.5 65t-58.5 22q-27 0 -43.5 -10t-26.5 -27q2 20 5.5 48t6.5 50h75q28 0 38 10.5t10 35.5v3h-165l-17 -184l44 -11l4 9q8 15 20.5 24.5
t31.5 9.5q22 0 34 -10.5t12 -38.5v-59q0 -25 -12.5 -37.5t-37.5 -12.5q-23 0 -35 11t-12 33v32h-54v-34q0 -43 24 -66.5t76 -23.5zM234 359v50h-140q3 23 18 40.5t35 33.5t39 33.5t32 39.5q7 11 10 24t3 28v20q0 41 -23 64.5t-72 23.5q-46 0 -71.5 -24.5t-25.5 -67.5v-50h53
v48q0 23 9.5 36t33.5 13t34 -11.5t10 -33.5v-16q0 -24 -14.5 -42.5t-35.5 -35.5t-42 -35.5t-36 -42.5q-7 -12 -10.5 -26.5t-3.5 -31.5v-37h197z" />
    <glyph glyph-name="uni2157" unicode="&#x2157;" horiz-adv-x="577" 
d="M33 0zM333 399l207 288l-68 44l-162 -317zM255 329l-210 -298l70 -48l163 331zM434 -6q50 0 75.5 25.5t25.5 71.5v64q0 43 -20.5 65t-58.5 22q-27 0 -43.5 -10t-26.5 -27q2 20 5.5 48t6.5 50h75q28 0 38 10.5t10 35.5v3h-165l-17 -184l44 -11l4 9q8 15 20.5 24.5
t31.5 9.5q22 0 34 -10.5t12 -38.5v-59q0 -25 -12.5 -37.5t-37.5 -12.5q-23 0 -35 11t-12 33v32h-54v-34q0 -43 24 -66.5t76 -23.5zM135 353q49 0 74.5 23.5t25.5 63.5v33q0 28 -11.5 45t-35.5 23q23 8 32.5 26t9.5 42v21q0 41 -23 63.5t-73 22.5q-47 0 -71.5 -23.5
t-24.5 -66.5v-32h52v32q0 23 11.5 34t33.5 11q24 0 34 -11t10 -34v-19q0 -22 -8 -33.5t-34 -11.5h-31v-46h31q23 0 34 -11t11 -33v-28q0 -21 -12 -32t-36 -11q-25 0 -36 11t-11 32v41h-54v-44q0 -44 25.5 -66t76.5 -22z" />
    <glyph glyph-name="uni2158" unicode="&#x2158;" horiz-adv-x="577" 
d="M26 0zM333 399l207 288l-68 44l-162 -317zM255 329l-210 -298l70 -48l163 331zM434 -6q50 0 75.5 25.5t25.5 71.5v64q0 43 -20.5 65t-58.5 22q-27 0 -43.5 -10t-26.5 -27q2 20 5.5 48t6.5 50h75q28 0 38 10.5t10 35.5v3h-165l-17 -184l44 -11l4 9q8 15 20.5 24.5
t31.5 9.5q22 0 34 -10.5t12 -38.5v-59q0 -25 -12.5 -37.5t-37.5 -12.5q-23 0 -35 11t-12 33v32h-54v-34q0 -43 24 -66.5t76 -23.5zM155 614l12 33l-4 -41v-129h-85zM250 435v42h-42v234h-46l-136 -238v-38h137v-76h45v76h42z" />
    <glyph glyph-name="uni2159" unicode="&#x2159;" horiz-adv-x="577" 
d="M45 0zM333 399l207 288l-68 44l-162 -317zM255 329l-210 -298l70 -48l163 331zM212 359v49h-55v303h-41q-4 -28 -16 -41.5t-39 -14.5v-42h48v-205h-56v-49h159zM534 94v38q0 42 -21.5 62.5t-61.5 20.5q-25 0 -43 -9.5t-28 -29.5v70q0 36 12.5 51t37.5 15t35.5 -13
t10.5 -39v-15h53v15q0 49 -24.5 73t-74.5 24t-75 -27.5t-25 -83.5v-139q0 -55 23 -84t81 -29q50 0 75 27.5t25 72.5zM434 41q-28 0 -41 14.5t-13 47.5v32q5 18 18 29.5t36 11.5q25 0 37.5 -11.5t12.5 -35.5v-34q0 -27 -12.5 -40.5t-37.5 -13.5z" />
    <glyph glyph-name="uni215A" unicode="&#x215a;" horiz-adv-x="577" 
d="M36 0zM333 399l207 288l-68 44l-162 -317zM255 329l-210 -298l70 -48l163 331zM136 353q50 0 75.5 25.5t25.5 71.5v64q0 43 -20.5 65t-58.5 22q-27 0 -43.5 -10t-26.5 -27q2 20 5.5 48t6.5 50h75q28 0 38 10.5t10 35.5v3h-165l-17 -184l44 -11l4 9q8 15 20.5 24.5
t31.5 9.5q22 0 34 -10.5t12 -38.5v-59q0 -25 -12.5 -37.5t-37.5 -12.5q-23 0 -35 11t-12 33v32h-54v-34q0 -43 24 -66.5t76 -23.5zM534 94v38q0 42 -21.5 62.5t-61.5 20.5q-25 0 -43 -9.5t-28 -29.5v70q0 36 12.5 51t37.5 15t35.5 -13t10.5 -39v-15h53v15q0 49 -24.5 73
t-74.5 24t-75 -27.5t-25 -83.5v-139q0 -55 23 -84t81 -29q50 0 75 27.5t25 72.5zM434 41q-28 0 -41 14.5t-13 47.5v32q5 18 18 29.5t36 11.5q25 0 37.5 -11.5t12.5 -35.5v-34q0 -27 -12.5 -40.5t-37.5 -13.5z" />
    <glyph glyph-name="uni215B" unicode="&#x215b;" horiz-adv-x="577" 
d="M45 0zM333 399l207 288l-68 44l-162 -317zM255 329l-210 -298l70 -48l163 331zM213 359v49h-55v303h-41q-4 -28 -16 -41.5t-39 -14.5v-42h48v-205h-56v-49h159zM431 -6q50 0 77 23t27 66v27q0 30 -14 47.5t-37 24.5q21 6 33.5 22.5t12.5 44.5v22q0 41 -25.5 63.5
t-71.5 22.5t-71.5 -22.5t-25.5 -63.5v-22q0 -28 12 -44.5t32 -22.5q-22 -7 -36.5 -25t-14.5 -47v-27q0 -44 25.5 -66.5t76.5 -22.5zM436 201h-9q-21 0 -31.5 11t-10.5 33v22q0 24 12 35.5t36 11.5t35.5 -11.5t11.5 -34.5v-23q0 -22 -11 -33t-33 -11zM431 40q-25 0 -38 12
t-13 35v27q0 21 12 34t35 13h9q24 0 36 -11.5t12 -35.5v-27q0 -23 -13 -35t-40 -12z" />
    <glyph glyph-name="uni215C" unicode="&#x215c;" horiz-adv-x="577" 
d="M32 0zM333 399l207 288l-68 44l-162 -317zM255 329l-210 -298l70 -48l163 331zM431 -6q50 0 77 23t27 66v27q0 30 -14 47.5t-37 24.5q21 6 33.5 22.5t12.5 44.5v22q0 41 -25.5 63.5t-71.5 22.5t-71.5 -22.5t-25.5 -63.5v-22q0 -28 12 -44.5t32 -22.5q-22 -7 -36.5 -25
t-14.5 -47v-27q0 -44 25.5 -66.5t76.5 -22.5zM436 201h-9q-21 0 -31.5 11t-10.5 33v22q0 24 12 35.5t36 11.5t35.5 -11.5t11.5 -34.5v-23q0 -22 -11 -33t-33 -11zM431 40q-25 0 -38 12t-13 35v27q0 21 12 34t35 13h9q24 0 36 -11.5t12 -35.5v-27q0 -23 -13 -35t-40 -12z
M134 353q49 0 74.5 23.5t25.5 63.5v33q0 28 -11.5 45t-35.5 23q23 8 32.5 26t9.5 42v21q0 41 -23 63.5t-73 22.5q-47 0 -71.5 -23.5t-24.5 -66.5v-32h52v32q0 23 11.5 34t33.5 11q24 0 34 -11t10 -34v-19q0 -22 -8 -33.5t-34 -11.5h-31v-46h31q23 0 34 -11t11 -33v-28
q0 -21 -12 -32t-36 -11q-25 0 -36 11t-11 32v41h-54v-44q0 -44 25.5 -66t76.5 -22z" />
    <glyph glyph-name="uni215D" unicode="&#x215d;" horiz-adv-x="577" 
d="M36 0zM333 399l207 288l-68 44l-162 -317zM255 329l-210 -298l70 -48l163 331zM431 -6q50 0 77 23t27 66v27q0 30 -14 47.5t-37 24.5q21 6 33.5 22.5t12.5 44.5v22q0 41 -25.5 63.5t-71.5 22.5t-71.5 -22.5t-25.5 -63.5v-22q0 -28 12 -44.5t32 -22.5q-22 -7 -36.5 -25
t-14.5 -47v-27q0 -44 25.5 -66.5t76.5 -22.5zM436 201h-9q-21 0 -31.5 11t-10.5 33v22q0 24 12 35.5t36 11.5t35.5 -11.5t11.5 -34.5v-23q0 -22 -11 -33t-33 -11zM431 40q-25 0 -38 12t-13 35v27q0 21 12 34t35 13h9q24 0 36 -11.5t12 -35.5v-27q0 -23 -13 -35t-40 -12z
M136 353q50 0 75.5 25.5t25.5 71.5v64q0 43 -20.5 65t-58.5 22q-27 0 -43.5 -10t-26.5 -27q2 20 5.5 48t6.5 50h75q28 0 38 10.5t10 35.5v3h-165l-17 -184l44 -11l4 9q8 15 20.5 24.5t31.5 9.5q22 0 34 -10.5t12 -38.5v-59q0 -25 -12.5 -37.5t-37.5 -12.5q-23 0 -35 11
t-12 33v32h-54v-34q0 -43 24 -66.5t76 -23.5z" />
    <glyph glyph-name="uni215E" unicode="&#x215e;" horiz-adv-x="577" 
d="M45 0zM333 399l207 288l-68 44l-162 -317zM255 329l-210 -298l70 -48l163 331zM431 -6q50 0 77 23t27 66v27q0 30 -14 47.5t-37 24.5q21 6 33.5 22.5t12.5 44.5v22q0 41 -25.5 63.5t-71.5 22.5t-71.5 -22.5t-25.5 -63.5v-22q0 -28 12 -44.5t32 -22.5q-22 -7 -36.5 -25
t-14.5 -47v-27q0 -44 25.5 -66.5t76.5 -22.5zM436 201h-9q-21 0 -31.5 11t-10.5 33v22q0 24 12 35.5t36 11.5t35.5 -11.5t11.5 -34.5v-23q0 -22 -11 -33t-33 -11zM431 40q-25 0 -38 12t-13 35v27q0 21 12 34t35 13h9q24 0 36 -11.5t12 -35.5v-27q0 -23 -13 -35t-40 -12z
M166 359q12 83 38.5 164t60.5 146v42h-187v-50h135q-29 -56 -59.5 -136t-44.5 -166h57z" />
    <glyph glyph-name="uni215F" unicode="&#x215f;" horiz-adv-x="577" 
d="M45 0zM333 399l207 288l-68 44l-162 -317zM255 329l-210 -298l70 -48l163 331zM212 359v49h-55v303h-41q-4 -28 -16 -41.5t-39 -14.5v-42h48v-205h-56v-49h159z" />
    <glyph glyph-name="uni2190" unicode="&#x2190;" horiz-adv-x="759" 
d="M686 325v67h-519q38 28 76 74t59 97h-77q-12 -34 -39 -70t-60 -68q-17 -15 -33.5 -28t-33.5 -23v-33q33 -19 67 -50.5t62 -67.5q13 -19 23.5 -36.5t16.5 -34.5h78q-22 52 -62 98.5t-79 74.5h521z" />
    <glyph glyph-name="arrowup" unicode="&#x2191;" horiz-adv-x="759" 
d="M581 422v77q-34 13 -70.5 39.5t-67.5 60.5q-16 17 -28.5 33.5t-22.5 33.5h-33q-19 -33 -50.5 -67t-68.5 -61q-18 -13 -36 -23t-35 -16v-77q52 22 99 60.5t75 76.5v-509h66v509q28 -38 74 -77t98 -60z" />
    <glyph glyph-name="uni2192" unicode="&#x2192;" horiz-adv-x="759" 
d="M530 152q13 34 40 70.5t61 68.5q17 15 34 28t34 22v33q-33 20 -66.5 51t-60.5 68q-14 18 -23.5 35.5t-16.5 34.5h-76q20 -51 59 -97t76 -74h-519v-67h521q-38 -28 -79 -74t-62 -99h78z" />
    <glyph glyph-name="arrowdown" unicode="&#x2193;" horiz-adv-x="759" 
d="M392 47q19 33 50.5 66.5t68.5 60.5q18 13 36 23t35 16v77q-52 -21 -99 -60t-75 -77v509h-67v-508q-28 38 -73 77t-98 60v-78q34 -12 70 -39t68 -60q15 -17 28 -33.5t23 -33.5h33z" />
    <glyph glyph-name="uni2196" unicode="&#x2196;" horiz-adv-x="759" 
d="M620 163l-368 367q46 -7 106.5 -2t111.5 27l-54 54q-33 -14 -77.5 -21t-90.5 -5q-23 0 -44 3t-40 8l-23 -24q10 -37 11.5 -83t-5.5 -90q-4 -23 -9 -42t-13 -36l54 -55q22 51 27.5 112t-1.5 107l368 -368z" />
    <glyph glyph-name="uni2197" unicode="&#x2197;" horiz-adv-x="759" 
d="M566 265l55 54q-15 33 -22 77.5t-5 90.5q1 23 3.5 44t7.5 39l-23 23q-37 -9 -83 -10.5t-91 5.5q-23 3 -42 8.5t-36 13.5l-55 -54q52 -22 113 -27.5t107 1.5l-368 -369l47 -46l368 368q-7 -46 -2.5 -106.5t26.5 -111.5z" />
    <glyph glyph-name="uni2198" unicode="&#x2198;" horiz-adv-x="759" 
d="M582 129l24 23q-10 37 -11.5 83t4.5 91q4 23 9.5 42.5t12.5 35.5l-54 55q-22 -52 -27 -112.5t2 -107.5l-369 368l-47 -47l369 -368q-46 8 -106.5 3.5t-112.5 -27.5l55 -55q33 16 77.5 22.5t90.5 4.5q23 -1 44 -3.5t39 -7.5z" />
    <glyph glyph-name="uni2199" unicode="&#x2199;" horiz-adv-x="759" 
d="M416 112l54 54q-51 22 -111.5 27.5t-107.5 -1.5l368 368l-47 47l-368 -368q8 47 3.5 107t-27.5 112l-55 -55q15 -33 22 -77.5t5 -90.5q0 -23 -3 -43.5t-8 -39.5l23 -24q38 10 83.5 11.5t90.5 -5.5q22 -4 41.5 -9t36.5 -13z" />
    <glyph glyph-name="partialdiff" unicode="&#x2202;" horiz-adv-x="472" 
d="M234 -9q87 0 135 50.5t48 147.5v196q0 123 -55 215t-159 162h-104q113 -71 171 -135t74 -142q-15 40 -46.5 62.5t-81.5 22.5q-76 0 -121.5 -48.5t-45.5 -142.5v-194q0 -95 47 -144.5t138 -49.5zM234 55q-57 0 -85 35t-28 96v192q0 64 30 97.5t85 33.5q56 0 83.5 -35.5
t27.5 -94.5v-189q0 -65 -28 -100t-85 -35z" />
    <glyph glyph-name="uni2206" unicode="&#x2206;" horiz-adv-x="581" 
d="M570 0l-279 724l-280 -724h559zM471 65h-359l179 481z" />
    <glyph glyph-name="product" unicode="&#x220f;" horiz-adv-x="556" 
d="M356 0h71v646h102v65h-502v-65h101v-646h70v646h158v-646z" />
    <glyph glyph-name="summation" unicode="&#x2211;" horiz-adv-x="390" 
d="M356 65h-251l172 302l-165 280h233v64h-308v-69l163 -274l-169 -296v-72h325v65z" />
    <glyph glyph-name="minus" unicode="&#x2212;" horiz-adv-x="444" 
d="M388 320v64h-332v-64h332z" />
    <glyph glyph-name="radical" unicode="&#x221a;" horiz-adv-x="565" 
d="M284 0l255 711h-75l-212 -601l-103 369h-117v-67h66l118 -412h68z" />
    <glyph glyph-name="infinity" unicode="&#x221e;" horiz-adv-x="711" 
d="M189 227q35 0 64.5 13.5t54.5 34.5q12 10 24.5 20.5t23.5 20.5q23 -20 48 -40.5t54 -34.5q15 -7 31 -10.5t34 -3.5q59 0 96 37t37 95q0 59 -36.5 95.5t-95.5 36.5q-35 0 -65 -14.5t-56 -35.5q-12 -10 -24 -20.5t-23 -21.5q-23 21 -48 42t-55 36q-14 7 -30 10.5t-34 3.5
q-58 0 -96.5 -37.5t-38.5 -95.5q0 -61 37 -96t98 -35zM522 288q-36 0 -66 22t-58 47q28 26 58.5 49t65.5 23q32 0 51.5 -20.5t19.5 -50.5q0 -29 -20 -49.5t-51 -20.5zM190 288q-31 0 -50.5 20.5t-19.5 49.5q0 30 20 50.5t50 20.5q35 0 66 -22.5t59 -48.5q-28 -25 -59 -47.5
t-66 -22.5z" />
    <glyph glyph-name="integral" unicode="&#x222b;" horiz-adv-x="286" 
d="M-3 -150h42q54 0 83 13t40 45q5 16 8 39t3 52v616q0 42 6 63.5t22 29.5q8 3 20 5t27 2h27v62h-36q-73 0 -104 -33t-31 -122v-615q0 -39 -5.5 -58.5t-21.5 -25.5q-8 -4 -19 -5.5t-26 -1.5h-35v-66z" />
    <glyph glyph-name="approxequal" unicode="&#x2248;" horiz-adv-x="452" 
d="M144 492q-23 0 -43 -10t-28 -23v-69q11 18 31 28.5t39 10.5q23 0 49.5 -10t56.5 -19q15 -5 30 -7.5t31 -2.5q22 0 41.5 9.5t26.5 22.5v70q-10 -19 -28.5 -29t-39.5 -10q-23 0 -51.5 9.5t-57.5 19.5q-15 5 -29 7.5t-28 2.5zM73 285v-69q10 16 29.5 27t39.5 11
q24 0 51 -9.5t57 -19.5q15 -5 30 -7.5t30 -2.5q24 0 42.5 10t25.5 22v70q-13 -19 -30 -29t-38 -10q-23 0 -51 10t-58 20q-15 5 -30 7.5t-29 2.5q-22 0 -41.5 -10t-27.5 -23z" />
    <glyph glyph-name="notequal" unicode="&#x2260;" horiz-adv-x="452" 
d="M381 233v62h-153l34 125h119v62h-102l22 81h-44l-22 -81h-165v-62h148l-34 -125h-114v-62h97l-25 -91h44l25 91h170z" />
    <glyph glyph-name="equivalence" unicode="&#x2261;" horiz-adv-x="452" 
d="M381 473v62h-311v-62h311zM381 326v63h-311v-63h311zM381 181v62h-311v-62h311z" />
    <glyph glyph-name="lessequal" unicode="&#x2264;" horiz-adv-x="452" 
d="M375 272v72l-223 82l223 81v69l-304 -122v-58zM376 149v63h-304v-63h304z" />
    <glyph glyph-name="greaterequal" unicode="&#x2265;" horiz-adv-x="452" 
d="M77 272l304 124v58l-304 122v-69l223 -81l-223 -82v-72zM380 149v63h-303v-63h303z" />
    <glyph glyph-name="uni22A0" unicode="&#x22a0;" horiz-adv-x="904" 
d="M99 0h706v711h-706v-711zM195 620h513v-530h-513v530zM589 160l57 57l-138 141l137 142l-57 56l-136 -140l-136 139l-57 -55l138 -142l-139 -143l57 -56l137 142z" />
    <glyph glyph-name="house" unicode="&#x2302;" horiz-adv-x="844" 
d="M744 0v401l-322 309l-322 -309v-401h644z" />
    <glyph glyph-name="uni25A0" unicode="&#x25a0;" horiz-adv-x="904" 
d="M99 0h706v711h-706v-711z" />
    <glyph glyph-name="uni25A1" unicode="&#x25a1;" horiz-adv-x="904" 
d="M99 0v711h706v-711h-706zM195 620v-530h513v530h-513z" />
    <glyph glyph-name="uni25AA" unicode="&#x25aa;" horiz-adv-x="763" 
d="M100 0h563v562h-563v-562z" />
    <glyph glyph-name="uni25AB" unicode="&#x25ab;" horiz-adv-x="763" 
d="M100 0h563v562h-563v-562zM196 473h372v-383h-372v383z" />
    <glyph glyph-name="triagup" unicode="&#x25b2;" horiz-adv-x="878" 
d="M857 0l-417 725l-419 -725h836z" />
    <glyph glyph-name="triagrt" unicode="&#x25ba;" horiz-adv-x="878" 
d="M99 -55l725 418l-725 418v-836z" />
    <glyph glyph-name="triagdn" unicode="&#x25bc;" horiz-adv-x="878" 
d="M21 713l419 -725l417 725h-836z" />
    <glyph glyph-name="triaglf" unicode="&#x25c4;" horiz-adv-x="878" 
d="M779 781l-724 -418l724 -418v836z" />
    <glyph glyph-name="lozenge" unicode="&#x25ca;" horiz-adv-x="586" 
d="M293 89l265 264l-267 266l-264 -264zM119 355l171 172l175 -174l-172 -172z" />
    <glyph glyph-name="uni25CB" unicode="&#x25cb;" horiz-adv-x="901" 
d="M450 -10q79 0 145 27t115 75q48 49 74.5 115t26.5 144q0 79 -26.5 145t-75.5 115q-48 48 -114 75t-145 27q-78 0 -144 -27t-114 -76q-49 -48 -75.5 -114.5t-26.5 -144.5q0 -105 46.5 -186.5t127.5 -128.5q40 -23 87 -34.5t99 -11.5zM450 85q-75 0 -135 35t-94 95
q-18 30 -26.5 64t-8.5 72q0 77 35 138t95 96q30 17 63.5 26t70.5 9q77 0 136.5 -36t94.5 -97q17 -30 25.5 -64t8.5 -72q0 -75 -34.5 -135.5t-94.5 -95.5q-30 -17 -64 -26t-72 -9z" />
    <glyph glyph-name="uni25CE" unicode="&#x25ce;" horiz-adv-x="892" 
d="M444 -10q79 0 145 26.5t114 75.5q48 48 74 113t26 142q0 79 -26.5 144.5t-74.5 114.5q-49 48 -114.5 74.5t-143.5 26.5t-143 -27t-112 -75q-48 -49 -74 -114.5t-26 -143.5q0 -104 45.5 -184.5t125.5 -126.5q40 -23 86 -34.5t98 -11.5zM444 117q-63 0 -114.5 30.5
t-82.5 82.5q-15 26 -22.5 55.5t-7.5 61.5q0 67 30.5 120t81.5 84q26 16 54.5 23.5t60.5 7.5q67 0 119 -31.5t82 -84.5q15 -27 22.5 -56.5t7.5 -62.5q0 -65 -30 -117t-82 -83q-26 -15 -55.5 -22.5t-63.5 -7.5zM445 182q49 0 87 21.5t60 58.5q11 19 16.5 40t5.5 44
q0 48 -22 86t-61 60q-19 11 -40.5 16.5t-45.5 5.5q-46 0 -83.5 -22t-59.5 -60q-11 -19 -16.5 -40.5t-5.5 -45.5q0 -47 21.5 -84.5t58.5 -58.5q18 -10 39.5 -15.5t45.5 -5.5zM445 291q-22 0 -36.5 16.5t-14.5 38.5q0 26 14.5 42t36.5 16q24 0 39 -16t15 -42q0 -22 -15 -38.5
t-39 -16.5z" />
    <glyph glyph-name="uni25CF" unicode="&#x25cf;" horiz-adv-x="901" 
d="M450 -10q79 0 145 27t115 75q48 49 74.5 115t26.5 144q0 79 -26.5 145t-75.5 115q-48 48 -114 75t-145 27q-78 0 -144 -27t-114 -76q-49 -48 -75.5 -114.5t-26.5 -144.5q0 -105 46.5 -186.5t127.5 -128.5q40 -23 87 -34.5t99 -11.5z" />
    <glyph glyph-name="uni25E2" unicode="&#x25e2;" horiz-adv-x="878" 
d="M853 520l-807 217l216 -808z" />
    <glyph glyph-name="uni25E3" unicode="&#x25e3;" horiz-adv-x="878" 
d="M619 -71l216 808l-808 -217z" />
    <glyph glyph-name="uni25E4" unicode="&#x25e4;" horiz-adv-x="878" 
d="M838 -52l-216 807l-592 -592z" />
    <glyph glyph-name="uni25E5" unicode="&#x25e5;" horiz-adv-x="878" 
d="M852 159l-590 592l-217 -807z" />
    <glyph glyph-name="uni2605" unicode="&#x2605;" horiz-adv-x="891" 
d="M556 299l185 133l-227 1l-70 214l-72 -214l-225 1l184 -134l-72 -216l184 133l185 -133z" />
    <glyph glyph-name="uni263C" unicode="&#x263c;" horiz-adv-x="919" 
d="M447 560h19l17 141h-53zM553 538l15 -10l85 113l-45 28zM346 528l13 10l-53 131l-47 -28zM633 464l10 -16l130 56l-29 45zM271 448l10 15l-114 86l-27 -46zM285 351q0 -47 23 -86t62 -63q20 -11 41.5 -17t44.5 -6q47 0 86.5 23.5t62.5 62.5q12 19 18 41t6 45
q0 47 -23.5 86t-63.5 63q-19 11 -40.5 17t-45.5 6q-47 0 -86 -23.5t-62 -62.5q-11 -19 -17 -40.5t-6 -45.5zM664 362v-19l141 -17v53zM248 343v19l-140 17v-53zM281 240l-10 15l-131 -55l29 -46zM643 255l-10 -14l113 -87l27 47zM359 166l-13 10l-87 -113l47 -27zM568 176
l-15 -10l55 -130l45 27zM466 145h-19l-17 -141h53z" />
    <glyph glyph-name="uni263E" unicode="&#x263e;" horiz-adv-x="780" 
d="M529 597q17 0 35 -3.5t35 -8.5q-40 28 -84 42t-92 14q-60 0 -113 -22.5t-93 -63.5q-41 -40 -63.5 -93t-22.5 -113t22.5 -113t63.5 -93q40 -41 93 -63.5t113 -22.5q48 0 93 15t83 42q-17 -5 -35 -8.5t-35 -3.5q-65 0 -119 33.5t-85 89.5q-16 28 -24 59t-8 65
q0 68 31.5 124.5t85.5 89.5q27 17 56.5 25.5t62.5 8.5z" />
    <glyph glyph-name="spade" unicode="&#x2660;" horiz-adv-x="893" 
d="M478 280q13 -33 36 -63t58 -49q17 -10 37.5 -14.5t43.5 -4.5q43 0 77.5 21t54.5 55q11 18 16 37t5 40q0 56 -21.5 102.5t-70.5 95.5q-24 25 -56 53.5t-72 60.5l-136 108l-135 -108q-81 -64 -131.5 -113.5t-73.5 -96.5q-12 -23 -18 -48.5t-6 -53.5q0 -42 23 -76.5
t60 -55.5q19 -11 40 -16t43 -5q45 0 77 19t54 49q10 15 18.5 30.5t14.5 32.5q0 -58 -17.5 -113t-38.5 -99l-19.5 -39t-15.5 -29h250q-9 18 -25 47.5t-33 67.5q-16 37 -27.5 79t-11.5 86z" />
    <glyph glyph-name="club" unicode="&#x2663;" horiz-adv-x="893" 
d="M641 127q47 0 85.5 23t61.5 62q12 20 17.5 41.5t5.5 45.5q0 48 -22.5 86.5t-61.5 60.5q-19 12 -40 17.5t-45 5.5q-12 0 -23.5 -2t-22.5 -6q10 21 14.5 42.5t4.5 44.5q0 47 -23 85t-61 61q-20 12 -41 17.5t-45 5.5q-47 0 -86 -23t-62 -61q-12 -19 -17.5 -40.5t-5.5 -44.5
q0 -22 5.5 -43.5t14.5 -41.5q-9 2 -19.5 4t-21.5 2q-47 0 -86.5 -22.5t-62.5 -61.5q-11 -19 -17 -40.5t-6 -45.5q0 -48 23 -87t62 -62q20 -11 41.5 -17t45.5 -6q56 0 99 32.5t63 83.5q-6 -51 -23 -99t-36 -85q-9 -19 -16.5 -33.5t-13.5 -25.5h250q-11 22 -31 59t-38 84
q-9 24 -15.5 48.5t-9.5 50.5q20 -50 61.5 -82.5t97.5 -32.5z" />
    <glyph glyph-name="heart" unicode="&#x2665;" horiz-adv-x="893" 
d="M444 -17l136 153q81 89 130.5 158t72.5 126q11 29 16.5 57.5t5.5 56.5q0 50 -25 91.5t-67 66.5q-21 13 -43.5 19t-47.5 6q-74 0 -122 -44.5t-56 -111.5q-5 45 -29.5 80t-62.5 56q-19 10 -41 15t-46 5q-50 0 -90.5 -25t-63.5 -66q-12 -21 -18 -44t-6 -48
q0 -56 21.5 -113.5t70.5 -126.5q24 -35 56.5 -74t72.5 -84z" />
    <glyph glyph-name="diamond" unicode="&#x2666;" horiz-adv-x="893" 
d="M130 359l317 -369l315 369l-315 366z" />
    <glyph glyph-name="uni267B" unicode="&#x267b;" horiz-adv-x="822" 
d="M347 671l13.5 -2.5t31.5 -12.5q9 -5 17 -13t14 -19l60 -105l-33 -20l143 -27l52 141l-36 -21l-24 41q-16 28 -34.5 33t-41.5 6h-162v-1zM176 520l126 -72l96 168q-8 16 -31.5 28t-51.5 14q-15 1 -28 -2t-26 -11q-10 -4 -17.5 -12t-10.5 -13zM682 460l-124 -70l96 -168
q18 0 40 14t39 38q8 12 12 25t4 28q0 11 -2.5 21t-5.5 15zM165 124l-4.5 13.5t-4.5 33.5q0 10 3 20.5t9 21.5q1 2 10 18t21 36t21 35.5l9 15.5l34 -21l-49 140l-147 -26l36 -21l-24 -42q-16 -27 -11.5 -46t15.5 -39l80 -139h2zM731 243l-10 -11t-28 -22q-9 -5 -19.5 -8
t-23.5 -3h-120v42l-94 -113l94 -114v41h48q33 0 47 14t25 33l82 140zM382 55v144h-193q-9 -15 -8 -41t14 -51q6 -13 15.5 -23t22.5 -18q10 -6 20 -8.5t17 -2.5h112z" />
    <glyph glyph-name="uni267C" unicode="&#x267c;" horiz-adv-x="822" 
d="M745 349q0 70 -26 131t-71 107q-46 46 -106.5 72t-129.5 26t-130 -26t-107 -72q-47 -46 -73 -107t-26 -131q0 -69 26 -129.5t73 -105.5q46 -46 107 -71.5t130 -25.5t129.5 25.5t106.5 71.5q45 45 71 105.5t26 129.5zM355 604h126q19 0 33 -4.5t27 -26.5l18 -31l28 15
l-40 -109l-111 21l26 16l-47 81q-9 17 -23.5 24.5t-25.5 10.5q-5 1 -8 1.5l-3 0.5v1zM272 562q2 5 8 11t13 10q20 12 42 10t40 -11q9 -5 15 -10.5t9 -11.5l-73 -129l-98 55zM663 365q3 -5 5.5 -12.5t2.5 -15.5q0 -23 -12 -42t-29 -31q-9 -5 -16.5 -8t-14.5 -3l-76 131l98 57
zM218 178l-63 108q-7 17 -11.5 31t8.5 36l19 32l-27 17l112 19l39 -108l-27 17l-47 -81q-9 -17 -9 -33.5t4 -26.5q1 -6 2 -8.5l1 -2.5h-1zM657 269l-62 -108q-9 -13 -19.5 -23.5t-36.5 -10.5h-37v-33l-74 87l74 87v-30h93q20 0 33.5 8t20.5 16q4 4 5.5 6l1.5 2zM297 127
q-5 0 -13 2t-16 6q-19 11 -29 30.5t-11 39.5q-1 10 0.5 18.5t5.5 14.5h150v-111h-87z" />
    <glyph glyph-name="uni267D" unicode="&#x267d;" horiz-adv-x="822" 
d="M745 349q0 70 -26 131t-71 107q-46 46 -106.5 72t-129.5 26t-130 -26t-107 -72q-47 -46 -73 -107t-26 -131q0 -69 26 -129.5t73 -105.5q46 -46 107 -71.5t130 -25.5t129.5 25.5t106.5 71.5q45 45 71 105.5t26 129.5zM728 349q0 -66 -24.5 -123.5t-67.5 -100.5
q-44 -43 -101 -67.5t-123 -24.5t-124 24.5t-101 67.5q-44 43 -69 100.5t-25 123.5t25 124t69 102q43 44 101 68.5t124 24.5t123 -24.5t101 -68.5q43 -44 67.5 -102t24.5 -124zM355 603l11 -2.5t25 -10.5q7 -4 13 -10t11 -14l47 -81l-26 -16l111 -21l40 109l-28 -15l-18 31
q-13 22 -27 26.5t-33 4.5h-126v-1zM228 486l98 -55l73 129q-6 13 -24 22t-40 11q-11 1 -21.5 -1.5t-20.5 -8.5q-7 -4 -13 -10t-8 -11zM621 441l-98 -57l76 -131q14 0 31 11.5t29 30.5q6 9 9 20t3 22q0 8 -2.5 15.5t-5.5 12.5zM219 178l-3.5 10.5t-3.5 27.5q0 8 2 16.5
t7 16.5l47 81l27 -17l-39 108l-112 -19l27 -17l-19 -32q-13 -22 -8.5 -36t11.5 -31l63 -108h1zM656 270l-7 -8t-20 -16q-7 -4 -15.5 -6t-18.5 -2h-93v30l-74 -87l74 -87v33h37q26 0 36.5 10.5t19.5 23.5l62 108zM384 127v111h-150q-7 -12 -6 -32.5t11 -40.5q5 -10 12 -17.5
t17 -12.5q8 -4 16 -6t13 -2h87z" />
    <glyph glyph-name="uni2E18" unicode="&#x2e18;" horiz-adv-x="489" 
d="M247 563q-26 0 -38.5 -14t-12.5 -46q0 -33 12 -46t39 -13q26 0 38.5 13t12.5 46q0 34 -11.5 47t-39.5 13zM244 -165q95 0 141.5 43.5t46.5 122.5v107h-69v-102q0 -47 -20 -75.5t-64 -35.5v99v122t-1 122v53.5t-1 43.5q0 26 -1 40t-2 21q-5 -2 -11.5 -3t-15.5 -1
q-8 0 -14.5 1t-11.5 3l-1 -49q-1 -42 -17 -68.5t-39 -47.5q-24 -20 -47 -42t-39 -54q-8 -17 -12 -37.5t-4 -46.5v-66q0 -63 44 -106.5t138 -43.5zM130 -10v64q0 39 10 60t25 36q16 15 31.5 33t27.5 50q-4 -58 -5.5 -123t-1.5 -117v-99q-46 6 -66.5 32t-20.5 64z" />
    <glyph glyph-name="uni3008" unicode="&#x3008;" horiz-adv-x="299" 
d="M275 -175l-152 458l148 453h-75l-148 -454l151 -457h76z" />
    <glyph glyph-name="uni3009" unicode="&#x3009;" horiz-adv-x="299" 
d="M101 -175l151 457l-148 454h-75l147 -453l-152 -458h77z" />
    <glyph glyph-name="Aumlaut" horiz-adv-x="467" 
d="M372 613q22 0 32.5 12.5t10.5 37.5q0 27 -10.5 38.5t-32.5 11.5t-33.5 -11.5t-11.5 -38.5q0 -28 10.5 -39t34.5 -11zM91 613q23 0 34 12.5t11 37.5q0 27 -11 38.5t-34 11.5q-22 0 -33 -11.5t-11 -38.5q0 -28 10.5 -39t33.5 -11zM220 549l12 100l11 -99l78 -330h-175z
M373 0h72l-178 711h-72l-172 -711h73l35 154h206z" />
    <glyph glyph-name="Oumlaut" horiz-adv-x="505" 
d="M434 667q13 0 19 6.5t6 19.5q0 14 -6 21t-19 7t-19.5 -6.5t-6.5 -20.5q0 -16 6.5 -21.5t19.5 -5.5zM73 667q14 0 20.5 6.5t6.5 19.5q0 14 -6.5 21t-19.5 7t-19.5 -6.5t-6.5 -20.5q0 -16 6 -21.5t19 -5.5zM252 -10q95 0 147 54t52 167v283q0 110 -51.5 167t-146.5 57
q-94 0 -146 -57t-52 -167v-283q0 -114 51.5 -167.5t145.5 -53.5zM253 57q-64 0 -94.5 39.5t-30.5 118.5v277q0 78 30 120t94 42q65 0 95 -41.5t30 -120.5v-277q0 -79 -31 -118.5t-93 -39.5z" />
    <glyph glyph-name="Uumlaut" horiz-adv-x="492" 
d="M292 611q14 0 21.5 11.5t7.5 39.5q0 29 -7.5 40t-21.5 11q-15 0 -23 -11t-8 -39q0 -30 7.5 -41t23.5 -11zM199 611q15 0 22.5 11.5t7.5 39.5q0 29 -7.5 40t-22.5 11q-14 0 -22 -11t-8 -39q0 -30 7 -41t23 -11zM246 -10q91 0 137 52t46 161v508h-73v-505q0 -77 -26 -112
t-84 -35t-84 35.5t-26 111.5v505h-73v-508q0 -109 44.5 -161t138.5 -52z" />
    <glyph glyph-name="I.alt" horiz-adv-x="213" 
d="M143 0v711h-73v-711h73z" />
    <glyph glyph-name="Iacute.alt" horiz-adv-x="213" 
d="M70 0zM143 0v711h-73v-711h73zM79 774h56l121 157h-77z" />
    <glyph glyph-name="Ibreve.alt" horiz-adv-x="213" 
d="M0 0zM143 0v711h-73v-711h73zM107 772q69 0 101.5 39t33.5 107h-54q-1 -46 -20 -70t-60 -25q-43 1 -60.5 25t-19.5 70h-54q2 -68 30.5 -107t102.5 -39z" />
    <glyph glyph-name="Icircumflex.alt" horiz-adv-x="213" 
d="M0 0zM143 0v711h-73v-711h73zM171 774h63l-99 146h-52l-99 -146h63l62 95z" />
    <glyph glyph-name="Idieresis.alt" horiz-adv-x="213" 
d="M0 0zM143 0v711h-73v-711h73zM176 774q21 0 32 11.5t11 38.5q0 26 -10.5 37.5t-32.5 11.5t-33.5 -11.5t-11.5 -37.5q0 -28 10.5 -39t34.5 -11zM39 774q23 0 34 11.5t11 38.5q0 26 -10.5 37.5t-33.5 11.5q-22 0 -33 -11.5t-11 -37.5q0 -28 10.5 -39t32.5 -11z" />
    <glyph glyph-name="Idotaccent.alt" horiz-adv-x="213" 
d="M57 0zM143 0v711h-73v-711h73zM107 773q24 0 36.5 13t12.5 42q0 30 -12.5 43t-35.5 13q-25 0 -38 -13t-13 -43q0 -31 12 -43t38 -12z" />
    <glyph glyph-name="Igrave.alt" horiz-adv-x="213" 
d="M0 0zM143 0v711h-73v-711h73zM82 775h56l-90 146h-76z" />
    <glyph glyph-name="Imacron.alt" horiz-adv-x="213" 
d="M0 0zM143 0v711h-73v-711h73zM-2 785h220v56h-220v-56z" />
    <glyph glyph-name="Iogonek.alt" horiz-adv-x="213" 
d="M226 -98h-65q-6 -21 -20.5 -31.5t-36.5 -10.5q-23 0 -36.5 11t-13.5 31q0 22 19 42.5t70 55.5v711h-73v-704q-41 -28 -57.5 -55t-16.5 -55q0 -41 27.5 -63t77.5 -22q48 0 79 22.5t46 67.5z" />
    <glyph glyph-name="Itilde.alt" horiz-adv-x="213" 
d="M0 0zM143 0v711h-73v-711h73zM-38 777h51q0 29 7 41.5t23 12.5q19 0 36.5 -14.5t38.5 -28.5q10 -7 23 -10.5t28 -3.5q45 0 63.5 29t18.5 80h-50q0 -32 -8 -43.5t-25 -11.5t-34.5 14t-39.5 29q-10 7 -23 10.5t-28 3.5q-43 0 -61.5 -28t-19.5 -80z" />
    <glyph glyph-name="i.dot" horiz-adv-x="198" 
d="M54 0zM101 632q24 0 35.5 12.5t11.5 42.5t-11 42t-36 12t-36 -12t-11 -42q0 -31 10.5 -43t36.5 -12zM134 0v572h-70v-572h70z" />
    <glyph glyph-name="cordinal" horiz-adv-x="347" 
d="M177 307q58 0 94.5 30.5t38.5 93.5v48h-67v-47q-2 -33 -18.5 -49.5t-47.5 -16.5q-36 0 -53 21.5t-17 58.5v136q0 41 17.5 61.5t52.5 20.5q31 0 47 -16.5t18 -50.5v-36h67v37q-2 62 -37.5 92.5t-94.5 30.5q-60 0 -97.5 -35.5t-37.5 -102.5v-140q0 -65 34.5 -100.5
t100.5 -35.5z" />
    <glyph glyph-name="g.alt" horiz-adv-x="445" 
d="M215 -194q76 0 124 19.5t70 51.5q12 16 17.5 34t5.5 37v2q0 54 -36 86t-116 32h-103q-43 -1 -61 9t-18 30q0 23 23.5 35t83.5 12h19q80 0 127.5 39.5t47.5 115.5v113q0 63 -31.5 98.5t-76.5 42.5l-19 3q70 2 94.5 15t24.5 47v17h-77v-5q0 -23 -8.5 -33t-29.5 -15
q-11 -2 -26 -4.5t-35 -6.5l-17.5 -2.5t-15.5 -3.5q-62 -13 -96 -52.5t-34 -104.5v-110q0 -53 20.5 -85t62.5 -46q-50 -8 -75.5 -30t-25.5 -58t25 -57.5t77 -25.5q-48 -12 -76.5 -38.5t-28.5 -62.5q0 -46 38.5 -72.5t125.5 -26.5h20zM223 208q-50 0 -75 25t-25 75v110
q0 42 17.5 68t51.5 36q8 2 17.5 3t19.5 1q49 0 73.5 -27.5t24.5 -77.5v-112q0 -49 -26.5 -75t-77.5 -26zM200 -134q-50 0 -75 15.5t-25 41.5v2q0 33 30 55t77 26h63q50 0 71.5 -16t21.5 -45v-2q0 -33 -35.5 -55t-102.5 -22h-25z" />
    <glyph glyph-name="g.alt2" horiz-adv-x="483" 
d="M234 54q-55 0 -84 37t-29 109v166q0 79 30 115.5t86 36.5q59 0 87.5 -42t28.5 -113v-160q0 -67 -31.5 -108t-87.5 -41zM241 -223q94 0 136.5 46t42.5 123v626h-56l-8 -98q-13 49 -46 77.5t-92 28.5q-79 0 -124 -51.5t-45 -163.5v-168q0 -108 45 -157t121 -49
q56 0 90 28.5t47 80.5v-155q0 -51 -27.5 -79t-83.5 -28q-55 0 -80.5 25t-25.5 74v9h-71v-12q0 -71 40 -114t137 -43z" />
    <glyph glyph-name="uni0123.alt" horiz-adv-x="483" 
d="M49 0zM234 54q-55 0 -84 37t-29 109v166q0 79 30 115.5t86 36.5q59 0 87.5 -42t28.5 -113v-160q0 -67 -31.5 -108t-87.5 -41zM241 -223q94 0 136.5 46t42.5 123v626h-56l-8 -98q-13 49 -46 77.5t-92 28.5q-79 0 -124 -51.5t-45 -163.5v-168q0 -108 45 -157t121 -49
q56 0 90 28.5t47 80.5v-155q0 -51 -27.5 -79t-83.5 -28q-55 0 -80.5 25t-25.5 74v9h-71v-12q0 -71 40 -114t137 -43zM235 643q24 0 35.5 12.5t11.5 37.5q0 28 -10 36.5t-28 8.5q-2 0 -5 -0.5t-6 -1.5q3 26 14.5 42t30.5 22l-4 38q-43 -10 -64.5 -44t-21.5 -82q0 -37 11 -53
t36 -16z" />
    <glyph glyph-name="gcircumflex.alt" horiz-adv-x="483" 
d="M49 0zM234 54q-55 0 -84 37t-29 109v166q0 79 30 115.5t86 36.5q59 0 87.5 -42t28.5 -113v-160q0 -67 -31.5 -108t-87.5 -41zM241 -223q94 0 136.5 46t42.5 123v626h-56l-8 -98q-13 49 -46 77.5t-92 28.5q-79 0 -124 -51.5t-45 -163.5v-168q0 -108 45 -157t121 -49
q56 0 90 28.5t47 80.5v-155q0 -51 -27.5 -79t-83.5 -28q-55 0 -80.5 25t-25.5 74v9h-71v-12q0 -71 40 -114t137 -43zM300 642h63l-99 146h-52l-99 -146h63l62 95z" />
    <glyph glyph-name="gdotaccent.alt" horiz-adv-x="483" 
d="M49 0zM234 54q-55 0 -84 37t-29 109v166q0 79 30 115.5t86 36.5q59 0 87.5 -42t28.5 -113v-160q0 -67 -31.5 -108t-87.5 -41zM241 -223q94 0 136.5 46t42.5 123v626h-56l-8 -98q-13 49 -46 77.5t-92 28.5q-79 0 -124 -51.5t-45 -163.5v-168q0 -108 45 -157t121 -49
q56 0 90 28.5t47 80.5v-155q0 -51 -27.5 -79t-83.5 -28q-55 0 -80.5 25t-25.5 74v9h-71v-12q0 -71 40 -114t137 -43zM236 641q24 0 36.5 13t12.5 42q0 30 -12.5 43t-35.5 13q-25 0 -38 -13t-13 -43q0 -31 12 -43t38 -12z" />
    <glyph glyph-name="gbreve.alt" horiz-adv-x="483" 
d="M49 0zM234 54q-55 0 -84 37t-29 109v166q0 79 30 115.5t86 36.5q59 0 87.5 -42t28.5 -113v-160q0 -67 -31.5 -108t-87.5 -41zM241 -223q94 0 136.5 46t42.5 123v626h-56l-8 -98q-13 49 -46 77.5t-92 28.5q-79 0 -124 -51.5t-45 -163.5v-168q0 -108 45 -157t121 -49
q56 0 90 28.5t47 80.5v-155q0 -51 -27.5 -79t-83.5 -28q-55 0 -80.5 25t-25.5 74v9h-71v-12q0 -71 40 -114t137 -43zM236 640q69 0 101.5 39t33.5 107h-54q-1 -46 -20 -70t-60 -25q-43 1 -60.5 25t-19.5 70h-54q2 -68 30.5 -107t102.5 -39z" />
    <glyph glyph-name="caronSlovak" 
d="M168 642h47l48 148h-62z" />
    <glyph glyph-name="altcedilla" 
d="M203 -213q56 0 86.5 24t30.5 68q0 39 -26.5 61.5t-80.5 22.5h-43v-45h31q34 0 47.5 -11t13.5 -30q0 -22 -14.5 -32.5t-44.5 -10.5q-28 0 -44 12t-19 36h-62q6 -46 34.5 -70.5t90.5 -24.5z" />
    <glyph glyph-name="uni00200326" horiz-adv-x="411" 
d="M159 -244q43 10 64.5 44t21.5 82q0 37 -11 52.5t-37 15.5q-23 0 -34.5 -11.5t-11.5 -37.5q0 -28 9.5 -36.5t28.5 -8.5q3 0 5.5 0.5t5.5 1.5q-3 -26 -14.5 -42t-30.5 -22z" />
    <glyph glyph-name="uni00200323" horiz-adv-x="411" 
d="M198 -182q24 0 36.5 13t12.5 42q0 28 -12 42t-37 14t-37.5 -14t-12.5 -42q0 -30 12 -42.5t38 -12.5z" />
    <glyph glyph-name="doublegrave" 
d="M284 638h53l-83 146h-75zM165 638h53l-87 146h-76z" />
    <glyph glyph-name="invertedbreve" 
d="M203 782q-66 0 -99 -38.5t-34 -105.5h54q1 47 21 71t58 25q40 -1 59 -24t20 -72h55q-1 67 -35 105.5t-99 38.5z" />
    <glyph glyph-name="uni00200326.alt" horiz-adv-x="411" 
d="M205 639q24 0 35.5 12.5t11.5 37.5q0 28 -10 36.5t-28 8.5q-2 0 -5 -0.5t-6 -1.5q3 26 14.5 42t30.5 22l-4 38q-43 -10 -64.5 -44t-21.5 -82q0 -37 11 -53t36 -16z" />
    <glyph glyph-name="exclamdown.cap" horiz-adv-x="256" 
d="M128 719q-26 0 -39 -13.5t-13 -45.5q0 -33 12.5 -45.5t39.5 -12.5q26 0 38.5 12.5t12.5 45.5q0 34 -11.5 46.5t-39.5 12.5zM165 0v151q0 45 -1 97t-2 103q-2 51 -3.5 94.5t-3.5 71.5q0 14 -1 23t-1 12q-4 -1 -11 -2t-15 -1q-9 0 -15 1t-10 2q-1 -6 -2.5 -34.5t-3.5 -71.5
q-1 -43 -2.5 -94t-2.5 -103q-1 -26 -1 -50.5v-47.5v-151h75z" />
    <glyph glyph-name="questiondown.cap" horiz-adv-x="471" 
d="M282 554q-4 -3 -14 -4.5t-21 -1.5q-12 0 -21.5 1.5t-13.5 4.5v-57q-1 -51 -23 -78.5t-50 -51.5q-20 -16 -39 -36.5t-31 -49.5q-6 -14 -9 -32.5t-3 -40.5v-61q0 -66 43.5 -110t133.5 -44q92 0 137.5 44t45.5 121v103h-75v-97q0 -52 -24.5 -79.5t-82.5 -27.5
q-56 0 -80 27.5t-24 67.5v59q0 47 21.5 72t48.5 47q21 16 39.5 35.5t30.5 49.5q6 14 9 33t3 41v25v22t-1 18zM246 719q-26 0 -38.5 -13.5t-12.5 -46.5q0 -32 12 -45t39 -13q26 0 38.5 13t12.5 45q0 34 -11.5 47t-39.5 13z" />
    <glyph glyph-name="uni2E18.cap" horiz-adv-x="489" 
d="M247 720q-26 0 -38.5 -13.5t-12.5 -46.5q0 -32 12 -45t39 -13q26 0 38.5 13t12.5 45q0 34 -11.5 47t-39.5 13zM244 -8q95 0 141.5 44t46.5 123v106h-69v-102q0 -46 -20 -74t-64 -36v98v122t-1 123v53.5t-1 43.5q0 26 -1 40t-2 21q-3 -2 -10 -3t-17 -1q-7 0 -14.5 1
t-11.5 2l-1 -48q-1 -42 -17 -69t-39 -47q-24 -21 -47 -43t-39 -54q-8 -16 -12 -37t-4 -46v-66q0 -64 44 -107.5t138 -43.5zM130 148v64q0 38 10 59.5t25 36.5q16 15 31.5 33t27.5 49q-4 -57 -5.5 -122t-1.5 -117v-99q-46 6 -66.5 32t-20.5 64z" />
    <glyph glyph-name="guilsinglleft.cap" horiz-adv-x="311" 
d="M261 161l-134 191l126 193h-68l-123 -191v-8l128 -185h71z" />
    <glyph glyph-name="guilsinglright.cap" horiz-adv-x="311" 
d="M121 161l128 185v8l-123 191h-68l126 -192l-134 -192h71z" />
    <glyph glyph-name="guillemotleft.cap" horiz-adv-x="477" 
d="M433 161l-139 195l125 189h-67l-123 -188v-8l133 -188h71zM261 161l-134 193l126 191h-66l-124 -190v-9l127 -185h71z" />
    <glyph glyph-name="guillemotright.cap" horiz-adv-x="477" 
d="M120 161l131 188v8l-122 188h-67l125 -189l-139 -195h72zM291 161l127 185v9l-123 190h-67l126 -191l-135 -193h72z" />
    <glyph glyph-name="slash.cap" horiz-adv-x="294" 
d="M103 0l163 711h-72l-165 -711h74z" />
    <glyph glyph-name="backslash.cap" horiz-adv-x="294" 
d="M30 711l162 -711h72l-162 711h-72z" />
    <glyph glyph-name="bar.cap" horiz-adv-x="210" 
d="M140 -90v881h-71v-881h71z" />
    <glyph glyph-name="uni2016.cap" horiz-adv-x="391" 
d="M321 -90v881h-71v-881h71zM140 -90v881h-71v-881h71z" />
    <glyph glyph-name="brokenbar.cap" horiz-adv-x="210" 
d="M69 403h71v388h-71v-388zM140 315h-71v-405h71v405z" />
    <glyph glyph-name="bullet.cap" horiz-adv-x="262" 
d="M131 284q34 0 50.5 16.5t16.5 49.5q0 37 -17.5 52t-49.5 15t-49 -16t-17 -51t15.5 -50.5t50.5 -15.5z" />
    <glyph glyph-name="onethirdemdash" horiz-adv-x="341" 
d="M289 336h-237v-70h237v70z" />
    <glyph glyph-name="threequarteremdash" horiz-adv-x="462" 
d="M410 336h-358v-70h358v70z" />
    <glyph glyph-name="periodcentered.cap" horiz-adv-x="245" 
d="M123 295q26 0 39 13t13 46t-13 46t-39 13q-27 0 -39.5 -13t-12.5 -46q0 -34 12 -46.5t40 -12.5z" />
    <glyph glyph-name="hyphen.cap" 
d="M358 388h-306v-70h306v70z" />
    <glyph glyph-name="onethirdemdash.cap" 
d="M358 388h-306v-70h306v70z" />
    <glyph glyph-name="endash.cap" horiz-adv-x="341" 
d="M289 388h-237v-70h237v70z" />
    <glyph glyph-name="threequarteremdash.cap" horiz-adv-x="396" 
d="M344 388h-292v-70h292v70z" />
    <glyph glyph-name="emdash.cap" horiz-adv-x="462" 
d="M410 388h-358v-70h358v70z" />
    <glyph glyph-name="figuredash.cap" horiz-adv-x="527" 
d="M476 388h-424v-70h424v70z" />
    <glyph glyph-name="uni2015.cap" horiz-adv-x="516" 
d="M464 388h-412v-70h412v70z" />
    <glyph glyph-name="periodcentered.smcp" horiz-adv-x="691" 
d="M639 388h-587v-70h587v70z" />
    <glyph glyph-name="parenleft.cap" horiz-adv-x="317" 
d="M282 -105v69q-67 5 -104.5 60.5t-37.5 176.5v303q0 122 37 176.5t105 60.5v67q-100 -7 -158 -77.5t-58 -225.5v-307q0 -156 56 -226.5t160 -76.5z" />
    <glyph glyph-name="parenright.cap" horiz-adv-x="317" 
d="M35 -105q104 6 160 76.5t56 226.5v307q0 155 -57.5 225.5t-158.5 77.5v-67q68 -6 105 -60.5t37 -176.5v-303q0 -121 -37 -176.5t-105 -60.5v-69z" />
    <glyph glyph-name="bracketleft.cap" horiz-adv-x="306" 
d="M270 -41h-123v786h123v62h-194v-910h194v62z" />
    <glyph glyph-name="bracketright.cap" horiz-adv-x="306" 
d="M231 -103v909h-195v-61h124v-786h-124v-62h195z" />
    <glyph glyph-name="braceleft.cap" horiz-adv-x="316" 
d="M281 -104v59h-37q-49 0 -67.5 20t-18.5 58q0 30 11.5 71t23.5 83q5 21 8 39.5t3 34.5q0 47 -22 73.5t-66 26.5v3q44 0 65.5 23.5t21.5 69.5q0 32 -10.5 70.5t-21.5 76.5q-6 19 -8.5 35.5t-2.5 31.5q0 38 18 58t67 20h36v58h-65q-74 0 -101.5 -33.5t-27.5 -86.5
q0 -36 11 -77t22 -79q6 -19 8.5 -35.5t2.5 -30.5q0 -34 -16.5 -51.5t-50.5 -17.5h-33v-67h35q33 0 50.5 -18t17.5 -59q0 -21 -7.5 -49.5t-16.5 -60.5q-10 -33 -17.5 -65t-7.5 -60q0 -54 28 -87.5t101 -33.5h67z" />
    <glyph glyph-name="braceright.cap" horiz-adv-x="316" 
d="M36 -104h66q74 0 102 33.5t28 87.5q0 28 -7.5 60t-17.5 65q-10 32 -17.5 60.5t-7.5 49.5q0 41 17.5 59t50.5 18h36v67h-34q-33 0 -50 17.5t-17 51.5q0 28 11 66t22 79q6 20 8.5 39.5t2.5 37.5q0 53 -27 86.5t-102 33.5h-64v-58h35q49 0 67.5 -20t18.5 -58
q0 -29 -10.5 -67t-21.5 -76q-6 -20 -8.5 -37.5t-2.5 -33.5q0 -46 22 -69.5t65 -23.5v-3q-44 0 -66.5 -26.5t-22.5 -73.5q0 -32 11.5 -74t23.5 -83q5 -21 8 -38.5t3 -32.5q0 -38 -18 -58t-67 -20h-37v-59z" />
    <glyph glyph-name="anglebracketleft.cap" horiz-adv-x="299" 
d="M274 -107l-152 458l147 453h-71l-148 -455l151 -456h73z" />
    <glyph glyph-name="anglebracketright.cap" horiz-adv-x="299" 
d="M99 -107l150 456l-147 455h-72l148 -453l-153 -458h74z" />
    <glyph glyph-name="underscore" horiz-adv-x="449" 
d="M413 69h-377v-69h377v69z" />
    <glyph glyph-name="at.cap" horiz-adv-x="652" 
d="M326 -57q72 0 125.5 25.5t88.5 76.5l-64 21q-25 -31 -60 -47.5t-88 -16.5q-102 0 -159 56t-57 174v232q0 113 59.5 173.5t157.5 60.5q108 0 159.5 -61t51.5 -157v-214q0 -58 -11.5 -84.5t-37.5 -26.5q-24 0 -34.5 16t-10.5 50v376h-39l-9 -60q-9 30 -30 47.5t-58 17.5
q-51 0 -81 -36t-30 -112v-213q0 -72 28 -108t83 -36q36 0 58 17.5t31 48.5q10 -30 32.5 -45.5t57.5 -15.5q55 0 82.5 41t27.5 122v218q0 80 -31 142t-91 97q-30 17 -66.5 26t-80.5 9q-81 0 -143.5 -34t-98.5 -99q-17 -32 -26 -71.5t-9 -85.5v-239q0 -98 34 -161.5t96 -93.5
q30 -15 66 -22.5t77 -7.5zM322 150q-34 0 -48.5 23t-14.5 72v205q0 53 16.5 77t48.5 24q35 0 49 -25t14 -79v-200q0 -50 -15.5 -73.5t-49.5 -23.5z" />
    <glyph glyph-name="registered.cap" horiz-adv-x="636" 
d="M320 -10q76 0 136 30.5t94 90.5q18 29 26.5 66t8.5 80v194q0 85 -35 144.5t-96 91.5q-30 15 -64.5 23t-72.5 8q-78 0 -138 -32.5t-94 -93.5q-17 -30 -25.5 -67t-8.5 -80v-190q0 -89 34.5 -148t94.5 -88q31 -15 66 -22t74 -7zM320 44q-98 0 -156.5 54.5t-58.5 159.5v184
q0 107 58 165t154 58q95 0 154.5 -56.5t59.5 -161.5v-187q0 -106 -57.5 -161t-153.5 -55zM318 533q38 0 52.5 -13.5t14.5 -44.5v-47q0 -31 -16.5 -47t-49.5 -16h-56v168h55zM319 316q36 0 47.5 -13.5t11.5 -48.5v-97q0 -9 2 -15.5t6 -11.5h56q-4 5 -6.5 11.5t-2.5 15.5v101
q0 38 -10.5 57.5t-36.5 27.5q27 9 40 30t13 54v54q0 50 -28.5 74.5t-90.5 24.5h-110v-450h53v186h56z" />
    <glyph glyph-name="zero.inf" horiz-adv-x="275" 
d="M35 0zM137 -159q49 0 76 27.5t27 83.5v142q0 56 -27.5 83t-74.5 27q-49 0 -76 -27.5t-27 -82.5v-142q0 -55 25.5 -83t76.5 -28zM137 -109q-24 0 -36 15.5t-12 46.5v140q0 32 12.5 47.5t36.5 15.5q25 0 37 -15.5t12 -47.5v-140q0 -31 -12.5 -46.5t-37.5 -15.5z" />
    <glyph glyph-name="one.inf" horiz-adv-x="206" 
d="M25 0zM184 -153v49h-55v303h-41q-4 -28 -16 -41.5t-39 -14.5v-42h48v-205h-56v-49h159z" />
    <glyph glyph-name="two.inf" horiz-adv-x="258" 
d="M32 0zM229 -153v50h-140q3 23 18 40.5t35 33.5t39 33.5t32 39.5q7 11 10 24t3 28v20q0 41 -23 64.5t-72 23.5q-46 0 -71.5 -24.5t-25.5 -67.5v-50h53v48q0 23 9.5 36t33.5 13t34 -11.5t10 -33.5v-16q0 -24 -14.5 -42.5t-35.5 -35.5t-42 -35.5t-36 -42.5
q-7 -12 -10.5 -26.5t-3.5 -31.5v-37h197z" />
    <glyph glyph-name="three.inf" horiz-adv-x="263" 
d="M29 0zM131 -159q49 0 74.5 23.5t25.5 63.5v33q0 28 -11.5 45t-35.5 23q23 8 32.5 26t9.5 42v21q0 41 -23 63.5t-73 22.5q-47 0 -71.5 -23.5t-24.5 -66.5v-32h52v32q0 23 11.5 34t33.5 11q24 0 34 -11t10 -34v-19q0 -22 -8 -33.5t-34 -11.5h-31v-46h31q23 0 34 -11t11 -33
v-28q0 -21 -12 -32t-36 -11q-25 0 -36 11t-11 32v41h-54v-44q0 -44 25.5 -66t76.5 -22z" />
    <glyph glyph-name="four.inf" horiz-adv-x="259" 
d="M20 0zM149 102l12 33l-4 -41v-129h-85zM244 -77v42h-42v234h-46l-136 -238v-38h137v-76h45v76h42z" />
    <glyph glyph-name="five.inf" horiz-adv-x="265" 
d="M34 0zM134 -159q50 0 75.5 25.5t25.5 71.5v64q0 43 -20.5 65t-58.5 22q-27 0 -43.5 -10t-26.5 -27q2 20 5.5 48t6.5 50h75q28 0 38 10.5t10 35.5v3h-165l-17 -184l44 -11l4 9q8 15 20.5 24.5t31.5 9.5q22 0 34 -10.5t12 -38.5v-59q0 -25 -12.5 -37.5t-37.5 -12.5
q-23 0 -35 11t-12 33v32h-54v-34q0 -43 24 -66.5t76 -23.5z" />
    <glyph glyph-name="six.inf" horiz-adv-x="272" 
d="M35 0zM239 -59v38q0 42 -21.5 62.5t-61.5 20.5q-25 0 -43 -9.5t-28 -29.5v70q0 36 12.5 51t37.5 15t35.5 -13t10.5 -39v-15h53v15q0 49 -24.5 73t-74.5 24t-75 -27.5t-25 -83.5v-139q0 -55 23 -84t81 -29q50 0 75 27.5t25 72.5zM139 -112q-28 0 -41 14.5t-13 47.5v32
q5 18 18 29.5t36 11.5q25 0 37.5 -11.5t12.5 -35.5v-34q0 -27 -12.5 -40.5t-37.5 -13.5z" />
    <glyph glyph-name="seven.inf" horiz-adv-x="227" 
d="M20 0zM108 -153q12 83 38.5 164t60.5 146v42h-187v-50h135q-29 -56 -59.5 -136t-44.5 -166h57z" />
    <glyph glyph-name="eight.inf" horiz-adv-x="270" 
d="M32 0zM134 -159q50 0 77 23t27 66v27q0 30 -14 47.5t-37 24.5q21 6 33.5 22.5t12.5 44.5v22q0 41 -25.5 63.5t-71.5 22.5t-71.5 -22.5t-25.5 -63.5v-22q0 -28 12 -44.5t32 -22.5q-22 -7 -36.5 -25t-14.5 -47v-27q0 -44 25.5 -66.5t76.5 -22.5zM139 48h-9q-21 0 -31.5 11
t-10.5 33v22q0 24 12 35.5t36 11.5t35.5 -11.5t11.5 -34.5v-23q0 -22 -11 -33t-33 -11zM134 -113q-25 0 -38 12t-13 35v27q0 21 12 34t35 13h9q24 0 36 -11.5t12 -35.5v-27q0 -23 -13 -35t-40 -12z" />
    <glyph glyph-name="nine.inf" horiz-adv-x="268" 
d="M31 0zM131 26q-25 0 -37.5 12t-12.5 36v29q0 26 12.5 40.5t38.5 14.5q27 0 40.5 -16t13.5 -48v-12q-1 -24 -14 -40t-41 -16zM135 -160q52 0 76.5 29.5t24.5 81.5v139q0 55 -24.5 84t-79.5 29q-51 0 -76 -27.5t-25 -72.5v-32q0 -42 23 -63t62 -21q28 0 44.5 11.5
t25.5 30.5v-78q0 -34 -12.5 -49.5t-37.5 -15.5t-36.5 12t-11.5 40v19h-54v-21q0 -49 25.5 -73t75.5 -23z" />
    <glyph glyph-name="plus.inf" horiz-adv-x="268" 
d="M42 0zM224 -2v43h-69v67h-45v-67h-68v-43h68v-71h45v71h69z" />
    <glyph glyph-name="minus.inf" horiz-adv-x="268" 
d="M42 0zM224 -4v47h-182v-47h182z" />
    <glyph glyph-name="equal.inf" horiz-adv-x="268" 
d="M44 0zM222 44v45h-178v-45h178zM222 -54v45h-178v-45h178z" />
    <glyph glyph-name="parenleft.inf" horiz-adv-x="190" 
d="M43 0zM43 -70q0 -89 34.5 -130t97.5 -44v53q-38 2 -59.5 30.5t-21.5 93.5v169q0 66 20.5 96t60.5 33v50q-62 -4 -97 -47.5t-35 -129.5v-174z" />
    <glyph glyph-name="parenright.inf" horiz-adv-x="190" 
d="M16 0zM16 -244q63 3 97 44t34 130v174q0 86 -34.5 129.5t-96.5 47.5v-51q39 -3 60 -32.5t21 -95.5v-169q0 -65 -21.5 -93.5t-59.5 -31.5v-52z" />
    <glyph glyph-name="onesixteenth" horiz-adv-x="781" 
d="M211 359v49h-54v303h-42q-4 -28 -15.5 -41.5t-38.5 -14.5v-42h48v-205h-57v-49h159zM333 399l207 288l-68 44l-162 -317zM255 329l-210 -298l70 -48l163 331zM741 94v38q0 42 -21.5 62.5t-61.5 20.5q-25 0 -43 -9.5t-28 -29.5v70q0 36 12.5 51t37.5 15t35.5 -13t10.5 -39
v-15h53v15q0 49 -24.5 73t-74.5 24t-75 -27.5t-25 -83.5v-139q0 -55 23 -84t81 -29q50 0 75 27.5t25 72.5zM641 41q-28 0 -41 14.5t-13 47.5v32q5 18 18 29.5t36 11.5q25 0 37.5 -11.5t12.5 -35.5v-34q0 -27 -12.5 -40.5t-37.5 -13.5zM498 0v49h-55v303h-41
q-4 -28 -16 -41.5t-39 -14.5v-42h48v-205h-56v-49h159z" />
    <glyph glyph-name="threesixteenths" horiz-adv-x="781" 
d="M33 0zM333 399l207 288l-68 44l-162 -317zM255 329l-210 -298l70 -48l163 331zM499 1v49h-55v303h-41q-4 -28 -16 -41.5t-39 -14.5v-42h48v-205h-56v-49h159zM741 94v38q0 42 -21.5 62.5t-61.5 20.5q-25 0 -43 -9.5t-28 -29.5v70q0 36 12.5 51t37.5 15t35.5 -13t10.5 -39
v-15h53v15q0 49 -24.5 73t-74.5 24t-75 -27.5t-25 -83.5v-139q0 -55 23 -84t81 -29q50 0 75 27.5t25 72.5zM641 41q-28 0 -41 14.5t-13 47.5v32q5 18 18 29.5t36 11.5q25 0 37.5 -11.5t12.5 -35.5v-34q0 -27 -12.5 -40.5t-37.5 -13.5zM135 353q49 0 74.5 23.5t25.5 63.5v33
q0 28 -11.5 45t-35.5 23q23 8 32.5 26t9.5 42v21q0 41 -23 63.5t-73 22.5q-47 0 -71.5 -23.5t-24.5 -66.5v-32h52v32q0 23 11.5 34t33.5 11q24 0 34 -11t10 -34v-19q0 -22 -8 -33.5t-34 -11.5h-31v-46h31q23 0 34 -11t11 -33v-28q0 -21 -12 -32t-36 -11q-25 0 -36 11t-11 32
v41h-54v-44q0 -44 25.5 -66t76.5 -22z" />
    <glyph glyph-name="fivesixteenths" horiz-adv-x="781" 
d="M37 0zM333 399l207 288l-68 44l-162 -317zM255 329l-210 -298l70 -48l163 331zM499 1v49h-55v303h-41q-4 -28 -16 -41.5t-39 -14.5v-42h48v-205h-56v-49h159zM741 94v38q0 42 -21.5 62.5t-61.5 20.5q-25 0 -43 -9.5t-28 -29.5v70q0 36 12.5 51t37.5 15t35.5 -13t10.5 -39
v-15h53v15q0 49 -24.5 73t-74.5 24t-75 -27.5t-25 -83.5v-139q0 -55 23 -84t81 -29q50 0 75 27.5t25 72.5zM641 41q-28 0 -41 14.5t-13 47.5v32q5 18 18 29.5t36 11.5q25 0 37.5 -11.5t12.5 -35.5v-34q0 -27 -12.5 -40.5t-37.5 -13.5zM137 353q50 0 75.5 25.5t25.5 71.5v64
q0 43 -20.5 65t-58.5 22q-27 0 -43.5 -10t-26.5 -27q2 20 5.5 48t6.5 50h75q28 0 38 10.5t10 35.5v3h-165l-17 -184l44 -11l4 9q8 15 20.5 24.5t31.5 9.5q22 0 34 -10.5t12 -38.5v-59q0 -25 -12.5 -37.5t-37.5 -12.5q-23 0 -35 11t-12 33v32h-54v-34q0 -43 24 -66.5
t76 -23.5z" />
    <glyph glyph-name="sevensixteenths" horiz-adv-x="781" 
d="M45 0zM333 399l207 288l-68 44l-162 -317zM255 329l-210 -298l70 -48l163 331zM499 1v49h-55v303h-41q-4 -28 -16 -41.5t-39 -14.5v-42h48v-205h-56v-49h159zM741 94v38q0 42 -21.5 62.5t-61.5 20.5q-25 0 -43 -9.5t-28 -29.5v70q0 36 12.5 51t37.5 15t35.5 -13t10.5 -39
v-15h53v15q0 49 -24.5 73t-74.5 24t-75 -27.5t-25 -83.5v-139q0 -55 23 -84t81 -29q50 0 75 27.5t25 72.5zM641 41q-28 0 -41 14.5t-13 47.5v32q5 18 18 29.5t36 11.5q25 0 37.5 -11.5t12.5 -35.5v-34q0 -27 -12.5 -40.5t-37.5 -13.5zM161 359q12 83 38.5 164t60.5 146v42
h-187v-50h135q-29 -56 -59.5 -136t-44.5 -166h57z" />
    <glyph glyph-name="ninesixteenths" horiz-adv-x="781" 
d="M43 0zM333 399l207 288l-68 44l-162 -317zM255 329l-210 -298l70 -48l163 331zM499 1v49h-55v303h-41q-4 -28 -16 -41.5t-39 -14.5v-42h48v-205h-56v-49h159zM741 94v38q0 42 -21.5 62.5t-61.5 20.5q-25 0 -43 -9.5t-28 -29.5v70q0 36 12.5 51t37.5 15t35.5 -13t10.5 -39
v-15h53v15q0 49 -24.5 73t-74.5 24t-75 -27.5t-25 -83.5v-139q0 -55 23 -84t81 -29q50 0 75 27.5t25 72.5zM641 41q-28 0 -41 14.5t-13 47.5v32q5 18 18 29.5t36 11.5q25 0 37.5 -11.5t12.5 -35.5v-34q0 -27 -12.5 -40.5t-37.5 -13.5zM143 539q-25 0 -37.5 12t-12.5 36v29
q0 26 12.5 40.5t38.5 14.5q27 0 40.5 -16t13.5 -48v-12q-1 -24 -14 -40t-41 -16zM147 353q52 0 76.5 29.5t24.5 81.5v139q0 55 -24.5 84t-79.5 29q-51 0 -76 -27.5t-25 -72.5v-32q0 -42 23 -63t62 -21q28 0 44.5 11.5t25.5 30.5v-78q0 -34 -12.5 -49.5t-37.5 -15.5t-36.5 12
t-11.5 40v19h-54v-21q0 -49 25.5 -73t75.5 -23z" />
    <glyph glyph-name="elevensixteenths" horiz-adv-x="977" 
d="M208 359v49h-54v303h-42q-4 -28 -15.5 -41.5t-38.5 -14.5v-42q7 0 22.5 2.5t25.5 6.5v-214h-57v-49h159zM407 359v49h-54v303h-42q-4 -28 -15.5 -41.5t-38.5 -14.5v-42q7 0 22.5 2.5t25.5 6.5v-214h-57v-49h159zM530 399l207 288l-68 44l-162 -317zM452 329l-210 -298
l70 -48l163 331zM937 94v38q0 42 -21.5 62.5t-61.5 20.5q-25 0 -43 -9.5t-28 -29.5v70q0 36 12.5 51t37.5 15t35.5 -13t10.5 -39v-15h53v15q0 49 -24.5 73t-74.5 24t-75 -27.5t-25 -83.5v-139q0 -55 23 -84t81 -29q50 0 75 27.5t25 72.5zM837 41q-28 0 -41 14.5t-13 47.5v32
q5 18 18 29.5t36 11.5q25 0 37.5 -11.5t12.5 -35.5v-34q0 -27 -12.5 -40.5t-37.5 -13.5zM694 0v49h-55v303h-41q-4 -28 -16 -41.5t-39 -14.5v-42h48v-205h-56v-49h159z" />
    <glyph glyph-name="thirteensixteenths" horiz-adv-x="995" 
d="M212 359v49h-55v303h-41q-4 -28 -16 -41.5t-39 -14.5v-42q7 0 22.5 2.5t25.5 6.5v-214h-56v-49h159zM550 399l207 288l-68 44l-162 -317zM472 329l-210 -298l70 -48l163 331zM714 1v49h-55v303h-41q-4 -28 -16 -41.5t-39 -14.5v-42h48v-205h-56v-49h159zM956 94v38
q0 42 -21.5 62.5t-61.5 20.5q-25 0 -43 -9.5t-28 -29.5v70q0 36 12.5 51t37.5 15t35.5 -13t10.5 -39v-15h53v15q0 49 -24.5 73t-74.5 24t-75 -27.5t-25 -83.5v-139q0 -55 23 -84t81 -29q50 0 75 27.5t25 72.5zM856 41q-28 0 -41 14.5t-13 47.5v32q5 18 18 29.5t36 11.5
q25 0 37.5 -11.5t12.5 -35.5v-34q0 -27 -12.5 -40.5t-37.5 -13.5zM354 353q49 0 74.5 23.5t25.5 63.5v33q0 28 -11.5 45t-35.5 23q23 8 32.5 26t9.5 42v21q0 41 -23 63.5t-73 22.5q-47 0 -71.5 -23.5t-24.5 -66.5v-32h52v32q0 23 11.5 34t33.5 11q24 0 34 -11t10 -34v-19
q0 -22 -8 -33.5t-34 -11.5h-31v-46h31q23 0 34 -11t11 -33v-28q0 -21 -12 -32t-36 -11q-25 0 -36 11t-11 32v41h-54v-44q0 -44 25.5 -66t76.5 -22z" />
    <glyph glyph-name="fifteensixteenths" horiz-adv-x="995" 
d="M212 359v49h-55v303h-41q-4 -28 -16 -41.5t-39 -14.5v-42q7 0 22.5 2.5t25.5 6.5v-214h-56v-49h159zM549 399l207 288l-68 44l-162 -317zM471 329l-210 -298l70 -48l163 331zM714 1v49h-55v303h-41q-4 -28 -16 -41.5t-39 -14.5v-42h48v-205h-56v-49h159zM956 94v38
q0 42 -21.5 62.5t-61.5 20.5q-25 0 -43 -9.5t-28 -29.5v70q0 36 12.5 51t37.5 15t35.5 -13t10.5 -39v-15h53v15q0 49 -24.5 73t-74.5 24t-75 -27.5t-25 -83.5v-139q0 -55 23 -84t81 -29q50 0 75 27.5t25 72.5zM856 41q-28 0 -41 14.5t-13 47.5v32q5 18 18 29.5t36 11.5
q25 0 37.5 -11.5t12.5 -35.5v-34q0 -27 -12.5 -40.5t-37.5 -13.5zM353 353q50 0 75.5 25.5t25.5 71.5v64q0 43 -20.5 65t-58.5 22q-27 0 -43.5 -10t-26.5 -27q2 20 5.5 48t6.5 50h75q28 0 38 10.5t10 35.5v3h-165l-17 -184l44 -11l4 9q8 15 20.5 24.5t31.5 9.5
q22 0 34 -10.5t12 -38.5v-59q0 -25 -12.5 -37.5t-37.5 -12.5q-23 0 -35 11t-12 33v32h-54v-34q0 -43 24 -66.5t76 -23.5z" />
    <glyph glyph-name="mediumwhitecircle" horiz-adv-x="764" 
d="M382 -10q84 0 150.5 38.5t104.5 104.5q20 33 29.5 70.5t9.5 78.5q0 85 -39 151t-106 105q-33 19 -70.5 28.5t-78.5 9.5q-82 0 -149 -38.5t-106 -104.5q-19 -34 -29 -71.5t-10 -79.5q0 -83 38 -149.5t105 -104.5q33 -19 71 -28.5t80 -9.5zM382 78q-58 0 -102.5 27
t-69.5 73q-13 23 -19 49t-6 55q0 60 25 106.5t69 72.5q22 14 48 20.5t55 6.5q57 0 102 -26.5t70 -72.5q13 -23 19.5 -50t6.5 -57q0 -58 -25.5 -104.5t-70.5 -72.5q-23 -14 -48 -20.5t-54 -6.5z" />
    <glyph glyph-name="mediumblackcircle" horiz-adv-x="764" 
d="M382 -10q84 0 150.5 38.5t104.5 104.5q20 33 29.5 70.5t9.5 78.5q0 85 -39 151t-106 105q-33 19 -70.5 28.5t-78.5 9.5q-82 0 -149 -38.5t-106 -104.5q-19 -34 -29 -71.5t-10 -79.5q0 -83 38 -149.5t105 -104.5q33 -19 71 -28.5t80 -9.5z" />
    <glyph glyph-name="ballotboxwithx" horiz-adv-x="763" 
d="M100 0h563v562h-563v-562zM196 473h372v-383h-372v383zM467 145l50 50l-84 84l83 85l-49 51l-85 -86l-85 85l-50 -50l86 -85l-85 -86l50 -51l85 87z" />
    <glyph glyph-name=".ttfautohint" horiz-adv-x="314" 
d="M0 0z" />
    </font>
</defs>
</svg>
