<?xml version="1.0" standalone="no"?>
<!DOCTYPE svg PUBLIC "-//W3C//DTD SVG 1.1//EN" "http://www.w3.org/Graphics/SVG/1.1/DTD/svg11.dtd" >
<svg xmlns="http://www.w3.org/2000/svg" xmlns:xlink="http://www.w3.org/1999/xlink" version="1.1">
<metadata>
Created by FontForge 20170731 at Wed Jun 18 20:15:08 2014
 By Aleksey,,,
Copyright 2013 Dalton Maag Ltd. Modification of this file requires prior written permission from Dalton Maag Ltd.
</metadata>
<defs>
<font id="AktivGrotesk-Black" horiz-adv-x="412" >
  <font-face 
    font-family="AktivGrotesk-Black"
    font-weight="400"
    font-stretch="normal"
    units-per-em="1000"
    panose-1="2 11 9 3 2 2 2 2 2 4"
    ascent="800"
    descent="-200"
    x-height="528"
    cap-height="714"
    bbox="-175 -243 1413 1009"
    underline-thickness="68"
    underline-position="-201"
    unicode-range="U+0008-FB04"
  />
<missing-glyph horiz-adv-x="500" 
d="M50 0v750h400v-750h-400zM400 50v650h-300v-650h300z" />
    <glyph glyph-name="f_f" unicode="ff" horiz-adv-x="901" 
d="M101 332h-86v167h86v8q0 101 55 158t162 57q37 0 74.5 -6.5t66.5 -14.5l-26 -147q-11 2 -26 4.5t-32 2.5q-33 0 -46.5 -13t-13.5 -41v-8h109v-167h-109v-332h-214v332zM564 332h-86v167h86v8q0 101 55 158t162 57q37 0 74.5 -6.5t66.5 -14.5l-26 -147q-11 2 -26 4.5
t-32 2.5q-33 0 -46.5 -13t-13.5 -41v-8h109v-167h-109v-332h-214v332z" />
    <glyph glyph-name="f_i" unicode="fi" horiz-adv-x="769" 
d="M101 332h-86v167h86v8q0 101 55 158t162 57q37 0 74.5 -6.5t66.5 -14.5l-26 -147q-11 2 -26 4.5t-32 2.5q-33 0 -46.5 -13t-13.5 -41v-8h109v-167h-109v-332h-214v332zM505 528h214v-528h-214v528zM505 714h214v-135h-214v135z" />
    <glyph glyph-name="f_l" unicode="fl" horiz-adv-x="767" 
d="M101 332h-86v167h86v8q0 101 55 158t162 57q37 0 74.5 -6.5t66.5 -14.5l-26 -147q-11 2 -26 4.5t-32 2.5q-33 0 -46.5 -13t-13.5 -41v-8h109v-167h-109v-332h-214v332zM503 714h214v-714h-214v714z" />
    <glyph glyph-name="f_f_i" unicode="ffi" horiz-adv-x="1097" 
d="M101 332h-86v167h86v8q0 101 55 158t162 57q37 0 74.5 -6.5t66.5 -14.5l-26 -147q-11 2 -26 4.5t-32 2.5q-33 0 -46.5 -13t-13.5 -41v-8h109v-167h-109v-332h-214v332zM564 332h-86v167h86v8q0 101 55 158t162 57q37 0 74.5 -6.5t66.5 -14.5l-26 -147q-11 2 -26 4.5
t-32 2.5q-33 0 -46.5 -13t-13.5 -41v-8h109v-167h-109v-332h-214v332zM968 528h214v-528h-214v528zM968 714h214v-135h-214v135z" />
    <glyph glyph-name="f_f_l" unicode="ffl" horiz-adv-x="1097" 
d="M101 332h-86v167h86v8q0 101 55 158t162 57q37 0 74.5 -6.5t66.5 -14.5l-26 -147q-11 2 -26 4.5t-32 2.5q-33 0 -46.5 -13t-13.5 -41v-8h109v-167h-109v-332h-214v332zM564 332h-86v167h86v8q0 101 55 158t162 57q37 0 74.5 -6.5t66.5 -14.5l-26 -147q-11 2 -26 4.5
t-32 2.5q-33 0 -46.5 -13t-13.5 -41v-8h109v-167h-109v-332h-214v332zM966 714h214v-714h-214v714z" />
    <glyph glyph-name=".notdef" horiz-adv-x="500" 
d="M50 0v750h400v-750h-400zM400 50v650h-300v-650h300z" />
    <glyph glyph-name=".null" horiz-adv-x="0" 
 />
    <glyph glyph-name=".null" horiz-adv-x="0" 
 />
    <glyph glyph-name=".null" horiz-adv-x="0" 
 />
    <glyph glyph-name="nonmarkingreturn" unicode="&#x9;" horiz-adv-x="210" 
 />
    <glyph glyph-name="nonmarkingreturn" unicode="&#xd;" horiz-adv-x="210" 
 />
    <glyph glyph-name="space" unicode=" " horiz-adv-x="210" 
 />
    <glyph glyph-name="exclam" unicode="!" horiz-adv-x="335" 
d="M50 714h235l-24 -483h-186zM71 185h194v-185h-194v185z" />
    <glyph glyph-name="quotedbl" unicode="&#x22;" horiz-adv-x="486" 
d="M30 714h186l-8 -297h-170zM270 714h186l-8 -297h-170z" />
    <glyph glyph-name="numbersign" unicode="#" horiz-adv-x="592" 
d="M93 291l17 101h-62v150h86l22 136h162l-22 -136h66l22 136h162l-22 -136h45v-150h-69l-17 -101h55v-150h-79l-23 -141h-162l23 141h-66l-23 -141h-162l23 141h-46v150h70zM255 291h66l17 101h-66z" />
    <glyph glyph-name="dollar" unicode="$" horiz-adv-x="592" 
d="M201 238q4 -35 17 -60t41 -36v126l-35 8q-110 23 -159 75t-49 136q1 101 65 157t178 62v103h55v-103q64 -4 108.5 -23t73.5 -49t43.5 -68t18.5 -80l-194 -18q-4 32 -15.5 52t-34.5 28v-110l47 -10q59 -13 99.5 -33.5t65 -48t35.5 -62t11 -74.5q0 -49 -15.5 -90t-47.5 -71
t-80.5 -47.5t-114.5 -19.5v-110h-55v111q-126 9 -187 74.5t-68 180.5h197zM375 195q0 23 -13 38.5t-48 23.5v-122q33 2 47 18.5t14 41.5zM206 503q0 -21 12 -32.5t41 -19.5v102q-29 -3 -41 -16.5t-12 -33.5z" />
    <glyph glyph-name="percent" unicode="%" horiz-adv-x="1024" 
d="M30 494q0 55 14 95.5t39.5 67t61 39.5t77.5 13t77.5 -13t61 -39.5t39.5 -67t14 -95.5t-14 -95t-39.5 -66.5t-61 -39.5t-77.5 -13t-77.5 13t-61 39.5t-39.5 66.5t-14 95zM191 493q0 -25 2 -40t6 -23.5t10 -11t13 -2.5t13 2.5t10 11t6 23.5t2 40t-2 40t-6 23.5t-10 11.5
t-13 3t-13 -3t-10 -11t-6 -23.5t-2 -40.5zM610 205q0 55 14 95.5t39.5 67t61 39.5t77.5 13t77.5 -13t61 -39.5t39.5 -67t14 -95.5t-14 -95t-39.5 -66.5t-61 -39.5t-77.5 -13t-77.5 13t-61 39.5t-39.5 66.5t-14 95zM771 204q0 -25 2 -40t6 -23.5t10 -11t13 -2.5t13 2.5t10 11
t6 23.5t2 40t-2 40t-6 23.5t-10 11.5t-13 3t-13 -3t-10 -11t-6 -23.5t-2 -40.5zM457 0h-195l304 691h195z" />
    <glyph glyph-name="ampersand" unicode="&#x26;" horiz-adv-x="729" 
d="M694 373q0 -70 -15 -133.5t-50 -115.5l110 -124h-213l-19 21q-38 -17 -85 -27t-105 -10q-65 0 -119.5 13t-94 39.5t-61.5 67t-22 96.5q0 70 35 117t101 82q-29 40 -42 73.5t-13 68.5q0 37 14.5 71t43.5 59.5t72 40.5t101 15q53 0 94 -13t69 -36t42.5 -54.5t14.5 -69.5
q-1 -65 -38.5 -111t-98.5 -79l91 -102q15 46 15 111h173zM336 138q27 0 47 4l-130 146q-28 -25 -28 -63q0 -39 26 -63t85 -24zM286 539q0 -12 8 -29.5t31 -43.5q20 14 32.5 31.5t12.5 40.5q0 19 -10 30t-31 11t-32 -11.5t-11 -28.5z" />
    <glyph glyph-name="quotesingle" unicode="'" horiz-adv-x="251" 
d="M30 714h191l-8 -297h-175z" />
    <glyph glyph-name="parenleft" unicode="(" horiz-adv-x="379" 
d="M40 305q0 126 35.5 234t95.5 195h208q-59 -107 -86.5 -212t-27.5 -217t27.5 -217t86.5 -212h-213q-58 87 -92 195t-34 234z" />
    <glyph glyph-name="parenright" unicode=")" horiz-adv-x="379" 
d="M339 305q0 -126 -35.5 -234t-95.5 -195h-208q59 107 86.5 212t27.5 217t-27.5 217t-86.5 212h213q58 -87 92 -195t34 -234z" />
    <glyph glyph-name="asterisk" unicode="*" horiz-adv-x="441" 
d="M278 593l107 64l56 -148l-127 -24l98 -90l-129 -97l-58 115l-60 -118l-129 97l94 86l-130 26l57 149l103 -63l-21 124h161z" />
    <glyph glyph-name="plus" unicode="+" horiz-adv-x="592" 
d="M199 248h-155v185h155v167h193v-167h155v-185h-155v-167h-193v167z" />
    <glyph glyph-name="comma" unicode="," horiz-adv-x="288" 
d="M61 215h202l-74 -305h-164z" />
    <glyph glyph-name="hyphen" unicode="-" horiz-adv-x="427" 
d="M35 396h357v-190h-357v190z" />
    <glyph glyph-name="period" unicode="." horiz-adv-x="288" 
d="M44 215h199v-215h-199v215z" />
    <glyph glyph-name="slash" unicode="/" horiz-adv-x="464" 
d="M221 0h-211l232 734h212z" />
    <glyph glyph-name="zero" unicode="0" horiz-adv-x="592" 
d="M30 343q0 193 67.5 280t201.5 87q137 0 200 -88.5t63 -272.5q0 -193 -67.5 -280t-201.5 -87q-137 0 -200 88.5t-63 272.5zM249 346q0 -54 2 -88.5t7 -54.5t14.5 -28t23.5 -8t23 8t14.5 28t7.5 54.5t2 88.5t-2 88.5t-7.5 54.5t-14.5 28t-23 8t-23.5 -8t-14.5 -28t-7 -54.5
t-2 -88.5z" />
    <glyph glyph-name="one" unicode="1" horiz-adv-x="592" 
d="M245 451l-95 -69l-101 152l232 157h180v-691h-216v451z" />
    <glyph glyph-name="two" unicode="2" horiz-adv-x="592" 
d="M42 0v161q15 12 35 28.5t42 34.5l44 36t41 34q38 31 64.5 55t43 44.5t23.5 40t7 40.5q0 56 -48 56q-27 0 -42 -17t-20 -58l-205 19q12 111 83 173t194 63q122 0 187 -59.5t65 -158.5q0 -38 -8.5 -69t-24 -57.5t-37.5 -51.5t-48 -50q-31 -29 -58.5 -52.5t-44.5 -36.5h233
l-18 -175h-508z" />
    <glyph glyph-name="three" unicode="3" horiz-adv-x="592" 
d="M230 245q1 -42 18.5 -64.5t49.5 -22.5q25 0 42 14.5t17 44.5q0 26 -15.5 42t-49.5 16h-47v156h48q54 0 54 50q0 21 -11 36t-39 15q-25 0 -40 -15.5t-21 -53.5l-198 18q4 59 26.5 102t59 71.5t84.5 42t103 13.5q58 0 103.5 -14.5t76.5 -40t47.5 -61t16.5 -78.5
q0 -22 -4.5 -44t-15.5 -42t-28.5 -36.5t-42.5 -26.5q59 -24 83.5 -70t24.5 -99q0 -48 -17.5 -88t-51.5 -68.5t-84 -44t-115 -15.5q-75 0 -127 20t-85 54t-48 79.5t-15 96.5v13h201z" />
    <glyph glyph-name="four" unicode="4" horiz-adv-x="592" 
d="M21 288l274 403h211v-411h71l-16 -158h-55v-122h-196v122h-289v166zM310 280v164l-112 -164h112z" />
    <glyph glyph-name="five" unicode="5" horiz-adv-x="592" 
d="M258 516l-7 -80q21 11 46.5 17t57.5 6q54 0 93 -18.5t64.5 -50t38 -74t12.5 -91.5q0 -121 -69.5 -182t-190.5 -61q-57 0 -103.5 14t-81 42t-55.5 71t-25 101h207q4 -27 16.5 -41t37.5 -14q26 0 40 17t14 55q0 37 -14 53t-43 16q-20 0 -32.5 -6.5t-23.5 -20.5h-186l38 422
h429v-175h-263z" />
    <glyph glyph-name="six" unicode="6" horiz-adv-x="592" 
d="M311 537q-38 0 -54 -34.5t-19 -94.5q21 15 49.5 25.5t70.5 10.5q43 0 81.5 -13.5t67.5 -40.5t45.5 -67.5t16.5 -95.5q0 -57 -19 -102.5t-53.5 -77t-83 -48.5t-107.5 -17q-135 0 -204 84t-69 257q0 96 20.5 168t58.5 121t91 73.5t119 24.5q100 0 163 -53.5t77 -153.5
l-199 -18q-4 22 -15 37t-37 15zM304 148q27 0 45 18.5t18 57.5q0 30 -14 49.5t-46 19.5q-25 0 -44.5 -14.5t-19.5 -54.5q0 -32 14.5 -54t46.5 -22z" />
    <glyph glyph-name="seven" unicode="7" horiz-adv-x="592" 
d="M117 0q20 74 45 145.5t51.5 136.5t53.5 122t51 102h-280v185h512v-156q-34 -63 -63.5 -126t-55 -128t-48.5 -135t-44 -146h-222z" />
    <glyph glyph-name="eight" unicode="8" horiz-adv-x="592" 
d="M293 -18q-73 0 -124.5 15t-84 42.5t-47.5 65.5t-15 83q0 67 27.5 107.5t72.5 61.5q-41 23 -61 61.5t-20 89.5q0 91 65 146.5t193 55.5q65 0 112.5 -15t78.5 -41.5t46 -63t15 -79.5q0 -52 -20.5 -91.5t-60.5 -62.5q19 -9 37.5 -23t32 -34t22 -46.5t8.5 -62.5
q0 -47 -16 -85.5t-50 -66t-86 -42.5t-125 -15zM224 212q0 -28 16 -45.5t56 -17.5t56 17.5t16 45.5t-16 45.5t-57 17.5q-39 0 -55 -17.5t-16 -45.5zM232 487q0 -25 13.5 -41t48.5 -16t49 16t14 41q0 26 -14.5 42t-48.5 16t-48 -16t-14 -42z" />
    <glyph glyph-name="nine" unicode="9" horiz-adv-x="592" 
d="M286 155q16 0 28.5 6t21 20.5t13 38.5t4.5 61q-20 -15 -48.5 -25t-70.5 -10q-44 0 -82 13.5t-67 41t-45.5 68.5t-16.5 97q0 57 18.5 102t52 76.5t82 48.5t108.5 17q65 0 116 -20t86.5 -63t54 -109.5t18.5 -159.5q0 -102 -21.5 -173.5t-59 -116.5t-88.5 -65.5t-110 -20.5
q-109 0 -175 57.5t-75 160.5h200q9 -45 56 -45zM288 544q-27 0 -45 -18.5t-18 -57.5q0 -30 14 -49.5t46 -19.5q12 0 23.5 3t20.5 11t14.5 21.5t5.5 33.5q0 32 -14.5 54t-46.5 22z" />
    <glyph glyph-name="colon" unicode=":" horiz-adv-x="288" 
d="M44 215h199v-215h-199v215zM44 528h199v-215h-199v215z" />
    <glyph glyph-name="semicolon" unicode=";" horiz-adv-x="288" 
d="M43 215h202l-74 -305h-164zM44 527h199v-215h-199v215z" />
    <glyph glyph-name="less" unicode="&#x3c;" horiz-adv-x="592" 
d="M296 342l235 -82v-193l-470 183v179l470 183v-188z" />
    <glyph glyph-name="equal" unicode="=" horiz-adv-x="592" 
d="M73 312h446v-175h-446v175zM73 546h446v-175h-446v175z" />
    <glyph glyph-name="greater" unicode="&#x3e;" horiz-adv-x="592" 
d="M61 255l235 82l-235 82v193l470 -183v-179l-470 -183v188z" />
    <glyph glyph-name="question" unicode="?" horiz-adv-x="558" 
d="M183 185h194v-185h-194v185zM187 231v19q0 35 6 60.5t17.5 45t26.5 36t33 33.5q30 28 41.5 44t11.5 36q0 23 -12.5 34.5t-35.5 11.5q-26 0 -42 -16.5t-20 -52.5l-198 17q10 105 78.5 166t196.5 61q118 0 183 -50t65 -138q0 -36 -10.5 -64t-25.5 -50t-32 -38.5t-31 -28.5
q-34 -30 -49.5 -54t-15.5 -62v-10h-187z" />
    <glyph glyph-name="at" unicode="@" horiz-adv-x="1030" 
d="M557 251q2 12 3 22t1 19q0 21 -6.5 33t-22.5 12q-17 0 -28.5 -14t-18.5 -34.5t-10 -43.5t-3 -40q0 -23 7 -37t25 -14q20 0 31.5 17t18.5 61zM842 -51q-18 -28 -49 -59.5t-77 -58.5t-107 -44.5t-139 -17.5q-95 0 -175 29.5t-138 85.5t-90 137t-32 184q0 121 43.5 217.5
t116.5 163.5t169.5 102.5t201.5 35.5q93 0 171.5 -27.5t135.5 -79.5t89.5 -127t32.5 -169q0 -71 -19 -130t-52.5 -101t-81.5 -65.5t-106 -23.5q-50 0 -94 19t-66 62q-52 -81 -137 -81q-38 0 -67 14t-48.5 40t-30 62.5t-10.5 81.5q0 58 16.5 108.5t45.5 88.5t68 60t84 22
q35 0 59 -13t39 -35l7 39h172l-47 -279q-1 -8 -1.5 -12.5t-0.5 -7.5q0 -20 9.5 -30.5t24.5 -10.5t30.5 12t28 36t20.5 59t8 80q0 73 -21 125.5t-58.5 87t-90 51t-115.5 16.5q-90 0 -160 -31t-118 -84t-73.5 -124t-25.5 -152q0 -66 17.5 -122.5t53.5 -97.5t91.5 -64.5
t131.5 -23.5q58 0 97 13.5t75 38.5h192z" />
    <glyph glyph-name="A" unicode="A" horiz-adv-x="782" 
d="M501 115h-226l-31 -115h-224l232 714h280l230 -714h-229zM323 292h130l-65 237z" />
    <glyph glyph-name="B" unicode="B" horiz-adv-x="693" 
d="M60 714h334q72 0 120 -14.5t76.5 -39.5t40.5 -58.5t12 -70.5q0 -49 -21 -87.5t-68 -64.5q109 -49 109 -169q0 -42 -14 -80t-47 -67t-86 -46t-131 -17h-325v714zM267 443h89q42 0 57 14t15 40t-15 40t-57 14h-89v-108zM267 163h94q51 0 69 17t18 48q0 32 -18 49t-69 17
h-94v-131z" />
    <glyph glyph-name="C" unicode="C" horiz-adv-x="738" 
d="M718 273q-3 -62 -24 -115t-61.5 -92t-101 -61.5t-142.5 -22.5q-91 0 -157 27t-108.5 75.5t-63 116t-20.5 148.5t20.5 151t64 121.5t111 81t161.5 29.5q142 0 216 -67t94 -191l-226 -25q-4 19 -10.5 35t-17 28t-26.5 18.5t-39 6.5q-54 0 -81 -43t-27 -135q0 -57 9.5 -92.5
t25.5 -55.5t37 -27t43 -7q41 0 66 23.5t31 72.5h226z" />
    <glyph glyph-name="D" unicode="D" horiz-adv-x="765" 
d="M282 190h79q69 0 101.5 43t32.5 126q1 78 -30 121t-104 44h-79v-334zM60 0v714h293q187 -1 279.5 -91t92.5 -261q-1 -176 -96 -269t-276 -93h-293z" />
    <glyph glyph-name="E" unicode="E" horiz-adv-x="636" 
d="M60 714h531v-175h-308v-91h288v-175h-288v-98h328l-17 -175h-534v714z" />
    <glyph glyph-name="F" unicode="F" horiz-adv-x="601" 
d="M60 714h506v-179h-284v-117h268v-179h-268v-239h-222v714z" />
    <glyph glyph-name="G" unicode="G" horiz-adv-x="770" 
d="M415 418h305v-340q-25 -19 -57.5 -36t-72 -30.5t-85.5 -21.5t-98 -8q-93 0 -162 26t-114.5 74.5t-68 117t-22.5 153.5q0 88 23.5 158.5t69.5 119.5t112.5 75t152.5 26q75 0 131.5 -19.5t95 -52.5t60.5 -77t29 -93l-228 -19q-9 39 -30.5 55t-59.5 16q-65 0 -94 -43
t-29 -139q0 -100 33.5 -144t113.5 -44q53 0 91 16v57h-96v173z" />
    <glyph glyph-name="H" unicode="H" horiz-adv-x="764" 
d="M60 714h227v-246h190v246h227v-714h-227v268h-190v-268h-227v714z" />
    <glyph glyph-name="I" unicode="I" horiz-adv-x="347" 
d="M60 714h227v-714h-227v714z" />
    <glyph glyph-name="J" unicode="J" horiz-adv-x="687" 
d="M251 282q2 -50 20.5 -77.5t58.5 -27.5t57.5 24t17.5 66v447h227v-437q0 -146 -80.5 -220.5t-221.5 -74.5q-149 0 -225 77t-80 223h226z" />
    <glyph glyph-name="K" unicode="K" horiz-adv-x="749" 
d="M344 282l-57 -69v-213h-227v714h227v-237l188 237h238l-222 -266l248 -448h-247z" />
    <glyph glyph-name="L" unicode="L" horiz-adv-x="606" 
d="M60 714h227v-519h299l-19 -195h-507v714z" />
    <glyph glyph-name="M" unicode="M" horiz-adv-x="903" 
d="M635 0v354l-106 -354h-160l-106 354v-354h-203v714h260l132 -434l132 434h259v-714h-208z" />
    <glyph glyph-name="N" unicode="N" horiz-adv-x="755" 
d="M60 714h195l228 -361v361h212v-714h-193l-230 363v-363h-212v714z" />
    <glyph glyph-name="O" unicode="O" horiz-adv-x="800" 
d="M397 -18q-87 0 -153.5 25.5t-112 73.5t-68.5 117t-23 156t23 156.5t69 119t114 76t157 26.5q87 0 153.5 -25.5t112 -73.5t68.5 -116.5t23 -155.5t-23.5 -157.5t-69 -119.5t-113.5 -75.5t-157 -26.5zM400 177q125 0 125 180t-125 180t-125 -180t125 -180z" />
    <glyph glyph-name="P" unicode="P" horiz-adv-x="666" 
d="M60 714h277q85 0 142 -19.5t90.5 -53t47.5 -79t14 -97.5q0 -53 -14.5 -99t-47.5 -79.5t-90 -53t-141 -19.5h-60v-214h-218v714zM278 390h61q51 0 69.5 18.5t18.5 55.5t-19 55.5t-69 18.5h-61v-148z" />
    <glyph glyph-name="Q" unicode="Q" horiz-adv-x="800" 
d="M393 -18q-85 0 -150.5 25.5t-110.5 73.5t-68.5 117t-23.5 156t23 156.5t69 119t113.5 76t156.5 26.5q87 0 154 -25.5t112.5 -73.5t68.5 -116t23 -153q0 -86 -23 -154.5t-68 -118.5l80 -100l-118 -93l-86 109q-70 -25 -152 -25zM400 172h8.5t10.5 1l-77 95l110 89l69 -85
q3 17 5 38.5t2 43.5q0 183 -128 183t-128 -183q0 -182 128 -182z" />
    <glyph glyph-name="R" unicode="R" horiz-adv-x="704" 
d="M656 480q0 -72 -27.5 -123t-77.5 -83l148 -274h-232l-114 229h-80v-229h-213v714h306q82 0 137.5 -18.5t89.5 -50t48.5 -74.5t14.5 -91zM273 394h76q51 0 72.5 19t21.5 57t-21.5 57t-72.5 19h-76v-152z" />
    <glyph glyph-name="S" unicode="S" horiz-adv-x="691" 
d="M250 237q6 -40 31.5 -61t77.5 -21q42 0 61.5 13.5t19.5 39.5q0 20 -13.5 32t-50.5 20l-97 19q-125 25 -181.5 78t-56.5 141q0 57 21.5 100.5t61 73.5t96 45t126.5 15q76 0 131.5 -17t92 -47.5t55.5 -70.5t23 -86l-221 -20q-9 39 -29.5 53.5t-58.5 14.5q-41 0 -59 -13
t-18 -33q0 -17 13.5 -28t51.5 -19l96 -20q65 -14 110.5 -33.5t74 -46.5t41.5 -61.5t13 -79.5q0 -116 -80.5 -179.5t-236.5 -63.5q-79 0 -137.5 17.5t-97.5 50.5t-59.5 80.5t-24.5 106.5h224z" />
    <glyph glyph-name="T" unicode="T" horiz-adv-x="675" 
d="M224 519h-199v195h625v-195h-199v-519h-227v519z" />
    <glyph glyph-name="U" unicode="U" horiz-adv-x="738" 
d="M366 -18q-73 0 -131 18t-98 56.5t-61 98.5t-21 144v415h227v-425q0 -57 20 -84.5t67 -27.5t67 27.5t20 84.5v425h227v-415q0 -160 -82 -238.5t-235 -78.5z" />
    <glyph glyph-name="V" unicode="V" horiz-adv-x="758" 
d="M264 714l117 -473l117 473h240l-217 -714h-286l-215 714h244z" />
    <glyph glyph-name="W" unicode="W" horiz-adv-x="1029" 
d="M702 272l74 442h233l-179 -714h-237l-79 400l-78 -400h-237l-179 714h238l73 -442l86 437h200z" />
    <glyph glyph-name="X" unicode="X" horiz-adv-x="758" 
d="M369 226l-117 -226h-242l223 374l-206 340h252l101 -191l98 191h242l-206 -349l234 -365h-252z" />
    <glyph glyph-name="Y" unicode="Y" horiz-adv-x="716" 
d="M251 714l109 -260l110 260h236l-234 -449v-265h-228v265l-234 449h241z" />
    <glyph glyph-name="Z" unicode="Z" horiz-adv-x="656" 
d="M312 183h314l-18 -183h-568v162l292 369h-285v183h556v-163z" />
    <glyph glyph-name="bracketleft" unicode="[" horiz-adv-x="420" 
d="M60 734h330v-182h-116v-494h116v-182h-330v858z" />
    <glyph glyph-name="backslash" unicode="\" horiz-adv-x="464" 
d="M10 734h212l232 -734h-211z" />
    <glyph glyph-name="bracketright" unicode="]" horiz-adv-x="420" 
d="M360 -124h-330v182h116v494h-116v182h330v-858z" />
    <glyph glyph-name="asciicircum" unicode="^" horiz-adv-x="592" 
d="M388 720l188 -433h-212l-71 196l-71 -196h-207l188 433h185z" />
    <glyph glyph-name="underscore" unicode="_" horiz-adv-x="500" 
d="M0 -123h500v-52h-500v52z" />
    <glyph glyph-name="grave" unicode="`" horiz-adv-x="445" 
d="M45 757h227l128 -173h-185z" />
    <glyph glyph-name="a" unicode="a" horiz-adv-x="599" 
d="M361 0v50q-32 -32 -68.5 -48t-84.5 -16q-33 0 -65 9t-57 28.5t-40.5 49.5t-15.5 73q0 52 22.5 87.5t60.5 55.5q39 20 81.5 28t97.5 10l61 2v18q0 29 -12 42t-36 13q-23 0 -36 -11t-17 -33l-191 14q13 85 76 128.5t174 43.5q69 0 115.5 -16t75 -45t40.5 -70t12 -91v-322
h-193zM353 214l-55 -3q-37 -2 -54.5 -14.5t-17.5 -34.5q0 -19 12 -28.5t35 -9.5q35 0 57.5 21.5t22.5 56.5v12z" />
    <glyph glyph-name="b" unicode="b" horiz-adv-x="642" 
d="M264 714v-227q51 58 136 58q96 0 151.5 -68t55.5 -204q0 -71 -16 -124.5t-44.5 -90t-68 -55t-87.5 -18.5q-51 0 -84 20t-51 49v-54h-206v714h214zM265 257q0 -54 15 -79q15 -24 47 -24t49 25t17 85q0 58 -17 83.5t-49 25.5q-30 0 -46 -24q-9 -14 -12.5 -33t-3.5 -45v-14z
" />
    <glyph glyph-name="c" unicode="c" horiz-adv-x="581" 
d="M561 212q-5 -49 -22 -91t-47.5 -72.5t-76.5 -47.5t-110 -17q-69 0 -120 20.5t-84.5 57t-49.5 87.5t-16 111q0 135 72 209.5t199 74.5q64 0 110 -17t74.5 -46t44.5 -66.5t21 -77.5l-198 -17q-4 25 -15 39t-34 14q-30 0 -45 -25.5t-15 -82.5q0 -60 15.5 -85t45.5 -25
q24 0 36 15t15 42h200z" />
    <glyph glyph-name="d" unicode="d" horiz-adv-x="642" 
d="M386 0v52q-52 -68 -144 -68q-96 0 -151.5 69.5t-55.5 202.5q0 69 16 123.5t44.5 91t68 55t87.5 18.5q44 0 76.5 -16t50.5 -41v227h214v-714h-206zM377 272q0 54 -15 79q-15 24 -47 24t-49 -25.5t-17 -83.5t17 -84t49 -26q30 0 46 24q9 14 12.5 33t3.5 45v14z" />
    <glyph glyph-name="e" unicode="e" horiz-adv-x="605" 
d="M567 174q-17 -97 -82.5 -143.5t-173.5 -46.5q-139 0 -207.5 72.5t-68.5 200.5q0 67 18.5 120.5t54 90.5t86 56.5t114.5 19.5q63 0 112 -19t82.5 -54.5t50.5 -86t17 -112.5v-54h-334q2 -50 21 -68.5t51 -18.5q51 0 63 43h196zM311 399q-32 0 -52 -18t-22 -57h139
q-2 42 -18.5 58.5t-46.5 16.5z" />
    <glyph glyph-name="f" unicode="f" horiz-adv-x="438" 
d="M101 332h-86v167h86v8q0 101 55 158t162 57q37 0 74.5 -6.5t66.5 -14.5l-26 -147q-11 2 -26 4.5t-32 2.5q-33 0 -46.5 -13t-13.5 -41v-8h109v-167h-109v-332h-214v332z" />
    <glyph glyph-name="g" unicode="g" horiz-adv-x="642" 
d="M260 -9q4 -24 16.5 -35.5t38.5 -11.5q34 0 48.5 22.5t14.5 84.5v39q-21 -27 -54 -44.5t-84 -17.5q-98 0 -151.5 65t-53.5 189q0 63 16 113t44.5 83t67.5 49.5t85 16.5q48 0 80 -16.5t57 -45.5v46h207v-470q0 -133 -70.5 -198t-206.5 -65q-123 0 -187.5 50.5t-72.5 145.5
h205zM377 293q0 18 -3.5 33t-11.5 26q-9 13 -21 18t-26 5q-32 0 -49 -22.5t-17 -64.5q0 -44 17 -65.5t49 -21.5q16 0 28.5 6t21.5 20q8 13 10 26t2 28v12z" />
    <glyph glyph-name="h" unicode="h" horiz-adv-x="626" 
d="M50 714h214v-234q26 29 60 46.5t83 17.5q81 0 127.5 -48.5t46.5 -139.5v-356h-214v317q0 27 -11 39.5t-31 12.5q-17 0 -30.5 -6t-21.5 -18q-4 -6 -6.5 -14.5t-2.5 -23.5v-307h-214v714z" />
    <glyph glyph-name="i" unicode="i" horiz-adv-x="314" 
d="M50 528h214v-528h-214v528zM50 714h214v-135h-214v135z" />
    <glyph glyph-name="j" unicode="j" horiz-adv-x="319" 
d="M55 714h214v-135h-214v135zM-39 -20q12 -2 24 -3.5t21 -1.5q25 0 37 13t12 41v499h214v-509q0 -103 -49 -153t-147 -50q-36 0 -73 6t-67 14z" />
    <glyph glyph-name="k" unicode="k" horiz-adv-x="646" 
d="M302 221l-48 -47v-174h-204v714h204v-328l135 142h237l-181 -176l196 -352h-224z" />
    <glyph glyph-name="l" unicode="l" horiz-adv-x="314" 
d="M50 714h214v-714h-214v714z" />
    <glyph glyph-name="m" unicode="m" horiz-adv-x="903" 
d="M398 544q47 0 82.5 -19.5t55.5 -56.5q28 35 66 55.5t90 20.5q79 0 122.5 -48.5t43.5 -139.5v-356h-214v327q0 23 -9 32.5t-25 9.5q-29 0 -42 -19q-3 -5 -5 -12t-2 -19v-319h-214v327q0 23 -9 32.5t-25 9.5q-29 0 -42 -19q-3 -5 -5 -12t-2 -19v-319h-214v528h208v-55
q24 32 58.5 51.5t81.5 19.5z" />
    <glyph glyph-name="n" unicode="n" horiz-adv-x="626" 
d="M50 528h208v-55q27 33 63.5 52t86.5 19q81 0 127 -49t46 -139v-356h-214v317q0 28 -11 40t-31 12q-17 0 -30.5 -6t-21.5 -18q-4 -6 -6.5 -14.5t-2.5 -23.5v-307h-214v528z" />
    <glyph glyph-name="o" unicode="o" horiz-adv-x="627" 
d="M311 -16q-137 0 -206.5 73.5t-69.5 204.5q0 133 73 207.5t208 74.5q136 0 206 -73.5t70 -204.5q0 -133 -72.5 -207.5t-208.5 -74.5zM249 264q0 -32 4.5 -53t13.5 -33.5t21 -17.5t25 -5q14 0 26 5t21 17.5t13.5 33.5t4.5 53t-4.5 53t-13.5 33.5t-21 17.5t-26 5
q-13 0 -25 -5t-21 -17.5t-13.5 -33.5t-4.5 -53z" />
    <glyph glyph-name="p" unicode="p" horiz-adv-x="642" 
d="M256 529v-52q52 68 144 68q95 0 151 -68.5t56 -203.5q0 -69 -16 -124t-44.5 -91.5t-68 -54.5t-87.5 -18q-46 0 -77 16t-50 41v-236h-214v723h206zM265 257q0 -54 15 -79q15 -24 47 -24t49 25t17 85t-17 84.5t-49 24.5q-30 0 -46 -24q-9 -14 -12.5 -33t-3.5 -45v-14z" />
    <glyph glyph-name="q" unicode="q" horiz-adv-x="642" 
d="M378 -194v236q-51 -58 -136 -58q-96 0 -151.5 68t-55.5 204q0 71 16 124.5t44.5 90t68 55t87.5 18.5q51 0 84 -20t51 -49v54h206v-723h-214zM377 272q0 54 -15 79q-15 24 -47 24t-49 -25t-17 -85q0 -58 17 -83.5t49 -25.5q30 0 46 24q9 14 12.5 33t3.5 45v14z" />
    <glyph glyph-name="r" unicode="r" horiz-adv-x="462" 
d="M50 528h208v-58q52 67 145 67q17 0 30.5 -2t23.5 -4l-23 -177q-11 2 -25.5 4t-34.5 2q-16 0 -36.5 -3t-39.5 -15q-34 -23 -34 -76v-266h-214v528z" />
    <glyph glyph-name="s" unicode="s" horiz-adv-x="559" 
d="M227 170q5 -25 21.5 -33t39.5 -8q26 0 37 7.5t11 22.5q0 13 -9 21t-34 13l-53 10q-108 20 -156 59.5t-48 111.5q0 80 63.5 125t182.5 45q62 0 106.5 -12.5t74.5 -34.5t46.5 -52t22.5 -64l-200 -17q-8 44 -53 44q-21 0 -32 -8t-11 -22q0 -13 10.5 -21t36.5 -13l54 -11
q57 -12 95.5 -26.5t62 -34.5t34 -46t10.5 -65q0 -85 -61 -131t-187 -46q-47 0 -92.5 7.5t-83.5 28t-62 58t-28 92.5h202z" />
    <glyph glyph-name="t" unicode="t" horiz-adv-x="459" 
d="M101 361h-86v167h86v137h214v-137h109v-167h-109v-143q0 -33 15 -44t40 -11q22 0 48 6l26 -155q-33 -11 -65.5 -17t-74.5 -6q-56 0 -95 12.5t-63 39t-34.5 67t-10.5 96.5v155z" />
    <glyph glyph-name="u" unicode="u" horiz-adv-x="621" 
d="M571 0h-208v55q-26 -32 -61.5 -51.5t-86.5 -19.5q-79 0 -124.5 49t-45.5 139v356h214v-320q0 -26 10.5 -37.5t29.5 -11.5q34 0 49 23q4 5 6.5 13.5t2.5 22.5v310h214v-528z" />
    <glyph glyph-name="v" unicode="v" horiz-adv-x="604" 
d="M188 0l-178 528h224l71 -311l72 311h217l-178 -528h-228z" />
    <glyph glyph-name="w" unicode="w" horiz-adv-x="835" 
d="M419 270l-65 -270h-199l-145 528h208l56 -280l66 275h162l68 -266l54 271h201l-145 -528h-192z" />
    <glyph glyph-name="x" unicode="x" horiz-adv-x="605" 
d="M423 277l177 -277h-227l-74 123l-73 -123h-221l183 262l-165 266h233l56 -108l63 108h212z" />
    <glyph glyph-name="y" unicode="y" horiz-adv-x="616" 
d="M234 528l82 -254l73 254h217l-209 -519q-23 -57 -43.5 -95.5t-45 -62.5t-54.5 -34.5t-71 -10.5q-38 0 -73.5 7t-58.5 15l31 153q14 -3 30.5 -6t33.5 -3q23 0 40 11t30 48l8 23l-214 474h224z" />
    <glyph glyph-name="z" unicode="z" horiz-adv-x="541" 
d="M295 162h226l-16 -162h-470v131l213 235h-208v162h468v-131z" />
    <glyph glyph-name="braceleft" unicode="{" horiz-adv-x="431" 
d="M224 305q36 -15 52.5 -47t16.5 -74v-68q0 -31 12 -44.5t36 -13.5h60v-182h-103q-113 0 -161.5 47.5t-48.5 147.5v77q0 32 -15.5 51t-47.5 19h-10v174h10q32 0 47.5 19t15.5 51v77q0 46 12 82.5t37 61.5t65 38t96 13h103v-182h-60q-24 0 -36 -13.5t-12 -44.5v-68
q0 -42 -16.5 -74t-52.5 -47z" />
    <glyph glyph-name="bar" unicode="|" horiz-adv-x="322" 
d="M60 734h202v-858h-202v858z" />
    <glyph glyph-name="braceright" unicode="}" horiz-adv-x="431" 
d="M207 305q-36 15 -52.5 47t-16.5 74v68q0 31 -12 44.5t-36 13.5h-60v182h103q113 0 161.5 -47.5t48.5 -147.5v-77q0 -32 15.5 -51t47.5 -19h10v-174h-10q-32 0 -47.5 -19t-15.5 -51v-77q1 -92 -48.5 -143.5t-161.5 -51.5h-103v182h60q24 0 36 13.5t12 44.5v68
q0 42 16.5 74t52.5 47z" />
    <glyph glyph-name="asciitilde" unicode="~" horiz-adv-x="592" 
d="M580 466q0 -133 -46.5 -199.5t-135.5 -66.5q-36 0 -61.5 10.5t-45 23t-35 23t-31.5 10.5q-20 0 -29 -17.5t-9 -44.5h-175q0 132 46.5 199t135.5 67q36 0 61.5 -10.5t45 -23t35 -23t31.5 -10.5q20 0 29 17.5t9 44.5h175z" />
    <glyph glyph-name="uni00A0" unicode="&#xa0;" horiz-adv-x="210" 
 />
    <glyph glyph-name="exclamdown" unicode="&#xa1;" horiz-adv-x="315" 
d="M65 297h186l24 -483h-235zM61 528h194v-185h-194v185z" />
    <glyph glyph-name="cent" unicode="&#xa2;" horiz-adv-x="592" 
d="M562 310q-5 -46 -20.5 -85.5t-43.5 -69.5t-69.5 -48t-98.5 -22v-96h-55v96q-64 4 -111 25.5t-77.5 58t-45.5 85t-15 106.5q0 128 65 201.5t184 81.5v93h55v-93q57 -4 98 -22.5t68 -47t41.5 -64t19.5 -74.5l-188 -16q-4 23 -13.5 38.5t-25.5 21.5v-231q37 12 42 62h190z
M230 365q0 -50 11.5 -77t33.5 -37v225q-23 -10 -34 -37t-11 -74z" />
    <glyph glyph-name="sterling" unicode="&#xa3;" horiz-adv-x="592" 
d="M298 260q-8 -50 -39 -90h319l-18 -170h-514v139q28 33 43.5 59.5t17.5 61.5h-82v154h59q-3 17 -5 34.5t-2 35.5q0 59 20 101.5t53.5 70.5t78 41t93.5 13q53 0 96.5 -15t75 -42.5t49.5 -68t20 -91.5l-194 -19q-1 20 -9 38t-37 18q-20 0 -33.5 -12.5t-13.5 -47.5
q0 -14 2 -28t5 -28h181v-154h-166z" />
    <glyph glyph-name="currency" unicode="&#xa4;" horiz-adv-x="592" 
d="M52 327q0 30 6 60t20 57l-61 71l130 113l59 -68q42 15 94 15q24 0 45.5 -3.5t41.5 -9.5l57 66l130 -113l-56 -64q30 -59 30 -124q0 -32 -7.5 -64t-23.5 -61l57 -65l-130 -113l-59 67q-38 -12 -85 -12q-53 0 -93 15l-60 -70l-130 113l62 71q-27 55 -27 119zM214 327
q0 -54 22.5 -84t63.5 -30t63.5 30t22.5 84t-22.5 84t-63.5 30t-63.5 -30t-22.5 -84z" />
    <glyph glyph-name="yen" unicode="&#xa5;" horiz-adv-x="592" 
d="M191 211v56h-145v90h110l-152 334h217l78 -228l78 228h212l-151 -334h108v-90h-145v-56h145v-90h-145v-121h-210v121h-145v90h145z" />
    <glyph glyph-name="brokenbar" unicode="&#xa6;" horiz-adv-x="322" 
d="M60 398v336h202v-336h-202zM262 229v-353h-202v353h202z" />
    <glyph glyph-name="section" unicode="&#xa7;" horiz-adv-x="601" 
d="M362 537q-6 29 -21 44t-45 15q-26 0 -39.5 -11.5t-13.5 -31.5q0 -35 47 -46l54 -13q55 -14 96.5 -28t68.5 -33.5t40.5 -46.5t13.5 -67q0 -45 -16.5 -74.5t-50.5 -53.5q41 -24 56 -57t15 -73q0 -91 -65 -136.5t-190 -45.5q-50 0 -98 9t-87.5 31t-65.5 61.5t-30 97.5h204
q5 -30 24.5 -42t48.5 -12q56 0 56 42q0 15 -9.5 26t-40.5 19l-71 17q-62 15 -101 32t-61 38t-31 46t-9 54q0 49 18 79.5t44 47.5q-26 17 -43 49t-17 75q0 86 68.5 134.5t186.5 48.5q66 0 113 -14.5t78 -39t49 -57t24 -67.5zM290 363q-14 3 -23 3q-21 0 -36 -12t-15 -37
q0 -16 9.5 -29t39.5 -21l47 -12q13 -3 23 -3q21 0 36 12t15 37q0 16 -9.5 29t-39.5 21z" />
    <glyph glyph-name="dieresis" unicode="&#xa8;" horiz-adv-x="445" 
d="M12 729h185v-140h-185v140zM248 729h184v-140h-184v140z" />
    <glyph glyph-name="copyright" unicode="&#xa9;" horiz-adv-x="782" 
d="M581 319q-2 -34 -14 -63.5t-34.5 -51t-56 -34t-78.5 -12.5q-49 0 -85.5 14.5t-60.5 40t-35.5 61.5t-11.5 79t11.5 80.5t35.5 65t60 43t86 15.5q80 0 125 -39.5t54 -108.5l-134 -14q-3 17 -14 28t-31 11q-26 0 -39 -18t-13 -57q0 -24 4.5 -39.5t12 -24t17.5 -11.5t21 -3
q40 0 47 38h133zM45 356q0 81 27 147.5t73.5 113t110 72t137.5 25.5q73 0 136 -25.5t109 -72t72.5 -112t26.5 -146.5t-27 -147.5t-73.5 -113t-110 -72t-136.5 -25.5q-74 0 -137 25.5t-109 72t-72.5 112t-26.5 146.5zM145 357q0 -62 18 -111.5t51 -84t78 -53t99 -18.5
t99 18.5t78 53t51 84t18 111.5t-18 111.5t-51 84t-78 53t-99 18.5t-99 -18.5t-78 -53t-51 -84t-18 -111.5z" />
    <glyph glyph-name="ordfeminine" unicode="&#xaa;" horiz-adv-x="443" 
d="M263 370q-23 -23 -50.5 -35t-62.5 -12q-24 0 -47.5 6.5t-42 21t-29.5 36.5t-11 53q0 38 17 64t45.5 40.5t61.5 21t68 7.5l45 1v14q0 21 -8.5 29t-25.5 8q-19 0 -26.5 -8.5t-9.5 -20.5l-144 10q10 63 57 94.5t128 31.5q51 0 85.5 -11.5t55.5 -33t30 -51.5t9 -67v-236h-145
v37zM257 489l-40 -2q-26 -2 -36 -11t-10 -23t8.5 -21t22.5 -7q20 0 37.5 13t17.5 39v12z" />
    <glyph glyph-name="guillemotleft" unicode="&#xab;" horiz-adv-x="664" 
d="M634 27h-207l-117 231l117 229h207l-103 -230zM349 27h-207l-117 231l117 229h207l-103 -230z" />
    <glyph glyph-name="logicalnot" unicode="&#xac;" horiz-adv-x="592" 
d="M61 455h449v-310h-193v125h-256v185z" />
    <glyph glyph-name="uni00AD" unicode="&#xad;" horiz-adv-x="427" 
d="M35 396h357v-190h-357v190z" />
    <glyph glyph-name="registered" unicode="&#xae;" horiz-adv-x="508" 
d="M30 507q0 51 17 93t47 71t71 45t89 16t89 -16t71 -45t47 -71t17 -93t-17 -93t-47 -71t-71 -45t-89 -16t-89 16t-71 45t-47 71t-17 93zM97 507q0 -79 41.5 -121.5t115.5 -42.5t115.5 42.5t41.5 123.5q0 77 -42 119.5t-115 42.5t-115 -42.5t-42 -121.5zM347 541
q0 -39 -26 -59l39 -82h-79l-27 63h-23v-63h-72v217h100q44 0 66 -20.5t22 -55.5zM231 517h17q16 0 21.5 5.5t5.5 15.5q0 11 -5.5 16.5t-21.5 5.5h-17v-43z" />
    <glyph glyph-name="macron" unicode="&#xaf;" horiz-adv-x="445" 
d="M55 737h335v-148h-335v148z" />
    <glyph glyph-name="degree" unicode="&#xb0;" horiz-adv-x="398" 
d="M199 489q21 0 33.5 14t12.5 34q0 21 -12.5 35t-33.5 14t-33.5 -14t-12.5 -35q0 -20 12.5 -34t33.5 -14zM25 537q0 36 13 68t36.5 55t55 36.5t69.5 13.5t70 -13.5t55 -36.5t36 -55t13 -68t-13 -67.5t-36.5 -54.5t-55.5 -36.5t-69 -13.5q-38 0 -70 13.5t-55 36.5t-36 54.5
t-13 67.5z" />
    <glyph glyph-name="plusminus" unicode="&#xb1;" horiz-adv-x="592" 
d="M66 175h132v103h-149v175h149v152h197v-152h149v-175h-149v-103h132v-175h-461v175z" />
    <glyph glyph-name="twosuperior" unicode="&#xb2;" 
d="M48 396l100 75q23 18 39 30.5t25.5 23t14 20t4.5 21.5q0 25 -22 25q-13 0 -20 -8.5t-10 -29.5l-140 11q11 72 57.5 108.5t121.5 36.5q78 0 118.5 -37.5t40.5 -96.5q0 -35 -17.5 -67.5t-69.5 -72.5q-8 -7 -15.5 -12.5t-17.5 -12.5h127l-10 -120h-326v106z" />
    <glyph glyph-name="threesuperior" unicode="&#xb3;" 
d="M167 436q1 -22 9.5 -35t27.5 -13q30 0 31 31q0 14 -8 22t-24 8h-23v98h21q28 0 28 27q0 11 -6.5 18.5t-19.5 7.5q-26 0 -32 -33l-138 10q5 65 52.5 98.5t125.5 33.5t122.5 -32.5t44.5 -87.5q0 -23 -9.5 -45t-34.5 -37q29 -16 41.5 -42t12.5 -54q0 -60 -47.5 -95.5
t-132.5 -35.5q-50 0 -84.5 12.5t-56 34t-31 48.5t-9.5 61h140z" />
    <glyph glyph-name="acute" unicode="&#xb4;" horiz-adv-x="445" 
d="M230 584h-185l128 173h227z" />
    <glyph glyph-name="mu" unicode="&#xb5;" horiz-adv-x="626" 
d="M264 528v-320q0 -27 10.5 -38t29.5 -11q15 0 28 6t21 17q4 5 6.5 13.5t2.5 22.5v310h214v-528h-208v55q-15 -26 -35.5 -41t-48.5 -15q-12 0 -21 3v-195h-213v721h214z" />
    <glyph glyph-name="paragraph" unicode="&#xb6;" horiz-adv-x="732" 
d="M242 -139v353q-61 9 -104 31.5t-70.5 54.5t-40 72t-12.5 85q0 51 15 98t50 82t93.5 56t145.5 21h353v-853h-185v693h-60v-693h-185z" />
    <glyph glyph-name="periodcentered" unicode="&#xb7;" horiz-adv-x="288" 
d="M44 482h199v-215h-199v215z" />
    <glyph glyph-name="cedilla" unicode="&#xb8;" horiz-adv-x="445" 
d="M262 12l-20 -55q32 -5 52 -14.5t31 -22t15 -27t4 -29.5q0 -47 -41 -70.5t-113 -23.5q-14 0 -35 1.5t-54 6.5v87q24 -2 39 -3t26 -1q42 0 42 21q0 11 -11 16t-42 5h-34l43 109h98z" />
    <glyph glyph-name="onesuperior" unicode="&#xb9;" 
d="M172 545l-73 -49l-67 107l152 96h138v-409h-150v255z" />
    <glyph glyph-name="ordmasculine" unicode="&#xba;" horiz-adv-x="455" 
d="M225 309q-106 0 -158 56t-52 153q0 101 55 157.5t160 56.5t157.5 -56t52.5 -153q0 -101 -54.5 -157.5t-160.5 -56.5zM226 443q21 0 34 15.5t13 61.5q0 47 -13 62.5t-34 15.5q-20 0 -32.5 -15.5t-12.5 -62.5q0 -46 12.5 -61.5t32.5 -15.5z" />
    <glyph glyph-name="guillemotright" unicode="&#xbb;" horiz-adv-x="664" 
d="M133 257l-103 230h207l117 -229l-117 -231h-207zM418 257l-103 230h207l117 -229l-117 -231h-207z" />
    <glyph glyph-name="onequarter" unicode="&#xbc;" horiz-adv-x="1053" 
d="M172 545l-73 -49l-67 107l152 96h138v-409h-150v255zM472 0h-195l304 691h195zM665 177l166 233h159v-233h49l-10 -108h-39v-68h-145v68h-180v108zM845 177v84l-59 -84h59z" />
    <glyph glyph-name="onehalf" unicode="&#xbd;" horiz-adv-x="1053" 
d="M172 545l-73 -49l-67 107l152 96h138v-409h-150v255zM462 0h-195l304 691h195zM689 107l100 75q23 18 39 30.5t25.5 23t14 20t4.5 21.5q0 25 -22 25q-13 0 -20 -8.5t-10 -29.5l-140 11q11 72 57.5 108.5t121.5 36.5q78 0 118.5 -37.5t40.5 -96.5q0 -35 -17.5 -67.5
t-69.5 -72.5q-8 -7 -15.5 -12.5t-17.5 -12.5h127l-10 -120h-326v106z" />
    <glyph glyph-name="threequarters" unicode="&#xbe;" horiz-adv-x="1053" 
d="M167 436q1 -22 9.5 -35t27.5 -13q30 0 31 31q0 14 -8 22t-24 8h-23v98h21q28 0 28 27q0 11 -6.5 18.5t-19.5 7.5q-26 0 -32 -33l-138 10q5 65 52.5 98.5t125.5 33.5t122.5 -32.5t44.5 -87.5q0 -23 -9.5 -45t-34.5 -37q29 -16 41.5 -42t12.5 -54q0 -60 -47.5 -95.5
t-132.5 -35.5q-50 0 -84.5 12.5t-56 34t-31 48.5t-9.5 61h140zM482 0h-195l304 691h195zM665 177l166 233h159v-233h49l-10 -108h-39v-68h-145v68h-180v108zM845 177v84l-59 -84h59z" />
    <glyph glyph-name="questiondown" unicode="&#xbf;" horiz-adv-x="538" 
d="M365 343h-194v185h194v-185zM361 297v-19q0 -35 -6 -60.5t-17.5 -45t-26.5 -36t-33 -33.5q-29 -27 -41 -42t-12 -38q0 -46 48 -46q26 0 42 16.5t20 52.5l198 -17q-5 -51 -23.5 -93t-52 -71.5t-82.5 -46t-115 -16.5q-118 0 -184 50.5t-66 138.5q0 33 8.5 58.5t22 47
t31.5 39.5t37 35q35 30 50 52.5t15 54.5v19h187z" />
    <glyph glyph-name="Agrave" unicode="&#xc0;" horiz-adv-x="782" 
d="M501 115h-226l-31 -115h-224l232 714h280l230 -714h-229zM323 292h130l-65 237zM146 935h242l128 -163h-200z" />
    <glyph glyph-name="Aacute" unicode="&#xc1;" horiz-adv-x="782" 
d="M501 115h-226l-31 -115h-224l232 714h280l230 -714h-229zM323 292h130l-65 237zM468 772h-200l128 163h242z" />
    <glyph glyph-name="Acircumflex" unicode="&#xc2;" horiz-adv-x="782" 
d="M501 115h-226l-31 -115h-224l232 714h280l230 -714h-229zM323 292h130l-65 237zM492 935l131 -163h-178l-52 66l-51 -66h-183l131 163h202z" />
    <glyph glyph-name="Atilde" unicode="&#xc3;" horiz-adv-x="782" 
d="M501 115h-226l-31 -115h-224l232 714h280l230 -714h-229zM323 292h130l-65 237zM608 946q0 -91 -35.5 -134t-99.5 -43q-26 0 -44.5 6t-34 13t-28.5 13t-28 6q-18 0 -26 -11t-8 -31h-130q0 91 35.5 134t100.5 43q25 0 44 -6t34 -13t28.5 -13t27.5 -6q19 0 26.5 11t7.5 31
h130z" />
    <glyph glyph-name="Adieresis" unicode="&#xc4;" horiz-adv-x="782" 
d="M501 115h-226l-31 -115h-224l232 714h280l230 -714h-229zM323 292h130l-65 237zM171 928h195v-156h-195v156zM417 928h194v-156h-194v156z" />
    <glyph glyph-name="Aring" unicode="&#xc5;" horiz-adv-x="782" 
d="M503 115h-230l-31 -115h-222l243 710q-12 25 -12 61q0 34 11.5 59.5t31 42t45 25t53.5 8.5t54 -8.5t45.5 -25t31 -42t11.5 -59.5t-12 -59l240 -712h-227zM321 292h134l-67 244zM353 771q0 -20 11 -30t28 -10t28.5 10t11.5 30t-11.5 30t-28.5 10t-28 -10t-11 -30z" />
    <glyph glyph-name="AE" unicode="&#xc6;" horiz-adv-x="1097" 
d="M556 0v175h-222l-85 -175h-229l378 714h654v-175h-283v-91h263v-175h-263v-98h303l-17 -175h-499zM421 352h135v187h-43z" />
    <glyph glyph-name="Ccedilla" unicode="&#xc7;" horiz-adv-x="738" 
d="M718 273q-3 -59 -22 -110t-55.5 -89.5t-91 -62.5t-128.5 -28l-9 -26q33 -5 53.5 -15t32 -22.5t15.5 -28t4 -30.5q0 -48 -42 -72t-115 -24q-15 0 -36 1.5t-55 6.5v87q24 -2 39.5 -3t26.5 -1q43 0 43 23q0 12 -11.5 18t-42.5 6h-35l33 84q-73 9 -126.5 39.5t-88 77.5
t-51 109t-16.5 136q0 81 20.5 151t64 121.5t111 81t161.5 29.5q142 0 216 -67t94 -191l-226 -25q-4 19 -10.5 35t-17 28t-26.5 18.5t-39 6.5q-54 0 -81 -43t-27 -135q0 -57 9.5 -92.5t25.5 -55.5t37 -27t43 -7q41 0 66 23.5t31 72.5h226z" />
    <glyph glyph-name="Egrave" unicode="&#xc8;" horiz-adv-x="636" 
d="M60 714h531v-175h-308v-91h288v-175h-288v-98h328l-17 -175h-534v714zM94 935h242l128 -163h-200z" />
    <glyph glyph-name="Eacute" unicode="&#xc9;" horiz-adv-x="636" 
d="M60 714h531v-175h-308v-91h288v-175h-288v-98h328l-17 -175h-534v714zM401 772h-200l128 163h242z" />
    <glyph glyph-name="Ecircumflex" unicode="&#xca;" horiz-adv-x="636" 
d="M60 714h531v-175h-308v-91h288v-175h-288v-98h328l-17 -175h-534v714zM428 935l131 -163h-178l-52 66l-51 -66h-183l131 163h202z" />
    <glyph glyph-name="Edieresis" unicode="&#xcb;" horiz-adv-x="636" 
d="M60 714h531v-175h-308v-91h288v-175h-288v-98h328l-17 -175h-534v714zM108 928h195v-156h-195v156zM354 928h194v-156h-194v156z" />
    <glyph glyph-name="Igrave" unicode="&#xcc;" horiz-adv-x="347" 
d="M60 714h227v-714h-227v714zM-86 935h242l128 -163h-200z" />
    <glyph glyph-name="Iacute" unicode="&#xcd;" horiz-adv-x="347" 
d="M60 714h227v-714h-227v714zM264 772h-200l128 163h242z" />
    <glyph glyph-name="Icircumflex" unicode="&#xce;" horiz-adv-x="347" 
d="M60 714h227v-714h-227v714zM275 935l131 -163h-178l-52 66l-51 -66h-183l131 163h202z" />
    <glyph glyph-name="Idieresis" unicode="&#xcf;" horiz-adv-x="347" 
d="M60 714h227v-714h-227v714zM-46 928h195v-156h-195v156zM200 928h194v-156h-194v156z" />
    <glyph glyph-name="Eth" unicode="&#xd0;" horiz-adv-x="796" 
d="M91 0v269h-81v176h81v269h293q185 0 278.5 -90.5t93.5 -261.5q0 -175 -95 -268.5t-277 -93.5h-293zM305 184h87q69 0 101.5 44.5t32.5 129.5q0 81 -31.5 125.5t-102.5 44.5h-87v-83h98v-176h-98v-85z" />
    <glyph glyph-name="Ntilde" unicode="&#xd1;" horiz-adv-x="755" 
d="M60 714h195l228 -361v361h212v-714h-193l-230 363v-363h-212v714zM589 946q0 -91 -35.5 -134t-99.5 -43q-26 0 -44.5 6t-34 13t-28.5 13t-28 6q-18 0 -26 -11t-8 -31h-130q0 91 35.5 134t100.5 43q25 0 44 -6t34 -13t28.5 -13t27.5 -6q19 0 26.5 11t7.5 31h130z" />
    <glyph glyph-name="Ograve" unicode="&#xd2;" horiz-adv-x="800" 
d="M397 -18q-87 0 -153.5 25.5t-112 73.5t-68.5 117t-23 156t23 156.5t69 119t114 76t157 26.5q87 0 153.5 -25.5t112 -73.5t68.5 -116.5t23 -155.5t-23.5 -157.5t-69 -119.5t-113.5 -75.5t-157 -26.5zM400 177q125 0 125 180t-125 180t-125 -180t125 -180zM173 935h242
l128 -163h-200z" />
    <glyph glyph-name="Oacute" unicode="&#xd3;" horiz-adv-x="800" 
d="M397 -18q-87 0 -153.5 25.5t-112 73.5t-68.5 117t-23 156t23 156.5t69 119t114 76t157 26.5q87 0 153.5 -25.5t112 -73.5t68.5 -116.5t23 -155.5t-23.5 -157.5t-69 -119.5t-113.5 -75.5t-157 -26.5zM400 177q125 0 125 180t-125 180t-125 -180t125 -180zM457 772h-200
l128 163h242z" />
    <glyph glyph-name="Ocircumflex" unicode="&#xd4;" horiz-adv-x="800" 
d="M397 -18q-87 0 -153.5 25.5t-112 73.5t-68.5 117t-23 156t23 156.5t69 119t114 76t157 26.5q87 0 153.5 -25.5t112 -73.5t68.5 -116.5t23 -155.5t-23.5 -157.5t-69 -119.5t-113.5 -75.5t-157 -26.5zM400 177q125 0 125 180t-125 180t-125 -180t125 -180zM501 935
l131 -163h-178l-52 66l-51 -66h-183l131 163h202z" />
    <glyph glyph-name="Otilde" unicode="&#xd5;" horiz-adv-x="800" 
d="M397 -18q-87 0 -153.5 25.5t-112 73.5t-68.5 117t-23 156t23 156.5t69 119t114 76t157 26.5q87 0 153.5 -25.5t112 -73.5t68.5 -116.5t23 -155.5t-23.5 -157.5t-69 -119.5t-113.5 -75.5t-157 -26.5zM400 177q125 0 125 180t-125 180t-125 -180t125 -180zM617 946
q0 -91 -35.5 -134t-99.5 -43q-26 0 -44.5 6t-34 13t-28.5 13t-28 6q-18 0 -26 -11t-8 -31h-130q0 91 35.5 134t100.5 43q25 0 44 -6t34 -13t28.5 -13t27.5 -6q19 0 26.5 11t7.5 31h130z" />
    <glyph glyph-name="Odieresis" unicode="&#xd6;" horiz-adv-x="800" 
d="M397 -18q-87 0 -153.5 25.5t-112 73.5t-68.5 117t-23 156t23 156.5t69 119t114 76t157 26.5q87 0 153.5 -25.5t112 -73.5t68.5 -116.5t23 -155.5t-23.5 -157.5t-69 -119.5t-113.5 -75.5t-157 -26.5zM400 177q125 0 125 180t-125 180t-125 -180t125 -180zM180 928h195
v-156h-195v156zM426 928h194v-156h-194v156z" />
    <glyph glyph-name="multiply" unicode="&#xd7;" horiz-adv-x="592" 
d="M541 459l-117 -117l121 -121l-128 -128l-121 121l-121 -121l-128 128l121 121l-117 117l128 128l117 -117l117 117z" />
    <glyph glyph-name="Oslash" unicode="&#xd8;" horiz-adv-x="800" 
d="M397 -18q-47 0 -87.5 7.5t-75.5 21.5l-53 -80l-88 58l52 78q-105 97 -105 287q0 87 23 156.5t69 119t114 76t157 26.5q92 0 162 -29l52 79l88 -58l-51 -77q52 -48 79 -120t27 -166q0 -87 -23.5 -157.5t-69 -119.5t-113.5 -75.5t-157 -26.5zM400 172q133 0 133 185
q0 51 -11 90l-176 -266q24 -9 54 -9zM267 357q0 -53 10 -89l175 264q-25 10 -52 10q-133 0 -133 -185z" />
    <glyph glyph-name="Ugrave" unicode="&#xd9;" horiz-adv-x="738" 
d="M366 -18q-73 0 -131 18t-98 56.5t-61 98.5t-21 144v415h227v-425q0 -57 20 -84.5t67 -27.5t67 27.5t20 84.5v425h227v-415q0 -160 -82 -238.5t-235 -78.5zM133 935h242l128 -163h-200z" />
    <glyph glyph-name="Uacute" unicode="&#xda;" horiz-adv-x="738" 
d="M366 -18q-73 0 -131 18t-98 56.5t-61 98.5t-21 144v415h227v-425q0 -57 20 -84.5t67 -27.5t67 27.5t20 84.5v425h227v-415q0 -160 -82 -238.5t-235 -78.5zM435 772h-200l128 163h242z" />
    <glyph glyph-name="Ucircumflex" unicode="&#xdb;" horiz-adv-x="738" 
d="M366 -18q-73 0 -131 18t-98 56.5t-61 98.5t-21 144v415h227v-425q0 -57 20 -84.5t67 -27.5t67 27.5t20 84.5v425h227v-415q0 -160 -82 -238.5t-235 -78.5zM470 935l131 -163h-178l-52 66l-51 -66h-183l131 163h202z" />
    <glyph glyph-name="Udieresis" unicode="&#xdc;" horiz-adv-x="738" 
d="M366 -18q-73 0 -131 18t-98 56.5t-61 98.5t-21 144v415h227v-425q0 -57 20 -84.5t67 -27.5t67 27.5t20 84.5v425h227v-415q0 -160 -82 -238.5t-235 -78.5zM149 928h195v-156h-195v156zM395 928h194v-156h-194v156z" />
    <glyph glyph-name="Yacute" unicode="&#xdd;" horiz-adv-x="716" 
d="M251 714l109 -260l110 260h236l-234 -449v-265h-228v265l-234 449h241zM440 772h-200l128 163h242z" />
    <glyph glyph-name="Thorn" unicode="&#xde;" horiz-adv-x="659" 
d="M59 714h218v-103h59q85 0 142 -19.5t90.5 -53t47.5 -79t14 -97.5q0 -53 -14 -99t-47.5 -79.5t-90.5 -53t-141 -19.5h-60v-111h-218v714zM277 287h61q50 0 69 18.5t19 55.5q0 38 -19.5 56t-68.5 18h-61v-148z" />
    <glyph glyph-name="germandbls" unicode="&#xdf;" horiz-adv-x="658" 
d="M50 0v460q0 127 75 194.5t205 67.5q53 0 99 -11.5t79.5 -35t53 -58.5t19.5 -83q0 -42 -16.5 -77.5t-54.5 -59.5q60 -21 89 -69t29 -116q0 -46 -13.5 -86t-42 -69.5t-72 -46.5t-103.5 -17q-21 0 -47.5 3t-56.5 11l20 154q10 -1 18 -2t19 -1q68 0 68 64q0 39 -22.5 53
t-65.5 14h-28v157h19q26 0 40.5 15t14.5 41q0 23 -13 39t-42 16q-62 0 -62 -73v-484h-209z" />
    <glyph glyph-name="agrave" unicode="&#xe0;" horiz-adv-x="599" 
d="M361 0v50q-32 -32 -68.5 -48t-84.5 -16q-33 0 -65 9t-57 28.5t-40.5 49.5t-15.5 73q0 52 22.5 87.5t60.5 55.5q39 20 81.5 28t97.5 10l61 2v18q0 29 -12 42t-36 13q-23 0 -36 -11t-17 -33l-191 14q13 85 76 128.5t174 43.5q69 0 115.5 -16t75 -45t40.5 -70t12 -91v-322
h-193zM353 214l-55 -3q-37 -2 -54.5 -14.5t-17.5 -34.5q0 -19 12 -28.5t35 -9.5q35 0 57.5 21.5t22.5 56.5v12zM94 757h227l128 -173h-185z" />
    <glyph glyph-name="aacute" unicode="&#xe1;" horiz-adv-x="599" 
d="M361 0v50q-32 -32 -68.5 -48t-84.5 -16q-33 0 -65 9t-57 28.5t-40.5 49.5t-15.5 73q0 52 22.5 87.5t60.5 55.5q39 20 81.5 28t97.5 10l61 2v18q0 29 -12 42t-36 13q-23 0 -36 -11t-17 -33l-191 14q13 85 76 128.5t174 43.5q69 0 115.5 -16t75 -45t40.5 -70t12 -91v-322
h-193zM353 214l-55 -3q-37 -2 -54.5 -14.5t-17.5 -34.5q0 -19 12 -28.5t35 -9.5q35 0 57.5 21.5t22.5 56.5v12zM370 584h-185l128 173h227z" />
    <glyph glyph-name="acircumflex" unicode="&#xe2;" horiz-adv-x="599" 
d="M361 0v50q-32 -32 -68.5 -48t-84.5 -16q-33 0 -65 9t-57 28.5t-40.5 49.5t-15.5 73q0 52 22.5 87.5t60.5 55.5q39 20 81.5 28t97.5 10l61 2v18q0 29 -12 42t-36 13q-23 0 -36 -11t-17 -33l-191 14q13 85 76 128.5t174 43.5q69 0 115.5 -16t75 -45t40.5 -70t12 -91v-322
h-193zM353 214l-55 -3q-37 -2 -54.5 -14.5t-17.5 -34.5q0 -19 12 -28.5t35 -9.5q35 0 57.5 21.5t22.5 56.5v12zM218 752h186l131 -173h-170l-52 72l-51 -72h-175z" />
    <glyph glyph-name="atilde" unicode="&#xe3;" horiz-adv-x="599" 
d="M361 0v50q-32 -32 -68.5 -48t-84.5 -16q-33 0 -65 9t-57 28.5t-40.5 49.5t-15.5 73q0 52 22.5 87.5t60.5 55.5q39 20 81.5 28t97.5 10l61 2v18q0 29 -12 42t-36 13q-23 0 -36 -11t-17 -33l-191 14q13 85 76 128.5t174 43.5q69 0 115.5 -16t75 -45t40.5 -70t12 -91v-322
h-193zM353 214l-55 -3q-37 -2 -54.5 -14.5t-17.5 -34.5q0 -19 12 -28.5t35 -9.5q35 0 57.5 21.5t22.5 56.5v12zM514 760q0 -93 -35 -135t-96 -42q-25 0 -43 6t-33 13t-28 13t-27 6q-18 0 -25.5 -11t-7.5 -31h-127q0 93 35 135t96 42q25 0 43 -6t33 -13t28 -13t27 -6
q18 0 25.5 11t7.5 31h127z" />
    <glyph glyph-name="adieresis" unicode="&#xe4;" horiz-adv-x="599" 
d="M361 0v50q-32 -32 -68.5 -48t-84.5 -16q-33 0 -65 9t-57 28.5t-40.5 49.5t-15.5 73q0 52 22.5 87.5t60.5 55.5q39 20 81.5 28t97.5 10l61 2v18q0 29 -12 42t-36 13q-23 0 -36 -11t-17 -33l-191 14q13 85 76 128.5t174 43.5q69 0 115.5 -16t75 -45t40.5 -70t12 -91v-322
h-193zM353 214l-55 -3q-37 -2 -54.5 -14.5t-17.5 -34.5q0 -19 12 -28.5t35 -9.5q35 0 57.5 21.5t22.5 56.5v12zM99 729h185v-140h-185v140zM335 729h184v-140h-184v140z" />
    <glyph glyph-name="aring" unicode="&#xe5;" horiz-adv-x="599" 
d="M361 0v50q-32 -32 -68.5 -48t-84.5 -16q-33 0 -65 9t-57 28.5t-40.5 49.5t-15.5 73q0 52 22.5 87.5t60.5 55.5q39 20 81.5 28t97.5 10l61 2v18q0 29 -12 42t-36 13q-23 0 -36 -11t-17 -33l-191 14q13 85 76 128.5t174 43.5q69 0 115.5 -16t75 -45t40.5 -70t12 -91v-322
h-193zM353 214l-55 -3q-37 -2 -54.5 -14.5t-17.5 -34.5q0 -19 12 -28.5t35 -9.5q35 0 57.5 21.5t22.5 56.5v12zM280 698q0 -20 10.5 -29t26.5 -9t27 9t11 29t-11 29t-27 9t-26.5 -9t-10.5 -29zM183 698q0 33 11 57t29.5 40t43 24t50.5 8q27 0 51 -8t43 -24t30 -40t11 -57
t-11 -57t-30 -40t-43 -24t-51 -8q-26 0 -50.5 8t-43 24t-29.5 40t-11 57z" />
    <glyph glyph-name="ae" unicode="&#xe6;" horiz-adv-x="903" 
d="M347 214l-52 -3q-35 -2 -52 -14.5t-17 -34.5q0 -19 12 -28.5t33 -9.5q33 0 54.5 21.5t21.5 56.5v12zM862 174q-16 -94 -80.5 -142t-167.5 -48q-72 0 -120 22t-77 64q-29 -39 -75.5 -61.5t-112.5 -22.5q-40 0 -76 9t-63.5 28.5t-43.5 50t-16 73.5q0 51 22.5 86.5t61 55.5
t81.5 28t92 10l60 2v18q0 31 -12 43t-33 12q-23 0 -34.5 -11.5t-15.5 -32.5l-191 14q6 43 26.5 75.5t51.5 53.5t72 32t88 11q55 0 92.5 -14.5t60.5 -40.5q60 55 160 55q60 0 107 -19t79.5 -54.5t49.5 -86t17 -112.5v-54h-323q2 -50 19.5 -68.5t46.5 -18.5q46 0 58 43h196z
M611 399q-30 0 -48 -18t-20 -57h128q-1 41 -16 58t-44 17z" />
    <glyph glyph-name="ccedilla" unicode="&#xe7;" horiz-adv-x="581" 
d="M561 212q-5 -45 -19.5 -84.5t-41 -69t-65.5 -48.5t-93 -24l-10 -29q32 -5 52 -14.5t31 -22t15 -27t4 -29.5q0 -47 -41 -70.5t-113 -23.5q-14 0 -35 1.5t-54 6.5v87q24 -2 39 -3t26 -1q42 0 42 21q0 11 -11 16t-42 5h-34l34 86q-54 8 -93.5 31.5t-65.5 58.5t-38.5 81
t-12.5 100q0 135 70 209.5t201 74.5q64 0 109 -17t74.5 -46t45.5 -66.5t21 -77.5l-198 -17q-5 25 -15 39t-34 14q-30 0 -45 -25.5t-15 -82.5q0 -60 15.5 -85t45.5 -25q24 0 36 15t15 42h200z" />
    <glyph glyph-name="egrave" unicode="&#xe8;" horiz-adv-x="605" 
d="M567 174q-17 -97 -82.5 -143.5t-173.5 -46.5q-139 0 -207.5 72.5t-68.5 200.5q0 67 18.5 120.5t54 90.5t86 56.5t114.5 19.5q63 0 112 -19t82.5 -54.5t50.5 -86t17 -112.5v-54h-334q2 -50 21 -68.5t51 -18.5q51 0 63 43h196zM311 399q-32 0 -52 -18t-22 -57h139
q-2 42 -18.5 58.5t-46.5 16.5zM90 757h227l128 -173h-185z" />
    <glyph glyph-name="eacute" unicode="&#xe9;" horiz-adv-x="605" 
d="M567 174q-17 -97 -82.5 -143.5t-173.5 -46.5q-139 0 -207.5 72.5t-68.5 200.5q0 67 18.5 120.5t54 90.5t86 56.5t114.5 19.5q63 0 112 -19t82.5 -54.5t50.5 -86t17 -112.5v-54h-334q2 -50 21 -68.5t51 -18.5q51 0 63 43h196zM311 399q-32 0 -52 -18t-22 -57h139
q-2 42 -18.5 58.5t-46.5 16.5zM364 584h-185l128 173h227z" />
    <glyph glyph-name="ecircumflex" unicode="&#xea;" horiz-adv-x="605" 
d="M567 174q-17 -97 -82.5 -143.5t-173.5 -46.5q-139 0 -207.5 72.5t-68.5 200.5q0 67 18.5 120.5t54 90.5t86 56.5t114.5 19.5q63 0 112 -19t82.5 -54.5t50.5 -86t17 -112.5v-54h-334q2 -50 21 -68.5t51 -18.5q51 0 63 43h196zM311 399q-32 0 -52 -18t-22 -57h139
q-2 42 -18.5 58.5t-46.5 16.5zM214 752h186l131 -173h-170l-52 72l-51 -72h-175z" />
    <glyph glyph-name="edieresis" unicode="&#xeb;" horiz-adv-x="605" 
d="M567 174q-17 -97 -82.5 -143.5t-173.5 -46.5q-139 0 -207.5 72.5t-68.5 200.5q0 67 18.5 120.5t54 90.5t86 56.5t114.5 19.5q63 0 112 -19t82.5 -54.5t50.5 -86t17 -112.5v-54h-334q2 -50 21 -68.5t51 -18.5q51 0 63 43h196zM311 399q-32 0 -52 -18t-22 -57h139
q-2 42 -18.5 58.5t-46.5 16.5zM99 729h185v-140h-185v140zM335 729h184v-140h-184v140z" />
    <glyph glyph-name="igrave" unicode="&#xec;" horiz-adv-x="314" 
d="M50 528h214v-528h-214v528zM-81 757h227l128 -173h-185z" />
    <glyph glyph-name="iacute" unicode="&#xed;" horiz-adv-x="314" 
d="M50 528h214v-528h-214v528zM227 584h-185l128 173h227z" />
    <glyph glyph-name="icircumflex" unicode="&#xee;" horiz-adv-x="314" 
d="M50 528h214v-528h-214v528zM65 752h186l131 -173h-170l-52 72l-51 -72h-175z" />
    <glyph glyph-name="idieresis" unicode="&#xef;" horiz-adv-x="314" 
d="M50 528h214v-528h-214v528zM-52 729h185v-140h-185v140zM184 729h184v-140h-184v140z" />
    <glyph glyph-name="eth" unicode="&#xf0;" horiz-adv-x="631" 
d="M185 548l42 42q-20 5 -43.5 9t-51.5 6l27 149q110 -8 194 -39l75 75l52 -54l-56 -56q81 -51 124 -138.5t43 -218.5q0 -93 -21 -157.5t-59.5 -105t-91.5 -58.5t-117 -18q-59 0 -108 14.5t-84 44t-55 75t-20 107.5q0 60 18 106t48.5 77.5t71.5 48t87 16.5q42 0 73 -12
t54 -31q-7 42 -25.5 75t-57.5 56l-67 -67zM313 145q30 0 47.5 19.5t17.5 65.5t-17.5 65.5t-47.5 19.5t-47 -19.5t-17 -65.5q0 -45 17 -65t47 -20z" />
    <glyph glyph-name="ntilde" unicode="&#xf1;" horiz-adv-x="626" 
d="M50 528h208v-55q27 33 63.5 52t86.5 19q81 0 127 -49t46 -139v-356h-214v317q0 28 -11 40t-31 12q-17 0 -30.5 -6t-21.5 -18q-4 -6 -6.5 -14.5t-2.5 -23.5v-307h-214v528zM529 760q0 -93 -35 -135t-96 -42q-25 0 -43 6t-33 13t-28 13t-27 6q-18 0 -25.5 -11t-7.5 -31
h-127q0 93 35 135t96 42q25 0 43 -6t33 -13t28 -13t27 -6q18 0 25.5 11t7.5 31h127z" />
    <glyph glyph-name="ograve" unicode="&#xf2;" horiz-adv-x="627" 
d="M311 -16q-137 0 -206.5 73.5t-69.5 204.5q0 133 73 207.5t208 74.5q136 0 206 -73.5t70 -204.5q0 -133 -72.5 -207.5t-208.5 -74.5zM249 264q0 -32 4.5 -53t13.5 -33.5t21 -17.5t25 -5q14 0 26 5t21 17.5t13.5 33.5t4.5 53t-4.5 53t-13.5 33.5t-21 17.5t-26 5
q-13 0 -25 -5t-21 -17.5t-13.5 -33.5t-4.5 -53zM85 757h227l128 -173h-185z" />
    <glyph glyph-name="oacute" unicode="&#xf3;" horiz-adv-x="627" 
d="M311 -16q-137 0 -206.5 73.5t-69.5 204.5q0 133 73 207.5t208 74.5q136 0 206 -73.5t70 -204.5q0 -133 -72.5 -207.5t-208.5 -74.5zM249 264q0 -32 4.5 -53t13.5 -33.5t21 -17.5t25 -5q14 0 26 5t21 17.5t13.5 33.5t4.5 53t-4.5 53t-13.5 33.5t-21 17.5t-26 5
q-13 0 -25 -5t-21 -17.5t-13.5 -33.5t-4.5 -53zM373 584h-185l128 173h227z" />
    <glyph glyph-name="ocircumflex" unicode="&#xf4;" horiz-adv-x="627" 
d="M311 -16q-137 0 -206.5 73.5t-69.5 204.5q0 133 73 207.5t208 74.5q136 0 206 -73.5t70 -204.5q0 -133 -72.5 -207.5t-208.5 -74.5zM249 264q0 -32 4.5 -53t13.5 -33.5t21 -17.5t25 -5q14 0 26 5t21 17.5t13.5 33.5t4.5 53t-4.5 53t-13.5 33.5t-21 17.5t-26 5
q-13 0 -25 -5t-21 -17.5t-13.5 -33.5t-4.5 -53zM220 752h186l131 -173h-170l-52 72l-51 -72h-175z" />
    <glyph glyph-name="otilde" unicode="&#xf5;" horiz-adv-x="627" 
d="M311 -16q-137 0 -206.5 73.5t-69.5 204.5q0 133 73 207.5t208 74.5q136 0 206 -73.5t70 -204.5q0 -133 -72.5 -207.5t-208.5 -74.5zM249 264q0 -32 4.5 -53t13.5 -33.5t21 -17.5t25 -5q14 0 26 5t21 17.5t13.5 33.5t4.5 53t-4.5 53t-13.5 33.5t-21 17.5t-26 5
q-13 0 -25 -5t-21 -17.5t-13.5 -33.5t-4.5 -53zM524 760q0 -93 -35 -135t-96 -42q-25 0 -43 6t-33 13t-28 13t-27 6q-18 0 -25.5 -11t-7.5 -31h-127q0 93 35 135t96 42q25 0 43 -6t33 -13t28 -13t27 -6q18 0 25.5 11t7.5 31h127z" />
    <glyph glyph-name="odieresis" unicode="&#xf6;" horiz-adv-x="627" 
d="M311 -16q-137 0 -206.5 73.5t-69.5 204.5q0 133 73 207.5t208 74.5q136 0 206 -73.5t70 -204.5q0 -133 -72.5 -207.5t-208.5 -74.5zM249 264q0 -32 4.5 -53t13.5 -33.5t21 -17.5t25 -5q14 0 26 5t21 17.5t13.5 33.5t4.5 53t-4.5 53t-13.5 33.5t-21 17.5t-26 5
q-13 0 -25 -5t-21 -17.5t-13.5 -33.5t-4.5 -53zM103 729h185v-140h-185v140zM339 729h184v-140h-184v140z" />
    <glyph glyph-name="divide" unicode="&#xf7;" horiz-adv-x="592" 
d="M208 621h174v-144h-174v144zM44 433h503v-185h-503v185zM208 204h174v-144h-174v144z" />
    <glyph glyph-name="oslash" unicode="&#xf8;" horiz-adv-x="627" 
d="M311 -16q-68 0 -123 19l-53 -77l-78 54l51 74q-73 72 -73 208q0 133 73 207.5t208 74.5q67 0 118 -18l44 63l78 -54l-41 -58q38 -36 57.5 -89.5t19.5 -121.5q0 -133 -72.5 -207.5t-208.5 -74.5zM313 140q19 0 35 5.5t27.5 19.5t18 38t6.5 61q0 22 -3 42l-112 -163
q12 -3 28 -3zM227 264v-19t1 -17l109 157q-11 3 -24 3q-19 0 -35 -5.5t-27 -19.5t-17.5 -38t-6.5 -61z" />
    <glyph glyph-name="ugrave" unicode="&#xf9;" horiz-adv-x="621" 
d="M571 0h-208v55q-26 -32 -61.5 -51.5t-86.5 -19.5q-79 0 -124.5 49t-45.5 139v356h214v-320q0 -26 10.5 -37.5t29.5 -11.5q34 0 49 23q4 5 6.5 13.5t2.5 22.5v310h214v-528zM94 757h227l128 -173h-185z" />
    <glyph glyph-name="uacute" unicode="&#xfa;" horiz-adv-x="621" 
d="M571 0h-208v55q-26 -32 -61.5 -51.5t-86.5 -19.5q-79 0 -124.5 49t-45.5 139v356h214v-320q0 -26 10.5 -37.5t29.5 -11.5q34 0 49 23q4 5 6.5 13.5t2.5 22.5v310h214v-528zM366 584h-185l128 173h227z" />
    <glyph glyph-name="ucircumflex" unicode="&#xfb;" horiz-adv-x="621" 
d="M571 0h-208v55q-26 -32 -61.5 -51.5t-86.5 -19.5q-79 0 -124.5 49t-45.5 139v356h214v-320q0 -26 10.5 -37.5t29.5 -11.5q34 0 49 23q4 5 6.5 13.5t2.5 22.5v310h214v-528zM215 752h186l131 -173h-170l-52 72l-51 -72h-175z" />
    <glyph glyph-name="udieresis" unicode="&#xfc;" horiz-adv-x="621" 
d="M571 0h-208v55q-26 -32 -61.5 -51.5t-86.5 -19.5q-79 0 -124.5 49t-45.5 139v356h214v-320q0 -26 10.5 -37.5t29.5 -11.5q34 0 49 23q4 5 6.5 13.5t2.5 22.5v310h214v-528zM97 729h185v-140h-185v140zM333 729h184v-140h-184v140z" />
    <glyph glyph-name="yacute" unicode="&#xfd;" horiz-adv-x="616" 
d="M234 528l82 -254l73 254h217l-209 -519q-23 -57 -43.5 -95.5t-45 -62.5t-54.5 -34.5t-71 -10.5q-38 0 -73.5 7t-58.5 15l31 153q14 -3 30.5 -6t33.5 -3q23 0 40 11t30 48l8 23l-214 474h224zM358 584h-185l128 173h227z" />
    <glyph glyph-name="thorn" unicode="&#xfe;" horiz-adv-x="642" 
d="M264 714v-227q51 58 136 58q95 0 151 -70t56 -202q0 -69 -16 -123t-44.5 -90.5t-68 -55.5t-87.5 -19q-46 0 -77 16t-50 41v-236h-214v908h214zM265 257q0 -54 15 -79q15 -24 47 -24t49 25t17 85t-17 84.5t-49 24.5q-30 0 -46 -24q-9 -14 -12.5 -33t-3.5 -45v-14z" />
    <glyph glyph-name="ydieresis" unicode="&#xff;" horiz-adv-x="616" 
d="M234 528l82 -254l73 254h217l-209 -519q-23 -57 -43.5 -95.5t-45 -62.5t-54.5 -34.5t-71 -10.5q-38 0 -73.5 7t-58.5 15l31 153q14 -3 30.5 -6t33.5 -3q23 0 40 11t30 48l8 23l-214 474h224zM98 729h185v-140h-185v140zM334 729h184v-140h-184v140z" />
    <glyph glyph-name="Amacron" unicode="&#x100;" horiz-adv-x="782" 
d="M501 115h-226l-31 -115h-224l232 714h280l230 -714h-229zM323 292h130l-65 237zM219 928h344v-149h-344v149z" />
    <glyph glyph-name="amacron" unicode="&#x101;" horiz-adv-x="599" 
d="M361 0v50q-32 -32 -68.5 -48t-84.5 -16q-33 0 -65 9t-57 28.5t-40.5 49.5t-15.5 73q0 52 22.5 87.5t60.5 55.5q39 20 81.5 28t97.5 10l61 2v18q0 29 -12 42t-36 13q-23 0 -36 -11t-17 -33l-191 14q13 85 76 128.5t174 43.5q69 0 115.5 -16t75 -45t40.5 -70t12 -91v-322
h-193zM353 214l-55 -3q-37 -2 -54.5 -14.5t-17.5 -34.5q0 -19 12 -28.5t35 -9.5q35 0 57.5 21.5t22.5 56.5v12zM143 732h335v-148h-335v148z" />
    <glyph glyph-name="Abreve" unicode="&#x102;" horiz-adv-x="782" 
d="M501 115h-226l-31 -115h-224l232 714h280l230 -714h-229zM323 292h130l-65 237zM387 767q-92 0 -143 42.5t-51 125.5h149q0 -23 12 -35.5t37 -12.5t37 12.5t12 35.5h149q0 -43 -14.5 -74.5t-41.5 -52.5t-64 -31t-82 -10z" />
    <glyph glyph-name="abreve" unicode="&#x103;" horiz-adv-x="599" 
d="M361 0v50q-32 -32 -68.5 -48t-84.5 -16q-33 0 -65 9t-57 28.5t-40.5 49.5t-15.5 73q0 52 22.5 87.5t60.5 55.5q39 20 81.5 28t97.5 10l61 2v18q0 29 -12 42t-36 13q-23 0 -36 -11t-17 -33l-191 14q13 85 76 128.5t174 43.5q69 0 115.5 -16t75 -45t40.5 -70t12 -91v-322
h-193zM353 214l-55 -3q-37 -2 -54.5 -14.5t-17.5 -34.5q0 -19 12 -28.5t35 -9.5q35 0 57.5 21.5t22.5 56.5v12zM319 581q-91 0 -141.5 44t-50.5 132h146q0 -26 12 -41t37 -15t37 15t12 41h146q0 -45 -14.5 -78.5t-40.5 -55t-62.5 -32t-80.5 -10.5z" />
    <glyph glyph-name="Aogonek" unicode="&#x104;" horiz-adv-x="782" 
d="M501 115h-226l-31 -115h-224l232 714h280l230 -714h-5q-35 -17 -55 -32.5t-20 -36.5q0 -17 12.5 -22t27.5 -5q8 0 15 0.5t17 1.5v-114q-19 -3 -39 -5t-46 -2q-45 0 -74.5 7t-47 20t-24.5 30t-7 38q0 38 23 65.5t66 54.5h-72zM323 292h130l-65 237z" />
    <glyph glyph-name="aogonek" unicode="&#x105;" horiz-adv-x="599" 
d="M361 0v50q-32 -32 -68.5 -48t-84.5 -16q-33 0 -65 9t-57 28.5t-40.5 49.5t-15.5 73q0 52 22.5 87.5t60.5 55.5q39 20 81.5 28t97.5 10l61 2v18q0 29 -12 42t-36 13q-23 0 -36 -11t-17 -33l-191 14q13 85 76 128.5t174 43.5q69 0 115.5 -16t75 -45t40.5 -70t12 -91v-322
q-33 -17 -51.5 -32.5t-18.5 -36.5q0 -17 11.5 -22t25.5 -5q7 0 14 0.5t16 1.5v-114q-18 -3 -37.5 -5t-43.5 -2q-43 0 -71.5 7t-45 20t-23.5 30t-7 38q0 38 20.5 65.5t58.5 54.5h-41zM353 214l-55 -3q-37 -2 -54.5 -14.5t-17.5 -34.5q0 -19 12 -28.5t35 -9.5q35 0 57.5 21.5
t22.5 56.5v12z" />
    <glyph glyph-name="Cacute" unicode="&#x106;" horiz-adv-x="738" 
d="M718 273q-3 -62 -24 -115t-61.5 -92t-101 -61.5t-142.5 -22.5q-91 0 -157 27t-108.5 75.5t-63 116t-20.5 148.5t20.5 151t64 121.5t111 81t161.5 29.5q142 0 216 -67t94 -191l-226 -25q-4 19 -10.5 35t-17 28t-26.5 18.5t-39 6.5q-54 0 -81 -43t-27 -135q0 -57 9.5 -92.5
t25.5 -55.5t37 -27t43 -7q41 0 66 23.5t31 72.5h226zM469 772h-200l128 163h242z" />
    <glyph glyph-name="cacute" unicode="&#x107;" horiz-adv-x="581" 
d="M561 212q-5 -49 -22 -91t-47.5 -72.5t-76.5 -47.5t-110 -17q-69 0 -120 20.5t-84.5 57t-49.5 87.5t-16 111q0 135 72 209.5t199 74.5q64 0 110 -17t74.5 -46t44.5 -66.5t21 -77.5l-198 -17q-4 25 -15 39t-34 14q-30 0 -45 -25.5t-15 -82.5q0 -60 15.5 -85t45.5 -25
q24 0 36 15t15 42h200zM362 584h-185l128 173h227z" />
    <glyph glyph-name="Ccircumflex" unicode="&#x108;" horiz-adv-x="738" 
d="M718 273q-3 -62 -24 -115t-61.5 -92t-101 -61.5t-142.5 -22.5q-91 0 -157 27t-108.5 75.5t-63 116t-20.5 148.5t20.5 151t64 121.5t111 81t161.5 29.5q142 0 216 -67t94 -191l-226 -25q-4 19 -10.5 35t-17 28t-26.5 18.5t-39 6.5q-54 0 -81 -43t-27 -135q0 -57 9.5 -92.5
t25.5 -55.5t37 -27t43 -7q41 0 66 23.5t31 72.5h226zM483 935l131 -163h-178l-52 66l-51 -66h-183l131 163h202z" />
    <glyph glyph-name="ccircumflex" unicode="&#x109;" horiz-adv-x="581" 
d="M561 212q-5 -49 -22 -91t-47.5 -72.5t-76.5 -47.5t-110 -17q-69 0 -120 20.5t-84.5 57t-49.5 87.5t-16 111q0 135 72 209.5t199 74.5q64 0 110 -17t74.5 -46t44.5 -66.5t21 -77.5l-198 -17q-4 25 -15 39t-34 14q-30 0 -45 -25.5t-15 -82.5q0 -60 15.5 -85t45.5 -25
q24 0 36 15t15 42h200zM209 752h186l131 -173h-170l-52 72l-51 -72h-175z" />
    <glyph glyph-name="Cdotaccent" unicode="&#x10a;" horiz-adv-x="738" 
d="M718 273q-3 -62 -24 -115t-61.5 -92t-101 -61.5t-142.5 -22.5q-91 0 -157 27t-108.5 75.5t-63 116t-20.5 148.5t20.5 151t64 121.5t111 81t161.5 29.5q142 0 216 -67t94 -191l-226 -25q-4 19 -10.5 35t-17 28t-26.5 18.5t-39 6.5q-54 0 -81 -43t-27 -135q0 -57 9.5 -92.5
t25.5 -55.5t37 -27t43 -7q41 0 66 23.5t31 72.5h226zM276 928h220v-156h-220v156z" />
    <glyph glyph-name="cdotaccent" unicode="&#x10b;" horiz-adv-x="581" 
d="M561 212q-5 -49 -22 -91t-47.5 -72.5t-76.5 -47.5t-110 -17q-69 0 -120 20.5t-84.5 57t-49.5 87.5t-16 111q0 135 72 209.5t199 74.5q64 0 110 -17t74.5 -46t44.5 -66.5t21 -77.5l-198 -17q-4 25 -15 39t-34 14q-30 0 -45 -25.5t-15 -82.5q0 -60 15.5 -85t45.5 -25
q24 0 36 15t15 42h200zM198 729h214v-140h-214v140z" />
    <glyph glyph-name="Ccaron" unicode="&#x10c;" horiz-adv-x="738" 
d="M718 273q-3 -62 -24 -115t-61.5 -92t-101 -61.5t-142.5 -22.5q-91 0 -157 27t-108.5 75.5t-63 116t-20.5 148.5t20.5 151t64 121.5t111 81t161.5 29.5q142 0 216 -67t94 -191l-226 -25q-4 19 -10.5 35t-17 28t-26.5 18.5t-39 6.5q-54 0 -81 -43t-27 -135q0 -57 9.5 -92.5
t25.5 -55.5t37 -27t43 -7q41 0 66 23.5t31 72.5h226zM286 772l-131 163h178l51 -66l52 66h183l-131 -163h-202z" />
    <glyph glyph-name="ccaron" unicode="&#x10d;" horiz-adv-x="581" 
d="M561 212q-5 -49 -22 -91t-47.5 -72.5t-76.5 -47.5t-110 -17q-69 0 -120 20.5t-84.5 57t-49.5 87.5t-16 111q0 135 72 209.5t199 74.5q64 0 110 -17t74.5 -46t44.5 -66.5t21 -77.5l-198 -17q-4 25 -15 39t-34 14q-30 0 -45 -25.5t-15 -82.5q0 -60 15.5 -85t45.5 -25
q24 0 36 15t15 42h200zM209 584l-131 173h175l51 -73l52 73h180l-131 -173h-196z" />
    <glyph glyph-name="Dcaron" unicode="&#x10e;" horiz-adv-x="760" 
d="M282 190h79q69 0 101.5 43t32.5 126q1 78 -30 121t-104 44h-79v-334zM60 0v714h293q187 -1 279.5 -91t92.5 -261q-1 -176 -96 -269t-276 -93h-293zM226 772l-131 163h178l51 -66l52 66h183l-131 -163h-202z" />
    <glyph glyph-name="dcaron" unicode="&#x10f;" horiz-adv-x="641" 
d="M386 0v52q-52 -68 -144 -68q-96 0 -151.5 69.5t-55.5 202.5q0 69 16 123.5t44.5 91t68 55t87.5 18.5q44 0 76.5 -16t50.5 -41v227h214v-714h-206zM377 272q0 54 -15 79q-15 24 -47 24t-49 -25.5t-17 -83.5t17 -84t49 -26q30 0 46 24q9 14 12.5 33t3.5 45v14zM686 714h197
l-72 -295h-159z" />
    <glyph glyph-name="Dcroat" unicode="&#x110;" horiz-adv-x="796" 
d="M91 0v269h-81v176h81v269h293q185 0 278.5 -90.5t93.5 -261.5q0 -175 -95 -268.5t-277 -93.5h-293zM305 184h87q69 0 101.5 44.5t32.5 129.5q0 81 -31.5 125.5t-102.5 44.5h-87v-83h98v-176h-98v-85z" />
    <glyph glyph-name="dcroat" unicode="&#x111;" horiz-adv-x="642" 
d="M386 0v52q-52 -68 -144 -68q-95 0 -151 65.5t-56 187.5q0 64 16 114t44.5 84t68 51.5t87.5 17.5q46 0 77 -16t50 -41v99h-139v113h139v55h214v-55h63v-113h-63v-546h-206zM377 251q0 18 -3 34t-10 27q-15 26 -49 26q-32 0 -49 -23.5t-17 -68.5t17 -69t49 -24q33 0 50 29
q12 21 12 57v12z" />
    <glyph glyph-name="Emacron" unicode="&#x112;" horiz-adv-x="636" 
d="M60 714h531v-175h-308v-91h288v-175h-288v-98h328l-17 -175h-534v714zM157 928h344v-149h-344v149z" />
    <glyph glyph-name="emacron" unicode="&#x113;" horiz-adv-x="605" 
d="M567 174q-17 -97 -82.5 -143.5t-173.5 -46.5q-139 0 -207.5 72.5t-68.5 200.5q0 67 18.5 120.5t54 90.5t86 56.5t114.5 19.5q63 0 112 -19t82.5 -54.5t50.5 -86t17 -112.5v-54h-334q2 -50 21 -68.5t51 -18.5q51 0 63 43h196zM311 399q-32 0 -52 -18t-22 -57h139
q-2 42 -18.5 58.5t-46.5 16.5zM143 732h335v-148h-335v148z" />
    <glyph glyph-name="Ebreve" unicode="&#x114;" horiz-adv-x="636" 
d="M60 714h531v-175h-308v-91h288v-175h-288v-98h328l-17 -175h-534v714zM325 767q-92 0 -143 42.5t-51 125.5h149q0 -23 12 -35.5t37 -12.5t37 12.5t12 35.5h149q0 -43 -14.5 -74.5t-41.5 -52.5t-64 -31t-82 -10z" />
    <glyph glyph-name="ebreve" unicode="&#x115;" horiz-adv-x="605" 
d="M567 174q-17 -97 -82.5 -143.5t-173.5 -46.5q-139 0 -207.5 72.5t-68.5 200.5q0 67 18.5 120.5t54 90.5t86 56.5t114.5 19.5q63 0 112 -19t82.5 -54.5t50.5 -86t17 -112.5v-54h-334q2 -50 21 -68.5t51 -18.5q51 0 63 43h196zM311 399q-32 0 -52 -18t-22 -57h139
q-2 42 -18.5 58.5t-46.5 16.5zM309 581q-91 0 -141.5 44t-50.5 132h146q0 -26 12 -41t37 -15t37 15t12 41h146q0 -45 -14.5 -78.5t-40.5 -55t-62.5 -32t-80.5 -10.5z" />
    <glyph glyph-name="Edotaccent" unicode="&#x116;" horiz-adv-x="636" 
d="M60 714h531v-175h-308v-91h288v-175h-288v-98h328l-17 -175h-534v714zM220 928h220v-156h-220v156z" />
    <glyph glyph-name="edotaccent" unicode="&#x117;" horiz-adv-x="605" 
d="M567 174q-17 -97 -82.5 -143.5t-173.5 -46.5q-139 0 -207.5 72.5t-68.5 200.5q0 67 18.5 120.5t54 90.5t86 56.5t114.5 19.5q63 0 112 -19t82.5 -54.5t50.5 -86t17 -112.5v-54h-334q2 -50 21 -68.5t51 -18.5q51 0 63 43h196zM311 399q-32 0 -52 -18t-22 -57h139
q-2 42 -18.5 58.5t-46.5 16.5zM203 729h214v-140h-214v140z" />
    <glyph glyph-name="Eogonek" unicode="&#x118;" horiz-adv-x="636" 
d="M60 714h531v-175h-308v-91h288v-175h-288v-98h328l-17 -175q-35 -17 -55 -32.5t-20 -36.5q0 -17 12.5 -22t27.5 -5q8 0 15 0.5t17 1.5v-114q-19 -3 -39 -5t-46 -2q-45 0 -74.5 7t-47 20t-24.5 30t-7 38q0 38 23 65.5t66 54.5h-382v714z" />
    <glyph glyph-name="eogonek" unicode="&#x119;" horiz-adv-x="605" 
d="M567 174q-13 -73 -54 -117.5t-107 -61.5q-38 -26 -38 -60q0 -20 11.5 -25.5t25.5 -5.5q7 0 14 0.5t16 1.5v-114q-18 -3 -37.5 -5t-43.5 -2q-43 0 -71.5 7t-45 19.5t-23.5 29.5t-7 37q0 35 16.5 59.5t48.5 48.5q-120 10 -178.5 81t-58.5 190q0 67 18.5 120.5t54 90.5
t86 56.5t114.5 19.5q63 0 112 -19t82.5 -54.5t50.5 -86t17 -112.5v-54h-334q2 -52 22 -69.5t50 -17.5q51 0 63 43h196zM311 399q-32 0 -52 -17t-22 -58h139q-2 42 -18.5 58.5t-46.5 16.5z" />
    <glyph glyph-name="Ecaron" unicode="&#x11a;" horiz-adv-x="636" 
d="M60 714h531v-175h-308v-91h288v-175h-288v-98h328l-17 -175h-534v714zM230 772l-131 163h178l51 -66l52 66h183l-131 -163h-202z" />
    <glyph glyph-name="ecaron" unicode="&#x11b;" horiz-adv-x="605" 
d="M567 174q-17 -97 -82.5 -143.5t-173.5 -46.5q-139 0 -207.5 72.5t-68.5 200.5q0 67 18.5 120.5t54 90.5t86 56.5t114.5 19.5q63 0 112 -19t82.5 -54.5t50.5 -86t17 -112.5v-54h-334q2 -50 21 -68.5t51 -18.5q51 0 63 43h196zM311 399q-32 0 -52 -18t-22 -57h139
q-2 42 -18.5 58.5t-46.5 16.5zM213 584l-131 173h175l51 -73l52 73h180l-131 -173h-196z" />
    <glyph glyph-name="Gcircumflex" unicode="&#x11c;" horiz-adv-x="770" 
d="M415 418h305v-340q-25 -19 -57.5 -36t-72 -30.5t-85.5 -21.5t-98 -8q-93 0 -162 26t-114.5 74.5t-68 117t-22.5 153.5q0 88 23.5 158.5t69.5 119.5t112.5 75t152.5 26q75 0 131.5 -19.5t95 -52.5t60.5 -77t29 -93l-228 -19q-9 39 -30.5 55t-59.5 16q-65 0 -94 -43
t-29 -139q0 -100 33.5 -144t113.5 -44q53 0 91 16v57h-96v173zM493 935l131 -163h-178l-52 66l-51 -66h-183l131 163h202z" />
    <glyph glyph-name="gcircumflex" unicode="&#x11d;" horiz-adv-x="642" 
d="M260 -9q4 -24 16.5 -35.5t38.5 -11.5q34 0 48.5 22.5t14.5 84.5v39q-21 -27 -54 -44.5t-84 -17.5q-98 0 -151.5 65t-53.5 189q0 63 16 113t44.5 83t67.5 49.5t85 16.5q48 0 80 -16.5t57 -45.5v46h207v-470q0 -133 -70.5 -198t-206.5 -65q-123 0 -187.5 50.5t-72.5 145.5
h205zM377 293q0 18 -3.5 33t-11.5 26q-9 13 -21 18t-26 5q-32 0 -49 -22.5t-17 -64.5q0 -44 17 -65.5t49 -21.5q16 0 28.5 6t21.5 20q8 13 10 26t2 28v12zM236 752h186l131 -173h-170l-52 72l-51 -72h-175z" />
    <glyph glyph-name="Gbreve" unicode="&#x11e;" horiz-adv-x="770" 
d="M415 418h305v-340q-25 -19 -57.5 -36t-72 -30.5t-85.5 -21.5t-98 -8q-93 0 -162 26t-114.5 74.5t-68 117t-22.5 153.5q0 88 23.5 158.5t69.5 119.5t112.5 75t152.5 26q75 0 131.5 -19.5t95 -52.5t60.5 -77t29 -93l-228 -19q-9 39 -30.5 55t-59.5 16q-65 0 -94 -43
t-29 -139q0 -100 33.5 -144t113.5 -44q53 0 91 16v57h-96v173zM393 767q-92 0 -143 42.5t-51 125.5h149q0 -23 12 -35.5t37 -12.5t37 12.5t12 35.5h149q0 -43 -14.5 -74.5t-41.5 -52.5t-64 -31t-82 -10z" />
    <glyph glyph-name="gbreve" unicode="&#x11f;" horiz-adv-x="642" 
d="M260 -9q4 -24 16.5 -35.5t38.5 -11.5q34 0 48.5 22.5t14.5 84.5v39q-21 -27 -54 -44.5t-84 -17.5q-98 0 -151.5 65t-53.5 189q0 63 16 113t44.5 83t67.5 49.5t85 16.5q48 0 80 -16.5t57 -45.5v46h207v-470q0 -133 -70.5 -198t-206.5 -65q-123 0 -187.5 50.5t-72.5 145.5
h205zM377 293q0 18 -3.5 33t-11.5 26q-9 13 -21 18t-26 5q-32 0 -49 -22.5t-17 -64.5q0 -44 17 -65.5t49 -21.5q16 0 28.5 6t21.5 20q8 13 10 26t2 28v12zM327 581q-91 0 -141.5 44t-50.5 132h146q0 -26 12 -41t37 -15t37 15t12 41h146q0 -45 -14.5 -78.5t-40.5 -55
t-62.5 -32t-80.5 -10.5z" />
    <glyph glyph-name="Gdotaccent" unicode="&#x120;" horiz-adv-x="770" 
d="M415 418h305v-340q-25 -19 -57.5 -36t-72 -30.5t-85.5 -21.5t-98 -8q-93 0 -162 26t-114.5 74.5t-68 117t-22.5 153.5q0 88 23.5 158.5t69.5 119.5t112.5 75t152.5 26q75 0 131.5 -19.5t95 -52.5t60.5 -77t29 -93l-228 -19q-9 39 -30.5 55t-59.5 16q-65 0 -94 -43
t-29 -139q0 -100 33.5 -144t113.5 -44q53 0 91 16v57h-96v173zM286 928h220v-156h-220v156z" />
    <glyph glyph-name="gdotaccent" unicode="&#x121;" horiz-adv-x="642" 
d="M260 -9q4 -24 16.5 -35.5t38.5 -11.5q34 0 48.5 22.5t14.5 84.5v39q-21 -27 -54 -44.5t-84 -17.5q-98 0 -151.5 65t-53.5 189q0 63 16 113t44.5 83t67.5 49.5t85 16.5q48 0 80 -16.5t57 -45.5v46h207v-470q0 -133 -70.5 -198t-206.5 -65q-123 0 -187.5 50.5t-72.5 145.5
h205zM377 293q0 18 -3.5 33t-11.5 26q-9 13 -21 18t-26 5q-32 0 -49 -22.5t-17 -64.5q0 -44 17 -65.5t49 -21.5q16 0 28.5 6t21.5 20q8 13 10 26t2 28v12zM214 729h214v-140h-214v140z" />
    <glyph glyph-name="Gcommaaccent" unicode="&#x122;" horiz-adv-x="770" 
d="M415 418h305v-340q-25 -19 -57.5 -36t-72 -30.5t-85.5 -21.5t-98 -8q-93 0 -162 26t-114.5 74.5t-68 117t-22.5 153.5q0 88 23.5 158.5t69.5 119.5t112.5 75t152.5 26q75 0 131.5 -19.5t95 -52.5t60.5 -77t29 -93l-228 -19q-9 39 -30.5 55t-59.5 16q-65 0 -94 -43
t-29 -139q0 -100 33.5 -144t113.5 -44q53 0 91 16v57h-96v173zM294 -66h228l-129 -177h-187z" />
    <glyph glyph-name="gcommaaccent" unicode="&#x123;" horiz-adv-x="642" 
d="M260 -9q4 -24 16.5 -35.5t38.5 -11.5q34 0 48.5 22.5t14.5 84.5v39q-21 -27 -54 -44.5t-84 -17.5q-98 0 -151.5 65t-53.5 189q0 63 16 113t44.5 83t67.5 49.5t85 16.5q48 0 80 -16.5t57 -45.5v46h207v-470q0 -133 -70.5 -198t-206.5 -65q-123 0 -187.5 50.5t-72.5 145.5
h205zM377 293q0 18 -3.5 33t-11.5 26q-9 13 -21 18t-26 5q-32 0 -49 -22.5t-17 -64.5q0 -44 17 -65.5t49 -21.5q16 0 28.5 6t21.5 20q8 13 10 26t2 28v12zM415 584h-233l127 173h192z" />
    <glyph glyph-name="Hcircumflex" unicode="&#x124;" horiz-adv-x="764" 
d="M60 714h227v-246h190v246h227v-714h-227v268h-190v-268h-227v714zM483 935l131 -163h-178l-52 66l-51 -66h-183l131 163h202z" />
    <glyph glyph-name="hcircumflex" unicode="&#x125;" horiz-adv-x="626" 
d="M50 714h214v-234q26 29 60 46.5t83 17.5q81 0 127.5 -48.5t46.5 -139.5v-356h-214v317q0 27 -11 39.5t-31 12.5q-17 0 -30.5 -6t-21.5 -18q-4 -6 -6.5 -14.5t-2.5 -23.5v-307h-214v714zM391 935l131 -163h-178l-52 66l-51 -66h-183l131 163h202z" />
    <glyph glyph-name="Hbar" unicode="&#x126;" horiz-adv-x="826" 
d="M91 513h-81v137h81v64h227v-64h190v64h227v-64h81v-137h-81v-513h-227v233h-190v-233h-227v513zM508 424v89h-190v-89h190z" />
    <glyph glyph-name="hbar" unicode="&#x127;" horiz-adv-x="626" 
d="M264 546v-106q26 29 60.5 46.5t82.5 17.5q81 0 127.5 -48t46.5 -140v-316h-214v277q0 28 -11 40t-31 12q-17 0 -30.5 -6t-21.5 -18q-4 -6 -6.5 -14.5t-2.5 -23.5v-267h-214v546h-63v113h63v55h214v-55h139v-113h-139z" />
    <glyph glyph-name="Itilde" unicode="&#x128;" horiz-adv-x="347" 
d="M60 714h227v-714h-227v714zM391 946q0 -91 -35.5 -134t-99.5 -43q-26 0 -44.5 6t-34 13t-28.5 13t-28 6q-18 0 -26 -11t-8 -31h-130q0 91 35.5 134t100.5 43q25 0 44 -6t34 -13t28.5 -13t27.5 -6q19 0 26.5 11t7.5 31h130z" />
    <glyph glyph-name="itilde" unicode="&#x129;" horiz-adv-x="314" 
d="M50 528h214v-528h-214v528zM369 760q0 -93 -35 -135t-96 -42q-25 0 -43 6t-33 13t-28 13t-27 6q-18 0 -25.5 -11t-7.5 -31h-127q0 93 35 135t96 42q25 0 43 -6t33 -13t28 -13t27 -6q18 0 25.5 11t7.5 31h127z" />
    <glyph glyph-name="Imacron" unicode="&#x12a;" horiz-adv-x="347" 
d="M60 714h227v-714h-227v714zM2 928h344v-149h-344v149z" />
    <glyph glyph-name="imacron" unicode="&#x12b;" horiz-adv-x="314" 
d="M50 528h214v-528h-214v528zM-9 732h335v-148h-335v148z" />
    <glyph glyph-name="Ibreve" unicode="&#x12c;" horiz-adv-x="347" 
d="M60 714h227v-714h-227v714zM170 767q-92 0 -143 42.5t-51 125.5h149q0 -23 12 -35.5t37 -12.5t37 12.5t12 35.5h149q0 -43 -14.5 -74.5t-41.5 -52.5t-64 -31t-82 -10z" />
    <glyph glyph-name="ibreve" unicode="&#x12d;" horiz-adv-x="314" 
d="M50 528h214v-528h-214v528zM155 581q-91 0 -141.5 44t-50.5 132h146q0 -26 12 -41t37 -15t37 15t12 41h146q0 -45 -14.5 -78.5t-40.5 -55t-62.5 -32t-80.5 -10.5z" />
    <glyph glyph-name="Iogonek" unicode="&#x12e;" horiz-adv-x="347" 
d="M60 714h227v-714q-35 -17 -55 -32.5t-20 -36.5q0 -17 12.5 -22t27.5 -5q8 0 15 0.5t17 1.5v-114q-19 -3 -39 -5t-46 -2q-45 0 -74.5 7t-47 20t-24.5 30t-7 38q0 38 23 65.5t66 54.5h-75v714z" />
    <glyph glyph-name="iogonek" unicode="&#x12f;" horiz-adv-x="314" 
d="M50 528h214v-528q-33 -17 -51.5 -32.5t-18.5 -36.5q0 -17 11.5 -22t25.5 -5q7 0 14 0.5t16 1.5v-114q-18 -3 -37.5 -5t-43.5 -2q-43 0 -71.5 7t-45 20t-23.5 30t-7 38q0 38 20.5 65.5t58.5 54.5h-62v528zM50 714h214v-135h-214v135z" />
    <glyph glyph-name="Idotaccent" unicode="&#x130;" horiz-adv-x="347" 
d="M60 714h227v-714h-227v714zM64 928h220v-156h-220v156z" />
    <glyph glyph-name="dotlessi" unicode="&#x131;" horiz-adv-x="314" 
d="M50 528h214v-528h-214v528z" />
    <glyph glyph-name="IJ" unicode="&#x132;" horiz-adv-x="1034" 
d="M60 714h227v-714h-227v714zM598 282q2 -50 20.5 -77.5t58.5 -27.5t57.5 24t17.5 66v447h227v-437q0 -146 -80.5 -220.5t-221.5 -74.5q-149 0 -225 77t-80 223h226z" />
    <glyph glyph-name="ij" unicode="&#x133;" horiz-adv-x="633" 
d="M50 528h214v-528h-214v528zM50 714h214v-135h-214v135zM369 714h214v-135h-214v135zM275 -20q12 -2 24 -3.5t21 -1.5q25 0 37 13t12 41v499h214v-509q0 -103 -49 -153t-147 -50q-36 0 -73 6t-67 14z" />
    <glyph glyph-name="Jcircumflex" unicode="&#x134;" horiz-adv-x="687" 
d="M251 282q2 -50 20.5 -77.5t58.5 -27.5t57.5 24t17.5 66v447h227v-437q0 -146 -80.5 -220.5t-221.5 -74.5q-149 0 -225 77t-80 223h226zM618 935l131 -163h-178l-52 66l-51 -66h-183l131 163h202z" />
    <glyph glyph-name="jcircumflex" unicode="&#x135;" horiz-adv-x="319" 
d="M-39 -20q12 -2 24 -3.5t21 -1.5q23 0 36 12t13 42v494h214v-504q0 -104 -49 -153.5t-147 -49.5q-36 0 -72 6t-68 14zM66 752h186l131 -173h-170l-52 72l-51 -72h-175z" />
    <glyph glyph-name="Kcommaaccent" unicode="&#x136;" horiz-adv-x="749" 
d="M344 282l-57 -69v-213h-227v714h227v-237l188 237h238l-222 -266l248 -448h-247zM270 -66h228l-129 -177h-187z" />
    <glyph glyph-name="kcommaaccent" unicode="&#x137;" horiz-adv-x="646" 
d="M302 221l-48 -47v-174h-204v714h204v-328l135 142h237l-181 -176l196 -352h-224zM219 -66h233l-129 -177h-192z" />
    <glyph glyph-name="kgreenlandic" unicode="&#x138;" horiz-adv-x="646" 
d="M308 206l-54 -57v-149h-204v528h204v-155l143 155h229l-183 -190l198 -338h-224z" />
    <glyph glyph-name="Lacute" unicode="&#x139;" horiz-adv-x="606" 
d="M60 714h227v-519h299l-19 -195h-507v714zM264 772h-200l128 163h242z" />
    <glyph glyph-name="lacute" unicode="&#x13a;" horiz-adv-x="314" 
d="M50 714h214v-714h-214v714zM237 766h-200l128 163h242z" />
    <glyph glyph-name="Lcommaaccent" unicode="&#x13b;" horiz-adv-x="606" 
d="M60 714h227v-519h299l-19 -195h-507v714zM209 -66h228l-129 -177h-187z" />
    <glyph glyph-name="lcommaaccent" unicode="&#x13c;" horiz-adv-x="314" 
d="M50 714h214v-714h-214v714zM43 -66h233l-129 -177h-192z" />
    <glyph glyph-name="Lcaron" unicode="&#x13d;" horiz-adv-x="616" 
d="M60 714h227v-519h299l-19 -195h-507v714zM396 714h197l-72 -295h-159z" />
    <glyph glyph-name="lcaron" unicode="&#x13e;" horiz-adv-x="312" 
d="M50 714h214v-714h-214v714zM357 714h197l-72 -295h-159z" />
    <glyph glyph-name="Ldot" unicode="&#x13f;" horiz-adv-x="616" 
d="M60 714h227v-519h299l-19 -195h-507v714zM371 554h199v-215h-199v215z" />
    <glyph glyph-name="ldot" unicode="&#x140;" horiz-adv-x="555" 
d="M50 714h214v-714h-214v714zM335 481h199v-215h-199v215z" />
    <glyph glyph-name="Lslash" unicode="&#x141;" horiz-adv-x="636" 
d="M90 191l-80 -47v195l80 47v328h227v-194l141 83v-195l-141 -83v-130h299l-19 -195h-507v191z" />
    <glyph glyph-name="lslash" unicode="&#x142;" horiz-adv-x="424" 
d="M105 243l-90 -46v173l90 45v299h214v-192l90 46v-170l-90 -46v-352h-214v243z" />
    <glyph glyph-name="Nacute" unicode="&#x143;" horiz-adv-x="755" 
d="M60 714h195l228 -361v361h212v-714h-193l-230 363v-363h-212v714zM439 772h-200l128 163h242z" />
    <glyph glyph-name="nacute" unicode="&#x144;" horiz-adv-x="626" 
d="M50 528h208v-55q27 33 63.5 52t86.5 19q81 0 127 -49t46 -139v-356h-214v317q0 28 -11 40t-31 12q-17 0 -30.5 -6t-21.5 -18q-4 -6 -6.5 -14.5t-2.5 -23.5v-307h-214v528zM355 584h-185l128 173h227z" />
    <glyph glyph-name="Ncommaaccent" unicode="&#x145;" horiz-adv-x="755" 
d="M60 714h195l228 -361v361h212v-714h-193l-230 363v-363h-212v714zM285 -66h228l-129 -177h-187z" />
    <glyph glyph-name="ncommaaccent" unicode="&#x146;" horiz-adv-x="626" 
d="M50 528h208v-55q27 33 63.5 52t86.5 19q81 0 127 -49t46 -139v-356h-214v317q0 28 -11 40t-31 12q-17 0 -30.5 -6t-21.5 -18q-4 -6 -6.5 -14.5t-2.5 -23.5v-307h-214v528zM209 -66h233l-129 -177h-192z" />
    <glyph glyph-name="Ncaron" unicode="&#x147;" horiz-adv-x="755" 
d="M60 714h195l228 -361v361h212v-714h-193l-230 363v-363h-212v714zM272 772l-131 163h178l51 -66l52 66h183l-131 -163h-202z" />
    <glyph glyph-name="ncaron" unicode="&#x148;" horiz-adv-x="626" 
d="M50 528h208v-55q27 33 63.5 52t86.5 19q81 0 127 -49t46 -139v-356h-214v317q0 28 -11 40t-31 12q-17 0 -30.5 -6t-21.5 -18q-4 -6 -6.5 -14.5t-2.5 -23.5v-307h-214v528zM218 584l-131 173h175l51 -73l52 73h180l-131 -173h-196z" />
    <glyph glyph-name="napostrophe" unicode="&#x149;" horiz-adv-x="831" 
d="M255 528h208v-55q27 33 63.5 52t86.5 19q81 0 127 -49t46 -139v-356h-214v317q0 28 -11 40t-31 12q-17 0 -30.5 -6t-21.5 -18q-4 -6 -6.5 -14.5t-2.5 -23.5v-307h-214v528zM47 714h202l-74 -305h-164z" />
    <glyph glyph-name="Eng" unicode="&#x14a;" horiz-adv-x="755" 
d="M60 714h195l228 -357v357h212v-679q0 -71 -14.5 -118.5t-43.5 -76.5t-72 -41.5t-99 -12.5q-45 0 -89 7t-75 17l40 165q17 -4 36 -6.5t36 -2.5q38 0 54.5 14t18.5 43l-215 336v-359h-212v714z" />
    <glyph glyph-name="eng" unicode="&#x14b;" horiz-adv-x="626" 
d="M50 528h208v-55q27 32 62.5 51.5t87.5 19.5q81 0 127 -48t46 -140v-337q0 -104 -45 -153.5t-136 -49.5q-34 0 -67.5 6t-62.5 14l28 144q20 -5 32 -5q17 0 27 12t10 42v288q0 29 -11.5 40.5t-31.5 11.5q-16 0 -29.5 -6t-21.5 -18q-4 -6 -6.5 -14.5t-2.5 -23.5v-307h-214
v528z" />
    <glyph glyph-name="Omacron" unicode="&#x14c;" horiz-adv-x="800" 
d="M397 -18q-87 0 -153.5 25.5t-112 73.5t-68.5 117t-23 156t23 156.5t69 119t114 76t157 26.5q87 0 153.5 -25.5t112 -73.5t68.5 -116.5t23 -155.5t-23.5 -157.5t-69 -119.5t-113.5 -75.5t-157 -26.5zM400 177q125 0 125 180t-125 180t-125 -180t125 -180zM228 928h344
v-149h-344v149z" />
    <glyph glyph-name="omacron" unicode="&#x14d;" horiz-adv-x="627" 
d="M311 -16q-137 0 -206.5 73.5t-69.5 204.5q0 133 73 207.5t208 74.5q136 0 206 -73.5t70 -204.5q0 -133 -72.5 -207.5t-208.5 -74.5zM249 264q0 -32 4.5 -53t13.5 -33.5t21 -17.5t25 -5q14 0 26 5t21 17.5t13.5 33.5t4.5 53t-4.5 53t-13.5 33.5t-21 17.5t-26 5
q-13 0 -25 -5t-21 -17.5t-13.5 -33.5t-4.5 -53zM146 732h335v-148h-335v148z" />
    <glyph glyph-name="Obreve" unicode="&#x14e;" horiz-adv-x="800" 
d="M397 -18q-87 0 -153.5 25.5t-112 73.5t-68.5 117t-23 156t23 156.5t69 119t114 76t157 26.5q87 0 153.5 -25.5t112 -73.5t68.5 -116.5t23 -155.5t-23.5 -157.5t-69 -119.5t-113.5 -75.5t-157 -26.5zM400 177q125 0 125 180t-125 180t-125 -180t125 -180zM396 767
q-92 0 -143 42.5t-51 125.5h149q0 -23 12 -35.5t37 -12.5t37 12.5t12 35.5h149q0 -43 -14.5 -74.5t-41.5 -52.5t-64 -31t-82 -10z" />
    <glyph glyph-name="obreve" unicode="&#x14f;" horiz-adv-x="627" 
d="M311 -16q-137 0 -206.5 73.5t-69.5 204.5q0 133 73 207.5t208 74.5q136 0 206 -73.5t70 -204.5q0 -133 -72.5 -207.5t-208.5 -74.5zM249 264q0 -32 4.5 -53t13.5 -33.5t21 -17.5t25 -5q14 0 26 5t21 17.5t13.5 33.5t4.5 53t-4.5 53t-13.5 33.5t-21 17.5t-26 5
q-13 0 -25 -5t-21 -17.5t-13.5 -33.5t-4.5 -53zM310 581q-91 0 -141.5 44t-50.5 132h146q0 -26 12 -41t37 -15t37 15t12 41h146q0 -45 -14.5 -78.5t-40.5 -55t-62.5 -32t-80.5 -10.5z" />
    <glyph glyph-name="Ohungarumlaut" unicode="&#x150;" horiz-adv-x="800" 
d="M397 -18q-87 0 -153.5 25.5t-112 73.5t-68.5 117t-23 156t23 156.5t69 119t114 76t157 26.5q87 0 153.5 -25.5t112 -73.5t68.5 -116.5t23 -155.5t-23.5 -157.5t-69 -119.5t-113.5 -75.5t-157 -26.5zM400 177q125 0 125 180t-125 180t-125 -180t125 -180zM303 935h196
l-146 -163h-163zM547 935h196l-146 -163h-163z" />
    <glyph glyph-name="ohungarumlaut" unicode="&#x151;" horiz-adv-x="627" 
d="M311 -16q-137 0 -206.5 73.5t-69.5 204.5q0 133 73 207.5t208 74.5q136 0 206 -73.5t70 -204.5q0 -133 -72.5 -207.5t-208.5 -74.5zM249 264q0 -32 4.5 -53t13.5 -33.5t21 -17.5t25 -5q14 0 26 5t21 17.5t13.5 33.5t4.5 53t-4.5 53t-13.5 33.5t-21 17.5t-26 5
q-13 0 -25 -5t-21 -17.5t-13.5 -33.5t-4.5 -53zM218 757h191l-146 -173h-158zM457 757h191l-146 -173h-158z" />
    <glyph glyph-name="OE" unicode="&#x152;" horiz-adv-x="1056" 
d="M505 0v37q-63 -55 -161 -55q-70 0 -126.5 27t-95.5 75.5t-60.5 117t-21.5 152.5q0 83 21.5 152.5t61 119.5t96.5 78t129 28q96 0 157 -52v34h506v-175h-283v-91h263v-175h-263v-98h303l-17 -175h-509zM395 177q57 0 83.5 44t26.5 124v38q0 68 -27 111t-83 43
q-57 0 -88.5 -44.5t-31.5 -135.5q0 -90 31.5 -135t88.5 -45z" />
    <glyph glyph-name="oe" unicode="&#x153;" horiz-adv-x="932" 
d="M894 174q-16 -96 -81 -143t-167 -47q-60 0 -103 15t-72 44q-61 -59 -172 -59q-63 0 -112.5 19t-83 55t-51 87.5t-17.5 116.5q0 133 71 207.5t198 74.5q112 0 172 -62q62 62 168 62q60 0 107 -19t79.5 -54.5t49.5 -86t17 -112.5v-54h-323q2 -49 19 -68t47 -19q47 0 58 43
h196zM310 155q13 0 24.5 5t20 17.5t13 33.5t4.5 53t-4.5 53t-13 33.5t-20 17.5t-24.5 5q-14 0 -25 -5t-19 -17.5t-12.5 -33.5t-4.5 -53t4.5 -53t12.5 -33.5t19 -17.5t25 -5zM643 399q-29 0 -47.5 -17.5t-20.5 -57.5h128q-1 39 -15 56.5t-45 18.5z" />
    <glyph glyph-name="Racute" unicode="&#x154;" horiz-adv-x="704" 
d="M656 480q0 -72 -27.5 -123t-77.5 -83l148 -274h-232l-114 229h-80v-229h-213v714h306q82 0 137.5 -18.5t89.5 -50t48.5 -74.5t14.5 -91zM273 394h76q51 0 72.5 19t21.5 57t-21.5 57t-72.5 19h-76v-152zM395 772h-200l128 163h242z" />
    <glyph glyph-name="racute" unicode="&#x155;" horiz-adv-x="462" 
d="M50 528h208v-58q52 67 145 67q17 0 30.5 -2t23.5 -4l-23 -177q-11 2 -25.5 4t-34.5 2q-16 0 -36.5 -3t-39.5 -15q-34 -23 -34 -76v-266h-214v528zM294 584h-185l128 173h227z" />
    <glyph glyph-name="Rcommaaccent" unicode="&#x156;" horiz-adv-x="704" 
d="M656 480q0 -72 -27.5 -123t-77.5 -83l148 -274h-232l-114 229h-80v-229h-213v714h306q82 0 137.5 -18.5t89.5 -50t48.5 -74.5t14.5 -91zM273 394h76q51 0 72.5 19t21.5 57t-21.5 57t-72.5 19h-76v-152zM251 -66h228l-129 -177h-187z" />
    <glyph glyph-name="rcommaaccent" unicode="&#x157;" horiz-adv-x="462" 
d="M50 528h208v-58q52 67 145 67q17 0 30.5 -2t23.5 -4l-23 -177q-11 2 -25.5 4t-34.5 2q-16 0 -36.5 -3t-39.5 -15q-34 -23 -34 -76v-266h-214v528zM48 -66h233l-129 -177h-192z" />
    <glyph glyph-name="Rcaron" unicode="&#x158;" horiz-adv-x="704" 
d="M656 480q0 -72 -27.5 -123t-77.5 -83l148 -274h-232l-114 229h-80v-229h-213v714h306q82 0 137.5 -18.5t89.5 -50t48.5 -74.5t14.5 -91zM273 394h76q51 0 72.5 19t21.5 57t-21.5 57t-72.5 19h-76v-152zM221 772l-131 163h178l51 -66l52 66h183l-131 -163h-202z" />
    <glyph glyph-name="rcaron" unicode="&#x159;" horiz-adv-x="462" 
d="M50 528h208v-58q52 67 145 67q17 0 30.5 -2t23.5 -4l-23 -177q-11 2 -25.5 4t-34.5 2q-16 0 -36.5 -3t-39.5 -15q-34 -23 -34 -76v-266h-214v528zM149 584l-131 173h175l51 -73l52 73h180l-131 -173h-196z" />
    <glyph glyph-name="Sacute" unicode="&#x15a;" horiz-adv-x="691" 
d="M250 237q6 -40 31.5 -61t77.5 -21q42 0 61.5 13.5t19.5 39.5q0 20 -13.5 32t-50.5 20l-97 19q-125 25 -181.5 78t-56.5 141q0 57 21.5 100.5t61 73.5t96 45t126.5 15q76 0 131.5 -17t92 -47.5t55.5 -70.5t23 -86l-221 -20q-9 39 -29.5 53.5t-58.5 14.5q-41 0 -59 -13
t-18 -33q0 -17 13.5 -28t51.5 -19l96 -20q65 -14 110.5 -33.5t74 -46.5t41.5 -61.5t13 -79.5q0 -116 -80.5 -179.5t-236.5 -63.5q-79 0 -137.5 17.5t-97.5 50.5t-59.5 80.5t-24.5 106.5h224zM406 772h-200l128 163h242z" />
    <glyph glyph-name="sacute" unicode="&#x15b;" horiz-adv-x="559" 
d="M227 170q5 -25 21.5 -33t39.5 -8q26 0 37 7.5t11 22.5q0 13 -9 21t-34 13l-53 10q-108 20 -156 59.5t-48 111.5q0 80 63.5 125t182.5 45q62 0 106.5 -12.5t74.5 -34.5t46.5 -52t22.5 -64l-200 -17q-8 44 -53 44q-21 0 -32 -8t-11 -22q0 -13 10.5 -21t36.5 -13l54 -11
q57 -12 95.5 -26.5t62 -34.5t34 -46t10.5 -65q0 -85 -61 -131t-187 -46q-47 0 -92.5 7.5t-83.5 28t-62 58t-28 92.5h202zM342 584h-185l128 173h227z" />
    <glyph glyph-name="Scircumflex" unicode="&#x15c;" horiz-adv-x="691" 
d="M250 237q6 -40 31.5 -61t77.5 -21q42 0 61.5 13.5t19.5 39.5q0 20 -13.5 32t-50.5 20l-97 19q-125 25 -181.5 78t-56.5 141q0 57 21.5 100.5t61 73.5t96 45t126.5 15q76 0 131.5 -17t92 -47.5t55.5 -70.5t23 -86l-221 -20q-9 39 -29.5 53.5t-58.5 14.5q-41 0 -59 -13
t-18 -33q0 -17 13.5 -28t51.5 -19l96 -20q65 -14 110.5 -33.5t74 -46.5t41.5 -61.5t13 -79.5q0 -116 -80.5 -179.5t-236.5 -63.5q-79 0 -137.5 17.5t-97.5 50.5t-59.5 80.5t-24.5 106.5h224zM441 935l131 -163h-178l-52 66l-51 -66h-183l131 163h202z" />
    <glyph glyph-name="scircumflex" unicode="&#x15d;" horiz-adv-x="559" 
d="M227 170q5 -25 21.5 -33t39.5 -8q26 0 37 7.5t11 22.5q0 13 -9 21t-34 13l-53 10q-108 20 -156 59.5t-48 111.5q0 80 63.5 125t182.5 45q62 0 106.5 -12.5t74.5 -34.5t46.5 -52t22.5 -64l-200 -17q-8 44 -53 44q-21 0 -32 -8t-11 -22q0 -13 10.5 -21t36.5 -13l54 -11
q57 -12 95.5 -26.5t62 -34.5t34 -46t10.5 -65q0 -85 -61 -131t-187 -46q-47 0 -92.5 7.5t-83.5 28t-62 58t-28 92.5h202zM191 752h186l131 -173h-170l-52 72l-51 -72h-175z" />
    <glyph glyph-name="Scedilla" unicode="&#x15e;" horiz-adv-x="691" 
d="M250 237q6 -40 31.5 -61t77.5 -21q42 0 61.5 13.5t19.5 39.5q0 20 -13.5 32t-50.5 20l-97 19q-125 25 -181.5 78t-56.5 141q0 57 21.5 100.5t61 73.5t96 45t126.5 15q76 0 131.5 -17t92 -47.5t55.5 -70.5t23 -86l-221 -20q-9 39 -29.5 53.5t-58.5 14.5q-41 0 -59 -13
t-18 -33q0 -17 13.5 -28t51.5 -19l96 -20q65 -14 110.5 -33.5t74 -46.5t41.5 -61.5t13 -79.5q0 -116 -81 -180q-72 -56 -204 -62l-9 -26q33 -5 53.5 -15t32 -22.5t15.5 -28t4 -30.5q0 -48 -42 -72t-115 -24q-15 0 -36 1.5t-55 6.5v87q24 -2 39.5 -3t26.5 -1q43 0 43 23
q0 12 -11.5 18t-42.5 6h-35l32 83q-38 4 -70 14q-58 17 -97 50t-59.5 80.5t-24.5 106.5h224z" />
    <glyph glyph-name="scedilla" unicode="&#x15f;" horiz-adv-x="559" 
d="M227 170q4 -27 23.5 -34t37.5 -7q26 0 37 7.5t11 22.5q0 11 -7 20t-36 14l-53 10q-108 20 -156 61t-48 110q0 84 63.5 127t182.5 43q62 0 106.5 -12.5t74.5 -34.5t46.5 -52t22.5 -64l-200 -17q-9 44 -53 44q-22 0 -32.5 -8t-10.5 -22q0 -13 10.5 -21t36.5 -13l54 -11
q57 -12 95.5 -27t62 -35.5t34 -47.5t10.5 -62q0 -83 -53.5 -127t-165.5 -49l-10 -28q32 -5 52 -14.5t31 -22t15 -27t4 -29.5q0 -47 -41 -70.5t-113 -23.5q-14 0 -35 1.5t-54 6.5v87q24 -2 39 -3t26 -1q42 0 42 21q0 11 -11 16t-42 5h-34l33 85q-37 4 -71 15.5t-61 32.5
t-44 54t-21 80h202z" />
    <glyph glyph-name="Scaron" unicode="&#x160;" horiz-adv-x="691" 
d="M250 237q6 -40 31.5 -61t77.5 -21q42 0 61.5 13.5t19.5 39.5q0 20 -13.5 32t-50.5 20l-97 19q-125 25 -181.5 78t-56.5 141q0 57 21.5 100.5t61 73.5t96 45t126.5 15q76 0 131.5 -17t92 -47.5t55.5 -70.5t23 -86l-221 -20q-9 39 -29.5 53.5t-58.5 14.5q-41 0 -59 -13
t-18 -33q0 -17 13.5 -28t51.5 -19l96 -20q65 -14 110.5 -33.5t74 -46.5t41.5 -61.5t13 -79.5q0 -116 -80.5 -179.5t-236.5 -63.5q-79 0 -137.5 17.5t-97.5 50.5t-59.5 80.5t-24.5 106.5h224zM254 772l-131 163h178l51 -66l52 66h183l-131 -163h-202z" />
    <glyph glyph-name="scaron" unicode="&#x161;" horiz-adv-x="559" 
d="M227 170q5 -25 21.5 -33t39.5 -8q26 0 37 7.5t11 22.5q0 13 -9 21t-34 13l-53 10q-108 20 -156 59.5t-48 111.5q0 80 63.5 125t182.5 45q62 0 106.5 -12.5t74.5 -34.5t46.5 -52t22.5 -64l-200 -17q-8 44 -53 44q-21 0 -32 -8t-11 -22q0 -13 10.5 -21t36.5 -13l54 -11
q57 -12 95.5 -26.5t62 -34.5t34 -46t10.5 -65q0 -85 -61 -131t-187 -46q-47 0 -92.5 7.5t-83.5 28t-62 58t-28 92.5h202zM186 584l-131 173h175l51 -73l52 73h180l-131 -173h-196z" />
    <glyph glyph-name="uni0162" unicode="&#x162;" horiz-adv-x="675" 
d="M224 514h-199v200h625v-200h-199v-514h-68l-15 -43q33 -5 53.5 -15t32 -22.5t15.5 -28t4 -30.5q0 -48 -42 -72t-115 -24q-15 0 -36 1.5t-55 6.5v87q24 -2 39.5 -3t26.5 -1q43 0 43 23q0 12 -11.5 18t-42.5 6h-35l38 97h-59v514z" />
    <glyph glyph-name="uni0163" unicode="&#x163;" horiz-adv-x="459" 
d="M101 361h-86v167h86v137h214v-137h109v-167h-109v-143q0 -33 15 -44t40 -11q22 0 48 6l26 -155q-33 -11 -65.5 -17t-74.5 -6h-14l-12 -34q32 -5 52 -14.5t31 -22t15 -27t4 -29.5q0 -47 -41 -70.5t-113 -23.5q-14 0 -35 1.5t-54 6.5v87q24 -2 39 -3t26 -1q42 0 42 21
q0 11 -11 16t-42 5h-34l41 105q-53 21 -75 69t-22 129v155z" />
    <glyph glyph-name="Tcaron" unicode="&#x164;" horiz-adv-x="675" 
d="M224 519h-199v195h625v-195h-199v-519h-227v519zM236 772l-131 163h178l51 -66l52 66h183l-131 -163h-202z" />
    <glyph glyph-name="tcaron" unicode="&#x165;" horiz-adv-x="459" 
d="M373 773h167l-52 -194h-129zM101 361h-86v167h86v137h214v-137h109v-167h-109v-143q0 -33 15 -44t40 -11q22 0 48 6l26 -155q-33 -11 -65.5 -17t-74.5 -6q-56 0 -95 12.5t-63 39t-34.5 67t-10.5 96.5v155z" />
    <glyph glyph-name="Tbar" unicode="&#x166;" horiz-adv-x="675" 
d="M224 203h-120v176h120v140h-199v195h625v-195h-199v-140h120v-176h-120v-203h-227v203z" />
    <glyph glyph-name="tbar" unicode="&#x167;" horiz-adv-x="484" 
d="M30 336h86v55h-86v137h86v137h214v-137h109v-137h-109v-55h109v-113h-109v-5q0 -33 15 -44t40 -11q22 0 48 6l26 -155q-33 -11 -65.5 -17t-74.5 -6q-56 0 -95 12.5t-63 39t-34.5 67t-10.5 96.5v17h-86v113z" />
    <glyph glyph-name="Utilde" unicode="&#x168;" horiz-adv-x="738" 
d="M366 -18q-73 0 -131 18t-98 56.5t-61 98.5t-21 144v415h227v-425q0 -57 20 -84.5t67 -27.5t67 27.5t20 84.5v425h227v-415q0 -160 -82 -238.5t-235 -78.5zM586 946q0 -91 -35.5 -134t-99.5 -43q-26 0 -44.5 6t-34 13t-28.5 13t-28 6q-18 0 -26 -11t-8 -31h-130
q0 91 35.5 134t100.5 43q25 0 44 -6t34 -13t28.5 -13t27.5 -6q19 0 26.5 11t7.5 31h130z" />
    <glyph glyph-name="utilde" unicode="&#x169;" horiz-adv-x="621" 
d="M571 0h-208v55q-26 -32 -61.5 -51.5t-86.5 -19.5q-79 0 -124.5 49t-45.5 139v356h214v-320q0 -26 10.5 -37.5t29.5 -11.5q34 0 49 23q4 5 6.5 13.5t2.5 22.5v310h214v-528zM518 760q0 -93 -35 -135t-96 -42q-25 0 -43 6t-33 13t-28 13t-27 6q-18 0 -25.5 -11t-7.5 -31
h-127q0 93 35 135t96 42q25 0 43 -6t33 -13t28 -13t27 -6q18 0 25.5 11t7.5 31h127z" />
    <glyph glyph-name="Umacron" unicode="&#x16a;" horiz-adv-x="738" 
d="M366 -18q-73 0 -131 18t-98 56.5t-61 98.5t-21 144v415h227v-425q0 -57 20 -84.5t67 -27.5t67 27.5t20 84.5v425h227v-415q0 -160 -82 -238.5t-235 -78.5zM197 928h344v-149h-344v149z" />
    <glyph glyph-name="umacron" unicode="&#x16b;" horiz-adv-x="621" 
d="M571 0h-208v55q-26 -32 -61.5 -51.5t-86.5 -19.5q-79 0 -124.5 49t-45.5 139v356h214v-320q0 -26 10.5 -37.5t29.5 -11.5q34 0 49 23q4 5 6.5 13.5t2.5 22.5v310h214v-528zM140 732h335v-148h-335v148z" />
    <glyph glyph-name="Ubreve" unicode="&#x16c;" horiz-adv-x="738" 
d="M366 -18q-73 0 -131 18t-98 56.5t-61 98.5t-21 144v415h227v-425q0 -57 20 -84.5t67 -27.5t67 27.5t20 84.5v425h227v-415q0 -160 -82 -238.5t-235 -78.5zM365 767q-92 0 -143 42.5t-51 125.5h149q0 -23 12 -35.5t37 -12.5t37 12.5t12 35.5h149q0 -43 -14.5 -74.5
t-41.5 -52.5t-64 -31t-82 -10z" />
    <glyph glyph-name="ubreve" unicode="&#x16d;" horiz-adv-x="621" 
d="M571 0h-208v55q-26 -32 -61.5 -51.5t-86.5 -19.5q-79 0 -124.5 49t-45.5 139v356h214v-320q0 -26 10.5 -37.5t29.5 -11.5q34 0 49 23q4 5 6.5 13.5t2.5 22.5v310h214v-528zM306 581q-91 0 -141.5 44t-50.5 132h146q0 -26 12 -41t37 -15t37 15t12 41h146
q0 -45 -14.5 -78.5t-40.5 -55t-62.5 -32t-80.5 -10.5z" />
    <glyph glyph-name="Uring" unicode="&#x16e;" horiz-adv-x="738" 
d="M366 -18q-73 0 -131 18t-98 56.5t-61 98.5t-21 144v415h227v-425q0 -57 20 -84.5t67 -27.5t67 27.5t20 84.5v425h227v-415q0 -160 -82 -238.5t-235 -78.5zM330 874q0 -20 11 -30t28 -10t28.5 10t11.5 30t-11.5 30t-28.5 10t-28 -10t-11 -30zM228 874q0 34 11.5 59.5
t31 42t45 25t53.5 8.5t54 -8.5t45.5 -25t31 -42t11.5 -59.5t-11.5 -59.5t-31 -42t-45.5 -25t-54 -8.5t-53.5 8.5t-45 25t-31 42t-11.5 59.5z" />
    <glyph glyph-name="uring" unicode="&#x16f;" horiz-adv-x="621" 
d="M571 0h-208v55q-26 -32 -61.5 -51.5t-86.5 -19.5q-79 0 -124.5 49t-45.5 139v356h214v-320q0 -26 10.5 -37.5t29.5 -11.5q34 0 49 23q4 5 6.5 13.5t2.5 22.5v310h214v-528zM271 698q0 -20 10.5 -29t26.5 -9t27 9t11 29t-11 29t-27 9t-26.5 -9t-10.5 -29zM174 698
q0 33 11 57t29.5 40t43 24t50.5 8q27 0 51 -8t43 -24t30 -40t11 -57t-11 -57t-30 -40t-43 -24t-51 -8q-26 0 -50.5 8t-43 24t-29.5 40t-11 57z" />
    <glyph glyph-name="Uhungarumlaut" unicode="&#x170;" horiz-adv-x="738" 
d="M366 -18q-73 0 -131 18t-98 56.5t-61 98.5t-21 144v415h227v-425q0 -57 20 -84.5t67 -27.5t67 27.5t20 84.5v425h227v-415q0 -160 -82 -238.5t-235 -78.5zM258 935h196l-146 -163h-163zM502 935h196l-146 -163h-163z" />
    <glyph glyph-name="uhungarumlaut" unicode="&#x171;" horiz-adv-x="621" 
d="M571 0h-208v55q-26 -32 -61.5 -51.5t-86.5 -19.5q-79 0 -124.5 49t-45.5 139v356h214v-320q0 -26 10.5 -37.5t29.5 -11.5q34 0 49 23q4 5 6.5 13.5t2.5 22.5v310h214v-528zM196 757h191l-146 -173h-158zM435 757h191l-146 -173h-158z" />
    <glyph glyph-name="Uogonek" unicode="&#x172;" horiz-adv-x="738" 
d="M514 -208q-19 -3 -39 -5t-46 -2q-45 0 -74.5 7t-47 20t-24.5 30t-7 38q0 32 16 56t47 47q-67 3 -120 23t-89.5 58.5t-55.5 96.5t-19 138v415h227v-425q0 -57 20 -84.5t67 -27.5t67 27.5t20 84.5v425h227v-415q0 -128 -50.5 -202t-147.5 -100q-21 -14 -32 -28.5t-11 -33.5
q0 -20 12.5 -25.5t27.5 -5.5q8 0 15 0.5t17 1.5v-114z" />
    <glyph glyph-name="uogonek" unicode="&#x173;" horiz-adv-x="621" 
d="M568 -208q-18 -3 -37.5 -5t-43.5 -2q-43 0 -71.5 7t-45 20t-23.5 30t-7 38q0 38 20.5 65.5t58.5 54.5h-56v55q-26 -32 -61.5 -51.5t-86.5 -19.5q-79 0 -124.5 48t-45.5 140v356h214v-320q0 -26 10.5 -37.5t29.5 -11.5q34 0 49 23q4 5 6.5 13.5t2.5 22.5v310h214v-528
q-33 -17 -51.5 -32.5t-18.5 -36.5q0 -17 11.5 -22t25.5 -5q7 0 14 0.5t16 1.5v-114z" />
    <glyph glyph-name="Wcircumflex" unicode="&#x174;" horiz-adv-x="1029" 
d="M702 272l74 442h233l-179 -714h-237l-79 400l-78 -400h-237l-179 714h238l73 -442l86 437h200zM615 935l131 -163h-178l-52 66l-51 -66h-183l131 163h202z" />
    <glyph glyph-name="wcircumflex" unicode="&#x175;" horiz-adv-x="835" 
d="M419 270l-65 -270h-199l-145 528h208l56 -280l66 275h162l68 -266l54 271h201l-145 -528h-192zM326 752h186l131 -173h-170l-52 72l-51 -72h-175z" />
    <glyph glyph-name="Ycircumflex" unicode="&#x176;" horiz-adv-x="716" 
d="M251 714l109 -260l110 260h236l-234 -449v-265h-228v265l-234 449h241zM459 935l131 -163h-178l-52 66l-51 -66h-183l131 163h202z" />
    <glyph glyph-name="ycircumflex" unicode="&#x177;" horiz-adv-x="616" 
d="M234 528l82 -254l73 254h217l-209 -519q-23 -57 -43.5 -95.5t-45 -62.5t-54.5 -34.5t-71 -10.5q-38 0 -73.5 7t-58.5 15l31 153q14 -3 30.5 -6t33.5 -3q23 0 40 11t30 48l8 23l-214 474h224zM220 752h186l131 -173h-170l-52 72l-51 -72h-175z" />
    <glyph glyph-name="Ydieresis" unicode="&#x178;" horiz-adv-x="716" 
d="M251 714l109 -260l110 260h236l-234 -449v-265h-228v265l-234 449h241zM138 928h195v-156h-195v156zM384 928h194v-156h-194v156z" />
    <glyph glyph-name="Zacute" unicode="&#x179;" horiz-adv-x="656" 
d="M312 183h314l-18 -183h-568v162l292 369h-285v183h556v-163zM389 772h-200l128 163h242z" />
    <glyph glyph-name="zacute" unicode="&#x17a;" horiz-adv-x="541" 
d="M295 162h226l-16 -162h-470v131l213 235h-208v162h468v-131zM341 584h-185l128 173h227z" />
    <glyph glyph-name="Zdotaccent" unicode="&#x17b;" horiz-adv-x="656" 
d="M312 183h314l-18 -183h-568v162l292 369h-285v183h556v-163zM217 928h220v-156h-220v156z" />
    <glyph glyph-name="zdotaccent" unicode="&#x17c;" horiz-adv-x="541" 
d="M295 162h226l-16 -162h-470v131l213 235h-208v162h468v-131zM176 729h214v-140h-214v140z" />
    <glyph glyph-name="Zcaron" unicode="&#x17d;" horiz-adv-x="656" 
d="M312 183h314l-18 -183h-568v162l292 369h-285v183h556v-163zM236 772l-131 163h178l51 -66l52 66h183l-131 -163h-202z" />
    <glyph glyph-name="zcaron" unicode="&#x17e;" horiz-adv-x="541" 
d="M295 162h226l-16 -162h-470v131l213 235h-208v162h468v-131zM188 584l-131 173h175l51 -73l52 73h180l-131 -173h-196z" />
    <glyph glyph-name="longs" unicode="&#x17f;" horiz-adv-x="324" 
d="M50 0v507q0 105 55.5 160t155.5 55q35 0 72 -6.5t65 -14.5l-26 -147q-10 2 -24 4.5t-29 2.5q-30 0 -42.5 -13t-12.5 -41v-507h-214z" />
    <glyph glyph-name="florin" unicode="&#x192;" horiz-adv-x="438" 
d="M101 332h-86v167h86v8q0 105 57 160t161 55q40 0 75.5 -6.5t64.5 -14.5l-26 -147q-11 2 -26 4.5t-32 2.5q-33 0 -46.5 -13t-13.5 -41v-8h109v-167h-109v-313q0 -104 -49 -153.5t-147 -49.5q-36 0 -72 6t-68 14l28 144q12 -2 24 -3.5t21 -1.5q23 0 36 12t13 42v303z" />
    <glyph glyph-name="Scommaaccent" unicode="&#x218;" horiz-adv-x="691" 
d="M250 237q6 -40 31.5 -61t77.5 -21q42 0 61.5 13.5t19.5 39.5q0 20 -13.5 32t-50.5 20l-97 19q-125 25 -181.5 78t-56.5 141q0 57 21.5 100.5t61 73.5t96 45t126.5 15q76 0 131.5 -17t92 -47.5t55.5 -70.5t23 -86l-221 -20q-9 39 -29.5 53.5t-58.5 14.5q-41 0 -59 -13
t-18 -33q0 -17 13.5 -28t51.5 -19l96 -20q65 -14 110.5 -33.5t74 -46.5t41.5 -61.5t13 -79.5q0 -116 -80.5 -179.5t-236.5 -63.5q-79 0 -137.5 17.5t-97.5 50.5t-59.5 80.5t-24.5 106.5h224zM243 -66h228l-129 -177h-187z" />
    <glyph glyph-name="scommaaccent" unicode="&#x219;" horiz-adv-x="559" 
d="M227 170q5 -25 21.5 -33t39.5 -8q26 0 37 7.5t11 22.5q0 13 -9 21t-34 13l-53 10q-108 20 -156 59.5t-48 111.5q0 80 63.5 125t182.5 45q62 0 106.5 -12.5t74.5 -34.5t46.5 -52t22.5 -64l-200 -17q-8 44 -53 44q-21 0 -32 -8t-11 -22q0 -13 10.5 -21t36.5 -13l54 -11
q57 -12 95.5 -26.5t62 -34.5t34 -46t10.5 -65q0 -85 -61 -131t-187 -46q-47 0 -92.5 7.5t-83.5 28t-62 58t-28 92.5h202zM182 -66h233l-129 -177h-192z" />
    <glyph glyph-name="uni021A" unicode="&#x21a;" horiz-adv-x="675" 
d="M224 519h-199v195h625v-195h-199v-519h-227v519zM227 -66h228l-129 -177h-187z" />
    <glyph glyph-name="uni021B" unicode="&#x21b;" horiz-adv-x="459" 
d="M101 361h-86v167h86v137h214v-137h109v-167h-109v-143q0 -33 15 -44t40 -11q22 0 48 6l26 -155q-33 -11 -65.5 -17t-74.5 -6q-56 0 -95 12.5t-63 39t-34.5 67t-10.5 96.5v155zM155 -66h233l-129 -177h-192z" />
    <glyph glyph-name="dotlessj" unicode="&#x237;" horiz-adv-x="319" 
d="M-39 -20q12 -2 24 -3.5t21 -1.5q23 0 36 12t13 42v494h214v-504q0 -104 -49 -153.5t-147 -49.5q-36 0 -72 6t-68 14z" />
    <glyph glyph-name="apostrophe" unicode="&#x2bc;" horiz-adv-x="445" 
d="M139 714h202l-74 -305h-164z" />
    <glyph glyph-name="circumflex" unicode="&#x2c6;" horiz-adv-x="445" 
d="M130 752h186l131 -173h-170l-52 72l-51 -72h-175z" />
    <glyph glyph-name="caron" unicode="&#x2c7;" horiz-adv-x="445" 
d="M125 584l-131 173h175l51 -73l52 73h180l-131 -173h-196z" />
    <glyph glyph-name="uni02C9" unicode="&#x2c9;" horiz-adv-x="445" 
d="M55 732h335v-148h-335v148z" />
    <glyph glyph-name="breve" unicode="&#x2d8;" horiz-adv-x="445" 
d="M219 581q-91 0 -141.5 44t-50.5 132h146q0 -26 12 -41t37 -15t37 15t12 41h146q0 -45 -14.5 -78.5t-40.5 -55t-62.5 -32t-80.5 -10.5z" />
    <glyph glyph-name="dotaccent" unicode="&#x2d9;" horiz-adv-x="445" 
d="M115 729h214v-140h-214v140z" />
    <glyph glyph-name="ring" unicode="&#x2da;" horiz-adv-x="445" 
d="M185 698q0 -20 10.5 -29t26.5 -9t27 9t11 29t-11 29t-27 9t-26.5 -9t-10.5 -29zM88 698q0 33 11 57t29.5 40t43 24t50.5 8q27 0 51 -8t43 -24t30 -40t11 -57t-11 -57t-30 -40t-43 -24t-51 -8q-26 0 -50.5 8t-43 24t-29.5 40t-11 57z" />
    <glyph glyph-name="ogonek" unicode="&#x2db;" horiz-adv-x="445" 
d="M335 -208q-18 -3 -37.5 -5t-43.5 -2q-43 0 -71.5 7t-45 20t-23.5 30t-7 38q0 38 20.5 65.5t58.5 54.5h152q-33 -17 -51.5 -32.5t-18.5 -36.5q0 -17 11.5 -22t25.5 -5q7 0 14 0.5t16 1.5v-114z" />
    <glyph glyph-name="tilde" unicode="&#x2dc;" horiz-adv-x="445" 
d="M433 760q0 -93 -35 -135t-96 -42q-25 0 -43 6t-33 13t-28 13t-27 6q-18 0 -25.5 -11t-7.5 -31h-127q0 93 35 135t96 42q25 0 43 -6t33 -13t28 -13t27 -6q18 0 25.5 11t7.5 31h127z" />
    <glyph glyph-name="hungarumlaut" unicode="&#x2dd;" horiz-adv-x="445" 
d="M64 757h191l-146 -173h-158zM303 757h191l-146 -173h-158z" />
    <glyph glyph-name="uni0394" unicode="&#x394;" horiz-adv-x="762" 
d="M20 0l222 714h280l220 -714h-722zM289 182h178l-89 325z" />
    <glyph glyph-name="Omega" unicode="&#x3a9;" horiz-adv-x="803" 
d="M402 537q-26 0 -48 -8.5t-37.5 -28.5t-24.5 -52.5t-9 -80.5q0 -65 18.5 -112.5t63.5 -80.5v-174h-340v178h112q-40 41 -63.5 92t-23.5 129q0 82 27 144.5t75 104.5t113 63t141 21q73 0 137 -20t110.5 -60t73.5 -100.5t27 -140.5q0 -75 -23 -133t-64 -100h111l-18 -178
h-321v174q45 33 63.5 80.5t18.5 112.5q0 48 -9 80.5t-24.5 52.5t-37.5 28.5t-48 8.5z" />
    <glyph glyph-name="uni03BC" unicode="&#x3bc;" horiz-adv-x="626" 
d="M264 528v-320q0 -27 10.5 -38t29.5 -11q15 0 28 6t21 17q4 5 6.5 13.5t2.5 22.5v310h214v-528h-208v55q-15 -26 -35.5 -41t-48.5 -15q-12 0 -21 3v-195h-213v721h214z" />
    <glyph glyph-name="pi" unicode="&#x3c0;" horiz-adv-x="711" 
d="M385 361h-80v-361h-214v361h-76v167h662v-167h-78v-166q0 -20 7 -32.5t29 -12.5q7 0 16 1t15 3l25 -153q-23 -8 -60 -14.5t-73 -6.5q-49 0 -82 12.5t-53.5 36t-29 57t-8.5 75.5v200z" />
    <glyph glyph-name="Wgrave" unicode="&#x1e80;" horiz-adv-x="1029" 
d="M702 272l74 442h233l-179 -714h-237l-79 400l-78 -400h-237l-179 714h238l73 -442l86 437h200zM278 935h242l128 -163h-200z" />
    <glyph glyph-name="wgrave" unicode="&#x1e81;" horiz-adv-x="835" 
d="M419 270l-65 -270h-199l-145 528h208l56 -280l66 275h162l68 -266l54 271h201l-145 -528h-192zM182 757h227l128 -173h-185z" />
    <glyph glyph-name="Wacute" unicode="&#x1e82;" horiz-adv-x="1029" 
d="M702 272l74 442h233l-179 -714h-237l-79 400l-78 -400h-237l-179 714h238l73 -442l86 437h200zM581 772h-200l128 163h242z" />
    <glyph glyph-name="wacute" unicode="&#x1e83;" horiz-adv-x="835" 
d="M419 270l-65 -270h-199l-145 528h208l56 -280l66 275h162l68 -266l54 271h201l-145 -528h-192zM486 584h-185l128 173h227z" />
    <glyph glyph-name="Wdieresis" unicode="&#x1e84;" horiz-adv-x="1029" 
d="M702 272l74 442h233l-179 -714h-237l-79 400l-78 -400h-237l-179 714h238l73 -442l86 437h200zM294 928h195v-156h-195v156zM540 928h194v-156h-194v156z" />
    <glyph glyph-name="wdieresis" unicode="&#x1e85;" horiz-adv-x="835" 
d="M419 270l-65 -270h-199l-145 528h208l56 -280l66 275h162l68 -266l54 271h201l-145 -528h-192zM209 729h185v-140h-185v140zM445 729h184v-140h-184v140z" />
    <glyph glyph-name="Ygrave" unicode="&#x1ef2;" horiz-adv-x="716" 
d="M251 714l109 -260l110 260h236l-234 -449v-265h-228v265l-234 449h241zM98 935h242l128 -163h-200z" />
    <glyph glyph-name="ygrave" unicode="&#x1ef3;" horiz-adv-x="616" 
d="M234 528l82 -254l73 254h217l-209 -519q-23 -57 -43.5 -95.5t-45 -62.5t-54.5 -34.5t-71 -10.5q-38 0 -73.5 7t-58.5 15l31 153q14 -3 30.5 -6t33.5 -3q23 0 40 11t30 48l8 23l-214 474h224zM82 757h227l128 -173h-185z" />
    <glyph glyph-name="endash" unicode="&#x2013;" horiz-adv-x="500" 
d="M0 392h500v-182h-500v182z" />
    <glyph glyph-name="emdash" unicode="&#x2014;" horiz-adv-x="1000" 
d="M0 392h1000v-182h-1000v182z" />
    <glyph glyph-name="quoteleft" unicode="&#x2018;" horiz-adv-x="288" 
d="M222 409h-202l74 305h164z" />
    <glyph glyph-name="quoteright" unicode="&#x2019;" horiz-adv-x="288" 
d="M66 714h202l-74 -305h-164z" />
    <glyph glyph-name="quotesinglbase" unicode="&#x201a;" horiz-adv-x="288" 
d="M61 215h202l-74 -305h-164z" />
    <glyph glyph-name="quotedblleft" unicode="&#x201c;" horiz-adv-x="534" 
d="M217 409h-197l74 305h159zM468 409h-197l74 305h159z" />
    <glyph glyph-name="quotedblright" unicode="&#x201d;" horiz-adv-x="534" 
d="M317 714h197l-74 -305h-159zM66 714h197l-74 -305h-159z" />
    <glyph glyph-name="quotedblbase" unicode="&#x201e;" horiz-adv-x="534" 
d="M312 215h197l-74 -305h-159zM61 215h197l-74 -305h-159z" />
    <glyph glyph-name="dagger" unicode="&#x2020;" horiz-adv-x="528" 
d="M157 354h-137v191h137v169h214v-169h137v-191h-137v-441h-214v441z" />
    <glyph glyph-name="daggerdbl" unicode="&#x2021;" horiz-adv-x="548" 
d="M381 372v-112h137v-186h-137v-161h-214v161h-137v186h137v112h-137v186h137v156h214v-156h137v-186h-137z" />
    <glyph glyph-name="bullet" unicode="&#x2022;" horiz-adv-x="416" 
d="M40 362q0 37 12.5 68t35 53.5t53.5 34.5t67 12t67 -12t53.5 -34.5t35 -53.5t12.5 -68q0 -38 -12.5 -68.5t-35 -53t-53.5 -34.5t-67 -12t-67 12t-53.5 34.5t-35 53t-12.5 68.5z" />
    <glyph glyph-name="ellipsis" unicode="&#x2026;" horiz-adv-x="1097" 
d="M894 215h199v-215h-199v215zM468 215h199v-215h-199v215zM44 215h199v-215h-199v215z" />
    <glyph glyph-name="perthousand" unicode="&#x2030;" horiz-adv-x="1097" 
d="M30 494q0 55 14 95.5t39.5 67t61 39.5t77.5 13t77.5 -13t61 -39.5t39.5 -67t14 -95.5t-14 -95t-39.5 -66.5t-61 -39.5t-77.5 -13t-77.5 13t-61 39.5t-39.5 66.5t-14 95zM191 493q0 -25 2 -40t6 -23.5t10 -11t13 -2.5t13 2.5t10 11t6 23.5t2 40t-2 40t-6 23.5t-10 11.5
t-13 3t-13 -3t-10 -11t-6 -23.5t-2 -40.5zM610 205q0 55 14 95.5t39.5 67t61 39.5t77.5 13t77.5 -13t61 -39.5t39.5 -67t14 -95.5t-14 -95t-39.5 -66.5t-61 -39.5t-77.5 -13t-77.5 13t-61 39.5t-39.5 66.5t-14 95zM771 204q0 -25 2 -40t6 -23.5t10 -11t13 -2.5t13 2.5t10 11
t6 23.5t2 40t-2 40t-6 23.5t-10 11.5t-13 3t-13 -3t-10 -11t-6 -23.5t-2 -40.5zM457 0h-195l304 691h195zM1029 205q0 55 14 95.5t39.5 67t61 39.5t77.5 13t77.5 -13t61 -39.5t39.5 -67t14 -95.5t-14 -95t-39.5 -66.5t-61 -39.5t-77.5 -13t-77.5 13t-61 39.5t-39.5 66.5
t-14 95zM1190 204q0 -25 2 -40t6 -23.5t10 -11t13 -2.5t13 2.5t10 11t6 23.5t2 40t-2 40t-6 23.5t-10 11.5t-13 3t-13 -3t-10 -11t-6 -23.5t-2 -40.5z" />
    <glyph glyph-name="guilsinglleft" unicode="&#x2039;" horiz-adv-x="389" 
d="M256 257l103 -230h-217l-117 229l117 231h217z" />
    <glyph glyph-name="guilsinglright" unicode="&#x203a;" horiz-adv-x="389" 
d="M133 257l-103 230h217l117 -229l-117 -231h-217z" />
    <glyph glyph-name="fraction" unicode="&#x2044;" horiz-adv-x="149" 
d="M20 0h-195l304 691h195z" />
    <glyph glyph-name="zerosuperior" unicode="&#x2070;" 
d="M14 494q0 55 14 95.5t39.5 67t61 39.5t77.5 13t77.5 -13t61 -39.5t39.5 -67t14 -95.5t-14 -95t-39.5 -66.5t-61 -39.5t-77.5 -13t-77.5 13t-61 39.5t-39.5 66.5t-14 95zM175 493q0 -25 2 -40t6 -23.5t10 -11t13 -2.5t13 2.5t10 11t6 23.5t2 40t-2 40t-6 23.5t-10 11.5
t-13 3t-13 -3t-10 -11t-6 -23.5t-2 -40.5z" />
    <glyph glyph-name="foursuperior" unicode="&#x2074;" 
d="M24 466l166 233h159v-233h49l-10 -108h-39v-68h-145v68h-180v108zM204 466v84l-59 -84h59z" />
    <glyph glyph-name="fivesuperior" unicode="&#x2075;" 
d="M178 586l-3 -39q14 5 28.5 8t34.5 3q38 0 65 -11t43.5 -29.5t24 -43t7.5 -52.5q0 -69 -43.5 -105.5t-125.5 -36.5q-75 0 -120.5 31.5t-52.5 95.5h142q4 -22 28 -22q30 0 30 35q0 34 -30 34q-17 0 -27 -9h-133l21 254h287v-113h-176z" />
    <glyph glyph-name="sixsuperior" unicode="&#x2076;" 
d="M209 600q-17 0 -25 -14t-10 -48q12 7 29 11t40 4q61 0 98.5 -33.5t37.5 -95.5q0 -67 -44 -105.5t-123 -38.5q-92 0 -137 53.5t-45 153.5q0 107 48.5 164.5t137.5 57.5q67 0 108.5 -32t50.5 -90l-140 -10q-4 10 -9 16.5t-17 6.5zM208 385q32 0 32 36q0 15 -7.5 25
t-24.5 10q-12 0 -21.5 -7t-9.5 -27q0 -17 7.5 -27t23.5 -10z" />
    <glyph glyph-name="sevensuperior" unicode="&#x2077;" 
d="M91 290q24 84 55.5 157.5t60.5 126.5h-168v125h330v-103q-40 -72 -70 -145t-54 -161h-154z" />
    <glyph glyph-name="eightsuperior" unicode="&#x2078;" 
d="M204 280q-93 0 -135.5 33t-42.5 91q0 37 16 61t42 36q-24 14 -36 36.5t-12 51.5q0 56 43.5 88t128.5 32q84 0 126 -32t42 -86q0 -61 -48 -90q25 -12 41.5 -34.5t16.5 -61.5q0 -59 -44.5 -92t-137.5 -33zM173 415q0 -14 7.5 -23t24.5 -9q19 0 26.5 9t7.5 23t-7.5 23
t-26.5 9q-17 0 -24.5 -9t-7.5 -23zM177 578q0 -12 6.5 -20t20.5 -8q17 0 24 8t7 20q0 13 -7 21t-24 8q-14 0 -20.5 -8t-6.5 -21z" />
    <glyph glyph-name="ninesuperior" unicode="&#x2079;" 
d="M206 389q15 0 22.5 12.5t9.5 49.5q-13 -7 -29.5 -11t-39.5 -4q-60 0 -98 33t-38 96q0 67 43.5 105.5t123.5 38.5q94 0 138 -53.5t44 -156.5q0 -58 -13 -99.5t-36.5 -68t-57 -39t-74.5 -12.5q-73 0 -115 34.5t-50 93.5h144q5 -19 26 -19zM203 604q-31 0 -31 -36
q0 -15 7.5 -25t24.5 -10q13 0 22 7.5t9 26.5q0 16 -7.5 26.5t-24.5 10.5z" />
    <glyph glyph-name="zeroinferior" unicode="&#x2080;" 
d="M14 205q0 55 14 95.5t39.5 67t61 39.5t77.5 13t77.5 -13t61 -39.5t39.5 -67t14 -95.5t-14 -95t-39.5 -66.5t-61 -39.5t-77.5 -13t-77.5 13t-61 39.5t-39.5 66.5t-14 95zM175 204q0 -25 2 -40t6 -23.5t10 -11t13 -2.5t13 2.5t10 11t6 23.5t2 40t-2 40t-6 23.5t-10 11.5
t-13 3t-13 -3t-10 -11t-6 -23.5t-2 -40.5z" />
    <glyph glyph-name="oneinferior" unicode="&#x2081;" 
d="M172 256l-73 -49l-67 107l152 96h138v-409h-150v255z" />
    <glyph glyph-name="twoinferior" unicode="&#x2082;" 
d="M48 107l100 75q23 18 39 30.5t25.5 23t14 20t4.5 21.5q0 25 -22 25q-13 0 -20 -8.5t-10 -29.5l-140 11q11 72 57.5 108.5t121.5 36.5q78 0 118.5 -37.5t40.5 -96.5q0 -35 -17.5 -67.5t-69.5 -72.5q-8 -7 -15.5 -12.5t-17.5 -12.5h127l-10 -120h-326v106z" />
    <glyph glyph-name="threeinferior" unicode="&#x2083;" 
d="M167 147q1 -22 9.5 -35t27.5 -13q30 0 31 31q0 14 -8 22t-24 8h-23v98h21q28 0 28 27q0 11 -6.5 18.5t-19.5 7.5q-26 0 -32 -33l-138 10q5 65 52.5 98.5t125.5 33.5t122.5 -32.5t44.5 -87.5q0 -23 -9.5 -45t-34.5 -37q29 -16 41.5 -42t12.5 -54q0 -60 -47.5 -95.5
t-132.5 -35.5q-50 0 -84.5 12.5t-56 34t-31 48.5t-9.5 61h140z" />
    <glyph glyph-name="fourinferior" unicode="&#x2084;" 
d="M24 177l166 233h159v-233h49l-10 -108h-39v-68h-145v68h-180v108zM204 177v84l-59 -84h59z" />
    <glyph glyph-name="fiveinferior" unicode="&#x2085;" 
d="M178 297l-3 -39q14 5 28.5 8t34.5 3q38 0 65 -11t43.5 -29.5t24 -43t7.5 -52.5q0 -69 -43.5 -105.5t-125.5 -36.5q-75 0 -120.5 31.5t-52.5 95.5h142q4 -22 28 -22q30 0 30 35q0 34 -30 34q-17 0 -27 -9h-133l21 254h287v-113h-176z" />
    <glyph glyph-name="sixinferior" unicode="&#x2086;" 
d="M209 311q-17 0 -25 -14t-10 -48q12 7 29 11t40 4q61 0 98.5 -33.5t37.5 -95.5q0 -67 -44 -105.5t-123 -38.5q-92 0 -137 53.5t-45 153.5q0 107 48.5 164.5t137.5 57.5q67 0 108.5 -32t50.5 -90l-140 -10q-4 10 -9 16.5t-17 6.5zM208 96q32 0 32 36q0 15 -7.5 25t-24.5 10
q-12 0 -21.5 -7t-9.5 -27q0 -17 7.5 -27t23.5 -10z" />
    <glyph glyph-name="seveninferior" unicode="&#x2087;" 
d="M91 1q24 84 55.5 157.5t60.5 126.5h-168v125h330v-103q-40 -72 -70 -145t-54 -161h-154z" />
    <glyph glyph-name="eightinferior" unicode="&#x2088;" 
d="M204 -9q-93 0 -135.5 33t-42.5 91q0 37 16 61t42 36q-24 14 -36 36.5t-12 51.5q0 56 43.5 88t128.5 32q84 0 126 -32t42 -86q0 -61 -48 -90q25 -12 41.5 -34.5t16.5 -61.5q0 -59 -44.5 -92t-137.5 -33zM173 126q0 -14 7.5 -23t24.5 -9q19 0 26.5 9t7.5 23t-7.5 23
t-26.5 9q-17 0 -24.5 -9t-7.5 -23zM177 289q0 -12 6.5 -20t20.5 -8q17 0 24 8t7 20q0 13 -7 21t-24 8q-14 0 -20.5 -8t-6.5 -21z" />
    <glyph glyph-name="nineinferior" unicode="&#x2089;" 
d="M206 100q15 0 22.5 12.5t9.5 49.5q-13 -7 -29.5 -11t-39.5 -4q-60 0 -98 33t-38 96q0 67 43.5 105.5t123.5 38.5q94 0 138 -53.5t44 -156.5q0 -58 -13 -99.5t-36.5 -68t-57 -39t-74.5 -12.5q-73 0 -115 34.5t-50 93.5h144q5 -19 26 -19zM203 315q-31 0 -31 -36
q0 -15 7.5 -25t24.5 -10q13 0 22 7.5t9 26.5q0 16 -7.5 26.5t-24.5 10.5z" />
    <glyph glyph-name="Euro" unicode="&#x20ac;" horiz-adv-x="592" 
d="M456 455l-13 -85h-170v-45h163l-13 -85h-147q5 -46 18.5 -65.5t39.5 -19.5q21 0 31 11t16 34h207q-7 -48 -25.5 -88.5t-50 -69t-77 -44.5t-105.5 -16q-69 0 -115.5 20.5t-76 55.5t-44.5 82t-21 100h-62l13 85h45v45h-58l13 85h53q19 128 83 191.5t179 63.5
q100 0 161 -47.5t79 -148.5l-198 -22q-6 22 -15 33.5t-32 11.5q-9 0 -17.5 -2.5t-15.5 -11t-12.5 -25t-9.5 -43.5h177z" />
    <glyph glyph-name="uni20B9" unicode="&#x20b9;" horiz-adv-x="592" 
d="M57 388v117h223q-16 34 -48.5 44t-91.5 10h-83v132h513l-13 -117h-108q11 -12 20.5 -29t15.5 -40h65l-13 -117h-47q-11 -70 -51.5 -113t-110.5 -63l218 -212h-260l-229 215v110h83q29 0 52.5 2t41.5 9t30.5 19.5t18.5 32.5h-226z" />
    <glyph glyph-name="uni20BA" unicode="&#x20ba;" horiz-adv-x="592" 
d="M75 691h206v-106l109 40l31 -84l-140 -51v-47l109 40l31 -84l-140 -51v-163h2q19 0 35 10.5t27.5 28t19 40.5t9.5 49h200q-5 -65 -25.5 -121.5t-60.5 -99.5t-102.5 -67.5t-152.5 -24.5h-158v273l-42 -15l-30 84l72 26v47l-42 -15l-30 84l72 26v181z" />
    <glyph glyph-name="afii61289" unicode="&#x2113;" horiz-adv-x="574" 
d="M5 158l85 51q-1 10 -1 20v21v219q0 61 16.5 110t47.5 83.5t75.5 52.5t100.5 18q52 0 90.5 -15.5t64 -42.5t38.5 -64t13 -81q0 -95 -59 -177.5t-167 -151.5q6 -29 22.5 -44t47.5 -15q32 0 55 14t43 33l87 -108q-45 -51 -105 -75t-129 -24q-78 0 -128.5 28t-78.5 79
l-63 -38zM305 343q46 38 68 85t22 95q0 66 -41 66q-49 0 -49 -101v-145z" />
    <glyph glyph-name="trademark" unicode="&#x2122;" horiz-adv-x="967" 
d="M627 314l-54 199v-199h-124v400h171l66 -243l65 243h171v-400h-127v199l-54 -199h-114zM137 592h-117v122h372v-122h-117v-278h-138v278z" />
    <glyph glyph-name="uni2126" unicode="&#x2126;" horiz-adv-x="803" 
d="M402 537q-26 0 -48 -8.5t-37.5 -28.5t-24.5 -52.5t-9 -80.5q0 -65 18.5 -112.5t63.5 -80.5v-174h-340v178h112q-40 41 -63.5 92t-23.5 129q0 82 27 144.5t75 104.5t113 63t141 21q73 0 137 -20t110.5 -60t73.5 -100.5t27 -140.5q0 -75 -23 -133t-64 -100h111l-18 -178
h-321v174q45 33 63.5 80.5t18.5 112.5q0 48 -9 80.5t-24.5 52.5t-37.5 28.5t-48 8.5z" />
    <glyph glyph-name="estimated" unicode="&#x212e;" horiz-adv-x="911" 
d="M199 139q0 -13 9 -22q48 -51 110.5 -79.5t137.5 -28.5q81 0 146.5 33t114.5 87h58q-54 -66 -138 -103t-183 -37q-84 0 -157.5 28.5t-128.5 77.5t-86.5 115.5t-31.5 141.5t31.5 141.5t86.5 116t128.5 78.5t157.5 29t158.5 -29t129.5 -78.5t87 -116t32 -141.5v-10h-657
q-5 0 -5 -4v-199zM707 362q4 0 4 7v199q0 13 -9 24q-48 48 -111 75.5t-135 27.5t-135.5 -29.5t-111.5 -77.5q-5 -4 -7.5 -10.5t-2.5 -13.5v-195q0 -7 5 -7h503z" />
    <glyph glyph-name="onethird" unicode="&#x2153;" horiz-adv-x="1053" 
d="M172 545l-73 -49l-67 107l152 96h138v-409h-150v255zM460 0h-195l304 691h195zM808 147q1 -22 9.5 -35t27.5 -13q30 0 31 31q0 14 -8 22t-24 8h-23v98h21q28 0 28 27q0 11 -6.5 18.5t-19.5 7.5q-26 0 -32 -33l-138 10q5 65 52.5 98.5t125.5 33.5t122.5 -32.5t44.5 -87.5
q0 -23 -9.5 -45t-34.5 -37q29 -16 41.5 -42t12.5 -54q0 -60 -47.5 -95.5t-132.5 -35.5q-50 0 -84.5 12.5t-56 34t-31 48.5t-9.5 61h140z" />
    <glyph glyph-name="twothirds" unicode="&#x2154;" horiz-adv-x="1053" 
d="M48 396l100 75q23 18 39 30.5t25.5 23t14 20t4.5 21.5q0 25 -22 25q-13 0 -20 -8.5t-10 -29.5l-140 11q11 72 57.5 108.5t121.5 36.5q78 0 118.5 -37.5t40.5 -96.5q0 -35 -17.5 -67.5t-69.5 -72.5q-8 -7 -15.5 -12.5t-17.5 -12.5h127l-10 -120h-326v106zM482 0h-195
l304 691h195zM808 147q1 -22 9.5 -35t27.5 -13q30 0 31 31q0 14 -8 22t-24 8h-23v98h21q28 0 28 27q0 11 -6.5 18.5t-19.5 7.5q-26 0 -32 -33l-138 10q5 65 52.5 98.5t125.5 33.5t122.5 -32.5t44.5 -87.5q0 -23 -9.5 -45t-34.5 -37q29 -16 41.5 -42t12.5 -54
q0 -60 -47.5 -95.5t-132.5 -35.5q-50 0 -84.5 12.5t-56 34t-31 48.5t-9.5 61h140z" />
    <glyph glyph-name="onefifth" unicode="&#x2155;" horiz-adv-x="1053" 
d="M172 545l-73 -49l-67 107l152 96h138v-409h-150v255zM460 0h-195l304 691h195zM819 297l-3 -39q14 5 28.5 8t34.5 3q38 0 65 -11t43.5 -29.5t24 -43t7.5 -52.5q0 -69 -43.5 -105.5t-125.5 -36.5q-75 0 -120.5 31.5t-52.5 95.5h142q4 -22 28 -22q30 0 30 35q0 34 -30 34
q-17 0 -27 -9h-133l21 254h287v-113h-176z" />
    <glyph glyph-name="twofifths" unicode="&#x2156;" horiz-adv-x="1053" 
d="M48 396l100 75q23 18 39 30.5t25.5 23t14 20t4.5 21.5q0 25 -22 25q-13 0 -20 -8.5t-10 -29.5l-140 11q11 72 57.5 108.5t121.5 36.5q78 0 118.5 -37.5t40.5 -96.5q0 -35 -17.5 -67.5t-69.5 -72.5q-8 -7 -15.5 -12.5t-17.5 -12.5h127l-10 -120h-326v106zM481 0h-195
l304 691h195zM819 297l-3 -39q14 5 28.5 8t34.5 3q38 0 65 -11t43.5 -29.5t24 -43t7.5 -52.5q0 -69 -43.5 -105.5t-125.5 -36.5q-75 0 -120.5 31.5t-52.5 95.5h142q4 -22 28 -22q30 0 30 35q0 34 -30 34q-17 0 -27 -9h-133l21 254h287v-113h-176z" />
    <glyph glyph-name="threefifths" unicode="&#x2157;" horiz-adv-x="1053" 
d="M167 436q1 -22 9.5 -35t27.5 -13q30 0 31 31q0 14 -8 22t-24 8h-23v98h21q28 0 28 27q0 11 -6.5 18.5t-19.5 7.5q-26 0 -32 -33l-138 10q5 65 52.5 98.5t125.5 33.5t122.5 -32.5t44.5 -87.5q0 -23 -9.5 -45t-34.5 -37q29 -16 41.5 -42t12.5 -54q0 -60 -47.5 -95.5
t-132.5 -35.5q-50 0 -84.5 12.5t-56 34t-31 48.5t-9.5 61h140zM473 0h-195l304 691h195zM819 297l-3 -39q14 5 28.5 8t34.5 3q38 0 65 -11t43.5 -29.5t24 -43t7.5 -52.5q0 -69 -43.5 -105.5t-125.5 -36.5q-75 0 -120.5 31.5t-52.5 95.5h142q4 -22 28 -22q30 0 30 35
q0 34 -30 34q-17 0 -27 -9h-133l21 254h287v-113h-176z" />
    <glyph glyph-name="fourfifths" unicode="&#x2158;" horiz-adv-x="1053" 
d="M24 466l166 233h159v-233h49l-10 -108h-39v-68h-145v68h-180v108zM204 466v84l-59 -84h59zM478 0h-195l304 691h195zM819 297l-3 -39q14 5 28.5 8t34.5 3q38 0 65 -11t43.5 -29.5t24 -43t7.5 -52.5q0 -69 -43.5 -105.5t-125.5 -36.5q-75 0 -120.5 31.5t-52.5 95.5h142
q4 -22 28 -22q30 0 30 35q0 34 -30 34q-17 0 -27 -9h-133l21 254h287v-113h-176z" />
    <glyph glyph-name="onesixth" unicode="&#x2159;" horiz-adv-x="1053" 
d="M172 545l-73 -49l-67 107l152 96h138v-409h-150v255zM465 0h-195l304 691h195zM850 311q-17 0 -25 -14t-10 -48q12 7 29 11t40 4q61 0 98.5 -33.5t37.5 -95.5q0 -67 -44 -105.5t-123 -38.5q-92 0 -137 53.5t-45 153.5q0 107 48.5 164.5t137.5 57.5q67 0 108.5 -32
t50.5 -90l-140 -10q-4 10 -9 16.5t-17 6.5zM849 96q32 0 32 36q0 15 -7.5 25t-24.5 10q-12 0 -21.5 -7t-9.5 -27q0 -17 7.5 -27t23.5 -10z" />
    <glyph glyph-name="fivesixths" unicode="&#x215a;" horiz-adv-x="1053" 
d="M178 586l-3 -39q14 5 28.5 8t34.5 3q38 0 65 -11t43.5 -29.5t24 -43t7.5 -52.5q0 -69 -43.5 -105.5t-125.5 -36.5q-75 0 -120.5 31.5t-52.5 95.5h142q4 -22 28 -22q30 0 30 35q0 34 -30 34q-17 0 -27 -9h-133l21 254h287v-113h-176zM477 0h-195l304 691h195zM850 311
q-17 0 -25 -14t-10 -48q12 7 29 11t40 4q61 0 98.5 -33.5t37.5 -95.5q0 -67 -44 -105.5t-123 -38.5q-92 0 -137 53.5t-45 153.5q0 107 48.5 164.5t137.5 57.5q67 0 108.5 -32t50.5 -90l-140 -10q-4 10 -9 16.5t-17 6.5zM849 96q32 0 32 36q0 15 -7.5 25t-24.5 10
q-12 0 -21.5 -7t-9.5 -27q0 -17 7.5 -27t23.5 -10z" />
    <glyph glyph-name="oneeighth" unicode="&#x215b;" horiz-adv-x="1053" 
d="M172 545l-73 -49l-67 107l152 96h138v-409h-150v255zM459 0h-195l304 691h195zM845 -9q-93 0 -135.5 33t-42.5 91q0 37 16 61t42 36q-24 14 -36 36.5t-12 51.5q0 56 43.5 88t128.5 32q84 0 126 -32t42 -86q0 -61 -48 -90q25 -12 41.5 -34.5t16.5 -61.5q0 -59 -44.5 -92
t-137.5 -33zM814 126q0 -14 7.5 -23t24.5 -9q19 0 26.5 9t7.5 23t-7.5 23t-26.5 9q-17 0 -24.5 -9t-7.5 -23zM818 289q0 -12 6.5 -20t20.5 -8q17 0 24 8t7 20q0 13 -7 21t-24 8q-14 0 -20.5 -8t-6.5 -21z" />
    <glyph glyph-name="threeeighths" unicode="&#x215c;" horiz-adv-x="1053" 
d="M167 436q1 -22 9.5 -35t27.5 -13q30 0 31 31q0 14 -8 22t-24 8h-23v98h21q28 0 28 27q0 11 -6.5 18.5t-19.5 7.5q-26 0 -32 -33l-138 10q5 65 52.5 98.5t125.5 33.5t122.5 -32.5t44.5 -87.5q0 -23 -9.5 -45t-34.5 -37q29 -16 41.5 -42t12.5 -54q0 -60 -47.5 -95.5
t-132.5 -35.5q-50 0 -84.5 12.5t-56 34t-31 48.5t-9.5 61h140zM472 0h-195l304 691h195zM845 -9q-93 0 -135.5 33t-42.5 91q0 37 16 61t42 36q-24 14 -36 36.5t-12 51.5q0 56 43.5 88t128.5 32q84 0 126 -32t42 -86q0 -61 -48 -90q25 -12 41.5 -34.5t16.5 -61.5
q0 -59 -44.5 -92t-137.5 -33zM814 126q0 -14 7.5 -23t24.5 -9q19 0 26.5 9t7.5 23t-7.5 23t-26.5 9q-17 0 -24.5 -9t-7.5 -23zM818 289q0 -12 6.5 -20t20.5 -8q17 0 24 8t7 20q0 13 -7 21t-24 8q-14 0 -20.5 -8t-6.5 -21z" />
    <glyph glyph-name="fiveeighths" unicode="&#x215d;" horiz-adv-x="1053" 
d="M178 586l-3 -39q14 5 28.5 8t34.5 3q38 0 65 -11t43.5 -29.5t24 -43t7.5 -52.5q0 -69 -43.5 -105.5t-125.5 -36.5q-75 0 -120.5 31.5t-52.5 95.5h142q4 -22 28 -22q30 0 30 35q0 34 -30 34q-17 0 -27 -9h-133l21 254h287v-113h-176zM468 0h-195l304 691h195zM845 -9
q-93 0 -135.5 33t-42.5 91q0 37 16 61t42 36q-24 14 -36 36.5t-12 51.5q0 56 43.5 88t128.5 32q84 0 126 -32t42 -86q0 -61 -48 -90q25 -12 41.5 -34.5t16.5 -61.5q0 -59 -44.5 -92t-137.5 -33zM814 126q0 -14 7.5 -23t24.5 -9q19 0 26.5 9t7.5 23t-7.5 23t-26.5 9
q-17 0 -24.5 -9t-7.5 -23zM818 289q0 -12 6.5 -20t20.5 -8q17 0 24 8t7 20q0 13 -7 21t-24 8q-14 0 -20.5 -8t-6.5 -21z" />
    <glyph glyph-name="seveneighths" unicode="&#x215e;" horiz-adv-x="1053" 
d="M101 290q24 84 55.5 157.5t60.5 126.5h-168v125h330v-103q-40 -72 -70 -145t-54 -161h-154zM446 0h-195l304 691h195zM845 -9q-93 0 -135.5 33t-42.5 91q0 37 16 61t42 36q-24 14 -36 36.5t-12 51.5q0 56 43.5 88t128.5 32q84 0 126 -32t42 -86q0 -61 -48 -90
q25 -12 41.5 -34.5t16.5 -61.5q0 -59 -44.5 -92t-137.5 -33zM814 126q0 -14 7.5 -23t24.5 -9q19 0 26.5 9t7.5 23t-7.5 23t-26.5 9q-17 0 -24.5 -9t-7.5 -23zM818 289q0 -12 6.5 -20t20.5 -8q17 0 24 8t7 20q0 13 -7 21t-24 8q-14 0 -20.5 -8t-6.5 -21z" />
    <glyph glyph-name="partialdiff" unicode="&#x2202;" horiz-adv-x="608" 
d="M76 525q20 87 81 136t163 49q54 0 100 -16t80 -53.5t53.5 -99.5t19.5 -154q0 -90 -19.5 -165t-57.5 -128t-94 -82.5t-129 -29.5q-59 0 -105 18.5t-77.5 50.5t-48.5 75t-17 93q0 52 18 95.5t49 74t72.5 47.5t88.5 17q46 0 78 -14t51 -31v16q0 60 -15.5 86.5t-46.5 26.5
q-39 0 -51 -36zM282 148q37 0 56.5 25.5t19.5 59.5q0 32 -17.5 50.5t-49.5 18.5q-38 0 -58 -23.5t-20 -57.5t19 -53.5t50 -19.5z" />
    <glyph glyph-name="Delta" unicode="&#x2206;" horiz-adv-x="762" 
d="M20 0l222 714h280l220 -714h-722zM289 182h178l-89 325z" />
    <glyph glyph-name="product" unicode="&#x220f;" horiz-adv-x="760" 
d="M60 714h640v-714h-227v519h-186v-519h-227v714z" />
    <glyph glyph-name="summation" unicode="&#x2211;" horiz-adv-x="651" 
d="M308 531l147 -216l-157 -234h333l-18 -183h-583v127l191 283l-191 279v127h590v-183h-312z" />
    <glyph glyph-name="minus" unicode="&#x2212;" horiz-adv-x="592" 
d="M78 436h436v-191h-436v191z" />
    <glyph glyph-name="uni2215" unicode="&#x2215;" horiz-adv-x="149" 
d="M20 0h-195l304 691h195z" />
    <glyph glyph-name="uni2219" unicode="&#x2219;" horiz-adv-x="288" 
d="M44 482h199v-215h-199v215z" />
    <glyph glyph-name="radical" unicode="&#x221a;" horiz-adv-x="682" 
d="M266 447l57 -206l143 490h216l-256 -731h-213l-99 261h-94v186h246z" />
    <glyph glyph-name="infinity" unicode="&#x221e;" horiz-adv-x="600" 
d="M300 216q-20 -29 -52.5 -48t-76.5 -19q-69 0 -110 49t-41 141t41.5 143t111.5 51q43 0 75 -19t52 -48q20 29 53 48t76 19q68 0 109.5 -48.5t41.5 -141.5q0 -92 -41.5 -143t-111.5 -51q-43 0 -75 19t-52 48zM242 342q-3 16 -15.5 31t-32.5 15q-15 0 -24.5 -11t-9.5 -37
q0 -25 9.5 -36t24.5 -11q20 0 32 15t16 34zM360 338q5 -17 18 -31t30 -14q15 0 23.5 10t8.5 37q0 26 -9 37t-23 11q-19 0 -31.5 -15t-16.5 -35z" />
    <glyph glyph-name="integral" unicode="&#x222b;" horiz-adv-x="396" 
d="M370 554l-22.5 4.5t-26.5 2.5q-23 0 -34.5 -12.5t-11.5 -34.5q0 -3 0.5 -8t1.5 -12l55 -380q2 -11 3 -21.5t1 -21.5q0 -86 -53 -138.5t-148 -52.5q-36 0 -71 6.5t-64 14.5l26 147q11 -2 24.5 -4.5t29.5 -2.5q51 0 51 47q0 3 -1 13l-56 384q-2 12 -3 24t-1 25
q1 85 52 136.5t143 51.5q35 0 69 -6.5t62 -14.5z" />
    <glyph glyph-name="approxequal" unicode="&#x2248;" horiz-adv-x="592" 
d="M580 307q0 -125 -46 -188.5t-136 -63.5q-36 0 -62 10t-45 22t-35 21.5t-31 9.5q-20 0 -29 -16.5t-9 -42.5h-175q0 124 46 188.5t136 64.5q36 0 61.5 -10t45 -22t35 -22t31.5 -10q20 0 29 16.5t9 42.5h175zM580 602q0 -125 -46 -189t-136 -64q-36 0 -61.5 10t-45 22
t-35 22t-31.5 10q-20 0 -29 -16.5t-9 -42.5h-175q0 124 46 188t136 64q36 0 61.5 -10t45 -22t35 -21.5t31.5 -9.5q20 0 29 16.5t9 42.5h175z" />
    <glyph glyph-name="notequal" unicode="&#x2260;" horiz-adv-x="592" 
d="M73 546h234l45 105h154l-46 -105h59v-175h-134l-26 -59h160v-175h-235l-46 -106h-152l45 106h-58v175h133l26 59h-159v175z" />
    <glyph glyph-name="lessequal" unicode="&#x2264;" horiz-adv-x="592" 
d="M262 443l269 -64v-179l-470 151v180l470 151v-174zM61 165h470v-165h-470v165z" />
    <glyph glyph-name="greaterequal" unicode="&#x2265;" horiz-adv-x="592" 
d="M61 374l268 64l-268 65v179l470 -151v-180l-470 -151v174zM531 0h-470v165h470v-165z" />
    <glyph glyph-name="lozenge" unicode="&#x25ca;" horiz-adv-x="652" 
d="M220 714h212l195 -357l-195 -357h-212l-195 357zM326 206l78 151l-78 151l-77 -151z" />
    <glyph glyph-name="fi" unicode="&#xf001;" horiz-adv-x="769" 
d="M101 332h-86v167h86v8q0 101 55 158t162 57q37 0 74.5 -6.5t66.5 -14.5l-26 -147q-11 2 -26 4.5t-32 2.5q-33 0 -46.5 -13t-13.5 -41v-8h109v-167h-109v-332h-214v332zM505 528h214v-528h-214v528zM505 714h214v-135h-214v135z" />
    <glyph glyph-name="fl" unicode="&#xf002;" horiz-adv-x="767" 
d="M101 332h-86v167h86v8q0 101 55 158t162 57q37 0 74.5 -6.5t66.5 -14.5l-26 -147q-11 2 -26 4.5t-32 2.5q-33 0 -46.5 -13t-13.5 -41v-8h109v-167h-109v-332h-214v332zM503 714h214v-714h-214v714z" />
    <glyph glyph-name="oneseventh" unicode="&#xf506;" horiz-adv-x="1053" 
d="M172 545l-73 -49l-67 107l152 96h138v-409h-150v255zM448 0h-195l304 691h195zM732 1q24 84 55.5 157.5t60.5 126.5h-168v125h330v-103q-40 -72 -70 -145t-54 -161h-154z" />
    <glyph glyph-name="twosevenths" unicode="&#xf507;" horiz-adv-x="1053" 
d="M48 396l100 75q23 18 39 30.5t25.5 23t14 20t4.5 21.5q0 25 -22 25q-13 0 -20 -8.5t-10 -29.5l-140 11q11 72 57.5 108.5t121.5 36.5q78 0 118.5 -37.5t40.5 -96.5q0 -35 -17.5 -67.5t-69.5 -72.5q-8 -7 -15.5 -12.5t-17.5 -12.5h127l-10 -120h-326v106zM472 0h-195
l304 691h195zM732 1q24 84 55.5 157.5t60.5 126.5h-168v125h330v-103q-40 -72 -70 -145t-54 -161h-154z" />
    <glyph glyph-name="threesevenths" unicode="&#xf508;" horiz-adv-x="1053" 
d="M158 436q1 -22 9.5 -35t27.5 -13q30 0 31 31q0 14 -8 22t-24 8h-23v98h21q28 0 28 27q0 11 -6.5 18.5t-19.5 7.5q-26 0 -32 -33l-138 10q5 65 52.5 98.5t125.5 33.5t122.5 -32.5t44.5 -87.5q0 -23 -9.5 -45t-34.5 -37q29 -16 41.5 -42t12.5 -54q0 -60 -47.5 -95.5
t-132.5 -35.5q-50 0 -84.5 12.5t-56 34t-31 48.5t-9.5 61h140zM461 0h-195l304 691h195zM732 1q24 84 55.5 157.5t60.5 126.5h-168v125h330v-103q-40 -72 -70 -145t-54 -161h-154z" />
    <glyph glyph-name="foursevenths" unicode="&#xf509;" horiz-adv-x="1053" 
d="M24 466l166 233h159v-233h49l-10 -108h-39v-68h-145v68h-180v108zM204 466v84l-59 -84h59zM471 0h-195l304 691h195zM732 1q24 84 55.5 157.5t60.5 126.5h-168v125h330v-103q-40 -72 -70 -145t-54 -161h-154z" />
    <glyph glyph-name="fivesevenths" unicode="&#xf50a;" horiz-adv-x="1053" 
d="M178 586l-3 -39q14 5 28.5 8t34.5 3q38 0 65 -11t43.5 -29.5t24 -43t7.5 -52.5q0 -69 -43.5 -105.5t-125.5 -36.5q-75 0 -120.5 31.5t-52.5 95.5h142q4 -22 28 -22q30 0 30 35q0 34 -30 34q-17 0 -27 -9h-133l21 254h287v-113h-176zM460 0h-195l304 691h195zM732 1
q24 84 55.5 157.5t60.5 126.5h-168v125h330v-103q-40 -72 -70 -145t-54 -161h-154z" />
    <glyph glyph-name="sixsevenths" unicode="&#xf50b;" horiz-adv-x="1053" 
d="M209 600q-17 0 -25 -14t-10 -48q12 7 29 11t40 4q61 0 98.5 -33.5t37.5 -95.5q0 -67 -44 -105.5t-123 -38.5q-92 0 -137 53.5t-45 153.5q0 107 48.5 164.5t137.5 57.5q67 0 108.5 -32t50.5 -90l-140 -10q-4 10 -9 16.5t-17 6.5zM208 385q32 0 32 36q0 15 -7.5 25
t-24.5 10q-12 0 -21.5 -7t-9.5 -27q0 -17 7.5 -27t23.5 -10zM456 0h-195l304 691h195zM732 1q24 84 55.5 157.5t60.5 126.5h-168v125h330v-103q-40 -72 -70 -145t-54 -161h-154z" />
    <glyph glyph-name="oneninth" unicode="&#xf50c;" horiz-adv-x="1053" 
d="M172 545l-73 -49l-67 107l152 96h138v-409h-150v255zM464 0h-195l304 691h195zM847 100q15 0 22.5 12.5t9.5 49.5q-13 -7 -29.5 -11t-39.5 -4q-60 0 -98 33t-38 96q0 67 43.5 105.5t123.5 38.5q94 0 138 -53.5t44 -156.5q0 -58 -13 -99.5t-36.5 -68t-57 -39t-74.5 -12.5
q-73 0 -115 34.5t-50 93.5h144q5 -19 26 -19zM844 315q-31 0 -31 -36q0 -15 7.5 -25t24.5 -10q13 0 22 7.5t9 26.5q0 16 -7.5 26.5t-24.5 10.5z" />
    <glyph glyph-name="twoninths" unicode="&#xf50d;" horiz-adv-x="1053" 
d="M48 396l100 75q23 18 39 30.5t25.5 23t14 20t4.5 21.5q0 25 -22 25q-13 0 -20 -8.5t-10 -29.5l-140 11q11 72 57.5 108.5t121.5 36.5q78 0 118.5 -37.5t40.5 -96.5q0 -35 -17.5 -67.5t-69.5 -72.5q-8 -7 -15.5 -12.5t-17.5 -12.5h127l-10 -120h-326v106zM484 0h-195
l304 691h195zM847 100q15 0 22.5 12.5t9.5 49.5q-13 -7 -29.5 -11t-39.5 -4q-60 0 -98 33t-38 96q0 67 43.5 105.5t123.5 38.5q94 0 138 -53.5t44 -156.5q0 -58 -13 -99.5t-36.5 -68t-57 -39t-74.5 -12.5q-73 0 -115 34.5t-50 93.5h144q5 -19 26 -19zM844 315q-31 0 -31 -36
q0 -15 7.5 -25t24.5 -10q13 0 22 7.5t9 26.5q0 16 -7.5 26.5t-24.5 10.5z" />
    <glyph glyph-name="fourninths" unicode="&#xf50e;" horiz-adv-x="1053" 
d="M24 466l166 233h159v-233h49l-10 -108h-39v-68h-145v68h-180v108zM204 466v84l-59 -84h59zM476 0h-195l304 691h195zM847 100q15 0 22.5 12.5t9.5 49.5q-13 -7 -29.5 -11t-39.5 -4q-60 0 -98 33t-38 96q0 67 43.5 105.5t123.5 38.5q94 0 138 -53.5t44 -156.5
q0 -58 -13 -99.5t-36.5 -68t-57 -39t-74.5 -12.5q-73 0 -115 34.5t-50 93.5h144q5 -19 26 -19zM844 315q-31 0 -31 -36q0 -15 7.5 -25t24.5 -10q13 0 22 7.5t9 26.5q0 16 -7.5 26.5t-24.5 10.5z" />
    <glyph glyph-name="fiveninths" unicode="&#xf50f;" horiz-adv-x="1053" 
d="M178 586l-3 -39q14 5 28.5 8t34.5 3q38 0 65 -11t43.5 -29.5t24 -43t7.5 -52.5q0 -69 -43.5 -105.5t-125.5 -36.5q-75 0 -120.5 31.5t-52.5 95.5h142q4 -22 28 -22q30 0 30 35q0 34 -30 34q-17 0 -27 -9h-133l21 254h287v-113h-176zM470 0h-195l304 691h195zM847 100
q15 0 22.5 12.5t9.5 49.5q-13 -7 -29.5 -11t-39.5 -4q-60 0 -98 33t-38 96q0 67 43.5 105.5t123.5 38.5q94 0 138 -53.5t44 -156.5q0 -58 -13 -99.5t-36.5 -68t-57 -39t-74.5 -12.5q-73 0 -115 34.5t-50 93.5h144q5 -19 26 -19zM844 315q-31 0 -31 -36q0 -15 7.5 -25
t24.5 -10q13 0 22 7.5t9 26.5q0 16 -7.5 26.5t-24.5 10.5z" />
    <glyph glyph-name="sevenninths" unicode="&#xf510;" horiz-adv-x="1053" 
d="M91 290q24 84 55.5 157.5t60.5 126.5h-168v125h330v-103q-40 -72 -70 -145t-54 -161h-154zM442 0h-195l304 691h195zM847 100q15 0 22.5 12.5t9.5 49.5q-13 -7 -29.5 -11t-39.5 -4q-60 0 -98 33t-38 96q0 67 43.5 105.5t123.5 38.5q94 0 138 -53.5t44 -156.5
q0 -58 -13 -99.5t-36.5 -68t-57 -39t-74.5 -12.5q-73 0 -115 34.5t-50 93.5h144q5 -19 26 -19zM844 315q-31 0 -31 -36q0 -15 7.5 -25t24.5 -10q13 0 22 7.5t9 26.5q0 16 -7.5 26.5t-24.5 10.5z" />
    <glyph glyph-name="eightninths" unicode="&#xf511;" horiz-adv-x="1053" 
d="M204 280q-93 0 -135.5 33t-42.5 91q0 37 16 61t42 36q-24 14 -36 36.5t-12 51.5q0 56 43.5 88t128.5 32q84 0 126 -32t42 -86q0 -61 -48 -90q25 -12 41.5 -34.5t16.5 -61.5q0 -59 -44.5 -92t-137.5 -33zM173 415q0 -14 7.5 -23t24.5 -9q19 0 26.5 9t7.5 23t-7.5 23
t-26.5 9q-17 0 -24.5 -9t-7.5 -23zM177 578q0 -12 6.5 -20t20.5 -8q17 0 24 8t7 20q0 13 -7 21t-24 8q-14 0 -20.5 -8t-6.5 -21zM476 0h-195l304 691h195zM847 100q15 0 22.5 12.5t9.5 49.5q-13 -7 -29.5 -11t-39.5 -4q-60 0 -98 33t-38 96q0 67 43.5 105.5t123.5 38.5
q94 0 138 -53.5t44 -156.5q0 -58 -13 -99.5t-36.5 -68t-57 -39t-74.5 -12.5q-73 0 -115 34.5t-50 93.5h144q5 -19 26 -19zM844 315q-31 0 -31 -36q0 -15 7.5 -25t24.5 -10q13 0 22 7.5t9 26.5q0 16 -7.5 26.5t-24.5 10.5z" />
    <glyph glyph-name="zero.alt" unicode="&#xf800;" horiz-adv-x="627" 
d="M35 343q0 193 71 280t211 87q143 0 209 -88.5t66 -272.5q0 -190 -69.5 -278.5t-212.5 -88.5t-209 88.5t-66 272.5zM257 346q0 -54 3 -88.5t9.5 -54.5t17.5 -28t26 -8q16 0 26.5 8t17.5 28t10 54.5t3 88.5t-3 88.5t-10 54.5t-17.5 28t-26.5 8q-15 0 -26 -8t-17.5 -28
t-9.5 -54.5t-3 -88.5z" />
    <glyph glyph-name="one.alt" unicode="&#xf801;" horiz-adv-x="477" 
d="M205 451l-95 -69l-101 152l232 157h180v-691h-216v451z" />
    <glyph glyph-name="two.alt" unicode="&#xf802;" horiz-adv-x="607" 
d="M51 0v161q15 12 35 28.5t42 34.5l44 36t41 34q38 31 64.5 55t43 44.5t23.5 40t7 40.5q0 56 -48 56q-27 0 -42 -17t-20 -58l-205 19q12 111 83 173t194 63q122 0 187 -59.5t65 -158.5q0 -38 -8.5 -69t-24 -57.5t-37.5 -51.5t-48 -50q-31 -29 -58.5 -52.5t-44.5 -36.5h233
l-18 -175h-508z" />
    <glyph glyph-name="three.alt" unicode="&#xf803;" horiz-adv-x="600" 
d="M236 245q1 -42 18.5 -64.5t49.5 -22.5q25 0 42 14.5t17 44.5q0 26 -15.5 42t-49.5 16h-47v156h48q54 0 54 50q0 21 -11 36t-39 15q-25 0 -40 -15.5t-21 -53.5l-198 18q4 59 26.5 102t59 71.5t84.5 42t103 13.5q58 0 103.5 -14.5t76.5 -40t47.5 -61t16.5 -78.5
q0 -22 -4.5 -44t-15.5 -42t-28.5 -36.5t-42.5 -26.5q59 -24 83.5 -70t24.5 -99q0 -48 -17.5 -88t-51.5 -68.5t-84 -44t-115 -15.5q-75 0 -127 20t-85 54t-48 79.5t-15 96.5v13h201z" />
    <glyph glyph-name="four.alt" unicode="&#xf804;" horiz-adv-x="616" 
d="M40 288l274 403h211v-411h71l-16 -158h-55v-122h-196v122h-289v166zM329 280v164l-112 -164h112z" />
    <glyph glyph-name="five.alt" unicode="&#xf805;" horiz-adv-x="578" 
d="M252 516l-7 -80q21 11 46.5 17t57.5 6q54 0 93 -18.5t64.5 -50t38 -74t12.5 -91.5q0 -121 -69.5 -182t-190.5 -61q-57 0 -103.5 14t-81 42t-55.5 71t-25 101h207q4 -27 16.5 -41t37.5 -14q26 0 40 17t14 55q0 37 -14 53t-43 16q-20 0 -32.5 -6.5t-23.5 -20.5h-186l38 422
h429v-175h-263z" />
    <glyph glyph-name="six.alt" unicode="&#xf806;" horiz-adv-x="601" 
d="M313 537q-38 0 -54 -34.5t-19 -94.5q21 15 49.5 25.5t70.5 10.5q43 0 81.5 -13.5t67.5 -40.5t45.5 -67.5t16.5 -95.5q0 -57 -19 -102.5t-53.5 -77t-83 -48.5t-107.5 -17q-135 0 -204 84t-69 257q0 96 20.5 168t58.5 121t91 73.5t119 24.5q100 0 163 -53.5t77 -153.5
l-199 -18q-4 22 -15 37t-37 15zM306 148q27 0 45 18.5t18 57.5q0 30 -14 49.5t-46 19.5q-25 0 -44.5 -14.5t-19.5 -54.5q0 -32 14.5 -54t46.5 -22z" />
    <glyph glyph-name="seven.alt" unicode="&#xf807;" horiz-adv-x="587" 
d="M117 0q20 74 45 145.5t51.5 136.5t53.5 122t51 102h-280v185h512v-156q-34 -63 -63.5 -126t-55 -128t-48.5 -135t-44 -146h-222z" />
    <glyph glyph-name="eight.alt" unicode="&#xf808;" horiz-adv-x="612" 
d="M311 -18q-73 0 -124.5 15t-84 42.5t-47.5 65.5t-15 83q0 67 27.5 107.5t72.5 61.5q-41 23 -61 61.5t-20 89.5q0 91 65 146.5t193 55.5q65 0 112.5 -15t78.5 -41.5t46 -63t15 -79.5q0 -52 -20.5 -91.5t-60.5 -62.5q19 -9 37.5 -23t32 -34t22 -46.5t8.5 -62.5
q0 -47 -16 -85.5t-50 -66t-86 -42.5t-125 -15zM242 212q0 -28 16 -45.5t56 -17.5t56 17.5t16 45.5t-16 45.5t-57 17.5q-39 0 -55 -17.5t-16 -45.5zM250 487q0 -25 13.5 -41t48.5 -16t49 16t14 41q0 26 -14.5 42t-48.5 16t-48 -16t-14 -42z" />
    <glyph glyph-name="nine.alt" unicode="&#xf809;" horiz-adv-x="601" 
d="M293 155q16 0 28.5 6t21 20.5t13 38.5t4.5 61q-20 -15 -48.5 -25t-70.5 -10q-44 0 -82 13.5t-67 41t-45.5 68.5t-16.5 97q0 57 18.5 102t52 76.5t82 48.5t108.5 17q65 0 116 -20t86.5 -63t54 -109.5t18.5 -159.5q0 -102 -21.5 -173.5t-59 -116.5t-88.5 -65.5t-110 -20.5
q-109 0 -175 57.5t-75 160.5h200q9 -45 56 -45zM295 544q-27 0 -45 -18.5t-18 -57.5q0 -30 14 -49.5t46 -19.5q12 0 23.5 3t20.5 11t14.5 21.5t5.5 33.5q0 32 -14.5 54t-46.5 22z" />
    <glyph glyph-name="zero.sups" unicode="&#xf80a;" 
d="M14 614q0 55 14 95.5t39.5 67t61 39.5t77.5 13t77.5 -13t61 -39.5t39.5 -67t14 -95.5t-14 -95t-39.5 -66.5t-61 -39.5t-77.5 -13t-77.5 13t-61 39.5t-39.5 66.5t-14 95zM175 613q0 -25 2 -40t6 -23.5t10 -11t13 -2.5t13 2.5t10 11t6 23.5t2 40t-2 40t-6 23.5t-10 11.5
t-13 3t-13 -3t-10 -11t-6 -23.5t-2 -40.5z" />
    <glyph glyph-name="one.sups" unicode="&#xf80b;" 
d="M172 658l-73 -49l-67 107l152 96h138v-409h-150v255z" />
    <glyph glyph-name="two.sups" unicode="&#xf80c;" 
d="M48 516l100 75q23 18 39 30.5t25.5 23t14 20t4.5 21.5q0 25 -22 25q-13 0 -20 -8.5t-10 -29.5l-140 11q11 72 57.5 108.5t121.5 36.5q78 0 118.5 -37.5t40.5 -96.5q0 -35 -17.5 -67.5t-69.5 -72.5q-8 -7 -15.5 -12.5t-17.5 -12.5h127l-10 -120h-326v106z" />
    <glyph glyph-name="three.sups" unicode="&#xf80d;" 
d="M167 556q1 -22 9.5 -35t27.5 -13q30 0 31 31q0 14 -8 22t-24 8h-23v98h21q28 0 28 27q0 11 -6.5 18.5t-19.5 7.5q-26 0 -32 -33l-138 10q5 65 52.5 98.5t125.5 33.5t122.5 -32.5t44.5 -87.5q0 -23 -9.5 -45t-34.5 -37q29 -16 41.5 -42t12.5 -54q0 -60 -47.5 -95.5
t-132.5 -35.5q-50 0 -84.5 12.5t-56 34t-31 48.5t-9.5 61h140z" />
    <glyph glyph-name="four.sups" unicode="&#xf80e;" 
d="M24 579l166 233h159v-233h49l-10 -108h-39v-68h-145v68h-180v108zM204 579v84l-59 -84h59z" />
    <glyph glyph-name="five.sups" unicode="&#xf80f;" 
d="M178 699l-3 -39q14 5 28.5 8t34.5 3q38 0 65 -11t43.5 -29.5t24 -43t7.5 -52.5q0 -69 -43.5 -105.5t-125.5 -36.5q-75 0 -120.5 31.5t-52.5 95.5h142q4 -22 28 -22q30 0 30 35q0 34 -30 34q-17 0 -27 -9h-133l21 254h287v-113h-176z" />
    <glyph glyph-name="six.sups" unicode="&#xf810;" 
d="M209 720q-17 0 -25 -14t-10 -48q12 7 29 11t40 4q61 0 98.5 -33.5t37.5 -95.5q0 -67 -44 -105.5t-123 -38.5q-92 0 -137 53.5t-45 153.5q0 107 48.5 164.5t137.5 57.5q67 0 108.5 -32t50.5 -90l-140 -10q-4 10 -9 16.5t-17 6.5zM208 505q32 0 32 36q0 15 -7.5 25
t-24.5 10q-12 0 -21.5 -7t-9.5 -27q0 -17 7.5 -27t23.5 -10z" />
    <glyph glyph-name="seven.sups" unicode="&#xf811;" 
d="M91 403q24 84 55.5 157.5t60.5 126.5h-168v125h330v-103q-40 -72 -70 -145t-54 -161h-154z" />
    <glyph glyph-name="eight.sups" unicode="&#xf812;" 
d="M204 400q-93 0 -135.5 33t-42.5 91q0 37 16 61t42 36q-24 14 -36 36.5t-12 51.5q0 56 43.5 88t128.5 32q84 0 126 -32t42 -86q0 -61 -48 -90q25 -12 41.5 -34.5t16.5 -61.5q0 -59 -44.5 -92t-137.5 -33zM173 535q0 -14 7.5 -23t24.5 -9q19 0 26.5 9t7.5 23t-7.5 23
t-26.5 9q-17 0 -24.5 -9t-7.5 -23zM177 698q0 -12 6.5 -20t20.5 -8q17 0 24 8t7 20q0 13 -7 21t-24 8q-14 0 -20.5 -8t-6.5 -21z" />
    <glyph glyph-name="nine.sups" unicode="&#xf813;" 
d="M206 509q15 0 22.5 12.5t9.5 49.5q-13 -7 -29.5 -11t-39.5 -4q-60 0 -98 33t-38 96q0 67 43.5 105.5t123.5 38.5q94 0 138 -53.5t44 -156.5q0 -58 -13 -99.5t-36.5 -68t-57 -39t-74.5 -12.5q-73 0 -115 34.5t-50 93.5h144q5 -19 26 -19zM203 724q-31 0 -31 -36
q0 -15 7.5 -25t24.5 -10q13 0 22 7.5t9 26.5q0 16 -7.5 26.5t-24.5 10.5z" />
    <glyph glyph-name="zero.sinf" unicode="&#xf814;" 
d="M14 77q0 55 14 95.5t39.5 67t61 39.5t77.5 13t77.5 -13t61 -39.5t39.5 -67t14 -95.5t-14 -95t-39.5 -66.5t-61 -39.5t-77.5 -13t-77.5 13t-61 39.5t-39.5 66.5t-14 95zM175 76q0 -25 2 -40t6 -23.5t10 -11t13 -2.5t13 2.5t10 11t6 23.5t2 40t-2 40t-6 23.5t-10 11.5
t-13 3t-13 -3t-10 -11t-6 -23.5t-2 -40.5z" />
    <glyph glyph-name="one.sinf" unicode="&#xf815;" 
d="M172 135l-73 -49l-67 107l152 96h138v-409h-150v255z" />
    <glyph glyph-name="two.sinf" unicode="&#xf816;" 
d="M48 -14l100 75q23 18 39 30.5t25.5 23t14 20t4.5 21.5q0 25 -22 25q-13 0 -20 -8.5t-10 -29.5l-140 11q11 72 57.5 108.5t121.5 36.5q78 0 118.5 -37.5t40.5 -96.5q0 -35 -17.5 -67.5t-69.5 -72.5q-8 -7 -15.5 -12.5t-17.5 -12.5h127l-10 -120h-326v106z" />
    <glyph glyph-name="three.sinf" unicode="&#xf817;" 
d="M167 19q1 -22 9.5 -35t27.5 -13q30 0 31 31q0 14 -8 22t-24 8h-23v98h21q28 0 28 27q0 11 -6.5 18.5t-19.5 7.5q-26 0 -32 -33l-138 10q5 65 52.5 98.5t125.5 33.5t122.5 -32.5t44.5 -87.5q0 -23 -9.5 -45t-34.5 -37q29 -16 41.5 -42t12.5 -54q0 -60 -47.5 -95.5
t-132.5 -35.5q-50 0 -84.5 12.5t-56 34t-31 48.5t-9.5 61h140z" />
    <glyph glyph-name="four.sinf" unicode="&#xf818;" 
d="M24 56l166 233h159v-233h49l-10 -108h-39v-68h-145v68h-180v108zM204 56v84l-59 -84h59z" />
    <glyph glyph-name="five.sinf" unicode="&#xf819;" 
d="M178 169l-3 -39q14 5 28.5 8t34.5 3q38 0 65 -11t43.5 -29.5t24 -43t7.5 -52.5q0 -69 -43.5 -105.5t-125.5 -36.5q-75 0 -120.5 31.5t-52.5 95.5h142q4 -22 28 -22q30 0 30 35q0 34 -30 34q-17 0 -27 -9h-133l21 254h287v-113h-176z" />
    <glyph glyph-name="six.sinf" unicode="&#xf81a;" 
d="M209 183q-17 0 -25 -14t-10 -48q12 7 29 11t40 4q61 0 98.5 -33.5t37.5 -95.5q0 -67 -44 -105.5t-123 -38.5q-92 0 -137 53.5t-45 153.5q0 107 48.5 164.5t137.5 57.5q67 0 108.5 -32t50.5 -90l-140 -10q-4 10 -9 16.5t-17 6.5zM208 -32q32 0 32 36q0 15 -7.5 25
t-24.5 10q-12 0 -21.5 -7t-9.5 -27q0 -17 7.5 -27t23.5 -10z" />
    <glyph glyph-name="seven.sinf" unicode="&#xf81b;" 
d="M91 -120q24 84 55.5 157.5t60.5 126.5h-168v125h330v-103q-40 -72 -70 -145t-54 -161h-154z" />
    <glyph glyph-name="eight.sinf" unicode="&#xf81c;" 
d="M204 -137q-93 0 -135.5 33t-42.5 91q0 37 16 61t42 36q-24 14 -36 36.5t-12 51.5q0 56 43.5 88t128.5 32q84 0 126 -32t42 -86q0 -61 -48 -90q25 -12 41.5 -34.5t16.5 -61.5q0 -59 -44.5 -92t-137.5 -33zM173 -2q0 -14 7.5 -23t24.5 -9q19 0 26.5 9t7.5 23t-7.5 23
t-26.5 9q-17 0 -24.5 -9t-7.5 -23zM177 161q0 -12 6.5 -20t20.5 -8q17 0 24 8t7 20q0 13 -7 21t-24 8q-14 0 -20.5 -8t-6.5 -21z" />
    <glyph glyph-name="nine.sinf" unicode="&#xf81d;" 
d="M206 -28q15 0 22.5 12.5t9.5 49.5q-13 -7 -29.5 -11t-39.5 -4q-60 0 -98 33t-38 96q0 67 43.5 105.5t123.5 38.5q94 0 138 -53.5t44 -156.5q0 -58 -13 -99.5t-36.5 -68t-57 -39t-74.5 -12.5q-73 0 -115 34.5t-50 93.5h144q5 -19 26 -19zM203 187q-31 0 -31 -36
q0 -15 7.5 -25t24.5 -10q13 0 22 7.5t9 26.5q0 16 -7.5 26.5t-24.5 10.5z" />
    <glyph glyph-name="i.locl" horiz-adv-x="314" 
d="M50 528h214v-528h-214v528zM50 714h214v-135h-214v135z" />
    <glyph glyph-name="hungarumlaut.cap" horiz-adv-x="445" 
d="M59 935h196l-146 -163h-163zM303 935h196l-146 -163h-163z" />
    <glyph glyph-name="cedilla.cap" horiz-adv-x="445" 
d="M261 12l-20 -55q33 -5 53.5 -15t32 -22.5t15.5 -28t4 -30.5q0 -47 -42 -71.5t-115 -24.5q-15 0 -36 1.5t-55 6.5v87q24 -2 39.5 -3t26.5 -1q43 0 43 23q0 12 -11.5 18t-42.5 6h-35l43 109h100z" />
    <glyph glyph-name="tilde.cap" horiz-adv-x="445" 
d="M439 946q0 -91 -35.5 -134t-99.5 -43q-26 0 -44.5 6t-34 13t-28.5 13t-28 6q-18 0 -26 -11t-8 -31h-130q0 91 35.5 134t100.5 43q25 0 44 -6t34 -13t28.5 -13t27.5 -6q19 0 26.5 11t7.5 31h130z" />
    <glyph glyph-name="ogonek.cap" horiz-adv-x="445" 
d="M340 -208q-19 -3 -39 -5t-46 -2q-45 0 -74.5 7t-47 20t-24.5 30t-7 38q0 38 23 65.5t66 54.5h152q-35 -17 -55 -32.5t-20 -36.5q0 -17 12.5 -22t27.5 -5q8 0 15 0.5t17 1.5v-114z" />
    <glyph glyph-name="ring.cap" horiz-adv-x="445" 
d="M183 874q0 -20 11 -30t28 -10t28.5 10t11.5 30t-11.5 30t-28.5 10t-28 -10t-11 -30zM81 874q0 34 11.5 59.5t31 42t45 25t53.5 8.5t54 -8.5t45.5 -25t31 -42t11.5 -59.5t-11.5 -59.5t-31 -42t-45.5 -25t-54 -8.5t-53.5 8.5t-45 25t-31 42t-11.5 59.5z" />
    <glyph glyph-name="caron.cap" horiz-adv-x="445" 
d="M122 772l-131 163h178l51 -66l52 66h183l-131 -163h-202z" />
    <glyph glyph-name="macron.cap" horiz-adv-x="445" 
d="M50 928h344v-149h-344v149z" />
    <glyph glyph-name="dieresis.cap" horiz-adv-x="445" 
d="M2 928h195v-156h-195v156zM248 928h194v-156h-194v156z" />
    <glyph glyph-name="dotaccent.cap" horiz-adv-x="445" 
d="M112 928h220v-156h-220v156z" />
    <glyph glyph-name="circumflex.cap" horiz-adv-x="445" 
d="M324 935l131 -163h-178l-52 66l-51 -66h-183l131 163h202z" />
    <glyph glyph-name="acute.cap" horiz-adv-x="445" 
d="M237 772h-200l128 163h242z" />
    <glyph glyph-name="grave.cap" horiz-adv-x="445" 
d="M37 935h242l128 -163h-200z" />
    <glyph glyph-name="breve.cap" horiz-adv-x="445" 
d="M218 767q-92 0 -143 42.5t-51 125.5h149q0 -23 12 -35.5t37 -12.5t37 12.5t12 35.5h149q0 -43 -14.5 -74.5t-41.5 -52.5t-64 -31t-82 -10z" />
    <glyph glyph-name="commaaccent.cap" horiz-adv-x="445" 
d="M152 -66h228l-129 -177h-187z" />
    <glyph glyph-name="caron.alt" horiz-adv-x="445" 
d="M141 714h197l-72 -295h-159z" />
    <glyph glyph-name="commaaccent" horiz-adv-x="445" 
d="M150 -66h233l-129 -177h-192z" />
    <glyph glyph-name="revcommaaccent" horiz-adv-x="445" 
d="M296 584h-233l127 173h192z" />
    <glyph glyph-name="highrevcomma" horiz-adv-x="445" 
d="M296 584h-233l127 173h192z" />
    <glyph glyph-name="Parenleft" horiz-adv-x="379" 
d="M40 357q0 126 35.5 234t95.5 195h208q-59 -107 -86.5 -212t-27.5 -217t27.5 -217t86.5 -212h-213q-58 87 -92 195t-34 234z" />
    <glyph glyph-name="Parenright" horiz-adv-x="379" 
d="M339 357q0 -126 -35.5 -234t-95.5 -195h-208q59 107 86.5 212t27.5 217t-27.5 217t-86.5 212h213q58 -87 92 -195t34 -234z" />
    <glyph glyph-name="Hyphen" horiz-adv-x="427" 
d="M35 452h357v-190h-357v190z" />
    <glyph glyph-name="Slash" horiz-adv-x="464" 
d="M221 -9h-211l232 734h212z" />
    <glyph glyph-name="At" horiz-adv-x="1030" 
d="M557 361q2 12 3 22t1 19q0 21 -6.5 33t-22.5 12q-17 0 -28.5 -14t-18.5 -34.5t-10 -43.5t-3 -40q0 -23 7 -37t25 -14q20 0 31.5 17t18.5 61zM842 59q-18 -28 -49 -59.5t-77 -58.5t-107 -44.5t-139 -17.5q-95 0 -175 29.5t-138 85.5t-90 137t-32 184q0 121 43.5 217.5
t116.5 163.5t169.5 102.5t201.5 35.5q93 0 171.5 -27.5t135.5 -79.5t89.5 -127t32.5 -169q0 -71 -19 -130t-52.5 -101t-81.5 -65.5t-106 -23.5q-50 0 -94 19t-66 62q-52 -81 -137 -81q-38 0 -67 14t-48.5 40t-30 62.5t-10.5 81.5q0 58 16.5 108.5t45.5 88.5t68 60t84 22
q35 0 59 -13t39 -35l7 39h172l-47 -279q-1 -8 -1.5 -12.5t-0.5 -7.5q0 -20 9.5 -30.5t24.5 -10.5t30.5 12t28 36t20.5 59t8 80q0 73 -21 125.5t-58.5 87t-90 51t-115.5 16.5q-90 0 -160 -31t-118 -84t-73.5 -124t-25.5 -152q0 -66 17.5 -122.5t53.5 -97.5t91.5 -64.5
t131.5 -23.5q58 0 97 13.5t75 38.5h192z" />
    <glyph glyph-name="Bracketleft" horiz-adv-x="420" 
d="M60 786h330v-182h-116v-494h116v-182h-330v858z" />
    <glyph glyph-name="Backslash" horiz-adv-x="464" 
d="M10 725h212l232 -734h-211z" />
    <glyph glyph-name="Bracketright" horiz-adv-x="420" 
d="M360 -72h-330v182h116v494h-116v182h330v-858z" />
    <glyph glyph-name="Braceleft" horiz-adv-x="431" 
d="M224 357q36 -15 52.5 -47t16.5 -74v-68q0 -31 12 -44.5t36 -13.5h60v-182h-103q-113 0 -161.5 47.5t-48.5 147.5v77q0 32 -15.5 51t-47.5 19h-10v174h10q32 0 47.5 19t15.5 51v77q0 46 12 82.5t37 61.5t65 38t96 13h103v-182h-60q-24 0 -36 -13.5t-12 -44.5v-68
q0 -42 -16.5 -74t-52.5 -47z" />
    <glyph glyph-name="Braceright" horiz-adv-x="431" 
d="M207 357q-36 15 -52.5 47t-16.5 74v68q0 31 -12 44.5t-36 13.5h-60v182h103q113 0 161.5 -47.5t48.5 -147.5v-77q0 -32 15.5 -51t47.5 -19h10v-174h-10q-32 0 -47.5 -19t-15.5 -51v-77q1 -92 -48.5 -143.5t-161.5 -51.5h-103v182h60q24 0 36 13.5t12 44.5v68
q0 42 16.5 74t52.5 47z" />
    <glyph glyph-name="Guilsinglleft" horiz-adv-x="389" 
d="M256 357l103 -230h-217l-117 229l117 231h217z" />
    <glyph glyph-name="Bullet" horiz-adv-x="416" 
d="M40 358q0 37 12.5 68t35 53.5t53.5 34.5t67 12t67 -12t53.5 -34.5t35 -53.5t12.5 -68q0 -38 -12.5 -68.5t-35 -53t-53.5 -34.5t-67 -12t-67 12t-53.5 34.5t-35 53t-12.5 68.5z" />
    <glyph glyph-name="Endash" horiz-adv-x="500" 
d="M0 448h500v-182h-500v182z" />
    <glyph glyph-name="Emdash" horiz-adv-x="1000" 
d="M0 448h1000v-182h-1000v182z" />
    <glyph glyph-name="Guilsinglright" horiz-adv-x="389" 
d="M133 357l-103 230h217l117 -229l-117 -231h-217z" />
    <glyph glyph-name="Exclamdown" horiz-adv-x="335" 
d="M75 483h186l24 -483h-235zM71 714h194v-185h-194v185z" />
    <glyph glyph-name="Guillemotleft" horiz-adv-x="664" 
d="M634 127h-207l-117 231l117 229h207l-103 -230zM349 127h-207l-117 231l117 229h207l-103 -230z" />
    <glyph glyph-name="Guillemotright" horiz-adv-x="664" 
d="M133 357l-103 230h207l117 -229l-117 -231h-207zM418 357l-103 230h207l117 -229l-117 -231h-207z" />
    <glyph glyph-name="Questiondown" horiz-adv-x="558" 
d="M375 529h-194v185h194v-185zM371 483v-19q0 -35 -6 -60.5t-17.5 -45t-26.5 -36t-33 -33.5q-29 -27 -41 -42t-12 -38q0 -46 48 -46q26 0 42 16.5t20 52.5l198 -17q-5 -51 -23.5 -93t-52 -71.5t-82.5 -46t-115 -16.5q-118 0 -184 50.5t-66 138.5q0 33 8.5 58.5t22 47
t31.5 39.5t37 35q35 30 50 52.5t15 54.5v19h187z" />
    </font>
</defs>
</svg>
